<?xml version="1.0" encoding="UTF-8" standalone="no"?><!-- Generator: Gravit.io --><svg xmlns="http://www.w3.org/2000/svg" xmlns:xlink="http://www.w3.org/1999/xlink" style="isolation:isolate" viewBox="0 0 512 512" width="512pt" height="512pt"><defs><clipPath id="_clipPath_TI5GW9OM4O8NdZH2yqWf0jt8TS0i9gkh"><rect width="512" height="512"/></clipPath></defs><g clip-path="url(#_clipPath_TI5GW9OM4O8NdZH2yqWf0jt8TS0i9gkh)"><g><linearGradient id="_lgradient_4" x1="0" y1="0.5" x2="0.7071067817412212" y2="1.2071067806318738" gradientTransform="matrix(96.472,0,0,105.076,238.811,25.533)" gradientUnits="userSpaceOnUse"><stop offset="0%" stop-opacity="1" style="stop-color:rgb(156,96,173)"/><stop offset="100%" stop-opacity="1" style="stop-color:rgb(179,106,182)"/></linearGradient><path d=" M 335.283 98.894 L 287.764 130.609 L 238.811 57.248 L 286.33 25.533 L 335.283 98.894 L 335.283 98.894 Z " fill-rule="evenodd" fill="url(#_lgradient_4)"/><linearGradient id="_lgradient_5" x1="0" y1="0.5" x2="0.561253997588527" y2="1.3276436130309337" gradientTransform="matrix(192.074,0,0,207.434,263.034,298.064)" gradientUnits="userSpaceOnUse"><stop offset="0%" stop-opacity="1" style="stop-color:rgb(158,32,120)"/><stop offset="46.31031534807979%" stop-opacity="1" style="stop-color:rgb(119,50,122)"/><stop offset="83.4496223400798%" stop-opacity="1" style="stop-color:rgb(110,77,155)"/></linearGradient><path d=" M 373.916 319.288 L 455.107 440.953 L 358.389 505.497 L 277.198 383.83 L 263.034 362.607 L 359.754 298.064 L 373.916 319.288 L 373.916 319.288 Z " fill-rule="evenodd" fill="url(#_lgradient_5)"/><linearGradient id="_lgradient_6" x1="0" y1="0.5" x2="0.6157676554575262" y2="1.2879277850744582" gradientTransform="matrix(105.658,0,0,97.138,164.316,379.355)" gradientUnits="userSpaceOnUse"><stop offset="0%" stop-opacity="1" style="stop-color:rgb(131,86,163)"/><stop offset="100%" stop-opacity="1" style="stop-color:rgb(182,107,183)"/></linearGradient><path d=" M 252.098 400.58 L 269.974 427.366 L 196.356 476.494 L 164.316 428.483 L 180.399 417.75 L 237.935 379.355 L 252.098 400.58 L 252.098 400.58 Z " fill-rule="evenodd" fill="url(#_lgradient_6)"/><linearGradient id="_lgradient_7" x1="0" y1="0.5" x2="0.772515270682758" y2="1.1349961862577955" gradientTransform="matrix(79.563,0,0,79.726,387.261,247.992)" gradientUnits="userSpaceOnUse"><stop offset="0%" stop-opacity="1" style="stop-color:rgb(128,84,162)"/><stop offset="100%" stop-opacity="1" style="stop-color:rgb(183,107,184)"/></linearGradient><path d=" M 414.137 261.771 L 434.786 247.992 L 466.824 296.003 L 419.3 327.718 L 401.424 300.932 L 428.3 282.996 L 414.137 261.771 L 414.137 261.771 Z  M 401.424 300.932 L 387.261 279.707 L 414.137 261.771 L 428.3 282.996 L 401.424 300.932 L 401.424 300.932 Z " fill-rule="evenodd" fill="url(#_lgradient_7)"/><linearGradient id="_lgradient_8" x1="0" y1="0.5" x2="0.7505055538700369" y2="1.1608641415678636" gradientTransform="matrix(122.574,0,0,122.489,15.866,156.898)" gradientUnits="userSpaceOnUse"><stop offset="0%" stop-opacity="1" style="stop-color:rgb(163,99,176)"/><stop offset="100%" stop-opacity="1" style="stop-color:rgb(177,105,181)"/></linearGradient><path d=" M 80.904 268.655 L 64.823 279.387 L 15.866 206.026 L 89.483 156.898 L 123.799 208.322 L 66.265 246.717 L 123.799 208.322 L 138.44 230.262 L 80.904 268.655 L 80.904 268.655 Z " fill-rule="evenodd" fill="url(#_lgradient_8)"/><linearGradient id="_lgradient_9" x1="0" y1="0.5" x2="0.5607597848973601" y2="1.3279785405684537" gradientTransform="matrix(191.791,0,0,207.009,68.468,6.503)" gradientUnits="userSpaceOnUse"><stop offset="16.958751012751534%" stop-opacity="1" style="stop-color:rgb(237,44,137)"/><stop offset="49.65569343075153%" stop-opacity="1" style="stop-color:rgb(205,15,126)"/><stop offset="84.68813173575154%" stop-opacity="1" style="stop-color:rgb(179,23,119)"/><stop offset="100%" stop-opacity="1" style="stop-color:rgb(148,37,121)"/><stop offset="100%" stop-opacity="1" style="stop-color:rgb(115,62,136)"/></linearGradient><path d=" M 245.619 127.029 L 260.259 148.968 L 163.539 213.512 L 148.899 191.572 L 68.468 71.047 L 165.188 6.503 L 245.619 127.029 L 245.619 127.029 Z " fill-rule="evenodd" fill="url(#_lgradient_9)"/><linearGradient id="_lgradient_10" x1="0" y1="0.5" x2="0.6383573980704537" y2="1.269740107002825" gradientTransform="matrix(96.482,0,0,105.076,238.809,25.535)" gradientUnits="userSpaceOnUse"><stop offset="0%" stop-opacity="1" style="stop-color:rgb(159,97,174)"/><stop offset="100%" stop-opacity="1" style="stop-color:rgb(180,106,182)"/></linearGradient><path d=" M 314.642 112.678 L 287.766 130.612 L 273.125 108.674 L 238.809 57.25 L 286.334 25.535 L 335.291 98.897 L 314.642 112.678 L 314.642 112.678 Z " fill-rule="evenodd" fill="url(#_lgradient_10)"/><path d=" M 194.564 438.975 L 180.399 417.75 L 237.935 379.355 L 252.098 400.58 L 194.564 438.975 L 194.564 438.975 Z " fill-rule="evenodd" fill="rgb(113,72,150)"/><path d=" M 401.424 300.932 L 387.261 279.707 L 414.137 261.771 L 428.3 282.996 L 401.424 300.932 L 401.424 300.932 Z " fill-rule="evenodd" fill="rgb(111,71,149)"/><path d=" M 80.904 268.655 L 66.265 246.717 L 123.799 208.322 L 138.44 230.262 L 80.904 268.655 L 80.904 268.655 Z " fill-rule="evenodd" fill="rgb(136,81,159)"/><path d=" M 287.766 130.612 L 273.125 108.674 L 300.002 90.738 L 314.642 112.678 L 287.766 130.612 L 287.766 130.612 Z " fill-rule="evenodd" fill="rgb(133,80,158)"/><path d=" M 373.916 319.288 L 277.198 383.83 L 263.034 362.607 L 359.754 298.063 L 373.916 319.288 L 373.916 319.288 Z " fill-rule="evenodd" fill="rgb(141,22,106)"/><path d=" M 245.619 127.029 L 260.259 148.968 L 163.539 213.512 L 148.899 191.572 L 245.619 127.029 L 245.619 127.029 Z " fill-rule="evenodd" fill="rgb(167,13,111)"/><rect x="32.477" y="115.86" width="32.888" height="32.888" transform="matrix(0.555,0.832,-0.832,0.555,131.816,18.172)" fill="rgb(158,97,173)"/><rect x="131.063" y="443.812" width="32.888" height="32.888" transform="matrix(0.555,0.832,-0.832,0.555,448.469,82.081)" fill="rgb(128,83,163)"/><linearGradient id="_lgradient_11" x1="0" y1="0.5" x2="0.7124958346067413" y2="-0.2016763396809409" gradientTransform="matrix(460.311,91.844,-91.471,458.439,71.32,-13.439)" gradientUnits="userSpaceOnUse"><stop offset="10.553948996543717%" stop-opacity="1" style="stop-color:rgb(110,77,155)"/><stop offset="21.607882642543714%" stop-opacity="1" style="stop-color:rgb(119,50,122)"/><stop offset="52.40098351354372%" stop-opacity="1" style="stop-color:rgb(179,23,119)"/><stop offset="72.92971742754372%" stop-opacity="1" style="stop-color:rgb(205,15,126)"/><stop offset="89.5106178965437%" stop-opacity="1" style="stop-color:rgb(237,44,137)"/></linearGradient><path d=" M 80.091 465.001 L 0 344.007 L 428.016 57.731 L 512 176.794 L 80.091 465.001 L 80.091 465.001 Z " fill-rule="evenodd" fill="url(#_lgradient_11)"/></g></g></svg>