<?xml version="1.0" encoding="UTF-8" standalone="no"?><!-- Generator: Gravit.io --><svg xmlns="http://www.w3.org/2000/svg" xmlns:xlink="http://www.w3.org/1999/xlink" style="isolation:isolate" viewBox="0 0 512 512" width="512pt" height="512pt"><defs><clipPath id="_clipPath_5CinPsCOEEnxNoTrUGypJlN5jxUQUfsn"><rect width="512" height="512"/></clipPath></defs><g clip-path="url(#_clipPath_5CinPsCOEEnxNoTrUGypJlN5jxUQUfsn)"><g><mask id="_mask_n9zqORbedIC8hg4AM678QJ0miFVsH0I0" x="-200%" y="-200%" width="400%" height="400%"><rect x="-200%" y="-200%" width="400%" height="400%" style="fill:white;"/><path d=" M 49.895 0 L 49.895 276.9 L 256 394.389 L 256 314.526 L 118.119 235.928 L 118.119 112.473 L 256 191.071 L 256 117.489 L 49.895 0 Z " fill-rule="evenodd" fill="black" stroke="none"/></mask><path d=" M 49.895 0 L 49.895 276.9 L 256 394.389 L 256 314.526 L 118.119 235.928 L 118.119 112.473 L 256 191.071 L 256 117.489 L 49.895 0 Z " fill-rule="evenodd" fill="rgb(0,42,65)"/><path d=" M 49.895 0 L 49.895 276.9 L 256 394.389 L 256 314.526 L 118.119 235.928 L 118.119 112.473 L 256 191.071 L 256 117.489 L 49.895 0 Z " fill-rule="evenodd" fill="rgb(0,42,65)" mask="url(#_mask_n9zqORbedIC8hg4AM678QJ0miFVsH0I0)" vector-effect="non-scaling-stroke" stroke-width="0.358" stroke="rgb(132,132,132)" stroke-linejoin="miter" stroke-linecap="butt" stroke-miterlimit="4"/><mask id="_mask_ZyLlBsP239ztpmjJaa3RRY5PEeVXVQ0H" x="-200%" y="-200%" width="400%" height="400%"><rect x="-200%" y="-200%" width="400%" height="400%" style="fill:white;"/><path d=" M 462.105 0 L 462.105 276.9 L 256 394.389 L 256 314.526 L 393.881 235.928 L 393.881 112.473 L 256 191.071 L 256 117.489 L 462.105 0 Z " fill-rule="evenodd" fill="black" stroke="none"/></mask><path d=" M 462.105 0 L 462.105 276.9 L 256 394.389 L 256 314.526 L 393.881 235.928 L 393.881 112.473 L 256 191.071 L 256 117.489 L 462.105 0 Z " fill-rule="evenodd" fill="rgb(0,113,181)"/><path d=" M 462.105 0 L 462.105 276.9 L 256 394.389 L 256 314.526 L 393.881 235.928 L 393.881 112.473 L 256 191.071 L 256 117.489 L 462.105 0 Z " fill-rule="evenodd" fill="rgb(0,113,181)" mask="url(#_mask_ZyLlBsP239ztpmjJaa3RRY5PEeVXVQ0H)" vector-effect="non-scaling-stroke" stroke-width="0.358" stroke="rgb(132,132,132)" stroke-linejoin="miter" stroke-linecap="butt" stroke-miterlimit="4"/><mask id="_mask_oq5odHpiG6yfgrzFR4zs8mbsybfqgmnO" x="-200%" y="-200%" width="400%" height="400%"><rect x="-200%" y="-200%" width="400%" height="400%" style="fill:white;"/><path d=" M 49.895 512 L 49.895 235.1 L 256 117.611 L 256 197.474 L 118.119 276.072 L 118.119 393.247 L 256 314.649 L 256 394.511 L 49.895 512 Z " fill-rule="evenodd" fill="black" stroke="none"/></mask><path d=" M 49.895 512 L 49.895 235.1 L 256 117.611 L 256 197.474 L 118.119 276.072 L 118.119 393.247 L 256 314.649 L 256 394.511 L 49.895 512 Z " fill-rule="evenodd" fill="rgb(0,113,181)"/><path d=" M 49.895 512 L 49.895 235.1 L 256 117.611 L 256 197.474 L 118.119 276.072 L 118.119 393.247 L 256 314.649 L 256 394.511 L 49.895 512 Z " fill-rule="evenodd" fill="rgb(0,113,181)" mask="url(#_mask_oq5odHpiG6yfgrzFR4zs8mbsybfqgmnO)" vector-effect="non-scaling-stroke" stroke-width="0.358" stroke="rgb(132,132,132)" stroke-linejoin="miter" stroke-linecap="butt" stroke-miterlimit="4"/><mask id="_mask_jQSdGf40PDFGdo4z1VyBCf1luaoLwrea" x="-200%" y="-200%" width="400%" height="400%"><rect x="-200%" y="-200%" width="400%" height="400%" style="fill:white;"/><path d=" M 462.105 512 L 462.105 235.1 L 256 117.611 L 256 197.474 L 393.881 276.072 L 393.881 393.247 L 256 314.649 L 256 394.511 L 462.105 512 Z " fill-rule="evenodd" fill="black" stroke="none"/></mask><path d=" M 462.105 512 L 462.105 235.1 L 256 117.611 L 256 197.474 L 393.881 276.072 L 393.881 393.247 L 256 314.649 L 256 394.511 L 462.105 512 Z " fill-rule="evenodd" fill="rgb(0,42,65)"/><path d=" M 462.105 512 L 462.105 235.1 L 256 117.611 L 256 197.474 L 393.881 276.072 L 393.881 393.247 L 256 314.649 L 256 394.511 L 462.105 512 Z " fill-rule="evenodd" fill="rgb(0,42,65)" mask="url(#_mask_jQSdGf40PDFGdo4z1VyBCf1luaoLwrea)" vector-effect="non-scaling-stroke" stroke-width="0.358" stroke="rgb(132,132,132)" stroke-linejoin="miter" stroke-linecap="butt" stroke-miterlimit="4"/></g></g></svg>