<?xml version="1.0" encoding="UTF-8" standalone="no"?><!-- Generator: Gravit.io --><svg xmlns="http://www.w3.org/2000/svg" xmlns:xlink="http://www.w3.org/1999/xlink" style="isolation:isolate" viewBox="0 0 512 512" width="512pt" height="512pt"><defs><clipPath id="_clipPath_gYZ7jNCa1HxLFRy68xSArJbe6hbiw3uT"><rect width="512" height="512"/></clipPath></defs><g clip-path="url(#_clipPath_gYZ7jNCa1HxLFRy68xSArJbe6hbiw3uT)"><path d=" M 457.1 256 L 329.1 256 L 329.1 292.573 L 416.873 292.573 C 404.073 347.439 363.846 393.146 310.819 411.439 L 100.538 201.146 C 122.473 137.146 184.646 91.439 255.965 91.439 C 310.819 91.439 360.192 118.865 391.273 160.919 L 418.7 137.146 C 382.138 87.773 323.619 54.865 255.965 54.865 C 160.873 54.865 80.419 122.519 60.3 212.119 L 301.673 453.492 C 389.446 431.546 457.1 351.092 457.1 256.012 L 457.1 256 Z  M 54.819 257.839 C 54.819 309.039 74.938 358.412 113.327 396.812 C 151.727 435.212 202.927 455.319 252.3 455.319 L 54.819 257.839 Z " fill="rgb(255,255,255)"/><path d=" M 256 0 C 115.2 0 0 115.2 0 256 C 0 396.8 115.2 512 256 512 C 396.8 512 512 396.8 512 256 C 512 115.2 396.8 0 256 0 Z  M 113.373 398.627 C 74.973 360.227 54.854 309.027 54.854 259.654 L 254.173 457.146 C 202.973 455.319 151.773 437.027 113.373 398.627 Z  M 299.881 451.654 L 60.346 212.131 C 80.454 122.519 160.919 54.854 256 54.854 C 323.654 54.854 382.173 87.773 418.746 137.146 L 391.319 160.919 C 360.227 118.854 310.854 91.427 256 91.427 C 184.681 91.427 124.346 137.146 100.573 201.146 L 310.854 411.427 C 363.881 393.146 404.119 347.427 416.919 292.573 L 329.146 292.573 L 329.146 256 L 457.146 256 C 457.146 351.081 389.481 431.546 299.881 451.654 Z " fill="rgb(102,51,153)"/></g></svg>