<?xml version="1.0" encoding="UTF-8" standalone="no"?><!-- Generator: Gravit.io --><svg xmlns="http://www.w3.org/2000/svg" xmlns:xlink="http://www.w3.org/1999/xlink" style="isolation:isolate" viewBox="0 0 512 512" width="512pt" height="512pt"><defs><clipPath id="_clipPath_KsNVNh8YEb8NsYKN2w4RniO1yUZt6TCr"><rect width="512" height="512"/></clipPath></defs><g clip-path="url(#_clipPath_KsNVNh8YEb8NsYKN2w4RniO1yUZt6TCr)"><circle vector-effect="non-scaling-stroke" cx="256" cy="256" r="256" fill="rgb(0,103,79)" /><path d=" M 223.678 157.223 L 223.678 341.554 L 265.415 354.777 L 265.415 200.218 C 265.415 192.935 268.662 188.099 273.87 189.762 C 280.68 191.651 282.003 198.36 282.003 205.562 L 282.003 267.29 C 307.983 279.865 328.436 267.284 328.436 234.107 C 328.436 200.205 316.445 185.102 281.16 172.959 C 267.242 168.325 241.449 160.505 223.678 157.223 Z  M 273.353 327.829 L 340.386 303.971 C 347.969 301.16 349.128 297.341 342.991 295.334 C 336.758 293.289 325.632 293.874 317.967 296.626 L 273.353 312.365 L 273.353 287.253 L 275.908 286.409 C 275.908 286.409 288.822 281.835 306.986 279.865 C 325.115 277.877 347.347 280.123 364.821 286.71 C 384.505 292.963 386.711 302.084 381.731 308.432 C 376.679 314.713 364.428 319.258 364.428 319.258 L 273.353 351.974 M 147.206 325.29 C 127.024 319.667 123.659 307.788 132.866 300.925 C 141.358 294.659 155.821 289.942 155.821 289.942 L 215.608 268.625 L 215.608 292.886 L 172.624 308.294 C 165.01 311.017 163.869 314.849 170.002 316.854 C 176.244 318.94 187.322 318.379 194.94 315.568 L 215.608 308.116 L 215.608 329.775 C 214.276 329.998 212.795 330.224 211.443 330.454 C 190.836 333.874 168.882 332.47 147.206 325.29 Z " fill-rule="evenodd" fill="rgb(255,255,255)"/></g></svg>