<?xml version="1.0" encoding="UTF-8" standalone="no"?><!-- Generator: Gravit.io --><svg xmlns="http://www.w3.org/2000/svg" xmlns:xlink="http://www.w3.org/1999/xlink" style="isolation:isolate" viewBox="0 0 512 512" width="512pt" height="512pt"><defs><clipPath id="_clipPath_1FiUV1PPB3VNfggrz27Xppul5RDXbBPh"><rect width="512" height="512"/></clipPath></defs><g clip-path="url(#_clipPath_1FiUV1PPB3VNfggrz27Xppul5RDXbBPh)"><rect x="0" y="0" width="512" height="512" transform="matrix(1,0,0,1,0,0)" fill="rgb(17,17,132)"/><path d=" M 255.615 325.389 C 296.036 290.743 352.818 257.059 384 244.932 C 379.188 241.853 371.681 237.426 363.212 232.614 C 322.983 245.895 276.018 275.344 234.057 308.644 C 241.179 314.033 248.686 319.615 255.615 325.389 L 255.615 325.389 Z  M 237.137 231.266 C 231.17 228.379 224.626 225.684 219.621 223.374 C 204.415 230.881 184.59 242.238 159.567 260.138 C 164.956 263.026 170.731 266.49 176.89 269.955 C 196.138 255.711 215.579 242.238 237.137 231.266 L 237.137 231.266 Z  M 273.131 214.713 C 265.816 210.671 240.409 201.239 222.893 197.197 C 217.696 199.122 210.382 202.009 205.377 204.126 C 211.729 205.859 235.404 212.211 255.615 222.412 C 260.812 219.91 268.126 216.83 273.131 214.713 Z  M 187.092 212.211 C 164.571 222.605 140.896 236.848 128 245.125 C 132.62 247.242 137.239 248.974 143.591 252.054 C 172.078 232.806 194.406 221.065 203.26 217.215 C 196.908 214.905 190.941 213.365 187.092 212.211 Z  M 290.069 208.746 C 295.266 207.014 301.233 205.474 306.43 203.934 C 291.417 197.582 272.553 190.845 255.615 186.611 C 252.92 187.38 244.836 189.498 239.254 191.23 C 245.029 192.962 264.084 197.389 290.069 208.746 Z  M 195.176 281.119 C 201.335 284.776 207.88 289.78 214.232 294.015 C 256.385 261.293 297.961 236.078 343.579 221.835 C 337.227 218.562 331.645 215.675 324.523 212.211 C 297.191 219.14 250.418 237.811 195.176 281.119 Z " fill-rule="evenodd" fill="rgb(255,255,255)"/></g></svg>