<?xml version="1.0" encoding="UTF-8" standalone="no"?><!-- Generator: Gravit.io --><svg xmlns="http://www.w3.org/2000/svg" xmlns:xlink="http://www.w3.org/1999/xlink" style="isolation:isolate" viewBox="0 0 512 512" width="512pt" height="512pt"><defs><clipPath id="_clipPath_fgReqLJlWBYDvr7B6UlcoPPUBoOmTPjE"><rect width="512" height="512"/></clipPath></defs><g clip-path="url(#_clipPath_fgReqLJlWBYDvr7B6UlcoPPUBoOmTPjE)"><rect x="0" y="0" width="512" height="512" transform="matrix(1,0,0,1,0,0)" fill="rgb(149,6,6)"/><path d=" M 201.694 184.693 L 182.43 233.811 L 198.803 233.811 L 201.123 227.306 L 219.58 227.306 L 221.899 233.811 L 238.272 233.811 L 219.008 184.693 L 201.694 184.693 Z  M 204.871 215.522 L 210.368 200.174 L 215.865 215.522 L 204.871 215.522 Z  M 306.454 215.169 L 328.844 215.169 L 328.844 203.368 L 306.454 203.368 L 306.454 196.745 L 329.08 196.745 L 329.08 184.693 L 290.788 184.693 L 290.788 233.828 L 329.568 233.828 L 329.568 221.792 L 306.454 221.792 L 306.454 215.169 Z  M 257.805 217.001 L 246.24 184.693 L 229.867 184.693 L 249.131 233.828 L 266.479 233.828 L 285.744 184.693 L 269.354 184.693 L 257.805 217.001 Z  M 161.469 211 L 143.179 184.693 L 128 184.693 L 128 233.828 L 143.902 233.828 L 143.902 207.537 L 162.191 233.828 L 177.371 233.828 L 177.371 184.693 L 161.469 184.693 L 161.469 211 Z  M 371.576 216.967 L 373.072 216.345 C 378.787 213.958 381.68 208.781 381.68 202.225 C 381.68 196.022 379.411 191.433 374.955 188.575 C 370.803 185.919 365.424 184.693 358.028 184.693 L 337.285 184.693 L 337.285 233.811 L 352.7 233.811 L 352.7 220.077 L 358.23 220.077 L 367.626 233.811 L 384 233.811 L 371.576 216.967 Z  M 360.868 207.571 L 352.447 207.571 L 352.447 197.216 L 360.868 197.216 C 363.728 197.216 366.046 199.536 366.046 202.394 C 366.046 205.251 363.728 207.571 360.868 207.571 Z  M 327.197 263.968 L 313.532 295.084 L 298.082 263.968 L 286.197 263.968 L 308.101 307.135 L 299.074 327.292 L 310.606 327.292 L 338.729 263.951 L 327.197 263.951 L 327.197 263.968 Z  M 279.608 312.095 L 268.312 312.095 L 268.312 307.606 C 264.244 311.12 259.353 313.087 253.452 313.087 C 239.937 313.087 229.364 302.093 229.364 288.039 C 229.364 273.988 239.92 262.993 253.452 262.993 C 259.353 262.993 264.227 264.943 268.312 268.473 L 268.312 263.985 L 279.608 263.985 L 279.608 312.095 Z  M 269.64 288.024 C 269.64 278.945 263.303 272.07 254.915 272.07 C 246.527 272.07 240.189 278.963 240.189 288.024 C 240.189 297.1 246.527 303.976 254.915 303.976 C 263.303 303.976 269.64 297.1 269.64 288.024 Z  M 173.269 327.307 L 185.053 327.307 L 185.053 308.01 C 189.02 311.271 193.76 313.069 199.408 313.069 C 212.924 313.069 223.497 302.075 223.497 288.024 C 223.497 273.97 212.94 262.976 199.408 262.976 C 193.508 262.976 188.633 264.926 184.548 268.457 L 184.548 263.968 L 173.252 263.968 L 173.252 327.307 L 173.269 327.307 Z  M 197.963 272.07 C 206.368 272.07 212.688 278.963 212.688 288.024 C 212.688 297.1 206.351 303.976 197.963 303.976 C 189.575 303.976 183.237 297.084 183.237 288.024 C 183.237 278.963 189.575 272.07 197.963 272.07 Z " fill-rule="evenodd" fill="rgb(255,255,255)"/></g></svg>