<?xml version="1.0" encoding="UTF-8" standalone="no"?>
<svg
   xmlns:dc="http://purl.org/dc/elements/1.1/"
   xmlns:cc="http://creativecommons.org/ns#"
   xmlns:rdf="http://www.w3.org/1999/02/22-rdf-syntax-ns#"
   xmlns:svg="http://www.w3.org/2000/svg"
   xmlns="http://www.w3.org/2000/svg"
   xmlns:sodipodi="http://sodipodi.sourceforge.net/DTD/sodipodi-0.dtd"
   xmlns:inkscape="http://www.inkscape.org/namespaces/inkscape"
   width="74.048668mm"
   height="94.985413mm"
   viewBox="0 0 74.048668 94.985413"
   version="1.1"
   id="svg11018"
   inkscape:version="1.0.1 (3bc2e813f5, 2020-09-07)"
   sodipodi:docname="kobe.svg">
  <defs
     id="defs11012" />
  <sodipodi:namedview
     id="base"
     pagecolor="#ffffff"
     bordercolor="#666666"
     borderopacity="1.0"
     inkscape:pageopacity="0.0"
     inkscape:pageshadow="2"
     inkscape:zoom="0.35"
     inkscape:cx="-220.06536"
     inkscape:cy="208.07143"
     inkscape:document-units="mm"
     inkscape:current-layer="layer1"
     inkscape:document-rotation="0"
     showgrid="false"
     inkscape:window-width="1267"
     inkscape:window-height="728"
     inkscape:window-x="26"
     inkscape:window-y="0"
     inkscape:window-maximized="0" />
  <metadata
     id="metadata11015">
    <rdf:RDF>
      <cc:Work
         rdf:about="">
        <dc:format>image/svg+xml</dc:format>
        <dc:type
           rdf:resource="http://purl.org/dc/dcmitype/StillImage" />
        <dc:title></dc:title>
      </cc:Work>
    </rdf:RDF>
  </metadata>
  <g
     inkscape:label="Layer 1"
     inkscape:groupmode="layer"
     id="layer1"
     transform="translate(-164.05896,-93.114434)">
    <path
       class="cls-1"
       d="m 183.1886,98.954723 -2.44148,1.212247 c -5.03024,2.42448 -10.7629,5.17752 -14.92644,6.65033 l -1.76172,0.61746 0.0736,1.86934 c 0.0566,1.38785 1.35953,34.06741 4.10123,44.34314 2.90032,10.85354 8.76893,19.73576 17.44723,26.40309 a 50.330714,50.330714 0 0 0 14.53558,7.76629 l 0.86103,0.28323 0.85537,-0.28323 a 50.296725,50.296725 0 0 0 14.54124,-7.76629 c 8.6783,-6.66733 14.54691,-15.54955 17.45855,-26.41442 2.74171,-10.27573 4.04459,-42.95529 4.10124,-44.34314 l 0.0736,-1.86934 -1.76172,-0.61745 c -4.19187,-1.47282 -9.90187,-4.22586 -14.93211,-6.65601 l -2.43581,-1.206576 c -5.20018,-2.58876 -11.66925,-5.82896 -17.9004,-5.82896 -6.23115,0 -12.70022,3.2402 -17.88907,5.840289 z"
       id="path10375"
       style="fill:#ffffff;stroke-width:0.566468" />
    <path
       d="m 183.68142,99.946043 -2.43014,1.212247 c -5.09822,2.44147 -10.81389,5.2115 -15.0624,6.70698 l -0.99132,0.34555 0.0396,1.04796 c 0.0566,1.38219 1.35386,33.93712 4.06725,44.09956 2.83234,10.61562 8.57066,19.29958 17.0507,25.81397 a 49.078819,49.078819 0 0 0 14.21269,7.59068 l 0.49849,0.16427 v 0 l 0.50982,-0.16994 a 49.078819,49.078819 0 0 0 14.22969,-7.58501 c 8.49702,-6.51439 14.21835,-15.19835 17.05069,-25.81397 2.71339,-10.16244 4.0106,-42.71737 4.06725,-44.09956 l 0.0396,-1.04796 -0.99132,-0.34555 c -4.25418,-1.49548 -9.96984,-4.26551 -15.06806,-6.70698 l -2.44148,-1.212247 c -5.09821,-2.549108 -11.41433,-5.721331 -17.39624,-5.721331 -5.98191,0 -12.29803,3.172223 -17.38492,5.721331 z m -1.20657,3.772677 2.48113,-1.22923 c 4.82064,-2.41316 10.81388,-5.421106 16.12169,-5.421106 5.30781,0 11.30104,3.007946 16.12169,5.421106 l 2.48113,1.22923 c 4.98492,2.40749 10.11713,4.88296 14.34864,6.46341 -0.24924,5.66468 -1.55778,33.56325 -3.92562,42.44547 a 44.286498,44.286498 0 0 1 -16.03672,24.2845 46.189831,46.189831 0 0 1 -12.98912,7.00722 46.189831,46.189831 0 0 1 -12.98912,-7.00722 44.286498,44.286498 0 0 1 -16.03672,-24.2845 c -2.36784,-8.88222 -3.67638,-36.75247 -3.92563,-42.44547 4.23152,-1.58045 9.36373,-4.05592 14.34865,-6.46341 z"
       id="path10377"
       style="stroke-width:0.566468" />
    <path
       class="cls-2"
       d="m 193.84387,131.41336 -2.57743,4.70169 -1.09895,-4.70169 h -2.22056 l 2.23189,9.49401 h 0.70242 l 5.23417,-9.49401 z"
       id="path10379"
       style="fill:#a40931;stroke-width:0.566468" />
    <path
       class="cls-2"
       d="m 196.54592,131.41336 v 2.08461 h 1.39351 l -0.82704,5.18318 h -1.49548 v 2.08461 h 5.00192 v -2.08461 h -1.41051 l 0.81572,-5.18318 h 1.5068 v -2.08461 z"
       id="path10381"
       style="fill:#a40931;stroke-width:0.566468" />
    <path
       class="cls-2"
       d="m 205.12225,131.47001 a 3.7386914,3.7386914 0 0 0 -1.09328,0.56647 3.1382348,3.1382348 0 0 0 -1.26889,2.05061 2.8323418,2.8323418 0 0 0 -0.0396,0.4815 2.220556,2.220556 0 0 0 0.10763,0.71375 2.1072623,2.1072623 0 0 0 0.56647,0.8497 5.2398324,5.2398324 0 0 0 1.64276,0.90069 c 0.8327,0.33988 1.22923,0.56647 1.22923,0.90068 a 0.43051595,0.43051595 0 0 1 0,0.085 v 0 c -0.0793,0.51549 -0.83271,0.78739 -1.34819,0.78739 a 2.8323418,2.8323418 0 0 1 -0.97433,-0.18693 7.2224717,7.2224717 0 0 1 -1.07062,-0.56647 l -0.35122,-0.20959 -0.56646,1.88067 0.14728,0.13029 a 3.9652787,3.9652787 0 0 0 1.13294,0.7534 3.5007746,3.5007746 0 0 0 1.37085,0.25491 4.1635426,4.1635426 0 0 0 2.41316,-0.7534 3.4611217,3.4611217 0 0 0 0.90068,-0.94034 3.3988102,3.3988102 0 0 0 0.48716,-1.30288 2.792689,2.792689 0 0 0 0.034,-0.42485 2.0902683,2.0902683 0 0 0 -0.11895,-0.70808 2.0449508,2.0449508 0 0 0 -0.56647,-0.80439 5.5683841,5.5683841 0 0 0 -1.58045,-0.87236 5.2341677,5.2341677 0 0 1 -0.99698,-0.50416 c -0.2096,-0.15861 -0.26058,-0.28889 -0.26058,-0.40785 0,0 0,-0.051 0,-0.0736 a 0.78739103,0.78739103 0 0 1 0.36254,-0.4815 1.6257642,1.6257642 0 0 1 0.89502,-0.24925 2.2658735,2.2658735 0 0 1 0.89502,0.20393 4.4071238,4.4071238 0 0 1 0.83837,0.49283 l 0.2889,0.21526 0.94034,-1.69941 -0.18693,-0.16427 a 5.0415685,5.0415685 0 0 0 -1.19525,-0.84404 3.2855165,3.2855165 0 0 0 -1.39918,-0.28324 3.9652787,3.9652787 0 0 0 -1.2349,0.2096 z m -2.34518,2.63408 z m 5.66469,3.80666 z"
       id="path10383"
       style="fill:#a40931;stroke-width:0.566468" />
    <path
       class="cls-2"
       d="m 212.52599,131.47001 a 3.885973,3.885973 0 0 0 -1.09328,0.56647 3.1608935,3.1608935 0 0 0 -1.26889,2.05061 3.5970742,3.5970742 0 0 0 -0.0396,0.4815 2.220556,2.220556 0 0 0 0.1133,0.71375 2.1072623,2.1072623 0 0 0 0.56646,0.8497 5.2738205,5.2738205 0 0 0 1.6371,0.90069 c 0.83837,0.33988 1.2349,0.56647 1.2349,0.90068 a 0.43618065,0.43618065 0 0 1 0,0.085 v 0 c -0.0736,0.51549 -0.82705,0.78739 -1.34253,0.78739 a 2.7983537,2.7983537 0 0 1 -0.97433,-0.18693 7.2451304,7.2451304 0 0 1 -1.07629,-0.56647 l -0.35121,-0.20959 -0.56647,1.88067 0.15295,0.13029 a 3.9652787,3.9652787 0 0 0 1.13293,0.7534 3.5404274,3.5404274 0 0 0 1.37086,0.25491 4.1635426,4.1635426 0 0 0 2.41315,-0.7534 3.3988102,3.3988102 0 0 0 0.90635,-0.94034 3.2911812,3.2911812 0 0 0 0.4815,-1.30287 2.8323418,2.8323418 0 0 0 0.0396,-0.42485 2.0902683,2.0902683 0 0 0 -0.12462,-0.70809 2.0449508,2.0449508 0 0 0 -0.56647,-0.80439 5.6137016,5.6137016 0 0 0 -1.6201,-0.91767 5.4777492,5.4777492 0 0 1 -1.00265,-0.50416 0.51548623,0.51548623 0 0 1 -0.25491,-0.40786 0.32288697,0.32288697 0 0 1 0,-0.0736 0.75906762,0.75906762 0 0 1 0.35688,-0.4815 1.6257642,1.6257642 0 0 1 0.89501,-0.24924 2.2658735,2.2658735 0 0 1 0.89502,0.20393 4.4071238,4.4071238 0 0 1 0.83838,0.49282 l 0.2889,0.21526 0.94033,-1.6994 -0.18693,-0.16428 a 4.9339394,4.9339394 0 0 0 -1.19525,-0.84404 3.2628578,3.2628578 0 0 0 -1.39351,-0.28323 3.993602,3.993602 0 0 0 -1.20658,0.25491 z m -2.38483,2.63408 z m 5.66469,3.80666 z"
       id="path10385"
       style="fill:#a40931;stroke-width:0.566468" />
    <path
       class="cls-2"
       d="m 218.25866,131.41336 v 1.74472 l -1.20092,7.60768 h 5.23417 v -2.08461 h -2.83234 l 0.31155,-1.98264 h 3.00795 v -2.0846 h -2.67373 l 0.16994,-1.13294 h 2.96263 v -2.0846 z"
       id="path10387"
       style="fill:#a40931;stroke-width:0.566468" />
    <path
       class="cls-2"
       d="m 225.43581,131.41336 v 1.74472 l -1.20091,7.60768 h 4.8433 v -2.08461 h -2.41882 l 1.13294,-7.26779 z"
       id="path10389"
       style="fill:#a40931;stroke-width:0.566468" />
    <polygon
       class="cls-2"
       points="96.82,94.14 82.47,114.64 68.12,94.14 82.47,127.16 "
       id="polygon10391"
       transform="matrix(0.56646837,0,0,0.56646837,133.10146,72.630938)"
       style="fill:#a40931" />
    <path
       d="m 176.18138,109.33242 c -1.92599,0.88369 -3.82932,1.69941 -5.60803,2.44148 0.12462,2.69639 0.35121,7.21681 0.67409,12.33202 h 4.93394 z"
       id="path10393"
       style="stroke-width:0.566468" />
    <path
       d="m 174.34603,152.01581 a 46.206825,46.206825 0 0 0 1.83535,5.48908 v -10.98948 h -2.86066 a 49.724593,49.724593 0 0 0 1.02531,5.5004 z"
       id="path10395"
       style="stroke-width:0.566468" />
    <path
       d="m 187.39179,103.92832 -1.38218,0.69109 -2.49246,1.2349 -2.3905,1.13293 v 17.11868 h 6.26514 z"
       id="path10397"
       style="stroke-width:0.566468" />
    <path
       d="m 181.11532,166.42677 a 41.352192,41.352192 0 0 0 6.27647,6.83727 v -26.74863 h -6.27647 z"
       id="path10399"
       style="stroke-width:0.566468" />
    <path
       d="m 192.32007,176.99707 a 44.212857,44.212857 0 0 0 6.27647,3.39881 v -33.87481 h -6.27647 z"
       id="path10401"
       style="stroke-width:0.566468" />
    <path
       d="m 198.59654,99.674138 a 30.164442,30.164442 0 0 0 -6.27647,1.959982 v 22.4718 h 6.27647 z"
       id="path10403"
       style="stroke-width:0.566468" />
    <path
       d="m 209.80128,101.62279 a 29.807567,29.807567 0 0 0 -6.27647,-1.954317 v 24.437447 h 6.27647 z"
       id="path10405"
       style="stroke-width:0.566468" />
    <path
       d="m 203.52481,180.40155 a 43.980605,43.980605 0 0 0 6.27647,-3.39881 v -30.48733 h -6.27647 z"
       id="path10407"
       style="stroke-width:0.566468" />
    <path
       d="m 221.00603,106.99291 -2.37917,-1.13294 -2.4868,-1.22923 -1.4105,-0.70242 v 20.1776 h 6.27647 z"
       id="path10409"
       style="stroke-width:0.566468" />
    <path
       d="m 214.72956,173.29237 a 41.488143,41.488143 0 0 0 6.27647,-6.79762 v -19.97934 h -6.27647 z"
       id="path10411"
       style="stroke-width:0.566468" />
    <path
       d="m 225.93996,157.60119 a 46.875258,46.875258 0 0 0 1.86935,-5.56838 49.724593,49.724593 0 0 0 1.03664,-5.50041 h -2.90599 z"
       id="path10413"
       style="stroke-width:0.566468" />
    <path
       d="m 231.58199,111.7739 c -1.79004,-0.71941 -3.7047,-1.56911 -5.66468,-2.45847 v 14.79049 h 4.96792 c 0.34555,-5.11521 0.57214,-9.63563 0.69676,-12.33202 z"
       id="path10415"
       style="stroke-width:0.566468" />
  </g>
</svg>
