<?xml version="1.0" encoding="UTF-8" standalone="no"?>
<svg
   xmlns:dc="http://purl.org/dc/elements/1.1/"
   xmlns:cc="http://creativecommons.org/ns#"
   xmlns:rdf="http://www.w3.org/1999/02/22-rdf-syntax-ns#"
   xmlns:svg="http://www.w3.org/2000/svg"
   xmlns="http://www.w3.org/2000/svg"
   xmlns:sodipodi="http://sodipodi.sourceforge.net/DTD/sodipodi-0.dtd"
   xmlns:inkscape="http://www.inkscape.org/namespaces/inkscape"
   width="99.218803mm"
   height="70.445244mm"
   viewBox="0 0 99.218803 70.445244"
   version="1.1"
   id="svg12445"
   inkscape:version="1.0.1 (3bc2e813f5, 2020-09-07)"
   sodipodi:docname="yokohamafm.svg">
  <defs
     id="defs12439" />
  <sodipodi:namedview
     id="base"
     pagecolor="#ffffff"
     bordercolor="#666666"
     borderopacity="1.0"
     inkscape:pageopacity="0.0"
     inkscape:pageshadow="2"
     inkscape:zoom="0.35"
     inkscape:cx="33.214474"
     inkscape:cy="244.55342"
     inkscape:document-units="mm"
     inkscape:current-layer="layer1"
     inkscape:document-rotation="0"
     showgrid="false"
     inkscape:window-width="1267"
     inkscape:window-height="728"
     inkscape:window-x="83"
     inkscape:window-y="0"
     inkscape:window-maximized="0" />
  <metadata
     id="metadata12442">
    <rdf:RDF>
      <cc:Work
         rdf:about="">
        <dc:format>image/svg+xml</dc:format>
        <dc:type
           rdf:resource="http://purl.org/dc/dcmitype/StillImage" />
        <dc:title></dc:title>
      </cc:Work>
    </rdf:RDF>
  </metadata>
  <g
     inkscape:label="Layer 1"
     inkscape:groupmode="layer"
     id="layer1"
     transform="translate(-97.045337,-83.461908)">
    <path
       class="cls-1"
       d="m 196.26414,134.89896 -1.27228,-0.53645 -1.78024,-0.74533 -0.14242,-0.0617 v 0 l -4.96569,-2.08406 0.451,-5.37396 0.16141,-1.89892 0.11868,-1.42419 -1.23905,0.69785 c -3.95451,2.23598 -10.97578,5.79172 -12.46643,6.22847 l -0.7928,0.23736 0.30857,0.76907 1.25329,3.10949 c -2.97656,1.08713 -5.9911,2.02235 -9.01988,2.80091 l 1.26278,-0.84028 a 13.681743,13.681743 0 0 1 1.87044,-1.15359 l 1.22481,-0.47473 -1.04916,-0.80704 a 3.3231161,3.3231161 0 0 0 -0.81179,-0.4415 6.9690491,6.9690491 0 0 0 3.79785,-2.25023 c 0.5317,-0.56968 1.06814,-1.17259 1.53813,-1.70428 0.56018,-0.62665 1.24854,-1.4242 1.45742,-1.56187 l 1.89892,-0.84027 -2.04134,-0.55069 a 7.120963,7.120963 0 0 0 -0.86401,-0.16615 8.3077902,8.3077902 0 0 0 3.65068,-4.43874 c 0.77856,-2.12679 1.08713,-2.76293 1.21531,-2.91959 l 1.42419,-1.3245 -1.97013,0.038 a 4.0019811,4.0019811 0 0 0 -0.94946,0.16141 7.5197369,7.5197369 0 0 0 2.53032,-5.08437 c 0.22786,-2.80566 0.38927,-3.32312 0.40826,-3.37534 l 0.51271,-1.42419 -1.45267,0.47473 a 4.2725777,4.2725777 0 0 0 -0.76432,0.34181 c 0.94946,-1.35299 1.0634,-3.19969 0.98269,-4.96569 a 16.140849,16.140849 0 0 0 -0.35605,-2.55405 6.3234152,6.3234152 0 0 1 -0.20413,-1.576106 l 0.11393,-1.381466 -1.22005,0.659875 a 3.0667613,3.0667613 0 0 0 -0.73109,0.579175 8.1558762,8.1558762 0 0 0 -0.7833,-5.506878 16.487403,16.487403 0 0 1 -1.38622,-3.152214 v -1.784988 l -1.27228,1.234301 a 5.492636,5.492636 0 0 0 -1.3245,2.611019 9.7794556,9.7794556 0 0 0 -0.75957,-3.479777 9.9693481,9.9693481 0 0 0 -2.60152,-3.408567 7.7903335,7.7903335 0 0 1 -0.82129,-0.835527 l -0.98744,-1.253289 c 0,0 -0.3418,1.566612 -0.3418,1.566612 l -0.0665,0.308575 c -0.26585,1.177332 -0.81179,3.622196 0.43675,5.991103 0.65988,1.248542 2.00337,2.221741 2.97656,2.872122 a 8.9676661,8.9676661 0 0 0 -2.88161,-0.422511 h -1.74701 l 1.20581,1.262785 a 7.2633821,7.2633821 0 0 1 1.19158,2.041342 7.0070276,7.0070276 0 0 0 1.40046,2.288204 7.7476077,7.7476077 0 0 0 0.90673,0.73109 l -1.1536,-0.251612 0.69786,1.424192 a 5.6967702,5.6967702 0 0 1 0.432,2.00811 7.7523549,7.7523549 0 0 0 0.79755,3.14272 5.9863561,5.9863561 0 0 0 0.65513,0.98269 l -0.8023,-0.43675 0.0617,1.32925 a 13.819415,13.819415 0 0 1 -0.11868,1.98912 10.021568,10.021568 0 0 0 0,3.42756 6.0433238,6.0433238 0 0 0 0.86876,1.98912 7.4342853,7.4342853 0 0 0 -0.65988,-0.68361 l -0.99219,-0.90199 -0.2516,1.31975 a 11.953723,11.953723 0 0 1 -0.49847,1.68529 11.896755,11.896755 0 0 0 -0.80704,3.52725 q 0,0.25636 0,0.47473 l -0.31807,-0.68361 -0.71685,1.29127 a 8.6923221,8.6923221 0 0 1 -1.15834,1.45268 9.9693481,9.9693481 0 0 0 -1.89892,2.63 5.3027437,5.3027437 0 0 0 -0.40827,1.50965 l -0.13767,-0.78806 -0.98744,0.76907 a 7.6763981,7.6763981 0 0 1 -0.86401,0.54594 8.8015101,8.8015101 0 0 0 -3.12373,2.70597 c -0.17565,0.2516 -0.33232,0.50796 -0.47473,0.76431 l 0.19464,-1.45267 -1.47642,1.16783 a 6.1287755,6.1287755 0 0 1 -2.09356,0.94947 8.397989,8.397989 0 0 0 -2.91959,1.38621 7.8615432,7.8615432 0 0 0 -2.33093,3.16646 5.39769,5.39769 0 0 1 -0.5412,1.00643 l -0.15666,0.19938 h -0.47473 l -0.62664,-0.90199 0.44625,-0.68361 0.75482,-1.15834 h -2.63951 c 3.68391,-1.39097 7.48175,-3.32312 12.45693,-9.06736 4.01148,-4.61913 6.33291,-10.95679 6.5323,-17.84039 V 86.813468 h -40.2097 v 21.225222 c 0.19464,6.90733 2.51607,13.24498 6.53229,17.86412 4.97044,5.72525 8.76828,7.6764 12.45219,9.06736 h -0.7833 l -0.22312,0.3418 -1.56187,2.40689 -0.14717,-0.19464 a 5.6967702,5.6967702 0 0 1 -0.54594,-1.00643 7.8425537,7.8425537 0 0 0 -2.32618,-3.16646 8.4597039,8.4597039 0 0 0 -2.90535,-1.36247 6.062313,6.062313 0 0 1 -2.08882,-0.94947 l -1.45742,-1.15834 0.18989,1.45268 a 8.9201929,8.9201929 0 0 0 -0.47473,-0.76432 8.754037,8.754037 0 0 0 -3.11898,-2.70596 7.7713443,7.7713443 0 0 1 -0.86876,-0.54595 l -0.98269,-0.76906 -0.13767,0.78805 a 5.3122383,5.3122383 0 0 0 -0.4415,-1.51914 9.8554127,9.8554127 0 0 0 -1.89893,-2.63 8.9439295,8.9439295 0 0 1 -1.15834,-1.45268 l -0.71684,-1.29127 -0.31807,0.68361 c 0,-0.15191 0,-0.31332 0,-0.47473 a 12.200583,12.200583 0 0 0 -0.80705,-3.52725 11.996449,11.996449 0 0 1 -0.50321,-1.68529 l -0.24686,-1.31975 -0.99693,0.90199 a 6.8028931,6.8028931 0 0 0 -0.65513,0.68361 6.0385767,6.0385767 0 0 0 0.86401,-1.98912 10.149746,10.149746 0 0 0 0.0285,-3.42756 13.169034,13.169034 0 0 1 -0.11869,-1.98912 l 0.057,-1.32925 -0.80229,0.43675 a 5.6967702,5.6967702 0 0 0 0.65988,-0.98269 7.8188172,7.8188172 0 0 0 0.7928,-3.14272 5.6967702,5.6967702 0 0 1 0.432,-2.00811 l 0.69785,-1.424192 -1.15359,0.251612 a 7.3725704,7.3725704 0 0 0 0.90673,-0.73109 7.0212693,7.0212693 0 0 0 1.4242,-2.288204 7.120963,7.120963 0 0 1 1.18682,-2.041342 l 1.20582,-1.262785 h -1.74701 a 8.9866552,8.9866552 0 0 0 -2.88161,0.422511 c 0.94946,-0.650381 2.31668,-1.62358 2.97656,-2.872122 1.24854,-2.373654 0.7026,-4.813771 0.4415,-5.991103 l -0.0665,-0.308575 -0.34181,-1.557118 c 0,0 -0.98744,1.243795 -0.98744,1.243795 a 8.8204995,8.8204995 0 0 1 -0.82128,0.835527 9.8411707,9.8411707 0 0 0 -2.60153,3.408567 9.6797622,9.6797622 0 0 0 -0.75957,3.479777 5.5780876,5.5780876 0 0 0 -1.3245,-2.611019 l -1.27702,-1.234301 v 1.751757 a 16.321247,16.321247 0 0 1 -1.38147,3.152213 8.0989085,8.0989085 0 0 0 -0.78331,5.506879 3.1617076,3.1617076 0 0 0 -0.73108,-0.579173 l -1.22006,-0.659875 0.10919,1.381468 a 6.5133074,6.5133074 0 0 1 -0.19939,1.576103 16.079134,16.079134 0 0 0 -0.3608,2.55405 c -0.0807,1.766 0.0285,3.61271 0.98745,4.96569 a 4.2725777,4.2725777 0 0 0 -0.76432,-0.34181 l -1.45743,-0.47473 0.51271,1.42419 c 0,0.0522 0.1804,0.56968 0.41302,3.37534 a 7.4960004,7.4960004 0 0 0 2.52557,5.08437 3.9640026,3.9640026 0 0 0 -0.94946,-0.16141 l -1.97488,-0.038 1.42419,1.3245 c 0.12343,0.15666 0.43675,0.7928 1.21531,2.91959 a 8.2888008,8.2888008 0 0 0 3.65068,4.46247 7.120963,7.120963 0 0 0 -0.86401,0.16616 l -2.04609,0.55069 1.89892,0.84027 c 0.20414,0.15666 0.8925,0.94946 1.45268,1.56186 0.47473,0.5317 1.00643,1.13461 1.53813,1.70429 a 6.9690491,6.9690491 0 0 0 3.79784,2.25022 3.413315,3.413315 0 0 0 -0.81179,0.4415 l -1.0444,0.80704 1.2248,0.47474 a 14.056781,14.056781 0 0 1 1.85145,1.17258 c 0.37979,0.25636 0.80705,0.54594 1.26754,0.84502 q -4.54318,-1.16784 -9.01989,-2.80091 l 1.22955,-3.12848 0.30858,-0.76906 -0.7928,-0.23737 c -1.49066,-0.43675 -8.51193,-3.99248 -12.46644,-6.22846 l -1.23904,-0.69786 0.11868,1.4242 0.16141,1.89892 0.45099,5.37395 -4.94669,2.08882 v 0 l -0.14242,0.0617 -1.780244,0.74533 -1.272279,0.53645 1.139354,0.77856 c 0.745328,0.5127 4.956189,2.84838 7.215909,4.03996 l -0.86401,1.76599 -0.68836,1.4242 -0.33231,0.68836 0.69311,0.31807 c 14.55524,6.72218 28.43637,9.99308 42.44568,9.99308 14.00931,0 27.89044,-3.2709 42.44569,-9.99308 l 0.69311,-0.31807 -0.33232,-0.68836 -0.68836,-1.4242 -0.86401,-1.78498 c 2.25972,-1.17734 6.47058,-3.52725 7.21591,-4.03996 z"
       id="path11631"
       style="fill:#ffffff;stroke-width:0.474731" />
    <polygon
       class="cls-2"
       points="125,155.86 116.9,155.86 110.13,166.27 118.23,166.27 "
       id="polygon11633"
       transform="matrix(0.47473087,0,0,0.47473087,89.687059,61.728689)"
       style="fill:#c09949" />
    <polygon
       class="cls-2"
       points="119.53,165.79 128.75,165.79 124.01,158.94 "
       id="polygon11635"
       transform="matrix(0.47473087,0,0,0.47473087,89.687059,61.728689)"
       style="fill:#c09949" />
    <path
       class="cls-2"
       d="m 124.78866,94.527844 c -4.08269,0 -6.30443,2.307192 -7.04501,6.465836 1.68055,-0.51271 3.11898,-0.87351 4.47671,-2.160026 1.09189,-1.025419 1.35773,-3.038278 2.5683,-4.30581 z"
       id="path11637"
       style="fill:#c09949;stroke-width:0.474731" />
    <path
       class="cls-2"
       d="m 117.19296,100.9557 c 0.25161,-2.501831 1.78974,-4.400755 1.99862,-6.646232 0.0997,-1.030166 -0.37504,-3.057267 -1.29601,-3.945013 0,0.360795 -0.60291,1.856197 -1.47167,3.484524 -1.03017,1.936902 -1.61883,5.554352 0.76906,7.106721 z"
       id="path11639"
       style="fill:#c09949;stroke-width:0.474731" />
    <path
       class="cls-2"
       d="m 120.66325,94.124323 c 0.75482,-0.531698 2.76768,-1.661558 3.55573,-3.147466 1.2343,-2.335675 0.51746,-4.747308 0.29908,-5.796464 -0.75957,0.949462 -2.37365,1.898924 -3.32312,4.082686 -0.88774,2.017606 -0.77381,4.239347 -0.53169,4.861244 z"
       id="path11641"
       style="fill:#c09949;stroke-width:0.474731" />
    <path
       class="cls-2"
       d="m 121.61271,100.92722 c -3.081,0.67886 -5.2078,3.52725 -4.80903,8.44546 1.21532,-1.22956 2.60628,-1.46692 3.59372,-3.32312 0.98744,-1.8562 0.45574,-3.59371 1.21531,-5.12234 z"
       id="path11643"
       style="fill:#c09949;stroke-width:0.474731" />
    <path
       class="cls-2"
       d="m 116.19603,109.20178 c -0.50322,-2.29296 0.31332,-4.59065 -0.16141,-6.64624 -0.23736,-0.94946 -1.12511,-2.914843 -2.13629,-3.465531 0.0854,1.025421 -0.47473,2.340421 -0.56018,4.220351 -0.12818,2.63951 0.18989,5.05589 2.85788,5.89142 z"
       id="path11645"
       style="fill:#c09949;stroke-width:0.474731" />
    <path
       class="cls-2"
       d="m 120.3974,108.25231 c -3.57947,1.9464 -3.65543,6.3519 -2.27871,9.23352 0.77856,-1.29602 1.96539,-2.12205 2.37365,-3.95451 0.40827,-1.83246 -0.17565,-3.54149 -0.0949,-5.27901 z"
       id="path11647"
       style="fill:#c09949;stroke-width:0.474731" />
    <path
       class="cls-2"
       d="m 117.568,117.77067 c -0.94946,-1.69005 -0.98269,-4.97043 -2.04134,-6.59402 -0.67887,-1.02541 -1.69479,-2.14578 -2.95757,-2.56354 a 23.356758,23.356758 0 0 1 0.45099,3.56523 c 0.19939,2.42587 1.69954,5.15083 4.54792,5.59233 z"
       id="path11649"
       style="fill:#c09949;stroke-width:0.474731" />
    <path
       class="cls-2"
       d="m 121.53675,115.56317 c -2.55405,2.31668 -2.75818,5.84393 0.17565,9.46613 0.38453,-1.33874 1.25329,-1.6663 1.11562,-4.35328 -0.10919,-2.14578 -0.99694,-3.54149 -1.29127,-5.11285 z"
       id="path11651"
       style="fill:#c09949;stroke-width:0.474731" />
    <path
       class="cls-2"
       d="m 121.19494,125.50878 c -1.26278,-1.25329 -2.12679,-4.54317 -3.62694,-5.92939 -0.57917,-0.53644 -2.57779,-1.64257 -3.75512,-1.6663 0.2611,0.24211 0.72159,1.36247 1.39096,3.19494 0.92098,2.52082 3.3611,5.06537 5.9911,4.40075 z"
       id="path11653"
       style="fill:#c09949;stroke-width:0.474731" />
    <path
       class="cls-2"
       d="m 123.97212,122.09547 c -1.42419,3.07625 -0.56493,6.59875 3.28989,9.18129 -0.20414,-1.24854 0.57442,-3.2709 -0.26111,-5.16033 -0.75957,-1.68529 -2.32143,-2.75343 -3.02878,-4.02096 z"
       id="path11655"
       style="fill:#c09949;stroke-width:0.474731" />
    <path
       class="cls-2"
       d="m 126.7493,131.70402 c -1.71378,-0.80704 -3.22817,-3.59372 -5.22204,-4.57166 a 5.5590985,5.5590985 0 0 0 -4.03522,-0.43201 c 0.32282,0.14242 1.76126,1.89893 3.18545,3.41807 1.65206,1.77549 3.94027,2.73445 6.07181,1.5856 z"
       id="path11657"
       style="fill:#c09949;stroke-width:0.474731" />
    <path
       class="cls-2"
       d="m 128.75741,127.89668 c -0.57917,3.32311 1.08238,6.57502 5.34072,7.68589 a 7.9375,7.9375 0 0 0 -1.5049,-4.59065 c -1.39096,-1.96538 -2.87212,-2.32618 -3.83582,-3.09524 z"
       id="path11659"
       style="fill:#c09949;stroke-width:0.474731" />
    <path
       class="cls-2"
       d="m 133.96995,136.26143 c -1.81822,-0.28009 -4.55741,-2.80091 -6.45159,-3.02403 -1.14885,-0.13293 -3.04777,0 -3.93552,0.66937 0.74058,0.29433 1.89893,1.20581 3.54624,2.24548 1.79923,1.16783 4.72832,1.80397 6.84087,0.10918 z"
       id="path11661"
       style="fill:#c09949;stroke-width:0.474731" />
    <path
       class="cls-2"
       d="m 134.48741,131.61382 c 0.51271,3.87855 3.26615,6.1715 7.7571,6.37089 -0.73108,-0.94946 -0.90673,-2.57305 -2.74394,-4.04471 -1.65681,-1.3245 -3.56523,-1.17733 -5.01316,-2.32618 z"
       id="path11663"
       style="fill:#c09949;stroke-width:0.474731" />
    <path
       class="cls-2"
       d="m 142.30623,138.49267 c -2.77243,0.057 -4.87549,-1.31026 -6.90259,-1.11562 -1.03016,0.0997 -2.77243,0.64089 -3.66967,1.64257 0.3513,-0.0475 1.8562,0.47473 3.66492,1.1536 2.59203,0.98744 5.82495,0.71684 6.90734,-1.68055 z"
       id="path11665"
       style="fill:#c09949;stroke-width:0.474731" />
    <path
       class="cls-2"
       d="m 168.52561,94.527844 c 4.08269,0 6.29968,2.307192 7.04026,6.465836 -1.68055,-0.51271 -3.11898,-0.87351 -4.47671,-2.160026 -1.09188,-1.025419 -1.35298,-3.038278 -2.56355,-4.30581 z"
       id="path11667"
       style="fill:#c09949;stroke-width:0.474731" />
    <path
       class="cls-2"
       d="m 176.11656,100.9557 c -0.24686,-2.501831 -1.78974,-4.400755 -1.99862,-6.646232 -0.0949,-1.030166 0.37504,-3.057267 1.29602,-3.945013 0,0.360795 0.60291,1.856197 1.47166,3.484524 1.03017,1.936902 1.62358,5.554352 -0.76906,7.106721 z"
       id="path11669"
       style="fill:#c09949;stroke-width:0.474731" />
    <path
       class="cls-2"
       d="m 172.64628,94.124323 c -0.75482,-0.531698 -2.76768,-1.661558 -3.55574,-3.147466 -1.22955,-2.335675 -0.51271,-4.747308 -0.29908,-5.796464 0.75957,0.949462 2.37366,1.898924 3.32312,4.082686 0.88774,2.017606 0.77381,4.239347 0.5317,4.861244 z"
       id="path11671"
       style="fill:#c09949;stroke-width:0.474731" />
    <path
       class="cls-2"
       d="m 171.69681,100.92722 c 3.08101,0.66937 5.22204,3.51775 4.81378,8.44546 -1.21532,-1.22956 -2.60628,-1.46692 -3.59846,-3.32312 -0.99219,-1.8562 -0.451,-3.59371 -1.21532,-5.12234 z"
       id="path11673"
       style="fill:#c09949;stroke-width:0.474731" />
    <path
       class="cls-2"
       d="m 177.11349,109.20178 c 0.50796,-2.29296 -0.31332,-4.59065 0.16141,-6.64624 0.23262,-0.94946 1.12986,-2.900603 2.14578,-3.451291 -0.0807,1.025421 0.47474,2.340421 0.56019,4.220361 0.11868,2.62526 -0.19464,5.04164 -2.86738,5.87717 z"
       id="path11675"
       style="fill:#c09949;stroke-width:0.474731" />
    <path
       class="cls-2"
       d="m 172.91687,108.25231 c 3.57473,1.9464 3.65068,6.3519 2.27871,9.23352 -0.77856,-1.29602 -1.96539,-2.12205 -2.37365,-3.95451 -0.40827,-1.83246 0.1709,-3.54149 0.0949,-5.27901 z"
       id="path11677"
       style="fill:#c09949;stroke-width:0.474731" />
    <path
       class="cls-2"
       d="m 175.74627,117.77067 c 0.94946,-1.69005 0.98269,-4.97043 2.03659,-6.59402 0.67412,-1.02541 1.69479,-2.14578 2.96232,-2.56354 a 22.715872,22.715872 0 0 0 -0.45099,3.56523 c -0.19939,2.42587 -1.70428,5.15083 -4.54792,5.59233 z"
       id="path11679"
       style="fill:#c09949;stroke-width:0.474731" />
    <path
       class="cls-2"
       d="m 171.77752,115.56317 c 2.5493,2.31668 2.75818,5.84393 -0.1804,9.46613 -0.38453,-1.33874 -1.25329,-1.6663 -1.11562,-4.35328 0.10919,-2.14578 0.99694,-3.54149 1.29602,-5.11285 z"
       id="path11681"
       style="fill:#c09949;stroke-width:0.474731" />
    <path
       class="cls-2"
       d="m 172.11458,125.50878 c 1.26278,-1.25329 2.12679,-4.54317 3.63169,-5.92939 0.57917,-0.53644 2.57779,-1.64257 3.75512,-1.6663 -0.26585,0.24211 -0.72634,1.36247 -1.39571,3.19494 -0.92098,2.52082 -3.36109,5.06537 -5.9911,4.40075 z"
       id="path11683"
       style="fill:#c09949;stroke-width:0.474731" />
    <path
       class="cls-2"
       d="m 169.3374,122.09547 c 1.42419,3.07625 0.56493,6.59875 -3.28988,9.18129 0.20888,-1.24854 -0.57443,-3.2709 0.26585,-5.16033 0.75482,-1.68529 2.32143,-2.75343 3.02403,-4.02096 z"
       id="path11685"
       style="fill:#c09949;stroke-width:0.474731" />
    <path
       class="cls-2"
       d="m 166.56497,131.70402 c 1.71378,-0.80704 3.22343,-3.59372 5.22204,-4.57166 a 5.5543511,5.5543511 0 0 1 4.03521,-0.43201 c -0.32756,0.14242 -1.76599,1.89893 -3.19019,3.41807 -1.64731,1.77549 -3.94026,2.73445 -6.06706,1.5856 z"
       id="path11687"
       style="fill:#c09949;stroke-width:0.474731" />
    <path
       class="cls-2"
       d="m 164.55211,127.89668 c 0.58392,3.32311 -1.08238,6.57502 -5.33597,7.68589 a 7.8710377,7.8710377 0 0 1 1.5049,-4.59065 c 1.39096,-1.96538 2.87212,-2.32618 3.83107,-3.09524 z"
       id="path11689"
       style="fill:#c09949;stroke-width:0.474731" />
    <path
       class="cls-2"
       d="m 159.33957,136.26143 c 1.82297,-0.28009 4.55742,-2.80091 6.45634,-3.02403 1.14885,-0.13293 3.04777,0 3.93552,0.66937 -0.74058,0.29433 -1.92266,1.20581 -3.55099,2.24548 -1.79448,1.16783 -4.72357,1.80397 -6.84087,0.10918 z"
       id="path11691"
       style="fill:#c09949;stroke-width:0.474731" />
    <path
       class="cls-2"
       d="m 158.82211,131.61382 c -0.50796,3.87855 -3.26615,6.1715 -7.7571,6.37089 0.73583,-0.94946 0.90674,-2.57305 2.74869,-4.04471 1.65207,-1.3245 3.56523,-1.17733 5.00841,-2.32618 z"
       id="path11693"
       style="fill:#c09949;stroke-width:0.474731" />
    <path
       class="cls-2"
       d="m 151.00804,138.49267 c 2.76769,0.057 4.87549,-1.31026 6.89784,-1.11562 1.03017,0.0997 2.77718,0.64089 3.66967,1.64257 -0.3513,-0.0475 -1.8562,0.47473 -3.66017,1.1536 -2.59203,0.98744 -5.8297,0.71684 -6.90734,-1.68055 z"
       id="path11695"
       style="fill:#c09949;stroke-width:0.474731" />
    <path
       class="cls-2"
       d="m 100.38749,134.31029 -1.780239,0.74533 c 0.769065,0.52695 5.777479,3.32311 7.790329,4.32954 l 0.70735,-1.46691 c -0.7026,-0.26111 -5.32648,-2.7487 -6.71744,-3.60796 z"
       id="path11697"
       style="fill:#c09949;stroke-width:0.474731" />
    <path
       class="cls-2"
       d="m 192.92203,134.31029 1.78024,0.74533 c -0.76906,0.52695 -5.77747,3.32311 -7.79033,4.32954 l -0.70735,-1.46691 c 0.7026,-0.26111 5.32648,-2.7487 6.71744,-3.60796 z"
       id="path11699"
       style="fill:#c09949;stroke-width:0.474731" />
    <path
       class="cls-2"
       d="m 146.65476,153.17609 c 13.92386,0 27.71954,-3.2614 42.12762,-9.92187 l -0.68836,-1.42419 c -15.66612,7.23015 -29.39059,9.74622 -41.43926,9.74622 -12.04867,0 -25.79213,-2.49708 -41.43925,-9.74622 l -0.69311,1.42419 c 14.41283,6.64623 28.2085,9.92187 42.13236,9.92187 z"
       id="path11701"
       style="fill:#c09949;stroke-width:0.474731" />
    <path
       class="cls-2"
       d="m 187.95635,124.12257 c -3.96875,2.24547 -11.01851,5.82494 -12.6231,6.29493 l 1.54288,3.84057 c -10.08803,3.76461 -20.61282,5.80121 -30.22137,5.80121 -9.60855,0 -20.13333,-2.04134 -30.23086,-5.80596 l 1.54288,-3.84057 c -1.60459,-0.47473 -8.65435,-4.04945 -12.6231,-6.29493 l 0.16141,1.89892 c 1.52863,0.883 8.48344,4.5954 8.85373,4.74731 l -4.24409,0.94946 -0.67887,1.40046 c 11.75908,5.34547 25.02307,8.54515 37.2189,8.54515 v 0 c 12.19584,0 25.45982,-3.21393 37.2189,-8.54515 l -0.66462,-1.40995 -4.2441,-0.94946 c 0.37029,-0.13293 7.3251,-3.84532 8.85373,-4.74731 z"
       id="path11703"
       style="fill:#c09949;stroke-width:0.474731" />
    <path
       class="cls-3"
       d="m 100.38749,134.31029 c 1.39096,0.85926 6.01484,3.34685 6.71744,3.60796 l 2.99556,-6.21423 4.24409,-0.94946 c -0.37029,-0.13293 -7.3251,-3.84532 -8.85373,-4.74731 l 0.47473,5.91989 z"
       id="path11705"
       style="fill:#164194;stroke-width:0.474731" />
    <path
       class="cls-3"
       d="m 146.65476,151.57625 c 12.04867,0 25.79213,-2.51607 41.43926,-9.74622 l -4.22036,-8.72556 c -11.75908,5.34547 -25.02306,8.54516 -37.2189,8.54516 -12.19583,0 -25.45982,-3.21393 -37.2189,-8.54516 l -4.22035,8.72556 c 15.66611,7.23015 29.39058,9.74622 41.43925,9.74622 z"
       id="path11707"
       style="fill:#164194;stroke-width:0.474731" />
    <path
       class="cls-3"
       d="m 192.92203,134.31029 c -1.39096,0.85926 -6.01484,3.34685 -6.71744,3.60796 l -2.99555,-6.21423 -4.2441,-0.94946 c 0.37029,-0.13293 7.3251,-3.84532 8.85373,-4.74731 l -0.49846,5.91989 z"
       id="path11709"
       style="fill:#164194;stroke-width:0.474731" />
    <path
       d="m 166.00954,87.563542 v 20.475148 c -0.18989,6.64623 -2.42113,12.85096 -6.34715,17.3704 -5.19356,5.98161 -9.01989,7.73811 -13.00288,9.1718 -3.98299,-1.4242 -7.80932,-3.19019 -13.00763,-9.1718 -3.92602,-4.51944 -6.1715,-10.70044 -6.34715,-17.3704 V 87.563542 Z"
       id="path11711"
       style="stroke-width:0.474731" />
    <path
       class="cls-2"
       d="m 165.47784,88.095241 v 19.938699 c -0.18989,6.53229 -2.39739,12.57562 -6.21897,17.02385 -5.03215,5.85343 -9.01989,7.59569 -12.59936,8.94867 -3.57472,-1.34349 -7.56721,-3.09524 -12.60411,-8.94867 -3.79784,-4.44823 -6.02908,-10.49156 -6.21897,-17.02385 V 88.095241 Z"
       id="path11713"
       style="fill:#c09949;stroke-width:0.474731" />
    <path
       class="cls-3"
       d="m 135.00012,124.25074 c 4.74731,5.51163 8.07042,6.95481 11.65939,8.42648 3.58897,-1.47167 6.91208,-2.91485 11.65464,-8.42648 3.41332,-3.96875 5.72526,-9.54684 5.9199,-16.24529 v -5.86292 l -32.43837,17.21374 a 20.484637,20.484637 0 0 0 3.20444,4.89447 z"
       id="path11715"
       style="fill:#164194;stroke-width:0.474731" />
    <polygon
       class="cls-4"
       points="82.99,58.17 82.99,97.27 157.03,58.17 "
       id="polygon11717"
       transform="matrix(0.47473087,0,0,0.47473087,89.687059,61.728689)"
       style="fill:#e4003a" />
    <path
       class="cls-1"
       d="m 129.08972,107.90576 v 0.0997 a 26.926733,26.926733 0 0 0 2.71071,11.35081 L 164.2198,102.14253 V 89.324794 Z"
       id="path11719"
       style="fill:#ffffff;stroke-width:0.474731" />
    <path
       d="m 135.94958,114.24817 a 3.6791641,3.6791641 0 1 0 -3.67916,-3.67917 3.6791641,3.6791641 0 0 0 3.67916,3.67917 z"
       id="path11721"
       style="stroke-width:0.474731" />
    <path
       class="cls-1"
       d="m 135.28496,113.34617 -0.3608,0.2706 a 3.1427182,3.1427182 0 0 0 2.05559,0 l -0.3608,-0.2706 0.60766,-1.01592 1.10612,-0.24686 0.14242,0.43201 a 3.261401,3.261401 0 0 0 0.63614,-1.97963 l -0.32757,0.24686 -0.76431,-0.86401 0.0712,-1.16309 h 0.44624 a 3.152213,3.152213 0 0 0 -1.66155,-1.22006 l 0.13767,0.43201 -1.04441,0.47473 -1.07764,-0.47473 0.13293,-0.43201 a 3.1806967,3.1806967 0 0 0 -1.66156,1.21531 h 0.47473 l 0.10444,1.12511 -0.76432,0.92098 -0.36079,-0.26585 a 3.1949387,3.1949387 0 0 0 0.6124,1.99387 l 0.13767,-0.432 1.12511,0.24686 z"
       id="path11723"
       style="fill:#ffffff;stroke-width:0.474731" />
    <polygon
       points="94.67,101.9 97.42,99.88 100.32,101.98 99.27,105.17 95.72,105.17 "
       id="polygon11725"
       transform="matrix(0.47473087,0,0,0.47473087,89.687059,61.728689)" />
    <path
       class="cls-1"
       d="m 160.68781,108.14787 c -0.86876,-0.432 -1.81348,0.12343 -2.37366,0.7026 -0.56493,-0.57917 -1.50964,-1.1346 -2.37365,-0.7026 a 3.8358254,3.8358254 0 0 0 -1.16309,1.07764 c 0.89249,0.20888 1.25803,-1.00168 2.46385,-0.39877 a 1.4669184,1.4669184 0 0 1 0.60765,0.58392 l -0.11868,0.33706 h 1.17259 l -0.11869,-0.33706 a 1.4669184,1.4669184 0 0 1 0.60766,-0.58392 c 1.20582,-0.60291 1.57136,0.60765 2.46385,0.39877 a 3.8358254,3.8358254 0 0 0 -1.16783,-1.07764 z"
       id="path11727"
       style="fill:#ffffff;stroke-width:0.474731" />
    <path
       class="cls-1"
       d="m 159.61966,110.28416 c -0.86876,-0.432 -1.81347,0.12343 -2.37365,0.7026 -0.56493,-0.57917 -1.50965,-1.1346 -2.37366,-0.7026 a 3.8358254,3.8358254 0 0 0 -1.16309,1.07764 c 0.8925,0.20888 1.25804,-1.00168 2.46386,-0.39877 a 1.4241926,1.4241926 0 0 1 0.60765,0.58392 l -0.11868,0.33705 h 1.17258 l -0.11868,-0.33705 a 1.4241926,1.4241926 0 0 1 0.60766,-0.58392 c 1.20581,-0.60291 1.57136,0.60765 2.46385,0.39877 a 3.8358254,3.8358254 0 0 0 -1.16784,-1.07764 z"
       id="path11729"
       style="fill:#ffffff;stroke-width:0.474731" />
    <path
       class="cls-1"
       d="m 158.55152,112.4157 c -0.86401,-0.42725 -1.81347,0.12818 -2.37366,0.70735 -0.56493,-0.57917 -1.50964,-1.1346 -2.37365,-0.70735 a 3.8548146,3.8548146 0 0 0 -1.16309,1.08239 c 0.89249,0.20888 1.25803,-1.00168 2.46385,-0.40352 a 1.4811603,1.4811603 0 0 1 0.60766,0.58866 l -0.11869,0.33232 h 1.17734 l -0.12343,-0.33232 a 1.4811603,1.4811603 0 0 1 0.60765,-0.58866 c 1.21057,-0.59816 1.57136,0.6124 2.46385,0.40352 a 3.7456266,3.7456266 0 0 0 -1.16783,-1.08239 z"
       id="path11731"
       style="fill:#ffffff;stroke-width:0.474731" />
    <path
       d="m 158.36637,115.84801 a 1.0823864,1.0823864 0 0 0 -0.83078,-0.32282 l -4.3153,0.22312 a 1.1488487,1.1488487 0 0 0 -0.54594,0.16141 4.9134644,4.9134644 0 0 0 -0.17091,-0.47473 c -0.55543,-1.33399 -1.78973,-2.49708 -3.6032,-3.41806 v -6.93107 h 5.43092 a 2.5113263,2.5113263 0 1 0 0,-3.99249 h -2.54931 a 6.8456191,6.8456191 0 0 0 0.6314,-2.212244 3.2851376,3.2851376 0 0 0 -1.96064,-3.256653 3.72189,3.72189 0 0 0 -1.66156,-0.398774 l 0.42726,-2.069827 h -5.13659 l 0.42726,2.069827 a 3.7361318,3.7361318 0 0 0 -1.66156,0.398774 3.275643,3.275643 0 0 0 -1.9464,3.256653 6.6177483,6.6177483 0 0 0 0.63139,2.212244 h -2.55405 a 2.5065789,2.5065789 0 1 0 -1.50489,4.50994 2.5303155,2.5303155 0 0 0 1.51914,-0.51745 h 2.91484 a 6.3471515,6.3471515 0 0 0 -1.03491,3.32311 c 0,2.22175 1.19632,3.97825 3.55573,5.22204 v 6.28544 a 21.965797,21.965797 0 0 1 -4.08268,-1.99862 l 0.47473,-0.47473 a 1.0254187,1.0254187 0 0 0 -0.68361,-1.76125 l -4.32005,-0.22312 a 1.091881,1.091881 0 0 0 -0.83078,0.32281 1.1251121,1.1251121 0 0 0 -0.30858,0.70735 l 0.29433,4.43874 a 1.0349133,1.0349133 0 0 0 1.7755,0.66462 l 0.68836,-0.7026 a 27.19733,27.19733 0 0 0 9.25725,5.07962 27.154606,27.154606 0 0 0 9.25725,-5.07962 l 0.68836,0.69785 a 1.030166,1.030166 0 0 0 1.10138,0.25636 0.99693481,0.99693481 0 0 0 0.66462,-0.91623 l 0.30383,-4.31056 a 1.1013756,1.1013756 0 0 0 -0.34181,-0.76906 z m -13.94759,-6.45634 a 2.1505308,2.1505308 0 0 1 0,-1.83721 z m 4.52419,10.02157 a 0.52220394,0.52220394 0 0 1 -0.0427,0.0665 v -3.47978 c 0.51271,0.38928 1.16783,1.43843 0.0427,3.38958 z m 3.88804,-1.33874 0.0285,-0.22788 0.12818,0.12818 z"
       id="path11733"
       style="stroke-width:0.474731" />
    <path
       class="cls-1"
       d="m 158.1385,116.04739 a 0.769064,0.769064 0 0 0 -0.56493,-0.19938 l -4.32005,0.21837 a 0.73108553,0.73108553 0 0 0 -0.66462,0.43201 c -0.0237,0.0665 -0.0427,0.12343 -0.057,0.17565 a 4.5051959,4.5051959 0 0 0 -0.30858,-1.12511 c -0.54119,-1.30551 -1.78499,-2.44487 -3.62219,-3.32312 v -7.46277 h 5.85343 a 2.1885093,2.1885093 0 1 0 0,-3.34685 h -3.16171 a 7.353581,7.353581 0 0 0 0.81654,-2.549307 2.9528259,2.9528259 0 0 0 -1.78499,-2.957572 3.2851376,3.2851376 0 0 0 -1.8989,-0.332311 l 0.43201,-2.098311 h -4.36752 l 0.432,2.098311 a 3.2946321,3.2946321 0 0 0 -1.89892,0.332311 2.9528259,2.9528259 0 0 0 -1.77549,2.957572 7.4532744,7.4532744 0 0 0 0.81653,2.549307 h -3.1617 a 2.1885093,2.1885093 0 1 0 0,3.34685 h 3.61745 a 6.3376569,6.3376569 0 0 0 -1.31501,3.66967 c 0,2.14104 1.19632,3.83108 3.55099,5.03215 v 6.94531 a 22.355076,22.355076 0 0 1 -4.90872,-2.40688 l 0.73109,-0.74058 a 0.7120963,0.7120963 0 0 0 -0.47474,-1.22006 l -4.33429,-0.19464 a 0.75956938,0.75956938 0 0 0 -0.58392,0.22312 0.77381129,0.77381129 0 0 0 -0.21837,0.58867 l 0.29433,4.3153 a 0.70734899,0.70734899 0 0 0 1.22481,0.47473 l 0.89249,-0.90674 a 27.05966,27.05966 0 0 0 9.27624,5.13184 27.05966,27.05966 0 0 0 9.28099,-5.17931 l 0.89249,0.90674 a 0.70734899,0.70734899 0 0 0 1.22481,-0.47473 l 0.29433,-4.31531 a 0.769064,0.769064 0 0 0 -0.20888,-0.56493 z m -13.38266,-5.78222 c -1.54288,-1.38146 -0.69311,-2.97181 0,-3.94501 z m 3.84532,10.14025 v -5.11285 c 2.03659,1.35773 1.37672,3.47978 -0.019,5.11285 z m 3.75037,-1.70903 a 4.8754858,4.8754858 0 0 0 0.19464,-1.70428 c 0.0427,0.076 0.59342,0.65038 0.94946,1.00168 -0.31807,0.22787 -0.7026,0.46524 -1.1441,0.7026 z"
       id="path11735"
       style="fill:#ffffff;stroke-width:0.474731" />
    <polygon
       class="cls-2"
       points="121.92,72.93 118.1,72.93 117.14,68.29 122.88,68.29 "
       id="polygon11737"
       transform="matrix(0.47473087,0,0,0.47473087,89.687059,61.728689)"
       style="fill:#c09949" />
    <path
       class="cls-2"
       d="m 147.35736,101.50164 a 4.0874328,4.0874328 0 0 0 0.64564,-1.98912 c 0,-1.381469 -0.94946,-2.373656 -1.34349,-2.373656 -0.39403,0 -1.34349,1.006429 -1.34349,2.373656 a 4.0874328,4.0874328 0 0 0 0.64563,1.98912 z"
       id="path11739"
       style="fill:#c09949;stroke-width:0.474731" />
    <path
       class="cls-2"
       d="m 147.54251,96.801805 c 0.5222,-0.773811 1.71378,-0.683612 2.47809,-0.294333 a 2.2882028,2.2882028 0 0 1 1.4242,2.330929 c -0.0427,1.030166 -0.94947,2.663239 -0.94947,2.663239 h -2.30719 a 4.6001421,4.6001421 0 0 0 0.53645,-1.98912 3.7123952,3.7123952 0 0 0 -1.18208,-2.710715 z"
       id="path11741"
       style="fill:#c09949;stroke-width:0.474731" />
    <path
       class="cls-2"
       d="m 145.77651,96.801805 c -0.5222,-0.773811 -1.71378,-0.683612 -2.4781,-0.294333 a 2.2882028,2.2882028 0 0 0 -1.42419,2.330929 c 0.0427,1.030166 0.94946,2.663239 0.94946,2.663239 h 2.3072 a 4.6001421,4.6001421 0 0 1 -0.53645,-1.98912 3.7123952,3.7123952 0 0 1 1.18208,-2.710715 z"
       id="path11743"
       style="fill:#c09949;stroke-width:0.474731" />
    <path
       class="cls-2"
       d="m 157.57357,116.49364 -4.32005,0.21838 c -0.057,0 -0.0712,0.038 -0.0285,0.0807 l 1.26753,1.28652 c -1.08238,0.92098 -3.85007,2.44486 -6.59401,3.24716 v 0 -6.46109 a 11.991702,11.991702 0 0 0 -1.71378,-0.76906 c -0.27535,-0.0997 -0.53645,-0.20413 -0.78805,-0.31332 v 7.54347 0 c -2.74395,-0.80229 -5.51163,-2.32618 -6.58927,-3.24716 l 1.26279,-1.28652 c 0.0427,-0.0427 0.0285,-0.076 -0.0285,-0.0807 l -4.32006,-0.21837 a 0.08545156,0.08545156 0 0 0 -0.0949,0.0997 l 0.29434,4.31055 c 0,0.057 0.038,0.0712 0.0807,0.0332 l 1.33399,-1.36248 a 26.138681,26.138681 0 0 0 9.31897,5.39769 26.138681,26.138681 0 0 0 9.31422,-5.39769 l 1.33874,1.36248 c 0.038,0.038 0.076,0 0.076,-0.0332 l 0.29433,-4.31055 a 0.08545156,0.08545156 0 0 0 -0.10444,-0.0997 z"
       id="path11745"
       style="fill:#c09949;stroke-width:0.474731" />
    <path
       class="cls-2"
       d="m 147.9128,111.87451 v -7.78084 h 6.81239 a 1.5001495,1.5001495 0 0 0 1.13935,0.51746 1.5191388,1.5191388 0 1 0 -1.13935,-2.53032 h -16.11712 a 1.5191388,1.5191388 0 1 0 -1.1346,2.52557 1.5001495,1.5001495 0 0 0 1.13935,-0.51746 h 6.79815 v 6.67947 a 9.4518914,9.4518914 0 0 0 1.71852,0.80704 z"
       id="path11747"
       style="fill:#c09949;stroke-width:0.474731" />
    <path
       class="cls-2"
       d="m 151.53974,115.80528 c -0.60291,-1.42419 -2.20275,-2.66324 -4.6666,-3.56048 -3.28039,-1.19632 -3.7124,-2.68223 -3.7124,-3.79785 0,-1.42419 1.22006,-2.87687 1.57611,-3.2519 v -0.41777 h -1.31975 a 5.9863561,5.9863561 0 0 0 -1.50965,3.65543 c 0,2.22649 1.50015,3.87855 4.53843,4.98467 2.11255,0.76907 3.47978,1.77075 3.94027,2.84839 0.47473,1.17258 0.0997,2.56355 -0.54595,3.64593 0.5412,-0.22787 1.05391,-0.47473 1.53339,-0.7026 a 4.0874328,4.0874328 0 0 0 0.16615,-3.40382 z"
       id="path11749"
       style="fill:#c09949;stroke-width:0.474731" />
    <path
       class="cls-1"
       d="m 116.61854,142.30476 c -0.40827,1.42419 -1.68055,2.34042 -2.84839,2.01286 -1.16783,-0.32757 -1.76125,-1.766 -1.35298,-3.20444 0.40827,-1.43843 1.68055,-2.34517 2.84839,-2.01286 1.16783,0.33232 1.766,1.76126 1.35298,3.20444 z m -1.79923,-3.06202 c -0.45099,-0.057 -0.74058,1.01118 -0.91148,2.40689 -0.17091,1.39571 -0.15192,2.49708 0.29908,2.55405 0.45099,0.057 0.74058,-1.01118 0.91148,-2.40688 0.1709,-1.39571 0.15666,-2.50184 -0.29908,-2.55406 z"
       id="path11751"
       style="fill:#ffffff;stroke-width:0.474731" />
    <path
       class="cls-1"
       d="m 124.84563,144.77336 c -0.21838,1.48116 -1.36248,2.53981 -2.54931,2.37365 -1.18683,-0.16615 -1.97963,-1.51914 -1.76125,-3.0003 0.21837,-1.48116 1.36248,-2.53981 2.55405,-2.37365 1.19158,0.16616 1.97963,1.51914 1.75651,3.0003 z m -2.17902,-2.81515 c -0.47473,0 -0.60766,1.09662 -0.59341,2.50657 0.0142,1.40995 0.1709,2.49709 0.62664,2.49234 0.45574,-0.005 0.60766,-1.09663 0.59342,-2.50658 -0.0142,-1.40995 -0.17091,-2.49233 -0.62665,-2.49233 z"
       id="path11753"
       style="fill:#ffffff;stroke-width:0.474731" />
    <path
       class="cls-1"
       d="m 180.56479,140.78087 c 0.59816,1.37672 0.18514,2.87687 -0.92098,3.35635 -1.10612,0.47948 -2.48284,-0.25161 -3.07626,-1.62358 -0.59341,-1.37197 -0.1804,-2.87687 0.92098,-3.35635 1.10138,-0.47948 2.48284,0.25161 3.07626,1.62358 z m -3.32312,-1.22955 c -0.38453,0.24211 0.0665,1.25329 0.82128,2.44011 0.75483,1.18683 1.46218,2.03185 1.85146,1.78974 0.38927,-0.24211 -0.0665,-1.25329 -0.82129,-2.44486 -0.75482,-1.19158 -1.47167,-2.03185 -1.86094,-1.78499 z"
       id="path11755"
       style="fill:#ffffff;stroke-width:0.474731" />
    <path
       class="cls-1"
       d="m 154.03208,142.90767 v -0.076 l 2.24073,-0.29434 1.6663,3.48927 0.47473,-3.76936 2.24073,-0.29908 v 0.076 a 0.63613935,0.63613935 0 0 0 -0.54594,0.82603 c 0.0617,0.47474 0.69786,5.33598 0.69786,5.33598 a 0.62664475,0.62664475 0 0 0 0.69311,0.61715 v 0.0665 l -2.84839,0.37504 v -0.0665 c 0.47473,-0.13767 0.64089,-0.3608 0.58867,-0.76907 -0.0522,-0.40826 -0.58392,-4.41974 -0.58392,-4.41974 h -0.0617 l -0.75482,5.57334 -2.44487,-5.33597 -0.057,0.0237 c 0,0 0.47473,3.66017 0.73583,4.34853 0.26111,0.68836 0.56968,0.8023 0.86401,0.7928 v 0.0665 l -2.30244,0.30383 v -0.0665 a 1.0349133,1.0349133 0 0 0 0.76431,-1.02067 31.332236,31.332236 0 0 0 -0.51745,-4.93245 c -0.0665,-0.42726 -0.15666,-0.90674 -0.84977,-0.84502 z"
       id="path11757"
       style="fill:#ffffff;stroke-width:0.474731" />
    <path
       class="cls-1"
       d="m 162.79561,143.3824 c 0.94946,-0.23737 1.59035,0.16615 1.73752,0.83077 0.14716,0.66463 0.62189,2.80092 0.65513,2.95758 0.0332,0.15666 0.11393,0.29433 0.28958,0.25635 0.17565,-0.038 0.24686,-0.19938 0.20414,-0.43675 h 0.0475 a 1.0111767,1.0111767 0 0 1 -1.31026,1.23905 1.2485422,1.2485422 0 0 1 -0.47473,-0.41776 1.2437948,1.2437948 0 0 1 -1.22006,0.94946 1.1441014,1.1441014 0 0 1 -1.12986,-0.99694 2.0128589,2.0128589 0 0 1 0.0617,-1.42419 c 0.23262,-0.36554 0.76906,-0.47473 1.45743,-0.86401 0.18039,-0.0949 0.22312,-0.1709 0.19938,-0.40827 -0.0237,-0.23736 -0.18514,-0.60291 -1.01117,-0.41776 -0.82604,0.18514 -0.94947,0.65987 -0.9827,0.7026 -0.0332,0.0427 -0.0617,0.0332 -0.0617,0 a 2.0223535,2.0223535 0 0 1 1.53813,-1.97013 z m 0.0854,2.61577 a 3.1047399,3.1047399 0 0 0 0.1804,1.60933 c 0.12343,0.32757 0.20888,0.47473 0.47473,0.42251 0.26585,-0.0522 0.31332,-0.30857 0.22787,-0.68361 l -0.41777,-1.85145 c -0.076,0.005 -0.29433,0.0902 -0.44624,0.48897 z"
       id="path11759"
       style="fill:#ffffff;stroke-width:0.474731" />
    <path
       class="cls-1"
       d="m 167.33879,143.77168 c 0,0 0.66937,2.69647 0.71684,2.88161 0.0712,0.28009 0.22312,0.58867 0.64089,0.47473 v 0.0665 l -2.37366,0.59342 v -0.0665 a 0.54119317,0.54119317 0 0 0 0.37029,-0.7121 l -0.84027,-3.38008 c -0.0617,-0.26111 -0.12818,-0.52695 -0.66462,-0.47473 v -0.057 a 6.8646082,6.8646082 0 0 0 1.76599,-0.74533 c 0.10919,0.47473 0.23262,0.86401 0.23262,0.86401 a 0.03797847,0.03797847 0 0 0 0.0712,0 c 0,-0.0522 0,-1.20107 1.09188,-1.27228 a 3.6221964,3.6221964 0 0 0 -0.076,1.315 1.0633971,1.0633971 0 0 0 -0.57917,0 0.5506878,0.5506878 0 0 0 -0.35605,0.51271 z"
       id="path11761"
       style="fill:#ffffff;stroke-width:0.474731" />
    <path
       class="cls-1"
       d="m 176.51533,144.2654 c -0.0902,-0.27535 -0.94946,-3.03353 -0.94946,-3.03353 -0.20888,-0.67412 -0.47473,-1.14411 -1.28652,-0.89725 a 2.1220469,2.1220469 0 0 0 -1.01592,0.97795 0.01185,0 0 0 0 -0.0237,0 c -0.11394,-0.36554 -0.18515,-0.60766 -0.18515,-0.60766 a 6.8123879,6.8123879 0 0 1 -1.73752,0.85452 v 0.0617 c 0.47474,-0.0997 0.60291,0.21838 0.68362,0.47473 l 1.01592,3.25191 a 0.5506878,0.5506878 0 0 1 -0.37029,0.75482 l 0.0237,0.0617 2.17902,-0.67886 v -0.0665 c -0.34181,0.0617 -0.41777,-0.23737 -0.50322,-0.51271 -0.057,-0.1899 -0.62664,-2.03185 -0.98744,-3.21393 a 0.42725777,0.42725777 0 0 1 0.27535,-0.47473 c 0.28009,-0.0855 0.47473,0.0854 0.56493,0.38928 l 0.94946,3.09049 c 0.11868,0.37979 0,0.59816 -0.20888,0.67887 v 0.0665 l 2.22649,-0.6931 -0.0237,-0.0665 c -0.22787,0.12343 -0.46999,0.0902 -0.62665,-0.41777 z"
       id="path11763"
       style="fill:#ffffff;stroke-width:0.474731" />
    <path
       class="cls-1"
       d="m 183.84043,137.99895 -0.63139,0.69785 c -0.31807,-0.72159 -0.82129,-1.2343 -1.39096,-1.02067 -0.4415,0.16141 -0.36555,0.66937 -0.27535,0.91148 a 0.73583284,0.73583284 0 0 0 0.66937,0.52221 4.7473087,4.7473087 0 0 1 1.63308,-0.0237 1.4621711,1.4621711 0 0 1 0.94946,0.99219 1.8039773,1.8039773 0 0 1 -1.18683,2.32143 1.8989234,1.8989234 0 0 1 -2.37365,-0.81179 l 0.76432,-0.62189 c 0.30382,0.64563 0.84502,1.50014 1.53337,1.24379 a 0.79754786,0.79754786 0 0 0 0.40353,-1.12511 c -0.18515,-0.47473 -0.72634,-0.58867 -1.22481,-0.47473 -0.49847,0.11393 -1.46692,0.30383 -1.89892,-0.60291 -0.43201,-0.90674 -0.31333,-2.0271 0.94946,-2.48759 1.26278,-0.46049 1.77549,0.0902 2.07932,0.47948 z"
       id="path11765"
       style="fill:#ffffff;stroke-width:0.474731" />
    <path
       class="cls-1"
       d="m 170.22515,140.53401 a 0.79754786,0.79754786 0 1 1 -0.9827,-0.58866 0.80704245,0.80704245 0 0 1 0.9827,0.58866 z"
       id="path11767"
       style="fill:#ffffff;stroke-width:0.474731" />
    <path
       class="cls-1"
       d="m 171.64934,145.77979 c -0.0712,-0.28009 -1.1441,-4.27258 -1.1441,-4.27258 a 7.3345918,7.3345918 0 0 1 -1.72802,0.74533 l 0.0237,0.0807 c 0.43675,0 0.50322,0.22312 0.56968,0.47473 l 0.90199,3.36584 a 0.53644588,0.53644588 0 0 1 -0.3608,0.7026 v 0.0665 l 2.37366,-0.64088 v -0.0665 c -0.40353,0.11393 -0.56019,-0.17565 -0.63615,-0.45574 z"
       id="path11769"
       style="fill:#ffffff;stroke-width:0.474731" />
    <path
       class="cls-1"
       d="m 147.22919,143.19725 v 0.0712 c 0.47473,0.0332 0.64088,0.30383 0.65512,1.00643 0,0 0.0997,4.74731 0.10445,5.00366 a 0.7785586,0.7785586 0 0 1 -0.64564,0.83553 v 0.0617 l 2.95283,-0.0617 v -0.0617 a 0.75482207,0.75482207 0 0 1 -0.7121,-0.82128 l -0.0522,-2.56355 a 1.3007625,1.3007625 0 0 1 0.82128,0.15191 0.97794556,0.97794556 0 0 1 0.57443,0.85927 h 0.0712 l -0.0475,-2.37365 h -0.076 c 0,0.33706 -0.0237,0.47473 -0.43201,0.81179 a 1.2675314,1.2675314 0 0 1 -0.92098,0.21837 l -0.057,-2.89111 a 1.599843,1.599843 0 0 1 1.70903,1.28652 h 0.076 l -0.0332,-1.60459 z"
       id="path11771"
       style="fill:#ffffff;stroke-width:0.474731" />
    <path
       class="cls-1"
       d="m 110.41381,139.79818 -0.64089,1.51914 c -0.16615,0.39877 -0.54119,0.83078 -1.04441,0.60765 v 0.057 l 2.59678,1.09663 v -0.057 c -0.432,-0.15191 -0.42726,-0.60291 -0.2706,-0.97795 l 0.7121,-1.69478 c 0,0 1.34349,-1.5049 2.00336,-2.16478 0.65988,-0.65987 1.31976,-1.02542 1.5049,-0.98269 v -0.0522 l -1.75176,-0.73583 v 0.0475 c 0.35131,0.22313 0.30858,0.49847 0.12818,0.90199 a 11.137186,11.137186 0 0 1 -1.65206,2.24548 0.14241926,0.14241926 0 0 1 -0.0712,0.0427 c 0,0 0.0285,-2.42588 0.0665,-2.89111 0.038,-0.46524 0.27059,-0.79755 0.61715,-0.68361 v -0.0522 l -2.42587,-1.02067 v 0.0475 c 0.3513,0.19938 0.38928,0.47473 0.36079,1.07763 -0.0285,0.60291 -0.13292,3.66967 -0.13292,3.66967 z"
       id="path11773"
       style="fill:#ffffff;stroke-width:0.474731" />
    <path
       class="cls-1"
       d="m 132.41284,143.80016 c 0.98269,0.1709 1.39096,0.78805 1.26278,1.45742 -0.12818,0.66938 -0.55544,2.81516 -0.58392,2.97657 -0.0285,0.1614 0,0.31807 0.16141,0.3513 0.16141,0.0332 0.30857,-0.0855 0.36554,-0.32282 h 0.0475 a 0.97319827,0.97319827 0 0 1 -0.47473,0.73583 0.94946171,0.94946171 0 0 1 -1.22005,-0.12343 1.215311,1.215311 0 0 1 -0.28959,-0.57917 1.2390476,1.2390476 0 0 1 -1.48591,0.36554 1.1488487,1.1488487 0 0 1 -0.63139,-1.35773 2.0081115,2.0081115 0 0 1 0.6219,-1.27228 c 0.35604,-0.24211 0.90199,-0.14716 1.6758,-0.20888 0.20413,0 0.27534,-0.0712 0.34655,-0.29433 0.0712,-0.22312 0.076,-0.62664 -0.75957,-0.78805 a 1.1725852,1.1725852 0 0 0 -1.18208,0.25161 c -0.038,0.0332 -0.0712,0 -0.0522,-0.0285 a 2.0271008,2.0271008 0 0 1 2.198,-1.16309 z m -0.94947,2.43062 a 3.1664548,3.1664548 0 0 0 -0.47473,1.54762 c 0,0.34656 0,0.52696 0.26111,0.57918 0.2611,0.0522 0.40826,-0.15667 0.47472,-0.53645 l 0.36555,-1.86095 a 0.68835974,0.68835974 0 0 0 -0.62665,0.2706 z"
       id="path11775"
       style="fill:#ffffff;stroke-width:0.474731" />
    <path
       class="cls-1"
       d="m 143.01832,144.80659 c 0.99219,0 1.4954,0.56018 1.47167,1.23905 -0.0237,0.67886 -0.10444,2.87212 -0.10919,3.03353 -0.005,0.16141 0.038,0.31807 0.21363,0.32281 0.17565,0.005 0.28959,-0.13292 0.30858,-0.37503 h 0.0522 a 0.98744019,0.98744019 0 0 1 -0.35605,0.80229 0.94946171,0.94946171 0 0 1 -1.22481,0.0665 1.2580368,1.2580368 0 0 1 -0.37504,-0.52695 1.2390476,1.2390476 0 0 1 -1.42419,0.59341 1.153596,1.153596 0 0 1 -0.84502,-1.24854 2.0176062,2.0176062 0 0 1 0.41776,-1.35773 c 0.31332,-0.28958 0.86401,-0.28009 1.62358,-0.47473 0.19939,-0.0522 0.25636,-0.11394 0.29434,-0.34655 0.038,-0.23262 0,-0.6314 -0.86876,-0.65988 -0.86876,-0.0285 -1.10138,0.39403 -1.12986,0.43675 -0.0285,0.0427 -0.0712,0 -0.0617,-0.0237 a 2.0365954,2.0365954 0 0 1 2.01286,-1.48116 z m -0.56967,2.5588 a 3.1617076,3.1617076 0 0 0 -0.23262,1.60459 c 0.038,0.34655 0.0807,0.5222 0.34655,0.5317 0.26585,0.01 0.37979,-0.22313 0.39403,-0.60766 l 0.0712,-1.89892 c -0.0902,-0.019 -0.32757,0.005 -0.57917,0.3513 z"
       id="path11777"
       style="fill:#ffffff;stroke-width:0.474731" />
    <path
       class="cls-1"
       d="m 128.66246,147.73568 c 0.076,-0.28009 0.77381,-2.98606 0.77381,-2.98606 0.15666,-0.6124 0.33706,-1.25329 -0.61715,-1.50015 a 2.1885093,2.1885093 0 0 0 -1.39096,0.28009 c 0,0 -0.038,0 -0.0475,-0.038 l 0.68836,-2.66798 a 7.5482207,7.5482207 0 0 1 -1.98912,-0.15192 v 0.057 c 0.47473,0.20888 0.42726,0.47473 0.3608,0.73584 -0.0665,0.2611 -1.38622,5.36445 -1.38622,5.36445 a 0.53644588,0.53644588 0 0 1 -0.65988,0.43676 v 0.0665 l 2.217,0.56967 v -0.0665 c -0.28009,-0.15191 -0.23262,-0.39877 -0.16141,-0.67886 0.038,-0.13767 0.44625,-1.71853 0.84502,-3.26615 a 0.44624702,0.44624702 0 0 1 0.47473,-0.22312 0.43200508,0.43200508 0 0 1 0.31807,0.59816 c -0.0665,0.26585 -0.80704,3.13797 -0.80704,3.13797 -0.0997,0.38453 -0.21838,0.53644 -0.47473,0.47473 v 0.0665 l 2.21699,0.57443 v -0.0665 c -0.28009,-0.0712 -0.49372,-0.20414 -0.36079,-0.71685 z"
       id="path11779"
       style="fill:#ffffff;stroke-width:0.474731" />
    <path
       class="cls-1"
       d="m 139.98005,149.2026 0.36554,-3.0905 c 0.0855,-0.7026 0.0237,-1.30551 -0.8023,-1.42419 a 1.8989234,1.8989234 0 0 0 -1.25329,0.432 v 0 a 0.80229517,0.80229517 0 0 0 -0.79755,-0.68361 1.6520634,1.6520634 0 0 0 -1.16783,0.4415 l 0.0712,-0.60291 a 7.0402588,7.0402588 0 0 1 -1.93216,0.057 v 0.057 c 0.52221,0.14242 0.47473,0.40352 0.47473,0.67887 0,0.27534 -0.42725,3.6127 -0.42725,3.6127 -0.0475,0.38928 -0.30383,0.41301 -0.58392,0.39402 v 0.0712 l 2.14103,0.25161 v -0.0665 c -0.19464,-0.0902 -0.21363,-0.23262 -0.18039,-0.5222 0,-0.20414 0.29908,-2.50183 0.44624,-3.74088 a 0.37503738,0.37503738 0 0 1 0.33706,-0.16141 c 0.29434,0.0332 0.29908,0.23737 0.2611,0.55544 -0.038,0.31807 -0.39877,3.32311 -0.39877,3.32311 -0.0427,0.39403 -0.14717,0.52221 -0.36079,0.54594 v 0.0712 l 1.97013,0.23262 v -0.0665 c -0.13768,-0.0475 -0.24686,-0.11393 -0.18515,-0.64563 l 0.36555,-3.0905 a 3.4750298,3.4750298 0 0 0 0.0285,-0.47473 0.39877391,0.39877391 0 0 1 0.36554,-0.23737 c 0.29433,0.038 0.33231,0.2706 0.29433,0.58867 -0.038,0.31807 -0.39877,3.32311 -0.39877,3.32311 -0.0475,0.39403 -0.15192,0.51746 -0.36555,0.54594 v 0.0712 l 2.20751,0.2611 v -0.0665 c -0.32282,0 -0.5412,-0.10918 -0.47474,-0.64088 z"
       id="path11781"
       style="fill:#ffffff;stroke-width:0.474731" />
    <path
       class="cls-1"
       d="m 119.94166,145.54242 c -0.0427,-0.24211 -0.17091,-3.46079 -0.17091,-3.46079 a 1.7375149,1.7375149 0 0 1 1.49066,-0.64088 l 0.0285,-0.0712 -1.49541,-0.52221 v 0.057 c 0.23737,0.0854 0.36555,0.43676 0.0665,0.84502 a 10.91881,10.91881 0 0 1 -1.29126,1.22956 l 1.54287,-4.415 a 7.4532744,7.4532744 0 0 1 -2.00336,-0.40827 v 0.057 a 0.57917165,0.57917165 0 0 1 0.3418,0.81179 l -1.82771,5.22204 a 0.52695126,0.52695126 0 0 1 -0.69311,0.37504 l -0.0237,0.0665 2.31669,0.80704 v -0.0617 c -0.38453,-0.14242 -0.3513,-0.47473 -0.25636,-0.74533 0.0285,-0.076 0.20889,-0.59816 0.47474,-1.31025 h 0.0522 l 0.15666,2.29295 1.65206,0.56018 v -0.0617 a 0.84502093,0.84502093 0 0 1 -0.3608,-0.62665 z"
       id="path11783"
       style="fill:#ffffff;stroke-width:0.474731" />
    <path
       class="cls-1"
       d="m 154.01309,146.43017 a 0.79754786,0.79754786 0 1 1 -0.84027,-0.77381 0.81178977,0.81178977 0 0 1 0.84027,0.77381 z"
       id="path11785"
       style="fill:#ffffff;stroke-width:0.474731" />
  </g>
</svg>
