<?xml version="1.0" encoding="UTF-8" standalone="no"?><!-- Generator: Gravit.io --><svg xmlns="http://www.w3.org/2000/svg" xmlns:xlink="http://www.w3.org/1999/xlink" style="isolation:isolate" viewBox="0 0 512 512" width="512pt" height="512pt"><defs><clipPath id="_clipPath_8WQQaQuWsjpvkJ66OGxUftZMKyfbJBaQ"><rect width="512" height="512"/></clipPath></defs><g clip-path="url(#_clipPath_8WQQaQuWsjpvkJ66OGxUftZMKyfbJBaQ)"><circle vector-effect="non-scaling-stroke" cx="256" cy="256" r="256" fill="rgb(0,0,128)" /><path d=" M 340.609 235.139 L 349.068 235.139 L 351.849 222.045 L 367.996 222.045 L 365.206 235.139 L 375.874 235.139 L 373.605 245.793 L 362.943 245.793 L 359.411 262.399 C 358.621 266.131 359.422 266.657 363.765 266.657 C 365.74 266.657 367.362 266.583 369.513 266.509 L 367.373 276.56 C 364.002 277.014 359.67 277.321 354.946 277.321 C 344.437 277.321 340.645 274.737 342.54 265.824 L 346.805 245.793 L 338.347 245.793 L 340.609 235.139 Z  M 318.688 235.139 L 334.83 235.139 L 326.06 276.412 L 309.918 276.412 L 318.688 235.139 Z  M 321.762 220.666 L 337.905 220.666 L 335.831 230.414 L 319.688 230.414 L 321.762 220.666 Z  M 275.924 235.139 L 267.15 276.413 L 282.857 276.413 L 291.633 235.139 L 275.924 235.139 Z  M 310.212 233.304 C 303.004 233.304 291.531 240.405 288.506 253.049 L 287.73 255.898 L 288.001 255.898 C 290.293 250.411 296.038 247.473 303.777 247.473 C 305.862 247.473 308.233 247.759 310.141 248.188 L 313.277 233.449 C 312.251 233.358 311.179 233.304 310.212 233.304 Z  M 253.138 235.139 L 269.278 235.139 L 260.507 276.412 L 244.365 276.412 L 253.138 235.139 Z  M 256.209 220.666 L 272.353 220.666 L 270.285 230.414 L 254.139 230.414 L 256.209 220.666 Z  M 213.236 266.355 C 220.628 266.355 225.439 262.7 226.891 255.85 C 228.349 248.988 225.091 245.341 217.708 245.341 C 210.168 245.341 205.333 249.448 203.976 255.85 C 202.615 262.245 205.698 266.355 213.236 266.355 Z  M 192.231 235.139 L 207.916 235.139 L 206.755 240.619 L 206.906 240.619 C 211.224 236.43 217.437 234.071 223.987 234.071 C 238.607 234.071 246.407 242.137 243.364 256.456 C 240.822 268.413 229.929 278.077 214.78 278.077 C 207.623 278.077 202.646 275.718 200.547 272.675 L 200.397 272.675 L 196.425 291.334 L 180.286 291.334 L 192.231 235.139 Z  M 146.963 263.542 C 146.871 265.063 147.221 266.282 148.502 267.05 C 149.773 267.887 151.884 268.336 155.387 268.336 C 158.965 268.336 162.919 267.652 163.551 264.683 C 164.019 262.476 162.547 261.863 158.687 261.408 L 144.662 259.657 C 135.468 258.513 131.381 255.165 132.875 248.156 C 135.247 236.966 145.59 233.464 161.047 233.464 C 172.014 233.464 185.449 235.439 183.872 247.166 L 165.753 247.166 C 165.972 245.415 165.07 244.276 163.601 243.664 C 162.147 242.985 160.067 242.75 158.007 242.75 C 153.362 242.75 150.397 243.817 149.796 246.635 C 149.522 247.931 150.346 249.07 154.359 249.529 L 167.972 251.051 C 178.828 252.27 183.582 255.696 181.869 263.767 C 179.796 273.512 169.537 278.076 152.406 278.076 C 140.979 278.076 125.955 276.029 128.231 263.542 L 146.963 263.542 Z  M 380.675 238.388 C 380.866 238.388 381.018 238.344 381.132 238.254 C 381.243 238.164 381.299 238.039 381.299 237.882 C 381.299 237.736 381.252 237.615 381.156 237.52 C 381.061 237.424 380.906 237.376 380.693 237.376 L 380.287 237.376 L 380.287 238.388 L 380.675 238.388 Z  M 379.443 236.734 L 380.843 236.734 C 381.215 236.734 381.533 236.819 381.797 236.987 C 382.061 237.156 382.194 237.438 382.194 237.831 C 382.194 238.023 382.141 238.203 382.034 238.371 C 381.927 238.54 381.772 238.669 381.57 238.76 L 382.312 240.094 L 381.418 240.094 L 380.86 238.996 L 380.287 238.996 L 380.287 240.094 L 379.443 240.094 L 379.443 236.734 Z  M 380.742 241.089 C 381.091 241.089 381.418 241.025 381.721 240.895 C 382.025 240.766 382.288 240.586 382.507 240.355 C 382.726 240.124 382.898 239.848 383.021 239.528 C 383.145 239.207 383.207 238.85 383.207 238.456 C 383.207 238.062 383.145 237.702 383.021 237.376 C 382.898 237.049 382.726 236.768 382.507 236.532 C 382.288 236.295 382.025 236.112 381.721 235.983 C 381.418 235.854 381.091 235.789 380.742 235.789 C 380.382 235.789 380.054 235.854 379.756 235.983 C 379.457 236.112 379.197 236.295 378.978 236.532 C 378.759 236.768 378.588 237.049 378.464 237.376 C 378.339 237.702 378.278 238.062 378.278 238.456 C 378.278 238.85 378.339 239.207 378.464 239.528 C 378.588 239.848 378.759 240.124 378.978 240.355 C 379.197 240.586 379.457 240.766 379.756 240.895 C 380.054 241.025 380.382 241.089 380.742 241.089 Z  M 380.742 241.815 C 380.292 241.815 379.871 241.734 379.477 241.57 C 379.083 241.407 378.737 241.176 378.439 240.878 C 378.14 240.58 377.907 240.226 377.739 239.815 C 377.569 239.404 377.485 238.951 377.485 238.456 C 377.485 237.961 377.569 237.505 377.739 237.089 C 377.907 236.672 378.14 236.315 378.439 236.017 C 378.737 235.718 379.083 235.488 379.477 235.324 C 379.871 235.162 380.292 235.08 380.742 235.08 C 381.193 235.08 381.614 235.162 382.008 235.324 C 382.402 235.488 382.749 235.718 383.047 236.017 C 383.345 236.315 383.578 236.672 383.747 237.089 C 383.916 237.505 384 237.961 384 238.456 C 384 238.951 383.916 239.404 383.747 239.815 C 383.578 240.226 383.345 240.58 383.047 240.878 C 382.749 241.176 382.402 241.407 382.008 241.57 C 381.614 241.734 381.193 241.815 380.742 241.815 Z " fill-rule="evenodd" fill="rgb(255,255,255)"/></g></svg>