<?xml version="1.0" encoding="UTF-8" standalone="no"?><!-- Generator: Gravit.io --><svg xmlns="http://www.w3.org/2000/svg" xmlns:xlink="http://www.w3.org/1999/xlink" style="isolation:isolate" viewBox="0 0 512 512" width="512pt" height="512pt"><defs><clipPath id="_clipPath_fy83iRgeSm64nDsZPqIEuUBUVWjgeVed"><rect width="512" height="512"/></clipPath></defs><g clip-path="url(#_clipPath_fy83iRgeSm64nDsZPqIEuUBUVWjgeVed)"><circle vector-effect="non-scaling-stroke" cx="256" cy="256" r="256" fill="rgb(0,0,128)" /><path d=" M 249.451 128 C 250.032 128 250.197 135.465 250.363 162.589 C 250.529 196.681 250.529 197.179 251.608 197.428 C 252.271 197.511 254.926 197.428 262.474 196.847 L 262.059 193.28 C 261.81 191.373 261.395 187.723 261.064 185.234 C 260.732 182.746 260.068 178.516 259.654 175.861 C 259.156 173.207 258.326 168.147 257.829 164.746 C 257.414 161.262 256.75 156.617 256.419 154.378 C 256.17 152.055 255.755 149.981 255.589 149.65 C 255.423 149.318 255.423 148.654 255.589 148.239 C 255.838 147.576 256.833 147.327 259.985 147.41 C 262.308 147.41 266.87 147.742 270.105 148.156 C 273.423 148.654 278.068 149.567 280.391 150.23 C 282.713 150.894 285.699 151.557 287.027 151.723 C 288.437 151.806 289.515 152.221 289.515 152.47 C 289.515 152.802 289.93 153.05 290.51 153.05 C 291.008 153.05 291.755 153.299 292.086 153.548 C 292.335 153.797 293.497 154.378 294.575 154.792 C 295.736 155.207 299.303 156.783 302.538 158.359 C 305.856 159.935 308.676 161.428 308.842 161.594 C 309.008 161.76 309.754 162.258 310.584 162.672 C 311.662 163.253 312.741 163.336 315.644 162.838 C 317.717 162.507 321.284 161.926 323.607 161.677 C 326.012 161.345 330.409 160.765 333.395 160.35 C 336.464 159.935 339.118 159.769 339.284 160.018 C 339.45 160.267 339.284 161.013 338.869 161.76 C 338.455 162.424 337.874 163.336 337.459 163.751 C 337.127 164.166 336.547 164.414 336.215 164.414 C 335.883 164.414 335.551 164.746 335.551 164.995 C 335.551 165.327 333.312 167.898 330.574 170.635 C 327.837 173.456 324.187 177.354 322.363 179.345 C 320.538 181.336 319.045 182.995 319.045 183.078 C 319.045 183.161 316.39 185.981 313.072 189.382 C 309.754 192.783 305.856 196.93 304.363 198.672 C 302.953 200.331 301.211 202.239 300.63 202.737 C 299.552 203.649 299.469 204.313 299.635 210.7 C 299.801 214.764 300.132 217.999 300.547 218.414 C 301.045 218.994 301.377 218.829 302.123 217.584 C 302.704 216.755 303.45 215.511 303.865 214.93 C 304.28 214.349 305.109 213.188 305.856 212.359 C 306.519 211.529 309.091 208.211 311.496 204.893 C 313.902 201.575 316.059 198.755 316.224 198.672 C 316.39 198.506 317.22 197.428 317.966 196.35 C 318.796 195.271 319.874 193.944 320.289 193.529 C 320.704 193.032 322.197 190.958 323.607 188.967 C 325.017 186.893 326.759 184.571 327.422 183.824 C 328.169 183.078 329.164 181.834 329.745 181.087 C 330.409 180.258 331.072 179.926 331.57 180.092 C 332.068 180.34 333.727 181.999 335.303 183.907 C 336.879 185.732 338.372 187.557 338.703 187.972 C 339.035 188.386 339.948 189.631 340.694 190.792 C 341.524 191.953 342.353 192.949 342.602 192.949 C 342.768 192.949 343.017 193.197 343.017 193.529 C 343.017 193.778 344.012 195.686 345.256 197.594 C 346.584 199.584 347.911 201.907 348.242 202.737 C 348.657 203.649 349.155 204.313 349.404 204.313 C 349.653 204.313 349.819 204.81 349.819 205.474 C 349.819 206.054 350.067 206.635 350.399 206.635 C 350.731 206.635 350.98 207.05 350.98 207.63 C 350.98 208.128 351.477 209.455 352.058 210.617 C 352.639 211.695 353.634 214.018 354.298 215.759 C 354.961 217.418 355.542 219.16 355.542 219.575 C 355.542 219.99 355.791 220.239 356.123 220.239 C 356.371 220.239 356.62 220.819 356.703 221.566 C 356.703 222.229 357.284 224.552 357.947 226.626 C 358.86 229.363 359.855 230.939 361.514 232.432 C 362.758 233.593 363.92 234.506 364.086 234.506 C 364.252 234.506 365.164 235.252 366.159 236.082 C 367.155 236.911 369.809 239.068 372.049 240.81 C 374.288 242.469 376.777 244.46 377.606 245.206 C 378.436 245.87 379.431 246.45 379.846 246.45 C 380.261 246.45 380.675 246.948 380.758 247.446 C 380.924 248.441 378.519 248.524 339.948 248.939 C 317.303 249.188 297.146 249.437 295.073 249.354 C 292.916 249.354 291.091 249.602 290.925 249.934 C 290.759 250.183 291.34 250.93 292.169 251.427 C 292.999 252.008 295.155 253.75 296.814 255.326 C 298.473 256.902 300.547 259.141 302.87 262.625 L 306.602 262.211 C 308.593 262.045 311.911 261.63 313.985 261.298 C 315.976 261.049 319.874 260.469 322.528 260.137 C 325.183 259.805 329.164 259.307 331.321 258.976 C 333.478 258.727 337.21 258.312 339.533 258.063 C 341.773 257.814 343.763 257.4 343.929 257.151 C 344.012 256.902 346.169 256.736 348.657 256.736 C 351.229 256.736 353.219 256.57 353.219 256.321 C 353.219 256.072 355.293 255.824 362.344 255.575 L 362.344 257.565 C 362.344 258.644 362.095 261.298 361.846 263.455 C 361.514 265.528 361.017 269.842 360.602 272.994 C 360.27 276.063 359.523 280.044 359.109 281.786 C 358.611 283.528 358.03 285.851 357.782 286.929 C 357.533 288.008 357.118 289.666 356.786 290.662 C 356.454 291.574 355.542 294.146 354.712 296.302 C 353.8 298.542 352.141 302.524 348.574 309.989 L 349.736 318.284 C 350.316 322.763 351.146 328.652 351.477 331.39 C 351.809 334.044 352.058 337.445 352.058 338.855 C 352.141 341.343 351.975 341.592 350.98 341.343 C 350.316 341.177 349.819 340.68 349.819 340.348 C 349.819 339.933 348.989 338.855 347.994 337.86 C 346.998 336.864 338.04 327.823 328.169 317.786 C 318.298 307.666 310.086 299.04 309.837 298.542 C 309.589 298.127 309.091 297.712 308.676 297.795 C 308.344 297.795 307.681 297.132 307.266 296.302 C 306.851 295.556 306.188 294.726 305.69 294.643 C 305.275 294.477 304.446 294.643 303.948 295.058 C 303.45 295.39 303.119 296.219 303.119 296.717 C 303.119 297.298 302.953 297.712 302.704 297.712 C 302.455 297.712 301.874 298.625 301.294 299.703 C 300.713 300.865 299.884 301.86 299.469 302.026 C 298.971 302.192 298.639 302.772 298.639 303.27 C 298.639 303.851 299.303 304.846 300.049 305.593 C 300.796 306.256 301.625 306.837 301.874 306.837 C 302.123 306.837 303.284 307.749 304.529 308.911 C 305.856 310.072 307.764 311.648 308.842 312.477 C 309.92 313.307 310.999 314.219 311.165 314.551 C 311.413 314.883 312.658 315.878 314.068 316.791 C 315.395 317.786 316.888 318.864 317.386 319.362 C 317.883 319.777 319.128 320.772 320.206 321.602 C 321.284 322.431 322.611 323.509 323.109 324.09 C 323.524 324.588 324.187 325.003 324.519 325.003 C 324.768 325.003 326.676 326.496 328.667 328.32 C 331.321 330.726 332.151 331.887 331.819 332.468 C 331.57 332.966 330.906 333.629 330.326 334.044 C 329.828 334.459 329.33 335.039 329.33 335.371 C 329.33 335.62 328.916 336.366 328.335 336.864 C 327.837 337.445 327.257 337.86 327.091 337.777 C 326.925 337.694 325.763 338.606 324.436 339.767 C 323.192 340.929 321.035 342.753 319.625 343.832 C 318.215 344.91 317.054 346.071 316.971 346.32 C 316.888 346.486 316.473 346.735 316.059 346.735 C 315.727 346.735 314.897 347.15 314.234 347.73 C 313.653 348.228 312.409 349.141 311.496 349.555 C 310.667 350.053 309.92 350.634 309.92 350.882 C 310.003 351.131 309.754 351.297 309.423 351.297 C 309.091 351.297 307.764 351.961 306.436 352.873 C 305.109 353.703 302.621 355.113 300.879 355.942 C 299.137 356.772 296.814 357.85 295.736 358.348 C 294.658 358.845 292.086 359.758 290.013 360.422 C 288.022 361.002 285.782 361.583 285.119 361.666 C 284.372 361.749 283.46 362.412 283.128 363.159 C 282.713 363.905 281.386 365.564 280.225 366.891 C 279.063 368.136 278.068 369.546 278.068 369.961 C 278.068 370.292 277.902 370.624 277.653 370.624 C 277.405 370.624 276.824 371.371 276.326 372.2 C 275.829 373.113 274.418 374.772 273.34 376.099 C 272.179 377.343 271.266 378.67 271.266 379.085 C 271.266 379.417 271.1 379.748 270.852 379.748 C 270.603 379.748 270.022 380.412 269.524 381.325 C 269.11 382.154 268.363 383.149 267.865 383.564 C 267.368 383.896 266.704 384.062 266.289 383.979 C 265.709 383.813 265.543 377.011 265.543 352.707 C 265.543 328.32 265.46 321.602 264.879 321.436 C 264.465 321.353 262.142 321.519 259.571 321.685 C 257.082 321.933 254.594 322.182 254.013 322.182 C 253.267 322.265 253.101 322.514 253.432 323.509 C 253.598 324.256 253.93 326.496 254.262 328.486 C 254.511 330.56 255.008 334.127 255.34 336.449 C 255.672 338.855 256.087 341.924 256.253 343.334 C 256.419 344.744 256.916 348.311 257.414 351.297 C 257.912 354.283 258.409 358.845 258.99 366.145 L 256.17 366.062 C 254.594 366.062 250.612 365.73 247.377 365.481 C 244.059 365.233 239.746 364.652 237.672 364.32 C 235.681 363.988 232.198 363.242 230.041 362.578 C 227.801 361.915 223.737 360.67 220.917 359.758 C 218.096 358.763 214.115 357.269 212.041 356.274 C 210.05 355.279 207.147 353.703 205.654 352.873 C 203.746 351.712 202.17 351.297 200.262 351.297 C 198.769 351.297 196.115 351.546 194.456 351.878 C 192.714 352.127 188.982 352.707 186.161 353.039 C 183.341 353.371 179.857 353.869 178.447 354.117 C 177.037 354.366 175.627 354.449 175.212 354.366 C 174.797 354.2 174.466 353.869 174.466 353.537 C 174.466 353.288 177.866 349.555 182.014 345.325 C 186.161 341.177 194.622 332.634 200.843 326.413 C 206.981 320.192 212.041 314.8 212.041 314.385 C 212.041 313.97 211.295 313.722 209.967 313.722 C 208.723 313.722 207.479 313.39 207.064 312.975 C 206.65 312.56 206.401 310.818 206.401 308.413 C 206.401 306.256 206.152 304.597 205.82 304.597 C 205.488 304.597 204.659 305.51 203.995 306.754 C 203.249 307.915 201.756 310.155 200.594 311.731 C 199.35 313.224 198.438 314.883 198.438 315.298 C 198.438 315.629 198.189 316.044 197.94 316.127 C 197.691 316.21 196.613 317.371 195.534 318.781 C 194.456 320.192 193.461 321.519 193.295 321.685 C 193.046 321.85 191.802 323.592 190.392 325.666 C 188.982 327.657 187.488 329.731 187.074 330.228 C 186.659 330.643 185.912 331.804 185.415 332.634 C 184.917 333.463 184.253 334.21 184.005 334.21 C 183.839 334.21 183.756 334.459 183.922 334.79 C 184.088 335.122 183.59 335.288 182.76 335.205 C 182.014 335.122 181.433 334.956 181.516 334.873 C 181.599 334.79 180.687 333.795 179.608 332.634 C 178.53 331.39 176.705 329.399 175.627 328.155 C 174.548 326.91 172.972 325.003 172.226 323.924 C 171.479 322.846 170.484 321.602 170.069 321.27 C 169.737 320.855 169.406 320.274 169.406 319.943 C 169.406 319.611 169.074 319.03 168.659 318.698 C 168.244 318.284 167.166 316.708 166.171 315.132 C 165.258 313.556 163.848 311.067 163.102 309.574 C 162.355 308.081 161.526 306.837 161.277 306.837 C 161.028 306.837 160.862 306.422 160.862 305.841 C 160.862 305.344 160.613 304.597 160.364 304.265 C 160.115 304.017 159.037 301.694 158.125 299.206 C 157.129 296.634 156.3 294.312 156.3 293.897 C 156.3 293.482 156.051 293.15 155.719 293.15 C 155.387 293.15 155.139 292.57 155.139 291.906 C 155.139 291.16 154.807 289.749 154.475 288.588 C 154.143 287.51 153.645 286.183 153.397 285.602 C 153.065 285.104 152.899 283.86 152.899 282.948 C 152.899 281.952 152.65 281.206 152.401 281.206 C 152.235 281.206 151.24 280.542 150.245 279.63 C 149.249 278.8 146.844 276.975 144.936 275.565 C 142.945 274.155 140.623 272.247 139.71 271.418 C 138.798 270.505 137.885 269.842 137.636 269.842 C 137.388 269.842 135.812 268.598 134.07 267.022 C 132.328 265.528 131.084 264.118 131.249 263.952 C 131.415 263.787 136.143 263.538 141.784 263.289 C 147.424 263.123 165.756 262.874 182.429 262.708 C 199.184 262.542 212.954 262.294 213.037 262.128 C 213.119 261.962 213.037 261.547 212.788 261.049 C 212.539 260.635 211.626 259.39 210.631 258.229 C 209.719 257.068 208.391 255.16 207.728 253.999 C 207.064 252.837 206.235 251.925 205.903 252.008 C 205.488 252.091 205.239 252.008 205.322 251.759 C 205.322 251.51 205.322 251.013 205.322 250.598 C 205.239 250.1 204.327 250.017 201.673 250.183 C 199.765 250.349 196.281 250.764 193.958 251.095 C 191.719 251.344 187.986 251.842 185.747 252.174 C 183.507 252.423 179.525 252.92 177.037 253.252 C 174.548 253.584 170.567 254.082 168.244 254.413 C 165.922 254.745 161.94 255.243 159.452 255.575 C 156.88 255.824 153.811 256.238 152.567 256.487 C 150.908 256.736 150.245 256.653 149.913 256.072 C 149.747 255.658 149.913 251.593 150.328 247.031 C 150.742 242.469 151.655 236.331 152.235 233.345 C 152.899 230.441 153.894 226.211 154.475 223.971 C 155.139 221.815 156.3 218.331 157.129 216.257 C 157.959 214.266 159.12 211.612 159.784 210.451 C 160.364 209.289 160.862 207.962 160.862 207.465 C 160.862 206.967 161.111 206.635 161.443 206.635 C 161.691 206.635 161.94 206.054 161.94 205.474 C 161.94 204.81 162.189 204.313 162.438 204.313 C 162.604 204.313 163.433 203.068 164.18 201.575 C 165.424 199.17 165.507 198.506 165.092 194.608 C 164.926 192.285 164.512 188.055 164.18 185.234 C 163.931 182.414 163.516 177.769 163.35 174.866 C 163.102 169.972 163.185 169.64 164.097 170.055 C 164.678 170.387 166.088 171.714 167.332 173.041 C 168.576 174.451 173.055 179.262 177.369 183.824 C 181.682 188.386 187.074 194.11 189.396 196.598 C 191.719 199.087 195.949 203.483 198.852 206.386 C 201.756 209.372 204.078 211.944 204.078 212.193 C 204.078 212.359 205.156 213.686 206.401 215.013 C 207.645 216.34 208.972 217.418 209.387 217.418 C 209.719 217.418 211.709 215.676 213.617 213.603 C 215.608 211.446 217.184 209.455 217.184 209.207 C 217.267 208.875 215.94 207.465 214.281 206.054 C 212.705 204.644 210.797 203.068 210.133 202.654 C 209.47 202.239 208.557 201.409 208.06 200.829 C 207.645 200.248 207.064 199.833 206.815 199.833 C 206.567 199.75 204.659 198.34 202.502 196.598 C 200.428 194.856 198.189 193.032 197.525 192.534 C 196.945 192.036 194.871 190.294 192.963 188.718 C 191.138 187.142 189.479 185.649 189.479 185.4 C 189.396 185.151 188.899 184.986 188.484 184.986 C 187.986 184.986 187.488 184.737 187.488 184.488 C 187.405 184.322 186.078 183.078 184.585 181.834 C 183.092 180.589 181.848 179.262 181.848 178.847 C 181.848 178.433 183.673 176.359 185.912 174.119 C 188.069 171.963 190.06 170.138 190.309 170.138 C 190.558 170.138 191.387 169.64 192.134 168.977 C 192.963 168.396 194.871 166.903 196.447 165.742 C 197.94 164.58 199.931 163.253 200.843 162.755 C 201.673 162.258 205.239 160.433 208.806 158.608 C 212.29 156.783 215.525 155.29 215.94 155.29 C 216.272 155.373 216.686 155.124 216.769 154.875 C 216.852 154.709 218.594 153.88 220.585 153.216 C 222.659 152.553 224.732 151.972 225.147 151.972 C 225.645 151.972 227.387 151.391 229.129 150.645 C 230.87 149.981 233.027 148.654 233.94 147.659 C 234.769 146.746 235.93 145.253 236.428 144.341 C 237.009 143.511 237.589 142.765 237.838 142.765 C 238.087 142.848 238.253 142.516 238.253 142.267 C 238.253 141.935 239.331 140.276 240.658 138.617 C 241.986 136.958 243.727 134.802 244.391 133.889 C 245.138 132.977 246.382 131.318 247.294 130.157 C 248.124 128.995 249.119 128 249.451 128 Z  M 223.654 178.681 C 224.069 180.423 224.732 183.327 225.147 185.234 C 225.562 187.142 226.391 190.709 226.972 193.197 C 227.553 195.686 227.967 198.257 227.967 198.921 C 227.967 199.502 228.382 200.414 228.797 200.746 C 229.294 201.161 230.373 201.326 231.119 201.161 C 231.949 201.078 232.529 200.663 232.529 200.331 C 232.529 199.999 233.359 199.75 234.437 199.75 C 235.433 199.75 236.677 199.419 237.257 199.004 C 237.755 198.672 238.17 198.091 238.17 197.843 C 238.087 197.594 236.843 195.354 235.267 193.032 C 233.691 190.626 232.115 188.635 231.866 188.552 C 231.617 188.469 231.451 188.055 231.451 187.64 C 231.451 187.308 230.953 186.479 230.456 185.815 C 229.875 185.151 228.797 183.493 227.967 181.999 C 227.221 180.506 226.391 179.262 226.142 179.262 C 225.894 179.262 225.811 179.013 225.811 178.599 C 225.894 178.267 225.313 177.271 224.483 176.276 C 223.737 175.364 222.99 174.866 222.99 175.115 C 222.907 175.364 223.239 176.94 223.654 178.681 Z  M 284.953 182.995 C 284.953 183.161 284.123 184.073 283.211 185.069 C 282.298 186.147 281.552 187.308 281.552 187.64 C 281.552 188.055 281.303 188.469 281.054 188.552 C 280.888 188.635 280.059 189.548 279.229 190.626 C 278.483 191.787 277.073 193.695 276.16 195.022 C 275.248 196.35 274.584 197.594 274.584 197.843 C 274.667 198.091 275.911 198.672 277.405 199.087 C 278.898 199.502 280.805 200.082 281.635 200.331 C 282.796 200.746 283.46 200.746 284.04 200.165 C 284.455 199.833 285.119 197.843 285.451 195.769 C 285.865 193.778 286.363 191.207 286.695 190.045 C 286.944 188.967 287.69 185.981 288.354 183.41 C 288.934 180.838 289.515 178.35 289.515 177.852 C 289.515 177.354 289.266 177.023 289.017 177.023 C 288.768 177.023 287.773 178.267 286.778 179.843 C 285.782 181.419 284.953 182.829 284.953 182.995 Z  M 326.51 224.22 C 325.349 224.552 323.109 225.05 321.367 225.381 C 319.625 225.713 317.054 226.294 315.644 226.626 C 314.234 226.957 312.575 227.455 311.994 227.704 C 311.33 227.953 309.837 228.285 308.593 228.533 C 307.266 228.699 305.358 228.948 304.28 229.197 C 303.201 229.363 301.957 229.778 301.543 230.027 C 301.045 230.358 300.879 232.432 300.879 236.828 C 300.879 240.229 300.962 243.049 301.128 243.049 C 301.294 243.049 302.621 242.303 304.031 241.391 C 305.441 240.395 306.851 239.649 307.1 239.649 C 307.432 239.649 307.681 239.4 307.681 239.068 C 307.681 238.736 307.93 238.487 308.261 238.487 C 308.593 238.487 310.418 237.492 312.409 236.248 C 314.317 235.003 316.307 233.759 316.639 233.427 C 317.054 233.096 317.8 232.847 318.215 232.847 C 318.713 232.847 319.376 232.349 319.791 231.851 C 320.206 231.271 320.87 230.69 321.367 230.607 C 321.865 230.524 323.275 229.695 324.602 228.782 C 325.929 227.87 327.174 227.123 327.339 227.123 C 327.505 227.123 328.418 226.543 329.496 225.796 C 330.492 225.133 331.404 224.386 331.487 224.137 C 331.57 223.888 332.151 223.722 332.731 223.722 C 333.395 223.722 333.975 223.474 334.141 223.142 C 334.307 222.81 333.975 222.561 333.478 222.644 C 332.897 222.644 331.57 222.893 330.492 223.225 C 329.413 223.557 327.588 223.971 326.51 224.22 Z  M 179.94 224.801 C 180.687 225.464 181.599 225.962 181.931 225.962 C 182.18 225.962 182.429 226.128 182.429 226.377 C 182.429 226.626 183.175 227.206 184.17 227.704 C 185.166 228.119 185.912 228.699 185.912 228.948 C 185.912 229.197 186.41 229.529 186.991 229.695 C 187.654 229.861 188.484 230.275 188.899 230.69 C 189.313 231.022 190.475 231.934 191.47 232.681 C 192.465 233.345 193.627 233.925 193.958 233.925 C 194.373 233.925 195.037 234.423 195.451 235.086 C 195.783 235.75 196.447 236.248 196.862 236.248 C 197.193 236.248 198.604 237.077 199.848 238.238 C 201.092 239.317 202.336 240.229 202.502 240.229 C 202.751 240.229 203 239.98 203 239.814 C 203 239.566 203.166 238.57 203.249 237.658 C 203.332 236.745 203.663 234.174 203.912 232.1 L 204.41 228.202 C 201.258 228.202 199.267 227.87 197.857 227.372 C 196.447 226.875 193.958 226.211 192.465 225.879 C 190.889 225.547 188.567 225.05 187.323 224.718 C 186.078 224.469 183.839 223.971 182.429 223.805 C 181.101 223.557 179.608 223.391 179.194 223.557 C 178.779 223.64 179.028 224.137 179.94 224.801 Z  M 200.843 274.985 C 200.428 274.985 200.014 275.316 199.848 275.648 C 199.682 276.063 198.521 276.892 197.276 277.556 C 196.032 278.137 194.954 278.883 194.954 279.049 C 194.954 279.298 194.705 279.547 194.456 279.547 C 194.124 279.547 192.216 280.625 190.309 281.869 C 188.318 283.197 186.659 284.524 186.576 284.773 C 186.493 285.021 186.161 285.187 185.912 285.187 C 185.581 285.187 183.673 286.266 181.599 287.593 C 179.111 289.252 178.115 290.164 178.613 290.496 C 179.028 290.662 180.106 290.662 181.018 290.33 C 182.014 290.081 184.005 289.584 185.581 289.252 C 187.157 288.92 191.304 288.008 194.705 287.178 C 198.189 286.349 201.507 285.519 202.087 285.436 C 202.751 285.353 203.912 285.27 204.825 285.27 C 206.318 285.187 206.401 285.104 206.401 282.118 C 206.401 280.376 206.152 278.8 205.82 278.634 C 205.488 278.468 205.322 277.307 205.322 275.98 C 205.405 274.653 205.737 273.326 206.069 273.077 C 206.401 272.911 205.986 272.662 205.156 272.662 C 204.327 272.662 203.249 273.16 202.585 273.823 C 202.004 274.487 201.258 274.985 200.843 274.985 Z  M 306.934 275.399 C 307.183 276.892 307.349 278.717 307.349 279.547 C 307.349 280.293 307.183 281.869 306.934 282.948 C 306.519 284.855 306.519 284.938 308.344 285.27 C 309.423 285.519 311.413 286.017 312.824 286.349 C 314.234 286.68 316.639 287.261 318.215 287.593 C 319.791 287.842 322.197 288.339 323.607 288.588 C 325.017 288.837 328.003 289.501 330.16 289.998 C 332.399 290.496 334.39 290.911 334.556 290.911 C 334.805 290.911 335.054 290.662 335.054 290.33 C 335.054 289.998 334.639 289.749 334.141 289.749 C 333.727 289.749 331.736 288.671 329.745 287.427 C 327.837 286.1 326.095 284.773 326.095 284.524 C 326.012 284.275 325.681 284.109 325.349 284.109 C 325.017 284.109 323.275 283.031 321.367 281.786 C 319.459 280.542 317.717 279.547 317.386 279.547 C 317.054 279.547 316.805 279.298 316.805 279.049 C 316.805 278.883 316.059 278.303 315.063 277.805 C 314.151 277.307 313.321 276.727 313.404 276.561 C 313.404 276.312 312.906 276.063 312.243 276.063 C 311.662 276.063 311.082 275.897 311.082 275.648 C 311.082 275.399 310.003 274.57 308.759 273.906 L 306.602 272.662 L 306.934 275.399 Z  M 281.552 315.961 C 280.888 315.961 279.395 316.542 278.234 317.205 C 277.073 317.869 275.994 318.533 275.829 318.615 C 275.663 318.698 277.156 321.187 279.229 324.09 C 281.22 326.993 283.045 329.399 283.294 329.482 C 283.543 329.565 283.792 329.979 283.792 330.311 C 283.792 330.726 284.206 331.555 284.787 332.219 C 285.368 332.8 286.197 334.044 286.612 334.956 C 287.11 335.786 287.773 336.449 288.022 336.284 C 288.354 336.201 288.52 335.205 288.437 334.127 C 288.354 333.049 288.022 331.97 287.773 331.638 C 287.524 331.307 287.192 330.145 287.027 329.067 C 286.861 327.989 286.446 325.832 286.114 324.256 C 285.865 322.68 285.368 320.192 285.202 318.781 C 284.953 317.371 284.372 315.961 283.957 315.546 C 283.543 315.132 283.128 314.8 282.962 314.8 C 282.796 314.8 282.63 315.049 282.63 315.381 C 282.63 315.712 282.133 315.961 281.552 315.961 Z  M 226.64 320.772 C 226.391 322.099 226.142 324.007 225.977 325.085 C 225.811 326.164 225.396 328.735 224.898 330.809 C 224.483 332.8 224.235 335.039 224.318 335.786 C 224.483 336.449 224.815 336.947 225.147 336.781 C 225.479 336.615 225.728 335.952 225.728 335.371 C 225.728 334.707 225.894 334.127 226.142 334.044 C 226.391 333.961 227.138 333.049 227.884 332.053 C 228.548 331.058 229.129 329.814 229.129 329.316 C 229.129 328.901 229.377 328.486 229.543 328.486 C 229.792 328.486 230.622 327.574 231.368 326.33 C 232.032 325.168 232.612 324.007 232.612 323.841 C 232.612 323.592 233.11 322.846 233.691 322.265 C 234.354 321.602 234.935 320.855 234.935 320.606 C 235.018 320.357 233.608 319.528 231.866 318.864 C 230.041 318.201 228.548 317.703 228.465 317.703 C 228.382 317.703 228.05 317.869 227.635 318.118 C 227.304 318.367 226.889 319.528 226.64 320.772 Z  M 249.036 207.713 C 246.714 207.962 243.81 208.46 242.483 208.792 C 241.239 209.124 239.331 209.621 238.253 209.87 C 237.175 210.202 234.852 211.031 233.11 211.778 C 231.368 212.607 228.299 214.349 226.308 215.759 C 224.235 217.087 222.078 218.746 221.414 219.409 C 220.834 220.073 219.672 221.483 218.926 222.561 C 218.179 223.64 217.35 224.635 217.184 224.801 C 217.018 224.967 216.354 226.128 215.774 227.372 C 215.193 228.616 214.447 230.856 213.949 232.266 C 213.534 233.676 213.202 236.497 213.202 238.487 C 213.202 240.644 213.617 243.381 214.198 245.04 C 214.778 246.616 215.857 248.773 216.603 249.934 C 217.35 251.013 219.009 252.837 220.17 253.999 C 221.331 255.16 222.493 256.155 222.742 256.155 C 222.99 256.155 223.82 256.736 224.649 257.4 C 225.396 258.146 226.64 259.059 227.304 259.473 C 228.05 259.805 229.129 260.469 229.875 260.883 C 230.539 261.215 231.368 261.796 231.7 262.128 C 232.032 262.459 233.857 263.455 235.681 264.367 C 237.589 265.28 239.248 266.192 239.414 266.358 C 239.58 266.524 241.488 267.519 243.645 268.598 C 245.884 269.676 248.29 270.837 249.036 271.169 C 249.866 271.501 250.612 271.916 250.778 272.081 C 250.944 272.247 252.686 273.243 254.76 274.321 C 256.833 275.399 259.571 276.975 260.898 277.888 C 262.225 278.8 263.469 279.547 263.552 279.547 C 263.718 279.547 264.713 280.376 265.709 281.372 C 266.787 282.367 268.031 284.192 268.612 285.353 C 269.11 286.514 269.524 288.837 269.524 290.496 C 269.524 292.155 269.276 294.395 269.027 295.639 C 268.695 296.8 267.534 298.625 266.289 299.786 C 265.128 300.865 263.386 302.109 262.474 302.524 C 261.478 302.938 259.819 303.519 258.741 303.934 C 257.663 304.265 255.589 304.597 254.179 304.597 C 252.769 304.597 250.363 304.265 248.787 303.851 C 247.211 303.436 244.64 302.358 243.064 301.528 C 241.488 300.699 239.58 299.454 238.668 298.708 C 237.838 298.044 235.93 296.468 234.354 295.141 C 232.861 293.897 230.622 291.408 229.377 289.501 C 228.133 287.676 226.889 285.436 226.474 284.69 C 226.142 283.86 225.479 282.284 224.981 281.206 C 224.566 280.127 223.986 278.303 223.737 277.224 C 223.488 276.146 222.907 274.902 222.41 274.57 C 221.912 274.155 220.585 273.823 219.507 273.823 C 218.345 273.823 217.101 274.072 216.603 274.404 C 215.857 274.819 215.774 276.975 215.94 288.754 C 216.023 296.385 216.272 303.021 216.354 303.602 C 216.52 304.265 217.35 304.68 219.009 304.846 C 220.336 304.929 222.244 305.178 223.156 305.427 C 224.069 305.593 225.396 306.007 225.977 306.256 C 226.64 306.588 230.373 307.832 234.271 309.076 C 238.17 310.321 243.727 311.648 246.548 311.98 C 250.612 312.477 252.935 312.394 258.16 311.731 C 261.81 311.233 266.041 310.487 267.534 309.989 C 269.11 309.574 271.598 308.828 273.008 308.247 C 274.418 307.749 276.907 306.671 278.649 305.841 C 280.391 305.012 282.962 303.602 284.372 302.606 C 285.782 301.694 288.271 299.454 289.93 297.712 C 291.506 296.054 293.662 293.067 294.575 291.16 C 295.487 289.335 296.483 286.266 296.897 284.358 C 297.229 282.45 297.395 279.547 297.312 277.805 C 297.146 276.063 296.814 273.906 296.566 272.994 C 296.4 271.998 295.902 270.588 295.57 269.676 C 295.155 268.846 294.741 268.1 294.492 268.1 C 294.243 268.1 294.077 267.768 294.077 267.436 C 294.077 267.022 292.916 265.446 291.506 263.952 C 290.096 262.542 288.686 261.298 288.52 261.298 C 288.271 261.298 287.524 260.883 286.944 260.303 C 286.28 259.722 284.87 258.644 283.792 257.897 C 282.713 257.151 281.635 256.321 281.552 256.155 C 281.386 255.989 280.64 255.575 279.976 255.16 C 279.229 254.745 278.068 254.165 277.405 253.75 C 276.658 253.335 275.994 252.92 275.829 252.671 C 275.663 252.506 271.018 250.1 265.543 247.363 C 260.068 244.625 253.598 241.225 251.11 239.732 C 248.704 238.238 245.967 236.414 245.055 235.501 C 244.142 234.672 242.815 232.764 242.151 231.271 C 241.156 229.031 241.073 227.953 241.322 225.381 C 241.571 223.557 242.234 221.566 242.981 220.57 C 243.645 219.658 245.221 218.248 246.548 217.418 C 247.792 216.589 249.534 215.594 250.529 215.179 C 251.525 214.764 254.428 214.515 257.912 214.515 C 262.142 214.515 264.382 214.847 266.704 215.676 C 268.446 216.34 269.939 217.087 270.022 217.418 C 270.105 217.75 270.437 217.999 270.852 217.999 C 271.266 217.999 272.842 219.326 274.418 220.985 C 276.077 222.644 278.151 225.299 279.063 226.792 C 280.059 228.368 281.552 231.354 282.298 233.345 C 283.128 235.418 283.792 237.409 283.792 237.824 C 283.792 238.156 284.206 238.653 284.621 238.819 C 285.119 238.985 286.446 239.068 287.607 239.068 C 288.768 239.068 290.179 238.736 290.759 238.404 C 291.589 237.741 291.672 237.16 291.174 233.925 C 290.842 231.934 290.427 226.294 290.179 221.4 L 289.764 212.607 C 285.782 211.612 282.05 210.7 278.981 210.036 C 275.829 209.372 272.676 208.543 272.013 208.294 C 271.266 207.962 266.787 207.63 262.059 207.548 C 257.248 207.382 251.442 207.465 249.036 207.713 Z " fill-rule="evenodd" fill="rgb(255,255,255)"/></g></svg>