<?xml version="1.0" encoding="UTF-8" standalone="no"?><!-- Generator: Gravit.io --><svg xmlns="http://www.w3.org/2000/svg" xmlns:xlink="http://www.w3.org/1999/xlink" style="isolation:isolate" viewBox="0 0 512 512" width="512pt" height="512pt"><defs><clipPath id="_clipPath_LnDietOyRKtP2v5WVQkgHZmWMrvxVjoT"><rect width="512" height="512"/></clipPath></defs><g clip-path="url(#_clipPath_LnDietOyRKtP2v5WVQkgHZmWMrvxVjoT)"><rect x="0" y="0" width="512" height="512" transform="matrix(1,0,0,1,0,0)" fill="rgb(239,191,4)"/><path d=" M 225.271 131.737 L 228.144 143.374 C 216.82 146.172 205.983 150.659 195.996 156.684 L 189.85 146.392 C 200.843 139.735 212.787 134.793 225.271 131.737 L 225.271 131.737 L 225.271 131.737 Z  M 286.729 131.737 L 283.856 143.374 C 295.18 146.172 306.017 150.659 316.004 156.684 L 322.223 146.392 C 311.201 139.741 299.233 134.799 286.729 131.737 Z  M 146.392 189.814 C 139.741 200.823 134.8 212.778 131.737 225.271 L 143.374 228.144 C 146.172 216.82 150.659 205.983 156.684 195.996 L 146.392 189.814 L 146.392 189.814 Z  M 139.992 256 C 139.991 250.181 140.429 244.37 141.301 238.617 L 129.446 236.799 C 127.518 249.515 127.518 262.449 129.446 275.165 L 141.301 273.383 C 140.43 267.63 139.992 261.819 139.992 256 L 139.992 256 L 139.992 256 Z  M 322.15 365.571 L 316.004 355.316 C 306.033 361.346 295.206 365.834 283.893 368.626 L 286.766 380.263 C 299.234 377.178 311.163 372.224 322.15 365.571 L 322.15 365.571 L 322.15 365.571 Z  M 372.008 256 C 372.008 261.819 371.57 267.63 370.699 273.383 L 382.554 275.165 C 384.482 262.449 384.482 249.515 382.554 236.799 L 370.699 238.617 C 371.571 244.37 372.009 250.181 372.008 256 L 372.008 256 L 372.008 256 Z  M 380.263 286.693 L 368.626 283.82 C 365.834 295.157 361.347 306.007 355.316 316.004 L 365.608 322.186 C 372.265 311.167 377.207 299.199 380.263 286.693 L 380.263 286.693 L 380.263 286.693 Z  M 273.383 370.699 C 261.86 372.445 250.14 372.445 238.617 370.699 L 236.835 382.554 C 249.539 384.482 262.461 384.482 275.165 382.554 L 273.383 370.699 L 273.383 370.699 Z  M 349.388 324.805 C 342.476 334.178 334.188 342.454 324.805 349.352 L 331.933 359.025 C 342.268 351.417 351.412 342.31 359.062 332.005 L 349.388 324.805 L 349.388 324.805 Z  M 324.805 162.612 C 334.189 169.523 342.477 177.811 349.388 187.195 L 359.062 179.995 C 351.439 169.681 342.319 160.561 332.005 152.938 L 324.805 162.612 L 324.805 162.612 Z  M 162.612 187.195 C 169.523 177.811 177.811 169.523 187.195 162.612 L 179.995 152.938 C 169.681 160.561 160.561 169.681 152.938 179.995 L 162.612 187.195 L 162.612 187.195 Z  M 365.608 189.814 L 355.316 195.996 C 361.346 205.967 365.834 216.794 368.626 228.107 L 380.263 225.234 C 377.2 212.753 372.258 200.81 365.608 189.814 L 365.608 189.814 L 365.608 189.814 Z  M 238.617 141.301 C 250.14 139.555 261.86 139.555 273.383 141.301 L 275.165 129.446 C 262.461 127.518 249.539 127.518 236.835 129.446 L 238.617 141.301 L 238.617 141.301 Z  M 168.758 362.226 L 143.992 367.971 L 149.774 343.206 L 138.101 340.479 L 132.319 365.244 C 131.588 368.345 132.12 371.609 133.798 374.317 C 135.477 377.026 138.163 378.955 141.265 379.681 C 143.061 380.081 144.923 380.081 146.72 379.681 L 171.485 373.972 L 168.758 362.226 L 168.758 362.226 Z  M 140.574 329.787 L 152.284 332.478 L 156.284 315.313 C 150.442 305.514 146.091 294.9 143.374 283.82 L 131.737 286.693 C 134.354 297.299 138.314 307.528 143.519 317.132 L 140.574 329.787 L 140.574 329.787 Z  M 196.578 355.752 L 179.413 359.753 L 182.14 371.463 L 194.759 368.517 C 204.356 373.738 214.587 377.699 225.198 380.3 L 228.071 368.662 C 217.025 365.91 206.449 361.534 196.687 355.68 L 196.578 355.752 L 196.578 355.752 Z  M 256 151.993 C 198.541 152.029 152.029 198.614 152.029 256.036 C 152.061 275.595 157.593 294.75 167.994 311.313 L 157.993 354.007 L 200.651 344.006 C 249.272 374.59 313.495 360.007 344.079 311.422 C 374.663 262.837 360.116 198.614 311.531 167.994 C 294.898 157.534 275.648 151.987 256 151.993 Z " fill="rgb(237,29,36)"/></g></svg>