<?xml version="1.0" encoding="UTF-8" standalone="no"?><!-- Generator: Gravit.io --><svg xmlns="http://www.w3.org/2000/svg" xmlns:xlink="http://www.w3.org/1999/xlink" style="isolation:isolate" viewBox="0 0 512 512" width="512pt" height="512pt"><defs><clipPath id="_clipPath_eVtXRN0tYt9rz8WViQHuJT8V567EQFyJ"><rect width="512" height="512"/></clipPath></defs><g clip-path="url(#_clipPath_eVtXRN0tYt9rz8WViQHuJT8V567EQFyJ)"><path d="M 477.714 383.995 L 256.005 512 L 34.286 383.995 L 34.286 127.985 L 256.005 0 L 477.714 127.985 L 477.714 383.995 Z" fill-rule="evenodd" fill="rgb(0,0,128)" /><path d=" M 246.963 379.123 L 238.007 374.249 L 237.987 289.626 L 237.966 205.003 L 231.784 202.302 C 228.385 200.816 225.591 199.564 225.577 199.518 C 225.562 199.473 225.539 198.973 225.525 198.407 L 225.501 197.378 L 240.73 197.378 L 255.96 197.378 L 255.96 290.69 C 255.96 342.012 255.95 384.001 255.939 384 C 255.928 383.999 251.889 381.804 246.963 379.123 L 246.963 379.123 Z  M 220.62 364.72 C 219.577 364.148 215.583 361.972 211.744 359.885 L 204.765 356.091 L 204.725 280.574 C 204.702 239.039 204.665 205.038 204.642 205.015 C 204.619 204.992 201.823 203.759 198.43 202.276 L 192.259 199.579 L 192.237 198.479 L 192.214 197.378 L 207.426 197.378 L 222.637 197.378 L 222.637 281.573 C 222.637 327.88 222.609 365.766 222.576 365.763 C 222.543 365.761 221.663 365.291 220.62 364.72 L 220.62 364.72 Z  M 187.741 346.755 C 186.897 346.289 182.876 344.089 178.805 341.867 L 171.402 337.825 L 171.402 267.602 L 171.402 197.378 L 180.358 197.378 L 189.314 197.378 L 189.314 272.496 C 189.314 313.811 189.305 347.611 189.294 347.607 C 189.283 347.604 188.584 347.22 187.741 346.755 L 187.741 346.755 Z  M 271.532 286.463 L 271.532 197.459 L 275.27 197.459 C 277.327 197.459 280.758 197.483 282.895 197.513 L 286.781 197.566 L 286.778 270.068 L 286.775 342.57 L 283.755 345.919 L 280.735 349.268 L 280.732 349.973 C 280.731 350.362 280.753 350.679 280.781 350.679 C 280.825 350.679 283.687 349.206 286.822 347.569 C 287.354 347.291 290.948 345.422 294.809 343.416 C 298.67 341.41 301.892 339.735 301.97 339.694 C 302.104 339.624 302.111 340.103 302.108 349.244 L 302.105 358.869 L 300.071 359.969 C 298.147 361.011 276.371 372.87 273.267 374.567 C 272.468 375.004 271.751 375.385 271.673 375.414 C 271.539 375.464 271.532 371.195 271.532 286.463 L 271.532 286.463 Z  M 310.745 275.715 L 310.745 197.378 L 325.671 197.378 L 340.598 197.378 L 340.598 215.925 L 340.598 234.471 L 339.973 234.759 C 339.629 234.917 337.723 235.848 335.739 236.827 C 333.754 237.807 332.111 238.608 332.088 238.608 C 332.065 238.608 332.036 233.008 332.025 226.163 L 332.005 213.717 L 328.132 213.717 L 324.259 213.717 L 324.239 268.421 L 324.218 323.126 L 321.238 326.474 L 318.257 329.822 L 318.253 330.49 L 318.248 331.158 L 318.51 331.025 C 318.655 330.951 319.916 330.3 321.314 329.577 C 326.017 327.145 327.154 326.559 329.552 325.327 L 331.94 324.1 L 331.993 322.41 C 332.022 321.48 332.045 316.776 332.045 311.957 L 332.045 303.196 L 336.322 301.085 L 340.598 298.974 L 340.598 318.395 L 340.598 337.816 L 328.596 344.345 C 321.995 347.935 315.278 351.588 313.669 352.462 L 310.745 354.051 L 310.745 275.715 Z  M 174.407 183.964 L 172.209 181.765 L 172.209 168.411 L 172.209 155.058 L 174.448 152.82 L 176.688 150.581 L 182.981 150.581 L 189.275 150.581 L 191.513 152.821 L 193.751 155.06 L 193.751 157.905 L 193.751 160.749 L 190.181 160.728 L 186.611 160.707 L 186.589 158.872 L 186.568 157.036 L 182.979 157.036 L 179.39 157.036 L 179.39 168.413 L 179.39 179.789 L 182.98 179.789 L 186.571 179.789 L 186.571 177.732 L 186.571 175.674 L 187.922 175.674 C 188.666 175.674 190.281 175.65 191.513 175.621 L 193.751 175.568 L 193.751 178.67 L 193.751 181.772 L 191.547 183.968 L 189.342 186.163 L 182.974 186.163 L 176.605 186.163 L 174.407 183.964 Z  M 198.835 168.372 L 198.835 150.581 L 207.368 150.581 L 215.901 150.581 L 218.106 152.787 L 220.311 154.994 L 220.302 162.006 L 220.292 169.018 L 218.192 171.122 L 216.091 173.225 L 217.074 175.277 C 219.753 180.868 221.949 185.436 222.123 185.781 L 222.318 186.165 L 218.354 186.144 L 214.391 186.123 L 211.736 180.031 C 210.277 176.681 209.047 173.858 209.003 173.758 C 208.925 173.579 208.9 173.576 207.47 173.576 L 206.016 173.576 L 206.016 179.87 L 206.016 186.163 L 202.425 186.163 L 198.835 186.163 L 198.835 168.372 Z  M 212.401 166.34 L 213.197 165.559 L 213.197 161.297 L 213.197 157.036 L 209.606 157.036 L 206.016 157.036 L 206.016 162.079 L 206.016 167.122 L 208.811 167.122 L 211.606 167.122 L 212.401 166.34 Z  M 225.783 168.372 L 225.783 150.58 L 229.354 150.601 L 232.924 150.622 L 232.944 168.392 L 232.965 186.163 L 229.374 186.163 L 225.783 186.163 L 225.783 168.372 Z  M 240.649 183.964 L 238.451 181.765 L 238.451 168.37 L 238.451 154.975 L 240.653 152.778 L 242.855 150.581 L 249.184 150.581 L 255.513 150.581 L 257.753 152.822 L 259.994 155.062 L 259.994 157.905 L 259.994 160.748 L 256.403 160.748 L 252.813 160.748 L 252.813 158.891 L 252.813 157.034 L 249.202 157.056 L 245.591 157.076 L 245.591 168.413 L 245.591 179.749 L 249.182 179.749 L 252.773 179.749 L 252.794 177.724 L 252.816 175.699 L 256.324 175.642 C 258.254 175.61 259.869 175.607 259.913 175.634 C 259.965 175.666 259.994 176.791 259.994 178.738 L 259.994 181.793 L 257.755 183.978 L 255.516 186.163 L 249.181 186.163 L 242.847 186.163 L 240.649 183.964 Z  M 265.077 168.372 L 265.077 150.581 L 268.587 150.581 L 272.096 150.581 L 272.096 157.556 C 272.096 161.392 272.124 164.545 272.157 164.563 C 272.19 164.581 273.715 163.667 275.545 162.533 L 278.873 160.471 L 278.894 155.546 L 278.914 150.622 L 282.464 150.622 L 286.015 150.622 L 286.035 156.591 L 286.056 162.56 L 284.583 164.037 L 283.11 165.513 L 284.583 166.972 L 286.055 168.431 L 286.055 177.297 L 286.055 186.163 L 282.505 186.163 L 278.955 186.163 L 278.955 178.396 L 278.955 170.628 L 278.207 169.884 C 277.795 169.474 277.423 169.139 277.38 169.139 C 277.336 169.139 276.139 169.729 274.719 170.45 L 272.137 171.761 L 272.116 178.962 L 272.096 186.163 L 268.586 186.163 L 265.077 186.163 L 265.077 168.372 Z  M 291.183 184.691 C 291.153 183.881 291.14 175.884 291.154 166.92 L 291.178 150.622 L 301.688 150.601 L 312.197 150.581 L 312.197 153.808 L 312.197 157.036 L 305.258 157.036 L 298.319 157.036 L 298.319 160.869 L 298.319 164.701 L 303.523 164.701 L 308.727 164.701 L 308.727 167.848 L 308.727 170.995 L 303.523 170.995 L 298.319 170.995 L 298.319 175.392 L 298.319 179.789 L 305.258 179.789 L 312.197 179.789 L 312.197 182.976 L 312.197 186.163 L 301.717 186.163 L 291.236 186.163 L 291.183 184.691 Z  M 324.299 171.601 L 324.299 157.038 L 320.245 157.017 L 316.191 156.996 L 316.191 153.809 L 316.191 150.622 L 327.971 150.622 L 339.751 150.622 L 339.751 153.809 L 339.751 156.996 L 335.615 157.017 L 331.48 157.038 L 331.48 171.6 L 331.48 186.163 L 327.89 186.163 L 324.299 186.163 L 324.299 171.601 Z  M 210.171 143.473 C 208.479 143.335 207.351 142.654 206.9 141.498 C 206.743 141.094 206.709 140.829 206.679 139.79 L 206.644 138.559 L 207.003 138.559 C 207.201 138.559 207.749 138.536 208.222 138.507 L 209.082 138.454 L 209.085 139.092 C 209.093 140.547 209.408 141.051 210.421 141.229 C 211.479 141.415 212.33 141.057 212.7 140.268 L 212.914 139.81 L 212.938 134.101 L 212.961 128.393 L 214.329 128.393 L 215.698 128.393 L 215.695 133.98 C 215.692 140.221 215.678 140.418 215.176 141.434 C 214.405 142.995 212.721 143.681 210.171 143.473 L 210.171 143.473 Z  M 225.057 143.476 C 222.32 143.278 220.682 141.883 220.242 139.378 C 220.062 138.351 220.13 132.512 220.33 131.822 C 220.879 129.93 222.094 128.751 224.049 128.216 C 224.934 127.974 227.217 127.954 228.083 128.181 C 230.025 128.689 231.286 129.955 231.728 131.839 C 231.858 132.394 231.875 132.851 231.874 135.735 C 231.872 139.404 231.837 139.722 231.309 140.795 C 230.331 142.781 228.183 143.703 225.057 143.476 Z  M 227.576 140.874 C 228.14 140.597 228.595 140.097 228.809 139.519 C 228.961 139.109 228.971 138.884 228.971 135.695 L 228.971 132.306 L 228.737 131.8 C 228.25 130.746 227.208 130.246 225.719 130.351 C 224.529 130.435 223.784 130.87 223.368 131.724 C 222.992 132.496 222.942 133.074 222.976 136.205 C 223.005 138.834 223.017 139.031 223.182 139.475 C 223.409 140.088 223.683 140.44 224.147 140.712 C 224.732 141.055 225.16 141.14 226.187 141.12 C 227.019 141.103 227.162 141.078 227.576 140.874 L 227.576 140.874 Z  M 303.079 143.477 C 300.911 143.309 299.442 142.279 298.841 140.506 C 298.527 139.576 298.463 138.616 298.501 135.366 C 298.53 132.845 298.557 132.306 298.678 131.862 C 299.23 129.828 300.585 128.579 302.716 128.14 C 303.761 127.924 305.514 127.963 306.494 128.222 C 308.548 128.766 309.768 130.334 309.775 132.439 L 309.777 132.895 L 309.151 132.941 C 308.807 132.967 308.195 133.011 307.792 133.038 L 307.058 133.088 L 307.008 132.555 C 306.906 131.465 306.618 130.978 305.853 130.603 C 305.476 130.419 305.266 130.377 304.572 130.346 C 303.394 130.293 302.744 130.493 302.148 131.089 C 301.803 131.434 301.69 131.62 301.554 132.06 C 301.395 132.575 301.385 132.789 301.385 135.816 C 301.385 138.839 301.395 139.058 301.553 139.569 C 301.863 140.573 302.59 141.087 303.852 141.195 C 304.927 141.286 305.974 140.978 306.553 140.399 C 307.019 139.932 307.214 139.378 307.225 138.489 L 307.235 137.712 L 305.722 137.69 L 304.209 137.668 L 304.209 136.581 L 304.209 135.493 L 306.993 135.493 L 309.777 135.493 L 309.777 139.329 L 309.777 143.164 L 309.033 143.141 L 308.289 143.118 L 308.156 142.53 C 308.083 142.207 308.002 141.921 307.976 141.895 C 307.95 141.87 307.736 142.017 307.501 142.224 C 306.415 143.18 304.877 143.616 303.079 143.477 L 303.079 143.477 Z  M 318.409 143.397 C 316.592 143.174 315.322 142.39 314.695 141.101 C 314.17 140.021 314.184 140.207 314.153 134.021 L 314.124 128.393 L 315.496 128.393 L 316.869 128.393 L 316.895 133.779 C 316.919 138.681 316.934 139.203 317.065 139.593 C 317.23 140.085 317.66 140.601 318.089 140.82 C 318.523 141.041 319.394 141.17 320.044 141.11 C 321.395 140.984 322.077 140.315 322.279 138.914 C 322.326 138.593 322.36 136.249 322.362 133.375 L 322.363 128.393 L 323.739 128.393 L 325.116 128.393 L 325.086 133.94 C 325.057 139.429 325.055 139.494 324.874 140.092 C 324.463 141.453 323.801 142.275 322.67 142.829 C 322.301 143.01 321.734 143.212 321.41 143.279 C 320.653 143.434 319.185 143.492 318.409 143.397 L 318.409 143.397 Z  M 173.096 135.776 L 173.096 128.393 L 174.851 128.393 L 176.606 128.393 L 178.381 132.547 C 179.357 134.831 180.194 136.701 180.239 136.702 C 180.284 136.703 180.549 136.204 180.827 135.594 C 181.105 134.984 181.957 133.114 182.721 131.439 L 184.11 128.394 L 185.784 128.393 L 187.458 128.393 L 187.458 135.776 L 187.458 143.158 L 186.208 143.158 L 184.957 143.158 L 184.957 137.636 C 184.957 134.599 184.926 132.095 184.888 132.071 C 184.85 132.048 183.972 133.862 182.938 136.103 L 181.057 140.178 L 180.212 140.155 L 179.366 140.133 L 177.598 136.139 C 176.626 133.942 175.796 132.11 175.754 132.068 C 175.707 132.02 175.678 134.086 175.678 137.575 L 175.678 143.158 L 174.387 143.158 L 173.096 143.158 L 173.096 135.776 Z  M 191.17 142.666 C 191.17 142.169 191.258 141.872 195.071 129.523 L 195.407 128.433 L 197.403 128.412 C 198.501 128.4 199.399 128.409 199.399 128.432 C 199.399 128.455 200.38 131.602 201.578 135.426 C 203.177 140.527 203.757 142.482 203.757 142.77 L 203.757 143.162 L 202.408 143.14 L 201.059 143.118 L 200.632 141.625 C 200.396 140.804 200.167 139.996 200.121 139.829 L 200.038 139.525 L 197.37 139.547 L 194.703 139.568 L 194.2 141.343 L 193.698 143.118 L 192.434 143.14 L 191.17 143.162 L 191.17 142.666 Z  M 199.269 137.042 C 199.291 137.007 198.902 135.564 198.405 133.836 C 197.759 131.59 197.466 130.688 197.378 130.671 C 197.282 130.652 197.063 131.32 196.354 133.808 C 195.857 135.547 195.471 137.001 195.494 137.038 C 195.548 137.126 199.215 137.129 199.269 137.042 L 199.269 137.042 Z  M 236.353 135.776 L 236.353 128.393 L 239.81 128.393 C 242.989 128.393 243.316 128.406 243.89 128.553 C 245.079 128.857 245.856 129.449 246.303 130.392 L 246.56 130.934 L 246.56 132.952 L 246.56 134.969 L 246.341 135.436 C 246.062 136.03 245.332 136.765 244.726 137.06 L 244.265 137.285 L 244.396 137.539 C 244.468 137.679 245.084 138.799 245.765 140.029 C 246.944 142.158 247.004 142.286 247.004 142.711 L 247.004 143.158 L 245.681 143.158 L 244.359 143.158 L 243.01 140.556 C 242.269 139.125 241.624 137.908 241.578 137.851 C 241.515 137.774 241.203 137.754 240.356 137.771 L 239.217 137.793 L 239.196 140.476 L 239.175 143.158 L 237.764 143.158 L 236.353 143.158 L 236.353 135.776 Z  M 242.632 135.387 C 243.569 135.031 243.798 134.63 243.842 133.272 C 243.881 132.043 243.792 131.688 243.338 131.252 C 242.822 130.755 242.352 130.652 240.604 130.652 L 239.177 130.652 L 239.177 133.122 L 239.177 135.591 L 240.73 135.555 C 241.903 135.528 242.369 135.486 242.632 135.387 L 242.632 135.387 Z  M 257.977 135.776 L 257.977 128.393 L 259.348 128.393 L 260.72 128.393 L 260.72 134.525 L 260.72 140.657 L 263.463 140.657 L 266.206 140.657 L 266.206 141.908 L 266.206 143.158 L 262.092 143.158 L 257.977 143.158 L 257.977 135.776 Z  M 270.402 135.776 L 270.402 128.393 L 274.88 128.393 L 279.358 128.393 L 279.358 129.563 L 279.358 130.733 L 276.292 130.733 L 273.226 130.733 L 273.226 132.589 L 273.226 134.444 L 276.131 134.444 L 279.036 134.444 L 279.036 135.614 L 279.036 136.784 L 276.131 136.784 L 273.226 136.784 L 273.226 138.761 L 273.226 140.738 L 276.494 140.738 L 279.762 140.738 L 279.762 141.948 L 279.762 143.158 L 275.082 143.158 L 270.402 143.158 L 270.402 135.776 Z  M 283.068 142.775 C 283.066 142.498 283.664 140.451 285.223 135.393 L 287.379 128.393 L 289.37 128.393 L 291.361 128.393 L 291.399 128.574 C 291.42 128.674 291.912 130.263 292.492 132.105 C 295.598 141.967 295.657 142.162 295.657 142.671 L 295.657 143.158 L 294.34 143.158 L 293.023 143.158 L 292.513 141.342 L 292.003 139.525 L 289.334 139.547 L 286.666 139.568 L 286.238 141.061 C 286.003 141.882 285.773 142.689 285.728 142.856 L 285.645 143.158 L 284.358 143.158 L 283.07 143.158 L 283.068 142.775 Z  M 291.234 137.065 C 291.257 137.042 290.869 135.599 290.372 133.858 C 289.685 131.454 289.435 130.686 289.334 130.666 C 289.261 130.652 289.202 130.652 289.202 130.666 C 289.202 130.681 288.802 132.091 288.314 133.799 C 287.826 135.507 287.427 136.95 287.427 137.006 C 287.427 137.084 287.856 137.107 289.309 137.107 C 290.345 137.107 291.211 137.088 291.234 137.065 L 291.234 137.065 Z  M 329.463 135.776 L 329.463 128.393 L 333.941 128.393 L 338.419 128.393 L 338.419 129.563 L 338.419 130.733 L 335.353 130.733 L 332.287 130.733 L 332.287 132.589 L 332.287 134.444 L 335.192 134.444 L 338.096 134.444 L 338.096 135.614 L 338.096 136.784 L 335.192 136.784 L 332.287 136.784 L 332.287 138.761 L 332.287 140.738 L 335.555 140.738 L 338.823 140.738 L 338.823 141.948 L 338.823 143.158 L 334.143 143.158 L 329.463 143.158 L 329.463 135.776 Z " fill-rule="evenodd" fill="rgb(255,255,255)"/></g></svg>