<?xml version="1.0" encoding="UTF-8" standalone="no"?><!-- Generator: Gravit.io --><svg xmlns="http://www.w3.org/2000/svg" xmlns:xlink="http://www.w3.org/1999/xlink" style="isolation:isolate" viewBox="0 0 512 512" width="512pt" height="512pt"><defs><clipPath id="_clipPath_joVQRXzUZoRDL5LS0Zo2EsZ6FvyUqkKZ"><rect width="512" height="512"/></clipPath></defs><g clip-path="url(#_clipPath_joVQRXzUZoRDL5LS0Zo2EsZ6FvyUqkKZ)"><path d="M 477.714 383.995 L 256.005 512 L 34.286 383.995 L 34.286 127.985 L 256.005 0 L 477.714 127.985 L 477.714 383.995 Z" fill-rule="evenodd" fill="rgb(27,27,29)" /><path d=" M 254.684 128 C 255.757 128 257.216 128.041 257.945 128.122 C 258.674 128.182 259.808 128.344 260.476 128.446 C 261.125 128.547 262.32 128.81 263.11 128.992 C 263.899 129.195 265.236 129.6 266.067 129.884 C 266.897 130.167 268.538 130.876 269.712 131.463 C 270.887 132.031 272.568 132.982 273.419 133.57 C 274.29 134.137 275.424 134.967 275.951 135.372 C 276.457 135.778 277.611 136.831 278.503 137.702 C 279.394 138.573 280.609 139.889 281.196 140.618 C 281.784 141.347 282.634 142.522 283.931 144.467 L 284.943 144.264 C 285.49 144.142 286.503 143.98 287.171 143.92 C 287.86 143.839 289.116 143.778 290.007 143.778 C 290.898 143.778 292.215 143.859 292.923 143.96 C 293.653 144.061 294.726 144.244 295.334 144.386 C 295.921 144.527 297.015 144.851 297.784 145.115 C 298.534 145.358 299.729 145.824 300.417 146.127 C 301.106 146.451 302.18 146.998 302.807 147.363 C 303.435 147.748 304.428 148.396 305.015 148.841 C 305.603 149.267 306.656 150.198 307.344 150.907 C 308.053 151.596 308.985 152.669 309.41 153.257 C 309.836 153.844 310.504 154.857 310.869 155.525 C 311.233 156.194 311.78 157.287 312.043 157.996 C 312.327 158.685 312.691 159.758 312.874 160.386 C 313.056 161.014 313.319 162.209 313.481 163.04 C 313.704 164.336 313.745 165.024 313.745 167.779 C 313.765 170.25 313.704 171.323 313.542 172.377 C 313.421 173.146 313.178 174.382 313.016 175.111 C 312.853 175.84 312.752 176.468 312.793 176.508 C 312.833 176.549 313.34 176.731 313.886 176.934 C 314.433 177.116 315.487 177.582 316.216 177.946 C 316.945 178.311 318.039 178.959 318.666 179.364 C 319.294 179.769 320.226 180.458 320.732 180.883 C 321.259 181.309 322.312 182.281 323.082 183.071 C 323.831 183.861 324.824 184.995 325.269 185.582 C 325.715 186.17 326.343 187.081 326.667 187.608 C 326.991 188.134 327.497 189.046 327.781 189.633 C 328.085 190.22 328.51 191.193 328.753 191.8 C 328.976 192.408 329.32 193.502 329.502 194.211 C 329.766 195.243 329.847 195.912 329.887 197.532 C 329.928 199.031 329.907 199.76 329.766 200.428 C 329.664 200.915 329.583 201.32 329.604 201.32 C 329.604 201.34 330.15 201.623 330.819 201.948 C 331.467 202.272 332.338 202.778 332.763 203.062 C 333.168 203.325 333.938 203.912 334.465 204.358 C 334.971 204.803 335.741 205.553 336.166 206.039 C 336.571 206.545 337.219 207.436 337.604 208.044 C 337.989 208.652 338.515 209.664 338.779 210.272 C 339.042 210.9 339.427 212.034 339.609 212.804 C 339.812 213.573 340.034 214.789 340.115 215.518 C 340.217 216.368 340.257 217.746 340.217 219.366 C 340.176 220.764 340.055 222.445 339.953 223.093 C 339.852 223.761 339.71 224.531 339.589 225.321 L 340.581 226.05 C 341.128 226.475 342.08 227.245 342.708 227.792 C 343.316 228.318 344.146 229.088 344.531 229.493 C 344.936 229.898 345.544 230.607 345.928 231.053 C 346.313 231.518 346.982 232.41 347.427 233.078 C 347.852 233.746 348.521 234.881 348.885 235.61 C 349.25 236.339 349.736 237.534 349.999 238.263 C 350.242 238.992 350.587 240.268 350.769 241.099 C 351.012 242.294 351.093 243.124 351.154 245.089 C 351.194 246.608 351.174 248.026 351.073 248.795 C 351.012 249.504 350.81 250.719 350.648 251.529 C 350.486 252.319 350.101 253.717 349.797 254.608 C 349.493 255.52 348.906 256.958 348.48 257.828 C 348.055 258.699 347.306 260.016 346.82 260.745 C 346.354 261.474 345.523 262.588 344.997 263.196 C 344.49 263.824 343.498 264.877 342.809 265.545 C 342.121 266.214 340.946 267.226 340.176 267.793 C 339.427 268.361 338.171 269.171 337.422 269.616 C 336.652 270.042 335.315 270.69 334.465 271.054 C 333.594 271.419 332.156 271.925 331.244 272.168 C 330.353 272.411 328.854 272.735 327.922 272.877 C 326.687 273.039 325.553 273.12 323.791 273.12 C 322.332 273.12 320.793 273.039 319.902 272.918 C 319.071 272.816 317.795 272.594 317.026 272.432 C 315.871 272.168 315.628 272.148 315.527 272.29 C 315.446 272.391 315.021 272.999 314.575 273.647 C 314.129 274.295 313.076 275.51 312.246 276.381 C 311.415 277.252 310.261 278.326 309.674 278.812 C 309.086 279.278 308.033 280.047 307.344 280.513 C 306.656 280.979 305.197 281.789 304.124 282.316 C 303.051 282.863 301.612 283.511 300.924 283.754 C 300.235 284.017 299.101 284.382 298.412 284.584 C 297.724 284.807 296.549 285.09 295.82 285.232 C 295.091 285.374 294.058 285.556 293.491 285.658 C 292.863 285.759 291.283 285.799 289.278 285.799 C 286.462 285.799 285.916 285.779 284.822 285.536 C 284.133 285.374 282.898 285.05 282.108 284.787 C 281.318 284.544 280.022 284.057 279.211 283.713 C 278.422 283.369 277.409 282.883 276.194 282.214 L 276.194 318.854 L 276.599 318.611 C 276.822 318.469 277.915 317.862 279.029 317.254 C 280.143 316.646 282.493 315.431 284.255 314.54 C 286.017 313.649 288.204 312.595 289.095 312.17 C 289.987 311.765 291.485 311.097 292.437 310.692 C 293.369 310.307 294.929 309.659 295.881 309.274 C 296.853 308.889 298.635 308.241 299.85 307.836 C 301.066 307.431 303.01 306.803 304.205 306.479 C 305.38 306.134 307.324 305.648 308.539 305.405 C 309.755 305.142 311.598 304.818 312.631 304.696 C 313.866 304.514 315.649 304.413 317.856 304.352 C 320.064 304.312 321.725 304.332 322.818 304.433 C 323.71 304.514 325.229 304.737 326.16 304.899 C 327.092 305.061 328.591 305.405 329.482 305.669 C 330.393 305.912 331.811 306.377 332.642 306.681 C 333.472 307.005 334.748 307.552 335.457 307.937 C 336.186 308.302 337.239 308.909 337.786 309.274 C 338.353 309.638 339.265 310.388 340.885 311.968 L 340.885 320.495 C 340.885 325.173 340.845 329.062 340.784 329.103 C 340.723 329.163 340.298 328.819 339.812 328.353 C 339.326 327.887 338.495 327.199 337.989 326.854 C 337.462 326.49 336.49 325.902 335.842 325.558 C 335.194 325.214 334.059 324.667 333.33 324.363 C 332.601 324.059 331.264 323.573 330.373 323.269 C 329.462 322.986 328.044 322.581 327.214 322.378 C 326.383 322.176 324.884 321.872 323.892 321.69 C 322.879 321.527 321.32 321.325 320.428 321.244 C 319.416 321.143 317.674 321.122 315.892 321.163 C 314.129 321.183 312.489 321.305 311.679 321.426 C 310.95 321.548 309.593 321.811 308.661 322.014 C 307.729 322.216 306.008 322.662 304.833 323.006 C 303.638 323.35 301.835 323.938 300.802 324.302 C 299.769 324.687 298.169 325.315 297.278 325.7 C 296.367 326.085 294.868 326.753 293.936 327.219 C 293.005 327.664 290.939 328.758 289.339 329.649 C 287.759 330.541 285.227 331.857 283.748 332.606 C 282.25 333.336 280.022 334.389 278.786 334.915 C 277.53 335.442 275.687 336.191 274.695 336.576 C 273.682 336.941 272.062 337.528 271.11 337.852 C 270.138 338.176 268.436 338.683 267.322 339.007 C 266.208 339.311 264.527 339.736 261.793 340.283 L 261.752 299.592 C 261.732 277.212 261.752 258.841 261.793 258.76 C 261.834 258.659 262.36 259.064 263.15 259.813 C 263.859 260.482 265.054 261.434 265.824 261.96 C 266.573 262.467 267.788 263.176 268.517 263.56 C 269.246 263.925 270.441 264.472 271.171 264.755 C 271.9 265.039 273.135 265.464 273.925 265.707 C 274.735 265.95 276.092 266.295 276.943 266.477 C 277.814 266.639 279.293 266.882 280.224 266.983 C 281.156 267.105 282.918 267.186 284.133 267.186 C 285.328 267.186 287.07 267.105 287.961 266.983 C 288.852 266.882 290.128 266.68 290.797 266.558 C 291.445 266.416 292.498 266.153 293.126 265.991 C 293.754 265.809 294.726 265.485 295.334 265.262 C 295.921 265.059 296.934 264.634 297.582 264.31 C 298.25 264.006 299.263 263.459 299.85 263.115 C 300.438 262.77 301.43 262.082 302.058 261.616 C 302.686 261.15 303.678 260.259 304.286 259.651 C 304.894 259.044 305.724 258.072 306.149 257.525 C 306.554 256.958 307.182 255.945 307.527 255.256 C 307.871 254.547 308.256 253.616 308.398 253.17 C 308.539 252.704 308.722 252.097 308.782 251.813 C 308.863 251.509 308.965 251.286 309.025 251.307 C 309.086 251.307 309.491 251.793 309.937 252.34 C 310.382 252.907 311.233 253.737 311.821 254.223 C 312.469 254.75 313.4 255.337 314.271 255.763 C 315.021 256.127 316.074 256.552 316.58 256.694 C 317.107 256.836 318.079 257.018 318.727 257.079 C 319.578 257.18 320.307 257.18 321.178 257.079 C 321.867 257.018 322.859 256.836 323.386 256.694 C 323.912 256.552 324.783 256.208 325.33 255.965 C 325.897 255.702 326.707 255.236 327.153 254.932 C 327.619 254.628 328.388 253.98 328.895 253.494 C 329.401 252.988 330.11 252.178 330.475 251.651 C 330.819 251.124 331.325 250.253 331.588 249.686 C 331.832 249.14 332.176 248.188 332.338 247.6 C 332.601 246.669 332.621 246.243 332.621 244.319 C 332.621 242.294 332.601 242.03 332.277 240.977 C 332.095 240.349 331.73 239.418 331.487 238.891 C 331.244 238.364 330.758 237.554 330.434 237.048 C 330.09 236.562 329.462 235.812 329.016 235.367 C 328.591 234.921 327.882 234.293 327.477 233.989 C 327.052 233.686 326.241 233.179 325.654 232.896 C 325.067 232.592 324.216 232.248 323.77 232.086 C 323.305 231.944 322.737 231.802 322.494 231.741 C 322.272 231.701 321.927 231.599 321.502 231.437 L 321.927 230.83 C 322.15 230.506 322.575 229.777 322.859 229.23 C 323.122 228.663 323.467 227.852 323.608 227.387 C 323.75 226.941 323.953 226.232 324.034 225.807 C 324.115 225.402 324.196 224.349 324.175 223.478 C 324.175 222.202 324.115 221.655 323.831 220.642 C 323.649 219.933 323.284 218.941 323.021 218.434 C 322.758 217.908 322.373 217.219 322.17 216.915 C 321.948 216.591 321.482 216.004 321.097 215.599 C 320.732 215.173 320.003 214.525 319.477 214.14 C 318.97 213.756 318.12 213.229 317.593 212.966 C 317.087 212.723 316.317 212.399 315.892 212.257 C 315.487 212.115 314.697 211.913 314.17 211.811 C 313.623 211.69 312.813 211.609 312.347 211.609 C 311.881 211.609 311.456 211.568 311.395 211.507 C 311.355 211.467 311.415 211.264 311.537 211.102 C 311.679 210.92 311.983 210.393 312.205 209.907 C 312.448 209.421 312.772 208.652 312.914 208.226 C 313.076 207.801 313.259 207.173 313.319 206.869 C 313.38 206.565 313.502 205.796 313.562 205.188 C 313.623 204.52 313.623 203.588 313.562 202.818 C 313.502 202.13 313.319 201.077 313.137 200.489 C 312.975 199.902 312.651 199.011 312.428 198.525 C 312.226 198.039 311.719 197.168 311.334 196.58 C 310.95 195.952 310.139 194.98 309.431 194.292 C 308.762 193.623 307.689 192.732 307.02 192.286 C 306.372 191.861 305.38 191.274 304.833 191.01 C 304.266 190.747 303.375 190.382 302.807 190.2 C 302.261 189.998 301.309 189.755 300.701 189.613 C 300.093 189.491 298.939 189.309 298.129 189.248 C 297.319 189.167 296.326 189.147 295.962 189.208 C 295.577 189.248 295.172 189.248 295.05 189.208 C 294.848 189.127 294.929 188.985 295.516 188.215 C 295.881 187.709 296.488 186.757 296.833 186.089 C 297.177 185.44 297.643 184.286 297.886 183.557 C 298.129 182.828 298.412 181.775 298.534 181.228 C 298.635 180.681 298.777 179.587 298.838 178.838 C 298.878 178.068 298.878 176.812 298.838 176.043 C 298.797 175.293 298.655 174.179 298.534 173.592 C 298.412 173.005 298.149 171.992 297.946 171.384 C 297.744 170.756 297.339 169.723 297.035 169.095 C 296.731 168.468 296.124 167.435 295.698 166.766 C 295.192 166.017 294.362 165.045 293.511 164.174 C 292.721 163.384 291.647 162.472 291.04 162.067 C 290.452 161.682 289.582 161.156 289.095 160.913 C 288.609 160.67 287.738 160.305 287.151 160.103 C 286.564 159.9 285.592 159.617 285.004 159.495 C 284.153 159.293 283.404 159.252 281.48 159.252 C 279.596 159.252 278.786 159.313 277.956 159.475 C 277.368 159.596 276.376 159.88 275.748 160.082 C 275.14 160.305 274.31 160.629 273.925 160.832 C 273.561 161.034 273.196 161.217 273.135 161.217 C 273.095 161.217 272.993 160.832 272.912 160.346 C 272.852 159.88 272.588 158.928 272.366 158.239 C 272.143 157.551 271.758 156.599 271.535 156.153 C 271.312 155.708 270.826 154.857 270.421 154.27 C 270.036 153.662 269.145 152.609 268.457 151.92 C 267.768 151.211 266.836 150.381 266.391 150.057 C 265.925 149.753 265.115 149.226 264.548 148.922 C 264.001 148.598 263.008 148.133 262.36 147.889 C 261.692 147.626 260.537 147.262 259.768 147.079 C 258.532 146.796 258.127 146.755 255.818 146.755 C 253.772 146.755 253.003 146.796 252.172 146.978 C 251.565 147.1 250.593 147.363 249.965 147.565 C 249.337 147.768 248.284 148.214 247.635 148.538 C 246.967 148.882 246.015 149.429 245.488 149.773 C 244.982 150.117 243.888 151.069 243.078 151.859 C 242.106 152.831 241.377 153.702 240.891 154.452 C 240.486 155.08 239.939 156.032 239.696 156.599 C 239.433 157.146 239.068 158.118 238.886 158.746 C 238.703 159.374 238.521 160.103 238.481 160.366 C 238.42 160.629 238.339 160.832 238.298 160.832 C 238.238 160.832 237.751 160.65 237.225 160.447 C 236.678 160.224 235.686 159.9 234.977 159.738 C 234.025 159.495 233.255 159.394 231.716 159.353 C 230.136 159.293 229.407 159.333 228.374 159.495 C 227.645 159.617 226.49 159.9 225.802 160.123 C 225.113 160.366 224.12 160.751 223.594 161.014 C 223.088 161.277 222.196 161.784 221.649 162.148 C 221.103 162.533 220.272 163.141 219.827 163.546 C 219.381 163.931 218.672 164.64 218.267 165.105 C 217.862 165.571 217.194 166.462 216.768 167.09 C 216.363 167.698 215.816 168.67 215.553 169.237 C 215.29 169.784 214.885 170.797 214.682 171.465 C 214.459 172.154 214.196 173.227 214.074 173.875 C 213.953 174.605 213.872 175.719 213.872 176.873 C 213.872 178.007 213.953 179.141 214.074 179.83 C 214.176 180.458 214.419 181.491 214.601 182.119 C 214.783 182.747 215.188 183.78 215.492 184.448 C 215.816 185.116 216.242 185.927 216.464 186.271 C 216.667 186.635 217.214 187.365 217.639 187.932 C 218.065 188.479 218.389 188.965 218.348 189.025 C 218.287 189.066 217.74 189.086 217.113 189.046 C 216.485 189.005 215.31 189.025 214.48 189.127 C 213.649 189.208 212.333 189.431 211.583 189.613 C 210.814 189.815 209.659 190.2 209.011 190.464 C 208.343 190.747 207.411 191.213 206.925 191.476 C 206.439 191.76 205.588 192.347 205.041 192.752 C 204.474 193.178 203.644 193.907 203.198 194.373 C 202.732 194.859 202.044 195.669 201.679 196.195 C 201.314 196.722 200.768 197.633 200.484 198.221 C 200.2 198.808 199.816 199.78 199.654 200.368 C 199.471 200.955 199.269 202.029 199.188 202.758 C 199.066 203.75 199.066 204.419 199.167 205.35 C 199.248 206.039 199.431 207.072 199.573 207.619 C 199.714 208.186 200.099 209.199 200.423 209.907 C 200.768 210.596 201.335 211.568 201.679 212.054 C 202.044 212.54 202.327 212.966 202.327 213.027 C 202.327 213.087 201.922 213.087 201.416 213.027 C 200.909 212.966 199.795 212.946 198.924 212.946 C 197.891 212.966 196.919 213.067 196.048 213.249 C 195.319 213.391 194.286 213.695 193.78 213.877 C 193.253 214.08 192.463 214.465 192.018 214.728 C 191.552 214.991 190.701 215.68 190.053 216.348 C 189.202 217.199 188.818 217.705 188.453 218.434 C 188.19 218.941 187.866 219.832 187.724 220.379 C 187.562 221.047 187.481 221.817 187.481 222.627 C 187.481 223.295 187.562 224.247 187.663 224.713 C 187.764 225.179 187.926 225.847 188.048 226.192 C 188.17 226.536 188.494 227.346 188.797 227.954 C 189.101 228.582 189.668 229.574 190.073 230.141 C 190.478 230.708 191.228 231.62 191.734 232.187 C 192.301 232.815 192.585 233.22 192.484 233.26 C 192.403 233.301 191.815 233.483 191.187 233.645 C 190.58 233.827 189.506 234.253 188.797 234.597 C 188.109 234.921 187.096 235.529 186.549 235.954 C 185.982 236.359 185.071 237.19 184.524 237.777 C 183.977 238.385 183.248 239.316 182.924 239.863 C 182.6 240.41 182.154 241.24 181.972 241.727 C 181.769 242.213 181.506 243.023 181.364 243.509 C 181.182 244.177 181.141 244.825 181.141 246.344 C 181.141 247.823 181.182 248.491 181.364 249.119 C 181.486 249.565 181.85 250.517 182.195 251.205 C 182.519 251.894 183.106 252.866 183.491 253.352 C 183.896 253.838 184.504 254.487 184.868 254.811 C 185.233 255.114 186.023 255.682 186.61 256.046 C 187.197 256.411 188.129 256.877 188.676 257.059 C 189.223 257.261 190.134 257.525 190.701 257.646 C 191.309 257.788 192.301 257.869 193.274 257.869 C 194.144 257.889 195.279 257.808 195.785 257.727 C 196.312 257.626 197.243 257.383 197.871 257.18 C 198.479 256.978 199.512 256.552 200.14 256.208 C 200.747 255.884 201.598 255.357 202.023 255.054 C 202.428 254.75 203.137 254.142 203.583 253.697 C 204.049 253.271 204.434 252.907 204.474 252.907 C 204.515 252.907 204.717 253.393 204.94 254.021 C 205.163 254.628 205.669 255.661 206.054 256.33 C 206.439 256.978 207.087 257.91 207.472 258.396 C 207.856 258.882 208.505 259.611 208.869 259.996 C 209.254 260.381 209.943 260.988 210.388 261.373 C 210.834 261.738 211.806 262.446 212.515 262.933 C 213.244 263.398 214.581 264.168 215.472 264.593 C 216.383 265.039 217.963 265.687 218.996 266.031 C 220.049 266.376 221.548 266.801 222.338 266.983 C 223.128 267.166 224.465 267.388 225.295 267.49 C 226.126 267.611 227.685 267.733 228.759 267.773 C 229.873 267.814 231.473 267.793 232.465 267.712 C 233.437 267.631 234.936 267.449 235.807 267.287 C 236.678 267.145 238.035 266.862 238.825 266.659 C 239.615 266.457 240.891 266.052 241.66 265.768 C 242.41 265.485 243.666 264.958 244.415 264.593 C 245.185 264.209 246.319 263.601 246.947 263.196 C 247.554 262.811 248.527 262.122 249.073 261.697 C 249.641 261.251 250.633 260.32 251.322 259.631 C 251.99 258.922 252.577 258.375 252.598 258.436 C 252.638 258.497 252.679 276.867 252.658 340.06 L 252.193 339.999 C 251.929 339.938 250.957 339.736 250.025 339.533 C 249.094 339.331 247.473 338.905 246.44 338.602 C 245.407 338.298 243.524 337.71 242.288 337.285 C 241.033 336.86 239.007 336.09 237.751 335.584 C 236.516 335.077 234.754 334.328 233.863 333.943 C 232.951 333.538 231.088 332.627 229.711 331.918 C 228.313 331.209 226.186 330.075 224.991 329.386 C 223.776 328.697 221.751 327.644 220.515 327.037 C 219.259 326.449 217.254 325.558 216.039 325.072 C 214.844 324.586 212.879 323.877 211.705 323.492 C 210.53 323.107 208.545 322.52 207.31 322.216 C 206.054 321.912 204.353 321.527 203.522 321.386 C 202.692 321.244 201.395 321.062 200.626 320.981 C 199.775 320.879 198.398 320.859 196.98 320.9 C 195.745 320.94 194.043 321.062 193.213 321.183 C 192.382 321.284 191.066 321.487 190.316 321.629 C 189.547 321.771 188.251 322.054 187.42 322.277 C 186.59 322.479 185.293 322.864 184.524 323.107 C 183.774 323.35 182.579 323.776 181.891 324.039 C 181.182 324.323 179.967 324.869 179.177 325.274 C 178.387 325.659 177.172 326.348 176.483 326.814 C 175.774 327.28 174.883 327.968 174.458 328.353 C 174.052 328.758 173.668 329.021 173.607 328.981 C 173.546 328.92 173.506 325.031 173.506 311.765 L 174.295 311.056 C 174.741 310.671 175.693 309.962 176.402 309.476 C 177.131 308.99 178.468 308.221 179.359 307.795 C 180.27 307.35 181.749 306.722 182.64 306.398 C 183.531 306.074 185.131 305.588 186.164 305.324 C 187.197 305.061 188.777 304.717 189.689 304.555 C 191.187 304.291 191.694 304.251 195.481 304.251 C 198.135 304.251 200.099 304.312 200.95 304.413 C 201.679 304.514 202.914 304.696 203.725 304.818 C 204.515 304.96 205.932 305.243 206.864 305.466 C 207.796 305.669 209.457 306.094 210.571 306.418 C 211.684 306.742 213.487 307.309 214.601 307.694 C 215.715 308.079 217.7 308.808 218.996 309.335 C 220.313 309.861 222.358 310.712 223.533 311.218 C 224.708 311.745 227.381 313.021 229.447 314.054 C 231.533 315.066 234.308 316.525 235.645 317.254 C 236.982 317.983 238.096 318.591 238.136 318.591 C 238.157 318.591 238.197 310.388 238.197 282.093 L 236.84 282.923 C 236.091 283.369 234.977 283.997 234.349 284.301 C 233.741 284.604 232.688 285.05 232.02 285.313 C 231.371 285.556 230.217 285.921 229.447 286.123 C 228.698 286.326 227.564 286.589 226.936 286.711 C 226.308 286.812 224.809 286.934 223.594 286.974 C 222.217 287.015 220.9 286.994 220.07 286.893 C 219.341 286.812 218.166 286.63 217.437 286.488 C 216.707 286.346 215.411 286.002 214.54 285.718 C 213.669 285.435 212.393 284.969 211.705 284.645 C 211.016 284.341 209.74 283.673 208.869 283.146 C 208.018 282.64 206.682 281.708 205.912 281.08 C 205.163 280.473 203.968 279.379 203.259 278.67 C 202.57 277.941 201.537 276.726 200.97 275.956 C 200.403 275.206 199.674 274.092 199.35 273.505 C 199.005 272.938 198.722 272.432 198.681 272.411 C 198.641 272.391 198.074 272.553 197.426 272.796 C 196.757 273.019 195.643 273.363 194.914 273.546 C 194.185 273.728 192.929 273.971 192.139 274.092 C 191.167 274.234 189.932 274.295 188.372 274.315 C 187.076 274.315 185.496 274.234 184.848 274.153 C 184.179 274.052 182.984 273.849 182.195 273.667 C 181.405 273.485 180.108 273.12 179.298 272.857 C 178.508 272.573 177.07 271.966 176.098 271.48 C 175.126 271.014 173.89 270.325 173.323 269.961 C 172.776 269.596 171.865 268.948 171.318 268.523 C 170.751 268.097 169.738 267.206 169.07 266.558 C 168.381 265.89 167.389 264.816 166.862 264.148 C 166.336 263.5 165.586 262.467 165.201 261.879 C 164.817 261.292 164.209 260.259 163.865 259.611 C 163.5 258.942 162.973 257.747 162.649 256.958 C 162.325 256.147 161.941 254.952 161.758 254.304 C 161.576 253.636 161.313 252.481 161.171 251.712 C 160.989 250.74 160.887 249.585 160.847 247.863 C 160.806 246.365 160.827 244.886 160.908 244.137 C 160.989 243.428 161.171 242.273 161.333 241.544 C 161.475 240.815 161.839 239.458 162.143 238.506 C 162.447 237.574 163.054 236.076 163.5 235.164 C 163.946 234.253 164.695 232.916 165.181 232.187 C 165.647 231.458 166.396 230.445 166.822 229.918 C 167.227 229.392 168.24 228.318 169.07 227.508 C 169.88 226.698 171.136 225.625 173.08 224.166 L 172.857 223.235 C 172.736 222.708 172.574 221.716 172.493 221.007 C 172.412 220.298 172.392 219.184 172.432 218.434 C 172.473 217.705 172.594 216.611 172.716 216.024 C 172.817 215.437 173.08 214.444 173.283 213.816 C 173.485 213.189 173.931 212.115 174.275 211.426 C 174.64 210.718 175.288 209.624 175.754 208.955 C 176.22 208.307 177.131 207.214 177.799 206.545 C 178.448 205.877 179.562 204.905 180.25 204.398 C 180.939 203.872 182.012 203.183 182.62 202.818 C 183.228 202.474 183.714 202.191 183.714 202.191 C 183.714 202.191 183.552 201.705 183.349 201.117 C 183.147 200.53 182.863 199.537 182.721 198.909 C 182.579 198.282 182.397 197.147 182.316 196.378 C 182.235 195.568 182.195 194.454 182.255 193.664 C 182.296 192.934 182.417 191.922 182.519 191.395 C 182.62 190.869 182.843 189.998 183.025 189.431 C 183.207 188.884 183.552 187.993 183.795 187.486 C 184.038 186.96 184.605 185.967 185.071 185.278 C 185.557 184.529 186.387 183.516 187.096 182.807 C 187.764 182.119 188.818 181.248 189.506 180.802 C 190.154 180.357 191.127 179.79 191.633 179.526 C 192.16 179.263 192.97 178.898 193.456 178.716 C 193.942 178.534 194.995 178.23 195.785 178.028 C 196.575 177.825 197.628 177.602 198.094 177.541 C 198.783 177.46 198.924 177.4 198.864 177.258 C 198.803 177.136 198.58 176.407 198.337 175.617 C 198.114 174.807 197.81 173.47 197.669 172.64 C 197.547 171.81 197.405 170.473 197.365 169.663 C 197.304 168.873 197.345 167.516 197.426 166.645 C 197.486 165.774 197.689 164.356 197.871 163.505 C 198.033 162.655 198.378 161.358 198.641 160.609 C 198.884 159.86 199.37 158.624 199.735 157.854 C 200.099 157.105 200.707 155.991 201.071 155.404 C 201.436 154.816 202.044 153.905 202.449 153.378 C 202.833 152.872 203.623 151.94 204.211 151.312 C 204.798 150.685 205.791 149.773 206.418 149.267 C 207.046 148.76 208.059 148.031 208.687 147.626 C 209.315 147.221 210.55 146.532 211.462 146.107 C 212.353 145.662 213.75 145.115 214.54 144.851 C 215.33 144.608 216.545 144.284 217.234 144.142 C 218.186 143.94 219.158 143.859 221.143 143.818 C 222.966 143.778 224.161 143.818 226.227 144.102 L 227.057 142.887 C 227.503 142.239 228.252 141.206 228.718 140.618 C 229.184 140.031 230.298 138.795 231.209 137.904 C 232.101 136.993 233.336 135.859 233.923 135.393 C 234.511 134.927 235.665 134.076 236.496 133.529 C 237.326 132.962 238.886 132.071 239.959 131.544 C 241.033 130.998 242.471 130.349 243.159 130.106 C 243.848 129.843 245.104 129.438 245.934 129.215 C 246.764 128.972 248.122 128.648 248.952 128.506 C 249.782 128.365 250.977 128.182 251.605 128.122 C 252.213 128.081 253.61 128.02 254.684 128 Z  M 197.304 327.401 C 198.297 327.421 199.897 327.543 200.828 327.644 C 201.76 327.745 203.117 327.948 203.846 328.09 C 204.575 328.211 205.851 328.515 206.682 328.718 C 207.512 328.92 208.808 329.305 209.558 329.548 C 210.327 329.791 211.745 330.297 212.717 330.682 C 213.69 331.067 215.431 331.837 216.606 332.424 C 217.781 333.012 219.381 333.842 220.13 334.288 C 220.9 334.733 222.338 335.604 223.351 336.232 C 224.343 336.86 225.943 337.791 226.875 338.338 C 227.807 338.865 229.731 339.857 231.149 340.546 C 232.566 341.255 234.653 342.187 235.807 342.632 C 236.941 343.078 238.703 343.726 239.696 344.03 C 240.709 344.354 242.41 344.84 243.483 345.123 C 244.557 345.387 246.056 345.731 246.805 345.853 C 247.575 345.994 248.79 346.197 249.519 346.298 C 250.248 346.399 251.625 346.562 252.598 346.643 C 253.691 346.724 255.717 346.764 257.945 346.724 C 260.152 346.683 262.198 346.582 263.231 346.44 C 264.163 346.339 265.702 346.096 266.634 345.934 C 267.565 345.751 269.246 345.387 270.34 345.123 C 271.454 344.84 273.257 344.334 274.371 343.969 C 275.485 343.604 277.368 342.916 278.584 342.43 C 279.799 341.944 281.865 341.032 283.181 340.384 C 284.498 339.756 286.28 338.824 287.151 338.338 C 288.002 337.852 289.987 336.657 291.546 335.705 C 293.106 334.753 295.293 333.498 296.387 332.91 C 297.501 332.343 299.222 331.513 300.235 331.087 C 301.228 330.662 302.969 330.014 304.063 329.649 C 305.177 329.265 306.798 328.799 307.648 328.576 C 308.519 328.373 309.917 328.09 310.747 327.948 C 311.577 327.806 312.752 327.624 313.38 327.563 C 314.008 327.502 315.385 327.401 316.459 327.361 C 317.593 327.32 319.193 327.34 320.307 327.421 C 321.34 327.502 322.899 327.685 323.77 327.827 C 324.621 327.968 325.897 328.211 326.586 328.394 C 327.295 328.576 328.328 328.859 328.915 329.042 C 329.502 329.224 330.576 329.609 331.305 329.892 C 332.034 330.196 333.168 330.703 333.837 331.027 C 334.485 331.351 335.498 331.918 336.085 332.282 C 336.693 332.627 337.584 333.234 338.11 333.619 C 338.617 334.024 339.427 334.693 340.764 335.969 L 340.743 353.387 L 339.974 352.617 C 339.528 352.192 338.698 351.443 338.11 350.936 C 337.523 350.43 336.368 349.559 335.538 348.992 C 334.687 348.445 333.168 347.574 332.135 347.068 C 331.102 346.562 329.583 345.934 328.793 345.65 C 328.004 345.367 326.606 344.982 325.715 344.759 C 324.803 344.536 323.446 344.273 322.697 344.172 C 321.927 344.05 320.287 343.908 319.051 343.847 C 317.795 343.766 316.094 343.746 315.264 343.787 C 314.433 343.827 313.016 343.949 312.124 344.07 C 311.213 344.172 309.755 344.394 308.843 344.556 C 307.952 344.739 306.473 345.063 305.582 345.306 C 304.671 345.549 303.213 345.994 302.301 346.298 C 301.41 346.602 300.134 347.068 299.486 347.331 C 298.817 347.594 297.481 348.182 296.529 348.648 C 295.557 349.114 293.592 350.167 292.174 350.997 C 290.756 351.807 288.528 353.043 287.212 353.711 C 285.895 354.4 284.032 355.311 283.06 355.737 C 282.088 356.162 280.386 356.871 279.272 357.316 C 278.179 357.742 276.396 358.39 275.323 358.734 C 274.249 359.079 272.609 359.565 271.657 359.808 C 270.725 360.071 269.145 360.436 268.153 360.638 C 267.14 360.841 265.52 361.124 264.548 361.266 C 263.596 361.408 262.036 361.59 261.104 361.671 C 260.152 361.752 258.046 361.833 256.385 361.833 C 254.724 361.833 252.658 361.752 251.788 361.671 C 250.917 361.59 249.479 361.428 248.567 361.286 C 247.676 361.144 246.116 360.881 245.124 360.658 C 244.111 360.456 242.491 360.051 241.539 359.787 C 240.567 359.504 238.926 358.977 237.873 358.633 C 236.84 358.268 235.037 357.559 233.863 357.053 C 232.668 356.547 230.46 355.514 228.941 354.744 C 227.422 353.974 224.951 352.678 223.472 351.888 C 221.994 351.078 219.887 350.025 218.814 349.519 C 217.74 349.032 215.978 348.263 214.925 347.838 C 213.852 347.392 211.907 346.703 210.631 346.278 C 209.355 345.853 207.37 345.285 206.236 345.002 C 205.082 344.718 203.441 344.374 202.59 344.232 C 201.719 344.091 200.281 343.928 199.37 343.847 C 198.195 343.746 197.021 343.746 195.157 343.847 C 193.739 343.908 191.977 344.07 191.268 344.172 C 190.539 344.293 189.283 344.516 188.494 344.698 C 187.704 344.88 186.367 345.245 185.536 345.529 C 184.706 345.812 183.511 346.258 182.883 346.541 C 182.276 346.805 181.303 347.27 180.757 347.574 C 180.189 347.878 179.156 348.526 178.427 349.012 C 177.698 349.478 176.726 350.187 176.28 350.531 C 175.835 350.896 175.065 351.585 174.579 352.071 C 174.093 352.557 173.668 352.901 173.607 352.861 C 173.546 352.8 173.506 348.891 173.506 335.584 L 174.478 334.753 C 175.025 334.288 175.774 333.7 176.159 333.417 C 176.544 333.133 177.232 332.687 177.698 332.384 C 178.164 332.1 179.217 331.513 180.027 331.108 C 180.838 330.703 182.093 330.115 182.822 329.832 C 183.552 329.548 184.828 329.123 185.658 328.88 C 186.488 328.637 187.845 328.292 188.676 328.13 C 189.506 327.968 190.661 327.766 191.268 327.685 C 191.856 327.604 193.03 327.482 193.901 327.442 C 194.772 327.381 196.291 327.361 197.304 327.401 Z  M 316.783 350.106 C 318.99 350.146 320.226 350.227 321.441 350.41 C 322.332 350.552 323.588 350.774 324.196 350.896 C 324.824 351.038 325.958 351.341 326.728 351.564 C 327.477 351.787 328.753 352.212 329.543 352.536 C 330.353 352.84 331.71 353.468 332.601 353.914 C 333.492 354.359 334.728 355.048 335.376 355.433 C 336.004 355.838 337.077 356.567 337.725 357.073 C 338.394 357.58 339.346 358.349 340.743 359.646 L 340.764 378.907 L 338.637 376.821 C 337.482 375.667 336.024 374.31 335.396 373.783 C 334.789 373.256 333.816 372.487 333.27 372.061 C 332.702 371.636 331.69 370.927 331.001 370.482 C 330.312 370.016 329.138 369.327 328.409 368.942 C 327.7 368.557 326.464 367.99 325.715 367.686 C 324.945 367.362 323.791 366.978 323.143 366.795 C 322.474 366.613 321.461 366.37 320.874 366.269 C 320.287 366.147 318.768 366.026 317.471 365.985 C 316.074 365.945 314.474 365.985 313.441 366.086 C 312.509 366.167 310.929 366.37 309.917 366.532 C 308.924 366.714 307.385 367.018 306.514 367.221 C 305.663 367.443 304.306 367.808 303.496 368.051 C 302.706 368.314 301.228 368.821 300.235 369.206 C 299.222 369.59 297.622 370.279 296.65 370.745 C 295.678 371.211 293.693 372.284 292.235 373.115 C 290.797 373.965 288.67 375.14 287.516 375.727 C 286.381 376.315 284.68 377.165 283.748 377.591 C 282.817 378.016 281.318 378.664 280.406 379.029 C 279.515 379.393 278.118 379.92 277.328 380.203 C 276.538 380.487 275.221 380.933 274.432 381.176 C 273.642 381.439 272.244 381.824 271.353 382.067 C 270.462 382.29 268.862 382.654 267.829 382.877 C 266.796 383.08 265.094 383.363 264.061 383.505 C 263.008 383.647 261.206 383.829 260.031 383.91 C 258.714 383.991 256.79 384.032 255.048 383.971 C 253.509 383.93 251.463 383.809 250.532 383.707 C 249.6 383.606 248.041 383.383 247.068 383.201 C 246.096 383.039 244.678 382.756 243.929 382.573 C 243.159 382.391 241.681 381.986 240.648 381.682 C 239.615 381.378 237.832 380.771 236.678 380.345 C 235.544 379.92 233.863 379.252 232.971 378.846 C 232.08 378.441 230.338 377.611 229.143 377.003 C 227.928 376.396 225.923 375.343 224.667 374.674 C 223.432 374.006 221.73 373.094 220.9 372.689 C 220.07 372.264 218.652 371.596 217.74 371.211 C 216.849 370.806 215.209 370.117 214.095 369.692 C 212.981 369.246 211.34 368.659 210.449 368.355 C 209.558 368.071 207.856 367.585 206.682 367.281 C 205.487 366.978 203.664 366.593 202.59 366.39 C 201.173 366.147 199.998 366.046 198.297 365.985 C 196.818 365.945 195.461 365.985 194.529 366.086 C 193.739 366.167 192.463 366.39 191.694 366.593 C 190.944 366.775 189.749 367.16 189.061 367.403 C 188.372 367.666 187.096 368.233 186.225 368.679 C 185.354 369.125 183.977 369.935 183.147 370.482 C 182.316 371.028 181.06 371.92 180.372 372.466 C 179.683 373.013 178.488 374.006 177.739 374.674 C 176.969 375.363 175.754 376.517 175.025 377.246 C 174.295 377.976 173.668 378.543 173.607 378.522 C 173.566 378.482 173.506 374.208 173.506 359.585 L 174.599 358.633 C 175.187 358.106 176.139 357.357 176.706 356.952 C 177.273 356.547 178.245 355.899 178.873 355.514 C 179.481 355.109 180.898 354.359 182.012 353.812 C 183.147 353.266 184.929 352.536 186.104 352.131 C 187.238 351.747 188.818 351.281 189.628 351.119 C 190.418 350.936 191.815 350.673 192.706 350.531 C 193.719 350.369 195.339 350.248 196.919 350.207 C 198.499 350.167 200.16 350.187 201.193 350.288 C 202.125 350.369 203.684 350.572 204.656 350.734 C 205.629 350.896 207.026 351.179 207.735 351.362 C 208.464 351.544 209.862 351.969 210.834 352.273 C 211.786 352.597 213.264 353.144 214.095 353.488 C 214.925 353.833 216.687 354.663 218.004 355.332 C 219.32 356 221.487 357.235 222.844 358.086 C 224.201 358.916 226.065 360.03 226.997 360.557 C 227.928 361.084 229.792 362.056 231.149 362.724 C 232.506 363.372 234.45 364.243 235.483 364.669 C 236.536 365.094 238.258 365.722 239.331 366.086 C 240.405 366.431 242.268 366.978 243.483 367.281 C 244.699 367.585 246.521 367.97 247.575 368.152 C 248.608 368.335 250.248 368.578 251.22 368.679 C 252.193 368.78 254.137 368.902 255.555 368.942 C 257.094 368.983 258.957 368.962 260.152 368.881 C 261.266 368.8 262.866 368.638 263.737 368.537 C 264.608 368.436 266.411 368.132 267.768 367.849 C 269.125 367.585 271.009 367.14 271.981 366.856 C 272.953 366.573 274.594 366.066 275.627 365.702 C 276.659 365.357 278.28 364.75 279.211 364.345 C 280.143 363.96 281.885 363.19 283.06 362.623 C 284.234 362.056 286.037 361.104 287.09 360.537 C 288.123 359.949 289.987 358.835 291.242 358.066 C 292.478 357.296 294.159 356.283 294.949 355.858 C 295.739 355.413 296.995 354.764 297.724 354.44 C 298.433 354.096 299.709 353.529 300.539 353.205 C 301.369 352.861 302.686 352.395 303.435 352.152 C 304.205 351.888 305.359 351.544 306.028 351.382 C 306.676 351.2 307.749 350.957 308.418 350.815 C 309.066 350.673 310.322 350.491 311.172 350.369 C 312.043 350.268 312.975 350.146 313.259 350.126 C 313.542 350.086 315.122 350.086 316.783 350.106 Z " fill-rule="evenodd" fill="rgb(102,0,51)"/></g></svg>