<?xml version="1.0" encoding="UTF-8" standalone="no"?><!-- Generator: Gravit.io --><svg xmlns="http://www.w3.org/2000/svg" xmlns:xlink="http://www.w3.org/1999/xlink" style="isolation:isolate" viewBox="0 0 512 512" width="512pt" height="512pt"><defs><clipPath id="_clipPath_h0T9V07rjaeipfKVTzauWVsWhGWKJsDo"><rect width="512" height="512"/></clipPath></defs><g clip-path="url(#_clipPath_h0T9V07rjaeipfKVTzauWVsWhGWKJsDo)"><path d="M 477.714 383.995 L 256.005 512 L 34.286 383.995 L 34.286 127.985 L 256.005 0 L 477.714 127.985 L 477.714 383.995 Z" fill-rule="evenodd" fill="rgb(0,0,128)" /><path d=" M 302.325 195.585 L 289.689 169.567 C 282.323 154.428 266.907 144.874 250.072 145.014 C 233.236 145.153 217.981 154.961 210.866 170.22 L 193.438 207.634 C 180.426 200.002 164.394 199.636 151.047 206.665 C 130.204 217.555 122.894 243.341 131.602 263.366 C 136.578 274.882 143.842 285.58 152.741 295.059 L 148.153 304.914 C 142.155 317.773 142.792 332.747 149.861 345.05 C 153.639 351.694 159.121 357.212 165.74 361.035 C 173.877 365.789 183.337 367.778 192.7 366.704 L 192.831 366.684 L 192.95 366.671 C 208.136 364.734 221.235 355.071 227.569 341.135 L 229.863 336.211 C 236.547 337.285 243.31 337.819 250.1 337.799 L 250.284 337.799 C 257.993 337.706 265.678 336.912 273.243 335.426 L 276.11 341.326 L 276.123 341.352 C 283.5 356.448 298.871 365.986 315.673 365.893 L 315.772 365.893 C 336.119 365.684 353.629 351.462 358.005 331.59 L 358.038 331.425 L 358.071 331.267 C 360.036 321.589 358.704 311.531 354.287 302.699 L 349.139 292.047 C 365.994 273.636 378.36 250.638 383.218 225.175 C 385.411 213.77 382.947 201.963 376.376 192.388 C 368.168 180.369 354.517 173.224 339.963 173.331 L 339.871 173.331 C 324.278 173.518 309.966 182.001 302.319 195.591 L 302.325 195.585 Z  M 254.404 250.144 L 253.415 248.12 L 254.404 250.144 Z  M 247.298 250.44 L 248.439 248.001 L 247.298 250.44 Z  M 184.763 226.256 C 177.617 221.212 168.243 220.613 160.513 224.707 C 168.243 220.615 177.616 221.214 184.763 226.256 Z  M 168.561 309.35 L 166.623 313.516 L 168.561 309.35 Z  M 190.01 299.528 C 185.61 296.752 181.395 293.692 177.394 290.366 L 166.623 313.516 C 163.417 320.379 163.761 328.376 167.546 334.938 C 169.543 338.465 172.457 341.398 175.97 343.409 C 180.314 345.96 185.37 347.034 190.373 346.454 C 198.579 345.407 205.653 340.173 209.054 332.631 L 218.367 312.613 C 208.389 309.497 198.856 305.099 190.01 299.528 Z  M 359.567 203.89 C 355.189 197.464 347.897 193.642 340.122 193.699 C 329.027 193.831 319.562 201.763 317.493 212.664 C 315.21 223.953 310.185 234.506 302.859 243.394 L 324.414 287.788 C 343.925 270.63 358.255 247.316 363.206 221.338 C 364.379 215.27 363.068 208.984 359.567 203.89 Z  M 336.015 311.71 L 324.427 287.756 L 302.872 243.361 L 271.364 178.473 C 267.441 170.394 259.22 165.295 250.24 165.369 C 241.26 165.444 233.124 170.68 229.336 178.822 L 198.243 245.562 C 207.201 257.124 222.804 266.55 238.314 269.734 L 248.432 247.995 C 248.875 247.045 249.824 246.435 250.872 246.426 C 251.919 246.418 252.878 247.013 253.336 247.955 L 263.632 269.075 L 284.231 311.393 L 294.428 332.407 C 298.37 340.475 306.583 345.573 315.561 345.525 C 326.423 345.416 335.772 337.822 338.105 327.213 C 339.173 321.957 338.436 316.495 336.015 311.71 Z  M 263.613 269.068 C 259.037 270.228 254.339 270.839 249.618 270.888 C 245.826 270.892 242.044 270.499 238.334 269.714 C 222.823 266.491 207.254 257.111 198.303 245.556 C 196.167 242.854 194.382 239.893 192.99 236.743 C 190.572 230.588 185.645 225.755 179.445 223.457 C 173.244 221.159 166.358 221.613 160.513 224.707 C 149.861 230.243 145.484 244.231 150.296 255.259 C 155.859 268.145 165.272 280.254 177.453 290.379 C 181.461 293.708 185.673 296.773 190.076 299.541 C 198.922 305.112 208.454 309.51 218.433 312.626 C 228.664 315.836 239.322 317.457 250.04 317.424 C 261.668 317.285 273.195 315.245 284.165 311.387 L 263.613 269.068 Z " fill-rule="evenodd" fill="rgb(255,255,255)"/></g></svg>