<?xml version="1.0" encoding="UTF-8" standalone="no"?><!-- Generator: Gravit.io --><svg xmlns="http://www.w3.org/2000/svg" xmlns:xlink="http://www.w3.org/1999/xlink" style="isolation:isolate" viewBox="0 0 512 512" width="512pt" height="512pt"><defs><clipPath id="_clipPath_SXVF5FU840buEFJIH5QiBu3YffHSpnAu"><rect width="512" height="512"/></clipPath></defs><g clip-path="url(#_clipPath_SXVF5FU840buEFJIH5QiBu3YffHSpnAu)"><rect width="512" height="512" style="fill:rgb(17,17,132)"/><path d=" M 256.1 316.2 L 184.666 316.2 L 170.072 361.326 C 169.688 363.054 168.152 364.207 166.424 364.015 L 130.323 364.015 C 128.21 364.015 127.634 362.862 128.21 360.558 L 190.043 182.55 C 190.619 180.63 191.195 178.518 191.963 176.213 C 192.731 172.181 193.115 167.956 193.115 163.732 C 192.923 162.771 193.691 161.811 194.651 161.619 L 244.386 161.619 C 245.922 161.619 246.69 162.195 246.882 163.155 L 316.972 360.942 C 317.548 363.054 316.972 364.015 315.052 364.015 L 274.918 364.015 C 273.574 364.207 272.23 363.246 271.846 361.902 L 256.1 316.2 Z  M 195.803 277.219 L 244.578 277.219 C 243.426 273.186 241.89 268.386 240.161 263.393 C 238.433 258.208 236.705 252.64 234.977 246.879 C 233.057 240.926 231.328 235.165 229.408 229.212 C 227.488 223.26 225.76 217.691 224.223 212.122 C 222.687 206.745 221.343 201.753 219.999 197.144 L 219.615 197.144 C 217.886 205.401 215.774 213.658 213.086 221.915 C 210.205 231.133 207.325 240.734 204.253 250.335 C 201.564 260.129 198.684 269.154 195.803 277.219 Z  M 359.794 195.224 C 353.457 195.416 347.312 192.919 342.703 188.503 C 338.287 183.702 335.982 177.365 336.174 170.837 C 335.982 164.308 338.479 158.163 343.087 153.746 C 347.696 149.33 353.841 147.025 360.178 147.025 C 367.667 147.025 373.427 149.33 377.652 153.746 C 381.877 158.355 384.181 164.5 383.989 170.837 C 384.181 177.365 381.877 183.702 377.268 188.503 C 372.851 193.112 366.323 195.608 359.794 195.224 Z  M 338.287 361.902 L 338.287 214.042 C 338.287 212.122 339.055 211.354 340.783 211.354 L 378.804 211.354 C 380.532 211.354 381.301 212.314 381.301 214.042 L 381.301 361.902 C 381.301 364.015 380.532 364.975 378.804 364.975 L 341.167 364.975 C 339.247 364.975 338.287 363.823 338.287 361.902 L 338.287 361.902 Z " fill="rgb(255,255,255)"/></g></svg>