<svg xmlns="http://www.w3.org/2000/svg" width="512pt" height="512pt" style="isolation:isolate" viewBox="0 0 512 512"><defs><clipPath id="a"><path d="M0 0h512v512H0z"/></clipPath></defs><g clip-path="url(#a)"><path fill="#1A1919" d="M206.288 45.551c-5.644-5.672-13.518-9.174-22.272-9.174-8.72 0-16.534 3.502-22.111 9.174h-.161c-5.627 5.644-9.13 13.524-9.13 22.244 0 8.754 3.503 16.567 9.13 22.178l.161.127c5.577 5.644 13.391 9.114 22.111 9.114 8.754 0 16.628-3.47 22.272-9.114l.083-.127c5.655-5.611 9.125-13.424 9.125-22.178 0-8.72-3.47-16.6-9.125-22.244h-.083Zm-22.272 430.072a31.641 31.641 0 0 0 22.272-9.141l.083-.166c5.655-5.566 9.125-13.446 9.125-22.106 0-8.754-3.47-16.6-9.125-22.272h-.083c-5.644-5.738-13.518-9.207-22.272-9.207-8.72 0-16.534 3.469-22.111 9.207h-.161c-5.627 5.672-9.13 13.518-9.13 22.272 0 8.66 3.503 16.54 9.13 22.106l.161.166a31.199 31.199 0 0 0 22.111 9.141Zm171.181-95.185c7.786-2.042 14.835-7.039 19.135-14.592l.581-1.101c3.824-7.166 4.521-15.433 2.479-22.759-2.059-7.846-7.116-14.785-14.653-19.129l-.437-.293c-7.343-4.023-15.709-4.897-23.395-2.822-7.813 1.948-14.829 7.166-19.107 14.658-4.332 7.42-5.24 15.98-3.165 23.86 2.142 7.747 7.149 14.752 14.636 19.129h.05c7.503 4.31 16.002 5.091 23.876 3.049ZM216.259 223.804c-8.256-8.234-19.632-13.391-32.243-13.391-12.561 0-23.91 5.157-32.149 13.391-8.2 8.206-13.258 19.555-13.258 32.132 0 12.611 5.058 23.993 13.258 32.293 8.239 8.168 19.588 13.292 32.149 13.292 12.611 0 23.987-5.124 32.243-13.292 8.217-8.3 13.275-19.682 13.275-32.293 0-12.577-5.058-23.926-13.275-32.132Zm-18.127-53.552c18.271 3.01 34.711 11.764 47.255 24.407h.1a90.193 90.193 0 0 1 5.738 6.386l31.369-18.15c-4.217-12.743-4.41-26.067-1.024-38.551 4.477-16.733 15.322-31.712 31.579-41.113l.537-.321c16.08-9.113 34.362-10.995 50.868-6.518 16.711 4.471 31.79 15.366 41.174 31.612v.033c9.341 16.147 11.239 34.689 6.779 51.356-4.443 16.722-15.339 31.8-31.579 41.135l-4.283 2.534h-.437c-15.023 7.161-31.546 8.267-46.719 4.278-12.461-3.309-23.893-10.248-32.84-20.136l-31.32 18.094a86.406 86.406 0 0 1 5.595 30.638 87.703 87.703 0 0 1-5.595 30.799l31.32 18.028c8.947-10.015 20.379-16.827 32.84-20.136 16.711-4.571 35.242-2.623 51.439 6.812l1.034.487v.066c15.649 9.462 26.151 24.12 30.545 40.654 4.46 16.567 2.562 35.115-6.779 51.295l-.564 1.134-.066-.1c-9.385 15.599-24.17 26.168-40.494 30.639-16.749 4.41-35.275 2.528-51.455-6.773v-.133c-16.257-9.401-27.102-24.413-31.579-41.108-3.386-12.45-3.193-25.78 1.024-38.518l-31.369-18.094c-1.799 2.208-3.746 4.283-5.738 6.292l-.1.094c-12.544 12.583-28.984 21.337-47.255 24.253v36.249c13.02 2.722 24.69 9.241 33.837 18.382l.044.099c12.256 12.191 19.843 29.178 19.843 47.853 0 18.615-7.587 35.497-19.843 47.754l-.044.193C219.629 504.414 202.691 512 184.016 512c-18.575 0-35.535-7.586-47.842-19.843h-.044v-.193c-12.273-12.257-19.876-29.139-19.876-47.754a67.325 67.325 0 0 1 19.876-47.853v-.099h.044c9.13-9.141 20.817-15.66 33.804-18.382v-36.249c-18.288-2.916-34.678-11.67-47.206-24.253l-.132-.094c-15.66-15.726-25.448-37.351-25.448-61.344 0-23.926 9.788-45.551 25.448-61.277h.132c12.528-12.643 28.918-21.397 47.206-24.407v-36.089c-12.987-2.822-24.674-9.335-33.804-18.415h-.044v-.1c-12.273-12.317-19.876-29.178-19.876-47.853 0-18.581 7.603-35.602 19.876-47.858l.044-.061C148.481 7.586 165.441 0 184.016 0c18.675 0 35.613 7.586 47.953 19.876v.061h.044c12.256 12.256 19.843 29.277 19.843 47.858 0 18.675-7.587 35.536-19.843 47.853l-.044.1c-9.147 9.08-20.817 15.593-33.837 18.415v36.089Zm176.2-24.06-.26-.387c-4.333-7.298-11.238-12.162-18.875-14.271-7.874-2.075-16.373-1.195-23.926 3.116h.05c-7.537 4.277-12.578 11.282-14.686 19.129a31.41 31.41 0 0 0 3.165 23.86l.144.199c4.344 7.387 11.25 12.345 18.963 14.354a30.806 30.806 0 0 0 23.832-3.077l.404-.194c7.327-4.377 12.207-11.282 14.249-18.869 2.075-7.813 1.25-16.373-3.06-23.86Z"/></g></svg>