<svg xmlns="http://www.w3.org/2000/svg" width="512pt" height="512pt" style="isolation:isolate" viewBox="0 0 512 512"><defs><clipPath id="a"><path d="M0 0h512v512H0z"/></clipPath></defs><g clip-path="url(#a)"><path fill="#A41E11" d="M491.931 374.96c-27.323 14.243-168.863 72.437-198.996 88.145-30.134 15.714-46.874 15.56-70.678 4.18-23.802-11.378-174.426-72.22-201.558-85.189C7.136 375.613.007 370.144.007 364.977v-51.752s196.09-42.689 227.75-54.045c31.656-11.359 42.638-11.768 69.578-1.899 26.942 9.868 188.028 38.934 214.656 48.684 0 0-.012 46.22-.012 51.018.002 5.117-6.14 10.73-20.048 17.977Z"/><path fill="#D82C20" d="M491.931 323.193c-27.323 14.236-168.863 72.438-198.996 88.146-30.134 15.713-46.874 15.56-70.678 4.18-23.806-11.374-174.426-72.227-201.558-85.19-27.134-12.969-27.702-21.896-1.048-32.33 26.65-10.44 176.446-69.211 208.109-80.57 31.656-11.352 42.639-11.768 69.579-1.896 26.942 9.868 167.637 65.871 194.26 75.622 26.63 9.761 27.653 17.796.332 32.038Z"/><path fill="#A41E11" d="M491.931 290.568c-27.323 14.241-168.863 72.437-198.996 88.151-30.134 15.708-46.874 15.554-70.678 4.174-23.806-11.373-174.426-72.22-201.558-85.189C7.136 291.221.007 285.759.007 280.591v-51.758s196.09-42.686 227.75-54.045c31.656-11.356 42.638-11.768 69.578-1.899 26.942 9.868 188.028 38.927 214.656 48.682 0 0-.012 46.22-.012 51.024.002 5.113-6.14 10.726-20.048 17.973Z"/><path fill="#D82C20" d="M491.931 238.801c-27.323 14.242-168.863 72.438-198.996 88.151-30.134 15.708-46.874 15.555-70.678 4.175-23.806-11.374-174.426-72.224-201.558-85.19-27.134-12.965-27.702-21.893-1.048-32.333 26.65-10.435 176.446-69.208 208.109-80.564 31.656-11.356 42.639-11.768 69.579-1.899 26.942 9.868 167.637 65.867 194.26 75.622 26.63 9.757 27.653 17.796.332 32.038Z"/><path fill="#A41E11" d="M491.931 203.045c-27.323 14.243-168.863 72.442-198.996 88.155-30.134 15.708-46.874 15.555-70.678 4.175-23.806-11.374-174.426-72.224-201.558-85.19C7.136 203.703.007 198.236.007 193.072v-51.759s196.09-42.686 227.75-54.041c31.656-11.359 42.638-11.768 69.578-1.9 26.942 9.869 188.028 38.928 214.656 48.683 0 0-.012 46.22-.012 51.02.002 5.11-6.14 10.724-20.048 17.97Z"/><path fill="#D82C20" d="M491.931 151.279c-27.323 14.242-168.863 72.441-198.996 88.152-30.134 15.706-46.874 15.553-70.678 4.177-23.802-11.377-174.426-72.224-201.558-85.189-27.134-12.967-27.702-21.896-1.048-32.334 26.65-10.438 176.446-69.205 208.109-80.564 31.656-11.358 42.639-11.768 69.579-1.896 26.942 9.868 167.637 65.867 194.26 75.622 26.63 9.752 27.653 17.793.332 32.032Z"/><path fill="#FFF" d="m323.087 101.439-44.364 4.604-9.932 23.897-16.042-26.665-51.225-4.606 38.224-13.784-11.468-21.158 35.785 13.994 33.739-11.045-9.119 21.881 34.402 12.882ZM266.143 217.372l-82.798-34.34 118.643-18.209-35.845 52.549Z"/><ellipse cx="151.352" cy="139.3" fill="#FFF" rx="63.411" ry="24.58" vector-effect="non-scaling-stroke"/><path fill="#7A0C00" d="m375.515 107.969 70.217 27.75-70.157 27.72-.06-55.47Z"/><path fill="#AD2115" d="m297.835 138.699 77.68-30.73.06 55.47-7.614 2.978-70.126-27.718Z"/></g></svg>