<svg xmlns="http://www.w3.org/2000/svg" width="512pt" height="512pt" style="isolation:isolate" viewBox="0 0 512 512"><defs><clipPath id="a"><path d="M0 0h512v512H0z"/></clipPath></defs><g fill="#635BFF" clip-path="url(#a)"><path fill-rule="evenodd" d="M512 259.556c0-36.409-17.636-65.138-51.342-65.138-33.849 0-54.329 28.729-54.329 64.853 0 42.809 24.178 64.427 58.88 64.427 16.924 0 29.724-3.84 39.395-9.245v-28.444c-9.671 4.835-20.764 7.822-34.844 7.822-13.796 0-26.027-4.835-27.591-21.618h69.547c0-1.849.284-9.244.284-12.657Zm-70.258-13.512c0-16.071 9.814-22.755 18.774-22.755 8.675 0 17.92 6.684 17.92 22.755h-36.694ZM351.431 194.418c-13.938 0-22.898 6.542-27.875 11.093l-1.849-8.818h-31.289v165.831l35.555-7.537.143-40.249c5.12 3.698 12.657 8.96 25.173 8.96 25.458 0 48.64-20.48 48.64-65.565-.142-41.244-23.609-63.715-48.498-63.715Zm-8.533 97.991c-8.391 0-13.369-2.987-16.782-6.685l-.143-52.764c3.698-4.124 8.818-6.969 16.925-6.969 12.942 0 21.902 14.507 21.902 33.138 0 19.058-8.818 33.28-21.902 33.28ZM241.493 186.027l35.698-7.68v-28.871l-35.698 7.537v29.014Z"/><path d="M241.493 196.836h35.698V321.28h-35.698z"/><path fill-rule="evenodd" d="m203.236 207.36-2.276-10.524h-30.72V321.28h35.556v-84.338c8.391-10.951 22.613-8.96 27.022-7.395v-32.711c-4.551-1.707-21.191-4.836-29.582 10.524ZM132.124 165.973l-34.702 7.396-.142 113.92c0 21.049 15.787 36.551 36.836 36.551 11.662 0 20.195-2.133 24.888-4.693v-28.871c-4.551 1.848-27.022 8.391-27.022-12.658v-50.489h27.022v-30.293h-27.022l.142-30.863ZM35.982 232.96c0-5.547 4.551-7.68 12.089-7.68 10.809 0 24.462 3.271 35.271 9.102V200.96c-11.804-4.693-23.466-6.542-35.271-6.542C19.2 194.418 0 209.493 0 234.667c0 39.253 54.044 32.995 54.044 49.92 0 6.542-5.688 8.675-13.653 8.675-11.804 0-26.88-4.835-38.827-11.378v33.849c13.227 5.689 26.596 8.107 38.827 8.107 29.582 0 49.92-14.649 49.92-40.107-.142-42.382-54.329-34.844-54.329-50.773Z"/></g></svg>