<?xml version="1.0" encoding="UTF-8" standalone="no"?><!-- Generator: Gravit.io --><svg xmlns="http://www.w3.org/2000/svg" xmlns:xlink="http://www.w3.org/1999/xlink" style="isolation:isolate" viewBox="0 0 512 512" width="512pt" height="512pt"><defs><clipPath id="_clipPath_QVHqgs99SM5N0zvGuDaEpyunLshAq9o9"><rect width="512" height="512"/></clipPath></defs><g clip-path="url(#_clipPath_QVHqgs99SM5N0zvGuDaEpyunLshAq9o9)"><circle vector-effect="non-scaling-stroke" cx="256" cy="256" r="256" fill="rgb(27,27,29)" /><path d=" M 379.653 228.219 L 350.335 228.219 C 333.127 228.219 317.194 235.867 306.359 248.614 L 259.834 302.15 L 259.834 363.333 C 274.493 361.421 282.778 351.224 282.778 351.224 L 382.839 235.23 C 385.389 232.68 383.477 228.219 379.653 228.219 Z  M 131.731 228.219 L 161.048 228.219 C 178.256 228.219 194.189 235.867 205.024 248.614 L 251.549 302.15 L 251.549 363.333 C 236.89 361.421 228.605 351.224 228.605 351.224 L 129.181 235.23 C 126.632 232.68 128.544 228.219 131.731 228.219 Z  M 315.282 153.014 L 315.282 212.923 C 315.282 221.208 312.095 229.494 306.997 235.867 L 260.472 290.04 L 260.472 205.913 L 308.909 149.827 C 310.183 147.278 315.282 149.19 315.282 153.014 Z  M 196.738 153.014 L 196.738 212.923 C 196.738 221.208 199.925 229.494 205.024 235.867 L 251.549 290.04 L 251.549 205.913 L 203.112 149.827 C 201.2 147.278 196.738 149.19 196.738 153.014 Z " fill-rule="evenodd" fill="rgb(0,0,128)"/></g></svg>