<svg xmlns="http://www.w3.org/2000/svg" width="512pt" height="512pt" style="isolation:isolate" viewBox="0 0 512 512"><defs><clipPath id="a"><path d="M0 0h512v512H0z"/></clipPath></defs><g clip-path="url(#a)"><circle cx="256" cy="256" r="256" fill="#DD4814" vector-effect="non-scaling-stroke"/><path fill="#FFF" d="M81.929 221.813c-18.886 0-34.186 15.3-34.186 34.187 0 18.876 15.3 34.176 34.186 34.176 18.876 0 34.176-15.3 34.176-34.176-.005-18.887-15.305-34.187-34.176-34.187Zm244.032 155.342c-16.35 9.444-21.953 30.334-12.51 46.674 9.432 16.351 30.324 21.954 46.676 12.511 16.35-9.432 21.953-30.324 12.509-46.675-9.437-16.334-30.34-21.942-46.675-12.51ZM156.167 256c0-33.775 16.78-63.619 42.449-81.687l-24.987-41.852c-29.905 19.99-52.153 50.534-61.398 86.307 10.788 8.805 17.694 22.208 17.694 37.232 0 15.012-6.906 28.415-17.694 37.22 9.234 35.785 31.481 66.329 61.398 86.319l24.987-41.864c-25.669-18.056-42.449-47.895-42.449-81.675ZM256 156.155c52.153 0 94.948 39.988 99.432 90.984l48.703-.718c-2.395-37.649-18.842-71.446-44.116-96.304-12.996 4.908-28.008 4.158-40.982-3.321-12.996-7.5-21.146-20.152-23.377-33.888a148.94 148.94 0 0 0-39.665-5.393c-23.632 0-45.97 5.546-65.799 15.368l23.749 42.557A99.513 99.513 0 0 1 256 156.155Zm0 199.678c-15.024 0-29.279-3.344-42.049-9.29l-23.75 42.557c19.836 9.828 42.174 15.38 65.799 15.38a148.42 148.42 0 0 0 39.665-5.405c2.231-13.736 10.382-26.376 23.378-33.888 12.985-7.49 27.985-8.23 40.981-3.322 25.275-24.85 41.721-58.653 44.117-96.302l-48.714-.718c-4.484 51.012-47.274 90.988-99.427 90.988Zm69.951-221.01c16.35 9.444 37.242 3.852 46.674-12.499 9.443-16.351 3.852-37.243-12.498-46.687-16.352-9.432-37.244-3.829-46.687 12.522-9.432 16.34-3.829 37.232 12.511 46.664Z"/></g></svg>