<svg xmlns="http://www.w3.org/2000/svg" width="512pt" height="512pt" style="isolation:isolate" viewBox="0 0 512 512"><defs><clipPath id="a"><path d="M0 0h512v512H0z"/></clipPath></defs><g clip-path="url(#a)"><path d="m351.14 174.001-.114-1.097-1.777.151.113 1.097 1.778-.151Zm11.949 28.738.038.605 1.248-.113c-.038-.378.113-.983.378-1.74l-.114-1.096c-.529.037-1.058.832-1.55 2.344Zm-46.625 36.188c-.075-1.021-3.252-4.991-9.529-11.987-.113-1.286 2.042-3.214 6.466-5.748l12.63-11.004c2.836-3.592 4.5-9.415 4.992-17.507l-.152-1.853c-.491-5.597-4.537-10.097-12.213-13.538-4.538-3.063-12.706-4.764-24.504-5.067-9.756.832-22.499 4.311-38.192 10.475-4.311 3.101-9.226 6.201-14.747 9.302l.075.945c.341-.037.87-.227 1.475-.642.643-.076 1.021.226 1.059.831l.945-.491.454-.038.038.416c.038.492-3.366 3.176-10.248 7.979l.53.983-.454.038-1.134-.416c.037.34-.454.567-1.4.643l.038.416 1.097 1.361c-.341.038-.87-.114-1.588-.378-1.589.151-3.139.983-4.689 2.571l.643-2.798c2.306-9.945 3.894-18.756 4.726-26.394l-.113-.492c-1.588-1.021-3.139-2.458-4.576-4.273.038-1.172.038-1.853 0-2.004l-.113-.416-.454.114c-4.991 7.487-14.596 20.268-28.852 38.343-10.852 12.857-16.449 20.003-16.789 21.44-4.424 4.576-6.542 7.336-6.315 8.281-1.172.757-1.664 1.513-1.475 2.345-.34.076-.567-.038-.643-.378-1.89 3.063-4.689 5.029-8.432 5.899l-3.933.907c-.529.114-.794.492-.756 1.135l.113.491 1.475-.34.113.416-3.327 1.286-5.899 1.361-3.101.189c-.454.454 2.458-.038 1.324.227l-3.857.907c-2.345.53-3.63.341-3.857-.605l-.454.114c.075.416.113.718.038.983l-.227-.945-3.101.718c-.227-1.437-4.424-6.655-12.554-15.655-.151-1.739 2.722-4.273 8.584-7.563l16.562-14.558c3.706-4.765 5.899-12.403 6.618-22.915l-.227-2.458c-.643-7.412-6.013-13.386-16.109-17.999-5.975-4.047-16.714-6.202-32.218-6.542-12.856 1.096-29.646 5.672-50.292 13.651-5.672 4.121-12.138 8.205-19.399 12.251l.114 1.286c.492-.038 1.134-.303 1.928-.756.832-.076 1.286.302 1.362 1.058l1.285-.718.643-.038.038.605c.038.605-4.462 4.122-13.575 10.55l.718 1.135-.643.037-1.399-.491c.038.378-.605.643-1.928.756l.076.681 1.512 1.664c-.492.037-1.172-.114-2.042-.416-2.949.264-5.823 2.382-8.659 6.39l.718 1.135c2.458-2.269 3.895-3.404 4.311-3.441l.151 1.852c-.416.038-1.059.303-1.928.757l1.55 2.344a51.228 51.228 0 0 1 9.87-8.281c1.777.454 2.722 1.021 2.76 1.626l1.361-.114c9.756-7.222 19.399-12.44 28.966-15.654l.113 1.285c-1.777 2.647-2.987 4.008-3.63 4.084.076.908.378 1.702.945 2.382.152 1.626-4.197 12.592-13.008 32.861-20.003 47.116-36.793 81.98-50.443 104.517.037.454.302 1.059.794 1.815 3.365-.794 5.483-1.626 6.39-2.42l.719-.075.113 1.285 1.248-.113 1.286-.719c.038.378.453.568 1.323.492l.114 1.286c.113 1.247-.605 3.138-2.118 5.747-1.361 1.551-2.836 4.803-4.386 9.756l.037.605 1.248-.113c5.446-6.088 9.567-12.063 12.403-17.886 15.882-4.651 27.983-9.227 36.377-13.727 8.433-.718 14.861-2.949 19.247-6.617l-.075-.681-3.177.946-.718.075-.076-.68c6.202-.946 10.475-2.307 12.857-4.198 12.063-9.302 21.176-15.881 27.34-19.776 12.667-9.303 20.911-18.378 24.654-27.188.681-.152 1.362-.303 2.118-.492 1.777-.076 2.76-.114 3.025-.189-.076-.34.076-.53.416-.605 2.836-.303 1.475.189 3.29-.227l4.764-1.097c-.302.076-.416.227-.34.53l.718-.454c-.151 0-.264-.038-.378-.076l.794-.189-.378.227c.53.076 1.097.038 1.74-.113l.34 1.399-21.667 34.448-4.803 6.013-2.344 7.865.454-.113 2.344-.984-.756 3.063.227.908.642.794c-.302.076-.416.265-.34.605l.114.492.983-.227c1.437-1.248 2.042-2.383 1.815-3.404 1.55.265 2.571.379 3.101.227l.113.492c-.945.227-1.437.983-1.513 2.269l.114.491.529-.113c7.866-8.584 27.151-37.965 42.616-57.893-.491-2.156 7.563-5.143 24.201-9l.53-.113c.605 2.609-.681 8.924-3.857 18.944-2.042 6.051-3.025 9.378-2.874 9.908-2.647 8.054-3.895 12.403-3.744 13.083l-5.899 19.323c-3.819 9.907-6.731 20.306-8.772 31.272.34-.075.869-.038 1.626.151l.831-.718c.076.34.303.454.643.378l-.34-1.399 2.571-.076c.757-.189 1.399-1.134 1.929-2.873-.114-2.61.416-4.009 1.588-4.311 1.588-6.202 2.571-9.302 2.912-9.416 1.474-6.164 2.571-9.68 3.289-10.55 2.231-8.017 3.857-12.138 4.916-12.403l.227.983-1.626 4.198c-2.836 12.592-5.71 22.537-8.621 29.835l.831 3.63.53-.114c7.033-15.125 17.167-45.074 30.364-89.845.379-3.933 2.269-6.996 5.635-9.151l-.757-.794-.113-.416c1.513-.341 2.571-.946 3.176-1.778-.075-.34-1.399-.832-3.97-1.512l6.579-28.209c1.437-1.286 2.269-1.967 2.534-1.967l.113 1.437c-.34.038-.869.227-1.474.643l1.248 1.777c2.268-2.458 4.726-4.575 7.411-6.352 1.361.378 2.042.832 2.118 1.285l.983-.075c7.487-5.483 14.823-9.416 22.045-11.798l.076.945c-1.324 2.004-2.231 3.025-2.723 3.063.076.681.265 1.286.605 1.815.114 1.248-3.138 9.567-9.793 24.995-15.202 35.734-27.945 62.166-38.306 79.334.038.34.265.794.681 1.399 2.533-.605 4.159-1.248 4.802-1.853l.454-.038.076.945 1.058-.075.946-.492c.037.265.378.378 1.021.34l.075 1.021c.076.908-.453 2.345-1.626 4.311-1.096 1.172-2.231 3.63-3.441 7.374l.038.492.983-.076c4.122-4.613 7.26-9.151 9.416-13.613 12.062-3.555 21.251-6.996 27.604-10.399 6.466-.567 11.344-2.231 14.672-5.029l-.038-.492-2.458.719-.529.038-.038-.492c4.689-.681 7.979-1.739 9.756-3.139 9.151-7.033 16.071-12.062 20.76-15.012 14.596-10.625 21.402-20.835 20.57-30.629Zm-2.495.643.34 3.819c-.454.945-.945 1.437-1.399 1.475l-.567-6.504c1.058.378 1.588.756 1.626 1.21ZM27.642 208.789l-.643.038-.113-1.172 2.609-.227.038.605c-.416.038-1.059.265-1.891.756ZM14.899 336.26c-1.513-.681-2.874-.945-4.046-.832l-.152-1.853c-.075-.718.341-1.21 1.248-1.399.832-.076 1.324.529 1.399 1.74 2.194-2.685 3.404-4.047 3.63-4.084l1.4.567c-.454 3.781-1.626 5.71-3.479 5.861Zm136.167-142.445c-.642.076-1.928-1.928-3.781-5.899l-.113-1.172c1.21-.114 2.458 1.853 3.781 5.899l.113 1.172Zm-1.815-14.105-.529 1.248-18.491-7.714c12.327.416 18.68 2.572 19.02 6.466Zm-78.085 67.045-2.609.226-.114-1.172 2.609-.227.114 1.173Zm-2.118-40.272.643-.038.151 1.853c-.605.038-1.399.945-2.382 2.685l-.113-1.286c1.172-1.399 1.777-2.458 1.701-3.214Zm-5.483 12.932.227 2.458-.643.038-.227-2.458.643-.038Zm-2.874 4.613 1.248-.113c-.113 2.042-.681 3.138-1.701 3.214l-.643.038c.794-1.361 1.172-2.42 1.096-3.139Zm-2.155 6.429.718-.076.038.605-1.172 1.966-1.248.114-.038-.605c1.248-.114 1.815-.756 1.702-2.004Zm-2.118 5.785-.378 3.101-.643.038-.264-3.063 1.285-.076Zm-21.213 60.313c-.832 4.236-1.74 6.391-2.685 6.467l-.038-.605c-.227-2.08.681-4.047 2.723-5.862Zm-3.895 8.433.038.605c.075.832-.303 1.323-1.135 1.361l-.038-.605c-.075-.718.303-1.172 1.135-1.361Zm-1.135 17.508 1.967-.189.075.68c-.491.038-1.134.303-1.928.757l-1.248.113c-.076-.643.34-1.134 1.134-1.361Zm55.965-17.281c-11.042 5.445-17.546 9.151-19.474 11.079-11.949 4.16-17.886 6.731-17.773 7.752-10.625 4.197-17.621 7.298-20.986 9.227-.794.075-1.929-.227-3.441-.908-.189-2.155.794-3.895 2.873-5.294 1.853-.151 3.631.114 5.332.832 1.967-1.021 5.408-2.155 10.286-3.365l-.114-1.286-3.933.34c.492-.68 4.273-2.458 11.382-5.331l1.967-.19.038.606c-3.366.302-5.219 1.285-5.635 3.062.076.795.53 1.135 1.362 1.059 2.533-1.588 3.781-2.533 3.743-2.798 4.803-.908 18.075-7.865 39.818-20.835l.114 1.172c.037.567-1.815 2.155-5.559 4.878Zm-33.352 10.966c3.177-.265 5.899-1.551 8.168-3.782.908-.075 1.399.265 1.437 1.059-1.55.151-4.538 1.437-8.886 3.933l-.643.038-.076-1.248Zm53.809-41.331-16.676 13.197c-12.403 8.13-19.058 12.214-20.003 12.29-19.739 10.852-32.028 16.487-36.793 16.903l-.719.075c.606-2.231 9.378-20.192 26.395-53.998 7.487-.643 19.285-4.122 35.356-10.474l3.932-.341c8.13-.718 14.218.87 18.227 4.651l.226 2.458c-3.025 8.697-6.352 13.764-9.945 15.239Zm-32.595-18.34 2.685-.226.037.605-2.684.227-.038-.606Zm37.7-6.39 1.967-.189c1.815.87 2.76 1.626 2.836 2.307l.037.605c-1.739.151-3.365-.757-4.84-2.723Zm5.332-30.365c-1.739 2.08-6.504 5.635-14.294 10.626-2.571.227-12.138 3.933-28.7 11.193a5.25 5.25 0 0 0-2.647-.454l-.114-1.172c-.189-2.382.87-5.37 3.214-9 1.286-6.806 2.685-10.701 4.236-11.646l13.802-31.046c-.152-1.928 2.798-3.403 8.848-4.424l1.966-.189.152 1.777c5.936-.907 9.642-1.437 11.079-1.55 10.966-.945 16.676 1.286 17.13 6.617l1.248-.113-.265-3.139 1.361-.113c3.214 1.777 4.954 3.933 5.181 6.466.151 1.74-.794 3.895-2.799 6.466-.831.076-1.323-.529-1.399-1.739l-1.361.113-.302 3.782c-5.559 8.319-9.605 12.592-12.101 12.819-2.269 3.138-3.668 4.689-4.235 4.726Zm8.47 21.743c-1.134-.756-2.042-1.096-2.722-1.058l-.152-1.853 1.248-.114 2.761 1.626c.113.87-.265 1.324-1.135 1.399Zm8.773 10.399c1.21.492 1.929 1.021 2.08 1.513l-.605.151.038.038c-.114 0-.265.038-.378.075l-.908.719-.227-2.496Zm.832 5.219-.113-.492 1.588-.378.113.491-1.588.379Zm3.819 4.272c1.626-.264 2.42-.378 5.445-1.058l.114.491-5.748 1.324c.076-.265.151-.53.189-.757Zm5.597 2.383c-2.42.227-1.891-.076-5.748.794l-.113-.492 4.802-1.55 2.307-.529.226.907c-1.021.227-.264.227-1.474.87Zm5.105-1.21c-.568.151-1.021-.114-1.286-.757l1.475-.34c.642-.151 1.058.114 1.21.756l-1.399.341Zm13.839-14.899-.113-.492 2.382-.567.227.908-2.496.151Zm14.786 90.678c.151-.681.189-1.172.113-1.513l.529-.113c.643-.152 1.021.075 1.173.68l.113.492-1.928.454Zm10.361-86.783-1.059-.189c-1.702.68-3.139 1.172-4.311 1.437l-.983.227c-.567.151-1.021-.076-1.248-.681l6.92-1.588 2.269-1.059.756.87c-1.096.227-1.891.567-2.344.983Zm5.331-1.702-.113-.491c.34-.076.794-.341 1.286-.832l4.915-1.135.114.492c-2.609.643-4.689 1.286-6.202 1.966Zm.757-9.945c-.341.076-.794.378-1.362.832-.075-.34-.756-.34-2.042-.038-.226-.945 3.404-2.269 10.929-4.008l1.058-.227.227.908c-5.294 1.55-8.243 2.42-8.81 2.533Zm13.235-14.293c-.53 6.012-2.647 9.415-6.391 10.285l-.113-.492-3.328 1.286-1.475.34c-.756.189-1.437.152-2.042-.037l-.302-1.324c-.114-.492 4.689-7.147 14.445-19.928l1.134.189c.416 1.74-.227 4.954-1.928 9.681Zm23.406-20.042-.453.038-.076-.945 1.966-.189.038.491c-.34.076-.832.265-1.475.605Zm-9.642 96.842c-1.135-.53-2.156-.757-3.025-.681l-.114-1.437c-.038-.492.265-.832.908-1.021.643-.076 1.021.378 1.096 1.361 1.626-2.079 2.534-3.138 2.723-3.138l1.021.416c-.378 2.874-1.248 4.386-2.609 4.5Zm103.383-108.148c-.492.038-1.437-1.475-2.912-4.538l-.075-.945c.945-.076 1.928 1.399 2.911 4.424l.076 1.059Zm-1.361-10.815-.454.983-13.991-5.861c9.34.303 14.18 1.929 14.445 4.878Zm-59.33 50.935-1.967.189-.075-.945 1.966-.151.076.907Zm-1.626-30.591.529-.038.114 1.437c-.492.038-1.097.719-1.816 2.042l-.075-.945c.87-1.097 1.285-1.929 1.248-2.496Zm-4.122 9.832.151 1.852-.529.038-.151-1.853.529-.037Zm-2.231 3.516.983-.075c-.113 1.588-.529 2.42-1.248 2.495l-.529.038c.567-1.059.832-1.891.794-2.458Zm-1.588 4.84.454-.037.037.491-.869 1.513-.984.075-.037-.491c1.021-.076 1.474-.605 1.399-1.551Zm-1.588 4.387-.341 2.42-.454.038-.189-2.383.984-.075Zm-16.147 45.868c-.643 3.176-1.323 4.802-2.042 4.878l-.038-.416c-.113-1.588.568-3.101 2.08-4.462Zm-2.987 6.391.038.416c.075.68-.227 1.058-.908 1.096l-.038-.491c-.038-.492.265-.832.908-1.021Zm-.832 13.31 1.512-.113.038.491c-.34.038-.869.227-1.475.567l-.983.076c-.037-.529.265-.87.908-1.021Zm42.465-13.121c-8.319 4.121-13.273 6.92-14.823 8.357-9.076 3.176-13.575 5.142-13.5 5.936-8.054 3.215-13.348 5.521-15.844 6.996-.605.038-1.475-.189-2.609-.719-.151-1.626.605-2.949 2.193-3.932 1.437-.114 2.799.075 4.046.605 1.513-.756 4.122-1.588 7.828-2.534l-.076-.945-3.101.227c.379-.53 3.29-1.891 8.698-4.084l1.512-.114.038.416c-2.571.227-4.008.984-4.311 2.345.038.605.416.907 1.059.832 1.891-1.248 2.798-1.967 2.798-2.193 3.63-.643 13.689-5.937 30.214-15.844l.075.945c.038.416-1.361 1.626-4.197 3.706Zm-25.335 8.319c2.457-.227 4.537-1.172 6.277-2.836.642-.076 1.021.227 1.058.832-1.134.113-3.365 1.058-6.73 2.873l-.53.038-.075-.907Zm40.914-31.424-12.592 10.135c-9.416 6.163-14.52 9.264-15.314 9.34-14.975 8.243-24.277 12.516-27.945 12.818l-.529.038c.453-1.701 7.146-15.352 20.079-40.99 5.634-.492 14.558-3.176 26.81-8.017l3.063-.264c6.163-.53 10.777.68 13.802 3.592l.151 1.853c-2.307 6.504-4.802 10.323-7.525 11.495Zm-24.73-13.915 1.966-.189.038.491-1.966.189-.038-.491Zm28.625-4.878 1.513-.114c1.399.681 2.117 1.286 2.155 1.778l.038.416c-1.324.113-2.572-.568-3.706-2.08Zm3.97-23.029c-1.323 1.588-4.915 4.311-10.777 8.092-1.966.189-9.226 2.988-21.78 8.433-.605-.227-1.286-.303-2.004-.265l-.076-.945c-.151-1.815.643-4.084 2.382-6.844.983-5.219 2.08-8.13 3.214-8.811l10.55-23.596c-.113-1.399 2.118-2.533 6.656-3.403l1.512-.114.114 1.437c4.462-.718 7.26-1.134 8.394-1.248 8.319-.718 12.668.946 13.008 5.03l.984-.076-.19-2.269.984-.075c2.42 1.323 3.705 2.911 3.857 4.802.113 1.361-.568 3.025-2.005 4.954-.642.075-1.02-.379-1.096-1.362l-.983.076-.303 2.836c-4.197 6.39-7.26 9.68-9.189 9.832-1.701 2.306-2.76 3.478-3.252 3.516Zm4.425 15.731-.114-1.437.983-.076 2.118 1.286c.038.605-.265.945-.908 1.021-.907-.567-1.588-.832-2.079-.794Zm-176.024 91.85-.983.227-.832.718c.151.605.529.832 1.172.681.643-.152.908-.53.756-1.135l-.113-.491Zm-3.744-7.45.114.492c.643-.151.907-.529.756-1.134l-.113-.492c-.605.151-.87.529-.757 1.134Zm26.621-63.338 1.135-.265-.227-.983-1.134.265.226.983Zm343.124 28.814c-11.496 2.572-12.933 2.118-15.353 2.307l.076.945 1.059-.075.567-.038-.151-.114 1.247-.491c11.382-1.248 12.706-.794 12.592-2.08l-.037-.454Zm-61.902 8.206.076.945h.151l-.075-.945h-.152Zm-7.109-24.919-1.021-.341c-.832 2.231-1.248 3.555-1.21 3.933l.038.416c.794-.038 1.513-1.399 2.193-4.008Zm71.355 16.524.076.946 1.664.302-.076-.945-1.664-.303Zm-78.237 9.567-2.571-.302-.454.983.038.491 15.314-1.285-.075-.946-12.252 1.059Zm-6.958-33.541-.037-.491-.53.037-.945.606.529.907c.719-.076 1.059-.416.983-1.059Zm92.455 17.017.719-.076c.416-.038.605-.378.567-.983l-.416-.908c-2.609.227-3.819.341-5.937 1.513l-.038-.492-3.138.303c-.076-.946-.34-1.437-.756-1.399l-1.626.151c-1.891.151-2.799.075-3.744.794-.038-.34-.151-.492-.34-.492l-1.815.152-1.059.605c-.038-.341-.151-.492-.34-.492l-.643.567-.038-.491-2.534-.189-.605.037.076.946 1.286.34 1.21-.076c.416.265.869.341 1.399.303l1.059-.529.037.416c-5.936 1.474-5.899 1.21-9.982 1.89-.454-.302-.795-.454-1.021-.416l-.076.076c-.454-.038-.718-.34-.756-.832l2.117-.265c.152 0 .265.152 1.437.378 1.702-.831 1.777-1.172 2.685-1.247l-.076-.946c-5.823 1.135-3.479.378-10.777 1.021l-.34.038-.076-.945c9.378-1.135 6.24-.492 9.454-1.399.038.34.151.491.34.491a2.206 2.206 0 0 1 1.286-.643l.643-.038c3.29-.264 4.386.379 10.89-1.436l.038.415 1.059-.529.983-.076c-.076-.945 1.361-1.096 1.853-1.134l-.076-1.021c-11.42 2.307-14.407 1.664-17.583 2.571l-.038-.416c-2.987.53-3.101.303-3.857.341-.227.038-.567.227-.945.605-.038-.341-.152-.492-.379-.492-.113 0-.151.038-.189.038l-9.68 1.588c-.038-.264-.151-.416-.378-.378-5.029 1.059-3.668 1.248-10.399 1.853-.302.038-.718.189-1.248.529-.038-.264-.189-.416-.529-.378l-4.122.341-2.76.68c-.038-.264-.189-.416-.53-.378-1.55.416-2.911.681-4.008.756h-.076c-.68.076.341-.189-.189-.416l-.832.492c-1.21.113-.567-.076-4.726-.038-7.298.908-6.504 1.021-7.298 1.059l-2.723-.189c.038.265-.113.454-.416.454-3.101-.416-4.689-.908-4.727-1.475.416-2.95 1.135-4.462 2.156-4.538l.529-.038-.454.984.53-.038c.983-.53 1.437-1.021 1.399-1.475l-.076-1.021-.983.076-.076-.946c-.075-.718.038-1.361.303-1.89l2.231-3.593.076.946 1.058-.076-.075-.945-.605-.87c.794-.681 1.399-1.059 1.89-1.097l-.037-.491-1.437.113-.114-1.437c2.874-5.974 4.235-9.453 4.16-10.436l1.021.416c.643-.038.945-.416.907-1.097l-.983.076-.038-.416a3.613 3.613 0 0 1 .378-2.004c1.551-1.626 2.269-3.252 2.118-4.954.302-.038.454.113.492.454 1.323-.757 2.344-2.761 3.1-6.088 2.345-4.235 5.672-12.706 10.021-25.373 8.319-22.386 7.979-24.769 9.151-30.062l-.983.075c.075.681-.076 1.324-.378 1.929-.681-.265-1.21-.416-1.589-.378l-.037-.416c-.152-1.929.642-4.236 2.458-6.958l.453-.038.832 3.252.983-.076c-.037-.227.227-1.512.757-3.894-.038-.492-.416-.795-1.173-.832l-.945.605c-.076-.681-.038-2.458.076-5.294l-.492.038c-.832-.832-1.248-1.513-1.286-2.08l-5.407.529c-.038-.378-.227-.945-.605-1.664-.038-.491 1.172-.983 3.668-1.474l1.097.416 1.021-.605c.037.34.226.491.605.453l1.021-.605c.037.341.226.492.605.454l.491-.038-.075-1.096c-.757.075-2.761.075-5.937-.038l-1.021.68-.038-.605c-25.373 2.08-39.78 3.252-43.221 3.593-.454.038-2.231 0-5.37-.076.038.416-.34.643-1.096.719l-1.097-.492-3.706.945c-.87.076-2.344.038-4.386-.189-.567.454-1.248.719-2.08.794-.454.038 5.407-.302 10.853-.68-.568.453-1.437.718-2.647.832-.832.075-1.551-.038-2.156-.379-.832.379-3.517.984-8.016 1.891l-1.097-.416-17.697 2.723c-.681-.34-1.475-.454-2.382-.378-.945.075-2.534.416-4.727 1.021l-8.546 3.554.643 1.059c.416-.038 1.021-.265 1.739-.681l3.026.265-.379 2.836c-2.798 1.248-4.424 3.101-4.878 5.445-4.197 1.853-6.277 3.177-6.277 3.971l.038.491.643-.038 1.134-.605 1.324 1.589.189 2.193c.076.68-6.996 15.541-21.138 44.582-12.252 27.983-18.68 43.297-19.285 46.058-4.197 1.172-6.618 2.874-7.336 5.142.076.719 1.324 1.21 3.744 1.4l.113 1.096-1.097 1.815.19 2.193c.113 1.135 3.176 2.005 9.188 2.61-.038-.379.152-.605.567-.643.114 1.361-.264 4.008-1.134 7.941l.643-.038c2.496-3.403 3.668-5.748 3.554-7.034l.53-.037c.605-.038 1.248.642 2.004 2.117-.756.303-3.403 6.315-7.941 18.075l.643 1.059.643-.038c5.558-14.067 9.037-21.856 10.474-23.331 7.298-.643 19.928-1.928 37.852-3.857l1.134-.681c.038.379.265.568.681.53l1.172-.114 1.135-.68c.037.378.264.567.68.529l13.575-1.172c3.593-.303 5.294-1.399 5.143-3.252-.038-.492 2.08-1.059 6.353-1.664.416-.038 1.021.076 1.853.34-.038-.34 2.117-.68 6.428-1.058.114-2.269.832-3.479 2.118-3.593l-.114-1.096c-1.21.113-2.571.416-4.159.945-2.836-.151-4.651-.378-5.408-.643-.756.416-1.323.643-1.739.681l-9.454.302-1.134.605c-.038-.34-.265-.491-.681-.453l-.529.037-1.21.605c-.038-.34-1.021-.605-2.987-.869l-1.21.718-2.345.189-.038-.605c12.176-1.323 18.189-2.987 18.037-4.953.795-.076 1.211.302 1.286 1.096l3.555-.907-.114-1.097-29.154.794c.038.378-.152.605-.567.643l-3.555-.303c-.908.076-1.664.341-2.269.795l-1.323-.492c-3.668.303-6.391.756-8.206 1.323-2.496-.189-5.256-.151-8.319.114l-6.542.567-3.025-.34c-.151-1.929 3.592-11.42 11.306-28.436 2.231-5.748 4.273-9.34 6.24-10.702.416-.037 1.021.114 1.853.454l4.651-1.588 2.382.378c4.008-.34 8.659-1.475 13.991-3.441 1.324-.113 2.307-.038 3.025.265l3.555-.832 10.588-.908c4.499-.378 9.377-1.361 14.671-2.987l-.113-1.097c-1.966.19-2.987-.151-3.063-.945-.113-1.475-1.55-2.08-4.311-1.853l-.113-1.096 2.912-.832 7.638-.643-.114-1.097c-.302.038-1.852 0-4.726-.113l-.114-1.172 2.95-.265c.794-.076 1.134-.454 1.059-1.21-3.971.113-5.975-.076-6.013-.605-27.68 1.361-41.557 1.626-41.633.756-.416.038-.983.303-1.739.756l-.719-1.134c7.336-15.579 11.647-23.445 12.895-23.558.038.605-.265 1.588-.946 2.912l.038.491 1.172-.113c2.912-6.958 5.37-10.55 7.412-10.702 8.697-.756-1.21-1.323 17.394-4.235.757.341 1.286.492 1.664.454 7.298-1.475 17.47-3.025 30.516-4.613l-.076-1.097-6.957.643-.076-1.097c.832-.075 1.512-.34 2.08-.794l.037.605c.379-.038.908-.302 1.589-.756 1.21-.113 2.117 0 2.76.34 2.42-.643 4.387-1.021 5.823-1.172l4.349-.416c1.059-.681 1.55-1.286 1.513-1.853l-.038-.491c-1.097.113-2.345.038-3.819-.227-.038-.605.264-1.021.983-1.21l8.092-.757 3.706-.945c.037.416.227.567.529.567.378-.037.908-.302 1.588-.756.189.038.416.038.605.076-.491 1.021-1.059 2.495-1.626 4.424l-1.059.076c-.075-.719-.264-1.362-.605-1.929l-.529.038c-9.832 27.377-14.218 40.12-23.293 61.145-1.664 5.369-3.063 8.357-4.273 9 .038.605.416.907 1.059.832.226 2.646-.379 5.256-1.853 7.827-4.198 12.1-6.996 18.718-8.433 19.928l.945 5.71c.038.605-.264.945-.907 1.021l-.983.075c-.151-1.588-.719-2.344-1.74-2.231l-.529.038c-1.286 2.004-2.269 4.311-2.912 6.996l.983-.076c1.324-.87 1.929-1.891 1.816-3.063l1.966-.189 1.134.416c-.907 1.437-1.323 2.571-1.248 3.441l.53.908-1.286 3.025.038.491c1.134-.113 2.382.265 3.706 1.059.907-.075 1.89-.491 2.987-1.21 1.134-.113 5.37-.151 12.668-.151l3.668-1.248c4.462-.038 5.18.076 9.037-.265l1.588-.151.832-.567.038.491c4.046-.34 4.311-.075 7.487.303l.038.492-2.231.189.076.945c.68-.076 1.285-.265 1.777-.681.567-.038.907.265.945.946-.907.075-1.928.302-3.063.68l-.983-.34c-1.55.416-1.21.529-2.269.605l-1.55-.303c.038.265-.114.454-.378.454.038.605.378.908.945.87l1.588-.151 8.282-.719 3.138-.68c.038.264.151.416.416.378l1.513-.567 2.836-.227c2.193-.189 2.155-.341 6.92-1.097-.038-.302.075-.416.302-.454l.038.416c7.752-1.323 8.243-1.399 9.491-1.815l.114.227c1.928-.454.832-.34 1.361-.718.038.34.151.491.34.491l1.362-.113-.076-1.021-2.76-.038-.038-.076c-.114.038-.189.038-.303.076h-.378v.076c-1.853.378-1.891.113-3.101.226l-6.92.379-.037-.492 3.857-.529 1.399-.114.794-.567.038.492c5.445-.454 7.373.907 32.557-4.463 1.362-.113 1.248-1.247 2.118-3.592a2.354 2.354 0 0 1-1.324-.302c-2.079.794-3.176.416-7.184 1.058-.341.038-.605-.264-.719-.869l-.037-.416 3.857.113c.718-.075 2.117-.189 4.197-1.361 0 .34-.756.529-.303.492Zm-186.195 2.987-1.777.151c-.076-.718.869-3.441 2.836-8.092l1.172-.114c.038 1.097-.681 3.782-2.231 8.055Zm2.155-8.622-.038-.491c-.037-.605.341-1.021 1.173-1.21l.037.491c.038.719-.34 1.135-1.172 1.21Zm23.634 18.264.038.492-2.95.265-.038-.492 2.95-.265Zm-3.555-.302c.038.605-.869 1.286-2.836 1.966l-3.63-.265-1.172.114-.113-1.097 7.751-.718Zm23.899-110.001-1.778.151-.037-.605c-.038-.605.302-1.021 1.058-1.21l.643-.037 1.21.491c.038.719-.302 1.135-1.096 1.21Zm27.037-5.294.567-.038.075 1.097-1.625.151c-.038-.605.264-1.021.983-1.21Zm-6.807 2.383-2.685-.303-.037-.492c3.516-.302 4.688-.68 6.844-1.285.038.416.416.567 1.096.491l.076 1.097-1.059.113c-.832.076-1.55-.037-2.155-.378-.643.416-1.324.681-2.08.757Zm3.366 9.793-.038-.491 4.348-.416.038.491-4.348.416Zm4.651-3.781-.038-.605 2.117-.189.038.605-2.117.189Zm.491-7.412-.567.038.492-1.172 4.84-.454.038.605c-1.248.114-2.874.454-4.803.983Zm2.458 10.437-.075-1.097 2.117-.189c.719-.075 1.097.265 1.135 1.021l-3.177.265Zm12.819-17.47-2.723.756-.491.038c-1.286.114-2.95.076-4.916-.113 3.517-.227 6.882-.492 8.13-.681Zm-2.912 12.101.038.491-3.743.34-.038-.491 3.743-.34Zm6.126 2.911c-.038-.454-.756-.756-2.231-.907l-3.743 1.058-2.874.114c-.643-.454-.983-.756-1.021-.983l3.327.189 7.488-1.21 3.819.151.038.605c-1.891.189-3.479.529-4.803.983Zm38.533-9.945c.453.038.756.038.869.038 1.324-1.286 2.799-2.307 4.5-3.025-1.361 5.974-3.479 10.399-6.39 13.273l-2.118-1.286c1.777-4.5 2.836-7.487 3.139-9Zm-6.504 11.155.529-.038c-.718 1.362-1.361 2.08-1.891 2.118l-.113-1.437c.34 0 .832-.227 1.475-.643Zm-4.198 10.021c1.021-4.084 2.004-6.391 2.912-6.996l.038.492c-.53 3.781-1.362 5.785-2.458 5.937l.189 2.382c-.908 1.286-1.324 2.269-1.286 3.025l-.529.038-.303-3.29c.605-.076 1.097-.605 1.437-1.588Zm-1.626 5.445c.038.567-.34 1.891-1.096 3.933l-.53.038-.113-1.437c.718-1.664 1.323-2.496 1.739-2.534Zm-30.516 88.56-.037-.416.983-.075.113 1.437c-.529.037-.907-.265-1.059-.946Zm43.6 1.135c-.038-.341-.189-.492-.529-.454l-2.458.227-.038-.492h.227l5.823-.491.038.491c-1.702.076-2.723.341-3.063.719Zm-2.912-1.21c.227.113.114.226 0 .302-.113-.038-.264-.151 0-.302Zm.303-6.807-3.252.265-.038-.492 2.949-.264 2.572-.643c.038.302.189.416.529.378 3.063-.53 2.761-.681 4.235-.794.492-.038.794.264.832.869l-7.827.681Zm11.382-.983c-1.815-.189-1.929-.34-3.214-.227l-.038-.416 2.911-.265.038.416c-.302.038.794.114.303.492Zm.227-.529-.038-.416 1.588-.152.038.416-1.588.152Zm3.516-.303-.038-.416c.265-.038.643-.227 1.135-.605.794-.076 1.21.454 1.286 1.059l-2.383-.038Zm4.5-.567-.038-.492 1.929-.151.038.492-1.929.151Zm2.685-.227c-.038-.567.189-.908.681-.983l.642.832c-.037-.265.076-.416.303-.454l.492.907-2.118-.302Zm-28.55 12.327-.075-.945-.303.038.076.945.302-.038Zm66.439-17.205c.303-.189.454-.378-.264-.492-.341.379.378.492-.378.53l.037.34c.076-.076.265-.189.416-.302l-.416.34v.038l-.794 1.021 1.589-.568h.189l-.076-.945-.303.038Zm2.761 2.155-.303.038.076.946 2.231-.19c-.038-.605-1.513-.794-2.004-.794Zm-3.441-1.663.038-.038v-.038s-.038.038-.038.076Z"/><path fill="#F9DC3E" d="m361.387 199.714.038.605 1.248-.113c-.038-.379.113-.984.378-1.74l-.113-1.096c-.53.037-1.059.831-1.551 2.344Zm-11.949-28.739-.113-1.096-1.778.151.114 1.097 1.777-.152Zm-34.675 64.927c-.076-1.021-3.252-4.992-9.529-11.987-.114-1.286 2.042-3.214 6.466-5.748l12.63-11.004c2.836-3.592 4.5-9.415 4.991-17.507l-.151-1.853c-.492-5.597-4.538-10.097-12.214-13.538-4.538-3.063-12.705-4.764-24.503-5.067-9.756.832-22.5 4.311-38.192 10.475-4.311 3.1-9.227 6.201-14.748 9.302l.076.945c.34-.038.869-.227 1.475-.643.642-.075 1.02.227 1.058.832l.946-.491.453-.038.038.416c.038.491-3.365 3.176-10.247 7.979l.529.983-.454.038-1.134-.416c.038.34-.454.567-1.399.642l.038.416 1.096 1.362c-.34.038-.87-.114-1.588-.378-1.588.151-3.139.983-4.689 2.571l.643-2.798c2.307-9.945 3.895-18.756 4.727-26.394l-.114-.492c-1.588-1.021-3.138-2.458-4.575-4.273.038-1.172.038-1.853 0-2.004l-.114-.416-.453.113c-4.992 7.488-14.597 20.269-28.852 38.344-10.853 12.856-16.45 20.003-16.79 21.44-4.424 4.576-6.542 7.336-6.315 8.281-1.172.757-1.664 1.513-1.474 2.345-.341.075-.568-.038-.643-.378-1.891 3.063-4.689 5.029-8.433 5.899l-3.932.907c-.53.114-.795.492-.757 1.135l.114.491 1.474-.34.114.416-3.328 1.286-5.899 1.361-3.1.189c-.454.454 2.457-.038 1.323.227l-3.857.907c-2.344.53-3.63.341-3.857-.605l-.454.114c.076.416.114.718.038.983l-.227-.945-3.101.718c-.226-1.437-4.424-6.655-12.554-15.655-.151-1.739 2.723-4.273 8.584-7.563l16.562-14.558c3.706-4.765 5.899-12.403 6.618-22.915l-.227-2.458c-.643-7.412-6.012-13.386-16.109-18-5.974-4.046-16.713-6.201-32.217-6.541-12.857 1.096-29.646 5.672-50.293 13.65-5.672 4.122-12.138 8.206-19.398 12.252l.113 1.286c.492-.038 1.135-.303 1.929-.757.832-.075 1.285.303 1.361 1.059l1.286-.718.643-.038.037.605c.038.605-4.462 4.122-13.575 10.55l.719 1.135-.643.037-1.399-.491c.038.378-.605.643-1.929.756l.076.681 1.512 1.663c-.491.038-1.172-.113-2.042-.415-2.949.264-5.823 2.382-8.659 6.39l.719 1.135c2.457-2.269 3.894-3.404 4.31-3.442l.152 1.853c-.416.038-1.059.303-1.929.757l1.55 2.344c2.988-3.214 6.278-5.975 9.87-8.281 1.777.454 2.722 1.021 2.76 1.626l1.362-.114c9.756-7.222 19.398-12.44 28.965-15.655l.113 1.286c-1.777 2.647-2.987 4.008-3.63 4.084.076.908.378 1.702.946 2.382.151 1.626-4.198 12.592-13.008 32.861C30.44 277.611 13.651 312.475 0 335.012c.038.454.303 1.059.794 1.815 3.366-.794 5.483-1.626 6.391-2.42l.718-.076.114 1.286 1.247-.113 1.286-.719c.038.378.454.567 1.324.492l.113 1.285c.113 1.248-.605 3.139-2.118 5.748-1.361 1.551-2.836 4.803-4.386 9.756l.038.605 1.248-.113c5.445-6.088 9.567-12.063 12.403-17.886 15.881-4.651 27.982-9.227 36.377-13.727 8.432-.718 14.86-2.949 19.247-6.617l-.076-.681-3.176.946-.719.075-.075-.68c6.201-.946 10.474-2.307 12.856-4.198 12.063-9.302 21.176-15.882 27.34-19.776 12.668-9.303 20.911-18.378 24.655-27.189.68-.151 1.361-.302 2.117-.491 1.777-.076 2.761-.114 3.025-.189-.075-.341.076-.53.416-.605 2.836-.303 1.475.189 3.29-.227l4.765-1.097.794-.189-.378.227c.529.076 1.096.038 1.739-.113l.34 1.399-21.667 34.448-4.802 6.013-2.345 7.865.454-.114 2.344-.983-.756 3.063.227.908.643.794c-.303.075-.416.265-.341.605l.114.491.983-.226c1.437-1.248 2.042-2.383 1.815-3.404 1.551.265 2.571.378 3.101.227l.113.492c-.945.227-1.437.983-1.512 2.269l.113.491.53-.113c7.865-8.584 27.15-37.965 42.616-57.893-.492-2.156 7.563-5.143 24.201-9l.529-.113c.605 2.609-.681 8.924-3.857 18.944-2.042 6.051-3.025 9.378-2.874 9.908-2.647 8.054-3.895 12.402-3.743 13.083l-5.899 19.323c-3.819 9.907-6.731 20.306-8.773 31.272.34-.076.87-.038 1.626.151l.832-.718c.075.34.302.454.643.378l-.341-1.399 2.572-.076c.756-.189 1.399-1.134 1.928-2.874-.113-2.609.416-4.008 1.588-4.31 1.589-6.202 2.572-9.303 2.912-9.416 1.475-6.164 2.571-9.68 3.29-10.55 2.231-8.017 3.857-12.138 4.916-12.403l.227.983-1.626 4.197c-2.837 12.592-5.71 22.538-8.622 29.836l.832 3.63.529-.114c7.034-15.125 17.168-45.074 30.365-89.845.378-3.933 2.269-6.996 5.634-9.151l-.756-.795-.114-.415c1.513-.341 2.572-.946 3.177-1.778-.076-.34-1.399-.832-3.971-1.512l6.58-28.209c1.437-1.286 2.269-1.967 2.533-1.967l.114 1.437c-.34.038-.87.227-1.475.643l1.248 1.777c2.269-2.458 4.727-4.575 7.411-6.352 1.362.378 2.042.831 2.118 1.285l.983-.075c7.487-5.483 14.823-9.416 22.046-11.798l.075.945c-1.323 2.004-2.231 3.025-2.722 3.063.075.681.264 1.286.605 1.815.113 1.248-3.139 9.567-9.794 24.995-15.201 35.734-27.944 62.166-38.305 79.333.037.341.264.795.68 1.4 2.534-.605 4.16-1.248 4.803-1.853l.453-.038.076.945 1.059-.075.945-.492c.038.265.378.378 1.021.34l.076 1.021c.075.908-.454 2.345-1.626 4.311-1.097 1.172-2.231 3.63-3.441 7.374l.037.491.984-.075c4.121-4.614 7.26-9.151 9.415-13.613 12.063-3.555 21.252-6.996 27.604-10.399 6.467-.567 11.345-2.231 14.672-5.029l-.038-.492-2.458.719-.529.037-.038-.491c4.689-.681 7.979-1.74 9.756-3.139 9.151-7.033 16.071-12.062 20.76-15.012 14.596-10.626 21.403-20.835 20.571-30.629Zm-2.496.643.34 3.819c-.453.945-.945 1.437-1.399 1.475l-.567-6.504c1.059.378 1.588.756 1.626 1.21ZM25.94 205.764l-.643.038-.113-1.172 2.609-.227.038.605c-.416.038-1.059.265-1.891.756ZM13.197 333.235c-1.513-.681-2.874-.945-4.046-.832L9 330.55c-.076-.718.34-1.21 1.248-1.399.831-.076 1.323.529 1.399 1.739 2.193-2.684 3.403-4.046 3.63-4.084l1.399.568c-.454 3.781-1.626 5.71-3.479 5.861ZM149.365 190.79c-.643.076-1.929-1.929-3.782-5.899l-.113-1.172c1.21-.114 2.458 1.853 3.781 5.899l.114 1.172Zm-1.815-14.105-.53 1.248-18.491-7.714c12.328.416 18.68 2.572 19.021 6.466Zm-78.086 67.044-2.609.227-.113-1.172 2.609-.227.113 1.172Zm-2.117-40.271.642-.038.152 1.853c-.605.037-1.399.945-2.383 2.684l-.113-1.285c1.172-1.399 1.777-2.458 1.702-3.214Zm-5.483 12.932.226 2.458-.642.038-.227-2.458.643-.038Zm-2.874 4.613 1.248-.113c-.114 2.042-.681 3.138-1.702 3.214l-.643.038c.794-1.361 1.172-2.42 1.097-3.139Zm-2.156 6.429.719-.076.038.605-1.173 1.966-1.248.114-.037-.605c1.248-.114 1.815-.757 1.701-2.004Zm-2.117 5.785-.378 3.101-.643.038-.265-3.063 1.286-.076ZM33.503 293.53c-.832 4.235-1.739 6.391-2.685 6.466l-.037-.605c-.227-2.079.68-4.046 2.722-5.861Zm-3.895 8.433.038.605c.076.832-.302 1.323-1.134 1.361l-.038-.605c-.076-.718.302-1.172 1.134-1.361Zm-1.134 17.508 1.966-.189.076.68c-.492.038-1.135.303-1.929.756l-1.248.114c-.075-.643.341-1.135 1.135-1.361Zm55.964-17.281c-11.041 5.445-17.545 9.151-19.474 11.079-11.949 4.16-17.886 6.731-17.772 7.752-10.626 4.197-17.622 7.298-20.987 9.227-.794.075-1.928-.227-3.441-.908-.189-2.155.794-3.895 2.874-5.294 1.853-.151 3.63.114 5.332.832 1.966-1.021 5.407-2.155 10.285-3.365l-.113-1.286-3.933.34c.491-.68 4.273-2.458 11.382-5.332l1.966-.189.038.605c-3.365.303-5.218 1.286-5.634 3.063.075.794.529 1.135 1.361 1.059 2.534-1.588 3.781-2.533 3.744-2.798 4.802-.908 18.075-7.865 39.818-20.836l.113 1.173c.038.567-1.815 2.155-5.559 4.878Zm-33.351 10.966c3.176-.265 5.899-1.551 8.167-3.782.908-.075 1.399.265 1.437 1.059-1.55.151-4.537 1.437-8.886 3.933l-.643.038-.075-1.248Zm53.809-41.331L88.22 285.06c-12.403 8.13-19.058 12.214-20.042 12.289-19.738 10.853-32.028 16.487-36.792 16.903l-.719.076c.605-2.231 9.378-20.193 26.394-53.998 7.487-.643 19.285-4.122 35.356-10.475l3.933-.34c8.13-.719 14.218.87 18.226 4.651l.227 2.458c-2.987 8.659-6.315 13.726-9.907 15.201ZM72.3 253.485l2.685-.227.038.606-2.685.226-.038-.605Zm37.701-6.39 1.966-.189c1.815.869 2.76 1.626 2.836 2.306l.038.605c-1.74.152-3.366-.756-4.84-2.722Zm5.331-30.365c-1.739 2.08-6.504 5.635-14.293 10.626-2.572.227-12.139 3.933-28.701 11.193a5.24 5.24 0 0 0-2.647-.454l-.113-1.172c-.19-2.382.869-5.37 3.214-9 1.285-6.806 2.685-10.701 4.235-11.646l13.802-31.046c-.151-1.928 2.798-3.403 8.848-4.424l1.967-.189.151 1.777c5.937-.907 9.643-1.437 11.079-1.55 10.966-.945 16.676 1.286 17.13 6.617l1.248-.113-.265-3.139 1.362-.113c3.214 1.777 4.953 3.933 5.18 6.466.151 1.74-.794 3.895-2.798 6.466-.832.076-1.324-.529-1.399-1.739l-1.362.113-.302 3.782c-5.559 8.319-9.605 12.592-12.1 12.819-2.269 3.138-3.668 4.688-4.236 4.726Zm8.471 21.743c-1.135-.756-2.042-1.096-2.723-1.059l-.151-1.852 1.248-.114 2.76 1.626c.114.87-.265 1.324-1.134 1.399Zm8.772 10.399c1.211.492 1.929 1.021 2.08 1.513l-.605.151.038.038a1.37 1.37 0 0 0-.378.075l-.908.719-.227-2.496Zm.832 5.218-.113-.491 1.588-.378.114.491-1.589.378Zm3.82 4.273c1.626-.264 2.42-.378 5.445-1.058l.113.491-5.747 1.324c.075-.265.151-.53.189-.757Zm5.596 2.383c-2.42.227-1.891-.076-5.748.794l-.113-.492 4.84-1.55 2.307-.53.227.908c-1.059.227-.303.227-1.513.87Zm5.105-1.21c-.567.151-1.021-.114-1.286-.757l1.475-.34c.643-.151 1.059.113 1.21.756l-1.399.341Zm13.84-14.899-.114-.492 2.383-.567.227.908-2.496.151Zm14.785 90.678c.151-.681.189-1.173.113-1.513l.53-.113c.643-.152 1.021.075 1.172.68l.114.492-1.929.454Zm10.361-86.783-1.059-.189c-1.701.68-3.138 1.172-4.311 1.437l-.983.226c-.567.152-1.021-.075-1.248-.68l6.92-1.588 2.269-1.059.756.87c-1.096.226-1.89.567-2.344.983Zm5.332-1.702-.114-.491c.341-.076.794-.341 1.286-.832l4.916-1.135.113.492c-2.609.643-4.689 1.285-6.201 1.966Zm.756-9.945c-.34.076-.794.378-1.361.832-.076-.34-.757-.34-2.042-.038-.227-.945 3.403-2.269 10.928-4.008l1.059-.227.227.908c-5.294 1.55-8.244 2.42-8.811 2.533Zm13.235-14.294c-.529 6.013-2.647 9.416-6.391 10.286l-.113-.492-3.328 1.286-1.474.34c-.757.189-1.437.151-2.042-.038l-.303-1.323c-.113-.492 4.689-7.147 14.445-19.928l1.134.189c.416 1.74-.226 4.954-1.928 9.68Zm23.407-20.041-.454.038-.076-.945 1.967-.19.037.492c-.34.076-.831.265-1.474.605Zm-9.643 96.841c-1.134-.529-2.155-.756-3.025-.68l-.113-1.437c-.038-.492.264-.832.907-1.021.643-.076 1.021.378 1.097 1.361 1.626-2.08 2.533-3.138 2.722-3.138l1.021.416c-.378 2.873-1.248 4.386-2.609 4.499Zm103.383-108.147c-.491.038-1.437-1.475-2.911-4.538l-.076-.945c.945-.076 1.929 1.399 2.912 4.424l.075 1.059Zm-1.361-10.815-.454.983-13.991-5.861c9.34.302 14.18 1.928 14.445 4.878Zm-59.33 50.935-1.966.189-.076-.945 1.966-.189.076.945Zm-1.626-30.591.529-.038.114 1.437c-.492.038-1.097.718-1.815 2.042l-.076-.945c.87-1.097 1.286-1.929 1.248-2.496Zm-4.122 9.831.152 1.853-.53.038-.151-1.853.529-.038Zm-2.231 3.517.983-.076c-.113 1.589-.529 2.421-1.247 2.496l-.53.038c.567-1.059.832-1.891.794-2.458Zm-1.588 4.84.454-.038.038.492-.87 1.513-.983.075-.038-.491c1.021-.076 1.475-.605 1.399-1.551Zm-1.588 4.387-.34 2.42-.454.038-.189-2.383.983-.075Zm-16.147 45.868c-.642 3.176-1.323 4.802-2.042 4.878l-.037-.416c-.114-1.588.567-3.101 2.079-4.462Zm-2.987 6.39.038.416c.076.681-.227 1.059-.908 1.097l-.037-.492c-.038-.491.264-.831.907-1.021Zm-.832 13.311 1.513-.113.038.491c-.341.038-.87.227-1.475.567l-.983.076c-.038-.529.264-.87.907-1.021Zm42.465-13.121c-8.319 4.121-13.272 6.92-14.823 8.356-9.075 3.177-13.575 5.143-13.499 5.937-8.055 3.214-13.349 5.521-15.844 6.996-.605.038-1.475-.189-2.61-.719-.151-1.626.605-2.949 2.194-3.932 1.437-.114 2.798.075 4.046.605 1.512-.757 4.121-1.588 7.827-2.534l-.075-.945-3.063.265c.378-.53 3.289-1.891 8.697-4.084l1.512-.114.038.416c-2.571.227-4.008.983-4.311 2.345.038.605.416.907 1.059.831 1.891-1.247 2.798-1.966 2.798-2.193 3.631-.643 13.689-5.936 30.214-15.844l.075.946c0 .378-1.399 1.588-4.235 3.668Zm-25.335 8.319c2.458-.227 4.538-1.173 6.277-2.836.643-.038 1.021.226 1.059.831-1.135.114-3.366 1.059-6.731 2.874l-.529.038-.076-.907Zm40.915-31.424-12.592 10.134c-9.416 6.164-14.521 9.265-15.315 9.34-14.974 8.244-24.277 12.517-27.945 12.819l-.529.038c.454-1.701 7.147-15.352 20.079-40.99 5.634-.492 14.559-3.176 26.81-8.017l3.063-.264c6.164-.53 10.777.68 13.802 3.592l.152 1.853c-2.307 6.504-4.803 10.323-7.525 11.495Zm-24.731-13.915 1.967-.189.037.491-1.966.189-.038-.491Zm28.625-4.878 1.513-.114c1.399.681 2.118 1.286 2.155 1.778l.038.416c-1.323.113-2.571-.568-3.706-2.08Zm3.971-23.029c-1.324 1.588-4.916 4.311-10.777 8.092-1.966.189-9.227 2.988-21.781 8.433-.605-.227-1.286-.303-2.004-.265l-.076-.945c-.151-1.815.643-4.084 2.383-6.845.983-5.218 2.079-8.13 3.214-8.81l10.55-23.596c-.114-1.399 2.117-2.534 6.655-3.403l1.513-.114.113 1.437c4.462-.718 7.26-1.134 8.395-1.248 8.319-.718 12.667.946 13.008 5.03l.983-.076-.189-2.269.983-.076c2.42 1.324 3.706 2.912 3.857 4.803.113 1.361-.567 3.025-2.004 4.953-.643.076-1.021-.378-1.097-1.361l-.983.076-.302 2.836c-4.198 6.39-7.261 9.68-9.189 9.831-1.702 2.307-2.761 3.479-3.252 3.517Zm4.424 15.731-.113-1.437.983-.076 2.117 1.286c.038.605-.264.945-.907 1.021-.908-.567-1.588-.832-2.08-.794Zm-176.024 91.85-.983.227-.832.718c.152.605.53.832 1.173.681.642-.152.907-.53.756-1.135l-.114-.491Zm-3.743-7.45.113.492c.643-.151.908-.53.757-1.135l-.114-.491c-.605.151-.87.529-.756 1.134Zm26.772-50.292.719-.454c-.152 0-.265-.038-.379-.076-.264.076-.378.265-.34.53Zm-.151-13.046 1.134-.265-.227-.983-1.134.265.227.983Zm267.231 38.192-2.572-.302-.454.983.038.491 15.315-1.285-.076-.946-12.251 1.059Zm13.991-1.172.075.945h.152l-.076-.945h-.151Zm64.245-8.395.076.945 1.664.303-.076-.945-1.664-.303Zm-2.344.189c-11.495 2.572-12.932 2.118-15.352 2.307l.075.945 1.059-.075.567-.038-.151-.114 1.248-.491c11.382-1.248 12.705-.794 12.592-2.08l-.038-.454Zm-69.01-16.714-1.021-.34c-.832 2.231-1.248 3.555-1.21 3.933l.037.416c.795-.038 1.513-1.399 2.194-4.009Zm-13.84-7.449-.038-.491-.529.037-.946.605.53.908c.718-.076 1.058-.416.983-1.059Zm30.062 31.083-.076-.945-.302.038.075.945.303-.038Zm62.393-14.067.718-.075c.416-.038.605-.378.567-.983l-.416-.908c-2.609.227-3.819.34-5.936 1.513l-.038-.492-3.139.303c-.075-.946-.34-1.437-.756-1.4l-1.626.152c-1.891.151-2.798.075-3.744.794-.037-.341-.151-.492-.34-.492l-1.815.151-1.059.605c-.038-.34-.151-.491-.34-.491l-.643.567-.038-.491-2.533-.19-.605.038.075.946 1.286.34 1.21-.076c.416.265.87.341 1.399.303l1.059-.53.038.416c-5.937 1.475-5.899 1.21-9.983 1.891-.454-.302-.794-.454-1.021-.416l-.076.076c-.453-.038-.718-.341-.756-.832l2.118-.265c.151 0 .264.151 1.437.378 1.701-.832 1.777-1.172 2.684-1.248l-.075-.945c-5.824 1.135-3.479.378-10.777 1.021l-.341.038-.075-.945c9.378-1.135 6.239-.492 9.453-1.4.038.341.152.492.341.492a2.206 2.206 0 0 1 1.285-.643l.643-.038c3.29-.264 4.387.378 10.891-1.437l.037.416 1.059-.529.983-.076c-.075-.945 1.362-1.096 1.853-1.134l-.075-1.021c-11.42 2.307-14.408 1.664-17.584 2.571l-.038-.416c-2.987.53-3.1.303-3.857.341-.227.037-.567.227-.945.605-.038-.341-.151-.492-.378-.492-.114 0-.151.038-.189.038l-9.681 1.588c-.037-.265-.151-.416-.378-.378-5.029 1.059-3.668 1.248-10.399 1.853-.302.038-.718.189-1.247.529-.038-.264-.19-.416-.53-.378l-4.122.34-2.76.681c-.038-.265-.189-.416-.529-.378-1.551.416-2.912.681-4.009.756h-.075c-.681.076.34-.189-.189-.416l-.832.492c-1.21.113-.567-.076-4.727-.038-7.298.908-6.504 1.021-7.298 1.059l-2.723-.189c.038.264-.113.454-.416.454-3.1-.416-4.689-.908-4.726-1.475.416-2.95 1.134-4.462 2.155-4.538l.529-.038-.453.983.529-.037c.983-.53 1.437-1.021 1.399-1.475l-.075-1.021-.984.076-.075-.946c-.076-.718.038-1.361.302-1.89l2.231-3.593.076.946 1.059-.076-.076-.945-.605-.87c.794-.681 1.399-1.059 1.891-1.097l-.038-.491-1.437.113-.113-1.437c2.873-5.974 4.235-9.453 4.159-10.436l1.021.416c.643-.038.945-.416.908-1.097l-.984.076-.037-.416c-.076-.719.075-1.4.378-2.005 1.55-1.626 2.269-3.252 2.117-4.953.303-.038.454.113.492.454 1.323-.757 2.344-2.761 3.101-6.088 2.344-4.236 5.672-12.706 10.02-25.374 8.319-22.385 7.979-24.768 9.151-30.062l-.983.076c.076.681-.075 1.324-.378 1.929-.681-.265-1.21-.416-1.588-.379l-.038-.416c-.151-1.928.643-4.235 2.458-6.957l.454-.038.832 3.252.983-.076c-.038-.227.227-1.512.756-3.895-.038-.491-.416-.794-1.172-.831l-.946.605c-.075-.681-.037-2.458.076-5.294l-.492.037c-.831-.832-1.247-1.512-1.285-2.079l-5.408.529c-.037-.378-.226-.945-.605-1.664-.037-.491 1.173-.983 3.668-1.475l1.097.416 1.021-.605c.038.341.227.492.605.454l1.021-.605c.038.34.227.492.605.454l.492-.038-.076-1.096c-.756.075-2.761.075-5.937-.038l-1.021.68-.038-.605c-25.373 2.08-39.78 3.252-43.221 3.593-.454.037-2.231 0-5.37-.076.038.416-.34.643-1.096.718l-1.097-.491-3.705.945c-.87.076-2.345.038-4.387-.189-.567.454-1.248.719-2.08.794-.453.038 5.408-.302 10.853-.68-.567.453-1.437.718-2.647.832-.832.075-1.55-.038-2.155-.379-.832.379-3.517.984-8.017 1.891l-1.097-.416-17.696 2.723c-.681-.341-1.475-.454-2.383-.378-.945.075-2.533.416-4.726 1.021l-8.546 3.554.642 1.059c.416-.038 1.021-.265 1.74-.681l3.025.265-.378 2.836c-2.798 1.248-4.424 3.101-4.878 5.445-4.198 1.853-6.277 3.177-6.277 3.971l.038.491.642-.038 1.135-.605 1.323 1.589.189 2.193c.076.68-6.995 15.541-21.138 44.582-12.251 27.983-18.68 43.297-19.285 46.058-4.197 1.172-6.617 2.873-7.336 5.142.076.719 1.324 1.21 3.744 1.399l.113 1.097-1.096 1.815.189 2.193c.113 1.135 3.176 2.004 9.189 2.609-.038-.378.151-.605.567-.642.113 1.361-.265 4.008-1.135 7.941l.643-.038c2.496-3.404 3.668-5.748 3.555-7.034l.529-.037c.605-.038 1.248.642 2.004 2.117-.756.303-3.403 6.315-7.941 18.075l.643 1.059.643-.038c5.559-14.067 9.038-21.856 10.475-23.331 7.298-.643 19.927-1.929 37.851-3.857l1.135-.681c.037.378.264.567.68.53l1.173-.114 1.134-.68c.038.378.265.567.681.529l13.575-1.172c3.592-.303 5.294-1.399 5.142-3.252-.037-.492 2.08-1.059 6.353-1.664.416-.038 1.021.076 1.853.34-.038-.34 2.118-.68 6.428-1.059.114-2.268.832-3.478 2.118-3.592l-.113-1.096c-1.21.113-2.572.416-4.16.945-2.836-.151-4.651-.378-5.407-.643-.757.416-1.324.643-1.74.681l-9.453.302-1.135.605c-.037-.34-.264-.491-.68-.454l-.53.038-1.21.605c-.038-.34-1.021-.605-2.987-.869l-1.21.718-2.345.189-.037-.605c12.176-1.323 18.188-2.987 18.037-4.954.794-.075 1.21.303 1.286 1.097l3.554-.907-.113-1.097-29.155.794c.038.378-.151.605-.567.643l-3.555-.303c-.907.076-1.663.341-2.268.794l-1.324-.491c-3.668.302-6.39.756-8.206 1.323-2.495-.189-5.256-.151-8.319.114l-6.541.567-3.026-.34c-.151-1.929 3.593-11.42 11.307-28.436 2.231-5.748 4.273-9.34 6.239-10.702.416-.037 1.021.114 1.853.454l4.651-1.588 2.382.378c4.009-.34 8.66-1.475 13.992-3.441 1.323-.113 2.306-.038 3.025.265l3.554-.832 10.588-.908c4.5-.378 9.378-1.361 14.672-2.987l-.114-1.097c-1.966.189-2.987-.151-3.063-.945-.113-1.475-1.55-2.08-4.31-1.853l-.114-1.096 2.912-.832 7.638-.643-.113-1.097c-.303.038-1.853 0-4.727-.113l-.113-1.173 2.949-.264c.794-.076 1.135-.454 1.059-1.21-3.971.113-5.975-.076-6.012-.605-27.68 1.361-41.558 1.626-41.634.756-.416.038-.983.303-1.739.756l-.718-1.134c7.335-15.579 11.646-23.445 12.894-23.558.038.605-.265 1.588-.907 2.911l.037.492 1.173-.113c2.911-6.958 5.369-10.55 7.411-10.702 8.697-.756-1.21-1.323 17.394-4.235.757.34 1.286.492 1.664.454 7.298-1.475 17.47-3.025 30.516-4.613l-.076-1.097-6.957.643-.076-1.097c.832-.075 1.513-.34 2.08-.794l.038.605c.378-.038.907-.302 1.588-.756 1.21-.114 2.117 0 2.76.34 2.42-.643 4.387-1.021 5.824-1.172l4.348-.416c1.059-.681 1.551-1.286 1.513-1.853l-.038-.491c-1.097.113-2.345.037-3.819-.227-.038-.605.264-1.021.983-1.21l8.092-.757 3.706-.945c.038.416.227.567.529.567.378-.038.908-.302 1.588-.756.189.038.416.038.605.076-.491 1.021-1.058 2.495-1.626 4.424l-1.058.075c-.076-.718-.265-1.361-.605-1.928l-.53.038c-9.831 27.377-14.218 40.12-23.293 61.145-1.664 5.369-3.063 8.357-4.273 8.999.038.606.416.908 1.059.832.227 2.647-.378 5.257-1.853 7.828-4.198 12.1-6.996 18.718-8.433 19.928l.946 5.71c.037.605-.265.945-.908 1.021l-.983.075c-.151-1.588-.718-2.344-1.739-2.231l-.53.038c-1.286 2.004-2.269 4.311-2.912 6.996l.984-.076c1.323-.87 1.928-1.891 1.815-3.063l1.966-.189 1.134.416c-.907 1.437-1.323 2.571-1.247 3.441l.529.908-1.286 3.025.038.491c1.135-.113 2.382.265 3.706 1.059.907-.076 1.891-.492 2.987-1.21 1.135-.113 5.37-.151 12.668-.151l3.668-1.248c4.462-.038 5.18.076 9.037-.265l1.588-.151.832-.567.038.491c4.046-.34 4.311-.075 7.487.303l.038.491-2.231.189.076.946c.68-.076 1.285-.265 1.777-.681.567-.038.908.265.945.946-.907.075-1.928.302-3.063.68l-.983-.34c-1.55.416-1.21.529-2.269.605l-1.55-.303c.038.265-.113.454-.378.454.038.605.378.908.945.87l1.588-.151 8.282-.719 3.138-.681c.038.265.152.416.416.379l1.513-.568 2.836-.226c2.193-.19 2.155-.341 6.92-1.097-.038-.303.075-.416.302-.454l.038.416c7.752-1.323 8.244-1.399 9.491-1.815l.114.227c1.928-.454.832-.34 1.361-.719.038.341.151.492.34.492l1.362-.113-.076-1.021-2.76-.038-.038-.076c-.114.038-.189.038-.303.076h-.378v.075c-1.853.379-1.89.114-3.101.227l-6.919.378-.038-.491 3.857-.53 1.399-.113.794-.567.038.491c5.445-.453 7.373.908 32.558-4.462 1.361-.113 1.247-1.247 2.117-3.592a2.359 2.359 0 0 1-1.323-.302c-2.08.794-3.177.416-7.185 1.058-.34.038-.605-.264-.718-.869l-.038-.416 3.857.113c.718-.076 2.117-.189 4.197-1.361 0 .34-.794.529-.34.491Zm-186.196 2.988-1.777.151c-.076-.719.87-3.441 2.836-8.092l1.172-.114c.038 1.097-.68 3.782-2.231 8.055Zm2.156-8.622-.038-.491c-.038-.605.34-1.021 1.172-1.21l.038.491c.038.719-.341 1.134-1.172 1.21Zm23.633 18.264.038.492-2.949.265-.038-.492 2.949-.265Zm-3.554-.302c.038.605-.87 1.285-2.836 1.966l-3.63-.265-1.173.114-.113-1.097 7.752-.718Zm23.898-110.001-1.777.151-.038-.605c-.038-.605.303-1.021 1.059-1.21l.643-.037 1.21.491c.038.719-.303 1.135-1.097 1.21Zm27.037-5.294.567-.038.076 1.097-1.626.151c-.038-.605.265-1.021.983-1.21Zm-6.806 2.382-2.685-.302-.038-.492c3.517-.302 4.689-.68 6.844-1.285.038.416.416.567 1.097.491l.075 1.097-1.058.113c-.832.076-1.551-.037-2.156-.378-.643.416-1.323.681-2.079.756Zm3.365 9.794-.038-.491 4.349-.416.038.491-4.349.416Zm4.651-3.781-.038-.605 2.118-.189.038.605-2.118.189Zm.492-7.412-.568.038.492-1.172 4.84-.454.038.605c-1.248.114-2.874.454-4.802.983Zm2.458 10.437-.076-1.097 2.118-.189c.718-.075 1.096.265 1.134 1.021l-3.176.265Zm12.818-17.47-2.722.756-.492.038c-1.285.113-2.949.076-4.916-.113 3.517-.227 6.883-.492 8.13-.681Zm-2.911 12.1.038.492-3.744.34-.038-.491 3.744-.341Zm6.126 2.912c-.038-.454-.757-.756-2.231-.907l-3.744 1.058-2.874.114c-.643-.454-.983-.757-1.021-.983l3.328.189 7.487-1.21 3.819.151.038.605c-1.891.189-3.479.529-4.802.983Zm38.532-9.945c.454.038.756.038.87.038 1.323-1.286 2.798-2.307 4.5-3.025-1.362 5.974-3.479 10.399-6.391 13.272l-2.118-1.285c1.778-4.5 2.836-7.487 3.139-9Zm-6.504 11.155.529-.038c-.718 1.362-1.361 2.08-1.89 2.118l-.114-1.437c.341 0 .832-.227 1.475-.643Zm-4.197 10.021c1.021-4.084 2.004-6.391 2.911-6.996l.038.492c-.529 3.781-1.361 5.785-2.458 5.937l.189 2.382c-.907 1.286-1.323 2.269-1.285 3.025l-.53.038-.302-3.29c.605-.076 1.096-.605 1.437-1.588ZM434.86 192c.037.567-.341 1.891-1.097 3.933l-.529.037-.114-1.436c.719-1.664 1.324-2.496 1.74-2.534Zm-30.516 88.56-.038-.416.983-.075.114 1.436c-.53.038-.908-.264-1.059-.945Zm43.599 1.135c-.038-.341-.189-.492-.529-.454l-2.458.227-.038-.492h.227l5.823-.492.038.492c-1.701.076-2.722.34-3.063.719Zm-2.911-1.211c.226.114.113.227 0 .303-.114-.038-.265-.151 0-.303Zm.302-6.806-3.252.265-.038-.492 2.95-.265 2.571-.642c.038.302.189.416.53.378 3.062-.53 2.76-.681 4.235-.794.491-.038.794.264.832.869l-7.828.681Zm11.382-.983c-1.815-.189-1.928-.34-3.214-.227l-.038-.416 2.912-.265.038.416c-.303.038.794.114.302.492Zm.227-.53-.038-.416 1.588-.151.038.416-1.588.151Zm3.517-.302-.038-.416c.265-.038.643-.227 1.134-.605.794-.076 1.21.454 1.286 1.059l-2.382-.038Zm4.5-.567-.038-.492 1.928-.151.038.491-1.928.152Zm2.684-.227c-.038-.567.189-.908.681-.983l.643.832c-.038-.265.075-.416.302-.454l.492.907-2.118-.302Zm37.209-4.387.038-.037v-.038s-.038.038-.038.075Zm.681-.491c.302-.189.454-.378-.265-.492-.34.378.378.492-.378.53l.038.34c.075-.076.265-.189.416-.303l-.416.341v.038l-.794 1.021 1.588-.568h.189l-.076-.945-.302.038Zm2.76 2.155-.302.038.075.945 2.231-.189c-.037-.605-1.512-.794-2.004-.794Z"/></g></svg>