<?xml version="1.0" encoding="UTF-8" standalone="no"?><!-- Generator: Gravit.io --><svg xmlns="http://www.w3.org/2000/svg" xmlns:xlink="http://www.w3.org/1999/xlink" style="isolation:isolate" viewBox="0 0 512 512" width="512pt" height="512pt"><defs><clipPath id="_clipPath_tLXXoeH7HBq1lO0xbGr3LZofTckrlx64"><rect width="512" height="512"/></clipPath></defs><g clip-path="url(#_clipPath_tLXXoeH7HBq1lO0xbGr3LZofTckrlx64)"><circle vector-effect="non-scaling-stroke" cx="256" cy="256" r="256" fill="rgb(17,17,132)" /><path d=" M 128 211.165 L 128 300.835 C 128 320.414 143.896 336.249 163.414 336.249 L 271.313 336.249 C 290.892 336.249 306.727 320.353 306.727 300.835 L 306.727 211.165 C 306.727 191.586 290.831 175.751 271.313 175.751 L 163.475 175.751 C 143.896 175.689 128 191.586 128 211.165 L 128 211.165 Z  M 360.8 187.167 L 320.169 220.678 C 316.547 223.686 314.461 228.105 314.461 232.769 L 314.461 279.17 C 314.461 283.834 316.486 288.192 320.046 291.199 L 360.677 325.324 C 369.945 333.058 384 326.491 384 314.461 L 384 198.092 C 384.061 186.123 370.067 179.495 360.8 187.167 L 360.8 187.167 Z " fill="rgb(255,255,255)"/></g></svg>