<?xml version="1.0" encoding="UTF-8" standalone="no"?><!-- Generator: Gravit.io --><svg xmlns="http://www.w3.org/2000/svg" xmlns:xlink="http://www.w3.org/1999/xlink" style="isolation:isolate" viewBox="0 0 512 512" width="512pt" height="512pt"><defs><clipPath id="_clipPath_edzwkcmgSha4Kwbh2LPuU2Ya7Z0i73pE"><rect width="512" height="512"/></clipPath></defs><g clip-path="url(#_clipPath_edzwkcmgSha4Kwbh2LPuU2Ya7Z0i73pE)"><rect width="512" height="512" style="fill:rgb(27,27,29)"/><path d=" M 213.343 135.393 L 289.096 135.393 L 210.457 368.391 C 208.8 373.3 204.196 376.606 199.015 376.607 L 140.061 376.607 C 136.176 376.607 132.53 374.737 130.264 371.582 C 127.998 368.427 127.391 364.374 128.633 360.693 L 201.898 143.609 C 203.555 138.697 208.16 135.39 213.343 135.39 L 213.343 135.393 Z " fill="rgb(102,0,51)"/><path d=" M 323.423 291.673 L 203.297 291.673 C 201.012 291.67 198.958 293.066 198.119 295.192 C 197.281 297.319 197.829 299.741 199.501 301.299 L 276.691 373.346 C 278.938 375.442 281.897 376.608 284.971 376.607 L 352.99 376.607 L 323.423 291.673 Z " fill="rgb(102,0,51)"/><path d=" M 213.343 135.393 C 208.098 135.373 203.45 138.767 201.872 143.769 L 128.723 360.495 C 127.397 364.19 127.956 368.3 130.219 371.507 C 132.482 374.714 136.167 376.618 140.093 376.607 L 200.568 376.607 C 205.154 375.788 208.944 372.564 210.489 368.17 L 225.077 325.179 L 277.182 373.779 C 279.366 375.585 282.105 376.584 284.939 376.607 L 352.705 376.607 L 322.984 291.673 L 236.341 291.693 L 289.369 135.393 L 213.343 135.393 Z " fill="rgb(102,0,51)"/><path d=" M 310.098 143.597 C 308.444 138.694 303.846 135.392 298.67 135.393 L 214.245 135.393 C 219.42 135.393 224.018 138.694 225.673 143.597 L 298.941 360.69 C 300.184 364.371 299.577 368.426 297.311 371.582 C 295.046 374.738 291.398 376.61 287.513 376.61 L 371.942 376.61 C 375.826 376.609 379.473 374.737 381.738 371.581 C 384.002 368.425 384.609 364.371 383.366 360.69 L 310.098 143.597 Z " fill="rgb(102,0,51)"/></g></svg>