<svg xmlns="http://www.w3.org/2000/svg" width="512pt" height="512pt" style="isolation:isolate" viewBox="0 0 512 512"><defs><clipPath id="a"><path d="M0 0h512v512H0z"/></clipPath></defs><g clip-path="url(#a)"><path fill="#EB5424" d="m390.601 414.196-51.399-158.204 134.545-97.748H307.436L256.034.046l-.015-.043h166.336l51.414 158.225.003-.003.042-.024c29.857 91.791-.893 196.193-83.213 255.995Zm-269.146 0-.043.031L255.991 512l134.61-97.801-134.567-97.776-134.579 97.773Zm-83.18-255.992c-31.431 96.76 5.054 199.289 83.153 256.011l.012-.049 51.405-158.195-134.515-97.73h166.272L256.006.043l.013-.043H89.673L38.275 158.204Z"/></g></svg>