<svg xmlns="http://www.w3.org/2000/svg" width="512pt" height="512pt" style="isolation:isolate" viewBox="0 0 512 512"><defs><clipPath id="a"><path d="M0 0h512v512H0z"/></clipPath></defs><g clip-path="url(#a)"><path fill="#00A9E5" d="M373.76 179.2H240c.64 3.2 1.92 6.4 2.56 8.96 4.48 15.36 7.04 31.36 8.32 48 .64 6.4.64 13.44.64 19.84s0 13.44-.64 19.84c-1.28 16.64-3.84 32.64-8.32 48-.64 3.2-1.92 6.4-2.56 8.96h133.76c42.24 0 76.16-34.56 76.16-76.8 0-42.24-33.92-76.8-76.16-76.8Z"/><path fill="#353535" d="M250.88 275.84c.64-6.4.64-13.44.64-19.84s0-13.44-.64-19.84c-1.28-16.64-3.84-32.64-8.32-48-.64-3.2-1.92-6.4-2.56-8.96H33.28c-7.68 24.32-11.52 49.92-11.52 76.8 0 26.88 3.84 52.48 11.52 76.8H240c.64-3.2 1.92-6.4 2.56-8.96 4.48-15.36 7.04-31.36 8.32-48Z"/><path fill="#00BFB3" d="M396.8 358.4H230.4c-5.12 11.52-10.88 22.4-17.28 32.64-9.6 16-21.12 30.08-33.92 43.52-4.48 4.48-8.96 8.32-13.44 12.8-8.96 8.32-19.2 15.36-29.44 22.4 40.32 26.88 88.96 42.24 140.8 42.24 88.96 0 167.04-45.44 213.12-113.92-23.68-24.32-56.96-39.68-93.44-39.68Z"/><path fill="#019B8F" d="M213.12 391.04c6.4-10.24 12.16-21.12 17.28-32.64H42.88c19.84 45.44 52.48 84.48 94.08 111.36 10.24-7.04 19.84-14.08 29.44-22.4 4.48-3.84 8.96-8.32 13.44-12.8 12.16-12.8 23.68-27.52 33.28-43.52Z"/><path fill="#F9B110" d="M179.2 77.44c-4.48-4.48-8.96-8.32-13.44-12.8-8.96-8.32-19.2-15.36-29.44-22.4-40.96 26.88-73.6 65.92-94.08 111.36h187.52c-5.12-11.52-10.88-22.4-17.28-32.64-8.96-16-20.48-30.72-33.28-43.52Z"/><path fill="#FED10A" d="M277.12 0c-51.84 0-100.48 15.36-140.8 42.24 10.24 7.04 19.84 14.08 29.44 22.4 4.48 3.84 8.96 8.32 13.44 12.8 12.8 13.44 24.32 27.52 33.92 43.52 6.4 10.24 12.16 21.12 17.28 32.64h166.4c36.48 0 69.76-15.36 93.44-39.68C444.16 45.44 366.08 0 277.12 0Z"/></g></svg>