<svg xmlns="http://www.w3.org/2000/svg" width="512pt" height="512pt" style="isolation:isolate" viewBox="0 0 512 512"><defs><clipPath id="a"><path d="M0 0h512v512H0z"/></clipPath></defs><g clip-path="url(#a)"><path fill="#99425B" d="M458.773 252.088c0-26.32-21.336-47.657-47.657-47.657-1.692 0-3.362.091-5.008.264l65.456-193.057H193.396l65.366 192.889a47.907 47.907 0 0 0-2.896-.096c-26.32 0-47.658 21.337-47.658 47.657 0 21.275 13.943 39.286 33.187 45.414-10.164 17.606-22.953 33.462-37.473 47.162-19.744 18.626-42.341 32.749-66.781 41.453-29.097-14.948-42.839-48.191-30.439-77.34 1.399-3.291 2.829-6.627 4.194-9.949 21.082-4.92 36.789-23.818 36.789-46.398 0-26.32-21.336-47.656-47.657-47.656-26.32 0-47.658 21.336-47.658 47.656 0 16.14 8.031 30.396 20.306 39.017-11.795 26.857-29.134 54.964-34.536 87.54-6.474 39.041-.021 80.481 33.745 103.885 78.638 54.502 163.998-33.788 254-55.982 32.618-8.044 68.422-6.748 97.159-23.392 21.581-12.499 35.807-33.213 39.845-56.468 3.989-22.974-1.826-45.848-15.2-64.395 6.918-8.272 11.084-18.921 11.084-30.547Z"/><path fill="#FFF" d="M451.422 345.038c-3.506 20.19-15.975 37.826-34.212 48.388-16.999 9.846-37.37 12.785-58.938 15.895-11.554 1.666-23.502 3.39-35.174 6.268-30.862 7.61-60.754 22.458-89.661 36.816-57.852 28.736-107.812 53.548-154.921 20.9-34.508-23.917-32.914-68.166-28.894-92.414 3.726-22.465 13.798-43.154 23.539-63.163 1.684-3.46 3.333-6.855 4.938-10.221a58.846 58.846 0 0 0 15.316 3.843c-9.915 32.724 5.678 68.306 38.408 85.12l4.478 2.301 4.745-1.689c25.874-9.215 49.716-24.001 70.864-43.953 13.669-12.897 25.422-27.164 35.082-42.409 2.896.436 5.858.665 8.874.665 30.038 0 54.914-22.457 58.763-51.461a527.21 527.21 0 0 1 37.723-.004c3.847 29.006 28.724 51.465 58.764 51.465 12.56 0 24.211-3.936 33.809-10.623 6.663 13.64 9.151 28.988 6.497 44.276ZM100.027 216.413c19.862 0 36.018 16.158 36.018 36.018a35.779 35.779 0 0 1-5.687 19.387c-5.988 9.338-16.162 15.738-27.856 16.536a36.18 36.18 0 0 1-2.475.095c-4.425 0-8.665-.808-12.585-2.273-7.93-2.968-14.538-8.658-18.694-15.923a35.781 35.781 0 0 1-4.739-17.822c0-19.86 16.158-36.018 36.018-36.018Zm119.821 35.676c0-18.045 13.338-33.028 30.672-35.619a35.976 35.976 0 0 1 5.346-.399c11.546 0 21.826 5.47 28.419 13.946a36.017 36.017 0 0 1 4.204 6.83 35.778 35.778 0 0 1 3.395 15.242c0 2.879-.35 5.678-.991 8.364-3.51 14.694-16.04 25.925-31.394 27.471-1.194.12-2.407.183-3.633.183a35.804 35.804 0 0 1-19.521-5.772c-9.917-6.424-16.497-17.578-16.497-30.246Zm150.325-42.83c-7.715 7.383-13.454 16.816-16.311 27.423a552.359 552.359 0 0 0-40.741 0c-3.046-11.306-9.364-21.279-17.862-28.856l37.269-75.361 37.645 76.794ZM209.631 23.279h245.696l-58.031 171.152a58.896 58.896 0 0 0-7.35 2.278L332.62 79.766 275.132 196.01a59.07 59.07 0 0 0-7.667-2.067L209.631 23.279Zm237.503 228.81c0 3.611-.54 7.097-1.533 10.389-2.365 7.831-7.328 14.541-13.882 19.129a35.814 35.814 0 0 1-20.603 6.5c-16.63 0-30.659-11.334-34.783-26.681a35.921 35.921 0 0 1-1.235-9.337c0-4.924.995-9.618 2.791-13.895a35.96 35.96 0 0 1 3.406-6.246c6.482-9.567 17.42-15.877 29.821-15.877 1.137 0 2.259.059 3.369.163 18.287 1.704 32.649 17.13 32.649 35.855Zm23.279 0c0-28.95-20.858-53.104-48.331-58.265L487.799 0H177.163l65.817 194.219c-26.519 5.901-46.411 29.599-46.411 57.87 0 21.227 11.219 39.875 28.032 50.353-8.087 12.049-17.678 23.387-28.666 33.755-17.43 16.443-36.847 28.912-57.781 37.117-21.084-13.245-29.998-38.222-20.741-59.981l.725-1.706 1.361-3.199c23.159-8.078 39.825-30.121 39.825-55.997 0-32.697-26.6-59.297-59.297-59.297-32.696 0-59.296 26.6-59.296 59.297 0 16.503 6.783 31.448 17.701 42.209-1.979 4.217-4.062 8.506-6.2 12.897-9.982 20.503-21.296 43.741-25.574 69.545-8.498 51.249 5.209 92.216 38.597 115.356C85.515 506.479 106.089 512 126.794 512c38.988 0 78.425-19.587 116.998-38.746 27.78-13.798 56.506-28.066 84.88-35.064 10.557-2.604 21.421-4.17 32.923-5.829 22.807-3.29 46.392-6.691 67.283-18.79 24.215-14.027 40.792-37.555 45.479-64.55 4.024-23.175-.818-46.387-12.629-66.072a58.93 58.93 0 0 0 8.685-30.86Z"/></g></svg>