<svg xmlns="http://www.w3.org/2000/svg" width="512pt" height="512pt" style="isolation:isolate" viewBox="0 0 512 512"><defs><clipPath id="a"><path d="M0 0h512v512H0z"/></clipPath></defs><g clip-path="url(#a)"><path fill="#326DE6" d="M163.47 497.34c-11.918 0-23.174-5.297-30.789-14.897L16.812 338.433c-7.615-9.601-10.594-21.85-7.615-33.768l41.382-179.763c2.649-11.918 10.594-21.519 21.519-26.816L239.613 17.97c5.297-2.648 11.256-3.972 17.215-3.972s11.918 1.324 17.215 3.972l167.514 79.785c10.925 5.297 18.87 14.898 21.519 26.816l41.382 179.763c2.648 11.918 0 24.167-7.614 33.768l-115.87 144.01c-7.614 9.269-18.87 14.897-30.788 14.897l-186.716.331Z"/><path fill="#FFF" d="M256.497 22.274c4.634 0 9.269.993 13.573 2.98l167.515 79.784c8.607 4.304 15.228 12.249 17.214 21.519l41.383 179.764c2.317 9.6 0 19.532-6.291 27.146l-115.869 144.01c-5.959 7.614-15.229 11.918-24.83 11.918H163.47c-9.601 0-18.871-4.304-24.83-11.918L22.771 333.467c-5.959-7.614-8.277-17.546-6.29-27.146l41.382-179.764c2.317-9.601 8.607-17.546 17.215-21.519l167.514-80.115c4.304-1.656 9.27-2.649 13.905-2.649Zm0-15.56c-6.953 0-13.905 1.656-20.526 4.635L68.456 91.465c-13.242 6.29-22.511 17.877-25.822 32.112L1.252 303.341c-3.311 14.236 0 28.802 9.27 40.389l115.869 144.01c8.939 11.255 22.512 17.546 36.748 17.546h185.722c14.236 0 27.809-6.291 36.748-17.546l115.869-144.01c9.27-11.256 12.581-26.153 9.27-40.389l-41.382-179.764c-3.311-14.235-12.58-25.822-25.822-32.112L276.691 11.349c-6.29-2.979-13.242-4.635-20.194-4.635Z"/><path fill="#FFF" d="M424.342 292.085c-.331 0-.331 0 0 0h-.331c-.331 0-.662 0-.662-.331-.662 0-1.324-.331-1.986-.331-2.318-.331-4.304-.662-6.29-.662-.994 0-1.987 0-3.311-.331h-.331c-6.952-.662-12.58-1.324-17.877-2.98-2.317-.993-2.98-2.317-3.642-3.641 0-.331-.331-.331-.331-.662l-4.303-1.325c1.986-15.228 1.324-31.119-2.318-46.679-3.641-15.559-9.932-30.126-18.539-43.368l3.311-2.979v-.663c0-1.655.331-3.31 1.655-4.965 3.973-3.642 8.938-6.622 14.897-10.263.994-.662 1.987-.993 2.98-1.655 1.986-.994 3.642-1.987 5.628-3.311.331-.331.993-.662 1.655-1.324.331-.331.662-.331.662-.662 4.635-3.973 5.628-10.594 2.318-14.898-1.656-2.317-4.635-3.642-7.615-3.642-2.648 0-4.965.994-7.283 2.649l-.662.662c-.662.331-.993.993-1.655 1.324-1.656 1.656-2.98 2.98-4.304 4.635-.662.662-1.324 1.655-2.317 2.317-4.635 4.966-8.939 8.939-13.243 11.918-.993.663-1.986.994-2.979.994-.662 0-1.324 0-1.987-.331h-.662l-3.972 2.648c-4.304-4.635-8.939-8.607-13.574-12.58-19.863-15.56-44.03-25.16-69.19-27.478l-.331-4.304-.663-.662c-.993-.993-2.317-1.986-2.648-4.303-.331-5.297.331-11.256.993-17.877v-.331c0-.994.331-2.318.662-3.311.331-1.986.662-3.973.993-6.29v-2.98c0-5.959-4.634-10.925-10.262-10.925-2.649 0-5.297 1.325-7.284 3.311-1.986 1.986-2.979 4.635-2.979 7.614v2.649c0 2.317.331 4.304.993 6.29.331.993.331 1.986.662 3.31v.332c.662 6.621 1.655 12.58.993 17.877-.331 2.317-1.655 3.31-2.648 4.303l-.662.662-.331 4.304c-5.959.662-11.918 1.324-17.877 2.649-25.492 5.628-48.004 18.539-65.55 37.078l-3.31-2.317h-.662c-.662 0-1.324.331-1.987.331-.993 0-1.986-.331-2.979-.994-4.304-2.979-8.608-7.283-13.242-12.249-.662-.662-1.325-1.655-2.318-2.317-1.324-1.655-2.648-2.98-4.303-4.635-.331-.331-.994-.662-1.656-1.324-.331-.331-.662-.331-.662-.662-1.986-1.655-4.635-2.649-7.283-2.649-2.98 0-5.959 1.325-7.614 3.642-3.311 4.304-2.318 10.925 2.317 14.898.331 0 .331.331.662.331.662.331.993.993 1.655 1.324 1.987 1.324 3.642 2.317 5.628 3.31.994.331 1.987.994 2.98 1.656 5.959 3.641 10.925 6.621 14.897 10.262 1.656 1.656 1.656 3.311 1.656 4.966v.662l3.31 2.98c-.662.993-1.324 1.655-1.655 2.648-16.553 26.154-22.843 56.942-18.539 87.399l-4.304 1.324c0 .332-.331.332-.331.663-.662 1.324-1.655 2.648-3.642 3.641-4.965 1.655-10.924 2.318-17.877 2.98h-.331c-.993 0-2.317 0-3.31.331-1.987 0-3.973.331-6.29.662-.662 0-1.325.331-1.987.331-.331 0-.662 0-.993.331-5.959 1.324-9.6 6.952-8.607 12.249.993 4.635 5.297 7.614 10.593 7.614.994 0 1.656 0 2.649-.331.331 0 .662 0 .662-.331.662 0 1.324-.331 1.986-.331 2.318-.662 3.973-1.324 5.959-2.317.994-.331 1.987-.993 2.98-1.324h.331c6.29-2.318 11.918-4.304 17.215-4.966h.662c1.986 0 3.311.993 4.304 1.655.331 0 .331.331.662.331l4.635-.662c7.945 24.498 23.174 46.348 43.368 62.239 4.635 3.641 9.27 6.621 14.236 9.6l-1.987 4.304c0 .331.331.331.331.662.662 1.324 1.324 2.98.662 5.297-1.986 4.966-4.966 9.932-8.607 15.56v.331c-.662.993-1.324 1.655-1.986 2.648-1.325 1.655-2.318 3.311-3.642 5.297-.331.331-.662.993-.993 1.655 0 .331-.331.662-.331.662-2.649 5.628-.662 11.918 4.303 14.236 1.325.662 2.649.993 3.973.993 3.973 0 7.945-2.648 9.932-6.29 0-.331.331-.662.331-.662.331-.662.662-1.324.993-1.655.993-2.318 1.324-3.973 1.986-5.959l.994-2.98c2.317-6.621 3.972-11.918 6.952-16.553 1.324-1.986 2.979-2.317 4.303-2.979.332 0 .332 0 .663-.331l2.317-4.304c14.566 5.628 30.457 8.607 46.348 8.607 9.601 0 19.532-.993 28.802-3.31 5.959-1.324 11.587-2.98 17.215-4.966l1.986 3.642c.331 0 .331 0 .662.331 1.655.331 2.98.993 4.304 2.979 2.648 4.635 4.635 10.263 6.952 16.553v.331l.993 2.98c.662 1.986.993 3.972 1.987 5.959.331.662.662.993.993 1.655 0 .331.331.662.331.662 1.986 3.973 5.959 6.29 9.932 6.29 1.324 0 2.648-.331 3.972-.993 2.318-1.324 4.304-3.311 4.966-5.959.662-2.649.662-5.628-.662-8.277 0-.331-.331-.331-.331-.662-.331-.662-.662-1.324-.993-1.655-.993-1.986-2.318-3.642-3.642-5.297-.662-.993-1.324-1.655-1.986-2.648v-.331c-3.642-5.628-6.952-10.594-8.608-15.56-.662-2.317 0-3.642.331-5.297 0-.331.331-.331.331-.662l-1.655-3.973c17.546-10.262 32.444-24.829 43.7-42.706 5.959-9.27 10.593-19.532 13.904-29.795l3.973.662c.331 0 .331-.331.662-.331 1.324-.662 2.317-1.655 4.303-1.655h.663c5.296.662 10.924 2.648 17.215 4.966h.331c.993.331 1.986.993 2.979 1.324 1.986.993 3.642 1.655 5.959 2.317.662 0 1.324.331 1.986.331.332 0 .663 0 .994.331.993.331 1.655.331 2.648.331 4.966 0 9.27-3.31 10.594-7.614 0-3.973-3.642-9.27-9.601-10.925Zm-153.279-16.222-14.566 6.953-14.567-6.953-3.642-15.559 9.932-12.58h16.222l9.932 12.58-3.311 15.559Zm86.406-34.429c2.648 11.255 3.31 22.511 2.317 33.436l-50.651-14.566c-4.635-1.324-7.284-5.959-6.291-10.594.332-1.324.994-2.649 1.987-3.642l40.058-36.085c5.628 9.27 9.931 19.864 12.58 31.451Zm-28.471-51.314-43.368 30.788c-3.642 2.317-8.608 1.655-11.587-1.986-.994-.993-1.325-2.318-1.656-3.642l-2.979-53.962a100.48 100.48 0 0 1 59.59 28.802Zm-96.006-27.147c3.641-.662 6.952-1.324 10.593-1.986l-2.979 52.969c-.331 4.635-3.973 8.607-8.939 8.607-1.324 0-2.979-.331-3.972-.993l-44.031-31.45c13.573-13.574 30.457-22.843 49.328-27.147Zm-65.219 47.01 39.396 35.092c3.642 2.98 3.973 8.608.993 12.249-.993 1.324-2.317 2.318-3.972 2.649l-51.314 14.897c-1.986-22.512 2.979-45.355 14.897-64.887Zm-8.938 89.716 52.638-8.938c4.304-.331 8.276 2.648 9.269 6.952.332 1.986.332 3.642-.331 5.297l-20.194 48.665c-18.539-11.918-33.437-30.126-41.382-51.976Zm120.836 65.881c-7.615 1.655-15.229 2.648-23.174 2.648-11.587 0-22.843-1.986-33.437-5.297l26.153-47.341c2.649-2.979 6.953-4.304 10.594-2.317 1.655.993 2.98 2.317 3.973 3.641l25.491 46.017c-2.979.993-6.29 1.656-9.6 2.649Zm64.556-46.017c-8.277 13.242-19.202 23.836-31.782 32.112l-20.856-49.989c-.994-3.973.662-8.277 4.634-10.263 1.325-.662 2.98-.993 4.635-.993l52.969 8.938c-1.986 7.284-5.297 13.905-9.6 20.195Z"/></g></svg>