<svg xmlns="http://www.w3.org/2000/svg" width="512pt" height="512pt" style="isolation:isolate" viewBox="0 0 512 512"><defs><clipPath id="a"><path d="M0 0h512v512H0z"/></clipPath></defs><g clip-path="url(#a)"><path fill="#10AA50" d="M366.815 203.753C339.842 84.761 283.622 53.084 269.28 30.691A254.834 254.834 0 0 1 253.6 0c-.757 10.571-2.149 17.231-11.134 25.247-18.04 16.085-94.662 78.524-101.111 213.725-6.007 126.057 92.672 203.789 105.709 211.823 10.026 4.933 22.235.105 28.19-4.423 47.568-32.645 112.561-119.679 91.613-242.619"/><path fill="#B8C4C2" d="M257.688 383.669c-2.484 31.203-4.264 49.331-10.57 67.16 0 0 4.14 29.706 7.046 61.171h10.29a571.975 571.975 0 0 1 11.222-65.875c-13.32-6.553-17.477-35.077-17.988-62.456Z"/><path fill="#12924F" d="M275.659 446.144c-13.461-6.22-17.355-35.343-17.953-62.475a1278.726 1278.726 0 0 0 2.906-134.513c-.704-23.539.335-218.007-5.796-246.479a236.7 236.7 0 0 0 14.464 27.996c14.342 22.411 70.579 54.088 97.535 173.08 21 122.728-43.64 209.532-91.156 242.391Z"/></g></svg>