<svg xmlns="http://www.w3.org/2000/svg" width="512pt" height="512pt" style="isolation:isolate" viewBox="0 0 512 512"><defs><clipPath id="a"><path d="M0 0h512v512H0z"/></clipPath></defs><g clip-path="url(#a)"><path fill="#008CC1" d="M460.654 232.371c0 118.925-96.393 215.319-215.319 215.319-118.925 0-215.318-96.394-215.318-215.319 0-118.925 96.393-215.319 215.318-215.319 118.926-.103 215.319 96.394 215.319 215.319Z"/><path fill="#FFF" d="M125.47 161.745c0 9.495-7.719 17.214-17.212 17.214-9.495 0-17.214-7.719-17.214-17.214 0-9.493 7.719-17.212 17.214-17.212a17.162 17.162 0 0 1 17.212 17.212Zm2.921 47.258c0 9.493-7.719 17.214-17.212 17.214-9.493 0-17.214-7.721-17.214-17.214 0-9.493 7.721-17.212 17.214-17.212a17.162 17.162 0 0 1 17.212 17.212Zm10.537 50.075c0 9.493-7.72 17.212-17.213 17.212-9.493 0-17.214-7.719-17.214-17.212 0-9.495 7.721-17.214 17.214-17.214 9.493-.104 17.213 7.616 17.213 17.214Zm23.577 44.857c0 9.493-7.721 17.214-17.214 17.214-9.493 0-17.212-7.721-17.212-17.214 0-9.493 7.719-17.212 17.212-17.212 9.493-.106 17.214 7.615 17.214 17.212Zm184.335 62.698c0 9.493-7.719 17.212-17.214 17.212-9.493 0-17.212-7.719-17.212-17.212 0-9.493 7.719-17.214 17.212-17.214 9.495 0 17.214 7.721 17.214 17.214Zm31.296-37.034c0 9.493-7.719 17.212-17.214 17.212-9.493 0-17.212-7.719-17.212-17.212 0-9.493 7.719-17.214 17.212-17.214 9.495 0 17.214 7.721 17.214 17.214ZM287.377 67.753c0 9.493-7.721 17.212-17.214 17.212-9.493 0-17.212-7.719-17.212-17.212 0-9.493 7.719-17.213 17.212-17.213 9.493 0 17.214 7.72 17.214 17.213Zm-45.275-15.857c0 9.493-7.721 17.213-17.214 17.213-9.493 0-17.212-7.72-17.212-17.213 0-9.493 7.719-17.214 17.212-17.214 9.493 0 17.214 7.721 17.214 17.214Z"/><path fill="#66B245" d="M364.157 66.291c63.376 0 114.753 51.379 114.753 114.754 0 63.376-51.377 114.753-114.753 114.753-63.377 0-114.754-51.377-114.754-114.753 0-63.375 51.377-114.754 114.754-114.754Z"/><path fill="#FFF" d="M364.157 298.871c-64.97 0-117.827-52.857-117.827-117.826 0-64.97 52.857-117.825 117.827-117.825 64.969 0 117.826 52.855 117.826 117.825 0 64.969-52.857 117.826-117.826 117.826Zm0-229.504c-61.581 0-111.68 50.099-111.68 111.678 0 61.581 50.099 111.679 111.68 111.679 61.581 0 111.679-50.098 111.679-111.679 0-61.579-50.098-111.678-111.679-111.678Z"/><path fill="#66B245" d="M206.945 321.149c51.853 0 93.889 42.034 93.889 93.889 0 51.852-42.036 93.888-93.889 93.888-51.854 0-93.888-42.036-93.888-93.888 0-51.855 42.034-93.889 93.888-93.889Z"/><path fill="#FFF" d="M206.945 512c-53.466 0-96.962-43.498-96.962-96.962 0-53.467 43.496-96.963 96.962-96.963 53.467 0 96.963 43.496 96.963 96.963 0 53.464-43.496 96.962-96.963 96.962Zm0-187.778c-50.075 0-90.815 40.739-90.815 90.816 0 50.075 40.74 90.815 90.815 90.815 50.075 0 90.816-40.74 90.816-90.815 0-50.077-40.741-90.816-90.816-90.816Z"/><path fill="#66B245" d="M129.643 3.074c34.569 0 62.593 28.024 62.593 62.592s-28.024 62.593-62.593 62.593c-34.568 0-62.592-28.025-62.592-62.593 0-34.568 28.024-62.592 62.592-62.592Z"/><path fill="#FFF" d="M129.643 131.332c-36.208 0-65.666-29.457-65.666-65.666C63.977 29.457 93.435 0 129.643 0c36.209 0 65.667 29.457 65.667 65.666 0 36.209-29.458 65.666-65.667 65.666Zm0-125.185c-32.819 0-59.518 26.7-59.518 59.519s26.699 59.519 59.518 59.519c32.82 0 59.519-26.7 59.519-59.519S162.463 6.147 129.643 6.147Z"/></g></svg>