<svg xmlns="http://www.w3.org/2000/svg" width="512pt" height="512pt" style="isolation:isolate" viewBox="0 0 512 512"><defs><clipPath id="a"><path d="M0 0h512v512H0z"/></clipPath></defs><g clip-path="url(#a)"><path fill="#E0234E" fill-rule="evenodd" d="M301.471 1.004c-3.702 0-7.14.793-10.313 1.851 6.743 4.496 10.446 10.446 12.297 17.189.132.926.397 1.587.529 2.513.133.793.264 1.586.264 2.38.529 11.635-3.041 13.09-5.553 19.966-3.835 8.859-2.777 18.379 1.851 26.048.397.925.925 1.983 1.587 2.909-5.025-33.453 22.875-38.478 28.031-48.923.397-9.124-7.14-15.206-13.09-19.437-5.686-3.438-10.842-4.496-15.603-4.496Zm42.048 7.537c-.529 3.041-.132 2.248-.264 3.834-.133 1.058-.133 2.38-.265 3.438-.264 1.058-.529 2.116-.925 3.174-.264 1.057-.661 2.115-1.058 3.173-.529 1.058-.925 1.983-1.454 3.041-.397.529-.661 1.058-1.058 1.587l-.793 1.19c-.662.925-1.323 1.851-1.984 2.644-.793.794-1.454 1.719-2.38 2.38v.133c-.793.661-1.587 1.454-2.512 2.115-2.777 2.116-5.95 3.703-8.859 5.686-.926.661-1.851 1.19-2.645 1.983a19.447 19.447 0 0 0-2.512 2.116c-.926.793-1.587 1.587-2.38 2.512-.661.794-1.455 1.719-1.983 2.645-.662.925-1.323 1.851-1.852 2.776-.529 1.058-.925 1.984-1.454 3.042-.397 1.057-.793 1.983-1.058 3.041-.397 1.19-.661 2.248-.925 3.305-.133.53-.133 1.19-.265 1.719-.132.529-.132 1.058-.264 1.587 0 1.058-.132 2.248-.132 3.306 0 .793 0 1.586.132 2.38 0 1.058.132 2.115.397 3.305.132 1.058.396 2.116.661 3.174.397 1.058.661 2.115 1.058 3.173.264.661.661 1.322.925 1.851l-30.411-11.768c-5.157-1.454-10.182-2.776-15.339-3.966l-8.33-1.984a245.255 245.255 0 0 0-24.065-3.57c-.264 0-.396-.132-.661-.132a236.195 236.195 0 0 0-23.668-1.19c-5.818 0-11.636.264-17.321.661-8.066.529-16.132 1.587-24.198 2.909-1.983.264-3.966.661-5.95 1.058-4.099.793-8.065 1.718-11.9 2.644l-5.95 1.587c-1.983.793-3.835 1.719-5.686 2.512l-4.363 1.983c-.264.133-.529.133-.661.265-1.322.661-2.513 1.19-3.702 1.851a6.421 6.421 0 0 0-.926.396c-1.455.662-2.909 1.455-4.099 2.116-.926.397-1.851.926-2.645 1.322-.396.265-.925.529-1.19.661-1.19.662-2.38 1.323-3.437 1.984a33.336 33.336 0 0 0-3.174 1.983c-.925.661-1.851 1.19-2.644 1.851-.133.133-.265.133-.397.265a30.55 30.55 0 0 0-2.512 1.851l-.265.264-1.983 1.587c-.264.132-.529.396-.793.529-.661.529-1.322 1.19-1.984 1.719-.132.264-.396.396-.529.529-.793.793-1.586 1.454-2.38 2.248-.132 0-.132.132-.264.264-.793.661-1.587 1.454-2.38 2.248-.132.132-.132.264-.264.264-.661.661-1.323 1.322-1.984 2.115-.264.265-.661.53-.925.794-.661.793-1.455 1.587-2.248 2.38-.132.264-.397.397-.529.661-1.058 1.058-1.984 2.116-3.041 3.173l-.397.397c-2.116 2.248-4.363 4.496-6.743 6.479-2.381 2.116-4.893 4.099-7.405 5.818a100.17 100.17 0 0 1-7.934 5.025 80.598 80.598 0 0 1-8.33 3.966c-2.776 1.19-5.685 2.248-8.594 3.174-5.554 1.19-11.239 3.438-16.132 3.834-1.058 0-2.248.264-3.305.397-1.19.264-2.248.529-3.306.793l-3.173 1.19c-1.058.397-2.116.926-3.174 1.455-.925.661-1.983 1.19-2.909 1.851a21.524 21.524 0 0 0-2.644 2.248c-.926.661-1.851 1.586-2.645 2.38-.793.925-1.586 1.719-2.248 2.644-.661 1.058-1.454 1.984-1.983 3.041a23.335 23.335 0 0 0-1.851 3.042c-.529 1.19-1.058 2.247-1.455 3.437a104.41 104.41 0 0 0-1.19 3.438c-.264 1.058-.529 2.116-.661 3.174 0 .132-.132.264-.132.396-.264 1.19-.264 2.777-.397 3.57-.132.926-.264 1.719-.264 2.645 0 .529 0 1.19.132 1.719.133.925.265 1.719.53 2.512.264.793.529 1.587.925 2.38v.133c.397.793.926 1.586 1.455 2.38.529.793 1.057 1.586 1.718 2.38.662.661 1.455 1.454 2.248 2.115a19.298 19.298 0 0 0 2.513 2.116c3.173 2.777 3.966 3.702 8.065 5.818.661.396 1.323.661 2.116 1.058.132 0 .264.132.397.132 0 .264 0 .397.132.661.132 1.058.397 2.116.661 3.174.264 1.19.661 2.247 1.058 3.173.397.793.661 1.587 1.058 2.38.132.264.264.529.396.661a58.239 58.239 0 0 0 1.587 2.909l1.983 2.777c.662.793 1.455 1.719 2.248 2.512.794.793 1.587 1.455 2.513 2.248 0 0 .132.132.264.132.793.662 1.587 1.323 2.38 1.852.925.661 1.851 1.19 2.909 1.718.925.53 1.983 1.058 3.041 1.455.793.397 1.719.661 2.645.926.132.132.264.132.529.264.529.132 1.19.264 1.719.396-.397 7.141-.53 13.884.529 16.264 1.19 2.645 7.008-5.421 12.825-14.677-.793 9.124-1.322 19.834 0 23.007 1.455 3.306 9.388-7.008 16.264-18.379 93.747-21.685 179.297 43.105 188.288 134.605-1.719-14.28-19.305-22.214-27.37-20.231-3.967 9.785-10.711 22.346-21.553 30.148.926-8.727.529-17.718-1.322-26.445-2.909 12.164-8.595 23.536-16.396 33.32-12.561.926-25.123-5.156-31.734-14.28-.529-.397-.661-1.19-1.058-1.719-.397-.925-.793-1.851-1.058-2.777a10.989 10.989 0 0 1-.793-2.776c-.133-.926-.133-1.851-.133-2.909v-1.984c.133-.925.397-1.851.662-2.776.264-.926.529-1.851.925-2.777.529-.926.926-1.851 1.587-2.777 2.248-6.347 2.248-11.503-1.851-14.544-.794-.53-1.587-.926-2.513-1.323-.529-.132-1.19-.396-1.718-.529-.397-.132-.662-.264-1.058-.397-.926-.264-1.851-.529-2.777-.661a10.084 10.084 0 0 0-2.777-.396c-.925-.133-1.983-.265-2.909-.265-.661 0-1.322.133-1.983.133-1.058 0-1.983.132-2.909.397-.926.132-1.851.264-2.777.529-.925.264-1.851.529-2.776.925-.926.397-1.719.794-2.645 1.19-.793.397-1.587.926-2.512 1.322-30.809 20.099-12.429 67.171 8.594 80.79-7.933 1.454-15.999 3.173-18.247 4.892l-.264.264c5.686 3.438 11.636 6.347 17.851 8.859 8.462 2.777 17.453 5.289 21.42 6.347v.133a127.964 127.964 0 0 0 33.321 2.38c58.575-4.099 106.573-48.659 115.3-107.367.264 1.19.529 2.248.793 3.438.397 2.38.926 4.892 1.19 7.405v.132c.264 1.19.397 2.38.529 3.438v.529c.133 1.19.264 2.38.264 3.438.133 1.454.265 2.909.265 4.363v2.116c0 .661.132 1.454.132 2.116 0 .793-.132 1.586-.132 2.38v1.851c0 .925-.133 1.719-.133 2.644 0 .529 0 1.058-.132 1.719 0 .926-.133 1.851-.133 2.909-.132.397-.132.793-.132 1.19-.133 1.058-.265 1.984-.397 3.041 0 .397 0 .794-.132 1.19-.133 1.323-.397 2.513-.529 3.835v.265c-.265 1.19-.53 2.512-.794 3.702v.397l-.793 3.57c0 .132-.133.397-.133.529-.264 1.19-.529 2.38-.925 3.57v.397c-.397 1.322-.794 2.512-1.058 3.702-.132.132-.132.264-.132.264l-1.19 3.967c-.529 1.322-.926 2.512-1.455 3.834-.529 1.323-.925 2.645-1.454 3.835-.529 1.322-1.058 2.512-1.587 3.835h-.133c-.529 1.19-1.057 2.512-1.719 3.702a6.453 6.453 0 0 1-.396.925c-.133.133-.133.265-.264.397-8.595 17.321-21.289 32.527-37.156 44.428-1.057.661-2.115 1.454-3.173 2.247-.264.265-.661.397-.926.661-.925.662-1.851 1.323-2.909 1.984l.397.793h.133l5.553-.793h.132c3.438-.529 6.876-1.19 10.314-1.851.925-.133 1.983-.397 2.909-.661.661-.133 1.19-.265 1.851-.397.926-.133 1.851-.397 2.777-.529.793-.264 1.586-.397 2.38-.661 13.222-3.174 26.048-7.537 38.345-12.694-21.024 28.693-49.188 51.832-82.112 67.038 15.206-1.058 30.412-3.57 45.089-7.801 53.287-15.735 98.111-51.568 124.952-99.83-5.421 30.544-17.585 59.633-35.568 85.021a208.166 208.166 0 0 0 35.304-29.354c29.618-30.941 49.055-70.212 55.667-112.391 4.495 20.891 5.818 42.444 3.834 63.732 95.466-133.15 7.934-271.193-28.693-307.555-.132-.264-.264-.396-.264-.661-.132.132-.132.132-.132.264 0-.132 0-.132-.133-.264 0 1.587-.132 3.173-.264 4.76-.397 3.041-.793 5.95-1.322 8.859-.661 2.909-1.455 5.818-2.248 8.727-.926 2.777-1.984 5.686-3.174 8.462-1.19 2.645-2.512 5.422-3.966 8.066-1.455 2.512-3.041 5.157-4.76 7.537-1.719 2.512-3.57 4.892-5.422 7.14-1.983 2.38-4.099 4.496-6.214 6.611-1.322 1.19-2.512 2.248-3.835 3.306-1.058.926-1.983 1.719-3.041 2.644-2.38 1.852-4.76 3.57-7.404 5.157-2.513 1.587-5.157 3.174-7.802 4.496-2.776 1.322-5.553 2.512-8.33 3.702a93.253 93.253 0 0 1-8.595 2.777c-2.908.793-5.95 1.454-8.859 1.983-3.041.529-6.082.794-8.991 1.058-2.115.132-4.231.264-6.347.264-3.041 0-6.082-.264-8.991-.529-3.041-.264-6.082-.661-8.991-1.322-3.041-.529-5.95-1.322-8.859-2.248h-.133c2.909-.264 5.818-.529 8.727-1.058a95.95 95.95 0 0 0 8.859-1.983 92.95 92.95 0 0 0 8.595-2.777c2.909-1.058 5.686-2.38 8.33-3.702 2.777-1.322 5.289-2.777 7.933-4.364 2.513-1.718 5.025-3.437 7.405-5.289a72.28 72.28 0 0 0 6.744-5.95c2.247-1.983 4.231-4.231 6.214-6.479 1.983-2.38 3.835-4.76 5.554-7.14.264-.396.529-.925.793-1.322 1.322-2.116 2.644-4.231 3.834-6.347 1.455-2.644 2.777-5.289 3.967-8.066a92.696 92.696 0 0 0 3.174-8.462c.925-2.777 1.586-5.686 2.247-8.594.53-3.042 1.058-5.951 1.323-8.86.264-3.041.529-6.082.529-8.991 0-2.115-.133-4.231-.264-6.347-.265-3.041-.662-5.95-1.058-8.859a95.627 95.627 0 0 0-1.984-8.859c-.925-2.776-1.851-5.685-2.909-8.462-1.057-2.777-2.38-5.554-3.702-8.198-1.454-2.645-2.909-5.289-4.496-7.801a144.5 144.5 0 0 0-5.289-7.273c-1.983-2.248-3.966-4.495-6.082-6.743-1.058-1.058-2.248-2.248-3.438-3.306a243.388 243.388 0 0 0-18.379-12.958 24.781 24.781 0 0 0-2.644-1.322c-4.364-2.777-8.463-4.231-12.562-5.553v-.001Z"/></g></svg>