<svg xmlns="http://www.w3.org/2000/svg" width="512pt" height="512pt" style="isolation:isolate" viewBox="0 0 512 512"><defs><clipPath id="a"><path d="M0 0h512v512H0z"/></clipPath></defs><g clip-path="url(#a)"><path fill="#FF6C37" d="M288.606 2.085a256 256 0 1 0-65.213 507.829A256 256 0 0 0 288.606 2.085Z"/><path fill="#FFF" d="M185.078 272.178a.979.979 0 0 0 1.127.512l40.96-8.832-17.229-17.46-24.55 24.551a.947.947 0 0 0-.308 1.229ZM376.877 96.309a38.177 38.177 0 0 0-29.732 14.281 38.172 38.172 0 0 0 29.269 62.055 38.163 38.163 0 0 0 16.539-3.53l-25.958-25.958a3.206 3.206 0 0 1-.941-2.266 3.186 3.186 0 0 1 .941-2.265l33.92-33.895a38.17 38.17 0 0 0-24.038-8.422Z"/><path fill="#FFF" d="M405.573 109.133 373.777 140.8l24.935 24.935a36.595 36.595 0 0 0 5.12-4.352 38.404 38.404 0 0 0 1.741-52.25Zm-63.618 58.446h-.563a9.95 9.95 0 0 0-1.971.18h-.231c-.713.153-1.414.358-2.099.614l-.538.256a9.929 9.929 0 0 0-1.484.768l-.564.358a13.42 13.42 0 0 0-1.74 1.434l-94.285 94.309 11.673 11.673 99.84-87.627a11.608 11.608 0 0 0 1.536-1.638l.436-.564c.34-.5.649-1.022.921-1.561.154-.307.282-.615.41-.922.173-.409.318-.829.435-1.254 0-.307.179-.614.256-.922.126-.635.213-1.275.256-1.92v-2.227c0-.461 0-.614-.128-.921a12.436 12.436 0 0 0-9.754-9.805h-.486c-.634-.123-1.275-.2-1.92-.231Zm-127.616 74.29 19.354 19.251 94.54-94.541a18.923 18.923 0 0 1 11.367-5.299c-16.717-12.8-34.944-9.446-125.261 80.589ZM355.32 193.23l-1.152 1.127-99.84 87.603 16.973 16.947c42.086-39.808 79.436-77.721 84.019-105.677ZM106.284 398.462a.924.924 0 0 0 .819.666l43.52 2.995-24.396-24.397-19.738 19.712a.976.976 0 0 0-.205 1.024Zm24.497-25.267 25.728 25.728a1.944 1.944 0 0 0 2.432.333 1.92 1.92 0 0 0 .998-2.227l-4.326-18.483a5.529 5.529 0 0 1 2.842-6.17c45.106-22.605 81.484-45.875 108.185-69.12l-17.92-17.92-38.4 8.269-79.539 79.59Zm112.438-93.285-9.626-9.625-13.312 13.286a.641.641 0 0 0 0 .819.616.616 0 0 0 .743.333l22.195-4.813Z"/><path fill="#FF6C37" d="M406.469 129.768a2.976 2.976 0 0 0-2.893-2.048 2.969 2.969 0 0 0-2.407 4.608 8.913 8.913 0 0 1 .874 4.976 8.911 8.911 0 0 1-1.974 4.65 2.969 2.969 0 0 0 2.278 4.864 3.027 3.027 0 0 0 2.278-1.075 14.826 14.826 0 0 0 1.844-15.975Z"/></g></svg>