<svg xmlns="http://www.w3.org/2000/svg" width="512pt" height="512pt" style="isolation:isolate" viewBox="0 0 512 512"><defs><clipPath id="a"><path d="M0 0h512v512H0z"/></clipPath></defs><g clip-path="url(#a)"><path fill="#FFF" d="m256 0 226.269 127.985v256.03L256 512 29.731 384.015v-256.03L256 0Z"/><path fill="#8ED6FB" d="M441.868 375.186 263.484 476.101v-78.58l111.147-61.157 67.237 38.822Zm12.22-11.05v-211.01l-65.25 37.712v135.645l65.25 37.653ZM69.43 375.186l178.385 100.915v-78.58l-111.206-61.157-67.179 38.822Zm-12.22-11.05v-211.01l65.25 37.712v135.645l-65.25 37.653Zm7.66-224.691L247.815 35.958v75.949l-117.228 64.489-.935.527-64.782-37.478Zm381.559 0L263.484 35.958v75.949l117.227 64.431.936.526 64.782-37.419Z"/><path fill="#1C78C0" d="m247.815 379.63-109.686-60.339V199.842l109.686 63.32V379.63Zm15.669 0 109.685-60.28V199.842l-109.685 63.32V379.63ZM145.555 186.044l110.094-60.514 110.095 60.514-110.095 63.554-110.094-63.554Z"/></g></svg>