<?xml version="1.0" encoding="UTF-8" standalone="no"?><!-- Generator: Gravit.io --><svg xmlns="http://www.w3.org/2000/svg" xmlns:xlink="http://www.w3.org/1999/xlink" style="isolation:isolate" viewBox="0 0 512 512" width="512pt" height="512pt"><defs><clipPath id="_clipPath_ymm0ko6lTfRPvpO21iCFzc3IQMThEg39"><rect width="512" height="512"/></clipPath></defs><g clip-path="url(#_clipPath_ymm0ko6lTfRPvpO21iCFzc3IQMThEg39)"><circle vector-effect="non-scaling-stroke" cx="256" cy="256" r="256" fill="rgb(27,27,29)" /><path d=" M 353.559 215.279 C 352.074 216.431 325.857 231.204 325.857 264.052 C 325.857 302.046 359.217 315.488 360.215 315.82 C 360.062 316.64 354.915 334.229 342.626 352.15 C 331.668 367.922 320.224 383.667 302.814 383.667 C 285.405 383.667 280.924 373.554 260.826 373.554 C 241.24 373.554 234.276 384 218.351 384 C 202.427 384 191.315 369.407 178.539 351.485 C 163.741 330.439 151.785 297.745 151.785 266.715 C 151.785 216.943 184.146 190.547 215.996 190.547 C 232.919 190.547 247.026 201.659 257.651 201.659 C 267.764 201.659 283.536 189.881 302.789 189.881 C 310.085 189.881 336.302 190.547 353.559 215.279 L 353.559 215.279 Z  M 293.649 168.81 C 301.611 159.363 307.244 146.255 307.244 133.146 C 307.244 131.328 307.09 129.485 306.757 128 C 293.802 128.486 278.389 136.628 269.096 147.407 C 261.799 155.702 254.989 168.81 254.989 182.098 C 254.989 184.095 255.322 186.092 255.475 186.732 C 256.294 186.886 257.626 187.065 258.957 187.065 C 270.581 187.065 285.2 179.282 293.649 168.81 Z " fill="rgb(0,103,79)"/></g></svg>