<?xml version="1.0" encoding="UTF-8" standalone="no"?><!-- Generator: Gravit.io --><svg xmlns="http://www.w3.org/2000/svg" xmlns:xlink="http://www.w3.org/1999/xlink" style="isolation:isolate" viewBox="0 0 512 512" width="512pt" height="512pt"><defs><clipPath id="_clipPath_HaQaacQJl8BEfrbzTk6mjd2jjZyxq3aS"><rect width="512" height="512"/></clipPath></defs><g clip-path="url(#_clipPath_HaQaacQJl8BEfrbzTk6mjd2jjZyxq3aS)"><path d=" M 333.484 173.054 C 297.13 173.054 264.643 191.897 264.643 226.711 C 264.643 266.636 322.261 269.393 322.261 289.45 C 322.261 297.896 312.583 305.455 296.053 305.455 C 272.593 305.455 255.06 294.892 255.06 294.892 L 247.557 330.023 C 247.557 330.023 267.756 338.946 294.572 338.946 C 334.319 338.946 365.594 319.178 365.594 283.769 C 365.594 241.581 307.736 238.905 307.736 220.289 C 307.736 213.673 315.681 206.425 332.164 206.425 C 350.761 206.425 365.934 214.107 365.934 214.107 L 373.277 180.176 C 373.277 180.176 356.767 173.054 333.484 173.054 Z  M 0.88 175.615 L 0 180.736 C 0 180.736 15.294 183.536 29.069 189.119 C 46.805 195.522 48.069 199.249 51.056 210.826 L 83.606 336.305 L 127.24 336.305 L 194.461 175.615 L 150.927 175.615 L 107.734 284.869 L 90.108 192.26 C 88.492 181.661 80.304 175.615 70.282 175.615 L 0.88 175.615 L 0.88 175.615 Z  M 211.966 175.615 L 177.816 336.305 L 219.329 336.305 L 253.359 175.615 L 211.966 175.615 L 211.966 175.615 Z  M 443.499 175.615 C 433.488 175.615 428.184 180.974 424.293 190.339 L 363.474 336.305 L 407.007 336.305 L 415.43 311.977 L 468.466 311.977 L 473.588 336.305 L 512 336.305 L 478.49 175.615 L 443.499 175.615 L 443.499 175.615 Z  M 449.16 219.028 L 462.064 279.327 L 427.494 279.327 L 449.16 219.028 L 449.16 219.028 Z " fill="rgb(20,52,203)"/></g></svg>