<?xml version="1.0" encoding="UTF-8" standalone="no"?><!-- Generator: Gravit.io --><svg xmlns="http://www.w3.org/2000/svg" xmlns:xlink="http://www.w3.org/1999/xlink" style="isolation:isolate" viewBox="0 0 512 512" width="512pt" height="512pt"><defs><clipPath id="_clipPath_wlrb667hG7mT4neNgM1n5kkUxMlREezy"><rect width="512" height="512"/></clipPath></defs><g clip-path="url(#_clipPath_wlrb667hG7mT4neNgM1n5kkUxMlREezy)"><path d=" M 373.76 179.2 L 240 179.2 C 240.64 182.4 241.92 185.6 242.56 188.16 C 247.04 203.52 249.6 219.52 250.88 236.16 C 251.52 242.56 251.52 249.6 251.52 256 C 251.52 262.4 251.52 269.44 250.88 275.84 C 249.6 292.48 247.04 308.48 242.56 323.84 C 241.92 327.04 240.64 330.24 240 332.8 L 373.76 332.8 C 416 332.8 449.92 298.24 449.92 256 C 449.92 213.76 416 179.2 373.76 179.2 Z " fill="rgb(0,169,229)"/><path d=" M 250.88 275.84 C 251.52 269.44 251.52 262.4 251.52 256 C 251.52 249.6 251.52 242.56 250.88 236.16 C 249.6 219.52 247.04 203.52 242.56 188.16 C 241.92 184.96 240.64 181.76 240 179.2 L 33.28 179.2 C 25.6 203.52 21.76 229.12 21.76 256 C 21.76 282.88 25.6 308.48 33.28 332.8 L 240 332.8 C 240.64 329.6 241.92 326.4 242.56 323.84 C 247.04 308.48 249.6 292.48 250.88 275.84 Z " fill="rgb(53,53,53)"/><path d=" M 396.8 358.4 L 230.4 358.4 C 225.28 369.92 219.52 380.8 213.12 391.04 C 203.52 407.04 192 421.12 179.2 434.56 C 174.72 439.04 170.24 442.88 165.76 447.36 C 156.8 455.68 146.56 462.72 136.32 469.76 C 176.64 496.64 225.28 512 277.12 512 C 366.08 512 444.16 466.56 490.24 398.08 C 466.56 373.76 433.28 358.4 396.8 358.4 Z " fill="rgb(0,191,179)"/><path d=" M 213.12 391.04 C 219.52 380.8 225.28 369.92 230.4 358.4 L 42.88 358.4 C 62.72 403.84 95.36 442.88 136.96 469.76 C 147.2 462.72 156.8 455.68 166.4 447.36 C 170.88 443.52 175.36 439.04 179.84 434.56 C 192 421.76 203.52 407.04 213.12 391.04 Z " fill="rgb(1,155,143)"/><path d=" M 179.2 77.44 C 174.72 72.96 170.24 69.12 165.76 64.64 C 156.8 56.32 146.56 49.28 136.32 42.24 C 95.36 69.12 62.72 108.16 42.24 153.6 L 229.76 153.6 C 224.64 142.08 218.88 131.2 212.48 120.96 C 203.52 104.96 192 90.24 179.2 77.44 L 179.2 77.44 L 179.2 77.44 Z " fill="rgb(249,177,16)"/><path d=" M 277.12 0 C 225.28 0 176.64 15.36 136.32 42.24 C 146.56 49.28 156.16 56.32 165.76 64.64 C 170.24 68.48 174.72 72.96 179.2 77.44 C 192 90.88 203.52 104.96 213.12 120.96 C 219.52 131.2 225.28 142.08 230.4 153.6 L 396.8 153.6 C 433.28 153.6 466.56 138.24 490.24 113.92 C 444.16 45.44 366.08 0 277.12 0 L 277.12 0 L 277.12 0 Z " fill="rgb(254,209,10)"/></g></svg>