<?xml version="1.0" encoding="UTF-8" standalone="no"?><!-- Generator: Gravit.io --><svg xmlns="http://www.w3.org/2000/svg" xmlns:xlink="http://www.w3.org/1999/xlink" style="isolation:isolate" viewBox="0 0 512 512" width="512pt" height="512pt"><defs><clipPath id="_clipPath_myTfkHoqcbpL6HPBbt8gkab5JNW2wqjp"><rect width="512" height="512"/></clipPath></defs><g clip-path="url(#_clipPath_myTfkHoqcbpL6HPBbt8gkab5JNW2wqjp)"><g><path d=" M 366.815 203.753 C 339.842 84.761 283.622 53.084 269.28 30.691 C 263.367 20.827 258.128 10.572 253.6 0 C 252.843 10.571 251.451 17.231 242.466 25.247 C 224.426 41.332 147.804 103.771 141.355 238.972 C 135.348 365.029 234.027 442.761 247.064 450.795 C 257.09 455.728 269.299 450.9 275.254 446.372 C 322.822 413.727 387.815 326.693 366.867 203.753" fill="rgb(16,170,80)"/><path d=" M 257.688 383.669 C 255.204 414.872 253.424 433 247.118 450.829 C 247.118 450.829 251.258 480.535 254.164 512 L 264.454 512 C 266.907 489.843 270.655 467.847 275.676 446.125 C 262.356 439.572 258.199 411.048 257.688 383.669 Z " fill="rgb(184,196,194)"/><path d=" M 275.659 446.144 L 275.659 446.144 C 262.198 439.924 258.304 410.801 257.706 383.669 C 261.035 338.913 262.004 294.013 260.612 249.156 C 259.908 225.617 260.947 31.149 254.816 2.677 C 259.01 12.321 263.843 21.673 269.28 30.673 C 283.622 53.084 339.859 84.761 366.815 203.753 C 387.815 326.481 323.175 413.285 275.659 446.144 Z " fill="rgb(18,146,79)"/></g></g></svg>