<?xml version="1.0" encoding="UTF-8" standalone="no"?><!-- Generator: Gravit.io --><svg xmlns="http://www.w3.org/2000/svg" xmlns:xlink="http://www.w3.org/1999/xlink" style="isolation:isolate" viewBox="0 0 512 512" width="512pt" height="512pt"><defs><clipPath id="_clipPath_EaYXEV4IZpFAIV1CuDKBrZGrE9oG9yOh"><rect width="512" height="512"/></clipPath></defs><g clip-path="url(#_clipPath_EaYXEV4IZpFAIV1CuDKBrZGrE9oG9yOh)"><path d=" M 460.654 232.371 C 460.654 351.296 364.261 447.69 245.335 447.69 C 126.41 447.69 30.017 351.296 30.017 232.371 C 30.017 113.446 126.41 17.052 245.335 17.052 C 364.261 16.949 460.654 113.446 460.654 232.371 Z " fill="rgb(0,140,193)"/><path d=" M 125.47 161.745 C 125.47 171.24 117.751 178.959 108.258 178.959 C 98.763 178.959 91.044 171.24 91.044 161.745 C 91.044 152.252 98.763 144.533 108.258 144.533 C 117.855 144.533 125.47 152.252 125.47 161.745 Z " fill="rgb(255,255,255)"/><path d=" M 128.391 209.003 C 128.391 218.496 120.672 226.217 111.179 226.217 C 101.686 226.217 93.965 218.496 93.965 209.003 C 93.965 199.51 101.686 191.791 111.179 191.791 C 120.672 191.791 128.391 199.406 128.391 209.003 Z " fill="rgb(255,255,255)"/><path d=" M 138.928 259.078 C 138.928 268.571 131.208 276.29 121.715 276.29 C 112.222 276.29 104.501 268.571 104.501 259.078 C 104.501 249.583 112.222 241.864 121.715 241.864 C 131.208 241.76 138.928 249.48 138.928 259.078 Z " fill="rgb(255,255,255)"/><path d=" M 162.505 303.935 C 162.505 313.428 154.784 321.149 145.291 321.149 C 135.798 321.149 128.079 313.428 128.079 303.935 C 128.079 294.442 135.798 286.723 145.291 286.723 C 154.784 286.617 162.505 294.338 162.505 303.935 Z " fill="rgb(255,255,255)"/><path d=" M 346.84 366.633 C 346.84 376.126 339.121 383.845 329.626 383.845 C 320.133 383.845 312.414 376.126 312.414 366.633 C 312.414 357.14 320.133 349.419 329.626 349.419 C 339.121 349.419 346.84 357.14 346.84 366.633 Z " fill="rgb(255,255,255)"/><path d=" M 378.136 329.599 C 378.136 339.092 370.417 346.811 360.922 346.811 C 351.429 346.811 343.71 339.092 343.71 329.599 C 343.71 320.106 351.429 312.385 360.922 312.385 C 370.417 312.385 378.136 320.106 378.136 329.599 Z " fill="rgb(255,255,255)"/><path d=" M 287.377 67.753 C 287.377 77.246 279.656 84.965 270.163 84.965 C 260.67 84.965 252.951 77.246 252.951 67.753 C 252.951 58.26 260.67 50.54 270.163 50.54 C 279.656 50.54 287.377 58.26 287.377 67.753 Z " fill="rgb(255,255,255)"/><path d=" M 242.102 51.896 C 242.102 61.389 234.381 69.109 224.888 69.109 C 215.395 69.109 207.676 61.389 207.676 51.896 C 207.676 42.403 215.395 34.682 224.888 34.682 C 234.381 34.682 242.102 42.403 242.102 51.896 Z " fill="rgb(255,255,255)"/><path d=" M 364.157 66.291 C 427.533 66.291 478.91 117.67 478.91 181.045 C 478.91 244.421 427.533 295.798 364.157 295.798 C 300.78 295.798 249.403 244.421 249.403 181.045 C 249.403 117.67 300.78 66.291 364.157 66.291 Z " fill="rgb(102,178,69)"/><path d=" M 364.157 298.871 C 299.187 298.871 246.33 246.014 246.33 181.045 C 246.33 116.075 299.187 63.22 364.157 63.22 C 429.126 63.22 481.983 116.075 481.983 181.045 C 481.983 246.014 429.126 298.871 364.157 298.871 L 364.157 298.871 Z  M 364.157 69.367 C 302.576 69.367 252.477 119.466 252.477 181.045 C 252.477 242.626 302.576 292.724 364.157 292.724 C 425.738 292.724 475.836 242.626 475.836 181.045 C 475.836 119.466 425.738 69.367 364.157 69.367 L 364.157 69.367 Z " fill="rgb(255,255,255)"/><path d=" M 206.945 321.149 C 258.798 321.149 300.834 363.183 300.834 415.038 C 300.834 466.89 258.798 508.926 206.945 508.926 C 155.091 508.926 113.057 466.89 113.057 415.038 C 113.057 363.183 155.091 321.149 206.945 321.149 Z " fill="rgb(102,178,69)"/><path d=" M 206.945 512 C 153.479 512 109.983 468.502 109.983 415.038 C 109.983 361.571 153.479 318.075 206.945 318.075 C 260.412 318.075 303.908 361.571 303.908 415.038 C 303.908 468.502 260.412 512 206.945 512 L 206.945 512 Z  M 206.945 324.222 C 156.87 324.222 116.13 364.961 116.13 415.038 C 116.13 465.113 156.87 505.853 206.945 505.853 C 257.02 505.853 297.761 465.113 297.761 415.038 C 297.761 364.961 257.02 324.222 206.945 324.222 L 206.945 324.222 Z " fill="rgb(255,255,255)"/><path d=" M 129.643 3.074 C 164.212 3.074 192.236 31.098 192.236 65.666 C 192.236 100.234 164.212 128.259 129.643 128.259 C 95.075 128.259 67.051 100.234 67.051 65.666 C 67.051 31.098 95.075 3.074 129.643 3.074 Z " fill="rgb(102,178,69)"/><path d=" M 129.643 131.332 C 93.435 131.332 63.977 101.875 63.977 65.666 C 63.977 29.457 93.435 0 129.643 0 C 165.852 0 195.31 29.457 195.31 65.666 C 195.31 101.875 165.852 131.332 129.643 131.332 L 129.643 131.332 Z  M 129.643 6.147 C 96.824 6.147 70.125 32.847 70.125 65.666 C 70.125 98.485 96.824 125.185 129.643 125.185 C 162.463 125.185 189.162 98.485 189.162 65.666 C 189.162 32.847 162.463 6.147 129.643 6.147 L 129.643 6.147 Z " fill="rgb(255,255,255)"/></g></svg>