<?xml version="1.0" encoding="UTF-8" standalone="no"?><!-- Generator: Gravit.io --><svg xmlns="http://www.w3.org/2000/svg" xmlns:xlink="http://www.w3.org/1999/xlink" style="isolation:isolate" viewBox="0 0 512 512" width="512pt" height="512pt"><defs><clipPath id="_clipPath_iO4GfdKhuPTyE3TL35bXgi7A40vXkpBT"><rect width="512" height="512"/></clipPath></defs><g clip-path="url(#_clipPath_iO4GfdKhuPTyE3TL35bXgi7A40vXkpBT)"><g><path d=" M 491.931 374.96 C 464.608 389.203 323.068 447.397 292.935 463.105 C 262.801 478.819 246.061 478.665 222.257 467.285 C 198.455 455.907 47.831 395.065 20.699 382.096 C 7.136 375.613 0.007 370.144 0.007 364.977 L 0.007 313.225 C 0.007 313.225 196.097 270.536 227.757 259.18 C 259.413 247.821 270.395 247.412 297.335 257.281 C 324.277 267.149 485.363 296.215 511.991 305.965 C 511.991 305.965 511.979 352.185 511.979 356.983 C 511.981 362.1 505.839 367.713 491.931 374.96 L 491.931 374.96 Z " fill="rgb(164,30,17)"/><path d=" M 491.931 323.193 C 464.608 337.429 323.068 395.631 292.935 411.339 C 262.801 427.052 246.061 426.899 222.257 415.519 C 198.451 404.145 47.831 343.292 20.699 330.329 C -6.435 317.36 -7.003 308.433 19.651 297.999 C 46.301 287.559 196.097 228.788 227.76 217.429 C 259.416 206.077 270.399 205.661 297.339 215.533 C 324.281 225.401 464.976 281.404 491.599 291.155 C 518.229 300.916 519.252 308.951 491.931 323.193 L 491.931 323.193 Z " fill="rgb(216,44,32)"/><path d=" M 491.931 290.568 C 464.608 304.809 323.068 363.005 292.935 378.719 C 262.801 394.427 246.061 394.273 222.257 382.893 C 198.451 371.52 47.831 310.673 20.699 297.704 C 7.136 291.221 0.007 285.759 0.007 280.591 L 0.007 228.833 C 0.007 228.833 196.097 186.147 227.757 174.788 C 259.413 163.432 270.395 163.02 297.335 172.889 C 324.277 182.757 485.363 211.816 511.991 221.571 C 511.991 221.571 511.979 267.791 511.979 272.595 C 511.981 277.708 505.839 283.321 491.931 290.568 L 491.931 290.568 Z " fill="rgb(164,30,17)"/><path d=" M 491.931 238.801 C 464.608 253.043 323.068 311.239 292.935 326.952 C 262.801 342.66 246.061 342.507 222.257 331.127 C 198.451 319.753 47.831 258.903 20.699 245.937 C -6.435 232.972 -7.003 224.044 19.651 213.604 C 46.301 203.169 196.097 144.396 227.76 133.04 C 259.416 121.684 270.399 121.272 297.339 131.141 C 324.281 141.009 464.976 197.008 491.599 206.763 C 518.229 216.52 519.252 224.559 491.931 238.801 L 491.931 238.801 Z " fill="rgb(216,44,32)"/><path d=" M 491.931 203.045 C 464.608 217.288 323.068 275.487 292.935 291.2 C 262.801 306.908 246.061 306.755 222.257 295.375 C 198.451 284.001 47.831 223.151 20.699 210.185 C 7.136 203.703 0.007 198.236 0.007 193.072 L 0.007 141.313 C 0.007 141.313 196.097 98.627 227.757 87.272 C 259.413 75.913 270.395 75.504 297.335 85.372 C 324.277 95.241 485.363 124.3 511.991 134.055 C 511.991 134.055 511.979 180.275 511.979 185.075 C 511.981 190.185 505.839 195.799 491.931 203.045 L 491.931 203.045 Z " fill="rgb(164,30,17)"/><path d=" M 491.931 151.279 C 464.608 165.521 323.068 223.72 292.935 239.431 C 262.801 255.137 246.061 254.984 222.257 243.608 C 198.455 232.231 47.831 171.384 20.699 158.419 C -6.435 145.452 -7.003 136.523 19.651 126.085 C 46.301 115.647 196.097 56.88 227.76 45.521 C 259.416 34.163 270.399 33.753 297.339 43.625 C 324.281 53.493 464.976 109.492 491.599 119.247 C 518.229 128.999 519.252 137.04 491.931 151.279 Z " fill="rgb(216,44,32)"/><path d=" M 323.087 101.439 L 278.723 106.043 L 268.791 129.94 L 252.749 103.275 L 201.524 98.669 L 239.748 84.885 L 228.28 63.727 L 264.065 77.721 L 297.804 66.676 L 288.685 88.557 L 323.087 101.439 Z " fill="rgb(255,255,255)"/><path d=" M 266.143 217.372 L 183.345 183.032 L 301.988 164.823 L 266.143 217.372 Z " fill="rgb(255,255,255)"/><ellipse vector-effect="non-scaling-stroke" cx="151.35232670596363" cy="139.30030989196746" rx="63.411467314339205" ry="24.580257893407754" fill="rgb(255,255,255)"/><path d=" M 375.515 107.969 L 445.732 135.719 L 375.575 163.439 L 375.515 107.969 Z " fill="rgb(122,12,0)"/><path d=" M 297.835 138.699 L 375.515 107.969 L 375.575 163.439 L 367.961 166.417 L 297.835 138.699 Z " fill="rgb(173,33,21)"/></g></g></svg>