<?xml version="1.0" encoding="UTF-8" standalone="no"?><!-- Generator: Gravit.io --><svg xmlns="http://www.w3.org/2000/svg" xmlns:xlink="http://www.w3.org/1999/xlink" style="isolation:isolate" viewBox="0 0 512 512" width="512pt" height="512pt"><defs><clipPath id="_clipPath_BZElf8fKD4UQmzV9Rnukkz0lKMRvelZm"><rect width="512" height="512"/></clipPath></defs><g clip-path="url(#_clipPath_BZElf8fKD4UQmzV9Rnukkz0lKMRvelZm)"><circle vector-effect="non-scaling-stroke" cx="256" cy="256" r="256" fill="rgb(0,103,79)" /><path d=" M 180.098 221.252 C 179.742 213.962 182.193 206.813 186.947 201.275 C 191.743 195.519 198.611 191.881 206.067 191.145 C 206.65 198.656 204.24 206.093 199.361 211.834 C 194.81 217.866 187.653 221.365 180.098 221.252 Z  M 215.77 260.206 C 215.977 250.075 221.363 240.757 230.039 235.521 C 224.576 227.783 215.818 223.035 206.352 222.679 C 195.651 222.679 186.661 228.814 181.525 228.814 C 176.388 228.814 168.683 222.964 160.264 223.107 C 149.093 223.466 138.921 229.634 133.439 239.373 C 122.023 259.064 130.442 288.458 141.572 304.439 C 146.994 312.43 153.558 321.134 162.119 320.849 C 170.68 320.563 173.391 315.569 183.237 315.569 C 193.082 315.569 195.936 320.849 204.498 320.706 C 213.059 320.563 218.766 312.715 224.474 304.725 C 228.31 299.108 231.291 292.953 233.321 286.461 C 222.72 282.039 215.803 271.692 215.77 260.206 Z  M 365.308 229.242 L 342.763 302.014 L 342.763 302.014 L 320.361 229.242 L 300.955 229.242 L 332.917 319.564 L 352.038 319.564 L 384 228.957 L 365.308 229.242 Z  M 273.844 207.554 L 255.865 207.554 L 255.865 229.242 L 242.595 229.242 L 242.595 243.511 L 255.865 243.511 L 255.865 296.163 C 255.865 313.572 262.857 320.563 280.836 320.563 C 284.284 320.541 287.722 320.207 291.11 319.564 L 291.11 305.296 L 284.974 305.296 C 277.269 305.296 273.844 301.586 273.844 293.738 L 273.844 243.511 L 291.252 243.511 L 291.252 229.242 L 273.844 229.242 L 273.844 207.554 Z " fill="rgb(249,249,249)"/></g></svg>