<?xml version="1.0" encoding="UTF-8" standalone="no"?><!-- Generator: Gravit.io --><svg xmlns="http://www.w3.org/2000/svg" xmlns:xlink="http://www.w3.org/1999/xlink" style="isolation:isolate" viewBox="0 0 512 512" width="512pt" height="512pt"><defs><clipPath id="_clipPath_EEF0DjPfIv4Xgh8f54hcC4PSuJvSp92P"><rect width="512" height="512"/></clipPath></defs><g clip-path="url(#_clipPath_EEF0DjPfIv4Xgh8f54hcC4PSuJvSp92P)"><path d="M 477.714 383.995 L 256.005 512 L 34.286 383.995 L 34.286 127.985 L 256.005 0 L 477.714 127.985 L 477.714 383.995 Z" fill-rule="evenodd" fill="rgb(27,27,29)" /><path d=" M 166.48 301.346 C 156.117 300.425 147.048 296.32 140.158 289.433 C 133.651 282.929 129.659 274.674 128.302 264.919 C 127.969 262.521 127.895 256.889 128.163 254.361 C 129.034 246.154 132.022 238.822 137.068 232.505 C 138.428 230.803 141.254 227.917 142.881 226.568 C 151.505 219.419 162.391 215.936 174.174 216.557 C 179.734 216.849 183.55 217.532 187.821 218.997 C 190.786 220.014 195.046 222.166 196.36 223.309 L 196.692 223.598 L 196.654 226.831 L 196.617 230.064 L 195.21 229.198 C 188.759 225.227 180.575 223.126 171.584 223.131 C 163.964 223.136 156.931 225.177 150.943 229.123 C 144.782 233.182 140.14 238.913 137.423 245.814 C 133.744 255.157 134.313 266.573 138.917 275.788 C 144.166 286.294 153.836 293.053 165.833 294.602 C 169.363 295.058 174.569 294.85 178.267 294.106 C 190.368 291.672 197.961 283.396 199.578 270.879 C 199.747 269.573 199.807 268 199.817 264.584 L 199.831 260.03 L 185.533 259.996 L 171.235 259.962 L 171.235 253.534 L 206.194 253.534 L 206.192 259.327 C 206.191 265.859 206.048 269.277 205.663 272.011 C 204.5 280.268 201.426 286.84 196.353 291.912 C 191.213 297.053 184.634 300.069 176.191 301.155 C 174.221 301.408 168.455 301.522 166.48 301.346 L 166.48 301.346 Z  M 329.552 224.619 L 329.552 210.539 L 336.115 210.539 L 336.115 234.34 L 335.548 234.595 C 334.375 235.121 332.712 236.256 329.72 238.57 C 329.586 238.673 329.552 235.863 329.552 224.619 Z  M 319.641 229.719 L 319.641 210.539 L 326.204 210.539 L 326.204 241.241 L 325.178 242.331 C 324.128 243.448 322.239 245.668 320.718 247.574 C 320.248 248.163 319.813 248.702 319.752 248.772 C 319.691 248.842 319.641 240.269 319.641 229.719 L 319.641 229.719 Z  M 168.222 291.358 C 159.98 290.71 153.04 287.529 147.576 281.895 C 145.972 280.24 145.047 279.091 143.814 277.22 C 139.244 270.286 137.466 261.23 139.023 252.808 C 141.019 242.012 148.471 233.049 158.907 228.891 C 161.561 227.834 164.836 227.054 167.947 226.738 C 169.966 226.533 175.389 226.648 177.53 226.941 C 184.425 227.884 190.58 230.014 195.511 233.164 L 196.683 233.912 L 196.683 237.088 C 196.684 239.983 196.663 240.276 196.448 240.391 C 196.264 240.489 195.849 240.286 194.54 239.456 C 189.374 236.182 183.875 234.269 177.396 233.494 C 174.928 233.198 169.594 233.16 167.753 233.425 C 155.915 235.128 147.481 243.644 145.982 255.409 C 145.574 258.612 145.852 263.127 146.649 266.258 C 148.43 273.25 152.734 278.936 158.495 281.909 C 162.405 283.926 165.843 284.742 170.432 284.742 C 176.857 284.742 182.025 282.915 185.57 279.39 C 187.868 277.105 189.211 274.335 189.516 271.248 L 189.612 270.276 L 171.235 270.276 L 171.235 263.446 L 196.416 263.446 L 196.416 266.177 C 196.416 270.391 196.079 272.894 195.133 275.724 C 193.215 281.457 189.147 286.009 183.558 288.676 C 179.923 290.411 176.054 291.255 171.255 291.359 C 169.955 291.387 168.59 291.387 168.222 291.358 L 168.222 291.358 Z  M 350.54 291.431 C 345.333 290.969 340.748 288.672 336.835 284.564 C 334.029 281.619 332.041 278.105 331.176 274.563 C 330.675 272.51 330.517 272.911 333.377 268.968 C 334.773 267.044 335.954 265.467 336.002 265.462 C 336.05 265.458 336.129 266.103 336.177 266.894 C 336.298 268.898 336.478 270.125 336.881 271.683 C 338.667 278.599 343.69 283.597 349.955 284.693 C 351.618 284.983 354.476 284.878 356.072 284.466 C 361.841 282.979 365.678 278.619 367.142 271.884 C 367.496 270.257 367.498 265.48 367.146 263.878 C 366.429 260.614 365.029 257.859 363.004 255.727 C 360.11 252.681 356.315 251.123 351.786 251.123 C 345.975 251.123 341.747 253.481 336.171 259.831 C 330.72 266.041 321.666 277.547 317.114 284.052 L 315.489 286.375 L 315.489 275.567 L 317.804 272.419 C 319.077 270.688 321.308 267.735 322.761 265.856 C 324.215 263.978 326.232 261.356 327.243 260.031 C 331.891 253.94 334.89 250.884 338.7 248.356 C 346.56 243.141 356.903 243.009 364.403 248.029 C 372.058 253.152 375.736 263.171 373.684 273.307 C 372.028 281.484 366.791 287.794 359.546 290.341 C 357.979 290.892 356.177 291.263 354.263 291.43 C 352.498 291.584 352.264 291.584 350.539 291.431 L 350.54 291.431 Z  M 295.665 282.717 C 295.665 268.149 295.637 265.631 295.458 264.426 C 294.802 260.011 292.764 256.332 289.697 254.03 C 287.708 252.538 285.477 251.61 282.828 251.175 C 280.93 250.862 278.095 250.984 276.311 251.455 C 270.356 253.027 266.073 257.878 264.781 264.517 C 264.412 266.411 264.443 269.985 264.846 271.884 C 266.171 278.133 270.135 282.645 275.708 284.25 C 280.614 285.661 287.374 284.604 291.549 281.771 L 292.322 281.246 L 292.286 284.699 L 292.25 288.151 L 290.911 288.852 C 287.522 290.624 282.211 291.754 278.454 291.503 C 271.263 291.023 265.476 287.759 261.625 282.01 C 257.526 275.891 256.478 267.01 258.971 259.52 C 262.265 249.626 271.502 243.582 282.037 244.428 C 287.75 244.886 292.04 246.803 295.805 250.578 C 299.284 254.067 301.151 257.835 302.046 263.178 C 302.261 264.459 302.286 266.14 302.328 282.097 L 302.375 299.609 L 295.665 299.609 L 295.665 282.717 Z  M 220.527 282.298 C 220.529 264.542 220.585 262.163 221.057 259.847 C 222.269 253.9 225.797 249.169 230.955 246.576 C 232.176 245.962 234.713 245.153 236.196 244.903 C 240.667 244.152 245.314 244.831 248.614 246.719 L 249.311 247.118 L 248.759 248.016 C 248.455 248.509 247.79 249.772 247.282 250.822 C 246.773 251.871 246.346 252.73 246.333 252.73 C 246.319 252.73 245.736 252.526 245.036 252.276 C 242.042 251.208 239.305 251.035 236.507 251.737 C 233.887 252.394 231.501 253.941 229.955 255.985 C 229.093 257.125 228.096 259.228 227.657 260.834 L 227.291 262.173 L 227.253 280.891 L 227.215 299.609 L 220.525 299.609 L 220.527 282.298 Z  M 210.748 281.159 C 210.748 262.721 210.779 261.23 211.23 258.49 C 212.619 250.043 217.04 243.15 223.638 239.144 C 229.91 235.335 238.232 234.032 246.242 235.604 C 249.094 236.164 252.64 237.544 254.826 238.944 L 255.71 239.51 L 254.143 241.064 C 253.281 241.919 252.304 242.939 251.971 243.332 L 251.367 244.046 L 250.579 243.649 C 247.947 242.321 243.494 241.345 240.068 241.345 C 229.293 241.345 220.89 247.601 218.257 257.582 C 217.353 261.011 217.395 259.948 217.345 280.757 L 217.3 299.609 L 210.748 299.609 L 210.748 281.159 Z  M 349.509 301.402 C 339.455 300.485 331.126 295.66 326.008 287.785 C 325.201 286.542 323.797 283.717 323.52 282.778 L 323.356 282.22 L 325.684 279.053 L 328.012 275.886 L 328.13 276.329 C 329.637 281.99 332.941 286.806 337.599 290.129 C 339.048 291.162 341.68 292.56 343.423 293.223 C 347.8 294.885 352.651 295.285 357.375 294.374 C 360.449 293.781 364.098 292.219 366.654 290.403 C 368.225 289.286 371.14 286.394 372.2 284.898 C 374.793 281.242 376.499 276.896 377.186 272.199 C 377.501 270.046 377.504 265.703 377.192 263.572 C 376.102 256.135 372.717 250.151 367.256 246.01 C 362.66 242.525 356.186 240.716 350.01 241.193 C 340.658 241.914 334.214 246.168 324.944 257.738 C 323.993 258.925 321.498 262.186 319.4 264.986 C 317.302 267.785 315.563 270.101 315.537 270.131 C 315.51 270.162 315.489 267.991 315.489 265.307 L 315.489 260.426 L 317.735 257.281 C 322.495 250.616 324.555 248.069 327.807 244.828 C 331.193 241.453 333.902 239.454 337.522 237.66 C 340.563 236.153 343.486 235.247 347.098 234.691 C 349.266 234.358 354.575 234.358 356.742 234.691 C 364.125 235.827 370.001 238.819 374.958 243.97 C 379.813 249.014 382.72 255.271 383.819 263.044 C 384.06 264.751 384.061 270.973 383.82 272.687 C 383.039 278.246 381.236 283.233 378.519 287.354 C 373.477 295.002 366.132 299.729 357.077 301.152 C 355.782 301.355 350.804 301.52 349.51 301.402 L 349.509 301.402 Z  M 276.78 301.332 C 262.265 300.002 251.06 289.8 248.263 275.366 C 247.734 272.633 247.648 271.607 247.648 267.999 C 247.648 263.582 247.946 261.3 248.994 257.684 C 251.74 248.217 258.713 240.37 267.605 236.744 C 271.852 235.011 275.539 234.315 280.396 234.326 C 285.107 234.337 288.577 234.948 292.518 236.459 C 296.724 238.071 300.121 240.311 303.311 243.575 C 307.951 248.324 310.714 254.039 311.91 261.36 C 312.19 263.075 312.196 263.478 312.24 281.36 L 312.285 299.609 L 305.577 299.609 L 305.576 282.833 C 305.574 272.418 305.522 265.448 305.436 264.45 C 304.865 257.828 302.166 251.989 297.739 247.799 C 292.771 243.098 285.494 240.618 278.354 241.193 C 266.087 242.181 256.971 250.592 254.815 262.91 C 254.213 266.347 254.319 270.932 255.087 274.734 C 255.641 277.476 257.043 281.086 258.425 283.332 C 261.315 288.028 265.571 291.457 270.796 293.299 C 275.271 294.876 280.396 295.276 284.758 294.386 C 287.251 293.878 290.217 292.737 291.705 291.713 L 292.317 291.292 L 292.317 297.945 L 291.547 298.453 C 289.355 299.898 286.131 300.957 282.74 301.344 C 281.34 301.505 278.605 301.499 276.78 301.332 L 276.78 301.332 Z " fill-rule="evenodd" fill="rgb(0,103,79)"/></g></svg>