<?xml version="1.0" encoding="UTF-8" standalone="no"?><!-- Generator: Gravit.io --><svg xmlns="http://www.w3.org/2000/svg" xmlns:xlink="http://www.w3.org/1999/xlink" style="isolation:isolate" viewBox="0 0 512 512" width="512pt" height="512pt"><defs><clipPath id="_clipPath_JUlIzOBB0bi7SJU6lpmBieYWSigkM5n1"><rect width="512" height="512"/></clipPath></defs><g clip-path="url(#_clipPath_JUlIzOBB0bi7SJU6lpmBieYWSigkM5n1)"><path d="M 477.714 383.995 L 256.005 512 L 34.286 383.995 L 34.286 127.985 L 256.005 0 L 477.714 127.985 L 477.714 383.995 Z" fill-rule="evenodd" fill="rgb(27,27,29)" /><path d=" M 144.664 135.205 L 144.442 135.205 C 141.488 135.205 138.946 135.205 136.896 135.475 C 134.72 135.761 132.624 136.428 130.923 138.128 C 129.224 139.827 128.556 141.924 128.271 144.1 C 128 146.134 128 148.692 128 151.646 L 128 171.535 C 128 174.491 128 177.032 128.271 179.081 C 128.572 181.273 129.224 183.355 130.923 185.054 C 132.624 186.755 134.72 187.421 136.896 187.707 C 138.93 187.977 141.488 187.977 144.442 187.977 L 165.777 187.977 C 168.731 187.977 171.274 187.977 173.323 187.707 C 175.499 187.421 177.596 186.755 179.296 185.054 C 180.995 183.355 181.663 181.258 181.949 179.081 C 182.219 177.048 182.219 174.491 182.219 171.535 L 182.219 151.646 C 182.219 148.692 182.219 146.15 181.949 144.1 C 181.647 141.908 180.995 139.827 179.296 138.128 C 177.596 136.428 175.499 135.761 173.323 135.475 C 171.29 135.205 168.731 135.205 165.777 135.205 L 144.664 135.205 Z  M 144.664 225.992 L 144.442 225.992 C 141.488 225.992 138.946 225.992 136.896 226.262 C 134.72 226.564 132.624 227.215 130.923 228.915 C 129.224 230.614 128.556 232.712 128.271 234.888 C 128 236.921 128 239.479 128 242.434 L 128 360.322 C 128 363.276 128 365.819 128.271 367.868 C 128.572 370.06 129.224 372.142 130.923 373.841 C 132.624 375.54 134.72 376.208 136.896 376.494 C 138.93 376.764 141.488 376.764 144.442 376.764 L 165.777 376.764 C 168.731 376.764 171.274 376.764 173.323 376.494 C 175.499 376.192 177.596 375.54 179.296 373.841 C 180.995 372.142 181.663 370.044 181.949 367.868 C 182.219 365.835 182.219 363.276 182.219 360.322 L 182.219 242.434 C 182.219 239.479 182.219 236.937 181.949 234.888 C 181.647 232.696 180.995 230.614 179.296 228.915 C 177.596 227.215 175.499 226.548 173.323 226.262 C 171.29 225.992 168.731 225.992 165.777 225.992 L 144.664 225.992 Z  M 238.137 135.205 L 261.616 135.205 C 331.243 135.205 384 186.643 384 256 C 384 325.358 331.243 376.795 261.616 376.795 L 238.137 376.795 C 235.182 376.795 232.64 376.795 230.591 376.526 C 228.399 376.224 226.317 375.573 224.618 373.873 C 222.918 372.173 222.251 370.076 221.965 367.9 C 221.695 365.867 221.695 363.309 221.695 360.354 L 221.695 340.942 C 221.695 337.987 221.695 335.446 221.965 333.396 C 222.251 331.204 222.918 329.123 224.618 327.423 C 226.317 325.723 228.415 325.056 230.591 324.769 C 232.624 324.5 235.182 324.5 238.137 324.5 L 261.616 324.5 C 281.759 324.5 298.757 317.415 310.718 305.421 C 322.681 293.443 329.782 276.35 329.782 256.016 C 329.782 235.682 322.664 218.59 310.718 206.611 C 298.757 194.618 281.759 187.533 261.632 187.533 L 238.153 187.533 C 235.197 187.533 232.656 187.533 230.607 187.262 C 228.415 186.977 226.333 186.309 224.634 184.61 C 222.935 182.91 222.267 180.813 221.981 178.637 C 221.711 176.603 221.711 174.045 221.711 171.091 L 221.711 151.678 C 221.711 148.724 221.711 146.182 221.981 144.133 C 222.267 141.941 222.935 139.859 224.634 138.159 C 226.333 136.46 228.431 135.793 230.607 135.507 C 232.64 135.236 235.197 135.236 238.153 135.236 L 238.137 135.205 Z " fill-rule="evenodd" fill="rgb(0,103,79)"/></g></svg>