<?xml version="1.0" encoding="UTF-8" standalone="no"?><!-- Generator: Gravit.io --><svg xmlns="http://www.w3.org/2000/svg" xmlns:xlink="http://www.w3.org/1999/xlink" style="isolation:isolate" viewBox="0 0 512 512" width="512pt" height="512pt"><defs><clipPath id="_clipPath_XaPGKyeLrcgYBUqcsyUqjchdNCgyk5zm"><rect width="512" height="512"/></clipPath></defs><g clip-path="url(#_clipPath_XaPGKyeLrcgYBUqcsyUqjchdNCgyk5zm)"><path d="M 477.714 383.995 L 256.005 512 L 34.286 383.995 L 34.286 127.985 L 256.005 0 L 477.714 127.985 L 477.714 383.995 Z" fill-rule="evenodd" fill="rgb(27,27,29)" /><path d=" M 157.452 351.884 C 175.272 351.884 186.179 341.349 198.183 327.554 C 206.183 318.468 213.809 319.193 220.722 328.641 C 228.721 339.9 239.267 351.884 256 351.884 C 272.723 351.884 283.268 339.9 291.268 328.641 C 298.18 319.193 305.817 318.468 313.817 327.554 C 325.821 341.349 336.728 351.884 354.548 351.884 C 370.899 351.884 384 337.717 384 311.566 C 384 251.286 338.539 160.116 297.818 160.116 C 275.631 160.116 269.463 183.359 256 183.359 C 242.547 183.359 236.348 160.116 214.182 160.116 C 173.45 160.116 128 251.286 128 311.566 C 128 337.717 141.091 351.884 157.452 351.884 Z " fill-rule="evenodd" fill="rgb(237,29,36)"/></g></svg>