<?xml version="1.0" encoding="UTF-8" standalone="no"?><!-- Generator: Gravit.io --><svg xmlns="http://www.w3.org/2000/svg" xmlns:xlink="http://www.w3.org/1999/xlink" style="isolation:isolate" viewBox="0 0 512 512" width="512pt" height="512pt"><defs><clipPath id="_clipPath_RhCNHY5HCrJAjz5KyOxVnZ3gdqTFbbVK"><rect width="512" height="512"/></clipPath></defs><g clip-path="url(#_clipPath_RhCNHY5HCrJAjz5KyOxVnZ3gdqTFbbVK)"><path d="M 477.714 383.995 L 256.005 512 L 34.286 383.995 L 34.286 127.985 L 256.005 0 L 477.714 127.985 L 477.714 383.995 Z" fill-rule="evenodd" fill="rgb(27,27,29)" /><path d=" M 335.519 260.299 C 336.246 257.158 337.996 254.129 339.971 251.612 C 340.685 250.703 342.739 249.263 342.624 248.01 C 342.497 246.589 340.345 244.897 339.523 243.773 C 337.728 241.326 336.407 238.446 335.653 235.511 C 335.415 234.587 334.596 232.463 335.122 231.577 C 335.626 230.728 337.66 231.023 338.487 231.08 C 340.693 231.231 342.928 231.571 345.054 232.183 C 346.073 232.476 347.585 233.321 348.647 233.104 C 350.119 232.805 351.502 230.004 352.49 228.944 C 354.907 226.348 357.94 224.091 361.157 222.587 C 360.412 220.824 358.825 219.367 357.343 218.199 C 349.028 211.636 335.91 215.68 332.958 225.977 C 331.456 231.218 332.76 237.083 335.152 241.868 C 335.847 243.259 336.685 244.646 337.616 245.893 C 338.047 246.47 338.933 247.235 338.933 248.012 C 338.933 248.898 337.79 249.89 337.293 250.555 C 335.793 252.555 334.583 254.783 333.701 257.122 C 333.468 257.738 332.746 259.093 333.202 259.719 C 333.602 260.261 334.91 260.221 335.519 260.299 Z  M 336.157 232.331 C 336.233 235.987 340.511 234.901 343.361 235.611 C 345.166 236.061 348.567 238.374 350.308 237.977 C 351.576 237.688 353.118 234.005 353.972 232.969 C 356.793 229.549 360.159 227.533 363.914 225.342 C 364.636 227.984 365.698 230.416 365.998 233.181 C 366.18 234.84 365.711 237.575 366.374 239.066 C 366.699 239.795 367.693 239.912 368.366 240.143 C 370.057 240.731 371.686 241.435 373.238 242.322 C 375.041 243.352 376.774 244.538 378.323 245.929 C 378.828 246.383 379.627 247.52 380.423 247.303 C 381.347 247.052 381.931 245.402 382.284 244.623 C 383.622 241.651 384.317 238.325 383.86 235.088 C 382.679 226.69 375.099 221.395 366.883 221.971 C 361.501 222.349 356.735 226.125 353.112 229.791 C 352.046 230.872 350.55 234.079 349.168 234.547 C 348.225 234.865 346.235 233.623 345.275 233.368 C 342.212 232.559 339.304 232.331 336.157 232.331 Z  M 360.945 227.882 C 361.472 231.461 362.514 234.555 362.425 238.263 C 362.4 239.253 361.544 241.558 362.342 242.32 C 363.26 243.193 365.862 243.259 367.089 243.671 C 369.916 244.623 372.603 246.107 374.929 247.97 C 375.704 248.592 377.883 250.077 377.883 251.171 C 377.883 252.054 375.995 253.016 375.354 253.445 C 373.51 254.675 371.501 255.712 369.421 256.476 C 368.498 256.814 366.858 256.988 366.159 257.702 C 365.305 258.572 365.894 261.064 365.758 262.209 C 365.267 266.363 363.137 269.895 362.43 273.863 C 365.626 274.884 369.086 275.315 372.389 274.519 C 383.762 271.779 386.474 258.328 380.366 249.497 C 378.187 246.345 374.381 243.801 370.906 242.265 C 369.564 241.67 365.945 241.152 365.193 239.916 C 364.424 238.652 365.006 235.904 364.972 234.455 C 364.908 231.894 364.195 229.205 363.279 226.828 L 360.945 227.882 Z  M 166.022 262.417 C 169.017 261.089 171.644 260.012 173.751 257.332 C 178.515 251.279 177.846 240.836 171.954 235.785 C 163.856 228.84 150.039 231.272 140.174 231.272 L 132.757 231.272 C 131.617 231.272 130.353 231.11 129.378 231.832 C 127.456 233.26 128.307 237.62 128.307 239.746 L 128.307 286.358 C 128.307 288.753 127.386 293.619 128.734 295.658 C 130.128 297.767 135.818 296.739 138.054 296.739 L 154.793 296.739 C 159.026 296.739 163.244 296.928 167.294 295.456 C 171.402 293.963 174.881 291.302 176.975 287.415 C 182.251 277.624 176.939 264.919 166.022 262.417 Z  M 139.749 240.383 L 152.25 240.383 C 155.368 240.383 158.569 240.311 161.36 241.94 C 166.812 245.12 165.999 254.65 160.725 257.566 C 158.157 258.984 155.285 258.817 152.463 258.817 L 139.749 258.817 L 139.749 240.383 Z  M 162.42 286.3 C 159.406 287.808 156.154 287.628 152.885 287.628 L 139.749 287.628 L 139.749 266.864 L 152.673 266.864 C 156.084 266.864 159.563 266.781 162.632 268.534 C 169.074 272.212 169.187 282.915 162.42 286.3 Z  M 193.852 232.355 C 193.004 231.25 191.647 231.272 190.388 231.272 L 182.973 231.272 L 182.973 291.02 C 182.973 292.457 182.561 294.654 183.534 295.847 C 184.347 296.843 185.63 296.739 186.785 296.739 L 194.412 296.739 L 194.412 237.416 C 194.412 235.897 194.837 233.635 193.852 232.355 Z  M 255.45 255.212 C 254.592 250.068 252.676 244.916 249.405 240.806 C 242.271 231.839 232.08 231.272 221.533 231.272 L 206.701 231.272 C 204.934 231.272 202.326 230.762 201.088 232.353 C 200.147 233.565 200.557 235.764 200.557 237.204 L 200.557 296.739 L 221.745 296.739 C 226.49 296.739 231.29 297.066 235.941 295.966 C 253.793 291.742 258.062 270.868 255.45 255.212 Z  M 242.649 275.766 C 241.491 279.376 239.535 282.732 236.364 284.924 C 229.795 289.469 219.562 287.63 211.998 287.63 L 211.998 240.383 C 219.585 240.383 229.786 238.614 236.364 243.231 C 245.618 249.726 245.773 266.004 242.649 275.766 Z  M 319.125 231.938 C 318.891 230.726 315.07 231.272 314.121 231.272 C 309.493 231.272 303.726 230.275 300.872 234.874 C 297.72 239.952 296.443 247.016 294.557 252.67 C 290.868 263.736 286.771 274.708 283.611 285.935 C 282.37 282.653 281.627 279.107 280.503 275.766 C 277.25 266.093 273.987 256.421 270.757 246.74 C 269.648 243.414 268.48 240.107 267.367 236.781 C 266.819 235.137 266.462 233.115 264.963 232.045 C 262.272 230.127 256.284 231.272 253.103 231.272 C 253.874 236.416 256.62 241.819 258.328 246.738 C 262.221 257.952 266.158 269.164 269.911 280.425 C 271.116 284.036 272.316 287.666 273.645 291.232 C 274.452 293.398 275.355 295.442 277.681 296.298 C 280.625 297.379 284.541 296.739 287.64 296.739 C 288.568 296.739 290.341 297.077 291.134 296.521 C 292.051 295.877 292.387 293.73 292.725 292.712 C 293.812 289.45 295.027 286.228 296.114 282.966 C 300.199 270.713 304.404 258.443 308.837 246.311 C 310.162 242.683 311.689 238.559 314.758 236.027 C 315.841 235.137 319.465 233.686 319.125 231.938 Z  M 359.25 268.984 C 356.714 267.399 354.446 265.084 352.755 262.627 C 352.086 261.654 351.126 258.984 350.056 258.521 C 348.671 257.923 345.236 260.08 343.781 260.478 C 339.574 261.629 335.736 261.261 331.492 260.722 C 332.128 257.646 333.47 254.705 335.095 252.035 C 335.762 250.939 337.535 249.325 337.539 248.01 C 337.546 246.383 335.133 243.945 334.341 242.501 C 332.716 239.54 331.919 236.254 331.282 232.966 C 329.065 233.162 326.845 234.632 325.138 235.978 C 316.986 242.395 317.188 254.771 325.773 260.781 C 330.443 264.05 336.375 264.479 341.874 263.596 C 343.607 263.317 347.033 261.48 348.633 261.915 C 349.505 262.153 350.087 263.632 350.567 264.324 C 351.997 266.397 353.694 268.192 355.646 269.778 C 356.185 270.218 357.16 271.254 357.931 271.125 C 358.723 270.991 359.065 269.623 359.25 268.984 Z  M 358.403 273.011 L 351.292 266.866 L 348.214 263.249 L 342.301 264.657 L 331.919 264.747 C 331.919 269.37 333.128 273.809 336.431 277.212 C 343.212 284.195 354.331 282.445 360.008 275.128 C 362.695 271.666 363.974 267.348 364.488 263.052 C 364.66 261.618 363.988 258.052 364.889 256.999 C 365.764 255.975 368.381 255.735 369.636 255.276 C 372.244 254.325 374.597 252.791 376.84 251.185 C 376.477 250.417 375.721 249.344 374.721 249.516 C 373.593 249.709 372.325 250.92 371.331 251.487 C 369.551 252.498 367.586 253.231 365.611 253.753 C 364.736 253.985 362.593 254.01 362.015 254.732 C 361.571 255.285 361.875 256.281 361.947 256.905 C 362.134 258.481 362.071 260.193 362 261.777 C 361.814 265.94 359.962 269.286 358.403 273.011 Z " fill-rule="evenodd" fill="rgb(85,0,0)"/></g></svg>