<?xml version="1.0" encoding="UTF-8" standalone="no"?><!-- Generator: Gravit.io --><svg xmlns="http://www.w3.org/2000/svg" xmlns:xlink="http://www.w3.org/1999/xlink" style="isolation:isolate" viewBox="0 0 512 512" width="512pt" height="512pt"><defs><clipPath id="_clipPath_no8yHL0GB98OGvMm7oQ83t5n37A1TcBy"><rect width="512" height="512"/></clipPath></defs><g clip-path="url(#_clipPath_no8yHL0GB98OGvMm7oQ83t5n37A1TcBy)"><rect x="0" y="0" width="512" height="512" transform="matrix(1,0,0,1,0,0)" fill="rgb(27,27,29)"/><path d=" M 342.949 157.072 C 334.915 162.807 319.641 170.693 299.912 165.834 C 265.785 157.391 256 128 256 128 C 256 128 246.215 157.471 212.088 165.834 C 192.359 170.693 177.085 162.887 169.05 157.072 L 162.925 157.072 L 162.925 315.818 C 162.925 319.801 163.88 327.766 170.403 335.652 C 178.438 345.449 192.041 351.741 210.894 354.449 C 225.929 356.6 236.987 361.379 244.783 368.866 C 250.511 374.442 256 384 256 384 C 256 384 261.648 374.203 267.217 368.866 C 275.013 361.299 286.15 356.6 301.106 354.449 C 319.959 351.741 333.562 345.369 341.597 335.652 C 348.12 327.766 349.075 319.801 349.075 315.818 L 349.075 157.072 L 342.949 157.072 L 342.949 157.072 Z  M 343.506 163.285 C 343.506 163.285 324.812 177.862 298.559 171.25 C 267.932 163.604 255.999 140.585 255.999 140.585 C 255.999 140.585 244.067 163.604 213.439 171.25 C 187.187 177.862 168.493 163.285 168.493 163.285 L 168.493 315.818 C 168.493 320.995 170.641 342.979 211.689 348.953 C 227.918 351.263 240.01 356.52 248.68 364.884 C 251.783 367.911 254.169 370.937 255.999 373.725 C 257.828 370.938 260.215 367.831 263.318 364.884 C 271.989 356.52 284.081 351.263 300.309 348.953 C 341.357 342.979 343.505 320.995 343.505 315.818 L 343.505 163.285 L 343.506 163.285 Z  M 255.999 358.273 C 255.999 358.273 267.932 343.617 298.798 338.838 C 334.199 333.342 333.164 316.695 333.164 315.898 L 333.164 235.927 L 178.755 235.927 L 178.755 315.818 C 178.755 316.695 177.721 333.342 213.121 338.758 C 244.067 343.537 255.999 358.273 255.999 358.273 L 255.999 358.273 Z  M 220.042 294.313 L 220.042 256.318 L 215.269 253.61 L 215.269 243.734 L 236.907 243.734 L 236.907 253.61 L 232.373 256.318 L 232.373 333.819 L 220.758 330.315 L 203.973 280.772 L 203.973 313.429 L 209.303 317.491 L 209.303 327.527 L 186.074 321.633 L 186.074 313.031 L 191.404 310.96 L 191.404 256.239 L 185.994 253.61 L 185.994 243.734 L 203.575 243.734 L 220.042 294.313 L 220.042 294.313 Z  M 259.897 329.041 L 264.511 334.617 L 264.511 344.493 L 241.442 335.891 L 241.442 327.528 L 246.533 325.457 L 246.533 256.399 L 241.442 253.85 L 241.442 243.893 L 281.456 243.893 L 281.456 263.965 L 272.626 263.965 L 269.921 255.761 L 259.738 255.761 L 259.738 278.94 L 267.375 278.94 L 270.398 274.559 L 276.524 274.559 L 276.524 295.03 L 270.398 295.03 L 267.534 290.888 L 259.738 290.888 L 259.738 329.041 L 259.897 329.041 L 259.897 329.041 Z  M 285.354 332.546 L 285.354 322.669 L 291.081 317.97 L 291.081 256.319 L 286.229 253.77 L 286.229 243.814 L 309.298 243.814 L 309.298 253.77 L 304.764 256.319 L 304.764 314.146 L 314.708 311.438 L 316.617 296.305 L 326.004 296.305 L 326.004 321.634 L 285.353 332.546 L 285.354 332.546 Z  M 182.812 219.52 L 175.812 214.262 L 184.324 214.262 L 187.108 206.138 L 189.893 214.262 L 198.404 214.262 L 191.404 219.52 L 193.95 227.724 L 187.029 222.865 L 180.107 227.724 L 182.812 219.52 L 182.812 219.52 Z  M 213.122 219.52 L 206.121 214.262 L 214.633 214.262 L 217.418 206.138 L 220.202 214.262 L 228.714 214.262 L 221.714 219.52 L 224.259 227.724 L 217.338 222.865 L 210.417 227.724 L 213.122 219.52 L 213.122 219.52 Z  M 182.812 192.199 L 175.812 186.942 L 184.324 186.942 L 187.108 178.818 L 189.893 186.942 L 198.404 186.942 L 191.404 192.199 L 193.95 200.403 L 187.029 195.545 L 180.107 200.403 L 182.812 192.199 L 182.812 192.199 Z  M 213.122 192.199 L 206.121 186.942 L 214.633 186.942 L 217.418 178.818 L 220.202 186.942 L 228.714 186.942 L 221.714 192.199 L 224.259 200.403 L 217.338 195.545 L 210.417 200.403 L 213.122 192.199 L 213.122 192.199 Z  M 331.733 227.804 L 324.812 222.945 L 317.89 227.804 L 320.436 219.6 L 313.436 214.343 L 322.027 214.343 L 324.812 206.218 L 327.596 214.343 L 336.108 214.343 L 329.108 219.6 L 331.733 227.804 L 331.733 227.804 Z  M 301.503 227.804 L 294.582 222.945 L 287.661 227.804 L 290.206 219.6 L 283.206 214.343 L 291.718 214.343 L 294.502 206.218 L 297.287 214.343 L 305.799 214.343 L 298.798 219.6 L 301.503 227.804 L 301.503 227.804 Z  M 331.733 200.403 L 324.812 195.545 L 317.89 200.403 L 320.436 192.199 L 313.436 186.942 L 322.027 186.942 L 324.812 178.818 L 327.596 186.942 L 336.108 186.942 L 329.108 192.199 L 331.733 200.403 L 331.733 200.403 Z  M 301.503 200.403 L 294.582 195.545 L 287.661 200.403 L 290.206 192.199 L 283.206 186.942 L 291.718 186.942 L 294.502 178.818 L 297.287 186.942 L 305.799 186.942 L 298.798 192.199 L 301.503 200.403 L 301.503 200.403 Z  M 275.251 170.215 C 275.967 170.136 276.364 171.012 276.762 171.569 C 279.785 179.216 280.581 188.535 278.274 197.456 C 274.774 211.077 263.318 223.582 238.737 226.768 C 238.18 226.847 237.544 226.688 237.464 226.37 C 238.578 221.193 241.362 211.316 247.328 200.881 C 248.442 201.598 249.556 202.315 250.59 203.111 C 250.987 202.474 251.465 201.757 252.181 200.563 C 249.158 198.173 245.658 196.501 241.76 195.784 C 241.76 195.784 241.044 197.297 240.487 198.412 C 240.487 198.412 241.999 198.73 243.828 199.368 C 238.499 210.679 236.669 221.193 236.191 225.972 C 234.68 223.582 233.487 218.006 233.089 214.98 C 229.191 186.305 249.795 169.578 272.228 169.26 C 273.74 169.18 274.297 169.499 274.297 169.499 C 274.297 169.499 269.364 171.331 263.637 175.711 C 263.637 175.711 262.284 175.154 260.852 174.756 C 259.977 175.313 259.023 175.95 258.147 176.588 C 260.852 177.225 264.273 178.579 267.535 181.287 C 268.251 180.65 268.967 179.933 269.762 179.216 C 268.967 178.579 267.694 177.703 266.58 177.065 C 271.671 172.127 275.251 170.215 275.251 170.215 L 275.251 170.215 Z  M 254.09 197.297 C 254.647 196.5 255.283 195.544 255.92 194.589 C 253.374 192.438 249.715 190.367 245.26 189.491 C 244.624 190.447 243.51 192.279 243.51 192.279 C 247.17 192.996 250.908 194.668 254.09 197.297 Z  M 258.147 191.641 C 258.784 190.765 259.42 189.969 260.136 189.093 C 256.636 186.225 252.658 184.552 249.556 183.995 C 248.84 184.792 248.124 185.668 247.488 186.464 C 251.545 187.261 255.204 189.172 258.147 191.641 L 258.147 191.641 Z  M 262.682 186.225 C 263.318 185.428 264.034 184.712 264.909 183.915 C 262.761 182.162 259.659 180.092 255.045 178.977 C 254.25 179.614 253.295 180.331 252.42 181.207 C 256.08 182.004 259.579 183.676 262.682 186.225 L 262.682 186.225 Z " fill-rule="evenodd" fill="rgb(85,0,0)"/></g></svg>