<?xml version="1.0" encoding="UTF-8" standalone="no"?><!-- Generator: Gravit.io --><svg xmlns="http://www.w3.org/2000/svg" xmlns:xlink="http://www.w3.org/1999/xlink" style="isolation:isolate" viewBox="0 0 512 512" width="512pt" height="512pt"><defs><clipPath id="_clipPath_twR3hwDc1Ygm0MnpB9AL4ZR71LaSONcZ"><rect width="512" height="512"/></clipPath></defs><g clip-path="url(#_clipPath_twR3hwDc1Ygm0MnpB9AL4ZR71LaSONcZ)"><path d="M 477.714 383.995 L 256.005 512 L 34.286 383.995 L 34.286 127.985 L 256.005 0 L 477.714 127.985 L 477.714 383.995 Z" fill-rule="evenodd" fill="rgb(27,27,29)" /><path d=" M 256.166 188.105 L 192.083 228.986 L 256.166 269.866 L 192.083 310.747 L 128 269.645 L 192.083 228.765 L 128 188.105 L 192.083 147.225 L 256.166 188.105 Z  M 191.751 323.895 L 255.834 283.014 L 319.917 323.895 L 255.834 364.775 L 191.751 323.895 Z  M 256.166 269.645 L 320.249 228.765 L 256.166 188.105 L 319.917 147.225 L 384 188.105 L 319.917 228.986 L 384 269.866 L 319.917 310.747 L 256.166 269.645 Z " fill="rgb(0,0,128)"/></g></svg>