<?xml version="1.0" encoding="UTF-8" standalone="no"?><!-- Generator: Gravit.io --><svg xmlns="http://www.w3.org/2000/svg" xmlns:xlink="http://www.w3.org/1999/xlink" style="isolation:isolate" viewBox="0 0 512 512" width="512pt" height="512pt"><defs><clipPath id="_clipPath_OEFxcY0fJQ3ob5sXQwjrb4FHjiKCVtXr"><rect width="512" height="512"/></clipPath></defs><g clip-path="url(#_clipPath_OEFxcY0fJQ3ob5sXQwjrb4FHjiKCVtXr)"><rect x="0" y="0" width="512" height="512" transform="matrix(1,0,0,1,0,0)" fill="rgb(237,29,36)"/><path d=" M 329.381 134.887 C 299.457 134.887 274.762 159.11 274.762 189.506 C 274.762 219.43 298.985 244.124 329.381 244.124 C 359.305 244.124 383.999 219.906 383.999 189.506 C 383.999 159.582 359.776 134.887 329.386 134.887 L 329.381 134.887 Z  M 329.381 212.776 C 316.538 212.755 306.131 202.349 306.11 189.506 C 306.131 176.663 316.538 166.257 329.381 166.235 C 342.224 166.257 352.63 176.663 352.651 189.506 C 352.633 202.351 342.226 212.76 329.381 212.781 L 329.381 212.776 Z  M 218.243 134.887 C 209.359 134.868 200.702 137.697 193.544 142.96 C 186.895 137.735 178.342 134.887 168.845 134.887 C 146.051 134.887 128 153.409 128 175.732 L 128 244.124 L 159.348 244.124 L 159.348 175.732 C 159.348 170.507 163.62 166.712 168.373 166.712 C 173.593 166.712 177.394 170.984 177.394 175.732 L 177.394 244.124 L 208.742 244.124 L 208.742 175.732 C 208.742 170.507 213.019 166.712 217.767 166.712 C 222.992 166.712 226.792 170.984 226.792 175.732 L 226.792 244.124 L 258.136 244.124 L 258.136 176.213 C 259.088 153.409 241.038 134.887 218.243 134.887 Z  M 329.381 267.876 C 299.457 267.876 274.762 292.099 274.762 322.494 C 274.762 352.418 298.985 377.113 329.381 377.113 C 359.305 377.113 383.999 352.89 383.999 322.494 C 384.078 307.985 378.349 294.048 368.09 283.788 C 357.831 273.528 343.894 267.799 329.386 267.876 L 329.381 267.876 Z  M 329.381 345.293 C 316.536 345.272 306.129 334.863 306.11 322.018 C 306.131 309.175 316.538 298.769 329.381 298.748 C 342.224 298.769 352.63 309.175 352.651 322.018 C 352.651 335.315 342.207 345.293 329.381 345.293 Z  M 218.243 267.876 C 209.359 267.857 200.702 270.686 193.544 275.949 C 186.895 270.724 178.342 267.876 168.845 267.876 C 146.051 267.876 128 286.398 128 308.721 L 128 377.113 L 159.348 377.113 L 159.348 308.244 C 159.348 303.02 163.62 299.219 168.373 299.219 C 173.593 299.219 177.394 303.496 177.394 308.244 L 177.394 376.641 L 208.742 376.641 L 208.742 308.244 C 208.742 303.02 213.019 299.219 217.767 299.219 C 222.992 299.219 226.792 303.496 226.792 308.244 L 226.792 376.641 L 258.136 376.641 L 258.136 308.721 C 259.088 285.922 241.038 267.876 218.243 267.876 Z " fill="rgb(239,191,4)"/></g></svg>