<?xml version="1.0" encoding="UTF-8" standalone="no"?><!-- Generator: Gravit.io --><svg xmlns="http://www.w3.org/2000/svg" xmlns:xlink="http://www.w3.org/1999/xlink" style="isolation:isolate" viewBox="0 0 512 512" width="512pt" height="512pt"><defs><clipPath id="_clipPath_mABQcKrhQYR0xlau2Rvq7BbAGEC5WQFO"><rect width="512" height="512"/></clipPath></defs><g clip-path="url(#_clipPath_mABQcKrhQYR0xlau2Rvq7BbAGEC5WQFO)"><circle vector-effect="non-scaling-stroke" cx="256" cy="256" r="256" fill="rgb(27,27,29)" /><path d=" M 224.952 294.531 L 170.899 294.531 L 159.871 328.842 C 159.599 330.204 158.373 331.021 157.148 330.884 L 129.781 330.884 C 128.147 330.884 127.739 330.067 128.147 328.297 L 174.984 193.778 C 175.393 192.28 175.801 190.783 176.482 189.013 C 177.163 186.017 177.707 182.886 177.707 179.754 C 177.571 179.073 178.116 178.256 178.933 178.12 C 179.069 178.12 179.205 178.12 179.341 178.12 L 216.647 178.12 C 217.6 178.12 218.417 178.529 218.553 179.346 L 271.381 328.57 C 271.789 330.204 271.381 330.884 269.883 330.884 L 239.521 330.884 C 238.568 331.021 237.479 330.34 237.206 329.251 L 224.952 294.531 Z  M 179.341 265.531 L 216.239 265.531 C 215.422 262.535 214.196 258.859 212.835 255.047 C 211.473 251.098 210.248 246.878 208.886 242.521 C 207.389 238.028 206.163 233.671 204.666 229.178 C 203.168 224.685 201.942 220.464 200.717 216.243 C 199.492 212.159 198.539 208.346 197.449 204.942 L 197.177 204.942 C 195.816 211.206 194.318 217.469 192.276 223.732 C 190.097 230.675 187.919 238.028 185.604 245.244 C 183.834 252.596 181.519 259.404 179.341 265.531 L 179.341 265.531 Z  M 382.89 216.243 L 382.89 305.424 C 382.89 309.372 382.89 312.776 383.027 315.908 C 383.163 318.903 383.299 321.626 383.435 323.941 C 383.707 326.255 383.843 327.617 383.98 329.114 C 384.116 330.476 383.571 331.021 382.346 331.021 L 357.43 331.021 C 356.204 331.157 355.115 330.476 354.707 329.387 C 354.434 328.161 354.162 326.936 353.89 325.711 C 353.617 324.757 353.617 323.668 353.617 322.715 C 348.988 326.936 343.27 329.931 337.143 331.701 C 331.969 333.199 326.387 333.88 320.941 333.88 C 315.494 333.88 310.184 333.199 305.147 331.429 C 300.518 329.795 296.161 327.072 292.757 323.396 C 288.944 319.311 286.221 314.546 284.588 309.236 C 282.545 302.564 281.592 295.621 281.728 288.541 L 281.728 216.379 C 281.592 215.562 282.137 214.609 283.226 214.473 C 283.362 214.473 283.498 214.473 283.635 214.473 L 311.41 214.473 C 312.227 214.337 313.18 214.882 313.316 215.971 C 313.316 216.107 313.316 216.243 313.316 216.379 L 313.316 284.728 C 313.316 291.128 314.814 296.165 317.537 299.841 C 320.26 303.518 325.978 305.424 332.514 305.424 C 335.917 305.424 339.185 304.879 342.453 303.654 C 345.857 302.428 348.852 300.931 351.575 298.888 L 351.575 216.243 C 351.575 215.29 352.256 214.609 353.617 214.609 L 381.393 214.609 C 382.073 214.473 383.027 215.018 383.027 215.835 C 382.89 215.971 382.89 216.107 382.89 216.243 Z " fill-rule="evenodd" fill="rgb(102,0,51)"/></g></svg>