<?xml version="1.0" encoding="UTF-8" standalone="no"?><!-- Generator: Gravit.io --><svg xmlns="http://www.w3.org/2000/svg" xmlns:xlink="http://www.w3.org/1999/xlink" style="isolation:isolate" viewBox="0 0 512 512" width="512pt" height="512pt"><defs><clipPath id="_clipPath_GeUQ6Ax4TvdZfdR6iYVxFXZvQAdo7Bo9"><rect width="512" height="512"/></clipPath></defs><g clip-path="url(#_clipPath_GeUQ6Ax4TvdZfdR6iYVxFXZvQAdo7Bo9)"><rect width="512" height="512" style="fill:rgb(27,27,29)"/><path d=" M 256.941 360.492 L 131.181 360.492 C 128.952 360.492 128.024 359.378 128.024 356.963 L 128.024 154.113 C 127.838 152.813 128.767 151.513 130.253 151.327 C 130.438 151.327 130.624 151.327 130.996 151.327 L 169.819 151.327 C 170.748 151.141 172.049 151.884 172.049 152.999 C 172.049 153.185 172.049 153.37 172.049 153.556 L 172.049 320.182 L 263.814 320.182 C 265.857 320.182 266.414 321.111 266.043 322.969 L 260.284 357.52 C 260.284 358.449 259.727 359.378 259.17 359.935 C 258.427 360.306 257.684 360.492 256.941 360.492 Z  M 288.705 201.668 L 323.442 201.668 C 325.486 201.668 326.972 202.968 327.529 204.826 C 328.272 206.126 328.829 207.798 329.201 209.47 C 329.572 211.513 329.944 213.556 330.13 215.6 C 330.316 217.829 330.501 220.244 330.501 222.659 C 336.446 215.786 343.69 210.027 351.678 205.569 C 360.78 200.553 370.997 198.138 381.214 198.51 C 382.514 198.324 383.814 199.253 384 200.739 C 384 200.925 384 201.111 384 201.482 L 384 240.306 C 384 241.978 383.071 242.535 380.842 242.535 C 368.025 241.792 355.022 244.207 343.319 249.222 C 339.418 251.08 335.517 253.309 332.545 256.653 L 332.545 357.892 C 332.545 359.935 331.802 360.678 329.944 360.678 L 291.306 360.678 C 289.634 360.864 288.334 359.935 288.148 358.263 C 288.148 358.077 288.148 357.706 288.148 357.52 L 288.148 247.55 C 288.148 242.721 288.148 237.891 287.962 232.69 C 287.777 227.488 287.777 222.287 287.591 217.272 C 287.405 212.813 287.034 208.541 286.476 204.083 C 286.291 203.154 286.848 202.039 287.777 201.854 C 288.148 201.482 288.334 201.482 288.705 201.668 L 288.705 201.668 Z " fill-rule="evenodd" fill="rgb(237,29,36)"/></g></svg>