<?xml version="1.0" encoding="UTF-8" standalone="no"?><!-- Generator: Gravit.io --><svg xmlns="http://www.w3.org/2000/svg" xmlns:xlink="http://www.w3.org/1999/xlink" style="isolation:isolate" viewBox="0 0 512 512" width="512pt" height="512pt"><defs><clipPath id="_clipPath_UME2BzM2UZl1WvwCbPegbKam6ZrI3M98"><rect width="512" height="512"/></clipPath></defs><g clip-path="url(#_clipPath_UME2BzM2UZl1WvwCbPegbKam6ZrI3M98)"><g><path d=" M 255.998 499.984 C 390.195 499.984 498.982 391.197 498.982 257 C 498.982 122.805 390.195 14.018 255.998 14.018 C 121.803 14.018 13.016 122.805 13.016 257 C 13.016 391.197 121.803 499.984 255.998 499.984 Z " fill="rgb(255,255,255)"/><path d=" M 256 1 C 114.615 1 0 115.615 0 257 C 0 398.386 114.615 513 256 513 C 397.386 513 512 398.386 512 257 C 512 115.615 397.386 1 256 1 Z  M 256 27.034 C 383.006 27.034 485.966 129.993 485.966 257 C 485.966 384.006 383.006 486.966 256 486.966 C 128.993 486.966 26.034 384.006 26.034 257 C 26.034 129.993 128.993 27.034 256 27.034 Z " fill="rgb(64,0,191)"/><linearGradient id="_lgradient_25" x1="0.49999736607362355" y1="0.9999999999999998" x2="0.4999973660736236" y2="0" gradientTransform="matrix(364.475,0,0,364.475,76.656,74.764)" gradientUnits="userSpaceOnUse"><stop offset="0%" stop-opacity="1" style="stop-color:rgb(116,0,225)"/><stop offset="100%" stop-opacity="1" style="stop-color:rgb(64,0,191)"/></linearGradient><path d=" M 258.893 74.764 C 359.541 74.764 441.131 156.354 441.131 257.002 C 441.131 357.648 359.541 439.238 258.893 439.238 C 158.247 439.238 76.656 357.648 76.656 257.002 C 76.656 232.403 81.529 208.944 90.363 187.536 C 103.262 205.101 124.062 216.504 147.526 216.504 C 186.667 216.504 218.397 184.774 218.397 145.634 C 218.397 122.17 206.994 101.369 189.427 88.471 C 210.837 79.637 234.296 74.764 258.893 74.764 Z " fill-rule="evenodd" fill="url(#_lgradient_25)"/></g></g></svg>