<?xml version="1.0" encoding="UTF-8" standalone="no"?><!-- Generator: Gravit.io --><svg xmlns="http://www.w3.org/2000/svg" xmlns:xlink="http://www.w3.org/1999/xlink" style="isolation:isolate" viewBox="0 0 512 512" width="512pt" height="512pt"><defs><clipPath id="_clipPath_smfnEB5zTi5jJVZd7t36XwgW0vrfcD3T"><rect width="512" height="512"/></clipPath></defs><g clip-path="url(#_clipPath_smfnEB5zTi5jJVZd7t36XwgW0vrfcD3T)"><g><path d=" M 288.606 2.085 C 238.385 -4.364 187.381 4.224 142.04 26.764 C 96.701 49.304 59.063 84.782 33.887 128.713 C 8.712 172.645 -2.871 223.054 0.604 273.568 C 4.078 324.082 22.455 372.432 53.408 412.501 C 84.362 452.571 126.503 482.562 174.502 498.682 C 222.501 514.8 274.201 516.323 323.067 503.059 C 371.931 489.794 415.766 462.336 449.025 424.158 C 482.285 385.979 503.475 338.797 509.918 288.574 C 518.557 221.237 500.094 153.225 458.59 99.499 C 417.088 45.773 355.944 10.733 288.606 2.085 Z " fill="rgb(255,108,55)"/><path d=" M 185.078 272.178 C 185.178 272.381 185.346 272.542 185.55 272.635 C 185.755 272.73 185.987 272.749 186.205 272.69 L 227.165 263.858 L 209.936 246.398 L 185.386 270.949 C 185.192 271.08 185.054 271.277 184.997 271.504 C 184.941 271.731 184.97 271.971 185.078 272.178 Z " fill="rgb(255,255,255)"/><path d=" M 376.877 96.309 C 371.168 96.315 365.534 97.601 360.389 100.072 C 355.243 102.544 350.718 106.138 347.145 110.59 C 343.573 115.042 341.045 120.239 339.747 125.797 C 338.448 131.356 338.413 137.135 339.643 142.709 C 340.875 148.283 343.341 153.509 346.857 158.004 C 350.376 162.499 354.857 166.147 359.973 168.682 C 365.088 171.216 370.705 172.57 376.414 172.645 C 382.121 172.72 387.773 171.514 392.953 169.115 L 366.995 143.157 C 366.697 142.86 366.461 142.507 366.299 142.118 C 366.137 141.729 366.054 141.312 366.054 140.891 C 366.054 140.47 366.137 140.054 366.299 139.665 C 366.461 139.276 366.697 138.923 366.995 138.626 L 400.915 104.731 C 394.102 99.254 385.617 96.281 376.877 96.309 Z " fill="rgb(255,255,255)"/><path d=" M 405.573 109.133 L 373.777 140.8 L 398.712 165.735 C 400.549 164.445 402.262 162.987 403.832 161.383 C 410.665 154.503 414.643 145.292 414.966 135.6 C 415.289 125.908 411.933 116.453 405.573 109.133 Z " fill="rgb(255,255,255)"/><path d=" M 341.955 167.579 L 341.392 167.579 C 340.731 167.573 340.07 167.634 339.421 167.759 L 339.19 167.759 C 338.477 167.912 337.776 168.117 337.091 168.373 L 336.553 168.629 C 336.038 168.843 335.542 169.099 335.069 169.397 L 334.505 169.755 C 333.886 170.183 333.304 170.663 332.765 171.189 L 238.48 265.498 L 250.153 277.171 L 349.993 189.544 C 350.558 189.048 351.072 188.499 351.529 187.906 L 351.965 187.342 C 352.305 186.842 352.614 186.32 352.886 185.781 C 353.04 185.474 353.168 185.166 353.296 184.859 C 353.469 184.45 353.614 184.03 353.731 183.605 C 353.731 183.298 353.91 182.991 353.987 182.683 C 354.113 182.048 354.2 181.408 354.243 180.763 L 354.243 179.919 C 354.243 179.458 354.243 178.997 354.243 178.536 C 354.243 178.075 354.243 177.922 354.115 177.615 C 353.641 175.199 352.462 172.976 350.726 171.231 C 348.99 169.487 346.776 168.295 344.361 167.81 L 343.875 167.81 C 343.241 167.687 342.6 167.61 341.955 167.579 Z " fill="rgb(255,255,255)"/><path d=" M 214.339 241.869 L 233.693 261.12 L 328.233 166.579 C 331.31 163.571 335.32 161.703 339.6 161.28 C 322.883 148.48 304.656 151.834 214.339 241.869 Z " fill="rgb(255,255,255)"/><path d=" M 355.32 193.23 L 354.168 194.357 L 254.328 281.96 L 271.301 298.907 C 313.387 259.099 350.737 221.186 355.32 193.23 Z " fill="rgb(255,255,255)"/><path d=" M 106.284 398.462 C 106.336 398.645 106.443 398.805 106.589 398.925 C 106.736 399.043 106.915 399.115 107.103 399.128 L 150.623 402.123 L 126.227 377.726 L 106.489 397.438 C 106.361 397.573 106.274 397.739 106.238 397.92 C 106.201 398.102 106.218 398.29 106.284 398.462 Z " fill="rgb(255,255,255)"/><path d=" M 130.781 373.195 L 156.509 398.923 C 156.814 399.25 157.223 399.461 157.666 399.522 C 158.109 399.582 158.559 399.488 158.941 399.256 C 159.34 399.058 159.658 398.728 159.84 398.322 C 160.022 397.915 160.058 397.458 159.939 397.029 L 155.613 378.546 C 155.333 377.347 155.46 376.09 155.975 374.973 C 156.49 373.856 157.362 372.942 158.455 372.376 C 203.561 349.771 239.939 326.501 266.64 303.256 L 248.72 285.336 L 210.32 293.605 L 130.781 373.195 Z " fill="rgb(255,255,255)"/><path d=" M 243.219 279.91 L 233.593 270.285 L 220.281 283.571 C 220.185 283.686 220.133 283.832 220.133 283.981 C 220.133 284.131 220.185 284.275 220.281 284.39 C 220.342 284.526 220.453 284.637 220.589 284.698 C 220.726 284.758 220.88 284.768 221.024 284.723 L 243.219 279.91 Z " fill="rgb(255,255,255)"/><path d=" M 406.469 129.768 C 406.337 129.365 406.121 128.995 405.835 128.683 C 405.55 128.37 405.2 128.123 404.809 127.957 C 404.421 127.791 404 127.71 403.576 127.72 C 403.152 127.73 402.736 127.83 402.353 128.015 C 401.973 128.199 401.635 128.463 401.363 128.788 C 401.093 129.114 400.894 129.494 400.782 129.903 C 400.67 130.311 400.646 130.739 400.713 131.157 C 400.781 131.576 400.936 131.975 401.169 132.328 C 401.934 133.868 402.238 135.596 402.043 137.304 C 401.848 139.012 401.161 140.627 400.069 141.954 C 399.71 142.387 399.481 142.914 399.411 143.473 C 399.339 144.031 399.429 144.598 399.667 145.108 C 399.905 145.618 400.285 146.049 400.76 146.352 C 401.233 146.655 401.785 146.816 402.347 146.818 C 402.782 146.813 403.211 146.715 403.605 146.529 C 403.998 146.344 404.345 146.075 404.625 145.743 C 406.438 143.54 407.576 140.861 407.902 138.027 C 408.229 135.194 407.731 132.326 406.469 129.768 Z " fill="rgb(255,108,55)"/></g></g></svg>