<?xml version="1.0" encoding="UTF-8" standalone="no"?><!-- Generator: Gravit.io --><svg xmlns="http://www.w3.org/2000/svg" xmlns:xlink="http://www.w3.org/1999/xlink" style="isolation:isolate" viewBox="0 0 512 512" width="512pt" height="512pt"><defs><clipPath id="_clipPath_CwDKi0GLSerdq9NHxtfubxmr22cxkOKm"><rect width="512" height="512"/></clipPath></defs><g clip-path="url(#_clipPath_CwDKi0GLSerdq9NHxtfubxmr22cxkOKm)"><rect width="512" height="512" style="fill:rgb(237,29,36)"/><path d=" M 165.141 255.728 C 165.12 237.047 151.19 221.305 132.65 219.01 C 126.45 243.089 126.45 268.347 132.65 292.426 C 151.191 290.15 165.128 274.409 165.141 255.728 Z  M 186.64 244.113 C 180.225 244.113 175.025 249.313 175.025 255.728 C 175.025 262.143 180.225 267.344 186.64 267.344 C 193.055 267.344 198.256 262.143 198.256 255.728 C 198.256 249.313 193.055 244.113 186.64 244.113 Z  M 346.859 255.728 C 346.872 274.409 360.809 290.15 379.35 292.426 C 385.55 268.347 385.55 243.089 379.35 219.01 C 360.81 221.305 346.88 237.047 346.859 255.728 Z  M 325.279 244.113 C 320.58 244.105 316.338 246.93 314.534 251.269 C 312.73 255.609 313.718 260.608 317.039 263.934 C 320.359 267.261 325.357 268.258 329.7 266.461 C 334.042 264.665 336.874 260.428 336.875 255.728 C 336.875 249.321 331.686 244.124 325.279 244.113 M 255.748 346.92 C 237.078 346.941 221.345 360.861 219.05 379.39 C 243.13 385.59 268.387 385.59 292.466 379.39 C 290.18 360.849 274.43 346.921 255.748 346.92 M 255.769 313.785 C 251.069 313.777 246.827 316.601 245.023 320.941 C 243.219 325.281 244.208 330.28 247.528 333.606 C 250.848 336.932 255.846 337.93 260.189 336.133 C 264.532 334.337 267.364 330.1 267.364 325.4 C 267.364 318.993 262.176 313.796 255.769 313.785 M 255.769 165.08 C 274.446 165.077 290.189 151.148 292.466 132.61 C 268.387 126.41 243.13 126.41 219.05 132.61 C 221.346 151.146 237.09 165.07 255.769 165.08 Z  M 255.769 175.005 C 251.067 174.997 246.824 177.824 245.021 182.166 C 243.218 186.508 244.211 191.509 247.535 194.833 C 250.86 198.158 255.86 199.15 260.203 197.347 C 264.545 195.544 267.372 191.302 267.364 186.6 C 267.364 180.196 262.172 175.005 255.769 175.005 Z  M 320.126 320.086 C 306.945 333.297 305.651 354.25 317.106 368.983 C 338.519 356.346 356.374 338.483 369.003 317.066 C 354.277 305.614 333.33 306.908 320.126 320.086 Z  M 296.694 296.654 C 293.372 299.976 292.378 304.972 294.176 309.312 C 295.974 313.652 300.209 316.482 304.907 316.482 C 309.605 316.482 313.841 313.652 315.638 309.312 C 317.436 304.972 316.442 299.976 313.12 296.654 C 308.58 292.129 301.235 292.129 296.694 296.654 Z  M 191.592 191.552 C 204.796 178.359 206.091 157.393 194.612 142.675 C 173.198 155.301 155.342 173.158 142.715 194.572 C 157.433 206.051 178.4 204.756 191.592 191.552 Z  M 198.598 198.578 C 195.276 201.9 194.282 206.896 196.08 211.236 C 197.878 215.576 202.113 218.406 206.811 218.406 C 211.509 218.406 215.744 215.576 217.542 211.236 C 219.34 206.896 218.346 201.9 215.024 198.578 C 210.484 194.053 203.138 194.053 198.598 198.578 Z  M 320.045 191.431 C 333.268 204.602 354.228 205.871 368.942 194.39 C 356.306 172.994 338.442 155.157 317.026 142.554 C 305.574 157.28 306.868 178.227 320.045 191.431 Z  M 313.04 214.863 C 317.565 210.334 317.562 202.994 313.034 198.468 C 308.506 193.942 301.167 193.942 296.639 198.468 C 292.111 202.994 292.109 210.334 296.634 214.863 C 298.808 217.04 301.759 218.264 304.837 218.264 C 307.914 218.264 310.865 217.04 313.04 214.863 Z  M 191.532 319.945 C 178.327 306.767 157.381 305.473 142.655 316.925 C 155.283 338.342 173.139 356.205 194.551 368.842 C 206.025 354.115 204.73 333.148 191.532 319.945 Z  M 198.457 296.513 C 195.135 299.835 194.141 304.831 195.939 309.171 C 197.737 313.511 201.972 316.341 206.67 316.341 C 211.368 316.341 215.603 313.511 217.401 309.171 C 219.199 304.831 218.205 299.835 214.883 296.513 C 210.338 291.999 203.002 291.999 198.457 296.513 Z " fill-rule="evenodd" fill="rgb(255,255,255)"/></g></svg>