<?xml version="1.0" encoding="UTF-8" standalone="no"?><!-- Generator: Gravit.io --><svg xmlns="http://www.w3.org/2000/svg" xmlns:xlink="http://www.w3.org/1999/xlink" style="isolation:isolate" viewBox="0 0 512 512" width="512pt" height="512pt"><defs><clipPath id="_clipPath_bMwH81PuoSxrxiQCF8wVbLWUFe59X4cu"><rect width="512" height="512"/></clipPath></defs><g clip-path="url(#_clipPath_bMwH81PuoSxrxiQCF8wVbLWUFe59X4cu)"><path d="M 477.714 383.995 L 256.005 512 L 34.286 383.995 L 34.286 127.985 L 256.005 0 L 477.714 127.985 L 477.714 383.995 Z" fill-rule="evenodd" fill="rgb(27,27,29)" /><path d=" M 256 384 C 326.656 384 384 326.656 384 256 C 384 185.344 326.656 128 256 128 C 185.344 128 128 185.344 128 256 C 128 326.656 185.344 384 256 384 Z  M 302.769 256 L 228.923 214.154 L 228.923 297.846 L 302.769 256 Z  M 175.193 256 C 175.193 211.402 211.402 175.193 256 175.193 C 300.598 175.193 336.807 211.402 336.807 256 C 336.807 300.598 300.598 336.807 256 336.807 C 211.402 336.807 175.193 300.598 175.193 256 Z  M 199.71 292.127 C 193.003 281.705 189.111 269.303 189.111 256 C 189.111 219.083 219.083 189.111 256 189.111 C 292.917 189.111 322.889 219.083 322.889 256 C 322.889 292.917 292.917 322.889 256 322.889 C 232.386 322.889 211.614 310.626 199.71 292.127 Z " fill-rule="evenodd" fill="rgb(239,191,4)"/></g></svg>