<?xml version="1.0" encoding="UTF-8" standalone="no"?><!-- Generator: Gravit.io --><svg xmlns="http://www.w3.org/2000/svg" xmlns:xlink="http://www.w3.org/1999/xlink" style="isolation:isolate" viewBox="0 0 512 512" width="512pt" height="512pt"><defs><clipPath id="_clipPath_rePZykfgEMn9dGbevOphOLeYAESfCnm4"><rect width="512" height="512"/></clipPath></defs><g clip-path="url(#_clipPath_rePZykfgEMn9dGbevOphOLeYAESfCnm4)"><rect width="512" height="512" style="fill:rgb(149,6,6)"/><path d=" M 365.986 228.384 C 347.959 205.877 322.721 184.042 289.697 164.34 L 289.569 164.276 C 256.277 145.044 225.056 133.747 196.884 129.118 C 179.273 126.227 170.879 129.598 167.049 131.838 C 163.231 134.078 156.158 139.796 149.822 156.734 C 139.689 183.871 133.683 216.991 133.417 255.936 L 133.417 256.075 C 133.683 295.009 139.678 328.129 149.822 355.266 C 156.158 372.204 163.231 377.922 167.049 380.162 C 170.868 382.402 179.284 385.773 196.874 382.882 C 225.056 378.253 256.277 366.956 289.569 347.735 L 289.697 347.66 C 322.721 327.958 347.948 306.113 365.986 283.616 C 377.25 269.568 378.583 260.491 378.583 255.989 C 378.583 251.509 377.25 242.432 365.996 228.384" fill="rgb(255,255,255)"/></g></svg>