<?xml version="1.0" encoding="UTF-8" standalone="no"?><!-- Generator: Gravit.io --><svg xmlns="http://www.w3.org/2000/svg" xmlns:xlink="http://www.w3.org/1999/xlink" style="isolation:isolate" viewBox="0 0 512 512" width="512pt" height="512pt"><defs><clipPath id="_clipPath_pbaJYR8SBg7lbhX9n9FIsZ5zcrGXnRLK"><rect width="512" height="512"/></clipPath></defs><g clip-path="url(#_clipPath_pbaJYR8SBg7lbhX9n9FIsZ5zcrGXnRLK)"><circle vector-effect="non-scaling-stroke" cx="256" cy="256" r="256" fill="rgb(27,27,29)" /><path d=" M 256.085 313.199 L 384 233.442 L 384 255.071 L 256.085 335.166 L 128 255.071 L 128 233.442 L 256.085 313.199 Z  M 256.085 213.164 C 227.189 213.164 201.843 227.696 187.311 250.17 L 187.311 250.17 C 188.494 248.987 189.17 248.312 190.352 247.467 C 226.345 217.558 278.22 224.317 306.44 261.999 L 325.196 250.001 L 325.196 250.001 C 310.326 228.203 284.811 213.164 256.085 213.164 Z  M 256.085 250.17 C 240.37 250.17 226.514 258.112 218.234 269.603 C 224.993 264.702 232.766 262.168 241.046 262.168 C 254.902 262.168 267.237 269.265 275.517 281.262 L 293.428 270.11 L 293.428 270.11 C 285.656 257.774 271.799 250.17 256.085 250.17 Z  M 169.568 217.727 C 222.289 176.158 296.808 187.48 336.518 242.735 L 336.855 243.073 L 356.288 231.076 L 356.288 231.076 C 334.997 198.463 297.991 176.834 256.085 176.834 C 214.516 176.834 177.51 198.125 155.881 231.076 C 159.768 226.682 164.668 221.444 169.568 217.727 Z " fill-rule="evenodd" fill="rgb(102,0,51)"/></g></svg>