<?xml version="1.0" encoding="UTF-8" standalone="no"?><!-- Generator: Gravit.io --><svg xmlns="http://www.w3.org/2000/svg" xmlns:xlink="http://www.w3.org/1999/xlink" style="isolation:isolate" viewBox="0 0 512 512" width="512pt" height="512pt"><defs><clipPath id="_clipPath_btqOEdA0LSP7MdJR9OvV5pq852wER8PZ"><rect width="512" height="512"/></clipPath></defs><g clip-path="url(#_clipPath_btqOEdA0LSP7MdJR9OvV5pq852wER8PZ)"><rect x="0" y="0" width="512" height="512" transform="matrix(1,0,0,1,0,0)" fill="rgb(27,27,29)"/><path d=" M 276.624 203.7 L 276.624 198.297 L 259.606 198.297 C 259.606 198.297 263.854 203.107 263.854 212.222 L 263.854 259.706 C 261.953 260.014 260.009 260.178 258.017 260.178 C 257.551 260.178 257.09 260.157 256.624 260.146 C 257.27 256.746 257.641 253.08 257.641 249.113 C 257.641 227.973 247.582 215.155 239.14 208.121 C 235.813 205.351 232.127 202.968 228.212 201.007 L 228.223 188.523 C 232.9 183.952 242.291 177.188 257.143 177.188 C 271.349 177.188 284.188 185.176 290.534 198.184 C 285.401 199.514 280.867 201.442 276.625 203.698 M 378.44 320.824 C 377.709 320.532 376.936 320.384 376.142 320.373 C 375.209 320.363 374.404 320.575 374.404 320.575 C 374.404 320.575 374.833 320.887 374.976 320.993 C 376.163 321.862 379.897 325.331 377.969 333.536 C 376.698 338.922 369.775 348.928 352.412 348.976 L 352.407 348.976 C 351.327 348.971 350.204 348.923 349.07 348.833 C 345.654 348.573 342.269 347.811 338.927 346.73 C 339.748 345.957 340.558 345.173 341.358 344.373 C 343.758 341.974 346.046 339.49 348.223 336.931 C 345.956 336.783 343.705 336.269 341.528 335.523 C 338.758 338.605 335.828 341.54 332.751 344.32 C 326.591 341.529 319.774 337.382 313.201 333.15 C 310.568 331.449 306.098 328.457 303.72 326.958 C 295.398 321.714 287.046 316.804 276.69 313.165 L 276.69 295.866 C 293.306 299.759 309.26 311.333 316.744 316.703 C 317.671 317.366 318.677 318.118 319.753 318.918 C 326.792 324.167 339.885 333.558 353 333.558 C 369.928 333.558 370.68 322.557 370.596 321.9 C 370.596 321.9 370.289 322.265 369.976 322.572 C 369.023 323.494 366.57 325.666 360.701 325.464 C 359.647 325.428 358.493 325.269 357.285 324.908 C 370.739 304.643 377.963 280.878 377.963 256 C 377.963 187.083 321.898 131.018 252.982 131.018 C 184.065 131.018 128 187.083 128 256 C 128 324.917 184.065 380.982 252.982 380.982 C 279.227 380.982 304.237 372.947 325.204 358.036 C 322.9 357.284 320.68 356.384 318.519 355.367 C 299.71 367.814 277.178 375.076 252.984 375.076 C 187.325 375.076 133.909 321.659 133.909 256.001 C 133.909 190.343 187.325 136.926 252.984 136.926 C 318.642 136.926 372.058 190.343 372.058 256.001 C 372.058 280.71 364.484 303.676 351.55 322.723 C 346.862 320.556 340.94 316.939 334.69 313.104 C 333.641 312.458 332.545 311.758 331.459 311.059 C 322.221 305.063 315.42 301.424 309.991 299.56 C 309.43 299.369 308.042 298.972 307.327 298.861 L 307.327 298.442 C 336.216 297.934 359.019 276.005 359.019 246.475 C 359.019 216.691 335.883 196.237 306.509 196.237 C 305.81 196.237 305.127 196.253 304.449 196.268 C 296.244 179.329 278.511 168.81 257.27 168.81 C 246.2 168.81 236.342 171.596 228.18 175.754 L 228.18 170.558 L 211.157 170.558 C 211.157 170.558 215.357 174.399 215.357 183.514 L 215.346 196.327 C 210.971 195.284 206.48 194.722 202.009 194.722 C 188.492 194.722 174.937 199.611 164.831 208.129 C 156.526 215.125 146.626 227.917 146.626 249.115 C 146.626 270.143 156.839 282.913 165.409 289.926 C 172.411 295.657 181.167 299.788 190.197 301.796 C 191.447 299.507 192.544 297.012 193.047 294.926 C 191.59 294.624 190.436 294.237 189.175 293.792 C 184.371 291.896 181.537 288.31 181.537 284.025 C 181.537 277.717 186.092 275.471 189.17 275.471 C 193.497 275.471 198.021 278.373 198.195 286.827 C 198.667 309.116 174.19 324.402 171.982 325.742 C 174.169 328.274 176.474 330.705 178.884 333.025 C 179.466 332.718 180.335 332.252 180.923 331.934 C 189.244 327.39 208.598 316.468 236.484 316.648 C 245.229 316.706 253.078 317.962 260.139 319.895 L 260.139 309.063 C 255.123 308.301 249.646 307.856 243.587 307.819 C 220.207 307.67 201.005 314.709 189.217 320.801 L 189.063 320.573 C 192.146 317.782 198.221 311.235 202.364 303.163 C 203.767 303.163 205.425 303.094 206.845 302.977 C 207.385 302.485 207.936 301.854 208.423 301.208 C 209.096 300.302 210.563 298.041 211.093 295.022 C 209.223 295.445 207.3 295.742 205.33 295.885 C 206.092 293.337 206.58 290.715 206.659 288.072 C 206.86 281.128 205.107 275.296 201.579 271.668 C 198.56 268.559 194.35 266.917 189.413 266.917 C 182.967 266.917 174.874 271.25 174.344 280.832 C 174.296 281.695 174.455 283.618 174.784 284.423 L 174.476 284.582 C 165.843 276.07 160.552 263.438 160.552 248.856 C 160.552 222.33 178.502 202.33 202.311 202.33 C 226.295 202.33 243.71 221.896 243.71 248.856 C 243.71 251.923 243.472 254.905 243.027 257.781 C 237.296 255.847 232.359 252.881 228.244 249.348 L 228.244 217.467 C 224.615 213.616 220.277 210.661 215.373 208.775 L 215.373 290.426 C 215.373 298.694 211.156 303.545 211.156 303.551 L 231.814 303.551 C 231.814 303.551 229.923 301.194 228.869 296.506 C 232.476 294.647 235.881 292.449 238.948 289.928 C 243.742 285.982 249.05 280.219 252.784 272.194 C 248.276 271.929 243.843 271.273 239.515 270.213 C 236.83 276.532 232.958 281.977 228.18 286.209 L 228.18 262.125 C 236.433 265.886 246.142 268.386 257.27 268.386 C 266.397 268.386 272.154 266.685 276.746 265.049 C 295.364 258.422 309.342 240.848 309.342 218.357 C 309.342 215.2 309.077 212.16 308.579 209.231 C 304.072 208.955 297.366 209.887 294.432 210.82 C 294.808 213.277 295.009 215.836 295.009 218.484 C 295.009 234.893 287.715 247.955 276.746 254.841 L 276.746 215.788 C 285.141 209.242 293.182 204.957 306.942 204.957 C 327.843 204.957 344.454 221.97 344.454 246.742 C 344.454 271.59 327.504 289.964 305.194 289.964 C 293.928 289.964 285.204 286.929 276.745 281.839 L 276.745 269.195 C 272.646 270.567 268.345 271.499 263.922 271.97 L 263.922 319.904 C 263.922 328.172 259.674 333.029 259.674 333.029 L 280.829 333.029 C 280.829 333.029 278.382 330.534 277.487 326.456 C 283.033 328.898 290.183 333.316 295.004 336.435 C 297.196 337.849 299.13 339.205 300.994 340.408 C 315.349 349.704 328.49 357.94 347.775 357.94 C 360.477 357.94 368.533 353.951 373.602 350.196 C 379.466 345.853 382.892 339.883 383.713 334.576 C 385.334 324.105 379.608 321.292 378.443 320.826" fill="rgb(237,29,36)"/></g></svg>