<?xml version="1.0" encoding="UTF-8" standalone="no"?><!-- Generator: Gravit.io --><svg xmlns="http://www.w3.org/2000/svg" xmlns:xlink="http://www.w3.org/1999/xlink" style="isolation:isolate" viewBox="0 0 512 512" width="512pt" height="512pt"><defs><clipPath id="_clipPath_OOczkiCHQ5lRRYaAWeEBQI1LC7ZncFpf"><rect width="512" height="512"/></clipPath></defs><g clip-path="url(#_clipPath_OOczkiCHQ5lRRYaAWeEBQI1LC7ZncFpf)"><path d="M 477.714 383.995 L 256.005 512 L 34.286 383.995 L 34.286 127.985 L 256.005 0 L 477.714 127.985 L 477.714 383.995 Z" fill-rule="evenodd" fill="rgb(27,27,29)" /><path d=" M 370.601 133.38 L 141.398 133.38 C 141.398 133.38 141.39 224.037 141.39 224.577 C 141.334 261.704 154.207 297.692 177.799 326.359 L 370.601 133.557 L 370.601 133.38 Z  M 178.839 300.116 L 177.425 301.53 L 181.32 305.425 L 180.422 306.323 L 176.527 302.428 L 175.113 303.842 L 174.383 303.113 L 178.11 299.386 L 178.839 300.116 Z  M 184.9 299.15 L 182.88 294.616 L 184.171 293.325 L 188.795 297.949 L 187.954 298.791 L 184.339 295.177 L 184.317 295.199 L 186.551 300.195 L 185.922 300.823 L 180.927 298.589 L 180.904 298.612 L 184.519 302.226 L 183.677 303.068 L 179.053 298.443 L 180.355 297.141 L 184.9 299.15 Z  M 228.143 224.454 L 231.067 233.454 L 223.411 227.893 L 215.755 233.454 L 218.677 224.454 L 211.023 218.891 L 220.488 218.891 L 223.411 209.888 L 226.335 218.891 L 235.799 218.891 L 228.143 224.454 L 228.143 224.454 Z  M 184.082 224.454 L 191.738 218.891 L 182.275 218.891 L 179.35 209.888 L 176.427 218.891 L 166.96 218.891 L 174.618 224.454 L 171.693 233.454 L 179.35 227.893 L 187.004 233.454 L 184.082 224.454 L 184.082 224.454 Z  M 204.306 248.2 L 201.381 239.198 L 198.457 248.2 L 188.992 248.2 L 196.647 253.763 L 193.724 262.763 L 201.381 257.201 L 209.035 262.763 L 206.113 253.763 L 213.768 248.2 L 204.306 248.2 L 204.306 248.2 Z  M 175.666 189.207 L 166.985 169.438 L 166.709 169.438 L 166.709 195.822 C 166.721 196.008 166.652 196.191 166.521 196.323 C 166.389 196.455 166.208 196.525 166.021 196.514 L 158.237 196.514 C 158.051 196.525 157.868 196.456 157.736 196.324 C 157.603 196.192 157.533 196.009 157.544 195.822 L 157.544 150.354 C 157.533 150.168 157.603 149.985 157.736 149.854 C 157.868 149.722 158.051 149.654 158.237 149.666 L 166.435 149.666 C 166.916 149.616 167.369 149.9 167.534 150.354 L 179.385 177.084 L 179.664 177.084 L 191.304 150.354 C 191.471 149.899 191.926 149.615 192.408 149.666 L 200.468 149.666 C 200.653 149.654 200.835 149.723 200.967 149.855 C 201.098 149.986 201.167 150.168 201.154 150.354 L 201.154 195.822 C 201.166 196.008 201.098 196.191 200.967 196.323 C 200.835 196.455 200.654 196.525 200.468 196.514 L 192.681 196.514 C 192.496 196.525 192.314 196.455 192.183 196.322 C 192.052 196.19 191.984 196.008 191.995 195.822 L 191.995 169.438 L 191.719 169.438 L 183.039 189.207 C 182.851 189.767 182.314 190.133 181.725 190.106 L 176.972 190.106 C 176.385 190.131 175.853 189.764 175.666 189.207 Z  M 208.149 196.514 L 238.67 196.514 C 238.856 196.525 239.038 196.455 239.17 196.323 C 239.302 196.191 239.371 196.009 239.36 195.822 L 239.36 188.175 C 239.37 187.99 239.301 187.808 239.169 187.676 C 239.037 187.545 238.856 187.476 238.67 187.487 L 218.002 187.487 C 217.888 187.503 217.773 187.465 217.691 187.383 C 217.61 187.302 217.571 187.187 217.588 187.073 L 217.588 150.354 C 217.6 150.168 217.531 149.986 217.399 149.854 C 217.267 149.723 217.085 149.654 216.9 149.666 L 208.149 149.666 C 207.964 149.654 207.782 149.723 207.65 149.855 C 207.519 149.987 207.45 150.168 207.461 150.354 L 207.461 195.822 C 207.45 196.008 207.519 196.191 207.65 196.323 C 207.782 196.455 207.963 196.525 208.149 196.514 M 264.776 168.334 L 262.298 167.99 C 256.924 167.234 254.995 165.512 254.995 162.824 C 254.995 159.86 257.129 157.727 261.264 157.727 C 265.123 157.727 268.565 158.965 272.149 161.309 C 272.304 161.411 272.494 161.446 272.675 161.406 C 272.856 161.366 273.014 161.255 273.112 161.098 L 277.316 154.83 C 277.659 154.347 277.591 154.074 277.18 153.798 C 273.25 150.766 267.463 148.907 261.264 148.907 C 251.135 148.907 244.661 154.625 244.661 163.236 C 244.661 171.503 249.964 175.98 259.474 177.29 L 261.954 177.633 C 267.533 178.391 269.186 180.115 269.186 182.872 C 269.186 186.175 266.431 188.451 261.54 188.451 C 256.58 188.451 252.379 186.109 249.277 183.629 C 249.136 183.489 248.943 183.417 248.745 183.43 C 248.547 183.443 248.365 183.54 248.244 183.697 L 243.007 189.691 C 242.713 190.037 242.743 190.554 243.076 190.863 C 246.727 194.378 253.822 197.269 261.128 197.269 C 273.25 197.269 279.524 191 279.524 182.528 C 279.524 174.052 274.423 169.644 264.776 168.334" fill-rule="evenodd" fill="rgb(0,103,79)"/><path d=" M 375.982 133.38 L 375.981 128 L 136.019 128 L 136.018 133.38 C 136.018 133.38 136.01 224.037 136.01 224.577 C 135.955 260.685 147.737 295.816 169.551 324.59 C 169.89 325.036 170.236 325.476 170.578 325.92 L 139.083 357.415 L 146.692 365.024 L 177.46 334.256 C 186.236 344.207 196.17 353.074 207.052 360.665 C 221.529 370.781 237.538 378.505 254.465 383.543 L 256 384 L 257.535 383.543 C 274.462 378.505 290.47 370.781 304.948 360.665 C 319.263 350.681 331.918 338.507 342.449 324.59 C 364.263 295.816 376.045 260.685 375.99 224.577 C 375.99 224.037 375.982 133.38 375.982 133.38 Z  M 178.13 318.094 C 157.731 291.19 146.715 258.34 146.771 224.577 C 146.771 224.117 146.777 158.261 146.778 138.761 L 357.738 138.761 L 178.25 318.249 C 178.21 318.197 178.169 318.146 178.13 318.094 Z  M 356.931 274.76 C 351.604 290.342 343.818 304.971 333.87 318.094 C 324.018 331.113 312.181 342.501 298.79 351.841 C 285.696 360.99 271.261 368.048 256 372.764 C 240.739 368.048 226.304 360.99 213.21 351.841 C 202.847 344.61 193.403 336.144 185.087 326.629 L 365.222 146.494 C 365.225 171.631 365.229 224.166 365.229 224.577 C 365.249 241.648 362.445 258.604 356.931 274.76 L 356.931 274.76 Z " fill="rgb(0,103,79)"/></g></svg>