<?xml version="1.0" encoding="UTF-8" standalone="no"?><!-- Generator: Gravit.io --><svg xmlns="http://www.w3.org/2000/svg" xmlns:xlink="http://www.w3.org/1999/xlink" style="isolation:isolate" viewBox="0 0 512 512" width="512pt" height="512pt"><defs><clipPath id="_clipPath_5BKe23c80aYOvojZqkPRgqDlteErLwip"><rect width="512" height="512"/></clipPath></defs><g clip-path="url(#_clipPath_5BKe23c80aYOvojZqkPRgqDlteErLwip)"><path d=" M 408.881 211.535 C 412.678 255.301 343.731 297.068 254.801 304.662 C 165.87 312.256 90.929 282.879 87.132 239.112 C 83.335 195.348 152.281 153.58 241.212 145.986 C 329.942 138.392 405.084 167.569 408.881 211.535 Z " fill="rgb(187,230,251)"/><path d=" M 243.61 150.981 C 209.636 150.383 170.067 163.972 140.49 176.562 C 137.493 185.355 135.694 194.748 135.694 204.54 C 135.694 256.5 182.657 298.667 240.612 298.667 C 298.567 298.667 345.73 256.7 345.73 204.54 C 345.73 188.153 340.934 172.565 332.74 159.176 C 309.158 155.579 276.584 151.582 243.61 150.981 Z " fill="rgb(255,255,255)"/><path d=" M 240.812 150.981 C 222.027 149.783 189.652 159.575 162.673 169.368 C 158.476 178.96 156.278 189.552 156.278 200.743 C 156.278 246.308 197.646 283.279 241.212 283.279 C 284.578 283.279 322.948 246.308 326.145 200.743 C 327.144 185.955 322.148 171.966 314.954 159.974 C 287.176 155.179 257.599 152.181 240.812 150.981 Z " fill="rgb(255,255,255)"/><path d=" M 192.649 194.948 C 195.048 189.752 198.445 187.354 201.842 183.157 C 201.443 182.158 200.643 178.761 200.643 177.761 C 200.643 172.565 204.84 168.569 209.836 168.569 C 211.035 168.569 212.234 168.767 213.233 169.168 C 228.621 157.377 248.806 152.38 269.19 156.978 C 270.988 157.377 272.787 157.977 274.585 158.376 C 254.601 155.579 231.819 162.773 216.431 175.163 C 216.831 176.362 218.23 179.36 218.23 180.759 C 218.23 185.955 214.832 187.154 209.836 187.154 C 208.637 187.154 207.638 186.954 206.439 186.554 C 203.041 191.151 198.645 200.144 196.646 205.739 C 205.24 213.334 212.834 216.13 222.826 219.928 C 222.826 219.529 223.226 218.929 223.226 218.529 C 223.226 203.142 236.815 190.551 252.203 190.551 C 265.992 190.551 277.583 200.544 279.781 213.733 C 286.776 209.337 293.371 205.939 298.367 199.544 C 297.168 198.145 295.969 193.949 295.969 191.95 C 295.969 187.354 299.766 183.557 304.362 183.557 C 304.962 183.557 305.561 183.557 306.361 183.757 C 308.959 178.361 310.957 172.765 312.156 166.969 C 287.975 148.984 241.212 151.582 241.212 151.582 C 241.212 151.582 204.041 149.582 178.86 161.974 C 180.659 173.565 185.455 185.156 192.649 194.948 Z " fill="rgb(55,53,53)"/><path d=" M 308.159 187.953 C 309.958 189.552 310.757 190.751 311.557 192.15 C 313.755 196.147 309.358 199.944 304.562 199.944 C 304.162 199.944 303.563 199.944 303.163 199.743 C 297.967 207.938 288.774 218.33 280.581 223.725 C 293.171 225.724 304.962 230.719 314.155 238.514 C 320.949 226.323 326.145 208.537 326.145 193.549 C 326.145 182.158 321.149 173.764 313.555 167.569 C 313.355 173.764 309.958 182.358 308.159 187.953 Z " fill="rgb(55,53,53)"/><path d=" M 206.639 265.493 C 210.835 253.902 221.027 245.109 230.82 237.315 C 229.421 235.316 227.222 230.52 226.423 228.322 C 214.632 224.725 204.24 217.93 196.047 209.136 C 196.047 209.337 195.847 209.736 195.847 209.936 C 194.248 216.731 194.048 223.725 194.848 230.32 C 200.443 231.32 204.84 236.316 204.84 242.311 C 204.84 245.908 201.642 250.904 199.244 253.302 C 201.642 258.498 203.441 261.296 206.639 265.493 Z " fill="rgb(55,53,53)"/><path d=" M 205.839 275.085 C 200.843 270.088 197.446 260.297 194.248 254.102 C 193.649 254.102 193.049 254.302 192.45 254.302 C 185.655 254.302 178.66 248.706 180.259 242.111 C 181.059 238.514 183.657 236.116 187.653 234.117 C 186.654 226.523 186.454 215.932 188.253 208.138 C 188.653 205.939 189.852 204.94 190.451 202.742 C 183.057 191.95 178.261 177.562 178.261 163.373 L 178.261 161.773 C 165.671 168.169 156.278 177.961 156.278 193.549 C 156.278 228.122 176.262 262.094 205.839 275.285 L 205.839 275.085 Z " fill="rgb(55,53,53)"/><path d=" M 278.782 227.323 C 274.985 238.114 264.593 246.108 252.403 246.108 C 245.808 246.108 239.813 243.91 235.216 240.112 C 225.424 247.707 216.431 261.096 212.034 272.886 C 214.033 275.085 215.432 276.884 217.83 278.881 C 224.625 280.681 234.217 278.881 241.611 278.881 C 271.388 278.881 297.967 265.693 313.155 242.311 C 302.763 235.117 290.773 228.322 278.782 227.323 Z " fill="rgb(55,53,53)"/><path d=" M 191.85 198.945 C 194.248 193.749 197.046 189.152 200.443 184.755 C 200.044 183.757 199.844 182.558 199.844 181.558 C 199.844 176.362 204.041 172.366 209.037 172.366 C 210.236 172.366 211.435 172.565 212.434 172.965 C 227.822 161.174 248.006 156.178 268.39 160.775 C 270.189 161.174 271.988 161.773 273.786 162.174 C 253.802 159.376 233.018 165.571 217.63 177.961 C 218.03 179.16 218.429 180.359 218.429 181.558 C 218.429 186.754 214.233 190.751 209.237 190.751 C 208.037 190.751 207.038 190.551 205.839 190.152 C 202.442 194.748 199.444 199.944 197.446 205.54 C 204.84 213.334 213.833 219.729 223.825 223.326 L 223.825 221.927 C 223.825 206.539 236.415 193.949 251.803 193.949 C 265.593 193.949 277.183 203.941 279.382 217.13 C 286.376 212.734 292.372 207.138 297.568 200.544 C 296.368 199.145 295.569 197.346 295.569 195.348 C 295.569 190.751 299.366 186.954 303.963 186.954 C 304.562 186.954 305.162 186.954 305.961 187.154 C 308.559 181.758 310.557 176.163 311.756 170.367 C 287.575 152.38 240.812 154.979 240.812 154.979 C 240.812 154.979 203.641 152.981 178.461 165.371 C 179.859 177.562 184.656 189.152 191.85 198.945 Z " fill="rgb(18,135,177)"/><path d=" M 309.358 189.352 C 311.157 190.951 312.156 193.148 312.156 195.547 C 312.156 200.144 308.359 203.941 303.763 203.941 C 303.363 203.941 302.763 203.941 302.364 203.741 C 297.168 211.935 290.173 218.929 281.98 224.124 C 293.97 225.924 305.361 231.12 314.754 238.914 C 321.549 226.723 325.546 212.534 325.546 197.546 C 325.546 186.154 320.55 177.761 312.956 171.566 C 312.556 177.761 311.357 183.757 309.358 189.352 Z " fill="rgb(18,135,177)"/><path d=" M 207.838 268.091 C 212.034 256.5 219.229 246.308 229.021 238.514 C 227.622 236.515 226.423 234.517 225.624 232.118 C 213.833 228.522 203.441 221.727 195.247 212.934 C 195.247 213.134 195.048 213.533 195.048 213.733 C 193.449 220.528 193.249 227.522 194.048 234.117 C 199.644 235.117 204.041 240.112 204.041 246.108 C 204.041 249.705 202.442 252.903 200.044 255.1 C 202.042 259.697 204.84 264.094 207.838 268.091 Z " fill="rgb(18,135,177)"/><path d=" M 205.839 274.885 C 200.843 269.889 196.646 264.294 193.449 258.099 C 192.849 258.099 192.25 258.298 191.65 258.298 C 184.856 258.298 179.46 252.903 179.46 246.108 C 179.46 241.312 182.258 237.115 186.254 235.117 C 185.255 227.522 185.655 219.928 187.454 212.134 C 187.853 209.936 188.653 207.737 189.252 205.54 C 181.858 194.748 177.461 181.558 177.461 167.368 L 177.461 165.771 C 164.871 172.166 155.479 181.957 155.479 197.546 C 155.479 232.118 176.062 261.895 205.639 275.085 C 205.839 275.085 205.839 275.085 205.839 274.885 Z " fill="rgb(18,135,177)"/><path d=" M 277.983 231.32 C 274.186 242.111 263.794 250.105 251.603 250.105 C 245.009 250.105 239.013 247.907 234.417 244.11 C 224.625 251.704 217.23 262.094 212.634 273.886 C 214.632 276.085 216.831 278.083 219.029 280.081 C 225.824 281.88 233.018 282.879 240.412 282.879 C 270.189 282.879 296.568 267.491 311.756 244.11 C 301.764 236.915 289.973 232.319 277.983 231.32 Z " fill="rgb(18,135,177)"/><path d=" M 278.982 224.124 L 304.762 217.93 L 278.782 216.531 L 299.966 200.544 L 275.984 209.136 L 292.172 186.554 L 269.589 201.543 L 277.383 175.163 L 261.995 196.946 L 261.596 169.368 L 251.404 193.949 L 243.01 169.168 L 243.41 198.344 L 228.821 172.166 L 236.815 199.944 L 213.034 182.757 L 231.619 206.139 L 202.042 195.348 L 225.224 212.534 L 195.447 213.533 L 226.023 221.326 L 195.447 227.922 L 225.624 230.12 L 200.244 246.308 L 226.423 236.915 L 208.237 259.897 L 231.219 241.312 L 223.026 272.088 L 240.812 246.907 L 238.414 276.484 L 248.406 249.505 L 256.999 277.683 L 258.998 249.305 L 271.788 273.487 L 264.194 245.908 L 287.375 263.894 L 272.387 240.912 L 297.967 250.904 L 278.383 231.719 L 304.562 233.718 L 278.982 224.124 L 278.982 224.124 Z " fill="rgb(255,255,255)"/><path d=" M 3.797 273.487 C 83.934 193.349 147.884 168.569 206.039 157.377 C 213.633 155.978 215.232 138.992 215.232 138.992 C 215.232 138.992 216.231 151.382 221.627 152.981 C 227.023 154.579 234.017 133.596 234.017 133.596 C 234.017 133.596 227.622 152.38 234.017 153.58 C 240.412 154.579 252.403 135.195 252.403 135.195 C 252.403 135.195 247.607 151.782 250.804 152.981 C 254.002 153.98 270.189 128.8 270.189 128.8 C 270.189 128.8 260.596 145.387 269.589 147.185 C 278.782 148.784 292.172 135.794 292.172 135.794 C 292.172 135.794 281.78 147.585 286.376 149.384 C 306.361 156.378 322.348 130.598 322.348 130.598 C 322.348 130.598 318.551 141.989 308.959 154.38 C 329.942 159.775 345.53 128.2 345.53 128.2 L 329.942 159.775 C 337.936 163.772 370.111 126.601 370.111 126.601 C 370.111 126.601 353.524 155.579 343.731 161.574 C 349.127 165.971 368.512 148.584 368.512 148.584 C 368.512 148.584 352.924 167.969 358.92 168.968 C 367.513 175.963 399.288 132.996 399.288 132.996 C 399.288 132.996 386.898 158.376 368.712 178.16 C 383.9 185.955 421.87 136.993 421.87 136.993 C 421.87 136.993 420.871 152.581 393.293 177.362 C 413.677 174.764 440.056 135.993 440.056 135.993 C 440.056 135.993 430.464 164.971 407.282 185.555 C 427.266 183.557 459.441 133.996 459.441 133.996 C 459.441 133.996 447.051 168.368 421.87 188.353 C 449.849 194.547 490.217 152.781 490.217 152.781 C 490.217 152.781 474.429 182.358 453.646 194.547 C 476.827 203.341 508.603 166.77 508.603 166.77 C 508.603 166.77 476.827 215.731 426.267 213.533 C 409.68 212.734 359.519 163.172 252.003 167.17 C 109.714 172.366 79.738 232.718 3.797 273.487 Z " fill="rgb(55,53,53)" fill-opacity="0.35"/><path d=" M 6.995 267.491 C 87.132 187.354 151.082 162.573 209.237 151.382 C 216.831 149.983 218.429 132.996 218.429 132.996 C 218.429 132.996 219.429 145.387 224.824 146.985 C 230.22 148.584 237.215 127.601 237.215 127.601 C 237.215 127.601 230.82 146.385 237.215 147.585 C 243.61 148.584 255.6 129.199 255.6 129.199 C 255.6 129.199 250.804 145.786 254.002 146.985 C 257.199 147.985 273.386 122.804 273.386 122.804 C 273.386 122.804 263.794 139.39 272.787 141.19 C 281.98 142.789 295.369 129.798 295.369 129.798 C 295.369 129.798 284.977 141.59 289.574 143.388 C 309.558 150.383 325.546 124.602 325.546 124.602 C 325.546 124.602 321.749 135.993 312.156 148.384 C 333.14 153.779 348.728 122.205 348.728 122.205 L 333.14 153.779 C 341.133 158.176 373.508 121.006 373.508 121.006 C 373.508 121.006 356.921 149.983 347.129 155.978 C 352.525 159.775 371.909 142.589 371.909 142.589 C 371.909 142.589 356.322 161.974 362.317 162.973 C 370.91 169.967 402.685 127.001 402.685 127.001 C 402.685 127.001 390.095 152.38 371.909 172.166 C 387.098 179.76 425.268 130.798 425.268 130.798 C 425.268 130.798 424.269 146.385 396.69 171.166 C 417.074 168.569 443.454 129.798 443.454 129.798 C 443.454 129.798 433.861 158.776 410.679 179.36 C 430.664 177.362 462.838 127.8 462.838 127.8 C 462.838 127.8 450.448 162.174 425.268 182.158 C 453.246 188.353 493.614 146.586 493.614 146.586 C 493.614 146.586 477.827 176.163 457.043 188.353 C 480.225 197.146 512 160.575 512 160.575 C 512 160.575 480.225 209.537 429.664 207.338 C 413.077 206.539 362.916 156.978 255.4 160.974 C 113.112 166.37 82.935 226.523 6.995 267.491 Z " fill="rgb(55,53,53)"/><path d=" M 1.799 282.28 C 44.165 303.463 82.935 279.082 131.697 292.871 C 168.868 303.263 214.033 316.252 275.385 307.26 C 336.737 298.467 389.096 271.688 414.276 224.124 C 422.07 202.942 453.845 228.921 453.845 228.921 C 453.845 228.921 430.664 219.329 431.263 223.725 C 431.863 228.322 466.036 244.11 466.036 244.11 C 466.036 244.11 435.06 234.517 437.059 241.711 C 438.857 248.906 475.828 278.083 475.828 278.083 C 475.828 278.083 433.661 246.508 430.264 250.904 C 426.667 255.301 448.05 272.687 448.05 272.687 C 448.05 272.687 412.877 250.904 400.487 257.299 C 391.494 261.895 437.059 291.672 437.059 291.672 C 437.059 291.672 407.482 269.09 400.487 275.085 C 393.493 281.081 433.861 329.443 433.861 329.443 C 433.861 329.443 387.897 279.881 383.301 282.28 C 378.704 284.678 395.891 308.458 395.891 308.458 C 395.891 308.458 373.508 283.679 367.313 287.875 C 361.118 292.271 399.688 356.422 399.688 356.422 C 399.688 356.422 357.92 290.673 340.534 301.665 C 367.513 361.018 357.521 369.412 357.521 369.412 C 357.521 369.412 354.123 308.859 320.35 310.458 C 303.363 311.256 328.343 355.621 328.343 355.621 C 328.343 355.621 305.361 315.054 289.973 315.852 C 318.151 369.412 308.159 390.995 308.159 390.995 C 308.159 390.995 312.756 345.231 274.585 319.85 C 289.174 332.84 265.393 390.995 265.393 390.995 C 265.393 390.995 286.176 305.261 250.005 321.649 C 244.209 324.246 249.605 364.415 249.605 364.415 C 249.605 364.415 242.411 318.451 231.419 320.85 C 225.024 322.247 191.051 384.6 191.051 384.6 C 191.051 384.6 218.829 317.251 210.436 320.049 C 204.24 322.049 192.649 349.827 192.649 349.827 C 192.649 349.827 198.245 322.448 192.649 320.85 C 187.054 319.251 155.479 349.827 155.479 349.827 C 155.479 349.827 178.86 322.448 174.863 316.653 C 168.668 308.059 161.674 307.66 153.08 311.057 C 140.69 315.852 124.103 338.436 124.103 338.436 C 124.103 338.436 140.69 315.453 137.892 307.059 C 133.296 293.27 85.533 333.64 85.533 333.64 C 85.533 333.64 113.711 307.059 107.316 301.265 C 100.921 295.669 65.749 297.268 54.957 297.268 C 22.782 297.668 11.591 290.073 1.799 282.28 Z " fill="rgb(55,53,53)" fill-opacity="0.35"/><path d=" M 0 277.482 C 42.367 298.667 81.137 274.285 129.899 288.075 C 167.069 298.467 212.234 311.457 273.586 302.463 C 334.938 293.67 387.297 266.892 412.478 219.329 C 420.272 198.145 452.047 224.124 452.047 224.124 C 452.047 224.124 428.865 214.533 429.464 218.929 C 430.064 223.526 464.237 239.313 464.237 239.313 C 464.237 239.313 433.262 229.721 435.26 236.915 C 437.059 244.11 474.03 273.287 474.03 273.287 C 474.03 273.287 432.262 241.511 428.865 245.908 C 425.468 250.305 446.651 267.691 446.651 267.691 C 446.651 267.691 411.479 245.908 399.088 252.303 C 390.095 256.9 435.66 286.676 435.66 286.676 C 435.66 286.676 406.083 264.094 399.088 270.088 C 392.094 276.085 432.462 324.447 432.462 324.447 C 432.462 324.447 386.698 274.885 382.101 277.284 C 377.505 279.682 394.692 303.463 394.692 303.463 C 394.692 303.463 371.909 278.881 365.714 283.078 C 359.519 287.476 397.889 351.626 397.889 351.626 C 397.889 351.626 356.122 285.677 338.935 296.668 C 366.114 356.222 355.922 364.615 355.922 364.615 C 355.922 364.615 352.525 304.063 318.751 305.66 C 301.764 306.461 326.745 350.826 326.745 350.826 C 326.745 350.826 303.963 310.458 288.575 311.256 C 316.753 364.814 306.76 386.398 306.76 386.398 C 306.76 386.398 311.357 340.634 273.187 315.254 C 287.775 328.244 263.994 386.398 263.994 386.398 C 263.994 386.398 284.778 300.665 248.606 317.053 C 242.81 319.65 248.206 359.819 248.206 359.819 C 248.206 359.819 241.012 313.855 230.02 316.252 C 223.625 317.651 189.652 380.002 189.652 380.002 C 189.652 380.002 217.43 312.655 209.037 315.453 C 202.842 317.452 191.251 345.231 191.251 345.231 C 191.251 345.231 196.846 317.852 191.251 316.252 C 185.655 314.654 154.08 345.231 154.08 345.231 C 154.08 345.231 177.461 317.852 173.464 312.056 C 167.269 303.463 160.275 303.063 151.681 306.461 C 139.291 311.256 122.704 333.838 122.704 333.838 C 122.704 333.838 139.291 310.857 136.493 302.463 C 131.897 288.674 84.134 329.043 84.134 329.043 C 84.134 329.043 112.312 302.463 105.917 296.668 C 99.522 291.073 64.35 292.672 53.558 292.672 C 20.984 292.871 9.792 285.277 0 277.482 Z " fill="rgb(55,53,53)"/></g></svg>