<?xml version="1.0" encoding="UTF-8" standalone="no"?><!-- Generator: Gravit.io --><svg xmlns="http://www.w3.org/2000/svg" xmlns:xlink="http://www.w3.org/1999/xlink" style="isolation:isolate" viewBox="0 0 512 512" width="512pt" height="512pt"><defs><clipPath id="_clipPath_8GFmSszMMYhez9xpD8iKOg57ckjsnghI"><rect width="512" height="512"/></clipPath></defs><g clip-path="url(#_clipPath_8GFmSszMMYhez9xpD8iKOg57ckjsnghI)"><g><linearGradient id="_lgradient_8" x1="0.17538908355106697" y1="0.6493219874895756" x2="1.6059206428983281" y2="0.24722838448792867" gradientTransform="matrix(75.316,0,0,68.138,309.196,0)" gradientUnits="userSpaceOnUse"><stop offset="0%" stop-opacity="1" style="stop-color:rgb(245,151,35)"/><stop offset="31.2%" stop-opacity="1" style="stop-color:rgb(246,152,34)"/><stop offset="83.8%" stop-opacity="1" style="stop-color:rgb(232,119,38)"/></linearGradient><path d=" M 346.754 2.304 C 338.676 7.045 325.233 20.466 309.196 39.932 L 323.892 67.546 C 334.235 52.88 344.727 39.636 355.19 28.436 C 356.024 27.548 356.412 27.133 356.412 27.133 C 356.024 27.548 355.577 28.022 355.19 28.436 C 351.762 32.17 341.359 44.258 325.68 68.138 C 340.793 67.398 363.834 64.316 382.911 61.116 C 388.575 29.71 377.397 15.489 377.397 15.489 C 377.397 15.489 363.208 -7.325 346.695 2.423 L 346.754 2.304 Z " fill="url(#_lgradient_8)"/><path d=" M 321.716 159.897 C 321.805 159.868 321.924 159.868 322.043 159.838 L 319.927 160.075 L 319.569 160.253 C 320.255 160.105 321 159.986 321.716 159.897 L 321.716 159.897 Z " fill="none"/><path d=" M 306.812 209.377 C 305.619 209.643 304.397 209.851 303.145 210.058 C 304.397 209.851 305.619 209.614 306.812 209.377 Z " fill="none"/><path d=" M 204.571 320.186 C 204.72 319.801 204.869 319.357 205.018 318.972 C 208.267 310.468 211.486 302.202 214.646 294.143 C 218.193 285.106 221.71 276.366 225.227 267.892 C 228.894 258.974 232.53 250.323 236.078 241.968 C 239.804 233.227 243.5 224.783 247.136 216.665 C 250.087 210.058 252.979 203.658 255.84 197.466 C 256.794 195.392 257.748 193.348 258.702 191.333 C 260.58 187.303 262.428 183.392 264.276 179.541 C 265.975 176.015 267.644 172.549 269.343 169.112 C 269.909 167.986 270.446 166.86 271.012 165.734 C 271.102 165.556 271.191 165.378 271.281 165.171 L 269.462 165.349 L 268.032 162.534 C 267.883 162.801 267.763 163.097 267.614 163.364 C 265.051 168.489 262.458 173.615 259.924 178.8 C 258.463 181.822 257.003 184.844 255.542 187.837 C 251.518 196.222 247.583 204.725 243.679 213.199 C 239.744 221.82 235.899 230.472 232.083 239.153 C 228.387 247.686 224.721 256.219 221.174 264.722 C 217.626 273.226 214.139 281.699 210.741 290.084 C 207.194 298.854 203.766 307.565 200.427 316.157 C 199.652 318.112 198.937 320.038 198.162 321.964 C 195.479 328.897 192.856 335.771 190.322 342.526 L 192.588 346.97 L 194.615 346.763 C 194.674 346.556 194.764 346.378 194.823 346.141 C 198.132 337.312 201.381 328.63 204.571 320.186 L 204.571 320.186 Z " fill="none"/><path d=" M 297.273 234.264 C 295.395 234.59 293.487 234.946 291.49 235.272 C 291.49 235.272 291.461 235.272 291.461 235.301 C 292.474 235.153 293.458 235.005 294.441 234.857 C 295.365 234.649 296.319 234.472 297.273 234.264 Z " fill="rgb(189,32,46)"/><path d=" M 297.273 234.264 C 295.395 234.59 293.487 234.946 291.49 235.272 C 291.49 235.272 291.461 235.272 291.461 235.301 C 292.474 235.153 293.458 235.005 294.441 234.857 C 295.365 234.649 296.319 234.472 297.273 234.264 Z " fill="rgb(0,0,0)"/><path d=" M 302.34 210.265 L 302.34 210.265 C 302.311 210.265 302.311 210.265 302.311 210.295 C 302.609 210.265 302.937 210.206 303.235 210.147 C 304.487 209.969 305.709 209.762 306.901 209.465 C 305.411 209.732 303.92 209.999 302.34 210.265 L 302.34 210.265 Z " fill="rgb(189,32,46)"/><path d=" M 302.34 210.265 L 302.34 210.265 C 302.311 210.265 302.311 210.265 302.311 210.295 C 302.609 210.265 302.937 210.206 303.235 210.147 C 304.487 209.969 305.709 209.762 306.901 209.465 C 305.411 209.732 303.92 209.999 302.34 210.265 L 302.34 210.265 Z " fill="rgb(0,0,0)"/><linearGradient id="_lgradient_9" x1="-2.1687112171837692" y1="3.952537385431744" x2="-0.14185838314807686" y2="-0.4000590231426022" gradientTransform="matrix(74.937,0,0,122.839,249.014,39.903)" gradientUnits="userSpaceOnUse"><stop offset="32.300000000000004%" stop-opacity="1" style="stop-color:rgb(156,32,99)"/><stop offset="63%" stop-opacity="1" style="stop-color:rgb(200,32,55)"/><stop offset="75.1%" stop-opacity="1" style="stop-color:rgb(204,33,53)"/><stop offset="100%" stop-opacity="1" style="stop-color:rgb(232,119,38)"/></linearGradient><path d=" M 280.581 138.861 C 285.052 130.536 289.583 122.417 294.143 114.536 C 298.883 106.3 303.712 98.359 308.57 90.656 C 308.839 90.211 309.166 89.737 309.435 89.293 C 314.234 81.738 319.092 74.449 323.951 67.516 L 309.256 39.903 C 308.153 41.236 307.05 42.599 305.917 44.021 C 301.655 49.295 297.273 54.924 292.742 60.939 C 287.645 67.694 282.429 74.923 277.093 82.508 C 272.205 89.5 267.197 96.819 262.189 104.433 C 257.927 110.892 253.694 117.529 249.461 124.343 C 249.312 124.58 249.163 124.847 249.014 125.114 L 268.181 162.742 C 272.234 154.594 276.408 146.624 280.581 138.861 L 280.581 138.861 Z " fill="url(#_lgradient_9)"/><linearGradient id="_lgradient_10" x1="-0.19607869289763158" y1="1.9374719887955179" x2="1.264094698232742" y2="-1.1981999018346916" gradientTransform="matrix(89.394,0,0,84.618,177.773,326.734)" gradientUnits="userSpaceOnUse"><stop offset="0%" stop-opacity="1" style="stop-color:rgb(40,38,97)"/><stop offset="9.55%" stop-opacity="1" style="stop-color:rgb(102,46,140)"/><stop offset="78.8%" stop-opacity="1" style="stop-color:rgb(158,32,100)"/><stop offset="94.89999999999999%" stop-opacity="1" style="stop-color:rgb(204,32,50)"/></linearGradient><path d=" M 193.244 350.704 C 190.71 357.607 188.146 364.688 185.613 371.888 C 185.583 371.977 185.553 372.095 185.494 372.184 C 185.136 373.191 184.748 374.228 184.42 375.236 C 182.692 380.095 181.201 384.48 177.773 394.405 C 183.407 396.953 187.938 403.709 192.23 411.353 C 191.783 403.442 188.504 396.005 182.215 390.257 C 210.025 391.502 234.08 384.509 246.302 364.303 C 247.405 362.496 248.418 360.629 249.342 358.585 C 243.708 365.695 236.704 368.688 223.558 367.977 C 223.528 367.977 223.499 368.006 223.469 368.006 C 223.499 368.006 223.528 367.977 223.558 367.977 C 242.933 359.355 252.621 351.089 261.116 337.46 C 263.143 334.201 265.14 330.675 267.167 326.734 C 250.236 344.008 230.802 348.926 209.936 345.193 L 194.436 346.881 C 193.929 348.185 193.482 349.459 192.975 350.763 L 193.244 350.704 Z " fill="url(#_lgradient_10)"/><linearGradient id="_lgradient_11" x1="-0.7934726490473272" y1="1.7073256288239298" x2="0.5221217928669031" y2="-1.1178679653328976" gradientTransform="matrix(96.995,0,0,217.916,171.305,125.084)" gradientUnits="userSpaceOnUse"><stop offset="32.300000000000004%" stop-opacity="1" style="stop-color:rgb(156,32,99)"/><stop offset="63%" stop-opacity="1" style="stop-color:rgb(200,32,55)"/><stop offset="75.1%" stop-opacity="1" style="stop-color:rgb(204,33,53)"/><stop offset="100%" stop-opacity="1" style="stop-color:rgb(232,119,38)"/></linearGradient><path d=" M 200.696 316.335 C 204.034 307.742 207.492 299.032 211.009 290.262 C 214.407 281.847 217.865 273.374 221.442 264.9 C 225.019 256.426 228.655 247.864 232.352 239.331 C 236.107 230.65 239.982 221.998 243.947 213.376 C 247.852 204.843 251.786 196.37 255.81 188.015 C 257.241 184.992 258.732 181.97 260.192 178.978 C 262.726 173.793 265.289 168.638 267.883 163.542 C 268.032 163.275 268.151 162.979 268.3 162.712 L 249.133 125.084 C 248.835 125.588 248.507 126.121 248.18 126.595 C 243.708 133.854 239.267 141.261 234.915 148.816 C 230.503 156.46 226.181 164.253 221.949 172.163 C 218.401 178.83 214.914 185.526 211.486 192.34 C 210.8 193.703 210.145 195.096 209.459 196.459 C 205.286 205.021 201.53 213.228 198.102 221.198 C 194.227 230.176 190.829 238.768 187.878 246.916 C 185.911 252.278 184.152 257.434 182.513 262.411 C 181.171 266.648 179.92 270.914 178.668 275.151 C 175.806 285.106 173.332 295.062 171.305 305.076 L 190.561 343 C 193.095 336.245 195.718 329.371 198.4 322.438 C 199.205 320.453 199.921 318.498 200.696 316.601 L 200.696 316.335 Z " fill="url(#_lgradient_11)"/><linearGradient id="_lgradient_12" x1="-0.17059326056003724" y1="0.7769931271477661" x2="0.7515000323298444" y2="-1.2031703497493973" gradientTransform="matrix(62.805,0,0,206.924,127.487,305.076)" gradientUnits="userSpaceOnUse"><stop offset="0%" stop-opacity="1" style="stop-color:rgb(40,38,97)"/><stop offset="9.55%" stop-opacity="1" style="stop-color:rgb(102,46,140)"/><stop offset="78.8%" stop-opacity="1" style="stop-color:rgb(158,32,100)"/><stop offset="94.89999999999999%" stop-opacity="1" style="stop-color:rgb(204,32,50)"/></linearGradient><path d=" M 170.888 306.261 C 168.473 318.349 166.744 330.379 165.88 342.408 L 165.791 343.652 C 159.769 334.082 143.703 324.749 143.733 324.838 C 155.268 341.43 164.002 358.022 165.284 374.021 C 159.114 375.265 150.678 373.458 140.931 369.903 C 151.095 379.206 158.726 381.754 161.737 382.465 C 152.377 383.058 142.66 389.428 132.853 396.776 C 147.19 390.968 158.786 388.657 167.132 390.524 C 153.957 427.559 140.782 468.446 127.487 512 C 131.541 510.815 133.956 508.089 135.297 504.445 C 137.652 496.593 153.241 444.892 177.624 377.339 C 178.34 375.414 179.025 373.458 179.741 371.532 C 179.92 370.969 180.128 370.436 180.337 369.932 C 182.9 362.821 185.613 355.563 188.355 348.155 C 188.981 346.467 189.607 344.778 190.263 343.089 C 190.263 343.059 190.293 343.03 190.293 343 L 171.007 305.076 C 170.947 305.461 170.858 305.906 170.768 306.35 L 170.888 306.261 Z " fill="url(#_lgradient_12)"/><linearGradient id="_lgradient_13" x1="-0.3412378880759345" y1="1.8826354009077164" x2="0.839138567004241" y2="-0.6521822399557027" gradientTransform="matrix(150.738,0,0,195.843,194.674,151.068)" gradientUnits="userSpaceOnUse"><stop offset="32.300000000000004%" stop-opacity="1" style="stop-color:rgb(156,32,99)"/><stop offset="63%" stop-opacity="1" style="stop-color:rgb(200,32,55)"/><stop offset="75.1%" stop-opacity="1" style="stop-color:rgb(204,33,53)"/><stop offset="100%" stop-opacity="1" style="stop-color:rgb(232,119,38)"/></linearGradient><path d=" M 271.042 165.823 C 270.476 166.949 269.939 168.075 269.373 169.201 C 267.704 172.608 266.034 176.074 264.306 179.63 C 262.458 183.481 260.609 187.392 258.732 191.422 C 257.778 193.436 256.824 195.481 255.87 197.555 C 253.008 203.747 250.117 210.147 247.166 216.754 C 243.559 224.842 239.833 233.287 236.107 242.057 C 232.56 250.412 228.894 259.034 225.257 267.981 C 221.77 276.455 218.252 285.225 214.675 294.232 C 211.486 302.261 208.267 310.557 205.048 319.06 C 204.899 319.446 204.749 319.89 204.6 320.275 C 201.381 328.719 198.132 337.4 194.883 346.289 C 194.823 346.496 194.734 346.674 194.674 346.911 L 210.174 345.222 C 209.876 345.163 209.549 345.133 209.25 345.074 C 227.761 342.793 252.472 329.016 268.27 311.89 C 275.603 304.069 282.25 294.825 288.39 284.01 C 292.951 275.981 297.273 267.033 301.387 257.167 C 304.964 248.545 308.391 239.183 311.7 229.079 C 307.438 231.301 302.579 232.961 297.213 234.087 C 296.26 234.294 295.306 234.472 294.322 234.649 C 293.338 234.827 292.355 234.975 291.341 235.094 C 291.341 235.094 291.371 235.094 291.371 235.064 C 308.66 228.457 319.54 215.717 327.439 200.103 C 322.908 203.184 315.516 207.214 306.663 209.139 C 305.47 209.406 304.248 209.614 302.996 209.821 C 302.698 209.851 302.37 209.91 302.072 209.969 L 302.102 209.969 L 302.132 209.969 C 308.153 207.48 313.19 204.666 317.572 201.377 C 318.526 200.666 319.45 199.955 320.285 199.184 C 321.626 198.029 322.878 196.814 324.13 195.57 C 324.905 194.74 325.65 193.911 326.395 193.051 C 328.124 191.007 329.734 188.814 331.224 186.444 C 331.671 185.703 332.148 184.992 332.566 184.222 C 333.162 183.126 333.698 182.03 334.235 180.993 C 336.649 176.193 338.587 171.867 340.107 168.104 C 340.882 166.208 341.538 164.49 342.134 162.83 C 342.372 162.179 342.581 161.556 342.79 160.934 C 343.416 159.127 343.893 157.527 344.28 156.105 C 344.876 153.972 345.234 152.283 345.413 151.068 C 344.817 151.512 344.161 151.986 343.386 152.431 C 338.169 155.542 329.227 158.327 322.014 159.66 L 336.232 158.12 L 322.014 159.66 C 321.924 159.69 321.805 159.69 321.686 159.719 C 320.941 159.838 320.255 159.956 319.51 160.045 L 319.867 159.868 L 271.281 165.171 C 271.281 165.29 271.191 165.497 271.102 165.675 L 271.042 165.823 Z " fill="url(#_lgradient_13)"/><linearGradient id="_lgradient_14" x1="-1.291647530040053" y1="4.664515762567452" x2="0.6714926568758353" y2="0.4487400616328703" gradientTransform="matrix(111.63,0,0,104.321,271.34,60.998)" gradientUnits="userSpaceOnUse"><stop offset="32.300000000000004%" stop-opacity="1" style="stop-color:rgb(156,32,99)"/><stop offset="63%" stop-opacity="1" style="stop-color:rgb(200,32,55)"/><stop offset="75.1%" stop-opacity="1" style="stop-color:rgb(204,33,53)"/><stop offset="100%" stop-opacity="1" style="stop-color:rgb(232,119,38)"/></linearGradient><path d=" M 325.889 68.05 C 321.567 74.657 316.857 82.153 311.73 90.656 C 311.462 91.071 311.164 91.574 310.925 91.989 C 306.543 99.337 301.893 107.396 296.945 116.255 C 292.712 123.899 288.301 132.076 283.711 140.876 C 279.716 148.55 275.603 156.697 271.34 165.319 L 319.927 160.016 C 334.116 153.527 340.435 147.69 346.575 139.187 C 348.185 136.846 349.854 134.417 351.464 131.869 C 356.472 124.106 361.36 115.573 365.742 107.07 C 369.974 98.863 373.7 90.745 376.562 83.397 C 378.38 78.745 379.841 74.42 380.854 70.598 C 381.749 67.25 382.434 64.05 382.971 60.998 C 364.102 64.227 340.942 67.309 325.74 68.05 L 325.889 68.05 Z " fill="url(#_lgradient_14)"/><path d=" M 294.292 234.857 C 293.309 235.035 292.325 235.183 291.312 235.301 C 292.325 235.212 293.338 235.035 294.292 234.857 Z " fill="rgb(189,32,46)"/><g opacity="0.35"><path d=" M 294.292 234.857 C 293.309 235.035 292.325 235.183 291.312 235.301 C 292.325 235.212 293.338 235.035 294.292 234.857 Z " fill="rgb(189,32,46)"/></g><linearGradient id="_lgradient_15" x1="-44.82999999999993" y1="656.1266666666669" x2="28.68960000000007" y2="498.24586666666687" gradientTransform="matrix(2.981,0,0,0.444,291.312,234.857)" gradientUnits="userSpaceOnUse"><stop offset="32.300000000000004%" stop-opacity="1" style="stop-color:rgb(156,32,99)"/><stop offset="63%" stop-opacity="1" style="stop-color:rgb(200,32,55)"/><stop offset="75.1%" stop-opacity="1" style="stop-color:rgb(204,33,53)"/><stop offset="100%" stop-opacity="1" style="stop-color:rgb(232,119,38)"/></linearGradient><path d=" M 294.292 234.857 C 293.309 235.035 292.325 235.183 291.312 235.301 C 292.325 235.212 293.338 235.035 294.292 234.857 Z " fill="url(#_lgradient_15)"/><path d=" M 302.34 210.265 C 302.639 210.236 302.966 210.176 303.264 210.117 C 302.966 210.147 302.668 210.236 302.34 210.265 Z " fill="rgb(189,32,46)"/><g opacity="0.35"><path d=" M 302.34 210.265 C 302.639 210.236 302.966 210.176 303.264 210.117 C 302.966 210.147 302.668 210.236 302.34 210.265 Z " fill="rgb(189,32,46)"/></g><linearGradient id="_lgradient_16" x1="-158.35225806451493" y1="2130.1720000000023" x2="78.80774193548334" y2="1620.8790967741993" gradientTransform="matrix(0.924,0,0,0.148,302.34,210.117)" gradientUnits="userSpaceOnUse"><stop offset="32.300000000000004%" stop-opacity="1" style="stop-color:rgb(156,32,99)"/><stop offset="63%" stop-opacity="1" style="stop-color:rgb(200,32,55)"/><stop offset="75.1%" stop-opacity="1" style="stop-color:rgb(204,33,53)"/><stop offset="100%" stop-opacity="1" style="stop-color:rgb(232,119,38)"/></linearGradient><path d=" M 302.34 210.265 C 302.639 210.236 302.966 210.176 303.264 210.117 C 302.966 210.147 302.668 210.236 302.34 210.265 Z " fill="url(#_lgradient_16)"/><path d=" M 302.34 210.265 C 302.37 210.265 302.37 210.236 302.34 210.265 C 302.37 210.236 302.37 210.265 302.34 210.265 Z " fill="rgb(189,32,46)"/><g opacity="0.35"><path d=" M 302.34 210.265 C 302.37 210.265 302.37 210.236 302.34 210.265 C 302.37 210.236 302.37 210.265 302.34 210.265 Z " fill="rgb(189,32,46)"/></g><linearGradient id="_lgradient_17" x1="-1061.1733333326865" y1="3971.214999996855" x2="1103.0399999993324" y2="-676.3583333336628" gradientTransform="matrix(0.022,0,0,0.013,302.34,210.252)" gradientUnits="userSpaceOnUse"><stop offset="32.300000000000004%" stop-opacity="1" style="stop-color:rgb(156,32,99)"/><stop offset="63%" stop-opacity="1" style="stop-color:rgb(200,32,55)"/><stop offset="75.1%" stop-opacity="1" style="stop-color:rgb(204,33,53)"/><stop offset="100%" stop-opacity="1" style="stop-color:rgb(232,119,38)"/></linearGradient><path d=" M 302.34 210.265 C 302.37 210.265 302.37 210.236 302.34 210.265 C 302.37 210.236 302.37 210.265 302.34 210.265 Z " fill="url(#_lgradient_17)"/></g></g></svg>