<?xml version="1.0" encoding="UTF-8" standalone="no"?><!-- Generator: Gravit.io --><svg xmlns="http://www.w3.org/2000/svg" xmlns:xlink="http://www.w3.org/1999/xlink" style="isolation:isolate" viewBox="0 0 512 512" width="512pt" height="512pt"><defs><clipPath id="_clipPath_EZYjZUNfzaS1vP2zkavULemSKhp96EER"><rect width="512" height="512"/></clipPath></defs><g clip-path="url(#_clipPath_EZYjZUNfzaS1vP2zkavULemSKhp96EER)"><g><path d=" M 86.58 313.443 C 92.466 320.701 99.007 328.057 106.205 335.513 C 85.328 341.816 71.41 353.527 62.86 363.946 C 49.3 380.309 42.182 401.922 43.773 420.413 L 7.586 420.413 C 14.824 404.705 43.773 359.373 86.322 313.443 L 86.58 313.443 Z " fill="rgb(209,164,26)"/><path d=" M 504.714 430.752 L 460.773 430.752 C 360.167 378.261 271.689 341.279 178.439 333.127 C 178.637 320.064 180.964 305.292 185.437 288.789 L 176.788 286.463 C 172.195 303.403 169.79 318.673 169.511 332.392 C 159.729 331.736 149.887 331.417 139.886 331.417 C 131.476 331.417 123.801 332.195 116.822 333.545 C 107.696 324.439 99.922 315.73 93.36 307.499 C 136.705 262.365 207.885 221.605 270.118 206.296 C 287.595 264.353 325.193 304.119 370.724 330.96 C 374.065 329.051 377.345 327.063 380.566 324.956 L 460.097 410.451 L 463.577 410.153 C 485.249 408.286 497.576 420.055 500.956 423.713 C 503.362 426.377 504.794 428.823 505.589 430.752 L 504.714 430.752 Z " fill="rgb(209,164,26)"/><path d=" M 464.949 144.043 C 466.561 222.977 426.376 285.807 369.909 318.017 C 274.273 270.298 256.18 149.61 272.484 85.389 C 277.017 110.242 285.268 125.751 303.103 133.306 C 341.875 122.192 395.359 121.317 434.727 132.173 C 451.13 120.243 457.592 101.951 460.972 86.045 C 465.306 104.576 464.809 144.699 464.829 144.699 L 464.949 144.043 Z " fill="rgb(255,220,118)"/><path d=" M 196.532 232.322 L 224.368 218.802 L 240.274 261.748 L 196.532 232.322 Z " fill="rgb(0,0,0)"/><path d=" M 165.316 248.029 L 182.614 237.69 L 198.52 265.725 L 165.316 248.029 Z " fill="rgb(0,0,0)"/><path d=" M 131.714 269.702 L 146.825 259.76 L 154.38 285.608 L 131.714 269.702 Z " fill="rgb(0,0,0)"/><path d=" M 399.336 341.279 L 389.394 331.338 L 375.476 353.209 L 399.336 341.279 Z " fill="rgb(0,0,0)"/><path d=" M 419.218 365.139 L 411.265 357.185 L 387.406 373.092 L 419.218 365.139 Z " fill="rgb(0,0,0)"/><path d=" M 383.429 120.979 L 355.594 121.575 L 371.5 158.358 L 383.429 120.979 Z " fill="rgb(0,0,0)"/><path d=" M 274.074 190.767 L 270.098 175.06 L 297.934 189.177 L 274.074 190.767 Z " fill="rgb(0,0,0)"/><path d=" M 280.039 214.03 L 278.051 203.691 L 293.957 210.252 L 280.039 214.03 Z " fill="rgb(0,0,0)"/><path d=" M 462.96 197.328 L 466.937 185.399 L 445.066 194.545 L 462.96 197.328 Z " fill="rgb(0,0,0)"/><path d=" M 455.007 221.585 L 456.995 211.843 L 441.089 216.615 L 455.007 221.585 Z " fill="rgb(0,0,0)"/><rect x="262.145" y="252.404" width="52.093" height="6.442" transform="matrix(1,0,0,1,0,0)" fill="rgb(0,0,0)"/><rect x="262.145" y="236.895" width="52.093" height="6.442" transform="matrix(1,0,0,1,0,0)" fill="rgb(0,0,0)"/><rect x="421.207" y="252.404" width="52.093" height="6.442" transform="matrix(1,0,0,1,0,0)" fill="rgb(0,0,0)"/><rect x="421.207" y="236.895" width="52.093" height="6.442" transform="matrix(1,0,0,1,0,0)" fill="rgb(0,0,0)"/><path d=" M 403.312 198.72 L 318.214 198.72 L 318.214 192.914 L 344.658 192.914 C 347.919 178.957 348.555 165.675 344.631 158.915 C 342.953 156.032 340.634 154.7 337.334 154.7 C 322.203 154.7 315.861 170.705 315.662 171.381 L 315.666 171.377 L 310.238 169.349 C 310.548 168.514 318.111 148.87 337.278 148.87 C 342.627 148.87 346.882 151.336 349.586 155.968 C 354.377 164.2 353.821 178.436 350.568 192.95 L 397.093 192.95 C 403.257 174.817 416.141 166.307 437.654 166.307 L 437.654 172.113 C 414.391 172.113 407.83 181.995 403.058 192.99 L 428.309 192.99 L 428.251 198.756 L 403.312 198.72 Z " fill="rgb(0,0,0)"/><path d=" M 407.289 227.351 L 407.326 227.346 C 400.446 217.205 398.279 208.537 401.142 198.714 L 395.237 198.743 C 393.169 205.305 394.004 215.186 399.074 223.597 L 340.023 223.597 C 343.621 216.399 346.942 207.631 349.368 198.743 L 343.363 198.743 C 340.679 208.267 336.921 217.672 332.686 225.187 L 331.316 227.593 L 364.52 248.47 L 345.87 260.758 L 349.071 265.609 L 369.948 251.87 L 392.416 266.544 L 395.497 261.633 L 374.621 248.729 C 374.621 248.729 405.836 228.448 407.427 227.454 C 407.417 227.441 407.411 227.429 407.402 227.417 L 407.289 227.351 Z  M 369.71 244.868 L 345.255 229.459 L 393.172 229.471 L 369.71 244.868 Z " fill="rgb(0,0,0)"/><path d=" M 472.305 138.187 C 472.269 128.147 469.156 85.708 463.447 74.025 C 447.956 79.946 419.749 99.175 413.45 118.78 C 382.94 114.185 348.493 114.74 318.18 119.986 C 313.141 98.796 287.867 82.756 268.774 73.646 C 260.723 87.33 257.141 118.996 258.066 141.571 C 258.031 141.594 257.994 141.618 257.959 141.643 C 261.502 236.104 307.562 294.919 367.795 330.565 C 429.799 294.919 474.088 225.41 472.317 138.276 C 472.342 138.292 472.369 138.303 472.392 138.319 L 472.305 138.187 Z  M 420.733 119.968 C 420.958 120.009 421.184 120.051 421.41 120.094 C 421.186 120.051 420.96 120.009 420.733 119.968 Z  M 416.875 119.299 C 417.417 119.386 417.966 119.484 418.509 119.578 C 417.966 119.485 417.421 119.39 416.875 119.299 Z  M 462.739 145.043 C 464.333 223.661 424.552 286.239 368.65 318.321 C 273.97 270.793 256.058 150.588 272.199 86.623 C 276.687 111.377 284.836 126.824 302.512 134.349 C 340.895 123.279 393.845 122.408 432.819 133.222 C 449.058 121.34 455.456 103.121 458.802 87.279 C 463.093 105.735 462.601 145.698 462.621 145.698 L 462.739 145.043 Z " fill="rgb(0,0,0)"/><path d=" M 503.799 416.818 C 494.076 405.867 475.061 400.698 459.117 401.074 C 447.818 387.549 382.35 318.099 382.35 318.099 L 377.803 323.842 L 456.932 409.392 L 460.357 409.096 C 481.812 407.245 494.016 418.958 497.363 422.602 C 499.725 425.276 501.162 427.711 501.949 429.613 L 458.448 429.613 C 358.847 377.332 271.254 340.498 178.936 332.379 C 179.141 319.368 181.436 304.654 185.865 288.218 L 177.322 285.881 C 172.775 302.753 170.394 317.962 170.118 331.626 C 160.434 330.981 150.69 330.646 140.789 330.646 C 132.443 330.646 124.845 331.426 117.956 332.785 C 108.921 323.695 101.224 315.041 94.729 306.843 C 137.836 261.691 209.092 220.699 270.9 205.648 L 268.892 196.935 C 202.36 213.075 129.53 256.939 88.981 299.516 C 70.163 273.969 62.605 252.978 60.439 237.135 C 57.644 217.134 62.402 198.717 74.218 183.865 C 92.721 160.695 118.901 159.111 146.064 163.666 C 145.537 167.963 146.098 172.062 147.806 174.597 C 154.952 185.212 193.276 188.954 216.306 178.657 C 199.378 154.893 165.128 143.209 155.68 147.764 C 152.53 149.308 150.168 152.14 148.535 155.467 C 139.185 153.786 129.914 152.536 123.142 152.576 C 99.325 152.752 81.019 161.131 67.437 178.122 C 54.052 194.856 48.639 215.55 51.788 238.126 C 54.78 259.513 65.291 282.287 82.889 305.853 C 79.956 309.021 77.121 312.13 74.405 315.2 C 31.494 363.519 0 415.602 0 424.117 L 0 428.573 L 56.69 428.573 L 55.696 423.285 C 52.487 406.255 58.884 384.867 71.994 369.025 C 80.222 359.044 93.843 347.637 115.298 342.29 C 134.313 360.965 158.603 380.709 185.57 399.918 L 227.693 399.918 L 227.693 395.462 C 227.693 390.432 225.213 386.036 220.725 383.065 C 214.072 378.689 203.797 378.075 194.349 381.321 C 185.353 371.241 180.295 357.755 179.212 341.12 C 270.742 349.279 358.139 386.469 456.755 438.354 L 511.082 438.354 L 511.793 434.769 C 512.809 429.66 510.045 422.828 504.412 416.491 L 503.799 416.818 Z  M 64.849 363.745 C 51.424 380.043 44.377 401.569 45.952 419.986 L 10.127 419.986 C 17.312 404.362 45.952 359.19 88.076 313.445 C 93.902 320.693 100.378 328 107.504 335.427 C 86.835 341.704 73.057 353.368 64.593 363.745 L 64.849 363.745 Z " fill="rgb(0,0,0)"/></g></g></svg>