<?xml version="1.0" encoding="UTF-8" standalone="no"?><!-- Generator: Gravit.io --><svg xmlns="http://www.w3.org/2000/svg" xmlns:xlink="http://www.w3.org/1999/xlink" style="isolation:isolate" viewBox="0 0 512 512" width="512pt" height="512pt"><defs><clipPath id="_clipPath_zEqJgepZBFooOuzp6UZjDhiEPEIjnyw3"><rect width="512" height="512"/></clipPath></defs><g clip-path="url(#_clipPath_zEqJgepZBFooOuzp6UZjDhiEPEIjnyw3)"><circle vector-effect="non-scaling-stroke" cx="256" cy="256" r="256" fill="rgb(102,0,51)" /><path d=" M 181.97 289.834 C 181.97 304.713 169.954 316.739 155.087 316.739 C 140.22 316.739 128.204 304.713 128.204 289.834 C 128.204 274.955 140.22 262.93 155.087 262.93 L 181.97 262.93 L 181.97 289.834 Z  M 195.411 289.834 C 195.411 274.955 207.427 262.93 222.294 262.93 C 237.161 262.93 249.177 274.955 249.177 289.834 L 249.177 357.096 C 249.177 371.975 237.161 384 222.294 384 C 207.427 384 195.411 371.975 195.411 357.096 L 195.411 289.834 Z  M 222.294 181.809 C 207.427 181.809 195.411 169.783 195.411 154.904 C 195.411 140.025 207.427 128 222.294 128 C 237.161 128 249.177 140.025 249.177 154.904 L 249.177 181.809 L 222.294 181.809 Z  M 222.294 195.465 C 237.161 195.465 249.177 207.49 249.177 222.369 C 249.177 237.248 237.161 249.274 222.294 249.274 L 154.883 249.274 C 140.016 249.274 128 237.248 128 222.369 C 128 207.49 140.016 195.465 154.883 195.465 L 222.294 195.465 Z  M 330.03 222.369 C 330.03 207.49 342.046 195.465 356.913 195.465 C 371.78 195.465 383.796 207.49 383.796 222.369 C 383.796 237.248 371.78 249.274 356.913 249.274 L 330.03 249.274 L 330.03 222.369 Z  M 316.589 222.369 C 316.589 237.248 304.573 249.274 289.706 249.274 C 274.839 249.274 262.823 237.248 262.823 222.369 L 262.823 154.904 C 262.823 140.025 274.839 128 289.706 128 C 304.573 128 316.589 140.025 316.589 154.904 L 316.589 222.369 L 316.589 222.369 Z  M 289.706 330.191 C 304.573 330.191 316.589 342.217 316.589 357.096 C 316.589 371.975 304.573 384 289.706 384 C 274.839 384 262.823 371.975 262.823 357.096 L 262.823 330.191 L 289.706 330.191 Z  M 289.706 316.739 C 274.839 316.739 262.823 304.713 262.823 289.834 C 262.823 274.955 274.839 262.93 289.706 262.93 L 357.117 262.93 C 371.984 262.93 384 274.955 384 289.834 C 384 304.713 371.984 316.739 357.117 316.739 L 289.706 316.739 Z " fill-rule="evenodd" fill="rgb(255,255,255)"/></g></svg>