<?xml version="1.0" encoding="UTF-8" standalone="no"?>
<!-- Generator: Gravit.io --><svg xmlns="http://www.w3.org/2000/svg" xmlns:xlink="http://www.w3.org/1999/xlink"
  style="isolation:isolate" viewBox="0 0 512 512" width="512pt" height="512pt">
  <defs>
    <clipPath id="_clipPath_3H58MoX7ncUVJUX0LoVTJFzXUakic21t">
      <rect width="512" height="512" />
    </clipPath>
  </defs>
  <g clip-path="url(#_clipPath_3H58MoX7ncUVJUX0LoVTJFzXUakic21t)">
    <circle vector-effect="non-scaling-stroke" cx="256" cy="256" r="256" fill="rgb(6,64,43)" />
    <path
      d=" M 230.113 130.518 C 180.42 140.218 140.376 180.202 130.563 229.745 C 112.516 323.231 196.403 392.92 259.944 383.072 C 280.536 379.869 290.644 355.771 281.191 337.229 C 269.648 314.527 286.139 288.036 311.636 288.036 L 351.48 288.036 C 369.383 288.036 383.876 273.243 383.926 255.386 C 383.69 176.567 312.001 114.567 230.113 130.518 Z  M 175.971 287.986 C 167.127 287.986 159.973 280.832 159.973 271.988 C 159.973 263.145 167.127 255.976 175.521 255.976 C 183.915 255.976 191.519 263.13 191.519 271.523 C 191.519 280.837 184.82 287.986 175.971 287.986 Z  M 191.969 223.995 C 183.125 223.995 175.971 216.841 175.971 207.998 C 175.971 199.154 183.125 192 191.969 192 C 200.812 192 207.966 199.154 207.966 207.998 C 207.966 216.841 200.817 223.995 191.969 223.995 Z  M 255.959 192 C 247.115 192 239.961 184.846 239.961 176.003 C 239.961 167.159 247.11 160.025 255.959 160.025 C 264.808 160.025 271.957 167.179 271.957 176.023 C 271.957 184.866 264.808 192 255.959 192 Z  M 319.95 223.995 C 311.106 223.995 303.952 216.841 303.952 207.998 C 303.952 199.154 311.106 192 319.95 192 C 328.793 192 335.947 199.154 335.947 207.998 C 335.947 216.841 328.798 223.995 319.95 223.995 Z "
      fill="rgb(255,255,255)" />
  </g>
</svg>
