<?xml version="1.0" encoding="UTF-8" standalone="no"?><!-- Generator: Gravit.io --><svg xmlns="http://www.w3.org/2000/svg" xmlns:xlink="http://www.w3.org/1999/xlink" style="isolation:isolate" viewBox="0 0 512 512" width="512pt" height="512pt"><defs><clipPath id="_clipPath_eQ5dkyYq69a3attowLRaXf0VyV06Sk22"><rect width="512" height="512"/></clipPath></defs><g clip-path="url(#_clipPath_eQ5dkyYq69a3attowLRaXf0VyV06Sk22)"><rect x="0" y="0" width="512" height="512" transform="matrix(1,0,0,1,0,0)" fill="rgb(27,27,29)"/><path d=" M 251.404 357.947 L 251.404 264.482 C 254.139 264.742 256.81 264.873 259.415 264.873 C 272.506 264.873 284.751 261.421 295.173 255.428 L 295.173 358.012 C 295.173 366.74 293.153 373.253 289.05 377.552 C 284.947 381.851 279.671 384 273.093 384 C 266.71 384 261.564 381.851 257.526 377.422 C 253.618 372.927 251.404 366.61 251.404 357.947 Z  M 251.664 134.021 C 278.759 124.512 309.762 125.033 332.884 144.573 C 337.183 148.546 342.133 153.431 344.022 159.358 C 346.432 166.653 335.88 158.642 334.317 157.534 C 326.762 152.715 319.206 148.676 310.674 145.876 C 265.081 132.198 221.899 156.883 195.064 195.441 C 184.057 212.376 176.697 230.222 170.704 249.892 C 170.118 252.042 169.532 254.842 168.295 256.731 C 167.122 258.88 167.839 250.999 167.839 250.609 C 168.816 242.467 170.509 234.651 172.528 226.77 C 184.968 184.955 212.324 150.044 251.664 134.021 Z  M 304.226 209.315 C 304.226 227.096 289.832 241.555 272.051 241.555 C 254.269 241.555 239.875 227.161 239.875 209.315 C 239.875 191.468 254.269 177.074 272.051 177.074 C 289.832 177.074 304.226 191.468 304.226 209.315 Z " fill-rule="evenodd" fill="rgb(102,0,51)"/></g></svg>