<?xml version="1.0" encoding="UTF-8" standalone="no"?><!-- Generator: Gravit.io --><svg xmlns="http://www.w3.org/2000/svg" xmlns:xlink="http://www.w3.org/1999/xlink" style="isolation:isolate" viewBox="0 0 512 512" width="512pt" height="512pt"><defs><clipPath id="_clipPath_0Alq9ileyWBNkTgwnZ6T6gW86EGK2cov"><rect width="512" height="512"/></clipPath></defs><g clip-path="url(#_clipPath_0Alq9ileyWBNkTgwnZ6T6gW86EGK2cov)"><path d="M 477.714 383.995 L 256.005 512 L 34.286 383.995 L 34.286 127.985 L 256.005 0 L 477.714 127.985 L 477.714 383.995 Z" fill-rule="evenodd" fill="rgb(237,29,36)" /><path d=" M 354.595 219.676 C 335.873 219.676 325.189 230.563 325.189 243.79 C 325.189 256.916 335.873 267.905 354.595 267.905 C 373.316 267.905 384 256.916 384 243.79 C 383.898 230.563 373.215 219.676 354.595 219.676 Z  M 354.595 260.884 C 345.132 260.884 339.027 253.049 339.027 243.79 C 339.027 234.429 345.132 226.696 354.595 226.696 C 364.057 226.696 370.162 234.429 370.162 243.79 C 370.06 253.049 363.955 260.884 354.595 260.884 Z  M 130.137 220.591 L 182.13 220.591 L 182.13 231.987 C 178.467 228.833 170.633 227.612 162.289 227.612 L 162.289 258.645 C 162.289 263.224 162.696 264.547 164.426 266.887 L 147.841 266.887 C 149.672 264.547 149.978 263.224 149.978 258.645 L 149.978 227.612 C 141.634 227.612 133.8 228.833 130.137 231.987 C 130.137 231.987 130.137 220.591 130.137 220.591 Z  M 207.059 259.866 C 212.35 259.866 221.304 258.645 224.763 255.491 L 224.763 266.887 L 186.913 266.887 C 188.744 264.75 189.049 263.224 189.049 258.849 L 189.049 228.731 C 189.049 224.254 188.744 222.83 186.913 220.693 L 222.83 220.693 L 222.83 232.089 C 219.269 228.935 210.417 227.612 205.024 227.612 L 200.852 227.612 L 200.852 239.924 L 203.905 239.924 C 206.957 239.924 211.638 239.822 214.69 238.703 L 214.69 247.86 C 211.638 246.741 206.957 246.639 203.905 246.639 L 200.852 246.639 L 200.852 259.968 L 207.059 259.866 L 207.059 259.866 Z  M 256.712 238.397 C 265.768 239.618 273.196 242.874 273.196 252.642 C 273.196 264.242 262.308 267.905 250.506 267.803 C 242.264 267.701 235.243 266.989 230.156 264.852 L 230.156 254.576 C 237.482 259.358 245.011 260.884 250.506 260.884 C 256.203 260.884 261.494 259.459 261.494 255.084 C 261.494 250.709 256.61 249.692 246.639 248.165 C 237.99 246.843 230.156 243.18 230.156 234.633 C 230.054 223.135 240.941 219.676 251.32 219.676 C 258.035 219.676 264.547 220.49 270.55 222.423 L 270.55 233.615 C 265.564 229.138 258.137 226.696 250.811 226.696 C 245.825 226.696 241.145 228.324 241.145 231.987 C 241.145 236.566 248.064 237.278 256.712 238.397 L 256.712 238.397 Z  M 308.095 219.676 C 313.488 219.676 318.169 220.286 321.933 221.304 L 321.933 232.801 C 318.27 229.037 313.895 226.696 308.197 226.696 C 297.717 226.696 290.798 234.022 290.798 243.79 C 290.798 253.558 297.819 260.884 308.299 260.884 C 313.997 260.884 318.372 258.544 322.035 254.779 L 322.035 266.277 C 318.27 267.294 313.59 268.006 308.197 268.006 C 290.086 268.006 276.96 258.951 276.96 243.79 C 276.859 228.63 289.984 219.676 308.095 219.676 L 308.095 219.676 Z  M 383.39 279.504 L 352.051 279.504 C 346.963 279.504 342.893 282.658 340.96 284.998 C 340.96 284.998 336.076 290.086 332.82 291.917 L 332.719 292.019 L 332.617 292.121 L 332.719 292.324 L 362.633 292.324 C 368.432 292.324 371.18 290.086 374.843 286.626 C 374.843 286.626 379.727 281.539 383.39 279.911 L 383.491 279.911 L 383.593 279.809 L 383.593 279.504 L 383.39 279.504 L 383.39 279.504 L 383.39 279.504 Z  M 332.21 279.504 L 300.871 279.504 L 300.871 279.504 C 295.784 279.504 291.714 282.658 289.781 284.998 C 289.781 284.998 284.897 290.086 281.641 291.917 L 281.539 292.019 L 281.437 292.121 L 281.539 292.324 L 311.453 292.324 C 317.253 292.324 320 290.086 323.663 286.626 C 323.663 286.626 328.547 281.539 332.21 279.911 L 332.312 279.911 L 332.413 279.809 L 332.413 279.504 L 332.21 279.504 L 332.21 279.504 L 332.21 279.504 Z  M 249.692 279.504 L 249.692 279.504 L 249.692 279.504 L 249.692 279.504 Z  M 281.132 279.504 L 249.793 279.504 C 244.706 279.504 240.636 282.658 238.703 284.998 C 238.703 284.998 233.819 290.086 230.563 291.917 L 230.461 292.019 L 230.359 292.121 L 230.461 292.324 L 260.273 292.324 C 266.073 292.324 268.82 290.086 272.483 286.626 C 272.483 286.626 277.367 281.539 281.03 279.911 L 281.132 279.911 L 281.234 279.809 L 281.234 279.504 L 281.132 279.504 L 281.132 279.504 L 281.132 279.504 Z  M 229.952 279.504 L 198.614 279.504 C 193.526 279.504 189.456 282.658 187.523 284.998 C 187.523 284.998 182.639 290.086 179.383 291.917 L 179.281 292.019 L 179.18 292.121 L 179.281 292.324 L 209.196 292.324 C 214.995 292.324 217.742 290.086 221.405 286.626 C 221.405 286.626 226.289 281.539 229.952 279.911 L 230.054 279.911 L 230.156 279.809 L 230.156 279.504 L 229.952 279.504 L 229.952 279.504 L 229.952 279.504 Z  M 178.874 279.504 L 147.434 279.504 C 142.347 279.504 138.277 282.658 136.343 284.998 C 136.343 284.998 131.459 290.086 128.203 291.917 L 128.102 292.019 L 128 292.121 L 128.102 292.324 L 158.016 292.324 C 163.816 292.324 166.563 290.086 170.226 286.626 C 170.226 286.626 175.11 281.539 178.773 279.911 L 178.874 279.911 L 178.976 279.809 L 178.874 279.504 L 178.874 279.504 L 178.874 279.504 L 178.874 279.504 Z " fill-rule="evenodd" fill="rgb(255,255,255)"/></g></svg>