<?xml version="1.0" encoding="UTF-8" standalone="no"?>
<!-- Generator: Gravit.io --><svg xmlns="http://www.w3.org/2000/svg" xmlns:xlink="http://www.w3.org/1999/xlink"
  style="isolation:isolate" viewBox="0 0 512 512" width="512pt" height="512pt">
  <defs>
    <clipPath id="_clipPath_ncb0LYEnWM6RSzaUtGfKODACD3qOHpln">
      <rect width="512" height="512" />
    </clipPath>
  </defs>
  <g clip-path="url(#_clipPath_ncb0LYEnWM6RSzaUtGfKODACD3qOHpln)">
    <rect width="512" height="512" style="fill:rgb(239,191,4)" />
    <path
      d=" M 383.425 274.783 C 381.555 267.301 375.313 259.818 363.778 259.192 C 363.778 259.192 361.283 259.192 360.657 257.944 C 360.348 257.323 360.657 256.697 361.283 256.075 C 361.283 256.075 360.974 255.762 360.348 255.762 C 359.409 255.762 358.161 256.071 356.601 256.697 C 355.044 257.323 353.487 257.944 352.236 258.57 C 350.679 259.192 349.118 259.818 348.183 259.818 C 347.561 259.818 347.249 259.505 346.623 259.192 C 346.001 258.57 346.001 258.257 346.001 257.632 C 346.001 257.01 346.623 256.384 346.936 256.075 L 346.314 256.075 C 345.375 256.075 343.818 256.384 341.636 258.257 C 340.388 259.192 339.449 260.127 338.514 260.753 C 336.645 262.623 335.084 263.87 333.214 264.183 C 332.28 264.183 331.341 263.874 331.032 263.248 C 330.719 262.663 330.719 261.96 331.032 261.375 C 330.093 261.375 327.598 262.935 324.793 265.431 L 324.167 266.053 C 320.428 269.8 313.877 276.035 309.512 276.035 L 309.202 276.035 C 307.329 276.035 305.768 275.1 304.834 273.852 C 303.899 272.604 303.899 270.731 304.834 268.861 C 306.081 266.679 313.877 257.01 316.685 249.523 C 317.307 249.523 319.802 250.458 321.985 249.836 C 325.732 249.214 326.041 247.967 329.784 244.845 C 332.276 242.663 334.149 241.728 337.58 242.976 C 342.258 244.845 343.818 244.536 345.375 243.285 L 345.688 242.976 L 345.379 242.976 C 344.44 242.976 343.505 242.667 340.075 240.793 C 339.14 240.167 337.892 239.232 336.954 239.232 C 338.827 238.611 344.44 230.189 346.936 230.189 L 347.245 230.189 L 347.245 229.88 C 346.936 228.942 346.001 228.629 345.066 228.629 C 343.192 228.32 341.01 230.502 339.14 232.059 C 338.514 232.685 337.58 233.62 336.645 233.932 C 337.267 232.685 337.267 230.811 337.58 229.254 C 338.205 226.133 338.827 223.638 339.762 223.329 L 339.762 223.016 C 339.762 223.016 339.762 222.707 339.453 222.707 C 336.645 222.39 335.397 224.576 334.462 227.69 C 333.836 229.254 333.524 231.124 332.902 232.059 C 332.902 231.437 332.593 229.254 331.967 227.068 C 331.341 225.198 330.719 223.638 331.032 222.394 L 331.032 222.081 L 330.719 222.081 C 328.536 223.016 328.536 224.886 328.849 227.381 C 328.849 228.942 329.467 232.059 329.158 232.372 C 328.849 231.746 327.911 230.811 326.663 229.564 C 325.728 228.629 325.106 227.694 325.106 226.759 L 325.106 226.446 L 324.793 226.446 C 322.924 227.694 323.858 230.189 325.728 232.059 C 326.663 233.307 327.602 235.489 327.602 236.424 C 327.602 237.05 327.289 237.672 326.663 237.985 C 325.106 239.232 320.737 238.294 319.18 237.985 C 319.489 236.115 319.489 234.242 319.18 232.372 C 318.555 223.016 313.877 215.842 304.834 211.786 C 299.843 209.604 294.543 208.356 288.926 208.356 C 275.518 208.356 264.288 214.908 258.366 219.273 C 257.74 219.898 257.115 220.52 256.18 220.52 C 255.871 220.52 255.558 220.211 255.245 219.898 C 254.936 219.586 254.936 218.96 254.936 218.025 C 254.623 218.025 253.375 218.334 251.815 220.52 C 251.193 221.455 250.254 222.703 249.632 223.951 C 248.072 226.759 246.824 228.942 244.954 230.502 C 243.706 231.437 243.081 231.746 242.146 231.746 C 241.837 231.746 241.524 231.746 241.211 231.437 C 240.902 231.124 240.902 230.811 241.211 230.189 C 240.589 230.498 238.716 232.059 237.468 235.802 C 235.911 240.48 234.663 242.663 232.794 242.976 C 231.909 243.263 230.939 243.02 230.294 242.35 C 229.985 242.041 229.985 241.415 229.985 241.106 C 229.36 241.415 228.112 242.35 226.864 245.158 C 226.555 246.093 226.242 247.032 225.929 248.276 C 224.994 251.397 224.06 254.827 222.186 255.14 C 221.251 255.449 220.629 254.827 220.316 254.201 L 220.316 254.827 C 220.007 254.827 218.134 255.136 215.638 260.44 C 213.143 265.74 206.908 277.282 195.366 281.338 C 190.375 283.208 185.697 281.338 184.14 278.53 C 182.266 275.409 181.954 270.109 183.827 266.679 C 185.697 263.248 187.57 261.375 189.127 261.375 C 190.066 261.375 190.688 262.31 191.001 263.557 C 192.248 262.935 195.991 260.753 197.861 252.954 C 199.109 248.279 201.291 247.032 202.226 247.967 C 202.539 248.276 202.852 249.214 202.852 250.149 C 203.474 250.149 204.722 249.523 206.282 243.289 C 206.904 239.858 208.152 236.115 209.713 236.115 C 210.335 236.115 211.269 237.05 211.582 238.611 C 212.208 237.672 214.704 234.863 213.765 229.254 C 213.456 227.381 213.143 226.133 213.456 225.507 C 213.765 224.576 214.704 224.264 215.325 224.264 C 216.26 224.573 217.195 225.511 217.821 226.446 C 217.821 225.82 218.443 223.016 215.638 218.651 L 217.508 218.651 C 222.812 218.338 230.294 218.025 236.22 216.464 C 242.772 214.908 243.394 209.295 243.394 208.982 C 243.085 208.356 241.833 211.477 234.038 212.412 C 226.242 213.347 221.251 212.103 221.251 212.103 C 228.738 209.917 228.425 206.173 228.112 206.173 C 228.112 206.173 224.682 208.047 217.195 209.295 C 214.704 209.604 211.269 208.669 209.713 208.047 C 215.013 207.421 221.564 206.173 227.49 203.991 C 233.725 201.808 234.038 196.196 233.725 195.883 C 233.416 195.261 232.481 198.691 224.994 200.248 C 217.508 202.121 212.208 201.183 212.208 201.183 C 219.382 198.065 218.756 194.635 218.134 194.635 C 218.134 194.635 215.013 197.13 207.839 198.691 C 202.226 199.939 193.183 198.065 190.997 197.443 C 179.771 194.322 178.21 191.827 175.719 190.892 C 173.223 189.957 169.48 189.022 164.802 191.827 C 160.128 194.635 151.394 194.322 150.146 190.27 C 150.146 190.27 149.833 187.774 147.96 187.461 C 146.09 187.152 145.468 187.461 145.468 188.087 C 145.468 188.709 146.09 190.27 146.712 190.892 C 146.712 190.892 144.529 190.892 142.973 188.087 C 141.412 185.279 138.917 187.149 138.917 189.335 C 138.917 189.335 136.421 189.957 135.799 191.827 C 135.799 191.827 137.669 191.205 138.604 191.827 C 138.604 191.827 139.23 194.322 141.725 195.883 C 141.725 195.883 141.412 199.313 142.66 200.248 C 142.66 200.248 144.529 197.752 146.09 198.378 C 146.09 198.378 152.016 202.121 158.254 202.743 C 164.802 203.369 169.167 201.808 171.041 205.552 C 172.91 209.295 169.48 213.034 166.05 211.477 C 162.62 209.917 157.629 205.239 152.329 207.112 C 147.025 208.982 145.155 206.173 143.908 204.304 C 142.66 202.43 142.347 205.861 142.347 207.108 C 142.347 207.108 139.542 207.734 137.982 204.617 C 137.982 204.617 137.047 203.678 137.047 205.239 C 137.047 206.799 137.669 212.099 143.282 214.282 C 143.282 214.282 147.96 216.464 147.647 218.96 C 147.647 218.96 149.208 217.403 147.647 214.286 C 147.647 214.286 155.45 214.595 160.433 218.338 C 165.428 222.081 169.167 226.759 173.845 226.759 C 173.845 226.759 172.289 225.511 172.91 224.886 C 173.536 224.264 174.471 223.638 177.276 225.511 C 179.771 227.068 181.023 227.068 181.332 226.759 C 181.332 226.759 180.084 224.576 181.641 224.264 C 183.201 223.955 184.762 225.824 185.075 228.629 C 185.384 231.746 184.766 237.05 176.963 244.536 C 176.032 245.471 174.784 246.406 173.536 247.654 C 164.806 255.449 152.951 266.053 152.329 279.465 L 152.016 279.465 C 151.39 279.465 150.768 279.156 150.146 278.839 C 147.338 277.591 146.716 274.783 146.399 272.913 C 146.09 271.044 147.338 268.857 147.96 267.301 C 148.898 265.118 149.208 262.935 147.651 262.001 C 147.651 262.001 147.338 261.688 147.338 262.31 C 147.338 263.248 147.029 263.87 145.468 266.366 C 144.842 267.613 143.908 268.548 143.595 269.483 C 143.286 269.483 142.66 267.301 142.347 266.053 C 142.038 263.557 141.099 260.753 138.604 260.127 C 137.36 259.818 137.047 260.44 137.047 260.44 C 137.982 261.066 138.604 262.623 138.917 264.496 C 139.226 266.679 139.226 268.235 139.542 269.796 C 138.295 269.796 134.552 265.122 132.369 264.496 C 131.434 264.183 130.186 264.183 128.939 265.431 C 129.248 264.805 129.874 264.805 130.495 265.122 C 131.743 265.431 133.304 267.926 134.861 269.174 C 136.421 271.044 137.669 271.979 138.608 272.291 C 138.295 272.6 136.734 272.6 133.304 272.291 C 131.121 271.982 128.939 272.6 128 275.409 L 128 275.722 L 128.313 275.722 C 129.248 275.413 130.186 275.1 131.121 275.1 C 133.304 275.1 137.982 276.348 138.917 276.348 C 138.295 279.778 136.112 282.895 134.552 283.208 L 134.552 283.517 C 134.861 283.517 135.486 284.143 136.734 284.143 C 137.043 284.143 137.669 283.834 138.295 283.834 C 139.851 283.208 140.79 281.026 141.725 280.4 C 142.347 279.778 142.973 280.4 143.282 281.647 C 144.529 284.765 147.647 291.938 152.951 291.938 L 154.511 291.938 C 154.82 291.938 155.133 291.938 155.446 291.629 C 157.007 294.434 164.489 306.911 183.827 307.22 C 192.557 307.533 201.291 304.725 209.709 298.799 C 210.96 297.864 211.895 297.242 211.895 297.242 C 214.078 297.864 215.638 299.738 215.951 301.607 C 216.573 303.477 216.26 305.663 214.704 307.533 C 213.143 309.403 211.269 309.094 209.087 308.781 C 206.591 308.781 203.787 308.781 202.852 312.524 C 202.852 312.833 203.161 312.833 203.161 312.833 C 204.722 311.589 206.908 311.898 209.087 312.211 C 210.026 312.211 212.208 312.52 212.208 312.52 C 211.895 314.081 211.895 315.954 211.895 317.824 C 211.895 320.319 211.895 323.128 210.647 324.684 C 210.647 324.684 210.338 324.997 210.647 324.997 L 211.269 325.306 C 214.391 325.306 215.016 322.815 215.325 320.323 C 215.635 319.072 215.635 316.889 216.26 315.954 C 217.195 317.824 219.382 320.319 220.625 321.567 C 221.564 322.502 222.186 323.437 222.499 324.375 C 222.499 324.375 222.499 324.684 222.808 324.684 L 223.125 324.375 C 224.682 322.502 223.434 320.01 222.186 318.45 C 221.564 317.515 220.629 315.641 220.316 314.394 C 221.564 315.641 224.682 316.889 225.616 317.202 C 226.242 317.511 228.112 318.137 229.047 319.072 C 229.047 319.072 229.36 319.072 229.36 318.763 C 229.669 315.954 227.799 315.015 225.929 314.081 C 224.369 313.459 222.812 312.524 222.186 310.963 L 222.499 310.963 C 223.434 310.963 224.682 310.654 226.242 310.028 C 227.803 309.403 229.985 308.781 230.607 309.094 C 230.916 309.094 230.916 308.781 230.916 308.781 C 230.607 306.598 227.49 306.907 224.994 307.22 C 223.434 307.22 222.186 307.846 221.877 307.22 C 221.564 306.911 221.877 305.972 222.186 305.35 C 223.121 303.477 224.06 300.36 223.747 297.238 C 223.747 295.994 223.121 294.434 222.812 293.186 C 222.186 291.316 221.251 290.382 221.877 289.13 C 226.551 285.391 233.416 276.969 238.094 272.604 C 242.459 268.239 259.923 248.901 270.84 240.793 C 276.453 236.737 281.443 234.554 286.743 234.554 C 290.49 234.554 295.165 235.802 296.412 240.793 C 297.038 243.598 296.721 249.836 287.991 261.375 C 284.248 266.366 271.775 270.105 269.592 270.105 C 267.097 270.105 266.162 268.235 264.601 266.366 C 263.04 264.183 261.793 262.935 259.927 263.87 C 259.61 264.179 259.61 264.179 259.927 264.179 C 260.545 264.496 260.858 264.805 262.106 266.988 C 263.04 268.235 263.979 270.735 264.914 271.353 C 264.288 271.666 262.106 270.735 260.236 269.796 C 258.366 268.861 256.806 268.548 255.558 269.174 C 254.932 269.483 253.997 270.109 253.375 271.357 C 253.375 271.666 253.375 271.666 253.684 271.666 C 253.997 271.357 255.558 271.357 256.806 272.291 C 259.923 273.852 262.106 274.787 263.353 275.1 C 264.288 275.409 261.171 276.348 259.923 276.348 C 256.18 276.969 252.75 278.53 253.375 281.96 C 253.375 281.96 253.375 282.269 253.684 282.269 L 253.997 282.269 C 254.932 280.713 257.428 280.087 259.923 280.087 C 261.793 280.087 263.979 279.778 264.601 278.839 C 264.91 279.778 263.353 286.013 262.106 287.26 L 261.797 287.569 L 262.419 287.886 C 263.04 287.886 263.666 287.886 264.288 287.573 C 266.784 286.325 268.653 279.152 268.653 279.152 C 269.279 280.4 269.905 281.647 270.84 282.895 C 271.775 284.143 273.022 286.013 273.022 286.638 L 273.022 286.947 L 273.331 286.947 C 273.957 286.638 274.583 286.013 274.583 285.391 C 275.205 283.83 273.644 281.96 273.022 280.087 C 272.713 279.152 272.713 278.217 273.331 277.282 C 274.583 275.409 278.326 276.035 280.196 276.657 C 279.261 280.087 279.887 287.573 285.187 292.251 C 289.552 296.307 294.852 297.242 298.908 297.242 C 304.208 297.242 311.072 295.369 317.933 291.938 C 326.976 286.947 341.636 278.53 351.618 274.787 C 353.424 274.174 355.319 273.859 357.226 273.852 C 362.217 273.852 365.648 276.348 366.583 280.4 C 369.078 290.069 361.595 295.369 353.796 298.799 C 347.87 301.294 344.127 299.738 341.319 299.112 C 338.827 298.49 336.019 297.864 333.214 297.864 C 330.406 297.864 327.289 298.173 324.484 298.799 C 312.007 301.92 306.703 307.22 300.468 307.22 C 297.66 307.22 296.721 306.911 296.721 306.911 C 296.412 306.911 296.721 307.22 296.721 307.22 C 298.286 309.094 301.716 310.341 305.455 310.65 L 306.703 310.65 C 309.199 310.65 307.638 313.146 304.834 314.081 C 300.777 315.328 297.038 315.328 296.103 315.019 C 296.412 315.328 304.834 319.075 312.316 316.889 C 315.437 315.954 315.124 317.824 314.19 318.759 C 312.942 320.632 310.446 322.506 307.329 322.506 C 307.016 322.506 307.016 322.506 307.329 322.506 C 308.577 323.124 314.19 324.684 319.18 321.88 C 321.676 320.632 322.298 319.697 323.855 317.824 C 325.106 316.576 326.663 317.202 326.663 319.072 C 326.663 320.945 325.728 323.437 322.924 324.997 C 322.611 325.306 322.298 325.306 322.924 325.306 C 326.041 325.623 332.28 322.815 335.71 317.511 C 339.14 311.898 342.258 318.759 338.827 321.876 C 338.518 322.193 338.205 322.193 338.827 322.193 C 341.636 321.567 346.314 320.006 349.118 311.898 C 349.744 310.341 351.301 308.468 353.483 308.155 C 365.961 305.038 378.438 298.49 381.864 287.573 C 384.36 283.208 384.36 278.217 383.425 274.787 L 383.425 274.783 Z  M 173.845 196.199 C 173.223 196.508 166.672 196.821 167.611 195.886 C 167.611 195.886 168.545 193.391 171.041 194.017 C 173.223 194.952 174.471 195.886 173.845 196.199 Z "
      fill="rgb(237,29,36)" />
  </g>
</svg>
