<?xml version="1.0" encoding="UTF-8" standalone="no"?><!-- Generator: Gravit.io --><svg xmlns="http://www.w3.org/2000/svg" xmlns:xlink="http://www.w3.org/1999/xlink" style="isolation:isolate" viewBox="0 0 512 512" width="512pt" height="512pt"><defs><clipPath id="_clipPath_qkKKtIOyTvqnsgf6Tb3AYYsCoMeMoiEX"><rect width="512" height="512"/></clipPath></defs><g clip-path="url(#_clipPath_qkKKtIOyTvqnsgf6Tb3AYYsCoMeMoiEX)"><rect x="0" y="0" width="512" height="512" transform="matrix(1,0,0,1,0,0)" fill="rgb(0,0,128)"/><path d=" M 256.015 344.832 C 220.143 344.845 187.795 323.232 174.059 290.073 C 160.322 256.915 167.902 218.741 193.263 193.356 C 218.625 167.97 256.773 160.372 289.916 174.106 C 323.059 187.839 344.67 220.198 344.67 256.093 C 344.619 305.069 304.962 344.764 256.015 344.832 M 384 255.659 L 354.82 229.217 L 366.578 191.752 L 328.115 183.392 L 319.636 144.968 L 282.194 157.012 L 255.644 128 L 229.218 157.167 L 191.714 145.308 L 183.421 183.733 L 145.019 192.248 L 156.995 229.775 L 128 256.341 L 157.118 282.752 L 145.298 320.279 L 183.73 328.577 L 192.24 367.001 L 229.682 354.988 L 256.263 384 L 282.658 354.833 L 320.162 366.692 L 328.455 328.236 L 366.857 319.69 L 355.036 282.225 L 384 255.659 Z  M 200.038 200.05 C 230.927 169.147 281.003 169.15 311.889 200.056 C 342.775 230.962 342.775 281.069 311.889 311.975 C 281.003 342.881 230.927 342.884 200.038 311.981 C 169.196 281.052 169.196 230.979 200.038 200.05 Z " fill-rule="evenodd" fill="rgb(255,255,255)"/></g></svg>