<?xml version="1.0" encoding="UTF-8" standalone="no"?><!-- Generator: Gravit.io --><svg xmlns="http://www.w3.org/2000/svg" xmlns:xlink="http://www.w3.org/1999/xlink" style="isolation:isolate" viewBox="0 0 512 512" width="512pt" height="512pt"><defs><clipPath id="_clipPath_oKO84LX9YlAG8bnTv5mbKp5FfEO4V4Fx"><rect width="512" height="512"/></clipPath></defs><g clip-path="url(#_clipPath_oKO84LX9YlAG8bnTv5mbKp5FfEO4V4Fx)"><path d="M 477.714 383.995 L 256.005 512 L 34.286 383.995 L 34.286 127.985 L 256.005 0 L 477.714 127.985 L 477.714 383.995 Z" fill-rule="evenodd" fill="rgb(27,27,29)" /><path d=" M 267.8 189.45 C 266.8 189.25 261.8 188.45 255.9 188.45 C 250 188.45 245 189.25 244 189.45 C 243.4 189.55 243.2 188.95 243.6 188.65 C 244 188.35 255.9 179.25 255.9 179.25 C 255.9 179.25 267.8 188.35 268.2 188.65 C 268.6 188.95 268.4 189.55 267.8 189.45 Z  M 247.2 248.25 C 247.2 248.25 246.6 248.45 246.4 249.05 C 248.9 250.95 250.6 255.35 255.8 255.35 C 261 255.35 262.7 250.95 265.2 249.05 C 265 248.45 264.4 248.25 264.4 248.25 C 264.4 248.25 261.1 249.05 255.8 249.05 C 250.5 249.05 247.2 248.25 247.2 248.25 Z  M 255.8 240.95 C 254.4 240.95 254 240.45 253.1 240.45 C 252.2 240.45 250.3 241.25 249.9 241.85 C 249.9 242.15 250.1 242.45 250.3 242.75 C 252.4 243.05 253.4 244.25 255.8 244.25 C 258.2 244.25 259.2 243.05 261.3 242.75 C 261.6 242.45 261.7 242.15 261.7 241.85 C 261.3 241.15 259.5 240.45 258.5 240.45 C 257.6 240.35 257.3 240.95 255.8 240.95 Z  M 374.4 263.35 C 374.2 266.15 374 269.05 373.7 271.75 C 360.3 273.95 355.5 262.05 341.7 262.55 C 342.5 265.45 343.2 268.45 343.7 271.45 C 355.1 271.45 359.6 282.05 372.3 280.45 C 371.6 283.65 370.8 286.85 369.9 290.05 C 359.9 291.05 356.4 281.15 344.8 281.35 C 344.9 283.05 344.9 284.65 344.9 286.35 C 344.9 287.25 344.9 288.25 344.8 289.15 C 354.7 289.05 357.9 298.15 367.3 297.75 C 366.1 300.95 364.8 304.05 363.4 307.15 C 356.6 306.75 354.3 298.15 344.1 298.85 C 343.8 301.05 343.4 303.25 342.9 305.45 C 351.8 304.85 353.7 313.05 360.1 313.65 C 358.5 316.65 356.7 319.55 354.9 322.35 C 351.1 320.35 347.8 314.25 340.7 313.85 C 341.4 311.55 342.1 309.25 342.6 306.95 C 336.2 306.95 329 304.45 322.9 298.95 C 324.9 287.65 307.4 276.25 307.4 267.95 C 307.4 259.05 311.9 254.05 311.9 241.95 C 311.9 232.95 307.5 223.25 301 216.65 C 299.7 215.35 298.4 214.35 296.9 213.35 C 302.9 220.85 307.6 229.65 307.6 239.95 C 307.6 251.35 302.3 257.35 302.3 267.85 C 302.3 278.35 317.7 287.45 317.7 298.25 C 317.7 302.55 316.3 306.65 311.9 314.85 C 318.8 321.75 327.8 325.45 333.6 325.45 C 335.5 325.45 336.5 324.85 337.2 323.45 C 337.8 322.15 338.3 320.85 338.8 319.55 C 345 319.75 347.9 325.45 351.3 327.75 C 349.4 330.25 347.4 332.75 345.3 335.15 C 343 332.55 339.9 328.25 335.3 327.05 C 334.5 328.65 333.6 330.15 332.7 331.75 C 336.6 332.85 339.3 336.75 341.4 339.35 C 339.2 341.65 336.8 343.85 334.4 346.05 C 332.9 343.75 330.5 340.75 327.9 339.05 C 326.9 340.35 325.9 341.65 324.9 342.95 C 327.2 344.45 329.1 347.25 330.4 349.45 C 327.6 351.75 324.7 353.85 321.7 355.85 C 320.2 343.75 303.8 335.55 308.2 321.55 C 306.7 324.05 305 327.15 305 330.85 C 305 340.95 315.8 349.05 316.6 359.05 C 314.4 360.35 312.1 361.65 309.7 362.85 C 309.3 351.75 297.9 339.65 297.9 330.65 C 297.9 320.55 311.2 310.35 311.2 298.35 C 311.2 286.35 295.9 278.05 295.9 267.55 C 295.9 257.05 302.4 251.05 302.4 237.55 C 302.4 227.65 297.7 217.75 290.5 211.35 C 289.2 210.25 288 209.35 286.4 208.55 C 293.2 216.75 297.2 224.15 297.2 235.45 C 297.2 248.15 289.7 255.15 289.7 267.55 C 289.7 279.95 304.7 286.85 304.7 298.35 C 304.7 309.85 290.7 319.65 290.7 331.55 C 290.7 342.35 303 353.15 303.2 365.95 C 300.5 367.15 297.8 368.25 295 369.15 C 296.6 356.25 282.7 342.85 282.7 332.25 C 282.7 320.75 297.2 310.75 297.2 298.35 C 297.2 285.95 282.5 280.15 282.5 267.35 C 282.5 254.55 291.6 247.45 291.6 233.35 C 291.6 222.35 286.2 212.45 278.2 206.35 C 278 206.25 277.9 206.05 277.7 205.95 C 277 205.35 276.3 206.05 276.9 206.75 C 282.5 213.75 285.5 220.85 285.5 231.35 C 285.5 244.25 275.1 254.75 275.1 267.25 C 275.1 282.05 289.1 286.25 289.1 298.35 C 289.1 310.45 274.1 320.15 274.1 333.05 C 274.1 344.95 288.3 358.25 285.8 371.95 C 283 372.65 280.1 373.35 277.2 373.85 C 279.9 356.75 266 344.35 266 333.15 C 266 321.05 281.5 310.15 281.5 298.35 C 281.5 287.15 270.4 283.55 268.9 272.05 C 268.7 270.45 267.4 269.35 265.7 269.65 C 263.4 270.05 260.5 271.55 256 271.55 C 251.4 271.55 248.6 270.05 246.3 269.65 C 244.6 269.35 243.3 270.55 243.1 272.05 C 241.6 283.55 230.5 287.15 230.5 298.35 C 230.5 310.25 246 321.05 246 333.15 C 246 344.35 232.1 356.65 234.8 373.85 C 231.9 373.35 229 372.65 226.2 371.95 C 223.8 358.15 237.9 344.95 237.9 333.05 C 237.9 320.15 222.9 310.45 222.9 298.35 C 222.9 286.25 236.9 282.05 236.9 267.25 C 236.9 254.75 226.5 244.25 226.5 231.35 C 226.5 220.85 229.5 213.75 235.1 206.75 C 235.6 206.05 235 205.45 234.3 205.95 C 234.1 206.05 234 206.25 233.8 206.35 C 225.9 212.45 220.4 222.35 220.4 233.35 C 220.4 247.45 229.5 254.55 229.5 267.35 C 229.5 280.15 214.8 285.95 214.8 298.35 C 214.8 310.75 229.3 320.75 229.3 332.25 C 229.3 342.85 215.4 356.15 217 369.15 C 214.2 368.15 211.5 367.15 208.8 365.95 C 209 353.15 221.3 342.35 221.3 331.55 C 221.3 319.65 207.3 309.95 207.3 298.35 C 207.3 286.75 222.3 279.95 222.3 267.55 C 222.3 255.15 214.8 248.15 214.8 235.45 C 214.8 224.15 218.8 216.75 225.6 208.55 C 224.1 209.35 222.8 210.25 221.5 211.35 C 214.3 217.75 209.6 227.75 209.6 237.55 C 209.6 251.05 216.1 257.05 216.1 267.55 C 216.1 278.05 200.8 286.35 200.8 298.35 C 200.8 310.35 214.1 320.45 214.1 330.65 C 214.1 339.75 202.7 351.85 202.3 362.85 C 200 361.65 197.7 360.45 195.4 359.05 C 196.3 348.95 207.1 340.95 207.1 330.85 C 207.1 327.15 205.4 324.05 203.9 321.55 C 208.3 335.55 191.9 343.85 190.4 355.85 C 187.4 353.85 184.5 351.75 181.7 349.45 C 183 347.25 185 344.45 187.2 342.95 C 186.2 341.65 185.1 340.45 184.2 339.05 C 181.5 340.65 179.2 343.65 177.7 346.05 C 175.3 343.95 172.9 341.65 170.7 339.35 C 172.8 336.75 175.5 332.75 179.4 331.75 C 178.5 330.25 177.6 328.65 176.8 327.05 C 172.2 328.25 169.1 332.55 166.8 335.15 C 164.7 332.75 162.7 330.35 160.8 327.75 C 164.3 325.45 167.1 319.85 173.4 319.55 C 173.9 320.85 174.5 322.15 175 323.45 C 175.7 324.95 176.7 325.45 178.6 325.45 C 184.4 325.45 193.4 321.65 200.3 314.85 C 195.8 306.65 194.5 302.55 194.5 298.25 C 194.5 287.45 209.9 278.35 209.9 267.85 C 209.9 257.35 204.6 251.35 204.6 239.95 C 204.6 229.65 209.2 220.85 215.3 213.35 C 213.8 214.25 212.5 215.35 211.2 216.65 C 204.6 223.25 200.3 233.05 200.3 241.95 C 200.3 254.05 204.8 258.95 204.8 267.95 C 204.8 276.25 187.3 287.65 189.3 298.95 C 183.2 304.55 175.9 306.95 169.5 306.95 C 170.1 309.25 170.7 311.55 171.4 313.85 C 164.2 314.25 160.9 320.35 157.2 322.35 C 155.3 319.55 153.6 316.65 152 313.65 C 158.4 312.95 160.3 304.75 169.2 305.45 C 168.7 303.25 168.3 301.05 168 298.85 C 157.7 298.15 155.4 306.85 148.7 307.15 C 147.3 304.05 146 300.95 144.8 297.75 C 154.2 298.15 157.4 289.05 167.2 289.15 C 167.2 288.25 167.2 287.35 167.2 286.35 C 167.2 284.65 167.3 283.05 167.3 281.35 C 155.7 281.05 152.2 291.05 142.2 290.05 C 141.3 286.95 140.5 283.75 139.8 280.45 C 152.4 282.05 157 271.35 168.4 271.45 C 168.9 268.45 169.6 265.45 170.4 262.55 C 156.6 261.95 151.8 273.95 138.4 271.75 C 138 268.95 137.8 266.15 137.6 263.35 C 153.2 265.05 159.1 252.25 173.3 253.85 C 174.6 250.45 176.2 247.15 178 243.95 C 160.2 240.85 154.1 255.75 137.5 253.45 C 138.9 189.45 191.4 138.15 255.8 138.15 C 320.3 138.15 372.7 189.45 374.5 253.55 C 357.9 255.85 351.8 240.95 334 244.05 C 335.8 247.25 337.3 250.55 338.7 253.95 C 352.9 252.25 358.7 265.15 374.4 263.35 Z  M 204.8 213.55 C 196.1 209.95 185.5 210.85 176.4 216.65 C 175 208.25 170.4 200.75 163.9 196.25 C 163 195.65 162.1 196.25 162.1 197.25 C 163.5 215.05 153.1 230.45 140.3 244.05 C 153.5 248.05 164.7 231.05 181.7 236.95 C 188 227.85 195.8 219.85 204.8 213.55 Z  M 255.8 202.85 C 244.8 202.85 235.5 209.05 233.1 217.15 C 232.9 217.75 233.2 218.15 233.9 217.85 C 235.9 216.95 238.1 216.55 240.6 216.55 C 245.1 216.55 249.1 218.25 251.4 221.05 C 252.4 224.45 252.5 229.45 251.3 232.25 C 249.5 231.85 248.8 230.45 247 230.45 C 245.2 230.45 243.8 231.75 240.7 231.75 C 237.6 231.75 237.3 230.25 235.3 230.25 C 232.9 230.25 232.5 232.65 232.5 235.45 C 232.5 247.75 243.8 264.65 255.8 264.65 C 267.8 264.65 279.1 247.75 279.1 235.45 C 279.1 232.65 278.5 230.35 276.1 230.05 C 274.9 230.95 273.7 231.75 270.9 231.75 C 267.8 231.75 267 230.45 265.2 230.45 C 263 230.45 263.2 235.05 260.6 235.35 C 258.9 231.25 258.8 225.85 260.2 221.15 C 262.5 218.25 266.5 216.65 271 216.65 C 273.4 216.65 275.7 217.05 277.7 217.95 C 278.4 218.25 278.7 217.85 278.5 217.25 C 276.1 209.05 266.8 202.85 255.8 202.85 Z  M 273.4 220.45 C 270.7 220.45 267.7 221.25 265.7 223.45 C 265.5 224.05 265.5 224.95 265.8 225.45 C 270.6 223.85 274.8 223.75 276.9 226.05 C 278 225.05 278.3 224.15 278.3 223.15 C 278.3 221.55 276.6 220.45 273.4 220.45 Z  M 234.8 226.05 C 237.1 223.75 242 223.85 247 225.65 C 247.2 223.15 242.7 220.35 238.2 220.35 C 234.9 220.35 233.3 221.45 233.3 223.05 C 233.4 224.15 233.7 225.05 234.8 226.05 Z  M 310.8 184.45 C 302.1 185.05 294.5 188.05 288.4 193.05 C 291 185.65 294.3 179.25 298.5 173.05 C 287.4 174.25 278.2 178.25 271.4 185.25 L 266.1 171.35 L 277.8 160.95 L 262.1 159.85 L 255.8 145.25 L 249.5 159.85 L 233.8 160.95 L 245.5 171.35 L 240.2 185.25 C 233.4 178.35 224.2 174.25 213.1 173.05 C 217.3 179.25 220.6 185.75 223.2 193.05 C 217.1 188.05 209.5 185.05 200.8 184.45 C 206 191.15 210.6 198.35 214.1 206.05 C 214.5 206.95 215.3 207.25 216.2 206.75 C 228.1 200.85 241.5 197.45 255.8 197.45 C 270 197.45 283.4 200.75 295.4 206.75 C 296.3 207.25 297.1 206.95 297.5 206.05 C 300.9 198.35 305.6 191.15 310.8 184.45 Z  M 329.8 236.95 C 346.9 231.05 358.1 247.95 371.3 244.05 C 358.5 230.45 348.1 215.05 349.5 197.25 C 349.6 196.25 348.6 195.65 347.8 196.25 C 341.3 200.75 336.7 208.25 335.3 216.65 C 326.3 210.85 315.7 210.05 306.9 213.55 C 315.9 219.85 323.6 227.85 329.8 236.95 Z " fill="rgb(237,29,36)"/></g></svg>