<?xml version="1.0" encoding="UTF-8" standalone="no"?><!-- Generator: Gravit.io --><svg xmlns="http://www.w3.org/2000/svg" xmlns:xlink="http://www.w3.org/1999/xlink" style="isolation:isolate" viewBox="0 0 1451.339 1451.339" width="1451.339pt" height="1451.339pt"><defs><clipPath id="_clipPath_Ghpf0bow6oUbZMdlAr9YqUHBRpkX9n0C"><rect width="1451.339" height="1451.339"/></clipPath></defs><g clip-path="url(#_clipPath_Ghpf0bow6oUbZMdlAr9YqUHBRpkX9n0C)"><rect x="0" y="0" width="1451.339" height="1451.339" transform="matrix(1,0,0,1,0,0)" fill="rgb(237,29,36)"/><path d=" M 1066.196 898.805 C 1063.219 888.954 1048.974 882.009 1048.974 882.009 L 1048.974 882.009 C 1047.628 881.3 1046.423 880.663 1045.431 880.167 C 1021.689 868.686 1000.641 854.866 982.923 839.203 C 968.678 826.589 956.489 812.698 946.709 797.957 C 934.731 779.956 929.133 764.931 926.723 756.781 C 925.377 751.466 925.589 749.34 926.723 746.576 C 927.644 744.237 930.408 742.04 931.684 740.977 C 939.692 735.308 952.591 726.945 960.528 721.842 C 967.403 717.377 973.285 713.55 976.758 711.141 C 987.884 703.345 995.538 695.408 1000.003 686.832 C 1005.814 675.777 1006.523 663.587 1001.987 651.61 C 995.893 635.451 980.797 625.813 961.591 625.813 C 957.339 625.813 952.945 626.309 948.551 627.23 C 937.566 629.64 927.148 633.538 918.431 636.94 C 917.793 637.223 917.085 636.727 917.156 636.018 C 918.077 614.403 919.14 585.346 916.73 557.778 C 914.604 532.831 909.431 511.783 901.068 493.427 C 892.635 475.001 881.65 461.394 873.074 451.543 C 864.924 442.188 850.538 428.368 828.851 415.966 C 798.377 398.532 763.651 389.673 725.664 389.673 C 687.749 389.673 653.093 398.532 622.548 415.966 C 599.586 429.077 584.916 443.889 578.254 451.543 C 569.679 461.394 558.694 475.001 550.26 493.427 C 541.827 511.783 536.724 532.76 534.598 557.778 C 532.188 585.488 533.18 612.206 534.173 636.018 C 534.173 636.727 533.535 637.223 532.826 636.94 C 524.109 633.538 513.691 629.64 502.706 627.23 C 498.383 626.309 493.989 625.813 489.666 625.813 C 470.531 625.813 455.436 635.451 449.27 651.61 C 444.734 663.587 445.443 675.777 451.254 686.832 C 455.79 695.408 463.373 703.345 474.5 711.141 C 477.902 713.55 483.855 717.377 490.729 721.842 C 498.454 726.874 510.998 735.024 519.077 740.623 C 520.069 741.332 523.471 743.883 524.534 746.576 C 525.668 749.411 525.881 751.537 524.393 757.207 C 521.912 765.428 516.313 780.31 504.549 797.957 C 494.769 812.769 482.579 826.589 468.334 839.203 C 450.617 854.866 429.568 868.686 405.827 880.167 C 404.693 880.733 403.346 881.371 401.929 882.222 L 401.929 882.222 C 401.929 882.222 387.755 889.451 385.062 898.805 C 381.093 912.625 391.652 925.594 402.354 932.54 C 419.93 943.879 441.333 949.974 453.735 953.305 C 457.207 954.226 460.326 955.076 463.161 955.927 C 464.932 956.494 469.397 958.195 471.311 960.675 C 473.72 963.793 474.004 967.62 474.854 971.944 L 474.854 971.944 C 476.201 979.243 479.248 988.244 488.249 994.48 C 498.171 1001.284 510.715 1001.78 526.66 1002.418 C 543.315 1003.056 564.009 1003.835 587.751 1011.702 C 598.735 1015.316 608.728 1021.482 620.209 1028.569 C 644.305 1043.381 674.283 1061.807 725.452 1061.807 C 776.691 1061.807 806.881 1043.31 831.119 1028.427 C 842.6 1021.411 852.451 1015.316 863.223 1011.773 C 886.965 1003.906 907.659 1003.126 924.314 1002.489 C 940.259 1001.851 952.803 1001.426 962.725 994.551 C 972.364 987.889 975.128 977.968 976.403 970.526 C 977.112 966.841 977.537 963.51 979.663 960.817 C 981.506 958.478 985.616 956.848 987.53 956.21 C 990.435 955.289 993.696 954.439 997.31 953.446 C 1009.712 950.115 1025.304 946.218 1044.226 935.516 C 1067.046 922.547 1068.605 906.672 1066.196 898.805 L 1066.196 898.805 Z " fill="rgb(237,29,36)"/><path d=" M 1085.898 891.151 C 1080.866 877.403 1071.228 870.103 1060.314 864.008 C 1058.258 862.803 1056.345 861.811 1054.786 861.102 C 1051.526 859.402 1048.195 857.771 1044.864 856.071 C 1010.775 837.999 984.128 815.178 965.702 788.177 C 959.465 779.035 955.142 770.814 952.095 764.081 C 950.536 759.545 950.606 756.994 951.74 754.655 C 952.591 752.883 954.859 751.041 956.134 750.12 C 962.017 746.222 968.04 742.324 972.151 739.702 C 979.451 734.953 985.262 731.197 988.947 728.646 C 1002.98 718.866 1012.76 708.448 1018.854 696.825 C 1027.501 680.454 1028.564 661.744 1021.902 644.168 C 1012.689 619.789 989.585 604.623 961.662 604.623 C 955.851 604.623 949.969 605.261 944.157 606.536 C 942.598 606.891 941.11 607.245 939.622 607.599 C 939.905 591.016 939.48 573.298 937.991 556.006 C 932.747 495.057 911.415 463.095 889.162 437.652 C 879.878 427.022 863.719 411.501 839.482 397.611 C 805.677 378.192 767.407 368.412 725.664 368.412 C 684.063 368.412 645.793 378.192 611.988 397.54 C 587.609 411.43 571.45 427.022 562.237 437.582 C 539.984 463.024 518.652 494.987 513.408 555.935 C 511.919 573.227 511.565 590.945 511.778 607.529 C 510.289 607.174 508.73 606.82 507.242 606.465 C 501.431 605.19 495.477 604.552 489.737 604.552 C 461.814 604.552 438.71 619.718 429.497 644.098 C 422.835 661.673 423.898 680.383 432.545 696.754 C 438.639 708.377 448.49 718.795 462.452 728.575 C 466.208 731.197 471.949 734.953 479.248 739.631 C 483.217 742.182 488.957 745.938 494.627 749.694 C 495.477 750.261 498.525 752.529 499.588 754.655 C 500.793 757.065 500.793 759.687 499.021 764.506 C 496.044 771.097 491.721 779.176 485.626 788.106 C 467.555 814.541 441.687 836.936 408.732 854.795 C 391.227 864.079 373.084 870.245 365.43 891.081 C 359.619 906.814 363.446 924.744 378.116 939.839 L 378.116 939.839 C 382.935 945.013 389.03 949.619 396.684 953.872 C 414.685 963.793 429.993 968.683 442.041 972.014 C 444.167 972.652 449.057 974.211 451.184 976.125 C 456.57 980.802 455.79 987.889 462.948 998.236 C 467.271 1004.686 472.232 1009.08 476.342 1011.914 C 491.296 1022.261 508.163 1022.899 526.023 1023.608 C 542.11 1024.246 560.395 1024.954 581.23 1031.829 C 589.877 1034.664 598.877 1040.192 609.224 1046.57 C 634.171 1061.949 668.401 1082.926 725.593 1082.926 C 782.856 1082.926 817.229 1061.807 842.387 1046.428 C 852.735 1040.121 861.664 1034.593 870.027 1031.829 C 890.863 1024.954 909.147 1024.246 925.235 1023.608 C 943.094 1022.899 959.89 1022.261 974.915 1011.914 C 979.592 1008.654 985.545 1003.339 990.223 995.26 C 995.326 986.543 995.255 980.377 1000.074 976.196 C 1002.058 974.495 1006.381 973.007 1008.72 972.298 C 1020.839 968.967 1036.359 964.077 1054.715 953.942 C 1062.865 949.478 1069.172 944.588 1074.204 938.989 C 1074.275 938.918 1074.346 938.847 1074.417 938.776 C 1088.095 923.893 1091.567 906.53 1085.898 891.151 L 1085.898 891.151 Z  M 1035.084 918.436 C 1004.043 935.587 983.419 933.744 967.403 944.021 C 953.796 952.809 961.804 971.731 951.953 978.534 C 939.763 986.968 903.832 977.968 857.412 993.275 C 819.142 1005.961 794.692 1042.318 725.735 1042.318 C 656.636 1042.318 632.895 1006.103 594.058 993.275 C 547.638 977.968 511.636 986.968 499.517 978.534 C 489.666 971.731 497.674 952.809 484.067 944.021 C 468.051 933.674 447.427 935.516 416.386 918.436 C 396.613 907.522 407.811 900.79 414.402 897.601 C 526.802 843.243 544.661 759.191 545.512 752.883 C 546.504 745.371 547.567 739.418 539.275 731.693 C 531.267 724.252 495.619 702.211 485.768 695.337 C 469.397 683.927 462.239 672.517 467.555 658.484 C 471.24 648.775 480.311 645.161 489.879 645.161 C 492.855 645.161 495.903 645.515 498.808 646.153 C 516.739 650.051 534.173 659.051 544.236 661.461 C 545.654 661.815 546.858 661.957 547.921 661.957 C 553.308 661.957 555.15 659.264 554.796 653.098 C 553.662 633.467 550.827 595.197 553.945 559.408 C 558.198 510.224 574.073 485.844 592.924 464.229 C 601.995 453.882 644.518 408.95 725.806 408.95 C 807.307 408.95 849.616 453.882 858.688 464.229 C 877.539 485.773 893.414 510.153 897.666 559.408 C 900.785 595.197 898.092 633.467 896.816 653.098 C 896.391 659.547 898.375 661.957 903.69 661.957 C 904.753 661.957 906.029 661.815 907.376 661.461 C 917.439 659.051 934.873 650.051 952.803 646.153 C 955.709 645.515 958.756 645.161 961.733 645.161 C 971.301 645.161 980.372 648.846 984.057 658.484 C 989.372 672.517 982.144 683.927 965.844 695.337 C 955.993 702.211 920.345 724.252 912.336 731.693 C 904.045 739.347 905.108 745.3 906.1 752.883 C 906.879 759.191 924.81 843.243 1037.21 897.601 C 1043.588 900.79 1054.857 907.522 1035.084 918.436 L 1035.084 918.436 Z " fill="rgb(239,191,4)"/></g></svg>