<?xml version="1.0" encoding="UTF-8" standalone="no"?><!-- Generator: Gravit.io --><svg xmlns="http://www.w3.org/2000/svg" xmlns:xlink="http://www.w3.org/1999/xlink" style="isolation:isolate" viewBox="0 0 512 512" width="512pt" height="512pt"><defs><clipPath id="_clipPath_amoABuciHazKe6yqdeGDXQVwpp3bzyqm"><rect width="512" height="512"/></clipPath></defs><g clip-path="url(#_clipPath_amoABuciHazKe6yqdeGDXQVwpp3bzyqm)"><path d="M 477.714 383.995 L 256.005 512 L 34.286 383.995 L 34.286 127.985 L 256.005 0 L 477.714 127.985 L 477.714 383.995 Z" fill-rule="evenodd" fill="rgb(27,27,29)" /><g><path d=" M 266.199 129.016 L 285.625 173.453 L 285.625 327.925 L 266.496 382.942 L 338.822 362.332 C 349.905 359.147 357.548 349.02 357.57 337.489 L 357.57 174.469 C 357.575 162.905 349.903 152.744 338.78 149.584 L 266.199 129.016 Z " fill="rgb(237,29,36)"/><path d=" M 174.49 326.274 L 195.65 314.847 C 201.561 311.599 205.229 305.384 205.215 298.639 L 205.215 215.478 C 205.223 207.719 210.073 200.789 217.361 198.126 L 285.625 173.453 L 285.625 154.705 C 285.608 142.766 277.682 132.284 266.199 129.016 C 263.819 128.332 261.354 127.99 258.878 128 C 254.22 128.011 249.644 129.221 245.589 131.513 L 167.464 176.077 C 159.406 180.669 154.43 189.232 154.43 198.507 L 154.43 314.297 C 154.418 319.092 156.934 323.538 161.05 325.996 C 165.167 328.454 170.275 328.559 174.49 326.274 L 174.49 326.274 Z " fill="rgb(237,29,36)"/><path d=" M 174.49 326.274 L 195.65 314.847 C 201.561 311.599 205.229 305.384 205.215 298.639 L 205.215 215.478 C 205.223 207.719 210.073 200.789 217.361 198.126 L 285.625 173.453 L 285.625 154.705 C 285.608 142.766 277.682 132.284 266.199 129.016 C 263.819 128.332 261.354 127.99 258.878 128 C 254.22 128.011 249.644 129.221 245.589 131.513 L 167.464 176.077 C 159.406 180.669 154.43 189.232 154.43 198.507 L 154.43 314.297 C 154.418 319.092 156.934 323.538 161.05 325.996 C 165.167 328.454 170.275 328.559 174.49 326.274 L 174.49 326.274 Z " fill="rgb(237,29,36)"/><path d=" M 285.625 327.925 L 204.919 327.925 C 198.791 327.99 193.461 332.137 191.892 338.06 C 190.322 343.984 192.899 350.226 198.19 353.317 L 246.266 380.572 C 250.226 382.823 254.704 384.004 259.259 384 C 261.709 383.998 264.147 383.642 266.496 382.942 C 277.84 379.719 285.657 369.343 285.625 357.549 L 285.625 327.925 Z " fill="rgb(237,29,36)"/><path d=" M 285.625 327.925 L 204.919 327.925 C 198.791 327.99 193.461 332.137 191.892 338.06 C 190.322 343.984 192.899 350.226 198.19 353.317 L 246.266 380.572 C 250.226 382.823 254.704 384.004 259.259 384 C 261.709 383.998 264.147 383.642 266.496 382.942 C 277.84 379.719 285.657 369.343 285.625 357.549 L 285.625 327.925 Z " fill="rgb(237,29,36)"/></g></g></svg>