<?xml version="1.0" encoding="UTF-8" standalone="no"?><!-- Generator: Gravit.io --><svg xmlns="http://www.w3.org/2000/svg" xmlns:xlink="http://www.w3.org/1999/xlink" style="isolation:isolate" viewBox="0 0 512 512" width="512pt" height="512pt"><defs><clipPath id="_clipPath_KH24CBbcZWTtp6XzL6l1ZMbOAq1AEueB"><rect width="512" height="512"/></clipPath></defs><g clip-path="url(#_clipPath_KH24CBbcZWTtp6XzL6l1ZMbOAq1AEueB)"><rect x="0" y="0" width="512" height="512" transform="matrix(1,0,0,1,0,0)" fill="rgb(17,17,132)"/><path d=" M 269.045 268.956 L 285.64 226.337 L 243.011 242.922 L 269.045 268.956 Z  M 256 128 C 185.308 128 128 185.308 128 256 C 128 326.692 185.308 384 256 384 C 326.692 384 384 326.692 384 256 C 383.92 185.341 326.659 128.08 256 128 L 256 128 Z  M 315.548 210.844 L 287.967 281.734 C 286.833 284.641 284.531 286.938 281.622 288.067 L 210.833 315.559 C 206.721 317.154 202.055 316.171 198.936 313.053 C 195.818 309.934 194.835 305.268 196.43 301.156 L 224.033 230.266 C 225.167 227.359 227.469 225.062 230.378 223.933 L 301.156 196.441 C 305.268 194.846 309.934 195.829 313.053 198.947 C 316.171 202.066 317.154 206.732 315.559 210.844 L 315.548 210.844 Z " fill="rgb(255,255,255)"/></g></svg>