<?xml version="1.0" encoding="UTF-8" standalone="no"?><!-- Generator: Gravit.io --><svg xmlns="http://www.w3.org/2000/svg" xmlns:xlink="http://www.w3.org/1999/xlink" style="isolation:isolate" viewBox="0 0 512 512" width="512pt" height="512pt"><defs><clipPath id="_clipPath_kzFzSwV37mQcnjaRcDqtj52vq4rLMEbL"><rect width="512" height="512"/></clipPath></defs><g clip-path="url(#_clipPath_kzFzSwV37mQcnjaRcDqtj52vq4rLMEbL)"><path d=" M 160.366 263.963 C 160.366 211.118 203.337 168.329 256.366 168.329 C 309.394 168.329 352.366 211.118 352.366 263.963 C 352.366 316.809 309.394 359.598 256.366 359.598 C 203.337 359.598 160.366 316.809 160.366 263.963 Z " fill="rgb(0,170,19)"/><path d=" M 256 9.097 C 114.651 9.097 0 123.2 0 263.269 C 0 368.96 64 458.926 157.074 499.154 C 170.337 504.765 185.421 504.111 198.149 497.375 C 210.877 490.638 219.9 478.534 222.72 464.411 C 227.256 442.027 215.298 419.567 194.194 410.834 L 194.194 410.816 C 136.594 386.679 96 329.993 96 263.799 C 96 175.662 167.68 104.347 256 104.347 C 344.32 104.347 416 175.662 416 263.799 C 416 329.993 375.406 386.679 317.806 410.816 L 317.806 410.853 C 296.513 419.449 284.36 441.99 288.881 464.503 C 293.401 487.017 313.313 503.119 336.274 502.83 C 342.611 502.78 348.879 501.52 354.743 499.118 C 447.817 459.803 512 369.655 512 263.232 C 512 122.432 397.349 9.061 256 9.061" fill="rgb(0,170,19)"/></g></svg>