<?xml version="1.0" encoding="UTF-8" standalone="no"?><!-- Generator: Gravit.io --><svg xmlns="http://www.w3.org/2000/svg" xmlns:xlink="http://www.w3.org/1999/xlink" style="isolation:isolate" viewBox="0 0 512 512" width="512pt" height="512pt"><defs><clipPath id="_clipPath_NutFsGIfLN7Rlv86RL8PcMAyavaJKbVJ"><rect width="512" height="512"/></clipPath></defs><g clip-path="url(#_clipPath_NutFsGIfLN7Rlv86RL8PcMAyavaJKbVJ)"><path d="M 477.714 383.995 L 256.005 512 L 34.286 383.995 L 34.286 127.985 L 256.005 0 L 477.714 127.985 L 477.714 383.995 Z" fill-rule="evenodd" fill="rgb(239,191,4)" /><path d=" M 373.467 245.46 C 373.315 239.052 370.124 232.923 364.663 230.052 C 366.769 226.824 368.827 223.564 370.834 220.273 C 372.897 224.438 375.946 228.938 375.946 234.858 C 375.947 238.62 375.07 242.312 373.467 245.46 M 368.187 251.854 C 365.875 253.54 363.131 254.529 360.053 254.529 C 355.942 254.529 352.445 252.844 350.273 249.932 C 354.396 244.918 358.478 239.288 362.324 233.577 C 366.81 236.098 368.634 241.921 368.634 247.187 C 368.633 248.817 368.494 250.379 368.187 251.854 M 348.266 245.53 C 348.042 244.541 347.931 243.482 347.931 242.381 C 347.931 236.795 351.902 232.295 357.154 232.295 C 357.503 232.295 357.851 232.307 358.171 232.335 C 354.826 237.072 351.484 241.572 348.264 245.528 M 287.011 270.785 C 285.213 270.785 284.392 269.323 284.392 266.649 C 284.392 257.997 292.081 239.858 304.424 229.201 C 305.789 231.458 306.402 234.329 306.416 237.324 C 306.467 251.617 293.377 270.785 287.011 270.785 Z  M 238.071 281.401 C 236.329 281.401 235.452 279.897 235.452 277.332 C 235.452 266.161 254.425 229.619 263.969 229.619 C 265.766 229.619 266.588 231.123 266.588 233.742 C 266.588 245.027 247.725 281.401 238.071 281.401 M 210.405 243.229 C 208.078 240.708 205.543 238.66 202.923 237.072 C 209.415 223.726 216.618 211.118 225.631 201.506 C 228.696 204.668 230.354 208.988 230.354 214.156 C 230.353 227 221.884 238.27 210.405 243.229 Z  M 174.49 305.278 C 171.982 305.278 169.698 304.945 167.65 304.345 C 178.892 291.697 187.264 271.44 196.417 251.102 C 200.262 251.227 203.953 250.754 207.227 250.169 C 209.052 254.028 210.18 258.749 210.18 264.366 C 210.181 282.739 196.668 305.278 174.49 305.278 M 159.514 299.818 C 155.906 296.432 154.123 292.059 154.165 288.422 C 154.195 286.61 154.68 284.941 155.46 283.491 C 156.616 286.027 159.43 287.949 162.843 287.949 C 164.125 287.945 165.393 287.69 166.576 287.198 C 164.264 291.918 161.938 296.183 159.514 299.818 Z  M 183.74 239.414 C 183.74 236.948 186.722 236.516 189.897 236.893 C 188.754 239.021 187.644 241.166 186.568 243.329 C 184.771 242.213 183.74 240.834 183.74 239.414 Z  M 200.722 241.698 C 201.985 242.748 203.138 243.925 204.162 245.21 C 202.393 245.587 200.593 245.81 198.785 245.877 C 199.426 244.485 200.067 243.078 200.722 241.698 Z  M 373.091 216.929 C 375.238 214.476 376.574 211.412 376.574 209.155 C 376.574 207.623 375.682 206.648 374.247 206.648 C 371.866 206.648 368.995 209.587 368.995 214.017 C 368.995 214.643 369.076 215.257 369.191 215.87 C 366.46 220.147 363.618 224.48 360.734 228.659 C 359.711 228.456 358.67 228.353 357.627 228.353 C 350.704 228.353 343.57 233.548 343.57 242.938 C 343.57 245.487 344.017 247.731 344.783 249.666 C 338.849 256.423 333.638 260.797 330.113 260.797 C 328.721 260.797 327.885 260.045 327.885 258.471 C 327.885 256.786 328.707 254.111 330.337 250.392 L 350.69 205.297 L 372.674 202.706 L 375.168 197.496 L 353.895 198.193 L 357.586 190.028 L 349.34 191.06 L 345.592 198.458 L 315.835 199.418 L 310.485 210.034 L 341.607 206.37 L 335.352 218.782 C 332.148 217.348 328.276 216.526 323.762 216.526 C 316.951 216.526 310.625 218.212 304.927 221.068 C 302.349 219.813 299.438 219.201 296.471 219.201 C 289.281 219.201 281.146 222.656 274.529 228.716 C 273.191 224.593 270.391 222.113 266.239 222.113 C 261.405 222.113 256.265 224.649 251.347 228.758 C 248.407 226.348 244.144 225.651 239.674 227.351 C 242.084 222.851 243.407 218.059 243.407 213.294 C 243.407 204.978 239.507 198.861 232.388 195.17 C 234.826 193.192 237.389 191.423 240.106 189.903 C 239.103 189.11 238.476 188.622 237.64 188.163 C 234.161 189.575 230.802 191.266 227.595 193.219 C 223.11 191.785 217.761 191.061 211.645 191.061 C 183.239 191.061 156.366 207.457 156.366 227.713 C 156.366 236.656 161.423 239.847 166.424 239.847 C 171.091 239.847 175.66 237.228 177.109 234.052 C 173.041 233.217 170.631 229.692 170.631 225.22 C 170.631 209.45 189.745 195.644 209.36 195.644 C 213.748 195.644 217.551 196.466 220.672 197.969 C 208.761 207.136 199.622 219.619 192.072 232.965 C 191.021 232.802 189.959 232.718 188.895 232.714 C 183.253 232.714 179.186 235.138 179.186 239.818 C 179.186 242.995 181.262 245.726 184.424 247.703 C 179.771 257.414 175.676 267.138 171.761 275.984 C 170.396 273.296 167.302 271.54 163.708 271.54 C 155.071 271.54 148.58 279.146 148.58 288.549 C 148.58 294.693 151.073 300.558 155.364 305.254 C 151.31 309.78 146.88 312.47 141.697 312.594 C 140.014 312.645 138.349 312.225 136.891 311.381 C 140.945 310.937 144.274 307.927 144.176 304.014 C 144.075 300.098 140.82 297.326 136.347 297.423 C 130.872 297.549 127.904 302.132 128.002 306.144 C 128.17 313.584 134.48 317.483 142.714 317.29 C 149.833 317.122 155.948 314.586 161.396 310.31 C 166.564 313.626 173.029 315.646 180.259 315.646 C 202.103 315.646 220.645 297.034 220.645 272.057 C 220.645 262.123 218.081 254.266 214.264 248.249 C 221.355 245.754 227.582 241.771 232.43 236.963 C 239.228 230.221 244.286 230.848 247.155 232.674 C 235.885 244.376 226.732 263.251 226.732 275.943 C 226.732 283.801 229.867 288.913 235.912 288.913 C 254.05 288.913 275.7 253.945 275.435 234.735 C 281.258 228.284 289.046 224.439 295.37 224.439 C 296.568 224.439 297.654 224.579 298.644 224.844 C 284.476 234.86 275.644 251.996 275.644 265.175 C 275.644 272.168 279.071 277.46 285.758 277.46 C 298.239 277.46 314.497 258.026 314.497 238.635 C 314.497 232.686 312.812 228.201 310.124 225.052 C 314.484 222.46 319.276 220.887 324.416 220.887 C 327.397 220.887 330.518 221.584 333.317 222.81 L 320.821 247.592 C 317.91 253.638 316.782 258.124 316.782 261.37 C 316.782 266.386 319.707 268.95 324.375 268.95 C 331.144 268.95 339.142 262.652 347.109 253.652 C 350.551 257.916 355.915 259.824 360.358 259.824 C 361.765 259.824 363.213 259.684 364.677 259.42 C 361.319 263.654 355.734 266.844 347.542 268.892 L 239.061 296.015 C 222.581 300.126 212.508 308.261 217.37 323.837 C 221.131 320.744 227.902 317.721 245.4 312.385 L 343.878 282.363 C 358.282 277.961 367.421 267.639 371.322 257.217 C 378.038 253.972 384 247.745 384 239.093 C 383.999 229.551 376.003 223.852 373.091 216.929" fill="rgb(255,255,255)"/></g></svg>