<?xml version="1.0" encoding="UTF-8" standalone="no"?><!-- Generator: Gravit.io --><svg xmlns="http://www.w3.org/2000/svg" xmlns:xlink="http://www.w3.org/1999/xlink" style="isolation:isolate" viewBox="0 0 512 512" width="512pt" height="512pt"><defs><clipPath id="_clipPath_fNZTdBQhnZi7lePoBPaSpcPp90a2sJjh"><rect width="512" height="512"/></clipPath></defs><g clip-path="url(#_clipPath_fNZTdBQhnZi7lePoBPaSpcPp90a2sJjh)"><path d="M 477.714 383.995 L 256.005 512 L 34.286 383.995 L 34.286 127.985 L 256.005 0 L 477.714 127.985 L 477.714 383.995 Z" fill-rule="evenodd" fill="rgb(102,0,51)" /><path d=" M 284.313 171.702 C 284.313 156.062 271.7 143.372 255.996 143.372 C 240.407 143.397 227.704 156.062 227.679 171.702 C 227.704 187.316 240.407 200.006 255.996 200.019 C 271.7 200.006 284.313 187.316 284.313 171.702 Z  M 284.313 340.298 C 284.313 324.671 271.7 311.981 255.996 311.981 C 240.407 312.006 227.704 324.671 227.679 340.298 C 227.704 355.926 240.407 368.603 255.996 368.628 C 271.7 368.603 284.313 355.926 284.313 340.298 Z  M 384 205.887 L 384 152.826 L 256.629 229.868 L 255.943 230.275 L 128 152.775 L 128 205.824 L 212.1 256.291 L 128 306.67 L 128 359.757 L 255.955 282.345 L 384 359.757 L 384 306.67 L 299.836 256.291 L 384 205.887 Z " fill-rule="evenodd" fill="rgb(255,255,255)"/></g></svg>