<?xml version="1.0" encoding="UTF-8" standalone="no"?><!-- Generator: Gravit.io --><svg xmlns="http://www.w3.org/2000/svg" xmlns:xlink="http://www.w3.org/1999/xlink" style="isolation:isolate" viewBox="0 0 512 512" width="512pt" height="512pt"><defs><clipPath id="_clipPath_KBr2YNvQpYC2FS9QWMyq5OJcdWKOEAVy"><rect width="512" height="512"/></clipPath></defs><g clip-path="url(#_clipPath_KBr2YNvQpYC2FS9QWMyq5OJcdWKOEAVy)"><g><path d=" M 483.752 150.528 C 483.748 141.919 481.907 134.312 478.184 127.783 C 474.526 121.363 469.049 115.982 461.702 111.727 C 401.056 76.758 340.35 41.896 279.724 6.891 C 263.379 -2.545 247.532 -2.201 231.308 7.371 C 207.169 21.607 86.313 90.848 50.3 111.707 C 35.469 120.293 28.252 133.433 28.248 150.512 C 28.225 220.837 28.248 291.16 28.225 361.486 C 28.225 369.906 29.991 377.366 33.551 383.797 C 37.21 390.411 42.764 395.94 50.28 400.291 C 86.296 421.15 207.167 490.386 231.301 504.626 C 247.532 514.203 263.379 514.545 279.729 505.105 C 340.358 470.099 401.066 435.239 461.721 400.27 C 469.238 395.921 474.792 390.388 478.451 383.779 C 482.005 377.348 483.775 369.889 483.775 361.467 C 483.775 361.467 483.775 220.855 483.752 150.528 Z " fill="rgb(161,121,220)"/><path d=" M 256.697 255.314 L 33.551 383.797 C 37.21 390.411 42.764 395.94 50.28 400.291 C 86.296 421.15 207.167 490.386 231.301 504.626 C 247.532 514.203 263.379 514.545 279.729 505.105 C 340.358 470.099 401.066 435.239 461.721 400.27 C 469.238 395.921 474.792 390.388 478.451 383.779 L 256.697 255.314 Z " fill="rgb(40,0,104)"/><path d=" M 483.752 150.528 C 483.748 141.919 481.907 134.312 478.184 127.783 L 256.697 255.314 L 478.451 383.779 C 482.005 377.348 483.772 369.889 483.775 361.467 C 483.775 361.467 483.775 220.855 483.752 150.528 Z " fill="rgb(57,0,145)"/><path d=" M 388.078 207.283 L 388.078 231.298 L 412.094 231.298 L 412.094 207.283 L 424.102 207.283 L 424.102 231.298 L 448.117 231.298 L 448.117 243.306 L 424.102 243.306 L 424.102 267.322 L 448.117 267.322 L 448.117 279.329 L 424.102 279.329 L 424.102 303.345 L 412.094 303.345 L 412.094 279.329 L 388.078 279.329 L 388.078 303.345 L 376.071 303.345 L 376.071 279.329 L 352.055 279.329 L 352.055 267.322 L 376.071 267.322 L 376.071 243.306 L 352.055 243.306 L 352.055 231.298 L 376.071 231.298 L 376.071 207.283 L 388.078 207.283 Z  M 412.094 243.306 L 388.078 243.306 L 388.078 267.322 L 412.094 267.322 L 412.094 243.306 Z " fill="rgb(255,255,255)"/><path d=" M 257.187 86.671 C 319.827 86.671 374.517 120.69 403.81 171.257 L 403.525 170.77 L 329.825 213.206 C 315.304 188.62 288.684 172.029 258.148 171.687 L 257.187 171.682 C 210.62 171.682 172.868 209.432 172.868 255.998 C 172.868 271.226 176.928 285.501 183.988 297.83 C 198.522 323.203 225.845 340.317 257.187 340.317 C 288.722 340.317 316.2 322.986 330.66 297.342 L 330.309 297.957 L 403.898 340.589 C 374.926 390.727 320.985 424.641 259.073 425.317 L 257.187 425.328 C 194.349 425.328 139.503 391.099 110.284 340.265 C 96.019 315.449 87.857 286.678 87.857 255.998 C 87.857 162.483 163.667 86.671 257.187 86.671 Z " fill="rgb(255,255,255)"/></g></g></svg>