<?xml version="1.0" encoding="UTF-8" standalone="no"?><!-- Generator: Gravit.io --><svg xmlns="http://www.w3.org/2000/svg" xmlns:xlink="http://www.w3.org/1999/xlink" style="isolation:isolate" viewBox="0 0 512 512" width="512pt" height="512pt"><defs><clipPath id="_clipPath_jtmOzD4zPbHN5Kgs25GqX6pns4Ua3CUE"><rect width="512" height="512"/></clipPath></defs><g clip-path="url(#_clipPath_jtmOzD4zPbHN5Kgs25GqX6pns4Ua3CUE)"><g><path d=" M 483.533 150.528 C 483.529 141.918 481.689 134.311 477.97 127.783 C 474.317 121.362 468.843 115.982 461.504 111.726 C 400.916 76.757 340.268 41.895 279.701 6.891 C 263.372 -2.544 247.54 -2.201 231.332 7.371 C 207.216 21.607 86.476 90.848 50.498 111.707 C 35.682 120.293 28.471 133.433 28.467 150.512 C 28.444 220.837 28.467 291.159 28.444 361.486 C 28.448 369.906 30.21 377.366 33.765 383.798 C 37.42 390.411 42.969 395.94 50.478 400.292 C 86.459 421.15 207.214 490.386 231.324 504.626 C 247.54 514.203 263.372 514.544 279.707 505.106 C 340.276 470.1 400.926 435.239 461.524 400.27 C 469.033 395.92 474.581 390.388 478.237 383.78 C 481.787 377.348 483.552 369.888 483.556 361.467 C 483.556 361.467 483.556 220.855 483.533 150.528 Z " fill="rgb(169,185,203)"/><path d=" M 279.291 7.349 C 262.988 -2.062 247.182 -1.719 231.001 7.828 C 206.924 22.027 86.382 91.088 50.462 111.893 C 35.669 120.457 28.471 133.563 28.467 150.597 C 28.444 220.74 28.467 290.88 28.444 361.024 C 28.448 369.422 30.206 376.862 33.756 383.277 C 37.406 389.874 42.946 395.389 50.443 399.728 C 58.672 404.494 71.347 411.796 86.281 420.386 L 418.889 87.778 C 372.35 60.98 325.799 34.203 279.291 7.349 Z " fill="rgb(127,139,153)"/><path d=" M 303.033 223.943 L 373.858 224.443 C 373.858 194.933 343.988 122.667 258.35 122.667 C 203.788 122.667 130.437 157.355 130.437 257.085 C 130.437 356.813 202.343 389.334 258.35 389.334 C 349.047 389.334 370.724 326.574 370.724 291.108 L 303.156 287.245 C 303.156 287.245 304.964 328.267 257.989 328.267 C 214.629 328.267 207.394 275.15 207.394 257.085 C 207.394 229.623 217.159 185.54 257.989 185.54 C 298.821 185.54 303.033 223.943 303.033 223.943 Z " fill="rgb(255,255,255)"/></g></g></svg>