<?xml version="1.0" encoding="UTF-8" standalone="no"?><!-- Generator: Gravit.io --><svg xmlns="http://www.w3.org/2000/svg" xmlns:xlink="http://www.w3.org/1999/xlink" style="isolation:isolate" viewBox="0 0 512 512" width="512pt" height="512pt"><defs><clipPath id="_clipPath_hqZpUngYu55XATsXHKCxkTbAXxUlYIpc"><rect width="512" height="512"/></clipPath></defs><g clip-path="url(#_clipPath_hqZpUngYu55XATsXHKCxkTbAXxUlYIpc)"><path d=" M 477.702 384 C 481.272 377.817 483.49 370.849 483.49 364.592 L 483.49 147.408 C 483.49 141.151 481.275 134.185 477.703 128.001 L 256 256.001 L 477.702 384 Z " fill="rgb(0,89,156)"/><path d=" M 275.701 507.307 L 463.789 398.716 C 469.207 395.587 474.132 390.186 477.702 384 L 256 256.001 L 34.298 384.002 C 37.868 390.186 42.794 395.589 48.211 398.716 L 236.299 507.307 C 247.134 513.564 264.866 513.564 275.701 507.307 Z " fill="rgb(0,68,130)"/><path d=" M 477.703 128 C 474.132 121.814 469.206 116.413 463.789 113.284 L 275.701 4.693 C 264.866 -1.564 247.134 -1.564 236.299 4.693 L 48.211 113.284 C 37.375 119.539 28.51 134.896 28.51 147.408 L 28.51 364.592 C 28.51 370.849 30.727 377.817 34.298 384 L 256 256.001 L 477.703 128 Z " fill="rgb(101,154,210)"/><path d=" M 256 407.661 C 172.374 407.661 104.34 339.626 104.34 256.001 C 104.34 172.375 172.374 104.341 256 104.341 C 309.961 104.341 360.287 133.379 387.336 180.123 L 321.702 218.104 C 308.164 194.706 282.987 180.171 256 180.171 C 214.186 180.171 180.17 214.187 180.17 256.001 C 180.17 297.813 214.186 331.831 256 331.831 C 282.99 331.831 308.167 317.295 321.706 293.893 L 387.341 331.872 C 360.292 378.621 309.964 407.661 256 407.661 Z " fill="rgb(255,255,255)"/><path d=" M 407.66 247.575 L 390.808 247.575 L 390.808 230.724 L 373.959 230.724 L 373.959 247.575 L 357.107 247.575 L 357.107 264.425 L 373.959 264.425 L 373.959 281.277 L 390.808 281.277 L 390.808 264.425 L 407.66 264.425 L 407.66 247.575 Z " fill="rgb(255,255,255)"/><path d=" M 470.852 247.575 L 454 247.575 L 454 230.724 L 437.151 230.724 L 437.151 247.575 L 420.298 247.575 L 420.298 264.425 L 437.151 264.425 L 437.151 281.277 L 454 281.277 L 454 264.425 L 470.852 264.425 L 470.852 247.575 Z " fill="rgb(255,255,255)"/></g></svg>