<?xml version="1.0" encoding="UTF-8" standalone="no"?><!-- Generator: Gravit.io --><svg xmlns="http://www.w3.org/2000/svg" xmlns:xlink="http://www.w3.org/1999/xlink" style="isolation:isolate" viewBox="0 0 512 512" width="512pt" height="512pt"><defs><clipPath id="_clipPath_ECIjVna3D5aVEpfdaHojkGq3uuh800wb"><rect width="512" height="512"/></clipPath></defs><g clip-path="url(#_clipPath_ECIjVna3D5aVEpfdaHojkGq3uuh800wb)"><circle vector-effect="non-scaling-stroke" cx="259.51768976765754" cy="252.48231023234254" r="252.4823102323425" fill="rgb(5,147,12)"/><g opacity="0.1"><path d=" M 84.516 71.011 C 14.582 133.329 -15.102 229.243 7.403 320.17 C 29.907 411.097 100.903 482.093 191.83 504.597 C 282.757 527.102 378.671 497.418 440.989 427.484 L 84.516 71.011 Z " fill="rgb(255,255,255)"/></g><path d=" M 247.13 343.613 C 229.954 351.97 210.988 355.98 191.9 355.29 C 166.379 356.408 141.617 346.458 123.966 327.99 C 106.428 308.331 97.281 282.588 98.481 256.27 C 97.247 227.749 107.606 199.943 127.201 179.184 C 146.356 159.587 172.877 148.961 200.263 149.911 C 216.261 149.301 232.214 151.986 247.13 157.801 L 247.13 182.655 C 232.663 174.614 216.34 170.506 199.79 170.741 C 178.942 170.05 158.81 178.39 144.559 193.622 C 129.785 210.464 122.145 232.394 123.256 254.77 C 122.163 275.917 129.287 296.668 143.139 312.684 C 156.578 327.133 175.653 334.999 195.371 334.223 C 213.553 334.675 231.502 330.058 247.209 320.889 L 247.13 343.613 Z " fill="rgb(255,255,255)"/><path d=" M 423.316 208.771 L 420.16 223.447 L 383.865 223.447 L 375.186 265.106 L 414.163 265.106 L 410.455 279.782 L 372.267 279.782 L 360.037 335.012 L 342.6 335.012 L 354.514 279.782 L 319.798 279.782 L 308.121 335.012 L 291.078 335.012 L 302.755 279.782 L 266.145 279.782 L 268.907 265.106 L 305.675 265.106 L 314.117 223.526 L 275.692 223.526 L 278.612 208.85 L 317.036 208.85 L 328.714 153.067 L 346.308 153.067 L 334.631 208.85 L 369.584 208.85 L 381.498 153.067 L 398.541 153.067 L 386.863 208.85 L 423.316 208.771 Z  M 366.744 223.447 L 331.712 223.447 L 322.638 265.106 L 357.828 265.106 L 366.744 223.447 Z " fill="rgb(255,255,255)"/></g></svg>