<?xml version="1.0" encoding="UTF-8" standalone="no"?><!-- Generator: Gravit.io --><svg xmlns="http://www.w3.org/2000/svg" xmlns:xlink="http://www.w3.org/1999/xlink" style="isolation:isolate" viewBox="0 0 512 512" width="512pt" height="512pt"><defs><clipPath id="_clipPath_N0cEbvYAzjLNSSA20L86shgwsHWZXsJd"><rect width="512" height="512"/></clipPath></defs><g clip-path="url(#_clipPath_N0cEbvYAzjLNSSA20L86shgwsHWZXsJd)"><path d=" M 188.808 395.957 C 188.808 395.957 169.243 407.336 202.732 411.186 C 243.304 415.814 264.04 415.15 308.751 406.689 C 308.751 406.689 320.507 414.058 336.923 420.442 C 236.694 463.4 110.083 417.954 188.808 395.957 Z " fill="rgb(83,130,161)"/><path d=" M 176.56 339.901 C 176.56 339.901 154.616 356.146 188.131 359.612 C 231.471 364.084 265.698 364.449 324.924 353.045 C 324.924 353.045 333.115 361.35 345.996 365.892 C 224.812 401.328 89.836 368.686 176.56 339.901 Z " fill="rgb(83,130,161)"/><path d=" M 279.811 244.813 C 304.508 273.247 273.323 298.833 273.323 298.833 C 273.323 298.833 336.031 266.461 307.232 225.923 C 280.335 188.12 259.707 169.336 371.374 104.573 C 371.374 104.573 196.095 148.351 279.811 244.813 Z " fill="rgb(248,152,29)"/><path d=" M 412.374 437.42 C 412.374 437.42 426.852 449.35 396.427 458.58 C 338.574 476.105 155.634 481.397 104.814 459.277 C 86.544 451.33 120.803 440.301 131.579 437.986 C 142.819 435.55 149.24 436.004 149.24 436.004 C 128.924 421.692 17.924 464.106 92.858 476.253 C 297.215 509.394 465.38 461.329 412.374 437.42 Z " fill="rgb(83,130,161)"/><path d=" M 198.218 281.821 C 198.218 281.821 105.162 303.924 165.264 311.95 C 190.642 315.348 241.23 314.578 288.351 310.63 C 326.862 307.382 365.531 300.474 365.531 300.474 C 365.531 300.474 351.951 306.29 342.127 312.998 C 247.631 337.85 65.083 326.289 117.636 300.868 C 162.08 279.384 198.218 281.821 198.218 281.821 Z " fill="rgb(83,130,161)"/><path d=" M 365.147 375.129 C 461.205 325.213 416.792 277.244 385.791 283.706 C 378.194 285.288 374.806 286.658 374.806 286.658 C 374.806 286.658 377.626 282.24 383.014 280.326 C 444.343 258.767 491.508 343.918 363.216 377.645 C 363.216 377.646 364.703 376.317 365.147 375.129 Z " fill="rgb(83,130,161)"/><path d=" M 307.232 0 C 307.232 0 360.431 53.217 256.775 135.049 C 173.654 200.695 237.82 238.123 256.74 280.886 C 208.22 237.109 172.614 198.573 196.502 162.707 C 231.564 110.059 328.696 84.532 307.232 0 Z " fill="rgb(248,152,29)"/><path d=" M 207.656 510.39 C 299.862 516.293 441.452 507.116 444.805 463.486 C 444.805 463.486 438.36 480.026 368.604 493.161 C 289.904 507.972 192.84 506.242 135.271 496.75 C 135.272 496.749 147.056 506.504 207.656 510.39 Z " fill="rgb(83,130,161)"/></g></svg>