<?xml version="1.0" encoding="UTF-8" standalone="no"?><!-- Generator: Gravit.io --><svg xmlns="http://www.w3.org/2000/svg" xmlns:xlink="http://www.w3.org/1999/xlink" style="isolation:isolate" viewBox="0 0 512 512" width="512pt" height="512pt"><defs><clipPath id="_clipPath_EmtMFrUXtFkBMV0dyPmy1tgnTNk1Qk7j"><rect width="512" height="512"/></clipPath></defs><g clip-path="url(#_clipPath_EmtMFrUXtFkBMV0dyPmy1tgnTNk1Qk7j)"><linearGradient id="_lgradient_0" x1="0.12959317268820703" y1="0.11699646979939157" x2="0.7941525882739547" y2="0.7867569546688487" gradientTransform="matrix(379.681,0,0,380.527,0,1.333)" gradientUnits="userSpaceOnUse"><stop offset="0%" stop-opacity="1" style="stop-color:rgb(56,126,184)"/><stop offset="100%" stop-opacity="1" style="stop-color:rgb(54,105,148)"/></linearGradient><path d=" M 254.155 1.333 C 124.177 1.333 132.293 57.699 132.293 57.699 L 132.439 116.093 L 256.473 116.093 L 256.473 133.627 L 83.172 133.627 C 83.172 133.627 0 124.195 0 255.343 C 0 386.491 72.595 381.84 72.595 381.84 L 115.92 381.84 L 115.92 320.983 C 115.92 320.983 113.584 248.387 187.356 248.387 C 261.127 248.387 310.376 248.387 310.376 248.387 C 310.376 248.387 379.493 249.504 379.493 181.588 C 379.493 113.672 379.493 69.291 379.493 69.291 C 379.493 69.291 389.987 1.333 254.155 1.333 Z  M 185.761 40.601 C 198.103 40.601 208.076 50.575 208.076 62.916 C 208.076 75.256 198.103 85.231 185.761 85.231 C 173.421 85.231 163.447 75.256 163.447 62.916 C 163.447 50.575 173.421 40.601 185.761 40.601 Z " fill="url(#_lgradient_0)"/><linearGradient id="_lgradient_1" x1="0.19127787758489917" y1="0.2031608430705823" x2="0.9051272642437502" y2="0.8901192682319352" gradientTransform="matrix(379.681,0,0,380.527,132.319,130.14)" gradientUnits="userSpaceOnUse"><stop offset="0%" stop-opacity="1" style="stop-color:rgb(255,224,82)"/><stop offset="100%" stop-opacity="1" style="stop-color:rgb(255,195,49)"/></linearGradient><path d=" M 257.845 510.667 C 387.823 510.667 379.707 454.301 379.707 454.301 L 379.561 395.907 L 255.527 395.907 L 255.527 378.373 L 428.828 378.373 C 428.828 378.373 512 387.805 512 256.657 C 512 125.509 439.405 130.16 439.405 130.16 L 396.08 130.16 L 396.08 191.017 C 396.08 191.017 398.416 263.612 324.644 263.612 C 250.873 263.612 201.624 263.612 201.624 263.612 C 201.624 263.612 132.507 262.496 132.507 330.412 C 132.507 398.328 132.507 442.709 132.507 442.709 C 132.507 442.709 122.013 510.667 257.845 510.667 Z  M 326.239 471.399 C 313.897 471.399 303.924 461.425 303.924 449.084 C 303.924 436.744 313.897 426.769 326.239 426.769 C 338.579 426.769 348.553 436.744 348.553 449.084 C 348.553 461.425 338.579 471.399 326.239 471.399 Z " fill="url(#_lgradient_1)"/></g></svg>