<?xml version="1.0" encoding="UTF-8" standalone="no"?><!-- Generator: Gravit.io --><svg xmlns="http://www.w3.org/2000/svg" xmlns:xlink="http://www.w3.org/1999/xlink" style="isolation:isolate" viewBox="0 0 512 512" width="512pt" height="512pt"><defs><clipPath id="_clipPath_Bc2JEo7kc3OSqiLMFdpf6VwkgJ88hLYJ"><rect width="512" height="512"/></clipPath></defs><g clip-path="url(#_clipPath_Bc2JEo7kc3OSqiLMFdpf6VwkgJ88hLYJ)"><path d=" M 511.964 141.814 C 511.934 136.665 511.877 131.518 511.735 126.363 C 511.435 115.149 510.772 103.833 508.779 92.739 C 506.756 81.472 503.45 70.996 498.24 60.761 C 493.125 50.71 486.439 41.513 478.463 33.537 C 470.488 25.561 461.291 18.875 451.236 13.758 C 441.009 8.554 430.532 5.248 419.275 3.226 C 408.175 1.227 396.859 0.568 385.637 0.265 C 380.484 0.125 375.337 0.066 370.186 0.034 C 364.072 0 357.954 0 351.841 0 L 216.308 0 L 160.159 0 C 154.041 0 147.93 0 141.818 0.035 C 136.665 0.067 131.511 0.126 126.366 0.266 C 123.561 0.341 120.75 0.44 117.937 0.575 C 109.499 0.982 101.048 1.728 92.727 3.227 C 84.285 4.744 76.279 6.982 68.491 10.202 C 65.895 11.274 63.323 12.457 60.766 13.758 C 53.225 17.596 46.164 22.316 39.742 27.801 C 37.602 29.629 35.532 31.542 33.539 33.536 C 25.561 41.512 18.875 50.71 13.76 60.761 C 8.55 70.995 5.248 81.471 3.224 92.738 C 1.232 103.832 0.57 115.148 0.268 126.362 C 0.127 131.517 0.068 136.664 0.034 141.813 C -0.005 147.929 0 154.045 0 160.159 L 0 243.625 L 0 351.839 C 0 357.958 -0.006 364.069 0.034 370.189 C 0.068 375.338 0.127 380.485 0.268 385.631 C 0.57 396.851 1.231 408.17 3.224 419.259 C 5.248 430.522 8.55 441.007 13.76 451.24 C 18.875 461.293 25.561 470.488 33.539 478.461 C 41.511 486.44 50.711 493.125 60.767 498.246 C 70.994 503.451 81.471 506.752 92.73 508.774 C 103.823 510.771 115.147 511.435 126.367 511.735 C 131.512 511.872 136.666 511.933 141.818 511.962 C 147.931 512.006 154.042 512 160.16 512 L 351.841 512 C 357.954 512 364.072 512.006 370.185 511.962 C 375.336 511.933 380.483 511.872 385.636 511.735 C 396.859 511.435 408.174 510.77 419.275 508.774 C 430.531 506.752 441.009 503.45 451.235 498.246 C 461.29 493.126 470.488 486.44 478.462 478.461 C 486.438 470.487 493.125 461.293 498.239 451.24 C 503.449 441.007 506.756 430.523 508.778 419.259 C 510.771 408.17 511.434 396.851 511.734 385.631 C 511.875 380.485 511.932 375.339 511.963 370.189 C 512.003 364.069 512 357.958 512 351.839 L 512 160.159 C 512 154.045 512.003 147.929 511.964 141.814 Z " fill="rgb(240,81,56)"/><path d=" M 405.703 316.046 C 405.691 316.031 405.679 316.02 405.667 316.005 C 406.233 314.077 406.817 312.162 407.313 310.186 C 428.564 225.521 376.7 125.425 288.935 72.721 C 327.395 124.859 344.401 188.01 329.292 243.237 C 327.944 248.163 326.325 252.891 324.534 257.486 C 322.591 256.209 320.143 254.76 316.855 252.947 C 316.855 252.947 229.552 199.043 134.93 103.701 C 132.448 101.198 185.387 179.366 245.466 242.841 C 217.16 226.955 138.276 169.56 88.337 123.853 C 94.473 134.085 101.77 143.938 109.792 153.424 C 151.495 206.312 205.882 271.567 271.039 321.676 C 225.259 349.692 160.571 351.87 96.163 321.705 C 80.233 314.24 65.257 305.232 51.393 294.997 C 78.657 338.606 120.647 376.23 171.752 398.195 C 232.697 424.386 293.302 422.611 338.441 398.625 L 338.406 398.676 C 338.612 398.546 338.874 398.404 339.088 398.272 C 340.941 397.276 342.781 396.261 344.58 395.189 C 366.268 383.932 409.105 372.511 432.097 417.248 C 437.728 428.197 449.694 370.175 405.703 316.046 Z " fill="rgb(255,255,255)"/></g></svg>