<?xml version="1.0" encoding="UTF-8" standalone="no"?><!-- Generator: Gravit.io --><svg xmlns="http://www.w3.org/2000/svg" xmlns:xlink="http://www.w3.org/1999/xlink" style="isolation:isolate" viewBox="0 0 512 512" width="512pt" height="512pt"><defs><clipPath id="_clipPath_seK7UPa9Lp8ZYxyNP2Q52eYqjgJkWIbF"><rect width="512" height="512"/></clipPath></defs><g clip-path="url(#_clipPath_seK7UPa9Lp8ZYxyNP2Q52eYqjgJkWIbF)"><circle vector-effect="non-scaling-stroke" cx="256" cy="256" r="256" fill="rgb(27,27,29)" /><path d=" M 168.319 242.393 C 168.319 235.121 162.468 229.264 155.314 229.264 L 148.865 229.264 L 148.865 255.406 L 155.314 255.406 C 162.468 255.406 168.319 249.546 168.319 242.393 Z  M 197.657 294.509 L 173.982 294.509 L 155.186 268.425 L 148.865 268.425 L 148.865 294.453 L 128 294.453 L 128 216.259 L 157.89 216.259 C 175.121 216.259 189.186 227.976 189.186 242.393 C 189.186 251.186 183.794 259.04 175.588 263.845 L 197.657 294.509 Z  M 221.188 247.086 C 215.678 247.086 210.991 254.575 210.991 263.847 C 210.991 273.118 215.678 280.617 221.188 280.617 C 226.825 280.617 231.505 273.118 231.505 263.847 C 231.505 254.575 226.825 247.086 221.188 247.086 Z  M 253.303 263.847 C 253.303 281.558 238.899 295.741 221.188 295.741 C 203.482 295.741 189.185 281.558 189.185 263.847 C 189.185 246.149 203.482 231.958 221.188 231.958 C 238.899 231.958 253.303 246.149 253.303 263.847 Z  M 302.265 233.255 L 278.23 257.286 L 278.23 233.176 L 257.37 233.176 L 257.37 294.452 L 278.23 294.452 L 278.23 269.596 L 303.323 294.452 L 329.579 294.452 L 297.693 262.562 L 324.104 236.16 L 324.104 272.525 C 324.104 284.598 331.365 295.74 349.65 295.74 C 358.33 295.74 366.296 290.817 370.168 286.363 L 379.547 294.452 L 384 294.452 L 384 233.255 L 363.139 233.255 L 363.139 265.138 L 363.139 272.877 C 360.79 276.977 357.517 279.555 352.458 279.555 C 347.326 279.555 344.971 276.512 344.971 266.78 L 344.971 264.212 L 344.971 233.255 L 302.265 233.255 Z " fill-rule="evenodd" fill="rgb(255,255,255)"/></g></svg>