<?xml version="1.0" encoding="UTF-8" standalone="no"?><!-- Generator: Gravit.io --><svg xmlns="http://www.w3.org/2000/svg" xmlns:xlink="http://www.w3.org/1999/xlink" style="isolation:isolate" viewBox="0 0 512 512" width="512pt" height="512pt"><defs><clipPath id="_clipPath_2cNh9zxhSDCBOxuCvFAtfvWJBDNOKKud"><rect width="512" height="512"/></clipPath></defs><g clip-path="url(#_clipPath_2cNh9zxhSDCBOxuCvFAtfvWJBDNOKKud)"><path d="M 477.714 383.995 L 256.005 512 L 34.286 383.995 L 34.286 127.985 L 256.005 0 L 477.714 127.985 L 477.714 383.995 Z" fill-rule="evenodd" fill="rgb(0,0,128)" /><path d=" M 307.907 176.683 C 317.206 172.116 321.814 172.715 321.917 177.344 C 322.042 183.358 321.153 191.354 320.512 197.14 C 317.061 228.588 311.296 254.286 310.862 286.575 C 326.05 247.256 338.779 219.928 355.186 186.271 C 360.393 175.546 363.72 177.551 367.997 175.65 C 384.652 168.232 385.272 172.777 383.102 181.849 C 375.023 215.448 354.338 321.238 351.177 337.528 C 350.267 342.241 345.143 340.243 343.82 338.4 C 337.89 330.196 331.195 330.068 331.939 324.613 C 335.658 297.454 349.048 229.314 352.541 213.258 C 334.749 249.733 316.296 295.332 306.812 321.187 C 304.807 326.677 301.15 326.274 298.877 322.257 C 295.674 316.614 289.454 313.733 288.421 307.065 C 285.177 285.864 292.14 245.454 293.111 219.889 C 283.42 247.816 267.158 302.035 260.029 326.532 C 257.095 336.668 247.3 335.014 249.903 325.135 C 260.731 284.025 284.061 211.315 294.145 185.176 C 296.522 179.018 302.741 179.224 307.907 176.683 Z  M 248.85 171.641 C 245.71 170.876 236.597 175.794 230.997 176.765 C 229.22 177.075 227.525 178.955 226.926 180.299 C 217.958 200.901 209.92 220.539 202.956 238.43 C 194.05 239.951 183.636 241.953 171.981 244.571 C 180.329 223.157 188.76 202.037 196.984 181.724 C 201.034 171.723 190.372 170.773 186.239 180.898 C 180.866 194.061 170.803 218.723 159.665 247.468 C 151.482 249.475 142.804 251.768 133.732 254.389 C 127.14 256.292 126.872 258.048 129.724 262.001 C 131.294 264.202 134.538 263.98 136.026 265.549 C 139.869 269.614 142.205 274.476 149.085 275.211 C 142.948 291.629 136.811 308.559 131.252 324.86 C 127.76 335.093 137.7 337.186 141.522 326.358 C 147.68 308.903 154.169 291.238 160.843 273.624 C 166.401 272.332 179.853 269.435 192.272 266.741 C 182.416 293.756 175.927 314.274 173.468 324.26 C 173.014 326.182 173.778 327.248 174.192 328.032 C 177.518 332.873 180.68 333.071 184.957 339.057 C 186.115 340.69 190 341.57 191.322 337.551 C 200.455 309.963 209.857 284.077 218.619 260.872 C 222.255 260.076 228.806 258.496 232.814 252.513 C 239.943 241.896 241.989 244.049 243.704 240.822 C 245.853 236.77 244.427 232.965 236.824 233.905 C 236.824 233.905 233.951 234.11 228.64 234.715 C 237.071 213.008 244.448 194.597 249.759 180.566 C 251.578 175.815 251.805 172.343 248.85 171.641 Z " fill-rule="evenodd" fill="rgb(255,255,255)"/><path d=" M 236.411 312.431 C 238.374 317.392 244.511 315.89 242.176 309.902 C 239.799 303.801 233.89 285.438 232.34 279.521 C 230.232 271.55 239.366 273.73 234.737 278.941 C 230.77 283.423 228.124 285.219 220.789 293.74 C 213.701 301.967 215.623 312.642 223.207 315 C 231.761 317.661 239.304 308.234 243.974 301.318 C 248.499 294.621 244.118 290.693 239.552 294.652 C 236.617 297.198 233.228 301.107 229.798 303.215 C 227.008 304.912 224.818 303.089 228.538 297.969 C 232.856 292.04 237.692 287.073 241.287 281.471 C 248.623 270.054 234.117 263.473 227.876 270.889 C 224.528 274.842 225.376 278.723 226.285 282.053 C 227.753 287.389 233.208 304.42 236.411 312.431 Z " fill="rgb(255,255,255)"/></g></svg>