<?xml version="1.0" encoding="UTF-8" standalone="no"?><!-- Generator: Gravit.io --><svg xmlns="http://www.w3.org/2000/svg" xmlns:xlink="http://www.w3.org/1999/xlink" style="isolation:isolate" viewBox="0 0 512 512" width="512pt" height="512pt"><defs><clipPath id="_clipPath_RsgTh91Ofush8FB77nTSWqjrzFXULt1T"><rect width="512" height="512"/></clipPath></defs><g clip-path="url(#_clipPath_RsgTh91Ofush8FB77nTSWqjrzFXULt1T)"><path d="M 477.714 383.995 L 256.005 512 L 34.286 383.995 L 34.286 127.985 L 256.005 0 L 477.714 127.985 L 477.714 383.995 Z" fill-rule="evenodd" fill="rgb(0,0,128)" /><path d=" M 354.043 315.37 C 354.043 325.174 351.864 333.889 347.506 341.515 C 343.149 350.229 336.612 356.766 328.988 363.302 C 321.362 369.838 311.557 375.286 300.663 378.554 C 289.771 381.822 277.787 384 264.715 384 C 252.732 384 241.838 382.91 233.123 381.822 C 223.319 380.732 214.604 378.554 205.889 376.374 C 197.174 374.196 189.549 369.838 181.923 366.57 C 174.298 362.213 166.672 356.766 157.957 351.319 L 196.085 317.549 C 206.979 326.264 217.872 331.711 228.766 334.979 C 239.66 338.247 250.553 340.425 262.536 340.425 C 267.983 340.425 272.34 339.337 276.698 338.247 C 281.055 337.157 285.413 334.979 288.681 332.8 C 291.949 330.621 294.127 327.353 296.307 325.174 C 298.485 321.906 299.575 318.638 299.575 315.37 C 299.575 311.012 298.485 307.744 297.395 304.476 C 296.307 301.208 293.039 297.94 288.681 295.762 C 284.323 292.494 278.877 290.315 271.251 287.047 C 263.626 283.779 254.911 280.511 242.928 277.243 C 233.123 273.975 223.319 270.707 213.515 266.349 C 203.711 261.991 196.085 256.545 189.549 251.098 C 183.013 245.651 176.477 238.026 173.208 230.4 C 167.762 220.596 165.583 210.791 165.583 199.898 C 165.583 189.004 167.762 179.2 172.119 170.485 C 176.477 161.77 183.013 154.145 191.728 147.608 C 199.353 142.162 209.157 136.715 220.051 133.447 C 230.945 130.179 242.928 128 254.911 128 C 275.609 128 294.127 130.179 308.289 135.626 C 322.451 141.072 335.524 147.608 346.417 157.413 L 309.379 191.183 C 302.843 185.736 295.217 180.289 286.503 177.021 C 277.787 173.753 267.983 172.664 257.089 172.664 C 251.643 172.664 247.285 173.753 242.928 174.843 C 237.481 175.932 234.213 178.111 230.945 180.289 C 227.677 182.468 225.498 185.736 223.319 189.004 C 221.14 192.272 220.051 195.54 220.051 198.809 C 220.051 203.166 221.14 206.434 223.319 209.702 C 224.409 212.97 227.677 215.149 232.034 218.417 C 236.391 221.685 241.838 223.864 249.464 227.132 C 257.089 230.4 265.804 233.668 276.698 236.936 C 290.859 241.294 301.753 245.651 311.557 251.098 C 321.362 256.545 328.988 261.991 335.524 268.527 C 342.06 275.063 346.417 281.6 349.685 289.226 C 352.953 296.851 354.043 305.566 354.043 315.37 Z " fill="rgb(255,255,255)"/></g></svg>