<?xml version="1.0" encoding="UTF-8" standalone="no"?><!-- Generator: Gravit.io --><svg xmlns="http://www.w3.org/2000/svg" xmlns:xlink="http://www.w3.org/1999/xlink" style="isolation:isolate" viewBox="0 0 512 512" width="512pt" height="512pt"><defs><clipPath id="_clipPath_uRSfOyYSb3C2DoktU6wO45M1wqZ5F0EW"><rect width="512" height="512"/></clipPath></defs><g clip-path="url(#_clipPath_uRSfOyYSb3C2DoktU6wO45M1wqZ5F0EW)"><circle vector-effect="non-scaling-stroke" cx="256" cy="256" r="256" fill="rgb(27,27,29)" /><g><path d=" M 285.217 133.643 C 309.364 121.06 339.26 130.226 351.969 154.123 C 364.677 178.019 355.406 207.582 331.26 220.166 L 311.405 230.604 C 328.51 231.229 344.823 240.625 353.365 256.688 C 366.073 280.584 356.823 310.147 332.656 322.731 L 226.779 378.357 C 202.632 390.94 172.736 381.774 160.027 357.877 C 147.319 333.981 156.59 304.418 180.736 291.834 L 200.591 281.396 C 183.486 280.771 167.173 271.375 158.631 255.312 C 145.923 231.416 155.194 201.853 179.34 189.269 L 285.217 133.643 Z  M 228.07 216.603 L 292.155 256.167 L 228.07 295.543 L 228.07 216.603 Z " fill="rgb(102,0,51)"/><path d=" M 228.07 216.603 L 228.07 295.543 L 292.155 256.167 L 228.07 216.603 Z " fill="rgb(27,27,29)"/></g></g></svg>