<?xml version="1.0" encoding="UTF-8" standalone="no"?><!-- Generator: Gravit.io --><svg xmlns="http://www.w3.org/2000/svg" xmlns:xlink="http://www.w3.org/1999/xlink" style="isolation:isolate" viewBox="0 0 512 512" width="512pt" height="512pt"><defs><clipPath id="_clipPath_2rELa9tuwXHoda4xlwalwJIO0dVooEiy"><rect width="512" height="512"/></clipPath></defs><g clip-path="url(#_clipPath_2rELa9tuwXHoda4xlwalwJIO0dVooEiy)"><rect x="0" y="0" width="512" height="512" transform="matrix(1,0,0,1,0,0)" fill="rgb(0,0,128)"/><path d=" M 344.856 174.286 C 328.285 166.606 310.566 161.024 292.041 157.845 C 289.766 161.92 287.108 167.4 285.276 171.76 C 265.584 168.826 246.073 168.826 226.743 171.76 C 224.911 167.4 222.192 161.92 219.897 157.845 C 201.352 161.024 183.613 166.626 167.042 174.327 C 133.617 224.362 124.557 273.154 129.087 321.253 C 151.256 337.653 172.74 347.615 193.862 354.134 C 199.077 347.024 203.728 339.466 207.735 331.5 C 200.104 328.628 192.795 325.083 185.889 320.968 C 187.721 319.623 189.513 318.217 191.245 316.771 C 233.367 336.288 279.135 336.288 320.754 316.771 C 322.506 318.217 324.298 319.623 326.11 320.968 C 319.184 325.103 311.855 328.648 304.223 331.521 C 308.23 339.466 312.862 347.045 318.096 354.155 C 339.239 347.635 360.743 337.673 382.912 321.253 C 388.228 265.494 373.831 217.15 344.856 174.286 Z  M 213.474 291.672 C 200.829 291.672 190.459 279.978 190.459 265.738 C 190.459 251.498 200.607 239.784 213.474 239.784 C 226.34 239.784 236.71 251.477 236.488 265.738 C 236.509 279.978 226.34 291.672 213.474 291.672 Z  M 298.525 291.672 C 285.88 291.672 275.511 279.978 275.511 265.738 C 275.511 251.498 285.659 239.784 298.525 239.784 C 311.392 239.784 321.761 251.477 321.54 265.738 C 321.54 279.978 311.392 291.672 298.525 291.672 Z " fill="rgb(255,255,255)"/></g></svg>