<?xml version="1.0" encoding="UTF-8" standalone="no"?><!-- Generator: Gravit.io --><svg xmlns="http://www.w3.org/2000/svg" xmlns:xlink="http://www.w3.org/1999/xlink" style="isolation:isolate" viewBox="0 0 512 512" width="512pt" height="512pt"><defs><clipPath id="_clipPath_xFw6agc17dppMfLQ4jOJ4FqNrUNaQy6e"><rect width="512" height="512"/></clipPath></defs><g clip-path="url(#_clipPath_xFw6agc17dppMfLQ4jOJ4FqNrUNaQy6e)"><path d="M 477.714 383.995 L 256.005 512 L 34.286 383.995 L 34.286 127.985 L 256.005 0 L 477.714 127.985 L 477.714 383.995 Z" fill-rule="evenodd" fill="rgb(27,27,29)" /><path d=" M 128.017 321.493 L 128.017 189.862 C 127.887 189.087 128.533 188.313 129.307 188.184 L 129.436 188.184 C 131.372 188.055 134.34 187.926 138.082 187.926 C 141.954 187.797 146.342 187.797 151.504 187.668 C 156.666 187.539 162.086 187.539 167.893 187.539 C 183.637 187.539 196.8 190.378 207.124 196.056 C 217.061 201.347 225.192 209.477 230.483 219.414 C 235.645 229.351 238.226 240.708 238.226 253.613 C 238.355 262.646 237.064 271.551 234.225 280.068 C 231.773 287.295 228.031 294.005 223.127 299.942 C 218.61 305.362 213.19 310.008 207.253 313.75 C 201.446 317.363 194.994 320.074 188.283 321.88 C 181.831 323.558 175.12 324.461 168.409 324.461 L 153.827 324.461 C 148.665 324.461 143.761 324.461 139.373 324.332 C 134.856 324.203 131.501 324.203 129.307 324.074 C 128.404 324.074 128.017 323.3 128.017 322.009 L 128.017 321.493 Z  M 155.246 212.575 L 155.246 298.651 C 156.666 298.651 157.956 298.651 159.247 298.78 C 160.408 298.909 161.699 298.909 162.86 299.038 C 164.151 299.167 165.57 299.167 167.119 299.167 C 173.055 299.296 178.991 298.264 184.67 296.199 C 189.832 294.393 194.348 291.424 198.22 287.424 C 202.091 283.294 205.06 278.39 206.866 273.099 C 208.931 266.905 209.964 260.323 209.964 253.742 C 210.093 247.547 209.06 241.353 206.995 235.546 C 203.382 225.48 195.252 217.737 184.928 214.639 C 179.379 212.962 173.7 212.058 167.893 212.187 C 165.312 212.187 163.118 212.187 161.312 212.316 C 159.505 212.316 157.44 212.445 155.246 212.575 L 155.246 212.575 Z  M 354.113 322.784 L 329.98 322.784 C 329.464 322.913 328.819 322.655 328.432 322.267 C 328.045 321.751 327.787 321.235 327.658 320.719 C 325.206 310.395 323.141 301.103 321.463 293.231 C 319.785 285.23 318.366 278.519 317.334 272.97 C 316.301 267.421 315.398 262.775 314.623 258.904 C 313.978 255.032 313.333 251.806 312.946 249.096 L 312.817 249.096 C 311.526 254.774 310.365 260.323 309.203 265.614 C 308.171 270.905 306.88 276.325 305.59 281.746 C 304.299 287.166 302.88 293.102 301.202 299.555 C 299.654 306.007 297.847 313.105 295.911 320.719 C 295.653 322.138 295.008 322.784 293.846 322.784 L 269.714 322.784 C 269.069 322.913 268.423 322.655 267.907 322.396 C 267.52 322.009 267.262 321.493 267.004 320.977 L 241.839 221.221 C 241.452 220.059 241.968 219.543 243.388 219.543 L 267.778 219.543 C 268.94 219.543 269.585 219.93 269.714 220.834 C 272.295 232.19 274.489 241.998 276.166 250.257 C 277.844 258.516 279.264 265.485 280.167 271.292 C 281.07 277.1 281.974 281.875 282.619 285.488 C 283.264 289.101 283.78 292.199 284.168 294.522 L 284.555 294.522 C 284.813 292.457 285.071 290.521 285.458 288.456 C 285.974 286.004 286.62 282.778 287.394 278.777 C 288.168 274.777 289.071 270.131 290.233 264.711 C 291.394 259.291 292.685 253.096 294.234 245.87 C 295.653 238.772 297.718 230.642 300.17 221.479 C 300.17 220.963 300.428 220.318 300.686 219.801 C 300.815 219.543 301.331 219.414 302.106 219.414 L 327.399 219.414 C 328.174 219.414 328.561 219.93 328.69 220.834 C 330.884 230.254 332.691 238.514 334.239 245.611 C 335.659 252.709 336.949 259.033 338.111 264.582 C 339.143 270.002 340.046 274.777 340.563 278.648 C 341.079 282.649 341.724 285.875 342.24 288.585 C 342.627 290.779 343.015 292.973 343.144 295.167 L 343.531 295.167 C 344.176 292.586 344.692 289.489 345.208 286.004 C 345.725 282.52 346.37 278.648 347.273 274.261 C 348.048 269.873 348.951 265.098 349.983 259.807 C 350.887 254.516 352.177 248.709 353.597 242.127 C 355.016 235.675 356.565 228.577 358.372 220.963 C 358.63 219.801 359.146 219.285 360.049 219.285 L 382.633 219.285 C 383.795 219.285 384.182 219.93 383.924 221.092 L 356.049 320.59 C 355.92 321.106 355.662 321.622 355.274 322.009 C 355.274 322.655 354.758 322.913 354.113 322.784 L 354.113 322.784 Z " fill-rule="evenodd" fill="rgb(255,255,255)"/></g></svg>