<?xml version="1.0" encoding="UTF-8" standalone="no"?><!-- Generator: Gravit.io --><svg xmlns="http://www.w3.org/2000/svg" xmlns:xlink="http://www.w3.org/1999/xlink" style="isolation:isolate" viewBox="0 0 512 512" width="512pt" height="512pt"><defs><clipPath id="_clipPath_meukMWzC2uuKLPoiaDArmoc0V9N7E0VV"><rect width="512" height="512"/></clipPath></defs><g clip-path="url(#_clipPath_meukMWzC2uuKLPoiaDArmoc0V9N7E0VV)"><path d="M 477.714 383.995 L 256.005 512 L 34.286 383.995 L 34.286 127.985 L 256.005 0 L 477.714 127.985 L 477.714 383.995 Z" fill-rule="evenodd" fill="rgb(17,17,132)" /><path d=" M 372.268 384 C 374.696 377.415 376.889 370.385 378.691 363.238 C 382.19 348.733 384 333.71 384 318.407 C 384 309.573 383.387 300.834 382.209 292.234 C 381.341 304.765 379.154 315.747 379.154 315.747 C 379.668 317.402 380.578 320.121 381.002 321.798 L 381 321.805 C 379.646 334.74 377.201 347.307 373.778 359.393 C 372.131 353.322 369.92 347.479 369.777 347.102 C 369.773 347.094 369.771 347.087 369.77 347.081 C 365.332 358.898 358.7 372.811 352.676 384 L 372.268 384 Z  M 331.194 384 L 342.519 384 C 374.759 336.412 376.38 294.236 376.38 286.155 C 376.38 270.89 373.813 256.865 369.524 245.759 C 369.524 245.759 362.832 228.498 352.416 213.139 C 353.554 216.571 355.737 223.53 356.946 229.745 C 357.025 230.159 357.09 230.525 357.148 230.864 C 359.2 234.283 368.456 250.59 369.694 268.524 C 369.696 268.555 369.698 268.577 369.698 268.577 C 369.698 268.577 363.158 259.424 358.308 253.64 C 358.134 263.498 356.853 273.361 354.788 282.888 C 354.788 282.888 364.477 294.101 368.813 301.333 C 368.813 301.333 365.865 317.107 359.544 332.222 C 353.113 322.876 344.899 313.798 344.899 313.798 C 340.093 325.67 334.007 337.616 327.249 348.663 C 327.249 348.663 339.527 363.019 342.221 367.113 C 338.615 373.179 335.099 378.46 331.194 384 Z  M 290.84 384 C 312.236 360.088 330.467 331.961 341.418 301.844 C 350.92 275.715 356.094 243.802 347.68 215.417 C 347.116 213.544 346.483 211.656 345.745 209.757 C 343.056 202.815 339.568 196.761 335.772 192.005 C 325.541 180.577 313.955 170.394 301.257 161.725 C 303.124 164.129 304.828 166.605 306.305 169.116 C 306.305 169.116 321.764 180.576 330.739 192.218 C 319.225 184.022 312.707 180.705 311.862 180.285 C 311.83 180.27 311.795 180.256 311.766 180.239 C 316.138 191.01 317.454 199.931 317.456 199.946 C 317.456 199.946 331.116 207.069 343.415 217.71 C 345.117 225.579 345.82 233.641 345.706 241.713 C 333.311 230.815 318.966 222.306 318.966 222.306 C 318.703 231.533 317.426 240.879 315.396 249.964 C 315.396 249.964 328.942 258.534 342.142 270.55 C 342.142 270.55 338.352 287.577 332.236 300.967 C 319.571 289.186 307.223 280.018 306.249 279.3 C 306.249 279.3 299.961 295.684 289.778 312.127 C 302.457 323.15 314.375 334.576 314.375 334.576 C 307.095 345.926 298.856 356.732 289.97 366.836 L 289.967 366.845 L 267.285 344.276 C 258.069 355.671 247.966 366.407 237.236 376.289 C 237.745 376.862 242.318 381.927 244.189 384 L 290.84 384 Z  M 296.66 164.245 C 295.192 162.241 293.532 160.197 291.628 158.378 C 289.959 156.786 288.331 155.349 286.617 154.058 C 267.744 139.84 233.012 132.73 233.012 132.73 C 236.326 134.496 239.085 136.306 239.102 136.319 C 239.268 136.36 253.271 139.868 265.691 145.939 C 265.691 145.939 254.392 143.374 247.146 142.375 C 250.142 145.005 252.988 148.032 255.482 151.194 C 255.482 151.194 278.528 155.395 288.647 160.939 C 288.647 160.939 293.49 165.919 297.45 174.654 C 281.654 168.247 263.767 164.905 263.767 164.905 C 266.141 170.222 267.842 175.915 268.884 181.84 C 268.884 181.84 288.549 186.65 303.327 193.739 C 304.604 200.751 305.072 208 304.802 215.334 C 287.348 206.589 270.023 201.097 270.023 201.097 C 269.674 208.657 268.458 216.491 266.415 224.495 C 266.415 224.495 290.244 235.129 300.953 241.585 C 298.588 251.038 295.268 260.296 291.278 269.211 C 274.97 258.623 257.707 249.207 257.707 249.207 C 253.371 259.612 242.704 276.654 242.704 276.654 L 242.706 276.656 L 242.706 276.654 L 242.716 276.661 C 242.984 276.846 260.736 289.023 274.354 299.829 C 267.588 310.074 259.96 319.913 251.659 329.266 C 248.795 326.53 222.625 303.315 222.625 303.315 C 214.727 312.467 205.931 321.381 196.303 329.915 C 196.303 329.915 196.305 329.919 196.309 329.921 L 221.535 358.452 C 221.538 358.453 221.54 358.453 221.542 358.455 L 221.54 358.459 C 205.176 371.923 188.864 382.125 188.864 382.125 L 167.813 352.262 C 167.813 352.262 153.001 363.522 128.001 375.346 L 128.001 384 L 210.099 384 C 301.736 314.717 334.255 215.648 296.66 164.245 Z  M 250.179 153.85 C 227.418 123.239 191.794 127.612 181.17 129.097 C 169.501 130.732 160.679 133.283 160.679 133.283 C 163.287 133.528 166.836 133.994 169.397 134.502 C 171.286 134.058 187.665 130.327 199.57 131.885 C 199.588 131.885 199.605 131.887 199.605 131.887 C 190.856 132.836 178.92 136.442 177.674 136.823 C 177.661 136.826 177.658 136.834 177.645 136.839 C 177.658 136.845 177.669 136.85 177.682 136.854 C 178.111 136.98 181.551 138.023 185.965 140.61 C 187.254 140.264 203.461 135.968 218.917 135.665 L 218.917 135.669 C 218.917 135.669 224.627 138.2 230.131 141.975 C 210.16 141.899 193.628 145.73 193.18 145.836 C 195.519 147.908 197.845 150.403 199.934 153.4 C 221.826 150.124 240.716 151.544 240.716 151.544 C 240.716 151.544 243.284 154.675 244.439 156.357 C 245.897 158.476 247.388 161.11 248.545 163.423 C 226.202 160.812 204.831 162.68 204.816 162.68 C 206.291 166.481 207.288 170.548 207.834 174.823 C 210.304 174.805 229.228 174.84 253.33 179.176 C 254.1 184.698 254.178 190.613 253.571 196.856 C 249.474 195.791 229.685 190.852 208.093 188.71 C 207.658 194.102 206.631 199.716 205.053 205.473 C 207.469 206.042 234.146 212.396 249.089 218.445 C 248.8 219.382 248.497 220.324 248.182 221.27 C 246.043 227.681 243.369 234.118 240.205 240.535 C 228.173 234.616 198.668 223.09 198.668 223.09 C 195.719 229.684 192.112 236.359 187.897 243.022 C 187.897 243.022 213.193 257.447 225.377 265.434 C 219.751 273.465 213.398 281.35 206.392 288.97 C 197.558 281.05 175.457 263.938 173.788 262.647 C 166.66 271.127 157.683 280.046 154.995 282.683 L 181.516 313.072 C 181.272 313.292 181.016 313.516 180.757 313.741 C 175.017 318.495 168.835 322.97 163.609 326.558 C 159.073 329.637 155.33 332.022 154.036 332.854 C 153.729 332.386 136.364 304.68 133.755 300.272 C 131.847 301.685 129.924 303.036 128.001 304.364 L 128.001 361.32 C 131.121 359.817 134.249 358.26 137.367 356.605 C 152.319 349.247 166.83 339.911 180.335 329.124 C 188.99 322.257 198.069 314.2 207.031 304.899 C 217.679 293.985 226.926 282.551 234.644 270.966 C 263.897 227.822 271.732 182.837 250.179 153.85 Z  M 191.137 151.543 C 180.297 139.113 162.258 134.856 141.298 137.85 C 140.728 137.935 140.134 138.015 139.599 138.105 C 138 138.375 136.381 138.701 134.749 139.061 C 131.512 139.812 129.295 140.552 128 141.053 L 128 147.321 C 130.065 145.696 132.171 144.148 134.342 142.695 C 138.518 141.802 142.576 141.232 146.488 140.977 C 140.435 144.429 133.45 149.111 128 153.437 L 128 158.261 L 128.189 158.372 C 128.189 158.372 143.552 146.221 155.758 140.984 C 158.7 141.197 161.518 141.607 164.203 142.223 C 145.965 149.955 132.499 159.544 131.566 160.217 C 133.437 161.325 135.145 162.714 135.369 162.897 C 135.604 162.749 153.287 151.698 172.747 145.075 C 175.388 146.28 177.94 147.782 180.145 149.481 C 158.957 155.432 138.587 166.057 138.587 166.057 C 139.734 167.392 140.746 168.835 141.62 170.379 C 141.757 170.323 141.884 170.273 141.982 170.234 C 163.67 160.959 186.717 156.203 186.717 156.203 C 188.519 158.67 190.003 161.425 191.137 164.461 C 191.137 164.461 170.456 166.824 143.85 175.351 C 145.025 179.025 145.347 181.786 145.348 181.812 C 145.348 181.812 170.43 176.205 193.562 175.584 C 193.884 179.297 193.769 183.465 193.236 187.74 C 179.537 187.019 146.907 188.754 145.624 188.854 C 145.624 188.854 145.506 193.552 144.284 197.972 C 144.284 197.972 168.126 198.735 189.814 202.778 C 188.138 207.966 185.997 213.085 183.458 218.081 C 169.003 213.743 147.069 208.475 141.298 207.151 C 139.778 210.888 137.871 214.598 135.607 218.189 C 135.607 218.189 162.408 229.877 172.693 235.593 L 172.716 235.593 L 172.71 235.604 C 168.247 242.283 159.398 251.633 159.398 251.633 C 156.831 249.713 154.403 247.921 152.114 246.244 C 145.006 241.275 134.462 233.897 128.054 229.439 C 128.022 229.419 128.02 229.417 128 229.404 L 128 251.549 L 141.899 267.774 C 137.321 271.461 132.656 274.821 128 277.837 L 128 291.051 C 128.172 290.94 128.342 290.831 128.511 290.718 C 134.86 286.399 141.133 281.585 147.243 276.273 C 195.201 234.574 214.852 178.729 191.137 151.543 Z  M 128.001 215.013 C 140.251 197.582 142.024 177.578 131.267 167.813 C 130.255 166.895 129.159 166.11 128.001 165.431 L 128.001 215.013 Z " fill-rule="evenodd" fill="rgb(255,255,255)"/></g></svg>