<?xml version="1.0" encoding="UTF-8" standalone="no"?><!-- Generator: Gravit.io --><svg xmlns="http://www.w3.org/2000/svg" xmlns:xlink="http://www.w3.org/1999/xlink" style="isolation:isolate" viewBox="0 0 512 512" width="512pt" height="512pt"><defs><clipPath id="_clipPath_XIBb9bhAn0wE1qImQWQmpkSVAO0JeC4d"><rect width="512" height="512"/></clipPath></defs><g clip-path="url(#_clipPath_XIBb9bhAn0wE1qImQWQmpkSVAO0JeC4d)"><path d="M 477.714 383.995 L 256.005 512 L 34.286 383.995 L 34.286 127.985 L 256.005 0 L 477.714 127.985 L 477.714 383.995 Z" fill-rule="evenodd" fill="rgb(27,27,29)" /><path d=" M 225.62 219.545 L 225.622 219.536 L 279.363 251.726 L 311.387 238.25 L 311.388 238.256 C 317.895 235.442 324.911 233.994 332 234.001 C 333.181 234.001 334.349 234.055 335.51 234.132 C 327.644 203.46 302.427 180.313 271.195 175.095 C 239.962 169.877 208.591 183.572 191.182 210.022 C 191.456 210.019 191.726 210.001 192 210.001 C 203.877 209.985 215.522 213.291 225.62 219.545 Z  M 225.622 219.536 L 225.62 219.545 C 215.522 213.291 203.877 209.985 192 210.001 C 191.726 210.001 191.456 210.019 191.182 210.022 C 167.493 210.315 145.905 223.677 135.075 244.748 C 124.246 265.819 125.948 291.15 139.499 310.583 L 186.891 290.64 L 207.958 281.775 L 254.866 262.035 L 279.363 251.726 L 225.622 219.536 Z  M 335.51 234.132 C 334.349 234.055 333.181 234.001 332 234.001 C 324.911 233.994 317.895 235.442 311.388 238.256 L 311.387 238.25 L 279.363 251.726 L 288.649 257.288 L 319.089 275.521 L 332.37 283.476 L 377.78 310.677 C 386.165 295.112 386.067 276.354 377.52 260.877 C 368.974 245.401 353.149 235.327 335.51 234.133 L 335.51 234.132 Z  M 332.37 283.476 L 319.089 275.521 L 288.649 257.289 L 279.363 251.726 L 254.866 262.035 L 207.958 281.775 L 186.891 290.64 L 139.499 310.583 C 151.453 327.77 171.065 338.012 192 338.001 L 332 338.001 C 351.124 338.007 368.708 327.512 377.78 310.677 L 332.37 283.476 Z " fill-rule="evenodd" fill="rgb(102,0,51)"/></g></svg>