<svg width="200" height="200" viewBox="0 0 200 200" fill="none" xmlns="http://www.w3.org/2000/svg">
<path d="M6 0H194V3H197V6H200V194H197V197H194V200H6V197H3V194H0V6H3V3H6V0Z" fill="#F7DD1C"/>
<path d="M103.051 121.855C103.048 121.733 103.07 121.612 103.115 121.499C103.16 121.386 103.227 121.283 103.313 121.197C103.395 121.109 103.495 121.041 103.606 120.995C103.718 120.95 103.837 120.929 103.957 120.934C104.078 120.931 104.198 120.954 104.311 120.999C104.423 121.044 104.526 121.111 104.612 121.197C104.7 121.281 104.769 121.384 104.814 121.497C104.859 121.611 104.88 121.733 104.874 121.855C104.877 121.975 104.856 122.094 104.811 122.206C104.765 122.317 104.698 122.418 104.612 122.501C104.526 122.588 104.424 122.656 104.311 122.701C104.199 122.746 104.078 122.768 103.957 122.765C103.837 122.766 103.719 122.743 103.608 122.698C103.498 122.653 103.397 122.586 103.313 122.501C103.227 122.418 103.159 122.317 103.114 122.206C103.069 122.094 103.047 121.975 103.051 121.855ZM103.258 129.825V123.927H104.645V129.825H103.258Z" fill="black"/>
<path d="M107.374 129.825H105.977V123.927H107.341V124.716C107.515 124.398 107.782 124.142 108.105 123.981C108.408 123.835 108.741 123.76 109.077 123.762C109.4 123.756 109.72 123.819 110.016 123.949C110.271 124.062 110.496 124.235 110.671 124.453C110.848 124.674 110.982 124.927 111.064 125.198C111.153 125.493 111.198 125.8 111.195 126.108V129.836H109.798V126.349C109.808 126.018 109.712 125.691 109.525 125.418C109.339 125.165 109.033 125.034 108.586 125.034C108.182 125.034 107.876 125.165 107.68 125.439C107.471 125.725 107.363 126.072 107.374 126.426V129.825V129.825Z" fill="black"/>
<path d="M115.42 129.825H114.023L111.632 123.927H113.171L114.732 128.147L116.25 123.927H117.724L115.42 129.825Z" fill="black"/>
<path d="M123.291 128.147C123.215 128.406 123.097 128.651 122.942 128.871C122.791 129.101 122.598 129.302 122.374 129.463C122.14 129.637 121.878 129.771 121.599 129.857C121.289 129.957 120.964 130.005 120.639 130C120.247 130.004 119.858 129.933 119.492 129.792C119.128 129.65 118.797 129.434 118.52 129.156C118.244 128.879 118.028 128.546 117.887 128.18C117.715 127.756 117.63 127.301 117.636 126.843C117.628 126.407 117.71 125.974 117.876 125.571C118.022 125.207 118.237 124.876 118.51 124.595C118.769 124.33 119.078 124.119 119.419 123.974C119.76 123.829 120.126 123.753 120.497 123.751C120.911 123.747 121.322 123.821 121.708 123.97C122.052 124.106 122.361 124.315 122.615 124.584C122.867 124.862 123.057 125.191 123.171 125.549C123.307 125.955 123.374 126.381 123.368 126.81C123.37 126.909 123.366 127.007 123.357 127.106C123.346 127.194 123.335 127.237 123.335 127.259H119.045C119.049 127.466 119.095 127.669 119.179 127.858C119.264 128.046 119.385 128.215 119.536 128.356C119.681 128.494 119.851 128.602 120.038 128.674C120.233 128.75 120.44 128.787 120.649 128.783C121.075 128.783 121.403 128.684 121.632 128.487C121.86 128.293 122.031 128.038 122.123 127.753L123.291 128.147ZM121.949 126.229C121.937 126.061 121.904 125.895 121.85 125.735C121.787 125.58 121.694 125.439 121.577 125.319C121.448 125.193 121.296 125.093 121.13 125.023C120.932 124.944 120.72 124.906 120.508 124.913C120.306 124.908 120.105 124.946 119.918 125.023C119.752 125.093 119.603 125.197 119.481 125.33C119.359 125.454 119.259 125.599 119.187 125.757C119.116 125.905 119.075 126.065 119.066 126.229H121.949Z" fill="black"/>
<path d="M124.918 127.884C124.939 128.15 125.056 128.399 125.246 128.586C125.442 128.783 125.726 128.893 126.108 128.893C126.403 128.893 126.621 128.827 126.763 128.696C126.833 128.637 126.89 128.563 126.927 128.48C126.965 128.396 126.984 128.305 126.981 128.213C126.984 128.058 126.925 127.908 126.818 127.797C126.671 127.665 126.488 127.581 126.294 127.555L125.42 127.358C124.896 127.248 124.503 127.029 124.241 126.722C123.981 126.421 123.841 126.035 123.848 125.637C123.847 125.383 123.903 125.132 124.012 124.902C124.122 124.672 124.278 124.467 124.47 124.299C124.671 124.123 124.9 123.982 125.147 123.883C125.418 123.775 125.708 123.723 125.999 123.729C126.349 123.716 126.699 123.776 127.025 123.905C127.273 124.008 127.502 124.153 127.702 124.332C127.865 124.485 127.999 124.667 128.095 124.869C128.173 125.029 128.228 125.199 128.259 125.374L127.08 125.714C127.057 125.62 127.028 125.529 126.992 125.44C126.949 125.33 126.886 125.23 126.807 125.144C126.713 125.05 126.602 124.975 126.479 124.924C126.324 124.858 126.156 124.828 125.988 124.837C125.767 124.828 125.551 124.898 125.377 125.034C125.303 125.091 125.244 125.165 125.202 125.248C125.161 125.331 125.138 125.423 125.136 125.516C125.134 125.589 125.146 125.662 125.172 125.729C125.199 125.797 125.238 125.859 125.289 125.911C125.411 126.024 125.563 126.1 125.726 126.13L126.621 126.317C127.178 126.437 127.593 126.656 127.877 126.974C128.156 127.283 128.308 127.687 128.302 128.104C128.304 128.334 128.255 128.562 128.16 128.772C128.067 129.001 127.926 129.207 127.746 129.375C127.546 129.57 127.308 129.719 127.047 129.814C126.732 129.929 126.399 129.984 126.064 129.978C125.695 129.987 125.328 129.923 124.984 129.792C124.715 129.688 124.467 129.535 124.252 129.342C124.071 129.178 123.923 128.981 123.815 128.761C123.727 128.587 123.671 128.397 123.652 128.202L124.918 127.884Z" fill="black"/>
<path d="M131.021 123.926H132.244V125.176H131.021V127.917C131.021 128.18 131.086 128.366 131.207 128.476C131.327 128.586 131.512 128.651 131.774 128.651C131.873 128.649 131.971 128.642 132.069 128.629C132.135 128.624 132.201 128.613 132.265 128.596V129.759C132.222 129.77 132.134 129.802 132.003 129.835C131.81 129.875 131.612 129.894 131.414 129.89C130.868 129.89 130.431 129.737 130.126 129.43C129.82 129.123 129.656 128.695 129.656 128.136V125.165H128.575V123.915H128.881C129.198 123.915 129.427 123.828 129.569 123.652C129.716 123.466 129.794 123.233 129.787 122.994V122.106H131.054V123.926H131.021Z" fill="black"/>
<path d="M133.172 129.825V123.927H134.514V124.672C134.684 124.369 134.949 124.13 135.268 123.992C135.577 123.839 135.916 123.757 136.261 123.751C136.627 123.747 136.988 123.838 137.309 124.014C137.622 124.191 137.871 124.464 138.019 124.793C138.212 124.444 138.504 124.161 138.859 123.981C139.194 123.825 139.56 123.747 139.929 123.751C140.193 123.751 140.455 123.796 140.704 123.883C140.953 123.968 141.18 124.106 141.37 124.288C141.574 124.486 141.734 124.726 141.84 124.99C141.965 125.311 142.025 125.654 142.015 125.999V129.825H140.661V126.229C140.675 125.917 140.578 125.61 140.388 125.363C140.202 125.132 139.918 125.023 139.525 125.023C139.359 125.016 139.193 125.048 139.04 125.114C138.887 125.18 138.751 125.28 138.641 125.407C138.42 125.665 138.303 125.998 138.314 126.338V129.836H136.938V126.24C136.948 125.933 136.856 125.632 136.676 125.385C136.501 125.154 136.207 125.034 135.803 125.034C135.635 125.024 135.468 125.053 135.313 125.117C135.158 125.182 135.019 125.281 134.907 125.407C134.683 125.667 134.565 126.005 134.58 126.349V129.847H133.172V129.825Z" fill="black"/>
<path d="M148.412 128.147C148.336 128.406 148.218 128.651 148.063 128.871C147.911 129.101 147.719 129.302 147.495 129.463C147.261 129.637 146.999 129.771 146.72 129.857C146.41 129.957 146.085 130.005 145.759 130C145.367 130.004 144.978 129.933 144.613 129.792C144.259 129.652 143.937 129.443 143.663 129.178C143.381 128.892 143.159 128.553 143.008 128.18C142.836 127.756 142.751 127.301 142.757 126.843C142.749 126.407 142.831 125.974 142.997 125.571C143.143 125.207 143.358 124.876 143.63 124.595C143.89 124.33 144.199 124.119 144.54 123.974C144.881 123.829 145.247 123.753 145.617 123.751C146.031 123.747 146.443 123.821 146.829 123.97C147.172 124.106 147.482 124.315 147.735 124.584C147.987 124.862 148.177 125.191 148.292 125.549C148.428 125.955 148.494 126.381 148.489 126.81C148.491 126.909 148.487 127.007 148.478 127.106C148.467 127.194 148.456 127.237 148.456 127.259H144.165C144.17 127.466 144.216 127.669 144.3 127.858C144.385 128.046 144.506 128.215 144.657 128.356C144.801 128.494 144.972 128.602 145.159 128.674C145.354 128.75 145.561 128.787 145.77 128.783C146.196 128.783 146.523 128.684 146.753 128.487C146.981 128.293 147.151 128.038 147.244 127.753L148.412 128.147ZM147.08 126.229C147.069 126.061 147.036 125.895 146.982 125.735C146.918 125.58 146.826 125.439 146.709 125.319C146.579 125.193 146.428 125.093 146.261 125.023C146.064 124.944 145.852 124.906 145.639 124.913C145.437 124.908 145.236 124.946 145.05 125.023C144.884 125.093 144.735 125.197 144.613 125.33C144.49 125.454 144.391 125.599 144.318 125.757C144.248 125.905 144.207 126.065 144.198 126.229H147.08Z" fill="black"/>
<path d="M150.737 129.825H149.34V123.927H150.705V124.716C150.878 124.398 151.145 124.142 151.469 123.981C151.772 123.835 152.104 123.76 152.441 123.762C152.763 123.756 153.083 123.819 153.379 123.949C153.635 124.062 153.859 124.235 154.035 124.453C154.212 124.674 154.345 124.927 154.428 125.198C154.517 125.493 154.561 125.8 154.559 126.108V129.836H153.161V126.349C153.171 126.018 153.076 125.691 152.888 125.418C152.703 125.165 152.397 125.034 151.949 125.034C151.545 125.034 151.24 125.165 151.043 125.439C150.834 125.725 150.726 126.072 150.737 126.426V129.825V129.825Z" fill="black"/>
<path d="M157.561 123.926H158.784V125.176H157.561V127.917C157.561 128.18 157.626 128.366 157.746 128.476C157.867 128.586 158.052 128.651 158.314 128.651C158.413 128.649 158.511 128.642 158.609 128.629C158.675 128.624 158.741 128.613 158.805 128.596V129.759C158.762 129.77 158.674 129.802 158.543 129.835C158.349 129.875 158.152 129.894 157.954 129.89C157.408 129.89 156.971 129.737 156.666 129.43C156.36 129.123 156.196 128.695 156.196 128.136V125.165H155.115V123.915H155.421C155.738 123.915 155.967 123.828 156.109 123.652C156.256 123.466 156.334 123.233 156.327 122.994V122.106H157.594V123.926H157.561Z" fill="black"/>
<path d="M160.399 127.884C160.421 128.15 160.537 128.399 160.727 128.586C160.923 128.783 161.207 128.893 161.589 128.893C161.884 128.893 162.102 128.827 162.244 128.696C162.315 128.637 162.371 128.563 162.409 128.48C162.447 128.396 162.465 128.305 162.463 128.213C162.465 128.058 162.406 127.908 162.299 127.797C162.152 127.665 161.97 127.581 161.775 127.555L160.902 127.358C160.378 127.248 159.984 127.029 159.722 126.722C159.463 126.421 159.323 126.035 159.329 125.637C159.328 125.383 159.384 125.132 159.493 124.902C159.604 124.672 159.76 124.467 159.952 124.299C160.152 124.123 160.381 123.982 160.629 123.883C160.901 123.78 161.189 123.728 161.48 123.729C161.831 123.716 162.18 123.776 162.506 123.905C162.754 124.008 162.983 124.153 163.183 124.332C163.347 124.485 163.48 124.667 163.576 124.869C163.654 125.029 163.709 125.199 163.74 125.374L162.561 125.714C162.539 125.62 162.509 125.529 162.474 125.44C162.43 125.33 162.367 125.23 162.288 125.144C162.194 125.05 162.083 124.975 161.961 124.924C161.806 124.858 161.638 124.828 161.469 124.837C161.249 124.828 161.032 124.898 160.858 125.034C160.785 125.091 160.725 125.165 160.684 125.248C160.642 125.331 160.62 125.423 160.618 125.516C160.615 125.589 160.627 125.662 160.654 125.729C160.68 125.797 160.72 125.859 160.771 125.911C160.892 126.024 161.044 126.1 161.207 126.13L162.102 126.317C162.659 126.437 163.074 126.656 163.358 126.974C163.637 127.283 163.789 127.687 163.784 128.104C163.785 128.334 163.737 128.562 163.642 128.772C163.549 129.001 163.407 129.207 163.227 129.375C163.028 129.57 162.789 129.719 162.528 129.814C162.214 129.929 161.88 129.984 161.546 129.978C161.177 129.987 160.81 129.923 160.465 129.792C160.196 129.688 159.948 129.535 159.733 129.342C159.553 129.178 159.404 128.981 159.297 128.761C159.208 128.587 159.153 128.397 159.133 128.202L160.399 127.884Z" fill="black"/>
<path d="M83.3122 122.567L86.5983 115.364L76.085 93.603H82.7009L89.7753 109.225L96.3911 93.603H102.603L86.9477 128.301C84.0109 128.301 82.1004 125.264 83.3122 122.567Z" fill="black"/>
<path d="M114.579 92.8467C116.331 92.8317 118.066 93.1787 119.678 93.8662C121.193 94.4996 122.567 95.4315 123.717 96.6069C124.874 97.769 125.737 99.1394 126.392 100.718C127.047 102.297 127.353 104.062 127.353 105.947C127.353 107.833 127.047 109.598 126.392 111.177C125.737 112.799 124.874 114.17 123.717 115.332C122.564 116.503 121.191 117.435 119.678 118.072C118.064 118.755 116.33 119.101 114.579 119.092C112.843 119.101 111.123 118.754 109.525 118.072C108.004 117.45 106.628 116.516 105.485 115.332C104.335 114.142 103.439 112.728 102.854 111.177C102.199 109.554 101.893 107.833 101.893 105.947C101.893 104.062 102.199 102.297 102.854 100.718C103.472 99.1969 104.364 97.8032 105.485 96.6069C106.631 95.4256 108.006 94.4928 109.525 93.8662C111.097 93.1427 112.767 92.8467 114.579 92.8467ZM114.579 113.797C115.464 113.809 116.341 113.637 117.156 113.292C117.986 112.927 118.741 112.41 119.383 111.769C120.07 111.065 120.589 110.214 120.901 109.28C121.643 107.076 121.643 104.687 120.901 102.483C120.58 101.569 120.061 100.738 119.383 100.049C118.728 99.3915 118.018 98.8872 117.156 98.5803C116.335 98.2564 115.462 98.0855 114.579 98.076C113.695 98.064 112.818 98.2357 112.003 98.5803C111.177 98.8971 110.433 99.3996 109.83 100.049C109.185 100.764 108.671 101.588 108.313 102.483C107.909 103.448 107.702 104.566 107.702 105.882C107.702 107.153 107.909 108.315 108.313 109.28C108.717 110.245 109.219 111.111 109.83 111.769C110.446 112.417 111.185 112.935 112.003 113.292C112.826 113.611 113.698 113.782 114.579 113.797V113.797Z" fill="black"/>
<path d="M130.999 118.313V86.3455C130.998 85.7189 131.119 85.0981 131.358 84.5189C131.596 83.9396 131.946 83.4133 132.387 82.9702C132.828 82.5271 133.352 82.1759 133.929 81.9367C134.506 81.6976 135.124 81.5752 135.748 81.5767H136.862V113.687C136.856 114.909 136.37 116.08 135.509 116.944C134.648 117.809 133.483 118.297 132.265 118.302H130.999V118.313Z" fill="black"/>
<path d="M153.227 92.8467C154.978 92.8317 156.713 93.1787 158.325 93.8662C159.838 94.5037 161.211 95.4351 162.364 96.6069C163.522 97.769 164.384 99.1394 165.039 100.718C165.694 102.297 166 104.062 166 105.947C166 107.833 165.694 109.598 165.039 111.177C164.384 112.799 163.522 114.17 162.364 115.332C161.211 116.503 159.838 117.435 158.325 118.072C156.712 118.755 154.977 119.101 153.227 119.092C151.49 119.101 149.77 118.754 148.172 118.072C146.651 117.45 145.275 116.516 144.133 115.332C142.982 114.142 142.087 112.728 141.501 111.177C140.846 109.554 140.541 107.833 140.541 105.947C140.541 104.062 140.846 102.297 141.501 100.718C142.119 99.1969 143.011 97.8032 144.133 96.6069C145.278 95.4256 146.653 94.4928 148.172 93.8662C149.744 93.1427 151.414 92.8467 153.227 92.8467ZM153.227 113.797C154.111 113.809 154.988 113.637 155.803 113.292C156.633 112.927 157.388 112.41 158.03 111.769C158.696 111.111 159.188 110.3 159.548 109.28C160.29 107.076 160.29 104.687 159.548 102.483C159.227 101.569 158.709 100.738 158.03 100.049C157.375 99.3915 156.666 98.8872 155.803 98.5803C154.982 98.2564 154.109 98.0855 153.227 98.076C152.342 98.064 151.465 98.2357 150.65 98.5803C149.824 98.8971 149.081 99.3996 148.478 100.049C147.832 100.764 147.319 101.588 146.96 102.483C146.556 103.448 146.349 104.566 146.349 105.882C146.349 107.153 146.556 108.315 146.96 109.28C147.364 110.245 147.866 111.111 148.478 111.769C149.093 112.417 149.832 112.935 150.65 113.292C151.473 113.611 152.345 113.782 153.227 113.797V113.797Z" fill="black"/>
<path d="M54.1303 106.024C51.1717 105.98 48.8354 103.492 48.8354 100.532V89.5688C48.8339 89.1696 48.7232 88.7784 48.5152 88.4381C48.3073 88.0978 48.0101 87.8215 47.6563 87.6394L37.9836 82.6512C35.3634 81.2918 34.239 78.0688 35.549 75.4048C35.865 74.7622 36.3051 74.1891 36.8438 73.719C37.3825 73.249 38.009 72.8913 38.6867 72.6668C39.3645 72.4423 40.08 72.3555 40.7915 72.4115C41.5029 72.4675 42.1962 72.6652 42.8309 72.9929L57.8312 80.7327C58.3633 81.0072 58.8098 81.4235 59.1218 81.9359C59.4338 82.4484 59.5992 83.0373 59.5999 83.6379V100.619C59.5997 101.337 59.4574 102.046 59.1814 102.708C58.9053 103.369 58.501 103.969 57.992 104.472C57.483 104.975 56.8795 105.371 56.2165 105.638C55.5535 105.904 54.8443 106.036 54.1303 106.024V106.024Z" fill="white"/>
<path d="M67.897 83.0459C71.4845 83.0459 74.3928 80.1254 74.3928 76.5229C74.3928 72.9204 71.4845 70 67.897 70C64.3094 70 61.4012 72.9204 61.4012 76.5229C61.4012 80.1254 64.3094 83.0459 67.897 83.0459Z" fill="white"/>
</svg>
