<?xml version="1.0" encoding="UTF-8" standalone="no"?>
<svg
   xmlns:dc="http://purl.org/dc/elements/1.1/"
   xmlns:cc="http://creativecommons.org/ns#"
   xmlns:rdf="http://www.w3.org/1999/02/22-rdf-syntax-ns#"
   xmlns:svg="http://www.w3.org/2000/svg"
   xmlns="http://www.w3.org/2000/svg"
   xmlns:sodipodi="http://sodipodi.sourceforge.net/DTD/sodipodi-0.dtd"
   xmlns:inkscape="http://www.inkscape.org/namespaces/inkscape"
   viewBox="0 0 201.06759 252"
   height="252"
   width="201.0676"
   xml:space="preserve"
   id="svg2"
   version="1.1"
   sodipodi:docname="buriram-united-f-c-seeklogo.com.svg"
   inkscape:version="0.92.4 (5da689c313, 2019-01-14)"><sodipodi:namedview
     pagecolor="#ffffff"
     bordercolor="#666666"
     borderopacity="1"
     objecttolerance="10"
     gridtolerance="10"
     guidetolerance="10"
     inkscape:pageopacity="0"
     inkscape:pageshadow="2"
     inkscape:window-width="1366"
     inkscape:window-height="705"
     id="namedview163"
     showgrid="false"
     fit-margin-top="1"
     fit-margin-right="1e-06"
     fit-margin-bottom="1"
     fit-margin-left="1"
     inkscape:zoom="1.8405574"
     inkscape:cx="1.5706373"
     inkscape:cy="139.64686"
     inkscape:window-x="-8"
     inkscape:window-y="-8"
     inkscape:window-maximized="1"
     inkscape:current-layer="svg2" /><metadata
     id="metadata8"><rdf:RDF><cc:Work
         rdf:about=""><dc:format>image/svg+xml</dc:format><dc:type
           rdf:resource="http://purl.org/dc/dcmitype/StillImage" /><dc:title></dc:title></cc:Work></rdf:RDF></metadata><defs
     id="defs6" /><g
     id="g781"
     transform="matrix(3.1772284,0,0,3.1772284,0.99987166,-37.068712)"><g
       id="g628"><path
         id="path14"
         style="fill:#ffffff;fill-opacity:1;fill-rule:nonzero;stroke:none;stroke-width:0.13333333"
         d="m 62.849465,42.377602 c -0.1416,-0.06773 -1.469733,-0.782267 -4.0672,-1.2604 v -13.8604 c 0,0 -0.014,-0.537467 -0.612,-0.778133 -0.598933,-0.2412 -3.0276,-1.197467 -3.0276,-1.197467 0,0 -0.254666,-1.3692 -1.39,-2.697333 -1.135466,-1.327067 -2.221466,-1.5756 -2.221466,-1.5756 0,0 -1.239467,0.1652 -2.265067,1.590133 h -4.5536 c 0,0 -1.224533,-2.65 -3.0276,-2.65 -1.348933,0 -2.009466,1.404267 -2.009466,1.404267 h -2.4224 l -2.888534,-7.403733 c 0,0 -0.5932,-1.9672 -2.880133,-1.9672 -2.286533,0 -2.879733,1.9672 -2.879733,1.9672 l -2.889067,7.403733 h -2.421866 c 0,0 -0.6604,-1.404267 -2.009867,-1.404267 -1.8032,0 -3.026533,2.65 -3.026533,2.65 h -4.554667 c -1.025586,-1.424933 -2.26516,-1.590133 -2.26516,-1.590133 0,0 -1.085946,0.248533 -2.2213596,1.5756 -1.1348933,1.328133 -1.3901066,2.697333 -1.3901066,2.697333 0,0 -2.4291599,0.956267 -3.0270799,1.197467 -0.59844,0.240666 -0.6125067,0.778133 -0.6125067,0.778133 v 13.8604 c -2.5973866,0.478133 -3.92499454,1.192666 -4.06666147,1.2604 -0.1421876,0.06773 -0.11822922,0.1776 -0.11822922,0.1776 v 15.975466 c 0,0.152133 0.07916669,0.189066 0.07916669,0.189066 1.2500001,0.613067 2.7401107,1.064134 4.4703107,1.3568 0.6880266,4.5828 2.9447999,8.574 2.9447999,8.574 0,0 -0.8666666,1.195867 -1.2380266,1.705734 -0.37188,0.508266 -0.4406267,0.728666 -0.27552,1.182799 0.1645866,0.4536 0.7567733,1.485867 0.7567733,1.485867 6.7697335,10.568813 24.7453325,17.641733 24.7453325,17.641733 0,0 17.974933,-7.07292 24.745333,-17.641733 0,0 0.5916,-1.032267 0.7572,-1.485867 0.165733,-0.454133 0.09587,-0.674533 -0.276,-1.182799 -0.3708,-0.509867 -1.238,-1.705734 -1.238,-1.705734 0,0 2.2568,-3.9912 2.945333,-8.574 1.730133,-0.292666 3.220267,-0.743733 4.470267,-1.3568 0,0 0.0792,-0.03693 0.0792,-0.189066 V 42.555202 c 0,0 0.024,-0.109867 -0.118267,-0.1776"
         inkscape:connector-curvature="0" /><path
         id="path16"
         style="fill:#7b7979;fill-opacity:1;fill-rule:nonzero;stroke:none;stroke-width:0.13333333"
         d="m 31.484399,40.105202 c -11.024,0 -25.9468925,0.667733 -30.50523236,2.8172 v 15.295866 c 4.55989986,2.150533 19.48123236,2.849466 30.50523236,2.849466 11.024,0 25.945333,-0.698933 30.505199,-2.849466 V 42.922402 c -4.558933,-2.149467 -19.480799,-2.8172 -30.505199,-2.8172"
         inkscape:connector-curvature="0" /><path
         id="path18"
         style="fill:#0e0f2f;fill-opacity:1;fill-rule:nonzero;stroke:none;stroke-width:0.13333333"
         d="m 54.379732,68.764001 c -3.709467,7.929733 -11.588,15.296413 -22.895333,20.812562 10.694267,-4.747923 20.8812,-11.506776 24.3016,-18.867762 l -1.406267,-1.9448"
         inkscape:connector-curvature="0" /><path
         id="path20"
         style="fill:#0e0f2f;fill-opacity:1;fill-rule:nonzero;stroke:none;stroke-width:0.13333333"
         d="m 55.255732,26.332802 v 27.929199 c 0,5.602 -1.307333,12.322933 -5.3016,18.760933 -0.906267,1.6864 -1.930667,3.322933 -3.061467,4.83228 0,0 10.589067,-9.39428 10.589067,-21.583879 v -29.0552 l -2.226,-0.883333"
         inkscape:connector-curvature="0" /><path
         id="path22"
         style="fill:#0e0f2f;fill-opacity:1;fill-rule:nonzero;stroke:none;stroke-width:0.13333333"
         d="M 8.5895865,68.764001 C 12.29792,76.693734 20.177066,84.060414 31.484399,89.576563 20.791199,84.82864 10.60364,78.069787 7.1828132,70.708801 l 1.4067733,-1.9448"
         inkscape:connector-curvature="0" /><path
         id="path24"
         style="fill:#0e0f2f;fill-opacity:1;fill-rule:nonzero;stroke:none;stroke-width:0.13333333"
         d="m 7.7130265,26.332802 v 27.929199 c 0,5.602 1.3078133,12.322933 5.3020795,18.760933 0.906227,1.6864 1.930227,3.322933 3.060894,4.83228 0,0 -10.5884935,-9.39428 -10.5884935,-21.583879 v -29.0552 l 2.22552,-0.883333"
         inkscape:connector-curvature="0" /><path
         id="path26"
         style="fill:#dedbd6;fill-opacity:1;fill-rule:nonzero;stroke:none;stroke-width:0.13333333"
         d="M 54.648932,39.737468 V 28.384402 c 0,0 0.3516,-4.457867 -3.1172,-6.440667 0,0 -1.2396,0.4412 -1.705733,1.597467 h -5.698933 c 0,0 -1.2104,-2.725067 -2.613467,-2.6704 0,0 -0.632933,0 -1.293867,1.431333 h -3.6328 l -3.166666,-8.147466 c -0.347333,-0.789067 -1.095733,-1.228667 -1.918133,-1.235333 -0.0052,0 -0.012,4e-4 -0.01773,4e-4 -0.0057,0 -0.01253,-4e-4 -0.01773,-4e-4 -0.821867,0.0067 -1.570267,0.446266 -1.9188,1.235333 l -3.166667,8.147466 h -3.6328 c -0.6604,-1.431333 -1.292666,-1.431333 -1.292666,-1.431333 -1.4036,-0.05467 -2.614,2.6704 -2.614,2.6704 h -5.699027 c -0.465626,-1.156267 -1.705733,-1.597467 -1.705733,-1.597467 -3.4687465,1.9828 -3.1171865,6.440667 -3.1171865,6.440667 v 11.353066 c 0,0 -0.1223867,14.269867 0.3312533,18.933866 1.4000002,14.416667 9.8494932,24.432827 22.8333592,30.755229 12.9844,-6.322402 21.4344,-16.338562 22.833333,-30.755229 0.4536,-4.663999 0.3312,-18.933866 0.3312,-18.933866"
         inkscape:connector-curvature="0" /><path
         id="path28"
         style="fill:#29409d;fill-opacity:1;fill-rule:nonzero;stroke:none;stroke-width:0.13333333"
         d="m 22.016133,43.273468 v -0.0912 l -12.4327999,4.462 c 0.00417,0.8068 0.010413,1.6328 0.019787,2.4584 l 14.4406129,-6.8292 h -2.0276"
         inkscape:connector-curvature="0" /><path
         id="path30"
         style="fill:#29409d;fill-opacity:1;fill-rule:nonzero;stroke:none;stroke-width:0.13333333"
         d="m 25.395866,43.273468 -15.7614929,9.0072 c 0.018747,1.019333 0.043227,2.0048 0.07448,2.912533 L 26.538533,43.273468 h -1.142667"
         inkscape:connector-curvature="0" /><path
         id="path32"
         style="fill:#29409d;fill-opacity:1;fill-rule:nonzero;stroke:none;stroke-width:0.13333333"
         d="M 22.016133,42.007335 H 18.5344 l -8.9557602,1.538533 c -0.00156,0.6776 -0.0026,1.418667 -0.00104,2.202 L 22.016133,42.342135 v -0.3348"
         inkscape:connector-curvature="0" /><path
         id="path34"
         style="fill:#29409d;fill-opacity:1;fill-rule:nonzero;stroke:none;stroke-width:0.13333333"
         d="M 15.6844,41.036002 H 9.5906264 c -0.00156,0.226 -0.00312,0.4776 -0.00469,0.7536 L 15.6844,41.223468 v -0.187466"
         inkscape:connector-curvature="0" /><path
         id="path36"
         style="fill:#29409d;fill-opacity:1;fill-rule:nonzero;stroke:none;stroke-width:0.13333333"
         d="M 28.600533,43.273468 10.867706,64.218801 c 0.325,1.288533 0.715627,2.534267 1.17032,3.739067 l 17.084907,-24.6844 h -0.5224"
         inkscape:connector-curvature="0" /><path
         id="path38"
         style="fill:#29409d;fill-opacity:1;fill-rule:nonzero;stroke:none;stroke-width:0.13333333"
         d="M 30.336399,43.273468 17.680666,77.573441 c 0.974,1.158333 2.029734,2.260413 3.163067,3.307293 l 9.859866,-37.607266 h -0.3672"
         inkscape:connector-curvature="0" /><path
         id="path40"
         style="fill:#29409d;fill-opacity:1;fill-rule:nonzero;stroke:none;stroke-width:0.13333333"
         d="M 29.547333,43.273468 13.3708,71.016134 c 0.639066,1.283333 1.356266,2.514133 2.15,3.692667 L 29.973466,43.273468 h -0.426133"
         inkscape:connector-curvature="0" /><path
         id="path42"
         style="fill:#29409d;fill-opacity:1;fill-rule:nonzero;stroke:none;stroke-width:0.13333333"
         d="M 27.328666,43.273468 9.8380264,57.819734 c 0.019787,0.2844 0.041667,0.545867 0.064573,0.782934 0.088027,0.9052 0.2052136,1.7916 0.3500006,2.661333 L 28.049466,43.273468 h -0.7208"
         inkscape:connector-curvature="0" /><path
         id="path44"
         style="fill:#29409d;fill-opacity:1;fill-rule:nonzero;stroke:none;stroke-width:0.13333333"
         d="m 31.038533,43.273468 -7.25,40.068719 c 1.373466,1.043227 2.836,2.02292 4.383333,2.939067 l 3.233867,-43.007786 h -0.3672"
         inkscape:connector-curvature="0" /><path
         id="path46"
         style="fill:#0e0f2f;fill-opacity:1;fill-rule:nonzero;stroke:none;stroke-width:0.13333333"
         d="M 29.973466,43.273468 15.5208,74.708801 c 0.666666,0.9912 1.388,1.945333 2.159866,2.86464 L 30.336399,43.273468 h -0.362933"
         inkscape:connector-curvature="0" /><path
         id="path48"
         style="fill:#0e0f2f;fill-opacity:1;fill-rule:nonzero;stroke:none;stroke-width:0.13333333"
         d="m 29.122933,43.273468 -17.084907,24.6844 c 0.396347,1.0504 0.841667,2.070266 1.332774,3.058266 L 29.547333,43.273468 h -0.4244"
         inkscape:connector-curvature="0" /><path
         id="path50"
         style="fill:#0e0f2f;fill-opacity:1;fill-rule:nonzero;stroke:none;stroke-width:0.13333333"
         d="M 28.049466,43.273468 10.2526,61.264001 c 0.16824,1.008933 0.37292,1.993867 0.615106,2.9548 L 28.600533,43.273468 h -0.551067"
         inkscape:connector-curvature="0" /><path
         id="path52"
         style="fill:#0e0f2f;fill-opacity:1;fill-rule:nonzero;stroke:none;stroke-width:0.13333333"
         d="m 24.043733,43.273468 -14.4406132,6.8292 c 0.00781,0.732267 0.01772,1.462933 0.031253,2.178 l 15.7614932,-9.0072 h -1.352133"
         inkscape:connector-curvature="0" /><path
         id="path54"
         style="fill:#0e0f2f;fill-opacity:1;fill-rule:nonzero;stroke:none;stroke-width:0.13333333"
         d="M 22.016133,42.342135 9.5775998,45.747868 c 5.2e-4,0.611467 0.00261,1.247467 0.00573,1.8964 l 12.4328002,-4.462 v -0.840133"
         inkscape:connector-curvature="0" /><path
         id="path56"
         style="fill:#0e0f2f;fill-opacity:1;fill-rule:nonzero;stroke:none;stroke-width:0.13333333"
         d="m 15.6844,42.007335 v -0.783867 l -6.0984669,0.566134 c -0.0026,0.512 -0.0052,1.104133 -0.00729,1.756266 L 18.5344,42.007335 h -2.85"
         inkscape:connector-curvature="0" /><path
         id="path58"
         style="fill:#0e0f2f;fill-opacity:1;fill-rule:nonzero;stroke:none;stroke-width:0.13333333"
         d="M 26.538533,43.273468 9.7088531,55.193201 c 0.033853,0.987067 0.07656,1.882267 0.1291733,2.626533 L 27.328666,43.273468 h -0.790133"
         inkscape:connector-curvature="0" /><path
         id="path60"
         style="fill:#0e0f2f;fill-opacity:1;fill-rule:nonzero;stroke:none;stroke-width:0.13333333"
         d="m 30.703599,43.273468 -9.859866,37.607266 c 0.929733,0.857293 1.912,1.67708 2.9448,2.461453 l 7.25,-40.068719 h -0.334934"
         inkscape:connector-curvature="0" /><path
         id="path62"
         style="fill:#0e0f2f;fill-opacity:1;fill-rule:nonzero;stroke:none;stroke-width:0.13333333"
         d="m 31.484399,43.273468 h -0.07867 l -3.233867,43.007786 c 1.064533,0.6302 2.169333,1.23124 3.312533,1.80364 V 43.273468"
         inkscape:connector-curvature="0" /><path
         id="path64"
         style="fill:#0e0f2f;fill-opacity:1;fill-rule:nonzero;stroke:none;stroke-width:0.13333333"
         d="m 40.953066,43.273468 v -0.0912 l 12.432399,4.462 c -0.0043,0.8068 -0.01,1.6328 -0.0188,2.4584 l -14.441599,-6.8292 h 2.028"
         inkscape:connector-curvature="0" /><path
         id="path66"
         style="fill:#0e0f2f;fill-opacity:1;fill-rule:nonzero;stroke:none;stroke-width:0.13333333"
         d="m 37.573466,43.273468 15.761466,9.0072 c -0.01933,1.019333 -0.0432,2.0048 -0.07453,2.912533 L 36.430266,43.273468 h 1.1432"
         inkscape:connector-curvature="0" /><path
         id="path68"
         style="fill:#0e0f2f;fill-opacity:1;fill-rule:nonzero;stroke:none;stroke-width:0.13333333"
         d="m 40.953066,42.007335 h 3.481333 l 8.955733,1.538533 c 0.0016,0.6776 0.0025,1.418667 0.0016,2.202 L 40.953066,42.342135 v -0.3348"
         inkscape:connector-curvature="0" /><path
         id="path70"
         style="fill:#0e0f2f;fill-opacity:1;fill-rule:nonzero;stroke:none;stroke-width:0.13333333"
         d="m 47.285465,41.036002 h 6.092667 c 0.0021,0.226 0.0031,0.4776 0.0047,0.7536 l -6.097334,-0.566134 v -0.187466"
         inkscape:connector-curvature="0" /><path
         id="path72"
         style="fill:#0e0f2f;fill-opacity:1;fill-rule:nonzero;stroke:none;stroke-width:0.13333333"
         d="m 34.368799,43.273468 17.732266,20.945333 c -0.324533,1.288533 -0.7156,2.534267 -1.1704,3.739067 l -17.084799,-24.6844 h 0.522933"
         inkscape:connector-curvature="0" /><path
         id="path74"
         style="fill:#0e0f2f;fill-opacity:1;fill-rule:nonzero;stroke:none;stroke-width:0.13333333"
         d="m 32.632266,43.273468 12.6552,34.299973 c -0.972934,1.158333 -2.028667,2.260413 -3.1624,3.307293 l -9.86,-37.607266 h 0.3672"
         inkscape:connector-curvature="0" /><path
         id="path76"
         style="fill:#0e0f2f;fill-opacity:1;fill-rule:nonzero;stroke:none;stroke-width:0.13333333"
         d="m 33.421332,43.273468 16.176,27.742666 c -0.638533,1.283333 -1.3552,2.514133 -2.149467,3.692667 L 32.995333,43.273468 h 0.425999"
         inkscape:connector-curvature="0" /><path
         id="path78"
         style="fill:#0e0f2f;fill-opacity:1;fill-rule:nonzero;stroke:none;stroke-width:0.13333333"
         d="m 35.640132,43.273468 17.490533,14.546266 c -0.02027,0.2844 -0.0416,0.545867 -0.06453,0.782934 -0.088,0.9052 -0.205733,1.7916 -0.35,2.661333 l -17.7964,-17.990533 h 0.7204"
         inkscape:connector-curvature="0" /><path
         id="path80"
         style="fill:#0e0f2f;fill-opacity:1;fill-rule:nonzero;stroke:none;stroke-width:0.13333333"
         d="m 31.930666,43.273468 7.2496,40.068719 c -1.373467,1.043227 -2.834934,2.02292 -4.382934,2.939067 L 31.563066,43.273468 h 0.3676"
         inkscape:connector-curvature="0" /><path
         id="path82"
         style="fill:#29409d;fill-opacity:1;fill-rule:nonzero;stroke:none;stroke-width:0.13333333"
         d="m 32.995333,43.273468 14.452532,31.435333 c -0.666666,0.9912 -1.387466,1.945333 -2.160399,2.86464 l -12.6552,-34.299973 h 0.363067"
         inkscape:connector-curvature="0" /><path
         id="path84"
         style="fill:#29409d;fill-opacity:1;fill-rule:nonzero;stroke:none;stroke-width:0.13333333"
         d="m 33.845866,43.273468 17.084799,24.6844 c -0.396266,1.0504 -0.840533,2.070266 -1.333333,3.058266 l -16.176,-27.742666 h 0.424534"
         inkscape:connector-curvature="0" /><path
         id="path86"
         style="fill:#29409d;fill-opacity:1;fill-rule:nonzero;stroke:none;stroke-width:0.13333333"
         d="m 34.919732,43.273468 17.7964,17.990533 c -0.168267,1.008933 -0.372933,1.993867 -0.615067,2.9548 L 34.368799,43.273468 h 0.550933"
         inkscape:connector-curvature="0" /><path
         id="path88"
         style="fill:#29409d;fill-opacity:1;fill-rule:nonzero;stroke:none;stroke-width:0.13333333"
         d="m 38.925066,43.273468 14.441599,6.8292 c -0.0083,0.732267 -0.01933,1.462933 -0.03173,2.178 l -15.761466,-9.0072 h 1.3516"
         inkscape:connector-curvature="0" /><path
         id="path90"
         style="fill:#29409d;fill-opacity:1;fill-rule:nonzero;stroke:none;stroke-width:0.13333333"
         d="m 40.953066,42.342135 12.438666,3.405733 c -5.33e-4,0.611467 -0.0021,1.247467 -0.0063,1.8964 l -12.432399,-4.462 v -0.840133"
         inkscape:connector-curvature="0" /><path
         id="path92"
         style="fill:#29409d;fill-opacity:1;fill-rule:nonzero;stroke:none;stroke-width:0.13333333"
         d="m 47.285465,42.007335 v -0.783867 l 6.097334,0.566134 c 0.0032,0.512 0.0057,1.104133 0.0073,1.756266 l -8.955733,-1.538533 h 2.851066"
         inkscape:connector-curvature="0" /><path
         id="path94"
         style="fill:#29409d;fill-opacity:1;fill-rule:nonzero;stroke:none;stroke-width:0.13333333"
         d="m 36.430266,43.273468 16.830133,11.919733 c -0.0344,0.987067 -0.07653,1.882267 -0.129734,2.626533 L 35.640132,43.273468 h 0.790134"
         inkscape:connector-curvature="0" /><path
         id="path96"
         style="fill:#29409d;fill-opacity:1;fill-rule:nonzero;stroke:none;stroke-width:0.13333333"
         d="m 32.265066,43.273468 9.86,37.607266 c -0.929734,0.857293 -1.912,1.67708 -2.9448,2.461453 l -7.2496,-40.068719 h 0.3344"
         inkscape:connector-curvature="0" /><path
         id="path98"
         style="fill:#29409d;fill-opacity:1;fill-rule:nonzero;stroke:none;stroke-width:0.13333333"
         d="m 31.484399,43.273468 h 0.07867 l 3.234266,43.007786 c -1.065066,0.6302 -2.169733,1.23124 -3.312933,1.80364 V 43.273468"
         inkscape:connector-curvature="0" /><path
         id="path100"
         style="fill:#4f4c4c;fill-opacity:1;fill-rule:nonzero;stroke:none;stroke-width:0.13333333"
         d="M 31.484399,44.826001 C 9.7718798,44.958801 5.4796932,44.315068 0.99270798,43.041202 v 15.130666 c 3.98854522,-1.164 8.71979842,-1.7844 30.49169102,-1.7844 21.7724,0 26.503066,0.6204 30.491599,1.7844 V 43.041202 c -4.486933,1.273866 -8.778666,1.917599 -30.491599,1.784799"
         inkscape:connector-curvature="0" /><path
         id="path102"
         style="fill:#d3d2d2;fill-opacity:1;fill-rule:nonzero;stroke:none;stroke-width:0.13333333"
         d="m 31.484399,45.253601 c -11.024,0 -25.9343991,0.09853 -30.49169102,-2.331199 V 58.144268 C 5.5499999,55.713601 20.460399,56.012001 31.484399,56.012001 c 11.024,0 25.934933,-0.2984 30.492133,2.132267 V 42.922402 c -4.5572,2.429733 -19.468133,2.331199 -30.492133,2.331199"
         inkscape:connector-curvature="0" /><path
         id="path104"
         style="fill:#0e0f2f;fill-opacity:1;fill-rule:nonzero;stroke:none;stroke-width:0.13333333"
         d="m 31.484399,45.658268 c 11.024,0 25.934933,0.09747 30.492133,-2.331733 v 14.515599 c -4.5572,-2.427599 -19.468133,-2.131733 -30.492133,-2.131733 -11.024,0 -25.9343991,-0.295866 -30.49169102,2.131733 V 43.326535 c 4.55729192,2.4292 19.46769102,2.331733 30.49169102,2.331733"
         inkscape:connector-curvature="0" /><path
         id="path106"
         style="fill:#1a3373;fill-opacity:1;fill-rule:nonzero;stroke:none;stroke-width:0.13333333"
         d="m 1.92708,56.343201 c 0,0 0.7786533,-0.366666 2.8953199,-0.725466 -0.54844,-0.85 -0.92604,-2.6464 -0.92604,-4.725067 0,-2.491067 0.5437467,-4.577067 1.2723866,-5.1172 -1.4343733,-0.2776 -2.5145732,-0.4984 -3.2416665,-0.814 v 11.381733"
         inkscape:connector-curvature="0" /><path
         id="path108"
         style="fill:#1a3373;fill-opacity:1;fill-rule:nonzero;stroke:none;stroke-width:0.13333333"
         d="m 61.042132,56.343201 c 0,0 -0.779067,-0.366666 -2.895733,-0.725466 0.548933,-0.85 0.926533,-2.6464 0.926533,-4.725067 0,-2.491067 -0.543733,-4.577067 -1.272933,-5.1172 1.4344,-0.2776 2.515066,-0.4984 3.242133,-0.814 v 11.381733"
         inkscape:connector-curvature="0" /><path
         id="path110"
         style="fill:#0b0b23;fill-opacity:1;fill-rule:nonzero;stroke:none;stroke-width:0.13333333"
         d="m 27.992666,23.425469 c -0.0396,-1.464534 0.5256,-2.2448 0.5256,-2.2448 l 0.202533,0.2428 c -0.202533,-1.131334 0.1204,-1.494267 0.35,-1.9932 0.0552,-0.04387 0.207867,0.309866 0.207867,0.309866 0,0 0.07187,-0.109866 0.202533,-1.052133 0.0016,-0.03013 0.0052,-0.05 0.0079,-0.06867 0.136,-0.960533 0.577067,-0.992266 0.577067,-0.992266 0.05413,-1.320267 0.4808,-0.8932 0.539066,-1.3068 0.1156,-0.820267 0.369867,-0.8276 0.439067,-0.812933 l 0.0104,-0.04587 v -0.133867 l 0.05053,-0.1864 c 0,0 0.0532,-0.293866 0.0532,-0.479733 0,-0.186533 0.259867,-0.164533 0.259867,-0.164533 0,0 0.2572,-0.022 0.2572,0.164533 0,0.185867 0.05373,0.479733 0.05373,0.479733 l 0.05147,0.1864 v 0.133867 l 0.0084,0.04587 c 0.06973,-0.01467 0.324933,-0.0057 0.4396,0.812933 0.05987,0.4136 0.485867,-0.01347 0.538533,1.3068 0,0 0.4464,0.03173 0.5792,1.009333 0.1348,0.9896 0.2088,1.103733 0.2088,1.103733 0,0 0.138533,-0.324 0.195333,-0.322933 0.242667,0.512 0.565067,0.874933 0.363467,2.006267 l 0.2016,-0.2428 c 0,0 0.566667,0.7808 0.526133,2.249066 0.0176,0.02027 0.07027,0.0296 0.102,0.110934 0.04067,0.100933 0.05267,0.121333 0.05267,0.1828 v 0.101066 l 0.0088,0.0604 c 0,0 0.01093,0.101467 0.02133,0.151467 0.0089,0.0516 0.02973,0.112 0.02973,0.112 h 6.569733 c 0.09853,0.0021 -0.014,-0.5068 0.04013,-0.916667 0.0073,-0.0864 0.07187,-0.1364 0.193734,-0.102 0.142266,0.01347 0.8204,0.29 1.219866,2.037467 l 0.0276,0.038 c 0.01973,-0.0041 8.3932,0 8.3932,0 0.0188,-0.550533 0.0104,-1.0464 0.251067,-1.195333 0.854666,-0.0077 1.5244,3.187466 1.5244,3.187466 0.01573,0.03707 0.02707,0.07813 0.01827,0.113067 -0.0104,0.03653 -0.0036,0.04013 0,0.08747 0.0068,0.1048 0.0068,0.139066 0.0068,0.139066 0,0 0.01147,0.03333 0.01453,0.06827 l -0.0025,11.515066 h -2.2724 c 0.0067,0.3928 0.01773,0.744267 0.01773,0.744267 l -7.990133,-0.002 -0.0104,0.9348 h -4.414667 v 0.21 H 23.745333 v -0.21 h -4.1708 v -0.9328 l -7.59068,-0.0396 5.2e-4,-0.704667 H 9.6531198 V 27.775469 c 0.01772,-0.403067 0.1854266,-2.921867 1.6380262,-3.877067 0.32656,0.182267 0.45052,1.048533 0.595827,1.419333 h 7.92036 c 0,0 0.757733,-2.033866 1.102533,-2.3156 0.288,-0.233333 0.4448,0.01507 0.4448,0.01507 0.109333,0.168267 0.174533,0.694267 0.174533,0.694267 0,0 0.0156,0.0724 0.0077,0.143733 -0.0057,0.05467 -0.0067,0.1088 -0.0067,0.177067 0.0083,0.01507 0.02493,0.02507 0.0432,0.02507 h 6.2448 c 0.01453,0 -0.074,-0.536533 0.07347,-0.643733 0.01667,-0.01253 0.0656,-0.0027 0.100933,0.01187 m 1.488533,-4.737467 0.0063,-0.0516 c -0.0011,0.0016 -0.0047,0.02147 -0.0063,0.04067 v 0.01093"
         inkscape:connector-curvature="0" /><path
         id="path112"
         style="fill:#ffffff;fill-opacity:1;fill-rule:nonzero;stroke:none;stroke-width:0.13333333"
         d="m 21.828666,36.512002 c 0,-0.146934 -0.05,-0.207867 -0.05,-0.207867 l -0.504667,-0.0063 c 0,0 0.3656,-0.05 0.408267,-0.326533 0.04227,-0.278133 0.0063,-0.293733 0.0063,-0.293733 l -0.149467,0.116133 c 0,0 0.114533,-0.09267 0.107333,-0.223467 -0.0068,-0.130666 -0.05,-0.323333 -0.05,-0.323333 0,0 -0.145333,0.078 -0.1824,0.138533 0.01307,-0.0412 -0.0077,-0.148533 -0.05667,-0.254266 -0.07867,-0.168134 -0.283867,-0.300534 -0.283867,-0.300534 0,0 -0.363067,0.4 -0.291733,0.546934 l -0.112,-0.138534 c 0,0 -0.168134,0.208267 -0.127067,0.346934 0.04333,0.138533 0.06573,0.1692 0.06573,0.1692 0,0 -0.136533,-0.177067 -0.157866,-0.1156 -0.02133,0.06147 0,0.192133 0.08587,0.385866 0.086,0.192267 0.2496,0.294267 0.2636,0.348534 0.01453,0.05307 0.0084,0.251466 0.0156,0.305733 0.0073,0.05413 0.02293,0.1448 0.1808,0.1672 0.1572,0.0228 0.266134,-0.02453 0.366134,-0.04747 0.100533,-0.024 0.401066,-0.08013 0.401066,-0.08013 0,0 0.06507,-0.06107 0.06507,-0.207333"
         inkscape:connector-curvature="0" /><path
         id="path114"
         style="fill:#ffffff;fill-opacity:1;fill-rule:nonzero;stroke:none;stroke-width:0.13333333"
         d="m 23.893199,26.913602 c -0.942666,-0.01307 -3.101466,-0.062 -3.318666,-0.6396 -0.392267,-1.039067 0.565066,-2.800533 0.565066,-2.800533 l -0.0536,-0.162534 c 0,0 -0.969333,1.764534 -1.332933,3.690667 h 4.2548 c 0,0 0.456667,-0.088 -0.114667,-0.088"
         inkscape:connector-curvature="0" /><path
         id="path116"
         style="fill:#ffffff;fill-opacity:1;fill-rule:nonzero;stroke:none;stroke-width:0.13333333"
         d="m 18.190666,25.860402 c 0.330134,0.0036 0.694267,0.024 0.706667,1.6656 -0.01973,0.727067 0.162,0.774 0.162,0.774 0,0 0.175067,-1.75 0.626133,-2.612 l -7.755773,-0.0063 c 0.0052,0.0057 0.04583,0.141734 0.04583,0.141734 l 6.215146,0.03693"
         inkscape:connector-curvature="0" /><path
         id="path118"
         style="fill:#ffffff;fill-opacity:1;fill-rule:nonzero;stroke:none;stroke-width:0.13333333"
         d="m 27.563999,27.364535 -0.728,-0.01187 c -0.7308,-0.02773 -7.240666,-0.01667 -7.242266,-0.0021 -0.0047,0.05213 -0.0047,0.100534 0.03547,0.1396 0.08173,0.08067 7.769733,-0.09067 7.769733,-0.09067 0.03547,0 0.1704,-0.0188 0.165066,-0.03493"
         inkscape:connector-curvature="0" /><path
         id="path120"
         style="fill:#ffffff;fill-opacity:1;fill-rule:nonzero;stroke:none;stroke-width:0.13333333"
         d="m 16.790666,28.280669 c 0,0 -3.70316,-0.09467 -4.592226,-0.108267 -1.0974,-0.01667 -1.560934,-0.3364 -1.52084,-1.629733 0.08751,-1.567734 0.42292,-1.904134 0.466146,-1.941067 -0.33072,0.242133 -0.984373,1.263467 -1.0052,3.692133 l 7.937454,0.074 c 0.111466,-0.05 -1.076534,-0.074 -1.285334,-0.08707"
         inkscape:connector-curvature="0" /><path
         id="path122"
         style="fill:#ffffff;fill-opacity:1;fill-rule:nonzero;stroke:none;stroke-width:0.13333333"
         d="m 11.143746,24.601602 c 0.0016,-0.0011 0.0031,-0.0032 0.0047,-0.0043 0,0 -0.0016,0.0016 -0.0047,0.0043"
         inkscape:connector-curvature="0" /><path
         id="path124"
         style="fill:#ffffff;fill-opacity:1;fill-rule:nonzero;stroke:none;stroke-width:0.13333333"
         d="m 10.10364,34.540668 c -0.0031,0.5088 -0.0042,0.845334 -0.0021,0.859867 0.0073,0.06347 0.03177,0.08907 0.03177,0.08907 0,0 0.186453,0.101066 0.217187,0.06307 0.02969,-0.0376 -0.12812,-0.128133 -0.12812,-0.128133 l -0.01147,-1.065733 c 0,0 0.07761,-4.636933 0.04115,-4.9672 l -0.0052,-0.119733 0.112493,-0.07133 -0.141667,0.012 c -0.025,-0.01147 -0.1,-0.0188 -0.107813,-0.0188 -0.02239,0 -0.01353,0.340134 -0.01405,0.414534 -0.0068,0.4412 -0.01563,0.873466 -0.01563,1.318799 0,0.405734 0.01145,2.405734 0.02343,3.6136"
         inkscape:connector-curvature="0" /><path
         id="path126"
         style="fill:#ffffff;fill-opacity:1;fill-rule:nonzero;stroke:none;stroke-width:0.13333333"
         d="m 19.7292,28.652669 -0.02867,-0.07293 -0.0932,-0.02453 c 0,0 -0.07133,6.1292 -0.0604,6.190133 0.01147,0.06093 0.04893,0.08533 0.04893,0.08533 0,0 0.280134,0.0496 0.325467,0.01307 0.04427,-0.0364 -0.205733,-0.08333 -0.192133,-0.390133 v -5.800933"
         inkscape:connector-curvature="0" /><path
         id="path128"
         style="fill:#ffffff;fill-opacity:1;fill-rule:nonzero;stroke:none;stroke-width:0.13333333"
         d="m 16.401066,36.200002 c -0.03653,0 -0.02707,0.2224 0,0.2224 l 0.611467,-0.0041 c 0.03333,0 0.03533,-0.216133 0,-0.216133 l -0.611467,-0.0021"
         inkscape:connector-curvature="0" /><path
         id="path130"
         style="fill:#ffffff;fill-opacity:1;fill-rule:nonzero;stroke:none;stroke-width:0.13333333"
         d="m 12.513026,36.201068 c -0.03281,0 -0.04167,0.217734 0,0.217734 l 0.690614,5.33e-4 c 0.03281,0 0.03699,-0.2172 0,-0.2172 l -0.690614,-0.0011"
         inkscape:connector-curvature="0" /><path
         id="path132"
         style="fill:#ffffff;fill-opacity:1;fill-rule:nonzero;stroke:none;stroke-width:0.13333333"
         d="m 10.30104,36.391602 1.556253,-0.04053 c 0.01197,-0.03547 -0.07032,-0.05373 -0.2474,-0.05627 -0.3,0.0093 -0.906773,-0.0021 -1.8197866,-0.02973 -0.00937,0 0.00104,0.07653 -0.00781,0.1308 0.17292,-0.02707 0.3473996,-5.33e-4 0.5187466,-0.0043"
         inkscape:connector-curvature="0" /><path
         id="path134"
         style="fill:#ffffff;fill-opacity:1;fill-rule:nonzero;stroke:none;stroke-width:0.13333333"
         d="m 19.864,36.027068 c 0.04387,0 0.1272,0.024 0.153733,-0.01453 0.05733,-0.08187 0.0672,-0.254267 -0.0047,-0.371867 -0.04693,-0.038 -7.41932,0.04627 -7.503693,-0.0136 -0.155733,-0.1068 -0.140107,-0.3188 -0.07656,-0.3068 0.02188,0.0047 0.04375,0.06413 0.075,0.0095 0.02812,-0.04907 0.06771,-0.241733 0.06719,-0.307867 -0.0026,-0.143733 -0.09323,-0.8912 -0.77604,-0.853066 l -0.01251,0.04053 c 0.06251,0.09533 0.101573,0.224533 0.07136,0.350533 -0.0063,0.02867 -0.05781,0.08133 -0.09479,0.1136 -0.01667,0.0792 0.08333,0.165067 0.17708,0.154667 0.05937,-0.0073 -0.03541,0.113467 -0.04636,0.1328 -0.01041,0.01773 0.0016,0.05413 0.01095,0.07507 0.01979,0.04373 0.0036,0.188933 10e-4,0.232266 -0.01199,0.313467 0.122387,0.751067 0.59948,0.764 0.207293,0.0063 4.65412,0 4.65412,0 l 2.704667,-0.0052"
         inkscape:connector-curvature="0" /><path
         id="path136"
         style="fill:#ffffff;fill-opacity:1;fill-rule:nonzero;stroke:none;stroke-width:0.13333333"
         d="m 18.9984,28.791602 c 0,-0.0828 -8.415067,-0.201467 -8.79944,-0.2088 -0.09271,-0.0016 -0.0037,0.332267 0.02344,0.331733 0.15,-0.0025 8.8432,-0.02853 8.8432,-0.02853 l -0.0672,-0.0944"
         inkscape:connector-curvature="0" /><path
         id="path138"
         style="fill:#ffffff;fill-opacity:1;fill-rule:nonzero;stroke:none;stroke-width:0.13333333"
         d="m 20.065066,35.109868 c -0.03333,-0.02653 -1.446266,-0.02187 -1.6072,-0.02707 -0.3308,-0.0099 -0.308933,-0.03907 -0.3428,-0.1036 -0.01347,-0.0256 -0.026,-0.08027 0.07093,-0.0652 0.01973,-0.0348 0.0484,-0.1708 0.04787,-0.217067 -0.0027,-0.148 0.024,-0.600533 -0.546933,-0.6016 l -0.0099,0.0296 c 0.04427,0.06667 0.0724,0.157333 0.05107,0.245867 -0.0041,0.0204 -0.0412,0.0584 -0.0672,0.08027 -0.012,0.05627 0.0584,0.116667 0.125467,0.1088 0.04173,-0.0047 -0.0296,0.05893 -0.02547,0.147467 -0.02453,0.4672 0.1604,0.695733 0.769333,0.691067 0.05987,-5.34e-4 1.4932,0.03227 1.511467,0.0063 0.04,-0.05733 0.03427,-0.285866 0.02333,-0.2948"
         inkscape:connector-curvature="0" /><path
         id="path140"
         style="fill:#ffffff;fill-opacity:1;fill-rule:nonzero;stroke:none;stroke-width:0.13333333"
         d="m 12.114586,33.558268 h 2.937547 c 0,0 1.405733,0.04853 2.138533,0 0.1948,-0.0552 0.182267,-0.558266 0.146267,-0.872266 l 0.0084,-0.235467 c 0.01973,-0.361467 0.03173,-0.736933 0.03747,-1.126 l 0.0099,-0.161467 -0.0015,-0.09067 0.0025,-0.1036 0.0068,-0.193334 0.0093,-0.289466 c 0.0041,-0.09333 -0.0068,-0.155733 -0.0224,-0.188667 -0.0099,-0.09373 -0.02387,-0.171333 -0.0468,-0.216133 0.02707,-0.0208 0.09533,-0.04213 -0.03227,-0.0552 l -0.196934,-0.002 c -0.162533,-0.0084 -0.345333,-0.0079 -0.509866,-0.0047 -1.573467,-0.012 -4.864627,-0.03333 -4.906294,0.03067 -0.184893,0.290133 -0.05468,2.677066 -0.03176,3.123466 0.01667,0.344267 0.45104,0.3848 0.45104,0.3848"
         inkscape:connector-curvature="0" /><path
         id="path142"
         style="fill:#ffffff;fill-opacity:1;fill-rule:nonzero;stroke:none;stroke-width:0.13333333"
         d="m 20.471333,36.544802 c 0,-0.026 -1.090133,-0.01827 -1.130133,-0.01827 h -0.919334 l -2.068266,5.33e-4 c -0.678134,0 -1.34,0.0099 -2.011867,0.0099 -0.686,0 -1.366213,-0.0083 -2.068293,-0.0083 l -0.01719,0.01613 -0.0063,0.429733 c 0,0.0176 0.211453,0.0224 0.25312,0.0224 h 0.861946 c 0.6896,0 1.372934,-0.01253 2.0688,-0.01253 l 2.068267,-5.34e-4 c 0.693733,0 2.229067,0.0041 2.9536,-0.0093 0,-0.1552 0.0156,-0.2844 0.0156,-0.429733"
         inkscape:connector-curvature="0" /><path
         id="path144"
         style="fill:#ffffff;fill-opacity:1;fill-rule:nonzero;stroke:none;stroke-width:0.13333333"
         d="m 35.958799,37.365068 -8.8984,0.02453 c -0.04013,0 -0.187466,-0.02453 -0.187466,0 0,0.02347 -0.15,0.302533 -0.109867,0.303066 0.520267,0.0095 8.612933,-0.04533 9.408266,0 0,0 -0.04533,-0.304666 -0.212533,-0.3276"
         inkscape:connector-curvature="0" /><path
         id="path146"
         style="fill:#ffffff;fill-opacity:1;fill-rule:nonzero;stroke:none;stroke-width:0.13333333"
         d="m 50.902665,36.982802 0.0031,-0.416667 c 0,-0.0192 -0.227067,-0.0079 -0.271333,-0.0079 -0.285467,0 -0.5844,-0.0052 -0.8776,-0.0052 l -2.103734,-9.33e-4 -2.103066,-0.0027 c -0.704667,0 -1.874933,0.0068 -2.580267,0.0068 -0.0432,0 -0.0328,0.350534 -0.0328,0.426534 0,0.0156 0.698,0.01147 0.7428,0.01147 l 0.8776,0.0027 h 2.101467 l 2.1048,-0.0043 2.139066,-0.0099"
         inkscape:connector-curvature="0" /><path
         id="path148"
         style="fill:#ffffff;fill-opacity:1;fill-rule:nonzero;stroke:none;stroke-width:0.13333333"
         d="m 43.222932,37.388002 c -0.03027,-0.02293 -0.266666,-0.026 -0.493733,-0.02027 l -0.101067,-0.0021 -5.992133,0.0276 c 0.110933,0.1672 0.01133,0.0516 0.08747,0.1724 0.03227,0.0057 0.0572,0.01253 0.062,0.0172 0.03427,0.03387 0.06867,0.186 0.121333,0.169866 0.2708,-0.0844 4.8068,-0.04693 4.8068,-0.04693 l 0.0052,2.133333 -0.907333,0.02027 0.01093,0.628133 1.0208,-0.02387 0.784933,-0.0021 c 0.04373,0 0.2364,0.0073 0.2364,-0.02653 0,-0.04173 -0.0083,-0.086 -0.0083,-0.128667 l -0.02347,-0.545866 c -0.04533,0 -0.163467,0.02867 -0.163467,-0.0172 l 0.0041,-1.118667 -0.0041,-0.269333 c 0,-0.07133 0.191067,0.0308 0.191067,-0.05213 l 0.0276,-0.3676 0.0052,-0.09427 c 0.0047,-0.0724 0.02133,-0.284934 0.0828,-0.3292 l 0.180267,-0.1104 c 0.02293,0 0.1172,0.02493 0.06667,-0.0136"
         inkscape:connector-curvature="0" /><path
         id="path150"
         style="fill:#ffffff;fill-opacity:1;fill-rule:nonzero;stroke:none;stroke-width:0.13333333"
         d="m 46.137999,37.805202 c 0.0099,-0.038 0.098,-0.335867 0.06827,-0.395334 -0.02453,-0.05 -0.178134,-0.06613 -0.297867,-0.0796 h -1.202133 c 0,0 0.838,0.08587 0.8312,0.491067 l 0.0095,1.199467 c 0.0061,0.2636 0.5224,0.5152 0.555734,0.510933 0.0124,-0.0015 0.02707,-0.01867 0.03533,-0.0568 -0.0025,-0.02227 0.02813,-0.314 0.0093,-0.318667 -0.0244,-0.0036 -0.04893,0.0057 -0.07493,0.0031 -0.01453,0.02347 -0.03173,-0.04053 -0.03173,-0.05107 -0.0016,-0.08533 0.0124,-1.2828 0.0124,-1.2828 l 0.08493,-0.02027"
         inkscape:connector-curvature="0" /><path
         id="path152"
         style="fill:#ffffff;fill-opacity:1;fill-rule:nonzero;stroke:none;stroke-width:0.13333333"
         d="m 50.552132,37.253068 -0.05213,0.0037 c 0,0 0,0.0031 -0.298934,0.0036 l -1.468266,-0.0031 c -0.04107,9.33e-4 0.155733,0.100933 0.155733,0.100933 l 0.604133,0.0464 c 0.498534,0.0011 0.722934,0.240134 0.688,1.047467 -0.0588,1.225467 0.388667,1.065067 0.388667,1.065067 0.0015,-0.02707 0.002,-0.062 0.002,-0.09893 v -0.199466 l -0.002,-1.102134 -0.0172,-0.8636"
         inkscape:connector-curvature="0" /><path
         id="path154"
         style="fill:#ffffff;fill-opacity:1;fill-rule:nonzero;stroke:none;stroke-width:0.13333333"
         d="m 11.785933,36.794268 c 0,0 -1.8583332,-0.108266 -1.9656266,-0.07293 -5.2e-4,0.048 -0.00676,0.2224 5.334e-4,0.2224 l 2.0874932,-0.102133 c 0.0031,0 0.0089,-0.04373 -0.1224,-0.04733"
         inkscape:connector-curvature="0" /><path
         id="path156"
         style="fill:#ffffff;fill-opacity:1;fill-rule:nonzero;stroke:none;stroke-width:0.13333333"
         d="m 53.179732,38.664535 c 0,-0.05053 -0.0808,-0.112933 -0.0808,-0.112933 l -0.3016,-0.038 v -0.2928 l -0.0692,-0.03333 -0.420267,0.01147 v -0.1244 c 0,0 0,-0.05053 0.01187,-0.113067 0.012,-0.06307 -0.01187,-0.08853 -0.05667,-0.101066 -0.04747,-0.012 -0.488,0.0256 -0.488,0.0256 l -0.01413,-0.3448 c 0,0 0.0047,-0.01 -0.0656,-0.048 -0.06987,-0.03747 -0.3964,-0.0093 -0.3964,-0.0093 v -0.1912 l -0.01867,-0.09533 -0.4724,0.01053 v 0.111467 l 0.363467,0.01093 0.01253,0.2536 0.418267,0.0172 c 0,0 -0.03813,0.3968 0.04373,0.3968 0.0812,0 0.463467,-0.02293 0.463467,-0.02293 l -0.0124,0.319867 0.450933,-0.0036 c 0.0584,0 0.02453,0.326533 0.02453,0.326533 l 0.381733,0.0031 0.0172,0.290133 0.231333,0.0052 c 0,0 -0.02293,-0.202133 -0.02293,-0.2516"
         inkscape:connector-curvature="0" /><path
         id="path158"
         style="fill:#ffffff;fill-opacity:1;fill-rule:nonzero;stroke:none;stroke-width:0.13333333"
         d="m 12.595306,37.824535 c -0.0062,0.131733 -0.02916,0.332267 -0.02916,0.4328 l -0.01093,1.080667 -0.04219,0.119333 0.28124,0.0031 1.6068,-0.0047 -0.2292,-0.05307 -1.074986,-0.04853 0.0016,-1.735333 c 0.12292,9.33e-4 0.23796,-0.295867 0.34636,-0.299467 0.479733,-0.02293 0.587466,0.0015 1.0088,0 l 0.233333,-0.0912 h -2.17912 c 0,0 0.09167,0.508267 0.08749,0.5964"
         inkscape:connector-curvature="0" /><path
         id="path160"
         style="fill:#ffffff;fill-opacity:1;fill-rule:nonzero;stroke:none;stroke-width:0.13333333"
         d="m 16.9188,37.219735 c -0.1048,-0.0104 -0.2204,-0.0093 -0.259467,-0.0072 -0.156667,-0.0052 -0.3416,0.03693 -0.421333,0.08693 -0.01667,0.0104 0.04267,0.02653 0.05413,0.03853 0.01987,0.02453 0.04693,0.354666 0.06467,0.385466 0.0276,0.0156 0.09533,-0.0052 0.0984,5.34e-4 0.0041,0.0072 -0.0031,0.374933 -0.0031,0.430133 -0.0011,0.126533 0.01187,0.9432 9.33e-4,0.981333 0.0308,0.0099 -0.04627,0.0192 -0.100933,0.0452 -5.33e-4,0.113067 -5.33e-4,0.264134 0.0041,0.3824 0.03853,0.01667 1.539067,0 1.539067,0 l -0.5912,-0.143333 c 0,0 -0.3776,0.0021 -0.3624,-0.259867 v -1.401066 c 0.0093,-0.235867 0.1452,-0.378534 0.567067,-0.381734 l 0.519866,-0.0416 c 0,0 0.168667,-0.102666 0.1328,-0.103733 l -1.242666,-0.012"
         inkscape:connector-curvature="0" /><path
         id="path162"
         style="fill:#ffffff;fill-opacity:1;fill-rule:nonzero;stroke:none;stroke-width:0.13333333"
         d="m 11.741666,37.292668 v 0.1912 c 0,0 -0.3276,-0.02813 -0.39792,0.0093 -0.06979,0.038 -0.06405,0.048 -0.06405,0.048 l -0.01407,0.3448 c 0,0 -0.441666,-0.0376 -0.487506,-0.0256 -0.04687,0.01253 -0.06979,0.038 -0.05937,0.101066 0.01251,0.06253 0.01251,0.113067 0.01251,0.113067 v 0.1244 l -0.418227,-0.01147 -0.06928,0.03333 v 0.2928 l -0.3015596,0.038 c 0,0 -0.082293,0.0624 -0.082293,0.112933 0,0.04947 -0.022387,0.2516 -0.022387,0.2516 l 0.2307196,-0.0052 0.01719,-0.290133 0.383333,-0.0031 c 0,0 -0.03437,-0.326533 0.02344,-0.326533 l 0.45208,0.0036 -0.01457,-0.319867 c 0,0 0.383333,0.02293 0.464053,0.02293 0.08229,0 0.0448,-0.3968 0.0448,-0.3968 l 0.416667,-0.0172 0.01405,-0.2536 0.363547,-0.01093 v -0.111467 l -0.47188,-0.01053 -0.01927,0.09533"
         inkscape:connector-curvature="0" /><path
         id="path164"
         style="fill:#ffffff;fill-opacity:1;fill-rule:nonzero;stroke:none;stroke-width:0.13333333"
         d="m 20.777066,37.033868 c -0.05,0 -0.038,0.221867 0,0.221867 l 0.845333,-0.0036 c 0.04693,0 0.04947,-0.216133 0,-0.216133 l -0.845333,-0.0021"
         inkscape:connector-curvature="0" /><path
         id="path166"
         style="fill:#ffffff;fill-opacity:1;fill-rule:nonzero;stroke:none;stroke-width:0.13333333"
         d="m 27.187999,35.217735 c 0.0041,0.2172 -0.603066,0.168267 -0.603066,0.168267 l -0.0844,0.109333 c 0,0 0.640133,0.0104 0.885866,0.0073 0.07507,-0.0011 0.16,-0.08293 0.165734,-0.214133 0.04947,-1.151067 0.04947,-6.705733 0.04947,-6.705733 H 26.37187 l -0.076,0.119867 c 0.592133,-0.024 0.892133,0.140533 0.901067,0.496266 0,0 -0.0095,5.9412 -0.0089,6.0188"
         inkscape:connector-curvature="0" /><path
         id="path168"
         style="fill:#ffffff;fill-opacity:1;fill-rule:nonzero;stroke:none;stroke-width:0.13333333"
         d="m 26.104133,37.401602 c 0,0 -6.7192,-0.06253 -6.768133,-0.024 -0.05267,0.0412 0.0676,0.02293 0.101466,0.0584 0.05573,0.05667 0.159467,0.06667 0.181334,0.137466 0.01867,0.06613 0.02493,0.350534 0.06813,0.350534 L 19.8,37.924535 c 0.03333,0 0.1088,0.0052 0.1088,0.0052 0.01573,0.0156 0.0011,0.423867 0.0011,0.476 0,0.0812 0.186,-0.02453 0.186,0.0516 l 0.0011,1.358267 c 0,0.0432 -0.0776,0.0208 -0.114133,0.0208 -0.0224,0 -0.05,-0.01147 -0.06307,0.0224 0.02507,0.2016 -0.0052,0.431866 -0.0052,0.6344 0,0.04427 0.121466,0.02187 0.1568,0.02187 l 1.5688,-0.0104 -0.03747,-0.550533 -0.6688,-0.08853 0.01507,-2.173467 c 0,0 5.3224,0.03387 5.3136,0 -0.0276,-0.104133 0.0916,-0.1452 0.159866,-0.264533 0.02293,-0.03747 -0.266666,-0.02493 -0.318266,-0.026"
         inkscape:connector-curvature="0" /><path
         id="path170"
         style="fill:#ffffff;fill-opacity:1;fill-rule:nonzero;stroke:none;stroke-width:0.13333333"
         d="m 50.987999,35.733868 c 0.02973,-0.09587 0.0792,-0.167733 0.1032,-0.266133 0.0328,-0.1308 -0.02147,-0.2672 0.02333,-0.362533 0.0204,-0.04587 -0.09573,-0.220267 -0.052,-0.215067 0.0984,0.01093 0.170267,-0.04893 0.170267,-0.138 0,-0.01573 -0.06147,-0.048 -0.0708,-0.06773 -0.0432,-0.08907 -0.02707,-0.25 0.0063,-0.335467 0.0072,-0.02347 0.0244,-0.0416 0.03533,-0.06147 l -0.01093,-0.0031 c -0.546266,-0.0292 -0.902,1.149466 -0.569733,1.0844 0.0047,0 0.02813,0.04787 0.02547,0.06147 -0.002,0.0176 -0.05,0.07853 -0.07387,0.09053 -0.1052,0.05373 -0.276667,0.07973 -0.390133,0.09427 -0.355734,0.04587 -0.694267,0.02453 -1.056267,0.02453 -0.6864,0 -1.3344,-0.0063 -2.0308,-0.0063 -0.6676,0 -1.918133,0.0083 -2.579066,0.0083 -0.307334,0 -0.604667,0.01307 -0.912534,0.01307 -0.132266,0 -0.09787,0.282267 -0.0412,0.3584 0.0224,0.03333 0.596934,0.0072 0.669334,0.0072 l 2.768799,0.0052 c 0.713467,0 1.416134,0.01053 2.119734,0.01053 0.388,0 0.796933,-0.01573 1.2052,-0.01573 0.104666,0 0.2016,0.02867 0.305733,0.02133 0.02867,-0.002 0.213067,-0.05413 0.237467,-0.06973 0.09587,-0.062 0.0896,-0.1516 0.1172,-0.238"
         inkscape:connector-curvature="0" /><path
         id="path172"
         style="fill:#ffffff;fill-opacity:1;fill-rule:nonzero;stroke:none;stroke-width:0.13333333"
         d="m 43.431732,28.132269 h 0.07187 c 0.0276,-0.114534 0.287067,-0.6328 0.236,-1.508267 -0.0136,-0.371867 0.154133,-0.794267 0.854667,-0.794267 h 6.918799 l 0.002,-0.121466 c 0,0 -7.275999,0.04013 -8.283333,0 0.3344,1.077733 0.240134,1.938133 0.2,2.424"
         inkscape:connector-curvature="0" /><path
         id="path174"
         style="fill:#ffffff;fill-opacity:1;fill-rule:nonzero;stroke:none;stroke-width:0.13333333"
         d="m 42.861999,35.755202 c 0,0 0.02133,-0.03067 0.06453,-0.1692 0.04227,-0.138667 -0.1276,-0.346934 -0.1276,-0.346934 l -0.112,0.138534 c 0.07347,-0.146934 -0.292133,-0.546934 -0.292133,-0.546934 0,0 -0.204133,0.1324 -0.282267,0.300534 -0.04947,0.105733 -0.0708,0.213066 -0.05733,0.254266 -0.03693,-0.06053 -0.1812,-0.138533 -0.1812,-0.138533 0,0 -0.0428,0.192667 -0.04947,0.323333 -0.0084,0.1308 0.1052,0.223467 0.1052,0.223467 l -0.149466,-0.116133 c 0,0 -0.03547,0.0156 0.0072,0.293733 0.04373,0.276533 0.407866,0.326533 0.407866,0.326533 l -0.5032,0.0063 c 0,0 -0.05093,0.06093 -0.05093,0.207867 0,0.146266 0.06453,0.207333 0.06453,0.207333 0,0 0.301067,0.05613 0.399467,0.08013 0.101067,0.02293 0.2104,0.07027 0.367733,0.04747 0.157734,-0.0224 0.173467,-0.113067 0.180134,-0.1672 0.0079,-0.05427 0.0027,-0.252667 0.01627,-0.305733 0.01453,-0.05427 0.1776,-0.156267 0.265067,-0.348534 0.0844,-0.193733 0.1068,-0.3244 0.0844,-0.385866 -0.0204,-0.06147 -0.1568,0.1156 -0.1568,0.1156"
         inkscape:connector-curvature="0" /><path
         id="path176"
         style="fill:#ffffff;fill-opacity:1;fill-rule:nonzero;stroke:none;stroke-width:0.13333333"
         d="m 52.336932,27.445335 c -0.2692,0.5656 -1.4468,0.619734 -2.2744,0.619734 h -5.7532 l -0.02813,0.0672 h 8.716133 c -0.3228,-2.976 -1.078,-3.702534 -1.078,-3.702534 v 0.107734 c 0,0 1.089467,1.496933 0.4176,2.907866"
         inkscape:connector-curvature="0" /><path
         id="path178"
         style="fill:#ffffff;fill-opacity:1;fill-rule:nonzero;stroke:none;stroke-width:0.13333333"
         d="m 42.637466,36.978135 -0.845734,-0.0021 c -0.05,0 -0.03867,0.1776 0,0.1776 l 0.845734,-0.0047 c 0.0464,0 0.04947,-0.1708 0,-0.1708"
         inkscape:connector-curvature="0" /><path
         id="path180"
         style="fill:#ffffff;fill-opacity:1;fill-rule:nonzero;stroke:none;stroke-width:0.13333333"
         d="m 43.356266,28.510935 c 5.33e-4,0.264 0.0416,0.273467 0.154133,0.271334 0,0 9.4484,-0.212934 9.595866,-0.161467 0.01307,-0.02653 -0.621333,-0.09947 -0.645866,-0.100533 -0.5052,-0.02707 -9.105733,-0.114534 -9.104133,-0.0093"
         inkscape:connector-curvature="0" /><path
         id="path182"
         style="fill:#ffffff;fill-opacity:1;fill-rule:nonzero;stroke:none;stroke-width:0.13333333"
         d="m 42.947866,27.875469 c 0.03387,-0.156667 -7.554667,0.04173 -7.6124,-0.04053 0.03747,0.1192 0.06093,0.2844 0.09213,0.420267 0.0099,0.0412 7.354133,-0.252133 7.354133,-0.252133 0.05893,0 0.132267,0.04173 0.166134,-0.1276"
         inkscape:connector-curvature="0" /><path
         id="path184"
         style="fill:#ffffff;fill-opacity:1;fill-rule:nonzero;stroke:none;stroke-width:0.13333333"
         d="m 36.742132,28.909869 -0.0708,-0.102 c 0,0 -1.0672,-0.08027 -1.0672,0.05773 0,0 -0.0568,6.6432 0,6.6604 0.02187,0.0073 0.542267,0 0.542267,0 0,0 -0.222933,-0.02547 -0.225067,-0.214 0.0084,-0.3068 0.05573,-6.402133 0.05573,-6.402133 h 0.765066"
         inkscape:connector-curvature="0" /><path
         id="path186"
         style="fill:#ffffff;fill-opacity:1;fill-rule:nonzero;stroke:none;stroke-width:0.13333333"
         d="M 45.434932,36.377602 H 46.11514 V 36.193747 H 45.434932 Z"
         inkscape:connector-curvature="0" /><path
         id="path188"
         style="fill:#ffffff;fill-opacity:1;fill-rule:nonzero;stroke:none;stroke-width:0.13333333"
         d="m 27.481199,27.741602 c 0,0 -7.569733,0.217733 -7.880666,0.01627 l -0.04947,0.3744 c 0.0172,0.0808 7.148933,-0.107334 7.849467,-0.107334 0,0 0.04013,-0.1552 0.08067,-0.283333"
         inkscape:connector-curvature="0" /><path
         id="path190"
         style="fill:#ffffff;fill-opacity:1;fill-rule:nonzero;stroke:none;stroke-width:0.13333333"
         d="m 51.065065,36.624002 c 0,0.03227 -0.0067,0.149466 0.0011,0.149466 l 2.085467,-0.06933 c 0.0047,0.0011 0.0104,-0.0292 -0.1204,-0.03173 l -1.966134,-0.0484"
         inkscape:connector-curvature="0" /><path
         id="path192"
         style="fill:#ffffff;fill-opacity:1;fill-rule:nonzero;stroke:none;stroke-width:0.13333333"
         d="m 50.127599,36.195335 c -0.03693,0 -0.03587,0.183867 0,0.183867 l 0.7036,-0.0016 c 0.03653,0 0.03853,-0.184934 0,-0.184934 l -0.7036,0.0027"
         inkscape:connector-curvature="0" /><path
         id="path194"
         style="fill:#ffffff;fill-opacity:1;fill-rule:nonzero;stroke:none;stroke-width:0.13333333"
         d="m 51.075065,36.265068 c -0.01,0 0,0.05107 -0.0079,0.08707 0.172933,-0.01827 0.3464,0 0.518266,-0.0027 l 1.556267,-0.02707 c 0.0124,-0.02293 -0.0704,-0.0364 -0.246933,-0.038 -0.298934,0.0068 -0.905734,-5.34e-4 -1.819734,-0.01933"
         inkscape:connector-curvature="0" /><path
         id="path196"
         style="fill:#ffffff;fill-opacity:1;fill-rule:nonzero;stroke:none;stroke-width:0.13333333"
         d="m 44.469332,34.997868 c -0.02147,0.0048 -0.05213,-0.01147 -0.072,-0.0099 -0.159333,0.0172 -0.931733,0 -0.9656,0.02707 -0.0124,0.0089 -0.01973,0.2376 0.0224,0.295334 0.01933,0.02653 0.812,-0.0073 0.870934,-0.0073 0.144266,0 0.309333,0.03547 0.452,0.01 0.0308,-0.0057 0.154666,-0.04533 0.176,-0.06307 0.05373,-0.04893 0.145866,-0.418267 0.149066,-0.502667 0,-0.0312 -0.0224,-0.104667 0,-0.188 -0.0084,-0.01347 -0.07507,-0.09893 -0.03387,-0.09373 0.06773,0.0079 0.139066,-0.0536 0.1172,-0.115067 -0.01827,-0.0156 -0.05427,-0.0536 -0.0584,-0.07453 -0.02133,-0.08853 0.0057,-0.1796 0.05213,-0.245734 l -0.0104,-0.02867 c -0.243333,-0.01467 -0.344267,0.196266 -0.439067,0.3828 -0.0344,0.0656 -0.09533,0.154666 -0.107866,0.218266 -0.0093,0.0452 0.0276,0.181734 0.09893,0.2104 0.0464,-0.0084 0.03227,0.04573 0.01933,0.07133 -0.03387,0.06453 -0.167733,0.0744 -0.2708,0.113466"
         inkscape:connector-curvature="0" /><path
         id="path198"
         style="fill:#ffffff;fill-opacity:1;fill-rule:nonzero;stroke:none;stroke-width:0.13333333"
         d="m 52.761999,35.592135 -0.01253,0.126133 c 0,0 0.204667,5.34e-4 0.208934,-0.0043 0.02653,-0.03227 0.02653,-6.5416 0.02653,-6.5416 h -0.566667 l 0.0796,0.231733 0.333867,-0.0077 0.04067,0.06813 -0.0027,6.1276 H 52.76197"
         inkscape:connector-curvature="0" /><path
         id="path200"
         style="fill:#ffffff;fill-opacity:1;fill-rule:nonzero;stroke:none;stroke-width:0.13333333"
         d="m 31.721333,25.300002 c 0.254666,0.128667 0.03707,0.292133 0.383333,0.492667 0.3464,0.200533 0.728667,0.5104 0.764667,0.693733 0.03907,0.1824 0.03907,0.346933 0.03907,0.346933 0,0 0.03333,0.01827 0.182267,0.036 0.088,0.01133 0.1364,0.0864 0.108267,-0.0912 -0.07187,-0.4568 -0.0552,-0.510933 -0.4932,-0.875466 -0.437467,-0.3652 -0.491734,-0.529734 -0.491734,-0.693867 0,-0.164 -0.388,-0.3192 -0.388,-0.410933 0,-0.09053 -0.0676,-0.501467 -0.250933,-0.392134 -0.181867,0.109867 -0.236533,0.204667 -0.438667,0.5292 -0.08907,0.1416 -0.352533,0.365067 -0.365066,0.456267 -0.09947,0.842667 -0.631734,0.6448 -0.709334,1.4604 -0.04173,0.425467 0.617734,0.07293 0.966667,0.1276 0.3464,0.05467 0.757733,-0.0152 0.9932,0.0025 0.238533,0.01987 0.407867,0.0027 0.4032,-0.05413 -0.0496,-0.111467 -0.152133,-0.166667 -0.311067,-0.164 h -1.5088 c 0.275467,-0.286533 0.372934,-0.972933 0.519334,-1.3 0.164533,-0.364667 0.3948,-0.455333 0.3948,-0.455333 0,0 -0.0532,0.164133 0.202,0.291733"
         inkscape:connector-curvature="0" /><path
         id="path202"
         style="fill:#ffffff;fill-opacity:1;fill-rule:nonzero;stroke:none;stroke-width:0.13333333"
         d="m 28.403599,28.098935 -0.19,-0.0047 c -0.06627,0.0172 -0.05213,0.4484 -0.05213,0.4484 l 0.1276,0.0032 v 7.401066 l -0.3084,0.0296 -0.1812,0.07133 c 0,0 -0.0344,0.614134 0.01307,0.6188 0.298933,0.03027 0.6724,0.036 0.871333,0.02133 0.197333,-0.0156 0.07293,-0.485867 0.07293,-0.485867 l 0.0552,-8.0772 -0.4084,-0.026"
         inkscape:connector-curvature="0" /><path
         id="path204"
         style="fill:#ffffff;fill-opacity:1;fill-rule:nonzero;stroke:none;stroke-width:0.13333333"
         d="m 32.945866,35.619335 c -0.683333,-0.0188 -2.3912,0.02853 -3.071867,-0.0344 -0.04893,-0.0052 -0.0876,-0.0172 -0.164666,0.03227 0.0152,0.05467 -0.01347,0.216133 0.0073,0.2812 0.0021,0.01093 0.125067,0.03547 0.174,0.0256 0.189067,-0.03333 3.093733,0.07907 3.080667,0.0208 -0.0172,-0.0708 0.109333,-0.321867 -0.02547,-0.325467"
         inkscape:connector-curvature="0" /><path
         id="path206"
         style="fill:#ffffff;fill-opacity:1;fill-rule:nonzero;stroke:none;stroke-width:0.13333333"
         d="m 33.419732,28.489602 c 0.0037,-0.09947 0.01253,-0.404667 -0.0099,-0.4536 -0.0244,-0.04853 -0.206267,-0.03333 -0.386933,-0.072 -0.1808,-0.03947 -0.254134,-0.05827 -0.519334,-0.06813 -0.264,-0.0099 -1.433333,0.0192 -1.551466,0.0192 -0.123467,0 -0.700534,-0.08747 -1.061467,-0.0093 -0.361467,0.07707 -0.469333,0.271867 -0.481867,0.312 -0.0124,0.03747 0,0.1068 0,0.2516 0,0.145734 0.216267,0.215067 0.216267,0.215067 0,0 0.144267,0.0572 0.1932,0.03853 0.0484,-0.01987 3.2396,0.0484 3.3604,0.0484 0.1208,0 0.2364,-0.191066 0.241066,-0.281733"
         inkscape:connector-curvature="0" /><path
         id="path208"
         style="fill:#ffffff;fill-opacity:1;fill-rule:nonzero;stroke:none;stroke-width:0.13333333"
         d="m 27.454133,26.354669 c 0.07707,0.140133 0.121333,-0.09427 0.121333,-0.09427 0.0063,-0.921867 0.269867,-1.830667 0.269867,-1.830667 l -6.416134,-0.0136 -0.04067,0.1812 h 4.186933 c 0.974533,0 1.871867,1.01 1.878667,1.757334"
         inkscape:connector-curvature="0" /><path
         id="path210"
         style="fill:#ffffff;fill-opacity:1;fill-rule:nonzero;stroke:none;stroke-width:0.13333333"
         d="m 25.114533,31.686935 0.01573,-0.983867 c 0.0031,-0.144799 -0.0079,-0.225466 -0.02093,-0.246799 -0.01293,-0.1464 -0.03853,-0.256267 -0.08227,-0.2828 -0.2068,-0.02813 -0.509333,-0.0276 -0.758267,-0.0208 -0.857333,-0.01467 -2.3032,-0.0308 -2.324,0.04 -0.1036,0.339066 -0.0031,3.140133 -0.01827,3.661999 -0.002,0.08227 -0.03333,0.319867 0.02133,0.390667 l 0.2308,0.06147 1.636933,-0.01827 c 0,0 0.783867,0.0568 1.1928,0 0.108267,-0.064 0.101467,-0.635867 0.08227,-1.004133 l 0.0036,-0.276134 c 0.01093,-0.424933 0.01827,-0.865066 0.02027,-1.321333"
         inkscape:connector-curvature="0" /><path
         id="path212"
         style="fill:#ffffff;fill-opacity:1;fill-rule:nonzero;stroke:none;stroke-width:0.13333333"
         d="m 35.705732,27.198935 c -0.112,0 -0.06253,0.101067 -0.170266,0.111467 -0.05373,0.0047 -0.0021,0.109867 0.0031,0.138533 4.6588,0.01507 7.636,0.03173 7.4136,-0.151066 -0.0172,-0.01453 -6.7324,-0.09893 -7.2464,-0.09893"
         inkscape:connector-curvature="0" /><path
         id="path214"
         style="fill:#ffffff;fill-opacity:1;fill-rule:nonzero;stroke:none;stroke-width:0.13333333"
         d="m 42.393199,26.395335 c -0.391067,0.532267 -5.230133,0.430134 -5.230133,0.430134 l 0.08227,0.06987 5.7156,0.0011 c 0.05413,-0.940667 -0.2516,-2.136 -0.638533,-2.978133 -0.125067,-0.248534 -0.3052,-0.407334 -0.402667,-0.381867 0.702134,1.526133 0.648534,2.6032 0.473467,2.858933"
         inkscape:connector-curvature="0" /><path
         id="path216"
         style="fill:#ffffff;fill-opacity:1;fill-rule:nonzero;stroke:none;stroke-width:0.13333333"
         d="m 36.973466,26.896402 -0.08027,-0.06773 h -0.162533 c -0.500934,-0.04267 -0.75,-0.401067 -0.928,-1.440667 -0.09173,-0.622933 -0.214667,-0.8068 -0.214667,-0.8068 h 6.0704 l 0.0031,-0.108267 h -6.464534 c 0.4504,1.076534 0.4504,1.938 0.462934,2.423467 h 1.3136"
         inkscape:connector-curvature="0" /><path
         id="path218"
         style="fill:#ffffff;fill-opacity:1;fill-rule:nonzero;stroke:none;stroke-width:0.13333333"
         d="m 27.984399,27.258802 0.05307,0.06147 1.166667,-0.0364 c -0.038,-0.4896 -0.0057,-0.7844 -0.07813,-1.2484 0.254267,-0.450534 0.4756,-0.707334 0.723467,-1.1344 l 0.0724,-0.637067 c 1.459333,-1.521867 1.7656,-2.199467 3.233867,0.02667 0.190133,1.076 0.389066,0.6448 0.791599,1.551466 -0.05933,0.5152 0.0152,0.9516 0.104267,1.4688 l 1.035333,-0.01973 c -5.33e-4,-0.183867 0.09533,-0.5344 -0.1072,-0.6448 l 0.03387,-0.798 -0.01053,-0.0208 -0.6276,-0.06773 -0.134267,-0.167734 -0.0089,-0.469733 -0.1896,-0.190667 c -0.0176,-0.280666 -0.1072,-0.601466 -0.258267,-0.840133 -0.497466,-0.188933 -0.2912,-0.06813 -0.5208,-0.711867 -0.08133,0.0708 -0.182933,-0.2136 -0.205733,-0.249466 l -0.3912,-0.437067 c -0.306267,-0.2344 -0.945333,-0.432267 -1.143733,-0.685867 -1.066667,0.5932 -1.457867,0.9604 -1.964534,1.9948 l -0.260533,0.211867 c -0.1724,0.232933 -0.260933,0.4636 -0.278533,0.75 l -0.1724,0.162 4e-4,0.462 -0.168134,0.193733 -0.607866,0.0912 0.062,0.7172 -0.1604,0.240134 0.01147,0.428533"
         inkscape:connector-curvature="0" /><path
         id="path220"
         style="fill:#ffffff;fill-opacity:1;fill-rule:nonzero;stroke:none;stroke-width:0.13333333"
         d="m 42.867732,34.554668 0.0932,0.024 c 0,0 0.0079,-5.912533 0,-5.957866 -0.0088,-0.03533 -0.026,-0.05107 -0.026,-0.05107 0,0 -0.06253,-0.0968 -0.0928,-0.06093 -0.01867,0.02507 0,5.850533 0,5.850533 v 0.1224 l 0.0256,0.07293"
         inkscape:connector-curvature="0" /><path
         id="path222"
         style="fill:#ffffff;fill-opacity:1;fill-rule:nonzero;stroke:none;stroke-width:0.13333333"
         d="m 31.427599,21.221869 v -5.354667 c 0,0 -0.352133,0.995334 -1.267733,3.1224 -0.915067,2.1276 -1.898933,6.2396 -1.844267,6.099467 1.4136,-3.5864 3.112,-3.8672 3.112,-3.8672"
         inkscape:connector-curvature="0" /><path
         id="path224"
         style="fill:#ffffff;fill-opacity:1;fill-rule:nonzero;stroke:none;stroke-width:0.13333333"
         d="m 34.275466,36.688002 c 0.197466,0.01467 0.5704,0.0089 0.8704,-0.02133 0.04627,-0.0047 0.03067,-0.7052 0.03067,-0.7052 l -0.200533,0.01507 -0.3072,-0.0296 v -7.401066 l 0.1104,0.02387 c 0,0 0.03067,-0.458266 -0.03493,-0.475466 l -0.598934,0.03067 0.0552,8.0772 c 0,0 -0.125066,0.470267 0.07493,0.485867"
         inkscape:connector-curvature="0" /><path
         id="path226"
         style="fill:#ffffff;fill-opacity:1;fill-rule:nonzero;stroke:none;stroke-width:0.13333333"
         d="m 40.547866,33.284402 c 0.01987,0.368266 0.02507,0.940133 -0.08173,1.004133 -0.4088,0.0568 -1.192666,0 -1.192666,0 l -1.637067,0.01827 -0.230667,-0.06147 c -0.0552,-0.0708 -0.02347,-0.307867 -0.02133,-0.390667 0.014,-0.521866 -0.08493,-3.322933 0.01867,-3.661999 0.02613,-0.09213 2.683333,-0.0364 3.128133,-0.02867 0.0396,0.0084 0.0448,0.0204 0.0396,0.03293 l 0.0089,0.307734 c 0.0067,0.04173 0.0104,0.107333 0.0093,0.198399 l -0.01773,0.983867 c -0.0016,0.456267 -0.0088,0.8964 -0.01973,1.321333 l -0.0037,0.276134"
         inkscape:connector-curvature="0" /><path
         id="path228"
         style="fill:#ffffff;fill-opacity:1;fill-rule:nonzero;stroke:none;stroke-width:0.13333333"
         d="m 50.945332,32.686002 c 0.03533,0.314 0.04733,0.817066 -0.148,0.871866 -0.7328,0.04893 -2.138533,0 -2.138533,0 h -2.935867 c 0,0 -0.4344,-0.04013 -0.4516,-0.3844 -0.02293,-0.4464 -0.154133,-2.833333 0.0308,-3.123466 0.01867,-0.0292 0.715067,-0.04213 1.611867,-0.0448 h 4.069866 c 0.01147,0.0396 0.0079,0.0464 0,0.05267 v 0.221333 c 0.02133,0.02347 0.0396,0.0916 0.03387,0.2068 l -0.02653,0.838533 -0.0073,0.330133 v 0.8276 l -0.03853,0.203734"
         inkscape:connector-curvature="0" /><path
         id="path230"
         style="fill:#ffffff;fill-opacity:1;fill-rule:nonzero;stroke:none;stroke-width:0.13333333"
         d="m 33.270799,30.812002 c 0.03333,0.6932 -0.062,4.433333 -0.120266,4.5104 -0.200534,-0.02347 -0.413067,-0.03693 -0.6224,-0.04373 l -2.625467,0.0052 -0.189067,-0.01827 c -0.024,-2.0208 0.0708,-4.090134 -0.01627,-6.0984 l 0.116666,-0.0256 c 0.966667,0.05533 2.326667,0.07973 3.31,-0.04267 l 0.118667,-0.0077 c 0,0 0.0095,1.328133 0.02813,1.7208"
         inkscape:connector-curvature="0" /><path
         id="path232"
         style="fill:#ffffff;fill-opacity:1;fill-rule:nonzero;stroke:none;stroke-width:0.13333333"
         d="m 33.714532,36.626002 c 0.01933,0.0568 -4.135866,-0.0348 -4.408266,0.0047 -0.07133,0.01093 -0.246933,-0.0077 -0.2516,-0.0192 -0.0276,-0.062 0.01613,-0.2208 -0.0036,-0.272933 0.109867,-0.05107 0.164533,-0.04067 0.235333,-0.03747 0.978667,0.03693 3.438667,-0.0724 4.424533,-0.07813 0.1932,-0.0016 -0.0188,0.334933 0.0036,0.403067"
         inkscape:connector-curvature="0" /><path
         id="path234"
         style="fill:#ffffff;fill-opacity:1;fill-rule:nonzero;stroke:none;stroke-width:0.13333333"
         d="m 27.401066,38.463068 c 0.08907,0.1172 8.444266,0.03227 8.6328,0.1072 l 0.129733,0.1776 v 0.109467 c -1.115733,0.01293 -9.4344,0 -9.4344,0 0.08907,-0.180267 0.0208,-0.274 0.1552,-0.3324 0.09067,-0.04107 0.391067,-0.014 0.516667,-0.06187"
         inkscape:connector-curvature="0" /><path
         id="path236"
         style="fill:#ffffff;fill-opacity:1;fill-rule:nonzero;stroke:none;stroke-width:0.13333333"
         d="m 26.317733,39.160935 c 0.311466,0.0063 0.0073,0.0188 0.4516,0.0188 h 8.222399 c 0.5952,0 1.241067,0.01813 1.758267,0.0063 0.369333,-0.0073 0.3896,0.1468 0.562,0.331733 h 0.113467 v 0.09053 l -11.944267,0.0053 v -0.181334 c 0.214134,-0.09013 0.2292,-0.137466 0.370934,-0.2844 l 0.4656,0.01307"
         inkscape:connector-curvature="0" /><path
         id="path238"
         style="fill:#ffffff;fill-opacity:1;fill-rule:nonzero;stroke:none;stroke-width:0.13333333"
         d="m 37.507866,39.925468 h 0.338533 l 0.566667,0.638534 H 24.383333 v -0.106134 h 0.1136 c 0.2176,-0.2152 0.44,-0.486533 0.8,-0.578133 -0.01987,0.334267 12.278133,0.200933 12.274399,0.1968 -0.002,-0.002 0.0099,-0.02027 -0.06347,-0.151067"
         inkscape:connector-curvature="0" /><path
         id="path252"
         style="fill:#0b0b23;fill-opacity:1;fill-rule:nonzero;stroke:none;stroke-width:0.13333333"
         d="m 34.554666,53.593201 v 1.452667 h -5.712533 l -0.5432,-0.0068 c -0.5968,0 -1.293734,-0.216133 -2.045334,-0.553067 -0.545733,-0.240666 -1.104133,-0.538666 -1.678133,-0.8928 v 1.445867 h -2.9708 v -1.9276 c -0.109333,0.284933 -0.257733,0.5536 -0.447867,0.8016 -0.686,0.8828 -1.947466,1.1984 -3.042266,1.1984 -1.8104,0 -3.1624,-0.752133 -3.589467,-2.300533 -0.131866,0.697333 -0.534933,1.2672 -1.176133,1.666133 -0.6406,0.3984 -1.405707,0.570267 -2.24372,0.570267 H 7.1067732 v -8.509867 h 4.4301998 c 1.19532,0 2.607827,0.799467 2.845293,2.1156 V 46.531735 H 17.312 v 5.471866 c 0,0.538 0.215066,0.749067 0.7932,0.749067 0.428666,0 0.5844,-0.1204 0.655733,-0.215733 0.076,-0.0968 0.142667,-0.253067 0.142667,-0.533334 v -5.471866 l 2.701066,-0.0025 h 3.614667 c 0.9572,0 1.824933,0.242134 2.565066,0.7572 0.480667,0.3344 0.838,0.749067 1.057734,1.231867 v -1.989067 h 6.356266 c 0.956267,0 1.825067,0.242134 2.564133,0.7572 0.842134,0.5876 1.309867,1.416667 1.309867,2.433334 0,0.831866 -0.251067,1.576666 -0.800533,2.167733 -0.112,0.118267 -0.229734,0.2276 -0.355734,0.327067 0.384934,0.126666 0.769867,0.249466 1.156267,0.371466 v 0.447867 c 0.198933,-0.898933 0.451067,-1.7808 0.807333,-2.674 0.564,-1.409867 1.263467,-2.5864 2.129067,-3.830667 h 2.090133 c 0.854134,1.223867 1.588,2.4396 2.140134,3.830667 0.401066,0.999467 0.665066,1.988533 0.872933,3.004133 v -6.8348 h 1.867733 c 0.926,0 2.121867,2.0828 2.509867,2.759334 0.202133,-0.335467 0.4292,-0.688 0.680133,-1.057867 0.390133,-0.583333 1.0672,-1.701467 1.826667,-1.701467 h 1.8656 v 8.516667 h -2.955734 v -2.4412 c -0.1308,0.306267 -0.244266,0.6084 -0.3448,0.901067 l -0.121866,0.397333 c -0.1828,0.390667 -0.5068,0.6376 -0.952134,0.6376 -0.402,0 -0.674933,-0.254267 -0.8068,-0.436533 -0.112933,-0.168134 -0.204133,-0.406267 -0.267066,-0.6036 -0.100534,-0.297867 -0.215734,-0.597467 -0.3464,-0.9036 v 2.448933 h -2.9552 l -0.994267,-0.0068 h -1.600533 c -0.1224,-0.564133 -0.2448,-1.1276 -0.3932,-1.6864 h -2.145867 c -0.124533,0.487467 -0.2328,0.978 -0.335466,1.473867 l -0.0416,0.212533 h -3.324534 c -0.595866,0 -1.292133,-0.216133 -2.043733,-0.553067 -0.545867,-0.240666 -1.1052,-0.538666 -1.678133,-0.8928 m 0,-2.880133 c 0.640133,0.0828 1.084933,-0.1104 1.241733,-0.242267 0.150533,-0.1276 0.2692,-0.333333 0.2692,-0.751066 0,-0.242134 -0.0812,-0.4156 -0.303067,-0.582267 -0.2308,-0.171867 -0.523466,-0.273867 -0.924,-0.273867 h -0.283866 z m -5.712533,0.3276 c -0.129067,0.307733 -0.311467,0.592667 -0.549467,0.8468 -0.109867,0.118267 -0.228133,0.2276 -0.3552,0.327067 l 0.904667,0.292266 z m -4.266667,-0.3276 c 0.640667,0.0828 1.085467,-0.1104 1.242267,-0.242267 0.148933,-0.1276 0.270266,-0.333333 0.270266,-0.751066 0,-0.242134 -0.08013,-0.4156 -0.3036,-0.582267 -0.230266,-0.171867 -0.524,-0.273867 -0.925066,-0.273867 h -0.283867 z m -10.1932,0.575467 v -1.8136 c -0.06453,0.3844 -0.2192,0.738666 -0.483866,1.043866 l 0.06613,0.07707 c 0.178133,0.214533 0.3172,0.445733 0.417733,0.692667 m -3.356226,1.450533 c 0.229173,0 0.357293,-0.0432 0.42448,-0.0808 0.06927,-0.04107 0.166666,-0.1156 0.166666,-0.4552 0,-0.232267 -0.06719,-0.3484 -0.184373,-0.440533 -0.117187,-0.09373 -0.359373,-0.1828 -0.7,-0.1828 h -0.69584 v 1.161866 z m 0.0021,-3.509867 c 0.0974,0 0.459386,-0.07613 0.459386,-0.209866 -0.0083,-0.04013 -0.02969,-0.06147 -0.05,-0.074 -0.128653,-0.08493 -0.29636,-0.142267 -0.513026,-0.142267 H 10.03699 v 0.426133 z m 31.694812,1.745334 h 0.648934 c -0.09947,-0.261467 -0.2068,-0.521867 -0.3224,-0.778667 -0.107734,0.2396 -0.216134,0.497867 -0.326534,0.778667"
         inkscape:connector-curvature="0" /><path
         id="path254"
         style="fill:#ffffff;fill-opacity:1;fill-rule:nonzero;stroke:none;stroke-width:0.13333333"
         d="m 37.687999,51.346935 c 0.392667,-0.4204 0.588533,-0.962534 0.588533,-1.6272 0,-0.737467 -0.3224,-1.331734 -0.968133,-1.780134 -0.588667,-0.409333 -1.290667,-0.615066 -2.11,-0.615066 h -2.821333 v 6.9276 h 1.381733 v -6.1844 h 1.079733 c 0.547867,0 1.014134,0.145866 1.401067,0.433866 0.415067,0.310934 0.6224,0.7172 0.6224,1.218134 0,0.595333 -0.184933,1.0464 -0.5536,1.358933 -0.361467,0.305733 -1.0672,0.539067 -1.914667,0.414533 -0.09787,-0.014 -0.192666,-0.03533 -0.2864,-0.06293 v 0.914 c 0.166134,0.120267 0.364534,0.2552 0.597867,0.403067 0.633333,0.410533 1.25,0.745866 1.85,1.011466 0.7208,0.324 1.293733,0.486534 1.721333,0.486534 v -1.077067 c -0.378666,-0.121333 -0.757733,-0.2464 -1.1328,-0.3724 -0.502533,-0.186533 -0.909866,-0.387067 -1.2244,-0.601067 0.2776,-0.0536 0.4744,-0.101066 0.592667,-0.1396 0.490133,-0.155733 0.8828,-0.3912 1.176,-0.708266"
         inkscape:connector-curvature="0" /><path
         id="path256"
         style="fill:#ffffff;fill-opacity:1;fill-rule:nonzero;stroke:none;stroke-width:0.13333333"
         d="m 11.85052,53.345335 c -0.219787,0.126 -0.495307,0.190133 -0.82292,0.190133 0,0 -1.7854136,0.0057 -1.7854136,0 v -5.5276 H 10.92448 c 0.357813,0 0.67188,0.08907 0.942706,0.268667 0.27656,0.1724 0.415107,0.4208 0.415107,0.7428 0,0.215066 -0.08959,0.4192 -0.267187,0.6156 -0.236986,0.2588 -0.566146,0.388 -0.986986,0.388 H 9.5104131 v 0.760933 h 1.2223999 c 0.455733,0 0.894787,0.119733 1.195827,0.354667 0.32292,0.259333 0.483333,0.614533 0.483333,1.064533 0,0.541733 -0.186453,0.922933 -0.561453,1.142267 z m 0.742186,-2.829734 c 0.328654,-0.183866 0.556254,-0.347333 0.682814,-0.492666 0.23128,-0.252667 0.346346,-0.580267 0.346346,-0.976534 0,-0.450533 -0.210933,-0.848 -0.63176,-1.194266 -0.42084,-0.3464 -0.904693,-0.5188 -1.453133,-0.5188 H 7.9015598 v 6.9188 h 3.2036532 c 0.732293,0 1.340093,-0.149467 1.82448,-0.449467 0.565107,-0.352133 0.847373,-0.855733 0.847373,-1.5136 0,-0.448933 -0.141066,-0.843733 -0.423466,-1.1844 -0.20204,-0.242667 -0.45516,-0.4396 -0.760894,-0.589067"
         inkscape:connector-curvature="0" /><path
         id="path258"
         style="fill:#ffffff;fill-opacity:1;fill-rule:nonzero;stroke:none;stroke-width:0.13333333"
         d="m 53.996399,47.324535 c -0.172934,0 -0.562534,0.4504 -1.167734,1.349466 -0.605733,0.8932 -1.052666,1.6672 -1.3412,2.3176 -0.293733,-0.657733 -0.7348,-1.4244 -1.3244,-2.3 -0.6104,-0.911333 -1.004266,-1.367066 -1.183333,-1.367066 h -1.072933 v 6.9276 h 1.366133 v -4.679734 c 0.3416,0.4412 0.692667,1.007867 1.0468,1.700534 0.352133,0.6792 0.635467,1.3396 0.848533,1.980666 0.06293,0.1964 0.1172,0.328134 0.164534,0.396934 0.04533,0.06307 0.09787,0.09427 0.154666,0.09427 0.09853,0 0.168267,-0.04213 0.207334,-0.128133 l 0.113066,-0.363067 c 0.212934,-0.6348 0.4948,-1.295333 0.85,-1.980666 0.347867,-0.686934 0.697867,-1.254667 1.042667,-1.700534 v 4.679734 h 1.3688 v -6.9276 h -1.072933"
         inkscape:connector-curvature="0" /><path
         id="path260"
         style="fill:#ffffff;fill-opacity:1;fill-rule:nonzero;stroke:none;stroke-width:0.13333333"
         d="m 43.685466,47.324535 h -1.26 c -0.7448,1.067066 -1.3468,2.177066 -1.8088,3.3312 -0.4552,1.146933 -0.783334,2.342666 -0.985467,3.5896 h 1.319867 c 0.247866,-1.213067 0.5744,-2.351067 0.976533,-3.4172 0.370267,-0.971867 0.7464,-1.736 1.1276,-2.2896 0.2188,0.316666 0.437467,0.716133 0.6588,1.198933 0.2824,0.616667 0.543867,1.2928 0.7792,2.031333 l -2.562933,0.0015 c -0.110534,0.277067 -0.1756,0.455733 -0.1996,0.537067 -0.02133,0.07387 -0.03373,0.1572 -0.03373,0.25 h 3.0276 c 0.168667,0.5656 0.3124,1.128133 0.433334,1.688 h 1.320266 c -0.2016,-1.269334 -0.5276,-2.466667 -0.976533,-3.5896 -0.449467,-1.1308 -1.055733,-2.241734 -1.816133,-3.3312"
         inkscape:connector-curvature="0" /><path
         id="path262"
         style="fill:#ffffff;fill-opacity:1;fill-rule:nonzero;stroke:none;stroke-width:0.13333333"
         d="m 19.6984,52.003601 c 0,0.414667 -0.102,0.754267 -0.308267,1.021867 -0.269867,0.347467 -0.698,0.521467 -1.284933,0.521467 -0.586934,0 -1.014534,-0.176134 -1.284934,-0.5276 -0.202533,-0.262 -0.303066,-0.601067 -0.303066,-1.015734 v -4.676 h -1.340134 v 4.3516 c 0,0.708267 0.174,1.287467 0.5188,1.738 0.462,0.6 1.414534,0.898934 2.418667,0.898934 1.002667,0 1.9516,-0.2968 2.414133,-0.8912 0.3516,-0.4556 0.5276,-1.037467 0.5276,-1.745734 v -4.3516 H 19.6984 v 4.676"
         inkscape:connector-curvature="0" /><path
         id="path264"
         style="fill:#ffffff;fill-opacity:1;fill-rule:nonzero;stroke:none;stroke-width:0.13333333"
         d="m 27.710933,51.346935 c 0.3912,-0.4204 0.588533,-0.962534 0.588533,-1.6272 0,-0.737467 -0.323467,-1.331734 -0.9692,-1.780134 -0.588133,-0.409333 -1.291733,-0.615066 -2.110933,-0.615066 h -2.819867 v 6.9208 h 1.381733 v -6.1776 h 1.078134 c 0.548533,0 1.0152,0.145866 1.401066,0.433866 0.415067,0.310934 0.622934,0.7172 0.622934,1.218134 0,0.595333 -0.1844,1.0464 -0.5536,1.358933 -0.3636,0.305733 -1.0672,0.539067 -1.914667,0.414533 -0.09787,-0.014 -0.1932,-0.03533 -0.2848,-0.06293 v 0.914 c 0.1656,0.120267 0.362933,0.2552 0.595733,0.403067 0.6344,0.410533 1.252134,0.745866 1.8516,1.011466 0.721334,0.324 1.2948,0.486534 1.721867,0.486534 v -1.077067 c -0.380667,-0.121333 -0.7588,-0.2464 -1.133333,-0.3724 -0.502534,-0.186533 -0.911467,-0.387067 -1.226,-0.601067 0.2776,-0.0536 0.4744,-0.101066 0.593733,-0.1396 0.490133,-0.155733 0.882267,-0.3912 1.177067,-0.708266"
         inkscape:connector-curvature="0" /><path
         id="path266"
         style="fill:#ffffff;fill-opacity:1;fill-rule:nonzero;stroke:none;stroke-width:0.13333333"
         d="m 29.637999,54.252135 h 1.367187 v -6.9276 h -1.367187 z"
         inkscape:connector-curvature="0" /><path
         id="path268"
         style="fill:#0e0f2f;fill-opacity:1;fill-rule:nonzero;stroke:none;stroke-width:0.13333333"
         d="m 48.716132,61.614534 1.1672,-0.3396 -6.480266,5.952667 3.230266,-4.15 -1.267733,0.2912 6.0636,-5.134933 -2.713067,3.380666"
         inkscape:connector-curvature="0" /><path
         id="path270"
         style="fill:#ffffff;fill-opacity:1;fill-rule:nonzero;stroke:none;stroke-width:0.13333333"
         d="m 50.340665,59.307868 -2.148,2.6124 0.9688,-0.248934 -4.561999,4.2432 2.565599,-3.1948 -1.012399,0.278134 4.187999,-3.69"
         inkscape:connector-curvature="0" /><path
         id="path272"
         style="fill:#0e0f2f;fill-opacity:1;fill-rule:nonzero;stroke:none;stroke-width:0.13333333"
         d="m 14.2552,61.614534 -1.169787,-0.3396 6.48072,5.952667 -3.229733,-4.15 1.267733,0.2912 -6.064027,-5.134933 2.715094,3.380666"
         inkscape:connector-curvature="0" /><path
         id="path274"
         style="fill:#ffffff;fill-opacity:1;fill-rule:nonzero;stroke:none;stroke-width:0.13333333"
         d="m 12.629693,59.307868 2.14844,2.6124 -0.969733,-0.248934 4.561333,4.2432 -2.564533,-3.1948 1.012533,0.278134 -4.18804,-3.69"
         inkscape:connector-curvature="0" /><path
         id="path276"
         style="fill:#0b0b23;fill-opacity:1;fill-rule:nonzero;stroke:none;stroke-width:0.13333333"
         d="m 30.295866,61.052668 h 1.342133 v 3.530666 h 1.590667 v -3.530666 h 1.365066 v -1.426667 h -4.297866 v 1.426667"
         inkscape:connector-curvature="0" /><path
         id="path278"
         style="fill:#0b0b23;fill-opacity:1;fill-rule:nonzero;stroke:none;stroke-width:0.13333333"
         d="m 42.096399,63.109334 c -0.181333,0.1464 -0.499067,0.254267 -1.016667,0.261467 l -0.0011,-2.516667 c 0.575466,0.02707 0.921866,0.190667 1.115066,0.421867 0.155734,0.181867 0.2532,0.441733 0.2532,0.8204 0,0.542133 -0.145333,0.8452 -0.350533,1.012933 z m 1.315067,-2.6276 c -0.317734,-0.351466 -0.755734,-0.582266 -1.282267,-0.711466 -0.4032,-0.100534 -0.909867,-0.145334 -1.4704,-0.145334 -0.014,0.0011 -1.171867,0.0011 -1.171867,0.0011 v 4.9568 h 1.9324 c 0.7624,0 1.5728,-0.311467 2.0484,-0.926533 0.337467,-0.427067 0.488,-0.9636 0.488,-1.573467 0,-0.634933 -0.166133,-1.1844 -0.544266,-1.601067"
         inkscape:connector-curvature="0" /><path
         id="path280"
         style="fill:#0b0b23;fill-opacity:1;fill-rule:nonzero;stroke:none;stroke-width:0.13333333"
         d="m 34.879199,64.583334 h 4.312533 v -1.404666 l -2.725066,-0.0041 v -0.3636 h 2.003066 v -1.4208 h -2.003066 v -0.328133 h 2.725066 v -1.436 h -4.314666 l 0.0021,4.957333"
         inkscape:connector-curvature="0" /><path
         id="path282"
         style="fill:#0b0b23;fill-opacity:1;fill-rule:nonzero;stroke:none;stroke-width:0.13333333"
         d="m 21.747333,62.838534 c 0,0.184934 -0.04427,0.302667 -0.1056,0.3812 -0.0672,0.08813 -0.1944,0.165734 -0.472934,0.165734 -0.392266,0 -0.576666,-0.162 -0.576666,-0.546934 v -3.212533 h -1.579067 v 3.014133 c 0,1.328667 0.8572,1.9796 2.160933,1.9796 0.651467,0 1.376,-0.187466 1.763467,-0.686933 0.276533,-0.3568 0.399467,-0.7984 0.399467,-1.292667 v -3.014133 h -1.5896 v 3.212533"
         inkscape:connector-curvature="0" /><path
         id="path284"
         style="fill:#0b0b23;fill-opacity:1;fill-rule:nonzero;stroke:none;stroke-width:0.13333333"
         d="m 26.372933,60.948934 c -0.240667,-0.2328 -1.3828,-1.322933 -1.7828,-1.322933 h -0.965067 v 4.957333 h 1.6 v -2.640666 c 0.237467,0.244266 1.061867,1.210933 1.147867,1.374533 v 1.266133 h 1.597866 v -4.957333 h -1.597866 v 1.322933"
         inkscape:connector-curvature="0" /><path
         id="path286"
         style="fill:#0b0b23;fill-opacity:1;fill-rule:nonzero;stroke:none;stroke-width:0.13333333"
         d="m 28.365066,64.583868 h 1.59636 v -4.957814 h -1.59636 z"
         inkscape:connector-curvature="0" /><path
         id="path288"
         style="fill:#ffffff;fill-opacity:1;fill-rule:nonzero;stroke:none;stroke-width:0.13333333"
         d="m 35.263599,64.198934 h 3.5432 v -0.635866 c 0,0 -2.717733,-0.0021 -2.724,-0.0057 v -1.130266 h 2.0032 v -0.652134 h -2.0032 v -1.096266 h 2.724 v -0.666667 h -3.5432 c -0.0048,0.0016 0,4.0016 0,4.186933"
         inkscape:connector-curvature="0" /><path
         id="path290"
         style="fill:#ffffff;fill-opacity:1;fill-rule:nonzero;stroke:none;stroke-width:0.13333333"
         d="m 30.680266,60.668801 h 1.341067 v 3.530133 h 0.8208 v -3.530133 h 1.365733 v -0.6568 h -3.5276 v 0.6568"
         inkscape:connector-curvature="0" /><path
         id="path292"
         style="fill:#ffffff;fill-opacity:1;fill-rule:nonzero;stroke:none;stroke-width:0.13333333"
         d="m 42.339066,63.408268 c -0.289067,0.233333 -0.729734,0.3496 -1.326534,0.3496 h -0.3172 l -0.0016,-3.291734 h 0.209334 c 0.738666,0 1.265733,0.186534 1.5844,0.5604 0.230266,0.267734 0.344266,0.624 0.344266,1.069867 0,0.606667 -0.164533,1.0448 -0.492666,1.311867 z m 0.786,-2.668134 c -0.252667,-0.2808 -0.614667,-0.4792 -1.088667,-0.5964 -0.364533,-0.09067 -0.814533,-0.135866 -1.357733,-0.135866 -0.03387,0.0041 -0.800534,0.0041 -0.8068,0 v 4.19 h 1.547466 c 0.2864,0 0.5728,-0.052 0.860934,-0.154134 0.373333,-0.134933 0.6676,-0.3432 0.8848,-0.6244 0.270933,-0.3448 0.4052,-0.789066 0.4052,-1.336533 0,-0.5672 -0.1484,-1.014533 -0.4452,-1.342667"
         inkscape:connector-curvature="0" /><path
         id="path294"
         style="fill:#ffffff;fill-opacity:1;fill-rule:nonzero;stroke:none;stroke-width:0.13333333"
         d="m 28.748399,64.198934 h 0.828126 v -4.186973 h -0.828126 z"
         inkscape:connector-curvature="0" /><path
         id="path296"
         style="fill:#ffffff;fill-opacity:1;fill-rule:nonzero;stroke:none;stroke-width:0.13333333"
         d="m 26.757333,61.901068 c -0.9604,-1.071334 -2.048934,-1.889067 -2.1672,-1.889067 h -0.581334 v 4.186933 h 0.831867 v -3.1068 c 0.107733,0.01933 0.7432,0.613067 1.5448,1.567734 0.248933,0.314133 0.371867,0.5188 0.371867,0.613066 v 0.926 h 0.828666 v -4.186933 h -0.828666 v 1.889067"
         inkscape:connector-curvature="0" /><path
         id="path298"
         style="fill:#ffffff;fill-opacity:1;fill-rule:nonzero;stroke:none;stroke-width:0.13333333"
         d="m 22.132266,62.838534 c 0,0.250534 -0.062,0.455734 -0.1864,0.6172 -0.164133,0.210934 -0.4224,0.3156 -0.777067,0.3156 -0.355733,0 -0.614133,-0.106266 -0.7776,-0.318666 -0.1224,-0.1584 -0.183333,-0.3636 -0.183333,-0.614134 v -2.826533 h -0.81 v 2.628667 c 0,0.429066 0.1048,0.778666 0.3136,1.051466 0.278667,0.364134 0.854667,0.545334 1.462533,0.545334 0.606667,0 1.180134,-0.1796 1.4604,-0.5396 0.212,-0.2744 0.318667,-0.628134 0.318667,-1.0572 v -2.628667 h -0.8208 v 2.826533"
         inkscape:connector-curvature="0" /><path
         id="path300"
         style="fill:#16183e;fill-opacity:1;fill-rule:nonzero;stroke:none;stroke-width:0.13333333"
         d="m 36.466666,63.096934 h 2.00312 v -0.285937 h -2.00312 z"
         inkscape:connector-curvature="0" /><path
         id="path302"
         style="fill:#16183e;fill-opacity:1;fill-rule:nonzero;stroke:none;stroke-width:0.13333333"
         d="m 34.877066,59.911468 v 0 l 0.0021,4.9588 h 4.312533 v -0.286934 h -4.312533 l -0.0021,-4.671866"
         inkscape:connector-curvature="0" /><path
         id="path304"
         style="fill:#16183e;fill-opacity:1;fill-rule:nonzero;stroke:none;stroke-width:0.13333333"
         d="m 36.466666,61.346934 h 2.725 v -0.284896 h -2.725 z"
         inkscape:connector-curvature="0" /><path
         id="path306"
         style="fill:#16183e;fill-opacity:1;fill-rule:nonzero;stroke:none;stroke-width:0.13333333"
         d="m 42.193732,61.562001 c 0.136,0.157333 0.226534,0.374933 0.2484,0.678133 0.0027,-0.04693 0.0048,-0.0928 0.0048,-0.143733 0,-0.378667 -0.09747,-0.638533 -0.2532,-0.8204 -0.1932,-0.2312 -0.5396,-0.3948 -1.115066,-0.421867 v 0.286534 c 0.575466,0.0276 0.921866,0.192133 1.115066,0.421333"
         inkscape:connector-curvature="0" /><path
         id="path308"
         style="fill:#16183e;fill-opacity:1;fill-rule:nonzero;stroke:none;stroke-width:0.13333333"
         d="m 43.467732,63.656268 c -0.4756,0.615066 -1.286,0.926533 -2.0484,0.926533 h -1.9324 v 0.286533 h 1.9324 c 0.7624,0 1.5728,-0.311466 2.0484,-0.9256 0.337467,-0.429733 0.488,-0.965066 0.488,-1.5744 0,-0.04693 -0.0027,-0.0928 -0.0047,-0.138666 -0.0224,0.548533 -0.174,1.033333 -0.483334,1.4256"
         inkscape:connector-curvature="0" /><path
         id="path310"
         style="fill:#16183e;fill-opacity:1;fill-rule:nonzero;stroke:none;stroke-width:0.13333333"
         d="m 30.295866,61.338534 h 1.342187 v -0.285937 h -1.342187 z"
         inkscape:connector-curvature="0" /><path
         id="path312"
         style="fill:#16183e;fill-opacity:1;fill-rule:nonzero;stroke:none;stroke-width:0.13333333"
         d="m 33.228666,61.338534 h 1.365106 v -0.285937 h -1.365106 z"
         inkscape:connector-curvature="0" /><path
         id="path314"
         style="fill:#16183e;fill-opacity:1;fill-rule:nonzero;stroke:none;stroke-width:0.13333333"
         d="m 31.637999,64.870268 h 1.590627 v -0.286979 h -1.590627 z"
         inkscape:connector-curvature="0" /><path
         id="path316"
         style="fill:#16183e;fill-opacity:1;fill-rule:nonzero;stroke:none;stroke-width:0.13333333"
         d="m 23.625066,64.870268 h 1.6 v -0.286979 h -1.6 z"
         inkscape:connector-curvature="0" /><path
         id="path318"
         style="fill:#16183e;fill-opacity:1;fill-rule:nonzero;stroke:none;stroke-width:0.13333333"
         d="m 26.372933,64.870268 h 1.59792 v -0.286979 h -1.59792 z"
         inkscape:connector-curvature="0" /><path
         id="path320"
         style="fill:#16183e;fill-opacity:1;fill-rule:nonzero;stroke:none;stroke-width:0.13333333"
         d="m 25.225066,61.942668 v 0.286 c 0.237467,0.244266 1.061867,1.210933 1.147867,1.373466 v -0.284933 c -0.086,-0.1636 -0.9104,-1.130267 -1.147867,-1.374533"
         inkscape:connector-curvature="0" /><path
         id="path322"
         style="fill:#16183e;fill-opacity:1;fill-rule:nonzero;stroke:none;stroke-width:0.13333333"
         d="m 21.173999,64.619734 c -1.303733,0 -2.160933,-0.650933 -2.160933,-1.9796 v 0.2864 c 0,1.328667 0.8572,1.981334 2.160933,1.981334 0.651467,0 1.376,-0.1896 1.763467,-0.688134 0.276533,-0.357733 0.399467,-0.8004 0.399467,-1.2932 v -0.2864 c 0,0.494267 -0.122934,0.935867 -0.399467,1.292667 -0.387467,0.499467 -1.112,0.686933 -1.763467,0.686933"
         inkscape:connector-curvature="0" /><path
         id="path324"
         style="fill:#16183e;fill-opacity:1;fill-rule:nonzero;stroke:none;stroke-width:0.13333333"
         d="m 28.365066,64.870268 h 1.59636 v -0.286459 h -1.59636 z"
         inkscape:connector-curvature="0" /></g></g></svg>