<?xml version="1.0" encoding="UTF-8" standalone="no"?><!-- Generator: Gravit.io --><svg xmlns="http://www.w3.org/2000/svg" xmlns:xlink="http://www.w3.org/1999/xlink" style="isolation:isolate" viewBox="0 0 512 512" width="512pt" height="512pt"><defs><clipPath id="_clipPath_6V4olpZ5fDAUsmO37dd829ldBTLFV6vN"><rect width="512" height="512"/></clipPath></defs><g clip-path="url(#_clipPath_6V4olpZ5fDAUsmO37dd829ldBTLFV6vN)"><path d="M 477.714 383.995 L 256.005 512 L 34.286 383.995 L 34.286 127.985 L 256.005 0 L 477.714 127.985 L 477.714 383.995 Z" fill-rule="evenodd" fill="rgb(239,191,4)" /><path d=" M 208.017 256 C 208.017 229.161 229.714 207.463 256.553 207.463 C 283.393 207.463 305.09 229.161 305.09 256 C 305.09 282.839 283.393 304.537 256.553 304.537 C 229.714 304.537 208.017 282.714 208.017 256 Z " fill="rgb(237,29,36)"/><path d=" M 217.548 227.154 C 218.301 227.53 219.053 227.906 219.931 228.408 C 223.568 230.916 225.951 233.049 231.47 237.689 C 233.1 239.319 234.982 241.953 236.361 243.584 C 239.371 247.346 241.503 249.98 241.88 253.115 C 242.757 259.386 243.635 262.898 246.018 269.294 C 246.269 269.921 247.272 270.799 247.9 271.552 C 249.405 273.433 250.032 276.443 252.791 278.074 C 254.296 278.951 254.547 279.077 255.048 279.453 C 255.801 280.08 254.547 282.338 250.659 281.836 C 252.665 282.839 252.415 285.097 249.53 285.222 C 243.886 285.473 240.375 282.212 239.622 281.334 C 239.246 280.958 238.117 282.463 236.11 283.216 C 234.104 284.219 231.344 283.216 229.212 283.592 C 227.206 283.968 224.572 285.222 222.44 285.348 C 218.677 285.473 218.176 282.839 218.176 280.582 C 218.176 280.08 218.176 279.704 218.176 279.579 C 217.799 280.958 216.42 283.341 216.42 283.341 C 215.918 284.47 215.165 285.849 213.786 286.351 L 209.773 286.853 C 206.637 288.232 203.502 289.236 200.241 290.365 C 198.359 290.741 196.227 290.365 194.848 289.236 C 193.719 288.358 193.092 287.229 192.465 286.1 C 191.838 285.849 190.96 286.1 190.207 285.849 C 189.58 285.724 189.204 285.222 188.828 284.846 L 186.069 280.206 C 185.818 279.579 185.818 278.701 186.069 278.074 C 186.57 277.07 187.699 276.569 188.828 276.569 C 190.834 276.443 193.092 275.816 195.099 276.569 C 195.977 275.565 197.356 275.691 198.61 275.44 C 198.109 274.687 197.356 274.311 196.729 273.684 C 193.092 274.562 189.079 273.935 185.567 273.308 C 182.306 272.555 179.547 274.436 176.286 273.935 L 175.283 276.067 C 173.778 277.697 173.652 280.457 171.395 281.585 C 169.764 281.962 168.51 283.09 167.13 283.843 C 164.622 285.222 161.236 284.595 158.477 284.094 C 157.348 283.968 156.595 284.094 155.592 284.47 C 154.714 285.097 153.711 286.1 152.707 286.853 C 151.077 287.48 149.697 288.86 147.941 288.985 C 146.938 288.985 145.935 288.358 144.931 288.609 C 143.677 289.988 143.05 292.246 141.043 292.873 C 139.037 293.5 136.528 292.998 134.522 292.497 C 133.895 292.747 133.518 293.249 132.766 293.124 C 131.386 292.747 130.007 292.371 128.753 291.619 C 128.251 291.117 128.125 290.49 128 289.988 C 128 289.11 128.753 288.358 129.129 287.605 C 129.254 286.727 129.254 285.473 129.63 284.595 C 130.258 283.216 131.637 282.338 133.017 281.711 C 133.142 280.707 133.769 279.829 134.647 279.328 C 136.278 278.45 138.033 276.443 140.166 277.572 L 142.423 279.453 C 144.43 278.575 143.928 276.569 144.931 274.938 C 145.433 273.809 146.06 272.555 147.314 272.555 C 148.192 272.43 149.196 272.681 150.074 272.555 C 151.328 272.179 152.707 271.677 153.585 270.674 L 153.46 269.921 C 152.206 267.538 151.829 264.654 151.704 261.769 C 149.446 262.02 147.064 262.396 144.681 261.895 C 141.169 261.393 137.783 258.634 136.403 255.122 C 134.898 251.736 135.525 246.97 137.908 244.085 C 139.789 241.828 141.921 239.821 144.179 238.065 C 143.426 237.814 142.548 237.94 141.796 237.689 C 138.535 237.187 135.274 234.303 134.522 231.042 C 134.02 228.91 134.522 226.903 135.525 225.147 C 135.901 224.771 136.278 224.395 136.905 224.646 C 138.535 225.273 139.037 226.151 140.542 226.903 L 141.42 227.405 C 145.559 228.784 151.077 228.784 152.707 233.926 C 153.711 237.94 151.202 240.95 148.318 243.207 C 146.06 244.838 143.803 246.844 142.674 249.227 C 142.172 250.983 142.423 252.739 143.928 253.993 C 145.433 255.498 148.067 255.498 149.948 254.746 C 153.46 253.241 156.721 250.983 159.856 248.6 C 162.866 246.343 166.503 245.465 170.391 245.339 C 172.147 244.963 173.652 244.211 175.032 243.082 C 177.415 240.824 179.923 238.943 182.933 238.191 C 184.313 237.94 185.692 237.814 187.072 237.689 C 188.201 237.187 188.953 235.808 189.831 235.181 C 193.97 231.543 199.488 231.669 203.878 228.784 C 206.386 226.903 209.145 225.649 212.406 225.774 C 213.911 225.9 215.291 226.151 216.545 226.652 L 217.548 227.154 L 217.548 227.154 Z  M 221.687 269.796 C 218.928 269.921 217.172 270.548 215.291 270.799 C 215.416 272.555 216.42 274.06 217.799 275.941 C 218.552 273.057 220.935 271.928 221.687 269.796 Z " fill-rule="evenodd" fill="rgb(237,29,36)"/><path d=" M 292.298 270.423 C 293.552 272.304 294.304 274.186 295.433 276.192 C 296.562 274.06 297.565 272.054 298.568 270.799 C 298.443 270.674 295.182 271.05 292.298 270.423 Z  M 294.931 279.704 C 294.806 280.08 294.555 280.206 294.053 280.206 C 294.43 281.962 293.175 285.222 290.04 285.348 C 287.908 285.473 284.396 283.341 282.39 283.216 C 280.257 283.09 276.369 284.721 274.112 281.334 C 271.102 284.972 267.59 285.975 264.58 285.849 C 262.824 285.849 260.943 284.846 263.577 282.589 C 257.808 284.47 257.808 280.582 258.811 279.829 C 259.438 279.328 260.191 278.951 262.323 276.819 C 270.349 268.416 267.339 253.868 276.119 244.211 C 279.505 240.448 282.264 238.316 289.162 233.425 C 291.545 231.794 293.928 229.411 296.186 227.781 L 296.311 228.032 L 296.311 227.906 C 297.691 226.903 298.945 225.9 300.45 225.523 C 303.585 225.147 306.47 226.151 308.853 227.781 C 310.107 228.659 311.11 229.662 312.114 230.916 C 312.866 231.669 313.995 231.669 314.998 232.045 C 317.883 232.547 320.391 233.676 322.774 235.181 C 324.405 236.184 325.784 237.94 327.791 238.191 C 330.174 238.567 332.306 239.319 334.438 240.574 C 336.946 242.204 339.204 244.211 342.214 244.712 C 348.234 245.339 353.251 248.726 358.017 252.112 C 360.776 253.742 364.037 255.624 367.423 254.495 C 368.426 254.119 369.179 253.241 369.43 252.363 C 369.68 250.105 368.301 248.35 366.921 246.719 C 364.037 243.333 359.02 240.448 359.647 235.557 C 360.525 231.92 364.538 229.788 367.674 228.784 C 369.43 228.157 371.562 228.408 373.067 226.903 C 373.819 226.401 374.195 224.646 375.45 225.273 C 376.453 225.9 376.578 227.154 376.704 228.283 C 377.206 231.794 376.453 235.306 373.192 237.313 C 371.687 238.316 370.057 238.692 368.301 239.069 C 370.935 241.201 373.568 243.834 375.073 246.844 C 375.951 248.6 376.453 250.105 376.578 252.112 C 376.453 255.875 374.195 259.135 370.935 261.017 C 369.053 262.02 366.921 262.396 364.664 262.396 C 363.786 262.396 363.033 262.145 362.281 262.145 C 362.657 263.901 362.657 266.284 362.281 268.291 C 362.155 269.294 361.528 270.423 361.528 271.677 C 362.03 272.304 362.782 272.304 363.41 272.304 C 365.04 272.304 367.047 272.179 367.925 273.935 C 368.677 275.565 369.053 277.446 369.68 279.077 C 369.931 279.328 370.057 279.955 370.433 279.829 C 371.562 278.826 372.69 277.446 374.321 277.823 C 375.826 278.826 377.331 279.955 378.836 281.084 C 379.212 281.46 379.338 281.962 379.463 282.589 C 380.717 283.09 382.348 283.968 382.724 285.473 C 382.975 286.477 382.849 287.48 383.1 288.358 C 383.476 289.361 384.48 290.615 383.727 291.87 L 383.226 292.246 L 378.46 293.751 C 378.083 293.751 377.707 293.5 377.331 293.124 C 374.823 292.998 371.813 293.751 369.806 291.995 C 368.928 291.242 368.301 290.365 367.674 289.361 C 366.169 290.114 364.037 290.615 362.532 289.612 C 359.396 287.229 356.261 284.846 351.997 284.972 C 350.115 285.348 347.858 285.849 345.976 285.097 C 344.221 283.843 342.214 283.216 340.834 281.334 C 338.828 279.202 338.828 276.694 338.075 274.06 C 335.316 274.687 332.306 274.311 329.547 274.186 C 327.289 274.06 325.157 274.436 323.025 274.938 C 320.391 275.44 317.507 275.691 314.747 275.565 L 313.368 276.569 C 313.995 276.694 314.622 276.694 315.124 277.196 L 315.625 277.697 C 317.883 277.948 320.517 277.572 322.649 278.074 C 323.15 278.199 323.652 278.701 323.903 279.202 C 324.154 279.829 324.154 280.582 323.777 281.084 C 322.649 282.589 322.022 284.344 320.517 285.599 C 320.14 286.1 319.012 285.473 318.886 286.351 C 318.384 288.609 316.252 290.49 314.12 290.992 C 313.242 291.117 312.239 290.992 311.486 290.741 C 308.853 289.863 306.219 289.11 303.585 288.358 C 302.707 288.107 301.955 287.229 301.202 286.727 C 300.073 286.727 298.443 287.104 297.691 286.1 C 297.314 285.849 296.938 284.972 296.813 284.595 C 295.935 283.467 295.308 281.46 294.931 279.704 Z " fill-rule="evenodd" fill="rgb(237,29,36)"/><path d=" M 216.294 242.957 C 217.047 244.838 217.047 247.346 216.545 249.353 C 216.42 249.478 216.294 249.478 216.169 249.353 C 215.793 247.597 215.416 245.841 214.789 244.085 C 214.413 243.082 213.159 242.204 213.66 241.075 C 213.911 240.824 214.413 240.824 214.789 240.95 C 215.416 241.577 215.793 242.204 216.294 242.957 Z  M 236.361 260.515 C 237.741 262.145 238.744 263.901 238.242 266.033 C 237.992 266.41 238.117 267.162 237.49 267.288 C 237.239 267.413 236.988 267.162 236.988 266.911 C 236.863 265.783 236.863 264.528 236.236 263.651 C 235.483 262.898 234.605 261.393 233.351 261.393 C 232.473 261.644 231.846 262.647 231.344 263.274 C 231.344 263.4 231.219 263.4 231.094 263.274 C 230.592 262.02 231.595 261.017 231.971 260.013 C 232.724 259.261 232.599 257.129 234.229 257.756 C 235.358 258.508 235.609 259.763 236.361 260.515 Z  M 233.727 275.44 C 233.853 276.192 233.853 277.321 233.1 277.823 C 232.348 278.074 231.344 278.199 230.466 278.074 C 230.216 277.948 229.965 277.823 230.09 277.572 C 230.466 276.443 231.595 275.189 232.849 274.938 C 233.1 274.938 233.602 274.938 233.727 275.44 Z  M 142.172 229.662 C 145.182 230.415 148.443 230.415 150.701 232.798 C 151.955 234.303 152.08 236.936 151.077 238.441 C 149.321 241.452 145.809 242.957 143.677 245.59 C 141.545 247.346 140.793 250.105 141.42 252.865 C 142.172 255.247 144.555 256.878 146.938 257.003 C 150.701 257.129 153.46 255.247 156.47 253.492 C 159.48 251.36 162.239 248.6 165.625 247.722 C 167.883 246.97 170.391 247.346 172.649 246.468 C 175.032 245.967 176.913 243.96 178.794 242.204 C 180.926 240.448 183.435 239.445 186.194 239.57 C 188.702 239.947 190.082 237.689 191.838 236.184 C 194.722 233.55 198.485 233.299 201.871 231.794 C 204.254 231.042 206.135 229.286 208.393 228.157 C 210.525 227.279 213.41 227.028 215.542 227.906 C 216.921 228.533 218.426 229.161 219.681 230.164 L 229.839 238.692 C 229.965 239.069 230.341 239.319 230.592 239.445 C 233.477 242.957 236.487 246.343 238.869 250.231 C 239.622 251.61 239.998 252.99 240.375 254.495 C 240.876 260.264 242.381 265.281 244.262 270.298 C 244.764 271.05 245.767 271.677 246.269 272.43 C 247.9 274.687 248.903 277.572 251.537 279.077 L 253.042 279.829 C 253.167 279.955 253.167 280.206 253.042 280.331 L 252.791 280.582 C 249.655 281.084 247.273 279.202 245.642 276.945 C 244.639 274.938 243.259 272.806 241.002 271.928 C 240.876 271.928 240.751 272.054 240.751 272.054 C 241.002 272.806 241.754 273.308 242.005 273.935 C 242.883 275.314 243.635 276.819 244.012 278.324 C 244.513 279.955 246.269 281.084 247.649 281.962 L 249.655 282.965 C 249.906 283.09 250.032 283.467 249.781 283.717 L 249.53 283.843 C 246.144 283.968 243.134 282.839 240.751 280.331 C 240.249 279.704 239.497 279.202 238.619 279.202 C 237.114 280.582 235.609 281.836 233.602 281.962 C 231.47 281.585 229.212 281.585 227.331 282.338 C 225.575 282.965 223.819 283.717 221.938 283.717 C 221.06 283.717 220.057 283.341 219.681 282.463 C 219.681 281.334 218.928 280.08 219.555 278.951 L 220.809 277.07 C 220.809 276.819 220.684 276.569 220.433 276.569 C 219.931 276.443 219.053 277.321 218.803 276.443 C 218.928 274.562 220.809 273.308 222.063 272.054 C 222.314 270.548 222.941 269.169 224.07 267.915 C 224.07 267.789 223.945 267.538 223.694 267.538 C 222.063 267.789 220.433 268.166 218.677 268.166 C 217.298 268.918 215.542 269.42 213.911 268.918 C 213.535 268.667 213.66 268.291 213.786 268.04 C 215.542 265.657 216.169 262.647 215.667 259.763 C 215.542 259.637 215.542 259.386 215.291 259.386 C 215.04 259.386 215.04 259.637 214.915 259.763 C 214.538 262.522 213.66 264.654 212.155 267.037 C 211.027 268.166 209.271 268.166 207.766 268.542 C 207.39 268.667 207.013 269.043 207.013 269.42 C 207.013 270.423 207.64 271.05 208.017 271.928 L 211.278 277.948 C 211.403 279.579 210.65 281.209 210.274 282.714 C 210.4 282.965 210.65 282.839 210.901 282.714 C 212.03 281.711 212.783 280.331 213.284 278.826 C 213.41 278.199 213.159 277.446 212.908 276.945 L 209.522 270.172 C 209.773 269.796 210.274 269.796 210.65 269.671 C 211.403 269.671 212.155 270.047 212.908 270.298 C 213.66 272.304 214.538 274.436 215.918 276.192 C 216.169 277.321 216.545 278.826 215.793 279.704 C 215.04 281.209 214.288 282.463 213.284 283.843 C 212.406 284.721 211.152 284.595 209.898 284.721 L 209.522 284.721 C 206.512 286.351 203.376 287.354 200.115 288.358 C 198.736 288.985 197.105 288.483 195.977 287.605 C 194.848 286.727 194.346 285.473 193.594 284.344 C 192.716 283.216 191.336 284.219 190.333 283.592 C 189.455 282.212 188.577 280.833 187.824 279.328 C 187.824 278.951 187.824 278.575 188.201 278.324 C 189.329 277.948 190.584 277.948 191.838 277.823 C 192.967 277.697 194.221 277.948 194.973 278.701 C 196.478 280.457 197.105 282.839 199.363 283.968 C 201.119 284.094 202.624 283.592 204.129 282.839 C 205.007 282.338 206.01 281.585 206.01 280.457 C 205.885 278.199 204.38 276.443 202.498 275.189 C 200.617 274.186 198.61 272.806 197.231 271.05 C 196.478 270.047 196.353 268.918 195.977 267.915 C 195.851 267.664 195.349 267.664 195.224 267.789 C 194.472 268.416 195.099 269.545 195.099 270.298 C 195.224 270.799 195.475 271.426 195.224 271.803 C 194.095 272.681 192.59 272.179 191.211 272.304 C 188.451 272.179 185.818 271.05 182.933 271.301 C 180.174 271.426 176.411 273.308 174.405 270.548 C 173.401 267.915 173.652 264.779 174.154 262.145 C 174.154 261.895 173.903 261.644 173.652 261.644 C 173.401 261.518 173.15 261.644 173.025 261.895 C 172.273 264.528 172.147 267.413 171.52 270.172 C 170.517 272.555 168.761 275.064 166.378 276.318 C 164.246 277.446 161.737 277.823 159.104 278.074 C 154.338 278.199 149.948 279.077 146.938 283.216 C 146.687 283.592 146.311 283.968 146.436 284.47 C 146.562 284.595 146.938 284.721 147.064 284.595 C 150.324 280.958 154.463 279.453 159.229 279.704 C 163.744 279.704 168.259 278.951 171.144 275.064 C 171.896 274.186 172.398 273.308 173.025 272.304 C 173.527 272.304 173.903 272.931 174.279 273.182 C 174.405 274.562 173.276 275.44 172.774 276.569 C 172.147 277.823 171.52 279.328 170.266 280.08 C 168.761 280.457 167.507 281.46 166.127 282.212 C 164.747 282.839 162.992 283.09 161.361 282.714 C 159.354 282.338 156.595 281.836 154.589 282.714 C 153.585 283.341 152.707 284.47 151.704 285.097 C 150.324 285.724 149.07 286.853 147.44 286.727 C 146.311 286.477 144.931 285.724 143.928 286.727 C 142.674 287.856 142.423 289.863 140.793 290.615 C 138.911 291.619 136.905 290.615 135.023 290.49 C 135.274 288.609 135.525 286.853 136.779 285.473 C 137.532 285.348 138.159 285.222 138.786 284.721 C 139.538 284.094 140.04 283.216 140.542 282.338 C 142.172 281.334 144.054 280.582 145.057 278.826 C 145.809 277.196 145.809 275.691 147.064 274.186 L 147.691 273.935 L 151.077 273.684 C 152.457 273.057 153.711 272.43 154.965 271.426 C 155.341 271.05 155.467 270.423 155.341 269.796 C 154.714 268.166 154.212 267.037 153.836 265.281 C 153.46 263.525 153.711 261.769 153.46 259.763 C 153.334 259.637 153.209 259.261 152.958 259.261 C 150.701 259.763 148.569 260.39 146.06 260.013 C 142.674 259.637 139.162 257.38 137.908 253.993 C 136.779 251.109 137.03 246.97 139.162 244.587 C 141.169 242.079 143.677 240.197 146.186 238.065 C 146.562 237.814 146.562 237.313 146.687 236.936 C 146.687 236.435 146.186 236.059 145.809 235.808 C 144.304 235.431 142.548 235.933 141.043 235.306 C 138.41 234.428 136.403 231.92 136.027 229.161 C 135.901 227.906 136.152 226.903 136.779 225.9 C 138.786 227.656 140.291 229.161 142.172 229.662 Z  M 134.647 285.724 L 134.647 286.1 C 134.02 287.605 133.644 289.361 133.142 291.117 C 132.013 290.992 131.01 290.615 130.132 290.239 C 129.881 289.988 130.132 289.737 130.132 289.487 C 131.261 288.483 130.885 287.229 131.135 285.849 C 131.261 285.097 132.013 284.47 132.766 284.094 C 133.644 284.219 134.145 285.097 134.647 285.724 Z  M 140.166 280.457 C 139.538 281.711 138.661 283.216 137.281 283.968 C 136.779 284.094 136.152 284.094 135.65 283.843 C 135.4 283.592 134.898 283.341 134.898 282.839 C 135.023 282.338 134.773 281.711 135.274 281.46 C 136.278 280.833 137.281 280.206 138.284 279.328 C 138.535 279.202 139.037 279.077 139.162 279.328 C 139.664 279.704 140.04 279.955 140.166 280.457 Z  M 203 279.955 C 203.125 280.457 203.878 281.084 203.376 281.585 C 202.373 282.338 201.244 282.839 199.865 282.714 C 198.861 281.962 198.987 280.582 198.109 279.579 C 197.858 278.826 196.729 278.826 196.98 278.074 L 197.356 277.823 C 198.736 277.823 200.115 277.823 201.495 277.572 C 202.875 277.446 202.498 279.077 203 279.955 Z  M 282.264 259.512 C 283.017 260.515 283.644 261.518 284.145 262.773 C 284.271 263.023 284.145 263.274 284.02 263.525 C 283.895 263.776 283.644 264.027 283.267 263.776 C 282.39 263.525 282.515 262.145 281.386 262.271 C 280.634 262.271 280.132 262.898 279.505 263.274 C 278.376 264.278 276.871 265.281 276.62 266.786 C 276.369 267.288 276.495 268.166 275.993 268.416 C 275.742 268.542 275.366 268.291 275.366 268.04 C 275.241 266.033 275.868 264.152 277.247 262.773 C 278.627 261.644 279.63 260.013 280.759 258.634 C 281.512 258.508 282.013 259.01 282.264 259.512 Z  M 282.766 276.192 C 283.017 276.694 283.518 277.321 283.142 277.948 C 282.64 278.324 281.762 278.074 281.135 278.074 C 280.383 277.697 280.132 276.694 280.132 275.816 C 280.132 275.565 280.132 275.44 280.383 275.189 C 281.261 275.189 282.139 275.44 282.766 276.192 Z  M 301.578 237.814 C 301.955 238.316 301.578 238.818 301.328 239.194 C 299.572 240.824 297.44 242.58 296.186 244.587 C 295.684 245.214 295.308 245.967 295.057 246.719 C 295.057 246.844 294.931 246.844 294.806 246.844 C 294.43 245.841 294.931 244.712 295.182 243.709 C 296.06 241.326 298.067 239.069 300.199 237.438 C 300.45 237.313 301.328 237.187 301.578 237.814 Z  M 308.727 229.788 C 310.107 230.666 310.609 232.547 312.239 232.923 C 314.998 233.55 317.757 234.177 320.266 235.431 C 322.022 236.309 323.652 237.564 325.282 238.943 C 326.787 239.696 328.669 239.696 330.299 240.197 C 332.682 240.824 334.563 242.58 336.696 243.96 C 339.455 246.092 343.343 245.841 346.478 247.221 C 351.495 248.851 355.508 252.739 360.149 254.997 C 362.532 256.251 366.169 256.753 368.552 255.373 C 370.182 254.244 371.185 252.739 370.809 250.607 C 369.931 245.465 364.287 242.831 361.654 238.567 C 361.152 237.564 360.776 236.184 361.027 235.055 C 362.03 232.547 364.664 231.167 366.921 230.289 C 368.677 229.411 370.935 229.662 372.565 228.659 C 373.192 228.283 373.694 227.781 374.07 227.405 C 374.446 227.405 374.446 227.781 374.572 228.032 C 375.073 231.042 374.572 234.177 371.938 235.933 C 370.935 236.686 369.68 236.936 368.552 237.187 C 367.548 237.564 365.542 236.811 365.667 238.567 C 365.918 239.445 366.67 239.947 367.297 240.574 C 370.809 243.458 374.07 247.221 374.446 251.736 C 374.572 255.247 372.189 258.258 369.179 259.763 C 366.921 260.64 364.162 261.017 361.779 260.39 C 361.152 260.264 360.149 259.637 359.647 260.515 C 359.522 261.518 360.149 262.271 360.149 263.149 C 360.399 264.779 360.399 266.911 359.898 268.542 C 359.647 269.796 358.393 271.301 359.522 272.555 C 360.65 274.311 362.908 273.809 364.789 274.06 C 365.792 274.186 366.169 275.314 366.42 276.067 C 366.796 277.07 366.796 278.199 367.172 278.951 C 367.172 280.833 369.304 281.585 370.308 282.839 C 371.562 284.219 372.69 286.602 374.823 286.477 C 375.575 287.982 375.951 289.361 376.202 291.117 L 375.951 291.368 C 374.195 291.368 371.813 291.87 370.558 290.615 C 369.053 289.612 368.552 286.853 366.294 287.605 C 365.291 288.358 363.911 288.609 362.782 288.107 C 361.654 287.731 360.901 286.727 359.898 286.1 C 356.888 283.843 352.874 282.714 348.986 283.592 C 346.729 284.219 344.973 282.589 343.217 281.585 C 340.834 280.582 340.207 278.074 339.706 275.941 L 339.329 273.308 C 339.329 273.057 339.58 272.806 339.831 272.681 L 340.207 272.681 C 341.587 275.816 344.221 279.328 347.607 280.457 C 350.742 281.711 353.627 280.08 357.013 280.707 C 360.149 281.084 362.657 283.09 365.04 284.972 C 365.291 284.972 365.416 284.846 365.542 284.595 L 365.542 284.344 C 362.657 280.707 358.644 278.826 354.003 279.202 C 350.115 279.955 346.353 278.701 344.095 275.44 C 342.841 273.559 341.963 271.552 341.587 269.42 C 341.211 266.911 340.709 264.152 339.831 261.895 C 339.58 261.769 339.329 261.518 339.078 261.644 L 338.828 262.02 C 339.204 264.403 339.956 267.288 339.078 269.796 C 338.451 271.803 336.445 272.555 334.563 272.681 C 332.682 272.806 330.926 272.43 328.92 272.43 C 324.405 272.304 320.391 274.06 315.751 273.684 C 316.127 272.555 316.879 271.426 316.503 270.172 C 316.378 269.921 316.002 269.921 315.751 269.921 C 314.873 270.423 314.998 271.552 314.497 272.304 C 313.493 273.935 311.612 275.44 309.731 275.816 C 308.351 276.819 307.097 278.199 305.968 279.453 C 305.592 279.829 305.592 280.582 305.717 281.084 C 306.595 283.341 309.229 283.592 311.236 284.219 C 312.239 284.344 313.117 283.968 313.619 283.09 C 314.497 281.711 314.622 279.453 316.629 279.202 L 321.018 279.202 C 321.395 279.328 321.645 279.579 321.896 279.955 L 321.771 280.582 C 320.767 281.711 320.391 283.341 319.137 284.094 C 318.384 284.344 317.507 284.094 317.005 284.721 C 316.754 286.226 316.378 287.856 314.873 288.609 C 313.744 289.612 312.114 289.11 310.859 288.734 C 308.476 287.856 306.094 287.354 303.711 286.602 C 302.707 286.351 302.331 285.097 301.202 284.846 C 300.199 284.595 299.07 285.348 298.192 284.47 C 297.691 283.341 297.44 282.589 297.189 281.334 C 296.813 280.582 296.562 279.704 296.436 278.826 C 296.311 278.074 296.436 277.572 296.687 276.945 L 299.948 271.05 C 300.199 270.674 300.45 270.298 300.826 270.172 C 301.578 270.298 302.456 270.674 303.209 271.05 L 303.083 271.426 L 299.697 276.569 C 298.945 278.199 299.697 280.08 300.45 281.46 C 300.575 281.585 300.701 281.836 300.826 281.711 C 300.701 280.707 300.575 279.704 300.826 278.575 C 301.077 277.572 301.704 276.694 302.206 275.816 L 304.839 271.928 C 305.09 271.301 305.09 270.298 304.589 269.671 C 303.46 268.542 301.829 268.166 300.826 266.661 C 298.694 263.776 298.443 260.39 298.192 256.753 C 298.192 256.502 297.941 256.125 297.565 256 C 297.314 255.875 297.063 256.251 296.938 256.376 C 296.311 258.759 296.687 261.644 297.314 263.776 C 297.691 265.406 298.443 267.037 299.196 268.542 C 299.321 268.793 299.07 269.169 298.819 269.294 C 297.063 269.42 295.308 269.294 293.677 269.043 C 291.42 268.667 289.789 266.911 287.908 265.532 C 287.657 265.406 287.532 265.657 287.406 265.783 C 287.908 268.291 290.667 269.796 291.545 272.054 C 292.047 273.935 293.928 275.314 294.304 277.321 C 294.304 277.572 294.053 277.948 293.803 278.074 C 293.175 278.199 292.548 277.823 291.921 278.199 C 291.796 279.328 292.548 280.457 292.047 281.46 C 291.42 282.463 290.542 283.592 289.413 283.592 C 287.155 282.839 284.898 281.836 282.64 281.209 C 281.01 281.084 279.379 281.334 277.874 281.46 C 276.369 281.209 275.366 279.829 274.237 279.077 C 273.861 278.951 273.485 278.951 273.234 279.202 C 270.726 281.711 267.966 284.47 264.204 284.344 C 263.953 284.344 263.828 284.094 263.828 283.843 L 263.828 283.592 C 265.458 282.087 267.465 280.582 268.217 278.45 C 268.719 276.694 270.224 275.44 270.851 273.809 C 270.976 273.559 270.726 273.433 270.475 273.308 L 270.099 273.559 C 268.217 275.44 266.838 277.572 265.458 279.579 C 264.079 280.958 262.072 281.836 259.94 281.334 C 259.689 281.209 259.689 280.833 259.814 280.582 C 267.59 275.816 268.468 267.288 270.6 259.512 C 272.105 254.37 273.234 249.102 277.247 244.963 C 283.267 238.316 290.793 234.428 297.44 228.659 C 298.443 227.781 299.446 226.903 300.701 226.903 C 303.961 226.652 306.47 227.906 308.727 229.788 Z  M 380.341 285.222 C 380.968 286.1 380.717 287.48 380.968 288.483 C 381.093 289.236 382.097 289.863 381.595 290.615 L 378.836 291.493 C 378.334 291.493 378.585 290.866 378.334 290.615 C 378.083 288.985 377.707 287.856 377.206 286.351 C 377.08 285.473 377.958 284.846 378.585 284.344 C 379.212 284.094 379.714 284.846 380.341 285.222 Z  M 373.945 279.579 C 374.948 280.457 376.328 281.084 377.08 282.212 C 377.206 282.714 376.829 283.216 376.578 283.592 C 376.202 283.968 375.7 284.219 375.073 284.219 C 374.446 284.219 373.945 283.843 373.568 283.341 C 372.941 282.338 372.063 281.46 371.813 280.457 C 372.189 279.829 373.067 278.826 373.945 279.579 Z  M 313.493 278.575 C 313.368 279.829 312.992 280.958 312.49 282.087 C 312.114 282.839 310.985 282.589 310.232 282.463 C 309.48 282.212 308.226 282.087 308.1 280.958 C 307.975 279.955 308.476 278.951 308.978 278.199 C 310.107 278.074 311.486 278.324 312.615 278.074 C 313.117 278.074 313.493 278.199 313.493 278.575 Z " fill-rule="evenodd" fill="rgb(239,191,4)"/></g></svg>