<?xml version="1.0" encoding="UTF-8" standalone="no"?><!-- Generator: Gravit.io --><svg xmlns="http://www.w3.org/2000/svg" xmlns:xlink="http://www.w3.org/1999/xlink" style="isolation:isolate" viewBox="0 0 512 512" width="512pt" height="512pt"><defs><clipPath id="_clipPath_l4CwuPk3bWVmtDoKfvVaQlVnIzONAIdl"><rect width="512" height="512"/></clipPath></defs><g clip-path="url(#_clipPath_l4CwuPk3bWVmtDoKfvVaQlVnIzONAIdl)"><path d="M 477.714 383.995 L 256.005 512 L 34.286 383.995 L 34.286 127.985 L 256.005 0 L 477.714 127.985 L 477.714 383.995 Z" fill-rule="evenodd" fill="rgb(102,0,51)" /><path d=" M 129.575 267.422 L 128 281.6 L 129.575 295.778 C 129.575 296.566 130.363 296.566 130.363 296.566 C 131.151 296.566 131.151 295.778 131.151 295.778 L 133.514 281.6 L 131.151 267.422 C 131.151 266.634 130.363 266.634 130.363 266.634 C 130.363 266.634 129.575 266.634 129.575 267.422 Z  M 139.028 258.757 L 136.665 281.6 L 139.028 304.443 C 139.028 305.231 139.815 305.231 139.815 305.231 C 140.603 305.231 140.603 304.443 140.603 304.443 L 143.754 281.6 L 140.603 258.757 C 140.603 257.969 139.815 257.969 139.815 257.969 C 139.815 257.969 139.815 257.969 139.815 257.969 C 139.815 257.969 139.028 258.757 139.028 258.757 Z  M 168.96 255.606 L 167.385 281.6 L 168.96 309.169 C 168.96 309.957 169.748 310.745 170.535 310.745 C 171.323 310.745 172.111 309.957 172.111 309.169 L 175.262 281.6 L 172.898 255.606 C 172.898 254.818 172.111 254.031 171.323 254.031 C 169.748 254.031 168.96 254.818 168.96 255.606 Z  M 149.268 254.031 L 146.905 281.6 L 149.268 307.594 C 149.268 308.382 150.055 309.169 150.843 309.169 C 150.843 309.169 151.631 308.382 151.631 307.594 L 153.994 281.6 L 151.631 254.031 C 151.631 253.243 150.843 252.455 150.055 252.455 C 150.055 253.243 149.268 253.243 149.268 254.031 Z  M 158.72 253.243 L 156.357 281.6 L 158.72 308.382 C 158.72 309.169 159.508 309.957 160.295 309.957 C 161.083 309.957 161.871 309.169 161.871 308.382 L 164.234 281.6 L 161.871 253.243 C 161.871 252.455 161.083 251.668 160.295 251.668 C 159.508 251.668 159.508 252.455 158.72 253.243 Z  M 179.2 239.065 L 176.837 281.6 L 179.2 309.169 C 179.2 309.957 179.988 310.745 180.775 310.745 C 182.351 310.745 183.138 309.957 183.138 309.169 L 185.502 281.6 L 183.138 239.065 C 183.138 238.277 182.351 237.489 181.563 237.489 C 179.988 237.489 179.2 238.277 179.2 239.065 Z  M 189.44 229.612 L 187.865 281.6 L 189.44 309.169 C 189.44 310.745 190.228 311.532 191.803 311.532 C 192.591 311.532 194.166 310.745 194.166 309.169 L 196.529 281.6 L 194.166 229.612 C 194.166 228.037 193.378 227.249 191.803 227.249 C 190.228 227.249 189.44 228.037 189.44 229.612 Z  M 231.188 227.249 L 229.612 281.6 L 231.188 307.594 C 231.188 309.169 232.763 310.745 234.338 310.745 C 235.914 310.745 237.489 309.169 237.489 307.594 L 239.065 281.6 L 237.489 226.462 C 237.489 224.886 235.914 223.311 234.338 223.311 C 231.975 224.098 231.188 224.886 231.188 227.249 Z  M 199.68 224.886 L 198.105 281.6 L 199.68 308.382 C 199.68 309.957 200.468 310.745 202.043 310.745 C 203.618 310.745 204.406 309.957 204.406 308.382 L 205.982 281.6 L 204.406 224.886 C 204.406 223.311 203.618 222.523 202.043 222.523 C 200.468 222.523 199.68 224.098 199.68 224.886 Z  M 220.16 224.886 L 218.585 281.6 L 220.16 308.382 C 220.16 309.957 221.735 311.532 223.311 311.532 C 224.886 311.532 226.462 309.957 226.462 308.382 L 228.037 281.6 L 226.462 224.886 C 226.462 223.311 224.886 221.735 223.311 221.735 C 221.735 221.735 220.16 223.311 220.16 224.886 Z  M 209.92 223.311 L 208.345 281.6 L 209.92 308.382 C 209.92 309.957 210.708 310.745 212.283 310.745 C 213.858 310.745 214.646 309.957 214.646 308.382 L 216.222 281.6 L 214.646 223.311 C 214.646 221.735 213.071 220.948 212.283 220.948 C 211.495 220.948 209.92 221.735 209.92 223.311 Z  M 241.428 216.222 L 239.852 281.6 L 241.428 307.594 C 241.428 309.169 243.003 310.745 244.578 310.745 C 246.154 310.745 247.729 309.169 247.729 307.594 L 249.305 281.6 L 247.729 216.222 C 247.729 214.646 246.154 213.071 244.578 213.071 C 243.003 213.071 241.428 214.646 241.428 216.222 Z  M 252.455 210.708 L 250.88 281.6 L 252.455 307.594 C 252.455 309.169 254.031 310.745 255.606 310.745 C 257.182 310.745 258.757 309.169 258.757 307.594 L 260.332 281.6 L 258.757 210.708 C 258.757 209.132 257.182 207.557 255.606 207.557 C 255.606 207.557 254.818 207.557 254.818 207.557 C 253.243 207.557 252.455 209.132 252.455 210.708 Z  M 265.058 203.618 C 262.695 204.406 261.908 205.194 261.908 207.557 L 261.908 307.594 C 261.908 309.169 263.483 310.745 265.058 311.532 L 352.492 311.532 C 369.822 311.532 384 297.354 384 280.025 C 384 262.695 369.822 248.517 352.492 248.517 C 348.554 248.517 343.828 249.305 340.677 250.88 C 338.314 222.523 314.683 200.468 285.538 200.468 C 283.963 200.468 283.175 200.468 281.6 200.468 C 276.086 200.468 270.572 202.043 265.058 203.618 Z " fill-rule="evenodd" fill="rgb(255,255,255)"/></g></svg>