<?xml version="1.0" encoding="UTF-8" standalone="no"?><!-- Generator: Gravit.io --><svg xmlns="http://www.w3.org/2000/svg" xmlns:xlink="http://www.w3.org/1999/xlink" style="isolation:isolate" viewBox="0 0 512 512" width="512pt" height="512pt"><defs><clipPath id="_clipPath_hLoVhJFZ6HFrAvW8njjLN9gvikgAv0wG"><rect width="512" height="512"/></clipPath></defs><g clip-path="url(#_clipPath_hLoVhJFZ6HFrAvW8njjLN9gvikgAv0wG)"><path d="M 477.714 383.995 L 256.005 512 L 34.286 383.995 L 34.286 127.985 L 256.005 0 L 477.714 127.985 L 477.714 383.995 Z" fill-rule="evenodd" fill="rgb(102,0,51)" /><path d=" M 261.077 128.103 C 190.438 125.295 130.897 180.279 128.103 250.918 C 125.295 321.557 180.293 381.088 250.924 383.897 C 321.566 386.709 381.09 331.724 383.898 261.082 C 386.692 190.443 331.705 130.905 261.077 128.103 Z  M 315.106 315.612 C 313.514 318.421 310.415 319.824 307.396 319.403 C 306.471 319.272 305.546 318.968 304.682 318.477 C 287.765 308.847 269.326 302.576 249.882 299.837 C 230.438 297.097 210.981 298.045 192.063 302.644 C 187.956 303.639 183.828 301.124 182.832 297.015 C 181.837 292.91 184.354 288.778 188.458 287.783 C 209.259 282.73 230.646 281.689 252.01 284.696 C 273.374 287.703 293.635 294.594 312.251 305.183 C 315.913 307.278 317.2 311.934 315.116 315.608 L 315.106 315.608 L 315.106 315.612 Z  M 331.93 282.013 C 329.319 286.833 323.285 288.633 318.463 286.024 C 298.668 275.318 277.234 268.286 254.761 265.125 C 232.285 261.965 209.751 262.819 187.771 267.651 C 186.578 267.909 185.396 267.955 184.25 267.792 C 180.259 267.23 176.845 264.257 175.93 260.082 C 174.747 254.724 178.141 249.423 183.499 248.241 C 207.798 242.894 232.707 241.95 257.532 245.435 C 282.347 248.923 306.036 256.693 327.915 268.532 C 332.747 271.141 334.536 277.166 331.93 281.996 L 331.93 282.013 Z  M 350.576 244.142 C 348.12 248.869 343.007 251.313 338.024 250.612 C 336.677 250.425 335.357 250.004 334.081 249.349 C 311.031 237.357 286.207 229.436 260.293 225.794 C 234.379 222.156 208.324 222.927 182.866 228.096 C 176.245 229.442 169.798 225.16 168.451 218.549 C 167.104 211.929 171.387 205.483 177.997 204.137 C 206.193 198.416 235.019 197.565 263.697 201.588 C 292.372 205.614 319.844 214.39 345.369 227.668 C 351.36 230.781 353.685 238.163 350.576 244.152 L 350.576 244.142 Z " fill="rgb(255,255,255)"/></g></svg>