<?xml version="1.0" encoding="UTF-8" standalone="no"?>
<!-- Generator: Gravit.io --><svg xmlns="http://www.w3.org/2000/svg" xmlns:xlink="http://www.w3.org/1999/xlink"
  style="isolation:isolate" viewBox="0 0 512 512" width="512pt" height="512pt">
  <defs>
    <clipPath id="_clipPath_DtBmZz4KOT0F00NomqQ6LjOMKmPTOuZE">
      <rect width="512" height="512" />
    </clipPath>
  </defs>
  <g clip-path="url(#_clipPath_DtBmZz4KOT0F00NomqQ6LjOMKmPTOuZE)">
    <path d="M 477.714 383.995 L 256.005 512 L 34.286 383.995 L 34.286 127.985 L 256.005 0 L 477.714 127.985 L 477.714 383.995 Z" fill-rule="evenodd" fill="rgb(239,191,4)" />
    <g>
      <path
        d=" M 384 256 L 384 256 C 384 267.91 374.345 277.565 362.435 277.565 L 288 277.565 L 256 212.863 L 290.54 153.04 C 296.495 142.726 309.683 139.192 319.997 145.146 L 320.001 145.149 C 330.316 151.103 333.851 164.292 327.896 174.607 L 293.357 234.435 L 362.435 234.435 C 374.345 234.435 384 244.09 384 256 Z "
        fill="rgb(255,255,255)" />
      <path
        d=" M 320.001 366.851 L 319.997 366.854 C 309.683 372.808 296.495 369.274 290.54 358.96 L 256 299.137 L 221.46 358.96 C 215.505 369.274 202.317 372.808 192.003 366.854 L 191.999 366.851 C 181.684 360.897 178.149 347.708 184.104 337.393 L 218.643 277.565 L 256 276.174 L 293.357 277.565 L 327.896 337.393 C 333.851 347.708 330.316 360.897 320.001 366.851 Z "
        fill="rgb(255,255,255)" />
      <path
        d=" M 256 212.863 L 246.261 239.304 L 218.643 234.435 L 184.104 174.607 C 178.149 164.292 181.684 151.103 191.999 145.149 L 192.003 145.146 C 202.317 139.192 215.506 142.726 221.46 153.04 L 256 212.863 Z "
        fill="rgb(255,255,255)" />
      <path
        d=" M 250.435 234.435 L 225.391 277.565 L 149.565 277.565 C 137.655 277.565 128 267.91 128 256 L 128 256 C 128 244.09 137.655 234.435 149.565 234.435 L 250.435 234.435 Z "
        fill="rgb(255,255,255)" />
      <path d=" M 293.357 277.565 L 218.643 277.565 L 256 212.863 L 293.357 277.565 Z " fill="rgb(255,255,255)" />
    </g>
  </g>
</svg>
