<?xml version="1.0" encoding="UTF-8" standalone="no"?><!-- Generator: Gravit.io --><svg xmlns="http://www.w3.org/2000/svg" xmlns:xlink="http://www.w3.org/1999/xlink" style="isolation:isolate" viewBox="0 0 512 512" width="512pt" height="512pt"><defs><clipPath id="_clipPath_MEYvcz17HcJQGufYFELKLv4lkVubwg7s"><rect width="512" height="512"/></clipPath></defs><g clip-path="url(#_clipPath_MEYvcz17HcJQGufYFELKLv4lkVubwg7s)"><circle vector-effect="non-scaling-stroke" cx="256" cy="256" r="256" fill="rgb(237,29,36)" /><path d=" M 231.021 254.487 C 231.215 254.446 231.34 254.255 231.3 254.061 L 211.05 160.03 C 211.001 159.812 211.041 159.583 211.163 159.395 C 211.284 159.208 211.477 159.076 211.696 159.03 L 273.662 146.125 Q 275.304 145.781 275.657 147.417 L 295.604 239.665 C 295.62 239.716 295.667 239.751 295.722 239.753 C 295.777 239.755 295.828 239.724 295.847 239.674 Q 295.93 239.422 295.966 239.083 Q 301.83 184.301 307.616 129.505 Q 307.708 128.657 307.932 128.391 Q 308.304 127.951 308.858 128.006 L 372.456 134.677 C 372.689 134.701 372.902 134.817 373.049 134.998 C 373.196 135.179 373.265 135.412 373.24 135.644 Q 364.727 215.834 356.213 296.198 Q 355.658 301.461 353.49 306.284 Q 336.119 344.955 318.486 383.398 C 318.286 383.833 317.811 384.074 317.34 383.98 L 155.406 350.168 C 155.147 350.112 154.946 349.911 154.893 349.655 L 138.773 274.535 C 138.727 274.321 138.768 274.097 138.888 273.912 C 139.008 273.728 139.196 273.599 139.411 273.554 L 231.021 254.487 Z  M 259.739 285.236 C 261.751 273.591 241.726 268.47 238.865 280.266 C 236.646 289.417 241.542 294.259 250.638 293.91 C 255.544 293.718 258.955 289.761 259.739 285.236 Z  M 305.336 292.692 C 307.117 287.851 304.637 282.483 299.796 280.703 L 297.688 279.927 C 292.848 278.146 287.48 280.626 285.699 285.467 L 284.964 287.463 C 283.184 292.304 285.664 297.671 290.504 299.452 L 292.613 300.228 C 297.453 302.009 302.821 299.529 304.602 294.688 L 305.336 292.692 Z " fill="rgb(239,191,4)"/></g></svg>