<?xml version="1.0" encoding="UTF-8" standalone="no"?><!-- Generator: Gravit.io --><svg xmlns="http://www.w3.org/2000/svg" xmlns:xlink="http://www.w3.org/1999/xlink" style="isolation:isolate" viewBox="0 0 512 512" width="512pt" height="512pt"><defs><clipPath id="_clipPath_Qx6iA2UJxuvBpWpgptFseT4oSxO81V1A"><rect width="512" height="512"/></clipPath></defs><g clip-path="url(#_clipPath_Qx6iA2UJxuvBpWpgptFseT4oSxO81V1A)"><circle vector-effect="non-scaling-stroke" cx="256" cy="256" r="256" fill="rgb(27,27,29)" /><g><path d=" M 174.932 344.533 L 132.268 312.534 C 130.938 311.546 129.858 310.257 129.117 308.776 C 128.376 307.293 127.993 305.658 128 304.002 L 128 208.001 C 127.993 206.344 128.376 204.709 129.117 203.227 C 129.858 201.744 130.938 200.457 132.268 199.469 L 174.932 167.469 C 173.786 168.546 172.92 169.885 172.409 171.372 C 171.898 172.859 171.758 174.448 172 176.001 L 172 336.001 C 171.758 337.555 171.898 339.144 172.409 340.631 C 172.92 342.118 173.786 343.457 174.932 344.533 Z " fill="rgb(0,0,128)"/><path d=" M 379.25 172.43 C 377.493 171.275 375.435 170.663 373.331 170.67 C 371.969 170.659 370.617 170.917 369.353 171.429 C 368.091 171.941 366.942 172.697 365.971 173.654 L 365.227 174.402 L 319.89 217.87 L 280.107 256.001 L 233.011 301.174 L 189.439 342.933 L 188.691 343.682 C 187.722 344.639 186.573 345.396 185.31 345.91 C 184.046 346.422 182.694 346.68 181.331 346.669 C 179.024 346.664 176.779 345.916 174.931 344.533 L 132.267 312.534 C 134.435 314.161 137.141 314.903 139.836 314.605 C 142.531 314.308 145.011 312.995 146.771 310.933 L 170.667 283.202 L 194.131 255.949 L 233.011 210.829 L 301.119 131.734 C 302.108 130.562 303.341 129.621 304.733 128.977 C 306.122 128.332 307.639 127.999 309.171 128.002 C 311.274 127.995 313.333 128.607 315.091 129.762 L 379.25 172.43 Z " fill="rgb(0,0,128)"/><path d=" M 379.25 339.573 L 315.251 382.242 C 313.075 383.664 310.457 384.251 307.881 383.899 C 305.304 383.546 302.942 382.277 301.228 380.321 L 233.011 301.174 L 194.131 255.95 L 170.667 228.75 L 146.771 201.014 C 144.995 198.973 142.513 197.68 139.823 197.393 C 137.132 197.107 134.433 197.849 132.267 199.47 L 174.931 167.47 C 176.779 166.087 179.024 165.338 181.331 165.334 C 182.694 165.322 184.046 165.58 185.31 166.093 C 186.573 166.606 187.722 167.363 188.691 168.322 L 189.439 169.07 L 233.011 210.83 L 280.107 256.002 L 319.947 294.19 L 365.227 337.601 L 365.971 338.35 C 366.942 339.306 368.091 340.062 369.353 340.574 C 370.617 341.086 371.969 341.344 373.331 341.333 C 375.435 341.34 377.493 340.728 379.25 339.573 Z " fill="rgb(0,0,128)"/><path d=" M 384 181.333 L 384 330.668 C 384.001 332.429 383.569 334.162 382.741 335.715 C 381.912 337.268 380.714 338.594 379.252 339.573 L 315.251 382.24 C 316.715 381.261 317.913 379.935 318.74 378.381 C 319.568 376.827 320.001 375.094 319.999 373.333 L 319.999 138.669 C 319.976 136.895 319.516 135.155 318.66 133.601 C 317.804 132.048 316.578 130.729 315.091 129.761 L 379.252 172.429 C 380.71 173.412 381.905 174.738 382.733 176.29 C 383.56 177.842 383.996 179.574 384 181.333 Z " fill="rgb(0,0,128)"/></g></g></svg>