<?xml version="1.0" encoding="UTF-8" standalone="no"?><!-- Generator: Gravit.io --><svg xmlns="http://www.w3.org/2000/svg" xmlns:xlink="http://www.w3.org/1999/xlink" style="isolation:isolate" viewBox="0 0 512 512" width="512pt" height="512pt"><defs><clipPath id="_clipPath_30A5qlQOzo58503V89nF1RBiz9jvk3r5"><rect width="512" height="512"/></clipPath></defs><g clip-path="url(#_clipPath_30A5qlQOzo58503V89nF1RBiz9jvk3r5)"><rect x="0" y="0" width="512" height="512" transform="matrix(1,0,0,1,0,0)" fill="rgb(239,191,4)"/><path d=" M 128 282.252 C 128 255.82 149.644 235.243 177.848 235.243 C 194.172 235.243 209.073 242.512 217.588 253.513 L 205.347 265.754 C 202.101 261.597 197.958 258.228 193.229 255.893 C 188.5 253.559 183.3 252.323 178.026 252.272 C 161.175 252.272 147.689 264.87 147.689 282.252 C 147.689 299.817 161.175 312.416 178.026 312.416 C 183.492 312.406 188.88 311.138 193.774 308.708 C 198.663 306.277 202.93 302.747 206.235 298.398 L 218.297 310.287 C 210.14 321.818 194.525 329.445 177.848 329.445 C 149.644 329.445 128 308.868 128 282.252 Z  M 234.265 238.434 L 253.601 238.434 L 253.601 326.25 L 234.265 326.25 L 234.265 238.434 Z  M 289.619 302.656 L 289.619 254.758 L 268.507 254.758 L 268.507 238.434 L 290.503 238.434 L 290.503 219.628 L 308.599 210.756 L 308.599 238.434 L 337.343 238.434 L 337.343 254.758 L 308.599 254.758 L 308.599 299.465 C 308.599 308.332 313.57 312.237 322.973 312.237 C 327.862 312.26 332.706 311.234 337.164 309.22 L 337.164 325.897 C 331.575 328.351 325.523 329.559 319.421 329.445 C 302.213 329.445 289.619 320.042 289.619 302.656 Z  M 352.601 238.434 L 371.937 238.434 L 371.937 326.25 L 352.601 326.25 L 352.601 238.434 Z  M 302.922 182.548 C 318.807 182.511 334.464 186.297 348.572 193.585 C 362.686 200.873 374.835 211.448 384 224.421 L 361.468 224.421 C 354.084 216.208 345.057 209.648 334.972 205.153 C 324.882 200.662 313.964 198.337 302.922 198.337 C 291.881 198.337 280.963 200.662 270.878 205.153 C 260.793 209.648 251.766 216.208 244.377 224.421 L 221.85 224.421 C 231.01 211.448 243.164 200.873 257.273 193.585 C 271.386 186.297 287.042 182.511 302.922 182.548 Z " fill-rule="evenodd" fill="rgb(237,29,36)"/></g></svg>