<svg width="23" height="19" viewBox="0 0 23 19" class="svg-icon fill-current w-6 h-6 text-black hover:text-white" fill="none" xmlns="http://www.w3.org/2000/svg"><path d="M1.85001 8.33012L14.95 2.93012C16.24 2.37012 20.63 0.570119 20.63 0.570119C20.63 0.570119 22.65 -0.21988 22.49 1.69012C22.43 2.48012 21.98 5.23012 21.53 8.21012L20.12 17.0401C20.12 17.0401 20.01 18.3301 19.05 18.5601C18.09 18.7801 16.52 17.7701 16.24 17.5501C16.02 17.3801 12.02 14.8501 10.56 13.6101C10.17 13.2701 9.72002 12.6001 10.62 11.8101C12.64 9.95012 15.06 7.65012 16.53 6.19012C17.2 5.52012 17.88 3.94012 15.07 5.85012L7.14001 11.1901C7.14001 11.1901 6.24001 11.7501 4.55001 11.2501C2.86001 10.7401 0.890015 10.0701 0.890015 10.0701C0.890015 10.0701 -0.459985 9.23012 1.85001 8.33012Z" fill="currentColor"></path></svg>
