<svg width="1440" height="13" viewBox="0 0 1440 13" fill="none" xmlns="http://www.w3.org/2000/svg">
<path d="M212.359 6.5H205.71V13H212.359V6.5Z" fill="white"/>
<path d="M219.008 6.5H212.359V13H219.008V6.5Z" fill="white"/>
<path d="M225.657 6.5H219.008V13H225.657V6.5Z" fill="#12602C"/>
<path d="M232.296 6.5H225.647V13H232.296V6.5Z" fill="#12602C"/>
<path d="M232.296 0H225.647V6.5H232.296V0Z" fill="#12602C"/>
<path d="M238.945 6.5H232.296V13H238.945V6.5Z" fill="#12602C"/>
<path d="M245.584 6.5H238.935V13H245.584V6.5Z" fill="#1D8244"/>
<path d="M252.233 6.5H245.584V13H252.233V6.5Z" fill="#1D8244"/>
<path d="M252.233 0H245.584V6.5H252.233V0Z" fill="#1D8244"/>
<path d="M258.882 6.5H252.233V13H258.882V6.5Z" fill="#1D8244"/>
<path d="M265.521 6.5H258.872V13H265.521V6.5Z" fill="#12602C"/>
<path d="M272.17 6.5H265.521V13H272.17V6.5Z" fill="#12602C"/>
<path d="M272.17 0H265.521V6.5H272.17V0Z" fill="#12602C"/>
<path d="M278.809 6.5H272.16V13H278.809V6.5Z" fill="#12602C"/>
<path d="M285.458 6.5H278.809V13H285.458V6.5Z" fill="#1D8244"/>
<path d="M292.108 6.5H285.458V13H292.108V6.5Z" fill="#1D8244"/>
<path d="M292.108 0H285.458V6.5H292.108V0Z" fill="#1D8244"/>
<path d="M298.746 6.5H292.097V13H298.746V6.5Z" fill="#1D8244"/>
<path d="M305.396 6.5H298.747V13H305.396V6.5Z" fill="#12602C"/>
<path d="M312.035 6.5H305.385V13H312.035V6.5Z" fill="#12602C"/>
<path d="M312.035 0H305.385V6.5H312.035V0Z" fill="#12602C"/>
<path d="M318.684 6.5H312.035V13H318.684V6.5Z" fill="#12602C"/>
<path d="M325.332 6.5H318.683V13H325.332V6.5Z" fill="#1D8244"/>
<path d="M331.972 6.5H325.323V13H331.972V6.5Z" fill="#1D8244"/>
<path d="M331.972 0H325.323V6.5H331.972V0Z" fill="#1D8244"/>
<path d="M338.62 6.5H331.971V13H338.62V6.5Z" fill="#1D8244"/>
<path d="M345.26 6.5H338.611V13H345.26V6.5Z" fill="#12602C"/>
<path d="M351.909 6.5H345.26V13H351.909V6.5Z" fill="#12602C"/>
<path d="M351.909 0H345.26V6.5H351.909V0Z" fill="#12602C"/>
<path d="M358.548 6.5H351.899V13H358.548V6.5Z" fill="#12602C"/>
<path d="M365.197 6.5H358.548V13H365.197V6.5Z" fill="#1D8244"/>
<path d="M371.846 6.5H365.197V13H371.846V6.5Z" fill="#1D8244"/>
<path d="M371.846 0H365.197V6.5H371.846V0Z" fill="#1D8244"/>
<path d="M378.485 6.5H371.836V13H378.485V6.5Z" fill="#1D8244"/>
<path d="M385.134 6.5H378.485V13H385.134V6.5Z" fill="#12602C"/>
<path d="M391.773 6.5H385.124V13H391.773V6.5Z" fill="#12602C"/>
<path d="M391.773 0H385.124V6.5H391.773V0Z" fill="#12602C"/>
<path d="M398.422 6.5H391.773V13H398.422V6.5Z" fill="#12602C"/>
<path d="M212.359 0H205.71V6.5H212.359V0Z" fill="#B3B3B3"/>
<path d="M405.071 6.5H398.422V13H405.071V6.5Z" fill="white"/>
<path d="M411.71 6.5H405.061V13H411.71V6.5Z" fill="white"/>
<path d="M411.71 0H405.061V6.5H411.71V0Z" fill="#B3B3B3"/>
<path d="M417.649 6.5H411V13H417.649V6.5Z" fill="white"/>
<path d="M424.298 6.5H417.649V13H424.298V6.5Z" fill="white"/>
<path d="M430.947 6.5H424.298V13H430.947V6.5Z" fill="#12602C"/>
<path d="M437.586 6.5H430.937V13H437.586V6.5Z" fill="#12602C"/>
<path d="M437.586 0H430.937V6.5H437.586V0Z" fill="#12602C"/>
<path d="M444.235 6.5H437.586V13H444.235V6.5Z" fill="#12602C"/>
<path d="M450.874 6.5H444.225V13H450.874V6.5Z" fill="#1D8244"/>
<path d="M457.523 6.5H450.874V13H457.523V6.5Z" fill="#1D8244"/>
<path d="M457.523 0H450.874V6.5H457.523V0Z" fill="#1D8244"/>
<path d="M464.172 6.5H457.523V13H464.172V6.5Z" fill="#1D8244"/>
<path d="M470.811 6.5H464.162V13H470.811V6.5Z" fill="#12602C"/>
<path d="M477.46 6.5H470.811V13H477.46V6.5Z" fill="#12602C"/>
<path d="M477.46 0H470.811V6.5H477.46V0Z" fill="#12602C"/>
<path d="M484.099 6.5H477.45V13H484.099V6.5Z" fill="#12602C"/>
<path d="M490.748 6.5H484.099V13H490.748V6.5Z" fill="#1D8244"/>
<path d="M497.398 6.5H490.749V13H497.398V6.5Z" fill="#1D8244"/>
<path d="M497.397 0H490.748V6.5H497.397V0Z" fill="#1D8244"/>
<path d="M504.036 6.5H497.387V13H504.036V6.5Z" fill="#1D8244"/>
<path d="M510.686 6.5H504.037V13H510.686V6.5Z" fill="#12602C"/>
<path d="M517.325 6.5H510.676V13H517.325V6.5Z" fill="#12602C"/>
<path d="M517.325 0H510.676V6.5H517.325V0Z" fill="#12602C"/>
<path d="M523.974 6.5H517.325V13H523.974V6.5Z" fill="#12602C"/>
<path d="M530.622 6.5H523.973V13H530.622V6.5Z" fill="#1D8244"/>
<path d="M537.262 6.5H530.613V13H537.262V6.5Z" fill="#1D8244"/>
<path d="M537.262 0H530.613V6.5H537.262V0Z" fill="#1D8244"/>
<path d="M543.911 6.5H537.261V13H543.911V6.5Z" fill="#1D8244"/>
<path d="M550.55 6.5H543.901V13H550.55V6.5Z" fill="#12602C"/>
<path d="M557.199 6.5H550.55V13H557.199V6.5Z" fill="#12602C"/>
<path d="M557.199 0H550.55V6.5H557.199V0Z" fill="#12602C"/>
<path d="M563.838 6.5H557.189V13H563.838V6.5Z" fill="#12602C"/>
<path d="M570.487 6.5H563.838V13H570.487V6.5Z" fill="#1D8244"/>
<path d="M577.136 6.5H570.487V13H577.136V6.5Z" fill="#1D8244"/>
<path d="M577.136 0H570.487V6.5H577.136V0Z" fill="#1D8244"/>
<path d="M583.775 6.5H577.126V13H583.775V6.5Z" fill="#1D8244"/>
<path d="M590.424 6.5H583.775V13H590.424V6.5Z" fill="#12602C"/>
<path d="M597.063 6.5H590.414V13H597.063V6.5Z" fill="#12602C"/>
<path d="M597.063 0H590.414V6.5H597.063V0Z" fill="#12602C"/>
<path d="M603.712 6.5H597.063V13H603.712V6.5Z" fill="#12602C"/>
<path d="M417.649 0H411V6.5H417.649V0Z" fill="#B3B3B3"/>
<path d="M610.361 6.5H603.712V13H610.361V6.5Z" fill="white"/>
<path d="M617 6.5H610.351V13H617V6.5Z" fill="white"/>
<path d="M617 0H610.351V6.5H617V0Z" fill="#B3B3B3"/>
<path d="M6.64904 6.5H0V13H6.64904V6.5Z" fill="white"/>
<path d="M13.2984 6.5H6.64935V13H13.2984V6.5Z" fill="white"/>
<path d="M19.9471 6.5H13.2981V13H19.9471V6.5Z" fill="#12602C"/>
<path d="M26.5864 6.5H19.9374V13H26.5864V6.5Z" fill="#12602C"/>
<path d="M26.5858 0H19.9368V6.5H26.5858V0Z" fill="#12602C"/>
<path d="M33.2352 6.5H26.5861V13H33.2352V6.5Z" fill="#12602C"/>
<path d="M39.8744 6.5H33.2254V13H39.8744V6.5Z" fill="#1D8244"/>
<path d="M46.5232 6.5H39.8741V13H46.5232V6.5Z" fill="#1D8244"/>
<path d="M46.5232 0H39.8741V6.5H46.5232V0Z" fill="#1D8244"/>
<path d="M53.1725 6.5H46.5235V13H53.1725V6.5Z" fill="#1D8244"/>
<path d="M59.8112 6.5H53.1622V13H59.8112V6.5Z" fill="#12602C"/>
<path d="M66.4605 6.5H59.8115V13H66.4605V6.5Z" fill="#12602C"/>
<path d="M66.4605 0H59.8115V6.5H66.4605V0Z" fill="#12602C"/>
<path d="M73.0992 6.5H66.4502V13H73.0992V6.5Z" fill="#12602C"/>
<path d="M79.7486 6.5H73.0995V13H79.7486V6.5Z" fill="#1D8244"/>
<path d="M86.3973 6.5H79.7483V13H86.3973V6.5Z" fill="#1D8244"/>
<path d="M86.3973 0H79.7483V6.5H86.3973V0Z" fill="#1D8244"/>
<path d="M93.0366 6.5H86.3876V13H93.0366V6.5Z" fill="#1D8244"/>
<path d="M99.6854 6.5H93.0363V13H99.6854V6.5Z" fill="#12602C"/>
<path d="M106.325 6.5H99.6757V13H106.325V6.5Z" fill="#12602C"/>
<path d="M106.325 0H99.6757V6.5H106.325V0Z" fill="#12602C"/>
<path d="M112.974 6.5H106.325V13H112.974V6.5Z" fill="#12602C"/>
<path d="M119.622 6.5H112.973V13H119.622V6.5Z" fill="#1D8244"/>
<path d="M126.262 6.5H119.613V13H126.262V6.5Z" fill="#1D8244"/>
<path d="M126.261 0H119.612V6.5H126.261V0Z" fill="#1D8244"/>
<path d="M132.911 6.5H126.262V13H132.911V6.5Z" fill="#1D8244"/>
<path d="M139.55 6.5H132.901V13H139.55V6.5Z" fill="#12602C"/>
<path d="M146.199 6.5H139.55V13H146.199V6.5Z" fill="#12602C"/>
<path d="M146.199 0H139.55V6.5H146.199V0Z" fill="#12602C"/>
<path d="M152.838 6.5H146.189V13H152.838V6.5Z" fill="#12602C"/>
<path d="M159.487 6.5H152.838V13H159.487V6.5Z" fill="#1D8244"/>
<path d="M166.136 6.5H159.487V13H166.136V6.5Z" fill="#1D8244"/>
<path d="M166.136 0H159.487V6.5H166.136V0Z" fill="#1D8244"/>
<path d="M172.775 6.5H166.126V13H172.775V6.5Z" fill="#1D8244"/>
<path d="M179.424 6.5H172.775V13H179.424V6.5Z" fill="#12602C"/>
<path d="M186.063 6.5H179.414V13H186.063V6.5Z" fill="#12602C"/>
<path d="M186.063 0H179.414V6.5H186.063V0Z" fill="#12602C"/>
<path d="M192.712 6.5H186.063V13H192.712V6.5Z" fill="#12602C"/>
<path d="M6.64904 0H0V6.5H6.64904V0Z" fill="#B3B3B3"/>
<path d="M199.361 6.5H192.712V13H199.361V6.5Z" fill="white"/>
<path d="M206 6.5H199.351V13H206V6.5Z" fill="white"/>
<path d="M206 0H199.351V6.5H206V0Z" fill="#B3B3B3"/>
<path d="M622.649 6.5H616V13H622.649V6.5Z" fill="white"/>
<path d="M629.298 6.5H622.649V13H629.298V6.5Z" fill="white"/>
<path d="M635.937 6.5H629.288V13H635.937V6.5Z" fill="#12602C"/>
<path d="M642.586 6.5H635.937V13H642.586V6.5Z" fill="#12602C"/>
<path d="M642.586 0H635.937V6.5H642.586V0Z" fill="#12602C"/>
<path d="M649.235 6.5H642.586V13H649.235V6.5Z" fill="#12602C"/>
<path d="M655.874 6.5H649.225V13H655.874V6.5Z" fill="#1D8244"/>
<path d="M662.523 6.5H655.874V13H662.523V6.5Z" fill="#1D8244"/>
<path d="M662.523 0H655.874V6.5H662.523V0Z" fill="#1D8244"/>
<path d="M669.162 6.5H662.513V13H669.162V6.5Z" fill="#1D8244"/>
<path d="M675.811 6.5H669.162V13H675.811V6.5Z" fill="#12602C"/>
<path d="M682.46 6.5H675.811V13H682.46V6.5Z" fill="#12602C"/>
<path d="M682.46 0H675.811V6.5H682.46V0Z" fill="#12602C"/>
<path d="M689.099 6.5H682.45V13H689.099V6.5Z" fill="#12602C"/>
<path d="M695.748 6.5H689.099V13H695.748V6.5Z" fill="#1D8244"/>
<path d="M702.387 6.5H695.738V13H702.387V6.5Z" fill="#1D8244"/>
<path d="M702.387 0H695.738V6.5H702.387V0Z" fill="#1D8244"/>
<path d="M709.037 6.5H702.387V13H709.037V6.5Z" fill="#1D8244"/>
<path d="M715.686 6.5H709.037V13H715.686V6.5Z" fill="#12602C"/>
<path d="M722.325 6.5H715.676V13H722.325V6.5Z" fill="#12602C"/>
<path d="M722.325 0H715.676V6.5H722.325V0Z" fill="#12602C"/>
<path d="M728.974 6.5H722.325V13H728.974V6.5Z" fill="#12602C"/>
<path d="M735.613 6.5H728.964V13H735.613V6.5Z" fill="#1D8244"/>
<path d="M742.262 6.5H735.613V13H742.262V6.5Z" fill="#1D8244"/>
<path d="M742.262 0H735.613V6.5H742.262V0Z" fill="#1D8244"/>
<path d="M748.911 6.5H742.261V13H748.911V6.5Z" fill="#1D8244"/>
<path d="M755.55 6.5H748.901V13H755.55V6.5Z" fill="#12602C"/>
<path d="M762.199 6.5H755.55V13H762.199V6.5Z" fill="#12602C"/>
<path d="M762.199 0H755.55V6.5H762.199V0Z" fill="#12602C"/>
<path d="M768.838 6.5H762.188V13H768.838V6.5Z" fill="#12602C"/>
<path d="M775.487 6.5H768.838V13H775.487V6.5Z" fill="#1D8244"/>
<path d="M782.136 6.5H775.487V13H782.136V6.5Z" fill="#1D8244"/>
<path d="M782.136 0H775.487V6.5H782.136V0Z" fill="#1D8244"/>
<path d="M788.775 6.5H782.126V13H788.775V6.5Z" fill="#1D8244"/>
<path d="M795.424 6.5H788.775V13H795.424V6.5Z" fill="#12602C"/>
<path d="M802.063 6.5H795.414V13H802.063V6.5Z" fill="#12602C"/>
<path d="M802.063 0H795.414V6.5H802.063V0Z" fill="#12602C"/>
<path d="M808.712 6.5H802.063V13H808.712V6.5Z" fill="#12602C"/>
<path d="M622.649 0H616V6.5H622.649V0Z" fill="#B3B3B3"/>
<path d="M815.361 6.5H808.712V13H815.361V6.5Z" fill="white"/>
<path d="M822 6.5H815.351V13H822V6.5Z" fill="white"/>
<path d="M822 0H815.351V6.5H822V0Z" fill="#B3B3B3"/>
<path d="M828.649 6.5H822V13H828.649V6.5Z" fill="white"/>
<path d="M835.298 6.5H828.649V13H835.298V6.5Z" fill="white"/>
<path d="M841.937 6.5H835.288V13H841.937V6.5Z" fill="#12602C"/>
<path d="M848.586 6.5H841.937V13H848.586V6.5Z" fill="#12602C"/>
<path d="M848.586 0H841.937V6.5H848.586V0Z" fill="#12602C"/>
<path d="M855.235 6.5H848.586V13H855.235V6.5Z" fill="#12602C"/>
<path d="M861.874 6.5H855.225V13H861.874V6.5Z" fill="#1D8244"/>
<path d="M868.523 6.5H861.874V13H868.523V6.5Z" fill="#1D8244"/>
<path d="M868.523 0H861.874V6.5H868.523V0Z" fill="#1D8244"/>
<path d="M875.162 6.5H868.513V13H875.162V6.5Z" fill="#1D8244"/>
<path d="M881.811 6.5H875.162V13H881.811V6.5Z" fill="#12602C"/>
<path d="M888.46 6.5H881.811V13H888.46V6.5Z" fill="#12602C"/>
<path d="M888.46 0H881.811V6.5H888.46V0Z" fill="#12602C"/>
<path d="M895.099 6.5H888.45V13H895.099V6.5Z" fill="#12602C"/>
<path d="M901.748 6.5H895.099V13H901.748V6.5Z" fill="#1D8244"/>
<path d="M908.387 6.5H901.738V13H908.387V6.5Z" fill="#1D8244"/>
<path d="M908.387 0H901.738V6.5H908.387V0Z" fill="#1D8244"/>
<path d="M915.037 6.5H908.387V13H915.037V6.5Z" fill="#1D8244"/>
<path d="M921.686 6.5H915.037V13H921.686V6.5Z" fill="#12602C"/>
<path d="M928.325 6.5H921.676V13H928.325V6.5Z" fill="#12602C"/>
<path d="M928.325 0H921.676V6.5H928.325V0Z" fill="#12602C"/>
<path d="M934.974 6.5H928.325V13H934.974V6.5Z" fill="#12602C"/>
<path d="M941.613 6.5H934.964V13H941.613V6.5Z" fill="#1D8244"/>
<path d="M948.262 6.5H941.613V13H948.262V6.5Z" fill="#1D8244"/>
<path d="M948.262 0H941.613V6.5H948.262V0Z" fill="#1D8244"/>
<path d="M954.911 6.5H948.261V13H954.911V6.5Z" fill="#1D8244"/>
<path d="M961.55 6.5H954.901V13H961.55V6.5Z" fill="#12602C"/>
<path d="M968.199 6.5H961.55V13H968.199V6.5Z" fill="#12602C"/>
<path d="M968.199 0H961.55V6.5H968.199V0Z" fill="#12602C"/>
<path d="M974.838 6.5H968.188V13H974.838V6.5Z" fill="#12602C"/>
<path d="M981.487 6.5H974.838V13H981.487V6.5Z" fill="#1D8244"/>
<path d="M988.136 6.5H981.487V13H988.136V6.5Z" fill="#1D8244"/>
<path d="M988.136 0H981.487V6.5H988.136V0Z" fill="#1D8244"/>
<path d="M994.775 6.5H988.126V13H994.775V6.5Z" fill="#1D8244"/>
<path d="M1001.42 6.5H994.775V13H1001.42V6.5Z" fill="#12602C"/>
<path d="M1008.06 6.5H1001.41V13H1008.06V6.5Z" fill="#12602C"/>
<path d="M1008.06 0H1001.41V6.5H1008.06V0Z" fill="#12602C"/>
<path d="M1014.71 6.5H1008.06V13H1014.71V6.5Z" fill="#12602C"/>
<path d="M828.649 0H822V6.5H828.649V0Z" fill="#B3B3B3"/>
<path d="M1021.36 6.5H1014.71V13H1021.36V6.5Z" fill="white"/>
<path d="M1028 6.5H1021.35V13H1028V6.5Z" fill="white"/>
<path d="M1028 0H1021.35V6.5H1028V0Z" fill="#B3B3B3"/>
<path d="M1034.65 6.5H1028V13H1034.65V6.5Z" fill="white"/>
<path d="M1041.3 6.5H1034.65V13H1041.3V6.5Z" fill="white"/>
<path d="M1047.94 6.5H1041.29V13H1047.94V6.5Z" fill="#12602C"/>
<path d="M1054.59 6.5H1047.94V13H1054.59V6.5Z" fill="#12602C"/>
<path d="M1054.59 0H1047.94V6.5H1054.59V0Z" fill="#12602C"/>
<path d="M1061.24 6.5H1054.59V13H1061.24V6.5Z" fill="#12602C"/>
<path d="M1067.87 6.5H1061.23V13H1067.87V6.5Z" fill="#1D8244"/>
<path d="M1074.52 6.5H1067.87V13H1074.52V6.5Z" fill="#1D8244"/>
<path d="M1074.52 0H1067.87V6.5H1074.52V0Z" fill="#1D8244"/>
<path d="M1081.16 6.5H1074.51V13H1081.16V6.5Z" fill="#1D8244"/>
<path d="M1087.81 6.5H1081.16V13H1087.81V6.5Z" fill="#12602C"/>
<path d="M1094.46 6.5H1087.81V13H1094.46V6.5Z" fill="#12602C"/>
<path d="M1094.46 0H1087.81V6.5H1094.46V0Z" fill="#12602C"/>
<path d="M1101.1 6.5H1094.45V13H1101.1V6.5Z" fill="#12602C"/>
<path d="M1107.75 6.5H1101.1V13H1107.75V6.5Z" fill="#1D8244"/>
<path d="M1114.39 6.5H1107.74V13H1114.39V6.5Z" fill="#1D8244"/>
<path d="M1114.39 0H1107.74V6.5H1114.39V0Z" fill="#1D8244"/>
<path d="M1121.04 6.5H1114.39V13H1121.04V6.5Z" fill="#1D8244"/>
<path d="M1127.68 6.5H1121.03V13H1127.68V6.5Z" fill="#12602C"/>
<path d="M1134.32 6.5H1127.68V13H1134.32V6.5Z" fill="#12602C"/>
<path d="M1134.32 0H1127.68V6.5H1134.32V0Z" fill="#12602C"/>
<path d="M1140.97 6.5H1134.32V13H1140.97V6.5Z" fill="#12602C"/>
<path d="M1147.61 6.5H1140.96V13H1147.61V6.5Z" fill="#1D8244"/>
<path d="M1154.26 6.5H1147.61V13H1154.26V6.5Z" fill="#1D8244"/>
<path d="M1154.26 0H1147.61V6.5H1154.26V0Z" fill="#1D8244"/>
<path d="M1160.9 6.5H1154.25V13H1160.9V6.5Z" fill="#1D8244"/>
<path d="M1167.55 6.5H1160.9V13H1167.55V6.5Z" fill="#12602C"/>
<path d="M1174.2 6.5H1167.55V13H1174.2V6.5Z" fill="#12602C"/>
<path d="M1174.2 0H1167.55V6.5H1174.2V0Z" fill="#12602C"/>
<path d="M1180.84 6.5H1174.19V13H1180.84V6.5Z" fill="#12602C"/>
<path d="M1187.49 6.5H1180.84V13H1187.49V6.5Z" fill="#1D8244"/>
<path d="M1194.13 6.5H1187.48V13H1194.13V6.5Z" fill="#1D8244"/>
<path d="M1194.13 0H1187.48V6.5H1194.13V0Z" fill="#1D8244"/>
<path d="M1200.77 6.5H1194.13V13H1200.77V6.5Z" fill="#1D8244"/>
<path d="M1207.42 6.5H1200.77V13H1207.42V6.5Z" fill="#12602C"/>
<path d="M1214.06 6.5H1207.41V13H1214.06V6.5Z" fill="#12602C"/>
<path d="M1214.06 0H1207.41V6.5H1214.06V0Z" fill="#12602C"/>
<path d="M1220.71 6.5H1214.06V13H1220.71V6.5Z" fill="#12602C"/>
<path d="M1034.65 0H1028V6.5H1034.65V0Z" fill="#B3B3B3"/>
<path d="M1227.35 6.5H1220.7V13H1227.35V6.5Z" fill="white"/>
<path d="M1234 6.5H1227.35V13H1234V6.5Z" fill="white"/>
<path d="M1234 0H1227.35V6.5H1234V0Z" fill="#B3B3B3"/>
<path d="M1240.65 6.5H1234V13H1240.65V6.5Z" fill="white"/>
<path d="M1247.3 6.5H1240.65V13H1247.3V6.5Z" fill="white"/>
<path d="M1253.94 6.5H1247.29V13H1253.94V6.5Z" fill="#12602C"/>
<path d="M1260.59 6.5H1253.94V13H1260.59V6.5Z" fill="#12602C"/>
<path d="M1260.59 0H1253.94V6.5H1260.59V0Z" fill="#12602C"/>
<path d="M1267.24 6.5H1260.59V13H1267.24V6.5Z" fill="#12602C"/>
<path d="M1273.87 6.5H1267.23V13H1273.87V6.5Z" fill="#1D8244"/>
<path d="M1280.52 6.5H1273.87V13H1280.52V6.5Z" fill="#1D8244"/>
<path d="M1280.52 0H1273.87V6.5H1280.52V0Z" fill="#1D8244"/>
<path d="M1287.16 6.5H1280.51V13H1287.16V6.5Z" fill="#1D8244"/>
<path d="M1293.81 6.5H1287.16V13H1293.81V6.5Z" fill="#12602C"/>
<path d="M1300.46 6.5H1293.81V13H1300.46V6.5Z" fill="#12602C"/>
<path d="M1300.46 0H1293.81V6.5H1300.46V0Z" fill="#12602C"/>
<path d="M1307.1 6.5H1300.45V13H1307.1V6.5Z" fill="#12602C"/>
<path d="M1313.75 6.5H1307.1V13H1313.75V6.5Z" fill="#1D8244"/>
<path d="M1320.39 6.5H1313.74V13H1320.39V6.5Z" fill="#1D8244"/>
<path d="M1320.39 0H1313.74V6.5H1320.39V0Z" fill="#1D8244"/>
<path d="M1327.04 6.5H1320.39V13H1327.04V6.5Z" fill="#1D8244"/>
<path d="M1333.68 6.5H1327.03V13H1333.68V6.5Z" fill="#12602C"/>
<path d="M1340.32 6.5H1333.68V13H1340.32V6.5Z" fill="#12602C"/>
<path d="M1340.32 0H1333.68V6.5H1340.32V0Z" fill="#12602C"/>
<path d="M1346.97 6.5H1340.32V13H1346.97V6.5Z" fill="#12602C"/>
<path d="M1353.61 6.5H1346.96V13H1353.61V6.5Z" fill="#1D8244"/>
<path d="M1360.26 6.5H1353.61V13H1360.26V6.5Z" fill="#1D8244"/>
<path d="M1360.26 0H1353.61V6.5H1360.26V0Z" fill="#1D8244"/>
<path d="M1366.9 6.5H1360.25V13H1366.9V6.5Z" fill="#1D8244"/>
<path d="M1373.55 6.5H1366.9V13H1373.55V6.5Z" fill="#12602C"/>
<path d="M1380.2 6.5H1373.55V13H1380.2V6.5Z" fill="#12602C"/>
<path d="M1380.2 0H1373.55V6.5H1380.2V0Z" fill="#12602C"/>
<path d="M1386.84 6.5H1380.19V13H1386.84V6.5Z" fill="#12602C"/>
<path d="M1393.49 6.5H1386.84V13H1393.49V6.5Z" fill="#1D8244"/>
<path d="M1400.13 6.5H1393.48V13H1400.13V6.5Z" fill="#1D8244"/>
<path d="M1400.13 0H1393.48V6.5H1400.13V0Z" fill="#1D8244"/>
<path d="M1406.77 6.5H1400.13V13H1406.77V6.5Z" fill="#1D8244"/>
<path d="M1413.42 6.5H1406.77V13H1413.42V6.5Z" fill="#12602C"/>
<path d="M1420.06 6.5H1413.41V13H1420.06V6.5Z" fill="#12602C"/>
<path d="M1420.06 0H1413.41V6.5H1420.06V0Z" fill="#12602C"/>
<path d="M1426.71 6.5H1420.06V13H1426.71V6.5Z" fill="#12602C"/>
<path d="M1240.65 0H1234V6.5H1240.65V0Z" fill="#B3B3B3"/>
<path d="M1433.35 6.5H1426.7V13H1433.35V6.5Z" fill="white"/>
<path d="M1440 6.5H1433.35V13H1440V6.5Z" fill="white"/>
<path d="M1440 0H1433.35V6.5H1440V0Z" fill="#B3B3B3"/>
</svg>
