<?xml version="1.0" encoding="UTF-8" standalone="no"?><!-- Generator: Gravit.io --><svg xmlns="http://www.w3.org/2000/svg" xmlns:xlink="http://www.w3.org/1999/xlink" style="isolation:isolate" viewBox="0 0 512 512" width="512pt" height="512pt"><defs><clipPath id="_clipPath_6X9JD6vtrXiYV2v2wFb4PE9f5rBDYt6E"><rect width="512" height="512"/></clipPath></defs><g clip-path="url(#_clipPath_6X9JD6vtrXiYV2v2wFb4PE9f5rBDYt6E)"><circle vector-effect="non-scaling-stroke" cx="256" cy="256" r="256" fill="rgb(27,27,29)" /><path d=" M 266.608 225.166 C 268.02 225.166 269.344 225.85 270.161 227.002 L 286.577 251.661 L 303.009 226.979 C 303.811 225.85 305.136 225.166 306.547 225.166 L 310.992 225.166 C 314.442 225.166 317.238 227.962 317.238 231.411 L 317.238 280.59 C 317.238 284.038 314.441 286.834 310.992 286.834 C 307.542 286.834 304.745 284.038 304.745 280.59 L 304.745 245.4 L 290.954 264.822 C 288.814 267.836 284.34 267.836 282.201 264.822 L 268.41 245.4 L 268.41 280.59 C 268.41 284.038 265.613 286.834 262.164 286.834 C 258.714 286.834 255.918 284.038 255.918 280.59 L 255.918 231.411 C 255.918 227.962 258.714 225.166 262.164 225.166 L 266.608 225.166 Z  M 377.752 225.166 C 381.203 225.166 384 227.963 384 231.414 L 384 260.912 C 384 277.824 373.975 286.835 356.317 286.835 C 338.849 286.835 329.007 277.905 329.007 261.338 L 329.007 231.414 C 329.007 227.963 331.804 225.166 335.255 225.166 C 338.705 225.166 341.502 227.963 341.502 231.414 L 341.502 260.997 C 341.502 270.999 347.037 276.627 356.505 276.627 C 365.975 276.627 371.505 271.172 371.505 261.422 L 371.505 231.414 C 371.505 227.963 374.302 225.166 377.752 225.166 Z  M 176.182 225.165 C 179.631 225.165 182.428 227.962 182.428 231.411 C 182.428 234.861 179.631 237.657 176.182 237.657 L 161.458 237.657 L 161.458 280.522 C 161.458 283.972 158.662 286.768 155.212 286.768 C 151.764 286.768 148.968 283.972 148.968 280.522 L 148.968 237.657 L 134.246 237.657 C 130.796 237.657 128 234.861 128 231.411 C 128 227.962 130.797 225.165 134.246 225.165 L 176.182 225.165 Z  M 238.217 225.166 C 241.667 225.166 244.463 227.962 244.463 231.411 C 244.463 234.861 241.667 237.657 238.217 237.657 L 205.616 237.657 L 205.616 249.721 L 234.127 249.721 C 237.576 249.721 240.373 252.517 240.373 255.967 C 240.373 259.416 237.577 262.212 234.127 262.212 L 205.616 262.212 L 205.616 274.277 L 238.217 274.277 C 241.667 274.277 244.463 277.074 244.463 280.523 C 244.463 283.972 241.667 286.768 238.217 286.768 L 199.37 286.768 C 195.921 286.768 193.124 283.972 193.124 280.523 L 193.124 231.411 C 193.124 227.962 195.921 225.166 199.37 225.166 L 238.217 225.166 Z " fill="rgb(239,191,4)"/></g></svg>