<?xml version="1.0" encoding="UTF-8" standalone="no"?><!-- Generator: Gravit.io --><svg xmlns="http://www.w3.org/2000/svg" xmlns:xlink="http://www.w3.org/1999/xlink" style="isolation:isolate" viewBox="0 0 512 512" width="512pt" height="512pt"><defs><clipPath id="_clipPath_0VDU4SLrd4lEtZ7Q7iPZvlAzstyrkdNI"><rect width="512" height="512"/></clipPath></defs><g clip-path="url(#_clipPath_0VDU4SLrd4lEtZ7Q7iPZvlAzstyrkdNI)"><rect x="0" y="0" width="512" height="512" transform="matrix(1,0,0,1,0,0)" fill="rgb(6,64,43)"/><path d=" M 230.4 193.824 L 230.4 193.824 L 196.264 193.824 C 183.588 193.824 175.299 202.601 175.299 214.795 L 175.299 262.097 C 175.299 274.285 183.588 282.574 196.264 282.574 L 211.873 282.574 L 211.873 286.472 C 211.386 295.743 206.506 300.616 193.828 301.103 L 186.026 301.103 L 186.026 317.195 L 193.828 317.195 C 216.747 317.195 229.913 306.469 230.4 286.472 L 230.4 209.429 L 230.4 193.824 Z  M 211.873 266.482 L 211.873 266.482 L 201.632 266.482 C 196.752 266.482 193.828 263.559 193.828 259.167 L 193.828 217.719 C 193.828 213.333 196.752 210.403 201.145 210.403 L 211.873 210.403 L 211.873 266.482 Z  M 336.212 214.795 L 336.212 214.795 L 336.212 282.574 L 317.685 282.574 L 317.685 217.719 C 317.685 213.333 314.761 210.403 310.368 210.403 L 299.639 210.403 L 299.639 282.574 L 281.113 282.574 L 281.113 210.403 L 263.073 210.403 L 263.073 282.574 L 244.54 282.574 L 244.54 193.824 L 315.248 193.824 C 328.414 193.824 336.212 202.114 336.212 214.795 Z  M 336.212 317.195 L 336.212 317.195 L 244.54 317.195 L 244.54 301.103 L 336.212 301.103 L 336.212 317.195 L 336.212 317.195 Z  M 384 164.082 L 384 164.082 C 384 142.137 369.372 128 347.428 128 L 164.084 128 C 142.141 128 128 142.137 128 164.082 L 128 347.428 C 128 369.371 142.141 384 164.084 384 L 347.428 384 C 369.372 384 384 369.371 384 347.428 L 384 164.082 L 384 164.082 Z  M 345.478 367.421 L 345.478 367.421 L 166.034 367.421 C 151.406 367.421 144.092 360.106 144.092 345.478 L 144.092 166.031 C 144.092 151.401 151.406 144.092 166.034 144.092 L 345.478 144.092 C 360.106 144.092 367.423 151.401 367.423 166.031 L 367.423 345.478 C 367.423 360.106 360.106 367.421 345.478 367.421 Z " fill="rgb(255,255,255)"/></g></svg>