<?xml version="1.0" encoding="UTF-8" standalone="no"?><!-- Generator: Gravit.io --><svg xmlns="http://www.w3.org/2000/svg" xmlns:xlink="http://www.w3.org/1999/xlink" style="isolation:isolate" viewBox="0 0 512 512" width="512pt" height="512pt"><defs><clipPath id="_clipPath_VxJCyFbU7W9PwRVsrLJavIllmv1KOTOn"><rect width="512" height="512"/></clipPath></defs><g clip-path="url(#_clipPath_VxJCyFbU7W9PwRVsrLJavIllmv1KOTOn)"><circle vector-effect="non-scaling-stroke" cx="256" cy="256" r="256" fill="rgb(239,191,4)" /><g><path d=" M 155.651 283.117 C 155.651 292.892 157.797 300.397 160.601 304.937 C 164.278 310.884 169.762 313.403 175.352 313.403 C 182.563 313.403 189.16 311.614 201.873 294.031 C 212.057 279.939 224.058 260.157 232.132 247.756 L 245.807 226.746 C 255.306 212.155 266.3 195.935 278.906 184.94 C 289.197 175.967 300.299 170.981 311.471 170.981 C 330.229 170.981 348.096 181.851 361.77 202.238 C 376.736 224.565 384 252.688 384 281.71 C 384 298.963 380.599 311.641 374.813 321.656 C 369.222 331.342 358.325 341.019 339.995 341.019 L 339.995 313.403 C 355.69 313.403 359.607 298.981 359.607 282.476 C 359.607 258.956 354.123 232.854 342.043 214.203 C 333.469 200.974 322.359 192.89 310.136 192.89 C 296.916 192.89 286.277 202.861 274.321 220.639 C 267.965 230.085 261.439 241.596 254.113 254.585 L 246.047 268.873 C 229.844 297.601 225.74 304.145 217.639 314.943 C 203.44 333.852 191.315 341.019 175.352 341.019 C 156.417 341.019 144.443 332.82 137.027 320.463 C 130.973 310.394 128 297.183 128 282.129 L 155.651 283.117 Z " fill="rgb(255,255,255)"/><path d=" M 149.802 204.188 C 162.479 184.647 180.774 170.981 201.757 170.981 C 213.909 170.981 225.99 174.578 238.605 184.878 C 252.403 196.14 267.11 214.684 285.458 245.246 L 292.037 256.214 C 307.919 282.672 316.955 296.284 322.243 302.702 C 329.045 310.946 333.808 313.403 339.995 313.403 C 355.69 313.403 359.607 298.981 359.607 282.476 L 384 281.71 C 384 298.963 380.599 311.641 374.813 321.656 C 369.222 331.342 358.325 341.019 339.995 341.019 C 328.6 341.019 318.504 338.544 307.341 328.012 C 298.759 319.929 288.726 305.569 281.007 292.66 L 258.048 254.309 C 246.528 235.061 235.96 220.711 229.844 214.212 C 223.266 207.223 214.808 198.784 201.312 198.784 C 190.389 198.784 181.112 206.449 173.349 218.173 L 149.802 204.188 Z " fill="rgb(255,255,255)"/><path d=" M 201.312 198.784 C 190.389 198.784 181.112 206.449 173.349 218.173 C 162.373 234.741 155.651 259.419 155.651 283.117 C 155.651 292.892 157.797 300.397 160.601 304.937 L 137.027 320.463 C 130.973 310.394 128 297.183 128 282.129 C 128 254.754 135.514 226.221 149.802 204.188 C 162.479 184.647 180.774 170.981 201.757 170.981 L 201.312 198.784 Z " fill="rgb(255,255,255)"/></g></g></svg>