<?xml version="1.0" encoding="UTF-8" standalone="no"?><!-- Generator: Gravit.io --><svg xmlns="http://www.w3.org/2000/svg" xmlns:xlink="http://www.w3.org/1999/xlink" style="isolation:isolate" viewBox="0 0 512 512" width="512pt" height="512pt"><defs><clipPath id="_clipPath_1p8Ua5p8Qi2lb5p8A67KF7jhDbAAkWAa"><rect width="512" height="512"/></clipPath></defs><g clip-path="url(#_clipPath_1p8Ua5p8Qi2lb5p8A67KF7jhDbAAkWAa)"><circle vector-effect="non-scaling-stroke" cx="256" cy="256" r="256" fill="rgb(27,27,29)" /><path d=" M 285.091 128 L 349.091 192 L 317.091 192 L 285.091 192 L 285.091 160 L 285.091 128 Z  M 285.091 192 L 285.091 128 L 180.364 128 C 170.72 128 162.909 135.811 162.909 145.455 L 162.909 366.545 C 162.909 376.189 170.72 384 180.364 384 L 331.636 384 C 341.28 384 349.091 376.189 349.091 366.545 L 349.091 192 L 285.091 192 Z  M 197.818 226.909 L 197.818 311.273 L 314.182 311.273 L 314.182 226.909 L 197.818 226.909 Z  M 248.727 296.727 L 212.364 296.727 L 212.364 276.364 L 248.727 276.364 L 248.727 296.727 Z  M 248.727 261.818 L 212.364 261.818 L 212.364 241.455 L 248.727 241.455 L 248.727 261.818 Z  M 299.636 296.727 L 263.273 296.727 L 263.273 276.364 L 299.636 276.364 L 299.636 296.727 Z  M 299.636 261.818 L 263.273 261.818 L 263.273 241.455 L 299.636 241.455 L 299.636 261.818 Z " fill-rule="evenodd" fill="rgb(239,191,4)"/></g></svg>