<?xml version="1.0" encoding="UTF-8" standalone="no"?><!-- Generator: Gravit.io --><svg xmlns="http://www.w3.org/2000/svg" xmlns:xlink="http://www.w3.org/1999/xlink" style="isolation:isolate" viewBox="0 0 512 512" width="512pt" height="512pt"><defs><clipPath id="_clipPath_PGFQN1Yye80UE8fRP1ttzM3T8SRYvutR"><rect width="512" height="512"/></clipPath></defs><g clip-path="url(#_clipPath_PGFQN1Yye80UE8fRP1ttzM3T8SRYvutR)"><rect x="0" y="0" width="512" height="512" transform="matrix(1,0,0,1,0,0)" fill="rgb(239,191,4)"/><path d=" M 128 266.553 C 128 271.288 128.183 274.373 129.313 278.894 C 130.016 281.703 131.024 284.3 132.185 286.896 C 133.009 288.729 134.048 290.409 135.056 292.119 C 136.552 294.655 138.538 296.731 140.401 298.931 C 141.012 299.664 141.837 300.244 142.478 300.916 C 142.936 301.405 143.395 301.741 143.914 302.168 C 144.189 302.413 144.311 302.535 144.616 302.779 L 146.968 304.52 C 149.626 306.475 151.183 307.117 153.871 308.491 C 155.032 309.072 156.406 309.622 157.689 310.049 C 161.965 311.546 166.547 312.37 171.19 312.492 L 173.725 312.492 C 177.879 312.37 182.003 311.698 185.852 310.385 L 190.189 308.736 C 193.854 307.147 198.253 304.459 201.154 301.741 C 202.193 300.763 203.262 299.877 204.24 298.839 C 204.728 298.32 205.156 297.709 205.706 297.22 C 206.072 297.892 209.249 300.824 209.89 301.313 C 213.006 303.848 216.641 306.353 220.398 307.88 L 224.521 309.438 C 225.285 309.683 225.957 309.866 226.751 310.11 L 230.172 310.874 C 230.661 310.935 231.088 311.026 231.485 311.057 C 241.138 312.492 251.034 310.324 259.373 305.376 C 259.892 305.07 260.259 304.795 260.778 304.49 C 261.725 303.94 262.58 303.238 263.466 302.596 C 263.924 302.26 264.321 301.955 264.718 301.557 C 264.962 301.344 265.085 301.283 265.329 301.069 L 267.192 299.358 C 267.284 299.267 267.223 299.328 267.345 299.206 C 267.345 299.206 267.375 299.175 267.406 299.144 L 267.956 298.595 C 268.383 298.106 268.964 297.648 269.361 297.129 C 270.338 295.815 271.163 294.96 272.415 293.28 C 272.751 292.822 273.026 292.394 273.332 291.905 C 273.942 290.989 274.553 290.042 275.042 289.034 C 275.317 288.454 275.561 288.087 275.837 287.538 C 276.783 285.674 278.799 281.093 278.952 279.199 C 279.532 279.871 280.326 281.673 280.754 282.467 C 281.365 283.567 281.853 284.727 282.526 285.796 L 289.581 299.083 C 289.795 299.542 289.979 299.755 290.192 300.183 C 291.017 301.833 292.178 304.246 293.216 305.62 C 294.224 306.964 295.324 307.941 296.79 308.827 C 300.914 311.301 306.442 310.874 310.169 307.941 C 310.535 307.666 310.81 307.422 311.115 307.117 C 311.726 306.506 312.337 305.864 312.795 305.101 C 313.865 303.36 315.086 300.672 315.972 299.206 C 316.217 298.778 316.369 298.473 316.583 298.045 L 319.729 292.119 C 319.974 291.631 320.187 291.325 320.401 290.897 C 321.776 288.118 323.364 285.369 324.8 282.62 L 326.754 278.985 C 328.465 275.839 330.053 272.632 331.825 269.486 L 335.612 262.308 C 335.857 261.88 336.009 261.605 336.254 261.147 C 336.498 260.658 336.682 260.414 336.926 259.925 L 338.209 257.512 C 338.453 257.115 338.606 256.749 338.82 256.321 L 345.784 243.248 C 347.952 239.307 347.769 234.726 345.509 230.908 C 345.265 230.48 345.081 230.297 344.806 229.9 L 343.829 228.8 C 343.676 228.647 343.768 228.739 343.615 228.617 L 342.241 227.487 C 341.202 226.692 340.072 226.234 338.82 225.837 C 337.109 225.257 334.879 225.196 332.985 225.562 C 330.267 226.112 328.404 227.364 326.571 229.136 C 326.082 229.625 325.441 230.48 325.105 231.06 L 323.395 234.329 C 323.211 234.695 322.997 235.031 322.814 235.428 C 322.448 236.161 322.081 236.925 321.684 237.689 L 308.092 264.201 C 307.908 264.568 307.694 264.934 307.511 265.301 L 306.412 267.47 C 306.289 267.683 306.259 267.775 306.137 267.989 C 306.045 268.172 306.076 268.111 306.015 268.264 C 305.923 268.416 305.954 268.416 305.862 268.6 C 304.793 270.494 303.785 272.326 303.265 274.464 L 302.991 275.381 C 302.991 275.411 302.96 275.503 302.93 275.533 C 302.838 275.747 302.899 275.625 302.838 275.717 C 302.563 274.495 302.227 273.151 301.647 272.021 C 301.463 271.654 301.28 271.288 301.066 270.891 L 281.304 232.404 C 281.182 232.19 281.151 232.129 281.029 231.885 C 279.379 228.586 275.714 225.776 271.682 225.349 C 271.255 225.318 270.43 225.196 270.094 225.226 C 265.604 225.593 261.847 227.609 259.739 231.549 C 258.181 234.451 257.937 237.597 258.823 240.773 C 259.403 242.881 261.358 245.936 262.427 248.043 C 262.641 248.471 262.824 248.776 263.069 249.204 L 267.498 257.543 C 260.136 257.543 252.806 257.543 245.444 257.543 C 242.146 257.543 239.152 257.787 236.892 260.047 C 235.884 261.055 235.151 261.849 234.509 263.163 C 231.821 268.508 234.204 275.381 239.824 277.519 C 242.054 278.374 244.161 278.191 247.124 278.191 C 249.812 278.191 252.5 278.191 255.219 278.191 C 254.852 278.863 254.302 279.596 253.814 280.176 C 251.798 282.498 251.126 283.231 248.377 285.002 C 248.163 285.155 248.102 285.186 247.888 285.308 C 247.674 285.399 247.552 285.491 247.308 285.613 C 242.115 288.271 234.693 288.698 229.5 286.071 C 227.912 285.277 226.415 284.392 225.101 283.2 C 223.788 282.04 222.658 280.726 221.619 279.29 C 221.283 278.802 221.008 278.313 220.703 277.794 C 217.862 272.845 217.221 266.309 219.054 260.872 C 219.359 259.986 219.634 259.192 220.001 258.429 L 221.925 255.16 C 222.841 253.816 224.002 252.655 225.224 251.586 C 226.782 250.181 228.614 249.143 230.569 248.349 C 234.815 246.638 235.731 247.799 239.733 243.767 C 240.313 243.187 240.74 242.423 241.168 241.721 C 242.94 238.819 243.153 234.237 241.687 231.182 C 241.077 229.9 240.313 228.739 239.335 227.731 L 238.969 227.395 C 238.144 226.662 237.32 225.959 236.312 225.471 C 231.333 222.966 225.254 224.951 220.52 226.967 L 216.396 229.044 C 213.708 230.663 211.662 232.068 209.249 234.176 C 208.241 235.031 206.897 236.223 206.133 237.23 L 205.278 238.177 C 203.659 240.102 202.162 242.056 200.849 244.225 C 200.208 245.294 199.688 246.21 199.108 247.371 C 196.145 253.266 194.343 259.65 194.343 267.347 C 194.343 269.516 194.496 271.593 194.771 273.609 C 194.801 273.823 194.954 274.586 194.954 274.831 C 194.923 275.381 194.068 276.419 193.732 276.908 L 189.395 282.04 L 187.562 283.597 C 187.318 283.781 187.104 283.964 186.829 284.178 C 186.524 284.392 186.31 284.514 186.004 284.758 C 182.98 286.957 177.818 288.912 173.878 288.912 C 172.687 288.912 171.373 289.004 170.152 288.851 C 169.663 288.79 169.388 288.759 168.899 288.698 C 167.555 288.484 165.845 287.996 164.684 287.507 C 159.797 285.491 155.857 281.826 153.566 277.091 C 150.42 270.524 150.969 262.98 154.665 256.779 C 156.376 253.908 158.881 251.525 161.752 249.784 L 164.47 248.41 L 167.494 247.432 C 168.533 247.127 169.724 247.005 170.885 246.852 C 174 246.394 176.322 246.638 178.918 244.805 C 179.101 244.683 179.284 244.53 179.498 244.378 C 181.973 242.362 184.019 239.277 184.019 235.734 C 184.019 233.076 183.683 231.152 182.43 229.044 C 182.247 228.739 182.125 228.495 181.881 228.189 C 180.567 226.448 179.223 225.288 177.177 224.31 C 172.717 222.141 165.295 223.699 161.11 224.676 L 157.995 225.623 C 157.262 225.868 156.712 226.082 156.04 226.356 C 155.368 226.631 154.757 226.906 154.085 227.181 C 151.641 228.189 149.32 229.686 147.151 231.121 C 144.983 232.557 143.028 234.298 141.195 236.131 C 140.248 237.078 139.424 237.872 138.599 238.91 C 136.552 241.445 134.598 244.072 133.132 247.005 C 132.948 247.371 132.795 247.585 132.643 247.921 C 132.459 248.318 132.368 248.532 132.215 248.868 L 130.627 252.686 C 129.038 256.901 128.03 261.88 128.03 266.553 L 128 266.553 Z  M 368.937 226.754 L 368.967 226.54 C 368.448 226.417 367.806 226.143 367.318 225.959 C 365.21 225.165 365.974 225.165 363.927 225.929 C 363.408 226.112 362.675 226.326 362.247 226.54 L 362.247 223.638 L 357.757 221.133 L 357.452 221.103 C 356.322 221.622 352.656 222.813 351.923 223.21 C 348.319 225.226 350.732 231.06 355.039 229.319 L 360.628 227.242 C 360.995 227.12 361.728 226.754 362.125 226.723 C 362.125 228.036 361.973 231.641 362.186 232.649 C 362.706 235.123 365.668 236.253 367.745 234.604 C 368.295 234.176 368.753 233.473 368.937 232.679 C 369.089 231.977 369.212 227.395 368.937 226.692 L 368.937 226.754 Z  M 365.577 211.389 L 365.577 211.787 L 367.349 216.765 C 367.806 216.735 370.586 215.086 371.197 214.719 C 371.502 214.536 371.502 214.322 371.625 214.627 C 371.838 214.291 371.564 214.475 371.899 214.169 L 375.168 204.853 C 375.443 204.059 375.626 203.814 375.595 202.806 C 375.595 201.004 374.251 199.752 372.724 199.508 L 371.655 199.508 C 370.983 199.63 370.342 199.935 369.792 200.485 C 369.242 201.035 369.181 201.249 368.876 202.043 L 365.577 211.389 Z  M 359.284 214.23 L 359.468 214.505 L 362.675 216.277 C 363.072 216.521 363.408 216.643 363.744 216.888 L 365.546 211.787 L 365.546 211.389 L 362.919 203.906 C 362.369 202.348 361.942 200.027 359.773 199.569 C 359.682 199.538 359.56 199.538 359.468 199.508 L 358.429 199.508 C 356.902 199.721 355.619 200.882 355.497 202.745 C 355.436 203.723 356.23 205.678 356.597 206.624 C 357.085 207.908 357.452 209.16 357.91 210.382 C 358.154 210.993 358.338 211.603 358.551 212.214 C 358.674 212.581 358.735 212.825 358.887 213.192 C 359.04 213.589 359.132 213.772 359.223 214.2 L 359.284 214.23 Z  M 371.93 214.169 C 371.594 214.475 371.869 214.291 371.655 214.627 L 369.853 219.759 L 373.457 221.103 L 373.763 221.103 L 381.216 216.826 C 382.529 216.093 384.453 215.116 383.904 212.52 C 383.476 210.565 381.491 209.496 379.627 209.954 C 378.955 210.137 374.526 212.764 373.518 213.314 C 372.969 213.619 372.51 213.925 371.961 214.169 L 371.93 214.169 Z  M 357.482 221.133 L 357.788 221.164 C 358.154 220.858 360.842 220.034 361.392 219.759 C 361.209 219.362 361.087 218.873 360.934 218.445 L 359.987 215.788 C 359.865 215.391 359.682 214.841 359.499 214.475 L 359.315 214.2 L 354.795 211.603 C 354.397 211.389 352.168 210.076 351.74 209.954 C 351.19 209.801 350.121 209.801 349.571 210.015 C 348.533 210.382 347.494 211.42 347.341 212.581 C 346.914 215.696 349.266 216.338 351.496 217.682 L 356.016 220.247 C 356.352 220.431 357.299 220.919 357.513 221.103 L 357.482 221.133 Z  M 368.967 226.54 L 368.937 226.754 C 369.395 226.784 371.319 227.548 371.838 227.762 C 372.297 227.945 372.724 228.097 373.213 228.281 L 376.023 229.35 C 377.612 229.991 379.169 229.686 380.208 228.373 C 381.582 226.631 380.941 224.157 379.23 223.241 C 378.803 223.027 378.345 222.875 377.856 222.691 L 373.702 221.103 L 373.396 221.103 L 368.906 223.638 L 368.937 226.54 L 368.967 226.54 Z " fill-rule="evenodd" fill="rgb(255,255,255)"/></g></svg>