<?xml version="1.0" encoding="UTF-8" standalone="no"?><!-- Generator: Gravit.io --><svg xmlns="http://www.w3.org/2000/svg" xmlns:xlink="http://www.w3.org/1999/xlink" style="isolation:isolate" viewBox="0 0 512 512" width="512pt" height="512pt"><defs><clipPath id="_clipPath_2mOA691Gs8Dubj0Y71cRvo9YM2d5b6PS"><rect width="512" height="512"/></clipPath></defs><g clip-path="url(#_clipPath_2mOA691Gs8Dubj0Y71cRvo9YM2d5b6PS)"><rect width="512" height="512" style="fill:rgb(237,29,36)"/><path d=" M 145.528 241.427 C 214.233 211.589 259.971 191.763 282.939 182.144 C 348.307 154.858 362.048 150.147 370.882 149.951 C 372.845 149.951 377.163 150.343 380.108 152.699 C 382.463 154.662 383.052 157.214 383.445 159.177 C 383.837 161.14 384.23 165.262 383.837 168.403 C 380.304 205.7 364.993 296.195 357.14 337.811 C 353.803 355.478 347.325 361.367 341.044 361.956 C 327.303 363.134 316.899 352.926 303.747 344.289 C 282.939 330.744 271.357 322.303 251.138 308.955 C 227.778 293.643 242.893 285.202 256.242 271.461 C 259.775 267.928 320.04 212.963 321.217 208.056 C 321.414 207.467 321.414 205.111 320.04 203.934 C 318.665 202.756 316.702 203.148 315.132 203.541 C 312.973 203.934 279.994 225.919 215.804 269.302 C 206.381 275.78 197.94 278.921 190.285 278.724 C 181.844 278.528 165.747 274.013 153.576 270.087 C 138.854 265.376 127.076 262.824 128.057 254.579 C 128.646 250.261 134.535 245.942 145.528 241.427 Z " fill-rule="evenodd" fill="rgb(255,255,255)"/></g></svg>