<?xml version="1.0" encoding="UTF-8" standalone="no"?><!-- Generator: Gravit.io --><svg xmlns="http://www.w3.org/2000/svg" xmlns:xlink="http://www.w3.org/1999/xlink" style="isolation:isolate" viewBox="0 0 512 512" width="512pt" height="512pt"><defs><clipPath id="_clipPath_E296rOBFJA1BMXVAOpSY9Ib9SkDUvCen"><rect width="512" height="512"/></clipPath></defs><g clip-path="url(#_clipPath_E296rOBFJA1BMXVAOpSY9Ib9SkDUvCen)"><path d="M 477.714 383.995 L 256.005 512 L 34.286 383.995 L 34.286 127.985 L 256.005 0 L 477.714 127.985 L 477.714 383.995 Z" fill-rule="evenodd" fill="rgb(237,29,36)" /><path d=" M 145.455 352.025 L 186.182 352.025 L 186.182 253.116 L 128 209.479 L 128 334.57 C 128 344.228 135.825 352.025 145.455 352.025 Z  M 325.818 352.025 L 366.545 352.025 C 376.204 352.025 384 344.199 384 334.57 L 384 209.479 L 325.818 253.116 M 325.818 177.479 L 325.818 253.116 L 384 209.479 L 384 186.207 C 384 164.621 359.36 152.316 342.109 165.261 M 186.182 253.116 L 186.182 177.479 L 256 229.843 L 325.818 177.479 L 325.818 253.116 L 256 305.479 M 128 186.207 L 128 209.479 L 186.182 253.116 L 186.182 177.479 L 169.891 165.261 C 152.611 152.316 128 164.621 128 186.207 Z " fill-rule="evenodd" fill="rgb(239,191,4)"/></g></svg>