<?xml version="1.0" encoding="UTF-8" standalone="no"?><!-- Generator: Gravit.io --><svg xmlns="http://www.w3.org/2000/svg" xmlns:xlink="http://www.w3.org/1999/xlink" style="isolation:isolate" viewBox="0 0 512 512" width="512pt" height="512pt"><defs><clipPath id="_clipPath_w4y6bJYLj8i4Xix7oAvwAAslvkT2a11K"><rect width="512" height="512"/></clipPath></defs><g clip-path="url(#_clipPath_w4y6bJYLj8i4Xix7oAvwAAslvkT2a11K)"><path d="M 477.714 383.995 L 256.005 512 L 34.286 383.995 L 34.286 127.985 L 256.005 0 L 477.714 127.985 L 477.714 383.995 Z" fill-rule="evenodd" fill="rgb(237,29,36)" /><path d=" M 256.106 130.133 C 185.267 130.133 128 187.822 128 259.191 C 128 316.24 164.693 364.531 215.595 381.622 C 221.959 382.907 224.291 378.845 224.291 375.428 C 224.291 372.437 224.081 362.181 224.081 351.495 C 188.445 359.189 181.024 336.111 181.024 336.111 C 175.297 321.154 166.811 317.31 166.811 317.31 C 155.148 309.404 167.661 309.404 167.661 309.404 C 180.599 310.258 187.388 322.651 187.388 322.651 C 198.839 342.307 217.292 336.753 224.715 333.334 C 225.775 325.001 229.17 319.232 232.776 316.027 C 204.354 313.035 174.45 301.925 174.45 252.352 C 174.45 238.25 179.537 226.712 187.598 217.739 C 186.326 214.534 181.871 201.284 188.872 183.55 C 188.872 183.55 199.689 180.131 224.078 196.798 C 234.52 193.973 245.289 192.536 256.106 192.523 C 266.923 192.523 277.949 194.021 288.131 196.798 C 312.523 180.131 323.34 183.55 323.34 183.55 C 330.341 201.284 325.883 214.534 324.611 217.739 C 332.885 226.712 337.762 238.25 337.762 252.352 C 337.762 301.925 307.858 312.82 279.223 316.027 C 283.891 320.087 287.919 327.777 287.919 339.958 C 287.919 357.264 287.709 371.154 287.709 375.426 C 287.709 378.845 290.043 382.907 296.404 381.625 C 347.307 364.528 383.999 316.24 383.999 259.191 C 384.209 187.822 326.733 130.133 256.106 130.133 Z " fill-rule="evenodd" fill="rgb(239,191,4)"/></g></svg>