<?xml version="1.0" encoding="UTF-8" standalone="no"?><!-- Generator: Gravit.io --><svg xmlns="http://www.w3.org/2000/svg" xmlns:xlink="http://www.w3.org/1999/xlink" style="isolation:isolate" viewBox="0 0 512 512" width="512pt" height="512pt"><defs><clipPath id="_clipPath_5DZEXEnb3700xaAeX2sSMRD33AZtCyqN"><rect width="512" height="512"/></clipPath></defs><g clip-path="url(#_clipPath_5DZEXEnb3700xaAeX2sSMRD33AZtCyqN)"><circle vector-effect="non-scaling-stroke" cx="256" cy="256" r="256" fill="rgb(27,27,29)" /><path d=" M 247.252 383.834 C 229.1 382.465 210.88 377.451 194.863 369.416 C 181.955 362.941 170.642 354.69 160.725 344.516 C 134.11 317.213 122.977 279.396 130.111 240.513 C 135.984 208.496 153.087 181.855 178.641 164.92 C 202.729 148.954 234.338 141.388 271.114 142.784 L 279.284 143.094 L 281.967 141.359 C 292.617 134.473 303.669 130.963 322.286 128.553 C 327.343 127.898 328.043 127.865 328.777 128.244 C 329.678 128.711 329.963 129.224 329.963 130.381 C 329.963 130.799 328.238 138.546 326.13 147.597 C 322.346 163.839 322.303 164.066 322.776 165.06 C 323.04 165.614 324.681 168.652 326.424 171.813 C 328.166 174.973 330.057 178.418 330.627 179.467 C 331.196 180.516 336.507 190.158 342.43 200.892 C 348.351 211.627 356.832 227.013 361.275 235.085 C 373.427 257.161 380.028 269.133 381.643 272.029 C 383.55 275.446 384.019 277.615 383.999 282.925 C 383.986 286.367 383.861 287.51 383.224 289.962 C 379.975 302.465 368.526 313.09 350.161 320.644 C 346.002 322.355 341.402 323.868 340.361 323.868 C 339.407 323.868 338.9 323.289 336.122 319.026 C 331.11 311.332 321.439 300.247 311.566 290.876 C 305.918 285.515 304 283.927 290.368 273.316 C 273.045 259.832 266.807 254.528 258.533 246.25 C 243.535 231.245 236.432 218.914 235.363 206.03 C 235.026 201.958 236.071 195.518 237.262 194.326 C 238.825 192.762 241.64 194.27 241.257 196.465 C 241.156 197.045 240.998 198.92 240.906 200.633 C 240.768 203.199 240.846 204.169 241.342 206.136 C 243.736 215.61 252.759 226.442 269.104 239.466 C 276.66 245.486 281.797 249.179 297.701 260.022 C 317.2 273.316 319.093 274.815 328.35 284.281 C 337.015 293.141 341.467 298.658 344.671 304.499 C 345.512 306.032 346.228 307.327 346.261 307.377 C 346.41 307.594 350.081 306.456 352.302 305.505 C 361.746 301.46 367.86 293.36 369.712 282.438 L 370.193 279.601 L 361.476 264.974 C 356.682 256.93 350.354 246.32 347.414 241.396 C 339.433 228.032 308.903 176.844 306.831 173.346 C 305.839 171.675 304.958 170.024 304.873 169.677 C 304.779 169.295 306.206 164.779 308.505 158.188 C 312.855 145.713 312.854 146.671 308.515 147.777 C 301.801 149.49 295.275 152.609 282.022 160.44 C 279.342 162.024 277.32 163.031 276.822 163.031 C 276.374 163.031 274.388 162.77 272.409 162.451 C 263.121 160.953 253.405 160.361 244.026 160.723 C 223.292 161.523 204.217 167.777 188.299 178.994 C 170.422 191.592 155.139 212.251 147.938 233.557 C 136.709 266.772 145.38 305.184 170.576 333.848 C 189.313 355.164 214.98 368.759 243.733 372.599 C 249.657 373.39 260.772 373.682 266.707 373.203 C 293.177 371.064 316.461 360.707 335.284 342.695 C 338.256 339.852 338.83 339.426 339.692 339.426 C 341.982 339.426 342.824 341.234 341.549 343.412 C 338.684 348.303 330.645 357.084 324.511 362.02 C 309.406 374.177 290.402 381.495 268.484 383.596 C 264.32 383.995 251.317 384.142 247.254 383.836 L 247.252 383.834 Z " fill="rgb(237,29,36)"/></g></svg>