<?xml version="1.0" encoding="UTF-8" standalone="no"?><!-- Generator: Gravit.io --><svg xmlns="http://www.w3.org/2000/svg" xmlns:xlink="http://www.w3.org/1999/xlink" style="isolation:isolate" viewBox="0 0 512 512" width="512pt" height="512pt"><defs><clipPath id="_clipPath_3DFDUNZ084EIZESGQGTw44FVfrb0PbLg"><rect width="512" height="512"/></clipPath></defs><g clip-path="url(#_clipPath_3DFDUNZ084EIZESGQGTw44FVfrb0PbLg)"><rect width="512" height="512" style="fill:rgb(27,27,29)"/><path d=" M 180.563 149.935 L 180.563 377.795 C 180.563 380.229 179.457 381.335 177.466 381.335 L 134.106 381.335 C 132.115 381.335 131.23 380.229 131.23 377.795 L 131.23 149.935 C 131.23 147.944 132.336 147.06 134.327 147.06 L 177.466 147.06 C 178.793 146.838 180.12 147.723 180.342 149.272 C 180.563 149.493 180.563 149.714 180.563 149.935 L 180.563 149.935 Z  M 308.43 383.99 C 292.059 384.211 275.689 380.893 260.867 374.035 C 246.93 367.619 235.426 357 227.462 343.948 C 219.277 330.454 215.295 313.641 215.295 293.509 C 215.074 277.139 219.277 260.99 227.462 246.831 C 235.869 232.452 248.036 220.506 262.637 212.542 C 278.122 203.914 296.705 199.711 318.606 199.711 C 319.712 199.711 321.261 199.711 323.252 199.932 C 325.243 200.153 327.455 200.153 330.11 200.374 L 330.11 130.468 C 330.11 128.919 330.773 128.034 332.322 128.034 L 377.23 128.034 C 378.336 127.813 379.221 128.698 379.443 129.583 L 379.443 130.025 L 379.443 340.63 C 379.443 344.612 379.664 349.036 379.885 353.903 C 380.327 358.549 380.549 362.973 380.77 366.734 C 380.77 368.283 380.106 369.61 378.558 370.274 C 367.054 375.141 354.887 378.68 342.498 380.893 C 331.437 382.884 319.934 383.99 308.43 383.99 L 308.43 383.99 Z  M 330.11 339.745 L 330.11 242.407 C 328.119 241.964 326.128 241.522 324.137 241.301 C 321.703 241.079 319.27 240.858 316.836 240.858 C 308.209 240.858 299.581 242.628 291.838 246.61 C 284.317 250.371 277.901 255.901 273.034 262.981 C 268.167 270.06 265.734 279.572 265.734 291.076 C 265.513 298.819 266.84 306.562 269.495 313.862 C 271.707 319.835 275.025 325.144 279.45 329.569 C 283.653 333.551 288.741 336.648 294.493 338.418 C 300.466 340.409 306.66 341.294 312.854 341.294 C 316.173 341.294 319.27 341.072 322.146 340.851 C 325.022 341.072 327.676 340.63 330.11 339.745 L 330.11 339.745 Z " fill-rule="evenodd" fill="rgb(0,0,128)"/></g></svg>