<?xml version="1.0" encoding="UTF-8" standalone="no"?><!-- Generator: Gravit.io --><svg xmlns="http://www.w3.org/2000/svg" xmlns:xlink="http://www.w3.org/1999/xlink" style="isolation:isolate" viewBox="0 0 512 512" width="512pt" height="512pt"><defs><clipPath id="_clipPath_STuA6D1iSRFFNrHlb3dCC7apkZ89hxOv"><rect width="512" height="512"/></clipPath></defs><g clip-path="url(#_clipPath_STuA6D1iSRFFNrHlb3dCC7apkZ89hxOv)"><circle vector-effect="non-scaling-stroke" cx="256" cy="256" r="256" fill="rgb(149,6,6)" /><path d=" M 340.808 177.79 C 340.658 176.441 339.458 175.841 338.559 175.841 C 337.659 175.841 318.013 174.341 318.013 174.341 C 318.013 174.341 304.365 160.694 302.716 159.344 C 301.216 157.844 298.366 158.294 297.167 158.594 C 297.017 158.594 294.167 159.494 289.518 160.994 C 284.869 147.646 276.921 135.499 262.673 135.499 L 261.324 135.499 C 257.424 130.399 252.325 128 248.126 128 C 215.133 128 199.236 169.242 194.287 190.238 C 181.389 194.287 172.241 196.987 171.191 197.436 C 163.993 199.686 163.843 199.836 162.943 206.585 C 162.193 211.684 143.447 356.705 143.447 356.705 L 289.368 384 L 368.553 366.903 C 368.703 366.603 340.958 179.14 340.808 177.79 Z  M 281.42 163.093 C 277.82 164.143 273.471 165.493 269.122 166.992 L 269.122 164.293 C 269.122 156.194 268.072 149.596 266.123 144.347 C 273.621 145.247 278.27 153.495 281.42 163.093 Z  M 256.975 145.996 C 258.924 151.095 260.274 158.294 260.274 168.192 L 260.274 169.692 C 252.175 172.241 243.627 174.791 234.779 177.64 C 239.728 158.744 249.176 149.446 256.975 145.996 Z  M 247.376 136.698 C 248.876 136.698 250.376 137.298 251.576 138.198 C 240.928 143.147 229.68 155.595 225.031 180.79 C 217.982 183.039 211.233 184.989 204.785 187.088 C 210.184 167.892 223.681 136.698 247.376 136.698 L 247.376 136.698 Z  M 262.673 219.332 L 253.075 248.276 C 253.075 248.276 244.377 243.627 234.029 243.627 C 218.582 243.627 217.832 253.375 217.832 255.775 C 217.832 268.972 252.325 274.071 252.325 305.115 C 252.325 329.561 236.878 345.308 216.032 345.308 C 190.837 345.308 178.24 329.711 178.24 329.711 L 184.989 307.515 C 184.989 307.515 198.186 318.913 209.284 318.913 C 216.632 318.913 219.632 313.214 219.632 309.015 C 219.632 291.768 191.437 291.018 191.437 262.524 C 191.437 238.678 208.534 215.583 243.177 215.583 C 256.075 215.433 262.673 219.332 262.673 219.332 L 262.673 219.332 Z " fill-rule="evenodd" fill="rgb(255,255,255)"/></g></svg>