<svg width="64" height="64" viewBox="0 0 64 64" fill="none" xmlns="http://www.w3.org/2000/svg">
<path d="M20 6H10V8H20V6Z" fill="black"/>
<path d="M24 8H20V10H24V8Z" fill="black"/>
<path d="M26 10H24V12H26V10Z" fill="black"/>
<path d="M28 12H26V16H28V12Z" fill="black"/>
<path d="M30 16H28V26H30V16Z" fill="black"/>
<path d="M28 26H26V30H28V26Z" fill="black"/>
<path d="M26 30H24V32H26V30Z" fill="black"/>
<path d="M24 32H20V34H24V32Z" fill="black"/>
<path d="M6 34H10V32H6V34Z" fill="black"/>
<path d="M4 32H6V30H4V32Z" fill="black"/>
<path d="M2 30H4L4 26H2L2 30Z" fill="black"/>
<path d="M0 26H2L2 16H0L0 26Z" fill="black"/>
<path d="M2 16H4L4 12H2L2 16Z" fill="black"/>
<path d="M4 12H6V10H4V12Z" fill="black"/>
<path d="M6 10H10V8H6V10Z" fill="black"/>
<path d="M20 34H10V36H20V34Z" fill="black"/>
<path d="M28 16H26V12H24V10H20V8H10V10H6V12H4V16H2V26H4V30H6V32H10V34H20V32H24V30H26V26H28V16Z" fill="#FFC815"/>
<path d="M20 8H10V10H20V8Z" fill="#FFF2B4"/>
<path d="M24 10H20V12H24V10Z" fill="#FFF2B4"/>
<path d="M26 12H24V14H26V12Z" fill="#FFF2B4"/>
<path d="M4 14H6V12H4V14Z" fill="#FFF2B4"/>
<path d="M6 12H10V10H6V12Z" fill="#FFF2B4"/>
<path d="M26 28H24V30H26V28Z" fill="#FF7F0D"/>
<path d="M24 30H20V32H24V30Z" fill="#FF7F0D"/>
<path d="M6 32H10V30H6V32Z" fill="#FF7F0D"/>
<path d="M4 30H6V28H4V30Z" fill="#FF7F0D"/>
<path d="M20 32H10V34H20V32Z" fill="#FF7F0D"/>
<path d="M20 16H12V18H20V16Z" fill="black"/>
<path d="M18 24H10V26H18V24Z" fill="black"/>
<path d="M16 14H14V28H16V14Z" fill="black"/>
<path d="M12 18H10V20H12V18Z" fill="black"/>
<path d="M20 22H18V24H20V22Z" fill="black"/>
<path d="M18 20H12V22H18V20Z" fill="black"/>
<path d="M22 19H12V21H22V19Z" fill="black"/>
<path d="M26 21H22V23H26V21Z" fill="black"/>
<path d="M28 23H26V25H28V23Z" fill="black"/>
<path d="M30 25H28V29H30V25Z" fill="black"/>
<path d="M32 29H30V39H32V29Z" fill="black"/>
<path d="M30 39H28V43H30V39Z" fill="black"/>
<path d="M28 43H26V45H28V43Z" fill="black"/>
<path d="M26 45H22V47H26V45Z" fill="black"/>
<path d="M8 47H12V45H8V47Z" fill="black"/>
<path d="M6 45H8V43H6V45Z" fill="black"/>
<path d="M4 43H6L6 39H4V43Z" fill="black"/>
<path d="M2 39H4L4 29H2L2 39Z" fill="black"/>
<path d="M4 29H6L6 25H4V29Z" fill="black"/>
<path d="M6 25H8V23H6V25Z" fill="black"/>
<path d="M8 23H12V21H8V23Z" fill="black"/>
<path d="M22 47H12V49H22V47Z" fill="black"/>
<path d="M30 29H28V25H26V23H22V21H12V23H8V25H6V29H4V39H6V43H8V45H12V47H22V45H26V43H28V39H30V29Z" fill="#FFC815"/>
<path d="M22 21H12V23H22V21Z" fill="#FFF2B4"/>
<path d="M26 23H22V25H26V23Z" fill="#FFF2B4"/>
<path d="M28 25H26V27H28V25Z" fill="#FFF2B4"/>
<path d="M6 27H8V25H6V27Z" fill="#FFF2B4"/>
<path d="M8 25H12V23H8V25Z" fill="#FFF2B4"/>
<path d="M28 41H26V43H28V41Z" fill="#FF7F0D"/>
<path d="M26 43H22V45H26V43Z" fill="#FF7F0D"/>
<path d="M8 45H12V43H8V45Z" fill="#FF7F0D"/>
<path d="M6 43H8V41H6V43Z" fill="#FF7F0D"/>
<path d="M22 45H12V47H22V45Z" fill="#FF7F0D"/>
<path d="M22 29H14V31H22V29Z" fill="black"/>
<path d="M20 37H12V39H20V37Z" fill="black"/>
<path d="M18 27H16V41H18V27Z" fill="black"/>
<path d="M14 31H12V33H14V31Z" fill="black"/>
<path d="M22 35H20V37H22V35Z" fill="black"/>
<path d="M20 33H14V35H20V33Z" fill="black"/>
<path d="M40 22H38V18H36V16H34V14H30V12H18V14H14V16H12V18H10V22H8V34H10V38H12V40H14V42H18V44H30.1538V41.5385H35.0769V39.0769H37.5385V34H40V22Z" fill="#FFC815"/>
<path d="M30 12H18V14H30V12Z" fill="black"/>
<path d="M34 14H30V16H34V14Z" fill="black"/>
<path d="M36 16H34V18H36V16Z" fill="black"/>
<path d="M38 18H36V22H38V18Z" fill="black"/>
<path d="M40 22H38V34H40V22Z" fill="black"/>
<path d="M38 34H36V38H38V34Z" fill="black"/>
<path d="M38 36H36V38H38V36Z" fill="black"/>
<path d="M33 38H29V40H33V38Z" fill="black"/>
<path d="M14 42H18V40H14V42Z" fill="black"/>
<path d="M12 40H14V38H12V40Z" fill="black"/>
<path d="M10 38H12V34H10V38Z" fill="black"/>
<path d="M8 34H10L10 22H8L8 34Z" fill="black"/>
<path d="M10 22H12V18H10V22Z" fill="black"/>
<path d="M12 18H14V16H12V18Z" fill="black"/>
<path d="M14 16H18V14H14V16Z" fill="black"/>
<path d="M29 42H18V44H29V42Z" fill="black"/>
<path d="M30 14H18V16H30V14Z" fill="#FFF2B4"/>
<path d="M34 16H30V18H34V16Z" fill="#FFF2B4"/>
<path d="M36 18H34V20H36V18Z" fill="#FFF2B4"/>
<path d="M12 20H14V18H12V20Z" fill="#FFF2B4"/>
<path d="M14 18H18V16H14V18Z" fill="#FFF2B4"/>
<path d="M36 36H34V38H36V36Z" fill="#FF7F0D"/>
<path d="M34 38H30V40H34V38Z" fill="#FF7F0D"/>
<path d="M14 40H18V38H14V40Z" fill="#FF7F0D"/>
<path d="M12 38H14V36H12V38Z" fill="#FF7F0D"/>
<path d="M29 40H18V42H29V40Z" fill="#FF7F0D"/>
<path d="M29 23H21V25H29V23Z" fill="black"/>
<path d="M27 31H19V33H27V31Z" fill="black"/>
<path d="M25 21H23V35H25V21Z" fill="black"/>
<path d="M21 25H19V27H21V25Z" fill="black"/>
<path d="M29 29H27V31H29V29Z" fill="black"/>
<path d="M27 27H21V29H27V27Z" fill="black"/>
<path d="M49 28H47V30H49V28Z" fill="black"/>
<path d="M51 30H49V32H51V30Z" fill="black"/>
<path d="M47 30H45V38H47V30Z" fill="black"/>
<path d="M53 32H51V34H53V32Z" fill="black"/>
<path d="M55 34H53V36H55V34Z" fill="black"/>
<path d="M57 36H55V38H57V36Z" fill="black"/>
<path d="M59 38H57V40H59V38Z" fill="black"/>
<path d="M61 40H59V42H61V40Z" fill="black"/>
<path d="M29 40H27V46H29V40Z" fill="black"/>
<path d="M63 42H61V44H63V42Z" fill="black"/>
<path d="M61 44H59V46H61V44Z" fill="black"/>
<path d="M59 46H57V48H59V46Z" fill="black"/>
<path d="M45 38H29V40H45V38Z" fill="black"/>
<path d="M45 46H29V48H45V46Z" fill="black"/>
<path d="M57 48H55V50H57V48Z" fill="black"/>
<path d="M55 50H53V52H55V50Z" fill="black"/>
<path d="M53 52H51V54H53V52Z" fill="black"/>
<path d="M47 48H45V56H47V48Z" fill="black"/>
<path d="M51 54H49V56H51V54Z" fill="black"/>
<path d="M49 56H47V58H49V56Z" fill="black"/>
<path d="M49 30H47V38H45V40H29V46H45V48H47V56H49V54H51V52H53V50H55V48H57V46H59V44H61V42H59V40H57V38H55V36H53V34H51V32H49V30Z" fill="#C81519"/>
<path d="M49 30H47V32H49V30Z" fill="#FF7B82"/>
<path d="M51 32H49V34H51V32Z" fill="#FF7B82"/>
<path d="M53 34H51V36H53V34Z" fill="#FF7B82"/>
<path d="M55 36H53V38H55V36Z" fill="#FF7B82"/>
<path d="M57 38H55V40H57V38Z" fill="#FF7B82"/>
<path d="M47 38H45V40H47V38Z" fill="#FF7B82"/>
<path d="M59 40H57V42H59V40Z" fill="#FF7B82"/>
<path d="M61 42H59V44H61V42Z" fill="#FF7B82"/>
<path d="M45 40H29V42H45V40Z" fill="#FF7B82"/>
<path d="M57 46H55V48H57V46Z" fill="#9F1B1F"/>
<path d="M55 48H53V50H55V48Z" fill="#9F1B1F"/>
<path d="M53 50H51V52H53V50Z" fill="#9F1B1F"/>
<path d="M51 52H49V54H51V52Z" fill="#9F1B1F"/>
<path d="M49 54H47V56H49V54Z" fill="#9F1B1F"/>
</svg>
