<?xml version="1.0" encoding="UTF-8" standalone="no"?><!-- Generator: Gravit.io --><svg xmlns="http://www.w3.org/2000/svg" xmlns:xlink="http://www.w3.org/1999/xlink" style="isolation:isolate" viewBox="0 0 512 512" width="512pt" height="512pt"><defs><clipPath id="_clipPath_fgGKScMxW9KFyn0H25r0HknmSIxSeSK2"><rect width="512" height="512"/></clipPath></defs><g clip-path="url(#_clipPath_fgGKScMxW9KFyn0H25r0HknmSIxSeSK2)"><circle vector-effect="non-scaling-stroke" cx="256" cy="256" r="256" fill="rgb(27,27,29)" /><path d=" M 219.572 128.035 C 214.579 128.035 210.534 132.08 210.534 137.068 L 210.534 200.419 L 377.877 200.419 L 301.67 128.041 L 219.572 128.035 Z  M 384 219.584 C 384 214.585 379.984 210.557 374.962 210.557 L 311.628 210.557 L 311.628 377.906 L 383.971 301.664 L 384 219.584 Z  M 292.439 383.965 C 297.421 383.965 301.466 379.914 301.466 374.915 L 301.466 311.587 L 134.117 311.587 L 210.336 383.953 L 292.439 383.965 Z  M 128 292.428 C 128 297.421 132.045 301.489 137.05 301.489 L 200.372 301.489 L 200.372 134.129 L 128.012 210.348 L 128 292.428 Z " fill-rule="evenodd" fill="rgb(85,0,0)"/></g></svg>