<?xml version="1.0" encoding="UTF-8" standalone="no"?><!-- Generator: Gravit.io --><svg xmlns="http://www.w3.org/2000/svg" xmlns:xlink="http://www.w3.org/1999/xlink" style="isolation:isolate" viewBox="0 0 512 512" width="512pt" height="512pt"><defs><clipPath id="_clipPath_p7P7lIuwVWkfyq4XtgZVUvucqbhY2Q9z"><rect width="512" height="512"/></clipPath></defs><g clip-path="url(#_clipPath_p7P7lIuwVWkfyq4XtgZVUvucqbhY2Q9z)"><rect x="0" y="0" width="512" height="512" transform="matrix(1,0,0,1,0,0)" fill="rgb(27,27,29)"/><path d=" M 376.13 317.078 C 375.08 313.603 370.055 311.153 370.055 311.153 L 370.055 311.153 C 369.58 310.903 369.155 310.678 368.805 310.503 C 360.429 306.453 353.004 301.578 346.753 296.052 C 341.728 291.602 337.428 286.702 333.978 281.501 C 329.752 275.151 327.777 269.851 326.927 266.975 C 326.452 265.1 326.527 264.35 326.927 263.375 C 327.252 262.55 328.227 261.775 328.677 261.4 C 331.502 259.4 336.053 256.45 338.853 254.65 C 341.278 253.075 343.353 251.725 344.578 250.875 C 348.503 248.124 351.204 245.324 352.779 242.299 C 354.829 238.399 355.079 234.099 353.479 229.873 C 351.329 224.173 346.003 220.773 339.228 220.773 C 337.728 220.773 336.178 220.948 334.628 221.273 C 330.752 222.123 327.077 223.498 324.002 224.698 C 323.777 224.798 323.527 224.623 323.552 224.373 C 323.877 216.748 324.252 206.497 323.402 196.772 C 322.652 187.971 320.827 180.546 317.877 174.07 C 314.902 167.57 311.026 162.77 308.001 159.294 C 305.126 155.994 300.051 151.119 292.4 146.744 C 281.65 140.593 269.399 137.468 255.998 137.468 C 242.622 137.468 230.397 140.593 219.621 146.744 C 211.521 151.369 206.345 156.594 203.995 159.294 C 200.97 162.77 197.095 167.57 194.119 174.07 C 191.144 180.546 189.344 187.946 188.594 196.772 C 187.744 206.547 188.094 215.973 188.444 224.373 C 188.444 224.623 188.219 224.798 187.969 224.698 C 184.894 223.498 181.219 222.123 177.343 221.273 C 175.818 220.948 174.268 220.773 172.743 220.773 C 165.993 220.773 160.668 224.173 158.492 229.873 C 156.892 234.099 157.142 238.399 159.192 242.299 C 160.793 245.324 163.468 248.124 167.393 250.875 C 168.593 251.725 170.693 253.075 173.118 254.65 C 175.843 256.425 180.269 259.3 183.119 261.275 C 183.469 261.525 184.669 262.425 185.044 263.375 C 185.444 264.375 185.519 265.125 184.994 267.126 C 184.119 270.026 182.144 275.276 177.994 281.501 C 174.543 286.727 170.243 291.602 165.218 296.052 C 158.968 301.578 151.542 306.453 143.167 310.503 C 142.767 310.703 142.291 310.928 141.792 311.228 L 141.792 311.228 C 141.792 311.228 136.791 313.778 135.841 317.078 C 134.441 321.954 138.166 326.529 141.942 328.979 C 148.142 332.979 155.692 335.13 160.068 336.305 C 161.292 336.63 162.393 336.929 163.393 337.23 C 164.018 337.43 165.593 338.03 166.268 338.905 C 167.118 340.005 167.218 341.355 167.518 342.88 L 167.518 342.88 C 167.993 345.455 169.068 348.63 172.243 350.83 C 175.744 353.231 180.169 353.406 185.794 353.631 C 191.669 353.856 198.97 354.131 207.345 356.906 C 211.22 358.181 214.746 360.356 218.796 362.856 C 227.296 368.082 237.872 374.582 255.923 374.582 C 273.999 374.582 284.65 368.056 293.2 362.806 C 297.25 360.331 300.726 358.181 304.526 356.931 C 312.901 354.156 320.202 353.88 326.077 353.656 C 331.702 353.431 336.128 353.281 339.628 350.855 C 343.028 348.505 344.003 345.005 344.453 342.38 C 344.703 341.08 344.853 339.905 345.603 338.955 C 346.253 338.13 347.703 337.555 348.379 337.33 C 349.403 337.005 350.554 336.705 351.829 336.354 C 356.204 335.179 361.704 333.805 368.38 330.029 C 376.43 325.454 376.98 319.854 376.13 317.078 L 376.13 317.078 Z " fill="rgb(27,27,29)"/><path d=" M 383.081 314.378 C 381.305 309.528 377.905 306.953 374.055 304.803 C 373.33 304.378 372.655 304.028 372.105 303.778 C 370.955 303.178 369.78 302.602 368.605 302.003 C 356.579 295.627 347.178 287.577 340.678 278.051 C 338.478 274.826 336.953 271.926 335.878 269.551 C 335.328 267.951 335.353 267.051 335.753 266.225 C 336.053 265.6 336.853 264.95 337.303 264.626 C 339.378 263.25 341.503 261.875 342.953 260.95 C 345.528 259.275 347.578 257.95 348.878 257.05 C 353.829 253.6 357.279 249.925 359.429 245.824 C 362.479 240.049 362.854 233.449 360.504 227.248 C 357.254 218.648 349.103 213.297 339.253 213.297 C 337.203 213.297 335.128 213.523 333.078 213.972 C 332.528 214.098 332.003 214.222 331.478 214.347 C 331.578 208.497 331.428 202.247 330.902 196.147 C 329.052 174.645 321.527 163.37 313.677 154.394 C 310.401 150.644 304.701 145.168 296.151 140.268 C 284.225 133.418 270.724 129.968 255.998 129.968 C 241.322 129.968 227.821 133.418 215.896 140.243 C 207.295 145.143 201.595 150.644 198.345 154.369 C 190.494 163.345 182.969 174.62 181.119 196.121 C 180.594 202.222 180.469 208.472 180.544 214.323 C 180.019 214.197 179.469 214.073 178.944 213.947 C 176.894 213.498 174.793 213.272 172.768 213.272 C 162.918 213.272 154.767 218.623 151.517 227.223 C 149.167 233.423 149.542 240.024 152.592 245.799 C 154.742 249.9 158.217 253.575 163.143 257.025 C 164.468 257.95 166.493 259.275 169.068 260.925 C 170.468 261.825 172.493 263.15 174.493 264.475 C 174.793 264.675 175.868 265.475 176.243 266.225 C 176.669 267.076 176.669 268.001 176.043 269.701 C 174.993 272.026 173.468 274.876 171.318 278.026 C 164.943 287.352 155.817 295.252 144.192 301.553 C 138.016 304.828 131.616 307.003 128.916 314.353 C 126.866 319.904 128.216 326.229 133.391 331.554 L 133.391 331.554 C 135.091 333.379 137.241 335.004 139.941 336.505 C 146.292 340.005 151.692 341.73 155.942 342.905 C 156.692 343.13 158.417 343.68 159.168 344.355 C 161.068 346.005 160.793 348.505 163.318 352.155 C 164.843 354.431 166.593 355.981 168.043 356.981 C 173.318 360.631 179.269 360.856 185.569 361.106 C 191.244 361.331 197.695 361.581 205.045 364.006 C 208.095 365.006 211.27 366.957 214.921 369.207 C 223.721 374.632 235.797 382.032 255.973 382.032 C 276.174 382.032 288.3 374.582 297.175 369.156 C 300.826 366.931 303.976 364.981 306.926 364.006 C 314.277 361.581 320.727 361.331 326.402 361.106 C 332.703 360.856 338.628 360.631 343.928 356.981 C 345.578 355.831 347.678 353.956 349.329 351.106 C 351.129 348.03 351.104 345.855 352.804 344.38 C 353.504 343.78 355.029 343.255 355.854 343.005 C 360.129 341.83 365.604 340.105 372.08 336.529 C 374.955 334.955 377.18 333.23 378.955 331.254 C 378.98 331.229 379.005 331.204 379.03 331.179 C 383.856 325.929 385.08 319.804 383.081 314.378 L 383.081 314.378 Z  M 365.155 324.004 C 354.204 330.054 346.928 329.404 341.278 333.03 C 336.478 336.13 339.303 342.805 335.828 345.205 C 331.527 348.18 318.852 345.005 302.476 350.405 C 288.975 354.881 280.35 367.707 256.023 367.707 C 231.647 367.707 223.271 354.931 209.57 350.405 C 193.194 345.005 180.494 348.18 176.218 345.205 C 172.743 342.805 175.568 336.13 170.768 333.03 C 165.118 329.379 157.842 330.029 146.892 324.004 C 139.916 320.154 143.867 317.779 146.192 316.654 C 185.844 297.477 192.144 267.826 192.444 265.6 C 192.794 262.95 193.169 260.85 190.244 258.125 C 187.419 255.5 174.843 247.724 171.368 245.299 C 165.593 241.274 163.068 237.249 164.943 232.298 C 166.243 228.873 169.443 227.598 172.818 227.598 C 173.868 227.598 174.944 227.723 175.968 227.948 C 182.294 229.323 188.444 232.498 191.994 233.349 C 192.495 233.474 192.919 233.524 193.294 233.524 C 195.195 233.524 195.845 232.574 195.72 230.398 C 195.32 223.473 194.319 209.972 195.419 197.347 C 196.92 179.996 202.52 171.395 209.17 163.77 C 212.37 160.119 227.372 144.268 256.048 144.268 C 284.8 144.268 299.726 160.119 302.926 163.77 C 309.576 171.37 315.177 179.971 316.677 197.347 C 317.777 209.972 316.827 223.473 316.377 230.398 C 316.227 232.673 316.927 233.524 318.802 233.524 C 319.177 233.524 319.627 233.474 320.102 233.349 C 323.652 232.498 329.802 229.323 336.128 227.948 C 337.153 227.723 338.228 227.598 339.278 227.598 C 342.653 227.598 345.853 228.898 347.153 232.298 C 349.028 237.249 346.478 241.274 340.728 245.299 C 337.253 247.724 324.677 255.5 321.852 258.125 C 318.927 260.825 319.302 262.925 319.652 265.6 C 319.927 267.826 326.252 297.477 365.905 316.654 C 368.155 317.779 372.13 320.154 365.155 324.004 L 365.155 324.004 Z " fill="rgb(237,29,36)"/></g></svg>