<?xml version="1.0" encoding="UTF-8" standalone="no"?><!-- Generator: Gravit.io --><svg xmlns="http://www.w3.org/2000/svg" xmlns:xlink="http://www.w3.org/1999/xlink" style="isolation:isolate" viewBox="0 0 512 512" width="512pt" height="512pt"><defs><clipPath id="_clipPath_1Dnid95TGoRuTUzNqSZ8s3CN0zAd6e0r"><rect width="512" height="512"/></clipPath></defs><g clip-path="url(#_clipPath_1Dnid95TGoRuTUzNqSZ8s3CN0zAd6e0r)"><circle vector-effect="non-scaling-stroke" cx="256" cy="256" r="256" fill="rgb(27,27,29)" /><path d=" M 357.393 189.411 L 363.389 174.675 C 363.389 174.675 355.757 166.487 346.49 157.209 C 337.223 147.93 317.599 153.388 317.599 153.388 L 295.249 128 L 256 128 L 216.751 128 L 194.401 153.388 C 194.401 153.388 174.777 147.93 165.51 157.209 C 156.243 166.487 148.611 174.675 148.611 174.675 L 154.607 189.411 L 146.975 211.243 C 146.975 211.243 169.421 296.364 172.051 306.759 C 177.23 327.227 180.773 335.141 195.491 345.511 C 210.21 355.882 236.921 373.893 241.282 376.622 C 245.643 379.351 251.094 384 256 384 C 260.906 384 266.357 379.351 270.718 376.622 C 275.079 373.893 301.79 355.882 316.509 345.511 C 331.227 335.141 334.77 327.227 339.949 306.759 C 342.579 296.364 365.025 211.243 365.025 211.243 L 357.393 189.411 Z  M 311.33 169.489 C 311.33 169.489 340.078 204.284 340.078 211.721 C 340.078 219.158 336.461 221.12 332.825 224.986 C 329.189 228.852 313.309 245.736 311.27 247.904 C 309.231 250.073 304.985 253.36 307.482 259.277 C 309.98 265.194 313.664 272.723 309.567 280.36 C 305.47 287.997 298.451 293.095 293.954 292.252 C 289.457 291.409 278.895 285.882 275.011 283.358 C 271.127 280.834 258.817 270.669 258.817 266.779 C 258.817 262.89 271.542 255.907 273.893 254.321 C 276.244 252.734 286.967 246.594 287.186 244.183 C 287.406 241.772 287.322 241.066 284.158 235.11 C 280.993 229.153 275.295 221.205 276.243 215.917 C 277.192 210.629 286.382 207.88 292.941 205.4 C 299.499 202.92 312.127 198.236 313.704 197.508 C 315.282 196.78 314.874 196.086 310.095 195.632 C 305.317 195.179 291.757 193.377 285.643 195.083 C 279.53 196.789 269.085 199.385 268.239 200.761 C 267.393 202.138 266.647 202.184 267.516 206.933 C 268.384 211.681 272.857 234.466 273.291 238.513 C 273.726 242.561 274.575 245.236 270.217 246.234 C 265.858 247.232 258.521 248.964 256 248.964 C 253.479 248.964 246.141 247.232 241.783 246.234 C 237.424 245.236 238.274 242.561 238.708 238.513 C 239.143 234.466 243.615 211.681 244.484 206.933 C 245.353 202.184 244.606 202.138 243.761 200.761 C 242.915 199.385 232.47 196.789 226.356 195.083 C 220.243 193.377 206.683 195.179 201.904 195.632 C 197.126 196.086 196.718 196.78 198.295 197.508 C 199.873 198.236 212.501 202.92 219.059 205.4 C 225.617 207.88 234.808 210.629 235.757 215.917 C 236.705 221.205 231.006 229.153 227.842 235.11 C 224.678 241.066 224.594 241.772 224.814 244.183 C 225.033 246.594 235.756 252.734 238.107 254.321 C 240.458 255.907 253.182 262.89 253.182 266.779 C 253.182 270.669 240.873 280.834 236.989 283.358 C 233.105 285.882 222.543 291.409 218.046 292.252 C 213.549 293.095 206.53 287.997 202.433 280.36 C 198.336 272.723 202.02 265.194 204.517 259.277 C 207.014 253.36 202.769 250.073 200.729 247.904 C 198.691 245.736 182.81 228.852 179.174 224.986 C 175.538 221.12 171.922 219.158 171.922 211.721 C 171.922 204.284 200.67 169.489 200.67 169.489 C 200.67 169.489 224.928 174.129 228.199 174.129 C 231.469 174.129 238.556 171.4 245.098 169.216 C 251.639 167.033 256 167.017 256 167.017 C 256 167.017 260.361 167.033 266.902 169.216 C 273.444 171.4 280.531 174.129 283.801 174.129 C 287.072 174.129 311.33 169.489 311.33 169.489 Z  M 289.779 302.587 C 291.558 303.703 290.473 305.806 288.852 306.953 C 287.231 308.101 265.447 324.99 263.333 326.857 C 261.219 328.724 258.112 331.807 256 331.807 C 253.888 331.807 250.78 328.724 248.666 326.857 C 246.552 324.99 224.769 308.101 223.148 306.953 C 221.526 305.806 220.442 303.703 222.221 302.587 C 224.001 301.472 229.568 298.658 237.25 294.677 C 244.932 290.697 254.506 287.313 256 287.313 C 257.494 287.313 267.068 290.697 274.75 294.677 C 282.432 298.658 287.999 301.472 289.779 302.587 Z " fill-rule="evenodd" fill="rgb(0,103,79)"/></g></svg>