<?xml version="1.0" encoding="UTF-8" standalone="no"?><!-- Generator: Gravit.io --><svg xmlns="http://www.w3.org/2000/svg" xmlns:xlink="http://www.w3.org/1999/xlink" style="isolation:isolate" viewBox="0 0 512 512" width="512pt" height="512pt"><defs><clipPath id="_clipPath_Ru7uzMx5SBQ5azThdUJwN9Asv2PBbLc3"><rect width="512" height="512"/></clipPath></defs><g clip-path="url(#_clipPath_Ru7uzMx5SBQ5azThdUJwN9Asv2PBbLc3)"><path d="M 477.714 383.995 L 256.005 512 L 34.286 383.995 L 34.286 127.985 L 256.005 0 L 477.714 127.985 L 477.714 383.995 Z" fill-rule="evenodd" fill="rgb(17,17,132)" /><path d=" M 214.745 329.725 C 213.708 329.575 212.669 329.99 212.022 330.815 C 210.231 332.886 209.363 335.598 209.618 338.324 L 209.618 338.322 C 209.633 338.966 209.758 339.603 209.99 340.204 C 210.308 341.172 211.081 341.922 212.057 342.212 C 213.127 342.255 214.14 341.729 214.72 340.83 C 216.713 338.224 217.384 334.841 216.536 331.672 C 216.329 330.75 215.647 330.008 214.745 329.725 M 278.392 357.514 C 278.841 355.72 278.61 353.822 277.744 352.188 C 277.006 350.86 275.749 349.9 274.274 349.536 L 272.707 349.206 C 271.282 348.918 269.127 348.481 265.901 347.676 C 261.582 346.596 257.876 348.575 255.83 352.986 C 257.934 353.597 260.006 354.164 262.026 354.675 C 262.215 353.791 262.348 352.896 262.421 351.994 C 262.463 351.314 263.048 350.796 263.728 350.835 C 264.409 350.875 264.929 351.458 264.892 352.139 C 264.809 353.189 264.655 354.232 264.432 355.262 C 264.832 355.355 265.23 355.449 265.625 355.539 C 266.03 355.63 266.429 355.719 266.82 355.802 C 267.174 354.063 267.398 352.585 267.404 352.556 C 267.508 351.882 268.138 351.418 268.813 351.521 C 269.487 351.623 269.952 352.253 269.851 352.927 C 269.832 353.046 269.605 354.526 269.24 356.299 C 270.071 356.46 270.855 356.603 271.6 356.728 C 271.767 355.831 271.882 354.926 271.943 354.016 C 271.976 353.334 272.555 352.807 273.237 352.84 C 273.919 352.872 274.446 353.452 274.413 354.134 C 274.352 355.129 274.231 356.12 274.05 357.101 C 275.762 357.333 277.201 357.46 278.392 357.514 M 255.482 360.538 C 256.242 362.243 257.642 363.581 259.38 364.262 C 262.494 365.152 265.679 365.775 268.899 366.126 C 272.822 366.559 275.889 364.375 277.641 359.96 C 276.328 359.885 274.92 359.733 273.468 359.529 C 273.205 360.418 272.846 361.277 272.397 362.088 C 272.058 362.68 271.305 362.885 270.712 362.548 C 270.12 362.21 269.913 361.457 270.248 360.864 C 270.552 360.315 270.802 359.738 270.993 359.14 C 270.228 359.009 269.458 358.865 268.691 358.715 C 268.467 359.646 268.174 360.559 267.812 361.445 C 267.636 361.852 267.256 362.133 266.816 362.183 C 266.376 362.233 265.943 362.044 265.68 361.687 C 265.418 361.33 265.366 360.86 265.544 360.455 C 265.84 359.727 266.082 358.979 266.268 358.216 C 265.87 358.126 265.47 358.039 265.078 357.951 C 264.66 357.856 264.237 357.756 263.813 357.657 C 263.582 358.408 263.312 359.147 263.006 359.871 C 262.835 360.279 262.459 360.564 262.021 360.619 C 261.582 360.674 261.148 360.49 260.881 360.138 C 260.615 359.785 260.558 359.316 260.731 358.91 C 260.993 358.287 261.215 357.665 261.404 357.068 C 259.32 356.54 257.179 355.953 255.008 355.32 C 254.572 357.063 254.739 358.902 255.482 360.538 Z  M 283 329.037 C 281.13 324.129 274.871 320.653 266.624 318.786 C 251.386 315.34 231.363 321.032 218.623 331.749 C 219.089 333.877 218.98 336.091 218.309 338.164 C 229.564 343.926 241.322 348.649 253.436 352.275 C 256.398 345.468 262.076 344.17 266.501 345.276 C 269.671 346.068 271.71 346.481 273.2 346.782 L 274.837 347.129 C 276.983 347.65 278.815 349.039 279.895 350.965 C 280.985 352.964 281.343 355.282 280.905 357.517 C 281.766 357.572 282.624 357.378 283.378 356.959 C 286.535 347.896 286.401 338.011 283 329.037 M 268.627 368.583 C 265.224 368.215 261.86 367.55 258.572 366.598 C 256.198 365.7 254.279 363.894 253.237 361.58 C 252.675 360.368 252.359 359.057 252.307 357.722 C 252.269 356.675 252.379 355.628 252.633 354.611 C 240.473 350.959 228.666 346.22 217.354 340.453 C 217.036 341.04 216.66 341.593 216.233 342.106 C 215.615 342.867 214.829 343.474 213.936 343.878 C 214.827 351.695 217.512 359.201 221.781 365.81 C 227.457 374.577 235.189 380.585 243.542 382.474 C 246.503 383.143 250.374 383.976 253.834 383.208 C 266.497 380.381 277.055 371.687 282.259 359.802 C 281.599 359.911 280.932 359.976 280.263 359.995 C 277.333 368.566 271.173 368.865 268.627 368.583 M 208.998 332.406 C 209.395 331.477 209.924 330.61 210.568 329.831 C 211.026 329.278 211.568 328.8 212.175 328.417 C 213.515 321.64 216.734 315.377 221.466 310.344 C 214.514 315.284 209.285 322.278 206.512 330.343 C 207.25 331.133 208.085 331.826 208.998 332.406 Z  M 208.212 334.807 C 207.347 334.209 206.523 333.554 205.746 332.845 C 204.657 336.859 204.192 341.016 204.365 345.17 C 204.401 346.029 204.462 346.884 204.549 347.729 C 205.292 344.936 206.494 342.286 208.107 339.887 C 207.784 338.205 207.82 336.474 208.212 334.807 Z  M 211.47 344.107 C 210.543 343.861 209.737 343.287 209.201 342.493 C 206.169 347.166 204.893 351.344 206.006 355.097 C 210.742 371 224.658 382.436 241.178 384 C 225.285 379.174 213.526 362.616 211.47 344.107 M 231.039 151.507 C 231.052 149.434 230.822 147.367 230.353 145.348 C 230.353 145.348 234.009 145.156 234.009 140.704 C 234.009 137.037 231.562 134.534 230.905 134.534 C 230.375 134.534 230.246 135.095 229.099 135.095 C 226.304 135.095 226.099 131.526 226.099 131.526 Q 226.719 131.503 227.374 131.504 C 235.374 131.504 242.776 133.928 242.776 151.507 C 242.708 157.32 242.321 163.125 241.617 168.896 C 240.996 173.639 240.698 178.418 240.728 183.201 C 240.728 183.201 226.798 181.561 226.798 171.082 C 226.798 164.278 231.039 162.623 231.039 151.507 Z  M 253.192 267.628 C 253.192 281.385 247.325 292.571 243.934 295.962 C 233.43 306.467 224.761 298.817 224.668 309.359 C 219.901 313.676 216.472 320.24 214.79 327.738 C 214.894 327.747 214.997 327.761 215.1 327.781 C 216.109 327.979 217.001 328.565 217.582 329.414 C 230.925 318.539 251.469 312.823 267.171 316.373 C 271.734 317.235 276.009 319.226 279.605 322.165 C 274.752 314.317 267.383 308.344 258.7 305.222 C 256.63 304.481 252.954 303.631 252.954 296.921 C 252.954 284.396 266.657 294.134 275.683 280.491 C 276.127 279.821 275.489 279.23 274.96 279.759 C 272.228 282.489 265.523 284.366 261.974 284.366 C 260.303 284.497 258.626 284.219 257.087 283.558 C 259.287 279.262 261.803 275.134 264.614 271.209 C 256.235 262.828 270.339 216.749 307.665 216.749 C 307.748 208.275 306.909 199.816 305.163 191.523 C 304.275 191.738 297.243 193.397 296.922 191.917 C 296.639 190.609 302.101 187.769 303.981 186.836 C 303.143 183.571 301.914 180.42 300.321 177.45 C 268.329 187.531 274.758 214.018 266.965 214.018 C 261.892 214.018 257.908 210.068 256.485 208.645 C 237.377 189.54 246.281 176.897 246.281 151.507 C 246.281 134.404 239.639 128 227.374 128 C 215.107 128 210.727 133.309 210.727 133.309 C 210.727 133.309 227.534 133.853 227.534 151.507 C 227.534 169.987 206.721 175.088 206.721 198.532 C 206.721 237.559 253.192 236.827 253.192 267.628 Z " fill="rgb(255,255,255)"/></g></svg>