<?xml version="1.0" encoding="UTF-8" standalone="no"?><!-- Generator: Gravit.io --><svg xmlns="http://www.w3.org/2000/svg" xmlns:xlink="http://www.w3.org/1999/xlink" style="isolation:isolate" viewBox="0 0 512 512" width="512pt" height="512pt"><defs><clipPath id="_clipPath_DPQRK7oYqh9tiB6fz5V14yH9xaII3jIz"><rect width="512" height="512"/></clipPath></defs><g clip-path="url(#_clipPath_DPQRK7oYqh9tiB6fz5V14yH9xaII3jIz)"><rect x="0" y="0" width="512" height="512" transform="matrix(1,0,0,1,0,0)" fill="rgb(27,27,29)"/><path d=" M 333.54 245.132 C 327.944 249.718 323.2 252.274 323.2 252.274 L 323.265 266.811 C 327.265 271.165 331.211 274.773 334.166 281.347 C 339.772 271.502 338.694 257.029 333.54 245.132 M 328.99 292.718 C 328.99 292.718 327.847 286.722 322.984 281.126 L 311.89 281.389 C 311.89 281.389 296.935 293.927 287.813 294.222 C 287.813 294.222 292.837 303.341 295.382 308.106 C 300.396 307.033 309.226 303.173 312.784 299.134 C 312.784 299.134 315.135 306.528 314.693 315.259 C 319.685 312.44 326.564 304.782 328.99 292.718 M 314.693 266.464 L 314.672 251.98 C 314.672 251.98 308.041 249.908 300.968 244.554 C 286.757 246.647 269.549 260.595 269.549 260.595 C 269.549 260.595 275.36 271.355 281.722 282.967 C 292.903 284.492 309.378 270.713 314.694 266.464 M 352.593 326.776 L 343.45 316.899 C 340.841 343.595 327.438 366.262 302.822 382.071 L 299.059 367.672 C 278.164 382.397 242.302 391.948 211.497 374.95 C 215.325 355.912 218.721 336.621 211.432 313.523 C 194.375 339.293 179.28 349.391 179.28 349.391 C 167.754 330.51 168.789 292.634 172.228 281.484 L 153.047 287.28 C 153.047 274.552 162.438 247.552 176.045 232.384 L 164.066 230.512 L 164.054 230.512 C 172.195 214.282 184.346 200.293 199.215 189.785 L 199.236 189.773 C 194.772 196.652 194.707 213.629 207.786 220.087 C 202.233 210.589 201.565 198.85 207.366 192.771 C 213.167 186.639 222.924 188.742 229.157 193.497 C 227.302 188.195 221.868 181.527 213.727 181.074 L 213.715 181.074 C 229.091 173.354 246.547 169.01 265.017 169.01 C 268.467 169.01 271.907 169.157 275.271 169.452 L 275.271 169.452 C 280.64 171.555 288.522 178.939 292.199 183.536 C 292.199 183.536 292.458 178.119 289.374 171.576 C 309.375 176.331 318.917 184.272 322.917 188.101 C 323.737 196.536 326.325 201.596 329.743 209.611 C 323.263 202.532 306.981 191.109 299.207 188.374 C 299.207 188.374 298.571 195.684 295.897 199.198 C 280.414 188.301 272.813 185.555 272.813 185.555 C 255.82 187.932 244.887 194.328 238.946 199.355 L 244.121 203.657 C 233.878 206.729 227.225 215.312 227.225 215.312 C 227.301 215.47 236.38 216.732 236.38 216.732 C 236.38 216.732 235.452 227.134 248.801 233.656 C 260.241 239.241 276.683 232.309 292.167 238.368 C 281.988 226.903 274.947 221.78 274.947 221.78 C 274.947 221.78 270.904 220.96 268.058 220.981 C 264.5 221.002 259.195 221.686 253.383 219.477 C 250.601 218.415 247.356 216.542 244.811 214.986 C 244.811 214.986 251.96 207.823 262.408 206.245 C 262.408 206.245 271.831 208.832 279.293 214.218 C 284.253 209.506 289.428 209.653 289.428 209.653 C 289.428 209.653 284.296 214.323 285.848 219.982 C 293.299 226.461 301.385 235.738 301.385 235.738 C 309.623 231.342 327.532 232.351 331.209 236.517 C 326.551 230.616 319.834 225.693 314.637 221.486 C 314.001 219.277 308.329 211.578 307.37 210.862 C 307.37 210.862 312.761 212.482 317.58 216.7 C 318.96 214.775 321.548 212.819 325.074 211.956 C 328.697 214.923 329.344 219.477 329.247 220.234 C 327.619 222.138 326.001 222.916 326.001 222.916 L 334.735 232.141 L 335.608 225.525 C 355.728 253.556 366.693 285.995 352.59 326.775 M 193.704 149.373 C 205.305 154.559 212.756 161.101 214.114 162.101 C 213.5 159.176 211.214 145.103 209.898 136.362 C 216.659 140.938 232.347 151.561 237.512 155.011 C 239.614 148.69 246.903 128.042 246.903 128.042 C 246.903 128.042 260.079 148.847 262.332 152.224 C 265.082 149.415 280.824 132.323 284.899 128 C 285.579 137.835 286.506 151.898 286.743 154.012 C 287.53 152.971 293.558 144.724 303.66 137.13 C 299.283 145.545 297.191 157.157 296.264 166.487 C 286.323 163.783 275.832 162.332 265.028 162.332 C 244.272 162.332 224.778 167.654 207.925 177.005 C 204.863 167.991 200.065 156.778 193.704 149.373 Z " fill="rgb(85,0,0)"/></g></svg>