<?xml version="1.0" encoding="UTF-8" standalone="no"?><!-- Generator: Gravit.io --><svg xmlns="http://www.w3.org/2000/svg" xmlns:xlink="http://www.w3.org/1999/xlink" style="isolation:isolate" viewBox="0 0 512 512" width="512pt" height="512pt"><defs><clipPath id="_clipPath_D5K9iaAalunrc3LO06oTFmGeJspXhaG1"><rect width="512" height="512"/></clipPath></defs><g clip-path="url(#_clipPath_D5K9iaAalunrc3LO06oTFmGeJspXhaG1)"><rect width="512" height="512" style="fill:rgb(17,17,132)"/><path d=" M 128 256.001 C 128 326.828 185.6 384.001 256 384.001 L 256 384.001 C 326.827 384.001 384 326.401 384 256.001 L 384 256.001 C 384 185.175 326.4 128.001 256 128.001 L 256 128.001 C 185.6 127.575 128 185.175 128 256.001 Z  M 233.813 305.068 C 220.373 305.068 207.147 300.588 196.693 291.841 C 184.107 280.961 176.64 266.241 175.573 250.241 C 174.72 234.668 179.84 219.735 190.507 208.001 C 202.453 194.988 223.573 174.508 224.64 173.655 C 230.4 168.108 239.573 168.321 245.12 174.081 C 250.667 179.841 250.453 189.015 244.693 194.561 C 244.48 194.775 223.147 215.041 212.053 227.415 C 206.72 233.175 204.16 240.641 204.587 248.321 C 205.013 256.428 209.067 264.108 215.68 269.868 C 224.427 277.548 241.707 279.041 252.587 269.441 C 258.987 263.681 266.88 255.148 266.88 255.148 C 272.213 249.175 281.387 248.961 287.36 254.295 C 293.333 259.628 293.547 268.801 288.213 274.775 C 287.787 275.201 279.467 284.375 271.787 290.988 C 261.547 300.375 247.68 305.068 233.813 305.068 Z  M 321.28 304.001 C 309.333 317.015 288 337.495 287.147 338.348 C 284.373 340.908 280.747 342.401 277.12 342.401 C 273.28 342.401 269.44 340.908 266.667 337.921 C 261.12 332.161 261.333 322.988 267.093 317.441 C 267.307 317.228 288.64 296.961 299.733 284.588 C 305.067 278.828 307.627 271.361 307.2 263.681 C 306.773 255.575 302.72 247.895 296.107 242.135 C 287.36 234.668 270.08 232.961 259.2 242.561 C 252.8 248.321 244.907 256.855 244.907 256.855 C 239.573 262.828 230.4 263.041 224.427 257.708 C 218.453 252.375 218.24 243.201 223.573 237.228 C 224 236.801 232.32 227.628 240 221.015 C 260.48 202.668 294.4 202.241 315.093 220.161 C 327.68 231.041 335.147 245.761 336.213 261.761 C 337.28 277.548 331.947 292.481 321.28 304.001 Z " fill-rule="evenodd" fill="rgb(255,255,255)"/></g></svg>