<?xml version="1.0" encoding="UTF-8" standalone="no"?><!-- Generator: Gravit.io --><svg xmlns="http://www.w3.org/2000/svg" xmlns:xlink="http://www.w3.org/1999/xlink" style="isolation:isolate" viewBox="0 0 512 512" width="512pt" height="512pt"><defs><clipPath id="_clipPath_cR60Hg8wHMOxMWMRj7QH6yXlG40QvExL"><rect width="512" height="512"/></clipPath></defs><g clip-path="url(#_clipPath_cR60Hg8wHMOxMWMRj7QH6yXlG40QvExL)"><circle vector-effect="non-scaling-stroke" cx="256" cy="256" r="256" fill="rgb(239,191,4)" /><path d=" M 201.012 152.294 C 215.567 145.842 231.135 141.315 247.099 140.468 C 273.032 138.559 299.465 144.761 321.735 158.212 C 344.766 171.964 363.303 193.112 373.782 217.826 C 376.157 223.32 378.025 229.013 379.779 234.74 C 376.866 233.03 373.99 231.233 370.777 230.153 C 360.583 226.438 349.397 226.749 339.28 222.775 C 334.953 221.091 330.97 218.568 327.507 215.484 C 316.889 205.948 308.078 194.596 297.358 185.172 C 290.394 178.745 282.801 172.914 274.397 168.491 C 261.361 161.787 246.304 158.92 231.731 160.613 C 227.178 161.113 222.367 162.772 217.901 161.036 C 214.756 159.075 213.254 155.274 209.962 153.452 C 207.284 151.785 204.001 152.286 201.012 152.294 M 138.651 216.988 C 147.73 196.014 162.606 177.562 181.204 164.268 C 179.45 166.738 177.325 169.295 177.385 172.499 C 177.057 176.698 180.901 180.862 178.345 184.887 C 175.373 189.595 171.054 193.267 167.918 197.862 C 159.763 208.963 155.392 222.576 154.753 236.286 C 153.889 249.676 155.893 263.074 158.977 276.075 C 161.491 285.863 163.885 295.702 165.205 305.731 C 171.184 301.05 176.945 296.108 183.122 291.685 C 191.951 285.024 201.41 279.271 210.801 273.457 C 220.64 267.558 230.625 261.831 241.156 257.252 C 243.678 256.077 246.399 255.395 249.172 255.161 C 246.122 259.352 241.242 261.502 237.001 264.232 C 221.174 273.656 205.746 283.893 191.803 295.969 C 180.314 306.362 169.171 317.411 160.756 330.506 C 155.514 338.886 150.623 348.76 152.542 358.918 C 153.717 365.968 160.688 369.596 166.769 371.807 C 154.39 371.626 141.977 372.239 129.624 371.478 C 128.906 369.984 127.852 368.516 128.017 366.778 C 128.104 334.833 128.051 302.888 128.042 270.943 C 127.74 252.484 131.213 233.919 138.651 216.988 M 341.863 258.963 C 346.476 258.479 351.565 258.263 355.651 260.847 C 358.224 262.315 358.501 265.632 358.474 268.284 C 358.57 272.991 356.566 277.381 354.294 281.389 C 349.378 289.741 342.511 296.714 335.376 303.184 C 322.66 314.387 308.485 323.829 293.825 332.303 C 274.319 344.052 252.835 352.414 230.642 357.459 C 219.646 359.808 208.356 361.641 197.091 360.639 C 193.868 360.206 190.067 359.705 188.029 356.872 C 186.439 352.57 189.247 348.268 191.484 344.752 C 198.888 334.204 208.779 325.73 218.782 317.73 C 243.877 298.225 272.115 283.038 301.357 270.754 C 314.41 265.511 327.825 260.682 341.863 258.963 Z  M 212.666 332.597 C 221.088 340.951 234.158 343.94 245.363 340.078 C 253.732 337.175 260.807 330.705 264.229 322.507 C 267.927 314.171 267.494 304.289 263.65 296.074 C 245.302 306.164 227.618 317.851 212.666 332.597 M 341.379 311.718 C 358.631 297.326 375.303 280.731 383.717 259.473 C 384.064 265.001 384.002 270.546 383.985 276.083 C 383.958 306.638 384.029 337.193 383.958 367.747 C 384.131 370.287 381.661 372.144 379.251 371.807 C 325.545 371.756 271.832 371.946 218.125 371.712 C 244.387 366.564 269.473 356.353 292.78 343.344 C 309.953 334.412 326.34 323.916 341.379 311.718" fill-rule="evenodd" fill="rgb(255,255,255)"/></g></svg>