<?xml version="1.0" encoding="UTF-8" standalone="no"?><!-- Generator: Gravit.io --><svg xmlns="http://www.w3.org/2000/svg" xmlns:xlink="http://www.w3.org/1999/xlink" style="isolation:isolate" viewBox="0 0 512 512" width="512pt" height="512pt"><defs><clipPath id="_clipPath_mDwAY5rjdc6pmvPF1fLXUChGvoB3hk3d"><rect width="512" height="512"/></clipPath></defs><g clip-path="url(#_clipPath_mDwAY5rjdc6pmvPF1fLXUChGvoB3hk3d)"><path d="M 477.714 383.995 L 256.005 512 L 34.286 383.995 L 34.286 127.985 L 256.005 0 L 477.714 127.985 L 477.714 383.995 Z" fill-rule="evenodd" fill="rgb(237,29,36)" /><path d=" M 128 145.616 L 158.016 197.456 L 188.225 145.616 L 128 145.616 Z  M 291.584 239.6 L 255.968 300.752 L 250.592 291.472 L 316.257 178.8 L 327.041 178.8 L 296.993 230.352 L 334.88 230.352 L 384 145.616 C 384 145.616 321.185 145.616 310.881 145.616 C 297.536 145.616 289.696 158.032 289.696 158.032 C 289.696 158.032 219.775 278.096 219.712 278.096 C 216.128 285.328 216.128 297.104 219.775 303.888 C 219.84 304.016 256 366.384 256 366.384 L 329.537 239.536 L 291.584 239.536 L 291.584 239.6 Z  M 192.96 221.2 L 242.08 221.2 L 261.473 187.888 L 212.32 187.888 L 217.728 178.608 L 266.881 178.608 L 286.113 145.616 C 286.113 145.616 226.432 145.616 213.664 145.616 C 199.84 145.616 191.744 158.096 191.744 158.096 L 163.392 206.736 L 182.336 239.408 L 192.96 221.2 Z " fill-rule="evenodd" fill="rgb(239,191,4)"/></g></svg>