<?xml version="1.0" encoding="UTF-8" standalone="no"?><!-- Generator: Gravit.io --><svg xmlns="http://www.w3.org/2000/svg" xmlns:xlink="http://www.w3.org/1999/xlink" style="isolation:isolate" viewBox="0 0 512 512" width="512pt" height="512pt"><defs><clipPath id="_clipPath_pV6II6ebKUSZHv6F4nwlnNow6XsWZxck"><rect width="512" height="512"/></clipPath></defs><g clip-path="url(#_clipPath_pV6II6ebKUSZHv6F4nwlnNow6XsWZxck)"><circle vector-effect="non-scaling-stroke" cx="256" cy="256" r="256" fill="rgb(237,29,36)" /><path d=" M 260.207 308.883 C 260.207 300.469 263.812 299.268 272.225 304.075 C 286.648 312.488 301.07 319.7 301.07 319.7 C 301.07 314.892 305.878 311.286 314.291 313.69 C 322.704 316.094 331.117 317.296 331.117 317.296 C 331.117 317.296 326.31 306.479 323.906 301.671 C 320.3 293.258 323.906 288.451 327.512 287.249 C 327.512 287.249 322.704 283.643 319.099 281.239 C 311.887 276.432 313.089 270.423 320.3 268.019 C 329.915 263.211 343.136 258.404 343.136 258.404 C 339.531 256 334.723 249.991 339.531 241.577 C 344.338 234.366 352.751 223.549 352.751 223.549 C 352.751 223.549 339.531 223.549 329.915 223.549 C 321.502 223.549 319.099 216.338 319.099 211.531 C 319.099 211.531 305.878 221.146 296.263 227.155 C 287.85 233.164 280.638 227.155 281.84 217.54 C 284.244 203.117 285.446 186.291 285.446 186.291 C 280.638 191.099 272.225 189.897 267.418 182.685 C 261.408 170.667 255.399 156.244 255.399 156.244 C 255.399 156.244 249.39 170.667 243.38 182.685 C 239.775 189.897 231.362 191.099 226.554 187.493 C 226.554 187.493 227.756 204.319 230.16 218.742 C 231.362 227.155 224.15 233.164 215.737 227.155 C 206.122 221.146 191.7 211.531 191.7 211.531 C 191.7 216.338 189.296 222.347 180.883 223.549 C 171.268 223.549 158.047 223.549 158.047 223.549 C 158.047 223.549 166.46 234.366 171.268 241.577 C 176.075 248.789 171.268 256 167.662 258.404 C 167.662 258.404 179.681 264.413 190.498 268.019 C 197.709 271.624 200.113 276.432 191.7 281.239 C 189.296 283.643 183.286 287.249 183.286 287.249 C 188.094 288.451 191.7 293.258 188.094 301.671 C 185.69 306.479 180.883 317.296 180.883 317.296 C 180.883 317.296 189.296 314.892 197.709 313.69 C 206.122 311.286 209.728 316.094 210.93 319.7 C 210.93 319.7 225.352 311.286 239.775 304.075 C 246.986 299.268 251.793 301.671 251.793 308.883 L 251.793 329.315 C 251.793 341.333 249.39 353.352 245.784 360.563 C 191.7 354.554 146.028 311.286 146.028 253.596 C 146.028 194.704 195.305 146.629 256.601 146.629 C 317.897 146.629 367.174 194.704 367.174 253.596 C 367.174 308.883 323.906 354.554 268.62 360.563 L 268.62 374.986 C 333.521 368.977 384 317.296 384 253.596 C 384 185.089 326.31 131.005 255.399 131.005 C 185.69 131.005 128 185.089 128 252.394 C 128 311.286 172.469 360.563 231.362 371.38 C 240.977 373.784 246.986 374.986 252.995 380.995 C 259.005 368.977 260.207 344.939 260.207 331.718 L 260.207 308.883 Z " fill="rgb(255,255,255)"/></g></svg>