<?xml version="1.0" encoding="UTF-8" standalone="no"?><!-- Generator: Gravit.io --><svg xmlns="http://www.w3.org/2000/svg" xmlns:xlink="http://www.w3.org/1999/xlink" style="isolation:isolate" viewBox="0 0 512 512" width="512pt" height="512pt"><defs><clipPath id="_clipPath_97owrHGsFX1vuR3958IwHd37xABnxflJ"><rect width="512" height="512"/></clipPath></defs><g clip-path="url(#_clipPath_97owrHGsFX1vuR3958IwHd37xABnxflJ)"><circle vector-effect="non-scaling-stroke" cx="256" cy="256" r="256" fill="rgb(27,27,29)" /><path d=" M 256.942 208.731 C 252.224 209.279 248.625 213.111 248.291 217.944 C 248.146 220.026 248.192 220.167 252.911 232.312 C 263.649 259.945 266.251 266.595 266.688 267.531 C 267.748 269.798 269.239 271.931 271.101 273.845 C 272.53 275.313 273.473 276.103 275.067 277.168 C 277.868 279.039 279.258 279.556 290.16 282.784 C 300.779 285.928 306.58 288.018 311.579 290.499 C 318.056 293.714 322.575 297.37 325.433 301.709 C 327.484 304.822 329.3 310.404 330.09 316.023 C 330.399 318.22 330.401 323.075 330.094 325.061 C 329.427 329.371 328.095 332.982 326.058 336.004 C 324.975 337.612 325.352 337.343 326.927 335.384 C 331.385 329.841 335.926 320.368 338.243 311.777 C 341.048 301.381 341.429 290.216 339.341 279.65 C 335.275 259.072 322.285 241.314 303.989 231.322 C 302.84 230.694 298.461 228.399 292.525 225.313 C 291.624 224.844 290.396 224.203 289.796 223.888 C 289.195 223.572 287.967 222.931 287.066 222.463 C 286.165 221.995 283.572 220.644 281.304 219.461 C 279.035 218.278 276.497 216.954 275.663 216.52 C 273.121 215.194 271.415 214.304 270.143 213.638 C 264.261 210.559 261.772 209.314 261.062 209.098 C 260.317 208.871 258.426 208.581 257.952 208.62 C 257.852 208.628 257.397 208.678 256.942 208.731 Z  M 269.765 311.886 C 269.439 312.079 268.982 312.358 268.748 312.507 C 268.515 312.655 267.996 312.977 267.596 313.223 C 266.127 314.125 262.219 316.533 258.861 318.605 C 256.655 319.968 256.327 320.171 253.524 321.91 C 252.523 322.531 251.458 323.186 251.158 323.365 C 250.858 323.544 249.575 324.334 248.307 325.12 C 247.04 325.907 244.829 327.272 243.394 328.153 C 241.96 329.035 239.394 330.618 237.693 331.67 C 235.991 332.723 233.753 334.103 232.719 334.737 C 231.685 335.371 230.73 335.984 230.596 336.098 C 230.398 336.268 221.2 341.966 216.585 344.778 C 213.079 346.913 209.024 348.341 204.873 348.902 C 202.941 349.163 199.284 349.164 197.357 348.904 C 192.132 348.198 187.318 346.25 183.196 343.172 C 181.579 341.964 178.534 338.922 177.37 337.351 C 174.628 333.648 172.853 329.676 171.934 325.182 C 171.723 324.148 171.523 323.275 171.49 323.241 C 171.404 323.154 171.559 324.717 171.839 326.759 C 172.13 328.883 172.75 331.956 173.418 334.584 C 178.587 354.92 193.295 371.46 213.206 379.33 C 218.94 381.595 224.725 383.022 231.021 383.722 C 233.386 383.987 240.082 384.092 242.551 383.905 C 253.872 383.047 263.73 379.715 273.843 373.324 C 274.744 372.754 276.436 371.687 277.604 370.952 C 278.772 370.217 280.245 369.283 280.879 368.876 C 281.513 368.469 282.277 367.988 282.578 367.808 C 282.878 367.627 283.478 367.25 283.912 366.969 C 284.346 366.688 286.202 365.514 288.037 364.36 L 295.374 359.726 L 297.893 358.135 L 297.984 358.077 L 298.261 357.902 L 298.393 357.819 L 300.248 356.647 L 306.658 352.598 C 314.825 347.466 317.261 345.664 321.055 341.947 C 322.637 340.398 325.022 337.753 325.141 337.417 C 325.165 337.349 325.589 336.695 326.083 335.964 C 328.091 332.993 329.43 329.353 330.094 325.061 C 330.401 323.075 330.399 318.22 330.09 316.023 C 329.493 311.776 328.136 306.959 326.673 303.892 C 324.274 298.863 319.163 294.293 311.82 290.612 C 309.793 289.596 307.7 288.666 307.466 288.678 C 307.355 288.684 300.523 292.86 292.283 297.959 C 284.043 303.058 276.891 307.484 276.391 307.794 C 275.89 308.105 275.031 308.63 274.48 308.961 L 269.765 311.886 Z  M 171.366 287.424 L 171.402 322.938 L 171.861 325 C 173.299 331.448 175.789 336.097 180.118 340.414 C 182.155 342.445 183.712 343.67 185.918 344.976 C 190.588 347.739 195.613 349.102 201.118 349.1 C 206.883 349.097 211.87 347.659 217.009 344.517 C 217.877 343.987 221.275 341.895 224.561 339.868 L 230.535 336.182 L 230.535 294.046 L 230.535 251.911 L 230.534 213.364 C 230.532 188.772 230.487 174.167 230.41 173.022 C 229.92 165.821 226.908 159.202 221.845 154.195 C 220.291 152.659 218.963 151.633 215.008 148.911 C 213.039 147.556 209.436 145.075 207.001 143.396 C 204.566 141.718 200.554 138.953 198.085 137.252 C 195.616 135.551 192.095 133.125 190.26 131.86 C 186.438 129.224 186.139 129.041 184.983 128.627 C 183.48 128.09 181.888 127.892 180.374 128.056 C 175.96 128.532 172.427 131.719 171.509 136.051 C 171.366 136.725 171.34 145.695 171.338 194.379 L 171.336 251.911 L 171.331 251.911 L 171.366 287.424 Z " fill-rule="evenodd" fill="rgb(0,103,79)"/></g></svg>