<?xml version="1.0" encoding="UTF-8" standalone="no"?><!-- Generator: Gravit.io --><svg xmlns="http://www.w3.org/2000/svg" xmlns:xlink="http://www.w3.org/1999/xlink" style="isolation:isolate" viewBox="0 0 512 512" width="512pt" height="512pt"><defs><clipPath id="_clipPath_3Dp75sEMjE3DejLu1yP6JW1z9LExkmPV"><rect width="512" height="512"/></clipPath></defs><g clip-path="url(#_clipPath_3Dp75sEMjE3DejLu1yP6JW1z9LExkmPV)"><g><path d=" M 502.214 250.797 C 475.88 225.493 344.197 209.697 302.647 205.098 C 304.659 200.345 306.373 195.429 307.787 190.367 C 313.452 187.886 319.566 185.578 325.888 183.651 C 326.659 185.924 330.287 194.631 332.355 198.763 C 415.907 201.068 420.197 136.673 423.595 119.031 C 426.918 101.781 426.749 85.114 455.408 54.644 C 412.711 42.202 351.311 73.928 330.744 121.15 C 323.016 118.254 315.27 116.115 307.609 114.793 C 302.119 92.647 273.53 30.948 198.51 30.948 C 103.525 30.948 0 109.309 0 241.958 C 0 353.462 76.128 451.18 119.14 451.18 C 137.924 451.18 154.082 437.114 157.875 424.505 C 161.056 433.15 170.813 460.027 174.018 466.869 C 178.755 476.987 200.66 485.742 210.247 475.242 C 222.573 482.09 245.189 486.214 257.516 467.953 C 281.255 472.974 302.241 458.818 302.7 441.927 C 314.348 441.305 320.062 424.95 317.519 411.924 C 315.643 402.335 295.613 367.925 287.8 356.047 C 303.266 368.628 342.443 372.189 347.2 356.055 C 372.137 375.628 410.998 365.355 414.08 349.437 C 444.379 357.309 479.132 340.019 473.426 319.077 C 522.102 315.711 515.872 263.921 502.214 250.797 Z " fill="rgb(84,55,41)"/><path d=" M 366.682 140.343 C 377.166 119.543 390.34 96.83 406.979 82.778 C 388.665 90.16 370.583 112.225 359.892 135.808 C 354.442 132.345 348.91 129.255 343.331 126.553 C 358.245 94.719 392.899 68.133 431.09 66.057 C 405.509 89.256 414.59 137.475 393.558 163.002 C 387.539 156.957 373.72 145.29 366.682 140.343 Z  M 350.146 174.215 C 350.157 173.419 350.455 167.279 351.014 164.476 C 349.547 164.131 340.43 162.348 335.677 162.459 C 335.331 168.429 338.185 178.586 341.007 184.699 C 360.44 184.292 374.476 178.473 382.737 173.123 C 375.704 169.844 363.702 166.929 354.576 165.186 C 353.558 167.292 351.052 172.66 350.146 174.215 Z " fill="rgb(0,172,238)"/><path d=" M 277.938 338.782 C 277.943 338.81 277.955 338.847 277.958 338.875 C 275.495 333.575 272.879 327.137 269.756 318.722 C 281.919 336.427 320.04 327.295 318.041 311.43 C 336.7 325.47 375.108 309.091 366.376 289.405 C 385.067 298.115 406.401 280.591 401.616 272.955 C 433.482 279.101 464.02 285.226 473.606 287.679 C 467.238 298.063 452.734 305.395 430.872 300.3 C 442.686 316.393 419.749 335.699 387.803 325.066 C 394.835 340.864 366.391 355.088 334.062 338.621 C 334.473 354.426 293.956 356.246 277.938 338.782 Z  M 341.151 258.896 C 378.136 261.736 439.297 267.251 477.162 272.55 C 474.77 260.227 468.235 256.707 447.68 251.185 C 425.573 253.543 369.487 259.052 341.151 258.896 Z " fill="rgb(43,175,43)"/><path d=" M 318.041 311.43 C 336.7 325.47 375.108 309.091 366.376 289.405 C 385.067 298.115 406.401 280.591 401.616 272.955 C 363.942 265.691 324.409 258.4 315.442 257.126 C 320.881 257.415 329.898 258.033 341.151 258.897 C 369.488 259.054 425.574 253.544 447.68 251.186 C 411.886 242.11 338.804 228.866 288.334 225.602 C 285.995 229.021 281.695 234.818 274.207 240.978 C 252.125 287.699 212.116 318.755 167.849 318.755 C 154.949 318.755 140.515 316.579 124.337 311.407 C 114.248 322.215 71.233 330.406 36.33 313.275 C 64.015 378.1 128.219 421.373 199.287 421.373 C 259.14 421.373 285.68 360.254 279.872 344.082 C 278.463 340.156 272.878 327.137 269.753 318.723 C 281.919 336.427 320.039 327.295 318.041 311.43 Z " fill="rgb(255,204,47)"/><path d=" M 281.768 188.422 C 287.053 185.547 305.315 174.478 322.718 170.318 C 322.443 168.39 322.236 166.447 322.108 164.492 C 310.691 167.226 289.166 176.451 276.831 163.738 C 302.855 171.591 315.848 156.741 334.975 156.741 C 346.372 156.741 362.636 159.924 375.456 164.958 C 365.144 155.432 331.331 126.685 289.466 126.585 C 280.119 137.917 270.016 162.464 281.768 188.422 Z " fill="rgb(206,206,206)"/><path d=" M 124.337 311.407 C 140.515 316.579 154.949 318.755 167.849 318.755 C 212.116 318.755 252.124 287.698 274.207 240.978 C 257.875 254.611 229.49 266.276 185.162 266.276 C 224.646 257.323 258.636 237.647 275.927 208.886 C 263.772 189.541 250.59 146.744 283.973 112.911 C 278.838 96.413 253.843 52.861 198.51 52.861 C 101.943 52.861 21.913 133.665 21.913 241.957 C 21.913 267.592 27.088 291.634 36.331 313.273 C 71.233 330.406 114.248 322.215 124.337 311.407 Z " fill="rgb(239,87,52)"/><path d=" M 153.309 146.522 C 153.309 171.154 173.278 191.125 197.911 191.125 C 222.544 191.125 242.514 171.154 242.514 146.522 C 242.514 121.889 222.544 101.92 197.911 101.92 C 173.278 101.92 153.309 121.889 153.309 146.522 Z " fill="rgb(255,204,47)"/><path d=" M 171.206 146.522 C 171.206 161.269 183.164 173.226 197.91 173.226 C 212.659 173.226 224.614 161.269 224.614 146.522 C 224.614 131.774 212.66 119.818 197.91 119.818 C 183.164 119.818 171.206 131.774 171.206 146.522 Z " fill="rgb(84,55,41)"/><ellipse vector-effect="non-scaling-stroke" cx="197.90957245217683" cy="134.67361505135358" rx="15.560498581889334" ry="9.67480668746623" fill="rgb(255,255,255)"/></g></g></svg>