<?xml version="1.0" encoding="UTF-8" standalone="no"?><!-- Generator: Gravit.io --><svg xmlns="http://www.w3.org/2000/svg" xmlns:xlink="http://www.w3.org/1999/xlink" style="isolation:isolate" viewBox="0 0 512 512" width="512pt" height="512pt"><defs><clipPath id="_clipPath_JknsJTvkFFJd8qzW1b96OS1ycPt8LjOT"><rect width="512" height="512"/></clipPath></defs><g clip-path="url(#_clipPath_JknsJTvkFFJd8qzW1b96OS1ycPt8LjOT)"><g><path d=" M 344.009 170.402 C 345.418 133.683 336.144 118.861 329.183 108.264 C 322.12 98.376 305.176 82.841 284.356 82.19 C 264.667 81.576 259.93 92.458 241.766 93.116 C 238.788 60.037 263.752 41.886 263.752 41.886 C 263.752 41.886 256.925 32.239 251.277 29.884 C 244.779 35.659 229.199 52.247 225.868 74.516 C 222.358 41.715 205.959 20.737 169.604 6.117 C 159.277 42.239 193.371 75.987 215.521 89.315 C 203.779 85.37 193.59 80.158 179.906 82.851 C 155.987 87.56 136.271 102.02 125.033 133.752 C 113.799 165.484 129.002 202.504 132.306 213.077 C 135.613 223.66 160.073 268.608 179.244 275.219 C 198.412 281.837 198.419 278.855 208.667 274.893 C 218.914 270.928 234.446 263.652 257.261 271.922 C 280.058 280.181 283.033 282.162 297.242 272.909 C 311.465 263.656 329.968 234.902 334.262 226.635 C 338.56 218.376 340.873 214.075 342.203 209.78 C 343.855 197.203 342.741 203.313 344.009 170.402 Z " fill="rgb(209,210,211)"/><path d=" M 345.377 221.218 L 345.377 239.173 C 345.377 243.378 348.787 246.788 352.992 246.788 L 352.992 246.788 L 381.246 246.788 C 390.331 246.788 399.05 250.4 405.476 256.826 C 411.905 263.255 415.518 271.971 415.518 281.06 L 415.518 281.06 L 415.516 363.868 C 415.516 364.79 415.516 365.709 415.516 366.625 L 415.514 385.274 C 415.514 386.129 415.514 386.977 415.513 387.82 L 415.512 397.619 C 415.512 398.407 415.512 399.188 415.512 399.961 L 415.511 404.503 C 415.511 413.613 411.888 422.348 405.432 428.778 C 398.978 435.207 390.229 438.802 381.119 438.771 C 371.571 438.795 361.529 438.778 353.153 438.662 C 351.104 438.621 349.126 439.402 347.663 440.838 C 346.203 442.271 345.377 444.231 345.377 446.274 L 345.377 446.274 L 345.376 455.338 C 345.376 455.705 345.376 456.073 345.376 456.444 L 345.375 460.951 C 345.374 461.329 345.374 461.708 345.374 462.086 L 345.373 464.346 C 345.368 470.721 345.36 476.76 345.343 480.401 C 345.343 482.656 344.339 484.795 342.604 486.234 C 333.875 492.828 303.38 507.442 235.173 507.442 C 168.374 507.442 136.562 496.53 126.637 490.782 C 124.447 489.387 123.121 486.968 123.114 484.377 C 123.084 469.569 122.972 416.844 122.855 362.436 L 122.839 355.01 C 122.704 291.856 122.568 228.653 122.553 221.826 L 122.552 221.218 L 345.377 221.218 Z  M 379.153 277.298 L 354.895 277.298 C 352.541 277.298 350.273 278.175 348.532 279.741 L 348.167 280.087 C 346.501 281.757 345.515 283.973 345.391 286.317 L 345.378 286.822 L 345.378 397.605 C 345.378 399.959 346.252 402.227 347.821 403.971 L 348.167 404.336 C 349.831 406.003 352.052 406.986 354.392 407.109 L 354.895 407.122 L 379.153 407.122 C 381.507 407.122 383.775 406.251 385.518 404.683 L 385.884 404.336 C 387.547 402.67 388.533 400.448 388.657 398.108 L 388.67 397.605 L 388.67 286.822 C 388.67 284.461 387.795 282.199 386.23 280.453 L 385.884 280.087 C 384.217 278.424 381.995 277.435 379.656 277.311 L 379.153 277.298 Z " fill="rgb(254,254,254)"/><path d=" M 144.52 219.01 L 144.52 455.078 C 144.52 457.802 145.973 460.318 148.334 461.678 C 157.968 466.271 185.924 477.234 234.936 477.234 C 284.27 477.234 311.393 463.913 320.478 458.423 C 322.648 457.028 323.953 454.622 323.953 452.045 C 323.974 420.741 323.974 219.01 323.974 219.01 L 144.52 219.01 Z " fill="rgb(250,175,65)"/><path d=" M 170.898 248.431 C 176.522 248.431 181.122 252.828 181.444 258.373 L 181.461 258.993 L 181.461 441.425 C 181.461 447.259 176.731 451.988 170.898 451.988 C 165.271 451.988 160.675 447.591 160.353 442.049 L 160.336 441.425 L 160.336 258.993 C 160.336 253.16 165.065 248.431 170.898 248.431 Z " fill="rgb(255,218,149)"/><path d=" M 272.289 267.453 C 272.289 263.645 270.048 259.097 266.367 256.815 C 260.377 253.192 255.698 247.633 253.152 241.012 C 204.424 242.65 159.953 234.096 137.546 228.054 C 131.796 226.422 125.969 225.069 120.085 223.999 C 106.678 221.336 96.485 209.561 96.485 195.403 C 96.485 179.82 108.851 167.156 124.297 166.601 C 127.275 150.12 141.662 137.607 159.004 137.607 C 178.505 137.607 194.314 153.417 194.314 172.917 C 194.314 177.02 193.574 180.947 192.289 184.614 L 192.392 184.631 C 196.748 171.012 209.497 161.142 224.562 161.142 C 239.529 161.142 252.213 170.895 256.641 184.388 C 256.511 183.171 256.446 181.934 256.446 180.68 C 256.446 160.398 272.886 143.961 293.164 143.961 C 309.581 143.961 323.474 154.736 328.176 169.593 L 331.374 168.757 C 335.562 166.399 340.377 165.035 345.525 165.035 C 361.461 165.035 374.378 177.955 374.371 193.885 C 374.371 208.481 363.538 220.541 349.473 222.467 C 346.286 222.916 343.163 223.729 340.158 224.887 C 331.795 228.037 323.248 230.648 314.615 232.804 C 314.183 237.06 312.915 241.07 310.979 244.669 C 307.476 251.242 305.907 258.672 306.448 266.099 C 306.445 266.548 306.462 268.906 306.462 269.358 C 306.462 278.793 298.812 284.534 289.367 284.534 C 279.939 284.534 272.289 276.891 272.289 267.453 Z " fill="rgb(254,254,254)"/><path d=" M 265.428 225.778 L 265.63 226.395 L 265.565 225.778 L 265.428 225.778 Z " fill="rgb(1,2,2)"/><path d=" M 166.609 0 L 171.304 1.885 C 201.48 14.021 219.048 30.687 226.667 55.26 C 231.485 44.581 238.802 35.084 247.305 27.325 L 247.305 27.325 L 250.39 24.573 L 253.035 25.673 C 254.177 26.153 255.315 26.807 256.466 27.626 C 258.255 28.898 260.068 30.55 261.905 32.5 C 263.3 33.977 264.63 35.547 265.86 37.113 L 265.86 37.113 L 266.539 37.987 L 267.296 39.005 L 270.075 42.929 L 266.432 45.578 L 265.935 45.962 L 265.25 46.524 L 264.407 47.268 L 263.416 48.183 C 261.011 50.465 258.594 53.19 256.339 56.333 C 250.03 65.123 246.239 75.288 246.082 86.824 L 246.082 86.824 L 246.078 88.168 L 247.065 88.007 C 250.462 87.386 253.656 86.197 258.33 84.069 L 258.33 84.069 L 261 82.845 C 270.031 78.757 275.439 77.351 284.497 77.632 C 303.734 78.236 322.241 90.7 332.995 105.763 C 333.235 106.129 333.478 106.496 333.711 106.866 L 333.711 106.866 L 335.096 109.06 L 336.415 111.239 C 344.634 125.198 348.592 138.749 348.736 160.639 C 365.683 162.253 378.94 176.52 378.933 193.886 C 378.933 210.638 366.537 224.734 350.11 226.982 C 350.052 226.992 349.997 227.006 349.936 227.016 L 349.936 227.016 L 349.936 239.173 C 349.936 240.859 351.306 242.23 352.993 242.23 L 352.993 242.23 L 381.246 242.23 C 391.545 242.23 401.422 246.318 408.705 253.601 C 415.988 260.887 420.076 270.764 420.076 281.06 L 420.076 281.06 L 420.073 404.503 C 420.073 414.826 415.964 424.723 408.65 432.006 C 401.336 439.292 391.428 443.367 381.133 443.33 C 379.68 443.333 378.254 443.336 376.853 443.34 L 376.853 443.34 L 368.545 443.336 L 358.449 443.282 L 353.058 443.22 C 352.235 443.203 351.444 443.518 350.854 444.094 C 350.268 444.67 349.936 445.454 349.936 446.274 L 349.936 446.274 L 349.925 471.241 L 349.901 480.401 C 349.901 484.014 348.294 487.434 345.35 489.871 C 341.2 493.007 335.689 495.975 328.855 498.661 L 328.855 498.661 L 326.528 499.542 C 322.964 500.855 319.07 502.092 314.855 503.237 L 314.855 503.237 L 311.993 503.987 L 309.039 504.71 C 306.037 505.42 302.891 506.088 299.604 506.708 L 299.604 506.708 L 296.269 507.315 L 292.842 507.887 C 289.943 508.35 286.951 508.782 283.863 509.173 L 283.863 509.173 L 280.107 509.625 L 276.261 510.043 L 272.324 510.42 L 268.293 510.763 L 264.17 511.064 L 259.955 511.325 C 259.246 511.366 258.533 511.404 257.816 511.441 L 257.816 511.441 L 253.467 511.64 L 249.029 511.798 C 247.531 511.839 246.023 511.88 244.498 511.911 L 244.498 511.911 L 239.879 511.976 C 238.326 511.993 236.756 512 235.173 512 L 235.173 512 L 232.764 512 C 231.167 511.99 229.58 511.976 228.01 511.959 L 228.01 511.959 L 223.346 511.883 L 218.771 511.774 C 217.259 511.733 215.765 511.681 214.284 511.63 L 214.284 511.63 L 209.891 511.448 C 209.164 511.414 208.444 511.383 207.725 511.345 L 207.725 511.345 L 203.465 511.112 L 199.297 510.852 L 195.222 510.554 C 194.547 510.506 193.882 510.451 193.218 510.396 L 193.218 510.396 L 189.28 510.057 C 188.632 509.995 187.988 509.937 187.347 509.872 L 187.347 509.872 L 183.549 509.488 L 179.848 509.073 C 179.238 509.001 178.631 508.929 178.032 508.854 L 178.032 508.854 L 174.471 508.395 L 171.006 507.915 L 167.64 507.404 C 165.982 507.14 164.357 506.873 162.77 506.592 L 162.77 506.592 L 159.648 506.02 C 159.134 505.924 158.627 505.824 158.123 505.725 L 158.123 505.725 L 155.145 505.118 L 152.27 504.491 L 149.494 503.836 L 146.817 503.168 C 144.192 502.486 141.717 501.773 139.401 501.036 L 139.401 501.036 L 137.132 500.289 C 136.021 499.912 134.955 499.528 133.924 499.134 L 133.924 499.134 L 131.916 498.35 C 128.982 497.153 126.405 495.909 124.187 494.628 C 120.688 492.397 118.567 488.534 118.556 484.384 L 118.556 484.384 L 118.008 228.182 C 102.898 224.61 91.924 211.142 91.924 195.404 C 91.924 180.061 102.308 167.123 116.493 163.24 C 116.318 158.572 116.425 153.966 116.908 149.422 C 117.552 143.41 118.81 137.67 120.736 132.227 C 131.782 101.03 151.44 83.805 179.026 78.376 C 183.95 77.41 188.457 77.3 193.194 77.937 C 189.616 74.589 186.182 71.008 183.056 67.293 C 166.482 47.576 159.196 25.933 165.217 4.863 L 165.217 4.863 L 166.609 0 Z  M 340.816 229.501 L 338.626 230.306 C 338.163 230.474 337.67 230.615 337.2 230.779 C 332.923 232.284 328.533 233.651 324.067 234.93 C 321.305 235.721 321.305 235.721 318.673 236.469 L 318.673 236.469 L 318.467 237.51 C 317.843 240.304 316.898 242.997 315.65 245.551 L 315.65 245.551 L 314.44 247.912 C 314.217 248.368 314.067 248.851 313.868 249.317 C 311.616 254.492 310.585 260.161 311.006 266.096 L 311.006 266.096 L 311.01 266.765 L 311.02 269.356 C 311.02 281.135 301.609 289.096 289.367 289.096 C 283.154 289.096 277.564 286.461 273.619 282.262 C 270.74 279.199 268.753 275.309 268.04 270.973 C 267.851 269.825 267.728 268.653 267.728 267.454 C 267.728 265.01 266.127 262.035 264.006 260.716 C 258.159 257.179 253.43 252.048 250.362 245.958 L 250.362 245.958 L 250.215 245.657 L 247.216 245.722 C 212.629 246.311 177.425 242.079 148.527 235.468 C 145.168 234.7 141.872 233.905 138.695 233.076 L 138.695 233.076 L 136.302 232.442 C 136.237 232.421 136.165 232.407 136.097 232.387 C 133.132 231.554 130.14 230.8 127.131 230.111 L 127.131 230.111 L 127.676 484.367 C 127.676 485.405 128.211 486.378 128.924 486.834 C 130.247 487.602 131.73 488.356 133.379 489.096 L 133.379 489.096 L 135.079 489.826 C 136.834 490.553 138.746 491.262 140.819 491.958 L 140.819 491.958 L 142.941 492.64 C 144.027 492.976 145.155 493.308 146.32 493.637 L 146.32 493.637 L 148.702 494.281 L 151.187 494.909 L 153.771 495.522 L 156.461 496.112 C 156.913 496.211 157.376 496.307 157.842 496.403 L 157.842 496.403 L 160.68 496.965 C 161.639 497.15 162.62 497.335 163.617 497.513 L 163.617 497.513 L 166.653 498.034 C 167.682 498.206 168.727 498.374 169.789 498.535 L 169.789 498.535 L 173.021 499.011 L 176.352 499.467 C 176.914 499.539 177.48 499.614 178.052 499.683 L 178.052 499.683 L 181.527 500.104 L 185.099 500.495 L 188.762 500.855 C 189.382 500.917 190.006 500.971 190.63 501.03 L 190.63 501.03 L 194.438 501.355 L 198.338 501.65 L 202.33 501.914 L 206.416 502.147 L 210.593 502.352 C 211.296 502.383 212.005 502.411 212.715 502.442 L 212.715 502.442 L 217.03 502.599 C 217.753 502.623 218.483 502.644 219.22 502.664 L 219.22 502.664 L 223.668 502.771 C 224.415 502.784 225.166 502.798 225.923 502.812 L 225.923 502.812 L 230.505 502.863 C 232.044 502.873 233.6 502.88 235.173 502.88 L 235.173 502.88 L 237.459 502.877 C 241.256 502.856 244.958 502.795 248.566 502.685 L 248.566 502.685 L 252.85 502.538 C 253.556 502.514 254.259 502.483 254.958 502.448 L 254.958 502.448 L 259.105 502.243 L 263.163 501.996 C 263.831 501.952 264.499 501.907 265.157 501.859 L 265.157 501.859 L 269.082 501.554 C 269.722 501.503 270.367 501.448 271.004 501.393 L 271.004 501.393 L 274.788 501.036 C 275.408 500.971 276.028 500.91 276.645 500.845 L 276.645 500.845 L 280.285 500.44 C 280.885 500.368 281.481 500.296 282.074 500.224 L 282.074 500.224 L 285.577 499.768 L 288.987 499.278 L 292.304 498.764 C 293.394 498.586 294.47 498.401 295.526 498.219 L 295.526 498.219 L 298.655 497.644 C 299.679 497.445 300.694 497.246 301.688 497.04 L 301.688 497.04 L 304.628 496.41 L 307.469 495.759 C 309.334 495.316 311.13 494.854 312.867 494.384 L 312.867 494.384 L 315.42 493.661 C 315.839 493.538 316.25 493.411 316.661 493.288 L 316.661 493.288 L 319.07 492.537 L 321.38 491.763 C 329.304 489.024 335.428 485.947 339.692 482.722 C 340.381 482.149 340.782 481.299 340.782 480.381 L 340.782 480.381 L 340.816 446.274 C 340.816 443.001 342.135 439.865 344.473 437.579 C 346.81 435.286 349.97 434.035 353.215 434.104 L 353.215 434.104 L 358.555 434.162 L 366.472 434.21 L 376.866 434.22 L 381.137 434.21 C 389.033 434.237 396.617 431.122 402.214 425.549 C 407.807 419.973 410.953 412.403 410.953 404.503 L 410.953 404.503 L 410.956 281.06 C 410.956 273.18 407.827 265.624 402.255 260.051 C 396.682 254.478 389.125 251.349 381.246 251.349 L 381.246 251.349 L 352.993 251.349 C 346.268 251.349 340.816 245.897 340.816 239.173 L 340.816 239.173 L 340.816 229.501 Z  M 379.152 272.739 C 382.884 272.739 386.466 274.223 389.108 276.866 C 391.751 279.505 393.231 283.086 393.231 286.822 L 393.231 286.822 L 393.231 397.605 C 393.231 401.337 391.751 404.919 389.105 407.561 C 386.466 410.2 382.884 411.681 379.152 411.681 L 379.152 411.681 L 354.898 411.681 C 351.166 411.681 347.585 410.2 344.939 407.558 C 342.3 404.919 340.816 401.337 340.816 397.605 L 340.816 397.605 L 340.816 286.822 C 340.816 283.086 342.3 279.505 344.942 276.862 C 347.585 274.223 351.166 272.739 354.898 272.739 L 354.898 272.739 L 379.152 272.739 Z  M 379.152 281.863 L 354.898 281.863 C 353.582 281.863 352.321 282.383 351.392 283.309 C 350.463 284.241 349.936 285.506 349.936 286.822 L 349.936 286.822 L 349.936 397.605 C 349.936 398.921 350.463 400.182 351.389 401.108 C 352.321 402.04 353.582 402.564 354.898 402.564 L 354.898 402.564 L 379.152 402.564 C 380.468 402.564 381.729 402.04 382.655 401.111 C 383.587 400.182 384.111 398.921 384.111 397.605 L 384.111 397.605 L 384.111 286.822 C 384.111 285.506 383.587 284.241 382.658 283.312 C 381.729 282.383 380.468 281.863 379.152 281.863 L 379.152 281.863 Z  M 159.004 142.166 C 144.089 142.166 131.412 152.883 128.783 167.414 L 128.783 167.414 L 128.132 171.027 L 126.23 171.098 L 124.461 171.16 C 121.922 171.249 119.489 171.739 117.206 172.548 C 107.775 175.893 101.044 184.876 101.044 195.404 C 101.044 206.138 108.08 215.45 117.987 218.723 C 118.937 219.034 119.903 219.312 120.904 219.511 C 124.191 220.111 127.453 220.813 130.695 221.581 C 133.396 222.218 136.08 222.9 138.736 223.651 C 139.877 223.959 141.097 224.244 142.272 224.545 C 143.897 224.957 145.491 225.378 147.156 225.779 C 177.555 233.069 215.933 237.702 252.998 236.455 L 252.998 236.455 L 256.24 236.345 L 257.405 239.375 C 259.578 245.026 263.581 249.797 268.773 252.94 C 273.66 255.973 276.848 261.905 276.848 267.454 L 276.848 267.454 L 276.865 268.119 C 276.981 270.343 277.718 272.392 278.849 274.164 C 281.077 277.643 284.932 279.977 289.367 279.977 C 296.876 279.977 301.9 275.727 301.9 269.356 L 301.9 269.356 L 301.887 266.741 L 301.9 266.432 C 301.818 265.346 301.784 264.263 301.784 263.183 C 301.794 255.993 303.559 248.892 306.962 242.504 L 306.962 242.504 L 307.5 241.448 C 308.878 238.604 309.755 235.533 310.074 232.346 L 310.074 232.346 L 310.396 229.155 L 313.508 228.38 C 316.685 227.585 319.763 226.68 322.84 225.779 C 325.541 224.987 328.211 224.168 330.85 223.312 C 333.451 222.465 336.011 221.577 338.52 220.632 L 338.52 220.632 L 339.952 220.104 C 341.032 219.73 342.132 219.435 343.232 219.141 C 345.079 218.644 346.947 218.219 348.853 217.948 L 348.853 217.948 L 349.661 217.825 C 349.757 217.808 349.846 217.784 349.936 217.766 C 361.338 215.676 369.813 205.689 369.813 193.882 C 369.817 181.514 360.556 171.321 348.596 169.81 C 347.588 169.683 346.567 169.597 345.525 169.597 C 343.451 169.597 341.416 169.865 339.448 170.375 C 337.416 170.903 335.459 171.691 333.615 172.73 L 333.615 172.73 L 333.098 173.021 L 325.133 175.095 L 323.827 170.968 C 319.632 157.712 307.288 148.52 293.164 148.52 C 275.405 148.52 261.007 162.918 261.007 180.681 C 261.007 181.771 261.065 182.85 261.175 183.913 L 261.175 183.913 L 264.609 216.656 L 265.565 225.779 L 265.428 225.779 L 262.433 216.656 L 252.306 185.808 C 248.402 173.909 237.27 165.704 224.562 165.704 C 211.762 165.704 200.576 174.015 196.737 186.02 L 196.737 186.02 L 195.538 189.766 L 186.185 188.234 L 187.984 183.104 C 189.149 179.783 189.753 176.366 189.753 172.915 C 189.753 155.933 175.986 142.166 159.004 142.166 Z  M 251.85 35.564 L 250.732 36.657 C 240.543 46.829 230.999 63.862 230.42 74.353 C 229.837 84.843 231.547 97.867 231.547 97.867 L 231.547 97.867 L 225.114 96.636 C 222.338 96.105 219.84 95.478 216.951 94.58 L 216.951 94.58 L 214.956 93.942 C 214.61 93.829 214.26 93.709 213.901 93.589 L 213.901 93.589 L 213.527 93.459 L 211.645 92.808 L 204.133 90.121 L 202.07 89.422 C 193.684 86.68 187.737 85.961 180.787 87.328 C 156.389 92.129 139.315 107.089 129.335 135.271 C 127.652 140.021 126.549 145.066 125.976 150.391 C 125.966 150.481 125.966 150.573 125.956 150.666 C 132.975 140.24 144.737 133.4 157.972 133.06 L 157.972 133.06 L 159.004 133.047 C 178.652 133.047 194.979 147.259 198.269 165.965 L 198.269 165.965 L 198.42 166.886 L 199.404 165.995 C 205.953 160.303 214.404 156.838 223.534 156.598 L 223.534 156.598 L 224.562 156.584 C 235.68 156.584 245.88 161.369 252.96 169.186 L 252.96 169.186 L 253.375 169.656 L 253.635 168.758 C 258.656 152.088 273.934 139.86 292.129 139.411 L 292.129 139.411 L 293.164 139.401 C 309.515 139.401 324.009 148.993 330.644 163.367 L 330.644 163.367 L 330.87 163.877 L 331.309 163.662 C 333.944 162.417 336.744 161.561 339.62 161.043 C 339.534 140.172 335.86 127.954 328.036 114.978 L 328.036 114.978 L 326.785 112.956 L 325.472 110.914 C 316.325 98.11 300.2 87.249 284.213 86.749 C 276.419 86.505 272.156 87.722 263.454 91.752 L 263.454 91.752 L 262.004 92.417 C 254.033 96.036 249.392 97.4 241.931 97.671 L 241.931 97.671 L 237.613 97.829 L 237.226 93.524 C 235.752 77.187 240.369 62.94 248.933 51.014 C 251.833 46.973 254.742 43.751 257.292 41.366 L 257.292 41.366 L 257.443 41.219 L 256.446 40.047 L 255.27 38.755 C 254.297 37.723 253.354 36.815 252.467 36.064 L 252.467 36.064 L 251.85 35.564 Z  M 172.853 12.434 L 172.737 13.178 C 170.396 29.141 176.839 45.725 190.041 61.425 C 198.098 71.011 208.462 79.675 217.324 85.114 C 218.702 85.961 220.049 86.742 221.341 87.424 L 221.341 87.424 L 222.085 87.811 L 222.081 87.091 C 222.023 82.41 221.749 77.975 221.252 73.763 C 217.773 44.355 203.276 25.992 173.33 12.646 L 173.33 12.646 L 172.853 12.434 Z " fill="rgb(1,2,2)"/></g></g></svg>