<svg width="25" height="19" viewBox="0 0 25 19" class="svg-icon fill-current w-6 h-6 text-black hover:text-white" fill="none" xmlns="http://www.w3.org/2000/svg"><path d="M20.82 1.87001C19.29 1.17001 17.65 0.650014 15.93 0.350013C15.9 0.340013 15.87 0.360012 15.85 0.390012C15.64 0.770012 15.41 1.25001 15.24 1.64001C13.4 1.36001 11.56 1.36001 9.75001 1.64001C9.59001 1.25001 9.34001 0.770012 9.13001 0.390012C9.11001 0.360012 9.08001 0.350013 9.05001 0.350013C7.34001 0.650014 5.70001 1.16001 4.16001 1.87001C4.15001 1.88001 4.14001 1.89001 4.13001 1.90001C1.02001 6.55001 0.17001 11.08 0.58001 15.56C0.58001 15.58 0.590009 15.6 0.610009 15.62C2.66001 17.13 4.65001 18.04 6.60001 18.65C6.63001 18.66 6.66001 18.65 6.68001 18.62C7.14001 17.99 7.55001 17.32 7.91001 16.63C7.93001 16.59 7.91001 16.54 7.87001 16.52C7.22001 16.27 6.60001 15.97 6.00001 15.63C5.95001 15.6 5.95001 15.53 5.99001 15.5C6.12001 15.41 6.24001 15.31 6.36001 15.21C6.38001 15.19 6.41001 15.19 6.44001 15.2C10.37 16.99 14.62 16.99 18.5 15.2C18.53 15.19 18.56 15.19 18.58 15.21C18.7 15.31 18.83 15.41 18.95 15.5C18.99 15.53 18.99 15.6 18.94 15.63C18.34 15.98 17.72 16.27 17.07 16.52C17.03 16.54 17.01 16.59 17.03 16.63C17.39 17.33 17.8 17.99 18.26 18.62C18.28 18.65 18.31 18.66 18.34 18.65C20.3 18.04 22.29 17.13 24.34 15.62C24.36 15.61 24.37 15.59 24.37 15.56C24.87 10.38 23.53 5.89001 20.82 1.90001C20.84 1.89001 20.83 1.88001 20.82 1.87001ZM8.52001 12.83C7.34001 12.83 6.36001 11.74 6.36001 10.41C6.36001 9.08001 7.32001 7.99001 8.52001 7.99001C9.73001 7.99001 10.7 9.09001 10.68 10.41C10.68 11.75 9.72001 12.83 8.52001 12.83ZM16.49 12.83C15.31 12.83 14.33 11.74 14.33 10.41C14.33 9.08001 15.29 7.99001 16.49 7.99001C17.7 7.99001 18.67 9.09001 18.65 10.41C18.65 11.75 17.71 12.83 16.49 12.83Z" fill="currentColor"></path></svg>
