<svg width="51" height="51" viewBox="0 0 51 51" class="svg-icon fill-current undefined" fill="none" xmlns="http://www.w3.org/2000/svg"><path d="M33 3H18V6H12V9H9V12H6V18H3V33H6V39H9V42H12V45H18V48H33V45H39V42H42V39H45V33H48V18H45V12H42V9H39V6H33V3Z" fill="#218F4B"></path><path d="M33 0H18V3H33V0Z" fill="#F2F2F2"></path><path d="M18 3H12V6H18V3Z" fill="#F2F2F2"></path><path d="M12 6H9V9H12V6Z" fill="#F2F2F2"></path><path d="M9 9H6V12H9V9Z" fill="#F2F2F2"></path><path d="M6 12H3V18H6V12Z" fill="#F2F2F2"></path><path d="M3 18H0V33H3V18Z" fill="#F2F2F2"></path><path d="M33 6L39 6L39 3L33 3L33 6Z" fill="#F2F2F2"></path><path d="M39 9L42 9L42 6L39 6L39 9Z" fill="#F2F2F2"></path><path d="M42 12L45 12L45 9L42 9L42 12Z" fill="#F2F2F2"></path><path d="M45 18L48 18L48 12L45 12L45 18Z" fill="#F2F2F2"></path><path d="M48 33L51 33L51 18L48 18L48 33Z" fill="#F2F2F2"></path><path d="M33 48H39V45H33V48Z" fill="#F2F2F2"></path><path d="M39 45H42V42H39V45Z" fill="#F2F2F2"></path><path d="M42 42H45V39H42V42Z" fill="#F2F2F2"></path><path d="M45 39H48V33H45V39Z" fill="#F2F2F2"></path><path d="M18 45H12V48H18V45Z" fill="#F2F2F2"></path><path d="M12 42H9V45H12V42Z" fill="#F2F2F2"></path><path d="M9 39H6V42H9V39Z" fill="#F2F2F2"></path><path d="M6 33H3V39H6V33Z" fill="#F2F2F2"></path><path d="M18 51H33V48H18V51Z" fill="#F2F2F2"></path><path d="M33 45H39V42H33V45Z" fill="#166D35"></path><path d="M39 42H42V39H39V42Z" fill="#166D35"></path><path d="M42 39H45V33H42V39Z" fill="#166D35"></path><path d="M45 33H48V27H45V33Z" fill="#166D35"></path><path d="M18 42H12V45H18V42Z" fill="#166D35"></path><path d="M12 39H9V42H12V39Z" fill="#166D35"></path><path d="M9 33H6V39H9V33Z" fill="#166D35"></path><path d="M6 27H3V33H6V27Z" fill="#166D35"></path><path d="M18 48H33V45H18V48Z" fill="#166D35"></path><path d="M18 6H12V9H18V6Z" fill="#6EBA89"></path><path d="M12 9H9V12H12V9Z" fill="#6EBA89"></path><path d="M9 12H6V18H9V12Z" fill="#6EBA89"></path><path d="M6 18H3V24H6V18Z" fill="#6EBA89"></path><path d="M33 9L39 9L39 6L33 6L33 9Z" fill="#6EBA89"></path><path d="M39 12L42 12L42 9L39 9L39 12Z" fill="#6EBA89"></path><path d="M42 18L45 18L45 12L42 12L42 18Z" fill="#6EBA89"></path><path d="M45 24L48 24L48 18L45 18L45 24Z" fill="#6EBA89"></path><path d="M33 3H18V6H33V3Z" fill="#6EBA89"></path></svg>
