<?xml version="1.0" encoding="UTF-8" standalone="no"?><!-- Generator: Gravit.io --><svg xmlns="http://www.w3.org/2000/svg" xmlns:xlink="http://www.w3.org/1999/xlink" style="isolation:isolate" viewBox="0 0 512 512" width="512pt" height="512pt"><defs><clipPath id="_clipPath_cXwKSgK5EFSRx1pE4QTNZAWDosDL0bWu"><rect width="512" height="512"/></clipPath></defs><g clip-path="url(#_clipPath_cXwKSgK5EFSRx1pE4QTNZAWDosDL0bWu)"><path d="M 477.714 383.995 L 256.005 512 L 34.286 383.995 L 34.286 127.985 L 256.005 0 L 477.714 127.985 L 477.714 383.995 Z" fill-rule="evenodd" fill="rgb(0,103,79)" /><path d=" M 331.636 384 L 180.364 384 C 170.764 384 162.909 376.145 162.909 366.545 L 162.909 145.455 C 162.909 135.855 170.764 128 180.364 128 L 285.091 128 L 349.091 192 L 349.091 366.545 C 349.091 376.145 341.236 384 331.636 384 Z  M 197.818 228.364 L 197.818 309.818 L 314.182 309.818 L 314.182 228.364 L 197.818 228.364 Z  M 299.636 295.273 L 212.364 295.273 L 212.364 242.909 L 299.636 242.909 L 299.636 295.273 Z " fill-rule="evenodd" fill="rgb(196,196,196)"/></g></svg>