<svg width="200" height="200" viewBox="0 0 200 200" fill="none" xmlns="http://www.w3.org/2000/svg">
<path d="M6 0H194V3H197V6H200V194H197V197H194V200H6V197H3V194H0V6H3V3H6V0Z" fill="#61B447"/>
<path fill-rule="evenodd" clip-rule="evenodd" d="M40.5234 128C38.6143 128 37.2164 127.552 36.3298 126.656C35.4432 125.757 34.9999 124.336 34.9999 122.382V120.951C34.9785 120.865 34.9792 120.775 35.0019 120.69C35.0245 120.605 35.0683 120.527 35.1292 120.463C35.19 120.4 35.2658 120.354 35.3493 120.329C35.4328 120.304 35.5213 120.301 35.6062 120.32H38.9387C39.0216 120.302 39.1076 120.305 39.189 120.329C39.2704 120.354 39.3446 120.398 39.4048 120.458C39.465 120.519 39.5094 120.594 39.5339 120.676C39.5584 120.759 39.5622 120.846 39.545 120.93V122.057C39.5176 122.368 39.5512 122.682 39.6439 122.98C39.7366 123.278 39.8866 123.554 40.0852 123.793C40.5644 124.197 41.1817 124.392 41.8023 124.336H51.4022C51.7216 124.368 52.044 124.335 52.3503 124.238C52.6567 124.141 52.9408 123.983 53.1857 123.773C53.5898 123.271 53.7838 122.629 53.7258 121.984V120.181C53.7859 119.526 53.5921 118.874 53.1857 118.361C52.9408 118.151 52.6567 117.993 52.3503 117.896C52.044 117.799 51.7216 117.766 51.4022 117.798H40.9921C39.0864 117.798 37.6852 117.354 36.7986 116.47C35.9119 115.586 35.4686 114.175 35.4686 112.247V109.488C35.4686 107.558 35.9119 106.151 36.7986 105.265C37.6852 104.381 39.0864 103.937 40.9921 103.937H51.5704C53.4761 103.937 54.8774 104.381 55.764 105.265C56.6506 106.149 57.0939 107.56 57.0939 109.488V110.883C57.1124 110.969 57.1098 111.059 57.0865 111.144C57.0632 111.229 57.0198 111.307 56.96 111.371C56.9003 111.435 56.8261 111.483 56.7437 111.512C56.6614 111.54 56.5735 111.548 56.4875 111.534H53.1551C53.0774 111.545 52.9982 111.538 52.9238 111.513C52.8493 111.488 52.7816 111.446 52.7258 111.389C52.6701 111.333 52.6279 111.265 52.6025 111.19C52.5771 111.115 52.5691 111.034 52.5793 110.955V109.922C52.6134 109.602 52.5832 109.279 52.4903 108.971C52.3975 108.664 52.244 108.379 52.0392 108.134C51.7957 107.926 51.5141 107.769 51.2106 107.673C50.9072 107.576 50.5878 107.541 50.271 107.57H42.2762C41.9594 107.541 41.64 107.576 41.3365 107.672C41.033 107.769 40.7514 107.926 40.5081 108.134C40.3035 108.379 40.149 108.662 40.0536 108.968C39.9583 109.275 39.9239 109.597 39.9527 109.917V111.86C39.9244 112.18 39.9589 112.503 40.0542 112.81C40.1496 113.117 40.3038 113.402 40.5081 113.648C41.0007 114.066 41.6366 114.268 42.2762 114.211H52.6455C54.5563 114.211 55.9525 114.651 56.8391 115.54C57.7257 116.429 58.1538 117.829 58.1538 119.762V122.387C58.1538 124.341 57.7105 125.762 56.8238 126.662C55.9372 127.561 54.5411 128.005 52.6303 128.005L40.5234 128Z" fill="white"/>
<path fill-rule="evenodd" clip-rule="evenodd" d="M73.4406 124.356C73.8482 124.356 74.047 124.547 74.047 124.935V127.287C74.0641 127.371 74.0603 127.458 74.0358 127.54C74.0113 127.623 73.967 127.698 73.9067 127.758C73.8465 127.819 73.7724 127.863 73.691 127.887C73.6096 127.911 73.5235 127.915 73.4406 127.896H67.6012C64.1464 127.896 62.4174 126.138 62.414 122.62V113.87H61.0993C60.7172 113.87 60.5286 113.663 60.5286 113.255V110.94C60.5186 110.861 60.5265 110.781 60.5516 110.707C60.5768 110.632 60.6185 110.564 60.6737 110.508C60.7288 110.452 60.7958 110.41 60.8696 110.384C60.9434 110.359 61.022 110.351 61.0993 110.361H62.414V107.57C62.414 107.182 62.6178 106.991 63.0203 106.991H66.0776C66.1549 106.981 66.2335 106.989 66.3073 107.014C66.3811 107.04 66.4481 107.082 66.5033 107.138C66.5584 107.194 66.6001 107.262 66.6253 107.337C66.6504 107.412 66.6583 107.492 66.6483 107.57V110.361H73.2724C73.675 110.361 73.8788 110.552 73.8788 110.94V113.255C73.8908 113.339 73.8833 113.424 73.8571 113.504C73.8309 113.584 73.7865 113.657 73.7277 113.717C73.6688 113.776 73.597 113.821 73.5179 113.848C73.4389 113.875 73.3549 113.882 73.2724 113.87H66.6279V122.041C66.5647 122.681 66.7472 123.322 67.1375 123.829C67.3819 124.028 67.6625 124.176 67.9632 124.264C68.264 124.353 68.579 124.381 68.8903 124.346L73.4406 124.356Z" fill="white"/>
<path fill-rule="evenodd" clip-rule="evenodd" d="M90.3678 124.801C90.9964 124.87 91.6265 124.684 92.1206 124.284C92.5081 123.775 92.6903 123.136 92.6302 122.496V120.837H83.4991C83.0945 120.8 82.6916 120.922 82.373 121.178C82.2398 121.336 82.1397 121.521 82.0784 121.72C82.0171 121.919 81.996 122.128 82.0163 122.335V123.286C81.9959 123.496 82.017 123.708 82.0782 123.909C82.1394 124.111 82.2396 124.298 82.373 124.46C82.5385 124.596 82.729 124.699 82.9336 124.761C83.1382 124.823 83.3529 124.843 83.5653 124.821L90.3678 124.801ZM91.6824 110.257C95.1474 110.257 96.8798 112.006 96.8798 115.503V127.287C96.8798 127.695 96.6913 127.896 96.3091 127.896H93.2518C93.1689 127.915 93.0829 127.911 93.0015 127.887C92.9201 127.863 92.8459 127.819 92.7857 127.758C92.7255 127.698 92.6811 127.623 92.6566 127.54C92.6321 127.458 92.6283 127.371 92.6455 127.287V125.819H92.4467C92.1552 126.447 91.7008 126.983 91.1321 127.369C90.3861 127.838 89.5165 128.063 88.6404 128.015H81.95C80.4859 128.015 79.4193 127.671 78.7501 126.982C78.0808 126.293 77.7411 125.209 77.731 123.731V122.025C77.731 120.552 78.0673 119.472 78.7501 118.795C79.4329 118.118 80.4876 117.762 81.95 117.762H92.6506V115.694C92.7117 115.054 92.5294 114.414 92.141 113.906C91.6469 113.506 91.0168 113.32 90.3882 113.389H84.4417C83.8837 113.332 83.3251 113.491 82.8774 113.834C82.7076 114.033 82.5794 114.266 82.5006 114.517C82.4218 114.769 82.3939 115.034 82.4188 115.296V115.606C82.4188 115.968 82.2303 116.149 81.8481 116.149H78.6481C78.5708 116.159 78.4922 116.151 78.4185 116.126C78.3447 116.1 78.2776 116.058 78.2225 116.002C78.1674 115.946 78.1256 115.878 78.1005 115.803C78.0753 115.728 78.0675 115.649 78.0775 115.57V115.095C78.0775 113.437 78.4868 112.218 79.3055 111.436C80.1241 110.654 81.4201 110.261 83.1933 110.257H91.6824Z" fill="white"/>
<path fill-rule="evenodd" clip-rule="evenodd" d="M101.72 127.897C101.638 127.915 101.551 127.912 101.47 127.887C101.389 127.863 101.315 127.819 101.254 127.758C101.194 127.698 101.15 127.623 101.125 127.541C101.101 127.458 101.097 127.371 101.114 127.287V110.94C101.114 110.552 101.318 110.361 101.72 110.361H104.778C104.855 110.351 104.934 110.359 105.007 110.384C105.081 110.41 105.148 110.452 105.203 110.508C105.259 110.564 105.3 110.632 105.325 110.707C105.351 110.782 105.358 110.861 105.348 110.94V112.49H105.542C105.845 111.796 106.364 111.222 107.02 110.857C107.783 110.431 108.645 110.219 109.517 110.242H111.555C111.962 110.242 112.161 110.438 112.161 110.821V113.617C112.161 113.999 111.962 114.196 111.555 114.196H107.631C106.993 114.131 106.355 114.316 105.848 114.712C105.645 114.959 105.494 115.245 105.401 115.552C105.308 115.859 105.276 116.181 105.308 116.501V127.261C105.308 127.669 105.119 127.871 104.737 127.871L101.72 127.897Z" fill="white"/>
<path fill-rule="evenodd" clip-rule="evenodd" d="M126.882 124.356C127.284 124.356 127.488 124.547 127.488 124.935V127.287C127.505 127.371 127.501 127.458 127.477 127.54C127.452 127.623 127.408 127.698 127.348 127.758C127.288 127.819 127.213 127.863 127.132 127.887C127.051 127.911 126.965 127.915 126.882 127.896H121.022C117.564 127.896 115.835 126.138 115.835 122.62V113.87H114.52C114.138 113.87 113.944 113.663 113.944 113.255V110.94C113.934 110.861 113.942 110.78 113.967 110.705C113.993 110.63 114.035 110.562 114.091 110.506C114.147 110.45 114.214 110.407 114.289 110.382C114.363 110.357 114.442 110.35 114.52 110.361H115.835V107.57C115.835 107.182 116.033 106.991 116.441 106.991H119.498C119.576 106.981 119.654 106.989 119.728 107.014C119.802 107.04 119.869 107.082 119.924 107.138C119.979 107.194 120.021 107.262 120.046 107.337C120.071 107.412 120.079 107.492 120.069 107.57V110.361H126.693C127.096 110.361 127.3 110.552 127.3 110.94V113.255C127.311 113.339 127.304 113.424 127.278 113.504C127.252 113.584 127.207 113.657 127.148 113.717C127.089 113.776 127.018 113.821 126.939 113.848C126.86 113.875 126.776 113.882 126.693 113.87H120.044V122.041C119.982 122.681 120.165 123.321 120.553 123.829C121.047 124.229 121.677 124.415 122.306 124.346L126.882 124.356Z" fill="white"/>
<path fill-rule="evenodd" clip-rule="evenodd" d="M137.69 113.389C137.057 113.323 136.423 113.509 135.921 113.906C135.529 114.412 135.346 115.054 135.412 115.695V117.245H146.459V115.695C146.491 115.375 146.46 115.052 146.367 114.745C146.275 114.438 146.122 114.153 145.919 113.906C145.411 113.51 144.773 113.325 144.135 113.389H137.69ZM135.402 120.32V122.532C135.338 123.166 135.521 123.8 135.911 124.3C136.418 124.698 137.057 124.883 137.695 124.816H144.232C144.787 124.873 145.343 124.722 145.797 124.393C145.96 124.213 146.085 124 146.163 123.769C146.241 123.538 146.271 123.293 146.25 123.049V122.708C146.25 122.32 146.454 122.129 146.856 122.129H150.026C150.108 122.112 150.194 122.116 150.274 122.14C150.355 122.165 150.429 122.209 150.488 122.27C150.548 122.33 150.592 122.405 150.616 122.487C150.64 122.568 150.644 122.655 150.627 122.739V123.287C150.627 124.851 150.218 126.026 149.399 126.811C148.584 127.592 147.295 127.985 145.547 127.985H136.344C132.91 127.985 131.193 126.226 131.193 122.708V115.472C131.193 111.979 132.91 110.23 136.344 110.227H145.542C147.244 110.227 148.533 110.671 149.394 111.555C150.255 112.439 150.693 113.746 150.693 115.472V119.695C150.693 120.103 150.5 120.31 150.123 120.31L135.402 120.32Z" fill="white"/>
<path fill-rule="evenodd" clip-rule="evenodd" d="M155.544 127.896C155.461 127.915 155.375 127.911 155.294 127.887C155.212 127.863 155.138 127.819 155.078 127.758C155.018 127.698 154.973 127.623 154.949 127.54C154.924 127.458 154.921 127.371 154.938 127.287V110.94C154.938 110.552 155.137 110.361 155.544 110.361H158.601C158.679 110.351 158.757 110.359 158.831 110.384C158.905 110.41 158.972 110.452 159.027 110.508C159.082 110.564 159.124 110.632 159.149 110.707C159.174 110.781 159.182 110.861 159.172 110.94V112.49H159.407C159.713 111.797 160.233 111.224 160.889 110.857C161.651 110.431 162.511 110.219 163.381 110.242H165.419C165.822 110.242 166.026 110.438 166.026 110.821V113.617C166.026 113.999 165.822 114.196 165.419 114.196H161.496C160.858 114.131 160.22 114.316 159.712 114.712C159.509 114.959 159.356 115.244 159.264 115.551C159.171 115.858 159.14 116.181 159.172 116.501V127.261C159.172 127.669 158.979 127.871 158.601 127.871L155.544 127.896Z" fill="white"/>
<path fill-rule="evenodd" clip-rule="evenodd" d="M60.2633 77.2844L61.0276 73L57.1602 74.4523L59.1117 75.3567L60.2633 77.2844Z" fill="#1050A9"/>
<path fill-rule="evenodd" clip-rule="evenodd" d="M69.216 101.435C65.7816 101.435 64.0645 99.6765 64.0645 96.1587V88.9232C64.0645 85.4295 65.7816 83.6826 69.216 83.6826H78.2095C81.6439 83.6826 83.3611 85.4295 83.3611 88.9232V89.8431C83.3711 89.9215 83.3632 90.0012 83.3381 90.0761C83.3129 90.1509 83.2712 90.2189 83.216 90.2748C83.1609 90.3308 83.0939 90.3731 83.0201 90.3986C82.9463 90.4241 82.8677 90.4321 82.7904 90.422H79.6261C79.5494 90.4334 79.4712 90.4269 79.3974 90.403C79.3235 90.3791 79.256 90.3385 79.2 90.2841C79.144 90.2298 79.101 90.1633 79.0741 90.0895C79.0473 90.0158 79.0374 89.9368 79.0452 89.8586V89.4142C79.109 88.789 78.9359 88.1626 78.5611 87.6621C78.0687 87.2703 77.4467 87.0852 76.8236 87.1453H70.5663C69.9336 87.0835 69.3014 87.2683 68.7982 87.6621C68.6001 87.9149 68.4532 88.2047 68.3658 88.5151C68.2783 88.8255 68.2521 89.1503 68.2886 89.471V95.6005C68.2207 96.2397 68.4038 96.8803 68.7982 97.3835C69.298 97.7842 69.9329 97.9698 70.5663 97.9003H76.8287C77.4518 97.9604 78.0738 97.7754 78.5662 97.3835C78.941 96.883 79.1141 96.2567 79.0503 95.6315V95.156C79.0393 95.0767 79.0465 94.9959 79.0716 94.9199C79.0966 94.844 79.1387 94.7749 79.1945 94.7183C79.2504 94.6617 79.3184 94.619 79.3933 94.5936C79.4682 94.5682 79.5479 94.5608 79.6261 94.572H82.7904C82.8682 94.5617 82.9473 94.5697 83.0215 94.5955C83.0957 94.6213 83.1631 94.6641 83.2183 94.7207C83.2736 94.7772 83.3152 94.8459 83.34 94.9214C83.3647 94.9969 83.3719 95.0772 83.3611 95.156V96.107C83.3611 99.6282 81.6439 101.387 78.2095 101.384L69.216 101.435Z" fill="#1050A9"/>
<path fill-rule="evenodd" clip-rule="evenodd" d="M94.1076 86.8303C93.4744 86.7632 92.8403 86.9485 92.3394 87.3472C91.9467 87.8533 91.7639 88.4948 91.8299 89.1354V90.6858H102.867V89.1354C102.898 88.8159 102.866 88.4933 102.774 88.1863C102.681 87.8793 102.529 87.5941 102.327 87.3472C101.817 86.9537 101.181 86.7692 100.543 86.8303H94.1076ZM91.8197 93.7764V95.9884C91.7567 96.6239 91.9394 97.2595 92.3292 97.7611C92.8362 98.1592 93.4748 98.3443 94.1127 98.2779H100.64C101.196 98.3341 101.754 98.1835 102.209 97.8541C102.373 97.6743 102.497 97.462 102.576 97.2306C102.654 96.9993 102.683 96.754 102.663 96.5104V96.1693C102.663 95.7817 102.867 95.5904 103.269 95.5904H106.434C106.517 95.572 106.604 95.5751 106.686 95.5995C106.767 95.6239 106.842 95.6687 106.902 95.73C106.963 95.7912 107.007 95.8668 107.031 95.9499C107.055 96.033 107.058 96.1209 107.04 96.2055V96.7481C107.04 98.3158 106.631 99.4907 105.812 100.273C104.993 101.055 103.714 101.443 101.975 101.436H92.8031C89.3688 101.436 87.6499 99.6768 87.6465 96.1589V88.9235C87.6465 85.4298 89.3654 83.6812 92.8031 83.6777H101.975C103.674 83.6777 104.959 84.1205 105.832 85.006C106.699 85.8949 107.127 87.1973 107.127 88.9235V93.1459C107.127 93.5542 106.938 93.7609 106.556 93.7609L91.8197 93.7764Z" fill="#1050A9"/>
<path fill-rule="evenodd" clip-rule="evenodd" d="M61.7207 100.345L53.7259 83.5742L46.1489 95.8539H51.6826C52.6641 95.8529 53.6256 96.1352 54.4548 96.6678C55.284 97.2004 55.9467 97.9614 56.3654 98.8618L57.196 100.681C57.2825 100.852 57.4021 101.003 57.5475 101.125C57.7003 101.221 57.8778 101.268 58.0571 101.26H61.1144C61.5628 101.26 61.787 101.079 61.787 100.712C61.7953 100.586 61.7726 100.46 61.7207 100.345Z" fill="#1050A9"/>
<path fill-rule="evenodd" clip-rule="evenodd" d="M57.7464 77.0571L52.4063 80.8144L51.0203 77.9409C50.9505 77.767 50.828 77.6202 50.6704 77.5217C50.5128 77.4232 50.3284 77.3781 50.1439 77.3931H46.6739C46.4816 77.382 46.2899 77.423 46.1185 77.5119C45.9742 77.6206 45.8644 77.7697 45.8025 77.9409L40.3198 89.3109L35.0663 100.278C35.0163 100.397 34.9937 100.526 35.0001 100.655C34.9989 100.731 35.0132 100.807 35.0422 100.877C35.0711 100.947 35.114 101.011 35.1682 101.063C35.2319 101.123 35.3066 101.168 35.388 101.198C35.4695 101.227 35.5559 101.239 35.6421 101.234H38.7402C38.9247 101.249 39.1092 101.203 39.2661 101.104C39.4231 101.004 39.5442 100.856 39.6115 100.681L40.4421 98.8928C40.5961 98.5684 40.784 98.2617 41.0026 97.978L57.7464 77.0571Z" fill="#1050A9"/>
</svg>
