<?xml version="1.0" encoding="UTF-8" standalone="no"?><!-- Generator: Gravit.io --><svg xmlns="http://www.w3.org/2000/svg" xmlns:xlink="http://www.w3.org/1999/xlink" style="isolation:isolate" viewBox="0 0 512 512" width="512pt" height="512pt"><defs><clipPath id="_clipPath_r2GpoP16A4pn4wZtbQpJAuivkk3PXkPX"><rect width="512" height="512"/></clipPath></defs><g clip-path="url(#_clipPath_r2GpoP16A4pn4wZtbQpJAuivkk3PXkPX)"><rect x="0" y="0" width="512" height="512" transform="matrix(1,0,0,1,0,0)" fill="rgb(149,6,6)"/><path d=" M 371.007 307.103 C 371.007 318.942 371.007 330.78 371.007 342.619 C 371.007 351.151 369.301 359.043 364.608 366.296 C 362.048 370.242 358.422 373.015 354.476 375.361 C 346.477 380.16 337.731 382.294 328.453 383.147 C 324.08 383.573 319.707 383.787 315.334 384 C 314.055 384 313.415 383.68 313.415 382.294 C 313.415 378.561 312.135 375.041 311.815 371.308 C 311.495 368.642 311.388 368.535 313.948 368.535 C 316.508 368.535 318.961 368.109 321.414 367.362 C 323.44 366.722 325.573 367.149 327.599 366.829 C 333.785 365.656 339.438 363.309 344.557 359.577 C 348.93 356.377 350.423 351.898 351.49 347.098 C 352.023 344.539 351.17 343.792 348.503 344.325 C 346.37 344.752 344.131 345.178 341.998 345.712 C 332.612 347.951 323.547 347.631 315.014 342.725 C 308.935 339.206 305.096 333.873 304.029 326.834 C 301.896 312.863 303.389 298.785 302.963 284.706 C 302.749 278.947 302.963 273.295 302.963 267.535 C 302.963 266.149 303.389 265.722 304.776 265.722 C 310.215 265.722 315.654 265.722 321.094 265.722 C 323.12 265.722 323.12 267.002 323.12 268.388 C 323.12 280.12 323.12 291.959 323.12 303.691 C 323.12 309.77 323.333 315.956 323.12 322.035 C 323.013 325.661 327.173 329.607 330.266 329.927 C 336.772 330.674 343.064 329.5 349.357 328.434 C 351.063 328.114 351.703 327.367 351.703 325.554 C 351.703 306.357 351.703 287.266 351.596 268.069 C 351.596 266.042 352.023 265.509 354.049 265.616 C 359.062 265.829 363.968 265.829 368.981 265.616 C 370.9 265.616 371.22 266.255 371.22 267.962 C 371.22 281.08 371.22 294.198 371.22 307.317 L 371.22 307.317 L 371.007 307.103 Z  M 141.597 293.985 C 141.597 277.667 141.597 261.456 141.597 245.138 C 141.597 244.498 141.597 243.752 141.597 243.112 C 141.597 241.832 141.917 240.765 143.624 240.872 C 144.264 240.872 145.117 240.552 145.757 240.232 C 147.463 239.272 149.703 239.272 151.303 238.526 C 154.929 236.713 158.875 236.286 162.608 235.539 C 168.367 234.366 174.34 232.98 180.312 233.833 C 189.378 235.113 198.123 237.566 204.736 244.498 C 210.388 250.364 213.908 257.403 214.974 265.616 C 215.294 267.749 215.508 269.988 216.147 272.121 C 216.467 273.188 215.934 274.148 215.827 275.214 C 215.081 281.293 213.908 287.159 210.815 292.599 C 206.229 300.704 199.51 306.144 190.657 309.023 C 185.965 310.623 181.165 311.05 176.473 311.05 C 172.633 311.05 168.687 310.943 164.954 309.983 C 162.288 309.343 161.755 309.77 162.075 312.436 C 162.714 317.449 162.288 322.461 162.394 327.581 C 162.394 333.127 162.394 338.779 162.394 344.325 C 162.394 346.138 161.755 346.565 160.048 346.565 C 154.716 346.565 149.383 346.565 144.05 346.565 C 142.344 346.565 141.811 346.032 141.811 344.432 C 141.811 332.06 141.811 319.688 141.811 307.317 C 141.811 302.837 141.811 298.465 141.811 293.985 C 141.811 293.985 141.811 293.985 141.704 293.985 L 141.597 293.985 Z  M 162.075 272.441 C 162.075 272.441 162.288 272.441 162.288 272.441 C 162.288 278.521 162.288 284.6 162.288 290.786 C 162.288 291.959 162.608 292.919 163.781 293.025 C 168.367 293.239 172.953 294.305 177.539 293.985 C 185.218 293.559 191.511 288.759 193.857 281.4 C 195.777 275.428 195.67 269.562 193.857 263.482 C 191.831 256.123 182.445 249.511 174.98 250.684 C 171.14 251.324 167.301 251.324 163.568 252.391 C 162.288 252.711 161.861 253.244 161.861 254.524 C 161.861 260.496 161.861 266.575 161.861 272.548 L 162.075 272.441 Z  M 286.858 318.622 C 286.858 323.208 286.858 330.247 286.858 337.286 C 286.858 339.099 286.112 340.059 284.512 340.592 C 277.579 343.045 270.434 345.285 263.181 346.778 C 257.529 347.951 251.769 348.805 246.117 348.165 C 232.465 346.672 221.373 339.526 219.24 323.848 C 217.321 309.236 223.506 297.931 238.758 292.812 C 246.863 290.146 254.862 290.892 262.861 293.132 C 263.181 293.132 263.501 293.452 263.928 293.452 C 266.914 293.772 267.447 293.132 266.807 290.146 C 265.101 282.253 261.581 279.48 253.369 279.48 C 245.797 279.48 238.331 279.907 230.866 281.293 C 229.799 281.507 229.052 281.507 228.839 279.8 C 228.519 276.067 228.732 272.228 227.666 268.602 C 227.239 267.322 227.879 266.682 229.372 266.362 C 237.478 264.869 245.69 263.909 253.796 262.843 C 254.009 262.843 254.222 262.843 254.436 262.843 C 260.408 263.482 266.701 263.909 272.14 266.575 C 277.793 269.348 282.059 273.828 284.192 280.014 C 285.365 283.213 286.112 286.413 286.432 289.719 C 287.285 298.571 286.752 307.423 286.965 318.729 L 286.858 318.622 Z  M 266.701 319.795 L 266.701 319.795 C 266.701 317.129 266.594 314.356 266.701 311.689 C 266.807 309.663 265.848 309.13 264.141 308.917 C 261.475 308.597 258.915 308.17 256.249 307.637 C 251.023 306.677 245.797 306.677 241.851 311.05 C 238.758 314.462 237.265 318.729 238.864 322.995 C 241.637 330.46 245.797 332.06 253.583 331.847 C 256.889 331.847 260.088 331.1 263.395 330.994 C 266.381 330.887 266.807 330.14 266.701 327.261 C 266.701 324.808 266.701 322.248 266.701 319.795 Z  M 226.173 207.063 C 220.414 207.596 214.014 206.21 207.615 205.783 C 206.229 205.783 206.335 204.824 206.335 203.864 C 207.189 183.493 206.335 163.122 206.549 142.752 C 206.549 140.192 206.442 137.632 206.229 135.073 C 206.122 133.366 206.549 132.62 208.362 132.193 C 212.841 131.233 217.107 129.207 221.587 128.567 C 230.759 127.394 239.718 127.607 247.503 133.473 C 256.889 140.619 257.422 155.977 247.503 162.589 C 246.97 163.016 246.01 163.442 246.224 164.295 C 246.437 164.935 247.183 165.255 247.93 165.469 C 252.409 167.282 255.182 170.695 256.782 175.067 C 257.742 177.734 258.275 180.507 258.382 183.493 C 258.702 194.158 253.156 200.984 243.984 205.037 C 241.104 206.317 237.585 207.17 234.172 207.17 C 231.719 207.17 229.372 207.17 226.173 207.17 L 226.173 207.063 Z  M 218.494 184.453 C 218.494 188.186 218.6 191.492 218.494 194.798 C 218.387 196.931 219.347 197.571 221.267 197.464 C 224.146 197.464 227.133 197.464 230.012 197.464 C 232.892 197.464 235.772 197.145 238.545 196.078 C 244.73 193.625 249.316 184.346 244.837 177.307 C 243.024 174.534 240.784 172.081 237.158 171.121 C 231.399 169.628 225.64 169.948 219.774 169.841 C 218.174 169.841 218.067 170.801 218.28 171.974 C 218.92 176.241 218.28 180.507 218.6 184.346 L 218.494 184.453 Z  M 218.494 151.497 C 218.494 153.844 218.494 156.19 218.494 158.536 C 218.494 160.349 218.92 161.203 220.947 161.096 C 223.08 160.883 225.32 160.989 227.453 160.989 C 231.079 160.989 234.278 160.029 237.478 158.003 C 241.424 155.55 243.024 149.791 242.491 146.378 C 241.957 142.858 237.478 138.699 233.638 137.952 C 228.839 136.992 224.253 137.952 219.56 138.699 C 218.28 138.912 218.067 139.445 218.174 140.405 C 218.6 144.031 218.494 147.764 218.494 151.391 L 218.494 151.497 Z  M 187.671 129.847 C 189.804 129.847 191.937 129.847 193.964 129.847 C 194.497 129.847 195.137 129.633 195.35 130.273 C 195.563 130.7 195.03 131.127 194.817 131.446 C 191.297 136.139 187.778 140.832 184.152 145.525 C 179.139 151.924 174.126 158.216 169.007 164.402 C 168.154 165.469 168.154 165.895 169.007 166.962 C 174.233 173.254 179.246 179.76 184.472 186.159 C 189.698 192.558 194.39 199.384 200.256 205.357 C 200.576 205.677 201.003 205.997 200.789 206.53 C 200.576 206.957 200.256 207.17 199.723 207.17 C 196.737 207.063 193.644 206.637 190.764 206.957 C 187.138 207.277 185.431 205.463 183.192 202.797 C 179.032 197.678 174.873 192.665 170.927 187.439 C 168.367 183.92 165.167 180.827 162.608 177.307 C 161.008 175.174 159.195 173.148 157.808 170.908 C 156.742 169.202 155.142 167.922 153.862 166.429 C 153.222 165.682 153.436 165.469 153.969 164.829 C 160.048 157.683 166.021 150.537 171.993 143.392 C 175.299 139.339 178.286 135.073 181.165 130.807 C 181.805 129.847 182.658 129.953 183.725 130.06 C 185.112 130.167 186.391 130.06 187.778 130.06 L 187.778 130.06 L 187.671 129.847 Z  M 153.009 146.911 C 153.009 150.111 153.009 153.417 153.009 156.616 C 153.009 172.508 153.009 188.399 153.222 204.29 C 153.222 206.423 152.582 207.277 150.449 207.063 C 147.996 206.85 145.437 206.957 142.984 207.063 C 141.811 207.063 141.384 206.743 141.064 205.463 C 140.424 202.264 141.064 199.064 141.064 195.865 C 141.064 174.641 141.064 153.417 141.064 132.193 C 141.064 129.527 141.064 129.633 143.837 129.847 C 146.183 130.06 148.53 129.953 150.876 129.847 C 152.476 129.847 153.009 130.38 152.902 131.98 C 152.902 136.992 152.902 141.898 152.902 146.911 C 152.902 146.911 152.902 146.911 152.902 146.911 L 153.009 146.911 Z " fill-rule="evenodd" fill="rgb(255,255,255)"/></g></svg>