<?xml version="1.0" encoding="UTF-8" standalone="no"?><!-- Generator: Gravit.io --><svg xmlns="http://www.w3.org/2000/svg" xmlns:xlink="http://www.w3.org/1999/xlink" style="isolation:isolate" viewBox="0 0 512 512" width="512pt" height="512pt"><defs><clipPath id="_clipPath_MfHmKPyazaRPNgUeVRyVGythUp0I2vAj"><rect width="512" height="512"/></clipPath></defs><g clip-path="url(#_clipPath_MfHmKPyazaRPNgUeVRyVGythUp0I2vAj)"><path d="M 477.714 383.995 L 256.005 512 L 34.286 383.995 L 34.286 127.985 L 256.005 0 L 477.714 127.985 L 477.714 383.995 Z" fill-rule="evenodd" fill="rgb(0,103,79)" /><path d=" M 275.819 384 L 275.819 267.227 L 315.016 267.227 L 320.885 221.718 L 275.819 221.718 L 275.819 192.662 C 275.819 179.486 279.478 170.507 298.373 170.507 L 322.472 170.496 L 322.472 129.793 C 318.303 129.239 303.998 128 287.356 128 C 252.611 128 228.824 149.208 228.824 188.156 L 228.824 221.718 L 189.528 221.718 L 189.528 267.227 L 228.824 267.227 L 228.824 384 L 275.819 384 Z " fill="rgb(196,196,196)"/></g></svg>