<?xml version="1.0" encoding="UTF-8" standalone="no"?><!-- Generator: Gravit.io --><svg xmlns="http://www.w3.org/2000/svg" xmlns:xlink="http://www.w3.org/1999/xlink" style="isolation:isolate" viewBox="0 0 512 512" width="512pt" height="512pt"><defs><clipPath id="_clipPath_r0gWLmorntGX4HH6IGqLis2EyXJ4SpuC"><rect width="512" height="512"/></clipPath></defs><g clip-path="url(#_clipPath_r0gWLmorntGX4HH6IGqLis2EyXJ4SpuC)"><rect width="512" height="512" style="fill:rgb(27,27,29)"/><path d=" M 202.465 175.599 C 209.841 175.599 216.655 176.161 222.907 177.847 C 229.16 178.971 234.288 181.289 238.854 184.099 C 243.42 186.909 246.792 190.914 249.111 196.042 C 251.359 201.17 252.553 207.422 252.553 214.236 C 252.553 222.175 250.867 228.989 246.863 234.117 C 243.42 239.245 237.8 243.812 230.916 247.184 C 240.61 249.994 247.987 255.122 252.483 261.936 C 256.979 268.75 259.859 277.251 259.859 286.945 C 259.859 294.883 258.173 301.697 255.293 307.388 C 252.483 313.078 247.916 318.206 242.788 321.578 C 237.66 325.02 231.408 327.83 224.593 329.516 C 217.779 331.202 210.965 332.326 204.151 332.326 L 128 332.467 L 128 175.599 L 202.465 175.599 Z  M 197.899 239.245 C 204.151 239.245 209.279 237.559 213.213 234.679 C 217.147 231.799 218.903 226.741 218.903 220.489 C 218.903 217.046 218.341 213.674 217.217 211.427 C 216.093 209.179 214.407 207.422 212.089 205.736 C 209.841 204.612 207.523 203.488 204.713 202.926 C 201.903 202.364 199.023 202.364 195.651 202.364 L 162.703 202.364 L 162.703 239.316 C 162.703 239.245 197.899 239.245 197.899 239.245 Z  M 199.585 306.334 C 203.027 306.334 206.399 305.772 209.279 305.21 C 212.089 304.648 214.969 303.524 217.217 301.768 C 219.465 300.012 221.221 298.326 222.907 295.516 C 224.031 292.706 225.155 289.263 225.155 285.259 C 225.155 277.321 222.907 271.631 218.341 267.626 C 213.775 264.184 207.523 262.498 200.147 262.498 L 162.703 262.498 L 162.703 306.264 L 199.585 306.264 L 199.585 306.334 Z  M 309.315 305.772 C 313.881 310.338 320.695 312.586 329.757 312.586 C 336.01 312.586 341.7 310.9 346.266 308.02 C 350.832 304.578 353.642 301.206 354.766 297.764 L 382.585 297.764 C 378.019 311.392 371.205 321.086 362.143 327.339 C 353.08 333.029 342.262 336.401 329.195 336.401 C 320.133 336.401 312.125 334.715 304.749 331.835 C 297.372 329.025 291.682 325.02 286.554 319.33 C 281.426 314.202 277.492 307.95 275.173 300.573 C 272.363 293.197 271.169 285.259 271.169 276.127 C 271.169 267.626 272.293 259.618 275.173 252.242 C 278.054 244.865 281.988 238.613 287.116 232.923 C 292.244 227.795 298.496 223.228 305.31 220.418 C 312.687 217.608 320.063 215.852 329.195 215.852 C 338.89 215.852 347.39 217.538 354.766 221.542 C 362.143 225.547 367.833 230.043 372.399 236.857 C 376.965 243.109 380.337 250.485 382.656 258.424 C 383.78 266.362 384.342 274.37 383.78 283.433 L 301.377 283.433 C 301.377 292.706 304.749 301.206 309.315 305.772 Z  M 345.142 246.06 C 341.138 242.055 334.886 239.807 327.509 239.807 C 322.381 239.807 318.447 240.931 315.005 242.617 C 311.563 244.303 309.315 246.622 307.067 248.87 C 304.819 251.118 303.625 253.998 303.063 256.808 C 302.501 259.618 301.939 261.936 301.939 264.184 L 353.08 264.184 C 351.956 255.754 349.076 250.064 345.142 246.06 Z  M 295.124 186.418 L 358.771 186.418 L 358.771 201.732 L 295.124 201.732 L 295.124 186.418 Z " fill-rule="evenodd" fill="rgb(102,0,51)"/></g></svg>