<?xml version="1.0" encoding="UTF-8" standalone="no"?><!-- Generator: Gravit.io --><svg xmlns="http://www.w3.org/2000/svg" xmlns:xlink="http://www.w3.org/1999/xlink" style="isolation:isolate" viewBox="0 0 512 512" width="512pt" height="512pt"><defs><clipPath id="_clipPath_9eVI5EKZlyel3dvovIIjWP0sudxQkRPD"><rect width="512" height="512"/></clipPath></defs><g clip-path="url(#_clipPath_9eVI5EKZlyel3dvovIIjWP0sudxQkRPD)"><path d="M 477.714 383.995 L 256.005 512 L 34.286 383.995 L 34.286 127.985 L 256.005 0 L 477.714 127.985 L 477.714 383.995 Z" fill-rule="evenodd" fill="rgb(0,103,79)" /><path d=" M 167.893 239.632 C 181.891 213.636 206.288 173.108 220.019 148.445 C 227.485 135.113 247.348 119.249 273.345 133.78 C 297.741 147.378 291.475 176.708 286.276 184.84 C 282.143 191.372 272.278 208.836 272.278 208.836 C 272.278 208.836 269.479 212.836 270.278 215.369 C 271.078 217.768 274.011 217.502 277.477 217.768 C 281.344 218.035 314.939 218.835 314.939 218.835 C 314.939 218.835 333.603 219.235 343.735 237.232 C 353.867 255.23 343.735 275.76 343.735 275.76 L 289.342 368.414 C 289.342 368.414 270.812 396.81 237.883 376.946 C 214.686 362.948 222.552 336.018 227.218 326.686 C 229.751 321.62 241.349 302.023 241.349 302.023 C 241.349 302.023 243.882 298.557 243.082 296.291 C 242.416 294.424 238.016 294.558 238.016 294.558 L 199.089 293.624 C 191.756 293.358 177.358 288.292 170.293 277.227 C 164.427 268.161 160.294 253.763 167.893 239.632 L 167.893 239.632 Z " fill="rgb(196,196,196)"/></g></svg>