<?xml version="1.0" encoding="utf-8"?>
<!-- Generator: Adobe Illustrator 19.0.0, SVG Export Plug-In . SVG Version: 6.00 Build 0)  -->
<svg version="1.1" id="Layer_1" xmlns="http://www.w3.org/2000/svg" xmlns:xlink="http://www.w3.org/1999/xlink" x="0px" y="0px"
	 viewBox="-388 266.3 64 64" style="enable-background:new -388 266.3 64 64;" xml:space="preserve">
<style type="text/css">
	.st0{fill:#1D8345;}
	.st1{fill:#FFFFFF;}
	.st2{fill:#010202;}
	.st3{fill:#E52520;}
	.st4{fill:#FEF9D5;}
	.st5{fill:#FFEE59;}
	.st6{fill:#F4DB2C;}
	.st7{fill:#F38F1C;}
	.st8{fill:#EC631D;}
	.st9{fill:#CE3517;}
	.st10{fill:#FEC81A;}
	.st11{fill:#C9161B;}
	.st12{fill:#A01D20;}
	.st13{fill:#FFF2B4;}
	.st14{fill:#F07E20;}
</style>
<rect x="-388" y="266.3" class="st0" width="64" height="64"/>
<g>
	<g>
		<polygon class="st1" points="-334.3,274.9 -338.5,274.9 -338.5,276.9 -348.8,276.9 -348.8,274.9 -352.9,274.9 -352.9,276.9
			-357,276.9 -357,287.3 -359.1,287.3 -359.1,289.3 -361.2,289.3 -361.2,293.4 -359.1,293.4 -359.1,297.6 -355,297.6 -355,299.6
			-350.8,299.6 -350.8,303.8 -348.8,303.8 -348.8,307.9 -338.5,307.9 -338.5,303.8 -336.4,303.8 -336.4,299.6 -332.3,299.6
			-332.3,297.6 -328.1,297.6 -328.1,293.4 -326.1,293.4 -326.1,289.3 -328.1,289.3 -328.1,287.3 -330.2,287.3 -330.2,276.9
			-334.3,276.9 		"/>
		<g>
			<rect x="-348.8" y="270.7" class="st2" width="10.3" height="6.2"/>
			<rect x="-352.9" y="272.8" class="st2" width="4.1" height="2.1"/>
			<rect x="-352.9" y="285.2" class="st2" width="4.1" height="2.1"/>
			<rect x="-348.8" y="307.9" class="st2" width="10.3" height="2.1"/>
			<rect x="-359.1" y="276.9" class="st2" width="2.1" height="10.3"/>
			<rect x="-361.2" y="293.4" class="st2" width="2.1" height="6.2"/>
			<rect x="-361.2" y="297.6" class="st2" width="6.2" height="2.1"/>
			<rect x="-361.2" y="279" class="st2" width="2.1" height="10.3"/>
			<rect x="-363.2" y="285.2" class="st2" width="2.1" height="8.3"/>
			<rect x="-350.8" y="287.3" class="st2" width="2.1" height="6.2"/>
			<rect x="-357" y="274.9" class="st2" width="4.1" height="2.1"/>
			<rect x="-357" y="283.1" class="st2" width="4.1" height="2.1"/>
			<rect x="-357" y="303.8" class="st2" width="8.3" height="2.1"/>
			<rect x="-352.9" y="305.8" class="st2" width="4.1" height="2.1"/>
			<rect x="-359.1" y="299.6" class="st2" width="8.3" height="4.1"/>
			<rect x="-348.8" y="283.1" class="st2" width="10.3" height="14.5"/>
			<rect x="-350.8" y="297.6" class="st2" width="2.1" height="2.1"/>
			<rect x="-338.5" y="272.8" class="st2" width="4.1" height="2.1"/>
			<rect x="-338.5" y="285.2" class="st2" width="4.1" height="2.1"/>
			<rect x="-330.2" y="276.9" class="st2" width="2.1" height="10.3"/>
			<rect x="-328.1" y="293.4" class="st2" width="2.1" height="6.2"/>
			<rect x="-332.3" y="297.6" class="st2" width="6.2" height="2.1"/>
			<rect x="-328.1" y="279" class="st2" width="2.1" height="10.3"/>
			<rect x="-326.1" y="285.2" class="st2" width="2.1" height="8.3"/>
			<rect x="-338.5" y="287.3" class="st2" width="2.1" height="6.2"/>
			<rect x="-334.3" y="274.9" class="st2" width="4.1" height="2.1"/>
			<rect x="-334.3" y="283.1" class="st2" width="4.1" height="2.1"/>
			<rect x="-338.5" y="303.8" class="st2" width="8.3" height="2.1"/>
			<rect x="-338.5" y="305.8" class="st2" width="4.1" height="2.1"/>
			<rect x="-336.4" y="299.6" class="st2" width="8.3" height="4.1"/>
			<rect x="-338.5" y="297.6" class="st2" width="2.1" height="2.1"/>
		</g>
	</g>
	<g>
		<rect x="-361.2" y="299" class="st3" width="2.1" height="2.1"/>
		<rect x="-359.1" y="299" class="st4" width="2.1" height="2.1"/>
		<rect x="-357" y="299" class="st5" width="2.1" height="2.1"/>
		<rect x="-355" y="299" class="st5" width="2.1" height="2.1"/>
		<rect x="-352.9" y="299" class="st6" width="2.1" height="2.1"/>
		<rect x="-350.8" y="299" class="st6" width="2.1" height="2.1"/>
		<rect x="-348.8" y="299" class="st5" width="2.1" height="2.1"/>
		<rect x="-346.7" y="299" class="st5" width="2.1" height="2.1"/>
		<rect x="-344.6" y="299" class="st7" width="2.1" height="2.1"/>
		<rect x="-342.6" y="299" class="st7" width="2.1" height="2.1"/>
		<rect x="-340.5" y="299" class="st8" width="2.1" height="2.1"/>
		<rect x="-336.4" y="299" class="st3" width="2.1" height="2.1"/>
		<rect x="-334.3" y="299" class="st6" width="2.1" height="2.1"/>
		<rect x="-332.3" y="299" class="st8" width="2.1" height="2.1"/>
		<rect x="-330.2" y="299" class="st8" width="2.1" height="2.1"/>
		<rect x="-326.1" y="299" class="st8" width="2.1" height="2.1"/>
		<rect x="-365.3" y="296.9" class="st8" width="2.1" height="2.1"/>
		<rect x="-359.1" y="296.9" class="st8" width="2.1" height="2.1"/>
		<rect x="-357" y="296.9" class="st5" width="2.1" height="2.1"/>
		<rect x="-355" y="296.9" class="st7" width="2.1" height="2.1"/>
		<rect x="-352.9" y="296.9" class="st6" width="2.1" height="2.1"/>
		<rect x="-350.8" y="296.9" class="st7" width="2.1" height="2.1"/>
		<rect x="-348.8" y="296.9" class="st7" width="2.1" height="2.1"/>
		<rect x="-346.7" y="296.9" class="st7" width="2.1" height="2.1"/>
		<rect x="-344.6" y="296.9" class="st7" width="2.1" height="2.1"/>
		<rect x="-336.4" y="296.9" class="st3" width="2.1" height="2.1"/>
		<rect x="-367.4" y="294.9" class="st7" width="2.1" height="2.1"/>
		<rect x="-357" y="294.9" class="st8" width="2.1" height="2.1"/>
		<rect x="-355" y="294.9" class="st6" width="2.1" height="2.1"/>
		<rect x="-352.9" y="294.9" class="st8" width="2.1" height="2.1"/>
		<rect x="-350.8" y="294.9" class="st7" width="2.1" height="2.1"/>
		<rect x="-348.8" y="294.9" class="st7" width="2.1" height="2.1"/>
		<rect x="-346.7" y="294.9" class="st3" width="2.1" height="2.1"/>
		<rect x="-330.2" y="294.9" class="st9" width="2.1" height="2.1"/>
		<rect x="-357" y="292.8" class="st8" width="2.1" height="2.1"/>
		<rect x="-355" y="292.8" class="st8" width="2.1" height="2.1"/>
		<rect x="-334.3" y="292.8" class="st9" width="2.1" height="2.1"/>
		<rect x="-363.2" y="290.7" class="st8" width="2.1" height="2.1"/>
		<rect x="-342.6" y="288.7" class="st9" width="2.1" height="2.1"/>
		<rect x="-348.8" y="286.6" class="st9" width="2.1" height="2.1"/>
		<rect x="-336.4" y="286.6" class="st9" width="2.1" height="2.1"/>
		<rect x="-355" y="284.5" class="st9" width="2.1" height="2.1"/>
	</g>
	<g>
		<polygon class="st10" points="-352.9,301 -352.9,303.1 -363.3,303.1 -363.3,305.2 -365.3,305.2 -365.3,307.2 -369.5,307.2
			-369.5,309.3 -371.5,309.3 -371.5,313.4 -373.6,313.4 -373.6,319.6 -371.5,319.6 -371.5,321.7 -367.4,321.7 -367.4,323.8
			-357.1,323.8 -357.1,321.7 -352.9,321.7 -352.9,319.6 -348.8,319.6 -348.8,317.6 -344.7,317.6 -344.7,315.5 -338.5,315.5
			-338.5,313.4 -332.3,313.4 -332.3,309.3 -330.2,309.3 -330.2,303.1 -334.3,303.1 -334.3,301 		"/>
		<g>
			<rect x="-334.3" y="301" class="st2" width="4.1" height="2.1"/>
			<rect x="-334.3" y="307.2" class="st2" width="2.1" height="2.1"/>
			<rect x="-367.4" y="313.4" class="st2" width="2.1" height="2.1"/>
			<rect x="-383.9" y="319.6" class="st2" width="12.3" height="2.1"/>
			<rect x="-373.6" y="309.3" class="st2" width="2.1" height="4.1"/>
			<rect x="-375.7" y="313.4" class="st2" width="2.1" height="6.2"/>
			<rect x="-365.3" y="303.1" class="st2" width="2.1" height="2.1"/>
			<rect x="-369.5" y="315.5" class="st2" width="2.1" height="8.3"/>
			<rect x="-357.1" y="307.2" class="st2" width="8.3" height="2.1"/>
			<rect x="-363.3" y="301" class="st2" width="10.3" height="2.1"/>
			<rect x="-338.5" y="313.4" class="st2" width="6.2" height="2.1"/>
			<rect x="-344.7" y="315.5" class="st2" width="6.2" height="2.1"/>
			<rect x="-348.8" y="305.2" class="st2" width="14.5" height="2.1"/>
			<rect x="-352.9" y="299" class="st2" width="18.6" height="2.1"/>
			<rect x="-330.2" y="303.1" class="st2" width="2.1" height="8.3"/>
			<rect x="-332.3" y="309.3" class="st2" width="2.1" height="4.1"/>
			<rect x="-348.8" y="317.6" class="st2" width="4.1" height="2.1"/>
			<rect x="-352.9" y="319.6" class="st2" width="4.1" height="2.1"/>
			<rect x="-361.2" y="309.3" class="st2" width="4.1" height="2.1"/>
			<rect x="-369.5" y="305.2" class="st2" width="4.1" height="2.1"/>
			<rect x="-388" y="307.2" class="st2" width="18.5" height="2.1"/>
			<rect x="-365.3" y="311.4" class="st2" width="4.1" height="2.1"/>
			<rect x="-371.5" y="321.7" class="st2" width="4.1" height="2.1"/>
			<rect x="-388" y="321.7" class="st2" width="4.1" height="2.1"/>
			<rect x="-357.1" y="321.7" class="st2" width="4.1" height="2.1"/>
			<rect x="-367.4" y="323.8" class="st2" width="10.3" height="2.1"/>
		</g>
		<polygon class="st11" points="-388,309.3 -388,321.7 -383.9,321.7 -383.9,319.6 -375.7,319.6 -375.7,313.4 -373.6,313.4
			-373.6,309.3 		"/>
		<g>
			<rect x="-383.9" y="317.6" class="st12" width="8.2" height="2.1"/>
			<rect x="-388" y="319.6" class="st12" width="4.1" height="2.1"/>
		</g>
		<g>
			<polygon class="st13" points="-369.5,309.3 -363.3,309.3 -363.3,307.2 -359.1,307.2 -359.1,305.2 -355,305.2 -355,303.1
				-363.3,303.1 -363.3,305.2 -365.3,305.2 -365.3,307.2 -369.5,307.2 			"/>
			<rect x="-332.3" y="303.1" class="st13" width="2.1" height="2.1"/>
			<rect x="-352.9" y="301" class="st13" width="18.6" height="2.1"/>
		</g>
		<polygon class="st14" points="-332.3,309.3 -334.3,309.3 -334.3,307.2 -348.8,307.2 -348.8,309.3 -357.1,309.3 -357.1,311.4
			-361.2,311.4 -361.2,313.4 -365.3,313.4 -365.3,315.5 -367.4,315.5 -367.4,323.8 -357.1,323.8 -357.1,321.7 -352.9,321.7
			-352.9,319.6 -348.8,319.6 -348.8,317.6 -344.7,317.6 -344.7,315.5 -338.5,315.5 -338.5,313.4 -332.3,313.4 		"/>
	</g>
</g>
</svg>
