<?xml version="1.0" encoding="UTF-8" standalone="no"?><!-- Generator: Gravit.io --><svg xmlns="http://www.w3.org/2000/svg" xmlns:xlink="http://www.w3.org/1999/xlink" style="isolation:isolate" viewBox="0 0 512 512" width="512pt" height="512pt"><defs><clipPath id="_clipPath_qN30D8Aees25ceBQczDvSbRp4KRcglxn"><rect width="512" height="512"/></clipPath></defs><g clip-path="url(#_clipPath_qN30D8Aees25ceBQczDvSbRp4KRcglxn)"><path d="M 477.714 383.995 L 256.005 512 L 34.286 383.995 L 34.286 127.985 L 256.005 0 L 477.714 127.985 L 477.714 383.995 Z" fill-rule="evenodd" fill="rgb(237,29,36)" /><path d=" M 161.103 227.092 C 143.046 227.092 128 234.753 128 257.864 C 128 276.173 138.118 287.703 161.569 287.703 C 189.172 287.703 190.942 269.52 190.942 269.52 L 177.567 269.52 C 177.567 269.52 174.699 279.311 160.753 279.311 C 149.395 279.311 141.225 271.638 141.225 260.883 L 192.341 260.883 L 192.341 254.134 C 192.341 243.494 185.586 227.092 161.103 227.092 L 161.103 227.092 Z  M 160.637 235.718 C 171.449 235.718 178.82 242.341 178.82 252.269 L 141.521 252.269 C 141.521 241.73 151.142 235.718 160.637 235.718 Z  M 192.331 204.713 L 192.331 276.097 C 192.331 280.149 192.042 285.838 192.042 285.838 L 204.799 285.838 C 204.799 285.838 205.257 281.752 205.257 278.017 C 205.257 278.017 211.56 287.878 228.698 287.878 C 246.744 287.878 259.003 275.348 259.003 257.398 C 259.003 240.698 247.743 227.267 228.727 227.267 C 210.919 227.267 205.386 236.883 205.386 236.883 L 205.386 204.713 L 192.331 204.713 Z  M 225.434 236.096 C 237.689 236.096 245.482 245.192 245.482 257.398 C 245.482 270.486 236.481 279.048 225.521 279.048 C 212.441 279.048 205.386 268.836 205.386 257.514 C 205.386 246.965 211.717 236.096 225.434 236.096 Z  M 290.707 227.092 C 263.542 227.092 261.8 241.966 261.8 244.343 L 275.321 244.343 C 275.321 244.343 276.03 235.659 289.774 235.659 C 298.706 235.659 305.627 239.747 305.627 247.607 L 305.627 250.404 L 289.774 250.404 C 268.73 250.404 257.604 256.56 257.604 269.053 C 257.604 281.348 267.884 288.038 281.776 288.038 C 300.708 288.038 306.807 277.577 306.807 277.577 C 306.807 281.738 307.127 285.838 307.127 285.838 L 319.147 285.838 C 319.147 285.838 318.681 280.756 318.681 277.504 L 318.681 249.399 C 318.681 230.97 303.817 227.092 290.707 227.092 L 290.707 227.092 Z  M 305.627 258.796 L 305.627 262.526 C 305.627 267.391 302.625 279.485 284.952 279.485 C 275.274 279.485 271.125 274.656 271.125 269.053 C 271.125 258.862 285.098 258.796 305.627 258.796 L 305.627 258.796 Z  M 311.4 229.426 L 326.611 229.426 L 348.441 273.16 L 370.221 229.426 L 384 229.426 L 344.328 307.287 L 329.875 307.287 L 341.323 285.582 L 311.4 229.426 Z " fill-rule="evenodd" fill="rgb(239,191,4)"/></g></svg>