<?xml version="1.0" encoding="UTF-8" standalone="no"?><!-- Generator: Gravit.io --><svg xmlns="http://www.w3.org/2000/svg" xmlns:xlink="http://www.w3.org/1999/xlink" style="isolation:isolate" viewBox="0 0 512 512" width="512pt" height="512pt"><defs><clipPath id="_clipPath_gxcTiRgEtkNmFS9WkMA6u7SMNjrfavtn"><rect width="512" height="512"/></clipPath></defs><g clip-path="url(#_clipPath_gxcTiRgEtkNmFS9WkMA6u7SMNjrfavtn)"><rect x="0" y="0" width="512" height="512" transform="matrix(1,0,0,1,0,0)" fill="rgb(0,0,128)"/><path d=" M 370.869 306.654 L 332.941 202.229 L 332.915 202.16 L 332.167 202.16 L 324.356 223.619 L 310.137 262.685 L 310.104 262.654 C 305.176 258.306 298.223 255.588 289.467 254.576 L 286.796 254.3 L 289.446 253.96 C 303.885 251.365 313.592 242.246 313.592 231.258 C 313.592 216.191 299.421 205.674 279.121 205.674 L 236.885 205.674 L 236.885 206.437 L 249.158 206.437 L 249.158 284.292 L 219.351 202.229 L 219.325 202.16 L 218.577 202.16 L 210.766 223.619 L 180.641 306.385 L 180.456 306.407 C 179.941 306.47 179.432 306.521 178.928 306.559 C 178.17 306.618 177.417 306.654 176.661 306.654 L 146.223 306.654 L 204.082 206.437 L 204.512 205.684 L 133.748 205.684 L 133.748 236.685 L 134.499 236.685 C 134.632 221.585 143.426 206.437 162.856 206.437 L 186.297 206.437 L 128 307.405 L 206.537 307.405 L 206.537 277.703 L 205.786 277.703 C 205.684 290.864 198.223 303.365 181.998 306.188 L 181.483 306.276 L 193.839 272.314 L 228.452 272.314 L 240.924 306.654 L 228.621 306.654 L 228.621 307.405 L 276.911 307.405 L 276.911 306.654 L 264.555 306.654 L 264.555 254.854 L 278.812 254.854 C 293.321 254.854 301.642 261.336 301.642 272.632 L 301.642 281.821 C 301.642 282.833 301.711 284.313 301.787 285.551 L 301.787 285.596 L 294.124 306.649 L 284.114 306.649 L 284.114 307.4 L 304.836 307.4 L 304.836 306.649 L 294.932 306.649 L 301.911 287.478 C 301.925 287.663 301.932 287.775 301.932 287.775 L 302.125 289.503 L 302.31 290.646 C 303.474 297.715 306.178 302.911 310.344 306.091 L 310.943 306.525 C 314.108 308.726 318.04 309.84 322.638 309.84 C 328.728 309.84 332.789 308.322 336.142 304.748 L 335.702 304.335 C 332.613 307.186 330.021 308.341 326.773 308.341 C 321.239 308.341 318.342 301.628 318.342 295.008 L 318.342 282.134 C 318.371 278.94 317.871 275.762 316.862 272.732 L 316.724 272.333 L 316.724 272.318 L 342.042 272.318 L 354.514 306.658 L 342.211 306.658 L 342.211 307.409 L 384 307.409 L 384 306.658 L 370.869 306.654 Z  M 194.114 271.563 L 211.165 224.717 L 228.179 271.563 L 194.114 271.563 Z  M 264.562 254.1 L 264.562 206.437 L 275.445 206.437 C 289.983 206.437 297.658 215.079 297.658 231.42 C 297.658 248.799 293.252 254.1 278.812 254.1 L 264.562 254.1 Z  M 316.429 271.563 L 316.356 271.377 C 315.23 268.637 313.593 266.137 311.53 264.011 L 310.817 263.298 L 310.741 263.227 L 324.746 224.717 L 341.759 271.563 L 316.429 271.563 Z " fill="rgb(255,255,255)"/></g></svg>