<?xml version="1.0" encoding="UTF-8" standalone="no"?><!-- Generator: Gravit.io --><svg xmlns="http://www.w3.org/2000/svg" xmlns:xlink="http://www.w3.org/1999/xlink" style="isolation:isolate" viewBox="0 0 512 512" width="512pt" height="512pt"><defs><clipPath id="_clipPath_KFsPJnuzGCxjP0pr6KdU4npgp7gn0vPs"><rect width="512" height="512"/></clipPath></defs><g clip-path="url(#_clipPath_KFsPJnuzGCxjP0pr6KdU4npgp7gn0vPs)"><path d="M 477.714 383.995 L 256.005 512 L 34.286 383.995 L 34.286 127.985 L 256.005 0 L 477.714 127.985 L 477.714 383.995 Z" fill-rule="evenodd" fill="rgb(237,29,36)" /><path d=" M 316.345 275.603 C 316.482 279.172 316.461 282.713 316.283 286.185 C 281.587 287.56 248.687 289.651 248.687 292.002 C 248.687 294.312 280.852 296.382 315.148 297.75 C 314.543 301.711 313.766 305.596 312.817 309.405 C 279.009 310.787 247.635 312.822 247.635 315.112 C 247.635 317.319 276.925 319.306 309.359 320.688 C 307.874 324.827 306.189 328.85 304.298 332.7 C 276.444 334.041 253.424 335.829 253.424 337.781 C 253.424 339.603 273.536 341.288 298.887 342.587 C 297.464 344.905 295.978 347.174 294.424 349.319 C 292.774 351.657 290.98 353.974 289.082 356.25 C 273.233 357.453 262.356 358.821 262.356 360.286 C 262.356 361.544 270.146 362.72 282.151 363.772 C 275.598 370.256 267.856 376.313 258.732 381.601 C 258.732 381.601 247.985 372.346 239.115 361.537 C 231.208 351.897 214.431 326.484 210.485 320.798 C 206.531 315.112 203.932 313.448 199.311 315.098 C 193.116 317.291 185.917 318.391 183.703 318.391 C 181.489 318.391 180.272 317.532 183.985 316.061 C 187.684 314.569 202.309 307.665 209.508 293.398 C 217.594 277.329 210.485 255.141 210.485 255.141 C 207.769 267.002 201.594 271.43 201.594 271.43 C 203.588 260.415 201.415 250.431 195.977 243.425 L 192.944 257.369 C 192.944 257.369 191.047 257.272 186.35 261.219 C 181.661 265.173 180.369 270.935 180.369 270.935 C 184.061 272.42 188.503 268.714 188.503 268.714 C 182.83 289.939 174.696 307.218 168.762 316.356 C 162.835 325.494 157.946 328.939 152.006 331.352 C 146.993 333.36 145.343 331.002 145.343 331.002 C 140.963 327.22 137.69 323.755 134.28 319.636 C 134.28 319.636 134.005 319.155 134.926 319.168 C 137.367 319.203 141.713 315.029 142.662 313.296 C 143.748 311.309 143.631 309.79 143.088 309.687 C 142.552 309.597 141.623 311.172 136.913 314.142 C 132.231 317.106 130.079 315.05 128.518 313.4 C 127.308 312.086 128.497 310.464 129.254 309.446 C 129.969 308.538 154.742 262.34 220.296 213.804 C 306.203 150.195 361.065 133.02 364.207 131.782 C 366.284 130.964 369.673 129.884 370.443 130.675 C 371.296 131.569 371.715 132.284 371.599 133.322 C 371.489 134.354 370.938 134.883 366.964 136.636 C 333.988 151.165 295.49 175.381 273.618 189.477 C 246.72 202.582 221.039 221.298 220.104 221.745 C 218.034 223.031 219.561 224.901 220.812 224.117 C 266.234 193.905 319.487 173.326 378.337 156.466 C 381.149 155.669 382.689 155.669 383.157 156.287 C 383.686 156.975 383.913 157.759 383.996 158.625 C 384.071 159.705 383.177 160.275 380.764 161.217 C 317.541 184.705 270.944 206.522 240.972 226.689 C 240.972 226.689 237.871 228.559 237.83 230.725 C 237.816 231.55 239.494 231.646 239.494 231.646 C 254.497 231.914 274.553 232.794 284.097 233.351 C 284.097 233.351 282.736 238.185 273.598 242.077 C 266.543 245.088 260.011 244.607 253.548 244.662 C 252.111 244.635 250.894 246.085 252.042 247.632 C 252.62 248.403 266.371 270.543 316.345 275.603 Z " fill="rgb(255,255,255)"/></g></svg>