<?xml version="1.0" encoding="UTF-8" standalone="no"?><!-- Generator: Gravit.io --><svg xmlns="http://www.w3.org/2000/svg" xmlns:xlink="http://www.w3.org/1999/xlink" style="isolation:isolate" viewBox="0 0 512 512" width="512pt" height="512pt"><defs><clipPath id="_clipPath_62tq9cvQ9NwRVGSyJYRNTLxtX8fKLlxr"><rect width="512" height="512"/></clipPath></defs><g clip-path="url(#_clipPath_62tq9cvQ9NwRVGSyJYRNTLxtX8fKLlxr)"><rect x="0" y="0" width="512" height="512" transform="matrix(1,0,0,1,0,0)" fill="rgb(27,27,29)"/><path d=" M 164.975 166.621 C 164.925 167.171 164.825 167.721 164.775 168.296 C 160.45 217.646 194.075 259.471 250.425 274.896 C 272.025 280.796 307.75 296.421 304.4 334.621 C 303.125 349.096 296.3 362.196 285.175 371.521 C 274.275 380.671 260.55 384.446 246.35 383.971 C 182.9 381.796 128 323.921 128 256.521 C 128 221.471 142.125 189.721 164.975 166.621 L 164.975 166.621 L 164.975 166.621 Z  M 232.75 138.996 C 242.425 130.871 254.675 127.496 267.25 128.046 C 330.625 130.871 384 188.471 384 255.321 C 384 285.771 373.325 313.746 355.55 335.696 C 359.1 283.346 324.2 240.796 263.925 224.321 C 239 217.496 213.275 200.071 215.775 171.546 C 216.9 158.796 222.925 147.221 232.75 138.996 L 232.75 138.996 L 232.75 138.996 Z " fill="rgb(255,255,255)"/></g></svg>