<?xml version="1.0" encoding="UTF-8" standalone="no"?><!-- Generator: Gravit.io --><svg xmlns="http://www.w3.org/2000/svg" xmlns:xlink="http://www.w3.org/1999/xlink" style="isolation:isolate" viewBox="0 0 512 512" width="512pt" height="512pt"><defs><clipPath id="_clipPath_DQAhfvS0FCN4wPROPD5UjJyT7u4jxVVU"><rect width="512" height="512"/></clipPath></defs><g clip-path="url(#_clipPath_DQAhfvS0FCN4wPROPD5UjJyT7u4jxVVU)"><circle vector-effect="non-scaling-stroke" cx="256" cy="256" r="256" fill="rgb(27,27,29)" /><linearGradient id="_lgradient_0" x1="1.544943695619243" y1="-1.1148648508035048" x2="1.5043922961274183" y2="1.2033283676344397" gradientTransform="matrix(256,0,0,219.059,128,146.471)" gradientUnits="userSpaceOnUse"><stop offset="0%" stop-opacity="1" style="stop-color:rgb(85,0,0)"/><stop offset="100%" stop-opacity="1" style="stop-color:rgb(85,0,0)"/></linearGradient><path d=" M 197.143 252.427 L 248.879 252.427 C 250.098 252.427 251.088 253.417 251.088 254.636 L 251.088 343.597 C 251.088 344.816 250.098 345.805 248.879 345.805 L 197.143 345.805 C 195.925 345.805 194.935 344.816 194.935 343.597 L 194.935 254.636 C 194.935 253.417 195.925 252.427 197.143 252.427 Z  M 131.53 305.426 L 184.382 305.426 C 185.293 305.426 186.032 306.165 186.032 307.076 L 186.032 344.154 C 186.032 345.065 185.293 345.805 184.382 345.805 L 131.53 345.805 C 130.619 345.805 129.88 345.065 129.88 344.154 L 129.88 307.076 C 129.88 306.165 130.619 305.426 131.53 305.426 Z  M 262.508 146.471 L 314.244 146.471 C 315.463 146.471 316.452 147.46 316.452 148.679 L 316.452 343.597 C 316.452 344.816 315.463 345.805 314.244 345.805 L 262.508 345.805 C 261.289 345.805 260.299 344.816 260.299 343.597 L 260.299 148.679 C 260.299 147.46 261.289 146.471 262.508 146.471 Z  M 327.649 204.803 L 379.831 204.803 C 380.927 204.803 381.816 205.692 381.816 206.788 L 381.816 343.82 C 381.816 344.915 380.927 345.805 379.831 345.805 L 327.649 345.805 C 326.553 345.805 325.664 344.915 325.664 343.82 L 325.664 206.788 C 325.664 205.692 326.553 204.803 327.649 204.803 Z  M 133.048 356.057 L 378.952 356.057 C 381.738 356.057 384 358.179 384 360.793 L 384 360.793 C 384 363.407 381.738 365.529 378.952 365.529 L 133.048 365.529 C 130.262 365.529 128 363.407 128 360.793 L 128 360.793 C 128 358.179 130.262 356.057 133.048 356.057 Z " fill-rule="evenodd" fill="url(#_lgradient_0)"/></g></svg>