<?xml version="1.0" encoding="UTF-8" standalone="no"?><!-- Generator: Gravit.io --><svg xmlns="http://www.w3.org/2000/svg" xmlns:xlink="http://www.w3.org/1999/xlink" style="isolation:isolate" viewBox="0 0 512 512" width="512pt" height="512pt"><defs><clipPath id="_clipPath_WJ3C3BCB3WPylRxY0nHbJFkrcGoY6GVi"><rect width="512" height="512"/></clipPath></defs><g clip-path="url(#_clipPath_WJ3C3BCB3WPylRxY0nHbJFkrcGoY6GVi)"><path d="M 477.714 383.995 L 256.005 512 L 34.286 383.995 L 34.286 127.985 L 256.005 0 L 477.714 127.985 L 477.714 383.995 Z" fill-rule="evenodd" fill="rgb(6,64,43)" /><path d=" M 128 266.028 C 157.078 315.868 196.207 355.467 245.75 383.982 L 143.109 383.982 C 134.762 383.982 128 377.215 128 368.874 L 128 266.028 Z  M 128 143.081 C 128 134.759 134.741 128.018 143.057 128.018 L 194.345 128.018 L 384 317.423 L 384 368.335 C 384 372.486 382.353 376.463 379.419 379.4 C 376.484 382.331 372.508 383.982 368.358 383.982 L 317.435 383.982 L 128 194.577 M 266.276 128.018 L 368.871 128.018 C 372.883 128.018 376.73 129.613 379.567 132.448 C 382.41 135.288 384 139.138 384 143.152 L 384 245.825 C 354.824 197.264 315.901 157.594 266.276 128.018 Z " fill-rule="evenodd" fill="rgb(255,255,255)"/></g></svg>