<?xml version="1.0" encoding="UTF-8" standalone="no"?><!-- Generator: Gravit.io --><svg xmlns="http://www.w3.org/2000/svg" xmlns:xlink="http://www.w3.org/1999/xlink" style="isolation:isolate" viewBox="0 0 512 512" width="512pt" height="512pt"><defs><clipPath id="_clipPath_UNC6uxF9Vn6R6SUynRLmoUiYZkcTqI4E"><rect width="512" height="512"/></clipPath></defs><g clip-path="url(#_clipPath_UNC6uxF9Vn6R6SUynRLmoUiYZkcTqI4E)"><rect width="512" height="512" style="fill:rgb(149,6,6)"/><g><path d=" M 215.94 317.689 C 223.346 327.127 230.086 337.068 236.112 347.442 C 241.257 357.198 243.402 363.813 247.162 375.568 C 249.468 382.062 251.552 384 256.033 384 C 260.916 384 263.131 380.703 264.843 375.603 C 268.397 364.502 271.186 356.03 275.586 348.025 C 284.219 332.57 294.947 318.837 305.489 305.637 C 308.343 301.902 326.794 280.139 335.1 262.967 C 335.1 262.967 345.31 244.104 345.31 217.76 C 345.31 193.118 335.241 176.026 335.241 176.026 L 306.254 183.789 L 288.649 230.154 L 284.295 236.548 L 283.424 237.706 L 282.266 239.156 L 280.232 241.471 L 277.327 244.376 L 261.651 257.148 L 222.46 279.777 L 215.94 317.689 Z " fill="rgb(255,255,255)"/><path d=" M 175.49 259.796 C 185.055 281.644 203.501 300.85 215.98 317.704 L 282.266 239.186 C 282.266 239.186 272.928 251.399 255.987 251.399 C 237.119 251.399 221.876 236.331 221.876 217.332 C 221.876 204.304 229.714 195.353 229.714 195.353 L 184.718 207.41 L 175.49 259.796 Z " fill="rgb(255,255,255)"/><path d=" M 283.006 132.037 C 305.021 139.136 323.864 154.037 335.261 176.011 L 282.286 239.14 C 282.286 239.14 290.124 230.028 290.124 217.08 C 290.124 197.638 273.753 183.115 256.068 183.115 C 239.344 183.115 229.739 195.307 229.739 195.307 L 229.739 155.537 L 283.006 132.037 Z " fill="rgb(255,255,255)"/><path d=" M 187.633 159.932 C 200.782 144.2 223.919 128 255.816 128 C 271.291 128 282.951 132.063 282.951 132.063 L 229.689 195.343 L 191.952 195.343 L 187.633 159.932 Z " fill="rgb(255,255,255)"/><path d=" M 175.49 259.796 C 175.49 259.796 166.69 242.564 166.69 217.599 C 166.69 194.004 175.863 173.378 187.633 159.932 L 229.719 195.348 L 175.49 259.796 Z " fill="rgb(255,255,255)"/></g></g></svg>