<?xml version="1.0" encoding="UTF-8" standalone="no"?><!-- Generator: Gravit.io --><svg xmlns="http://www.w3.org/2000/svg" xmlns:xlink="http://www.w3.org/1999/xlink" style="isolation:isolate" viewBox="0 0 512 512" width="512pt" height="512pt"><defs><clipPath id="_clipPath_6MFhrRlEn8cL3ecHB56OZLpxy66zkVKv"><rect width="512" height="512"/></clipPath></defs><g clip-path="url(#_clipPath_6MFhrRlEn8cL3ecHB56OZLpxy66zkVKv)"><path d="M 477.714 383.995 L 256.005 512 L 34.286 383.995 L 34.286 127.985 L 256.005 0 L 477.714 127.985 L 477.714 383.995 Z" fill-rule="evenodd" fill="rgb(239,191,4)" /><path d=" M 358.4 166.4 L 153.6 166.4 C 139.52 166.4 128 177.92 128 192 L 128 320 C 128 334.08 139.52 345.6 153.6 345.6 L 358.4 345.6 C 372.48 345.6 384 334.08 384 319.744 L 384 192 C 384 177.92 372.48 166.4 358.4 166.4 Z  M 365.312 319.744 C 365.568 323.584 362.496 326.912 358.4 327.168 L 153.6 327.168 C 149.76 327.168 146.688 323.84 146.688 320 L 146.688 192 C 146.432 188.16 149.504 184.832 153.344 184.576 L 358.4 184.576 C 362.24 184.576 365.312 187.904 365.312 191.744 L 365.312 319.744 Z  M 206.336 314.624 L 163.328 314.624 L 163.328 197.376 L 206.336 197.376 C 236.8 197.376 253.44 216.32 253.44 255.488 C 253.44 289.28 241.92 314.368 206.336 314.624 Z  M 225.024 257.792 C 225.024 234.24 222.464 215.808 197.12 215.808 L 191.488 215.808 L 191.488 295.68 L 201.472 295.68 C 216.32 295.68 225.024 283.648 225.024 257.792 Z  M 327.68 253.184 C 339.712 249.6 347.904 238.592 348.16 225.792 C 348.16 223.232 347.648 197.12 314.624 197.12 L 265.728 197.12 L 265.728 314.368 L 307.2 314.368 C 318.208 314.368 352.512 314.368 352.512 281.344 C 352.512 273.408 348.928 257.792 327.68 253.184 Z  M 293.632 215.552 L 302.592 215.552 C 315.136 215.552 320.256 219.904 320.256 229.632 C 320.256 237.312 314.624 243.712 304.896 243.712 L 293.888 243.712 L 293.888 215.552 L 293.632 215.552 Z  M 305.152 295.68 L 293.632 295.68 L 293.632 265.472 L 305.92 265.472 C 320.512 265.472 324.096 273.92 324.096 280.576 C 324.096 295.68 309.76 295.68 305.152 295.68 L 305.152 295.68 Z " fill-rule="evenodd" fill="rgb(237,29,36)"/></g></svg>