<?xml version="1.0" encoding="UTF-8" standalone="no"?><!-- Generator: Gravit.io --><svg xmlns="http://www.w3.org/2000/svg" xmlns:xlink="http://www.w3.org/1999/xlink" style="isolation:isolate" viewBox="0 0 512 512" width="512pt" height="512pt"><defs><clipPath id="_clipPath_HKhTA18fuzLz2V7nJqAW36OZ6RWhanNN"><rect width="512" height="512"/></clipPath></defs><g clip-path="url(#_clipPath_HKhTA18fuzLz2V7nJqAW36OZ6RWhanNN)"><circle vector-effect="non-scaling-stroke" cx="256" cy="256" r="256" fill="rgb(27,27,29)" /><path d=" M 222.193 371.886 C 223.04 372.942 222.531 374.639 222.211 374.544 L 213.71 383.011 C 211.866 384.33 210.029 384.249 208.231 383.158 L 188.08 362.084 C 187.585 361.374 187.246 360.632 187.169 359.833 L 187.169 256.217 C 162.208 246.734 144.45 222.579 144.45 194.31 C 144.45 158.21 173.41 128.821 209.346 128.126 C 189.055 142.961 175.866 166.941 175.866 193.979 C 175.866 224.723 192.921 251.515 218.077 265.402 L 218.077 361.478 L 218.083 361.478 C 218.079 361.628 218.077 361.779 218.077 361.93 C 218.077 365.814 219.935 369.078 222.193 371.886 L 222.193 371.886 Z  M 267.596 371.886 C 268.444 372.942 267.934 374.639 267.615 374.544 L 259.113 383.011 C 257.269 384.33 255.433 384.249 253.635 383.158 L 233.484 362.084 C 232.989 361.374 232.65 360.632 232.572 359.833 L 232.572 256.217 C 207.613 246.734 189.855 222.579 189.855 194.31 C 189.855 158.21 218.814 128.821 254.75 128.126 C 234.459 142.961 221.27 166.941 221.27 193.979 C 221.27 224.723 238.324 251.515 263.481 265.402 L 263.481 361.478 L 263.488 361.478 C 263.483 361.628 263.481 361.779 263.481 361.93 C 263.481 365.814 265.339 369.078 267.596 371.886 Z  M 277.873 256.114 C 252.914 246.631 235.156 222.478 235.156 194.209 C 235.156 157.673 264.817 128.012 301.353 128.012 C 337.887 128.012 367.55 157.673 367.55 194.209 C 367.55 225.074 346.378 251.036 317.778 258.348 L 346.607 287.729 C 347.694 289.458 347.638 291.05 346.542 292.516 L 318.235 321.461 L 338.772 342.219 C 340.491 344.551 340.219 346.793 338.492 348.969 L 304.414 382.908 C 302.57 384.228 300.735 384.147 298.937 383.056 L 278.786 361.981 C 278.29 361.273 277.951 360.53 277.873 359.731 L 277.873 256.114 L 277.873 256.114 Z  M 301.566 153.869 C 311.327 153.869 319.251 161.793 319.251 171.554 C 319.251 181.314 311.327 189.239 301.566 189.239 C 291.806 189.239 283.881 181.314 283.881 171.554 C 283.881 161.793 291.806 153.869 301.566 153.869 Z " fill-rule="evenodd" fill="rgb(237,29,36)"/></g></svg>