<?xml version="1.0" encoding="UTF-8" standalone="no"?><!-- Generator: Gravit.io --><svg xmlns="http://www.w3.org/2000/svg" xmlns:xlink="http://www.w3.org/1999/xlink" style="isolation:isolate" viewBox="0 0 512 512" width="512pt" height="512pt"><defs><clipPath id="_clipPath_NDjNPwIlWXo8NO6LNi9qrkPs3ovOG4Db"><rect width="512" height="512"/></clipPath></defs><g clip-path="url(#_clipPath_NDjNPwIlWXo8NO6LNi9qrkPs3ovOG4Db)"><circle vector-effect="non-scaling-stroke" cx="256" cy="256" r="256" fill="rgb(27,27,29)" /><path d=" M 284.253 291.2 C 283.812 287.228 282.488 284.359 279.839 281.71 C 274.874 276.524 266.157 273.104 255.895 273.104 C 245.633 273.104 236.915 276.414 231.95 281.71 C 229.412 284.469 227.977 287.228 227.536 291.2 C 226.653 298.924 227.205 305.545 228.088 316.248 C 228.97 326.4 230.626 339.972 232.722 353.655 C 234.267 363.476 235.481 368.772 236.584 372.524 C 238.46 378.703 245.191 384 255.895 384 C 266.598 384 273.439 378.593 275.205 372.524 C 276.308 368.772 277.522 363.476 279.067 353.655 C 281.164 339.862 282.819 326.4 283.701 316.248 C 284.695 305.545 285.136 298.924 284.253 291.2 Z  M 283.039 234.924 C 283.039 249.931 270.901 262.069 255.895 262.069 C 240.888 262.069 228.75 249.931 228.75 234.924 C 228.75 219.917 240.888 207.779 255.895 207.779 C 270.901 207.779 283.039 220.028 283.039 234.924 Z  M 255.564 128 C 192.226 128.221 140.364 179.642 139.481 242.979 C 138.819 294.29 171.591 338.207 217.384 354.317 C 218.488 354.759 219.591 353.766 219.481 352.662 C 218.929 348.69 218.267 344.717 217.826 340.745 C 217.605 339.31 216.722 338.207 215.508 337.545 C 179.315 321.766 154.046 285.462 154.488 243.421 C 155.039 188.248 200.06 143.338 255.122 142.897 C 311.508 142.455 357.522 188.138 357.522 244.414 C 357.522 286.014 332.363 321.766 296.501 337.545 C 295.177 338.097 294.295 339.31 294.184 340.745 C 293.632 344.717 293.081 348.69 292.529 352.662 C 292.308 353.876 293.522 354.759 294.626 354.317 C 339.977 338.428 372.529 295.172 372.529 244.414 C 372.308 180.193 319.895 127.89 255.564 128 Z  M 252.915 166.621 C 211.646 168.166 178.543 202.262 177.991 243.531 C 177.66 270.676 191.233 294.731 212.088 308.966 C 213.081 309.628 214.515 308.855 214.515 307.641 C 214.184 302.897 214.184 298.703 214.405 294.29 C 214.515 292.855 213.964 291.531 212.86 290.538 C 200.17 278.621 192.446 261.628 192.888 242.869 C 193.77 209.766 220.364 182.842 253.467 181.517 C 289.439 180.083 319.012 208.993 319.012 244.524 C 319.012 262.621 311.288 278.952 299.039 290.538 C 298.046 291.531 297.495 292.855 297.495 294.29 C 297.715 298.593 297.605 302.786 297.384 307.531 C 297.274 308.745 298.708 309.628 299.812 308.855 C 320.336 294.841 333.908 271.117 333.908 244.414 C 334.019 200.497 297.274 164.855 252.915 166.621 Z " fill-rule="evenodd" fill="rgb(237,29,36)"/></g></svg>