<?xml version="1.0" encoding="UTF-8" standalone="no"?><!-- Generator: Gravit.io --><svg xmlns="http://www.w3.org/2000/svg" xmlns:xlink="http://www.w3.org/1999/xlink" style="isolation:isolate" viewBox="0 0 512 512" width="512pt" height="512pt"><defs><clipPath id="_clipPath_IhPnczgw5MjDMsJoicTuK9UnM2UAawbh"><rect width="512" height="512"/></clipPath></defs><g clip-path="url(#_clipPath_IhPnczgw5MjDMsJoicTuK9UnM2UAawbh)"><rect x="0" y="0" width="512" height="512" transform="matrix(1,0,0,1,0,0)" fill="rgb(27,27,29)"/><path d=" M 383.978 205.403 C 384.072 197.363 377.63 190.769 369.59 190.675 Q 369.451 190.673 369.313 190.674 L 305.982 190.674 L 342.316 251.395 L 345.67 251.819 L 347.792 254.599 L 347.792 257.189 L 350.084 257.656 L 352.207 260.542 L 352.207 263.046 L 354.584 263.471 L 356.982 266.081 L 356.982 271.854 C 359.837 274.432 363.055 276.577 366.532 278.221 C 369.737 279.452 370.098 284.588 372.029 287.326 C 374.449 291.316 377.76 292.908 377.059 295.136 C 375.446 301.1 369.334 311.16 363.646 311.627 L 341.149 311.627 L 341.149 321.263 L 369.334 321.263 C 377.469 321.228 384.035 314.605 384 306.47 L 383.999 306.406 L 383.999 205.403 M 229.046 311.776 L 218.159 311.776 C 218.159 284.567 227.349 269.52 238.364 266.527 C 239.87 266.251 239.149 258.823 237.239 256.552 L 230.872 256.552 C 229.853 256.552 230.447 254.642 230.447 254.642 L 235.605 243.627 L 234.904 240.613 L 215.845 240.613 L 231.508 229.662 C 232.23 200.777 261.858 198.527 279.707 210.561 C 290.319 217.586 291.125 231.508 290.319 241.122 C 290.191 241.738 287.56 241.335 287.56 241.335 C 287.56 241.335 285.756 251.946 290.467 251.946 L 311.288 251.946 C 319.777 251.607 327.969 257.358 327.969 257.358 L 329.964 250.079 L 284.355 190.674 L 142.73 190.674 C 138.813 190.651 135.044 192.177 132.246 194.919 C 129.49 197.708 127.962 201.482 128.001 205.403 L 128.001 306.533 C 127.952 310.444 129.482 314.209 132.246 316.975 C 135.027 319.756 138.797 321.321 142.73 321.326 L 234.671 321.326 C 232.421 317.464 229.853 313.07 229.068 311.776 M 148.418 290.319 C 148.418 286.25 150.87 282.582 154.629 281.025 C 158.388 279.468 162.715 280.329 165.592 283.206 C 168.469 286.083 169.33 290.41 167.772 294.169 C 166.215 297.928 162.547 300.379 158.478 300.379 L 158.393 300.379 C 155.753 300.384 153.219 299.341 151.349 297.479 C 149.478 295.616 148.424 293.086 148.418 290.447 Q 148.418 290.383 148.418 290.319 Z " fill-rule="evenodd" fill="rgb(237,29,36)"/></g></svg>