<?xml version="1.0" encoding="UTF-8" standalone="no"?><!-- Generator: Gravit.io --><svg xmlns="http://www.w3.org/2000/svg" xmlns:xlink="http://www.w3.org/1999/xlink" style="isolation:isolate" viewBox="0 0 512 512" width="512pt" height="512pt"><defs><clipPath id="_clipPath_hqZS1zS0QqLa5bsztSCgwGBkXoedkDOo"><rect width="512" height="512"/></clipPath></defs><g clip-path="url(#_clipPath_hqZS1zS0QqLa5bsztSCgwGBkXoedkDOo)"><circle vector-effect="non-scaling-stroke" cx="256" cy="256" r="256" fill="rgb(27,27,29)" /><path d=" M 383.489 257.367 C 387.668 283.801 365.507 298.712 343.347 300.295 C 332.045 321.252 308.777 338.284 275.156 338.284 C 261.397 338.783 247.747 335.684 235.552 329.293 C 232.575 329.837 229.556 330.112 226.53 330.116 C 214.785 330.116 206.775 327.394 198.956 318.118 C 214.785 296.812 262.968 258.507 321.661 278.293 C 353.034 288.835 361.202 264.047 353.319 254.771 C 323.751 219.726 256.889 251.257 254.515 253.916 C 280.633 212.001 374.53 200.288 383.489 257.367 Z  M 293.517 209.247 C 293.707 209.247 272.212 201.301 242.137 214.851 C 240.925 214.345 239.742 213.774 238.591 213.141 C 267.495 193.165 292.853 184.649 314.57 187.815 C 300.577 175.5 285.255 173.664 262.904 173.664 C 238.116 173.664 216.146 183.383 202.217 198.42 C 197.903 197.469 193.496 197.002 189.079 197.027 C 155.49 197.027 126.333 228.717 128.074 264.712 C 129.815 300.706 167.583 323.152 189.079 317.105 C 189.602 317.01 190.138 317.01 190.662 317.105 C 195.41 293.298 214.816 237.929 293.517 209.247 Z " fill="rgb(85,0,0)"/></g></svg>