<?xml version="1.0" encoding="UTF-8" standalone="no"?><!-- Generator: Gravit.io --><svg xmlns="http://www.w3.org/2000/svg" xmlns:xlink="http://www.w3.org/1999/xlink" style="isolation:isolate" viewBox="0 0 512 512" width="512pt" height="512pt"><defs><clipPath id="_clipPath_4kn49XjjE6OWWuF68yU1mLFyon0jNUXZ"><rect width="512" height="512"/></clipPath></defs><g clip-path="url(#_clipPath_4kn49XjjE6OWWuF68yU1mLFyon0jNUXZ)"><path d="M 477.714 383.995 L 256.005 512 L 34.286 383.995 L 34.286 127.985 L 256.005 0 L 477.714 127.985 L 477.714 383.995 Z" fill-rule="evenodd" fill="rgb(237,29,36)" /><path d=" M 142.729 275.035 C 143.81 277.906 145.308 280.361 147.222 282.399 C 149.136 284.438 151.404 285.998 154.025 287.08 C 156.646 288.162 159.496 288.703 162.575 288.703 C 165.571 288.703 168.379 288.141 171 287.017 C 173.622 285.894 175.91 284.313 177.865 282.274 C 179.821 280.236 181.339 277.802 182.421 274.973 C 183.503 272.143 184.044 268.982 184.044 265.486 L 184.044 211.565 L 197.15 211.565 L 197.15 298.938 L 184.169 298.938 L 184.169 290.824 C 181.256 293.903 177.823 296.275 173.871 297.939 C 169.918 299.603 165.654 300.435 161.077 300.435 C 156.417 300.435 152.069 299.624 148.033 298.001 C 143.998 296.379 140.502 294.07 137.549 291.074 C 134.595 288.078 132.265 284.48 130.559 280.277 C 128.853 276.075 128 271.395 128 266.235 L 128 211.565 L 141.106 211.565 L 141.106 265.486 C 141.106 268.982 141.647 272.164 142.729 275.035 Z  M 219.741 211.565 L 219.741 243.393 C 222.653 240.481 226.024 238.172 229.851 236.466 C 233.679 234.76 237.84 233.907 242.333 233.907 C 246.993 233.907 251.361 234.781 255.439 236.528 C 259.516 238.275 263.053 240.647 266.048 243.643 C 269.044 246.639 271.416 250.175 273.163 254.252 C 274.911 258.33 275.784 262.657 275.784 267.234 C 275.784 271.81 274.911 276.117 273.163 280.152 C 271.416 284.188 269.044 287.704 266.048 290.699 C 263.053 293.695 259.516 296.067 255.439 297.814 C 251.361 299.562 246.993 300.435 242.333 300.435 C 237.839 300.435 233.658 299.582 229.789 297.876 C 225.919 296.171 222.528 293.861 219.616 290.949 L 219.616 298.937 L 207.134 298.937 L 207.134 211.565 L 219.741 211.565 Z  M 221.176 275.846 C 222.299 278.509 223.86 280.839 225.857 282.836 C 227.854 284.833 230.184 286.415 232.847 287.579 C 235.51 288.744 238.38 289.327 241.459 289.327 C 244.455 289.327 247.284 288.744 249.947 287.579 C 252.61 286.415 254.919 284.834 256.875 282.836 C 258.83 280.839 260.39 278.509 261.555 275.846 C 262.72 273.183 263.303 270.313 263.303 267.234 C 263.303 264.155 262.72 261.263 261.555 258.559 C 260.39 255.854 258.83 253.504 256.875 251.507 C 254.919 249.51 252.61 247.949 249.947 246.826 C 247.284 245.703 244.455 245.141 241.459 245.141 C 238.464 245.141 235.635 245.702 232.972 246.826 C 230.309 247.95 227.979 249.51 225.982 251.507 C 223.985 253.504 222.404 255.854 221.239 258.559 C 220.074 261.263 219.491 264.155 219.491 267.234 C 219.491 270.313 220.053 273.183 221.176 275.846 Z  M 282.898 254.378 C 284.562 250.383 286.851 246.868 289.763 243.83 C 292.675 240.793 296.129 238.401 300.123 236.653 C 304.117 234.906 308.444 234.032 313.104 234.032 C 317.681 234.032 321.925 234.865 325.836 236.529 C 329.746 238.193 333.117 240.502 335.946 243.456 C 338.775 246.41 340.98 249.905 342.561 253.941 C 344.142 257.977 344.933 262.366 344.933 267.11 L 344.933 271.229 L 293.133 271.229 C 293.549 273.808 294.381 276.201 295.63 278.405 C 296.878 280.61 298.438 282.524 300.31 284.147 C 302.182 285.77 304.304 287.039 306.676 287.954 C 309.048 288.869 311.564 289.327 314.227 289.327 C 321.8 289.327 327.916 286.207 332.576 279.966 L 341.688 286.706 C 338.526 290.95 334.615 294.278 329.955 296.691 C 325.295 299.104 320.053 300.311 314.228 300.311 C 309.484 300.311 305.054 299.478 300.935 297.814 C 296.815 296.15 293.237 293.82 290.2 290.824 C 287.163 287.829 284.771 284.313 283.023 280.277 C 281.276 276.242 280.402 271.852 280.402 267.109 C 280.401 262.616 281.234 258.372 282.898 254.378 Z  M 300.435 249.447 C 296.898 252.401 294.548 256.333 293.383 261.242 L 332.201 261.242 C 331.12 256.333 328.81 252.401 325.274 249.447 C 321.737 246.493 317.597 245.016 312.855 245.016 C 308.111 245.016 303.971 246.493 300.435 249.447 Z  M 368.523 250.882 C 365.86 253.795 364.528 257.747 364.528 262.74 L 364.528 298.938 L 351.922 298.938 L 351.922 235.28 L 364.403 235.28 L 364.403 243.144 C 365.985 240.564 368.044 238.525 370.582 237.028 C 373.12 235.53 376.136 234.781 379.632 234.781 L 384 234.781 L 384 246.514 L 378.758 246.514 C 374.597 246.514 371.185 247.97 368.523 250.882 Z " fill-rule="evenodd" fill="rgb(255,255,255)"/></g></svg>