<?xml version="1.0" encoding="UTF-8" standalone="no"?><!-- Generator: Gravit.io --><svg xmlns="http://www.w3.org/2000/svg" xmlns:xlink="http://www.w3.org/1999/xlink" style="isolation:isolate" viewBox="0 0 512 512" width="512pt" height="512pt"><defs><clipPath id="_clipPath_mopRhm3GDTiEzOZC6cr2rPYmcbcjp4Am"><rect width="512" height="512"/></clipPath></defs><g clip-path="url(#_clipPath_mopRhm3GDTiEzOZC6cr2rPYmcbcjp4Am)"><circle vector-effect="non-scaling-stroke" cx="256" cy="256" r="256" fill="rgb(0,103,79)" /><path d=" M 128 283.986 L 128 155.561 L 161.814 155.561 L 161.814 283.986 C 161.814 305.311 179.128 322.625 200.453 322.625 C 221.779 322.625 239.092 305.311 239.092 283.986 C 239.092 301.679 245.448 317.899 255.999 330.487 C 242.704 346.347 222.748 356.439 200.453 356.439 C 160.465 356.439 128 323.974 128 283.986 Z  M 161.814 222.7 C 173 215.627 186.252 211.532 200.453 211.532 C 222.748 211.532 242.704 221.623 255.999 237.484 C 266.203 249.656 272.482 265.226 272.886 282.238 C 272.859 282.818 272.848 283.4 272.848 283.986 C 272.848 284.571 272.859 285.154 272.886 285.733 C 273.129 291.218 274.518 296.407 276.817 301.067 C 283.132 313.869 296.316 322.685 311.546 322.685 C 322.243 322.685 331.934 318.333 338.943 311.306 L 362.418 335.555 C 349.333 348.466 331.362 356.439 311.546 356.439 C 289.251 356.439 269.296 346.347 255.999 330.487 C 245.448 317.899 239.092 301.679 239.092 283.986 C 239.092 262.661 221.779 245.347 200.453 245.347 C 179.128 245.347 161.814 262.661 161.814 283.986 L 161.814 222.7 Z  M 255.999 237.484 C 269.296 221.623 289.251 211.532 311.546 211.532 C 351.534 211.532 384 243.998 384 283.986 C 384 289.869 383.295 295.589 381.97 301.067 L 276.817 301.067 C 274.518 296.407 273.129 291.218 272.886 285.733 C 272.899 285.152 272.907 284.57 272.907 283.986 C 272.907 283.402 272.899 282.819 272.886 282.238 C 272.482 265.226 266.203 249.656 255.999 237.484 Z  M 277.047 266.447 L 346.045 266.447 C 339.645 253.892 326.592 245.286 311.546 245.286 C 296.5 245.286 283.447 253.892 277.047 266.447 Z " fill-rule="evenodd" fill="rgb(196,196,196)"/></g></svg>