<?xml version="1.0" encoding="UTF-8" standalone="no"?><!-- Generator: Gravit.io --><svg xmlns="http://www.w3.org/2000/svg" xmlns:xlink="http://www.w3.org/1999/xlink" style="isolation:isolate" viewBox="0 0 512 512" width="512pt" height="512pt"><defs><clipPath id="_clipPath_Z98Qr1m7kQw8CYHLQRMmkX3LZeyvFdjX"><rect width="512" height="512"/></clipPath></defs><g clip-path="url(#_clipPath_Z98Qr1m7kQw8CYHLQRMmkX3LZeyvFdjX)"><rect x="0" y="0" width="512" height="512" transform="matrix(1,0,0,1,0,0)" fill="rgb(0,103,79)"/><path d=" M 383.943 276.602 C 383.386 276.759 382.914 276.845 382.444 276.845 C 380.772 276.845 379.986 276.13 379.986 274.073 L 379.986 258.542 C 379.986 250.385 373.486 246.413 365.799 246.413 C 359.927 246.413 356.771 247.128 350.498 249.656 L 349.099 257.885 L 357.256 258.756 L 358.413 254.727 C 360.085 253.856 361.743 253.699 363.884 253.699 C 369.671 253.699 369.757 258.057 369.757 261.7 L 369.757 262.885 C 367.929 262.643 365.871 262.571 363.884 262.571 C 355.727 262.571 347.241 264.628 347.241 273.429 C 347.241 280.872 353.098 283.658 358.256 283.658 C 364.042 283.658 367.685 280.172 369.743 276.529 C 370.213 280.886 372.828 283.658 377.586 283.658 C 379.8 283.658 382.1 283.03 384 281.986 L 383.943 276.601 L 383.943 276.602 Z  M 361.999 276.373 C 358.913 276.373 357.798 274.545 357.798 272.244 C 357.798 268.358 360.971 267.329 364.614 267.329 C 366.271 267.329 368.099 267.572 369.771 267.801 C 369.528 273.758 365.642 276.373 361.999 276.373 Z  M 348.27 228.341 L 332.811 282.874 L 322.74 282.874 L 338.198 228.342 L 348.27 228.342 L 348.27 228.341 Z  M 327.512 228.341 L 312.053 282.874 L 301.995 282.874 L 317.454 228.342 L 327.512 228.342 L 327.512 228.341 Z  M 284.594 247.129 L 295.296 247.129 L 295.296 259.958 L 284.594 259.958 L 284.594 247.129 Z  M 284.594 270.03 L 295.296 270.03 L 295.296 282.874 L 284.594 282.874 L 284.594 270.03 Z  M 269.023 269.558 L 277.108 270.344 L 274.894 282.874 L 243.664 282.874 L 242.635 277.487 L 262.293 254.9 L 251.121 254.9 L 249.536 260.444 L 242.163 259.643 L 243.435 247.115 L 274.823 247.115 L 275.623 252.5 L 255.793 275.101 L 267.365 275.101 L 269.023 269.558 L 269.023 269.558 Z  M 217.805 246.415 C 204.961 246.415 198.619 255.057 198.619 265.515 C 198.619 276.931 206.233 283.659 217.248 283.659 C 228.663 283.659 236.907 276.444 236.907 265.03 C 236.907 255.043 230.635 246.414 217.805 246.414 L 217.805 246.415 Z  M 217.562 275.815 C 212.02 275.815 209.162 271.058 209.162 264.872 C 209.162 258.129 212.405 254.258 217.649 254.258 C 222.477 254.258 226.363 257.5 226.363 264.716 C 226.363 271.53 222.877 275.815 217.562 275.815 Z  M 189.418 275.101 L 194.175 275.101 L 194.175 282.874 L 179.189 282.874 L 179.189 262.744 C 179.189 256.558 177.132 254.185 173.089 254.185 C 168.174 254.185 166.189 257.672 166.189 262.672 L 166.189 275.101 L 170.946 275.101 L 170.946 282.874 L 155.974 282.874 L 155.974 262.744 C 155.974 256.558 153.916 254.185 149.873 254.185 C 144.959 254.185 142.972 257.672 142.972 262.672 L 142.972 275.101 L 149.787 275.101 L 149.787 282.874 L 128 282.874 L 128 275.101 L 132.758 275.101 L 132.758 254.886 L 128 254.886 L 128 247.114 L 142.972 247.114 L 142.972 252.5 C 145.116 248.701 148.845 246.4 153.831 246.4 C 158.988 246.4 163.731 248.857 165.488 254.086 C 167.474 249.329 171.517 246.4 177.146 246.4 C 183.56 246.4 189.432 250.286 189.432 258.758 L 189.432 275.101 L 189.418 275.101 Z " fill="rgb(196,196,196)"/></g></svg>