<?xml version="1.0" encoding="UTF-8" standalone="no"?><!-- Generator: Gravit.io --><svg xmlns="http://www.w3.org/2000/svg" xmlns:xlink="http://www.w3.org/1999/xlink" style="isolation:isolate" viewBox="0 0 512 512" width="512pt" height="512pt"><defs><clipPath id="_clipPath_nQGjOiHCqaNsfcyefio9w4X3X7Qi3Szk"><rect width="512" height="512"/></clipPath></defs><g clip-path="url(#_clipPath_nQGjOiHCqaNsfcyefio9w4X3X7Qi3Szk)"><rect x="0" y="0" width="512" height="512" transform="matrix(1,0,0,1,0,0)" fill="rgb(0,103,79)"/><path d=" M 238.759 260.993 L 255.643 260.993 L 246.725 246.591 L 230.328 272.604 L 222.872 272.604 L 242.814 241.395 C 243.696 240.132 245.136 239.374 246.677 239.363 C 248.218 239.352 249.669 240.089 250.569 241.34 L 270.566 272.604 L 263.11 272.604 L 259.598 266.787 L 242.515 266.787 L 238.792 260.993 M 316.265 266.787 L 316.265 239.678 L 309.928 239.678 L 309.928 269.457 C 309.926 270.294 310.266 271.094 310.87 271.673 C 311.476 272.293 312.307 272.641 313.174 272.637 L 341.979 272.637 L 345.734 266.821 L 316.232 266.821 M 211.495 261.946 C 217.644 261.946 222.629 256.961 222.629 250.812 C 222.629 244.663 217.644 239.678 211.495 239.678 L 183.798 239.678 L 183.798 272.604 L 190.124 272.604 L 190.124 245.505 L 211.107 245.505 C 214.05 245.505 216.436 247.891 216.436 250.834 C 216.436 253.777 214.05 256.163 211.107 256.163 L 193.259 256.163 L 212.159 272.604 L 221.344 272.604 L 208.647 261.946 L 211.495 261.946 Z  M 144.89 272.604 L 164.023 272.604 C 172.946 272.372 180.058 265.072 180.058 256.146 C 180.058 247.221 172.946 239.921 164.023 239.689 L 144.89 239.689 C 138.908 239.534 133.314 242.636 130.277 247.792 C 127.241 252.948 127.241 259.345 130.277 264.501 C 133.314 269.657 138.908 272.759 144.89 272.604 M 163.591 266.81 L 145.311 266.81 C 139.562 266.624 134.997 261.91 134.997 256.158 C 134.997 250.405 139.562 245.691 145.311 245.505 L 163.591 245.505 C 167.478 245.38 171.125 247.382 173.106 250.73 C 175.087 254.077 175.087 258.238 173.106 261.585 C 171.125 264.933 167.478 266.935 163.591 266.81 M 283.783 272.604 L 303.314 272.604 L 307.015 266.81 L 284.215 266.81 C 280.327 266.935 276.68 264.933 274.699 261.585 C 272.718 258.238 272.718 254.077 274.699 250.73 C 276.68 247.382 280.327 245.38 284.215 245.505 L 302.771 245.505 L 306.516 239.689 L 283.783 239.689 C 277.801 239.534 272.207 242.636 269.17 247.792 C 266.134 252.948 266.134 259.345 269.17 264.501 C 272.207 269.657 277.801 272.759 283.783 272.604 Z  M 361.189 266.81 C 356.419 266.811 352.229 263.644 350.93 259.055 L 377.984 259.055 L 381.707 253.249 L 350.93 253.249 C 352.226 248.658 356.418 245.489 361.189 245.494 L 379.757 245.494 L 383.468 239.678 L 360.757 239.678 C 351.834 239.91 344.721 247.21 344.721 256.135 C 344.721 265.061 351.834 272.361 360.757 272.593 L 380.289 272.593 L 384 266.799 L 361.178 266.799" fill="rgb(196,196,196)"/></g></svg>