<?xml version="1.0" encoding="UTF-8" standalone="no"?><!-- Generator: Gravit.io --><svg xmlns="http://www.w3.org/2000/svg" xmlns:xlink="http://www.w3.org/1999/xlink" style="isolation:isolate" viewBox="0 0 512 512" width="512pt" height="512pt"><defs><clipPath id="_clipPath_jOvYw4YzQJER95mxL5YyCzIJDw8Bz1Pd"><rect width="512" height="512"/></clipPath></defs><g clip-path="url(#_clipPath_jOvYw4YzQJER95mxL5YyCzIJDw8Bz1Pd)"><rect x="0" y="0" width="512" height="512" transform="matrix(1,0,0,1,0,0)" fill="rgb(237,29,36)"/><path d=" M 256 128 L 255.867 128 C 232.295 128 209.991 137.207 193.054 153.942 C 191.453 155.521 188.486 158.828 188.486 158.828 C 187.469 159.992 186.486 161.172 185.535 162.385 C 185.419 162.534 185.152 162.883 185.152 162.883 C 173.25 178.107 166.365 196.687 165.565 216.38 L 165.565 380.759 C 165.565 381.425 165.765 382.056 166.115 382.571 C 166.698 383.435 167.698 384 168.815 384 L 199.555 384 C 201.355 384 202.806 382.555 202.806 380.759 L 202.806 297.099 C 202.806 296.518 203.206 296.252 203.372 296.168 C 203.739 295.985 204.156 296.018 204.489 296.252 C 219.626 306.954 237.396 312.522 255.85 312.522 C 269.936 312.522 283.022 309.264 295.108 303.348 C 325.465 288.49 346.435 256.881 346.435 220.219 C 346.435 169.232 305.943 128 256 128 Z  M 255.867 277.273 C 225.56 277.273 200.905 251.713 200.905 220.302 C 200.905 188.892 225.56 163.332 255.867 163.332 C 286.173 163.332 310.829 188.892 310.829 220.302 C 310.829 251.713 286.173 277.273 255.867 277.273 Z " fill="rgb(239,191,4)"/></g></svg>