<?xml version="1.0" encoding="UTF-8" standalone="no"?><!-- Generator: Gravit.io --><svg xmlns="http://www.w3.org/2000/svg" xmlns:xlink="http://www.w3.org/1999/xlink" style="isolation:isolate" viewBox="0 0 512 512" width="512pt" height="512pt"><defs><clipPath id="_clipPath_s6v2EBlJEvuD0QHkpEhTQ8ehR1tCNOFV"><rect width="512" height="512"/></clipPath></defs><g clip-path="url(#_clipPath_s6v2EBlJEvuD0QHkpEhTQ8ehR1tCNOFV)"><path d=" M 502.347 233.196 L 278.789 9.667 C 265.927 -3.208 245.047 -3.208 232.168 9.667 L 185.748 56.089 L 244.63 114.971 C 258.319 110.349 274.008 113.448 284.915 124.357 C 295.877 135.333 298.953 151.157 294.216 164.891 L 350.967 221.643 C 364.697 216.911 380.539 219.968 391.501 230.951 C 406.829 246.273 406.829 271.103 391.501 286.429 C 376.172 301.761 351.343 301.761 336.004 286.429 C 324.479 274.896 321.628 257.961 327.465 243.761 L 274.539 190.835 L 274.535 330.111 C 278.272 331.961 281.797 334.429 284.912 337.531 C 300.235 352.852 300.235 377.676 284.912 393.023 C 269.584 408.344 244.744 408.344 229.432 393.023 C 214.108 377.677 214.108 352.853 229.432 337.531 C 233.22 333.749 237.603 330.888 242.279 328.971 L 242.279 188.4 C 237.6 186.489 233.223 183.649 229.43 179.839 C 217.822 168.24 215.026 151.203 220.979 136.948 L 162.934 78.893 L 9.659 232.164 C -3.22 245.048 -3.22 265.928 9.659 278.803 L 233.203 502.333 C 246.074 515.208 266.945 515.208 279.833 502.333 L 502.344 279.859 C 515.219 266.979 515.219 246.092 502.344 233.215" fill="rgb(240,81,51)"/></g></svg>