<?xml version="1.0" encoding="UTF-8" standalone="no"?><!-- Generator: Gravit.io --><svg xmlns="http://www.w3.org/2000/svg" xmlns:xlink="http://www.w3.org/1999/xlink" style="isolation:isolate" viewBox="0 0 512 512" width="512pt" height="512pt"><defs><clipPath id="_clipPath_f8gqs85p2nGvK2cHSGYDa94YTwTXCmZK"><rect width="512" height="512"/></clipPath></defs><g clip-path="url(#_clipPath_f8gqs85p2nGvK2cHSGYDa94YTwTXCmZK)"><g><path d=" M 255.983 491.788 L 255.983 491.788 L 350.307 201.652 L 161.796 201.652 L 255.983 491.788 L 255.983 491.788 Z " fill="rgb(226,67,41)"/><path d=" M 29.681 201.652 L 29.681 201.652 L 0.957 289.799 C -1.642 297.803 1.165 306.638 8.025 311.627 L 255.983 491.786 L 29.681 201.652 L 29.681 201.652 Z " fill="rgb(252,163,38)"/><path d=" M 29.681 201.652 L 161.796 201.652 L 104.937 26.917 C 102.027 17.977 89.345 17.977 86.33 26.917 L 29.681 201.652 L 29.681 201.652 Z " fill="rgb(226,67,41)"/><path d=" M 482.423 201.652 L 482.423 201.652 L 511.043 289.799 C 513.642 297.803 510.835 306.638 503.975 311.627 L 255.983 491.788 L 482.423 201.652 L 482.423 201.652 Z " fill="rgb(252,163,38)"/><path d=" M 482.423 201.652 L 350.307 201.652 L 407.061 26.917 C 409.971 17.977 422.654 17.977 425.668 26.917 L 482.423 201.652 L 482.423 201.652 Z " fill="rgb(226,67,41)"/><path d=" M 255.983 491.788 L 350.307 201.652 L 482.423 201.652 L 255.983 491.788 Z " fill="rgb(252,109,38)"/><path d=" M 255.983 491.788 L 29.681 201.652 L 161.796 201.652 L 255.983 491.788 Z " fill="rgb(252,109,38)"/></g></g></svg>