<?xml version="1.0" encoding="UTF-8" standalone="no"?><!-- Generator: Gravit.io --><svg xmlns="http://www.w3.org/2000/svg" xmlns:xlink="http://www.w3.org/1999/xlink" style="isolation:isolate" viewBox="0 0 512 512" width="512pt" height="512pt"><defs><clipPath id="_clipPath_oFo7jAeLJ8v72Y5WjGPycUM4389VPVAb"><rect width="512" height="512"/></clipPath></defs><g clip-path="url(#_clipPath_oFo7jAeLJ8v72Y5WjGPycUM4389VPVAb)"><rect x="0" y="0" width="512" height="512" transform="matrix(1,0,0,1,0,0)" fill="rgb(102,0,51)"/><path d=" M 129.113 227.362 C 127.942 228.288 127.695 229.829 128.373 231.989 C 128.99 233.901 130.44 236.275 132.722 239.112 C 141.912 250.462 152.86 259.898 165.566 267.423 C 178.272 274.949 191.872 280.5 206.367 284.077 C 220.923 287.716 235.788 289.535 250.961 289.535 C 270.39 289.535 288.894 286.699 306.472 281.023 C 324.051 275.411 338.73 267.516 350.512 257.339 C 354.644 253.7 356.71 250.801 356.71 248.642 C 356.71 247.84 356.371 247.038 355.693 246.236 C 354.767 245.312 353.657 245.003 352.362 245.312 C 351.066 245.619 349.247 246.391 346.903 247.624 C 335.616 253.546 321.862 258.264 305.64 261.78 C 289.48 265.357 272.61 267.146 255.032 267.146 C 233.259 267.146 212.226 264.185 191.934 258.264 C 171.641 252.343 153.661 243.091 137.995 230.508 C 135.713 228.72 133.863 227.578 132.444 227.085 C 131.087 226.592 129.977 226.684 129.113 227.362 L 129.113 227.362 Z  M 334.687 231.994 C 333.392 233.228 333.052 234.523 333.669 235.88 C 334.101 236.867 334.934 237.422 336.168 237.545 C 337.401 237.73 339.159 237.607 341.441 237.175 C 345.142 236.374 348.997 235.818 353.006 235.51 C 357.015 235.263 360.5 235.325 363.46 235.695 C 366.422 236.126 368.272 236.867 369.012 237.915 C 370.122 239.581 369.721 243.096 367.809 248.463 C 365.959 253.828 363.43 259.04 360.222 264.099 C 358.989 266.133 358.249 267.737 358.002 268.909 C 357.755 270.081 358.064 271.068 358.927 271.87 C 359.482 272.425 360.099 272.702 360.777 272.702 C 362.567 272.702 365.157 271.129 368.549 267.984 C 374.656 262.68 378.942 256.388 381.409 249.11 C 382.766 245.347 383.599 241.4 383.907 237.268 C 384.216 233.136 383.753 230.174 382.519 228.386 C 381.348 226.659 378.757 225.24 374.748 224.13 C 370.801 223.02 366.822 222.464 362.813 222.464 C 354.979 222.464 347.547 224.315 340.516 228.016 C 337.926 229.435 335.983 230.761 334.687 231.994 Z " fill-rule="evenodd" fill="rgb(255,255,255)"/></g></svg>