<?xml version="1.0" encoding="UTF-8" standalone="no"?><!-- Generator: Gravit.io --><svg xmlns="http://www.w3.org/2000/svg" xmlns:xlink="http://www.w3.org/1999/xlink" style="isolation:isolate" viewBox="0 0 512 512" width="512pt" height="512pt"><defs><clipPath id="_clipPath_VS8ysLE6fWlMGxFadD55mD9CfM91CHxM"><rect width="512" height="512"/></clipPath></defs><g clip-path="url(#_clipPath_VS8ysLE6fWlMGxFadD55mD9CfM91CHxM)"><path d="M 477.714 383.995 L 256.005 512 L 34.286 383.995 L 34.286 127.985 L 256.005 0 L 477.714 127.985 L 477.714 383.995 Z" fill-rule="evenodd" fill="rgb(27,27,29)" /><path d=" M 201.728 206.024 C 198.802 206.033 195.861 206.147 192.9 206.39 C 173.235 208.028 154.517 218.991 154.483 235.636 C 154.462 244.076 160.522 250.915 169.912 250.614 C 180.946 250.244 190.004 241.491 194.746 230.456 C 196.545 226.269 193.213 224.53 191.628 226.94 C 188.866 231.151 185.02 234.539 180.493 236.747 C 175.302 239.264 169.752 238.585 168.07 234.411 C 165.705 228.522 170.621 219.71 181.841 215.563 C 198.047 209.623 215.004 213.552 231.32 216.588 C 231.553 216.588 232.422 217.065 231.653 217.461 C 228.731 219.039 225.855 220.321 221.373 224.14 C 218.16 226.864 213.954 230.491 210.7 234.442 C 207.471 238.336 205.182 241.81 202.154 245.66 C 201.731 246.217 201.212 246.191 201.218 246.191 C 193.836 247.425 186.609 248.252 179.992 252.808 C 178.623 253.743 178.029 255.403 178.859 256.673 C 179.605 257.799 181.311 257.919 182.495 257.066 C 186.606 254.021 190.838 252.588 195.692 252.455 C 195.904 252.468 196.006 252.502 196.066 252.632 C 196.103 252.705 196.08 252.858 195.993 252.971 C 188.722 262.958 186.901 265.215 181.431 271.407 C 178.634 274.589 175.882 277.275 172.809 280.071 C 160.39 291.494 147.032 291.297 142.24 284.135 C 139.377 279.836 139.754 275.324 141.631 271.58 C 143.941 266.995 148.61 263.634 152.493 261.672 C 153.934 260.944 154.349 259.119 152.906 257.456 C 151.988 256.372 149.764 256.179 148.107 256.48 C 143.02 257.41 137.01 261.218 133.459 265.799 C 129.456 270.941 127.457 277.183 128.128 284.188 C 129.333 296.829 139.845 304.13 151.778 304.046 C 161.273 303.972 170.218 301.124 180.98 290.306 C 191.012 280.217 200.152 265.147 208.711 251.172 C 208.979 250.726 209.17 250.486 210.471 250.326 C 215.839 249.661 223.765 248.904 228.845 248.613 C 229.974 248.551 230.204 248.564 230.657 249.122 C 231.98 250.776 233.968 252.179 235.56 253.033 C 236.337 253.451 236.706 253.659 237.316 253.669 C 238.068 253.685 238.654 253.284 239.032 252.86 C 239.571 252.274 239.72 251.508 239.428 251.015 C 239.124 250.497 235.582 248.553 235.477 247.767 C 235.399 247.277 235.941 247.158 235.941 247.158 C 238.545 246.349 241.255 244.685 242.897 241.57 C 244.51 238.504 244.771 234.413 241.82 232.138 C 239.229 230.14 235.316 230.455 232.193 233.23 C 229.139 235.924 228.128 239.843 228.541 243.277 C 228.615 243.873 228.584 244.073 227.764 244.141 C 223.069 244.513 218.545 244.642 213.514 244.906 C 213.177 244.93 213.07 244.71 213.266 244.479 C 219.06 234.513 227.71 227.416 237.278 220.427 C 237.912 219.956 237.719 219.061 237.693 218.313 C 254.968 222.029 271.663 228.946 289.586 228.799 C 296.997 228.739 304.093 227.623 310.875 223.939 C 316.84 220.718 319.261 217.738 319.438 214.641 C 319.578 212.501 318.074 211.148 315.934 211.609 C 297.825 215.728 280.55 215.683 262.533 213.524 C 241.956 211.051 222.21 205.96 201.728 206.024 L 201.728 206.024 Z  M 237.875 234.907 C 238.298 234.929 238.694 235.07 239.015 235.342 C 239.969 236.149 239.517 238.163 238.553 239.558 C 237.5 241.096 235.714 242.425 234.084 242.748 C 233.758 242.808 233.475 242.669 233.34 241.952 L 233.339 241.952 C 233.073 240.054 233.698 237.513 235.747 235.722 C 236.388 235.161 237.17 234.87 237.875 234.907 L 237.875 234.907 Z  M 383.245 235.271 C 379.953 235.271 375.635 235.276 372.204 235.276 C 371.387 235.276 370.964 235.375 370.577 236.127 C 369.312 238.53 353.881 261.428 351.007 265.876 C 350.525 266.552 349.933 266.457 349.865 265.686 C 349.574 263.045 347.272 260.01 343.643 258.558 C 340.876 257.446 338.171 257.246 335.361 257.615 C 330.286 258.289 325.764 260.943 321.788 263.931 C 315.797 268.443 310.629 274.285 303.955 278.604 C 300.312 280.955 295.324 283.006 291.986 279.948 C 288.966 277.175 289.305 271.014 293.928 266.251 C 294.414 265.751 294.999 266.168 294.907 266.616 C 294.47 268.771 295.007 270.914 296.659 272.417 C 298.675 274.204 301.561 274.408 304.029 273.214 C 306.945 271.786 308.657 269.023 309.159 265.888 C 309.93 261.026 306.149 256.738 301.422 256.395 C 297.579 256.128 293.896 257.451 290.307 260.386 C 288.507 261.863 287.482 262.957 285.927 265.147 C 285.547 265.688 284.965 265.743 284.984 264.945 C 285.164 258.721 282.562 255.219 277.364 255.104 C 273.332 255.01 269.021 257.174 265.663 259.828 C 261.98 262.756 258.761 266.636 255.31 270.282 C 254.881 270.732 254.506 270.711 254.386 269.839 C 254.281 265.715 253.234 261.721 251.305 258.885 C 250.624 257.898 249.189 257.409 247.982 258.075 C 247.425 258.378 245.486 259.26 244.077 260.384 C 243.376 260.955 243.106 261.782 243.413 262.842 C 245.274 269.001 244.864 276.006 242.34 281.924 C 240.022 287.341 235.516 292.23 230.223 293.884 C 226.735 294.979 223.107 294.443 220.863 291.381 C 217.781 287.155 219.027 279.807 223.619 273.703 C 227.675 268.331 233.537 264.917 239.388 262.719 C 240.078 262.457 240.218 262.02 240.024 261.441 C 239.705 260.487 239.199 259.192 238.99 258.598 C 238.455 257.185 236.952 256.954 235.119 257.153 C 230.869 257.643 227.036 259.085 223.249 261.093 C 213.331 266.351 208.361 276.527 206.18 281.973 C 205.132 284.585 204.234 286.22 203.074 287.666 C 201.511 289.612 199.549 291.382 195.96 294.503 C 195.637 294.79 195.394 295.386 195.666 295.94 C 196.033 296.692 197.898 299.3 198.426 299.533 C 199.01 299.818 199.687 299.42 199.959 299.226 C 202.47 297.542 205.474 294.871 206.945 293.059 C 207.459 292.439 207.991 292.7 208.264 293.641 C 209.636 298.488 213.229 302.445 218.197 304.1 C 227.29 307.137 236.722 302.742 243.84 295.091 C 248.364 290.229 249.997 287.102 251.731 284.976 C 254.669 281.37 260.467 273.303 267.371 268.124 C 269.903 266.215 272.901 264.759 274.408 265.725 C 275.617 266.502 276.007 268.305 274.066 271.8 C 267.028 284.527 256.667 299.481 254.767 303.11 C 254.421 303.74 254.723 304.233 255.389 304.233 C 259.072 304.217 262.726 304.225 266.07 304.225 C 266.625 304.199 266.876 303.948 267.154 303.558 C 272.556 295.186 277.641 287.213 283.09 278.974 C 283.397 278.488 283.677 278.865 283.689 279.077 C 283.802 280.987 284.275 283.604 285.421 285.322 C 287.482 288.496 290.401 289.86 293.64 289.881 C 296.216 289.91 297.518 289.522 300.296 288.495 C 302.239 287.772 304.078 286.795 305.764 285.588 C 306.578 285.03 306.72 285.966 306.699 286.11 C 305.45 292.758 306.994 300.633 313.666 303.899 C 321.651 307.799 330.424 302.319 335.471 297.373 C 335.965 296.896 336.497 296.946 336.547 297.972 C 336.654 299.862 337.515 302.103 339.094 303.672 C 343.323 307.875 351.859 306.21 360.425 299.643 C 365.926 295.442 371.681 289.503 376.879 283.214 C 377.071 282.971 377.215 282.578 376.843 282.183 C 376.05 281.363 374.905 280.424 374.121 279.701 C 373.763 279.4 373.237 279.486 372.934 279.715 C 367.607 284.731 362.812 290.454 355.877 295.186 C 353.54 296.801 349.815 298.105 348.141 295.863 C 347.489 294.992 347.564 293.786 348.206 292.206 C 350.23 287.213 382.229 238.972 383.889 236.131 L 383.892 236.127 C 384.177 235.632 383.876 235.27 383.245 235.27 L 383.245 235.271 Z  M 338.407 265.43 C 339.245 265.423 340.03 265.582 340.744 265.922 C 344.685 267.785 343.426 272.303 341.665 275.851 C 341.544 276.076 341.518 276.339 341.594 276.583 C 341.658 276.952 342.143 277.309 342.62 277.479 C 342.787 277.54 342.881 277.66 342.692 278.048 C 341.33 280.936 340.081 282.601 338.374 285.109 C 336.808 287.427 335.041 289.234 332.899 290.975 C 329.671 293.62 325.19 296.498 321.485 294.563 C 319.838 293.716 319.128 291.436 319.16 289.59 C 319.246 284.397 321.571 279.067 325.878 273.829 C 330.145 268.629 334.777 265.462 338.408 265.43 L 338.407 265.43 Z " fill="rgb(237,29,36)"/></g></svg>