<?xml version="1.0" encoding="UTF-8" standalone="no"?><!-- Generator: Gravit.io --><svg xmlns="http://www.w3.org/2000/svg" xmlns:xlink="http://www.w3.org/1999/xlink" style="isolation:isolate" viewBox="0 0 512 512" width="512pt" height="512pt"><defs><clipPath id="_clipPath_4gfmQRnYeNQ34s5zzPOmIuW6QGmnfvsQ"><rect width="512" height="512"/></clipPath></defs><g clip-path="url(#_clipPath_4gfmQRnYeNQ34s5zzPOmIuW6QGmnfvsQ)"><path d="M 477.714 383.995 L 256.005 512 L 34.286 383.995 L 34.286 127.985 L 256.005 0 L 477.714 127.985 L 477.714 383.995 Z" fill-rule="evenodd" fill="rgb(27,27,29)" /><path d=" M 361.575 240.648 C 351.214 241.402 342.926 249.878 342.173 260.238 C 341.419 272.482 351.026 282.654 363.082 282.654 C 367.414 282.654 373.253 280.393 375.89 275.873 L 375.89 282.089 L 383.99 282.089 L 383.99 262.122 C 384.367 248.936 373.818 239.706 361.575 240.648 Z  M 375.325 262.122 C 374.949 269.091 368.921 274.366 361.763 273.424 C 356.3 272.67 351.968 268.338 351.214 262.875 C 350.461 255.529 356.112 249.313 363.27 249.313 C 369.674 249.313 374.949 254.399 375.325 260.803 L 375.325 262.122 L 375.325 262.122 Z  M 317.12 240.648 C 306.006 241.025 296.588 249.501 296.588 261.934 C 296.588 273.236 305.818 282.842 317.685 282.842 C 325.973 282.842 334.073 277.945 337.275 269.845 L 329.176 267.396 C 327.669 270.787 324.09 273.612 320.134 274.366 C 314.483 275.496 309.209 271.917 307.137 268.15 L 338.594 259.485 C 337.652 251.197 330.494 240.271 317.12 240.648 Z  M 305.441 260.615 C 305.441 256.283 308.078 251.197 313.729 249.125 C 320.134 246.676 325.785 249.878 328.234 254.399 L 305.441 260.615 Z  M 247.99 249.125 L 247.99 240.46 C 240.078 240.46 237.441 244.415 236.122 246.487 L 236.122 241.778 L 227.081 241.778 L 227.081 260.992 L 227.081 281.9 L 236.311 281.9 C 236.311 269.468 236.311 269.657 236.311 262.122 C 236.311 253.08 241.585 249.501 247.99 249.125 Z  M 164.92 265.889 L 137.418 233.49 L 128 233.49 L 128 281.9 L 137.795 281.9 L 137.795 249.501 L 165.673 282.089 L 174.15 282.089 L 174.15 233.49 L 164.92 233.49 L 164.92 265.889 Z  M 291.125 229.158 L 282.461 229.158 L 282.461 244.981 C 280.389 242.343 273.984 240.083 268.521 240.648 C 258.161 241.402 249.873 249.878 249.12 260.238 C 248.366 272.482 257.973 282.654 270.028 282.654 C 274.549 282.654 280.765 280.582 282.837 276.626 L 282.837 281.9 L 290.937 281.9 L 290.937 261.934 C 290.937 261.745 290.937 261.745 290.937 261.557 C 290.937 261.368 290.937 261.368 290.937 261.18 L 291.125 229.158 L 291.125 229.158 Z  M 282.084 262.122 C 281.707 269.091 275.679 274.366 268.521 273.424 C 263.059 272.67 258.726 268.338 257.973 262.875 C 257.219 255.529 262.87 249.313 270.028 249.313 C 276.433 249.313 281.707 254.399 282.084 260.803 C 282.084 260.803 282.084 262.122 282.084 262.122 Z  M 200.71 240.46 C 189.031 240.46 179.612 249.878 179.612 261.557 C 179.612 273.236 189.031 282.654 200.71 282.654 C 212.388 282.654 221.807 273.236 221.807 261.557 C 221.618 249.878 212.2 240.46 200.71 240.46 Z  M 200.71 273.612 C 194.117 273.612 188.654 268.15 188.654 261.557 C 188.654 254.964 194.117 249.501 200.71 249.501 C 207.302 249.501 212.765 254.964 212.765 261.557 C 212.765 268.338 207.302 273.612 200.71 273.612 Z " fill-rule="evenodd" fill="rgb(255,255,255)"/></g></svg>