<?xml version="1.0" encoding="UTF-8" standalone="no"?><!-- Generator: Gravit.io --><svg xmlns="http://www.w3.org/2000/svg" xmlns:xlink="http://www.w3.org/1999/xlink" style="isolation:isolate" viewBox="0 0 512 512" width="512pt" height="512pt"><defs><clipPath id="_clipPath_qKCfSrK35cTyditb5zkaviaqc9lM8o51"><rect width="512" height="512"/></clipPath></defs><g clip-path="url(#_clipPath_qKCfSrK35cTyditb5zkaviaqc9lM8o51)"><rect x="0" y="0" width="512" height="512" transform="matrix(1,0,0,1,0,0)" fill="rgb(239,191,4)"/><path d=" M 148.571 235.474 L 164.023 235.474 C 168.571 235.474 172.114 236.384 174.583 238.208 C 177.079 240.032 178.331 242.647 178.331 246.071 C 178.331 248.027 177.884 249.723 176.987 251.145 C 176.091 252.585 174.77 253.723 173.015 254.569 C 175.438 255.374 177.294 256.649 178.592 258.395 C 179.881 260.142 180.521 262.263 180.521 264.75 C 180.521 267.205 179.895 269.317 178.647 271.058 C 177.399 272.823 175.616 274.185 173.298 275.145 C 170.985 276.105 168.224 276.585 164.978 276.585 L 148.567 276.585 L 148.571 235.474 Z  M 128 292.617 L 201.143 292.617 L 201.143 219.474 L 128 219.474 L 128 292.617 Z  M 163.246 242.331 C 167.685 242.331 169.92 243.963 169.92 247.223 C 169.92 248.91 169.353 250.226 168.215 251.163 C 167.077 252.105 165.426 252.571 163.278 252.571 L 156.969 252.571 L 156.969 242.331 L 163.246 242.331 Z  M 164.306 259.017 L 156.901 259.017 L 156.901 270.126 L 164.169 270.126 C 166.665 270.126 168.59 269.655 169.929 268.718 C 171.273 267.776 171.945 266.427 171.945 264.663 C 171.945 260.905 169.39 259.04 164.265 259.04 L 164.306 259.017 Z  M 240 235.474 L 255.451 235.474 C 260 235.474 263.543 236.384 266.011 238.208 C 268.507 240.032 269.76 242.647 269.76 246.071 C 269.76 248.027 269.312 249.723 268.416 251.145 C 267.52 252.585 266.194 253.723 264.443 254.569 C 266.866 255.374 268.722 256.649 270.021 258.395 C 271.31 260.142 271.95 262.263 271.95 264.75 C 271.95 267.205 271.323 269.317 270.075 271.058 C 268.827 272.823 267.045 274.185 264.727 275.145 C 262.414 276.105 259.653 276.585 256.407 276.585 L 239.995 276.585 L 240 235.474 Z  M 219.429 292.617 L 292.571 292.617 L 292.571 219.474 L 219.429 219.474 L 219.429 292.617 Z  M 254.674 242.331 C 259.113 242.331 261.349 243.963 261.349 247.223 C 261.349 248.91 260.782 250.226 259.643 251.163 C 258.505 252.105 256.855 252.571 254.706 252.571 L 248.398 252.571 L 248.398 242.331 L 254.674 242.331 Z  M 255.735 259.017 L 248.329 259.017 L 248.329 270.126 L 255.598 270.126 C 258.094 270.126 260.018 269.655 261.358 268.718 C 262.702 267.776 263.374 266.427 263.374 264.663 C 263.374 260.905 260.818 259.04 255.694 259.04 L 255.735 259.017 Z  M 357.486 276.16 C 359.73 275.616 361.705 274.871 363.429 273.934 L 363.429 266.117 C 359.831 268.334 355.886 269.445 351.634 269.445 C 348.846 269.445 346.469 268.919 344.503 267.867 C 342.546 266.816 341.056 265.285 340.032 263.25 C 339.003 261.239 338.491 258.802 338.491 255.936 C 338.491 253.079 339.022 250.633 340.087 248.667 C 341.152 246.674 342.679 245.152 344.658 244.101 C 346.651 243.049 349.061 242.523 351.881 242.523 C 353.934 242.523 355.89 242.797 357.733 243.342 C 359.589 243.886 361.312 244.686 362.898 245.737 L 362.898 237.737 C 361.157 236.837 359.269 236.151 357.23 235.68 C 355.195 235.209 353.038 234.976 350.738 234.976 C 347.447 234.976 344.475 235.465 341.824 236.443 C 339.173 237.422 336.887 238.83 335.013 240.672 C 333.115 242.514 331.662 244.722 330.656 247.301 C 329.65 249.874 329.147 252.741 329.147 255.941 C 329.147 259.214 329.632 262.158 330.601 264.763 C 331.57 267.378 332.96 269.563 334.784 271.392 C 336.603 273.198 338.83 274.578 341.458 275.538 C 344.091 276.498 347.035 276.978 350.327 276.978 C 352.805 276.978 355.173 276.705 357.413 276.16 L 357.486 276.16 Z  M 384 292.526 L 310.857 292.526 L 310.857 219.383 L 384 219.383 L 384 292.526 Z " fill-rule="evenodd" fill="rgb(255,255,255)"/></g></svg>