<svg width="51" height="51" viewBox="0 0 51 51" class="svg-icon fill-current w-full h-full" fill="none" xmlns="http://www.w3.org/2000/svg"><path d="M18 3H33V6H39V9H42V12H45V18H48V33H45V39H42V42H39V45H33V48H18V45H12V42H9V39H6V33H3V18H6V12H9V9H12V6H18V3Z" fill="#F2F2F2"></path><path d="M18 3L33 3L33 0L18 -6.7303e-10L18 3Z" fill="black"></path><path d="M33 6L39 6L39 3L33 3L33 6Z" fill="black"></path><path d="M39 9L42 9L42 6L39 6L39 9Z" fill="black"></path><path d="M42 12L45 12L45 9L42 9L42 12Z" fill="black"></path><path d="M45 18L48 18L48 12L45 12L45 18Z" fill="black"></path><path d="M48 33L51 33L51 18L48 18L48 33Z" fill="black"></path><path d="M18 3H12V6H18V3Z" fill="black"></path><path d="M12 6H9V9H12V6Z" fill="black"></path><path d="M9 9H6V12H9V9Z" fill="black"></path><path d="M6 12H3V18H6V12Z" fill="black"></path><path d="M3 18H0V33H3V18Z" fill="black"></path><path d="M18 45H12V48H18V45Z" fill="black"></path><path d="M12 42H9V45H12V42Z" fill="black"></path><path d="M9 39H6V42H9V39Z" fill="black"></path><path d="M6 33H3V39H6V33Z" fill="black"></path><path d="M33 48H39V45H33V48Z" fill="black"></path><path d="M39 45H42V42H39V45Z" fill="black"></path><path d="M42 42H45V39H42V42Z" fill="black"></path><path d="M45 39H48V33H45V39Z" fill="black"></path><path d="M33 48H18V51H33V48Z" fill="black"></path><path d="M18 42H12V45H18V42Z" fill="#999999"></path><path d="M12 39H9V42H12V39Z" fill="#999999"></path><path d="M9 33H6V39H9V33Z" fill="#999999"></path><path d="M6 27H3V33H6V27Z" fill="#999999"></path><path d="M33 45H39V42H33V45Z" fill="#999999"></path><path d="M39 42H42V39H39V42Z" fill="#999999"></path><path d="M42 39L45 39L45 33L42 33L42 39Z" fill="#999999"></path><path d="M45 33H48V27H45V33Z" fill="#999999"></path><path d="M33 45H18V48H33V45Z" fill="#999999"></path><path d="M33 9L39 9L39 6L33 6L33 9Z" fill="#CCCCCC"></path><path d="M39 12L42 12L42 9L39 9L39 12Z" fill="#CCCCCC"></path><path d="M42 18L45 18L45 12L42 12L42 18Z" fill="#CCCCCC"></path><path d="M45 24L48 24L48 18L45 18L45 24Z" fill="#CCCCCC"></path><path d="M18 6H12V9H18V6Z" fill="#CCCCCC"></path><path d="M12 9H9V12H12V9Z" fill="#CCCCCC"></path><path d="M9 12H6V18H9V12Z" fill="#CCCCCC"></path><path d="M6 18H3V24H6V18Z" fill="#CCCCCC"></path><path d="M18 6L33 6L33 3L18 3L18 6Z" fill="#CCCCCC"></path><path d="M15 24H18V21H21V18H24V15H27V21H33V30H27V36H24V33H21V30H18V27H15V24Z" fill="#218F4B"></path><path d="M18 30L21 30L21 27L18 27L18 30Z" fill="#166D35"></path><path d="M27 30L33 30L33 27L27 27L27 30Z" fill="#166D35"></path><path d="M21 33L24 33L24 30L21 30L21 33Z" fill="#166D35"></path><path d="M24 36L27 36L27 33L24 33L24 36Z" fill="#166D35"></path><path d="M24 18L27 18L27 15L24 15L24 18Z" fill="#6EBA89"></path><path d="M21 21L24 21L24 18L21 18L21 21Z" fill="#6EBA89"></path><path d="M18 24L21 24L21 21L18 21L18 24Z" fill="#6EBA89"></path></svg>
