<?xml version="1.0" encoding="UTF-8" standalone="no"?><!-- Generator: Gravit.io --><svg xmlns="http://www.w3.org/2000/svg" xmlns:xlink="http://www.w3.org/1999/xlink" style="isolation:isolate" viewBox="0 0 512 512" width="512pt" height="512pt"><defs><clipPath id="_clipPath_maVZHpbJpPTlPkUnGsiQKj4x2L9R8QNZ"><rect width="512" height="512"/></clipPath></defs><g clip-path="url(#_clipPath_maVZHpbJpPTlPkUnGsiQKj4x2L9R8QNZ)"><rect x="0" y="0" width="512" height="512" transform="matrix(1,0,0,1,0,0)" fill="rgb(0,0,128)"/><path d=" M 311.938 160.059 C 333.973 160.059 351.846 253.021 351.846 367.829 L 384 367.829 C 384 244.226 351.563 144.171 311.843 144.171 C 289.147 144.171 269.098 174.15 255.858 221.246 C 242.618 174.15 222.57 144.171 200.062 144.171 C 160.343 144.171 128 244.132 128 367.734 L 160.154 367.734 C 160.154 252.926 177.838 160.059 199.873 160.059 C 221.908 160.059 239.781 245.928 239.781 351.846 L 271.746 351.846 C 271.746 245.928 289.714 160.059 311.749 160.059" fill="rgb(255,255,255)"/></g></svg>