<?xml version="1.0" encoding="UTF-8" standalone="no"?><!-- Generator: Gravit.io --><svg xmlns="http://www.w3.org/2000/svg" xmlns:xlink="http://www.w3.org/1999/xlink" style="isolation:isolate" viewBox="0 0 512 512" width="512pt" height="512pt"><defs><clipPath id="_clipPath_yPgTSGdpLqVUg0fVNGqKuCYak5BnlDn2"><rect width="512" height="512"/></clipPath></defs><g clip-path="url(#_clipPath_yPgTSGdpLqVUg0fVNGqKuCYak5BnlDn2)"><circle vector-effect="non-scaling-stroke" cx="256" cy="256" r="256" fill="rgb(239,191,4)" /><path d=" M 285.733 235.537 L 384 235.537 L 384 214.22 L 285.733 214.22 L 285.733 235.537 Z  M 373.745 129.804 L 296.822 129.804 L 296.822 151.995 L 373.745 151.995 L 373.745 129.804 Z  M 216.18 129.801 L 150.264 129.801 L 150.264 151.992 L 193.88 151.992 L 193.88 214.245 L 139.161 214.245 L 139.161 235.534 L 238.413 235.534 L 238.413 214.245 L 216.18 214.245 L 216.18 129.801 Z  M 285.733 276.384 L 285.733 276.384 L 285.733 382.199 L 384 382.199 L 384 276.384 L 285.733 276.384 Z  M 362.588 359.912 L 307.965 359.912 L 307.965 297.755 L 362.588 297.755 L 362.588 359.912 Z  M 150.259 276.384 L 138.897 329.312 L 161.129 329.312 L 167.815 297.755 L 211.569 297.755 L 198.47 359.912 L 132.444 359.912 L 128 382.199 L 216.19 382.199 L 238.422 276.384 L 150.259 276.384 Z " fill-rule="evenodd" fill="rgb(255,255,255)"/></g></svg>