<?xml version="1.0" encoding="UTF-8" standalone="no"?><!-- Generator: Gravit.io --><svg xmlns="http://www.w3.org/2000/svg" xmlns:xlink="http://www.w3.org/1999/xlink" style="isolation:isolate" viewBox="0 0 512 512" width="512pt" height="512pt"><defs><clipPath id="_clipPath_EpiENp6RBIV0sM71TCr03J76d3bv5llc"><rect width="512" height="512"/></clipPath></defs><g clip-path="url(#_clipPath_EpiENp6RBIV0sM71TCr03J76d3bv5llc)"><path d="M 477.714 383.995 L 256.005 512 L 34.286 383.995 L 34.286 127.985 L 256.005 0 L 477.714 127.985 L 477.714 383.995 Z" fill-rule="evenodd" fill="rgb(27,27,29)" /><path d=" M 334.036 128 C 331.284 128 327.942 130.318 318.939 138.161 C 315.742 139.32 312.255 138.451 308.189 144.7 C 285.249 177.666 267.39 300.943 252.138 336.526 C 249.086 321.13 242.702 220.928 240.229 193.487 C 239.939 188.407 240.519 182.013 240.519 178.246 C 240.519 152.978 235.013 140.19 209.736 140.19 C 196.957 140.19 184.333 144.845 177.649 153.268 C 174.461 157.614 173.293 160.821 173.293 168.654 C 173.293 221.083 185.782 307.038 199.719 363.088 C 204.076 380.668 219.762 384 234.569 384 C 241.543 384 248.507 383.131 258.388 378.195 C 292.648 361.485 301.805 315.895 310.662 271.609 C 312.255 263.621 320.243 224.995 324.02 204.673 C 329.101 176.932 334.906 145.57 338.393 134.095 C 339.552 130.618 337.378 128 334.046 128 L 334.036 128 Z " fill="rgb(0,103,79)"/></g></svg>