<?xml version="1.0" encoding="UTF-8" standalone="no"?><!-- Generator: Gravit.io --><svg xmlns="http://www.w3.org/2000/svg" xmlns:xlink="http://www.w3.org/1999/xlink" style="isolation:isolate" viewBox="0 0 512 512" width="512pt" height="512pt"><defs><clipPath id="_clipPath_YE9GafG8g9cbOYb1LSCQmsT2irfUSkAn"><rect width="512" height="512"/></clipPath></defs><g clip-path="url(#_clipPath_YE9GafG8g9cbOYb1LSCQmsT2irfUSkAn)"><rect width="512" height="512" style="fill:rgb(6,64,43)"/><path d=" M 256.002 128.844 C 222.054 128.843 189.496 142.24 165.491 166.086 C 141.486 189.933 128 222.276 128 256 C 128 289.724 141.486 322.067 165.491 345.914 C 189.496 369.76 222.054 383.157 256.002 383.156 C 326.693 383.156 384 326.226 384 256 C 384 185.774 326.693 128.844 256.002 128.844 Z  M 257.396 149.647 C 305.569 149.647 341.334 181.786 355.12 215.78 C 322.883 207.51 292.789 239.447 292.789 239.447 L 307.535 253.083 C 319.624 243.167 338.329 229.991 351.466 235.07 C 357.567 237.428 365.54 244.918 365.54 256.346 C 365.54 277.037 340.285 299.166 300.376 261.2 C 246.432 209.878 243.407 210.394 221.844 197.944 C 200.281 185.493 169.569 193.887 169.569 193.887 C 192.262 162.101 226.09 149.647 257.396 149.647 Z  M 189.486 207.981 C 199.262 208.186 209.962 211.609 220.809 219.184 C 238.116 231.265 255.659 247.044 272.084 262.712 C 296.104 285.621 319.196 307.024 352.148 300.528 C 342.624 320.262 328.583 335.646 310.426 346.47 C 296.457 354.799 281.119 360.701 264.497 362.027 C 226.047 365.087 189.14 346.819 168.21 315.683 C 168.21 315.683 192.569 324.492 227.72 311.231 C 251.769 302.158 274.756 280.522 274.756 280.522 L 259.732 265.851 C 212.584 312.24 145.543 313.259 145.543 254.044 C 145.543 227.966 164.503 207.458 189.486 207.984 L 189.486 207.981 Z " fill="rgb(255,255,255)"/></g></svg>