<svg xmlns="http://www.w3.org/2000/svg" viewBox="0 0 182 200" width="182" height="200">
	<style>
		tspan { white-space:pre }
		.shp0 { fill: #ffcc11 } 
		.shp1 { fill: #000000 } 
		.shp2 { fill: #ffffff } 
	</style>
	<g >
		<path class="shp0" d="M135.55 0.14C135.54 0.16 135.2 1.18 134.81 2.39C134.42 3.61 133.89 5.25 133.64 6.05L133.17 7.49C126.19 7.49 125.37 7.5 125.37 7.56C125.37 7.59 126.78 8.64 128.49 9.88C130.21 11.13 131.61 12.17 131.61 12.21C131.61 12.25 131.07 13.92 130.42 15.93C129.76 17.94 129.24 19.6 129.26 19.62C129.28 19.64 130.7 18.63 132.42 17.37C134.13 16.12 135.57 15.09 135.6 15.09C135.64 15.09 137.04 16.09 138.72 17.32C140.4 18.54 141.82 19.56 141.87 19.58C141.92 19.6 141.96 19.58 141.96 19.54C141.96 19.51 141.43 17.84 140.77 15.84C140.12 13.84 139.59 12.19 139.59 12.17C139.6 12.16 141.01 11.13 142.73 9.88C144.45 8.64 145.86 7.59 145.86 7.56C145.86 7.5 145.04 7.49 141.95 7.48L138.04 7.46C136.21 1.78 135.65 0.12 135.63 0.11C135.6 0.11 135.57 0.12 135.55 0.14ZM46.91 1.44C46.68 2.15 46.14 3.81 45.72 5.12L44.95 7.52C38.53 7.56 37.18 7.59 37.17 7.62C37.17 7.65 38.53 8.66 40.2 9.87C41.87 11.08 43.28 12.1 43.33 12.13C43.42 12.19 43.35 12.43 42.22 15.89C41.56 17.92 41.04 19.6 41.06 19.62C41.09 19.65 42.52 18.63 44.25 17.37L47.4 15.08C47.76 15.35 49.18 16.38 50.78 17.55C52.38 18.72 53.71 19.65 53.73 19.63C53.75 19.6 53.23 17.95 52.57 15.94C51.91 13.94 51.38 12.27 51.38 12.24C51.38 12.2 52.77 11.16 54.48 9.93C56.19 8.7 57.6 7.66 57.6 7.62C57.61 7.55 57.05 7.54 53.73 7.54L49.84 7.54C47.92 1.62 47.42 0.16 47.39 0.16C47.35 0.16 47.15 0.69 46.91 1.44Z" />
		<path class="shp1" d="M24.43 35.28C17.47 42.78 11.69 49.01 11.59 49.12L11.39 49.34C12.37 50.1 12.99 50.61 13.39 50.95C13.79 51.29 14.52 51.97 15.01 52.46C15.49 52.94 16.13 53.62 16.43 53.97C16.72 54.31 17.17 54.86 17.42 55.19C17.67 55.52 18.06 56.07 18.29 56.41C18.52 56.75 18.81 57.21 18.94 57.43C19.07 57.64 19.31 58.07 19.48 58.39C19.65 58.7 19.92 59.25 20.09 59.61C20.26 59.97 20.52 60.58 20.67 60.96C20.82 61.35 21.04 61.97 21.16 62.34C21.28 62.71 21.47 63.39 21.58 63.85C21.7 64.31 21.86 65.08 21.94 65.57C22.03 66.05 22.13 66.79 22.18 67.2C22.22 67.62 22.28 68.46 22.3 69.08C22.33 69.71 22.33 70.71 22.3 71.37C22.28 72.01 22.22 72.9 22.18 73.34C22.13 73.79 22.04 74.55 21.96 75.03C21.89 75.52 21.75 76.34 21.65 76.85C21.55 77.37 21.38 78.18 21.26 78.65C21.15 79.12 20.93 79.95 20.78 80.49C20.62 81.04 20.35 81.93 20.17 82.47C20 83.01 19.71 83.86 19.53 84.34C19.35 84.83 19.04 85.64 18.84 86.14C18.64 86.64 18.27 87.5 18.03 88.06C17.78 88.62 17.36 89.56 17.08 90.14C16.81 90.73 16.28 91.79 15.92 92.51C15.55 93.22 14.99 94.29 14.66 94.88C14.34 95.46 13.9 96.25 13.69 96.62C13.47 96.99 13.04 97.73 12.72 98.26C12.41 98.79 11.88 99.65 11.55 100.18C11.22 100.71 10.48 101.88 9.89 102.78C9.3 103.68 8.52 104.94 8.14 105.57C7.76 106.2 7.23 107.1 6.97 107.57C6.71 108.04 6.18 109.05 5.8 109.8C5.42 110.56 4.94 111.55 4.74 111.99C4.54 112.43 4.23 113.16 4.04 113.6C3.86 114.05 3.55 114.82 3.36 115.32C3.16 115.82 2.83 116.74 2.63 117.37C2.42 118 2.13 118.93 1.98 119.43C1.84 119.93 1.62 120.76 1.49 121.27C1.36 121.79 1.17 122.6 1.07 123.07C0.97 123.54 0.82 124.34 0.73 124.84C0.65 125.34 0.52 126.17 0.45 126.68C0.38 127.2 0.28 128.01 0.24 128.48C0.19 128.95 0.12 129.84 0.08 130.46C0.03 131.1 0 132.32 0 133.33C0 134.29 0.02 135.43 0.06 135.85C0.09 136.27 0.16 137.15 0.21 137.79C0.27 138.43 0.36 139.32 0.42 139.77C0.47 140.21 0.6 141.08 0.71 141.69C0.81 142.31 0.99 143.27 1.1 143.82C1.22 144.38 1.44 145.35 1.59 145.98C1.75 146.61 1.98 147.5 2.11 147.96C2.24 148.42 2.5 149.27 2.69 149.86C2.87 150.44 3.18 151.34 3.36 151.86C3.55 152.37 3.87 153.21 4.07 153.71C4.27 154.21 4.61 155.01 4.82 155.5C5.04 155.99 5.47 156.91 5.8 157.56C6.12 158.2 6.56 159.05 6.79 159.45C7.01 159.85 7.37 160.47 7.58 160.83C7.8 161.19 8.28 161.95 8.66 162.52C9.04 163.09 9.66 163.98 10.05 164.5C10.44 165.01 11.02 165.75 11.34 166.14C11.66 166.52 12.19 167.13 12.51 167.49C12.83 167.85 13.45 168.5 13.89 168.95C14.33 169.39 15.03 170.06 15.45 170.43C15.86 170.81 16.48 171.35 16.82 171.63C17.17 171.91 17.74 172.37 18.1 172.65C18.45 172.92 19.14 173.42 19.63 173.76C20.12 174.1 20.91 174.63 21.4 174.94C21.88 175.24 22.66 175.7 23.11 175.96C23.57 176.23 24.54 176.74 25.27 177.1C26 177.47 26.93 177.91 27.33 178.09C27.73 178.26 28.44 178.56 28.91 178.75C29.38 178.95 30.17 179.25 30.65 179.43C31.14 179.61 31.98 179.9 32.53 180.08C33.07 180.25 34.01 180.54 34.61 180.71C35.21 180.88 36.2 181.15 36.82 181.3C37.43 181.45 38.5 181.69 39.18 181.84C39.87 181.98 41.05 182.21 41.81 182.34C42.57 182.47 43.79 182.65 44.54 182.75C45.28 182.85 46.46 182.99 47.16 183.07C47.86 183.14 48.89 183.23 49.45 183.27C50.01 183.32 50.83 183.38 51.27 183.41C51.72 183.44 52.57 183.51 53.17 183.57C53.77 183.62 54.74 183.73 55.33 183.8C55.91 183.87 56.85 184 57.41 184.09C57.97 184.18 58.87 184.33 59.41 184.43C59.95 184.53 60.94 184.72 61.59 184.86C62.25 185 63.29 185.25 63.91 185.4C64.52 185.56 65.48 185.82 66.04 185.98C66.6 186.14 67.56 186.44 68.17 186.64C68.79 186.84 69.72 187.17 70.25 187.36C70.78 187.55 71.65 187.89 72.18 188.1C72.71 188.31 73.61 188.7 74.18 188.95C74.75 189.2 75.86 189.73 76.65 190.12C77.43 190.52 78.53 191.09 79.09 191.4C79.65 191.72 80.47 192.19 80.91 192.46C81.36 192.72 82.08 193.18 82.52 193.46C82.97 193.75 83.7 194.24 84.16 194.55C84.62 194.87 85.49 195.49 86.09 195.94C86.69 196.39 87.55 197.06 88.01 197.42C88.47 197.79 89.24 198.43 89.72 198.85C90.2 199.27 90.69 199.7 90.81 199.8L91.03 199.99C91.63 199.46 92.12 199.04 92.51 198.7C92.89 198.37 93.64 197.75 94.17 197.32C94.7 196.9 95.4 196.35 95.73 196.1C96.06 195.85 96.69 195.39 97.14 195.08C97.58 194.76 98.33 194.25 98.8 193.93C99.27 193.62 99.96 193.17 100.33 192.94C100.71 192.71 101.34 192.33 101.74 192.09C102.14 191.86 102.83 191.47 103.27 191.22C103.72 190.98 104.67 190.48 105.4 190.11C106.13 189.75 107.08 189.29 107.51 189.1C107.94 188.91 108.72 188.57 109.25 188.35C109.78 188.13 110.6 187.8 111.07 187.62C111.54 187.44 112.29 187.17 112.74 187.02C113.18 186.86 113.99 186.59 114.53 186.42C115.07 186.25 115.93 186 116.43 185.86C116.93 185.71 117.71 185.5 118.17 185.39C118.63 185.28 119.36 185.1 119.81 185C120.25 184.9 120.98 184.74 121.42 184.66C121.86 184.57 122.68 184.41 123.24 184.32C123.8 184.22 124.75 184.07 125.35 183.98C125.95 183.9 126.85 183.78 127.35 183.72C127.85 183.67 128.66 183.58 129.14 183.54C129.63 183.5 130.35 183.44 130.75 183.41C131.15 183.38 131.96 183.32 132.55 183.27C133.13 183.23 134.07 183.15 134.63 183.09C135.19 183.04 136.12 182.93 136.71 182.86C137.29 182.78 138.37 182.63 139.1 182.52C139.83 182.41 140.85 182.23 141.36 182.14C141.88 182.04 142.7 181.87 143.18 181.77C143.67 181.67 144.53 181.47 145.11 181.33C145.68 181.19 146.67 180.92 147.32 180.74C147.96 180.55 148.84 180.29 149.27 180.15C149.69 180.02 150.51 179.74 151.09 179.53C151.66 179.32 152.48 179.01 152.91 178.84C153.33 178.67 153.97 178.41 154.31 178.26C154.65 178.11 155.32 177.8 155.79 177.58C156.26 177.36 157.06 176.96 157.56 176.7C158.06 176.43 158.8 176.03 159.2 175.8C159.6 175.57 160.3 175.14 160.76 174.85C161.22 174.56 161.87 174.12 162.21 173.89C162.56 173.65 163.06 173.29 163.33 173.09C163.6 172.89 164.21 172.42 164.68 172.04C165.16 171.66 165.88 171.05 166.3 170.69C166.71 170.32 167.5 169.57 168.04 169.03C168.58 168.48 169.32 167.71 169.68 167.31C170.03 166.9 170.61 166.22 170.96 165.8C171.3 165.37 171.86 164.64 172.2 164.19C172.53 163.73 173.07 162.96 173.39 162.47C173.72 161.98 174.19 161.24 174.45 160.81C174.7 160.38 175.13 159.63 175.4 159.14C175.67 158.66 176.13 157.74 176.44 157.11C176.75 156.48 177.21 155.48 177.47 154.88C177.72 154.28 178.11 153.3 178.33 152.72C178.55 152.13 178.9 151.17 179.09 150.59C179.29 150 179.6 148.98 179.79 148.32C179.98 147.66 180.25 146.66 180.39 146.09C180.53 145.51 180.75 144.54 180.88 143.93C181.01 143.31 181.18 142.39 181.27 141.87C181.35 141.36 181.47 140.59 181.53 140.16C181.59 139.73 181.68 138.91 181.74 138.34C181.79 137.76 181.87 136.96 181.9 136.54C181.93 136.13 181.97 134.87 181.99 133.76C182 132.47 181.99 131.41 181.95 130.85C181.92 130.36 181.87 129.67 181.84 129.31C181.81 128.95 181.74 128.24 181.68 127.72C181.63 127.21 181.51 126.32 181.42 125.75C181.34 125.18 181.16 124.19 181.04 123.56C180.91 122.93 180.69 121.94 180.54 121.35C180.4 120.77 180.16 119.88 180.02 119.38C179.87 118.88 179.57 117.92 179.35 117.24C179.13 116.57 178.73 115.48 178.48 114.82C178.22 114.17 177.81 113.16 177.56 112.59C177.31 112.02 176.77 110.87 176.36 110.04C175.95 109.21 175.35 108.06 175.03 107.49C174.71 106.92 174.17 105.98 173.82 105.41C173.48 104.84 172.74 103.67 172.18 102.81C171.62 101.95 170.91 100.84 170.6 100.34C170.28 99.84 169.75 98.97 169.42 98.41C169.08 97.86 168.53 96.91 168.18 96.31C167.84 95.71 167.31 94.76 167.01 94.2C166.71 93.64 166.12 92.5 165.7 91.65C165.28 90.81 164.7 89.61 164.42 89C164.15 88.38 163.74 87.46 163.53 86.94C163.31 86.43 162.98 85.6 162.79 85.1C162.59 84.6 162.22 83.53 161.95 82.73C161.68 81.93 161.33 80.77 161.16 80.16C160.99 79.54 160.74 78.56 160.61 77.97C160.48 77.38 160.3 76.5 160.21 75.99C160.13 75.49 160.01 74.72 159.96 74.28C159.9 73.83 159.82 73.14 159.79 72.74C159.74 72.31 159.72 71.27 159.72 70.14C159.72 68.7 159.74 68.07 159.81 67.41C159.86 66.94 159.98 66.14 160.06 65.64C160.15 65.14 160.31 64.35 160.42 63.88C160.54 63.4 160.78 62.57 160.96 62.03C161.15 61.49 161.45 60.68 161.64 60.23C161.84 59.79 162.09 59.23 162.21 58.99C162.34 58.74 162.62 58.23 162.84 57.84C163.06 57.46 163.42 56.87 163.64 56.54C163.85 56.21 164.23 55.67 164.48 55.34C164.73 55.02 165.09 54.56 165.28 54.33C165.47 54.1 165.94 53.58 166.31 53.17C166.69 52.76 167.33 52.12 167.73 51.76C168.13 51.39 168.69 50.89 168.97 50.65C169.26 50.42 169.75 50.03 170.05 49.79C170.55 49.41 170.6 49.35 170.55 49.27C170.51 49.22 164.74 42.99 157.72 35.42C150.7 27.86 144.94 21.66 144.92 21.65C144.89 21.64 144.23 21.98 143.45 22.4C142.68 22.82 141.5 23.44 140.84 23.77C140.18 24.1 139.22 24.57 138.71 24.81C138.2 25.05 137.29 25.45 136.71 25.71C136.12 25.97 135.05 26.42 134.32 26.71C133.59 27 132.46 27.44 131.82 27.67C131.18 27.91 130.14 28.27 129.51 28.49C128.88 28.7 127.92 29.01 127.37 29.18C126.83 29.35 126.02 29.59 125.58 29.72C125.14 29.85 124.29 30.08 123.71 30.24C123.12 30.4 122.12 30.66 121.47 30.82C120.83 30.97 119.78 31.22 119.13 31.36C118.49 31.5 117.42 31.72 116.77 31.85C116.11 31.98 115.31 32.14 115 32.19C114.68 32.25 113.86 32.39 113.18 32.51C112.49 32.62 111.27 32.81 110.47 32.92C109.67 33.04 108.41 33.2 107.67 33.29C106.92 33.37 105.85 33.49 105.27 33.55C104.7 33.6 103.81 33.69 103.3 33.73C102.78 33.77 102.05 33.83 101.66 33.86C101.27 33.89 100.36 33.95 99.63 33.99C98.9 34.03 97.69 34.1 96.93 34.13C96.02 34.18 93.97 34.2 90.92 34.2C87.28 34.2 85.92 34.18 84.55 34.11C83.59 34.06 82.26 33.98 81.59 33.94C80.92 33.9 80.06 33.84 79.69 33.81C79.32 33.78 78.5 33.71 77.87 33.65C77.24 33.59 76.29 33.5 75.76 33.44C75.23 33.39 74.33 33.28 73.75 33.21C73.17 33.14 72.2 33.01 71.59 32.92C70.98 32.84 69.97 32.68 69.34 32.58C68.71 32.48 67.74 32.32 67.18 32.22C66.63 32.12 65.65 31.93 65.01 31.8C64.38 31.68 63.32 31.46 62.67 31.31C62.02 31.17 60.85 30.89 60.06 30.69C59.27 30.49 58.15 30.2 57.56 30.04C56.98 29.88 55.96 29.58 55.3 29.38C54.64 29.18 53.52 28.82 52.81 28.59C52.09 28.35 51.08 28 50.57 27.81C50.06 27.63 49.11 27.27 48.46 27.02C47.82 26.77 46.65 26.29 45.86 25.96C45.08 25.62 43.99 25.14 43.45 24.88C42.9 24.63 41.86 24.13 41.13 23.76C40.4 23.4 39.22 22.77 38.49 22.37C37.77 21.97 37.16 21.64 37.13 21.64C37.11 21.64 31.39 27.78 24.43 35.28Z" />
		<path class="shp2" d="M27.09 37.07C21.25 43.39 16.37 48.66 16.26 48.78L16.04 49.01C16.73 49.62 17.24 50.11 17.62 50.48C18 50.85 18.59 51.47 18.93 51.85C19.27 52.23 19.79 52.83 20.08 53.2C20.37 53.56 20.83 54.19 21.11 54.59C21.39 54.99 21.82 55.66 22.07 56.07C22.32 56.49 22.72 57.21 22.96 57.69C23.2 58.16 23.55 58.92 23.74 59.38C23.93 59.83 24.2 60.55 24.33 60.96C24.47 61.38 24.68 62.07 24.8 62.5C24.91 62.93 25.09 63.69 25.19 64.19C25.29 64.69 25.42 65.46 25.48 65.9C25.53 66.35 25.61 67.01 25.65 67.39C25.68 67.78 25.71 68.81 25.71 69.83C25.71 70.84 25.68 71.93 25.64 72.38C25.61 72.81 25.52 73.62 25.45 74.17C25.38 74.73 25.25 75.6 25.17 76.1C25.08 76.6 24.93 77.37 24.83 77.82C24.73 78.26 24.57 78.96 24.47 79.38C24.36 79.79 24.15 80.57 23.99 81.12C23.83 81.66 23.57 82.5 23.42 82.99C23.26 83.48 22.97 84.31 22.77 84.84C22.58 85.37 22.26 86.21 22.06 86.71C21.86 87.21 21.52 88.03 21.3 88.53C21.09 89.03 20.69 89.92 20.42 90.51C20.15 91.09 19.62 92.18 19.25 92.93C18.87 93.67 18.35 94.69 18.08 95.19C17.81 95.69 17.32 96.59 16.98 97.19C16.64 97.79 15.94 98.99 15.43 99.84C14.91 100.7 14.13 101.98 13.68 102.68C13.23 103.38 12.51 104.49 12.09 105.15C11.67 105.81 11.07 106.76 10.78 107.26C10.48 107.76 10.14 108.33 10.03 108.53C9.92 108.73 9.83 108.92 9.83 108.96C9.83 109 9.94 108.95 10.1 108.85C10.25 108.76 18.07 103.7 27.48 97.61C36.89 91.52 48.33 84.11 52.91 81.15C57.49 78.19 65.16 73.23 69.97 70.12C74.77 67.01 82.45 62.04 87.02 59.08C91.6 56.12 102.64 48.97 111.57 43.2C120.49 37.42 127.95 32.59 128.15 32.46C128.35 32.34 128.49 32.22 128.47 32.21C128.44 32.2 127.91 32.35 127.3 32.53C126.68 32.71 125.66 33.01 125.03 33.18C124.4 33.35 123.38 33.62 122.75 33.78C122.12 33.94 121.12 34.17 120.54 34.31C119.95 34.44 118.98 34.65 118.38 34.77C117.78 34.9 116.84 35.08 116.3 35.18C115.75 35.29 114.68 35.47 113.91 35.6C113.13 35.73 112.01 35.9 111.41 35.99C110.81 36.08 109.76 36.22 109.07 36.3C108.38 36.39 107.27 36.52 106.6 36.59C105.93 36.66 104.71 36.78 103.9 36.85C103.08 36.92 101.86 37.01 101.19 37.06C100.52 37.1 99.3 37.17 98.49 37.22C97.67 37.26 96.06 37.32 94.9 37.35C93.59 37.39 91.6 37.4 89.65 37.38C87.92 37.37 85.94 37.33 85.25 37.3C84.57 37.27 83.55 37.22 82.99 37.19C82.43 37.16 81.46 37.1 80.83 37.06C80.2 37.02 79.14 36.93 78.47 36.88C77.8 36.82 77.13 36.76 76.99 36.75C76.84 36.73 76.07 36.65 75.27 36.57C74.47 36.48 73.44 36.36 72.98 36.3C72.52 36.25 71.58 36.12 70.88 36.02C70.18 35.92 69.04 35.74 68.35 35.63C67.67 35.51 66.72 35.35 66.25 35.26C65.78 35.17 64.92 35.01 64.35 34.9C63.78 34.78 62.78 34.57 62.14 34.43C61.5 34.29 60.4 34.03 59.7 33.86C59 33.69 57.94 33.42 57.36 33.26C56.77 33.1 55.89 32.85 55.41 32.71C54.92 32.57 54.18 32.34 53.77 32.22C53.35 32.09 52.46 31.8 51.79 31.58C51.12 31.35 50.15 31.02 49.63 30.83C49.12 30.64 48.29 30.34 47.79 30.14C47.29 29.95 46.35 29.58 45.71 29.31C45.06 29.05 44.12 28.64 43.6 28.41C43.09 28.18 42.3 27.83 41.86 27.62C41.42 27.41 40.32 26.87 39.42 26.42C38.52 25.97 37.76 25.59 37.74 25.59C37.72 25.59 32.93 30.76 27.09 37.07Z" />
		<path class="shp1" d="M47.94 35.87C47.82 35.88 47.38 35.93 46.98 35.97C46.58 36.02 45.9 36.12 45.47 36.21C45.04 36.29 44.41 36.44 44.06 36.54C43.71 36.64 43.13 36.83 42.78 36.95C42.43 37.08 41.9 37.29 41.6 37.42C41.3 37.56 40.82 37.79 40.53 37.94C40.25 38.09 39.79 38.35 39.52 38.52C39.25 38.68 38.82 38.96 38.56 39.14C38.3 39.32 37.83 39.67 37.52 39.92C37.2 40.17 36.62 40.67 36.23 41.03C35.83 41.39 35.24 41.98 34.92 42.34C34.59 42.7 34.12 43.25 33.87 43.56C33.63 43.88 33.2 44.46 32.94 44.86C32.67 45.26 32.32 45.84 32.16 46.14C31.99 46.44 31.75 46.91 31.63 47.18C31.5 47.45 31.31 47.89 31.2 48.17C31.09 48.44 30.92 48.91 30.82 49.22C30.71 49.53 30.55 50.1 30.45 50.49C30.35 50.89 30.21 51.55 30.14 51.96C30.07 52.38 29.98 53 29.94 53.34C29.9 53.73 29.87 54.58 29.88 55.6C29.88 56.87 29.9 57.41 29.97 57.97C30.02 58.37 30.11 58.96 30.17 59.27C30.22 59.59 30.35 60.16 30.45 60.55C30.54 60.93 30.73 61.55 30.85 61.92C30.98 62.3 31.23 62.95 31.41 63.38C31.6 63.81 31.93 64.5 32.17 64.92C32.4 65.33 32.77 65.95 33 66.29C33.23 66.64 33.62 67.18 33.87 67.49C34.11 67.8 34.54 68.32 34.83 68.63C35.11 68.95 35.7 69.53 36.14 69.93C36.59 70.34 37.21 70.87 37.52 71.12C37.83 71.37 38.45 71.82 38.9 72.12C39.34 72.41 40.01 72.82 40.38 73.02C40.75 73.22 41.36 73.52 41.73 73.68C42.1 73.84 42.82 74.11 43.32 74.28C43.82 74.44 44.54 74.65 44.93 74.74C45.31 74.83 45.93 74.95 46.31 75C46.68 75.06 47.26 75.13 47.61 75.17C47.95 75.2 48.83 75.23 49.56 75.23C50.42 75.23 51.15 75.2 51.66 75.15C52.09 75.1 52.72 75.01 53.07 74.95C53.41 74.89 53.97 74.78 54.31 74.7C54.66 74.61 55.28 74.44 55.69 74.3C56.11 74.17 56.72 73.94 57.04 73.81C57.37 73.67 57.91 73.43 58.23 73.27C58.55 73.11 59.12 72.79 59.5 72.57C59.88 72.34 60.46 71.96 60.8 71.72C61.13 71.48 61.7 71.04 62.07 70.73C62.44 70.43 63.06 69.86 63.46 69.46C63.86 69.06 64.43 68.44 64.73 68.07C65.04 67.7 65.46 67.17 65.67 66.87C65.87 66.58 66.21 66.08 66.41 65.76C66.61 65.44 66.91 64.91 67.08 64.59C67.25 64.27 67.49 63.76 67.63 63.46C67.76 63.16 67.97 62.63 68.09 62.29C68.22 61.95 68.39 61.42 68.48 61.12C68.56 60.82 68.69 60.31 68.76 60C68.83 59.69 68.94 59.12 69 58.75C69.05 58.38 69.13 57.79 69.17 57.45C69.2 57.11 69.23 56.25 69.23 55.55C69.23 54.85 69.2 54 69.17 53.65C69.13 53.31 69.07 52.78 69.03 52.48C68.98 52.18 68.9 51.7 68.84 51.42C68.78 51.13 68.68 50.67 68.61 50.4C68.54 50.13 68.37 49.57 68.23 49.15C68.09 48.74 67.87 48.14 67.73 47.83C67.6 47.51 67.35 46.99 67.18 46.66C67.01 46.33 66.68 45.73 66.43 45.33C66.18 44.93 65.75 44.3 65.47 43.93C65.19 43.56 64.7 42.96 64.39 42.6C64.07 42.24 63.58 41.73 63.3 41.45C63.02 41.18 62.57 40.76 62.3 40.52C62.02 40.28 61.53 39.89 61.2 39.64C60.88 39.39 60.37 39.04 60.09 38.85C59.8 38.66 59.36 38.39 59.1 38.24C58.84 38.1 58.31 37.83 57.93 37.64C57.54 37.46 57 37.22 56.73 37.11C56.46 37.01 56.03 36.85 55.77 36.77C55.51 36.68 55.04 36.55 54.73 36.46C54.42 36.38 53.91 36.26 53.61 36.2C53.31 36.14 52.71 36.05 52.29 35.99C51.67 35.91 51.16 35.88 49.84 35.87C48.93 35.86 48.07 35.86 47.94 35.87Z" />
		<path class="shp2" d="M133.87 36.6C133.7 36.64 133.44 36.73 133.3 36.79C133.16 36.85 129.27 39.39 124.67 42.44C120.07 45.48 115.09 48.78 113.62 49.75C111.06 51.45 110.93 51.55 110.62 51.91C110.45 52.13 110.2 52.47 110.06 52.67C109.92 52.87 109.68 53.29 109.53 53.6C109.38 53.92 109.19 54.41 109.11 54.69L108.97 55.21L108.94 80.34C109.11 81.14 109.22 81.55 109.3 81.77C109.37 81.98 109.52 82.3 109.62 82.46C109.72 82.63 109.93 82.88 110.08 83.03C110.25 83.18 110.49 83.33 110.66 83.39C110.85 83.46 111.07 83.49 111.36 83.49C111.59 83.49 111.93 83.46 112.11 83.41C112.3 83.36 112.64 83.23 112.87 83.13C113.1 83.03 115.53 81.52 118.51 79.64C121.38 77.82 125.72 75.06 128.15 73.52C130.59 71.98 132.7 70.62 132.86 70.49C133.01 70.35 133.32 70.04 133.55 69.78C133.78 69.52 134.13 69.05 134.34 68.74C134.55 68.42 134.87 67.87 135.03 67.52C135.2 67.16 135.43 66.61 135.53 66.29C135.64 65.98 135.78 65.46 135.85 65.15L135.98 64.58C135.98 54.48 135.97 53.32 135.91 53.32C135.88 53.32 133.69 54.64 131.04 56.25L126.23 59.18L126.2 66.4C121.95 69.24 120.61 70.1 120.48 70.14C120.36 70.19 120.15 70.22 120.03 70.22C119.86 70.22 119.77 70.19 119.65 70.08C119.56 70 119.45 69.87 119.41 69.79C119.37 69.71 119.32 69.54 119.29 69.41C119.26 69.29 119.21 68.95 119.18 68.67C119.16 68.39 119.09 65.28 119.03 61.74C118.93 55.88 118.92 55.29 119 54.97C119.04 54.77 119.15 54.48 119.23 54.32C119.31 54.15 119.45 53.94 119.53 53.84C119.61 53.74 121.09 52.62 122.82 51.34C124.55 50.06 126.06 48.97 126.18 48.91C126.29 48.85 126.49 48.78 126.61 48.74C126.78 48.7 126.86 48.7 127.01 48.76C127.11 48.81 127.23 48.91 127.28 49.01C127.35 49.14 127.38 49.34 127.39 49.93C127.4 50.35 127.42 50.72 127.43 50.75C127.44 50.79 129.07 49.74 131.72 47.97L135.98 45.12L135.98 37.58C135.75 37.18 135.59 36.97 135.47 36.87C135.34 36.75 135.14 36.64 134.98 36.59C134.83 36.55 134.59 36.52 134.45 36.52C134.3 36.52 134.05 36.56 133.87 36.6ZM48.71 37.74C48.69 37.77 48.83 37.96 49.02 38.18C49.21 38.39 49.58 38.83 49.84 39.14C50.11 39.46 50.58 40.05 50.89 40.47C51.2 40.88 51.7 41.57 51.98 42C52.27 42.43 52.69 43.1 52.92 43.49C53.15 43.87 53.49 44.48 53.68 44.84C53.87 45.2 54.16 45.79 54.33 46.16C54.5 46.54 54.77 47.17 54.92 47.57C55.08 47.97 55.32 48.62 55.45 49.02C55.58 49.43 55.74 49.96 55.82 50.22C55.89 50.48 56.03 51.05 56.13 51.5C56.23 51.94 56.35 52.61 56.41 52.98C56.47 53.35 56.56 53.97 56.61 54.36C56.66 54.79 56.7 55.7 56.72 56.75C56.73 57.81 56.72 58.73 56.69 59.22C56.65 59.65 56.61 60.12 56.59 60.26C56.57 60.48 56.58 60.53 56.66 60.56C56.72 60.59 56.78 60.58 56.82 60.53C56.85 60.5 57.04 60.18 57.25 59.82C57.45 59.46 57.77 58.83 57.95 58.41C58.13 58 58.37 57.38 58.49 57.04C58.61 56.69 58.77 56.13 58.86 55.79C58.94 55.44 59.06 54.87 59.12 54.51C59.18 54.15 59.25 53.56 59.29 53.19C59.32 52.77 59.34 52.04 59.32 51.29C59.3 50.62 59.25 49.77 59.2 49.41C59.16 49.06 59.06 48.45 58.99 48.08C58.92 47.7 58.77 47.03 58.66 46.59C58.55 46.16 58.35 45.46 58.21 45.05C58.08 44.63 57.82 43.92 57.64 43.46C57.46 43 57.17 42.3 57 41.9C56.82 41.5 56.42 40.69 56.12 40.1C55.82 39.52 55.52 38.94 55.46 38.82C55.36 38.61 55.35 38.61 54.78 38.45C54.47 38.36 54.07 38.25 53.9 38.21C53.73 38.17 53.34 38.09 53.04 38.03C52.74 37.97 52.2 37.89 51.84 37.84C51.49 37.79 50.64 37.74 49.97 37.73C49.28 37.71 48.73 37.72 48.71 37.74ZM45.89 38.06C45.83 38.07 45.54 38.14 45.24 38.21C44.94 38.29 44.47 38.42 44.2 38.5C43.93 38.59 43.44 38.76 43.11 38.89C42.78 39.02 42.17 39.3 41.76 39.5C41.34 39.71 40.78 40.02 40.51 40.18C40.24 40.35 39.8 40.64 39.55 40.82C39.29 40.99 38.87 41.31 38.6 41.52C38.34 41.73 38.01 42.01 37.85 42.15L37.57 42.41C37.63 44.71 37.68 45.72 37.72 46.14C37.77 46.55 37.84 47.16 37.88 47.49C37.93 47.82 38.02 48.39 38.1 48.76C38.17 49.14 38.3 49.72 38.38 50.07C38.47 50.41 38.62 50.96 38.72 51.29C38.82 51.62 39.04 52.21 39.19 52.61C39.35 53.01 39.63 53.64 39.81 54.01C39.99 54.37 40.28 54.88 40.44 55.15C40.6 55.41 40.89 55.84 41.07 56.1C41.25 56.36 41.56 56.75 41.76 56.98C41.95 57.21 42.39 57.67 42.73 58C43.07 58.33 43.59 58.78 43.89 59.01C44.19 59.24 44.7 59.59 45.03 59.8C45.36 60 45.9 60.3 46.23 60.47C46.56 60.63 47.07 60.87 47.37 60.99C47.67 61.11 48.21 61.31 48.57 61.43C48.93 61.55 49.5 61.71 49.84 61.8C50.19 61.89 50.68 62 50.95 62.06L51.43 62.16C51.81 61.85 52.03 61.69 52.16 61.6C52.28 61.52 52.54 61.37 52.71 61.28C52.89 61.19 53.2 61.06 53.39 60.98C53.58 60.91 53.92 60.79 54.13 60.73L54.52 60.61C54.62 59.86 54.67 59.27 54.7 58.83C54.73 58.39 54.76 57.6 54.76 57.09C54.76 56.57 54.73 55.82 54.7 55.42C54.67 55.02 54.61 54.4 54.57 54.04C54.52 53.69 54.43 53.08 54.36 52.69C54.29 52.31 54.14 51.62 54.03 51.16C53.92 50.7 53.71 49.97 53.57 49.54C53.43 49.12 53.18 48.43 53.01 48.01C52.85 47.6 52.51 46.83 52.26 46.32C52.01 45.8 51.63 45.07 51.4 44.68C51.18 44.3 50.78 43.64 50.51 43.22C50.23 42.81 49.78 42.15 49.49 41.77C49.2 41.38 48.77 40.82 48.52 40.52C48.28 40.22 47.88 39.75 47.64 39.48C47.4 39.21 46.99 38.77 46.74 38.5C46.37 38.11 46.25 38.02 46.14 38.03C46.06 38.03 45.95 38.05 45.89 38.06ZM58.34 40.35C58.45 40.57 58.67 41.06 58.84 41.43C59 41.8 59.28 42.48 59.46 42.94C59.64 43.4 59.91 44.13 60.05 44.58C60.2 45.02 60.38 45.61 60.45 45.88C60.53 46.15 60.66 46.66 60.74 47.02C60.82 47.38 60.95 48.04 61.02 48.48C61.09 48.92 61.18 49.54 61.21 49.86C61.25 50.2 61.28 51.02 61.28 51.91C61.28 53.02 61.25 53.56 61.18 54.07C61.13 54.44 61.04 55.03 60.97 55.37C60.9 55.71 60.76 56.3 60.66 56.67C60.55 57.04 60.35 57.66 60.21 58.05C60.06 58.44 59.77 59.1 59.57 59.53C59.36 59.96 59 60.63 58.76 61.01L58.34 61.72C58.69 61.65 59.07 61.54 59.41 61.43C59.75 61.31 60.28 61.09 60.58 60.94C60.88 60.79 61.32 60.54 61.57 60.38C61.81 60.22 62.23 59.9 62.5 59.67C62.78 59.45 63.19 59.06 63.41 58.81C63.64 58.56 64.02 58.1 64.25 57.8C64.48 57.49 64.82 56.99 65.01 56.67C65.2 56.36 65.5 55.79 65.69 55.42C65.88 55.05 66.18 54.36 66.37 53.89C66.55 53.42 66.78 52.78 66.87 52.48C67.03 51.96 67.03 51.92 66.97 51.6C66.94 51.41 66.82 50.93 66.71 50.53C66.59 50.13 66.39 49.52 66.26 49.18C66.13 48.84 65.89 48.28 65.73 47.93C65.57 47.59 65.27 47.03 65.07 46.68C64.86 46.34 64.51 45.8 64.29 45.48C64.07 45.16 63.68 44.66 63.44 44.36C63.19 44.06 62.75 43.58 62.47 43.28C62.18 42.98 61.67 42.49 61.34 42.18C61 41.88 60.42 41.4 60.04 41.12C59.65 40.83 59.1 40.45 58.8 40.27C58.51 40.09 58.24 39.95 58.2 39.95C58.16 39.95 58.21 40.1 58.34 40.35ZM35.32 44.88C35.15 45.1 34.79 45.61 34.53 46.01C34.27 46.41 33.83 47.18 33.57 47.72C33.3 48.27 33 48.93 32.9 49.21C32.8 49.48 32.63 49.97 32.54 50.3C32.44 50.63 32.29 51.17 32.22 51.5C32.15 51.82 32.04 52.42 31.98 52.82C31.92 53.22 31.85 54.02 31.83 54.59C31.79 55.28 31.79 55.93 31.83 56.51C31.85 57 31.9 57.61 31.93 57.87C31.96 58.12 32.04 58.62 32.11 58.96C32.18 59.3 32.26 59.67 32.29 59.78C32.34 59.96 32.42 60.02 33.16 60.51C33.61 60.81 34.27 61.22 34.63 61.43C34.99 61.64 35.7 62.02 36.22 62.27C36.73 62.53 37.5 62.87 37.93 63.04C38.36 63.21 39.02 63.44 39.39 63.56C39.76 63.68 40.38 63.86 40.77 63.95C41.15 64.05 41.76 64.17 42.12 64.23C42.48 64.29 43.1 64.38 43.5 64.42C43.92 64.47 44.73 64.5 45.43 64.5C46.16 64.5 46.95 64.47 47.41 64.42C47.83 64.38 48.39 64.31 48.65 64.26C48.9 64.22 49.35 64.14 49.63 64.08C49.92 64.02 50.19 63.95 50.23 63.93C50.3 63.89 50.29 63.88 50.21 63.86C50.15 63.84 49.93 63.79 49.71 63.74C49.5 63.7 48.95 63.55 48.49 63.42C48.03 63.29 47.38 63.08 47.03 62.95C46.69 62.82 46.13 62.59 45.79 62.44C45.44 62.28 44.9 62.01 44.59 61.84C44.28 61.67 43.76 61.35 43.45 61.15C43.13 60.94 42.64 60.58 42.35 60.36C42.07 60.13 41.6 59.72 41.32 59.45C41.04 59.18 40.61 58.74 40.38 58.47C40.14 58.19 39.79 57.75 39.59 57.48C39.39 57.21 39.08 56.76 38.91 56.49C38.74 56.22 38.46 55.73 38.28 55.4C38.11 55.07 37.83 54.49 37.67 54.12C37.51 53.75 37.23 53 37.05 52.46C36.87 51.91 36.64 51.13 36.54 50.72C36.44 50.3 36.3 49.64 36.22 49.26C36.15 48.87 36.06 48.3 36.01 47.98C35.97 47.67 35.9 47.07 35.86 46.66C35.81 46.24 35.77 45.59 35.75 45.21C35.74 44.83 35.71 44.51 35.68 44.5C35.65 44.49 35.49 44.66 35.32 44.88ZM145.56 54.27L141.49 56.83C141.49 63.06 141.51 64.87 141.53 64.88C141.55 64.89 143.4 63.7 145.63 62.24L149.68 59.58C149.7 53.48 149.69 51.7 149.67 51.7C149.65 51.71 147.8 52.86 145.56 54.27ZM67.11 56.83C67 57.03 66.81 57.36 66.7 57.56C66.58 57.76 66.33 58.15 66.14 58.44C65.95 58.73 65.61 59.19 65.38 59.48C65.15 59.77 64.75 60.22 64.47 60.49C64.2 60.77 63.79 61.14 63.57 61.32C63.34 61.51 62.93 61.8 62.66 61.98C62.39 62.16 61.93 62.42 61.65 62.57C61.36 62.71 60.9 62.91 60.63 63.02C60.36 63.12 59.88 63.27 59.57 63.36C59.25 63.44 58.84 63.53 58.66 63.56C58.47 63.59 58.27 63.63 58.21 63.64C58.16 63.65 58.07 63.73 58.02 63.82C57.97 63.91 57.93 63.99 57.93 64.01C57.93 64.02 58.2 64.21 58.54 64.44C58.88 64.66 59.35 64.95 59.59 65.08C59.84 65.22 60.28 65.42 60.58 65.54C60.88 65.66 61.38 65.83 61.7 65.91C62.01 65.99 62.54 66.08 62.87 66.11C63.2 66.14 63.56 66.16 63.67 66.16C63.86 66.14 63.9 66.11 64.15 65.77C64.3 65.57 64.57 65.18 64.75 64.89C64.92 64.6 65.18 64.16 65.32 63.9C65.47 63.64 65.7 63.16 65.86 62.83C66.01 62.51 66.24 61.93 66.38 61.56C66.51 61.19 66.71 60.53 66.82 60.1C66.93 59.67 67.07 59.04 67.13 58.7C67.18 58.36 67.26 57.82 67.29 57.5C67.32 57.19 67.34 56.83 67.33 56.7L67.31 56.46L67.11 56.83ZM54.91 61.82C54.73 61.86 54.42 61.94 54.24 62C54.05 62.07 53.64 62.25 53.33 62.41C52.87 62.65 52.67 62.79 52.32 63.12C52.08 63.35 51.84 63.63 51.79 63.75C51.73 63.86 51.69 64.04 51.69 64.14C51.69 64.24 51.74 64.39 51.8 64.5C51.87 64.6 52.04 64.74 52.18 64.82C52.34 64.9 52.58 64.96 52.81 64.99C53.02 65.01 53.35 65 53.59 64.97C53.81 64.94 54.21 64.86 54.47 64.78C54.73 64.71 55.18 64.53 55.48 64.38C55.96 64.15 56.09 64.06 56.5 63.64C56.77 63.37 57.02 63.07 57.08 62.92C57.15 62.79 57.2 62.6 57.2 62.5C57.2 62.37 57.16 62.26 57.06 62.15C56.98 62.07 56.79 61.95 56.63 61.89C56.43 61.82 56.18 61.78 55.8 61.76C55.46 61.75 55.12 61.77 54.91 61.82ZM33.39 62.97C33.39 63 33.54 63.31 33.73 63.67C33.92 64.02 34.23 64.56 34.42 64.86C34.61 65.16 34.93 65.63 35.13 65.9C35.33 66.18 35.71 66.64 35.97 66.94C36.23 67.24 36.6 67.66 36.8 67.86L37.15 68.22C38 68.36 38.62 68.44 39.08 68.5C39.54 68.56 40.24 68.63 40.64 68.66C41.04 68.69 41.8 68.71 42.33 68.71C42.86 68.71 43.57 68.69 43.91 68.66C44.26 68.63 44.78 68.57 45.08 68.53C45.38 68.48 45.9 68.39 46.23 68.32C46.56 68.24 47.18 68.07 47.61 67.93C48.03 67.78 48.69 67.52 49.06 67.34C49.43 67.16 49.95 66.87 50.21 66.7C50.46 66.53 50.8 66.29 50.96 66.17L51.25 65.94C50.98 65.78 50.85 65.75 50.79 65.76C50.72 65.78 50.26 65.87 49.76 65.97C49.26 66.08 48.49 66.21 48.05 66.27C47.48 66.35 46.83 66.39 45.84 66.41C44.76 66.43 44.23 66.42 43.55 66.35C43.06 66.3 42.39 66.22 42.04 66.16C41.7 66.1 41.15 66 40.82 65.92C40.49 65.85 39.87 65.69 39.44 65.57C39.01 65.44 38.33 65.22 37.93 65.07C37.53 64.92 36.96 64.69 36.66 64.57C36.36 64.44 35.81 64.18 35.44 64C35.07 63.82 34.48 63.52 34.14 63.32C33.79 63.13 33.49 62.97 33.46 62.95C33.43 62.94 33.4 62.95 33.39 62.97ZM78.21 72.29L63.89 81.58C63.9 86.3 63.92 87.69 63.93 87.71C63.95 87.73 64.85 87.21 65.94 86.55L67.91 85.36L67.89 105.88L64.05 108.48C64.11 112.91 64.14 114.22 64.16 114.23C64.18 114.25 68.44 111.58 73.63 108.3L83.07 102.34C83.09 97.45 83.08 96.44 83.04 96.44C83.02 96.44 81.9 97.14 80.57 98C79.24 98.86 78.13 99.56 78.1 99.56C78.07 99.56 78.05 98.25 78.05 95.72L78.05 91.89L82.99 88.69C82.99 92.36 83.01 92.79 83.06 92.78C83.09 92.77 84.25 92.01 85.63 91.09L88.14 89.41C88.14 79.5 88.12 76.62 88.1 76.62C88.08 76.62 87.02 77.34 85.75 78.22L83.43 79.82L83.41 82.16C79.56 84.38 78.34 85.08 78.2 85.16L77.95 85.31L77.95 78.78C83.16 75.31 84.69 74.3 84.73 74.29C84.76 74.28 85.18 74.46 85.67 74.7C86.48 75.09 86.56 75.12 86.66 75.05C86.72 75.01 88.09 74.13 89.69 73.08L92.61 71.18C92.61 64.83 92.59 62.99 92.57 62.99C92.55 62.99 86.09 67.17 78.21 72.29ZM56.27 65.4C56.13 65.49 56.1 65.54 56.13 65.64C56.15 65.72 56.17 66.24 56.19 66.81C56.21 67.49 56.2 68.06 56.16 68.43C56.13 68.74 56.06 69.23 56 69.52C55.94 69.8 55.8 70.32 55.69 70.66C55.57 71.01 55.34 71.56 55.17 71.9C55 72.23 54.87 72.52 54.87 72.54C54.88 72.55 55.19 72.46 55.56 72.32C55.93 72.19 56.52 71.96 56.86 71.8C57.21 71.65 57.74 71.38 58.06 71.2C58.37 71.03 58.88 70.72 59.18 70.52C59.48 70.32 59.91 70.01 60.14 69.84C60.37 69.67 60.78 69.33 61.05 69.1C61.32 68.86 61.71 68.52 61.91 68.33C62.25 68.01 62.26 67.99 62.14 67.97C62.07 67.95 61.78 67.89 61.49 67.82C61.2 67.76 60.76 67.64 60.5 67.55C60.24 67.47 59.82 67.31 59.57 67.19C59.31 67.07 58.89 66.86 58.63 66.72C58.37 66.58 57.95 66.32 57.69 66.15C57.44 65.98 57.06 65.71 56.86 65.56C56.66 65.41 56.49 65.28 56.47 65.29C56.46 65.29 56.37 65.34 56.27 65.4ZM141.57 70.96L133.15 76.38C133.17 162.75 133.19 180.08 133.22 180.08C133.25 180.08 133.71 180.03 134.25 179.97C134.79 179.92 135.68 179.81 136.24 179.74C136.8 179.67 137.78 179.52 138.42 179.42C139.07 179.32 140.28 179.1 141.13 178.93C141.97 178.77 143.24 178.49 143.94 178.32C144.64 178.14 145.67 177.87 146.22 177.71C146.78 177.55 147.83 177.22 148.56 176.98C149.29 176.74 149.93 176.51 149.98 176.48C150.06 176.41 150.07 173.31 150.08 120.98C150.09 84.04 150.08 65.54 150.05 65.54C150.02 65.54 146.2 67.98 141.57 70.96ZM53.86 66.2C53.69 66.22 53.59 66.29 53.16 66.74C52.88 67.03 52.44 67.44 52.18 67.64C51.92 67.85 51.5 68.16 51.25 68.34C50.99 68.51 50.49 68.8 50.13 68.99C49.77 69.17 49.21 69.43 48.88 69.56C48.55 69.69 48 69.88 47.66 69.98C47.31 70.08 46.74 70.22 46.38 70.29C46.03 70.37 45.36 70.48 44.9 70.54C44.2 70.64 43.77 70.66 42.22 70.67C41.21 70.68 40.38 70.7 40.38 70.73C40.37 70.75 40.47 70.83 40.58 70.9C40.7 70.97 41.02 71.15 41.29 71.3C41.56 71.45 42.05 71.69 42.38 71.83C42.71 71.98 43.28 72.2 43.65 72.33C44.03 72.46 44.59 72.64 44.9 72.72C45.22 72.8 45.71 72.92 45.99 72.97C46.28 73.03 46.77 73.11 47.09 73.15C47.4 73.2 48.01 73.26 48.44 73.29C49.05 73.34 49.5 73.34 50.51 73.28L51.8 73.21C52.46 72.53 52.78 72.15 52.93 71.94C53.08 71.72 53.29 71.38 53.4 71.18C53.51 70.98 53.69 70.6 53.79 70.33C53.9 70.05 54.04 69.59 54.11 69.28C54.18 68.98 54.26 68.49 54.29 68.19C54.32 67.89 54.34 67.46 54.34 67.23C54.34 67 54.33 66.67 54.32 66.49C54.3 66.18 54.29 66.16 54.18 66.17C54.11 66.18 53.97 66.19 53.86 66.2ZM98.92 83.92L94.85 86.48C94.85 92.7 94.86 94.51 94.87 94.51C94.89 94.51 96.7 93.34 98.89 91.9C101.09 90.47 102.92 89.26 102.97 89.21C103.06 89.13 103.07 88.91 103.07 85.24C103.06 83.1 103.05 81.35 103.02 81.35C103 81.35 101.16 82.51 98.92 83.92ZM107.9 92.76L99.5 98.18L99.48 189.75C99.78 189.58 100.24 189.32 100.7 189.05C101.16 188.79 101.85 188.4 102.23 188.19C102.62 187.98 103.55 187.51 104.31 187.13C105.07 186.75 106.16 186.24 106.73 185.99C107.3 185.73 108.31 185.31 108.97 185.04C109.62 184.78 110.72 184.36 111.41 184.12C112.1 183.88 113.23 183.5 113.93 183.29C114.63 183.07 115.44 182.83 115.73 182.75C116.01 182.67 116.26 182.6 116.28 182.58C116.31 182.56 116.32 161.13 116.31 134.95L116.3 87.34L107.9 92.76ZM41.94 96.18C41.74 96.2 41.42 96.26 41.24 96.3C40.93 96.37 39.86 97.02 30.6 102.76C24.94 106.27 20.1 109.3 19.84 109.49C19.58 109.69 19.21 110.01 19.01 110.2C18.81 110.4 18.55 110.7 18.42 110.87C18.29 111.04 18.12 111.31 18.04 111.47C17.96 111.63 17.86 111.88 17.81 112.04C17.74 112.29 17.73 112.59 17.73 114.33C17.74 115.43 17.76 118.16 17.78 120.39L17.82 124.45C18.03 125.15 18.14 125.45 18.2 125.57C18.26 125.68 18.4 125.88 18.52 126.01C18.65 126.15 18.84 126.3 18.95 126.36C19.07 126.42 19.3 126.48 19.47 126.51C19.68 126.54 19.91 126.54 20.18 126.5C20.39 126.47 20.76 126.37 21.01 126.28C21.25 126.2 21.64 126.03 21.87 125.92C22.09 125.8 22.52 125.57 22.8 125.39C23.09 125.22 23.53 124.94 23.79 124.76C24.05 124.58 26.12 123.25 28.39 121.81C31.05 120.11 32.64 119.13 32.84 119.06C33.01 119 33.33 118.9 33.54 118.85C33.78 118.79 34.1 118.75 34.37 118.75C34.68 118.75 34.88 118.78 35.02 118.85C35.14 118.9 35.29 119.02 35.37 119.11L35.52 119.27L35.52 126.22C29.54 130.23 28.44 130.93 28.24 131C28.05 131.06 27.88 131.08 27.77 131.06C27.67 131.04 27.55 131 27.51 130.96C27.48 130.93 27.41 130.83 27.36 130.74C27.28 130.61 27.27 130.27 27.25 128.11L27.22 125.63L17.73 131.52C17.76 139.42 17.78 139.94 17.86 140.26C17.9 140.46 18.01 140.76 18.09 140.94C18.17 141.11 18.33 141.35 18.44 141.48C18.56 141.61 18.77 141.77 18.91 141.83C19.05 141.89 19.28 141.96 19.42 141.98C19.56 142 19.86 141.99 20.07 141.95C20.29 141.92 20.64 141.83 20.85 141.76C21.07 141.69 21.38 141.55 21.55 141.46C21.73 141.37 25.27 139.1 29.43 136.41C33.59 133.73 38.05 130.85 39.34 130.02C40.63 129.19 41.92 128.36 42.22 128.17C42.52 127.98 42.89 127.71 43.05 127.57C43.2 127.43 43.43 127.17 43.56 127C43.69 126.82 43.88 126.51 43.99 126.29C44.1 126.08 44.25 125.72 44.33 125.49C44.4 125.26 44.51 124.85 44.56 124.58C44.62 124.31 44.69 123.74 44.72 123.33C44.76 122.79 44.76 121.12 44.71 117.39L44.64 112.22C44.28 111.75 44.03 111.48 43.85 111.32C43.68 111.16 43.41 110.95 43.26 110.86C43.1 110.77 42.84 110.63 42.67 110.56C42.49 110.49 42.17 110.39 41.94 110.35C41.62 110.28 41.36 110.27 40.85 110.29C40.34 110.31 40.02 110.35 39.57 110.47C39.24 110.55 38.75 110.71 38.48 110.83C38.12 110.97 36.72 111.8 33.44 113.82C30.14 115.84 28.82 116.63 28.64 116.67C28.5 116.7 28.32 116.71 28.22 116.69C28.13 116.67 27.98 116.62 27.9 116.57C27.81 116.51 27.68 116.36 27.61 116.22C27.53 116.08 27.46 115.91 27.44 115.84C27.42 115.77 27.4 114.81 27.4 113.71L27.38 111.7C27.6 111.26 27.77 111 27.91 110.85C28.05 110.69 28.35 110.42 28.57 110.25C28.8 110.07 30.02 109.26 31.28 108.45C32.54 107.64 33.68 106.91 33.83 106.83C33.97 106.75 34.23 106.65 34.4 106.61C34.6 106.55 34.78 106.54 34.92 106.56C35.03 106.58 35.19 106.66 35.28 106.73C35.36 106.81 35.47 106.96 35.52 107.07C35.61 107.25 35.62 107.44 35.62 108.44C35.62 109.08 35.64 109.6 35.66 109.6C35.68 109.6 37.73 108.34 40.22 106.8L44.75 104C44.77 98.47 44.76 98.1 44.69 97.87C44.64 97.72 44.52 97.44 44.41 97.25C44.31 97.05 44.11 96.77 43.98 96.63C43.79 96.44 43.66 96.36 43.41 96.29C43.23 96.23 42.91 96.18 42.69 96.16C42.48 96.15 42.14 96.15 41.94 96.18ZM166.94 132.97C166.94 154.52 166.96 165.36 167 165.37C167.03 165.37 167.28 165.11 167.57 164.78C167.85 164.46 168.35 163.85 168.68 163.43C169.02 163.02 169.51 162.37 169.78 162C170.05 161.63 170.52 160.95 170.82 160.49C171.13 160.04 171.6 159.29 171.87 158.83C172.14 158.37 172.48 157.79 172.63 157.53C172.77 157.27 173.08 156.67 173.32 156.2C173.57 155.73 173.94 154.96 174.16 154.49C174.38 154.01 174.71 153.27 174.89 152.82C175.08 152.38 175.38 151.61 175.56 151.11C175.75 150.6 176.02 149.84 176.17 149.41C176.31 148.99 176.59 148.1 176.77 147.44C176.96 146.78 177.21 145.87 177.32 145.41C177.44 144.95 177.62 144.14 177.73 143.62C177.85 143.09 178.02 142.17 178.12 141.59C178.22 141 178.36 140.06 178.44 139.51C178.51 138.95 178.6 138.11 178.64 137.63C178.69 137.16 178.75 136.28 178.78 135.68C178.82 135.02 178.83 133.82 178.81 132.61C178.8 131.52 178.75 130.21 178.7 129.67C178.66 129.15 178.57 128.31 178.51 127.83C178.46 127.34 178.35 126.57 178.28 126.11C178.21 125.65 178.05 124.8 177.94 124.21C177.82 123.63 177.61 122.68 177.47 122.11C177.33 121.53 177.09 120.63 176.93 120.1C176.78 119.57 176.47 118.62 176.25 117.97C176.03 117.33 175.66 116.31 175.42 115.71C175.19 115.11 174.81 114.21 174.59 113.71C174.37 113.21 173.97 112.35 173.71 111.81C173.45 111.26 173.03 110.43 172.77 109.96C172.52 109.49 172.08 108.69 171.79 108.19C171.51 107.69 171.09 106.98 170.86 106.61C170.63 106.23 170.04 105.32 169.55 104.58C169.06 103.83 168.3 102.64 167.85 101.92C167.4 101.21 167.01 100.62 166.98 100.61C166.95 100.6 166.93 112.14 166.94 132.97ZM74.16 114.61L65.78 120.03L65.78 182.63C66.24 182.75 66.88 182.94 67.5 183.12C68.11 183.3 69.09 183.62 69.68 183.82C70.27 184.02 71.12 184.32 71.58 184.49C72.04 184.66 72.76 184.94 73.19 185.11C73.62 185.29 74.32 185.58 74.75 185.76C75.18 185.95 75.85 186.24 76.23 186.42C76.62 186.6 77.53 187.04 78.26 187.41C78.99 187.77 79.95 188.27 80.39 188.52C80.84 188.76 81.5 189.14 81.87 189.35L82.55 189.75C82.6 170.1 82.62 151.97 82.62 136.79C82.62 121.6 82.61 109.18 82.59 109.18C82.57 109.19 78.78 111.63 74.16 114.61ZM54.1 112.79L50.05 115.35C50.03 121.61 50.04 123.43 50.06 123.43C50.08 123.43 51.91 122.23 54.13 120.77C56.34 119.3 58.16 118.08 58.17 118.05C58.18 118.02 58.18 116.25 58.17 114.11L58.16 110.23L54.1 112.79ZM40.53 136.36C35.99 139.29 32.2 141.74 32.12 141.8L31.98 141.9L32.01 176.51C33.38 176.98 34.15 177.24 34.61 177.38C35.06 177.52 35.91 177.76 36.48 177.92C37.05 178.07 37.97 178.31 38.52 178.44C39.07 178.57 40.04 178.78 40.68 178.9C41.31 179.03 42.34 179.22 42.95 179.32C43.57 179.42 44.58 179.57 45.21 179.66C45.84 179.74 46.79 179.86 47.32 179.92C47.85 179.98 48.42 180.04 48.58 180.05L48.88 180.08C48.88 142.06 48.86 131.03 48.84 131.03C48.82 131.03 45.08 133.43 40.53 136.36ZM12.01 154.8C10.37 155.86 9.02 156.74 9.01 156.76C9 156.78 9.17 157.12 9.38 157.5C9.59 157.89 9.94 158.51 10.17 158.88C10.39 159.25 10.86 160 11.22 160.55C11.58 161.09 12.16 161.91 12.5 162.37C12.85 162.83 13.3 163.41 13.51 163.67C13.72 163.92 14.16 164.43 14.48 164.8C14.79 165.16 15.07 165.45 15.09 165.43C15.11 165.42 15.13 162.59 15.13 159.14C15.13 154.16 15.12 152.87 15.07 152.88C15.03 152.88 13.66 153.74 12.01 154.8Z" />
	</g>
</svg>