<?xml version="1.0" encoding="UTF-8" standalone="no"?><!-- Generator: Gravit.io --><svg xmlns="http://www.w3.org/2000/svg" xmlns:xlink="http://www.w3.org/1999/xlink" style="isolation:isolate" viewBox="0 0 512 512" width="512pt" height="512pt"><defs><clipPath id="_clipPath_fd1nycJf7o48a5uvRobIQUY65fMfbpMv"><rect width="512" height="512"/></clipPath></defs><g clip-path="url(#_clipPath_fd1nycJf7o48a5uvRobIQUY65fMfbpMv)"><rect x="0" y="0" width="512" height="512" transform="matrix(1,0,0,1,0,0)" fill="rgb(6,64,43)"/><path d=" M 368.003 222.63 C 359.156 222.63 351.972 229.814 351.972 238.627 C 351.972 247.474 359.156 254.658 368.003 254.658 C 376.817 254.658 384 247.474 384 238.627 C 384 229.813 376.816 222.63 368.003 222.63 Z  M 349.411 262.107 C 349.577 262.673 349.045 263.039 348.014 263.837 L 347.383 264.17 L 347.615 264.602 C 347.748 264.836 347.515 265.267 347.083 265.467 L 346.118 265.966 C 345.686 266.165 345.22 266.132 345.087 265.866 L 344.888 265.467 L 343.691 266.066 L 343.89 266.465 C 344.023 266.731 343.757 267.13 343.325 267.33 L 342.36 267.795 C 341.895 267.995 341.429 267.928 341.296 267.663 L 341.13 267.296 C 337.438 269.026 333.314 270.855 329.057 272.851 L 329.289 273.416 C 329.422 273.648 329.156 274.048 328.724 274.281 L 327.759 274.713 C 327.327 274.912 326.861 274.846 326.728 274.58 L 326.496 274.048 L 325.099 274.713 L 325.365 275.245 C 325.498 275.545 325.232 275.943 324.799 276.143 L 323.835 276.576 C 323.402 276.775 322.937 276.742 322.804 276.443 L 322.571 275.911 C 320.609 276.709 318.514 277.008 316.984 274.148 C 316.319 272.818 316.286 269.758 315.787 268.128 C 315.521 267.264 314.523 267.131 314.523 267.131 C 295.765 263.539 289.413 267.53 277.373 264.57 C 273.615 263.638 271.553 260.146 266.896 260.113 C 256.753 259.813 253.726 259.947 242.718 259.515 C 242.252 261.144 242.186 261.477 242.186 261.477 L 203.473 261.277 L 209.359 264.204 L 211.288 281.266 C 211.288 281.266 209.725 281.731 209.26 281.798 C 209.626 285.224 209.991 289.813 210.191 293.937 C 210.357 297.662 210.557 301.554 210.524 304.048 C 210.49 304.813 210.49 306.642 209.426 308.638 C 208.728 309.968 207.497 311.066 206.499 311.797 C 206.166 312.063 204.67 313.061 202.941 314.092 C 201.145 315.123 199.149 316.187 198.085 316.72 C 198.185 317.185 198.518 317.651 198.617 318.017 C 175.07 329.391 145.902 333.282 136.457 351.375 C 135.359 353.47 131.501 352.373 131.402 350.111 C 131.368 349.08 131.368 347.384 131.436 346.486 L 131.07 346.452 C 130.77 346.452 130.537 346.02 130.571 345.554 L 130.605 344.49 C 130.639 343.991 130.904 343.625 131.203 343.625 L 131.603 343.659 C 131.735 342.595 131.935 341.564 132.201 340.566 L 131.835 340.433 C 131.569 340.334 131.469 339.868 131.636 339.402 L 131.969 338.405 C 132.168 337.939 132.501 337.673 132.8 337.773 L 133.167 337.872 C 134.829 333.948 138.089 332.218 139.585 328.526 L 139.353 328.427 C 139.053 328.327 138.954 327.861 139.121 327.396 L 139.453 326.398 C 139.653 325.965 140.019 325.667 140.285 325.766 L 140.551 325.834 C 140.783 325.302 141.05 324.704 141.349 324.138 L 141.016 323.906 C 140.75 323.74 140.75 323.274 141.016 322.875 L 141.581 321.977 C 141.847 321.577 142.279 321.378 142.512 321.544 L 142.645 321.612 L 142.811 321.646 C 142.879 321.646 142.911 321.612 142.977 321.578 C 143.143 321.412 143.31 321.245 143.476 321.112 C 145.006 319.915 146.902 320.115 148.465 321.044 C 149.928 321.942 155.715 325.235 161.269 320.212 C 170.448 311.998 181.191 300.79 189.273 300.424 C 187.078 295.668 183.287 285.79 182.854 282.132 L 180.127 281.567 C 178.73 278.54 175.271 264.505 174.307 253.962 C 174.307 253.962 173.176 242.588 174.273 238.596 C 173.641 238.528 172.51 239.461 172.178 239.461 C 170.714 235.836 175.503 205.205 180.259 196.292 L 187.543 193.398 C 186.779 193.299 181.523 193.065 167.688 191.935 C 159.972 198.753 151.026 206.137 146.502 210.16 C 145.738 210.726 144.44 215.083 144.44 215.083 C 144.44 215.083 142.145 217.112 140.05 218.575 C 137.223 220.57 130.372 222.067 128.908 219.739 C 128.542 219.174 128.609 218.907 128.943 218.575 C 130.007 217.477 133.998 215.548 135.361 213.021 C 133.2 214.118 130.738 215.282 128.81 215.083 C 127.978 215.049 127.579 212.987 128.643 212.622 C 131.537 211.391 133.865 210.859 135.561 208.431 C 137.224 206.136 139.22 204.573 141.88 204.507 C 141.88 204.507 154.751 187.711 162.334 179.729 C 164.429 177.534 168.32 178.265 168.32 178.265 L 168.985 175.704 C 168.985 175.704 194.994 172.611 207.1 176.636 C 206.8 169.252 210.126 159.508 221.6 159.508 C 227.52 159.508 236.235 164.729 237.398 171.082 C 237.765 173.044 236.634 174.341 236.035 176.802 C 235.004 180.56 236.434 184.684 236.001 185.981 C 235.668 187.079 234.438 186.979 233.407 188.442 C 232.276 190.006 231.012 192.932 231.012 192.932 L 229.449 196.458 L 221.334 195.859 C 218.374 202.245 212.288 215.316 210.159 228.22 C 216.545 228.785 245.38 232.943 245.38 232.943 L 246.078 235.304 C 246.078 235.304 258.251 236.767 268.194 241.49 C 270.423 242.022 276.01 241.19 279.669 242.887 C 279.934 242.721 280.533 242.122 280.766 241.956 C 293.737 245.947 304.446 252.731 316.985 255.758 C 316.985 255.758 322.805 257.188 324.8 257.587 C 329.423 258.485 332.383 258.685 334.811 258.884 C 338.836 259.183 341.064 259.117 343.991 259.284 C 346.053 259.417 348.58 259.084 349.412 262.111" fill="rgb(255,255,255)"/></g></svg>