<?xml version="1.0" encoding="UTF-8" standalone="no"?><!-- Generator: Gravit.io --><svg xmlns="http://www.w3.org/2000/svg" xmlns:xlink="http://www.w3.org/1999/xlink" style="isolation:isolate" viewBox="0 0 512 512" width="512pt" height="512pt"><defs><clipPath id="_clipPath_QckXJjc8Jle2vKZwSulSK4JfJJUzDr5n"><rect width="512" height="512"/></clipPath></defs><g clip-path="url(#_clipPath_QckXJjc8Jle2vKZwSulSK4JfJJUzDr5n)"><path d="M 477.714 383.995 L 256.005 512 L 34.286 383.995 L 34.286 127.985 L 256.005 0 L 477.714 127.985 L 477.714 383.995 Z" fill-rule="evenodd" fill="rgb(239,191,4)" /><path d=" M 357.649 189.699 C 339.657 170.29 314.298 159.381 287.947 159.523 C 262.163 159.523 235.954 170.573 219.095 188.423 C 215.978 188.14 212.861 187.857 209.886 187.857 C 159.309 187.857 128 230.358 128 269.743 C 128.142 290.993 136.359 311.394 150.951 326.978 C 166.251 343.27 187.502 352.479 209.886 352.479 L 287.947 352.479 C 340.932 352.479 384 308.986 384 255.717 C 383.717 231.208 374.366 207.691 357.649 189.699 Z  M 208.328 338.595 C 170.785 338.595 140.467 308.136 140.467 270.593 C 140.467 233.333 170.643 203.016 208.044 202.732 C 224.62 202.732 240.77 208.824 253.096 219.875 L 253.379 220.158 L 281.572 249.059 C 286.247 253.876 286.105 261.526 281.288 266.201 C 276.471 270.876 268.821 270.735 264.146 265.918 L 236.379 237.3 C 218.245 221.716 190.902 223.7 175.318 241.834 C 168.518 249.625 164.835 259.684 164.835 270.026 C 164.835 293.827 185.094 313.944 209.036 313.944 L 214.561 313.944 L 214.561 314.086 C 222.495 325.136 244.737 338.595 244.737 338.595 L 208.328 338.595 L 208.328 338.595 Z  M 347.449 314.228 C 332.29 330.095 311.323 339.02 289.364 339.162 C 268.538 339.162 247.287 329.811 230.995 313.661 L 193.877 276.26 C 189.202 271.443 189.344 263.793 194.019 259.117 C 196.286 256.851 199.261 255.717 202.519 255.717 C 205.778 255.717 208.894 256.992 211.161 259.401 L 248.137 296.377 C 259.896 308.136 274.913 314.794 289.364 314.794 C 304.806 314.794 319.54 308.419 330.165 297.085 C 341.074 285.893 347.165 270.876 347.165 255.292 C 347.165 223.275 321.098 197.349 289.08 197.207 C 276.896 197.207 266.838 199.616 256.921 206.557 C 256.779 206.416 254.087 204.716 251.112 202.874 C 249.271 201.741 247.287 200.607 245.587 199.757 C 243.887 198.766 238.787 196.357 235.812 195.082 C 235.103 194.799 234.112 194.374 233.687 194.232 L 233.828 194.232 C 249.129 179.923 268.113 172.981 289.08 172.981 C 334.557 172.981 371.25 209.816 371.391 255.292 C 371.391 277.251 362.891 298.502 347.449 314.228 Z " fill="rgb(237,29,36)"/></g></svg>