<?xml version="1.0" encoding="UTF-8" standalone="no"?><!-- Generator: Gravit.io --><svg xmlns="http://www.w3.org/2000/svg" xmlns:xlink="http://www.w3.org/1999/xlink" style="isolation:isolate" viewBox="0 0 512 512" width="512pt" height="512pt"><defs><clipPath id="_clipPath_cHYmeqAFkE79kRa2FjqXaE831XsPdpYc"><rect width="512" height="512"/></clipPath></defs><g clip-path="url(#_clipPath_cHYmeqAFkE79kRa2FjqXaE831XsPdpYc)"><rect width="512" height="512" style="fill:rgb(17,17,132)"/><path d=" M 255.538 163.315 L 262.663 151.001 C 267.061 143.305 276.868 140.71 284.564 145.108 C 292.26 149.506 294.855 159.313 290.457 167.009 L 221.807 285.84 L 271.459 285.84 C 287.555 285.84 296.57 304.75 289.578 317.856 L 144.008 317.856 C 135.125 317.856 128 310.731 128 301.848 C 128 292.964 135.125 285.84 144.008 285.84 L 184.82 285.84 L 237.067 195.287 L 220.751 166.965 C 216.353 159.269 218.948 149.55 226.644 145.064 C 234.34 140.666 244.06 143.261 248.546 150.957 L 255.538 163.315 L 255.538 163.315 Z  M 193.792 334.348 L 178.4 361.043 C 174.002 368.739 164.194 371.334 156.498 366.936 C 148.802 362.538 146.207 352.731 150.605 345.035 L 162.04 325.244 C 174.969 321.242 185.48 324.321 193.792 334.348 L 193.792 334.348 Z  M 326.344 285.928 L 367.992 285.928 C 376.875 285.928 384 293.052 384 301.936 C 384 310.819 376.875 317.944 367.992 317.944 L 344.859 317.944 L 360.471 345.035 C 364.869 352.731 362.275 362.45 354.578 366.936 C 346.882 371.334 337.163 368.739 332.677 361.043 C 306.378 315.437 286.631 281.31 273.526 258.573 C 260.112 235.44 269.699 212.219 279.155 204.347 C 289.666 222.378 305.366 249.601 326.344 285.928 L 326.344 285.928 Z " fill="rgb(255,255,255)"/></g></svg>