<?xml version="1.0" encoding="UTF-8" standalone="no"?><!-- Generator: Gravit.io --><svg xmlns="http://www.w3.org/2000/svg" xmlns:xlink="http://www.w3.org/1999/xlink" style="isolation:isolate" viewBox="0 0 512 512" width="512pt" height="512pt"><defs><clipPath id="_clipPath_oLNPiyVsUXtrLXSASkbEit6HpzkkHvwA"><rect width="512" height="512"/></clipPath></defs><g clip-path="url(#_clipPath_oLNPiyVsUXtrLXSASkbEit6HpzkkHvwA)"><g><path d=" M 448.819 104.539 L 287.18 8.589 C 267.887 -2.863 244.108 -2.863 224.815 8.589 L 63.176 104.539 C 43.889 115.991 32.002 137.152 32.002 160.057 L 32.002 351.956 C 32.002 374.855 43.889 396.027 63.182 407.48 L 224.821 503.412 C 234.467 509.141 245.225 511.997 256 511.997 C 266.77 511.997 277.528 509.141 287.174 503.412 L 448.813 407.48 C 468.106 396.027 479.999 374.855 479.999 351.956 L 479.999 160.057 C 479.999 137.152 468.106 115.991 448.819 104.539 Z " fill-rule="evenodd" fill="rgb(254,254,254)"/><path d=" M 230.47 493.588 L 68.831 397.656 C 53.021 388.269 43.2 370.76 43.2 351.953 L 43.2 160.06 C 43.2 141.253 53.021 123.744 68.826 114.363 L 230.47 18.413 C 238.22 13.813 247.048 11.381 256 11.381 C 264.946 11.381 273.774 13.813 281.529 18.413 L 443.168 114.363 C 456.489 122.271 465.475 135.964 468.004 151.322 C 462.641 139.881 450.551 136.771 436.463 145.001 L 283.544 239.454 C 264.478 250.602 250.417 263.11 250.406 286.1 L 250.406 474.527 C 250.395 488.293 255.955 497.212 264.495 499.797 C 261.689 500.282 258.861 500.621 256 500.621 C 247.048 500.621 238.22 498.188 230.47 493.588 Z  M 448.818 104.536 L 287.179 8.592 C 277.533 2.863 266.764 0.001 256 0.001 C 245.23 0.001 234.461 2.863 224.814 8.592 L 63.175 104.536 C 43.889 115.988 32.001 137.155 32.001 160.06 L 32.001 351.953 C 32.001 374.852 43.889 396.024 63.181 407.477 L 224.82 503.415 C 234.472 509.138 245.23 512 256 512 C 266.769 512 277.527 509.138 287.174 503.415 L 448.818 407.477 C 468.111 396.024 479.998 374.852 479.998 351.953 L 479.998 160.06 C 479.998 137.155 468.111 115.988 448.818 104.536 Z " fill-rule="evenodd" fill="rgb(62,71,74)"/><path d=" M 406.447 370.505 L 366.197 394.596 C 365.13 395.217 364.345 395.917 364.34 397.198 L 364.34 407.73 C 364.34 409.017 365.203 409.553 366.27 408.927 L 407.141 384.086 C 408.208 383.465 408.372 382.274 408.377 380.993 L 408.377 371.702 C 408.377 370.421 407.514 369.885 406.447 370.505 Z " fill-rule="evenodd" fill="rgb(71,179,83)"/><path d=" M 320.738 281.85 C 322.042 281.19 323.114 282.003 323.131 283.707 L 323.266 297.632 C 329.097 295.312 334.16 294.691 338.749 295.753 C 339.742 296.018 340.183 297.373 339.776 298.981 L 336.711 311.32 C 336.474 312.251 335.949 313.194 335.317 313.781 C 335.052 314.04 334.781 314.244 334.51 314.379 C 334.098 314.588 333.692 314.656 333.302 314.577 C 331.208 314.103 326.23 313.013 318.395 316.981 C 310.177 321.141 307.304 328.281 307.36 333.581 C 307.428 339.909 310.674 341.828 321.884 342.02 C 336.819 342.268 343.27 348.793 343.428 363.835 C 343.581 378.607 335.695 394.468 323.633 404.187 L 323.899 417.971 C 323.915 419.63 322.837 421.533 321.534 422.193 L 313.372 426.895 C 312.062 427.555 310.99 426.742 310.973 425.083 L 310.832 411.525 C 303.838 414.432 296.755 415.132 292.228 413.314 C 291.375 412.981 291.009 411.723 291.347 410.289 L 294.305 397.826 C 294.542 396.844 295.061 395.862 295.767 395.235 C 296.015 394.993 296.275 394.806 296.534 394.676 C 297.003 394.439 297.46 394.389 297.85 394.535 C 302.726 396.178 308.963 395.41 314.963 392.374 C 322.583 388.518 327.68 380.746 327.601 373.025 C 327.528 366.02 323.735 363.107 314.512 363.04 C 302.772 363.073 291.827 360.759 291.646 343.476 C 291.5 329.246 298.899 314.441 310.612 305.077 L 310.465 291.164 C 310.448 289.453 311.492 287.574 312.836 286.897 L 320.738 281.85 Z " fill-rule="evenodd" fill="rgb(254,254,254)"/></g></g></svg>