<?xml version="1.0" encoding="UTF-8" standalone="no"?><!-- Generator: Gravit.io --><svg xmlns="http://www.w3.org/2000/svg" xmlns:xlink="http://www.w3.org/1999/xlink" style="isolation:isolate" viewBox="0 0 512 512" width="512pt" height="512pt"><defs><clipPath id="_clipPath_moPE5NkGPgAnq4dlQKrg3LZnBLuh80eR"><rect width="512" height="512"/></clipPath></defs><g clip-path="url(#_clipPath_moPE5NkGPgAnq4dlQKrg3LZnBLuh80eR)"><path d=" M 276.456 126.345 L 318.571 168.461 L 276.456 210.576 L 276.456 126.345 Z  M 276.456 385.655 L 318.571 343.539 L 276.456 301.424 L 276.456 385.655 Z  M 231.333 256.301 L 139.882 164.249 L 166.355 137.777 L 239.154 210.576 L 239.154 36.099 L 371.516 168.461 L 284.277 256.301 L 372.118 344.141 L 239.756 476.503 L 239.756 301.424 L 166.355 374.223 L 139.882 347.751 L 231.333 256.301 Z  M 256 512 C 367.906 512 444.917 459.055 444.917 255.699 C 444.917 52.945 367.906 0 256 0 C 144.094 0 67.083 52.945 67.083 256.301 C 67.083 459.055 144.094 512 256 512 Z " fill-rule="evenodd" fill="rgb(0,130,252)"/></g></svg>