<?xml version="1.0" encoding="UTF-8" standalone="no"?><!-- Generator: Gravit.io --><svg xmlns="http://www.w3.org/2000/svg" xmlns:xlink="http://www.w3.org/1999/xlink" style="isolation:isolate" viewBox="0 0 512 512" width="512pt" height="512pt"><defs><clipPath id="_clipPath_AqNzI9Kd0F0FfwB51BwiSqUUqjb9QzNN"><rect width="512" height="512"/></clipPath></defs><g clip-path="url(#_clipPath_AqNzI9Kd0F0FfwB51BwiSqUUqjb9QzNN)"><path d=" M 34.284 384.097 C 36.608 388.229 39.966 391.328 44.098 393.652 L 242.958 508.32 L 242.958 508.32 C 251.222 513.227 261.294 513.227 269.3 508.32 L 468.16 393.652 C 476.425 389.004 481.332 380.223 481.332 370.667 L 481.332 141.333 L 481.332 141.333 C 481.332 131.777 476.425 122.996 468.16 118.348 L 269.3 3.68 L 269.3 3.68 C 261.036 -1.227 250.964 -1.227 242.958 3.68 L 242.958 3.68 L 44.098 118.348 C 35.575 122.996 30.668 131.777 30.668 141.333 L 30.668 141.333 L 30.668 370.926 C 30.668 375.574 31.701 379.965 34.284 384.097 Z " fill="rgb(0,150,57)"/><path d=" M 192.339 343.421 C 192.339 357.625 180.976 368.989 166.771 368.989 C 152.567 368.989 141.204 357.625 141.204 343.421 L 141.204 343.421 L 141.204 168.063 C 141.204 154.375 153.342 143.27 170.129 143.27 C 182.267 143.27 196.471 148.177 204.994 158.765 L 212.741 168.063 L 319.661 295.901 L 319.661 168.579 L 319.661 168.579 C 319.661 154.375 331.024 143.011 345.229 143.011 C 359.433 143.011 370.796 154.375 370.796 168.579 L 370.796 168.579 L 370.796 343.937 C 370.796 357.625 358.658 368.73 341.871 368.73 C 329.733 368.73 315.529 363.823 307.006 353.235 L 192.339 216.357 L 192.339 343.421 L 192.339 343.421 Z " fill="rgb(255,255,255)"/></g></svg>