<?xml version="1.0" encoding="UTF-8" standalone="no"?><!-- Generator: Gravit.io --><svg xmlns="http://www.w3.org/2000/svg" xmlns:xlink="http://www.w3.org/1999/xlink" style="isolation:isolate" viewBox="0 0 512 512" width="512pt" height="512pt"><defs><clipPath id="_clipPath_O8ZBq9BhflHFF1qxqvwD6zEsXvOF1BEU"><rect width="512" height="512"/></clipPath></defs><g clip-path="url(#_clipPath_O8ZBq9BhflHFF1qxqvwD6zEsXvOF1BEU)"><g><path d=" M 376.818 317.859 L 391.609 280.456 L 434.316 280.456 L 414.049 223.717 L 439.397 159.615 L 512 352.384 L 458.458 352.384 L 446.051 317.859 L 376.818 317.859 Z " fill="rgb(61,61,61)"/><path d=" M 331.14 352.385 L 408.863 159.615 L 357.335 159.616 L 304.168 284.188 L 266.361 159.616 L 226.754 159.616 L 186.159 284.188 L 157.53 227.423 L 131.623 307.24 L 157.927 352.385 L 208.637 352.385 L 245.32 240.671 L 280.296 352.385 L 331.14 352.385 Z " fill="rgb(90,15,200)"/><path d=" M 48.912 286.21 L 80.65 286.21 C 90.264 286.21 98.825 285.137 106.333 282.991 L 114.541 257.703 L 137.481 187.029 C 135.734 184.259 133.738 181.639 131.495 179.171 C 119.716 166.134 102.484 159.615 79.796 159.615 L 0 159.615 L 0 352.384 L 48.912 352.384 L 48.912 286.21 Z  M 90.922 203.964 C 95.523 208.594 97.823 214.79 97.823 222.553 C 97.823 230.375 95.8 236.579 91.754 241.164 C 87.319 246.259 79.152 248.807 67.254 248.807 L 48.912 248.807 L 48.912 197.018 L 67.388 197.018 C 78.477 197.018 86.322 199.333 90.922 203.964 Z " fill="rgb(61,61,61)"/></g></g></svg>