<?xml version="1.0" encoding="UTF-8" standalone="no"?><!-- Generator: Gravit.io --><svg xmlns="http://www.w3.org/2000/svg" xmlns:xlink="http://www.w3.org/1999/xlink" style="isolation:isolate" viewBox="0 0 512 512" width="512pt" height="512pt"><defs><clipPath id="_clipPath_6P2PQS17jgFrzDRyoyS5NK2gB2RdVwSy"><rect width="512" height="512"/></clipPath></defs><g clip-path="url(#_clipPath_6P2PQS17jgFrzDRyoyS5NK2gB2RdVwSy)"><g><path d=" M 314.562 0 C 314.562 0.904 314.562 1.807 314.562 2.761 C 314.562 35.187 288.276 61.465 255.858 61.465 C 223.431 61.465 197.153 35.179 197.153 2.761 L 197.153 2.761 C 197.153 1.807 197.153 0.904 197.153 0 L 0 0 L 0 512 L 512 512 L 512 0 L 314.562 0 Z " fill="rgb(101,79,240)"/><path d=" M 118.931 275.919 L 152.864 275.919 L 176.029 399.293 L 176.448 399.293 L 204.29 275.919 L 236.03 275.919 L 261.179 400.807 L 261.672 400.807 L 288.075 275.919 L 321.355 275.919 L 278.111 457.203 L 244.438 457.203 L 219.499 333.829 L 218.847 333.829 L 192.151 457.203 L 157.85 457.203 L 118.931 275.919 Z  M 359.613 275.919 L 413.105 275.919 L 466.23 457.203 L 431.226 457.203 L 419.673 416.862 L 358.735 416.862 L 349.816 457.203 L 315.725 457.203 L 359.613 275.919 Z  M 379.976 320.602 L 365.176 387.112 L 411.24 387.112 L 394.248 320.602 L 379.976 320.602 Z " fill="rgb(255,255,255)"/></g></g></svg>