<?xml version="1.0" encoding="UTF-8" standalone="no"?><!-- Generator: Gravit.io --><svg xmlns="http://www.w3.org/2000/svg" xmlns:xlink="http://www.w3.org/1999/xlink" style="isolation:isolate" viewBox="0 0 512 512" width="512pt" height="512pt"><defs><clipPath id="_clipPath_Xxh7HMrGQ9TL0j2ts4v1V9KRbK886mLL"><rect width="512" height="512"/></clipPath></defs><g clip-path="url(#_clipPath_Xxh7HMrGQ9TL0j2ts4v1V9KRbK886mLL)"><rect x="0" y="0" width="512" height="512" transform="matrix(1,0,0,1,0,0)" fill="rgb(27,27,29)"/><path d=" M 316.547 208.178 C 319.454 211.085 324.28 211.085 327.013 208.178 L 341.548 193.061 C 344.63 190.154 344.455 184.921 341.199 181.781 C 329.777 171.833 316.498 164.245 302.128 159.455 L 306.721 137.361 C 307.709 132.535 304.105 128 299.279 128 L 271.138 128 C 267.513 128.039 264.41 130.609 263.696 134.163 L 259.626 153.815 C 222.182 155.734 190.437 174.746 190.437 213.702 C 190.437 247.424 216.659 261.901 244.393 271.844 C 270.615 281.844 284.511 285.565 284.511 299.636 C 284.511 314.113 270.673 322.602 250.207 322.602 C 231.601 322.602 212.066 316.381 196.949 301.205 C 195.531 299.785 193.606 298.987 191.599 298.987 C 189.593 298.987 187.668 299.785 186.25 301.205 L 170.552 316.904 C 167.477 319.99 167.477 324.981 170.552 328.067 C 182.762 340.103 198.228 348.824 215.856 353.65 L 211.554 374.406 C 210.565 379.232 214.112 383.709 218.938 383.767 L 247.137 384 C 250.806 384.016 253.973 381.434 254.695 377.837 L 258.765 358.127 C 303.814 355.103 331.257 330.277 331.257 294.054 C 331.257 260.68 303.93 246.61 270.789 235.156 C 251.835 228.121 235.439 223.295 235.439 208.818 C 235.439 194.747 250.73 189.166 266.08 189.166 C 285.615 189.166 304.395 197.247 316.663 208.294 L 316.547 208.178 Z " fill="rgb(0,0,128)"/></g></svg>