<?xml version="1.0" encoding="UTF-8" standalone="no"?><!-- Generator: Gravit.io --><svg xmlns="http://www.w3.org/2000/svg" xmlns:xlink="http://www.w3.org/1999/xlink" style="isolation:isolate" viewBox="0 0 512 512" width="512pt" height="512pt"><defs><clipPath id="_clipPath_ZDP3Hp0t35k3s2pcXEypJXH3wyH15gcS"><rect width="512" height="512"/></clipPath></defs><g clip-path="url(#_clipPath_ZDP3Hp0t35k3s2pcXEypJXH3wyH15gcS)"><circle vector-effect="non-scaling-stroke" cx="256" cy="256" r="256" fill="rgb(27,27,29)" /><path d=" M 149.993 283.825 C 149.993 283.825 162.44 292.877 172.66 311.711 C 182.881 330.555 199.678 333.972 214.78 324.629 C 229.883 315.291 243.322 297.491 260.549 262.585 C 277.776 227.679 287.188 221.943 310.142 209.08 C 333.096 196.223 384 182.367 384 182.367 C 384 182.367 323.877 182.233 298.125 183.707 C 274.903 185.032 262.955 181.869 243.669 204.684 C 222.904 229.235 218.281 243.188 204.01 259.939 C 189.739 276.69 175.976 283.077 163.354 283.576 C 154.87 283.908 149.993 283.83 149.993 283.83 L 149.993 283.825 Z  M 128 215.274 C 128 215.274 165.562 224.982 177.173 303.43 L 212.998 277.627 C 212.998 277.627 204.879 256.442 186.977 232.861 C 169.797 210.235 138.682 212.923 128 215.274 Z " fill="rgb(0,0,128)"/></g></svg>