<?xml version="1.0" encoding="UTF-8" standalone="no"?><!-- Generator: Gravit.io --><svg xmlns="http://www.w3.org/2000/svg" xmlns:xlink="http://www.w3.org/1999/xlink" style="isolation:isolate" viewBox="0 0 512 512" width="512pt" height="512pt"><defs><clipPath id="_clipPath_60CgeCXAeWv8QstMDiZbNO1x8uB2ajTj"><rect width="512" height="512"/></clipPath></defs><g clip-path="url(#_clipPath_60CgeCXAeWv8QstMDiZbNO1x8uB2ajTj)"><circle vector-effect="non-scaling-stroke" cx="256" cy="256" r="256" fill="rgb(237,29,36)" /><path d=" M 256 384 C 326.696 384 384 326.696 384 256 C 384 185.304 326.696 128 256 128 C 185.304 128 128 185.304 128 256 C 128 326.696 185.304 384 256 384 Z  M 256 156.448 C 201.016 156.448 156.448 201.016 156.448 256 C 156.448 310.984 201.016 355.552 256 355.552 L 256 330.672 C 214.765 330.672 181.337 297.245 181.336 256.011 C 181.335 214.776 214.76 181.347 255.995 181.344 C 297.229 181.341 330.66 214.765 330.664 256 L 355.552 256 C 355.552 201.008 310.984 156.44 256 156.44 L 256 156.448 Z  M 196.264 256 C 196.264 288.991 223.009 315.736 256 315.736 L 256 294.016 C 235.011 294.012 217.999 276.994 218 256.005 C 218.001 235.016 235.016 218.001 256.005 218 C 276.994 217.999 294.012 235.011 294.016 256 L 315.736 256 C 315.736 223.009 288.991 196.264 256 196.264 C 223.009 196.264 196.264 223.009 196.264 256 Z " fill-rule="evenodd" fill="rgb(239,191,4)"/></g></svg>