<?xml version="1.0" encoding="UTF-8" standalone="no"?><!-- Generator: Gravit.io --><svg xmlns="http://www.w3.org/2000/svg" xmlns:xlink="http://www.w3.org/1999/xlink" style="isolation:isolate" viewBox="0 0 512 512" width="512pt" height="512pt"><defs><clipPath id="_clipPath_CD5oDucw1LUC6X7t3VEuWp1g4T5pNefL"><rect width="512" height="512"/></clipPath></defs><g clip-path="url(#_clipPath_CD5oDucw1LUC6X7t3VEuWp1g4T5pNefL)"><path d="M 477.714 383.995 L 256.005 512 L 34.286 383.995 L 34.286 127.985 L 256.005 0 L 477.714 127.985 L 477.714 383.995 Z" fill-rule="evenodd" fill="rgb(27,27,29)" /><path d=" M 222.991 160.275 L 289.009 160.275 C 293.41 160.275 299.645 163.209 302.212 166.877 L 320.55 193.65 C 322.384 196.218 325.318 197.685 328.252 197.685 L 367.496 197.685 C 376.665 197.685 384 205.02 384 214.189 L 384 335.221 C 384 344.39 376.665 351.725 367.496 351.725 L 144.504 351.725 C 135.335 351.725 128 344.39 128 335.221 L 128 214.189 C 128 205.02 135.335 197.685 144.504 197.685 L 183.748 197.685 C 186.682 197.685 189.616 196.218 191.45 193.65 L 209.788 166.877 C 212.355 163.209 218.223 160.275 222.991 160.275 Z  M 317.983 218.957 C 317.983 223.725 321.65 227.393 326.418 227.393 C 330.819 227.393 334.854 223.725 334.854 218.957 C 334.854 214.189 331.186 210.521 326.418 210.521 C 321.65 210.521 317.983 214.189 317.983 218.957 Z  M 198.052 273.238 C 198.052 305.513 224.092 331.553 256 331.553 C 287.908 331.553 313.948 305.513 313.948 273.238 C 313.948 240.963 287.908 214.923 256 214.923 C 224.092 214.923 198.052 240.963 198.052 273.238 Z  M 152.573 168.711 L 169.077 168.711 C 173.479 168.711 177.146 172.378 177.146 177.146 L 177.146 185.582 L 144.138 185.582 L 144.138 177.146 C 144.504 172.378 148.172 168.711 152.573 168.711 Z  M 210.521 273.238 C 210.521 247.931 230.693 227.393 256 227.393 C 281.307 227.393 301.479 247.931 301.479 273.238 C 301.479 298.544 281.307 319.083 256 319.083 C 230.693 319.083 210.521 298.544 210.521 273.238 Z " fill-rule="evenodd" fill="rgb(237,29,36)"/></g></svg>