<?xml version="1.0" encoding="UTF-8" standalone="no"?><!-- Generator: Gravit.io --><svg xmlns="http://www.w3.org/2000/svg" xmlns:xlink="http://www.w3.org/1999/xlink" style="isolation:isolate" viewBox="0 0 512 512" width="512pt" height="512pt"><defs><clipPath id="_clipPath_8PISjieNv2Ze8HGA2K9ddnvRl8VlJAaJ"><rect width="512" height="512"/></clipPath></defs><g clip-path="url(#_clipPath_8PISjieNv2Ze8HGA2K9ddnvRl8VlJAaJ)"><path d="M 477.714 383.995 L 256.005 512 L 34.286 383.995 L 34.286 127.985 L 256.005 0 L 477.714 127.985 L 477.714 383.995 Z" fill-rule="evenodd" fill="rgb(27,27,29)" /><path d=" M 174.776 216.996 C 171.776 220.546 166.975 223.346 162.175 222.946 C 161.575 218.146 163.925 213.045 166.675 209.895 C 169.675 206.244 174.926 203.644 179.177 203.444 C 179.677 208.445 177.726 213.345 174.776 216.996 Z  M 179.127 223.896 C 172.176 223.496 166.225 227.847 162.925 227.847 C 159.574 227.847 154.524 224.096 149.023 224.196 C 141.872 224.296 135.222 228.347 131.571 234.798 C 124.07 247.699 129.621 266.801 136.872 277.302 C 140.422 282.503 144.673 288.204 150.273 288.004 C 155.574 287.804 157.674 284.553 164.075 284.553 C 170.526 284.553 172.376 288.004 177.976 287.904 C 183.777 287.804 187.427 282.703 190.978 277.502 C 195.028 271.602 196.679 265.851 196.779 265.551 C 196.679 265.451 185.577 261.201 185.477 248.399 C 185.377 237.698 194.228 232.597 194.628 232.297 C 189.628 224.896 181.827 224.096 179.127 223.896 Z  M 219.281 209.395 L 219.281 287.354 L 231.383 287.354 L 231.383 260.701 L 248.134 260.701 C 263.436 260.701 274.187 250.199 274.187 234.998 C 274.187 219.796 263.636 209.395 248.534 209.395 L 219.281 209.395 L 219.281 209.395 Z  M 231.383 219.596 L 245.334 219.596 C 255.835 219.596 261.836 225.196 261.836 235.048 C 261.836 244.899 255.835 250.549 245.284 250.549 L 231.383 250.549 L 231.383 219.596 L 231.383 219.596 Z  M 296.29 287.954 C 303.891 287.954 310.942 284.103 314.142 278.003 L 314.392 278.003 L 314.392 287.354 L 325.593 287.354 L 325.593 248.549 C 325.593 237.298 316.592 230.047 302.741 230.047 C 289.889 230.047 280.388 237.398 280.038 247.499 L 290.939 247.499 C 291.839 242.698 296.29 239.548 302.391 239.548 C 309.791 239.548 313.942 242.999 313.942 249.349 L 313.942 253.65 L 298.84 254.55 C 284.789 255.4 277.188 261.151 277.188 271.152 C 277.188 281.253 285.039 287.954 296.29 287.954 Z  M 299.54 278.703 C 293.09 278.703 288.989 275.602 288.989 270.852 C 288.989 265.951 292.94 263.101 300.49 262.651 L 313.942 261.801 L 313.942 266.201 C 313.942 273.502 307.741 278.703 299.54 278.703 Z  M 340.545 308.556 C 352.346 308.556 357.897 304.056 362.748 290.404 L 384 230.797 L 371.699 230.797 L 357.447 276.852 L 357.197 276.852 L 342.945 230.797 L 330.294 230.797 L 350.796 287.554 L 349.696 291.004 C 347.846 296.855 344.846 299.105 339.495 299.105 C 338.545 299.105 336.695 299.005 335.944 298.905 L 335.944 308.256 C 336.645 308.456 339.645 308.556 340.545 308.556 Z " fill="rgb(237,29,36)"/></g></svg>