<?xml version="1.0" encoding="UTF-8" standalone="no"?><!-- Generator: Gravit.io --><svg xmlns="http://www.w3.org/2000/svg" xmlns:xlink="http://www.w3.org/1999/xlink" style="isolation:isolate" viewBox="0 0 512 512" width="512pt" height="512pt"><defs><clipPath id="_clipPath_dIn0FFmYMO6xCBNybEnkmL3fDNLNzaZG"><rect width="512" height="512"/></clipPath></defs><g clip-path="url(#_clipPath_dIn0FFmYMO6xCBNybEnkmL3fDNLNzaZG)"><circle vector-effect="non-scaling-stroke" cx="256" cy="256" r="256" fill="rgb(239,191,4)" /><path d=" M 256 384 C 185.42 384 128 326.58 128 256 C 128 185.42 185.42 128 256 128 C 326.579 128 384 185.42 384 256 C 384 326.579 326.579 384 256 384 Z  M 277.665 206.491 L 205.326 206.491 L 194.35 224.129 L 266.606 224.129 L 277.665 206.491 Z  M 292.448 206.659 L 248.226 277.075 L 199.173 277.075 L 210.49 259.421 L 239.89 259.421 L 251.121 241.776 L 183.152 241.776 L 171.924 259.421 L 188.025 259.421 L 165.685 294.668 L 258.918 294.668 L 293.354 240.361 L 305.91 259.421 L 294.588 259.421 L 283.866 277.075 L 317.392 277.075 L 329.034 294.668 L 350.42 294.668 L 292.448 206.659 Z " fill-rule="evenodd" fill="rgb(255,255,255)"/></g></svg>