<?xml version="1.0" encoding="UTF-8" standalone="no"?><!-- Generator: Gravit.io --><svg xmlns="http://www.w3.org/2000/svg" xmlns:xlink="http://www.w3.org/1999/xlink" style="isolation:isolate" viewBox="0 0 512 512" width="512pt" height="512pt"><defs><clipPath id="_clipPath_RZBmiSEQ6pkaVrt6B0g8yUYOFuPOf3Yn"><rect width="512" height="512"/></clipPath></defs><g clip-path="url(#_clipPath_RZBmiSEQ6pkaVrt6B0g8yUYOFuPOf3Yn)"><circle vector-effect="non-scaling-stroke" cx="256" cy="256" r="256" fill="rgb(17,17,132)" /><path d=" M 255.999 128 C 185.308 128 128 185.309 128 256.001 C 128 320.906 176.311 374.52 238.934 382.865 L 238.934 357.073 C 238.934 349.8 234.347 343.265 227.453 340.951 C 191.321 328.812 165.473 294.278 166.425 253.841 C 167.584 204.613 207.684 165.908 256.924 166.404 C 305.983 166.9 345.6 206.824 345.6 256.001 C 345.6 257.121 345.573 258.237 345.532 259.346 C 345.522 259.595 345.514 259.845 345.504 260.095 C 345.457 261.125 345.394 262.154 345.313 263.176 C 345.289 263.502 345.256 263.826 345.226 264.151 C 345.163 264.865 345.09 265.574 345.009 266.282 C 344.919 267.085 344.814 267.885 344.702 268.68 C 344.653 269.044 344.604 269.408 344.548 269.769 C 333.578 342.032 239.46 382.645 238.944 382.868 C 244.525 383.61 250.217 384 255.999 384 C 326.692 384 384 326.693 384 256.001 C 384 185.309 326.692 128 255.999 128 Z " fill-rule="evenodd" fill="rgb(255,255,255)"/></g></svg>