<?xml version="1.0" encoding="UTF-8" standalone="no"?><!-- Generator: Gravit.io --><svg xmlns="http://www.w3.org/2000/svg" xmlns:xlink="http://www.w3.org/1999/xlink" style="isolation:isolate" viewBox="0 0 512 512" width="512pt" height="512pt"><defs><clipPath id="_clipPath_FusvM2jzz3PQvzHQiL0IellH1PGTils8"><rect width="512" height="512"/></clipPath></defs><g clip-path="url(#_clipPath_FusvM2jzz3PQvzHQiL0IellH1PGTils8)"><path d="M 477.714 383.995 L 256.005 512 L 34.286 383.995 L 34.286 127.985 L 256.005 0 L 477.714 127.985 L 477.714 383.995 Z" fill-rule="evenodd" fill="rgb(237,29,36)" /><path d=" M 181.689 284.34 L 136.169 284.34 C 133.135 284.383 130.328 282.74 128.879 280.074 C 127.302 277.008 127.885 273.275 130.32 270.834 L 161.91 239.131 L 139.305 239.131 C 133.063 239.131 128.003 234.071 128.003 227.829 L 169.963 227.829 C 172.997 227.786 175.804 229.43 177.253 232.096 C 178.83 235.162 178.247 238.895 175.812 241.335 L 144.109 273.038 L 170.387 273.038 C 176.629 273.038 181.689 278.098 181.689 284.34 Z  M 361.989 226.897 C 355.712 226.914 349.741 229.607 345.572 234.3 C 341.404 229.607 335.432 226.914 329.156 226.897 C 316.904 227.218 307.14 237.245 307.144 249.501 L 307.144 284.34 C 310.142 284.34 313.017 283.15 315.136 281.03 C 317.256 278.911 318.447 276.036 318.447 273.038 L 318.447 249.275 C 318.362 243.416 322.91 238.531 328.76 238.199 C 331.702 238.052 334.576 239.117 336.712 241.146 C 338.847 243.175 340.058 245.99 340.062 248.936 L 340.062 272.953 C 340.062 279.196 345.123 284.256 351.365 284.256 L 351.365 249.275 C 351.275 243.467 355.742 238.603 361.537 238.199 C 364.455 238.092 367.291 239.174 369.396 241.199 C 371.5 243.223 372.692 246.016 372.698 248.936 L 372.698 272.953 C 372.698 279.196 377.758 284.256 384 284.256 L 384 249.501 C 384.004 237.245 374.241 227.218 361.989 226.897 L 361.989 226.897 Z  M 238.766 256.085 C 238.719 272.147 225.668 285.135 209.606 285.103 C 193.544 285.072 180.543 272.034 180.559 255.972 C 180.574 239.91 193.6 226.897 209.662 226.897 C 217.393 226.904 224.804 229.984 230.263 235.459 C 235.722 240.934 238.781 248.354 238.766 256.085 Z  M 227.463 256.085 C 227.463 246.253 219.493 238.284 209.662 238.284 C 199.831 238.284 191.861 246.253 191.861 256.085 C 191.861 265.916 199.831 273.886 209.662 273.886 C 219.487 273.87 227.448 265.91 227.463 256.085 Z  M 301.493 256.085 C 301.447 272.147 288.396 285.135 272.334 285.103 C 256.271 285.072 243.271 272.034 243.287 255.972 C 243.302 239.91 256.328 226.897 272.39 226.897 C 280.121 226.904 287.532 229.984 292.991 235.459 C 298.45 240.934 301.508 248.354 301.493 256.085 Z  M 290.191 256.085 C 290.191 246.253 282.221 238.284 272.39 238.284 C 262.559 238.284 254.589 246.253 254.589 256.085 C 254.589 265.916 262.559 273.886 272.39 273.886 C 282.215 273.87 290.175 265.91 290.191 256.085 L 290.191 256.085 Z " fill="rgb(239,191,4)"/></g></svg>