<?xml version="1.0" encoding="UTF-8" standalone="no"?><!-- Generator: Gravit.io --><svg xmlns="http://www.w3.org/2000/svg" xmlns:xlink="http://www.w3.org/1999/xlink" style="isolation:isolate" viewBox="0 0 512 512" width="512pt" height="512pt"><defs><clipPath id="_clipPath_KDGyyFvRYDxyXTWDwTW4jFMAmacj0csE"><rect width="512" height="512"/></clipPath></defs><g clip-path="url(#_clipPath_KDGyyFvRYDxyXTWDwTW4jFMAmacj0csE)"><circle vector-effect="non-scaling-stroke" cx="256" cy="256" r="256" fill="rgb(237,29,36)" /><path d=" M 381.743 309.624 C 384.939 314.098 384.3 319.851 380.465 323.046 C 375.991 326.242 369.599 325.603 366.403 321.768 L 344.033 293.006 L 322.302 321.129 C 319.106 325.603 312.715 325.603 308.241 322.407 C 303.766 319.212 303.127 313.459 306.323 308.985 L 331.889 275.749 L 306.323 242.513 C 303.127 238.039 304.406 231.648 308.241 228.452 C 312.715 225.256 319.106 226.535 322.302 230.37 L 344.033 259.131 L 366.403 231.648 C 369.599 227.174 375.351 226.535 380.465 229.73 C 384.939 232.926 384.939 239.318 381.743 243.792 L 356.816 276.388 L 381.743 309.624 Z  M 265.417 305.789 C 248.8 305.789 235.377 293.006 235.377 276.388 C 235.377 260.41 248.8 246.988 265.417 246.988 C 282.035 246.988 295.458 260.41 295.458 276.388 C 294.818 293.006 281.396 305.789 265.417 305.789 Z  M 177.215 305.789 C 160.597 305.789 147.175 293.006 147.175 276.388 C 147.175 260.41 160.597 246.988 177.215 246.988 C 193.833 246.988 207.255 260.41 207.255 276.388 C 207.255 293.006 193.833 305.789 177.215 305.789 Z  M 265.417 227.813 C 246.882 227.813 230.264 238.039 221.955 253.379 C 213.646 238.039 197.028 227.813 177.854 227.813 C 166.349 227.813 156.123 231.648 147.814 237.4 L 147.814 196.495 C 147.814 191.381 143.34 186.907 138.226 186.907 C 132.474 186.907 128 191.381 128 196.495 L 128 277.028 C 128.639 303.872 150.37 324.964 177.215 324.964 C 196.389 324.964 213.007 314.098 221.316 298.759 C 229.625 314.098 246.243 324.964 264.778 324.964 C 292.262 324.964 314.632 303.233 314.632 275.749 C 315.271 249.544 292.901 227.813 265.417 227.813 Z " fill="rgb(239,191,4)"/></g></svg>