<?xml version="1.0" encoding="UTF-8" standalone="no"?><!-- Generator: Gravit.io --><svg xmlns="http://www.w3.org/2000/svg" xmlns:xlink="http://www.w3.org/1999/xlink" style="isolation:isolate" viewBox="0 0 1451.339 1451.339" width="1451.339pt" height="1451.339pt"><defs><clipPath id="_clipPath_1S1ztJ3AmUxVQtnghoFx9hAEvGwZkNRn"><rect width="1451.339" height="1451.339"/></clipPath></defs><g clip-path="url(#_clipPath_1S1ztJ3AmUxVQtnghoFx9hAEvGwZkNRn)"><rect width="1451.339" height="1451.339" style="fill:rgb(27,27,29)"/><path d=" M 725.669 1088.504 C 925.954 1088.504 1088.504 925.954 1088.504 725.669 C 1088.504 525.385 925.954 362.835 725.669 362.835 C 525.385 362.835 362.835 525.385 362.835 725.669 C 362.835 925.954 525.385 1088.504 725.669 1088.504 Z  M 858.243 725.669 L 648.916 607.05 L 648.916 844.288 L 858.243 725.669 Z  M 496.611 725.669 C 496.611 599.249 599.249 496.611 725.669 496.611 C 852.09 496.611 954.728 599.249 954.728 725.669 C 954.728 852.09 852.09 954.728 725.669 954.728 C 599.249 954.728 496.611 852.09 496.611 725.669 Z  M 566.107 828.076 C 547.096 798.534 536.064 763.38 536.064 725.669 C 536.064 621.023 621.023 536.064 725.669 536.064 C 830.316 536.064 915.275 621.023 915.275 725.669 C 915.275 830.316 830.316 915.275 725.669 915.275 C 658.733 915.275 599.852 880.515 566.107 828.076 Z " fill-rule="evenodd" fill="rgb(255,255,255)"/></g></svg>