<?xml version="1.0" encoding="UTF-8" standalone="no"?><!-- Generator: Gravit.io --><svg xmlns="http://www.w3.org/2000/svg" xmlns:xlink="http://www.w3.org/1999/xlink" style="isolation:isolate" viewBox="0 0 512 512" width="512pt" height="512pt"><defs><clipPath id="_clipPath_Q5M53AVNMTpxB9XJtixlgvCFeWH7ZAEe"><rect width="512" height="512"/></clipPath></defs><g clip-path="url(#_clipPath_Q5M53AVNMTpxB9XJtixlgvCFeWH7ZAEe)"><path d="M 477.714 383.995 L 256.005 512 L 34.286 383.995 L 34.286 127.985 L 256.005 0 L 477.714 127.985 L 477.714 383.995 Z" fill-rule="evenodd" fill="rgb(27,27,29)" /><path d=" M 175.75 360.849 C 172.633 364.466 175.193 370.087 179.979 370.087 L 332.021 370.087 C 336.807 370.087 339.367 364.466 336.25 360.849 L 260.23 273.53 C 258.226 271.193 254.664 270.97 252.383 272.974 C 252.16 273.197 175.75 360.849 175.75 360.849 Z  M 356.174 141.913 L 155.826 141.913 C 140.466 141.913 128 154.379 128 169.739 L 128 283.826 C 128 299.186 140.466 311.652 155.826 311.652 L 193.169 311.652 L 205.301 297.739 L 155.826 297.739 C 148.142 297.739 141.913 291.51 141.913 283.826 L 141.913 169.739 C 141.913 166.049 143.379 162.51 145.988 159.901 C 148.597 157.292 152.136 155.826 155.826 155.826 L 356.174 155.826 C 359.864 155.826 363.403 157.292 366.012 159.901 C 368.621 162.51 370.087 166.049 370.087 169.739 L 370.087 283.826 C 370.087 291.51 363.858 297.739 356.174 297.739 L 306.143 297.739 L 318.275 311.652 L 356.174 311.652 C 371.534 311.652 384 299.186 384 283.826 L 384 169.739 C 384 154.379 371.534 141.913 356.174 141.913 Z " fill-rule="evenodd" fill="rgb(85,0,0)"/></g></svg>