<?xml version="1.0" encoding="UTF-8" standalone="no"?><!-- Generator: Gravit.io --><svg xmlns="http://www.w3.org/2000/svg" xmlns:xlink="http://www.w3.org/1999/xlink" style="isolation:isolate" viewBox="0 0 512 512" width="512pt" height="512pt"><defs><clipPath id="_clipPath_2pPVykZCkQpIh1gRPwJZfEUgpxm8xRaw"><rect width="512" height="512"/></clipPath></defs><g clip-path="url(#_clipPath_2pPVykZCkQpIh1gRPwJZfEUgpxm8xRaw)"><path d="M 477.714 383.995 L 256.005 512 L 34.286 383.995 L 34.286 127.985 L 256.005 0 L 477.714 127.985 L 477.714 383.995 Z" fill-rule="evenodd" fill="rgb(27,27,29)" /><path d=" M 256 141.381 C 185.308 141.382 128 189.115 128 247.997 C 128.063 285.407 151.662 320.053 190.184 339.289 C 185.14 350.582 177.575 361.171 167.802 370.618 C 186.754 367.292 204.544 360.303 219.789 350.196 C 231.543 353.105 243.738 354.592 256 354.612 C 326.692 354.611 384 306.878 384 247.997 C 384 189.115 326.692 141.382 256 141.381 L 256 141.381 Z " fill="rgb(85,0,0)"/></g></svg>