<?xml version="1.0" encoding="UTF-8" standalone="no"?><!-- Generator: Gravit.io --><svg xmlns="http://www.w3.org/2000/svg" xmlns:xlink="http://www.w3.org/1999/xlink" style="isolation:isolate" viewBox="0 0 512 512" width="512pt" height="512pt"><defs><clipPath id="_clipPath_FrHey4ruOYdTPKBT8jaxPylltlhy0rnG"><rect width="512" height="512"/></clipPath></defs><g clip-path="url(#_clipPath_FrHey4ruOYdTPKBT8jaxPylltlhy0rnG)"><path d="M 477.714 383.995 L 256.005 512 L 34.286 383.995 L 34.286 127.985 L 256.005 0 L 477.714 127.985 L 477.714 383.995 Z" fill-rule="evenodd" fill="rgb(0,103,79)" /><path d=" M 193.891 185.598 L 230.403 185.598 L 239.058 145.709 L 293.276 128 L 280.851 185.598 L 326.015 185.598 L 318.115 222.493 L 272.942 222.493 L 254.493 307.201 C 253.367 311.723 252.242 318.486 252.242 326.006 C 252.242 337.672 260.148 344.832 271.427 344.832 C 280.481 344.832 289.506 342.956 295.9 340.323 L 287.254 379.475 C 278.594 381.346 268.816 384 260.148 384 C 225.894 384 201.79 370.434 201.79 333.146 C 201.79 318.104 204.804 303.428 208.184 288.009 L 222.497 222.493 L 185.985 222.493 L 193.891 185.598" fill="rgb(196,196,196)"/></g></svg>