<?xml version="1.0" encoding="UTF-8" standalone="no"?><!-- Generator: Gravit.io --><svg xmlns="http://www.w3.org/2000/svg" xmlns:xlink="http://www.w3.org/1999/xlink" style="isolation:isolate" viewBox="0 0 512 512" width="512pt" height="512pt"><defs><clipPath id="_clipPath_6PDvirM56kR4MYDMyah0pF6xYZFZdDGO"><rect width="512" height="512"/></clipPath></defs><g clip-path="url(#_clipPath_6PDvirM56kR4MYDMyah0pF6xYZFZdDGO)"><rect width="512" height="512" style="fill:rgb(27,27,29)"/><path d=" M 213.333 384 C 236.885 384 256 364.885 256 341.333 L 256 298.667 L 213.333 298.667 C 189.781 298.667 170.667 317.781 170.667 341.333 C 170.667 364.885 189.781 384 213.333 384 Z  M 170.667 256 C 170.667 232.448 189.781 213.333 213.333 213.333 L 256 213.333 L 256 298.667 L 213.333 298.667 C 189.781 298.667 170.667 279.552 170.667 256 Z  M 170.667 170.667 C 170.667 147.115 189.781 128 213.333 128 L 256 128 L 256 213.333 L 213.333 213.333 C 189.781 213.333 170.667 194.219 170.667 170.667 Z  M 256 128 L 298.667 128 C 322.219 128 341.333 147.115 341.333 170.667 C 341.333 194.219 322.219 213.333 298.667 213.333 L 256 213.333 L 256 128 Z  M 341.333 256 C 341.333 279.552 322.219 298.667 298.667 298.667 C 275.115 298.667 256 279.552 256 256 C 256 232.448 275.115 213.333 298.667 213.333 C 322.219 213.333 341.333 232.448 341.333 256 Z " fill-rule="evenodd" fill="rgb(85,0,0)"/></g></svg>