<?xml version="1.0" encoding="UTF-8" standalone="no"?><!-- Generator: Gravit.io --><svg xmlns="http://www.w3.org/2000/svg" xmlns:xlink="http://www.w3.org/1999/xlink" style="isolation:isolate" viewBox="0 0 512 512" width="512pt" height="512pt"><defs><clipPath id="_clipPath_zAOLHgwv9wTudDQW19X319gGecOju5Mb"><rect width="512" height="512"/></clipPath></defs><g clip-path="url(#_clipPath_zAOLHgwv9wTudDQW19X319gGecOju5Mb)"><rect width="512" height="512" style="fill:rgb(6,64,43)"/><path d=" M 256 137.881 C 185.307 137.881 128 183.066 128 238.804 C 128 274.84 151.958 306.46 187.998 324.314 C 186.037 331.076 175.398 367.815 174.975 370.701 C 174.975 370.701 174.72 372.869 176.124 373.696 C 177.529 374.524 179.18 373.881 179.18 373.881 C 183.207 373.319 225.879 343.344 233.265 338.14 C 240.644 339.184 248.241 339.727 256 339.727 C 326.693 339.727 384 294.543 384 238.804 C 384 183.066 326.693 137.881 256 137.881 Z  M 185.231 274.035 C 181.158 274.035 177.846 270.872 177.846 266.983 L 177.846 223.112 L 166.324 223.112 C 162.327 223.112 159.077 219.868 159.077 215.881 C 159.077 211.895 162.329 208.65 166.324 208.65 L 204.138 208.65 C 208.134 208.65 211.385 211.895 211.385 215.881 C 211.385 219.868 208.133 223.112 204.138 223.112 L 192.615 223.112 L 192.615 266.983 C 192.615 270.872 189.303 274.035 185.231 274.035 Z  M 249.984 273.939 C 246.905 273.939 244.549 272.688 243.839 270.677 L 240.182 261.104 L 217.664 261.103 L 214.005 270.682 C 213.297 272.69 210.943 273.939 207.863 273.939 C 206.244 273.941 204.643 273.593 203.169 272.92 C 201.134 271.981 199.177 269.399 201.419 262.434 L 219.083 215.94 C 220.327 212.404 224.107 208.761 228.917 208.652 C 233.74 208.76 237.52 212.404 238.767 215.948 L 256.423 262.42 C 258.671 269.401 256.714 271.984 254.678 272.921 C 253.205 273.593 251.604 273.94 249.984 273.939 C 249.983 273.939 249.984 273.939 249.984 273.939 L 249.984 273.939 Z  M 236.299 248.024 L 228.923 227.07 L 221.547 248.024 L 236.299 248.024 L 236.299 248.024 Z  M 268.308 272.958 C 264.405 272.958 261.231 269.92 261.231 266.189 L 261.231 216.035 C 261.231 211.962 264.613 208.65 268.769 208.65 C 272.926 208.65 276.308 211.962 276.308 216.035 L 276.308 259.42 L 292 259.42 C 295.903 259.42 299.077 262.457 299.077 266.189 C 299.077 269.92 295.903 272.958 292 272.958 L 268.308 272.958 Z  M 309.334 273.939 C 305.262 273.939 301.95 270.627 301.95 266.554 L 301.95 216.035 C 301.95 211.962 305.262 208.65 309.334 208.65 C 313.407 208.65 316.719 211.962 316.719 216.035 L 316.719 231.907 L 337.322 211.304 C 338.382 210.244 339.838 209.661 341.418 209.661 C 343.262 209.661 345.113 210.456 346.5 211.842 C 347.793 213.134 348.565 214.797 348.671 216.524 C 348.778 218.265 348.198 219.861 347.041 221.02 L 330.213 237.845 L 348.39 261.927 C 349.576 263.487 350.086 265.458 349.808 267.397 C 349.542 269.338 348.51 271.092 346.943 272.268 C 345.666 273.238 344.105 273.762 342.501 273.758 C 340.181 273.769 337.992 272.68 336.602 270.823 L 319.284 247.876 L 316.721 250.439 L 316.721 266.551 C 316.716 270.629 313.412 273.934 309.334 273.939 L 309.334 273.939 Z " fill-rule="evenodd" fill="rgb(255,255,255)"/></g></svg>