<svg xmlns="http://www.w3.org/2000/svg" width="512pt" height="512pt" style="isolation:isolate" viewBox="0 0 512 512"><defs><clipPath id="a"><path d="M0 0h512v512H0z"/></clipPath></defs><g clip-path="url(#a)"><path fill="#F05133" d="M502.347 233.196 278.789 9.667c-12.862-12.875-33.742-12.875-46.621 0l-46.42 46.422 58.882 58.882c13.689-4.622 29.378-1.523 40.285 9.386 10.962 10.976 14.038 26.8 9.301 40.534l56.751 56.752c13.73-4.732 29.572-1.675 40.534 9.308 15.328 15.322 15.328 40.152 0 55.478-15.329 15.332-40.158 15.332-55.497 0-11.525-11.533-14.376-28.468-8.539-42.668l-52.926-52.926-.004 139.276a39.555 39.555 0 0 1 10.377 7.42c15.323 15.321 15.323 40.145 0 55.492-15.328 15.321-40.168 15.321-55.48 0-15.324-15.346-15.324-40.17 0-55.492a39.232 39.232 0 0 1 12.847-8.56V188.4a38.737 38.737 0 0 1-12.849-8.561c-11.608-11.599-14.404-28.636-8.451-42.891l-58.045-58.055L9.659 232.164c-12.879 12.884-12.879 33.764 0 46.639l223.544 223.53c12.871 12.875 33.742 12.875 46.63 0l222.511-222.474c12.875-12.88 12.875-33.767 0-46.644"/></g></svg>