<svg width="57" height="57" viewBox="0 0 57 57" fill="none" xmlns="http://www.w3.org/2000/svg"><path d="M54 18H51V12H48V9H45V6H39V3H18V6H12V9H9V12H6V18H3V39H6V45H9V48H12V51H18V54H39V51H45V48H48V45H51V39H54V18Z" fill="#C81519"></path><path d="M12 6H9V9H12V6Z" fill="black"></path><path d="M9 9H6V12H9V9Z" fill="black"></path><path d="M6 12H3V18H6V12Z" fill="black"></path><path d="M18 3H12V6H18V3Z" fill="black"></path><path d="M39 0H18V3H39V0Z" fill="black"></path><path d="M48 6H45V9H48V6Z" fill="black"></path><path d="M51 9H48V12H51V9Z" fill="black"></path><path d="M54 12H51V18H54V12Z" fill="black"></path><path d="M45 3H39V6H45V3Z" fill="black"></path><path d="M48 48H45V51H48V48Z" fill="black"></path><path d="M51 45H48V48H51V45Z" fill="black"></path><path d="M54 39H51V45H54V39Z" fill="black"></path><path d="M57 18H54V39H57V18Z" fill="black"></path><path d="M45 51H39V54H45V51Z" fill="black"></path><path d="M12 48H9V51H12V48Z" fill="black"></path><path d="M9 45H6V48H9V45Z" fill="black"></path><path d="M6 39H3V45H6V39Z" fill="black"></path><path d="M3 18H0V39H3V18Z" fill="black"></path><path d="M18 51H12V54H18V51Z" fill="black"></path><path d="M39 54H18V57H39V54Z" fill="black"></path><path d="M48 45H45V48H48V45Z" fill="#9F1B1F"></path><path d="M51 39H48V45H51V39Z" fill="#9F1B1F"></path><path d="M54 36H51V39H54V36Z" fill="#9F1B1F"></path><path d="M45 48H39V51H45V48Z" fill="#9F1B1F"></path><path d="M12 45H9V48H12V45Z" fill="#9F1B1F"></path><path d="M9 39H6V45H9V39Z" fill="#9F1B1F"></path><path d="M6 36H3V39H6V36Z" fill="#9F1B1F"></path><path d="M18 48H12V51H18V48Z" fill="#9F1B1F"></path><path d="M39 51H18V54H39V51Z" fill="#9F1B1F"></path><path d="M12 9H9V12H12V9Z" fill="#FF7B82"></path><path d="M9 12H6V18H9V12Z" fill="#FF7B82"></path><path d="M6 18H3V21H6V18Z" fill="#FF7B82"></path><path d="M18 6H12V9H18V6Z" fill="#FF7B82"></path><path d="M39 3H18V6H39V3Z" fill="#FF7B82"></path><path d="M48 9H45V12H48V9Z" fill="#FF7B82"></path><path d="M51 12H48V18H51V12Z" fill="#FF7B82"></path><path d="M54 18H51V21H54V18Z" fill="#FF7B82"></path><path d="M45 6H39V9H45V6Z" fill="#FF7B82"></path></svg>
