<svg width="45" height="45" viewBox="0 0 45 45" fill="none" xmlns="http://www.w3.org/2000/svg">
<g clip-path="url(#clip0_42_435)">
<path d="M31.4615 1H14.5385V4.38462H7.76923V7.76923H4.38462V14.5385H1V31.4615H4.38462V38.2308H7.76923V41.6154H14.5385V45H31.4615V41.6154H38.2308V38.2308H41.6154V31.4615H45V14.5385H41.6154V7.76923H38.2308V4.38462H31.4615V1Z" fill="#FFC815"/>
<path d="M31.4615 1H14.5385V4.38462H31.4615V1Z" fill="#FFF2B4"/>
<path d="M14.5385 4.38452H7.76929V7.76914H14.5385V4.38452Z" fill="#FFF2B4"/>
<path d="M38.2308 4.38452H31.4615V7.76914H38.2308V4.38452Z" fill="#FFF2B4"/>
<path d="M7.76926 7.76929H4.38464V11.1539H7.76926V7.76929Z" fill="#FFF2B4"/>
<path d="M41.6155 7.76929H38.2308V11.1539H41.6155V7.76929Z" fill="#FFF2B4"/>
<path d="M14.5386 45H31.4617V41.6154H14.5386V45Z" fill="#FF7F0D"/>
<path d="M31.4617 41.6155H38.231V38.2309H31.4617V41.6155Z" fill="#FF7F0D"/>
<path d="M7.76934 41.6155H14.5386V38.2309H7.76934V41.6155Z" fill="#FF7F0D"/>
<path d="M38.231 38.2307H41.6156V34.8461H38.231V38.2307Z" fill="#FF7F0D"/>
<path d="M4.38479 38.2307H7.76941V34.8461H4.38479V38.2307Z" fill="#FF7F0D"/>
<g clip-path="url(#clip1_42_435)">
<path d="M16 36V9H20V12H24V15H28V18H31V21H34V24H31V27H28V30H24V33H20V36H16Z" fill="black"/>
</g>
</g>
<defs>
<clipPath id="clip0_42_435">
<rect width="45" height="45" fill="white"/>
</clipPath>
<clipPath id="clip1_42_435">
<rect width="45" height="33" fill="white" transform="translate(39) rotate(90)"/>
</clipPath>
</defs>
</svg>
