<svg width="334" height="60" viewBox="0 0 334 60" fill="none" xmlns="http://www.w3.org/2000/svg">
<path d="M28 0L58 30V0H28Z" fill="#FFC815"/>
<path d="M28 60L58 30V60H28Z" fill="#FFC815"/>
<rect x="32" y="4" width="4" height="4" fill="#FFC815"/>
<rect x="28" width="4" height="4" fill="#FFC815"/>
<rect x="44" y="16" width="4" height="4" fill="#FFC815"/>
<rect x="36" y="8" width="4" height="4" fill="#FFC815"/>
<rect x="48" y="20" width="4" height="4" fill="#FFC815"/>
<rect x="40" y="12" width="4" height="4" fill="#FFC815"/>
<rect x="52" y="24" width="4" height="4" fill="#FFC815"/>
<rect x="56" y="28" width="4" height="4" fill="#FFC815"/>
<rect width="4" height="4" transform="matrix(1 0 0 -1 32 56)" fill="#FFC815"/>
<rect width="4" height="4" transform="matrix(1 0 0 -1 28 60)" fill="#FFC815"/>
<rect width="4" height="4" transform="matrix(1 0 0 -1 44 44)" fill="#FFC815"/>
<rect width="4" height="4" transform="matrix(1 0 0 -1 36 52)" fill="#FFC815"/>
<rect width="4" height="4" transform="matrix(1 0 0 -1 48 40)" fill="#FFC815"/>
<rect width="4" height="4" transform="matrix(1 0 0 -1 40 48)" fill="#FFC815"/>
<rect width="4" height="4" transform="matrix(1 0 0 -1 52 36)" fill="#FFC815"/>
<rect x="18" y="4" width="4" height="4" fill="#FFC815"/>
<rect x="14" width="4" height="4" fill="#FFC815"/>
<rect x="30" y="16" width="4" height="4" fill="#FFC815"/>
<rect x="22" y="8" width="4" height="4" fill="#FFC815"/>
<rect x="34" y="20" width="4" height="4" fill="#FFC815"/>
<rect x="26" y="12" width="4" height="4" fill="#FFC815"/>
<rect x="38" y="24" width="4" height="4" fill="#FFC815"/>
<rect x="42" y="28" width="4" height="4" fill="#FFC815"/>
<rect width="4" height="4" transform="matrix(1 0 0 -1 18 56)" fill="#FFC815"/>
<rect width="4" height="4" transform="matrix(1 0 0 -1 14 60)" fill="#FFC815"/>
<rect width="4" height="4" transform="matrix(1 0 0 -1 30 44)" fill="#FFC815"/>
<rect width="4" height="4" transform="matrix(1 0 0 -1 22 52)" fill="#FFC815"/>
<rect width="4" height="4" transform="matrix(1 0 0 -1 34 40)" fill="#FFC815"/>
<rect width="4" height="4" transform="matrix(1 0 0 -1 26 48)" fill="#FFC815"/>
<rect width="4" height="4" transform="matrix(1 0 0 -1 38 36)" fill="#FFC815"/>
<rect x="4" y="4" width="4" height="4" fill="#FFC815"/>
<rect width="4" height="4" fill="#FFC815"/>
<rect x="16" y="16" width="4" height="4" fill="#FFC815"/>
<rect x="8" y="8" width="4" height="4" fill="#FFC815"/>
<rect x="20" y="20" width="4" height="4" fill="#FFC815"/>
<rect x="12" y="12" width="4" height="4" fill="#FFC815"/>
<rect x="24" y="24" width="4" height="4" fill="#FFC815"/>
<rect x="28" y="28" width="4" height="4" fill="#FFC815"/>
<rect width="4" height="4" transform="matrix(1 0 0 -1 4 56)" fill="#FFC815"/>
<rect width="4" height="4" transform="matrix(1 0 0 -1 0 60)" fill="#FFC815"/>
<rect width="4" height="4" transform="matrix(1 0 0 -1 16 44)" fill="#FFC815"/>
<rect width="4" height="4" transform="matrix(1 0 0 -1 8 52)" fill="#FFC815"/>
<rect width="4" height="4" transform="matrix(1 0 0 -1 20 40)" fill="#FFC815"/>
<rect width="4" height="4" transform="matrix(1 0 0 -1 12 48)" fill="#FFC815"/>
<rect width="4" height="4" transform="matrix(1 0 0 -1 24 36)" fill="#FFC815"/>
<path d="M306 0L276 30V0H306Z" fill="#FFC815"/>
<path d="M306 60L276 30V60H306Z" fill="#FFC815"/>
<rect width="4" height="4" transform="matrix(-1 0 0 1 302 4)" fill="#FFC815"/>
<rect width="4" height="4" transform="matrix(-1 0 0 1 306 0)" fill="#FFC815"/>
<rect width="4" height="4" transform="matrix(-1 0 0 1 290 16)" fill="#FFC815"/>
<rect width="4" height="4" transform="matrix(-1 0 0 1 298 8)" fill="#FFC815"/>
<rect width="4" height="4" transform="matrix(-1 0 0 1 286 20)" fill="#FFC815"/>
<rect width="4" height="4" transform="matrix(-1 0 0 1 294 12)" fill="#FFC815"/>
<rect width="4" height="4" transform="matrix(-1 0 0 1 282 24)" fill="#FFC815"/>
<rect width="4" height="4" transform="matrix(-1 0 0 1 278 28)" fill="#FFC815"/>
<rect x="302" y="56" width="4" height="4" transform="rotate(180 302 56)" fill="#FFC815"/>
<rect x="306" y="60" width="4" height="4" transform="rotate(180 306 60)" fill="#FFC815"/>
<rect x="290" y="44" width="4" height="4" transform="rotate(180 290 44)" fill="#FFC815"/>
<rect x="298" y="52" width="4" height="4" transform="rotate(180 298 52)" fill="#FFC815"/>
<rect x="286" y="40" width="4" height="4" transform="rotate(180 286 40)" fill="#FFC815"/>
<rect x="294" y="48" width="4" height="4" transform="rotate(180 294 48)" fill="#FFC815"/>
<rect x="282" y="36" width="4" height="4" transform="rotate(180 282 36)" fill="#FFC815"/>
<rect width="4" height="4" transform="matrix(-1 0 0 1 316 4)" fill="#FFC815"/>
<rect width="4" height="4" transform="matrix(-1 0 0 1 320 0)" fill="#FFC815"/>
<rect width="4" height="4" transform="matrix(-1 0 0 1 304 16)" fill="#FFC815"/>
<rect width="4" height="4" transform="matrix(-1 0 0 1 312 8)" fill="#FFC815"/>
<rect width="4" height="4" transform="matrix(-1 0 0 1 300 20)" fill="#FFC815"/>
<rect width="4" height="4" transform="matrix(-1 0 0 1 308 12)" fill="#FFC815"/>
<rect width="4" height="4" transform="matrix(-1 0 0 1 296 24)" fill="#FFC815"/>
<rect width="4" height="4" transform="matrix(-1 0 0 1 292 28)" fill="#FFC815"/>
<rect x="316" y="56" width="4" height="4" transform="rotate(180 316 56)" fill="#FFC815"/>
<rect x="320" y="60" width="4" height="4" transform="rotate(180 320 60)" fill="#FFC815"/>
<rect x="304" y="44" width="4" height="4" transform="rotate(180 304 44)" fill="#FFC815"/>
<rect x="312" y="52" width="4" height="4" transform="rotate(180 312 52)" fill="#FFC815"/>
<rect x="300" y="40" width="4" height="4" transform="rotate(180 300 40)" fill="#FFC815"/>
<rect x="308" y="48" width="4" height="4" transform="rotate(180 308 48)" fill="#FFC815"/>
<rect x="296" y="36" width="4" height="4" transform="rotate(180 296 36)" fill="#FFC815"/>
<rect width="4" height="4" transform="matrix(-1 0 0 1 330 4)" fill="#FFC815"/>
<rect width="4" height="4" transform="matrix(-1 0 0 1 334 0)" fill="#FFC815"/>
<rect width="4" height="4" transform="matrix(-1 0 0 1 318 16)" fill="#FFC815"/>
<rect width="4" height="4" transform="matrix(-1 0 0 1 326 8)" fill="#FFC815"/>
<rect width="4" height="4" transform="matrix(-1 0 0 1 314 20)" fill="#FFC815"/>
<rect width="4" height="4" transform="matrix(-1 0 0 1 322 12)" fill="#FFC815"/>
<rect width="4" height="4" transform="matrix(-1 0 0 1 310 24)" fill="#FFC815"/>
<rect width="4" height="4" transform="matrix(-1 0 0 1 306 28)" fill="#FFC815"/>
<rect x="330" y="56" width="4" height="4" transform="rotate(180 330 56)" fill="#FFC815"/>
<rect x="334" y="60" width="4" height="4" transform="rotate(180 334 60)" fill="#FFC815"/>
<rect x="318" y="44" width="4" height="4" transform="rotate(180 318 44)" fill="#FFC815"/>
<rect x="326" y="52" width="4" height="4" transform="rotate(180 326 52)" fill="#FFC815"/>
<rect x="314" y="40" width="4" height="4" transform="rotate(180 314 40)" fill="#FFC815"/>
<rect x="322" y="48" width="4" height="4" transform="rotate(180 322 48)" fill="#FFC815"/>
<rect x="310" y="36" width="4" height="4" transform="rotate(180 310 36)" fill="#FFC815"/>
<rect width="220" height="60" transform="translate(57)" fill="#FFC815"/>
<path d="M83.125 25.625V17.375H80.375V16H88.625V17.375H85.875V25.625H83.125ZM90 25.625V16H92.75V18.75H98.25V20.125H99.625V25.625H96.875V20.125H92.75V25.625H90ZM102.375 25.625V24.25H101V20.125H102.375V18.75H109.25V20.125H110.625V22.875H103.75V24.25H109.25V25.625H102.375ZM103.75 21.5H107.875V20.125H103.75V21.5ZM127.125 20.125H128.5V21.5H127.125V25.625H124.375V18.75H127.125V20.125ZM132.625 18.75V20.125H128.5V18.75H132.625ZM138.125 17.375V16H140.875V17.375H138.125ZM135.375 25.625V24.25H138.125V20.125H136.75V18.75H140.875V24.25H143.625V25.625H135.375ZM146.375 27V25.625H151.875V24.25H146.375V22.875H145V20.125H146.375V18.75H154.625V25.625H153.25V27H146.375ZM147.75 22.875H151.875V20.125H147.75V22.875ZM156 25.625V16H158.75V18.75H164.25V20.125H165.625V25.625H162.875V20.125H158.75V25.625H156ZM171.125 25.625V20.125H168.375V18.75H171.125V16H173.875V18.75H176.625V20.125H173.875V25.625H171.125ZM190.375 25.625V24.25H193.125V17.375H191.75V16H195.875V24.25H198.625V25.625H190.375ZM204.125 17.375V16H206.875V17.375H204.125ZM201.375 25.625V24.25H204.125V20.125H202.75V18.75H206.875V24.25H209.625V25.625H201.375ZM211 25.625V18.75H219.25V20.125H220.625V25.625H217.875V20.125H213.75V25.625H211ZM223.375 25.625V24.25H222V20.125H223.375V18.75H230.25V20.125H231.625V22.875H224.75V24.25H230.25V25.625H223.375ZM224.75 21.5H228.875V20.125H224.75V21.5ZM234.375 25.625V24.25H233V18.75H235.75V24.25H239.875V18.75H242.625V25.625H234.375ZM244 27V18.75H252.25V20.125H253.625V22.875H252.25V24.25H246.75V27H244ZM246.75 22.875H250.875V20.125H246.75V22.875ZM99.625 43.625V38.125H96.875V36.75H99.625V34H102.375V36.75H105.125V38.125H102.375V43.625H99.625ZM107.875 43.625V42.25H106.5V38.125H107.875V36.75H114.75V38.125H116.125V42.25H114.75V43.625H107.875ZM109.25 42.25H113.375V38.125H109.25V42.25ZM128.5 43.625V42.25H135.375V40.875H129.875V39.5H128.5V38.125H129.875V36.75H136.75V38.125H131.25V39.5H136.75V40.875H138.125V42.25H136.75V43.625H128.5ZM143.625 43.625V38.125H140.875V36.75H143.625V34H146.375V36.75H149.125V38.125H146.375V43.625H143.625ZM151.875 43.625V42.25H150.5V40.875H151.875V39.5H157.375V38.125H151.875V36.75H158.75V38.125H160.125V43.625H151.875ZM153.25 42.25H157.375V40.875H153.25V42.25ZM165.625 38.125H167V39.5H165.625V43.625H162.875V36.75H165.625V38.125ZM171.125 36.75V38.125H167V36.75H171.125ZM176.625 43.625V38.125H173.875V36.75H176.625V34H179.375V36.75H182.125V38.125H179.375V43.625H176.625ZM195.875 45V43.625H201.375V42.25H195.875V40.875H194.5V38.125H195.875V36.75H204.125V43.625H202.75V45H195.875ZM197.25 40.875H201.375V38.125H197.25V40.875ZM206.875 43.625V42.25H205.5V40.875H206.875V39.5H212.375V38.125H206.875V36.75H213.75V38.125H215.125V43.625H206.875ZM208.25 42.25H212.375V40.875H208.25V42.25ZM216.5 43.625V36.75H224.75V38.125H226.125V43.625H223.375V38.125H222V43.625H219.25V38.125H217.875V43.625H216.5ZM228.875 43.625V42.25H227.5V38.125H228.875V36.75H235.75V38.125H237.125V40.875H230.25V42.25H235.75V43.625H228.875ZM230.25 39.5H234.375V38.125H230.25V39.5Z" fill="#C81519"/>
</svg>
