<?xml version="1.0" encoding="UTF-8" standalone="no"?><!-- Generator: Gravit.io --><svg xmlns="http://www.w3.org/2000/svg" xmlns:xlink="http://www.w3.org/1999/xlink" style="isolation:isolate" viewBox="0 0 512 512" width="512pt" height="512pt"><defs><clipPath id="_clipPath_M9vpfitrnUtFZBLa5uABZX9UvP38TzfA"><rect width="512" height="512"/></clipPath></defs><g clip-path="url(#_clipPath_M9vpfitrnUtFZBLa5uABZX9UvP38TzfA)"><path d="M 477.714 383.995 L 256.005 512 L 34.286 383.995 L 34.286 127.985 L 256.005 0 L 477.714 127.985 L 477.714 383.995 Z" fill-rule="evenodd" fill="rgb(27,27,29)" /><path d=" M 202.937 283.225 C 192.466 283.225 183.946 291.745 183.946 302.216 C 183.946 312.688 192.466 321.207 202.937 321.207 C 213.409 321.207 221.928 312.688 221.928 302.216 C 221.928 291.745 213.409 283.225 202.937 283.225 Z  M 149.864 283.225 C 139.392 283.225 130.873 291.745 130.873 302.216 C 130.873 312.688 139.392 321.207 149.864 321.207 C 160.335 321.207 168.855 312.688 168.855 302.216 C 168.855 291.745 160.335 283.225 149.864 283.225 Z  M 256.011 283.225 C 245.539 283.225 237.02 291.745 237.02 302.216 C 237.02 312.688 245.539 321.207 256.011 321.207 C 266.482 321.207 275.002 312.688 275.002 302.216 C 275.002 291.745 266.482 283.225 256.011 283.225 Z  M 362.158 283.225 C 351.686 283.225 343.167 291.745 343.167 302.216 C 343.167 312.688 351.686 321.207 362.158 321.207 C 372.629 321.207 381.149 312.688 381.149 302.216 C 381.149 291.745 372.629 283.225 362.158 283.225 Z  M 309.084 283.225 C 298.613 283.225 290.089 291.745 290.089 302.216 C 290.089 312.688 298.608 321.207 309.08 321.207 C 319.551 321.207 328.071 312.688 328.071 302.216 C 328.075 291.745 319.56 283.225 309.084 283.225 Z  M 165.697 229.41 C 165.697 220.528 158.997 213.828 150.115 213.828 C 141.233 213.828 134.534 220.528 134.534 229.41 C 134.534 238.288 141.233 244.991 150.115 244.991 C 158.993 244.991 165.697 238.288 165.697 229.41 Z  M 128 229.41 C 128 217.097 137.883 207.798 150.115 207.798 C 162.428 207.798 172.23 217.012 172.23 229.325 L 172.23 248.256 C 172.23 250.182 170.888 251.521 168.88 251.521 C 166.788 251.521 165.53 250.182 165.53 248.256 L 165.53 242.728 L 165.194 242.728 C 162.598 247.169 157.403 251.022 149.697 251.022 C 137.802 251.022 128 241.808 128 229.41 Z  M 218.638 229.41 C 218.638 220.528 211.938 213.828 203.056 213.828 C 194.175 213.828 187.475 220.528 187.475 229.41 C 187.475 238.288 194.175 244.991 203.056 244.991 C 211.938 244.991 218.638 238.288 218.638 229.41 Z  M 189.487 265.01 C 187.726 264.17 186.891 262.661 187.56 260.905 C 188.229 259.06 189.904 258.31 191.664 259.145 C 194.682 260.569 198.449 261.575 202.468 261.575 C 212.437 261.575 218.468 255.625 218.468 245.49 L 218.468 242.724 L 218.131 242.724 C 215.535 247.165 210.34 251.018 202.635 251.018 C 190.74 251.018 180.941 241.804 180.941 229.406 C 180.941 217.093 190.825 207.794 203.056 207.794 C 215.369 207.794 225.171 217.008 225.171 229.32 L 225.171 245.068 C 225.171 258.638 216.46 267.767 202.221 267.767 C 197.865 267.771 193.51 266.936 189.487 265.01 Z  M 271.579 229.41 C 271.579 220.528 264.88 213.828 255.998 213.828 C 247.116 213.828 240.416 220.528 240.416 229.41 C 240.416 238.288 247.116 244.991 255.998 244.991 C 264.88 244.991 271.579 238.288 271.579 229.41 Z  M 233.887 229.41 C 233.887 217.097 243.689 207.798 256.002 207.798 C 268.315 207.798 278.117 217.093 278.117 229.41 C 278.117 241.723 268.315 251.022 256.002 251.022 C 243.685 251.022 233.887 241.723 233.887 229.41 Z  M 324.521 229.41 C 324.521 220.528 317.821 213.828 308.939 213.828 C 300.057 213.828 293.358 220.528 293.358 229.41 C 293.358 238.288 300.057 244.991 308.939 244.991 C 317.821 244.991 324.521 238.288 324.521 229.41 Z  M 286.829 229.41 C 286.829 217.097 296.546 207.798 308.526 207.798 C 316.231 207.798 321.427 211.651 324.022 216.091 L 324.359 216.091 L 324.359 194.062 C 324.359 192.135 325.701 190.793 327.709 190.793 C 329.801 190.793 331.059 192.135 331.059 194.062 L 331.059 229.491 C 331.059 241.804 321.256 251.018 308.944 251.018 C 296.712 251.022 286.829 241.723 286.829 229.41 Z  M 377.466 229.41 C 377.466 220.528 370.767 213.828 361.885 213.828 C 353.003 213.828 346.303 220.528 346.303 229.41 C 346.303 238.288 353.003 244.991 361.885 244.991 C 370.763 244.991 377.466 238.288 377.466 229.41 Z  M 339.77 229.41 C 339.77 217.097 349.653 207.798 361.885 207.798 C 374.198 207.798 384 217.012 384 229.325 L 384 248.256 C 384 250.182 382.657 251.521 380.65 251.521 C 378.558 251.521 377.3 250.182 377.3 248.256 L 377.3 242.728 L 376.964 242.728 C 374.368 247.169 369.173 251.022 361.467 251.022 C 349.572 251.022 339.77 241.808 339.77 229.41 Z " fill-rule="evenodd" fill="rgb(255,255,255)"/></g></svg>