<?xml version="1.0" encoding="UTF-8" standalone="no"?><!-- Generator: Gravit.io --><svg xmlns="http://www.w3.org/2000/svg" xmlns:xlink="http://www.w3.org/1999/xlink" style="isolation:isolate" viewBox="0 0 512 512" width="512pt" height="512pt"><defs><clipPath id="_clipPath_QXK5YUcMBRsoRmA8ZceD1RC5BPooKM5l"><rect width="512" height="512"/></clipPath></defs><g clip-path="url(#_clipPath_QXK5YUcMBRsoRmA8ZceD1RC5BPooKM5l)"><path d="M 477.714 383.995 L 256.005 512 L 34.286 383.995 L 34.286 127.985 L 256.005 0 L 477.714 127.985 L 477.714 383.995 Z" fill-rule="evenodd" fill="rgb(27,27,29)" /><path d=" M 408.49 256 C 408.49 340.218 340.218 408.49 256 408.49 C 171.783 408.49 103.51 340.218 103.51 256 C 103.51 171.781 171.783 103.51 256 103.51 C 340.218 103.51 408.49 171.781 408.49 256 Z " fill="rgb(27,27,29)"/><path d=" M 255.999 103.51 C 171.782 103.51 103.509 171.782 103.509 256 C 103.509 320.602 143.703 375.829 200.428 398.047 C 199.096 385.982 197.891 367.427 200.957 354.256 C 203.728 342.355 218.838 278.459 218.838 278.459 C 218.838 278.459 214.277 269.324 214.277 255.819 C 214.277 234.615 226.567 218.785 241.869 218.785 C 254.879 218.785 261.163 228.552 261.163 240.265 C 261.163 253.349 252.833 272.91 248.534 291.037 C 244.942 306.215 256.146 318.592 271.116 318.592 C 298.218 318.592 319.052 290.015 319.052 248.764 C 319.052 212.252 292.817 186.725 255.356 186.725 C 211.967 186.725 186.499 219.269 186.499 252.901 C 186.499 266.007 191.548 280.061 197.848 287.701 C 199.094 289.211 199.277 290.534 198.906 292.075 C 197.748 296.891 195.176 307.249 194.671 309.369 C 194.006 312.16 192.461 312.752 189.571 311.407 C 170.526 302.542 158.618 274.697 158.618 252.332 C 158.618 204.23 193.568 160.054 259.374 160.054 C 312.273 160.054 353.382 197.749 353.382 248.125 C 353.382 300.679 320.246 342.974 274.253 342.974 C 258.801 342.974 244.274 334.946 239.302 325.464 C 239.302 325.464 231.656 354.579 229.802 361.714 C 226.359 374.959 217.066 391.561 210.849 401.69 C 225.117 406.107 240.279 408.49 255.999 408.49 C 340.218 408.49 408.491 340.217 408.491 256 C 408.491 171.782 340.218 103.51 255.999 103.51 Z " fill="rgb(0,0,128)"/></g></svg>