<?xml version="1.0" encoding="UTF-8" standalone="no"?><!-- Generator: Gravit.io --><svg xmlns="http://www.w3.org/2000/svg" xmlns:xlink="http://www.w3.org/1999/xlink" style="isolation:isolate" viewBox="0 0 512 512" width="512pt" height="512pt"><defs><clipPath id="_clipPath_bMYsZoa8uEuKN8lDCk3xCX6812ebR0J6"><rect width="512" height="512"/></clipPath></defs><g clip-path="url(#_clipPath_bMYsZoa8uEuKN8lDCk3xCX6812ebR0J6)"><path d=" M 54.604 272.069 C 54.604 275.456 53.888 278.604 52.455 281.514 C 51.023 284.384 48.993 286.854 46.445 288.848 C 43.858 290.88 40.794 292.435 37.251 293.55 C 33.709 294.666 29.809 295.224 25.59 295.224 C 20.534 295.224 15.998 294.546 12.02 293.151 C 8.04 291.796 4.021 289.485 0 286.295 L 6.648 275.493 C 9.831 278.164 12.696 280.115 15.285 281.353 C 17.832 282.588 20.458 283.186 23.166 283.186 C 26.469 283.186 29.095 282.349 31.127 280.635 C 33.157 278.922 34.112 276.65 34.112 273.741 C 34.112 272.506 33.913 271.35 33.554 270.274 C 33.196 269.198 32.52 268.082 31.565 266.926 C 30.609 265.811 29.257 264.535 27.545 263.22 C 25.874 261.905 23.685 260.231 20.978 258.278 C 18.948 256.843 16.919 255.329 14.968 253.812 C 13.018 252.258 11.267 250.624 9.634 248.87 C 8.042 247.116 6.769 245.164 5.773 242.973 C 4.818 240.821 4.301 238.309 4.301 235.559 C 4.301 232.37 4.978 229.421 6.291 226.789 C 7.604 224.157 9.435 221.926 11.743 220.055 C 14.051 218.182 16.799 216.747 20.059 215.712 C 23.283 214.676 26.783 214.158 30.605 214.158 C 34.625 214.158 38.486 214.676 42.224 215.752 C 45.965 216.828 49.429 218.383 52.652 220.454 L 46.642 230.179 C 42.543 227.309 38.203 225.836 33.667 225.836 C 30.921 225.836 28.612 226.553 26.821 227.988 C 25.03 229.423 24.115 231.216 24.115 233.408 C 24.115 235.481 24.911 237.354 26.503 238.988 C 28.094 240.662 30.84 242.934 34.743 245.963 C 38.683 248.833 41.948 251.383 44.495 253.533 C 47.081 255.685 49.111 257.758 50.623 259.671 C 52.135 261.584 53.13 263.497 53.727 265.488 C 54.324 267.521 54.602 269.673 54.602 272.066 L 54.604 272.069 Z  M 122.855 253.857 C 122.855 256.846 122.537 260.076 121.9 263.54 C 121.303 267.007 120.229 270.197 118.717 273.146 C 117.204 276.095 115.254 278.528 112.825 280.399 C 110.397 282.312 107.292 283.268 103.592 283.268 C 97.384 283.268 92.489 280.798 88.908 275.817 C 85.326 270.874 83.535 264.06 83.535 255.413 C 83.535 246.524 85.326 239.512 88.988 234.29 C 92.609 229.069 97.544 226.48 103.753 226.48 C 109.645 226.48 114.299 228.95 117.72 233.813 C 121.143 238.713 122.856 245.409 122.856 253.858 L 122.855 253.857 Z  M 144.424 253.1 C 144.424 247.321 143.589 242.061 141.957 237.36 C 140.285 232.615 137.977 228.552 134.912 225.126 C 131.848 221.698 128.265 219.068 124.088 217.154 C 119.911 215.24 115.294 214.285 110.239 214.285 C 104.668 214.285 99.773 215.361 95.554 217.433 C 91.336 219.546 87.394 222.853 83.813 227.395 L 83.694 216.115 L 63.835 216.115 L 63.835 332.033 L 83.656 332.033 L 83.656 283.072 C 85.606 285.344 87.476 287.257 89.307 288.809 C 91.097 290.363 92.928 291.639 94.797 292.595 C 96.667 293.552 98.617 294.269 100.685 294.668 C 102.754 295.066 104.984 295.265 107.332 295.265 C 112.586 295.265 117.519 294.189 122.055 292.117 C 126.591 290.005 130.532 287.056 133.834 283.229 C 137.137 279.401 139.726 274.94 141.597 269.88 C 143.507 264.776 144.423 259.158 144.423 253.1 L 144.424 253.1 Z  M 153.26 293.392 L 173.634 293.392 L 173.634 179.967 L 153.26 179.967 L 153.26 293.392 Z  M 260.536 293.432 L 260.536 216.041 L 240.162 216.041 L 240.162 257.685 C 240.162 261.391 240.002 264.262 239.684 266.294 C 239.366 268.327 238.848 270.12 238.132 271.794 C 235.267 278.169 229.972 281.401 222.294 281.401 C 216.284 281.401 212.107 279.249 209.716 274.904 C 208.762 273.27 208.125 271.397 207.766 269.323 C 207.408 267.251 207.209 264.262 207.209 260.317 L 207.209 216.045 L 186.835 216.045 L 186.835 260.021 C 186.835 263.01 186.875 265.559 186.915 267.591 C 186.955 269.624 187.114 271.497 187.313 273.091 C 187.512 274.686 187.751 276.12 188.029 277.358 C 188.268 278.593 188.666 279.789 189.184 280.905 C 191.054 285.649 194.041 289.235 198.218 291.664 C 202.396 294.095 207.53 295.291 213.578 295.291 C 219.031 295.291 223.846 294.334 227.985 292.421 C 232.124 290.509 236.144 287.399 240.043 283.056 L 240.082 293.418 L 260.536 293.458 L 260.536 293.432 Z  M 348.341 293.392 L 348.341 249.501 C 348.341 246.511 348.301 243.962 348.261 241.85 C 348.222 239.738 348.103 237.905 347.863 236.35 C 347.665 234.795 347.386 233.441 347.107 232.285 C 346.789 231.089 346.431 229.933 346.033 228.817 C 344.162 224.196 341.176 220.609 336.999 218.096 C 332.822 215.582 327.686 214.31 321.596 214.31 C 316.144 214.31 311.329 215.266 307.19 217.179 C 303.051 219.092 299.03 222.24 295.132 226.545 L 295.092 216.182 L 274.596 216.182 L 274.596 293.405 L 295.13 293.405 L 295.13 251.718 C 295.13 248.131 295.25 245.301 295.528 243.307 C 295.767 241.314 296.285 239.441 297.001 237.646 C 298.314 234.538 300.383 232.226 303.129 230.634 C 305.875 229.041 309.139 228.243 312.957 228.243 C 318.967 228.243 323.144 230.395 325.535 234.74 C 326.45 236.374 327.087 238.247 327.445 240.278 C 327.803 242.311 328.002 245.339 328.002 249.247 L 328.002 293.307 L 348.338 293.347 L 348.341 293.392 Z  M 432.641 288.289 L 401.603 249.669 L 427.827 221.535 L 412.386 214.881 L 385.085 246.565 L 382.936 246.565 L 382.936 179.988 L 362.402 179.988 L 362.402 293.413 L 382.936 293.413 L 382.936 252.327 L 413.658 294.951 L 432.638 288.293 L 432.641 288.289 Z  M 512 260.552 L 512 247.916 L 450.253 216.909 L 450.253 230.816 L 498.105 254.13 L 450.253 277.762 L 450.253 291.352 L 512 260.547 L 512 260.552 Z  M 456.25 196.847 C 452.47 196.847 449.404 199.956 449.404 203.784 C 449.404 207.689 452.47 210.758 456.25 210.758 C 460.073 210.758 463.097 207.69 463.097 203.784 C 463.097 199.918 460.073 196.847 456.25 196.847 Z  M 456.293 197.923 C 459.355 197.923 461.821 200.553 461.821 203.821 C 461.821 207.089 459.355 209.718 456.293 209.68 C 453.188 209.68 450.718 207.089 450.718 203.783 C 450.718 200.554 453.188 197.923 456.293 197.923 Z  M 454.979 204.501 L 455.811 204.501 C 456.808 204.501 457.285 204.859 457.484 205.856 C 457.644 206.892 457.843 207.57 458.003 207.809 L 459.317 207.809 C 459.194 207.57 458.996 207.092 458.839 205.896 C 458.679 204.74 458.24 204.142 457.526 204.023 L 457.526 203.943 C 458.362 203.704 459.038 203.067 459.038 202.07 C 459.038 201.353 458.797 200.795 458.32 200.476 C 457.843 200.117 457.087 199.878 455.934 199.878 C 455.017 199.878 454.379 199.958 453.746 200.077 L 453.746 207.808 L 454.979 207.808 L 454.979 204.5 L 454.979 204.501 Z  M 454.979 200.914 C 455.178 200.874 455.456 200.834 455.853 200.834 C 457.247 200.834 457.724 201.512 457.724 202.189 C 457.724 203.146 456.846 203.504 455.853 203.504 L 454.979 203.504 L 454.979 200.914 L 454.979 200.914 Z " fill="rgb(12,23,36)"/></g></svg>