<?xml version="1.0" encoding="UTF-8" standalone="no"?><!-- Generator: Gravit.io --><svg xmlns="http://www.w3.org/2000/svg" xmlns:xlink="http://www.w3.org/1999/xlink" style="isolation:isolate" viewBox="0 0 512 512" width="512pt" height="512pt"><defs><clipPath id="_clipPath_ULuRiHL5jV46M5QQ3FZeHxP7zXTlisBv"><rect width="512" height="512"/></clipPath></defs><g clip-path="url(#_clipPath_ULuRiHL5jV46M5QQ3FZeHxP7zXTlisBv)"><circle vector-effect="non-scaling-stroke" cx="256" cy="256" r="256" fill="rgb(237,29,36)" /><path d=" M 299.727 173.484 C 277.14 173.781 254.458 180.244 239.148 185.94 C 186.309 205.318 155.096 236.401 137.052 270.793 C 117.634 304.888 128.715 337.477 177.495 338.523 C 210.265 337.205 232.129 329.016 253.244 318.241 C 254.388 317.656 253.747 315.914 252.496 316.227 C 232.971 321.067 187.571 330.336 166.498 318.976 C 163.691 317.478 160.565 315.354 159.215 309.583 C 157.758 297.409 176.645 284.802 187.527 280.753 L 185.273 259.663 C 193.957 262.915 203.226 264.691 212.717 264.691 C 230.711 264.691 246.514 258.281 258.236 247.629 C 258.96 249.341 259.543 251.268 259.864 253.441 L 264.976 253.441 C 265.042 248.033 261.564 243.734 261.564 243.734 C 256.197 236.458 248.203 236.584 248.203 236.584 C 248.203 236.584 251.997 238.381 255.306 242.637 C 228.199 266.608 194.292 254.816 194.292 254.816 L 208.243 239.297 L 202.347 227.275 C 234.582 215.562 261.747 206.553 306.733 198.601 L 295.543 190.028 L 300.547 186.724 C 328.971 194.511 347.659 200.241 348.309 214.843 C 348.103 217.272 347.584 220.089 346.44 223.332 C 340.11 239.252 318.994 265.842 310.507 276.954 C 304.901 284.313 299.417 291.527 295.688 298.442 C 291.819 305.348 289.683 311.794 290.201 317.952 C 289.913 354.047 354.427 323.861 383.567 304.435 C 384.505 303.809 383.781 302.368 382.711 302.722 C 300.872 329.919 320.166 299.575 320.166 299.575 C 337.469 275.218 367.453 238.811 366.071 214.783 C 364.803 183.396 332.143 173.172 299.727 173.484 L 299.727 173.484 Z " fill="rgb(239,191,4)"/></g></svg>