<?xml version="1.0" encoding="UTF-8" standalone="no"?>
<!-- Generator: Gravit.io --><svg xmlns="http://www.w3.org/2000/svg" xmlns:xlink="http://www.w3.org/1999/xlink"
  style="isolation:isolate" viewBox="0 0 512 512" width="512pt" height="512pt">
  <defs>
    <clipPath id="_clipPath_JCOtQ9dfLGil8acesEUwehDaorrX2H3v">
      <rect width="512" height="512" />
    </clipPath>
  </defs>
  <g clip-path="url(#_clipPath_JCOtQ9dfLGil8acesEUwehDaorrX2H3v)">
    <rect x="0" y="0" width="512" height="512" transform="matrix(1,0,0,1,0,0)" fill="rgb(237,29,36)" />
    <path
      d=" M 255.998 128.005 C 185.307 128.005 128 185.312 128 256.003 C 128 324.648 182.042 380.672 249.902 383.851 C 251.927 383.947 253.955 384.001 255.999 384.001 C 288.77 384.001 318.657 371.678 341.302 351.427 C 326.299 361.377 308.757 367.103 290.01 367.103 C 259.529 367.103 232.23 351.981 213.869 328.135 C 199.716 311.428 190.549 286.731 189.924 259.015 L 189.924 252.988 C 190.548 225.273 199.715 200.571 213.866 183.868 C 232.229 160.022 259.527 144.901 290.007 144.901 C 308.758 144.901 326.303 150.626 341.308 160.583 C 318.773 140.424 289.068 128.127 256.479 128.006 C 256.316 128.006 256.157 127.999 255.995 127.999 L 255.998 128.005 Z  M 213.868 183.876 C 225.614 170.009 240.783 161.647 257.357 161.647 C 294.621 161.647 324.823 203.895 324.823 256.008 C 324.823 308.122 294.618 350.37 257.357 350.37 C 240.783 350.37 225.614 342.011 213.871 328.144 C 232.23 351.99 259.527 367.112 290.012 367.112 C 308.76 367.112 326.301 361.387 341.304 351.436 C 367.503 327.998 384 293.931 384 256.009 C 384 218.092 367.506 184.027 341.313 160.591 C 326.306 150.635 308.762 144.909 290.012 144.909 C 259.53 144.909 232.231 160.031 213.871 183.877"
      fill-rule="evenodd" fill="rgb(255,255,255)" />
  </g>
</svg>