<?xml version="1.0" encoding="UTF-8" standalone="no"?><!-- Generator: Gravit.io --><svg xmlns="http://www.w3.org/2000/svg" xmlns:xlink="http://www.w3.org/1999/xlink" style="isolation:isolate" viewBox="0 0 512 512" width="512pt" height="512pt"><defs><clipPath id="_clipPath_H5zzyQp163qhJ2tkxJ8PLlqxlcy07R9P"><rect width="512" height="512"/></clipPath></defs><g clip-path="url(#_clipPath_H5zzyQp163qhJ2tkxJ8PLlqxlcy07R9P)"><circle vector-effect="non-scaling-stroke" cx="256" cy="256" r="256" fill="rgb(149,6,6)" /><path d=" M 256.017 318.275 C 253.781 319.564 237.791 333.091 206 333.091 C 179.21 333.091 150.602 319.374 141.659 319.64 C 138.476 319.526 135.937 320.17 133.967 321.042 C 130.216 322.595 126.54 320.322 128.586 316.457 C 135.634 303.119 147.608 294.934 158.9 291.524 C 167.16 289.023 174.739 288.189 178.642 292.509 C 187.243 302.058 202.817 313.88 217.898 315.434 C 219.11 315.547 224.605 316.002 224.68 314.448 C 224.756 313.501 222.862 312.857 220.967 312.743 C 205.545 311.606 177.694 295.086 162.424 263.105 C 156.664 251.093 152.117 239.46 142.114 234.383 C 139.916 233.322 139.84 229.229 144.501 228.093 C 147.722 227.335 168.297 225.364 191.79 237.717 C 202.551 243.401 204.067 248.516 204.105 252.95 C 204.029 286.484 220.967 299.784 227.522 303.725 C 231.198 305.885 234.608 306.832 234.987 305.695 C 235.29 304.748 234.305 304.066 233.471 303.573 C 213.123 291.221 207.743 272.237 207.591 252.874 C 207.439 233.738 214.525 217.18 219.565 203.614 C 220.285 201.682 222.672 193.611 220.664 186.146 C 219.148 180.538 220.361 178.909 223.316 178.909 C 226.537 178.909 230.819 184.138 232.259 185.919 C 233.433 187.283 237.185 191.83 242.831 203.046 C 254.047 225.175 254.122 248.365 254.122 251.169 C 254.122 267.083 250.03 268.94 243.323 272.237 C 236.654 275.533 233.471 279.777 233.471 284.741 C 233.471 289.781 236.995 295.048 243.323 296.904 C 248.249 298.344 251.356 297.814 251.091 296.525 C 250.902 295.54 248.704 295.275 248.098 295.086 C 241.391 293.267 236.957 289.856 236.957 284.741 C 236.957 278.299 244.877 273.601 255.979 273.601 C 267.157 273.601 275.039 278.299 275.039 284.741 C 275.039 289.856 270.605 293.305 263.936 295.123 C 263.292 295.275 261.132 295.54 260.905 296.525 C 260.64 297.814 263.785 298.344 268.711 296.904 C 275.039 295.086 278.563 289.781 278.525 284.741 C 278.525 279.777 275.38 275.533 268.673 272.237 C 262.004 268.94 257.874 267.083 257.874 251.169 C 257.874 248.365 257.987 225.175 269.203 203.046 C 274.849 191.868 278.601 187.283 279.737 185.919 C 281.177 184.138 285.497 178.909 288.718 178.909 C 291.673 178.909 292.886 180.538 291.37 186.146 C 289.362 193.611 291.711 201.682 292.469 203.614 C 297.471 217.18 304.594 233.738 304.443 252.874 C 304.253 272.237 298.873 291.221 278.563 303.573 C 277.729 304.066 276.744 304.748 277.047 305.695 C 277.388 306.832 280.836 305.923 284.474 303.725 C 291.029 299.784 308.005 286.484 307.891 252.95 C 307.929 248.516 309.445 243.401 320.244 237.717 C 343.737 225.364 364.274 227.335 367.533 228.13 C 372.194 229.229 372.118 233.322 369.882 234.383 C 359.879 239.46 355.332 251.093 349.61 263.105 C 334.302 295.086 306.489 311.644 291.029 312.743 C 289.135 312.857 287.24 313.501 287.316 314.448 C 287.392 316.002 292.886 315.547 294.098 315.434 C 309.217 313.88 324.753 302.096 333.392 292.509 C 337.295 288.189 344.836 289.023 353.096 291.524 C 364.426 294.934 376.362 303.119 383.41 316.457 C 385.456 320.322 381.818 322.595 378.067 321.042 C 376.059 320.17 373.52 319.526 370.375 319.64 C 361.395 319.374 332.786 333.091 305.997 333.091 C 274.205 333.091 258.215 319.564 256.017 318.275 Z " fill="rgb(255,255,255)"/></g></svg>