<?xml version="1.0" encoding="UTF-8" standalone="no"?><!-- Generator: Gravit.io --><svg xmlns="http://www.w3.org/2000/svg" xmlns:xlink="http://www.w3.org/1999/xlink" style="isolation:isolate" viewBox="0 0 512 512" width="512pt" height="512pt"><defs><clipPath id="_clipPath_KYtRLkmoNFEARtkSwqxNRkZBM4hGeO2f"><rect width="512" height="512"/></clipPath></defs><g clip-path="url(#_clipPath_KYtRLkmoNFEARtkSwqxNRkZBM4hGeO2f)"><g><path d=" M 162.307 494.643 L 171.181 438.28 L 151.415 437.822 L 57.03 437.822 L 122.623 21.921 C 122.826 20.665 123.488 19.495 124.455 18.663 C 125.422 17.832 126.661 17.374 127.95 17.374 L 287.097 17.374 C 339.93 17.374 376.392 28.368 395.428 50.068 C 404.352 60.248 410.036 70.886 412.785 82.593 C 415.669 94.877 415.72 109.553 412.904 127.453 L 412.7 128.759 L 412.7 140.229 L 421.624 145.285 C 429.141 149.272 435.113 153.836 439.694 159.062 C 447.329 167.765 452.266 178.828 454.353 191.943 C 456.508 205.431 455.795 221.482 452.266 239.653 C 448.194 260.556 441.611 278.761 432.721 293.657 C 424.543 307.383 414.125 318.768 401.757 327.59 C 389.948 335.972 375.916 342.334 360.053 346.406 C 344.681 350.41 327.155 352.429 307.931 352.429 L 295.546 352.429 C 286.689 352.429 278.087 355.619 271.335 361.337 C 264.565 367.173 260.086 375.148 258.711 383.869 L 257.778 388.942 L 242.101 488.281 L 241.389 491.929 C 241.202 493.082 240.88 493.659 240.405 494.049 C 239.98 494.406 239.37 494.643 238.776 494.643 L 162.307 494.643 Z " fill="rgb(37,59,128)"/><path d=" M 430.074 130.083 L 430.074 130.083 L 430.074 130.083 C 429.599 133.12 429.056 136.225 428.445 139.414 C 407.457 247.169 335.655 284.394 243.951 284.394 L 197.259 284.394 C 186.044 284.394 176.593 292.537 174.846 303.6 L 174.846 303.6 L 174.846 303.6 L 150.94 455.213 L 144.17 498.189 C 143.033 505.451 148.632 512 155.962 512 L 238.776 512 C 248.582 512 256.913 504.874 258.457 495.203 L 259.271 490.995 L 274.864 392.046 L 275.865 386.617 C 277.392 376.912 285.739 369.786 295.546 369.786 L 307.931 369.786 C 388.166 369.786 450.977 337.21 469.334 242.944 C 477.003 203.565 473.033 170.684 452.741 147.558 C 446.599 140.585 438.981 134.799 430.074 130.083 Z " fill="rgb(23,155,215)"/><path d=" M 408.119 121.328 C 404.912 120.395 401.604 119.546 398.211 118.783 C 394.8 118.036 391.305 117.375 387.708 116.798 C 375.119 114.762 361.325 113.795 346.547 113.795 L 221.809 113.795 C 218.738 113.795 215.82 114.49 213.207 115.746 C 207.455 118.511 203.18 123.958 202.145 130.626 L 175.609 298.696 L 174.846 303.6 C 176.593 292.537 186.044 284.394 197.259 284.394 L 243.951 284.394 C 335.655 284.394 407.457 247.152 428.445 139.414 C 429.073 136.225 429.599 133.12 430.074 130.083 C 424.763 127.266 419.012 124.857 412.819 122.804 C 411.292 122.295 409.714 121.803 408.119 121.328 Z " fill="rgb(34,45,101)"/><path d=" M 202.145 130.626 C 203.18 123.958 207.455 118.511 213.207 115.763 C 215.837 114.507 218.738 113.812 221.809 113.812 L 346.547 113.812 C 361.325 113.812 375.119 114.779 387.708 116.815 C 391.305 117.392 394.8 118.053 398.211 118.8 C 401.604 119.563 404.912 120.412 408.119 121.345 C 409.714 121.82 411.292 122.312 412.836 122.804 C 419.029 124.857 424.78 127.283 430.091 130.083 C 436.334 90.262 430.04 63.15 408.509 38.599 C 384.773 11.571 341.932 0 287.113 0 L 127.967 0 C 116.769 0 107.217 8.144 105.486 19.223 L 39.198 439.4 C 37.892 447.714 44.305 455.213 52.686 455.213 L 150.94 455.213 L 175.609 298.696 L 202.145 130.626 Z " fill="rgb(37,59,128)"/></g></g></svg>