<?xml version="1.0" encoding="UTF-8" standalone="no"?><!-- Generator: Gravit.io --><svg xmlns="http://www.w3.org/2000/svg" xmlns:xlink="http://www.w3.org/1999/xlink" style="isolation:isolate" viewBox="0 0 512 512" width="512pt" height="512pt"><defs><clipPath id="_clipPath_4UKOibAF3oOior93ShhlW65H4nw2EbKo"><rect width="512" height="512"/></clipPath></defs><g clip-path="url(#_clipPath_4UKOibAF3oOior93ShhlW65H4nw2EbKo)"><path d=" M 512 259.556 C 512 223.147 494.364 194.418 460.658 194.418 C 426.809 194.418 406.329 223.147 406.329 259.271 C 406.329 302.08 430.507 323.698 465.209 323.698 C 482.133 323.698 494.933 319.858 504.604 314.453 L 504.604 286.009 C 494.933 290.844 483.84 293.831 469.76 293.831 C 455.964 293.831 443.733 288.996 442.169 272.213 L 511.716 272.213 C 511.716 270.364 512 262.969 512 259.556 Z  M 441.742 246.044 C 441.742 229.973 451.556 223.289 460.516 223.289 C 469.191 223.289 478.436 229.973 478.436 246.044 L 441.742 246.044 Z " fill-rule="evenodd" fill="rgb(99,91,255)"/><path d=" M 351.431 194.418 C 337.493 194.418 328.533 200.96 323.556 205.511 L 321.707 196.693 L 290.418 196.693 L 290.418 362.524 L 325.973 354.987 L 326.116 314.738 C 331.236 318.436 338.773 323.698 351.289 323.698 C 376.747 323.698 399.929 303.218 399.929 258.133 C 399.787 216.889 376.32 194.418 351.431 194.418 Z  M 342.898 292.409 C 334.507 292.409 329.529 289.422 326.116 285.724 L 325.973 232.96 C 329.671 228.836 334.791 225.991 342.898 225.991 C 355.84 225.991 364.8 240.498 364.8 259.129 C 364.8 278.187 355.982 292.409 342.898 292.409 Z " fill-rule="evenodd" fill="rgb(99,91,255)"/><path d=" M 241.493 186.027 L 277.191 178.347 L 277.191 149.476 L 241.493 157.013 L 241.493 186.027 Z " fill-rule="evenodd" fill="rgb(99,91,255)"/><rect x="241.493" y="196.836" width="35.698" height="124.444" transform="matrix(1,0,0,1,0,0)" fill="rgb(99,91,255)"/><path d=" M 203.236 207.36 L 200.96 196.836 L 170.24 196.836 L 170.24 321.28 L 205.796 321.28 L 205.796 236.942 C 214.187 225.991 228.409 227.982 232.818 229.547 L 232.818 196.836 C 228.267 195.129 211.627 192 203.236 207.36 Z " fill-rule="evenodd" fill="rgb(99,91,255)"/><path d=" M 132.124 165.973 L 97.422 173.369 L 97.28 287.289 C 97.28 308.338 113.067 323.84 134.116 323.84 C 145.778 323.84 154.311 321.707 159.004 319.147 L 159.004 290.276 C 154.453 292.124 131.982 298.667 131.982 277.618 L 131.982 227.129 L 159.004 227.129 L 159.004 196.836 L 131.982 196.836 L 132.124 165.973 Z " fill-rule="evenodd" fill="rgb(99,91,255)"/><path d=" M 35.982 232.96 C 35.982 227.413 40.533 225.28 48.071 225.28 C 58.88 225.28 72.533 228.551 83.342 234.382 L 83.342 200.96 C 71.538 196.267 59.876 194.418 48.071 194.418 C 19.2 194.418 0 209.493 0 234.667 C 0 273.92 54.044 267.662 54.044 284.587 C 54.044 291.129 48.356 293.262 40.391 293.262 C 28.587 293.262 13.511 288.427 1.564 281.884 L 1.564 315.733 C 14.791 321.422 28.16 323.84 40.391 323.84 C 69.973 323.84 90.311 309.191 90.311 283.733 C 90.169 241.351 35.982 248.889 35.982 232.96 Z " fill-rule="evenodd" fill="rgb(99,91,255)"/></g></svg>