<?xml version="1.0" encoding="UTF-8" standalone="no"?>
<!-- Generator: Gravit.io --><svg xmlns="http://www.w3.org/2000/svg" xmlns:xlink="http://www.w3.org/1999/xlink"
  style="isolation:isolate" viewBox="0 0 512 512" width="512pt" height="512pt">
  <defs>
    <clipPath id="_clipPath_uAZoDxQ6oqP7fNZOIbyQcQ4XTAKUzD2V">
      <rect width="512" height="512" />
    </clipPath>
  </defs>
  <g clip-path="url(#_clipPath_uAZoDxQ6oqP7fNZOIbyQcQ4XTAKUzD2V)">
    <circle vector-effect="non-scaling-stroke" cx="256" cy="256" r="256" fill="rgb(27,27,29)" />
    <path
      d=" M 178.329 128.001 C 163.755 128.001 151.891 139.874 151.891 154.448 L 151.891 357.553 C 151.891 372.127 163.755 384 178.329 384 L 333.637 384 C 348.212 384 360.077 372.128 360.077 357.553 L 360.077 190.544 C 360.077 190.544 360.492 185.653 358.37 180.895 C 356.38 176.434 353.136 173.33 353.136 173.33 C 353.128 173.319 353.12 173.307 353.112 173.297 L 314.579 135.502 C 314.558 135.48 314.537 135.459 314.515 135.437 C 314.515 135.437 311.225 132.305 306.349 130.212 C 300.607 127.748 294.688 128.008 294.688 128.008 L 294.776 128 L 178.329 128.001 Z  M 178.329 136.688 L 294.776 136.688 C 294.806 136.689 294.835 136.689 294.865 136.688 C 294.865 136.688 299.521 136.733 302.927 138.195 C 306.205 139.602 308.529 141.731 308.545 141.745 C 308.545 141.745 308.561 141.762 308.561 141.762 L 346.997 179.469 C 346.997 179.469 349.313 181.914 350.435 184.43 C 351.341 186.46 351.397 190.176 351.397 190.176 C 351.393 190.237 351.39 190.299 351.389 190.36 L 351.389 357.553 C 351.389 367.466 343.55 375.313 333.637 375.313 L 178.329 375.313 C 168.416 375.313 160.578 367.467 160.578 357.553 L 160.578 154.448 C 160.578 144.534 168.416 136.689 178.329 136.689 L 178.329 136.688 Z  M 203.873 280.421 C 197.896 274.443 204.363 266.23 221.913 257.508 L 232.956 252.02 L 237.258 242.607 C 239.624 237.43 243.156 228.983 245.106 223.835 L 248.651 214.476 L 246.208 207.55 C 243.204 199.034 242.132 186.236 244.039 181.635 C 246.621 175.401 255.078 176.041 258.426 182.723 C 261.041 187.941 260.774 197.391 257.674 209.31 L 255.133 219.081 L 257.371 222.88 C 258.602 224.971 262.198 229.933 265.362 233.908 L 271.309 241.305 L 278.708 240.339 C 302.216 237.272 310.268 242.485 310.268 249.961 C 310.268 259.395 291.809 260.174 276.309 249.286 C 272.821 246.837 270.426 244.404 270.426 244.404 C 270.426 244.404 260.715 246.381 255.935 247.669 C 251 248.999 248.537 249.833 241.308 252.272 C 241.308 252.272 238.772 255.956 237.119 258.634 C 230.97 268.596 223.79 276.852 218.663 279.857 C 212.922 283.222 206.903 283.451 203.873 280.421 L 203.873 280.421 Z  M 213.253 277.069 C 216.613 274.993 223.414 266.95 228.121 259.485 L 230.027 256.462 L 221.349 260.826 C 207.945 267.565 201.814 273.917 205.002 277.758 C 206.793 279.917 208.936 279.738 213.253 277.069 Z  M 300.318 252.631 C 303.604 250.33 303.127 245.691 299.411 243.821 C 296.52 242.365 294.189 242.066 286.678 242.177 C 282.062 242.492 274.64 243.422 273.382 243.705 C 273.382 243.705 277.46 246.523 279.27 247.559 C 281.68 248.935 287.536 251.49 291.812 252.799 C 296.029 254.09 298.469 253.954 300.318 252.631 L 300.318 252.631 Z  M 265.31 238.081 C 263.321 235.991 259.939 231.627 257.795 228.384 C 254.99 224.706 253.584 222.111 253.584 222.111 C 253.584 222.111 251.534 228.705 249.852 232.673 L 244.605 245.642 L 243.083 248.584 C 243.083 248.584 251.171 245.932 255.286 244.857 C 259.644 243.719 268.49 241.979 268.49 241.979 L 265.31 238.081 Z  M 254.029 192.84 C 254.536 188.582 254.751 184.331 253.383 182.188 C 249.59 178.04 245.01 181.499 245.786 191.359 C 246.047 194.676 246.871 200.347 247.973 203.842 L 249.976 210.197 L 251.385 205.41 C 252.161 202.778 253.35 197.121 254.029 192.84 L 254.029 192.84 Z  M 214.038 308.1 L 223.742 308.1 Q 228.393 308.1 231.293 308.99 Q 234.193 309.851 236.174 312.866 Q 238.155 315.852 238.155 320.072 Q 238.155 323.948 236.547 326.733 Q 234.939 329.518 232.212 330.753 Q 229.513 331.987 223.886 331.987 L 220.527 331.987 L 220.527 347.29 L 214.038 347.29 L 214.038 308.1 Z  M 220.527 313.124 L 220.527 326.791 L 223.742 326.791 Q 228.049 326.791 229.685 325.183 Q 231.351 323.575 231.351 319.957 Q 231.351 317.259 230.259 315.593 Q 229.169 313.899 227.848 313.526 Q 226.556 313.124 223.742 313.124 L 220.527 313.124 Z  M 243.122 308.1 L 251.936 308.1 Q 258.339 308.1 262.157 310.368 Q 266.004 312.636 267.957 317.115 Q 269.938 321.594 269.938 327.049 Q 269.938 332.791 268.158 337.299 Q 266.406 341.778 262.76 344.534 Q 259.142 347.29 252.424 347.29 L 243.122 347.29 L 243.122 308.1 Z  M 249.611 313.297 L 249.611 342.093 L 252.309 342.093 Q 257.966 342.093 260.521 338.189 Q 263.076 334.255 263.076 327.709 Q 263.076 313.297 252.309 313.297 L 249.611 313.297 Z  M 276.168 308.1 L 297.931 308.1 L 297.931 313.297 L 282.657 313.297 L 282.657 325.011 L 294.887 325.011 L 294.887 330.207 L 282.657 330.207 L 282.657 347.29 L 276.168 347.29 L 276.168 308.1 Z "
      fill-rule="evenodd" fill="rgb(239,191,4)" />
  </g>
</svg>
