<?xml version="1.0" encoding="UTF-8" standalone="no"?><!-- Generator: Gravit.io --><svg xmlns="http://www.w3.org/2000/svg" xmlns:xlink="http://www.w3.org/1999/xlink" style="isolation:isolate" viewBox="0 0 512 512" width="512pt" height="512pt"><defs><clipPath id="_clipPath_ZEEsplhUBoVIpIjvp2phW9CNFwubDAfK"><rect width="512" height="512"/></clipPath></defs><g clip-path="url(#_clipPath_ZEEsplhUBoVIpIjvp2phW9CNFwubDAfK)"><path d="M 477.714 383.995 L 256.005 512 L 34.286 383.995 L 34.286 127.985 L 256.005 0 L 477.714 127.985 L 477.714 383.995 Z" fill-rule="evenodd" fill="rgb(17,17,132)" /><path d=" M 167.782 329.864 C 170.076 329.864 175.81 328.487 175.81 327.34 L 175.81 285.591 C 173.058 285.591 170.764 289.95 170.764 289.95 C 170.764 286.05 172.37 282.839 173.287 281.921 C 171.911 280.545 168.011 281.004 168.011 281.004 C 168.011 281.004 166.635 281.004 162.965 284.674 C 162.965 280.774 167.323 275.957 168.241 275.039 C 168.241 275.039 166.635 274.122 164.112 274.122 C 164.112 274.122 161.588 274.122 158.377 276.645 C 158.377 273.434 163.194 267.928 166.405 267.928 C 166.405 263.799 178.334 263.799 183.61 263.799 C 196.226 263.799 239.81 236.043 239.81 236.043 C 229.029 236.043 224.671 234.437 224.671 234.437 C 223.065 231.226 221.459 228.014 219.624 228.244 C 215.954 236.043 198.52 240.631 193.703 230.996 C 197.832 232.373 201.961 230.767 202.879 227.556 C 204.025 224.344 201.273 220.674 197.144 219.527 Q 196.226 219.068 195.309 219.068 Q 195.309 219.068 195.309 219.068 Q 195.309 219.068 195.309 218.839 C 188.886 216.315 183.61 215.627 181.545 215.398 L 181.545 259.211 C 179.71 258.982 177.646 258.753 175.81 258.753 L 175.81 218.839 C 175.81 214.71 172.828 212.875 170.764 212.875 C 169.846 212.875 168.929 212.645 167.782 212.186 C 164.341 211.039 163.882 207.369 164.341 205.075 C 158.836 198.882 162.965 197.735 164.57 194.982 C 162.735 192.459 161.588 191.312 162.735 187.642 C 163.882 184.201 166.405 183.054 170.305 182.366 Q 170.534 182.366 170.764 182.136 C 171.681 183.283 175.352 184.43 175.81 184.43 L 175.81 179.154 C 175.81 179.154 173.058 179.842 170.764 179.613 Q 170.764 179.613 170.764 179.613 Q 170.076 179.613 169.617 179.384 Q 169.388 179.384 169.388 179.384 Q 168.929 179.154 168.47 179.154 Q 168.241 179.154 168.241 179.154 Q 167.323 178.925 166.405 178.466 Q 166.405 178.466 166.176 178.466 Q 165.947 178.237 165.717 178.237 Q 165.488 178.007 165.488 178.007 Q 165.258 178.007 164.8 177.778 Q 164.8 177.778 164.8 177.778 Q 164.57 177.548 164.341 177.548 Q 164.341 177.548 164.341 177.548 Q 164.112 177.319 163.882 177.319 C 164.57 177.319 167.094 176.172 170.076 174.566 Q 169.846 174.566 169.846 174.566 C 163.423 171.355 158.836 163.556 158.836 154.38 C 158.836 144.746 163.882 136.487 170.993 133.735 Q 172.599 133.505 174.205 133.276 C 179.251 132.817 184.068 134.194 187.968 136.487 Q 187.968 136.487 187.968 136.717 Q 188.656 136.946 189.344 137.405 Q 189.344 137.634 189.574 137.634 Q 190.033 138.093 190.721 138.552 Q 190.721 138.552 190.721 138.552 Q 191.868 139.47 192.556 140.387 Q 192.785 140.616 193.015 140.846 Q 193.474 141.305 193.703 141.534 Q 193.932 141.993 194.162 142.222 Q 194.391 142.681 194.85 143.14 Q 195.079 143.599 195.309 144.057 Q 195.538 144.287 195.767 144.516 Q 196.226 145.434 196.456 146.122 Q 196.685 146.581 196.685 146.81 Q 196.914 147.269 197.144 147.957 Q 197.373 148.416 197.373 148.645 Q 197.603 149.333 197.603 150.022 Q 197.832 150.251 197.832 150.48 Q 198.061 151.627 198.061 152.545 C 198.52 158.05 196.685 163.097 193.474 167.226 C 189.344 172.502 185.215 175.713 181.545 177.548 L 181.545 186.495 C 181.545 186.495 187.509 188.559 194.85 191.771 Q 197.832 193.606 201.043 194.982 Q 201.043 194.982 201.043 194.982 C 212.972 201.176 225.359 210.81 221.23 222.28 C 232.929 222.28 232.011 207.14 229.488 204.616 C 233.387 200.717 240.957 183.513 240.957 180.301 C 240.957 180.301 225.588 177.09 228.112 166.308 C 228.341 168.832 231.323 170.437 234.993 170.437 C 259.538 170.437 250.821 138.781 237.517 152.086 C 243.022 141.075 251.28 143.599 254.95 143.14 C 257.474 143.14 261.603 143.14 261.603 143.14 C 256.327 137.864 264.126 128 267.108 128 C 265.961 143.369 298.305 146.351 300.828 147.039 C 303.81 154.609 307.939 151.627 310.692 157.821 L 307.939 162.179 L 305.187 161.262 L 305.187 164.703 C 300.37 169.52 299.681 172.043 297.617 175.025 C 297.846 172.272 298.305 170.208 292.8 170.208 C 288.9 170.208 287.065 173.19 285.689 175.713 C 284.312 178.007 285.23 183.513 295.094 180.53 C 293.947 184.43 294.405 189.018 295.094 196.129 C 294.176 191.771 276.054 181.677 276.054 201.176 C 276.054 215.627 291.882 215.857 291.882 208.287 C 304.269 223.885 285.459 233.978 278.348 229.62 L 277.889 238.566 C 285.918 247.054 283.165 268.616 290.276 282.38 C 294.176 292.703 300.828 300.502 314.821 300.502 C 329.502 300.502 330.649 289.72 330.649 287.197 C 330.649 266.323 308.857 261.276 308.857 241.548 C 308.857 222.05 338.448 214.022 338.448 199.799 C 338.448 182.824 315.28 185.577 314.133 198.423 Q 314.133 198.882 314.133 199.57 C 307.71 176.631 352.671 167.685 352.671 199.34 C 352.671 218.38 323.538 222.738 316.427 243.154 C 318.95 239.713 322.62 236.961 327.208 235.125 C 337.99 231.226 349.459 234.896 352.671 243.613 C 356.111 252.559 349.918 262.882 339.137 267.011 Q 339.137 267.011 339.137 267.011 Q 339.137 267.011 339.137 267.011 C 343.266 265.405 346.248 261.276 346.248 256.459 C 346.248 250.265 341.201 245.448 335.008 245.448 C 329.273 245.448 324.456 249.806 323.767 255.541 C 322.391 263.111 340.054 272.057 340.054 290.867 C 340.054 314.265 301.975 311.513 290.047 297.978 C 290.047 303.025 302.205 329.405 325.144 318.853 C 299.223 347.068 318.491 375.742 305.187 375.742 C 298.076 375.742 298.764 382.394 298.764 382.394 C 296.929 380.559 295.782 376.659 296.929 375.513 L 293.717 375.513 C 289.818 375.283 284.312 376.659 284.083 384 C 282.018 382.165 281.789 377.348 283.624 375.513 L 279.724 375.513 C 272.384 375.054 266.42 376.889 266.42 382.853 C 265.043 381.477 263.896 375.971 265.961 373.907 L 262.291 373.907 C 262.291 362.896 269.861 360.373 288.9 360.373 C 288.9 360.373 304.499 340.416 292.112 328.029 C 288.9 328.029 274.219 328.717 272.843 315.871 C 269.631 315.183 265.961 315.183 262.061 315.642 C 257.015 315.642 242.334 321.147 242.334 329.176 C 242.334 337.892 258.391 340.416 258.391 340.416 C 226.047 346.38 246.233 368.401 224.9 372.072 C 216.413 373.448 218.248 380.789 218.248 380.789 C 215.724 378.265 213.889 373.219 215.036 372.072 C 215.036 372.072 212.742 372.072 210.907 372.072 C 206.09 372.072 200.814 374.824 200.585 382.624 C 198.979 381.018 196.914 375.513 200.585 371.842 L 194.85 371.842 C 185.674 371.842 183.38 375.971 184.298 381.018 C 184.298 381.018 179.939 374.136 184.757 369.319 L 179.71 369.319 C 179.71 353.95 190.721 356.702 204.714 356.702 C 213.66 356.702 226.735 345.462 226.735 326.652 C 226.735 326.652 218.018 323.211 218.018 314.495 C 218.018 293.849 267.796 291.326 267.796 274.351 C 267.796 267.24 261.832 264.258 257.474 264.258 C 258.62 265.405 265.273 279.398 246.692 279.398 L 238.663 265.864 C 238.663 265.864 224.9 281.921 208.843 286.28 C 206.319 281.233 197.832 280.315 191.409 283.527 C 189.344 284.444 187.509 286.05 186.362 287.885 C 186.362 287.885 183.839 290.638 184.757 294.767 C 184.757 294.767 180.398 290.867 182.233 286.968 C 181.086 286.28 179.251 285.821 177.416 285.821 C 176.957 289.032 178.563 292.473 181.316 293.849 L 181.316 325.276 L 184.298 325.276 L 184.527 334.91 L 179.481 335.14 C 182.004 336.057 183.839 338.351 184.298 341.333 C 184.527 345.462 181.316 349.133 176.957 349.591 C 172.599 349.821 168.699 346.839 168.241 342.48 L 168.241 342.251 C 168.929 344.086 170.764 345.462 173.058 345.462 C 175.581 345.462 177.875 343.398 177.875 340.645 C 177.875 337.892 175.581 335.828 173.058 335.828 Q 172.14 335.828 171.223 336.057 Q 172.14 335.369 173.058 335.14 L 167.782 335.14 M 339.137 267.011 Q 339.137 267.011 339.137 267.011 Q 339.137 267.011 339.137 267.011 Z  M 195.309 219.068 Q 195.538 219.068 195.538 219.068 Q 195.538 219.068 195.309 219.068 Z  M 195.309 219.068 Q 195.309 219.068 195.309 219.068 Q 195.309 219.068 195.309 219.068 Z  M 186.821 154.609 C 186.821 150.251 183.151 146.581 178.563 146.581 C 174.893 146.581 171.911 149.104 170.764 152.315 Q 170.764 152.545 170.764 152.545 Q 170.534 153.462 170.534 154.609 C 170.534 159.197 174.205 162.867 178.563 162.867 Q 178.793 162.867 178.793 162.867 C 179.251 164.703 179.481 166.996 178.793 168.373 C 183.151 164.703 186.821 159.885 186.821 154.609 Z  M 170.764 152.545 Q 170.764 152.545 170.764 152.545 Q 170.764 152.545 170.764 152.545 Q 170.764 152.545 170.764 152.545 Q 170.764 152.545 170.764 152.545 Z  M 170.764 152.545 Q 170.764 152.545 170.764 152.545 Q 170.764 152.545 170.764 152.545 Z  M 170.764 152.545 Q 170.764 152.545 170.764 152.545 Q 170.764 152.545 170.764 152.545 Z  M 176.957 206.681 C 176.957 206.222 171.911 205.075 169.388 205.075 C 168.241 205.075 167.782 206.681 167.782 207.14 C 167.782 207.599 168.47 208.975 169.388 208.975 C 171.911 208.975 176.957 207.369 176.957 206.681 Z  M 178.563 200.258 C 178.563 199.57 171.681 197.047 168.241 196.817 C 166.635 196.588 165.947 198.652 165.947 199.34 C 165.947 200.029 166.405 201.864 167.782 202.093 C 171.223 202.323 178.563 200.946 178.563 200.258 Z  M 179.022 193.376 C 179.251 192.688 172.37 188.559 168.699 187.642 C 167.094 187.183 165.947 189.247 165.717 189.935 C 165.488 190.624 165.717 192.918 167.323 193.147 C 170.993 194.294 178.793 194.065 179.022 193.376 Z  M 170.993 152.315 Q 170.993 152.315 170.993 152.315 Q 170.764 152.545 170.764 152.545 Q 170.993 152.315 170.993 152.315 Z  M 171.223 151.857 Q 171.223 151.857 171.223 151.857 Q 171.223 151.857 171.223 151.857 Z  M 170.993 152.315 Q 170.993 152.086 171.223 151.857 Q 170.993 152.086 170.993 152.315 Z  M 170.764 152.545 Q 170.764 152.545 170.764 152.545 Q 170.764 152.545 170.764 152.545 Z  M 171.223 336.057 Q 171.223 336.057 171.223 336.057 Q 171.223 336.057 171.223 336.057 Z  M 300.37 175.484 C 302.663 179.154 306.792 181.448 311.151 180.989 C 317.344 180.301 321.932 174.796 321.474 168.602 Q 321.474 168.373 321.244 167.914 C 320.785 171.125 316.886 173.878 312.068 174.337 C 308.398 174.796 304.957 173.649 303.122 171.814 C 302.205 173.19 301.287 174.337 300.37 175.484 Z  M 285.23 154.38 L 289.129 154.609 L 287.294 157.362 C 287.294 157.362 284.542 158.28 285.23 154.38 Z  M 275.825 154.38 L 281.56 154.38 C 281.56 154.38 281.33 158.968 285.459 159.427 L 284.542 160.803 C 284.542 160.803 273.531 158.05 275.825 154.38 Z " fill-rule="evenodd" fill="rgb(255,255,255)"/></g></svg>