<?xml version="1.0" encoding="UTF-8" standalone="no"?><!-- Generator: Gravit.io --><svg xmlns="http://www.w3.org/2000/svg" xmlns:xlink="http://www.w3.org/1999/xlink" style="isolation:isolate" viewBox="0 0 512 512" width="512pt" height="512pt"><defs><clipPath id="_clipPath_BH2UeJtFuQRRAsHv850fB7tNUkIpwBX4"><rect width="512" height="512"/></clipPath></defs><g clip-path="url(#_clipPath_BH2UeJtFuQRRAsHv850fB7tNUkIpwBX4)"><path d="M 477.714 383.995 L 256.005 512 L 34.286 383.995 L 34.286 127.985 L 256.005 0 L 477.714 127.985 L 477.714 383.995 Z" fill-rule="evenodd" fill="rgb(27,27,29)" /><path d=" M 288.819 147.265 C 298.62 133.771 279.73 120.049 269.927 133.542 C 246.161 171.935 238.932 179.051 247.027 184.932 C 255.123 190.813 259.655 181.737 288.818 147.265 L 288.818 147.265 L 288.819 147.265 Z  M 207.465 259.263 C 217.267 245.77 198.376 232.047 188.574 245.541 C 164.808 283.934 157.578 291.05 165.674 296.931 C 173.77 302.812 178.302 293.736 207.465 259.263 L 207.465 259.263 L 207.465 259.263 Z  M 275.897 371.491 C 275.897 388.17 299.247 388.17 299.247 371.491 C 295.911 326.462 297.579 316.455 287.572 316.455 C 277.566 316.455 279.233 326.462 275.898 371.491 L 275.897 371.491 Z  M 275.897 233.066 C 275.897 249.744 299.247 249.744 299.247 233.066 C 295.911 188.036 297.579 178.029 287.572 178.029 C 277.566 178.029 279.233 188.036 275.898 233.066 L 275.897 233.066 Z  M 363.462 263.8 C 379.333 268.926 386.509 246.707 370.639 241.581 C 326.763 230.914 317.753 226.252 314.678 235.774 C 311.602 245.297 321.637 246.785 363.463 263.8 L 363.462 263.8 Z  M 231.735 221.251 C 247.605 226.377 254.782 204.158 238.911 199.033 C 195.036 188.366 186.026 183.703 182.951 193.226 C 179.875 202.748 189.91 204.237 231.735 221.251 L 231.735 221.251 Z  M 148.021 320.291 C 132.159 325.446 139.376 347.651 155.237 342.496 C 197.031 325.405 207.063 323.9 203.971 314.382 C 200.878 304.866 191.876 309.545 148.021 320.291 L 148.021 320.291 Z  M 279.667 277.503 C 263.805 282.657 271.022 304.863 286.883 299.708 C 328.677 282.617 338.709 281.111 335.616 271.594 C 332.524 262.077 323.522 266.756 279.667 277.503 L 279.667 277.503 Z  M 154.092 183.58 C 144.298 170.081 125.4 183.793 135.194 197.292 C 164.339 231.78 168.866 240.859 176.966 234.982 C 185.065 229.105 177.838 221.985 154.093 183.58 L 154.092 183.58 Z  M 235.39 295.621 C 225.596 282.122 206.698 295.835 216.492 309.334 C 245.637 343.822 250.164 352.901 258.264 347.024 C 266.363 341.147 259.136 334.027 235.391 295.621 L 235.39 295.621 Z " fill-rule="evenodd" fill="rgb(0,103,79)"/></g></svg>