<?xml version="1.0" encoding="UTF-8" standalone="no"?>
<!-- Generator: Gravit.io --><svg xmlns="http://www.w3.org/2000/svg" xmlns:xlink="http://www.w3.org/1999/xlink"
  style="isolation:isolate" viewBox="0 0 512 512" width="512pt" height="512pt">
  <defs>
    <clipPath id="_clipPath_Zavm7nZieOC2PmTFogQn4rkysvoLtUn0">
      <rect width="512" height="512" />
    </clipPath>
  </defs>
  <g clip-path="url(#_clipPath_Zavm7nZieOC2PmTFogQn4rkysvoLtUn0)">
    <circle vector-effect="non-scaling-stroke" cx="256" cy="256" r="256" fill="rgb(27,27,29)" />
    <g>
      <path
        d=" M 278.66 202.496 C 278.66 243.639 245.196 276.992 203.917 276.992 C 162.637 276.992 129.173 243.639 129.173 202.496 C 129.173 161.353 162.637 128 203.917 128 C 245.196 128 278.66 161.353 278.66 202.496 Z "
        fill="rgb(237,29,36)" />
      <path
        d=" M 382.827 309.478 C 382.827 329.243 374.949 348.198 360.927 362.173 C 346.905 376.149 327.888 384 308.058 384 C 266.764 384 233.289 350.636 233.289 309.478 C 233.289 268.321 266.764 234.957 308.058 234.957 C 327.888 234.957 346.905 242.808 360.927 256.784 C 374.949 270.759 382.827 289.714 382.827 309.478 Z "
        fill="rgb(237,29,36)" />
      <path
        d=" M 374.396 256.555 C 374.396 287.848 361.923 317.859 339.722 339.986 C 317.521 362.114 287.41 374.545 256.013 374.545 C 224.616 374.545 194.505 362.114 172.303 339.986 C 150.102 317.859 137.63 287.848 137.63 256.555 C 137.63 225.262 150.102 195.25 172.303 173.123 C 194.505 150.995 224.616 138.564 256.013 138.564 C 287.41 138.564 317.521 150.995 339.722 173.123 C 361.923 195.25 374.396 225.262 374.396 256.555 Z "
        fill="rgb(237,29,36)" />
      <path
        d=" M 222.724 252.459 C 217.94 249.31 213.948 245.099 211.059 240.154 C 208.27 234.929 206.893 229.067 207.066 223.147 C 206.854 215.634 209.418 208.306 214.268 202.564 C 219.308 196.798 225.785 192.47 233.041 190.02 C 240.933 187.232 249.248 185.832 257.617 185.882 C 263.093 185.83 268.563 186.25 273.967 187.136 C 277.835 187.733 281.634 188.714 285.308 190.063 C 288.681 191.205 291.727 193.149 294.182 195.729 C 295.992 197.852 296.965 200.561 296.922 203.349 C 297.052 206.275 296.014 209.133 294.037 211.294 C 292.164 213.288 289.528 214.387 286.793 214.315 C 284.932 214.299 283.096 213.886 281.408 213.103 C 277.248 211.241 272.962 209.673 268.582 208.41 C 264.551 207.347 260.395 206.83 256.226 206.874 C 250.793 206.674 245.417 208.049 240.747 210.833 C 236.733 213.272 234.365 217.703 234.569 222.396 C 234.54 225.421 235.691 228.338 237.777 230.528 C 240.256 233.101 243.186 235.198 246.421 236.715 Q 251.857 239.411 262.635 243.866 C 263.43 244.118 264.206 244.428 264.956 244.796 C 271.967 247.569 278.69 251.025 285.026 255.113 C 290.03 258.375 294.25 262.706 297.382 267.793 C 300.467 273.14 302.011 279.236 301.845 285.406 C 302.104 292.961 299.939 300.4 295.667 306.637 C 291.317 312.541 285.299 317.008 278.387 319.462 C 270.057 322.439 261.255 323.873 252.412 323.695 C 240.259 324.12 228.164 321.832 217.007 316.996 C 214.155 315.726 211.654 313.781 209.719 311.33 C 208.114 309.084 207.281 306.377 207.347 303.616 C 207.186 300.669 208.324 297.8 210.462 295.765 C 212.676 293.826 215.551 292.812 218.492 292.932 C 221.768 292.977 224.987 293.805 227.878 295.347 Q 233.271 298.044 236.386 299.392 C 238.758 300.385 241.214 301.162 243.725 301.713 C 246.821 302.392 249.984 302.719 253.154 302.686 C 258.76 303.086 264.338 301.599 269.001 298.462 C 272.542 295.691 274.53 291.383 274.342 286.891 C 274.348 283.751 273.151 280.728 270.997 278.443 C 268.152 275.505 264.82 273.08 261.15 271.275 Q 254.639 267.844 242.837 262.912 C 235.801 260.108 229.063 256.606 222.724 252.459"
        fill-rule="evenodd" fill="rgb(27,27,29)" />
    </g>
  </g>
</svg>
