<?xml version="1.0" encoding="UTF-8" standalone="no"?><!-- Generator: Gravit.io --><svg xmlns="http://www.w3.org/2000/svg" xmlns:xlink="http://www.w3.org/1999/xlink" style="isolation:isolate" viewBox="0 0 512 512" width="512pt" height="512pt"><defs><clipPath id="_clipPath_tX5KrQkeiJm15ehe3RFwSkC6YBXfOa8S"><rect width="512" height="512"/></clipPath></defs><g clip-path="url(#_clipPath_tX5KrQkeiJm15ehe3RFwSkC6YBXfOa8S)"><path d=" M 242.506 279.734 C 170.539 291.984 73.307 301.171 0.574 323.373 C -0.191 323.373 -0.191 324.139 0.574 324.139 C 177.43 318.78 368.831 319.545 511.234 324.139 C 511.234 324.139 512 323.373 512 323.373 C 508.938 306.53 495.157 287.39 456.111 287.39 L 433.142 287.39 C 433.142 287.39 432.377 288.156 432.377 288.156 C 438.502 304.233 420.893 314.952 409.409 304.999 C 404.815 301.171 399.456 290.452 412.471 282.031 C 421.658 275.14 436.205 265.953 444.627 260.594 C 475.251 241.453 470.657 213.892 430.08 210.829 C 332.848 203.173 159.821 193.22 90.916 187.861 C 89.385 187.861 88.619 188.627 89.385 189.392 C 146.04 220.016 197.335 223.079 253.99 243.75 C 287.677 256.766 280.787 273.609 242.506 279.734 Z " fill="rgb(0,122,194)"/></g></svg>