<?xml version="1.0" encoding="UTF-8" standalone="no"?><!-- Generator: Gravit.io --><svg xmlns="http://www.w3.org/2000/svg" xmlns:xlink="http://www.w3.org/1999/xlink" style="isolation:isolate" viewBox="0 0 512 512" width="512pt" height="512pt"><defs><clipPath id="_clipPath_wYaN9ceKVOWAJwJGSeuI3BHKPYIjYQB2"><rect width="512" height="512"/></clipPath></defs><g clip-path="url(#_clipPath_wYaN9ceKVOWAJwJGSeuI3BHKPYIjYQB2)"><path d=" M 353.415 176.675 C 361.413 176.766 366.89 179.135 371.334 181.23 C 380.597 185.624 391.44 190.676 405.026 197.246 C 405.026 197.307 426.923 181.635 428.097 180.825 C 435.579 175.774 442.756 179.621 445.075 183.984 C 453.254 199.423 468.328 231.423 476.286 260.721 C 477.197 264.254 476.093 269.67 470.596 271.371 C 467.417 272.262 461.971 273.062 456.281 273.78 C 448.334 274.762 448.476 281.201 448.476 285.068 C 448.476 289.897 448.537 322.181 448.537 333.247 C 448.719 340.029 443.546 362.21 417.923 362.21 C 416.212 362.21 359.226 362.21 359.479 362.21 C 337.369 362.301 319.592 343.593 319.471 323.71 C 319.451 310.63 319.471 219.639 319.501 209.445 C 319.613 189.744 337.309 176.452 353.415 176.675 L 353.415 176.675 Z " fill="rgb(12,47,89)"/><path d=" M 260.946 362.21 L 70.906 362.21 L 70.906 383.318 L 293.888 383.318 C 293.888 383.318 301.977 364.65 301.977 343.978 C 301.977 342.884 302.048 200.718 302.048 200.718 C 302.048 189.431 306.644 170.307 329.868 165.255 C 330.506 165.114 331.154 164.972 331.832 164.85 C 397.635 149.311 465.453 163.463 503.751 179.945 C 510.615 183.296 512.184 177.809 511.981 175.47 C 512.771 143.277 488.292 106.569 443.293 104.362 C 406.696 103.522 386.418 116.632 378.988 120.256 C 378.36 120.58 377.469 120.438 376.619 119.497 C 369.886 112.856 355.491 102.884 339.293 98.278 C 336.863 97.741 336.681 94.147 339.435 93.864 C 374.027 90.128 404.378 94.096 416.981 96.121 C 419.907 96.627 422.124 94.916 420.96 92.234 C 420.029 90.169 419.33 89.257 417.852 86.099 C 414.764 79.448 406.625 72.442 396.269 69.537 C 369.036 61.964 322.68 55.424 281.426 55.181 C 234.959 54.888 185.961 64.161 173.579 66.985 C 170.623 67.613 166.463 68.686 165.703 68.808 C 162.322 69.496 161.512 72.726 163.01 74.285 C 163.901 75.267 166.483 77.443 167.708 78.941 C 169.236 80.865 169.935 83.598 167.04 86.443 L 81.09 163.605 L 139.898 163.605 L 140.566 163.605 C 144.383 163.474 148.027 166.986 148.027 171.38 C 148.068 175.318 144.859 179.104 140.85 179.104 L 140.384 179.104 L 63.971 179.104 L 40.596 200.364 L 140.607 200.364 L 141.174 200.313 C 145.112 200.364 148.159 204.363 148.088 208.109 C 148.058 211.51 145.162 215.701 141.174 215.701 L 140.566 215.762 L 23.467 215.762 L 0.051 236.87 L 202.047 236.87 L 202.695 236.89 C 206.674 236.89 209.761 241.01 209.792 244.584 C 209.852 248.714 206.927 252.42 202.847 252.399 L 202.3 252.399 L 0 252.399 L 0 273.507 L 201.834 273.507 L 202.442 273.558 C 207.079 273.598 209.782 277.779 209.761 281.576 C 209.731 285.139 206.37 288.915 202.351 288.915 L 201.814 288.915 L 0 288.915 L 0 310.144 L 263.487 310.144 L 264.125 310.144 C 268.519 310.266 271.313 314.032 271.191 318.162 C 271.07 321.736 268.104 325.502 264.155 325.502 L 263.568 325.502 L 70.987 325.502 L 70.987 346.772 L 260.946 346.772 L 264.986 346.721 C 268.539 346.721 271.606 351.145 271.606 354.719 C 271.606 358.313 268.468 362.2 264.884 362.2 L 260.946 362.21 L 260.946 362.21 Z " fill="rgb(12,47,89)"/><path d=" M 141.893 435.161 L 141.872 456.785 C 141.872 456.785 170.431 456.876 186.71 456.785 C 226.86 456.471 253.161 435.161 253.161 435.161 L 141.893 435.161 L 141.893 435.161 Z " fill="rgb(12,47,89)"/><path d=" M 141.893 398.797 L 141.872 419.955 L 270.857 419.955 C 276.8 413.891 284.443 402.877 286.478 398.848 L 141.893 398.797 L 141.893 398.797 Z " fill="rgb(12,47,89)"/></g></svg>