<?xml version="1.0" encoding="UTF-8" standalone="no"?>
<svg
   xmlns:dc="http://purl.org/dc/elements/1.1/"
   xmlns:cc="http://creativecommons.org/ns#"
   xmlns:rdf="http://www.w3.org/1999/02/22-rdf-syntax-ns#"
   xmlns:svg="http://www.w3.org/2000/svg"
   xmlns="http://www.w3.org/2000/svg"
   xmlns:sodipodi="http://sodipodi.sourceforge.net/DTD/sodipodi-0.dtd"
   xmlns:inkscape="http://www.inkscape.org/namespaces/inkscape"
   version="1.1"
   id="svg2"
   xml:space="preserve"
   width="149"
   height="42"
   sodipodi:docname="Aeroflot logo (en).svg"
   viewBox="0 0 149 42"
   inkscape:version="1.0.2 (e86c870879, 2021-01-15)"><metadata
     id="metadata8"><rdf:RDF><cc:Work
         rdf:about=""><dc:format>image/svg+xml</dc:format><dc:type
           rdf:resource="http://purl.org/dc/dcmitype/StillImage" /><dc:title></dc:title></cc:Work></rdf:RDF></metadata><defs
     id="defs6"><clipPath
       clipPathUnits="userSpaceOnUse"
       id="clipPath17834"><path
         d="M 0,0 H 623.622 V 765.354 H 0 Z"
         id="path17832" /></clipPath><clipPath
       clipPathUnits="userSpaceOnUse"
       id="clipPath17846"><path
         d="m 230.859,516.001 -1.226,-1.263 c 6.228,4.567 9.799,4.954 14.956,4.908 v 0 c 0.459,-0.05 0.918,-0.05 1.224,0.533 v 0 l 1.532,2.138 c -7.197,-0.098 -10.415,-1.847 -16.486,-6.316"
         id="path17844" /></clipPath><linearGradient
       x1="0"
       y1="0"
       x2="1"
       y2="0"
       gradientUnits="userSpaceOnUse"
       gradientTransform="matrix(7.5348897,-7.4304104,-7.4304104,-7.5348897,240.91377,530.41853)"
       spreadMethod="pad"
       id="linearGradient17862"><stop
         style="stop-opacity:1;stop-color:#c00d0d"
         offset="0"
         id="stop17852" /><stop
         style="stop-opacity:1;stop-color:#e30613"
         offset="0.300003"
         id="stop17854" /><stop
         style="stop-opacity:1;stop-color:#f6b2b6"
         offset="0.529175"
         id="stop17856" /><stop
         style="stop-opacity:1;stop-color:#e30613"
         offset="0.747455"
         id="stop17858" /><stop
         style="stop-opacity:1;stop-color:#c00d0d"
         offset="1"
         id="stop17860" /></linearGradient><clipPath
       clipPathUnits="userSpaceOnUse"
       id="clipPath17872"><path
         d="m 231.185,516.367 c -0.001,-0.01 -0.004,-0.019 -0.006,-0.029 v 0 c 5.93,5.427 10.968,7.877 15.332,8.401 v 0 c 0.406,0.486 1.753,2.29 2.159,2.874 v 0 c -9.859,-1.642 -14.385,-8.176 -17.485,-11.246"
         id="path17870" /></clipPath><linearGradient
       x1="0"
       y1="0"
       x2="1"
       y2="0"
       gradientUnits="userSpaceOnUse"
       gradientTransform="matrix(18.52318,-13.457878,-13.457878,-18.52318,237.14094,537.53115)"
       spreadMethod="pad"
       id="linearGradient17888"><stop
         style="stop-opacity:1;stop-color:#ffffff"
         offset="0"
         id="stop17878" /><stop
         style="stop-opacity:1;stop-color:#ffffff"
         offset="0.34"
         id="stop17880" /><stop
         style="stop-opacity:1;stop-color:#ffffff"
         offset="0.54"
         id="stop17882" /><stop
         style="stop-opacity:1;stop-color:#d3daf0"
         offset="0.91"
         id="stop17884" /><stop
         style="stop-opacity:1;stop-color:#d3daf0"
         offset="1"
         id="stop17886" /></linearGradient><clipPath
       clipPathUnits="userSpaceOnUse"
       id="clipPath17898"><path
         d="m 231.162,516.341 c -0.078,-0.076 -0.278,-0.31 -0.465,-0.488 v 0 c -0.059,-0.051 -0.166,-0.184 -0.171,-0.193 v 0 c 1.147,0.911 3.48,2.679 5.615,3.843 v 0 c 2.124,1.159 4.716,2.117 8.397,2.62 v 0 c 0.357,0.389 1.46,1.859 1.973,2.635 v 0 c -6.792,-0.972 -11.264,-4.772 -15.349,-8.417"
         id="path17896" /></clipPath><linearGradient
       x1="0"
       y1="0"
       x2="1"
       y2="0"
       gradientUnits="userSpaceOnUse"
       gradientTransform="matrix(9.3883743,-9.258194,-9.258194,-9.3883743,241.06942,531.88245)"
       spreadMethod="pad"
       id="linearGradient17916"><stop
         style="stop-opacity:1;stop-color:#004a93"
         offset="0"
         id="stop17904" /><stop
         style="stop-opacity:1;stop-color:#004a93"
         offset="0.12958"
         id="stop17906" /><stop
         style="stop-opacity:1;stop-color:#899dd0"
         offset="0.462249"
         id="stop17908" /><stop
         style="stop-opacity:1;stop-color:#004a93"
         offset="0.6371"
         id="stop17910" /><stop
         style="stop-opacity:1;stop-color:#004a93"
         offset="0.916614"
         id="stop17912" /><stop
         style="stop-opacity:1;stop-color:#004a93"
         offset="1"
         id="stop17914" /></linearGradient><clipPath
       clipPathUnits="userSpaceOnUse"
       id="clipPath17926"><path
         d="m 244.128,521.637 c -0.203,-0.533 0.102,-0.291 1.023,-0.828 v 0 c 0.716,-0.434 0.561,-0.63 0.508,-0.872 v 0 c 0.664,1.019 1.94,2.429 1.94,2.429 v 0 c -0.32,0.109 -0.662,0.154 -1.003,0.154 v 0 c -1.183,0 -2.349,-0.544 -2.468,-0.883"
         id="path17924" /></clipPath><linearGradient
       x1="0"
       y1="0"
       x2="1"
       y2="0"
       gradientUnits="userSpaceOnUse"
       gradientTransform="matrix(4.0321765,-2.6185262,-2.6185262,-4.0321765,245.48045,525.22862)"
       spreadMethod="pad"
       id="linearGradient17938"><stop
         style="stop-opacity:1;stop-color:#c00d0d"
         offset="0"
         id="stop17932" /><stop
         style="stop-opacity:1;stop-color:#e30613"
         offset="0.5"
         id="stop17934" /><stop
         style="stop-opacity:1;stop-color:#f6b2b6"
         offset="1"
         id="stop17936" /></linearGradient><clipPath
       clipPathUnits="userSpaceOnUse"
       id="clipPath17948"><path
         d="m 251.023,528.244 c -1.433,-0.147 -2.299,-0.533 -2.861,-1.215 v 0 l -1.914,-2.64 c 0.457,0.387 1.709,0.601 3.09,0.601 v 0 h 0.202 0.151 c 0.206,0 0.411,0.048 0.612,0.048 v 0 c 1.993,0.046 4.698,0.34 6.333,2.234 v 0 l 2.375,3.283 0.263,0.37 c -2.092,-2.719 -6.772,-2.438 -8.251,-2.681"
         id="path17946" /></clipPath><linearGradient
       x1="0"
       y1="0"
       x2="1"
       y2="0"
       gradientUnits="userSpaceOnUse"
       gradientTransform="matrix(11.176988,-9.279314,-9.279314,-11.176988,252.40273,538.25981)"
       spreadMethod="pad"
       id="linearGradient17964"><stop
         style="stop-opacity:1;stop-color:#d3ddf2"
         offset="0"
         id="stop17954" /><stop
         style="stop-opacity:1;stop-color:#d3ddf2"
         offset="0.0730286"
         id="stop17956" /><stop
         style="stop-opacity:1;stop-color:#004a93"
         offset="0.370789"
         id="stop17958" /><stop
         style="stop-opacity:1;stop-color:#d3ddf2"
         offset="0.949432"
         id="stop17960" /><stop
         style="stop-opacity:1;stop-color:#d3ddf2"
         offset="1"
         id="stop17962" /></linearGradient><clipPath
       clipPathUnits="userSpaceOnUse"
       id="clipPath17974"><path
         d="m 260.834,533.507 c -2.085,-1.827 -4.321,-1.927 -6.242,-2.201 v 0 c -0.611,-0.1 -1.988,-0.05 -3.114,-0.78 v 0 c -1.175,-0.729 -2.596,-2.506 -3.263,-3.429 v 0 c 0.616,0.679 1.531,0.903 2.754,1.051 v 0 c 1.229,0.146 2.963,0.096 4.238,0.291 v 0 c 1.222,0.144 2.349,0.387 3.88,2.524 v 0 l 1.872,2.544 z"
         id="path17972" /></clipPath><linearGradient
       x1="0"
       y1="0"
       x2="1"
       y2="0"
       gradientUnits="userSpaceOnUse"
       gradientTransform="matrix(10.530409,-8.7425146,-8.7425146,-10.530409,254.7667,540.87449)"
       spreadMethod="pad"
       id="linearGradient17990"><stop
         style="stop-opacity:1;stop-color:#ffffff"
         offset="0"
         id="stop17980" /><stop
         style="stop-opacity:1;stop-color:#ffffff"
         offset="0.174164"
         id="stop17982" /><stop
         style="stop-opacity:1;stop-color:#e3e7f6"
         offset="0.353928"
         id="stop17984" /><stop
         style="stop-opacity:1;stop-color:#ffffff"
         offset="0.699997"
         id="stop17986" /><stop
         style="stop-opacity:1;stop-color:#ffffff"
         offset="1"
         id="stop17988" /></linearGradient><clipPath
       clipPathUnits="userSpaceOnUse"
       id="clipPath18000"><path
         d="m 252.143,525.33 c -1.48,-0.196 -3.168,-0.246 -3.674,-0.292 v 0 c -0.816,0 -1.942,-0.291 -2.245,-0.68 v 0 c -0.971,-1.167 -1.837,-2.235 -2.096,-2.721 v 0 c 0.562,0.536 2.452,0.486 4.752,0.582 v 0 c 2.293,0.098 4.591,1.119 6.428,3.207 v 0 l 1.394,1.953 c -0.92,-1.214 -2.566,-1.757 -4.559,-2.049"
         id="path17998" /></clipPath><linearGradient
       x1="0"
       y1="0"
       x2="1"
       y2="0"
       gradientUnits="userSpaceOnUse"
       gradientTransform="matrix(9.4637604,-7.8569655,-7.8569655,-9.4637604,250.34577,534.28527)"
       spreadMethod="pad"
       id="linearGradient18020"><stop
         style="stop-opacity:1;stop-color:#f6b2b6"
         offset="0"
         id="stop18006" /><stop
         style="stop-opacity:1;stop-color:#f6b2b6"
         offset="0.0561829"
         id="stop18008" /><stop
         style="stop-opacity:1;stop-color:#e30613"
         offset="0.276074"
         id="stop18010" /><stop
         style="stop-opacity:1;stop-color:#c00d0d"
         offset="0.516861"
         id="stop18012" /><stop
         style="stop-opacity:1;stop-color:#e30613"
         offset="0.6919"
         id="stop18014" /><stop
         style="stop-opacity:1;stop-color:#f5a9a8"
         offset="0.891412"
         id="stop18016" /><stop
         style="stop-opacity:1;stop-color:#f6b2b6"
         offset="1"
         id="stop18018" /></linearGradient><clipPath
       clipPathUnits="userSpaceOnUse"
       id="clipPath18030"><path
         d="M 0,0 H 623.622 V 765.354 H 0 Z"
         id="path18028" /></clipPath><clipPath
       clipPathUnits="userSpaceOnUse"
       id="clipPath18050"><path
         d="M 0,0 H 623.622 V 765.354 H 0 Z"
         id="path18048" /></clipPath><clipPath
       clipPathUnits="userSpaceOnUse"
       id="clipPath18074"><path
         d="M 0,0 H 623.622 V 765.354 H 0 Z"
         id="path18072" /></clipPath><clipPath
       clipPathUnits="userSpaceOnUse"
       id="clipPath18094"><path
         d="M 0,0 H 623.622 V 765.354 H 0 Z"
         id="path18092" /></clipPath><clipPath
       clipPathUnits="userSpaceOnUse"
       id="clipPath18158"><path
         d="M 0,0 H 623.622 V 765.354 H 0 Z"
         id="path18156" /></clipPath></defs><sodipodi:namedview
     pagecolor="#ffffff"
     bordercolor="#666666"
     borderopacity="1"
     objecttolerance="10"
     gridtolerance="10"
     guidetolerance="10"
     inkscape:pageopacity="0"
     inkscape:pageshadow="2"
     inkscape:window-width="1600"
     inkscape:window-height="837"
     id="namedview4"
     showgrid="false"
     inkscape:zoom="7.2080537"
     inkscape:cx="74.5"
     inkscape:cy="19.658171"
     inkscape:window-x="-8"
     inkscape:window-y="-8"
     inkscape:window-maximized="1"
     inkscape:current-layer="g10" /><g
     id="g10"
     inkscape:groupmode="layer"
     inkscape:label="aeroflot_ar16_eng"
     transform="matrix(1.3333333,0,0,-1.3333333,0,1020.472)"><g
       id="g17828"
       transform="translate(-149.9094,231.3713)"><g
         id="g17830"
         clip-path="url(#clipPath17834)"><g
           id="g17836"
           transform="translate(261.0751,533.9749)"><path
             d="m 0,0 c -1.938,-1.941 -4.029,-2.185 -5.919,-2.428 l -0.929,-0.118 c -1.014,-0.107 -1.879,-0.173 -2.848,-0.806 -0.969,-0.58 -2.094,-1.894 -2.861,-2.865 -3.011,-0.534 -5.514,-1.505 -7.656,-2.673 -3.778,-2.138 -6.382,-4.955 -8.32,-7.044 l -1.889,-2.234 0.356,0.098 c 3.471,3.254 6.737,5.587 9.853,6.993 1.939,0.923 3.828,1.46 5.665,1.653 h 0.053 l 1.989,2.625 c 0.511,0.484 1.277,0.68 2.4,0.776 l 1.994,0.145 1.681,0.097 0.563,0.05 c 1.326,0.195 2.449,0.485 4.033,2.624 l 2.093,2.915 z m -14.033,-8.207 c 0,0 -0.562,-0.778 -0.669,-0.876 -1.784,-0.243 -3.621,-0.779 -5.511,-1.603 -2.399,-1.116 -4.849,-2.672 -7.403,-4.81 1.789,1.944 4.135,4.325 7.403,6.17 2.044,1.166 4.491,2.14 7.402,2.671 -0.204,-0.193 -1.222,-1.552 -1.222,-1.552 m 11.893,5.294 c -1.481,-2.04 -2.506,-2.333 -3.779,-2.479 l -0.512,-0.048 -1.732,-0.096 -1.995,-0.145 c -0.815,-0.1 -1.427,-0.244 -1.942,-0.536 0.67,0.825 1.688,2.038 2.555,2.624 0.921,0.582 1.993,0.631 2.653,0.729 l 0.409,0.047 h 0.052 l 0.563,0.049 c 1.583,0.195 3.369,0.486 5.106,1.751 -0.613,-0.876 -1.378,-1.896 -1.378,-1.896"
             style="fill:#000000;fill-opacity:1;fill-rule:nonzero;stroke:none"
             id="path17838" /></g></g></g><g
       id="g17840"
       transform="translate(-149.9094,231.3713)"><g
         id="g17842"
         clip-path="url(#clipPath17846)"><g
           id="g17848"><g
             id="g17850"><path
               d="m 230.859,516.001 -1.226,-1.263 c 6.228,4.567 9.799,4.954 14.956,4.908 v 0 c 0.459,-0.05 0.918,-0.05 1.224,0.533 v 0 l 1.532,2.138 c -7.197,-0.098 -10.415,-1.847 -16.486,-6.316"
               style="fill:url(#linearGradient17862);stroke:none"
               id="path17864" /></g></g></g></g><g
       id="g17866"
       transform="translate(-149.9094,231.3713)"><g
         id="g17868"
         clip-path="url(#clipPath17872)"><g
           id="g17874"><g
             id="g17876"><path
               d="m 231.185,516.367 c -0.001,-0.01 -0.004,-0.019 -0.006,-0.029 v 0 c 5.93,5.427 10.968,7.877 15.332,8.401 v 0 c 0.406,0.486 1.753,2.29 2.159,2.874 v 0 c -9.859,-1.642 -14.385,-8.176 -17.485,-11.246"
               style="fill:url(#linearGradient17888);stroke:none"
               id="path17890" /></g></g></g></g><g
       id="g17892"
       transform="translate(-149.9094,231.3713)"><g
         id="g17894"
         clip-path="url(#clipPath17898)"><g
           id="g17900"><g
             id="g17902"><path
               d="m 231.162,516.341 c -0.078,-0.076 -0.278,-0.31 -0.465,-0.488 v 0 c -0.059,-0.051 -0.166,-0.184 -0.171,-0.193 v 0 c 1.147,0.911 3.48,2.679 5.615,3.843 v 0 c 2.124,1.159 4.716,2.117 8.397,2.62 v 0 c 0.357,0.389 1.46,1.859 1.973,2.635 v 0 c -6.792,-0.972 -11.264,-4.772 -15.349,-8.417"
               style="fill:url(#linearGradient17916);stroke:none"
               id="path17918" /></g></g></g></g><g
       id="g17920"
       transform="translate(-149.9094,231.3713)"><g
         id="g17922"
         clip-path="url(#clipPath17926)"><g
           id="g17928"><g
             id="g17930"><path
               d="m 244.128,521.637 c -0.203,-0.533 0.102,-0.291 1.023,-0.828 v 0 c 0.716,-0.434 0.561,-0.63 0.508,-0.872 v 0 c 0.664,1.019 1.94,2.429 1.94,2.429 v 0 c -0.32,0.109 -0.662,0.154 -1.003,0.154 v 0 c -1.183,0 -2.349,-0.544 -2.468,-0.883"
               style="fill:url(#linearGradient17938);stroke:none"
               id="path17940" /></g></g></g></g><g
       id="g17942"
       transform="translate(-149.9094,231.3713)"><g
         id="g17944"
         clip-path="url(#clipPath17948)"><g
           id="g17950"><g
             id="g17952"><path
               d="m 251.023,528.244 c -1.433,-0.147 -2.299,-0.533 -2.861,-1.215 v 0 l -1.914,-2.64 c 0.457,0.387 1.709,0.601 3.09,0.601 v 0 h 0.202 0.151 c 0.206,0 0.411,0.048 0.612,0.048 v 0 c 1.993,0.046 4.698,0.34 6.333,2.234 v 0 l 2.375,3.283 0.263,0.37 c -2.092,-2.719 -6.772,-2.438 -8.251,-2.681"
               style="fill:url(#linearGradient17964);stroke:none"
               id="path17966" /></g></g></g></g><g
       id="g17968"
       transform="translate(-149.9094,231.3713)"><g
         id="g17970"
         clip-path="url(#clipPath17974)"><g
           id="g17976"><g
             id="g17978"><path
               d="m 260.834,533.507 c -2.085,-1.827 -4.321,-1.927 -6.242,-2.201 v 0 c -0.611,-0.1 -1.988,-0.05 -3.114,-0.78 v 0 c -1.175,-0.729 -2.596,-2.506 -3.263,-3.429 v 0 c 0.616,0.679 1.531,0.903 2.754,1.051 v 0 c 1.229,0.146 2.963,0.096 4.238,0.291 v 0 c 1.222,0.144 2.349,0.387 3.88,2.524 v 0 l 1.872,2.544 z"
               style="fill:url(#linearGradient17990);stroke:none"
               id="path17992" /></g></g></g></g><g
       id="g17994"
       transform="translate(-149.9094,231.3713)"><g
         id="g17996"
         clip-path="url(#clipPath18000)"><g
           id="g18002"><g
             id="g18004"><path
               d="m 252.143,525.33 c -1.48,-0.196 -3.168,-0.246 -3.674,-0.292 v 0 c -0.816,0 -1.942,-0.291 -2.245,-0.68 v 0 c -0.971,-1.167 -1.837,-2.235 -2.096,-2.721 v 0 c 0.562,0.536 2.452,0.486 4.752,0.582 v 0 c 2.293,0.098 4.591,1.119 6.428,3.207 v 0 l 1.394,1.953 c -0.92,-1.214 -2.566,-1.757 -4.559,-2.049"
               style="fill:url(#linearGradient18020);stroke:none"
               id="path18022" /></g></g></g></g><g
       id="g18024"
       transform="translate(-149.9094,231.3713)"><g
         id="g18026"
         clip-path="url(#clipPath18030)"><g
           id="g18032"
           transform="translate(154.2346,511.964)"><path
             d="m 0,0 -0.865,0.378 3.59,0.438 C 2.789,0.712 2.851,0.62 2.923,0.524 Z m 9.637,0 0.866,0.402 -3.57,0.425 C 6.902,0.712 6.807,0.62 6.743,0.524 Z M 9.116,-0.06 8.028,-0.424 6.482,0.044 6.348,0.087 C 6.399,0.128 6.442,0.168 6.482,0.223 6.547,0.274 6.599,0.348 6.66,0.402 Z m 2.87,1.012 -0.993,-0.46 -3.967,0.46 C 7.059,1.046 7.09,1.14 7.119,1.236 Z M 12.34,1.09 13.636,1.913 H 6.621 C 6.621,1.62 6.578,1.368 6.482,1.152 6.213,0.452 5.534,0.117 4.856,0.128 4.189,0.147 3.509,0.492 3.207,1.13 3.101,1.362 3.039,1.608 3.039,1.913 H -3.998 L -2.715,1.09 2.662,1.368 C 2.766,0.985 2.957,0.65 3.207,0.402 c 0.428,-0.452 1.042,-0.7 1.649,-0.7 0.596,-0.014 1.199,0.207 1.626,0.687 0.231,0.25 0.408,0.574 0.514,0.962 z M 6.482,-1.042 6.193,-0.477 c 0.133,0.075 0.206,0.157 0.289,0.24 0.043,0.033 0.076,0.062 0.117,0.093 L 6.482,-0.101 6.201,-0.017 C 5.772,-0.32 5.316,-0.466 4.856,-0.455 c -0.46,0 -0.929,0.143 -1.358,0.405 L 3.246,-0.352 C 3.331,-0.435 3.414,-0.477 3.509,-0.54 L 3.207,-1.083 3.08,-1.292 C 3.101,-1.366 3.153,-1.417 3.207,-1.448 3.31,-1.524 3.466,-1.533 3.582,-1.524 l 0.353,0.796 c 0.282,-0.092 0.607,-0.137 0.921,-0.124 0.294,0.01 0.584,0.063 0.846,0.154 l 0.417,-0.826 0.363,0.167 0.139,0.065 z m 0,4.271 C 6.754,2.907 6.954,2.508 7.059,2.048 H 6.611 C 6.578,2.184 6.536,2.321 6.482,2.445 6.183,3.238 5.565,3.802 4.856,4.273 4.762,4.326 4.677,4.387 4.584,4.439 4.677,4.408 4.762,4.377 4.856,4.345 5.501,4.085 6.076,3.729 6.482,3.229 M 5.271,0.285 4.605,1.693 4.095,1.465 3.779,2.175 4.856,2.665 5.106,2.778 5.731,2.236 4.99,1.882 5.702,0.473 C 5.565,0.369 5.389,0.304 5.271,0.285 M 3.331,0.087 C 3.289,0.117 3.246,0.158 3.207,0.191 3.122,0.264 3.048,0.338 2.999,0.411 L 0.544,-0.052 1.589,-0.402 Z M 2.662,0.952 C 2.621,1.046 2.591,1.14 2.558,1.236 L -2.349,0.952 -1.356,0.473 Z"
             style="fill:#004a93;fill-opacity:1;fill-rule:nonzero;stroke:none"
             id="path18034" /></g><g
           id="g18036"
           transform="translate(187.7296,504.8693)"><path
             d="m 0,0 c 1.618,-0.255 4.719,-0.655 8.517,-0.738 3.789,-0.095 8.244,0.126 12.454,0.755 4.209,0.611 8.155,1.637 10.958,2.744 2.823,1.064 4.403,2.359 4.395,2.366 C 36.339,5.118 34.695,3.619 31.704,2.332 28.742,0.996 24.564,-0.286 20.163,-1.112 15.766,-1.963 11.155,-2.352 7.403,-2.375 3.653,-2.418 0.74,-2.081 -0.281,-1.92 -3.81,-1.394 -6.373,-0.466 -7.937,0.427 -9.516,1.328 -10.042,2.141 -9.878,2.3 -9.703,2.487 -8.917,2.107 -7.325,1.615 -5.73,1.114 -3.303,0.491 0,0"
             style="fill:#ee7203;fill-opacity:1;fill-rule:nonzero;stroke:none"
             id="path18038" /></g></g></g><g
       id="g18040"
       transform="translate(20.067402,751.0249)"><path
         d="m 0,0 v 1.151 h -4.541 v 2.167 h 4.083 v 1.139 h -4.083 v 1.972 h 4.303 V 7.567 H -7.566 V 0 Z"
         style="fill:#004a93;fill-opacity:1;fill-rule:nonzero;stroke:none"
         id="path18042" /></g><g
       id="g18044"
       transform="translate(-149.9094,231.3713)"><g
         id="g18046"
         clip-path="url(#clipPath18050)"><g
           id="g18052"
           transform="translate(174.4042,519.6536)"><path
             d="M 0,0 V 6.429 H 1.778 C 2.319,6.429 2.82,6.388 3.276,6.083 3.608,5.848 3.816,5.511 3.816,5.094 3.816,4.746 3.693,4.387 3.235,4.097 2.637,3.708 1.598,3.654 0.944,3.734 L 0.571,3.778 3.584,0 H 7.08 L 4.22,3.154 c 0.513,0.056 1.335,0.259 1.833,0.58 0.596,0.404 0.902,1 0.902,1.558 0,0.623 -0.336,1.302 -1.096,1.748 C 4.956,7.553 3.721,7.567 2.582,7.567 H -3.039 V 0 Z"
             style="fill:#004a93;fill-opacity:1;fill-rule:nonzero;stroke:none"
             id="path18054" /></g></g></g><g
       id="g18056"
       transform="translate(48.926502,751.0249)"><path
         d="M 0,0 V 3.194 H 4.082 V 4.333 H 0 V 6.429 H 4.415 V 7.567 H -3.023 V 0 Z"
         style="fill:#004a93;fill-opacity:1;fill-rule:nonzero;stroke:none"
         id="path18058" /></g><g
       id="g18060"
       transform="translate(57.479202,758.5922)"><path
         d="m 0,0 h -3.041 v -7.567 h 7.499 v 1.151 H 0 Z"
         style="fill:#004a93;fill-opacity:1;fill-rule:nonzero;stroke:none"
         id="path18062" /></g><g
       id="g18064"
       transform="translate(74.430402,757.4535)"><path
         d="M 0,0 H 3.262 V -6.429 H 6.303 V 0 h 3.26 V 1.139 H 0 Z"
         style="fill:#004a93;fill-opacity:1;fill-rule:nonzero;stroke:none"
         id="path18066" /></g><g
       id="g18068"
       transform="translate(-149.9094,231.3713)"><g
         id="g18070"
         clip-path="url(#clipPath18074)"><g
           id="g18076"
           transform="translate(217.8994,527.4417)"><path
             d="m 0,0 c -1.416,0 -3.402,-0.32 -4.735,-1.275 -1.057,-0.75 -1.555,-1.822 -1.555,-2.735 0,-0.904 0.498,-1.974 1.555,-2.723 1.333,-0.942 3.319,-1.263 4.735,-1.263 1.415,0 3.413,0.321 4.745,1.263 1.056,0.749 1.543,1.819 1.543,2.723 0,0.913 -0.487,1.985 -1.543,2.735 C 3.413,-0.32 1.415,-0.013 0,0 m 0,-7.08 c -0.751,0 -1.64,0.167 -2.293,0.987 -0.541,0.665 -0.638,1.431 -0.638,2.083 0,0.679 0.097,1.43 0.638,2.096 0.653,0.834 1.542,0.999 2.293,0.999 0.761,0 1.639,-0.165 2.302,-0.999 0.542,-0.666 0.64,-1.417 0.64,-2.096 0,-0.652 -0.098,-1.418 -0.64,-2.083 C 1.639,-6.913 0.761,-7.08 0,-7.08"
             style="fill:#004a93;fill-opacity:1;fill-rule:nonzero;stroke:none"
             id="path18078" /></g><g
           id="g18080"
           transform="translate(188.4746,527.4417)"><path
             d="M 0,0 C -1.415,0 -3.4,-0.32 -4.732,-1.275 -5.79,-2.025 -6.29,-3.097 -6.29,-4.01 c 0,-0.904 0.5,-1.974 1.558,-2.723 1.332,-0.942 3.317,-1.263 4.732,-1.263 1.414,0 3.415,0.321 4.749,1.263 1.054,0.749 1.541,1.819 1.541,2.723 0,0.913 -0.487,1.985 -1.541,2.735 C 3.415,-0.32 1.414,-0.013 0,0 m 0,-7.08 c -0.75,0 -1.639,0.167 -2.29,0.987 -0.541,0.665 -0.64,1.431 -0.64,2.083 0,0.679 0.099,1.43 0.64,2.096 0.651,0.834 1.54,0.999 2.29,0.999 0.761,0 1.639,-0.165 2.304,-0.999 C 2.846,-2.58 2.943,-3.331 2.943,-4.01 2.943,-4.662 2.846,-5.428 2.304,-6.093 1.639,-6.913 0.761,-7.08 0,-7.08"
             style="fill:#004a93;fill-opacity:1;fill-rule:nonzero;stroke:none"
             id="path18082" /></g></g></g><g
       id="g18084"
       transform="translate(1.8393021,751.0249)"><path
         d="M 0,0 1.194,2.198 H 5.402 L 6.692,0 h 3.4 L 5.485,7.567 H 2.666 L -1.513,0 Z m 1.749,3.222 1.43,2.637 H 3.222 L 4.775,3.222 Z"
         style="fill:#004a93;fill-opacity:1;fill-rule:nonzero;stroke:none"
         id="path18086" /></g><g
       id="g18088"
       transform="translate(-149.9094,231.3713)"><g
         id="g18090"
         clip-path="url(#clipPath18094)"><g
           id="g18096"
           transform="translate(182.0819,513.5901)"><path
             d="m 0,0 -0.675,-2.485 c -0.082,-0.1 -0.212,-0.183 -0.33,-0.245 -0.18,-0.098 -0.36,-0.151 -0.527,-0.151 -0.164,0 -0.311,0.067 -0.379,0.167 -0.048,0.083 -0.097,0.214 -0.031,0.446 L -1.333,0 H -1.959 L -2.55,-2.188 c -0.05,-0.197 -0.132,-0.542 0.048,-0.806 0.1,-0.149 0.314,-0.314 0.755,-0.314 0.183,0 0.365,0.032 0.597,0.132 0.145,0.086 0.309,0.182 0.442,0.282 l -0.098,-0.348 h 0.559 L 0.628,0 Z"
             style="fill:#004a93;fill-opacity:1;fill-rule:nonzero;stroke:none"
             id="path18098" /></g><g
           id="g18100"
           transform="translate(186.088,513.2147)"><path
             d="m 0,0 c -0.149,0.196 -0.331,0.295 -0.364,0.312 -0.21,0.113 -0.442,0.132 -0.643,0.132 -0.213,0 -0.477,-0.019 -0.771,-0.198 -0.215,-0.15 -0.477,-0.378 -0.574,-0.758 -0.088,-0.28 -0.052,-0.492 0.048,-0.625 0.113,-0.15 0.311,-0.229 0.478,-0.279 l 0.311,-0.101 c 0.163,-0.034 0.329,-0.034 0.427,-0.162 0.05,-0.068 0.102,-0.151 0.067,-0.314 -0.05,-0.148 -0.146,-0.246 -0.231,-0.313 -0.114,-0.1 -0.313,-0.184 -0.591,-0.184 -0.181,0 -0.33,0.037 -0.478,0.119 -0.13,0.098 -0.23,0.181 -0.281,0.261 l -0.413,-0.38 c 0.298,-0.391 0.663,-0.443 1.022,-0.443 0.246,0 0.741,0.032 1.153,0.346 0.229,0.196 0.395,0.446 0.462,0.659 0.033,0.168 0.066,0.411 -0.016,0.562 -0.117,0.229 -0.379,0.326 -0.529,0.362 l -0.23,0.065 c -0.294,0.066 -0.427,0.099 -0.494,0.182 -0.064,0.047 -0.115,0.146 -0.064,0.344 0.03,0.081 0.099,0.215 0.227,0.314 0.165,0.099 0.317,0.115 0.431,0.115 0.147,0 0.28,-0.035 0.395,-0.115 0.099,-0.066 0.18,-0.149 0.247,-0.233 z"
             style="fill:#004a93;fill-opacity:1;fill-rule:nonzero;stroke:none"
             id="path18102" /></g><g
           id="g18104"
           transform="translate(189.4641,513.2147)"><path
             d="m 0,0 c -0.133,0.196 -0.313,0.295 -0.361,0.312 -0.197,0.113 -0.431,0.132 -0.626,0.132 -0.227,0 -0.477,-0.019 -0.774,-0.198 -0.215,-0.15 -0.478,-0.378 -0.594,-0.758 -0.061,-0.28 -0.031,-0.492 0.067,-0.625 0.116,-0.15 0.332,-0.229 0.477,-0.279 l 0.295,-0.101 c 0.165,-0.034 0.332,-0.034 0.446,-0.162 0.05,-0.068 0.099,-0.151 0.05,-0.314 -0.05,-0.148 -0.147,-0.246 -0.215,-0.313 -0.116,-0.1 -0.311,-0.184 -0.592,-0.184 -0.181,0 -0.328,0.037 -0.494,0.119 -0.132,0.098 -0.215,0.181 -0.28,0.261 l -0.412,-0.38 c 0.317,-0.391 0.677,-0.443 1.037,-0.443 0.25,0 0.741,0.032 1.154,0.346 0.23,0.196 0.395,0.446 0.444,0.659 0.05,0.168 0.065,0.411 -0.016,0.562 -0.099,0.229 -0.363,0.326 -0.526,0.362 l -0.232,0.065 c -0.282,0.066 -0.41,0.099 -0.479,0.182 -0.063,0.047 -0.112,0.146 -0.063,0.344 0.032,0.081 0.081,0.215 0.23,0.314 0.149,0.099 0.312,0.115 0.41,0.115 0.167,0 0.297,-0.035 0.413,-0.115 0.1,-0.066 0.18,-0.149 0.247,-0.233 z"
             style="fill:#004a93;fill-opacity:1;fill-rule:nonzero;stroke:none"
             id="path18106" /></g><g
           id="g18108"
           transform="translate(190.6722,513.5901)"><path
             d="M 0,0 -0.118,-0.426 H 0.261 L -0.494,-3.242 H 0.129 L 1.002,0 Z M 0.395,1.07 C 0.342,0.841 0.477,0.66 0.693,0.66 0.923,0.66 1.134,0.841 1.2,1.07 1.264,1.286 1.134,1.467 0.903,1.467 0.693,1.467 0.461,1.286 0.395,1.07"
             style="fill:#004a93;fill-opacity:1;fill-rule:nonzero;stroke:none"
             id="path18110" /></g><g
           id="g18112"
           transform="translate(196.7863,510.3483)"><path
             d="m 0,0 0.692,2.552 c 0.218,0.182 0.546,0.33 0.841,0.33 0.214,0 0.331,-0.081 0.378,-0.18 0.1,-0.15 0.051,-0.395 0.016,-0.495 L 1.335,0 H 1.962 L 2.553,2.157 C 2.621,2.422 2.651,2.734 2.504,2.997 2.372,3.21 2.127,3.31 1.779,3.31 1.568,3.31 1.205,3.261 0.808,2.997 L 0.875,3.242 H -0.132 L -0.245,2.816 H 0.133 L -0.623,0 Z"
             style="fill:#004a93;fill-opacity:1;fill-rule:nonzero;stroke:none"
             id="path18114" /></g><g
           id="g18116"
           transform="translate(176.195,515.0229)"><path
             d="m 0,0 -1.267,-4.675 h 0.707 l 0.548,2.056 h 0.474 l 0.659,-2.056 h 0.05 0.804 l -0.756,2.092 c 0.347,0.036 0.808,0.198 1.086,0.411 0.311,0.231 0.546,0.56 0.624,0.905 0.1,0.332 0.053,0.675 -0.143,0.904 C 2.521,-0.032 1.994,0 1.614,0 H 1.171 Z M 1.171,-2.087 H 1.055 0.134 l 0.413,1.546 h 0.624 0.314 c 0.1,0 0.41,0 0.575,-0.165 0.098,-0.1 0.181,-0.264 0.113,-0.527 C 2.108,-1.48 1.975,-1.678 1.78,-1.842 1.566,-2.006 1.335,-2.074 1.171,-2.087"
             style="fill:#004a93;fill-opacity:1;fill-rule:nonzero;stroke:none"
             id="path18118" /></g><g
           id="g18120"
           transform="translate(193.739,512.2414)"><path
             d="m 0,0 c -0.657,-0.066 -1.202,-0.329 -1.382,-1.005 -0.017,-0.079 -0.034,-0.146 -0.034,-0.212 v -0.115 c 0.017,-0.363 0.263,-0.627 0.807,-0.627 0.196,0 0.393,0.032 0.609,0.119 0.019,0 0.034,0.012 0.065,0.029 0.215,0.099 0.377,0.265 0.429,0.314 H 0.527 L 0.413,-1.893 H 0.974 L 1.549,0.198 C 1.632,0.529 1.712,0.858 1.531,1.104 1.381,1.335 1.005,1.417 0.71,1.417 0.428,1.417 0.182,1.383 0,1.335 -0.574,1.188 -0.79,0.841 -0.807,0.529 L -0.229,0.495 C -0.183,0.659 -0.114,0.775 0,0.858 0.133,0.954 0.33,0.989 0.577,0.989 0.71,0.989 0.872,0.973 0.938,0.858 1.039,0.742 1.005,0.577 0.974,0.428 L 0.856,0.017 H 0.396 C 0.262,0.017 0.117,0.017 0,0 m 0,-1.48 c -0.099,-0.037 -0.198,-0.052 -0.297,-0.052 -0.13,0 -0.295,0.015 -0.392,0.15 -0.083,0.116 -0.101,0.231 -0.051,0.395 0.033,0.13 0.098,0.263 0.262,0.394 0.098,0.067 0.231,0.15 0.478,0.18 0.082,0.02 0.182,0.035 0.298,0.035 H 0.76 L 0.577,-1.067 C 0.478,-1.201 0.379,-1.282 0.262,-1.366 0.166,-1.418 0.082,-1.465 0,-1.48"
             style="fill:#004a93;fill-opacity:1;fill-rule:nonzero;stroke:none"
             id="path18122" /></g><g
           id="g18124"
           transform="translate(208.7751,513.5901)"><path
             d="M 0,0 -0.114,-0.426 H 0.265 L -0.496,-3.242 H 0.131 L 1.003,0 Z M 0.578,1.07 C 0.527,0.841 0.659,0.66 0.875,0.66 1.087,0.66 1.318,0.841 1.383,1.07 1.45,1.286 1.318,1.467 1.087,1.467 0.875,1.467 0.64,1.286 0.578,1.07"
             style="fill:#004a93;fill-opacity:1;fill-rule:nonzero;stroke:none"
             id="path18126" /></g><g
           id="g18128"
           transform="translate(211.162,513.5901)"><path
             d="m 0,0 -0.871,-3.242 h 0.627 L 0.25,-1.38 c 0.081,0.213 0.162,0.427 0.279,0.591 0.197,0.315 0.425,0.363 0.559,0.363 0.083,0 0.181,-0.015 0.247,-0.082 0.046,-0.05 0.066,-0.146 0.066,-0.264 l 0.56,0.165 C 2.074,-0.279 1.961,-0.096 1.765,0 1.662,0.049 1.548,0.068 1.433,0.068 1.071,0.068 0.712,-0.129 0.462,-0.474 L 0.592,0 Z"
             style="fill:#004a93;fill-opacity:1;fill-rule:nonzero;stroke:none"
             id="path18130" /></g><g
           id="g18132"
           transform="translate(214.6225,515.0889)"><path
             d="m 0,0 -1.036,-3.853 c -0.08,-0.295 -0.231,-0.888 0.512,-0.888 h 0.361 l 0.115,0.428 h -0.179 c -0.313,0 -0.232,0.265 -0.217,0.329 L 0.627,0 Z"
             style="fill:#004a93;fill-opacity:1;fill-rule:nonzero;stroke:none"
             id="path18134" /></g><g
           id="g18136"
           transform="translate(216.3153,513.5901)"><path
             d="M 0,0 -0.11,-0.426 H 0.27 L -0.508,-3.242 H 0.134 L 1.008,0 Z M 0.578,1.07 C 0.527,0.841 0.661,0.66 0.875,0.66 1.107,0.66 1.32,0.841 1.385,1.07 1.435,1.286 1.302,1.467 1.091,1.467 0.858,1.467 0.645,1.286 0.578,1.07"
             style="fill:#004a93;fill-opacity:1;fill-rule:nonzero;stroke:none"
             id="path18138" /></g><g
           id="g18140"
           transform="translate(218.6173,510.3483)"><path
             d="m 0,0 0.674,2.552 c 0.229,0.182 0.56,0.33 0.855,0.33 0.214,0 0.332,-0.081 0.379,-0.18 C 2.023,2.552 1.942,2.307 1.925,2.207 L 1.334,0 H 1.958 L 2.549,2.157 C 2.616,2.422 2.649,2.734 2.5,2.997 2.372,3.21 2.121,3.31 1.777,3.31 1.547,3.31 1.216,3.261 0.806,2.997 L 0.872,3.242 H -0.132 L -0.248,2.816 H 0.129 L -0.626,0 Z"
             style="fill:#004a93;fill-opacity:1;fill-rule:nonzero;stroke:none"
             id="path18142" /></g><g
           id="g18144"
           transform="translate(228.2804,513.2147)"><path
             d="M 0,0 C -0.129,0.196 -0.293,0.295 -0.346,0.312 -0.56,0.425 -0.77,0.444 -0.97,0.444 c -0.233,0 -0.478,-0.019 -0.772,-0.198 -0.232,-0.15 -0.495,-0.378 -0.593,-0.758 -0.086,-0.28 -0.034,-0.492 0.063,-0.625 0.099,-0.15 0.314,-0.229 0.463,-0.279 l 0.313,-0.101 c 0.162,-0.034 0.331,-0.034 0.424,-0.162 0.07,-0.068 0.102,-0.151 0.07,-0.314 -0.048,-0.148 -0.146,-0.246 -0.232,-0.313 -0.1,-0.1 -0.297,-0.184 -0.592,-0.184 -0.185,0 -0.315,0.037 -0.479,0.119 -0.131,0.098 -0.227,0.181 -0.278,0.261 l -0.412,-0.38 c 0.296,-0.391 0.66,-0.443 1.021,-0.443 0.264,0 0.74,0.032 1.152,0.346 0.232,0.196 0.393,0.446 0.461,0.659 0.05,0.168 0.068,0.411 -0.013,0.562 -0.102,0.229 -0.383,0.326 -0.528,0.362 l -0.233,0.065 c -0.276,0.066 -0.411,0.099 -0.493,0.182 -0.051,0.047 -0.114,0.146 -0.066,0.344 0.033,0.081 0.079,0.215 0.232,0.314 0.161,0.099 0.327,0.115 0.427,0.115 0.165,0 0.278,-0.035 0.409,-0.115 0.084,-0.066 0.165,-0.149 0.232,-0.233 z"
             style="fill:#004a93;fill-opacity:1;fill-rule:nonzero;stroke:none"
             id="path18146" /></g></g></g><g
       id="g18148"
       transform="translate(53.310602,741.7196)"><path
         d="M 0,0 H 0.707 L 1.415,1.137 H 3.209 L 3.291,0 H 4.099 L 3.655,4.675 H 3.079 Z M 1.745,1.68 3.012,3.671 H 3.026 L 3.178,1.68 Z"
         style="fill:#004a93;fill-opacity:1;fill-rule:nonzero;stroke:none"
         id="path18150" /></g><g
       id="g18152"
       transform="translate(-149.9094,231.3713)"><g
         id="g18154"
         clip-path="url(#clipPath18158)"><g
           id="g18160"
           transform="translate(222.7706,511.8288)"><path
             d="M 0,0 H 1.956 L 2.007,0.215 C 2.138,0.647 2.268,1.088 2.041,1.45 1.842,1.761 1.448,1.829 1.166,1.829 0.75,1.829 0.35,1.681 0.031,1.401 -0.398,1.022 -0.576,0.513 -0.675,0.084 c -0.099,-0.346 -0.199,-0.872 0.064,-1.252 0.247,-0.327 0.694,-0.379 1.004,-0.379 0.253,0 0.486,0.036 0.727,0.119 0.13,0.047 0.294,0.113 0.442,0.196 L 1.466,-0.853 C 1.315,-0.92 1.201,-0.969 1.036,-1.005 0.881,-1.032 0.737,-1.067 0.573,-1.067 c -0.245,0 -0.46,0.082 -0.573,0.228 -0.182,0.215 -0.1,0.546 -0.049,0.707 z M 0.097,0.43 0.13,0.575 C 0.198,0.743 0.278,1.006 0.491,1.188 0.629,1.324 0.843,1.401 1.036,1.401 1.201,1.401 1.364,1.352 1.448,1.253 1.594,1.054 1.528,0.775 1.466,0.561 L 1.43,0.43 Z"
             style="fill:#004a93;fill-opacity:1;fill-rule:nonzero;stroke:none"
             id="path18162" /></g></g></g></g></svg>
