<?xml version="1.0" encoding="UTF-8" standalone="no"?><!-- Generator: Gravit.io --><svg xmlns="http://www.w3.org/2000/svg" xmlns:xlink="http://www.w3.org/1999/xlink" style="isolation:isolate" viewBox="0 0 512 512" width="512pt" height="512pt"><defs><clipPath id="_clipPath_s3cGUCnfYflG3wDNrsxaAzi8jqk2td6p"><rect width="512" height="512"/></clipPath></defs><g clip-path="url(#_clipPath_s3cGUCnfYflG3wDNrsxaAzi8jqk2td6p)"><path d=" M 205.02 343.645 C 197.453 294.906 210.804 244.742 222.494 209.631 C 246.52 150.511 234.944 91.882 168.494 120.953 C 149.583 129.657 120.678 159.664 107.354 184.741 C 66.259 262.084 80.076 378.997 130.399 379.735 C 150.881 378.949 178.353 359.162 205.02 343.645 L 205.02 343.645 Z  M 62.363 433.343 C 44.06 427.511 20.117 401.855 10.881 378.179 C -3.882 335.245 -3.826 276.123 12.293 228.264 C 34.975 162.982 84.384 105.527 132.36 87.063 C 176.409 70.191 244.491 69.231 289.087 117.531 C 323.745 84.562 375.203 73.786 403.795 74.204 C 474.884 71.065 512 99.695 512 153.245 C 512 172.437 497.513 200.196 480.161 214.252 C 459.737 230.798 332.755 310.612 326.664 310.612 L 326.31 272.948 L 363.789 246.494 C 412.096 212.396 428.488 194.676 433.839 170.765 C 447.516 109.648 384.137 92.56 337.24 144.721 C 290.097 197.155 272.481 306.566 302.809 358.569 C 326.125 398.548 372.372 386.153 445.488 342.748 L 473.637 324.692 L 493.525 352.432 C 465.24 376.812 436.008 397.883 406.378 416.628 C 379.957 431.28 354.766 437.804 324.607 437.804 C 268.506 436.91 233.056 422.267 216.514 383.498 C 215.221 383.382 202.1 394.114 185.59 405.219 C 147.833 430.532 101.404 446.427 62.363 433.343 L 62.363 433.343 Z " fill="rgb(9,112,203)"/></g></svg>