<?xml version="1.0" encoding="UTF-8" standalone="no"?><!-- Generator: Gravit.io --><svg xmlns="http://www.w3.org/2000/svg" xmlns:xlink="http://www.w3.org/1999/xlink" style="isolation:isolate" viewBox="0 0 512 512" width="512pt" height="512pt"><defs><clipPath id="_clipPath_eqxtx4hWu8DvdpIN5jwExduzkIlAZ7SH"><rect width="512" height="512"/></clipPath></defs><g clip-path="url(#_clipPath_eqxtx4hWu8DvdpIN5jwExduzkIlAZ7SH)"><linearGradient id="_lgradient_3" x1="0.4998557618019479" y1="-0.02618730095009081" x2="0.49985576180194763" y2="1.5149259850340084" gradientTransform="matrix(289.675,0,0,211.545,222.325,295.498)" gradientUnits="userSpaceOnUse"><stop offset="0%" stop-opacity="1" style="stop-color:rgb(237,28,36)"/><stop offset="12.629999999999999%" stop-opacity="1" style="stop-color:rgb(232,27,35)"/><stop offset="27.029999999999998%" stop-opacity="1" style="stop-color:rgb(219,26,33)"/><stop offset="42.29%" stop-opacity="1" style="stop-color:rgb(196,23,29)"/><stop offset="58.160000000000004%" stop-opacity="1" style="stop-color:rgb(164,19,23)"/><stop offset="74.36%" stop-opacity="1" style="stop-color:rgb(123,14,16)"/><stop offset="75.46000000000001%" stop-opacity="1" style="stop-color:rgb(120,14,15)"/></linearGradient><path d=" M 277.32 460.766 C 306.076 508.033 352.021 507.041 364.25 507.041 L 512 507.041 L 337.697 295.498 C 257.267 298.804 214.738 350.367 223.442 371.962 L 277.32 460.766 Z " fill="url(#_lgradient_3)"/><linearGradient id="_lgradient_4" x1="-0.00025925925925562865" y1="0.49945837512537583" x2="0.9996388888888887" y2="0.49945837512537583" gradientTransform="matrix(118.993,0,0,109.848,218.705,262.224)" gradientUnits="userSpaceOnUse"><stop offset="0%" stop-opacity="1" style="stop-color:rgb(105,35,29)"/><stop offset="26.47%" stop-opacity="1" style="stop-color:rgb(141,41,34)"/><stop offset="58.120000000000005%" stop-opacity="1" style="stop-color:rgb(178,47,38)"/><stop offset="83.77%" stop-opacity="1" style="stop-color:rgb(201,51,41)"/><stop offset="100%" stop-opacity="1" style="stop-color:rgb(209,52,42)"/></linearGradient><path d=" M 223.442 372.072 C 223.222 371.742 218.705 361.055 218.705 348.164 C 218.705 299.905 261.564 272.14 310.153 262.224 L 337.697 295.608 C 257.267 298.804 214.738 350.367 223.442 372.072 Z " fill="url(#_lgradient_4)"/><linearGradient id="_lgradient_5" x1="0.19478691774033585" y1="0.539740350877193" x2="0.7910852329038622" y2="0.18144996435588573" gradientTransform="matrix(222.34,0,0,157.005,162.293,214.958)" gradientUnits="userSpaceOnUse"><stop offset="10%" stop-opacity="1" style="stop-color:rgb(231,235,238)"/><stop offset="35.11%" stop-opacity="1" style="stop-color:rgb(213,220,224)"/><stop offset="85.49%" stop-opacity="1" style="stop-color:rgb(165,180,187)"/><stop offset="100%" stop-opacity="1" style="stop-color:rgb(150,167,176)"/></linearGradient><path d=" M 290.651 214.958 C 217.162 214.958 162.293 227.077 162.293 255.834 C 162.293 266.411 165.598 275.556 174.633 291.752 L 223.442 371.962 C 223.222 371.632 218.705 360.944 218.705 348.053 C 218.705 299.795 261.564 272.03 310.153 262.114 C 324.256 259.249 338.799 257.817 352.902 257.817 C 364.801 257.817 376.04 258.478 384.634 261.563 C 379.565 243.053 366.124 214.958 290.651 214.958 L 290.651 214.958 Z " fill="url(#_lgradient_5)"/><linearGradient id="_lgradient_6" x1="0.4999002493765623" y1="1.1303391684901531" x2="0.49990024937656236" y2="0.012040481400437564" gradientTransform="matrix(265.09,0,0,201.406,0,4.957)" gradientUnits="userSpaceOnUse"><stop offset="0%" stop-opacity="1" style="stop-color:rgb(28,47,114)"/><stop offset="12.75%" stop-opacity="1" style="stop-color:rgb(23,70,135)"/><stop offset="40.38%" stop-opacity="1" style="stop-color:rgb(13,114,175)"/><stop offset="65.12%" stop-opacity="1" style="stop-color:rgb(6,146,204)"/><stop offset="85.84%" stop-opacity="1" style="stop-color:rgb(2,166,222)"/><stop offset="100%" stop-opacity="1" style="stop-color:rgb(0,173,228)"/></linearGradient><path d=" M 97.398 164.937 C 117.561 198.1 125.053 206.364 173.201 206.364 L 265.09 206.364 L 138.384 46.384 C 110.399 11.788 94.313 5.508 68.641 4.957 L 0 4.957 L 97.398 164.937 Z " fill="url(#_lgradient_6)"/></g></svg>