<?xml version="1.0" encoding="UTF-8" standalone="no"?><!-- Generator: Gravit.io --><svg xmlns="http://www.w3.org/2000/svg" xmlns:xlink="http://www.w3.org/1999/xlink" style="isolation:isolate" viewBox="0 0 512 512" width="512pt" height="512pt"><defs><clipPath id="_clipPath_YsjUreEO3sFrewdIuPFnhyULkGaoShrK"><rect width="512" height="512"/></clipPath></defs><g clip-path="url(#_clipPath_YsjUreEO3sFrewdIuPFnhyULkGaoShrK)"><linearGradient id="_lgradient_7" x1="0.6994934114202049" y1="-0.19661383743873712" x2="0.3382635431918004" y2="0.4290494129272943" gradientTransform="matrix(178.622,0,0,82.177,333.378,237.841)" gradientUnits="userSpaceOnUse"><stop offset="0%" stop-opacity="1" style="stop-color:rgb(230,235,239)"/><stop offset="7.64%" stop-opacity="1" style="stop-color:rgb(187,206,229)"/><stop offset="18.54%" stop-opacity="1" style="stop-color:rgb(133,169,216)"/><stop offset="27.96%" stop-opacity="1" style="stop-color:rgb(93,143,207)"/><stop offset="35.43%" stop-opacity="1" style="stop-color:rgb(69,126,201)"/><stop offset="40%" stop-opacity="1" style="stop-color:rgb(60,120,199)"/><stop offset="90%" stop-opacity="1" style="stop-color:rgb(46,92,153)"/></linearGradient><path d=" M 476.741 239.133 C 462.284 253.501 430.964 265.835 415.554 271.609 C 394.502 279.518 385.16 282.316 373.381 286.15 C 360.048 290.476 333.378 298.547 333.378 298.547 C 388.628 315.044 427.564 320.018 427.564 320.018 C 427.564 320.018 445.703 314.411 474.44 299.044 C 490 291.135 497.658 285.81 503.134 280.721 C 505.153 278.896 510.368 273.466 511.665 266.52 C 511.749 266.013 512 264.684 512 263.377 C 512 263.377 512 262.456 511.916 261.656 C 511.885 260.735 511.723 260.118 511.723 260.118 C 511.723 260.118 511.414 258.47 511.006 257.314 C 510.583 256.159 508.804 252.591 505.922 250.274 C 503.997 248.71 500.671 244.814 488.62 240.577 C 484.524 239.154 477.892 237.841 477.892 237.841 L 476.741 239.133 Z " fill="url(#_lgradient_7)"/><path d=" M 511.995 263.01 C 511.995 263.01 511.911 261.473 511.534 260.17 C 511.242 259.009 510.724 257.9 509.944 256.734 C 509.003 255.348 507.732 253.721 505.854 251.922 C 504.437 250.583 502.883 249.401 501.011 248.145 C 493.473 243.208 483.745 240.425 475.135 239.248 C 461.792 237.475 446.488 237.789 445.039 237.737 C 440.117 237.669 408.315 237.93 400.14 238.077 C 363.835 238.825 319.391 238.924 307.748 238.924 C 187.556 239.473 135.24 236.884 77.014 225.21 C 27.481 215.371 0 206.024 0 206.024 C 43.691 204.512 298.616 193.936 345.12 192.702 C 375.567 191.844 397.185 191.661 414.482 192.66 C 423.353 193.157 431.607 193.91 441.974 195.673 C 451.268 197.263 459.71 199.962 464.627 201.787 C 474.984 205.621 483.713 211.166 488.029 216.846 C 488.029 216.846 489.305 218.154 491.036 220.476 C 492.977 223.175 495.231 226.496 495.995 227.736 C 502.297 237.287 505.289 243.286 506.33 245.378 C 507.455 247.575 508.448 249.856 509.416 252.089 C 510.363 254.307 510.75 255.651 511.053 256.587 C 511.718 258.936 511.88 261.075 511.911 261.556 L 511.995 263.01 Z " fill="rgb(206,33,15)"/></g></svg>