<?xml version="1.0" encoding="UTF-8" standalone="no"?><!-- Generator: Gravit.io --><svg xmlns="http://www.w3.org/2000/svg" xmlns:xlink="http://www.w3.org/1999/xlink" style="isolation:isolate" viewBox="0 0 512 512" width="512pt" height="512pt"><defs><clipPath id="_clipPath_hZyYFat9bPQ9AnwfZ6USXeigmFtDcB70"><rect width="512" height="512"/></clipPath></defs><g clip-path="url(#_clipPath_hZyYFat9bPQ9AnwfZ6USXeigmFtDcB70)"><path d=" M 200.129 246.252 C 198.455 246.476 196.592 244.06 195.798 242.922 C 195.557 242.594 194.642 240.644 194.866 240.351 C 195.229 240.075 197.127 240.713 197.627 241.127 C 198.869 242.111 199.87 243.491 200.491 245.855 C 200.508 246.131 200.267 246.252 200.129 246.252 M 159.755 223.873 C 158.616 224.287 155.821 221.113 155.045 219.939 C 153.613 217.783 152.163 215.384 150.645 213.262 C 149.23 211.382 147.66 210.036 147.298 206.74 C 147.264 206.361 147.039 205.377 147.281 205.395 C 148.816 205.515 150.283 208.207 151.059 209.259 C 151.611 210.019 152.267 210.778 152.767 211.571 C 153.526 212.727 153.837 214.108 154.631 215.195 C 155.597 216.506 156.77 217.748 157.805 219.077 C 158.358 219.784 159.1 220.405 159.445 221.372 C 159.6 221.872 160.083 223.701 159.755 223.873 M 148.195 223.425 C 147.332 223.356 146.97 222.821 146.435 222.424 C 145.02 221.372 143.83 219.681 143.795 217.231 C 143.761 216.989 143.864 216.92 144.037 216.92 C 145.728 216.903 147.436 219.508 148.092 220.716 C 148.281 221.078 148.73 222.062 148.661 222.752 C 148.661 223.218 148.454 223.425 148.195 223.425 M 109.771 231.189 C 109.702 231.379 109.564 231.603 109.288 231.62 C 107.459 231.569 106.907 228.842 106.113 227.6 C 105.457 226.548 104.871 225.426 104.198 224.374 C 103.715 223.666 103.111 222.907 102.714 222.079 C 102.214 221.026 101.989 219.905 101.368 218.956 C 101.058 218.456 100.54 218.024 100.178 217.558 C 99.177 216.213 98.28 214.798 97.641 213.107 C 97.503 212.503 97.331 211.916 97.193 211.313 C 96.813 210.295 96.347 209.173 96.002 208.086 C 95.812 207.551 95.709 206.43 95.812 206.05 C 95.899 205.895 95.968 205.774 96.106 205.809 C 97.503 206.016 98.849 209.415 99.539 210.674 C 100.298 212.003 101.472 213.072 102.127 214.436 C 102.714 215.695 102.921 217.265 103.577 218.473 C 104.111 219.405 104.974 220.147 105.561 221.044 C 106.303 222.2 106.838 223.701 107.424 224.978 C 108.08 226.427 109.029 227.548 109.598 228.946 C 109.84 229.533 109.926 230.551 109.771 231.189 M 102.645 178.824 C 102.283 178.185 101.903 177.426 101.644 176.753 C 101.351 175.977 101.316 175.269 101.006 174.527 C 99.919 172.129 98.711 169.489 97.641 167.126 C 97.175 166.125 96.554 164.279 96.986 163.019 C 97.055 162.847 97.417 162.95 97.572 163.123 C 97.935 163.451 98.193 163.658 98.504 164.02 C 98.728 164.365 98.78 164.745 99.022 165.09 C 99.556 165.901 100.264 166.711 100.661 167.626 C 101.558 169.576 101.799 171.75 102.697 173.648 C 103.266 174.89 104.232 175.977 104.871 177.236 C 105.181 177.944 105.388 178.668 105.595 179.393 C 105.733 179.945 105.699 180.687 105.733 181.118 C 105.751 181.774 105.682 182.171 105.457 182.205 C 103.766 182.102 103.266 180.031 102.645 178.824 Z  M 467.856 340.595 C 465.734 332.779 442.804 336.144 423.945 334.418 C 406.778 332.848 384.762 329.777 358.295 320.581 C 333.518 311.989 309.57 302.154 288.675 290.853 C 288.675 290.853 280.238 286.401 279.341 285.901 C 277.598 284.848 276.235 284.089 274.527 283.019 C 273.509 282.416 271.939 281.484 270.8 280.983 C 269.334 280.38 268.35 279.586 267.091 278.809 C 265.797 277.999 264.037 277.153 262.726 276.377 C 260.811 275.186 259.62 274.272 257.808 272.978 C 256.687 272.132 256.117 271.891 254.616 270.976 C 253.719 270.441 252.08 269.561 251.286 269.027 C 249.613 267.922 248.543 267.008 246.852 265.835 C 245.834 265.11 245.075 264.661 243.85 263.902 C 242.642 263.16 241.469 262.211 240.417 261.435 C 239.847 260.986 238.95 260.486 238.432 259.934 C 237.19 258.743 235.965 257.691 234.688 256.656 C 233.515 255.776 232.393 254.689 231.255 253.809 C 230.513 253.274 229.253 252.221 228.529 251.687 C 226.631 250.323 225.44 249.305 223.56 247.942 C 222.352 247.045 221.334 245.855 220.126 244.958 C 218.78 243.957 217.538 242.801 216.14 241.8 C 215.243 241.179 214.208 240.385 213.518 239.678 C 212.621 238.591 211.775 237.849 210.826 236.779 C 210.136 236.02 208.808 235.175 208.031 234.398 C 206.892 232.914 205.236 231.344 203.683 230.188 C 202.769 229.343 202.493 228.946 202.13 228.497 C 201.871 228.118 201.526 227.686 200.785 226.876 C 200.043 226.116 199.767 225.909 199.473 225.581 C 199.128 225.305 198.731 224.943 197.713 223.942 C 197.403 223.615 196.868 222.873 196.333 222.148 C 195.867 221.51 195.436 220.871 195.125 220.543 C 194.211 219.577 193.607 218.904 192.951 218.214 C 192.485 217.748 191.985 217.231 191.381 216.592 C 191.019 216.195 190.743 215.73 190.415 215.298 C 190.156 214.867 189.846 214.418 189.535 214.056 C 188.983 213.452 188.552 213.659 188.448 213.728 C 188.12 213.952 187.982 214.608 188.345 215.384 C 188.845 216.299 189.535 217.317 189.966 217.904 C 190.07 218.042 190.156 218.162 190.208 218.231 C 190.381 218.525 190.536 218.801 190.708 219.094 C 190.95 219.525 191.209 219.991 191.519 220.405 C 192.227 221.354 192.969 222.148 193.711 222.89 C 193.969 223.131 194.211 223.39 194.435 223.649 C 194.936 224.167 195.315 224.719 195.695 225.305 C 196.109 225.875 196.54 226.496 197.075 227.083 C 197.334 227.324 197.558 227.635 197.748 227.911 C 197.99 228.221 198.231 228.566 198.507 228.842 C 198.939 229.257 199.353 229.671 199.767 230.085 C 200.457 230.827 201.199 231.551 201.872 232.138 C 202.407 232.587 202.941 233.156 203.493 233.691 C 204.891 235.364 206.427 237.038 207.686 238.643 C 208.394 239.54 209.722 240.213 210.533 240.834 C 211.43 241.507 212.138 242.68 212.845 243.577 C 213.397 244.233 214.605 245.303 215.174 245.993 C 216.572 247.787 217.538 248.753 219.384 250.134 C 220.506 250.927 221.351 251.704 222.214 252.774 C 222.732 253.446 224.319 254.982 224.923 255.724 C 226.441 257.656 227.131 259.468 226.907 259.52 C 225.872 259.796 223.353 257.57 221.852 256.604 C 220.627 255.758 220.419 255.431 219.246 254.551 C 218.987 254.326 217.124 253.032 216.486 252.221 C 215.985 251.773 214.605 250.272 214.174 249.754 C 212.069 247.063 211.361 246.907 208.946 244.543 C 207.186 242.818 204.995 241.282 203.286 239.747 C 202.769 239.212 202.268 238.677 201.768 238.091 C 201.199 237.521 200.491 237.004 199.974 236.434 C 199.163 235.433 198.093 233.449 197.144 232.742 C 196.143 231.965 195.401 231.258 194.383 230.499 C 194.021 230.257 193.711 229.791 193.331 229.498 C 192.831 229.153 192.261 228.739 191.882 228.273 C 190.708 226.772 189.57 225.236 188.345 223.735 C 187.81 223.011 187.033 222.424 186.498 221.682 C 185.36 220.06 184.394 218.404 183.238 216.886 C 181.598 214.763 179.269 213.245 177.699 211.106 C 176.077 208.897 175.111 206.344 173.593 204.032 C 172.937 203.031 171.919 202.323 171.194 201.374 C 170.78 200.822 170.556 200.184 170.159 199.58 C 169.348 198.338 168.399 197.13 167.571 195.957 C 166.501 194.369 165.777 192.661 164.69 190.988 C 164.534 190.763 164.155 189.642 163.482 188.814 C 162.844 188.003 162.274 187.071 161.549 185.881 C 160.79 184.724 160.445 183.948 159.91 183.154 C 159.376 182.326 159.03 181.567 158.668 181.015 C 158.323 180.428 157.547 179.376 157.271 178.962 C 156.287 177.443 156.011 176.736 154.993 175.338 C 154.372 174.476 153.682 173.768 153.095 173.975 C 152.647 174.303 152.819 174.838 152.923 175.218 C 153.371 176.46 153.371 176.236 153.854 177.133 C 154.682 178.617 154.976 179.324 155.856 180.687 C 156.253 181.343 156.96 182.827 157.529 183.62 C 158.081 184.448 158.668 185.432 159.048 186.105 C 159.479 186.829 160.083 188.727 160.687 189.521 C 161.118 190.09 161.739 191.246 162.171 192.075 C 163.016 193.765 164.086 195.094 164.966 196.405 C 165.552 197.492 166.139 198.631 166.708 199.701 C 167.882 201.461 169.279 203.1 170.418 204.911 C 171.125 206.171 171.816 207.431 172.506 208.69 C 173.213 209.725 174.162 210.605 174.835 211.658 C 175.663 212.917 176.112 214.298 176.94 215.54 C 177.596 216.506 178.424 217.438 179.079 218.404 C 180.201 220.06 181.202 221.699 182.375 223.287 C 183.03 224.149 183.876 224.874 184.514 225.754 C 185.394 226.945 186.102 228.359 187.016 229.36 C 188.12 230.395 188.431 231.016 189.294 232 C 190.57 233.57 193.762 238.056 193.21 238.091 C 191.347 238.349 187.741 234.26 186.222 232.776 C 185.049 231.603 183.738 230.775 182.927 229.671 C 181.719 228.049 180.839 226.22 179.631 224.65 C 179.2 224.063 178.544 223.632 178.113 223.08 C 177.285 222.01 176.491 220.871 175.542 219.94 C 175.146 219.56 174.714 219.215 174.352 218.784 C 172.885 216.903 171.643 214.884 170.228 212.917 C 169.607 212.124 168.848 211.416 168.244 210.64 C 167.795 210.001 167.519 209.311 167.122 208.621 C 166.553 207.741 165.794 206.896 165.225 206.016 C 164.793 205.36 164.534 204.704 164.086 204.032 C 163.309 202.858 162.274 201.84 161.498 200.65 C 160.894 199.684 160.721 198.424 160.083 197.441 C 158.478 194.991 156.736 192.489 155.166 190.039 C 154.751 189.4 154.579 188.693 154.199 188.072 C 152.905 186.053 151.715 183.879 150.438 181.895 C 149.972 181.153 149.782 180.308 149.317 179.583 C 148.73 178.686 147.833 177.978 147.246 177.116 C 146.797 176.425 146.608 175.666 146.263 174.89 C 145.797 173.837 145.141 172.819 144.606 171.836 C 144.278 171.232 144.106 170.611 143.726 170.042 C 142.191 167.643 140.931 165.107 139.689 162.45 C 139.033 161.087 138.067 159.81 137.429 158.412 C 136.687 156.877 135.979 155.307 135.306 153.823 C 134.91 152.805 134.547 151.787 134.202 150.769 C 133.46 149.182 132.304 147.819 131.597 146.162 C 131.096 145.041 130.82 144.006 130.355 143.057 C 130.061 142.487 129.509 142.004 129.112 142.263 C 128.698 142.504 128.646 143.005 128.905 143.885 C 129.388 145.576 130.32 147.491 130.751 148.457 C 131.631 150.355 132.08 152.339 132.943 154.272 C 133.391 155.359 134.116 156.376 134.599 157.412 C 135.444 159.258 136.255 161.104 137.101 162.847 C 137.567 163.865 137.946 164.848 138.498 165.814 C 138.774 166.315 139.223 166.884 139.447 167.436 C 139.999 168.678 140.155 169.99 140.724 171.163 C 141.311 172.388 142.26 173.406 142.829 174.597 C 145.745 180.808 148.678 186.726 152.198 192.23 C 153.164 193.765 153.682 195.629 154.665 197.147 C 155.683 198.752 157.081 199.96 158.082 201.512 C 158.927 202.806 159.134 204.601 159.91 205.981 C 161.015 208.052 162.533 209.794 163.793 211.744 C 164.12 212.296 164.224 212.9 164.569 213.469 C 165.035 214.211 165.656 214.936 166.139 215.695 C 166.76 216.713 167.088 217.869 167.795 218.801 C 168.537 219.836 169.607 220.664 170.349 221.717 C 171.263 222.976 171.919 224.46 172.885 225.754 C 173.541 226.634 174.576 227.255 175.249 228.152 C 176.319 229.55 180.028 234.415 181.098 235.778 C 182.72 237.866 185.653 240.937 186.999 243.681 C 187.43 244.526 188.897 246.545 188.586 246.942 C 187.81 247.459 184.135 243.439 183.514 242.853 C 181.978 241.386 180.65 239.35 179.321 237.659 C 178.993 237.28 175.473 233.846 175.18 233.466 C 174.835 233.018 174.473 232.518 174.162 232.069 C 173.179 230.602 172.575 228.842 171.539 227.462 C 171.091 226.876 170.418 226.444 170.004 225.875 C 169.193 224.805 168.641 223.597 167.83 222.51 C 166.605 220.785 164.983 219.267 163.724 217.558 C 162.378 215.695 161.394 213.487 159.997 211.623 C 159.307 210.709 158.427 209.898 157.771 208.897 C 157.478 208.466 157.374 208.034 157.081 207.586 C 156.58 206.827 155.908 205.964 155.528 205.136 C 155.166 204.342 154.907 203.6 154.458 202.893 C 153.009 200.632 151.56 198.234 150.128 195.974 C 149.455 194.956 149.092 193.869 148.454 192.851 C 147.367 191.177 145.987 189.676 144.917 187.985 C 143.64 185.984 142.95 183.568 141.639 181.567 C 140.81 180.238 139.827 179.013 138.999 177.685 C 138.067 176.253 137.618 174.579 136.773 173.095 C 136.048 171.767 135.065 170.542 134.427 169.231 C 133.719 167.781 133.253 166.366 132.563 164.865 C 132.184 164.072 131.597 163.261 131.252 162.467 C 130.786 161.432 130.7 160.414 130.217 159.448 C 128.974 156.67 127.094 154.047 125.782 151.269 C 124.868 149.32 124.022 147.284 123.263 145.196 C 122.849 144.057 122.659 142.97 122.142 141.918 C 120.986 139.364 119.571 136.69 118.467 134.188 C 117.984 132.825 117.518 131.496 117.017 130.151 C 116.931 129.771 116.879 129.409 116.741 128.995 C 116.206 127.804 115.499 126.631 115.033 125.475 C 114.619 124.095 114.188 122.732 113.739 121.351 C 111.962 116.9 110.357 111.862 108.666 107.22 C 108.459 106.392 108.408 105.322 108.08 104.408 C 107.2 102.061 106.32 99.646 105.474 97.282 C 104.974 96.074 103.835 96.471 104.094 97.714 C 104.439 99.335 104.646 99.75 104.94 101.044 C 105.06 101.716 105.181 102.355 105.319 103.01 C 105.526 103.804 105.923 104.632 106.13 105.391 C 106.596 106.824 106.63 108.221 107.096 109.584 C 107.804 111.499 108.494 113.363 109.132 115.33 C 109.288 116.313 109.512 117.297 109.702 118.297 C 109.995 119.212 110.375 120.161 110.702 120.989 C 111.686 123.422 112.635 125.768 113.48 128.149 C 113.843 129.53 114.205 130.893 114.533 132.273 C 114.895 133.032 115.43 133.809 115.758 134.55 C 116.068 135.223 116.137 135.844 116.413 136.552 C 117.035 138.087 117.587 139.658 118.294 141.228 C 118.881 142.504 119.571 143.798 120.071 145.162 C 120.313 145.834 120.313 146.404 120.554 147.059 C 122.038 151.131 123.643 155.393 125.403 159.258 C 125.834 160.207 125.955 161.208 126.403 162.174 C 126.748 163.002 127.266 163.865 127.628 164.658 C 127.801 165.176 127.991 165.711 128.163 166.228 C 128.698 167.367 129.63 168.299 130.165 169.438 C 131.666 172.595 133.012 175.614 134.909 178.306 C 136.652 180.825 137.429 184.138 138.705 187.123 C 139.378 188.538 140.189 189.745 141 190.97 C 141.397 191.626 141.638 192.351 141.984 193.058 C 142.846 194.611 143.312 195.957 144.33 197.337 C 145.141 198.476 145.072 198.717 145.762 200.305 C 145.952 200.771 146.728 203.738 146.573 203.738 C 146.314 203.911 144.848 203.031 144.347 202.479 C 143.692 201.737 142.622 200.736 141.915 199.131 C 141.535 198.321 140.81 196.923 140.431 196.147 C 139.516 194.18 137.946 192.506 136.807 190.694 C 136.134 189.642 135.772 188.486 135.203 187.347 C 134.254 185.259 133.15 183.154 132.132 180.998 C 131.7 180.1 131.079 179.238 130.579 178.444 C 130.027 177.616 129.785 176.736 129.25 175.891 C 128.094 174.079 126.783 172.043 125.851 170.059 C 125.161 168.592 124.799 167.126 124.143 165.694 C 123.919 165.245 123.556 164.796 123.263 164.365 C 122.797 163.623 122.608 162.812 122.193 161.984 C 121.676 160.897 120.899 159.827 120.382 158.706 C 119.329 156.445 118.725 154.099 117.69 151.873 C 117.173 150.838 116.344 149.941 115.861 148.906 C 115.102 147.318 115.033 145.317 114.274 143.66 C 112.324 139.243 110.064 134.706 108.408 130.099 C 108.149 129.323 108.045 128.425 107.804 127.614 C 107.079 125.613 106.13 123.75 105.405 121.783 C 105.078 120.885 104.974 120.057 104.646 119.143 C 104.163 117.814 103.525 116.399 103.042 115.036 C 102.921 114.588 102.852 114.105 102.679 113.639 C 102.075 112.379 101.73 110.861 101.144 109.532 C 100.816 108.842 100.333 108.135 100.057 107.393 C 99.591 106.064 99.729 104.391 99.246 103.148 C 98.573 101.268 97.779 99.232 97.106 97.386 C 96.692 96.299 96.623 95.263 96.244 94.159 C 95.812 92.917 95.329 91.537 94.863 90.294 C 94.415 89.018 94.432 87.637 94.001 86.292 C 93.69 85.256 93.259 84.204 92.914 83.238 C 92.275 81.426 91.999 79.511 91.326 77.82 C 91.223 77.509 91.102 77.182 90.999 76.888 C 90.826 76.422 90.515 75.974 90.05 76.112 C 89.515 76.25 89.515 76.923 89.549 77.371 C 89.653 78.717 90.153 79.925 90.515 81.012 C 90.964 82.151 91.171 83.376 91.482 84.463 C 91.654 85.17 91.637 85.929 91.809 86.671 C 92.034 87.741 92.448 88.759 92.724 89.811 C 92.983 90.847 92.845 91.864 93.086 92.675 C 93.759 94.936 94.518 97.489 95.277 99.646 C 95.588 100.767 95.64 102.061 95.985 103.028 C 96.399 104.166 96.83 105.322 97.227 106.478 C 97.607 107.445 97.676 108.359 98.073 109.274 C 98.504 110.223 98.987 111.223 99.349 112.31 C 99.781 113.708 99.729 115.088 100.212 116.417 C 101.006 118.556 101.989 120.592 102.714 122.645 C 102.955 123.404 103.042 124.215 103.301 124.975 C 103.939 126.752 104.388 128.667 105.043 130.461 C 105.975 133.015 107.165 135.517 108.097 138.036 C 108.994 140.52 109.132 143.505 110.168 145.834 C 110.702 146.99 111.807 147.681 112.307 148.802 C 112.669 149.509 112.566 150.338 112.807 151.183 C 113.101 152.132 113.549 153.098 113.912 153.978 C 114.119 154.789 114.326 155.566 114.55 156.342 C 114.878 157.291 115.533 158.24 115.948 159.154 C 116.638 160.638 116.983 162.191 117.811 163.52 C 118.484 164.52 119.295 165.452 119.847 166.573 C 120.416 167.798 120.623 169.127 121.193 170.421 C 122.038 172.319 123.039 174.131 123.746 176.098 C 124.419 177.892 124.661 179.79 125.506 181.377 C 126.369 182.93 127.421 184.328 128.267 185.863 C 128.802 187.036 129.337 188.192 129.889 189.349 C 130.32 190.28 131.165 191.091 131.7 192.075 C 132.356 193.248 132.994 194.49 133.529 195.663 C 133.961 196.595 134.116 197.441 134.633 198.234 C 135.375 199.459 135.945 200.443 136.756 201.65 C 137.429 202.737 138.222 204.118 138.705 205.395 C 139.085 206.361 139.482 207.379 140.034 208.19 C 140.638 209.018 141.414 209.76 141.915 210.674 C 142.415 211.571 143.122 214.487 142.863 214.625 C 142.225 214.85 140.431 213.142 139.948 212.538 C 138.533 210.829 137.843 208.517 136.549 206.706 C 135.168 204.722 134.306 203.617 133.219 201.357 C 132.615 200.063 131.528 197.717 130.786 196.561 C 130.044 195.474 129.112 194.49 128.543 193.282 C 128.094 192.264 127.87 191.057 127.421 190.056 C 126.748 188.624 125.385 187.675 124.695 186.174 C 123.902 184.517 123.556 182.809 122.711 181.256 C 122.297 180.497 121.762 179.652 121.4 178.858 C 120.917 177.875 120.692 176.909 120.226 175.908 C 119.278 173.872 117.845 172.164 116.931 170.145 C 115.93 168.075 115.395 165.832 114.377 163.744 C 113.86 162.605 112.928 161.639 112.393 160.5 C 111.686 158.999 111.324 157.429 110.616 155.911 C 110.168 154.996 109.529 154.099 109.098 153.202 C 108.494 151.89 108.27 150.458 107.648 149.095 C 106.285 145.99 104.853 142.798 103.473 139.727 C 102.955 138.536 102.817 137.311 102.283 136.103 C 101.765 135.051 101.247 134.016 100.695 132.963 C 99.522 130.254 99.091 127.08 97.866 124.353 C 97.244 122.956 96.485 121.645 95.916 120.161 C 95.053 117.814 94.743 115.399 93.863 113 C 92.551 109.343 91.499 105.53 90.188 101.906 C 89.791 100.819 89.756 99.749 89.342 98.611 C 88.963 97.558 88.566 96.489 88.169 95.436 C 87.893 94.556 87.72 93.331 87.496 92.227 C 86.513 89.138 85.529 86.05 84.563 82.927 C 84.321 82.185 84.287 80.857 84.028 79.908 C 83.873 79.373 83.579 78.752 83.372 78.251 C 83.148 77.544 83.148 76.94 82.924 76.198 C 82.199 73.938 81.595 71.298 80.871 69.038 C 80.664 68.33 80.595 67.312 80.37 66.519 C 79.369 63.292 78.869 59.341 77.558 56.356 C 77.351 55.77 76.971 55.148 76.402 55.304 C 75.832 55.442 75.953 56.097 76.005 56.632 C 76.178 58.099 76.73 59.358 76.971 60.583 C 77.075 61.135 77.075 61.895 77.109 62.55 C 77.178 63.102 77.247 63.775 77.42 64.362 C 78.024 66.277 78.731 68.537 79.283 70.418 C 79.473 71.332 79.3 72.747 79.559 73.8 C 80.387 76.854 80.991 80.494 82.096 83.238 C 83.114 85.739 83.303 88.742 84.028 91.45 C 84.235 92.624 84.304 93.814 84.477 94.987 C 84.666 96.126 85.288 96.903 85.633 97.852 C 85.909 98.559 85.874 99.163 86.15 99.905 C 86.72 101.854 87.185 103.77 87.876 105.737 C 88.359 107.1 89.101 108.376 89.584 109.688 C 89.774 110.292 89.722 110.826 89.877 111.482 C 90.222 112.845 90.446 114.191 90.826 115.519 C 91.792 118.194 92.707 121.092 93.656 123.732 C 94.191 125.216 94.363 126.648 94.863 128.08 C 96.986 133.843 99.125 139.554 101.213 145.248 C 101.558 146.525 101.92 147.801 102.248 149.061 C 102.714 150.338 103.473 151.425 104.008 152.581 C 104.698 154.064 104.905 155.617 105.492 157.187 C 106.13 159.034 107.01 160.448 107.717 162.364 C 108.045 163.261 108.373 164.279 108.787 165.176 C 109.098 165.832 109.667 166.47 109.995 167.143 C 110.564 168.264 110.651 169.696 111.186 170.835 C 111.755 171.974 112.704 172.923 113.377 173.958 C 113.963 174.959 114.032 176.218 114.533 177.34 C 115.326 179.082 116.344 180.687 117.104 182.533 C 117.414 183.31 117.552 184 117.897 184.742 C 118.294 185.587 118.932 186.398 119.329 187.295 C 119.329 187.295 119.364 187.295 119.398 187.382 C 119.433 187.502 119.502 187.675 119.519 187.865 C 119.623 188.21 119.743 188.658 119.864 188.986 C 120.037 189.469 120.589 190.367 120.813 190.694 C 120.951 190.867 121.365 191.315 121.676 191.73 C 121.831 191.885 121.969 192.075 122.124 192.282 C 122.866 193.472 122.953 195.146 123.574 196.474 C 124.195 197.734 125.282 198.769 125.903 200.098 C 126.403 201.098 126.645 203.6 126.041 203.704 C 123.453 203.704 123.263 200.08 122.401 198.182 C 121.693 196.699 120.658 195.474 119.881 194.059 C 119.709 193.783 119.467 193.213 119.295 192.627 C 119.14 192.126 118.915 191.592 118.708 191.177 C 118.38 190.487 118.38 190.591 118.156 190.09 C 117.915 189.607 117.19 188.693 116.983 188.262 C 116.966 188.244 116.948 188.209 116.948 188.175 C 115.948 186.588 115.292 184.328 114.585 183.241 C 114.188 182.654 113.67 182.05 113.273 181.446 C 112.635 180.411 112.29 179.186 111.772 178.047 C 111.289 177.029 110.513 176.011 110.029 174.924 C 109.46 173.648 109.426 172.043 108.804 170.749 C 108.511 170.041 107.942 169.334 107.597 168.678 C 106.872 167.195 106.441 165.625 105.716 164.175 C 105.388 163.468 104.75 162.812 104.405 162.105 C 103.835 160.862 103.525 159.551 102.886 158.412 C 101.523 155.962 100.057 153.254 98.953 150.665 C 98.28 149.147 98.038 147.612 97.4 146.145 C 96.83 144.851 96.037 143.591 95.467 142.366 C 95.053 141.555 94.967 140.727 94.639 139.813 C 94.087 138.381 93.449 136.897 92.914 135.465 C 92.603 134.464 92.344 132.307 92.034 131.445 C 91.637 130.358 91.085 129.184 90.619 128.115 C 89.894 126.545 89.687 124.888 88.98 123.301 C 88.428 122.059 87.824 120.782 87.375 119.522 C 86.978 118.453 86.875 117.452 86.444 116.468 C 86.116 115.709 85.667 114.864 85.391 114.087 C 85.029 113.156 84.787 111.62 84.511 110.378 C 84.045 109.015 83.476 107.721 83.062 106.375 C 82.803 105.357 82.768 103.045 82.544 102.424 C 81.095 98.248 79.784 93.78 78.455 89.604 C 77.851 87.672 77.558 85.739 77.023 83.876 C 76.833 83.1 76.816 82.151 76.609 81.391 C 76.229 80.184 75.729 78.941 75.349 77.699 C 75.142 76.854 75.004 75.991 74.849 75.163 C 74.659 74.3 74.193 73.403 73.848 72.54 C 73.055 70.021 72.606 67.347 71.864 64.88 C 71.623 63.862 71.623 62.533 71.346 61.601 C 70.363 58.565 70.156 55.028 69.259 51.836 C 69.052 50.904 68.931 49.972 68.707 49.127 C 67.137 43.157 66.429 36.463 64.686 30.734 C 64.359 29.63 64.79 28.232 64.497 27.042 C 64.134 25.696 63.772 24.523 63.392 23.35 C 63.22 22.728 63.203 22.263 63.099 21.711 C 62.789 20.744 62.357 19.968 61.822 20.089 C 61.184 20.278 61.322 20.865 61.339 21.676 C 61.408 23.022 61.546 24.126 61.805 25.196 C 62.029 26.11 61.874 26.869 62.133 27.68 C 62.685 29.526 62.858 32.149 63.185 33.84 C 63.289 34.53 63.185 35.479 63.323 36.29 C 63.513 37.153 64.169 38.257 64.341 39.189 C 64.531 40.414 64.514 42.018 64.704 43.364 C 64.945 44.486 65.29 45.573 65.584 46.625 C 65.825 47.539 65.653 48.419 65.929 49.265 C 66.188 50.145 66.653 51.007 66.826 51.974 C 66.964 53.026 66.809 54.562 67.033 55.511 C 68.379 60.756 68.776 66.967 70.311 71.988 C 70.501 72.713 70.536 73.489 70.708 74.214 C 71.985 78.631 72.968 83.324 74.297 87.689 C 74.469 88.362 74.452 89.069 74.625 89.829 C 75.056 91.364 75.418 93.02 75.763 94.556 C 75.919 95.298 75.901 95.954 76.109 96.644 C 76.557 98.248 77.109 99.801 77.644 101.389 C 77.834 102.182 77.92 102.941 78.058 103.701 C 78.196 104.305 78.507 104.995 78.697 105.581 C 78.973 106.496 78.886 107.376 79.162 108.221 C 79.369 108.704 79.766 109.256 79.887 109.774 C 80.094 110.723 80.215 111.655 80.474 112.569 C 80.853 113.673 81.44 114.76 81.889 115.847 C 82.234 116.762 82.234 117.693 82.579 118.591 C 83.2 120.109 83.873 121.938 84.477 123.594 C 84.96 124.94 85.029 126.32 85.512 127.683 C 85.84 128.598 86.271 129.53 86.582 130.427 C 86.789 131.117 86.909 131.807 87.151 132.549 C 87.375 133.187 88.1 134.223 88.566 135.103 C 88.963 136.051 88.773 137.346 89.066 138.381 C 89.394 139.433 89.981 140.279 90.343 141.245 C 90.671 142.228 90.653 143.281 90.93 144.282 C 91.206 145.058 91.74 145.8 92.051 146.525 C 92.362 147.387 92.672 148.215 92.983 149.061 C 93.224 149.596 93.69 150.182 93.966 150.7 C 94.415 151.666 94.794 152.753 95.191 153.754 C 95.761 155.169 95.812 156.929 96.261 158.585 C 96.382 159.068 96.347 160.19 96.088 160.31 C 95.416 160.431 94.674 159.379 94.225 158.74 C 93.449 157.636 92.707 156.428 92.137 155.117 C 91.93 154.617 91.827 154.151 91.654 153.633 C 91.223 152.546 90.895 151.287 90.395 150.2 C 90.101 149.509 89.653 148.785 89.411 148.06 C 89.066 147.008 89.221 145.765 88.807 144.851 C 88.462 144.092 87.841 143.471 87.496 142.711 C 87.254 142.004 87.116 141.279 86.823 140.572 C 86.444 139.727 85.943 138.985 85.46 138.174 C 85.115 137.397 85.167 136.638 84.891 135.724 C 84.597 134.637 84.252 133.567 83.786 132.583 C 83.338 131.583 82.751 130.582 82.303 129.547 C 82.096 128.977 81.992 128.391 81.837 127.821 C 81.561 127.045 81.147 126.217 80.853 125.458 C 80.681 124.871 80.525 124.267 80.284 123.715 C 79.922 122.87 79.473 121.921 79.128 120.989 C 78.869 120.247 78.835 119.436 78.559 118.694 C 78.093 117.366 77.644 115.882 77.178 114.588 C 76.902 113.587 76.816 112.569 76.505 111.551 C 76.126 110.378 75.608 109.205 75.177 108.014 C 74.849 107.065 74.763 106.047 74.487 105.064 C 74.038 103.804 73.4 102.631 72.968 101.302 C 72.71 100.233 72.658 99.163 72.433 98.162 C 71.709 95.695 70.915 92.969 70.139 90.432 C 69.241 87.62 69.155 84.428 68.344 81.581 C 67.758 79.545 67.033 77.578 66.412 75.577 C 66.188 74.524 66.153 73.558 65.894 72.557 C 65.342 70.28 64.514 67.347 63.755 64.983 C 63.375 63.741 63.496 62.464 63.134 61.135 C 62.771 59.79 62.754 58.202 62.323 56.77 C 62.047 55.908 61.719 55.269 61.512 54.148 C 61.27 53.026 61.287 51.715 61.132 50.869 C 60.977 50.024 59.528 45.055 59.355 44.123 C 59.183 43.209 59.183 41.518 59.079 40.914 C 58.975 40.517 58.234 38.378 58.147 37.808 C 58.044 37.256 58.044 36.618 57.837 35.514 C 57.595 34.409 56.957 31.959 56.853 31.252 C 56.732 30.527 56.732 29.095 56.594 28.388 C 56.439 27.68 55.973 26.024 55.645 24.851 C 55.249 23.419 55.576 21.918 55.18 20.572 C 54.869 19.571 54.541 18.605 54.162 17.656 C 53.937 16.862 53.661 15.741 53.61 15.24 C 53.558 14.464 53.506 12.911 53.454 12.324 C 53.437 11.531 53.092 10.185 53.023 9.012 C 52.919 7.407 52.574 5.716 52.316 4.733 C 52.177 4.146 52.229 3.456 52.108 2.921 C 51.694 1.351 51.315 -0.098 50.521 0.005 C 49.952 0.091 49.727 0.575 49.986 1.593 C 50.262 2.818 50.383 3.784 50.711 4.974 C 50.849 5.613 50.901 7.217 50.901 7.752 C 50.952 8.615 50.987 8.805 51.09 9.65 C 51.16 9.961 51.298 10.754 51.401 11.099 C 51.522 11.652 51.694 12.462 51.677 12.859 C 51.677 13.411 51.66 13.998 51.66 14.792 C 51.66 15.206 51.677 15.344 51.832 16.051 C 52.005 16.741 52.074 16.897 52.126 17.466 C 52.16 17.966 52.108 18.45 52.143 18.881 C 52.143 19.433 52.212 19.968 52.385 20.468 C 52.678 21.521 53.351 22.953 53.092 24.488 C 52.781 26.127 53.282 27.68 53.661 29.095 C 53.834 30.01 53.661 31.01 53.834 31.89 C 54.162 33.098 54.472 34.375 54.783 35.652 C 55.042 36.687 54.869 37.619 55.145 38.619 C 55.507 39.982 56.456 41.846 56.594 42.467 C 56.698 43.088 56.681 44.762 56.853 45.831 C 57.043 46.884 57.302 48.109 57.371 48.782 C 57.457 49.472 57.354 49.765 57.423 50.266 C 57.492 50.766 58.165 53.164 58.268 53.785 C 58.406 54.406 58.372 54.734 58.51 55.373 C 58.63 56.046 59.183 58.616 59.286 59.445 C 59.424 60.29 59.39 60.773 59.545 61.619 C 59.786 62.895 60.304 63.965 60.563 65.19 C 60.735 66.122 60.684 66.691 60.787 67.416 C 61.063 68.572 61.443 69.607 61.65 70.694 C 61.822 71.557 61.84 72.385 61.995 73.265 C 62.392 75.111 62.651 76.974 63.168 78.821 C 63.479 79.908 64.1 80.908 64.428 81.961 C 64.687 82.927 64.773 83.98 65.032 84.928 C 65.29 85.739 65.86 86.499 66.067 87.379 C 66.205 88.138 66.188 88.914 66.326 89.691 C 66.515 90.553 66.895 91.416 67.068 92.313 C 67.206 92.986 67.137 93.642 67.326 94.349 C 67.551 95.125 67.948 95.833 68.137 96.575 C 68.31 97.524 68.31 98.473 68.551 99.439 C 68.827 100.543 69.293 101.63 69.638 102.648 C 69.966 103.597 69.794 104.65 70.087 105.685 C 70.708 107.928 71.45 110.412 72.192 112.517 C 72.52 113.639 72.468 114.812 72.882 116.037 C 73.193 116.848 73.538 117.4 73.883 118.108 C 74.142 118.832 73.9 119.626 74.124 120.454 C 74.487 121.817 74.676 123.663 75.177 124.992 C 75.712 126.493 76.592 127.718 77.109 129.184 C 77.644 130.72 77.679 132.256 78.196 133.86 C 78.662 135.223 79.37 136.483 79.887 137.725 C 80.318 138.812 80.163 140.261 80.577 141.435 C 81.06 142.694 81.94 143.66 82.441 144.954 C 82.976 146.438 83.338 147.922 83.786 149.389 C 83.959 150.027 84.063 150.648 84.183 151.269 C 84.735 153.202 85.771 154.806 86.444 156.635 C 86.702 157.481 86.771 158.205 87.013 158.999 C 87.479 160.328 88.014 161.691 88.635 162.933 C 89.135 164.072 89.877 165.193 90.395 166.332 C 90.861 167.384 90.947 168.437 91.395 169.541 C 91.827 170.594 92.327 171.732 92.724 172.819 C 92.983 173.492 93 174.096 93.293 174.717 C 94.605 177.633 96.192 180.584 97.538 183.43 C 98.245 185.001 98.59 186.691 99.349 188.296 C 99.919 189.538 100.626 190.729 101.196 192.075 C 101.541 192.92 101.644 193.731 102.007 194.525 C 102.731 196.095 103.766 197.682 104.457 199.218 C 104.646 199.632 105.216 201.288 104.974 201.927 C 104.94 202.013 104.94 202.134 104.819 202.185 C 104.336 202.306 103.37 201.478 102.817 200.926 C 100.937 199.131 100.643 195.663 99.349 193.3 C 98.987 192.609 98.521 191.868 98.211 191.16 C 98.021 190.643 97.917 190.159 97.676 189.676 C 96.865 188.141 95.847 186.76 95.139 185.139 C 94.605 183.965 94.536 182.637 94.035 181.533 C 91.913 176.943 89.446 172.543 87.41 167.937 C 86.478 165.849 86.271 163.485 85.46 161.208 C 84.96 159.862 84.149 158.775 83.579 157.498 C 83.148 156.515 83.045 155.479 82.579 154.461 C 81.992 153.167 81.147 151.942 80.646 150.51 C 80.353 149.596 80.215 148.664 79.87 147.767 C 79.438 146.749 78.766 145.903 78.317 144.937 C 77.679 143.488 77.575 142.056 77.109 140.399 C 76.833 139.502 76.471 138.588 76.195 137.777 C 75.97 137.018 75.867 136.224 75.608 135.499 C 74.987 133.757 73.952 132.238 73.296 130.461 C 72.865 129.271 72.968 127.752 72.433 126.596 C 72.019 125.647 71.26 124.888 70.881 123.888 C 70.449 122.835 70.846 121.593 70.501 120.368 C 70.19 119.195 69.707 118.108 69.328 116.986 C 69.121 116.279 69.052 115.606 68.862 114.933 C 68.31 113.518 67.809 112.086 67.309 110.671 C 67.033 109.946 67.033 109.274 66.74 108.618 C 66.343 107.773 65.739 106.979 65.411 106.064 C 65.049 104.667 64.945 103.217 64.617 101.872 C 64.065 100.043 63.392 98.593 62.858 96.851 C 62.754 96.299 62.754 95.764 62.582 95.143 C 62.15 93.59 61.943 91.847 61.512 90.294 C 61.339 89.535 61.374 88.897 61.184 88.155 C 60.753 86.688 60.27 85.222 59.821 83.824 C 59.579 82.893 59.545 81.978 59.303 81.098 C 58.596 78.803 57.94 76.095 57.267 73.886 C 57.095 73.23 57.129 72.627 56.94 71.902 C 56.387 70.142 55.663 68.037 55.266 66.225 C 55.076 65.173 55.059 64.155 54.835 63.189 C 54.559 61.964 54.127 60.79 53.886 59.565 C 53.799 58.996 53.886 58.582 53.834 58.099 C 53.73 57.305 53.661 56.529 53.523 55.735 C 52.712 52.543 51.487 48.644 50.797 45.469 C 50.573 44.313 50.538 43.157 50.418 42.018 C 50.28 41.225 50.228 40.293 50.004 39.465 C 49.745 38.637 49.382 37.774 49.244 36.911 C 49.072 35.548 49.072 34.202 48.865 32.891 C 48.865 32.805 48.813 32.701 48.796 32.598 C 48.52 30.959 47.709 27.646 47.519 26.317 C 47.312 24.747 47.122 23.125 46.915 21.59 C 46.881 20.572 46.708 19.502 46.587 18.432 C 46.346 16.793 45.966 15.361 45.776 13.653 C 45.656 12.531 45.707 11.531 45.569 10.565 C 45.5 9.961 45.466 8.925 44.689 8.925 C 43.947 8.925 44.051 9.805 43.999 10.513 C 43.896 12.204 44.223 14.429 44.362 15.482 C 44.586 17.432 44.431 19.347 44.62 21.331 C 44.758 22.452 45.103 23.557 45.224 24.609 C 45.5 26.49 45.69 28.405 45.932 30.199 L 45.932 30.303 C 46.001 31.148 46.104 31.977 46.259 32.77 C 46.277 32.856 46.277 32.943 46.311 33.012 C 46.311 33.064 46.311 33.098 46.328 33.133 C 46.346 33.184 46.346 33.202 46.363 33.271 L 46.38 33.271 C 46.449 33.65 46.518 34.012 46.622 34.375 C 46.812 35.082 46.743 35.669 46.95 36.411 C 47.519 38.585 47.381 40.949 48.002 43.053 C 48.865 46.211 49.313 49.713 50.228 52.819 C 50.452 53.734 50.228 54.648 50.487 55.631 C 50.728 56.632 50.987 57.581 51.229 58.582 C 51.47 59.755 51.298 60.98 51.625 62.188 C 51.901 63.292 52.229 64.414 52.523 65.466 C 52.868 66.76 52.902 68.089 53.247 69.486 C 53.661 70.884 54.127 72.419 54.386 73.852 C 54.662 75.473 54.835 77.302 55.145 79.028 C 55.404 80.442 56.18 82.151 56.525 83.703 C 56.629 84.221 56.577 84.739 56.663 85.256 C 56.853 86.378 57.198 87.465 57.423 88.535 C 57.543 89.035 57.509 89.483 57.664 90.018 C 58.165 92.054 58.82 94.625 59.459 96.661 C 59.614 97.213 59.683 97.8 59.821 98.386 C 60.235 99.836 60.666 100.905 60.839 101.682 C 60.977 102.355 61.046 103.166 61.236 103.908 C 61.546 105.012 61.874 105.978 62.081 106.944 C 62.254 107.703 62.374 108.376 62.582 109.136 C 62.823 110.05 63.185 110.895 63.565 111.793 C 64.186 113.622 64.255 115.571 64.911 117.366 C 65.308 118.418 65.808 119.453 66.153 120.575 C 66.446 121.61 66.515 122.87 66.826 124.043 C 67.464 125.803 68.137 127.821 68.776 129.599 C 69.535 131.721 70.001 134.016 70.708 136.017 C 71.019 136.828 70.95 137.604 71.226 138.467 C 71.812 140.451 72.502 142.711 73.158 144.73 C 73.503 145.8 73.503 146.835 73.935 147.853 C 74.607 149.544 75.591 150.959 76.229 152.701 C 76.747 154.202 76.868 155.686 77.454 157.049 C 78.196 158.896 79.024 160.776 79.766 162.726 C 80.249 164.072 80.422 165.4 80.974 166.66 C 81.44 167.747 82.061 168.868 82.579 169.972 C 82.907 170.939 83.234 171.87 83.545 172.837 C 83.821 173.578 84.597 174.821 85.132 175.804 C 85.736 177.133 85.822 178.548 86.34 179.98 C 87.116 182.154 88.203 184.362 89.101 186.398 C 89.463 187.192 89.515 187.934 89.843 188.779 C 90.395 190.228 91.326 191.315 91.93 192.661 C 92.517 193.938 92.672 195.284 93.224 196.509 C 94.07 198.32 94.674 199.252 94.674 201.84 C 94.656 202.082 94.605 202.254 94.329 202.358 C 93.863 202.548 93.311 201.719 92.983 201.426 C 91.602 200.098 91.395 198.786 90.515 196.906 C 89.204 194.059 87.531 191.367 86.236 188.607 C 85.546 187.157 85.27 185.57 84.597 184.069 C 84.183 183.172 83.579 182.257 83.183 181.36 C 82.579 180.049 82.268 178.686 81.595 177.512 C 80.646 175.804 79.87 173.734 79.093 171.819 C 78.8 171.094 78.766 170.387 78.455 169.679 C 78.11 168.92 77.558 168.264 77.23 167.522 C 76.747 166.366 76.419 164.9 75.936 163.675 C 74.883 161.38 73.71 158.947 72.813 156.515 C 72.002 154.289 71.623 152.149 70.812 149.872 C 70.467 148.94 70.018 147.939 69.69 146.99 C 69.431 146.145 69.414 145.403 69.121 144.609 C 68.379 142.573 67.43 140.399 66.533 138.45 C 66.119 137.466 65.998 136.535 65.618 135.499 C 65.187 134.223 64.617 132.86 64.169 131.635 C 63.565 129.995 63.548 128.08 62.927 126.372 C 61.615 122.68 59.89 118.832 58.751 114.95 C 58.544 114.053 58.613 113.138 58.337 112.241 C 57.733 110.309 57.095 108.152 56.491 106.064 C 55.818 103.77 55.887 101.354 55.18 99.111 C 54.265 96.195 53.213 93.159 52.316 90.294 C 52.057 89.432 52.177 88.517 51.901 87.586 C 51.298 85.377 50.521 82.754 49.779 80.701 C 49.417 79.666 49.417 78.545 49.02 77.578 C 48.554 76.388 47.364 76.819 47.467 78.148 C 47.553 79.355 47.968 80.891 48.088 81.512 C 48.226 82.34 48.226 83.169 48.416 84.049 C 48.778 85.601 49.279 86.895 49.71 88.31 C 50.193 89.794 50.193 91.157 50.59 92.675 C 50.832 93.417 51.125 94.246 51.349 94.953 C 51.798 96.471 51.798 98.093 52.316 99.473 C 52.712 100.526 53.006 101.854 53.351 103.01 C 53.558 103.77 53.523 104.391 53.765 105.15 C 54.162 106.53 54.593 107.893 55.042 109.274 C 55.249 110.05 55.18 110.74 55.335 111.465 C 55.645 112.569 55.904 113.673 56.215 114.691 C 56.491 115.657 56.456 117.003 56.802 118.039 C 57.405 119.919 58.113 121.921 58.734 123.715 C 59.459 125.699 59.545 127.752 60.252 129.788 C 61.546 133.343 62.72 137.449 63.996 141.055 C 64.341 141.97 64.238 142.919 64.514 143.919 C 64.945 145.455 65.29 146.99 65.825 148.526 C 66.084 149.251 66.567 149.993 66.86 150.648 C 67.292 151.528 67.378 152.477 67.792 153.392 C 68.12 154.099 68.586 154.841 68.862 155.583 C 69.259 156.722 69.121 158.136 69.569 159.206 C 69.897 160.069 70.363 161.018 70.708 161.915 C 71.088 162.898 71.07 163.968 71.484 164.9 C 71.812 165.694 72.399 166.47 72.779 167.264 C 73.158 168.006 73.227 168.799 73.503 169.645 C 73.848 170.507 74.314 171.387 74.676 172.198 C 75.073 173.095 75.091 174.131 75.522 175.08 C 75.867 175.891 76.419 176.667 76.747 177.547 C 77.075 178.461 77.092 179.445 77.42 180.411 C 77.972 181.809 78.835 183.034 79.438 184.362 C 79.887 185.346 79.939 186.467 80.387 187.485 C 80.888 188.658 81.595 189.797 82.13 190.919 C 82.82 192.471 83.338 194.093 84.028 195.543 C 85.167 198.131 85.564 200.96 86.754 203.497 C 87.617 205.412 88.807 207.172 89.653 209.018 C 90.101 210.07 90.257 211.175 90.74 212.141 C 91.257 213.262 92.206 214.211 92.707 215.367 C 93.121 216.489 93.449 217.645 93.932 218.732 C 94.605 220.164 95.519 221.458 96.175 222.855 C 96.554 223.649 96.727 224.425 97.089 225.219 C 97.797 226.789 98.987 228.066 99.712 229.602 C 100.057 230.602 100.436 231.603 100.781 232.638 C 101.558 234.277 102.783 235.675 103.594 237.331 C 104.146 238.556 104.543 239.833 105.267 240.955 C 106.372 242.697 107.096 243.836 108.183 245.613 C 108.891 246.752 109.84 248.426 110.409 249.668 C 110.978 250.91 111.927 251.928 112.48 253.136 C 113.049 254.326 113.774 255.62 114.412 256.742 C 115.137 258.019 115.861 258.933 116.672 260.141 C 117.949 262.091 118.76 264.178 120.037 266.162 C 120.917 267.543 121.935 268.94 122.901 270.269 C 125.506 273.84 129.216 280.173 130.786 282.312 C 132.114 284.037 133.201 286.108 134.426 287.902 C 135.341 289.334 136.514 290.715 137.532 292.026 C 138.377 293.096 139.033 294.269 139.844 295.408 L 140.5 296.27 C 173.644 338.421 207.721 366.304 236.569 384.61 L 236.552 384.627 C 251.77 394.116 259.965 396.877 259.965 396.877 C 261.88 397.688 260.586 399.086 259.586 399.707 L 88.497 509.131 C 87.962 509.493 86.651 510.459 87.185 511.529 C 87.582 512.34 89.308 511.891 89.774 511.736 C 227.097 463.546 326.72 423.914 387.626 395.014 C 449.377 365.717 470.116 348.946 467.856 340.595 Z " fill="rgb(0,107,110)"/></g></svg>