<?xml version="1.0" encoding="UTF-8" standalone="no"?><!-- Generator: Gravit.io --><svg xmlns="http://www.w3.org/2000/svg" xmlns:xlink="http://www.w3.org/1999/xlink" style="isolation:isolate" viewBox="0 0 512 512" width="512pt" height="512pt"><defs><clipPath id="_clipPath_r2MamwvnDvXdGTd2HK1QCVClTyOQnpko"><rect width="512" height="512"/></clipPath></defs><g clip-path="url(#_clipPath_r2MamwvnDvXdGTd2HK1QCVClTyOQnpko)"><path d=" M 500.859 197.1 C 332.361 201.772 169.292 240.011 154.14 294.237 C 152.752 299.155 152.406 304.018 152.406 308.973 C 152.406 362.377 263.889 380.644 384.576 395.69 C 386.646 395.932 386.556 394.285 385.881 393.098 C 385.407 392.257 383.601 389.065 382.36 386.866 C 381.876 386.007 381.357 385.443 379.668 384.959 C 313.613 368.152 246.556 343.598 246.556 320.705 C 246.556 277.402 358.914 234.508 486.863 214.9 C 491.087 214.087 493.103 213.294 495.94 211.041 C 499.489 208.213 507.297 201.834 510.599 199.198 C 512.752 197.408 511.987 196.844 511.174 196.862 C 507.744 196.931 504.314 197 500.857 197.104 L 500.859 197.1 Z " fill-rule="evenodd" fill="rgb(27,29,128)"/><path d=" M 314.463 458.523 C 226.934 436.588 140.191 363.128 153.856 295.07 C 173.825 195.771 307.365 99.582 474.02 54.381 C 477.778 53.268 479.165 50.786 474.348 50.786 L 246.894 50.786 C 207.513 50.786 198.975 55.877 183.722 76.516 C 175.594 87.493 107.524 181.354 76.828 223.664 C 72.878 228.7 67.295 234.12 54.87 234.12 L 0 234.12 C 0 234.138 0 234.147 0.046 234.175 C 65.069 417.892 134.918 461.214 204.886 461.214 L 315.357 461.214 C 316.916 461.214 318.476 459.535 314.463 458.523" fill-rule="evenodd" fill="rgb(223,0,17)"/></g></svg>