<?xml version="1.0" encoding="UTF-8" standalone="no"?><!-- Generator: Gravit.io --><svg xmlns="http://www.w3.org/2000/svg" xmlns:xlink="http://www.w3.org/1999/xlink" style="isolation:isolate" viewBox="0 0 512 512" width="512pt" height="512pt"><defs><clipPath id="_clipPath_IXmzXfJMt8lNn5vVltuKO8l1iTm4iuZb"><rect width="512" height="512"/></clipPath></defs><g clip-path="url(#_clipPath_IXmzXfJMt8lNn5vVltuKO8l1iTm4iuZb)"><path d=" M 298.556 318.469 L 203.817 318.469 L 211.38 286.226 L 272.284 286.226 C 293.182 286.226 303.333 268.114 288.406 257.764 C 273.876 247.613 264.323 239.453 249.793 229.103 C 220.535 208.205 234.269 159.84 283.43 159.442 L 372.796 159.442 L 365.033 191.287 L 305.124 191.287 C 288.605 191.088 285.022 209.2 295.77 215.768 L 334.183 244.23 C 365.83 268.313 347.319 318.469 298.556 318.469 Z  M 407.427 491.827 C 397.874 509.541 375.184 517.104 356.873 508.346 C 259.745 462.171 174.161 397.286 103.106 318.469 L 191.875 318.469 L 199.836 286.425 L 143.709 286.425 C 142.116 286.425 140.524 286.425 138.932 286.226 C 130.573 285.031 125.597 281.648 122.81 277.269 C 120.024 272.89 119.228 268.114 119.825 264.133 C 119.825 263.138 122.81 250.997 123.009 249.803 L 123.009 249.404 L 131.369 215.967 L 131.369 215.967 C 135.15 200.442 148.087 191.287 165.204 190.69 L 222.725 190.69 L 230.288 159.043 L 190.68 159.043 L 140.922 177.753 L 145.699 159.043 L 138.733 159.043 C 122.81 158.844 111.664 160.238 103.703 163.82 C 96.538 167.204 91.363 172.578 88.975 180.539 L 66.086 274.483 C 46.183 249.205 27.672 222.933 10.556 195.267 C 0.007 178.151 4.386 154.665 21.303 143.121 C 152.068 53.954 306.717 3.599 464.948 0.016 C 485.448 -0.581 502.764 15.541 504.556 35.842 C 507.939 77.042 507.939 118.242 504.954 159.442 L 420.564 159.442 L 340.552 317.673 L 399.068 317.673 L 408.423 296.575 C 409.418 294.386 410.413 293.789 413 293.789 L 454.996 293.789 C 455.792 293.789 457.584 293.988 457.584 296.177 L 458.181 317.673 L 477.089 317.673 C 460.768 378.179 437.282 436.695 407.427 491.827 L 407.427 491.827 L 407.427 491.827 Z  M 456.987 265.526 L 454.996 200.84 C 454.996 198.651 453.006 198.452 452.011 200.641 L 422.554 266.123 C 421.36 268.711 422.156 271.099 424.345 270.9 L 454.001 270.9 C 456.39 270.701 457.186 268.711 456.987 265.526 L 456.987 265.526 Z " fill-rule="evenodd" fill="rgb(239,0,30)"/></g></svg>