<?xml version="1.0" encoding="UTF-8" standalone="no"?><!-- Generator: Gravit.io --><svg xmlns="http://www.w3.org/2000/svg" xmlns:xlink="http://www.w3.org/1999/xlink" style="isolation:isolate" viewBox="0 0 512 512" width="512pt" height="512pt"><defs><clipPath id="_clipPath_XjzZHoG7oNTBkvyPEuvFQgDbWjY18LLI"><rect width="512" height="512"/></clipPath></defs><g clip-path="url(#_clipPath_XjzZHoG7oNTBkvyPEuvFQgDbWjY18LLI)"><path d=" M 459.316 405.89 L 238.439 299.532 L 238.439 65.546 L 459.316 405.89 Z  M 476.877 446.454 L 238.439 345.786 L 238.439 446.454 L 476.877 446.454 Z " fill="rgb(152,0,46)"/><path d=" M 17.561 405.89 L 238.439 65.546 L 238.439 299.532 L 17.561 405.89" fill="rgb(227,24,55)"/><path d=" M 0 446.454 L 238.439 446.454 L 238.439 345.786 L 0 446.454" fill="rgb(227,24,55)"/><path d=" M 496.17 376.703 C 504.827 376.703 512 383.629 512 392.286 C 512 400.943 505.074 408.116 496.417 408.116 C 487.76 408.116 480.587 401.19 480.587 392.533 L 480.587 392.533 C 480.587 383.629 487.513 376.703 496.17 376.703 Z  M 496.17 405.643 C 503.59 405.643 509.527 399.706 509.527 392.286 C 509.527 384.866 503.59 378.929 496.17 378.929 C 488.75 378.929 482.814 384.866 482.814 392.286 L 482.814 392.286 L 482.814 392.286 C 482.814 399.706 488.75 405.643 496.17 405.643 L 496.17 405.643 L 496.17 405.643 Z  M 492.707 401.438 L 490.481 401.438 L 490.481 383.382 L 497.407 383.382 C 501.612 383.382 503.096 385.113 503.096 388.329 C 503.343 391.049 501.117 393.275 498.643 393.523 L 504.085 401.438 L 501.612 401.438 L 496.17 393.523 L 492.955 393.523 L 492.707 401.438 Z  M 492.707 391.297 L 495.675 391.297 C 498.149 391.297 500.87 391.049 500.87 388.081 C 500.87 385.855 498.643 385.113 496.912 385.113 L 492.955 385.113 L 492.955 391.297 L 492.707 391.297 Z " fill="rgb(152,0,46)"/></g></svg>