<?xml version="1.0" encoding="UTF-8" standalone="no"?><!-- Generator: Gravit.io --><svg xmlns="http://www.w3.org/2000/svg" xmlns:xlink="http://www.w3.org/1999/xlink" style="isolation:isolate" viewBox="0 0 512 512" width="512pt" height="512pt"><defs><clipPath id="_clipPath_Ih4Wqlh2cLxxU3pQn7jw2GoCyyU4ModK"><rect width="512" height="512"/></clipPath></defs><g clip-path="url(#_clipPath_Ih4Wqlh2cLxxU3pQn7jw2GoCyyU4ModK)"><path d=" M 204.174 279.042 C 166.665 259.45 135.536 257.967 120.971 257.967 L 70.314 257.967 L 67.607 253.198 L 127.158 253.198 C 131.283 253.198 180.651 252.489 209.717 260.288 C 246.066 270.019 271.201 289.096 276.1 292.319 C 280.998 295.477 347.316 342.976 347.316 342.976 C 347.316 342.976 336.166 354.383 325.274 354.383 C 314.962 354.383 303.813 346.456 303.813 346.456 C 303.813 346.456 268.301 320.87 262.888 317.067 C 257.474 313.265 229.438 292.383 204.11 279.107 L 204.174 279.042 Z " fill="rgb(53,142,157)"/><path d=" M 201.468 316.487 C 226.538 333.115 241.297 345.296 246.131 348.776 C 250.9 352.256 273.199 368.175 273.199 368.175 C 273.199 368.175 283.447 376.167 296.014 376.167 C 305.553 376.167 317.282 365.082 317.282 365.082 C 317.282 365.082 264.048 327.508 259.214 324.157 C 254.38 320.741 237.301 307.271 205.463 298.893 C 178.846 291.868 141.014 292.061 138.501 292.061 L 90.035 292.061 L 92.871 296.959 C 92.871 296.959 129.414 297.024 132.185 297.024 C 138.05 297.024 175.044 298.828 201.468 316.358 L 201.468 316.487 Z " fill="rgb(53,142,157)"/><path d=" M 209.653 239.793 C 241.942 257.13 273.908 281.105 279.838 285.423 C 285.831 289.741 334.361 324.479 334.361 324.479 C 334.361 324.479 345.705 332.148 356.081 332.148 C 366.199 332.148 377.671 320.934 377.671 320.934 C 377.671 320.934 300.204 265.186 293.243 260.288 C 286.283 255.389 258.376 232.51 213.584 221.876 C 178.524 212.982 120.004 214.013 115.944 214.013 L 45.05 214.013 L 47.886 218.911 L 109.757 218.911 C 122.582 218.911 172.014 219.556 209.588 239.793 L 209.653 239.793 Z " fill="rgb(53,142,157)"/><path d=" M 490.393 239.019 C 480.854 237.344 468.287 236.57 468.287 236.57 L 451.143 241.468 L 441.347 233.283 C 441.347 233.283 461.777 234.895 467.449 235.733 C 472.347 235.733 470.736 233.283 468.222 228.321 C 465.773 223.423 460.102 223.423 460.102 223.423 L 408.607 223.423 C 408.607 223.423 399.391 223.487 388.821 221.038 C 378.187 218.589 373.998 210.597 373.998 210.597 C 369.873 220.071 386.243 231.092 386.243 231.092 L 437.222 267.635 C 443.796 271.76 449.467 268.473 449.467 268.473 C 449.467 268.473 462.551 261.899 469.898 260.288 C 476.472 258.676 496.837 257.839 499.287 258.676 C 505.022 259.514 511.532 265.25 511.532 265.25 C 514.819 242.306 500.06 240.824 490.328 239.019 L 490.393 239.019 Z " fill="rgb(32,45,92)"/><path d=" M 219.707 163.292 C 255.218 178.888 306.004 216.849 313.416 222.263 C 320.892 227.676 394.041 280.073 394.041 280.073 C 394.041 280.073 405.513 288.258 416.147 288.258 C 426.781 288.258 437.287 277.56 437.287 277.56 L 437.287 277.56 C 437.287 277.56 333.91 203.25 326.434 197.901 C 318.958 192.552 284.671 163.679 220.931 146.857 C 177.299 135.321 102.281 135.837 93.58 135.837 L 0 135.837 L 2.9 140.799 L 88.682 140.799 C 110.337 140.799 172.788 142.604 219.771 163.292 L 219.707 163.292 Z " fill="rgb(32,45,92)"/><path d=" M 214.293 201.446 C 175.946 182.24 128.64 179.855 101.121 179.855 L 25.393 179.855 L 22.557 174.957 L 104.859 174.957 C 113.753 174.957 176.075 174.313 217.322 183.658 C 264.885 194.485 305.811 225.678 310.064 228.643 C 314.124 231.479 408.027 298.828 408.027 298.828 C 408.027 298.828 397.328 309.849 385.792 309.849 C 375.222 309.849 363.75 301.664 363.75 301.664 C 363.75 301.664 302.653 257.839 296.723 253.649 C 290.858 249.46 249.998 219.234 214.293 201.381 L 214.293 201.446 Z " fill="rgb(32,45,92)"/></g></svg>