<?xml version="1.0" encoding="UTF-8" standalone="no"?><!-- Generator: Gravit.io --><svg xmlns="http://www.w3.org/2000/svg" xmlns:xlink="http://www.w3.org/1999/xlink" style="isolation:isolate" viewBox="0 0 512 512" width="512pt" height="512pt"><defs><clipPath id="_clipPath_BEoE5Tyni62RQdyASdcKX3mLqhLZKeA9"><rect width="512" height="512"/></clipPath></defs><g clip-path="url(#_clipPath_BEoE5Tyni62RQdyASdcKX3mLqhLZKeA9)"><path d=" M 259.84 414.604 L 279.467 414.604 L 278.667 391.189 L 259.84 414.604 Z " fill="rgb(230,0,17)"/><path d=" M 371.748 288.463 C 319.409 339.424 241.246 306.828 249.165 244.274 C 255.249 195.952 314.474 147.975 359.237 121.92 C 359.361 121.843 359.361 121.504 359.237 121.337 C 353.384 115.831 341.217 103.088 333.297 93.676 C 311.719 67.506 273.728 66.473 251.117 95.166 L 122.336 107.103 C 121.761 107.103 121.761 107.769 122.336 107.936 L 260.299 115.857 C 284.861 117.231 292.781 139.501 269.251 157.406 C 181.561 223.863 165.951 294.107 185.463 349.889 C 185.579 350.222 185.122 350.473 184.889 350.138 C 176.739 338.776 170.771 324.773 167.442 310.196 C 125.434 283.797 91.23 233.41 91.23 171.199 C 91.23 80.755 164.918 6.264 256.051 6.264 C 347.07 6.264 420.872 80.755 420.872 171.199 C 420.872 220.095 399.409 261.53 371.747 288.503 M 404 443.108 L 324.803 443.108 L 352.924 369.881 L 387.816 369.881 L 365.549 427.614 L 409.968 427.614 L 404 443.108 Z  M 280.499 443.108 L 279.924 428.646 L 248.36 428.646 L 236.768 443.108 L 207.958 443.108 L 266.495 375.275 C 269.249 372.06 273.382 369.878 277.17 369.878 L 308.389 369.878 L 315.39 443.106 L 280.499 443.108 Z  M 161.015 445.515 C 151.603 445.515 143.454 444.599 136.682 443.108 L 142.651 427.499 C 158.605 429.448 172.378 428.082 177.658 414.07 L 194.645 369.881 L 229.538 369.881 L 210.829 418.547 C 201.302 443.453 177.773 445.519 161.015 445.519 M 510.973 278.632 C 512.695 262.334 512.236 239.148 509.71 221.932 C 509.71 221.599 509.368 221.599 509.252 221.932 C 503.972 246.838 487.903 280.583 453.011 308.13 C 452.777 308.462 452.436 308.052 452.668 307.797 C 483.2 275.085 501.449 234.798 504.319 193.363 C 498.579 170.523 489.627 148.486 478.264 128.973 C 478.14 128.722 477.922 128.896 477.922 129.051 C 484.12 170.945 474.249 226.268 433.618 271.145 C 433.384 271.478 432.926 271.145 433.16 270.813 C 468.167 220.426 477.234 159.135 461.969 103.926 C 415.254 40.913 340.419 -0.062 256.057 -0.062 C 171.581 -0.062 96.745 40.913 50.031 103.926 C 34.765 159.135 43.832 220.426 78.84 270.813 C 79.073 271.146 78.724 271.479 78.382 271.146 C 37.866 226.267 27.88 170.945 34.078 129.05 C 34.194 128.8 33.844 128.718 33.736 128.973 C 22.488 148.486 13.535 170.523 7.682 193.363 C 10.553 234.798 28.801 275.085 59.447 307.797 C 59.68 308.046 59.213 308.462 58.989 308.13 C 24.096 280.583 7.912 246.838 2.747 221.932 C 2.631 221.599 2.289 221.599 2.289 221.932 C -0.235 239.148 -0.695 262.333 1.025 278.632 C 9.863 306.179 28.687 329.249 47.855 345.892 C 48.196 346.225 47.855 346.557 47.513 346.475 C 26.05 333.047 13.998 319.961 5.849 308.483 C 5.616 308.15 5.391 308.232 5.391 308.561 C 29.15 423.569 132.106 512.062 256.066 512.062 C 379.911 512.062 482.982 423.569 506.626 308.561 C 506.75 308.228 506.392 308.061 506.284 308.483 C 498.135 319.961 486.083 333.047 464.505 346.475 C 464.163 346.553 463.813 346.226 464.163 345.892 C 483.446 329.249 502.27 306.179 510.993 278.632" fill="rgb(230,0,17)"/></g></svg>