<?xml version="1.0" encoding="UTF-8" standalone="no"?><!-- Generator: Gravit.io --><svg xmlns="http://www.w3.org/2000/svg" xmlns:xlink="http://www.w3.org/1999/xlink" style="isolation:isolate" viewBox="0 0 512 512" width="512pt" height="512pt"><defs><clipPath id="_clipPath_BqZVPRpLW6NYeBTmGWTIW39fTm35kcpb"><rect width="512" height="512"/></clipPath></defs><g clip-path="url(#_clipPath_BqZVPRpLW6NYeBTmGWTIW39fTm35kcpb)"><g><path d=" M 372.72 54.161 C 372.72 54.161 299.362 7.981 202.914 35.144 C 202.914 35.144 73.133 72.492 28.292 177.077 C 28.292 177.077 -32.088 274.218 23.567 381.537 C 23.567 381.537 56.925 456.705 145.839 478.002 C 145.839 478.002 259.535 508.592 342.865 445.486 C 342.865 445.486 468.68 379.1 471.877 238.902 C 471.877 238.902 484.071 115.284 372.72 54.161 Z  M 433.802 298.663 C 410.721 361.149 307.507 430.443 307.507 430.443 C 122.757 522.818 50.655 388.89 50.655 388.89 C 9.928 301.942 59.759 219.034 59.759 219.034 C 107.309 125.296 197.454 88.122 197.454 88.122 C 323.79 33.789 395.801 94.921 395.801 94.921 C 497.685 170.997 433.802 298.663 433.802 298.663 Z " fill="rgb(236,34,39)"/><path d=" M 170.192 165.197 C 170.192 165.197 120.568 281.232 119.874 288.229 C 119.874 288.229 102.369 342.752 110.771 395.879 L 198.709 398.464 C 198.709 398.464 174.381 386.775 189.746 324.561 C 189.746 324.561 200.246 287.51 207.929 284.718 C 207.929 284.718 210.019 281.232 211.431 287.51 C 211.431 287.51 228.879 350.41 275.752 397.969 C 275.752 397.969 305.07 438.506 377.776 466.453 C 377.776 466.453 441.394 483.256 479.147 451.814 C 479.147 451.814 511.307 432.244 511.985 375.581 C 511.985 375.581 512.53 369.84 507.111 374.21 C 507.111 374.21 483.327 400.753 422.534 395.879 C 422.534 395.879 404.376 399.365 354.058 360.934 L 247.086 272.863 C 247.086 272.863 242.204 269.361 249.176 268.642 C 249.176 268.642 311.382 257.465 329.581 242.777 C 329.581 242.777 385.533 215.284 393.166 174.301 C 393.166 174.301 404.756 129.386 386.871 103 C 386.871 103 380.593 98.795 378.503 103.694 C 378.503 103.694 346.516 136.688 318.924 154.392 L 236.578 207.841 C 236.578 207.841 230.258 212.037 235.198 202.256 L 258.957 139.34 C 258.957 139.34 272.241 117.671 235.901 120.472 C 235.901 120.472 181.122 125.999 150.845 163.314 C 150.845 163.314 148.499 164.503 152.704 165.899 L 170.192 165.197 L 170.192 165.197 Z " fill="rgb(236,34,39)"/></g></g></svg>