<?xml version="1.0" encoding="UTF-8" standalone="no"?><!-- Generator: Gravit.io --><svg xmlns="http://www.w3.org/2000/svg" xmlns:xlink="http://www.w3.org/1999/xlink" style="isolation:isolate" viewBox="0 0 512 512" width="512pt" height="512pt"><defs><clipPath id="_clipPath_Oa07xFhLQoxUPGJLDC8R9s6PHC5OHDV1"><rect width="512" height="512"/></clipPath></defs><g clip-path="url(#_clipPath_Oa07xFhLQoxUPGJLDC8R9s6PHC5OHDV1)"><g><path d=" M 511.962 256.038 C 511.962 327.241 454.297 384.962 383.113 384.962 C 311.91 384.962 254.17 327.241 254.17 256.038 C 254.17 184.777 311.91 127.056 383.113 127.056 C 454.297 127.056 511.962 184.777 511.962 256.038 Z " fill="rgb(255,255,255)"/><path d=" M 438.47 178.294 C 477.733 190.346 506.298 226.901 506.298 270.206 C 506.298 276.575 505.65 282.677 504.506 288.607 L 504.353 289.446 C 501.378 306.418 494.476 322.111 484.693 335.383 L 484.503 335.594 C 501.703 313.703 512 286.015 512 255.924 C 512 184.721 454.24 126.942 382.98 126.942 C 350.563 126.942 320.968 138.937 298.276 158.711 L 297.952 158.998 C 280.085 175.397 268.93 198.947 268.93 225.09 C 268.93 235.864 270.798 246.314 274.345 255.925 L 274.518 256.382 C 283.499 275.985 303.312 289.677 326.309 289.677 C 357.715 289.677 383.229 264.239 383.229 232.775 L 383.057 208.291 C 383.057 197.116 389.349 187.239 398.598 182.205 L 398.69 182.177 C 405.917 178.23 414.174 175.903 423.06 175.903 C 428.418 175.903 433.548 176.704 438.391 178.249 L 438.468 178.311" fill="rgb(237,25,45)"/><path d=" M 284.318 338.987 C 307.982 367.133 343.45 385.058 383.113 385.058 C 415.55 385.058 445.24 373.082 467.894 353.308 L 468.199 353.079 C 486.066 336.623 497.241 313.073 497.241 286.949 C 497.241 276.156 495.334 265.725 491.806 256.095 L 491.633 255.694 C 482.633 235.977 462.878 222.324 439.823 222.324 C 408.417 222.324 382.941 247.78 382.941 279.187 L 383.113 303.748 C 383.113 314.941 376.821 324.781 367.553 329.815 L 367.461 329.877 C 360.234 333.824 351.92 336.131 343.13 336.131 C 337.733 336.131 332.584 335.254 327.76 333.786 L 327.698 333.71 C 288.416 321.62 259.851 285.046 259.851 241.817 C 259.851 235.505 260.479 229.327 261.643 223.358 L 261.75 222.558 C 264.744 205.548 271.647 189.969 281.487 176.64 L 281.609 176.431 C 264.447 198.322 254.131 226.01 254.131 256.043 C 254.131 276.733 259.031 296.355 267.689 313.707 L 266.621 314.508 C 266.621 314.508 261.625 318.341 251.461 306.728 C 241.335 295.02 181.841 223.073 181.841 223.073 C 181.841 223.073 219.597 182.609 256.552 166.286 C 256.552 166.286 266.22 163.159 263.932 154.635 L 262.349 149.544 C 262.349 149.544 262.026 144.071 253.406 145.234 C 244.863 146.436 204.38 149.544 163.973 145.635 C 163.973 145.635 157.738 145.635 155.411 150.746 C 155.411 150.746 151.483 157.343 155.411 161.176 C 159.32 165.123 173.336 174.83 173.336 188.044 C 173.336 188.044 176.368 197.809 155.03 213.33 C 133.598 228.927 120.402 239.015 111.478 243.725 L 111.821 207.15 C 111.821 207.15 110.677 176.431 132.854 161.976 C 132.854 161.976 138.27 159.688 136.344 154.635 L 134.838 150.745 C 134.838 150.745 133.598 144.49 127.001 145.234 C 127.001 145.234 88.539 149.543 11.863 146.035 C 11.863 146.035 6.791 145.634 4.884 149.543 L 3.339 152.633 C 3.339 152.633 0.612 159.688 4.884 162.777 C 9.193 165.885 27.061 176.431 27.862 208.638 C 27.862 208.638 29.788 269.734 27.061 293.456 C 24.315 317.216 22.408 330.831 3.339 347.516 C 3.339 347.516 -1.714 351.483 0.612 357.28 L 3.339 362.314 C 3.339 362.314 5.265 366.223 11.863 365.479 C 18.499 364.678 66.343 359.968 127.001 364.678 C 127.001 364.678 131.31 366.223 133.236 361.971 L 135.963 356.517 C 135.963 356.517 139.071 351.082 133.236 346.773 C 127.382 342.482 111.822 330.087 111.479 305.965 C 111.098 281.843 111.098 266.569 111.098 266.569 C 111.098 266.569 121.604 270.898 177.572 353.79 C 177.572 353.79 197.422 389.563 239.412 367.424 C 239.412 367.424 270.132 350.682 282.965 339.793 L 284.32 338.993" fill="rgb(28,78,157)"/></g></g></svg>