<?xml version="1.0" encoding="UTF-8" standalone="no"?><!-- Generator: Gravit.io --><svg xmlns="http://www.w3.org/2000/svg" xmlns:xlink="http://www.w3.org/1999/xlink" style="isolation:isolate" viewBox="0 0 512 512" width="512pt" height="512pt"><defs><clipPath id="_clipPath_dQCIk1UL6jcNOLl27EGz7AlQtLqqpiAm"><rect width="512" height="512"/></clipPath></defs><g clip-path="url(#_clipPath_dQCIk1UL6jcNOLl27EGz7AlQtLqqpiAm)"><path d=" M 53.173 254.613 L 51.373 261.531 C 51.373 261.531 74.075 261.156 83.225 261.156 C 104.181 261.135 116.941 263.052 118.345 275.813 C 119.588 284.408 115.602 292.669 113.299 300.785 C 111.081 308.661 109.067 316.213 106.881 323.985 C 104.577 332.184 102.092 339.414 97.71 344.946 C 92.717 351.227 86.343 355.395 79.818 356.988 C 70.829 359.187 34.081 357.884 23.849 357.884 C 22.703 360.77 22.017 364.125 21.096 367.24 C 50.891 368.76 79.604 366.76 110.095 367.687 C 119.984 367.99 129.798 369.042 138.53 367.24 C 151.836 364.52 161.457 355.363 165.593 343.154 C 169.685 331.132 173.392 317.12 177.067 304.358 C 179.081 297.368 180.367 290.763 183.485 285.179 C 186.452 279.856 190.374 275.709 195.409 271.792 C 204.644 264.635 219.687 258.614 233.947 265.552 C 240.975 268.969 245.057 274.647 244.96 285.179 C 244.875 294.242 241.832 301.702 239.454 310.15 C 232.35 335.382 226.083 356.822 219.269 381.522 C 217.03 389.627 215.305 398.316 212.391 405.16 C 206.734 418.453 194.284 429.329 177.989 431.923 C 164.328 434.09 148.793 432.371 134.405 432.371 L 3.214 432.371 C 3.214 432.371 0.975 438.82 0 442.185 C 57.576 442.997 116.92 442.622 172.942 442.622 C 188.199 442.622 202.33 443.029 215.605 441.737 C 253.66 438.028 287.344 427.35 315.147 412.296 C 361.366 387.273 397.686 352.342 424.32 307.483 C 439.663 281.637 465.311 261.948 507.481 261.948 C 508.692 258.739 509.302 257.343 510.299 254.613 L 53.173 254.613 L 53.173 254.613 Z " fill="rgb(0,43,92)"/><path d=" M 512 249.935 C 479.698 250.654 455.538 236.798 453.224 207.566 C 452.753 201.669 453.27 196.158 452.763 191.064 C 451.178 174.906 447.696 162.176 442.21 149.581 C 421.157 101.232 379.62 74.604 312.851 69.291 L 105.507 69.291 C 105.111 72.917 103.493 75.354 103.214 79.105 L 237.158 79.105 C 251.783 79.105 268.014 77.115 280.281 80.438 C 288.199 82.584 297.863 89.71 297.252 103.628 C 296.942 110.764 293.609 118.359 291.285 126.381 C 284.867 148.581 279.36 170.573 272.942 192.846 C 268.764 207.316 265.796 222.734 256.882 233.433 C 248.804 243.132 234.159 252.623 216.513 247.705 C 210.095 245.914 206.078 243.653 203.217 239.236 C 196.296 228.568 202.66 212.16 205.97 200.43 C 207.781 193.992 209.763 188.022 211.467 182.136 C 213.106 176.479 215.913 169.687 216.052 162.957 C 216.288 152.612 209.699 147.278 203.217 145.112 C 195.525 142.559 184.425 143.778 174.311 143.778 C 144.784 143.778 112.932 143.413 84.401 144.226 C 83.79 147.341 82.612 149.914 82.108 153.144 C 107.8 153.144 149.08 149.925 149.08 170.989 C 149.146 175.906 147.366 181.407 145.866 186.595 C 143.134 196.096 140.273 205.503 137.616 215.15 C 136.266 220.036 135.345 225.078 133.492 229.422 C 128.606 240.871 123.442 249.935 104.586 249.935 L 54.37 249.935 L 53.17 254.612 L 510.296 254.612 C 511.003 252.529 511.389 251.508 512 249.935" fill="rgb(237,28,36)"/></g></svg>