<?xml version="1.0" encoding="UTF-8" standalone="no"?><!-- Generator: Gravit.io --><svg xmlns="http://www.w3.org/2000/svg" xmlns:xlink="http://www.w3.org/1999/xlink" style="isolation:isolate" viewBox="0 0 512 512" width="512pt" height="512pt"><defs><clipPath id="_clipPath_QDGLszauaFj3BQnQRyQDDRHtHkU3G7nN"><rect width="512" height="512"/></clipPath></defs><g clip-path="url(#_clipPath_QDGLszauaFj3BQnQRyQDDRHtHkU3G7nN)"><path d=" M 353.356 448.198 C 336.773 447.568 323.046 445.25 318.747 443.991 C 309.027 441.073 299.492 439.308 290.786 433.135 C 289.158 432.245 288.621 431.922 287.039 431.047 C 286.272 431.047 285.228 429.604 284.46 429.604 C 278.901 425.212 274.126 420.79 273.343 413.727 C 272.161 405.067 275.078 396.898 280.329 390.357 L 280.375 390.357 C 282.034 388.269 283.922 386.334 286.011 384.707 C 288.437 382.91 291.584 383.785 293.949 382.91 C 295.5 382.91 296.329 377.613 299.492 378.473 C 302.67 380.254 300.336 383.785 297.895 385.566 L 297.895 388.207 C 299.338 388.73 301.027 388.3 302.67 388.438 C 301.135 391.017 299.646 391.063 298.709 392.614 C 298.709 393.474 301.887 393.474 301.887 394.334 C 299.492 397.006 294.778 395.255 291.584 397.006 L 291.584 398.787 C 299.492 397.912 308.213 391.739 316.152 396.13 C 316.152 396.13 313.772 397.006 312.16 397.912 C 316.152 400.522 320.113 397.912 324.044 398.787 C 328.804 400.522 333.549 398.787 338.339 399.647 C 337.556 397.912 335.145 398.787 334.332 397.006 C 340.704 395.255 347.045 398.787 353.371 400.522 C 350.991 397.912 347.828 396.13 343.882 396.13 C 341.487 396.13 339.107 393.474 337.556 390.818 L 337.556 390.296 C 337.556 389.605 337.664 389.083 338.339 389.083 C 340.32 388.591 342.531 389.513 344.65 390.296 C 346.692 391.063 348.657 391.693 350.208 390.818 C 353.172 389.206 355.475 392.215 358.316 390.357 L 358.408 390.357 C 358.577 390.188 358.745 390.096 358.93 389.958 C 355.767 386.426 350.208 389.958 347.045 385.566 C 350.208 383.785 353.371 385.566 356.55 382.91 C 358.147 381.129 362.108 381.129 365.24 381.129 C 369.217 380.254 373.21 382.035 377.14 382.035 C 377.923 382.035 379.551 383.785 380.319 383.785 C 383.482 383.785 386.645 387.286 389.808 385.566 C 389.808 384.707 388.257 383.785 387.459 382.91 C 385.033 382.91 381.916 382.91 380.319 380.254 C 380.319 379.379 380.319 378.473 381.102 378.473 C 385.033 378.473 388.257 382.91 392.203 381.129 C 385.877 376.738 378.768 379.379 372.38 375.862 C 368.434 373.206 362.891 372.346 359.697 367.909 C 358.93 369.69 357.333 368.83 356.55 368.83 C 355.767 368.83 355.767 367.049 354.984 367.049 C 350.991 367.049 346.247 367.909 346.247 364.392 C 346.247 360.861 350.991 361.782 353.371 361.782 C 362.108 360.001 369.217 365.314 377.923 366.174 C 378.768 366.174 378.768 367.909 378.768 368.83 C 378.768 370.565 377.14 369.69 376.357 369.69 C 380.319 370.565 385.033 370.565 389.025 370.565 C 394.583 370.565 400.909 371.44 406.468 373.206 C 409.661 374.081 412.794 375.862 415.988 374.081 C 413.577 372.346 408.863 374.987 409.661 370.565 C 409.661 368.83 412.794 370.565 414.375 369.69 L 413.577 368.83 C 414.375 367.049 415.988 367.909 417.569 367.909 C 412.026 365.314 406.468 362.642 400.909 360.001 C 404.088 354.688 409.661 358.266 414.375 358.266 C 414.375 358.266 414.375 356.485 413.577 356.485 C 415.204 353.828 417.569 357.345 419.918 356.485 C 419.135 354.688 417.569 354.688 415.988 353.828 C 410.429 352.953 404.886 351.172 399.343 350.312 C 400.142 348.562 404.088 351.172 403.305 347.656 C 401.692 343.264 396.134 344.124 392.986 342.389 C 396.134 340.608 400.142 339.748 403.305 340.608 C 407.251 341.514 412.026 339.748 415.988 340.608 C 409.661 334.436 400.909 341.514 393.785 335.341 C 395.366 333.576 397.762 332.7 398.545 330.044 C 403.305 331.779 408.863 329.169 413.577 330.044 C 407.589 327.587 401.662 325.069 395.704 323.35 C 395.336 323.227 394.967 323.088 394.583 322.981 C 392.111 321.891 389.639 322.52 387.182 323.35 C 385.708 323.826 384.173 324.455 382.699 324.747 C 377.14 326.528 371.582 326.528 366.039 323.872 C 366.377 323.672 366.791 323.488 367.129 323.35 C 370.077 321.937 373.547 321.231 376.357 321.231 L 381.102 321.231 C 382.699 321.231 381.102 318.605 382.699 318.605 C 385.877 318.605 389.808 317.699 392.986 318.605 C 397.439 321.062 402.307 322.229 406.99 323.35 C 408.955 323.764 410.89 324.255 412.794 324.747 C 413.577 325.668 414.375 326.528 415.204 327.388 C 419.918 328.309 424.694 328.309 427.857 331.779 C 428.64 332.7 429.423 331.779 429.423 330.919 C 428.67 326.82 427.949 324.977 431.096 323.35 C 431.327 323.227 431.603 323.088 431.803 322.981 C 431.035 320.34 429.423 319.48 427.028 318.605 C 432.586 316.824 438.973 315.964 442.904 322.137 L 445.3 322.137 C 445.3 320.34 446.896 319.48 447.679 318.605 C 451.641 317.699 454.021 322.137 457.982 322.137 C 465.89 320.34 473.015 321.231 480.108 320.34 C 474.642 318.605 469.852 317.699 464.309 315.964 C 462.681 315.964 460.332 315.964 458.75 314.167 C 461.13 311.573 465.89 312.432 468.239 313.308 C 469.852 314.167 469.852 309.791 470.635 310.651 C 474.642 311.573 478.573 312.432 481.736 314.167 C 484.131 315.089 488.876 316.824 492.024 318.605 C 488.876 311.573 478.573 312.432 478.573 306.26 C 477.775 302.82 483.87 308.671 486.312 305.615 C 471.326 302.053 456.339 303.465 441.323 300.962 C 440.524 300.087 439.741 299.227 438.973 298.352 C 443.672 295.696 448.463 293.915 453.238 294.821 C 454.021 295.696 454.758 295.696 455.572 296.571 C 458.75 296.571 460.332 296.571 463.541 297.431 L 463.541 295.696 C 457.982 293.915 452.424 294.821 446.896 293.915 C 442.904 292.18 438.129 294.821 434.198 295.696 C 420.701 296.571 407.251 293.915 393.785 294.821 C 387.459 294.821 381.102 293.915 373.993 294.821 C 368.434 296.571 362.108 294.821 356.55 294.821 C 351.774 293.915 346.247 294.821 341.487 295.696 C 337.556 295.696 333.549 295.696 330.416 293.915 C 329.602 293.055 330.416 292.18 331.169 292.18 C 341.487 290.398 350.991 293.055 360.481 292.18 C 356.55 288.648 350.991 290.398 346.247 289.523 C 345.448 289.523 344.65 287.742 343.882 286.882 C 347.045 285.086 350.991 285.992 354.139 285.992 C 354.984 285.992 354.984 286.882 354.984 287.742 L 370.016 287.742 L 369.217 286.882 C 379.551 284.257 389.808 285.992 400.142 284.257 C 392.986 281.616 384.25 285.086 377.14 282.476 C 379.551 280.694 381.916 280.694 384.25 281.616 C 383.482 279.835 380.319 280.694 379.551 278.959 C 386.645 276.303 393.785 278.099 400.909 277.178 C 400.909 275.443 399.343 273.647 400.909 271.912 C 401.692 273.647 403.305 274.522 404.088 274.522 C 408.863 273.647 412.794 272.787 415.988 277.178 C 413.577 278.959 411.212 278.959 408.863 278.959 C 411.212 282.476 415.204 278.959 418.352 279.835 C 419.135 279.835 419.135 280.694 419.135 281.616 C 423.88 281.616 429.423 282.476 434.198 279.835 C 434.981 279.835 436.578 283.351 438.129 280.694 C 433.415 278.099 427.857 278.959 423.88 276.303 C 419.918 273.647 415.204 270.13 411.212 266.614 C 412.794 264.833 415.988 264.833 417.569 266.614 C 419.918 268.395 421.531 268.395 423.88 269.271 C 425.477 270.13 424.694 266.614 426.244 266.614 C 429.423 265.739 433.415 265.739 436.578 267.474 C 441.323 270.13 446.083 269.271 451.641 270.13 C 452.424 270.13 452.424 269.271 453.238 268.395 C 453.238 269.409 454.036 269.24 454.697 269.271 C 450.044 265.324 444.194 269.056 439.741 265.739 C 438.129 263.958 436.578 263.083 434.198 261.301 C 437.361 259.566 440.524 260.442 442.904 263.083 C 442.904 262.238 442.904 260.442 443.672 260.442 C 445.3 260.442 446.896 263.083 448.463 262.238 C 446.083 258.707 442.121 260.442 438.973 257.785 C 433.415 255.175 426.244 256.91 420.701 254.269 C 420.701 253.394 421.531 253.394 422.314 253.394 C 423.081 252.534 422.314 251.659 421.531 251.659 C 415.988 251.659 410.429 251.659 405.654 248.127 C 410.429 245.486 415.988 246.361 420.701 248.127 C 422.314 249.002 424.694 250.737 427.028 251.659 C 427.857 251.659 430.237 252.534 430.237 250.737 C 429.423 249.878 428.64 248.127 427.028 247.221 C 429.423 244.626 432.586 249.878 434.981 247.221 C 434.198 246.361 434.198 245.486 434.198 244.626 C 438.129 241.955 444.47 247.221 446.896 244.626 C 450.796 241.033 453.238 245.486 457.199 244.626 C 453.837 241.955 450.182 240.619 446.466 239.605 C 441.338 238.254 436.041 237.425 431.035 234.876 C 431.803 233.141 433.415 233.141 434.981 233.141 C 432.586 230.485 429.423 230.485 426.244 228.75 C 430.237 227.89 434.198 227.89 438.129 228.75 C 441.323 229.61 444.47 231.36 447.679 232.266 C 449.23 233.141 450.796 234.016 451.641 235.782 C 449.23 230.485 446.083 227.89 441.323 226.093 C 440.524 225.187 441.323 224.312 442.121 224.312 C 443.672 223.437 445.3 225.187 446.896 226.093 C 447.679 226.093 448.463 225.187 447.679 224.312 C 446.896 224.312 446.083 223.437 446.083 223.437 C 449.23 219.921 452.424 223.437 455.572 223.437 C 456.355 223.437 457.199 225.187 457.982 226.093 C 457.982 225.187 457.982 224.312 458.75 223.437 C 450.075 219.921 441.323 215.529 432.586 214.608 C 425.477 213.748 418.352 213.748 411.212 213.748 C 396.978 212.873 382.699 213.748 368.434 212.013 C 376.357 207.576 385.877 212.873 393.785 209.372 C 392.986 207.576 390.576 208.482 389.808 206.7 C 395.366 203.184 402.475 209.372 407.251 205.841 C 400.142 203.184 392.203 204.059 385.033 201.434 C 386.338 199.622 387.904 199.3 389.516 199.361 C 388.58 198.424 386.906 196.827 389.025 195.261 C 391.42 194.355 394.583 196.136 396.978 195.261 C 389.025 193.495 380.319 193.495 374.76 186.448 C 385.033 182.056 396.134 183.791 407.251 182.056 C 412.794 180.275 418.352 180.275 423.88 182.056 C 425.477 182.916 427.028 183.791 427.857 185.572 C 429.423 182.916 427.028 182.916 426.244 182.056 C 422.314 178.54 417.569 178.54 412.794 176.744 C 409.661 175.884 406.468 175.884 403.305 175.008 C 393.785 171.492 384.25 175.008 373.993 173.227 C 372.38 172.352 370.016 174.087 367.651 174.087 C 368.434 175.884 371.582 174.087 370.799 175.884 C 368.434 180.275 362.891 176.744 358.147 177.619 C 349.441 179.4 340.704 176.744 331.998 175.008 C 338.339 171.492 345.448 175.008 352.604 174.087 C 351.774 173.227 354.139 172.352 352.604 171.492 C 356.55 168.851 359.697 174.087 363.659 172.352 C 364.473 171.492 362.108 169.711 362.891 167.915 C 363.659 166.18 365.24 167.915 366.822 167.055 L 366.822 165.32 C 373.21 160.882 378.768 165.32 385.033 167.915 C 381.916 165.32 377.923 164.398 375.574 160.882 C 374.76 159.147 376.357 158.272 377.14 158.272 C 383.482 158.272 389.808 158.272 395.366 160.882 C 389.025 154.74 379.551 154.74 370.799 154.74 C 358.147 155.616 344.65 158.272 331.998 155.616 C 312.927 152.975 295.5 151.178 276.552 146.802 C 275.708 145.927 274.126 145.006 274.126 144.146 C 274.126 140.614 278.118 144.146 278.901 141.489 L 278.118 140.614 C 279.715 138.879 282.049 138.879 283.661 140.614 C 284.46 141.489 283.661 142.395 282.832 142.395 L 281.266 142.395 C 280.483 145.927 284.46 144.146 285.228 144.146 C 290.786 145.006 297.112 144.146 302.67 143.27 C 309.795 141.489 316.919 145.927 324.044 146.802 C 323.261 145.927 320.896 145.927 321.679 144.146 C 324.044 140.614 328.804 143.27 331.998 143.27 C 338.339 143.27 344.65 145.006 351.774 147.662 C 353.371 147.662 354.984 149.443 356.55 148.583 C 358.93 148.583 355.767 147.662 355.767 146.802 C 347.045 141.489 337.556 143.27 329.602 137.098 C 328.804 136.223 329.602 135.363 330.416 135.363 C 331.998 134.457 332.781 137.098 334.332 136.223 C 327.222 128.269 315.338 136.223 306.601 130.925 C 308.213 128.269 306.601 125.659 307.446 123.878 C 308.213 121.221 312.16 123.018 315.338 123.018 C 316.152 123.878 316.919 123.878 317.703 123.878 C 323.261 124.799 328.006 127.394 332.781 129.19 C 334.332 130.05 331.998 128.269 331.998 127.394 C 331.998 126.534 332.781 125.659 333.549 125.659 C 335.145 125.659 336.773 126.534 336.773 128.269 C 339.89 127.394 343.099 127.394 345.448 128.269 C 347.828 130.05 349.441 133.566 352.604 133.566 C 351.774 130.925 349.441 130.05 347.828 128.269 C 347.045 127.394 347.828 126.534 348.596 126.534 L 352.604 126.534 C 350.208 126.534 348.596 125.659 347.045 125.659 C 342.255 124.799 339.107 121.221 335.145 119.486 C 335.929 117.705 338.339 118.626 339.89 117.705 C 335.145 114.189 328.006 117.705 323.261 113.314 C 328.006 110.673 331.998 110.673 336.773 111.532 C 331.169 109.813 326.455 110.673 320.896 110.673 C 318.547 111.532 316.152 110.673 314.555 108.016 C 313.772 106.281 317.703 107.141 316.152 105.406 C 312.927 103.625 308.996 106.281 305.035 104.5 L 305.818 103.625 C 301.887 100.093 297.895 101.874 293.949 102.75 C 296.329 104.5 293.151 104.5 293.151 105.406 C 287.607 105.406 282.049 107.141 276.552 107.141 C 270.948 108.016 264.606 109.813 259.908 110.673 C 256.714 110.673 254.349 106.281 250.357 105.406 C 251.156 103.625 253.566 104.5 255.117 104.5 C 261.459 103.625 268.614 106.281 274.94 104.5 C 276.552 104.5 280.483 107.141 281.266 102.75 C 279.715 102.75 278.118 103.625 277.32 101.874 C 282.832 99.233 288.437 101.874 293.949 99.233 C 290.786 99.233 288.437 96.577 286.011 95.702 C 288.437 91.326 291.584 94.796 293.949 96.577 C 295.5 97.498 296.329 94.796 297.895 95.702 C 301.887 99.233 306.601 101.874 311.376 100.093 C 306.601 98.374 301.887 97.498 298.709 93.061 C 305.035 91.326 311.376 93.061 316.919 95.702 C 313.772 92.201 309.795 90.404 305.035 89.529 C 286.824 87.748 269.382 86.013 251.954 87.748 C 250.357 87.748 245.613 91.326 244.83 88.669 C 244.046 84.232 250.357 86.873 252.722 84.232 C 249.605 81.637 245.613 86.013 244.046 82.497 C 251.954 78.965 260.675 82.497 269.382 84.232 C 268.614 80.716 264.606 83.357 263.823 80.716 C 263.823 79.841 264.606 78.965 265.451 78.965 C 269.382 78.965 274.126 81.637 277.32 80.716 C 282.049 78.965 287.607 81.637 292.352 81.637 C 289.158 78.059 285.228 78.059 282.049 77.184 C 274.94 74.528 267.017 76.324 259.908 71.933 L 260.675 71.012 C 259.908 71.012 259.125 70.152 259.125 70.152 C 264.606 63.979 271.777 71.012 277.32 70.152 C 275.708 70.152 274.94 69.277 274.126 68.417 C 276.552 66.62 278.901 68.417 281.266 67.495 C 267.017 63.979 252.722 63.979 237.72 61.323 C 236.123 61.323 236.907 59.588 236.907 58.713 C 242.465 53.415 249.605 58.713 255.931 56.056 C 248.023 55.181 239.271 54.413 231.364 55.181 C 224.208 55.841 217.053 56.501 209.913 56.041 C 209.928 56.041 209.944 56.056 209.959 56.056 C 209.959 56.931 213.122 57.853 210.727 58.713 C 206.796 59.588 202.835 58.713 198.904 60.448 C 202.052 61.323 206.028 59.588 209.176 61.323 C 202.052 65.76 192.516 63.104 186.175 68.417 C 184.624 70.152 180.616 68.417 178.283 69.277 C 173.523 71.933 167.181 71.933 162.421 75.464 C 168.747 76.324 174.29 75.464 180.616 72.793 C 181.461 72.793 182.244 74.528 182.244 74.528 C 187.802 71.012 193.299 72.793 199.625 71.933 C 200.47 71.012 202.052 71.933 202.052 70.152 C 202.835 71.933 205.245 73.668 202.835 74.528 C 197.276 76.324 192.516 79.841 187.019 78.059 C 184.624 78.059 182.244 78.059 179.849 78.965 C 178.283 79.841 176.686 81.637 174.29 81.637 C 175.073 82.497 171.143 83.357 173.523 83.357 C 175.073 83.357 175.918 81.637 178.283 81.637 C 179.849 81.637 179.066 85.138 180.616 84.232 C 181.461 82.497 183.81 81.637 184.624 82.497 C 191.718 83.357 199.625 78.965 206.028 82.497 C 206.028 82.497 204.416 86.013 202.835 86.013 C 194.927 86.013 187.019 87.748 179.849 88.669 C 173.523 88.669 166.383 91.326 159.258 88.669 C 155.281 87.748 152.149 88.669 148.955 91.326 C 152.149 92.201 155.281 90.404 157.692 92.201 C 154.514 95.702 149.738 95.702 145.808 98.374 C 144.18 100.093 141.846 100.968 140.249 103.625 C 149.738 99.233 160.072 97.498 169.592 93.921 C 171.143 93.061 171.941 97.498 169.592 98.374 C 168.241 98.374 166.935 100.155 165.63 100.262 C 168.517 100.677 171.404 99.295 174.29 100.093 C 175.918 100.093 179.066 100.093 179.849 98.374 C 179.849 97.498 177.469 96.577 176.686 95.702 C 181.461 92.201 192.516 90.404 191.718 99.233 C 191.718 100.968 189.369 100.093 188.586 100.093 C 187.019 99.233 188.586 97.498 187.802 96.577 C 186.175 95.702 184.624 98.374 183.027 97.498 C 183.027 100.093 187.802 98.374 187.019 101.874 C 186.175 102.75 185.407 104.5 184.624 104.5 C 175.073 102.75 167.181 107.141 158.475 106.281 C 155.281 106.281 149.738 104.5 147.374 107.141 C 148.955 107.141 151.304 107.141 152.149 108.922 C 152.149 110.673 148.955 110.673 148.157 112.454 C 148.955 112.454 149.738 112.454 150.521 113.314 C 152.149 111.532 154.514 111.532 156.08 111.532 C 168.747 109.813 181.461 108.016 194.129 108.016 C 196.509 108.016 202.052 107.141 202.052 109.813 C 201.253 114.189 194.927 111.532 190.136 112.454 C 188.586 113.314 187.019 115.97 186.175 115.97 C 180.616 117.705 175.918 114.189 170.36 115.095 C 170.36 115.97 170.36 116.845 169.592 116.845 L 158.475 116.845 L 159.258 117.705 C 158.475 119.486 156.08 118.626 154.514 118.626 C 148.157 115.97 141.846 113.314 134.691 115.095 C 136.288 115.095 138.698 114.189 140.249 115.095 C 141.846 115.97 142.598 116.845 144.18 116.845 C 145.808 117.705 144.18 121.221 143.412 121.221 C 137.086 119.486 131.528 119.486 125.969 120.361 C 127.597 123.018 130.745 119.486 131.528 122.158 C 131.528 125.659 127.597 122.158 126.752 124.799 C 122.039 122.158 117.263 127.394 111.751 126.534 C 116.496 129.19 121.255 125.659 126.752 127.394 C 128.365 127.394 129.931 126.534 131.528 125.659 C 138.698 124.799 145.808 124.799 152.932 127.394 C 152.932 127.394 152.932 129.19 152.149 129.19 L 145.808 129.19 C 144.978 129.19 144.978 130.925 144.978 130.925 C 149.738 132.722 154.514 128.269 159.258 132.722 C 158.475 133.566 157.692 135.363 156.08 134.457 C 152.932 133.566 149.738 134.457 146.591 133.566 C 146.591 135.363 144.18 134.457 144.978 135.363 C 147.374 137.098 150.521 136.223 152.932 136.223 C 152.932 137.098 156.08 137.098 153.7 138.879 C 153.485 139.125 153.208 139.232 152.932 139.263 C 155.926 140.507 159.519 139.892 162.421 141.489 C 163.25 142.395 162.421 143.27 161.623 143.27 L 158.475 143.27 C 160.072 145.927 164.033 142.395 164.817 145.927 C 164.817 146.802 164.033 147.662 163.25 147.662 C 154.514 147.662 145.808 148.583 137.854 143.27 C 137.086 142.395 137.854 141.489 138.698 141.489 C 143.412 140.614 146.591 144.146 151.304 144.146 C 146.591 140.614 139.42 142.395 134.691 138.004 C 136.288 136.223 137.854 136.223 140.249 136.223 C 135.489 133.566 131.528 137.098 126.752 136.223 C 124.403 135.363 122.822 133.566 120.426 134.457 L 120.426 136.223 C 114.085 138.879 107.743 138.879 101.417 141.489 C 106.96 142.395 111.751 138.879 117.263 141.489 C 116.496 143.27 113.302 142.395 113.302 145.006 C 117.263 145.006 120.426 144.146 124.403 145.927 C 114.868 149.443 103.767 147.662 94.308 152.975 C 100.65 151.178 106.193 150.318 112.519 151.178 C 114.085 151.178 113.302 153.834 114.085 153.834 C 122.039 151.178 128.365 153.834 135.489 155.616 C 136.288 156.491 137.086 157.351 137.854 158.272 C 133.923 160.007 129.148 157.351 125.186 157.351 C 114.085 155.616 104.596 160.007 94.308 164.398 C 100.65 162.663 107.743 160.007 114.868 160.882 C 115.697 160.882 117.263 163.523 118.031 162.663 C 123.589 162.663 129.148 164.398 134.691 163.523 C 141.846 161.804 148.157 161.804 155.281 164.398 C 152.149 166.18 148.157 164.398 144.978 165.32 C 144.978 165.32 144.978 167.055 145.808 167.055 C 135.489 172.352 125.186 167.055 114.085 168.851 C 109.356 170.571 105.379 171.492 100.65 171.492 C 107.743 172.352 115.697 167.915 122.039 171.492 C 125.969 174.087 132.295 173.227 137.854 173.227 C 138.698 173.227 138.698 174.087 138.698 175.008 C 141.846 175.008 141.846 176.744 142.598 179.4 C 134.691 181.135 127.597 176.744 119.628 176.744 C 118.845 176.744 118.845 178.54 118.845 178.54 C 122.039 179.4 125.186 177.619 127.597 180.275 C 125.969 182.056 125.186 184.667 123.589 185.572 C 118.031 186.448 113.302 183.791 107.743 186.448 C 111.751 186.448 116.496 185.572 117.263 189.089 C 118.031 190.839 114.868 189.089 114.085 190.839 C 109.356 188.229 104.596 191.699 99.836 191.699 C 102.185 193.495 104.596 190.839 106.96 191.699 C 107.743 191.699 107.743 192.62 107.743 193.495 C 106.96 194.355 106.96 195.261 106.193 195.261 C 103.767 195.261 101.417 196.136 99.037 196.136 C 92.711 197.012 85.602 196.136 79.261 196.136 C 79.261 197.872 76.865 197.012 77.648 197.872 C 80.827 198.793 84.758 195.261 87.936 197.872 C 83.191 202.309 76.865 197.872 72.09 200.528 C 69.725 202.309 66.547 203.184 64.981 205.841 C 71.307 204.965 76.865 201.434 83.191 203.184 C 83.191 204.965 80.827 204.965 80.827 205.841 C 82.408 206.7 85.602 204.965 87.153 206.7 C 83.191 210.232 77.648 210.232 73.718 212.873 C 76.082 213.748 79.261 211.138 78.431 212.873 C 76.082 217.264 69.725 219.061 65.749 222.577 C 68.942 221.702 72.09 220.781 75.299 219.921 C 80.059 219.061 85.602 216.405 91.084 217.264 C 93.494 218.186 92.711 220.781 91.084 221.702 C 83.99 221.702 77.648 222.577 70.524 224.312 C 67.376 225.187 63.384 227.89 60.989 231.36 C 65.749 228.75 70.524 224.312 76.082 226.093 C 77.648 226.093 80.827 226.093 81.594 227.89 C 81.594 229.61 77.648 232.266 78.431 232.266 C 83.191 234.016 88.75 230.485 93.494 233.141 C 89.886 236.381 82.992 235.168 79.982 239.605 C 79.706 240.02 79.445 240.527 79.261 241.033 C 80.75 240.527 82.209 239.989 83.683 239.605 C 84.589 239.467 85.448 239.314 86.385 239.314 C 97.487 238.438 107.743 234.016 118.845 236.657 C 115.697 237.962 112.519 238.93 109.325 239.605 C 94.216 242.907 78.785 240.511 63.798 243.905 C 66.547 243.766 68.942 245.256 71.307 247.221 C 66.547 249.878 60.989 246.361 57.058 249.002 C 53.864 250.737 49.166 249.878 46.755 254.269 C 51.499 253.394 57.058 248.127 59.422 253.394 C 60.205 256.066 53.096 253.394 54.709 257.785 C 54.709 258.707 59.422 256.066 60.989 258.707 C 60.989 259.566 58.655 258.707 58.655 260.442 C 64.981 261.301 71.307 258.707 76.865 261.301 C 72.09 263.958 66.547 262.238 61.818 263.083 L 61.818 264.833 C 62.601 265.739 64.981 264.833 64.198 265.739 C 62.601 268.395 57.841 266.614 55.43 269.271 C 58.655 269.271 60.989 269.271 64.198 271.006 C 65.749 272.787 70.524 269.271 71.307 271.912 C 72.09 276.303 65.749 275.443 62.601 275.443 C 53.864 275.443 45.158 275.443 36.437 276.303 L 36.437 278.099 C 39.615 277.178 42.763 276.303 45.941 278.099 C 38.832 283.351 30.156 280.694 22.172 284.257 C 26.947 284.257 31.723 284.257 36.437 286.882 C 31.723 291.304 25.381 288.648 19.823 290.398 C 30.878 292.18 42.763 288.648 53.864 291.304 C 53.864 293.055 52.283 292.18 51.499 293.055 C 48.321 293.915 45.158 292.18 41.98 293.915 C 39.615 294.821 37.266 295.696 34.87 295.696 C 34.057 296.571 33.273 297.431 31.723 297.431 C 36.437 299.227 40.413 293.915 45.158 295.696 C 47.538 297.431 51.499 295.696 50.716 298.352 C 50.716 300.087 46.755 299.227 45.158 302.744 C 47.538 302.744 50.716 301.868 52.283 304.463 C 45.941 307.995 39.615 307.995 33.273 307.135 C 26.164 305.4 18.211 306.26 11.101 307.135 C 13.435 307.995 15.861 307.135 17.428 309.791 C 14.264 312.432 10.303 314.167 6.326 315.964 C 8.721 315.964 10.303 315.089 11.884 314.167 C 12.652 314.167 14.264 315.964 15.861 315.089 C 15.861 314.167 15.861 313.308 16.629 313.308 C 19.823 313.308 22.986 312.432 25.381 314.167 C 23.754 315.964 20.606 313.308 19.823 316.824 C 25.381 317.699 33.273 313.308 38.049 317.699 C 33.458 320.447 28.421 321.998 23.293 323.35 C 15.155 325.545 6.817 327.296 0 332.7 C 2.395 332.7 6.326 331.779 7.938 331.779 C 19.055 330.044 29.312 328.309 40.413 329.169 C 42.763 329.169 47.538 328.309 46.755 331.779 C 45.158 337.092 39.615 338.858 33.273 338.858 C 33.273 338.858 33.273 340.608 34.057 340.608 C 37.266 339.748 40.413 340.608 42.763 338.858 C 45.158 337.952 47.538 337.092 49.933 335.341 C 52.283 334.436 54.709 333.576 57.058 334.436 C 57.841 335.341 57.841 336.217 57.841 337.092 C 53.096 342.389 46.755 342.389 40.413 344.124 C 45.158 345.921 49.933 342.389 55.43 342.389 C 60.205 343.264 64.198 339.748 69.725 340.608 C 68.942 338.858 65.749 339.748 66.547 337.952 C 68.159 335.341 73.718 328.309 76.082 331.779 C 77.648 333.576 72.873 335.341 73.718 335.341 C 79.261 341.514 84.758 330.919 91.928 333.576 L 91.928 331.779 C 89.533 330.919 87.153 332.7 84.758 330.919 C 90.316 327.388 97.487 327.388 103.03 323.872 C 103.413 323.872 102.861 323.672 102.17 323.35 C 101.479 322.981 100.65 322.582 100.65 322.137 C 100.65 318.605 103.767 319.48 105.379 319.48 C 115.697 316.824 125.969 312.432 135.489 316.824 C 129.931 318.605 125.186 320.34 119.628 319.48 C 122.039 322.981 127.597 316.824 128.365 322.137 C 128.488 322.52 128.488 322.966 128.441 323.35 C 128.134 325.269 125.632 326.374 123.589 325.668 C 124.403 330.044 129.148 325.668 128.365 328.309 C 128.365 329.169 126.752 331.779 125.969 331.779 C 122.039 333.576 117.263 330.919 113.302 331.779 C 107.743 333.576 102.185 330.919 96.642 334.436 C 95.859 335.341 96.642 336.217 97.487 336.217 C 93.494 338.858 88.75 336.217 85.602 340.608 L 83.191 340.608 C 88.75 341.514 93.494 339.748 99.037 340.608 L 98.254 341.514 L 99.037 342.389 C 96.642 343.264 95.091 345.921 92.711 346.781 C 87.936 347.656 83.191 345.046 78.431 348.562 C 82.408 349.437 86.385 347.656 90.316 349.437 C 87.936 351.172 84.758 350.312 82.408 351.172 C 82.408 352.093 82.408 352.953 83.191 352.953 C 88.75 352.953 95.091 352.093 100.65 353.828 C 96.642 356.485 91.928 359.126 87.936 360.861 C 87.936 360.861 87.153 359.126 86.385 359.126 C 83.191 359.126 80.827 357.345 77.648 356.485 C 73.718 355.625 69.725 357.345 65.749 358.266 C 66.547 358.266 68.159 358.266 68.159 359.126 C 67.376 360.861 64.981 360.001 63.384 360.001 C 57.841 356.485 51.499 358.266 45.941 355.625 C 40.413 352.953 34.057 352.093 28.529 354.688 C 28.529 354.688 24.552 354.688 26.164 355.625 C 31.723 357.345 38.832 353.828 43.607 357.345 C 37.266 363.502 27.73 361.782 22.172 367.909 C 32.506 364.392 42.763 362.642 53.096 362.642 C 57.058 362.642 61.818 360.861 65.749 364.392 C 57.058 366.174 49.933 370.565 41.196 373.206 C 40.413 374.081 40.413 375.862 38.832 376.738 C 30.878 379.379 23.754 382.91 17.428 387.286 C 21.404 388.207 25.381 384.707 29.312 384.707 C 34.057 384.707 41.196 377.613 45.941 382.035 C 43.269 385.797 37.619 386.334 35.055 390.296 C 34.609 390.971 34.318 391.739 34.057 392.614 C 34.517 391.601 35.208 390.91 36.007 390.296 C 36.667 389.85 37.358 389.467 38.049 389.083 C 41.98 388.207 45.158 387.286 48.321 384.707 C 49.933 383.785 52.283 385.566 53.864 384.707 C 56.259 382.91 58.655 382.035 60.989 381.129 C 61.818 381.129 61.818 382.035 61.818 382.91 C 60.989 384.707 58.655 384.707 57.841 386.426 C 60.205 388.207 62.601 384.707 64.981 384.707 C 68.942 384.707 72.09 379.379 75.299 378.473 C 82.408 375.862 89.533 375.862 96.642 374.081 C 99.037 374.081 101.417 372.346 103.767 371.44 C 112.519 369.69 120.426 368.83 129.148 367.049 C 133.14 366.174 137.086 364.392 141.032 367.049 C 131.528 371.44 121.255 373.206 110.937 373.206 C 108.526 374.081 106.96 377.613 103.767 378.473 C 93.494 380.254 83.99 380.254 74.501 384.707 C 79.261 387.286 84.758 382.035 89.533 385.566 C 89.533 386.426 89.533 388.207 88.75 388.207 C 85.249 389.282 82.07 389.712 78.769 390.296 C 76.865 390.68 74.931 391.063 72.873 391.739 C 76.865 390.818 81.594 389.083 85.602 391.739 C 83.99 392.614 83.191 394.334 82.408 396.13 C 82.408 397.006 83.99 397.006 84.758 397.006 C 86.385 396.13 86.385 394.334 87.936 393.474 C 91.084 391.739 94.308 391.739 97.487 391.739 C 98.254 391.739 99.037 393.474 99.037 395.255 C 101.817 394.211 104.35 391.985 107.022 390.296 C 108.972 389.129 111.014 388.207 113.302 388.207 C 122.039 387.286 129.931 386.426 138.698 385.566 C 133.923 384.707 129.931 386.426 125.186 384.707 C 133.14 380.254 141.846 380.254 150.521 377.613 C 152.149 377.613 154.514 376.738 153.7 378.473 C 152.932 382.035 147.374 378.473 144.978 382.91 C 148.157 384.707 151.304 382.91 154.514 383.785 C 155.281 383.785 155.281 382.035 156.08 382.035 C 164.817 381.129 175.073 378.473 182.244 383.785 C 175.073 386.426 167.181 382.035 160.072 383.785 C 154.421 385.705 149.17 387.578 142.906 390.342 L 141.155 390.357 C 139.819 390.772 138.468 391.263 137.086 391.739 L 131.528 391.739 C 124.403 391.739 117.263 391.739 110.154 394.334 C 110.154 394.334 110.154 396.13 110.937 396.13 C 103.03 398.787 94.308 403.163 86.385 404.038 C 80.827 404.038 75.299 409.351 68.942 411.086 C 72.873 413.727 76.082 409.351 80.827 407.554 C 81.594 407.554 82.408 407.554 83.191 408.43 C 83.99 411.086 83.191 412.867 81.594 414.663 C 80.827 416.383 82.408 417.258 83.191 418.134 C 84.758 414.663 88.75 411.086 91.928 414.663 C 92.711 415.523 91.928 417.258 91.928 418.134 C 95.091 413.727 99.836 410.211 104.596 410.211 C 106.193 410.211 106.193 412.867 104.596 413.727 C 108.526 413.727 111.751 411.086 114.868 408.43 C 117.263 407.554 119.628 410.211 122.039 408.43 C 127.597 405.819 133.14 403.163 139.42 402.318 C 140.249 402.318 140.249 403.163 140.249 404.038 C 142.598 403.163 144.978 402.318 147.374 402.318 C 148.157 401.443 149.738 402.318 149.738 400.522 C 149.738 401.443 152.932 401.443 150.521 403.163 C 158.475 404.038 166.383 401.443 174.29 401.443 C 171.143 398.787 167.181 402.318 164.817 398.787 C 164.817 397.912 164.817 397.006 165.584 397.006 C 173.523 397.006 182.244 397.912 190.136 397.006 C 186.175 393.474 180.616 397.006 175.918 396.13 C 175.073 396.13 175.073 395.255 174.29 394.334 C 175.596 393.474 176.931 392.722 178.283 392.092 L 178.283 392.092 C 187.526 388.453 199.549 388.837 207.61 388.207 C 208.562 388.207 208.654 389.19 208.562 390.296 C 208.485 391.063 208.378 391.893 208.378 392.614 C 206.028 400.522 203.618 408.43 200.47 415.523 C 196.509 423.431 190.95 430.479 183.81 435.791 C 174.29 441.949 164.248 446.601 152.794 448.213 L 30.156 448.183 C 30.156 450.609 30.11 456.29 30.156 457.134 L 392.894 457.134 L 399.481 457.134 L 512 457.134 L 512 448.198 L 353.356 448.198 Z  M 382.699 364.392 C 384.25 365.314 386.645 365.314 388.257 367.049 C 385.877 367.909 381.916 370.565 379.551 367.909 C 378.768 366.174 382.699 367.909 381.916 366.174 C 381.102 365.314 378.768 367.049 378.768 365.314 C 379.551 363.502 381.286 363.625 382.699 364.392 Z  M 415.204 299.227 C 420.701 300.087 427.028 299.227 432.586 302.744 C 433.415 303.603 432.586 304.463 431.803 304.463 C 428.64 304.463 425.953 305.216 423.081 303.603 C 419.918 301.868 416.755 302.744 413.577 300.962 C 414.375 300.087 414.375 299.227 415.204 299.227 Z  M 397.762 230.485 C 398.545 230.485 398.714 233.433 400.142 232.266 C 403.305 229.61 406.468 232.266 409.661 233.141 C 409.661 234.016 412.794 234.876 410.429 235.782 C 406.468 236.657 402.475 236.657 398.545 235.782 C 396.978 234.876 394.583 231.36 397.762 230.485 Z  M 48.321 285.086 C 46.755 280.694 57.058 280.694 61.818 280.694 C 62.601 280.694 62.601 281.616 63.384 281.616 C 59.422 285.992 50.716 290.398 48.321 285.086 Z  M 88.75 310.651 C 87.153 315.089 80.827 311.573 76.865 309.791 C 77.648 307.995 80.059 307.135 80.827 307.995 C 83.99 307.995 89.671 308.102 88.75 310.651 Z  M 95.091 306.26 C 93.494 306.26 90.316 307.135 90.316 305.4 C 89.533 303.603 93.494 302.744 95.091 304.463 L 95.091 306.26 Z  M 95.091 287.742 C 95.091 288.648 95.091 289.523 94.308 289.523 C 87.936 288.648 82.408 292.18 76.082 289.523 C 77.648 288.648 78.431 287.742 80.059 288.648 L 80.059 286.882 C 76.865 287.742 73.718 286.882 70.524 286.882 C 70.524 288.648 69.725 288.648 68.942 289.523 C 67.376 290.398 67.376 288.648 66.547 287.742 C 66.547 288.648 66.547 289.523 65.749 289.523 C 64.981 287.742 64.198 290.398 63.384 289.523 C 62.601 288.648 61.818 288.648 62.601 287.742 C 68.159 284.257 73.718 282.476 80.059 283.351 C 80.827 283.351 80.827 284.257 80.827 285.086 C 86.385 285.086 91.084 282.476 96.642 285.086 C 95.859 285.992 95.091 285.992 94.308 285.992 C 93.494 286.882 94.308 286.882 95.091 287.742 Z  M 283.661 363.502 C 282.049 363.502 280.483 364.392 279.715 362.642 C 279.715 363.502 279.715 364.392 278.901 364.392 L 271.777 364.392 C 270.948 364.392 270.948 362.642 270.948 361.782 C 271.777 360.861 273.343 360.001 274.94 360.001 C 277.32 360.001 278.118 360.861 279.715 362.642 C 281.266 361.782 282.832 360.861 284.46 361.782 C 284.46 362.642 283.661 363.502 283.661 363.502 Z  M 270.165 254.269 L 270.165 252.534 C 272.56 252.534 275.708 249.878 278.118 252.534 C 275.708 255.175 273.343 255.175 270.165 254.269 Z  M 273.343 316.824 C 272.56 317.699 271.777 318.605 270.948 316.824 C 270.948 315.089 270.948 312.432 272.56 311.573 C 274.126 311.573 274.94 315.089 273.343 316.824 Z  M 273.343 333.576 C 274.126 330.044 278.118 329.169 282.049 330.044 C 282.832 330.044 282.832 330.919 282.832 331.779 C 282.049 333.576 280.145 333.96 278.901 335.341 C 276.552 337.952 274.126 343.264 270.948 342.389 C 267.8 341.514 271.777 337.092 273.343 333.576 Z  M 284.46 346.781 C 284.46 347.656 283.416 347.026 282.832 347.656 C 280.483 350.312 278.901 355.625 274.94 352.953 C 277.32 349.437 279.715 345.921 282.832 344.124 C 283.661 344.124 284.46 344.124 284.46 345.046 L 284.46 346.781 Z  M 281.266 301.868 C 279.715 300.962 277.596 298.644 279.715 297.431 C 281.266 296.571 283.661 297.431 285.228 297.431 C 290.786 294.821 296.329 294.821 301.887 294.821 C 302.67 294.821 302.67 295.696 303.438 296.571 C 303.438 297.431 303.438 298.352 302.67 298.352 C 297.895 300.087 293.151 296.571 289.158 299.227 C 286.824 300.087 284.46 301.868 281.266 301.868 Z  M 303.438 337.952 C 299.492 337.952 295.5 338.858 291.584 337.952 C 293.151 334.436 297.112 336.217 298.709 333.576 C 301.043 335.341 304.267 332.7 305.818 335.341 C 306.601 337.092 304.267 337.092 303.438 337.952 Z  M 312.16 360.001 C 312.16 359.126 312.16 358.266 312.927 358.266 C 313.772 358.266 313.772 358.112 314.555 358.266 C 320.113 359.126 325.656 359.126 331.169 361.782 C 330.416 362.642 329.602 364.392 328.804 364.392 C 324.044 362.642 320.113 363.502 316.152 361.782 C 315.338 361.782 312.927 361.782 312.16 360.001 Z  M 330.416 381.129 L 325.656 381.129 C 325.656 382.035 325.656 382.91 324.873 382.91 C 321.679 382.035 318.547 382.91 316.152 381.129 C 318.547 375.862 323.261 378.473 328.006 378.473 C 328.804 378.473 330.416 377.613 331.169 379.379 C 331.169 380.254 331.169 381.129 330.416 381.129 Z  M 377.14 337.092 C 372.38 338.858 365.24 341.514 362.108 336.217 C 360.481 334.436 364.534 333.223 365.24 333.576 C 369.217 335.341 373.993 332.7 377.14 337.092 Z  M 370.799 315.089 C 371.582 316.824 368.434 316.824 366.039 316.824 C 362.891 316.824 358.93 317.699 356.55 315.089 C 361.325 313.308 369.217 309.791 370.799 315.089 Z  M 357.333 298.352 C 359.697 300.087 362.108 300.962 364.473 300.962 C 365.24 300.962 366.039 301.868 366.039 302.744 C 365.24 304.463 363.598 304.003 362.891 303.603 C 359.697 301.868 355.767 304.463 353.371 300.962 C 354.984 300.087 355.767 297.431 357.333 298.352 Z  M 339.89 342.389 C 342.255 342.389 344.619 341.729 347.045 342.389 C 350.208 343.264 354.139 342.389 356.55 345.046 C 357.333 345.921 356.55 346.781 355.767 346.781 C 351.774 345.921 347.828 347.656 343.882 345.921 C 342.255 345.921 340.704 345.921 339.107 344.124 C 338.339 343.264 339.107 342.389 339.89 342.389 Z  M 339.89 380.254 C 336.773 381.129 334.332 382.035 331.169 381.129 C 332.781 380.254 334.332 377.613 335.929 378.473 C 337.556 379.379 339.107 378.473 339.89 380.254 Z  M 334.332 358.266 C 331.169 357.345 328.006 359.126 325.656 358.266 C 324.873 357.345 323.261 358.266 323.261 356.485 C 323.261 355.625 323.261 355.625 324.044 354.688 C 324.873 353.828 325.15 356.562 326.455 355.625 C 328.804 353.828 332.781 354.688 335.145 356.485 C 335.929 357.345 335.145 358.266 334.332 358.266 Z  M 334.332 318.605 C 334.332 320.34 331.998 318.605 331.169 320.34 C 330.416 321.231 329.602 320.34 329.602 319.48 C 330.416 318.605 330.984 317.699 332.781 317.699 C 333.549 317.699 334.332 318.605 334.332 318.605 Z  M 330.416 305.4 C 331.169 305.4 331.169 306.26 331.998 307.135 C 331.998 307.995 331.998 308.932 331.169 308.932 C 329.602 308.932 328.006 307.135 326.455 307.995 C 322.478 308.932 318.547 307.135 315.338 309.791 C 318.547 310.651 322.478 308.932 325.656 310.651 C 318.547 314.167 309.795 316.824 302.67 315.089 C 302.118 314.889 301.565 314.751 301.012 314.643 C 301.212 314.981 301.427 315.488 301.887 315.964 C 299.492 317.699 297.895 319.48 294.778 319.48 C 293.949 319.48 293.949 320.34 293.151 320.34 C 292.352 320.34 292.352 319.48 292.352 318.605 C 293.78 315.473 296.482 315.135 299.338 314.428 C 295.469 314.152 291.462 314.966 288.437 311.573 C 292.352 307.135 297.895 307.135 302.67 308.932 C 301.887 309.791 301.887 309.791 301.043 310.651 C 304.267 308.932 308.996 311.573 310.593 307.995 C 311.376 307.135 307.446 307.135 307.446 305.4 C 307.446 304.463 309.795 303.603 311.376 303.603 C 314.555 303.603 318.547 305.4 321.679 305.4 C 324.873 306.26 327.222 305.4 330.416 305.4 Z  M 328.006 293.055 C 328.006 292.18 327.222 292.18 326.455 292.18 C 326.455 293.055 326.455 293.915 325.656 293.915 C 323.261 293.915 321.679 293.055 319.33 292.18 C 312.927 291.304 306.601 293.055 301.043 289.523 C 302.67 282.476 308.996 288.648 313.772 285.992 C 304.267 281.616 293.151 291.304 285.228 284.257 C 284.46 283.351 288.437 283.351 290.003 282.476 C 288.437 280.694 286.993 281.616 285.228 281.616 C 284.46 281.616 284.46 280.694 283.661 280.694 C 287.607 276.303 291.584 273.647 296.329 271.006 C 298.709 269.271 304.267 270.13 307.446 273.647 C 304.267 275.443 299.492 272.787 297.112 277.178 C 297.112 278.099 297.112 279.835 297.895 279.835 C 300.336 279.835 302.67 278.959 305.035 278.959 C 309.795 279.835 312.927 283.351 317.703 281.616 C 319.33 280.694 320.896 278.099 323.261 278.959 C 325.656 279.835 325.656 283.351 323.261 284.257 L 319.33 284.257 C 320.113 290.398 328.006 285.086 330.416 290.398 C 331.169 292.18 328.804 292.18 328.006 293.055 Z  M 298.709 225.187 C 299.492 223.437 301.135 223.867 302.67 224.312 C 305.818 225.187 308.996 222.577 311.376 225.187 C 308.213 228.75 297.895 232.266 298.709 225.187 Z  M 335.929 203.184 C 339.89 201.434 347.045 200.528 347.828 204.965 C 348.596 205.841 344.773 206.224 343.099 206.7 C 336.773 208.482 330.416 210.232 324.044 206.7 C 328.006 205.841 331.998 204.059 336.773 204.059 L 335.929 203.184 Z  M 348.596 271.006 C 348.596 270.13 349.441 270.13 350.208 269.271 C 350.208 270.13 350.991 269.992 351.774 270.13 C 356.55 271.006 361.325 271.006 365.24 273.647 C 362.108 274.522 362.891 275.443 361.325 278.099 C 357.333 275.443 350.991 277.178 347.828 272.787 C 347.828 271.912 349.441 271.912 350.208 271.912 C 349.441 271.912 348.596 271.912 348.596 271.006 Z  M 347.828 233.141 C 347.828 232.266 349.441 232.266 350.208 232.266 C 350.991 232.266 356.55 232.266 354.139 234.876 C 352.604 235.782 349.441 234.876 347.828 233.141 Z  M 338.339 212.873 C 342.255 211.138 346.385 209.894 350.208 212.013 C 351.774 212.873 353.371 211.138 354.984 212.873 C 350.208 215.529 343.882 215.529 338.339 212.873 Z  M 335.929 228.75 C 337.556 229.61 341.487 229.61 340.704 231.36 C 338.339 236.657 330.416 231.36 325.656 229.61 C 328.804 227.89 333.119 227.153 335.929 228.75 Z  M 326.455 212.013 C 326.455 211.138 328.006 211.138 328.804 211.138 L 328.804 212.873 C 328.006 212.873 326.455 212.873 326.455 212.013 Z  M 325.656 243.705 C 321.679 246.361 316.919 247.221 312.16 245.486 C 314.555 244.626 316.919 244.626 318.547 241.955 C 320.896 243.705 323.261 241.955 325.656 243.705 Z  M 329.602 253.394 C 328.804 252.534 329.602 251.659 330.416 251.659 C 331.169 251.659 331.337 251.121 331.998 251.659 C 335.145 254.269 339.89 250.737 343.099 254.269 C 343.099 255.175 343.099 256.066 342.255 256.066 C 338.339 254.269 333.549 256.91 329.602 253.394 Z  M 331.998 277.178 C 331.169 275.443 332.888 272.787 337.556 272.787 C 338.339 272.787 338.339 273.647 339.107 273.647 L 338.339 274.522 C 341.487 275.443 345.448 274.522 348.596 278.099 C 349.441 278.959 348.596 279.835 347.828 279.835 C 342.255 279.835 334.332 282.476 331.998 277.178 Z  M 345.448 284.257 C 343.882 284.257 340.704 285.086 339.107 282.476 C 346.247 280.694 353.371 280.694 360.481 280.694 C 362.891 280.694 366.039 280.694 368.434 282.476 C 361.325 288.648 353.371 284.257 345.448 284.257 Z  M 374.76 266.614 C 374.76 267.474 374.76 268.395 373.993 268.395 C 366.039 268.395 357.333 270.13 349.441 265.739 C 351.774 263.083 355.767 266.614 358.147 263.083 C 359.697 261.301 362.477 263.866 365.24 263.083 C 368.434 262.238 373.21 262.238 374.76 266.614 Z  M 364.473 201.434 C 363.659 201.434 362.891 201.434 362.891 200.528 C 365.24 198.793 368.434 198.793 370.799 200.528 C 370.016 202.309 368.434 201.434 366.822 201.434 C 373.21 204.965 380.319 198.793 385.877 202.309 C 380.319 204.059 374.714 204.443 368.434 205.841 C 364.473 206.7 362.891 203.184 359.697 202.309 C 361.325 199.668 362.891 203.184 364.473 201.434 Z  M 358.93 208.482 C 358.93 209.372 358.93 210.232 358.147 210.232 C 353.371 207.576 348.596 212.873 343.882 209.372 C 347.045 206.7 350.899 206.7 354.984 206.7 C 356.55 206.7 358.147 206.7 358.93 208.482 Z  M 328.006 196.136 C 337.556 197.872 346.247 195.261 354.984 197.872 C 352.604 202.309 348.596 197.872 345.448 199.668 C 343.882 200.528 341.487 202.309 339.89 201.434 C 335.929 198.793 331.169 199.668 327.222 197.872 C 326.455 197.012 327.222 196.136 328.006 196.136 Z  M 316.152 182.056 C 319.33 182.916 322.478 183.791 324.873 185.572 C 324.044 186.448 324.044 187.323 323.261 187.323 C 319.33 186.448 314.555 188.229 311.376 184.667 C 312.927 183.791 313.726 181.365 316.152 182.056 Z  M 291.584 158.272 C 299.492 158.272 307.446 155.616 314.555 160.882 C 315.338 161.804 314.555 162.663 313.772 162.663 C 309.795 162.663 305.035 159.147 301.043 161.804 C 296.329 164.398 290.003 161.804 284.46 161.804 C 283.661 161.804 283.661 160.007 283.661 159.147 C 286.011 156.491 289.158 158.272 291.584 158.272 Z  M 291.584 188.229 C 293.151 188.229 295.5 188.229 294.778 189.964 C 293.949 195.261 286.824 192.62 283.661 190.839 C 286.011 189.964 288.437 188.229 291.584 188.229 Z  M 287.607 238.438 C 288.437 239.314 290.003 239.314 290.786 241.033 C 290.786 241.955 290.786 242.83 290.003 242.83 C 287.607 243.705 284.368 245.21 283.661 242.83 C 282.832 240.174 286.011 238.438 287.607 238.438 Z  M 283.661 256.91 L 282.832 257.785 L 281.266 257.785 C 280.483 256.91 281.266 256.066 282.049 256.066 C 282.832 256.066 283.661 256.066 283.661 256.91 Z  M 285.228 123.878 C 286.011 123.878 287.085 123.647 287.607 124.799 C 288.437 126.534 291.584 124.799 292.352 126.534 C 290.003 127.394 286.011 129.19 283.661 127.394 C 285.228 126.534 283.661 124.799 285.228 123.878 Z  M 278.901 125.659 C 279.715 126.534 280.483 127.394 278.901 128.269 C 277.32 128.269 274.94 129.19 274.94 127.394 C 274.126 125.659 277.627 124.261 278.901 125.659 Z  M 282.832 130.925 C 283.661 130.925 284.46 130.05 285.228 129.19 C 286.011 129.19 286.824 130.05 286.011 130.925 C 282.832 133.566 277.32 134.457 273.343 132.722 C 275.708 129.19 279.592 130.925 282.832 130.925 Z  M 275.708 186.448 C 278.118 186.448 280.483 186.448 282.049 188.229 C 279.715 189.964 276.552 192.62 273.343 191.699 C 272.56 191.699 272.56 190.839 272.56 189.964 C 273.343 189.089 273.343 189.089 274.126 188.229 C 273.343 188.229 270.948 189.089 270.948 187.323 C 271.777 185.572 274.126 186.448 275.708 186.448 Z  M 278.118 215.529 C 278.901 216.405 278.118 217.264 277.32 217.264 L 270.948 217.264 C 270.165 217.264 270.165 216.405 269.382 216.405 C 270.948 213.748 275.708 213.748 278.118 215.529 Z  M 267.017 120.361 C 267.8 120.361 267.8 121.221 267.8 122.158 C 265.451 124.799 261.459 127.394 258.28 124.799 C 259.908 122.158 262.242 123.018 263.823 121.221 C 264.606 120.361 266.219 122.158 267.017 120.361 Z  M 256.714 120.361 L 258.28 120.361 C 259.125 120.361 261.459 118.626 261.459 120.361 C 260.675 122.158 258.28 124.799 255.931 122.158 C 255.931 121.221 255.931 120.361 256.714 120.361 Z  M 230.58 125.659 C 237.72 124.799 244.046 124.799 250.357 127.394 C 249.605 130.05 247.24 129.19 245.613 129.19 C 243.233 130.05 240.899 130.925 239.271 130.05 C 236.907 128.269 235.294 127.394 232.945 127.394 C 232.945 129.19 232.131 130.05 231.364 130.05 C 225.805 130.925 220.277 130.925 215.518 128.269 C 220.277 126.534 225.805 126.242 230.58 125.659 Z  M 232.131 196.136 C 232.131 197.012 231.364 197.872 231.364 197.872 C 229.014 196.136 224.239 197.012 225.022 193.495 C 225.022 191.699 227.387 190.839 229.782 190.839 C 232.131 190.839 232.945 192.62 233.713 193.495 C 233.713 195.261 231.364 194.355 230.58 194.355 C 231.364 195.261 231.364 195.261 232.131 196.136 Z  M 223.456 157.351 C 223.456 156.491 225.805 155.616 225.805 157.351 C 225.805 158.272 223.456 158.272 223.456 157.351 Z  M 229.782 202.309 C 230.58 203.184 229.782 204.059 229.014 204.059 C 226.619 204.059 225.022 204.059 222.611 202.309 L 221.061 204.059 C 219.464 203.184 217.913 201.434 217.913 199.668 C 217.913 197.872 220.339 198.363 221.844 198.793 C 225.022 199.668 227.387 200.528 229.782 202.309 Z  M 219.464 213.748 C 219.464 212.873 219.464 212.013 220.277 212.013 C 221.061 212.013 220.723 212.873 221.844 212.873 C 222.611 212.873 222.611 213.748 223.456 213.748 C 221.844 215.529 221.061 215.529 219.464 213.748 Z  M 218.681 301.868 C 217.913 301.868 217.913 300.962 217.913 300.087 C 217.913 299.227 218.681 299.227 218.681 298.352 C 220.277 299.227 220.277 300.962 218.681 301.868 Z  M 214.719 171.492 C 213.905 172.352 213.122 174.087 212.354 174.087 C 209.176 174.087 206.796 176.744 204.416 177.619 C 203.618 177.619 203.618 175.884 202.052 175.884 C 197.276 175.884 191.718 176.744 187.019 173.227 C 190.95 169.711 195.725 173.227 200.47 171.492 C 204.416 169.711 209.959 168.851 214.719 171.492 Z  M 171.542 292.041 C 167.227 294.268 162.314 293.162 159.028 290.245 C 160.594 288.464 162.989 290.245 164.586 291.12 C 167.734 291.811 169.853 288.633 172.202 289.063 C 176.394 287.251 180.678 286.422 185.407 285.086 C 187.802 285.086 189.369 286.882 190.95 288.648 C 184.225 289.385 178.098 292.656 171.542 292.041 Z  M 176.686 300.962 C 171.941 305.4 165.584 304.463 161.623 300.962 C 163.25 299.227 165.584 300.962 167.181 301.868 C 171.143 302.744 173.523 297.431 176.686 300.962 Z  M 143.412 290.398 C 141.846 290.398 138.698 291.304 138.698 289.523 C 139.42 285.086 144.978 286.882 148.157 285.992 C 152.932 284.257 156.74 285.086 162.421 285.086 C 163.25 285.086 163.25 285.992 164.033 285.992 C 157.692 289.523 150.521 287.742 143.412 290.398 Z  M 187.019 257.785 C 186.175 257.785 184.624 256.91 184.624 256.066 C 184.624 254.269 186.175 252.534 187.802 253.394 C 189.369 255.175 190.95 257.785 192.516 260.442 C 192.516 261.301 192.516 262.238 191.718 262.238 C 190.136 262.238 189.369 261.301 188.586 260.442 L 188.586 258.707 C 188.586 257.785 187.802 257.785 187.019 257.785 Z  M 161.623 172.352 C 167.964 169.711 175.073 171.492 181.461 174.087 C 180.616 177.619 177.469 176.744 174.29 176.744 C 170.36 176.744 167.181 177.619 163.25 175.884 C 164.817 174.087 167.181 175.008 169.592 174.087 C 167.181 173.227 164.033 175.008 161.623 172.352 Z  M 186.175 188.229 C 187.802 189.089 186.175 191.699 187.019 192.62 C 188.586 193.495 191.534 192.144 192.516 194.355 C 193.299 196.136 190.95 196.136 190.136 197.012 C 187.019 195.261 182.244 199.668 180.616 197.012 C 178.283 193.495 182.244 196.136 183.81 194.355 C 176.686 191.699 169.592 193.495 162.421 191.699 C 170.36 190.839 178.283 188.229 186.175 188.229 Z  M 197.276 212.013 C 197.276 212.873 196.324 213.364 195.725 212.873 C 193.299 211.138 190.136 210.232 188.586 207.576 C 188.586 206.7 188.586 205.841 189.369 205.841 C 192.516 205.841 196.509 208.482 197.276 212.013 Z  M 165.584 219.921 C 167.181 216.405 171.941 218.186 175.918 219.921 C 174.29 221.702 172.74 222.577 171.941 224.312 C 169.592 225.187 164.817 221.702 165.584 219.921 Z  M 178.283 241.955 C 175.918 243.705 174.444 245.486 171.941 245.486 L 169.592 245.486 C 168.747 245.486 167.964 244.626 168.747 243.705 C 171.143 241.033 175.918 239.314 178.283 241.955 Z  M 176.686 224.312 C 179.849 221.702 184.624 222.577 188.586 224.312 C 184.624 227.89 179.849 226.093 176.686 224.312 Z  M 192.516 278.099 C 190.136 279.835 187.802 281.616 184.624 281.616 C 179.849 281.616 175.918 285.086 171.143 283.351 C 173.523 278.959 178.283 281.616 181.461 278.959 C 183.81 276.303 188.586 277.178 192.516 278.099 Z  M 191.718 304.463 C 191.718 305.4 194.927 305.4 192.516 307.135 C 190.95 307.995 188.586 306.076 188.586 307.995 L 188.586 309.791 C 185.407 310.651 180.616 312.432 178.283 308.932 C 182.244 304.463 187.019 305.4 191.718 304.463 Z  M 201.253 327.388 C 198.904 331.779 194.129 326.528 191.718 330.044 C 190.136 327.388 187.019 330.919 185.407 328.309 C 189.369 324.747 196.509 326.528 201.253 327.388 Z  M 198.904 254.269 C 198.059 254.269 196.509 255.175 195.725 253.394 C 195.725 252.534 195.725 251.659 196.509 251.659 C 197.276 251.659 197.507 251.045 198.059 251.659 C 198.904 252.534 201.253 253.394 198.904 254.269 Z  M 206.028 257.785 C 203.618 258.707 202.052 259.566 199.625 257.785 C 202.052 256.066 203.618 256.066 206.028 257.785 Z  M 198.904 302.744 C 201.253 303.603 205.844 303.557 205.245 307.135 C 204.416 311.573 198.904 309.791 195.725 307.135 C 196.509 305.4 197.276 302.744 198.904 302.744 Z  M 207.61 315.089 C 208.378 315.964 209.176 318.605 207.61 318.605 C 204.416 319.48 199.625 318.605 199.625 315.964 C 199.625 312.432 205.583 312.816 207.61 315.089 Z  M 196.509 331.779 C 199.625 331.779 204.416 330.919 207.61 331.779 C 209.176 332.7 209.959 336.217 208.378 337.952 C 203.618 331.779 195.771 335.341 188.586 335.341 C 187.019 335.341 186.175 334.436 185.407 333.576 C 188.586 330.919 193.299 331.779 196.509 331.779 Z  M 209.176 338.858 C 209.176 339.748 209.959 341.514 208.378 342.389 C 207.61 342.389 206.796 341.514 205.245 341.514 C 204.416 341.514 204.416 340.608 203.618 339.748 C 205.245 338.858 207.61 338.858 209.176 338.858 Z  M 190.95 241.955 C 194.129 241.033 198.213 235.951 200.47 238.438 C 201.253 239.314 203.618 237.533 204.416 238.438 C 206.028 241.033 208.378 240.174 210.727 241.955 C 211.587 242.83 210.727 243.705 209.959 243.705 C 203.618 243.705 197.276 244.626 190.95 241.955 Z  M 203.618 215.529 C 202.052 215.529 202.835 212.013 201.253 211.138 C 203.618 209.372 206.274 209.065 208.378 210.232 C 209.959 211.138 212.354 211.138 213.905 212.873 C 211.587 217.264 206.796 213.748 203.618 215.529 Z  M 204.416 137.098 C 205.245 137.098 205.245 138.004 206.028 138.004 C 204.416 139.754 202.835 139.754 202.052 138.004 C 202.052 137.098 203.618 137.098 204.416 137.098 Z  M 187.802 130.05 C 190.136 130.05 191.703 130.726 194.129 130.05 C 197.276 129.19 199.625 130.05 202.052 130.925 C 199.625 131.831 198.904 133.566 197.276 134.457 C 194.129 136.223 190.136 133.566 187.019 131.831 C 187.019 130.925 187.019 130.05 187.802 130.05 Z  M 181.461 131.831 L 184.624 131.831 C 185.407 131.831 185.407 132.722 185.407 133.566 C 183.81 135.363 180.616 136.376 180.616 133.566 C 180.616 132.722 181.461 131.831 181.461 131.831 Z  M 178.283 149.443 C 181.461 148.583 184.624 149.443 187.802 150.318 C 185.407 152.099 183.027 150.318 180.616 152.099 C 184.624 152.099 188.586 149.443 191.718 153.834 C 186.175 156.491 179.849 156.491 173.523 154.74 C 171.143 154.74 169.592 153.834 167.181 155.616 C 166.383 152.975 165.584 152.099 163.25 151.178 C 167.964 148.583 173.599 150.748 178.283 149.443 Z  M 171.143 167.915 C 177.469 166.18 184.624 166.18 190.95 167.915 C 190.95 167.055 190.95 166.18 191.718 166.18 C 194.927 166.18 199.625 163.523 201.253 167.915 C 202.052 170.571 198.904 169.711 198.059 169.711 C 185.407 171.492 172.74 171.492 160.072 170.571 C 163.25 166.18 167.181 168.851 171.143 167.915 Z  M 169.592 236.657 C 167.964 238.438 166.383 238.438 164.033 238.438 C 161.623 238.438 159.258 237.533 157.692 236.657 C 161.623 234.876 165.584 234.876 169.592 236.657 Z  M 167.964 261.301 C 163.25 263.958 156.08 263.958 150.521 262.238 C 152.149 258.707 154.406 259.566 156.863 259.566 C 160.84 259.566 164.817 257.785 167.964 261.301 Z  M 146.591 197.012 L 146.591 198.793 C 142.598 200.528 137.854 202.309 133.14 199.668 C 137.086 197.012 141.846 198.793 146.591 197.012 Z  M 145.808 221.702 L 144.978 222.577 C 148.955 226.093 153.7 219.921 156.863 223.437 C 156.863 224.312 154.867 223.544 154.514 224.312 C 151.304 231.36 142.598 228.75 137.086 226.953 C 134.691 226.093 131.528 226.093 129.148 224.312 C 133.923 221.702 140.249 219.061 145.808 221.702 Z  M 120.426 229.61 C 122.822 228.75 124.28 229.61 126.752 229.61 C 130.745 229.61 133.923 227.89 137.854 228.75 C 138.698 229.61 139.42 231.36 141.032 232.266 C 139.42 234.876 136.288 232.266 133.923 233.141 L 133.923 235.782 C 128.365 239.314 123.589 234.016 118.845 231.36 C 119.628 230.485 119.628 229.61 120.426 229.61 Z  M 118.845 253.394 C 120.426 252.534 121.255 254.269 122.039 255.175 C 122.039 256.066 122.039 257.785 121.255 257.785 C 118.845 257.785 116.496 258.707 114.085 256.91 C 115.697 256.066 117.263 254.269 118.845 253.394 Z  M 114.085 275.443 C 129.148 274.522 144.18 273.647 159.258 272.787 C 155.281 270.13 150.521 272.787 146.591 271.912 C 146.591 271.912 143.412 270.13 145.808 269.271 C 156.863 265.739 168.824 267.919 180.616 265.739 C 185.407 264.833 190.136 266.614 191.718 271.006 C 193.299 274.522 188.586 272.787 187.802 272.787 C 179.849 273.647 171.143 270.13 164.033 274.522 C 168.747 273.647 173.523 273.647 178.283 275.443 C 178.283 275.443 181.461 277.178 179.066 277.178 C 169.592 278.959 160.84 280.694 152.149 280.694 C 148.157 281.616 143.412 279.835 139.42 278.959 C 129.148 278.099 118.031 278.099 107.743 278.099 C 109.356 275.443 112.519 275.443 114.085 275.443 Z  M 133.923 284.257 C 132.295 285.086 131.528 285.992 129.931 285.992 C 129.148 293.055 121.255 289.523 117.263 293.055 C 114.868 293.915 114.868 290.398 113.302 289.523 C 115.697 287.742 118.845 288.648 122.039 287.742 C 123.589 287.742 122.822 285.086 122.822 285.086 C 117.263 283.351 111.751 286.882 106.193 285.086 C 105.379 284.257 103.03 282.476 104.596 282.476 C 116.496 279.835 128.365 278.959 140.249 282.476 L 140.249 284.257 C 137.854 284.257 135.489 283.351 133.923 284.257 Z  M 101.417 350.312 C 99.836 350.312 99.836 347.656 99.037 345.921 C 99.037 343.264 102.538 342.205 103.767 343.264 C 106.96 345.921 109.356 344.124 112.519 344.124 C 115.697 345.046 119.628 341.514 122.822 340.608 C 124.403 340.608 125.969 341.514 127.597 342.389 C 129.148 342.389 131.528 340.608 133.14 342.389 C 123.589 350.312 112.519 348.562 101.417 350.312 Z  M 130.745 355.625 C 129.931 355.625 129.931 357.345 129.931 358.266 C 126.752 360.861 122.039 360.001 119.628 358.266 C 116.496 356.485 114.085 360.861 110.937 357.345 C 120.426 353.828 130.745 352.953 140.249 349.437 C 144.978 347.656 150.521 346.781 156.08 349.437 C 148.157 353.828 139.42 355.625 130.745 355.625 Z  M 156.08 335.341 C 150.521 337.952 144.18 337.092 137.854 337.092 C 128.365 335.341 120.426 339.748 110.937 342.389 C 110.154 342.389 109.356 340.608 109.356 340.608 C 111.751 337.092 115.697 337.952 118.845 336.217 C 119.628 335.341 115.697 335.341 115.697 335.341 C 119.628 331.779 124.403 334.436 128.365 333.576 L 127.597 331.779 C 127.597 330.044 129.931 330.044 130.745 329.169 C 134.691 328.309 138.698 330.044 142.598 328.309 C 144.18 326.528 145.808 323.872 148.157 322.981 L 152.932 322.981 L 153.7 324.747 C 152.149 327.388 149.738 327.388 147.374 329.169 C 148.157 329.169 148.157 330.044 148.157 330.919 C 149.738 330.919 151.304 330.919 152.932 329.169 C 155.281 328.309 156.08 330.919 157.692 332.7 C 158.475 333.576 156.863 334.436 156.08 335.341 Z  M 162.421 322.137 C 161.623 320.34 159.258 321.231 158.475 321.231 C 151.304 318.605 144.18 322.137 137.854 323.872 C 135.489 324.747 130.745 326.528 129.931 323.872 C 129.148 320.34 133.923 322.137 136.288 319.48 C 137.854 318.605 141.032 320.34 142.598 319.48 C 150.521 315.964 158.475 315.964 166.383 317.699 C 174.29 318.605 183.027 318.605 190.136 323.872 C 185.407 325.668 181.461 325.668 176.686 325.668 C 174.29 325.668 173.523 322.137 171.143 321.231 C 167.964 321.231 164.817 320.34 162.421 322.137 Z  M 209.959 379.379 C 208.378 382.91 205.245 380.254 202.835 381.129 C 200.47 382.035 195.725 384.307 195.725 381.129 C 195.725 380.254 196.509 378.473 197.276 378.473 C 199.625 378.473 201.253 377.613 202.835 376.738 C 205.245 376.738 207.61 374.987 209.959 376.738 L 209.959 379.379 Z  M 210.727 357.345 C 209.959 359.126 206.796 360.001 206.028 358.266 C 206.028 356.485 206.796 354.688 207.61 352.953 C 198.904 353.828 190.95 352.953 182.244 354.688 C 177.469 356.485 171.788 358.066 168.747 354.688 C 167.964 353.828 165.584 352.953 167.964 352.093 C 175.918 349.437 186.175 356.485 190.95 347.656 C 197.276 349.437 203.618 345.921 209.176 349.437 C 211.587 350.312 211.587 354.688 210.727 357.345 Z  M 211.587 226.953 C 213.122 226.093 216.024 227.89 216.285 228.75 C 217.13 231.36 213.905 228.75 212.354 229.61 C 212.354 228.75 209.176 227.89 211.587 226.953 Z  M 213.905 286.882 L 214.719 287.742 C 218.681 290.398 219.464 296.571 215.518 296.571 C 213.905 296.571 211.587 290.398 213.905 286.882 Z  M 217.13 305.4 C 217.13 303.603 218.681 303.603 220.277 305.4 C 218.681 306.26 217.13 307.135 217.13 305.4 Z  M 221.061 316.824 C 219.464 315.089 217.913 312.432 217.913 309.791 C 217.913 308.932 219.464 308.932 220.277 308.932 C 221.061 308.932 220.723 309.884 221.061 310.651 C 221.844 312.432 222.611 315.089 221.061 316.824 Z  M 224.239 240.174 C 222.611 241.033 219.464 236.657 222.611 234.876 C 222.611 234.876 223.886 234.968 224.239 235.782 C 225.022 237.533 225.805 240.174 224.239 240.174 Z  M 226.619 339.748 C 225.805 339.748 225.805 338.858 225.805 337.952 C 225.805 337.092 226.619 337.092 226.619 336.217 C 228.17 337.092 228.17 338.858 226.619 339.748 Z  M 232.131 223.437 C 230.58 224.312 229.782 222.577 229.014 221.702 C 229.014 220.781 230.58 220.781 231.364 220.781 C 232.131 220.781 232.131 221.702 232.945 221.702 C 232.945 222.577 232.945 223.437 232.131 223.437 Z  M 232.131 212.013 C 232.131 211.138 229.782 211.138 231.364 209.372 C 232.945 207.576 235.294 208.482 235.294 210.232 C 235.294 211.138 233.713 212.873 232.131 212.013 Z  M 240.899 317.699 C 238.457 311.573 240.054 304.463 238.457 297.431 C 238.457 295.696 240.899 296.571 241.62 296.571 C 243.233 296.571 244.83 298.352 244.83 299.227 C 244.046 305.4 245.613 313.308 240.899 317.699 Z  M 237.72 275.443 C 238.457 274.522 238.457 272.787 240.054 273.647 C 240.899 273.647 241.451 274.814 240.899 275.443 C 240.054 276.303 240.054 277.178 239.271 277.178 C 238.457 277.178 238.457 276.303 237.72 275.443 Z  M 235.294 268.395 C 234.557 267.474 235.294 266.614 236.123 266.614 C 237.72 266.614 240.054 265.739 241.62 267.474 C 241.62 267.474 242.465 266.614 243.233 266.614 C 244.046 267.474 244.83 268.395 245.613 269.271 C 243.233 271.912 237.72 271.006 235.294 268.395 Z  M 237.72 245.486 C 237.72 243.705 241.19 242.308 242.465 243.705 C 243.233 244.626 242.465 246.361 241.62 246.361 L 246.396 246.361 C 247.24 246.361 251.954 247.221 249.605 248.127 C 247.24 249.878 242.465 247.221 240.054 249.878 C 240.054 248.127 237.72 249.878 237.72 248.127 C 237.72 247.344 237.72 246.592 238.196 246.407 C 237.905 246.239 237.72 245.962 237.72 245.486 Z  M 244.046 193.495 C 244.046 195.261 240.054 196.136 237.72 195.261 C 238.457 194.355 239.271 192.62 240.899 192.62 C 242.465 192.62 244.83 191.699 244.046 193.495 Z  M 240.899 172.352 L 242.465 172.352 L 241.62 173.227 L 240.899 172.352 Z  M 244.83 235.782 C 245.613 234.876 247.24 234.876 248.023 234.876 C 248.023 235.736 250.864 236.581 249.113 237.41 C 249.835 237.732 250.357 238.377 250.357 239.314 C 250.357 241.033 248.023 241.955 246.396 241.955 C 244.83 241.955 244.046 238.438 246.396 237.533 C 246.718 237.364 247.041 237.256 247.378 237.195 C 246.426 236.872 245.321 236.32 244.83 235.782 Z  M 243.233 224.312 L 241.62 224.312 C 241.62 223.437 238.457 222.577 240.899 221.702 C 239.271 219.921 239.271 217.264 240.899 216.405 C 242.465 216.405 244.046 215.529 245.613 217.264 C 246.396 218.186 248.791 219.061 248.791 219.921 C 247.24 222.577 243.233 219.061 240.899 221.702 C 242.465 221.702 244.83 220.781 246.396 222.577 C 246.396 223.437 246.396 224.312 245.613 224.312 L 243.233 224.312 Z  M 244.046 240.174 C 244.046 241.033 244.046 241.955 243.233 241.955 C 241.62 241.955 239.271 242.83 238.457 241.033 C 238.457 239.314 240.899 239.314 242.465 239.314 C 243.233 239.314 243.233 240.174 244.046 240.174 Z  M 251.156 223.437 C 249.605 224.312 248.023 225.187 246.396 223.437 C 248.023 221.702 249.605 221.702 251.156 223.437 Z  M 249.605 230.485 C 248.791 228.75 245.613 227.89 246.396 225.187 C 247.24 224.312 248.023 225.187 248.023 226.093 C 248.023 225.187 248.791 225.187 249.605 225.187 C 251.156 226.093 251.954 227.89 251.156 229.61 C 251.156 229.61 250.357 230.485 249.605 230.485 Z  M 240.899 211.138 C 240.054 211.138 240.054 210.232 240.054 209.372 C 242.465 205.841 247.24 207.576 250.357 207.576 C 251.156 207.576 251.156 208.482 251.954 208.482 C 248.791 212.013 244.83 211.138 240.899 211.138 Z  M 246.396 175.884 C 244.83 175.008 243.233 171.492 245.613 169.711 C 246.396 169.711 247.486 169.803 249.605 170.571 C 251.954 171.492 253.566 170.571 254.349 173.227 C 255.117 175.008 253.566 175.008 252.722 175.884 C 250.357 176.744 248.023 176.744 246.396 175.884 Z  M 247.24 204.059 C 247.24 204.965 250.357 205.841 248.023 206.7 C 245.613 206.7 243.233 205.841 241.62 204.965 C 243.233 203.184 245.613 204.059 247.24 204.059 Z  M 238.457 234.016 L 240.054 234.016 C 240.054 234.876 243.355 236.657 240.899 236.657 C 240.054 236.657 238.457 237.533 237.72 235.782 C 237.72 234.876 237.72 234.016 238.457 234.016 Z  M 245.613 258.707 C 245.613 256.91 248.791 256.066 249.605 257.785 C 250.357 259.566 249.605 263.083 248.023 263.083 C 246.396 263.958 245.613 260.442 245.613 258.707 Z  M 250.357 359.126 C 248.791 352.953 246.795 344.6 251.156 339.748 C 251.954 338.858 253.566 339.748 253.566 340.608 C 252.722 346.781 253.566 353.828 250.357 359.126 Z  M 253.566 323.872 C 252.722 322.981 251.954 322.981 251.954 322.137 C 253.566 317.699 250.357 312.432 255.117 309.791 C 256.714 314.167 255.931 319.48 253.566 323.872 Z  M 257.497 303.603 C 256.714 304.463 255.931 305.4 255.117 306.26 C 254.349 306.26 253.566 306.26 253.566 305.4 C 253.566 302.744 253.566 299.227 255.931 299.227 C 256.161 299.135 256.376 299.089 256.591 299.074 L 255.931 298.352 L 256.714 297.431 L 256.714 299.074 C 258.526 299.059 259.309 301.638 257.497 303.603 Z  M 233.713 141.489 C 234.557 141.489 234.557 142.395 234.557 143.27 L 240.899 143.27 C 240.899 142.395 240.899 141.489 241.62 141.489 C 242.465 141.489 243.233 143.27 243.233 143.27 C 245.613 141.489 248.791 143.27 250.357 145.006 C 245.613 148.583 240.054 145.006 235.294 145.006 C 231.364 145.006 226.619 145.927 222.611 143.27 C 228.17 138.879 234.557 138.879 240.899 138.879 C 248.023 138.879 254.349 137.098 261.459 138.879 C 252.722 144.146 243.233 138.879 233.713 141.489 Z  M 270.165 384.707 C 264.606 382.035 270.165 374.081 269.382 367.909 C 270.165 367.909 270.165 364.392 271.777 367.049 C 271.777 367.909 271.777 367.909 270.948 368.83 C 270.948 369.69 271.193 369.935 271.777 370.565 C 272.56 371.44 274.126 371.44 274.126 372.346 C 274.126 374.987 274.94 375.862 274.126 377.613 C 273.343 380.254 270.948 385.566 270.165 384.707 Z " fill="rgb(0,123,94)"/></g></svg>