<?xml version="1.0" encoding="UTF-8" standalone="no"?><!-- Generator: Gravit.io --><svg xmlns="http://www.w3.org/2000/svg" xmlns:xlink="http://www.w3.org/1999/xlink" style="isolation:isolate" viewBox="0 0 512 512" width="512pt" height="512pt"><defs><clipPath id="_clipPath_uQAZKriSvGtVti3xnl79OxUzXPgjNJIS"><rect width="512" height="512"/></clipPath></defs><g clip-path="url(#_clipPath_uQAZKriSvGtVti3xnl79OxUzXPgjNJIS)"><g><linearGradient id="_lgradient_18" x1="0.4061898928680048" y1="0.42758999831573163" x2="0.7386701521503731" y2="0.59235689700157" gradientTransform="matrix(428.604,0,0,272.484,28.77,0)" gradientUnits="userSpaceOnUse"><stop offset="0%" stop-opacity="1" style="stop-color:rgb(250,175,76)"/><stop offset="59.440000000000005%" stop-opacity="1" style="stop-color:rgb(247,156,46)"/><stop offset="100%" stop-opacity="1" style="stop-color:rgb(246,146,30)"/></linearGradient><path d=" M 366.216 1.939 L 457.374 0 L 299.962 272.484 L 28.77 272.484 C 28.77 272.484 122.499 237.252 158.707 206.868 C 186.498 183.272 305.132 46.869 317.728 30.707 C 333.254 10.019 354.913 3.555 366.216 1.939 Z " fill="url(#_lgradient_18)"/><linearGradient id="_lgradient_19" x1="0.8129399192166833" y1="1.5598398450721458" x2="0.25236984162726905" y2="0.5687945919022857" gradientTransform="matrix(366.875,0,0,191.354,44.206,320.646)" gradientUnits="userSpaceOnUse"><stop offset="0%" stop-opacity="1" style="stop-color:rgb(114,164,215)"/><stop offset="100%" stop-opacity="1" style="stop-color:rgb(26,31,74)"/></linearGradient><path d=" M 82.669 384.324 L 44.206 320.646 L 300.533 320.646 L 411.081 512 C 411.081 512 348.044 459.961 311.836 447.03 C 283.714 437.011 139.243 408.889 122.755 406.627 C 101.742 404.04 88.486 391.434 82.669 384.324 L 82.669 384.324 Z " fill="url(#_lgradient_19)"/><linearGradient id="_lgradient_20" x1="1.4662998140962742" y1="1.0502301716711475" x2="0.5934207833045312" y2="-0.4928307883843259" gradientTransform="matrix(142.881,0,0,351.355,340.348,132.848)" gradientUnits="userSpaceOnUse"><stop offset="0%" stop-opacity="1" style="stop-color:rgb(114,164,215)"/><stop offset="100%" stop-opacity="1" style="stop-color:rgb(26,31,74)"/></linearGradient><path d=" M 479.664 428.929 L 449.273 484.203 L 340.348 295.434 L 434.092 132.848 C 434.092 132.848 422.775 201.375 428.591 233.374 C 433.116 258.263 473.848 376.566 479.334 389.495 C 486.127 406.627 482.565 421.818 479.664 428.929 L 479.664 428.929 Z " fill="url(#_lgradient_20)"/></g></g></svg>