<?xml version="1.0" encoding="UTF-8" standalone="no"?><!-- Generator: Gravit.io --><svg xmlns="http://www.w3.org/2000/svg" xmlns:xlink="http://www.w3.org/1999/xlink" style="isolation:isolate" viewBox="0 0 125.267 25.535" width="125.267pt" height="25.535pt"><defs><clipPath id="_clipPath_OlN2kyZl2vI5yzqdkEBsYvdWnud3JqJM"><rect width="125.267" height="25.535"/></clipPath></defs><g clip-path="url(#_clipPath_OlN2kyZl2vI5yzqdkEBsYvdWnud3JqJM)"><linearGradient id="_lgradient_10" x1="0.6348028393452108" y1="0.998630935398408" x2="0.14821005359988249" y2="0.28798005896787093" gradientTransform="matrix(34.515,0,0,24.535,0.5,0.5)" gradientUnits="userSpaceOnUse"><stop offset="0%" stop-opacity="0.99607843" style="stop-color:rgb(190,0,0)"/><stop offset="100%" stop-opacity="1" style="stop-color:rgb(255,0,0)"/></linearGradient><path d=" M 0.501 0.5 L 0.5 0.5 L 0.815 1.325 L 2.213 4.99 L 9.851 25.035 L 35.015 25.035 L 14.851 4.784 C 12.165 2.096 8.519 0.5 4.72 0.5 L 4.72 0.5 L 0.501 0.5 L 0.501 0.5 Z " fill="url(#_lgradient_10)"/><path d=" M 2.212 4.99 C 4.967 9.695 12.197 10.191 12.983 17.508 C 13.016 17.808 13.246 18.049 13.546 18.096 C 17.712 18.748 21.769 20.463 25.296 23.289 L 25.298 23.291 C 25.321 23.31 25.345 23.318 25.376 23.318 C 25.408 23.318 25.439 23.307 25.464 23.285 C 25.514 23.236 25.515 23.157 25.468 23.107 C 23.027 20.541 20.043 18.49 16.694 17.142 L 15.675 16.732 C 15.15 16.521 14.787 16.001 14.803 15.402 C 14.859 13.217 20.029 13.661 20.553 12.611 L 20.643 12.43 C 19.579 11.52 18.314 10.836 16.922 10.453 C 16.909 10.506 16.875 10.761 17.158 11.222 C 17.467 11.725 16.822 12.522 15.882 11.661 L 15.803 11.59 C 8.818 5.19 3.582 8.508 0.814 1.325 L 2.212 4.99 L 2.212 4.99 Z " fill="rgb(255,255,255)"/><linearGradient id="_lgradient_11" x1="0.4544574183181709" y1="1.0363529985372963" x2="0.5427842986419036" y2="0.02677196636970125" gradientTransform="matrix(2.334,0,0,2.564,16.674,11.222)" gradientUnits="userSpaceOnUse"><stop offset="0%" stop-opacity="1" style="stop-color:rgb(255,255,255)"/><stop offset="65%" stop-opacity="1" style="stop-color:rgb(255,255,255)"/><stop offset="95%" stop-opacity="1" style="stop-color:rgb(162,165,163)"/><stop offset="100%" stop-opacity="1" style="stop-color:rgb(162,165,163)"/></linearGradient><path d=" M 16.674 12.042 L 16.674 13.786 C 17.427 13.569 18.285 13.434 19.007 13.282 L 19.007 13.282 L 19.007 12.311 C 19.007 12.311 17.862 12.368 17.16 11.222 L 17.16 11.222 C 17.369 11.564 17.137 12.041 16.674 12.042" fill="url(#_lgradient_11)"/><linearGradient id="_lgradient_12" x1="0.000036747818096927176" y1="0.5000870406189506" x2="1.000077905374365" y2="0.5000870406189506" gradientTransform="matrix(10.885,0,0,5.17,14.41,18.119)" gradientUnits="userSpaceOnUse"><stop offset="0%" stop-opacity="1" style="stop-color:rgb(255,255,255)"/><stop offset="90%" stop-opacity="1" style="stop-color:rgb(162,165,163)"/><stop offset="100%" stop-opacity="1" style="stop-color:rgb(162,165,163)"/></linearGradient><path d=" M 14.41 18.247 C 18.271 18.99 22.014 20.657 25.295 23.289 L 25.295 23.289 L 25.295 23.289 C 20.045 18.802 16.845 18.119 15.371 18.119 L 15.371 18.119 C 14.791 18.119 14.477 18.225 14.41 18.247 Z " fill="url(#_lgradient_12)"/><linearGradient id="_lgradient_13" x1="0.000013148433485099531" y1="0.49998207663782424" x2="0.9999560349255248" y2="0.49998207663782424" gradientTransform="matrix(12.169,0,0,16.18,0.815,1.325)" gradientUnits="userSpaceOnUse"><stop offset="0%" stop-opacity="1" style="stop-color:rgb(255,255,255)"/><stop offset="43.000001%" stop-opacity="1" style="stop-color:rgb(255,255,255)"/><stop offset="100%" stop-opacity="1" style="stop-color:rgb(162,165,163)"/></linearGradient><path d=" M 0.815 1.325 L 2.212 4.99 C 4.966 9.695 12.196 10.191 12.984 17.505 L 12.984 17.505 C 12.187 8.17 8.087 9.565 3.682 5.317 L 3.682 5.317 C 2.546 4.509 1.585 3.324 0.815 1.325 Z " fill="url(#_lgradient_13)"/><path d=" M 37.713 17.887 C 40.429 17.887 42.715 16.544 42.715 14.7 C 42.715 12.856 40.429 11.512 37.713 11.512 C 34.997 11.512 32.71 12.856 32.71 14.7 C 32.71 16.544 34.997 17.887 37.713 17.887 Z  M 37.57 20.531 C 32.595 20.531 29.437 17.945 29.437 14.7 C 29.437 11.399 32.782 8.869 37.713 8.869 C 42.644 8.869 45.989 11.412 45.989 14.571 C 45.989 15.986 45.36 17.145 44.159 18.116 L 47.089 18.116 L 46.389 19.317 C 45.945 20.075 45.403 20.531 44.23 20.531 L 37.57 20.531 Z " fill="rgb(50,50,50)"/><path d=" M 52.805 16.201 L 57.979 16.201 L 55.578 11.927 C 55.521 11.827 55.478 11.798 55.393 11.798 C 55.306 11.798 55.264 11.827 55.206 11.927 L 52.805 16.201 Z  M 59.309 18.559 L 51.476 18.559 L 50.361 20.532 L 47.116 20.532 L 52.548 11.127 C 52.976 10.383 53.591 9.812 54.82 9.812 L 56.035 9.812 C 57.265 9.812 57.879 10.383 58.308 11.127 L 63.739 20.532 L 60.424 20.532 L 59.309 18.559 L 59.309 18.559 Z " fill="rgb(50,50,50)"/><path d=" M 79.204 9.812 L 79.204 20.532 L 76.302 20.532 L 67.784 13.428 L 67.784 20.532 L 64.881 20.532 L 64.881 9.812 L 66.697 9.812 C 67.626 9.812 68.097 10.054 68.626 10.512 L 76.302 16.902 L 76.302 9.812 L 79.204 9.812 Z " fill="rgb(50,50,50)"/><path d=" M 89.522 12.227 L 89.522 20.532 L 86.621 20.532 L 86.621 12.227 L 80.675 12.227 L 80.675 9.812 L 95.468 9.812 L 95.468 12.227 L 89.522 12.227 L 89.522 12.227 Z " fill="rgb(50,50,50)"/><path d=" M 98.626 16.201 L 103.8 16.201 L 101.399 11.927 C 101.341 11.827 101.299 11.798 101.214 11.798 C 101.127 11.798 101.085 11.827 101.027 11.927 L 98.626 16.201 Z  M 105.13 18.559 L 97.297 18.559 L 96.182 20.532 L 92.937 20.532 L 98.369 11.127 C 98.797 10.383 99.412 9.812 100.641 9.812 L 101.856 9.812 C 103.086 9.812 103.7 10.383 104.129 11.127 L 109.56 20.532 L 106.245 20.532 L 105.13 18.559 L 105.13 18.559 Z " fill="rgb(50,50,50)"/><path d=" M 110.56 19.76 L 110.288 19.674 L 111.017 17.345 C 113.103 18.016 115.333 18.287 117.348 18.287 C 120.651 18.287 121.466 17.901 121.466 17.487 C 121.466 17.316 121.351 17.187 121.093 17.101 C 120.765 16.987 119.85 16.801 117.148 16.359 C 114.161 15.872 112.818 15.629 111.832 15.171 C 110.846 14.715 110.245 13.985 110.245 12.914 C 110.245 12.099 110.646 11.441 111.288 10.926 C 112.432 10.04 114.39 9.684 116.52 9.684 C 119.265 9.684 121.566 9.912 124.123 10.541 L 124.352 10.612 L 123.738 12.885 C 120.88 12.27 119.293 12.099 117.121 12.07 C 115.591 12.056 114.533 12.17 113.976 12.341 C 113.661 12.442 113.532 12.585 113.532 12.756 C 113.532 12.914 113.632 13.056 113.947 13.156 C 114.29 13.271 114.847 13.4 117.777 13.871 C 120.951 14.386 121.995 14.6 122.866 14.944 C 124.052 15.4 124.767 16.244 124.767 17.301 C 124.767 18.631 123.738 19.617 121.951 20.16 C 120.851 20.489 119.378 20.675 117.721 20.675 C 115.12 20.675 112.346 20.331 110.56 19.76" fill="rgb(50,50,50)"/></g></svg>