<?xml version="1.0" encoding="UTF-8" standalone="no"?><!-- Generator: Gravit.io --><svg xmlns="http://www.w3.org/2000/svg" xmlns:xlink="http://www.w3.org/1999/xlink" style="isolation:isolate" viewBox="0 0 512 512" width="512pt" height="512pt"><defs><clipPath id="_clipPath_sIV4gojffexxiDGxHGc0c9Knrhvopu0x"><rect width="512" height="512"/></clipPath></defs><g clip-path="url(#_clipPath_sIV4gojffexxiDGxHGc0c9Knrhvopu0x)"><linearGradient id="_lgradient_14" x1="0.6348028393452108" y1="0.998630935398408" x2="0.14821005359988249" y2="0.28798005896787093" gradientTransform="matrix(512,0,0,363.955,0,74.022)" gradientUnits="userSpaceOnUse"><stop offset="0%" stop-opacity="0.99607843" style="stop-color:rgb(190,0,0)"/><stop offset="100%" stop-opacity="1" style="stop-color:rgb(255,0,0)"/></linearGradient><path d=" M 0.015 74.022 L 0 74.022 L 4.673 86.26 L 25.403 140.628 L 138.718 437.978 L 512 437.978 L 212.888 137.568 C 173.04 97.701 118.951 74.022 62.6 74.022 L 62.6 74.022 L 0.019 74.022 L 0.015 74.022 Z " fill="url(#_lgradient_14)"/><path d=" M 25.394 140.629 C 66.262 210.424 173.513 217.786 185.176 326.316 C 185.658 330.766 189.07 334.345 193.52 335.049 C 255.323 344.71 315.513 370.151 367.821 412.076 L 367.851 412.105 C 368.203 412.383 368.556 412.513 369.019 412.513 C 369.481 412.513 369.946 412.346 370.317 412.013 C 371.058 411.291 371.076 410.122 370.376 409.38 C 334.162 371.312 289.901 340.884 240.225 320.895 L 225.113 314.813 C 217.325 311.679 211.929 303.965 212.17 295.083 C 213.004 262.671 289.697 269.253 297.466 253.677 L 298.801 250.989 C 283.021 237.49 264.256 227.347 243.6 221.673 C 243.414 222.452 242.914 226.234 247.104 233.077 C 251.684 240.531 242.116 252.361 228.172 239.585 L 227.005 238.527 C 123.388 143.589 45.713 192.82 4.66 86.255 L 25.39 140.622 L 25.394 140.629 Z " fill="rgb(255,255,255)"/><linearGradient id="_lgradient_15" x1="0.4544574183181709" y1="1.0363529985372963" x2="0.5427842986419036" y2="0.02677196636970125" gradientTransform="matrix(34.619,0,0,38.031,239.92,233.081)" gradientUnits="userSpaceOnUse"><stop offset="0%" stop-opacity="1" style="stop-color:rgb(255,255,255)"/><stop offset="65%" stop-opacity="1" style="stop-color:rgb(255,255,255)"/><stop offset="95%" stop-opacity="1" style="stop-color:rgb(162,165,163)"/><stop offset="100%" stop-opacity="1" style="stop-color:rgb(162,165,163)"/></linearGradient><path d=" M 239.92 245.245 L 239.92 271.112 C 251.101 267.886 263.821 265.883 274.539 263.64 L 274.539 263.64 L 274.539 249.232 C 274.539 249.232 257.554 250.067 247.133 233.081 L 247.133 233.081 C 250.23 238.143 246.799 245.227 239.92 245.245" fill="url(#_lgradient_15)"/><linearGradient id="_lgradient_16" x1="0.000036747818096927176" y1="0.5000870406189506" x2="1.000077905374365" y2="0.5000870406189506" gradientTransform="matrix(161.47,0,0,76.692,206.339,335.381)" gradientUnits="userSpaceOnUse"><stop offset="0%" stop-opacity="1" style="stop-color:rgb(255,255,255)"/><stop offset="90%" stop-opacity="1" style="stop-color:rgb(162,165,163)"/><stop offset="100%" stop-opacity="1" style="stop-color:rgb(162,165,163)"/></linearGradient><path d=" M 206.339 337.291 C 263.617 348.305 319.134 373.041 367.809 412.074 L 367.809 412.074 L 367.809 412.074 C 289.929 345.524 242.46 335.381 220.598 335.381 L 220.598 335.381 C 211.995 335.381 207.34 336.957 206.339 337.291 Z " fill="url(#_lgradient_16)"/><linearGradient id="_lgradient_17" x1="0.000013148433485099531" y1="0.49998207663782424" x2="0.9999560349255248" y2="0.49998207663782424" gradientTransform="matrix(180.513,0,0,240.016,4.669,86.26)" gradientUnits="userSpaceOnUse"><stop offset="0%" stop-opacity="1" style="stop-color:rgb(255,255,255)"/><stop offset="43.000001%" stop-opacity="1" style="stop-color:rgb(255,255,255)"/><stop offset="100%" stop-opacity="1" style="stop-color:rgb(162,165,163)"/></linearGradient><path d=" M 4.669 86.26 L 25.4 140.628 C 66.249 210.422 173.5 217.784 185.182 326.277 L 185.182 326.277 C 173.37 187.8 112.55 208.494 47.206 145.486 L 47.206 145.486 C 30.351 133.489 16.091 115.91 4.669 86.26 Z " fill="url(#_lgradient_17)"/></g></svg>