<?xml version="1.0" encoding="UTF-8" standalone="no"?><!-- Generator: Gravit.io --><svg xmlns="http://www.w3.org/2000/svg" xmlns:xlink="http://www.w3.org/1999/xlink" style="isolation:isolate" viewBox="0 0 512 512" width="512pt" height="512pt"><defs><clipPath id="_clipPath_KJroXEduiTqBDsx0uOm6IYPO5iAxiUWE"><rect width="512" height="512"/></clipPath></defs><g clip-path="url(#_clipPath_KJroXEduiTqBDsx0uOm6IYPO5iAxiUWE)"><path d=" M 394.191 251.388 C 394.191 253.634 362.621 255.741 317.551 257.509 C 309.592 252.994 303.552 248.456 299.13 244.546 C 353.788 246.478 394.191 248.863 394.191 251.388 Z " fill="rgb(116,127,138)"/><path d=" M 361.815 175.299 C 361.815 177.172 335.353 178.93 297.522 180.442 C 302.945 177.277 308.531 174.089 314.395 170.889 C 342.975 172.204 361.815 173.728 361.815 175.299 Z " fill="rgb(116,127,138)"/><path d=" M 79.932 338.994 C 62.419 339.203 47.058 339.284 35.06 339.284 C 17.791 339.284 3.804 333.966 3.804 327.368 C 3.804 320.805 17.791 315.487 35.06 315.487 C 50.351 315.487 71.065 315.65 94.827 315.953 C 85.634 329.219 81.27 337.19 80.863 337.69 C 80.595 338.074 80.258 338.528 79.932 338.994 Z " fill="rgb(116,127,138)"/><path d=" M 89.366 354.93 C 95.138 361.901 100.677 367.765 108.089 374.177 C 108.089 374.177 110.882 378.169 119.365 374.748 C 128 371.233 135.319 366.45 143.57 355.384 C 167.658 355.791 193.201 356.326 218.348 356.897 C 220.419 359.911 224.62 366.148 229.798 373.84 C 159.698 375.655 83.617 376.737 44.646 376.737 C 28.412 376.737 15.24 371.699 15.24 365.531 C 15.24 359.329 28.412 354.325 44.646 354.325 C 56.515 354.325 71.806 354.406 89.308 354.604 C 89.296 354.767 89.366 354.93 89.366 354.93 Z " fill="rgb(116,127,138)"/><path d=" M 62.249 413.39 C 47.842 413.39 36.171 408.956 36.171 403.487 C 36.171 398.006 47.842 393.561 62.249 393.561 C 100.359 393.561 178.488 394.724 245.4 396.621 C 248.623 401.241 251.847 405.837 254.907 410.062 C 186.017 412.086 102.163 413.39 62.249 413.39 Z " fill="rgb(116,127,138)"/><path d=" M 284.478 445.179 C 228.284 447.646 131.664 449.299 91.517 449.299 C 80.218 449.299 71.037 445.773 71.037 441.502 C 71.037 437.196 80.218 433.694 91.517 433.694 C 129.919 433.694 220.104 435.206 277.019 437.476 C 279.591 440.233 282.105 442.828 284.478 445.179 Z " fill="rgb(116,127,138)"/><path d=" M 137.875 466.256 C 171.028 466.256 271.954 468.758 271.954 471.783 C 271.954 474.855 171.016 477.334 137.875 477.334 C 131.416 477.334 126.192 474.855 126.192 471.783 C 126.192 468.758 131.416 466.256 137.875 466.256 Z " fill="rgb(116,127,138)"/><path d=" M 138.241 262.186 C 96.512 262.896 59.123 263.292 35.058 263.292 C 17.801 263.292 3.802 257.974 3.802 251.387 C 3.802 244.812 17.801 239.471 35.058 239.471 C 63.01 239.471 108.94 240.006 158.734 240.949 C 151.333 248.269 144.49 255.39 138.241 262.186 Z " fill="rgb(116,127,138)"/><path d=" M 342.92 208.963 C 367.368 210.29 382.752 211.744 382.752 213.257 C 382.752 214.921 364.133 216.515 335.321 217.935 C 341.477 213.304 342.826 209.266 342.92 208.963 Z " fill="rgb(116,127,138)"/><path d=" M 44.651 224.445 C 28.407 224.445 15.234 219.441 15.234 213.25 C 15.234 207.071 28.407 202.044 44.651 202.044 C 77.968 202.044 138.397 202.858 199.013 204.197 C 191.577 210.469 184.526 216.671 177.869 222.757 C 124.666 223.828 74.093 224.445 44.651 224.445 Z " fill="rgb(116,127,138)"/><path d=" M 225.812 182.681 C 163.834 184.252 96.69 185.218 62.245 185.218 C 47.839 185.218 36.179 180.785 36.179 175.304 C 36.179 169.823 47.839 165.366 62.245 165.366 C 100.262 165.366 178.206 166.553 245.024 168.438 C 241.696 170.858 238.344 173.279 234.947 175.816 C 231.851 178.12 228.802 180.389 225.812 182.681 Z " fill="rgb(116,127,138)"/><path d=" M 91.513 145.071 C 80.213 145.071 71.032 141.592 71.032 137.275 C 71.032 132.969 80.213 129.466 91.513 129.466 C 134.138 129.466 240.452 131.352 294.447 134.04 C 291.002 136.297 287.558 138.636 284.078 140.987 C 227.803 143.419 131.578 145.071 91.513 145.071 Z " fill="rgb(116,127,138)"/><path d=" M 31.838 301.5 C 14.267 301.5 0 296.089 0 289.374 C 0 282.706 14.267 277.272 31.838 277.272 C 53.867 277.272 86.834 277.598 124.118 278.168 C 117.113 286.407 111.026 294.041 105.813 300.883 C 76.128 301.279 50.178 301.5 31.838 301.5 Z " fill="rgb(116,127,138)"/><path d=" M 126.196 106.983 C 126.196 103.922 131.421 101.444 137.88 101.444 C 171.021 101.444 271.958 103.922 271.958 106.983 C 271.958 110.02 171.033 112.51 137.88 112.51 C 131.421 112.51 126.196 110.02 126.196 106.983 Z " fill="rgb(116,127,138)"/><path d=" M 397.498 280.413 C 397.731 286.452 397.696 292.445 397.394 298.322 C 338.674 300.649 282.992 304.187 282.992 308.167 C 282.992 312.076 337.429 315.579 395.474 317.895 C 394.449 324.598 393.135 331.172 391.529 337.619 C 334.311 339.958 281.212 343.403 281.212 347.278 C 281.212 351.013 330.785 354.376 385.675 356.715 C 383.162 363.72 380.311 370.528 377.111 377.045 C 329.97 379.314 291.01 382.339 291.01 385.644 C 291.01 388.728 325.048 391.579 367.953 393.778 C 365.544 397.7 363.03 401.54 360.4 405.171 C 357.607 409.127 354.57 413.049 351.359 416.901 C 324.536 418.937 306.126 421.253 306.126 423.731 C 306.126 425.861 319.311 427.851 339.629 429.631 C 328.539 440.605 315.436 450.857 299.994 459.805 C 299.994 459.805 281.805 444.142 266.794 425.849 C 253.412 409.534 225.018 366.525 218.339 356.901 C 211.647 347.278 207.249 344.462 199.429 347.254 C 188.944 350.967 176.76 352.828 173.013 352.828 C 169.266 352.828 167.207 351.374 173.49 348.884 C 179.751 346.358 204.502 334.675 216.686 310.529 C 230.371 283.334 218.339 245.782 218.339 245.782 C 213.742 265.855 203.292 273.349 203.292 273.349 C 206.667 254.707 202.99 237.811 193.785 225.953 L 188.653 249.552 C 188.653 249.552 185.441 249.389 177.493 256.069 C 169.557 262.76 167.369 272.511 167.369 272.511 C 173.618 275.025 181.136 268.753 181.136 268.753 C 171.535 304.675 157.769 333.919 147.727 349.384 C 137.696 364.849 129.422 370.679 119.368 374.764 C 110.885 378.162 108.092 374.17 108.092 374.17 C 100.679 367.77 95.14 361.905 89.368 354.935 C 89.368 354.935 88.903 354.12 90.462 354.143 C 94.593 354.202 101.947 347.138 103.553 344.206 C 105.392 340.843 105.194 338.271 104.275 338.096 C 103.367 337.945 101.796 340.61 93.825 345.637 C 85.9 350.652 82.258 347.173 79.616 344.38 C 77.568 342.158 79.582 339.411 80.862 337.689 C 82.072 336.153 123.999 257.965 234.944 175.821 C 380.334 68.17 473.184 39.101 478.502 37.006 C 482.016 35.622 487.753 33.795 489.056 35.133 C 490.499 36.646 491.209 37.856 491.011 39.613 C 490.825 41.359 489.894 42.255 483.168 45.222 C 427.358 69.81 362.204 110.795 325.187 134.651 C 279.664 156.83 236.201 188.506 234.618 189.262 C 231.116 191.438 233.699 194.603 235.817 193.277 C 312.689 142.145 402.816 107.316 502.415 78.782 C 507.175 77.433 509.782 77.433 510.573 78.48 C 511.469 79.644 511.853 80.97 511.993 82.436 C 512.121 84.263 510.608 85.229 506.523 86.823 C 399.523 126.575 320.661 163.498 269.936 197.629 C 269.936 197.629 264.688 200.794 264.618 204.46 C 264.595 205.856 267.434 206.019 267.434 206.019 C 292.826 206.473 326.77 207.962 342.922 208.905 C 342.922 208.905 340.618 217.085 325.152 223.672 C 313.213 228.769 302.158 227.954 291.22 228.047 C 288.788 228.001 286.728 230.456 288.671 233.074 C 289.649 234.378 312.922 271.848 397.498 280.413 Z " fill="rgb(92,6,50)"/></g></svg>