<?xml version="1.0" encoding="UTF-8" standalone="no"?><!-- Generator: Gravit.io --><svg xmlns="http://www.w3.org/2000/svg" xmlns:xlink="http://www.w3.org/1999/xlink" style="isolation:isolate" viewBox="0 0 512 512" width="512pt" height="512pt"><defs><clipPath id="_clipPath_qIKvrFWzRkDxER9qb3Ti5Xrt2QYEmfPf"><rect width="512" height="512"/></clipPath></defs><g clip-path="url(#_clipPath_qIKvrFWzRkDxER9qb3Ti5Xrt2QYEmfPf)"><path d=" M 203.232 376.672 L 203.214 376.724 L 276.799 323.254 L 273.794 314.003 L 220.821 352.493 L 229.746 325.031 L 221.868 319.31 L 206.264 367.347 C 187.53 352.583 175.455 329.724 175.455 304.077 C 175.455 298.202 176.104 292.462 177.314 286.939 L 169.202 281.055 C 167.252 288.401 166.196 296.117 166.196 304.077 C 166.196 333.884 180.816 360.326 203.233 376.669 M 252.064 324.075 L 199.081 285.585 L 227.96 285.585 L 230.965 276.326 L 180.401 276.335 C 190.851 247.953 216.824 227.035 247.976 223.939 L 251.081 214.418 C 213.385 216.467 181.836 241.853 170.609 276.335 L 170.591 276.335 L 244.186 329.787 L 252.064 324.075 Z  M 202.962 204.997 L 203.494 204.997 C 203.116 200.954 201.727 198.562 199.18 197.606 C 190.039 194.158 185.111 186.623 185.111 178.185 C 185.111 168.565 191.257 162.591 198.973 162.591 C 209.929 162.591 213.899 175.351 226.417 175.351 C 230.911 175.351 234.584 172.716 234.584 170.46 L 234.584 169.133 L 232.245 169.133 C 216.534 169.133 214.115 153.331 198.972 153.331 C 186.058 153.331 175.843 163.546 175.843 178.184 C 175.843 192.939 187.24 204.996 202.961 204.996 M 57.992 308.1 L 114.368 308.1 L 114.368 307.604 C 108.7 305.89 104.188 303.119 99.487 298.841 L 57.992 298.841 C 36.884 298.841 30.666 296.874 20.206 285.584 L 163.398 285.584 C 164.019 282.453 164.797 279.348 165.726 276.334 L 0 276.334 L 6.425 283.942 C 23.202 303.832 29.492 308.1 57.991 308.1 M 231.342 163.88 C 239.356 163.88 244.302 157.211 244.302 151.038 C 244.302 144.766 241.423 142.212 238.445 142.212 C 235.819 142.212 233.707 144.361 233.707 146.923 C 233.707 149.721 236.224 151.607 238.12 151.607 C 235.692 155.307 232.019 156.57 227.281 156.218 C 227.813 155.425 228.156 154.568 228.156 153.502 C 228.156 150.822 225.936 148.809 223.464 148.809 C 221.118 148.809 218.78 151.012 218.78 153.809 C 218.78 159.097 223.725 163.88 231.342 163.88 M 185.128 366.38 L 117.219 366.38 C 98.529 366.38 91.508 364.82 82.88 356.625 L 70.093 356.625 C 83.801 372.111 91.381 375.639 117.219 375.639 L 194.495 375.639 C 191.165 372.77 188.033 369.674 185.128 366.38 Z  M 153.876 353.123 L 153.876 352.627 C 148.208 350.913 143.687 348.142 138.995 343.864 L 97.491 343.864 C 78.792 343.864 71.78 342.312 63.144 334.109 L 50.365 334.109 C 64.055 349.595 71.645 353.123 97.491 353.123 L 153.876 353.123 Z  M 134.139 330.607 L 134.139 330.111 C 128.472 328.405 123.951 325.626 119.258 321.357 L 77.755 321.357 C 59.056 321.357 52.035 319.805 43.407 311.602 L 30.629 311.602 C 44.328 327.088 51.908 330.607 77.755 330.607 L 134.139 330.607 Z  M 274.903 177.246 C 270.292 177.246 265.626 182.877 263.893 191.089 C 266.754 191.294 269.597 191.585 272.376 192.018 C 274.218 184.861 277.403 181.558 280.083 181.08 C 279.127 178.906 277.34 177.245 274.903 177.245 M 255.997 214.281 L 227.886 300.79 L 235.755 306.511 L 255.988 244.234 L 264.922 271.695 L 274.65 271.695 L 259.047 223.649 C 290.633 224.83 317.616 244.243 329.718 271.695 L 339.726 271.695 C 326.704 238.142 294.098 214.281 255.997 214.281 Z  M 306.164 218.947 L 306.164 209.453 C 292.429 201.575 274.091 195.763 255.997 195.763 C 237.894 195.763 219.565 201.575 205.821 209.453 L 205.821 218.947 C 220.549 210.256 237.695 205.022 255.997 205.022 C 274.298 205.022 291.436 210.256 306.164 218.947 Z  M 210.351 200.889 C 212.715 199.789 215.125 198.758 217.589 197.821 C 216.389 194.22 214.123 190.159 209.882 190.159 C 207.771 190.159 206.119 191.855 205.406 193.832 C 207.365 194.528 208.988 196.224 210.351 200.889 M 215.414 373.599 L 207.319 379.465 C 221.352 388.562 238.056 393.868 255.997 393.868 C 275.688 393.868 293.909 387.479 308.727 376.695 L 308.778 376.72 L 280.676 290.212 L 270.938 290.212 L 291.18 352.481 L 267.816 335.524 L 259.947 341.236 L 300.8 370.917 C 287.976 379.545 272.581 384.607 256.003 384.607 C 241.203 384.607 227.35 380.583 215.42 373.598 M 239.632 192.007 C 242.43 191.575 245.273 191.294 248.124 191.086 C 246.393 182.874 241.735 177.243 237.124 177.243 C 234.688 177.243 232.891 178.903 231.934 181.078 C 234.615 181.557 237.809 184.859 239.632 192.007 M 222.874 183.425 C 220.763 183.425 218.723 184.906 217.901 187.089 C 219.915 187.385 222.594 189.01 224.571 195.427 C 227.151 194.652 229.778 193.966 232.44 193.378 C 230.544 187.025 227.115 183.424 222.874 183.424 M 441.898 356.622 L 429.101 356.622 C 420.483 364.816 413.462 366.377 394.772 366.377 L 326.872 366.377 C 323.957 369.671 320.835 372.766 317.496 375.636 L 394.772 375.636 C 420.618 375.636 428.199 372.108 441.898 356.622 Z  M 250.444 276.331 L 247.439 285.581 L 312.911 285.581 L 289.556 302.556 L 292.561 311.806 L 333.478 282.089 C 335.463 289.074 336.537 296.447 336.537 304.072 C 336.537 327.924 326.105 349.384 309.572 364.139 L 312.667 373.66 C 332.864 357.181 345.796 332.111 345.796 304.072 C 345.796 294.389 344.243 285.076 341.392 276.331 L 341.401 276.322 L 250.444 276.331 Z  M 491.785 285.581 C 481.326 296.871 475.117 298.838 454.009 298.838 L 412.505 298.838 C 407.812 303.116 403.291 305.886 397.624 307.601 L 397.624 308.097 L 454.009 308.097 C 482.499 308.097 488.789 303.829 505.575 283.939 L 512 276.331 L 346.265 276.331 C 347.194 279.345 347.972 282.45 348.604 285.581 L 491.785 285.581 Z  M 246.861 146.288 L 256.012 139.637 L 265.154 146.297 L 261.67 135.54 L 270.821 128.889 L 259.513 128.889 L 256.012 118.132 L 252.519 128.889 L 241.203 128.889 L 250.363 135.54 L 246.861 146.288 Z  M 461.625 334.106 L 448.847 334.106 C 440.219 342.309 433.198 343.861 414.5 343.861 L 372.996 343.861 C 368.303 348.139 363.791 350.909 358.115 352.624 L 358.115 353.12 L 414.5 353.12 C 440.346 353.12 447.935 349.592 461.625 334.106 M 481.362 311.599 L 468.583 311.599 C 459.947 319.802 452.935 321.354 434.236 321.354 L 392.733 321.354 C 388.04 325.623 383.518 328.402 377.851 330.108 L 377.851 330.604 L 434.236 330.604 C 460.082 330.604 467.663 327.085 481.362 311.599 M 306.612 193.829 C 305.909 191.852 304.248 190.156 302.127 190.156 C 297.894 190.156 295.629 194.226 294.438 197.845 C 296.894 198.774 299.302 199.794 301.667 200.895 C 303.03 196.221 304.663 194.524 306.612 193.829 Z  M 250.191 176.412 C 252.744 179.354 254.252 181.628 255.886 185.283 C 255.937 185.334 255.962 185.411 256.013 185.462 C 256.065 185.411 256.09 185.334 256.141 185.283 C 257.776 181.628 259.282 179.354 261.836 176.412 C 260.869 173.859 257.955 169.22 256.015 167.333 C 254.076 169.219 251.16 173.858 250.194 176.412 M 277.448 169.129 L 277.448 170.457 C 277.448 172.713 281.121 175.348 285.615 175.348 C 298.132 175.348 302.103 162.588 313.059 162.588 C 320.766 162.588 326.929 168.562 326.929 178.182 C 326.929 186.62 321.984 194.155 312.851 197.602 C 310.298 198.559 308.917 200.95 308.529 204.994 L 309.071 204.994 C 324.783 204.994 336.189 192.937 336.189 178.182 C 336.189 163.544 325.974 153.329 313.06 153.329 C 297.917 153.329 295.498 169.13 279.787 169.13 L 277.448 169.129 Z  M 267.72 151.035 C 267.72 157.208 272.674 163.877 280.679 163.877 C 288.305 163.877 293.25 159.094 293.25 153.806 C 293.25 151.008 290.912 148.806 288.566 148.806 C 286.085 148.806 283.874 150.819 283.874 153.499 C 283.874 154.563 284.216 155.42 284.749 156.215 C 280.002 156.568 276.329 155.304 273.91 151.604 C 275.788 151.604 278.323 149.718 278.323 146.92 C 278.323 144.357 276.213 142.209 273.576 142.209 C 270.607 142.209 267.719 144.762 267.719 151.035 M 256.014 147.489 C 251.927 147.489 248.605 150.81 248.605 154.889 C 248.605 158.986 251.927 162.298 256.014 162.298 C 260.112 162.298 263.424 158.986 263.424 154.889 C 263.424 150.81 260.112 147.489 256.014 147.489 Z  M 294.125 187.088 C 293.311 184.903 291.264 183.424 289.162 183.424 C 284.911 183.424 281.491 187.025 279.586 193.387 C 282.249 193.973 284.875 194.658 287.456 195.444 C 289.433 189.009 292.122 187.385 294.125 187.087" fill="rgb(194,8,49)"/></g></svg>