<?xml version="1.0" encoding="UTF-8" standalone="no"?>
<!-- Created with Inkscape (http://www.inkscape.org/) -->

<svg
   xmlns:dc="http://purl.org/dc/elements/1.1/"
   xmlns:cc="http://creativecommons.org/ns#"
   xmlns:rdf="http://www.w3.org/1999/02/22-rdf-syntax-ns#"
   xmlns:svg="http://www.w3.org/2000/svg"
   xmlns="http://www.w3.org/2000/svg"
   xmlns:sodipodi="http://sodipodi.sourceforge.net/DTD/sodipodi-0.dtd"
   xmlns:inkscape="http://www.inkscape.org/namespaces/inkscape"
   width="92.390663"
   height="63.747341"
   viewBox="0 0 24.44503 16.866484"
   version="1.1"
   id="svg13596"
   inkscape:version="0.92.0 r15299"
   sodipodi:docname="royal air maroc.svg">
  <defs
     id="defs13590">
    <clipPath
       id="clipPath11785"
       clipPathUnits="userSpaceOnUse">
      <path
         inkscape:connector-curvature="0"
         id="path11783"
         d="m 606.536,498.176 h 68.542 v 57.07 h -68.542 z" />
    </clipPath>
    <clipPath
       id="clipPath11765"
       clipPathUnits="userSpaceOnUse">
      <path
         inkscape:connector-curvature="0"
         id="path11763"
         d="M 0,0 H 884.409 V 595.276 H 0 Z" />
    </clipPath>
  </defs>
  <sodipodi:namedview
     id="base"
     pagecolor="#ffffff"
     bordercolor="#666666"
     borderopacity="1.0"
     inkscape:pageopacity="0.0"
     inkscape:pageshadow="2"
     inkscape:zoom="8.361133"
     inkscape:cx="46.195332"
     inkscape:cy="31.873671"
     inkscape:document-units="mm"
     inkscape:current-layer="layer1"
     showgrid="false"
     fit-margin-top="0"
     fit-margin-left="0"
     fit-margin-right="0"
     fit-margin-bottom="0"
     units="px"
     inkscape:window-width="1280"
     inkscape:window-height="744"
     inkscape:window-x="-4"
     inkscape:window-y="-4"
     inkscape:window-maximized="1" />
  <metadata
     id="metadata13593">
    <rdf:RDF>
      <cc:Work
         rdf:about="">
        <dc:format>image/svg+xml</dc:format>
        <dc:type
           rdf:resource="http://purl.org/dc/dcmitype/StillImage" />
        <dc:title></dc:title>
      </cc:Work>
    </rdf:RDF>
  </metadata>
  <g
     inkscape:label="Layer 1"
     inkscape:groupmode="layer"
     id="layer1"
     transform="translate(-103.78161,-195.91861)">
    <g
       id="g13926"
       transform="translate(0.13228892,-0.13228838)">
      <path
         d="m 113.80948,206.28986 -7.1e-4,0.002 2.87655,-2.09021 -0.11747,-0.3616 -2.07081,1.5046 0.3489,-1.0735 -0.30797,-0.22367 -0.60996,1.87784 c -0.73236,-0.57714 -1.20438,-1.47073 -1.20438,-2.47332 0,-0.22966 0.0254,-0.45403 0.0727,-0.66993 l -0.31714,-0.23001 c -0.0762,0.28716 -0.11748,0.58879 -0.11748,0.89994 0,1.16522 0.5715,2.19886 1.4478,2.83774 m 1.90888,-2.05599 -2.07116,-1.5046 h 1.12889 l 0.11748,-0.36195 -1.97662,3.6e-4 c 0.40852,-1.10949 1.42381,-1.92723 2.6416,-2.04823 l 0.12136,-0.37218 c -1.47356,0.0801 -2.70687,1.07244 -3.14572,2.42041 h -7.1e-4 l 2.87691,2.0895 z m -1.91946,-4.6549 h 0.0208 c -0.0148,-0.15805 -0.0691,-0.25153 -0.16863,-0.28893 -0.35736,-0.13476 -0.54998,-0.42933 -0.54998,-0.75917 0,-0.37607 0.24024,-0.6096 0.54187,-0.6096 0.42827,0 0.58349,0.49882 1.0728,0.49882 0.17568,0 0.31926,-0.10301 0.31926,-0.1912 v -0.0519 h -0.0914 c -0.61419,0 -0.70873,-0.61771 -1.30069,-0.61771 -0.50483,0 -0.90417,0.39934 -0.90417,0.97155 0,0.57679 0.44556,1.0481 1.0601,1.0481 m -5.66703,4.03048 h 2.20381 v -0.0194 c -0.22155,-0.067 -0.39794,-0.17533 -0.58173,-0.34255 h -1.62208 c -0.82514,0 -1.06821,-0.0769 -1.47708,-0.51823 h 5.59753 c 0.0243,-0.12241 0.0547,-0.24377 0.091,-0.36159 h -6.47842 l 0.25118,0.29739 c 0.65582,0.77752 0.9017,0.94438 2.01577,0.94438 m 6.77651,-5.63774 c 0.31327,0 0.50659,-0.2607 0.50659,-0.502 0,-0.24518 -0.11253,-0.34502 -0.22895,-0.34502 -0.10266,0 -0.18521,0.084 -0.18521,0.18415 0,0.10936 0.0984,0.1831 0.17251,0.1831 -0.0949,0.14463 -0.23848,0.19402 -0.42369,0.18026 0.0208,-0.031 0.0342,-0.0645 0.0342,-0.10618 0,-0.10478 -0.0868,-0.18345 -0.18344,-0.18345 -0.0917,0 -0.18309,0.0861 -0.18309,0.19544 0,0.20673 0.19332,0.3937 0.49106,0.3937 m -1.80657,7.91598 h -2.65465 c -0.73061,0 -1.00507,-0.061 -1.34232,-0.38135 h -0.49989 c 0.53587,0.60537 0.8322,0.7433 1.84221,0.7433 h 3.02083 c -0.13017,-0.11218 -0.25259,-0.23318 -0.36618,-0.36195 m -1.22167,-0.51823 v -0.0194 c -0.22155,-0.067 -0.39829,-0.17533 -0.58173,-0.34255 h -1.62243 c -0.73095,0 -1.00506,-0.0607 -1.34267,-0.38135 h -0.49953 c 0.53516,0.60537 0.83185,0.7433 1.8422,0.7433 z m -0.77153,-0.88018 v -0.0194 c -0.22154,-0.0667 -0.39828,-0.17533 -0.58173,-0.34219 h -1.62242 c -0.73096,0 -1.00542,-0.0607 -1.34267,-0.38136 h -0.49954 c 0.53552,0.60537 0.83185,0.74295 1.84221,0.74295 z m 5.50263,-5.9951 c -0.18027,0 -0.36265,0.22013 -0.43039,0.54116 0.11183,0.008 0.22296,0.0194 0.33161,0.0363 0.072,-0.27975 0.1965,-0.40887 0.30128,-0.42756 -0.0374,-0.085 -0.10725,-0.14993 -0.2025,-0.14993 m -0.73907,1.4478 -1.0989,3.38172 0.30762,0.22367 0.79093,-2.43452 0.34925,1.0735 h 0.38029 l -0.60995,-1.87819 c 1.23472,0.0462 2.28953,0.80504 2.7626,1.87819 h 0.39123 c -0.50905,-1.31163 -1.78364,-2.24437 -3.27307,-2.24437 m 1.96109,0.18238 v -0.37112 c -0.53692,-0.30797 -1.25377,-0.53516 -1.96109,-0.53516 -0.70767,0 -1.42416,0.22719 -1.96144,0.53516 v 0.37112 c 0.57573,-0.33972 1.24601,-0.54433 1.96144,-0.54433 0.71543,0 1.38536,0.20461 1.96109,0.54433 m -3.74544,-0.70591 c 0.0924,-0.043 0.18662,-0.0833 0.28293,-0.11994 -0.0469,-0.14076 -0.13547,-0.29951 -0.30127,-0.29951 -0.0825,0 -0.14711,0.0663 -0.17498,0.14358 0.0766,0.0272 0.14005,0.0935 0.19332,0.27587 m 0.19791,6.75147 -0.31644,0.2293 c 0.54857,0.3556 1.20156,0.56303 1.90288,0.56303 0.76976,0 1.48202,-0.24976 2.06128,-0.67133 l 0.002,0.001 -1.09855,-3.38173 h -0.38065 l 0.79128,2.43417 -0.91334,-0.66287 -0.30762,0.2233 1.59702,1.16029 c -0.5013,0.33726 -1.10314,0.53516 -1.75119,0.53516 -0.57855,0 -1.12007,-0.15733 -1.58644,-0.43038 m 0.9465,-7.0986 c 0.10936,-0.0169 0.22049,-0.0279 0.33197,-0.036 -0.0677,-0.32103 -0.24977,-0.54116 -0.43004,-0.54116 -0.0952,0 -0.16545,0.0649 -0.20285,0.14993 0.10478,0.0187 0.22966,0.14781 0.30092,0.42721 m -0.65511,-0.33549 c -0.0825,0 -0.16227,0.0579 -0.19438,0.14323 0.0787,0.0116 0.18345,0.0751 0.26071,0.32596 0.10089,-0.0303 0.20355,-0.0571 0.30762,-0.0801 -0.0741,-0.24835 -0.20814,-0.38911 -0.37395,-0.38911 m 8.56192,6.77051 h -0.50024 c -0.3369,0.32032 -0.61136,0.38135 -1.34196,0.38135 h -2.6543 c -0.11395,0.12877 -0.23601,0.24977 -0.36654,0.36195 h 3.02084 c 1.01035,0 1.30668,-0.13793 1.8422,-0.7433 m -7.48418,-3.13866 -0.11747,0.36159 h 2.5594 l -0.91299,0.66358 0.11747,0.3616 1.5995,-1.1617 c 0.0776,0.27305 0.11959,0.56127 0.11959,0.85937 0,0.93239 -0.40781,1.77129 -1.0541,2.34808 l 0.121,0.37219 c 0.78952,-0.64418 1.29505,-1.62419 1.29505,-2.72027 0,-0.37853 -0.0607,-0.7426 -0.17216,-1.08444 l 3.6e-4,-3.6e-4 z m 9.43434,0.36159 c -0.40887,0.44133 -0.65158,0.51823 -1.47673,0.51823 h -1.62243 c -0.18344,0.16722 -0.36018,0.27552 -0.58173,0.34255 v 0.0194 h 2.20416 c 1.11372,0 1.3596,-0.16686 2.01577,-0.94438 l 0.25118,-0.29739 h -6.47877 c 0.0363,0.11782 0.0667,0.23918 0.0914,0.36159 z m -9.57439,-5.44512 0.35771,-0.26 0.35737,0.26035 -0.13617,-0.42051 0.35771,-0.26 h -0.44203 l -0.13688,-0.42051 -0.13652,0.42051 h -0.44238 l 0.35807,0.26 z m 8.3954,7.34201 h -0.49953 c -0.33726,0.32068 -0.61172,0.38135 -1.34267,0.38135 h -1.62243 c -0.18344,0.16722 -0.35983,0.27552 -0.58173,0.34255 v 0.0194 h 2.20416 c 1.01035,0 1.30704,-0.13793 1.8422,-0.7433 m 0.77153,-0.87983 h -0.49954 c -0.3376,0.32068 -0.61171,0.38136 -1.34267,0.38136 h -1.62242 c -0.18345,0.16686 -0.36019,0.27551 -0.58173,0.34219 v 0.0194 h 2.20415 c 1.01036,0 1.30669,-0.13758 1.84221,-0.74295 m -6.83119,-4.60375 c -0.0275,-0.0773 -0.0924,-0.14358 -0.17533,-0.14358 -0.16545,0 -0.254,0.1591 -0.30057,0.30057 0.096,0.0363 0.19015,0.0762 0.28258,0.11924 0.0533,-0.18274 0.11712,-0.24906 0.19332,-0.27623 m -2.20557,-0.68086 c 0.0998,0.11501 0.15875,0.20391 0.22261,0.34678 0.002,0.002 0.003,0.005 0.005,0.007 0.002,-0.002 0.003,-0.005 0.005,-0.007 0.0639,-0.14287 0.12277,-0.23177 0.22261,-0.34678 -0.0378,-0.0998 -0.1517,-0.28116 -0.22755,-0.35489 -0.0758,0.0737 -0.18979,0.25506 -0.22754,0.35489 m 1.06539,-0.28469 v 0.0519 c 0,0.0882 0.14358,0.1912 0.31927,0.1912 0.4893,0 0.64452,-0.49882 1.07279,-0.49882 0.30127,0 0.54222,0.23353 0.54222,0.6096 0,0.32984 -0.19332,0.62441 -0.55033,0.75917 -0.0998,0.0374 -0.15381,0.13088 -0.16898,0.28893 h 0.0212 c 0.61419,0 1.0601,-0.47131 1.0601,-1.0481 0,-0.57221 -0.39934,-0.97155 -0.90417,-0.97155 -0.59196,0 -0.6865,0.61771 -1.30069,0.61771 z m -0.38029,-0.70732 c 0,0.2413 0.19367,0.502 0.50659,0.502 0.29809,0 0.49142,-0.18697 0.49142,-0.3937 0,-0.10936 -0.0914,-0.19544 -0.1831,-0.19544 -0.097,0 -0.18344,0.0787 -0.18344,0.18345 0,0.0416 0.0134,0.0751 0.0342,0.10618 -0.18556,0.0138 -0.32914,-0.0356 -0.42369,-0.18026 0.0734,0 0.17251,-0.0737 0.17251,-0.1831 0,-0.10019 -0.0825,-0.18415 -0.18556,-0.18415 -0.11606,0 -0.22895,0.0998 -0.22895,0.34502 m -0.45756,-0.13864 c -0.1598,0 -0.28963,0.12982 -0.28963,0.28928 0,0.16016 0.12983,0.28963 0.28963,0.28963 0.16017,0 0.28963,-0.12947 0.28963,-0.28963 0,-0.15946 -0.12946,-0.28928 -0.28963,-0.28928 m 1.48978,1.54799 c -0.0318,-0.0854 -0.11183,-0.14323 -0.19402,-0.14323 -0.16616,0 -0.29986,0.14076 -0.3743,0.38947 0.10407,0.0229 0.20673,0.0497 0.30762,0.0804 0.0773,-0.25153 0.18239,-0.31503 0.2607,-0.32667"
         style="fill:#c20831;fill-opacity:1;fill-rule:nonzero;stroke:none;stroke-width:0.35277778"
         id="path11789"
         inkscape:connector-curvature="0" />
      <path
         d="m 106.33546,212.61876 -0.46955,7.1e-4 v -1.0728 h 0.48613 v 0.23142 c 0,0 0.0653,-0.23177 0.40358,-0.20673 v 0.51541 c 0,0 -0.3623,-0.0519 -0.42016,0.11995 z"
         style="fill:#c20831;fill-opacity:1;fill-rule:nonzero;stroke:none;stroke-width:0.35277778"
         id="path11793"
         inkscape:connector-curvature="0" />
      <path
         d="m 116.38857,212.61876 -0.46955,7.1e-4 v -1.0728 h 0.48613 v 0.23142 c 0,0 0.0653,-0.23177 0.40358,-0.20673 v 0.51541 c 0,0 -0.36266,-0.0519 -0.42016,0.11995 z"
         style="fill:#c20831;fill-opacity:1;fill-rule:nonzero;stroke:none;stroke-width:0.35277778"
         id="path11797"
         inkscape:connector-curvature="0" />
      <path
         d="m 107.66977,211.82046 c 0,0 -0.18944,-0.0169 -0.21414,0.24906 0,0 0.008,0.21449 0.19756,0.22331 0,0 0.18133,0.0169 0.19791,-0.21484 0,0 0.008,-0.24871 -0.18133,-0.25753 m 0.63394,0.26635 c -0.0247,0.60924 -0.63394,0.55739 -0.63394,0.55739 -0.69991,0.0342 -0.69215,-0.5835 -0.69215,-0.5835 0.0416,-0.54927 0.68404,-0.53199 0.68404,-0.53199 0.66675,0 0.64205,0.5581 0.64205,0.5581"
         style="fill:#c20831;fill-opacity:1;fill-rule:nonzero;stroke:none;stroke-width:0.35277778"
         id="path11801"
         inkscape:connector-curvature="0" />
      <path
         d="m 123.86968,211.82046 c 0,0 -0.18909,-0.0169 -0.21414,0.24906 0,0 0.008,0.21449 0.19791,0.22331 0,0 0.18062,0.0169 0.19756,-0.21484 0,0 0.008,-0.24871 -0.18133,-0.25753 m 0.63429,0.26635 c -0.025,0.60924 -0.63429,0.55739 -0.63429,0.55739 -0.69991,0.0342 -0.69144,-0.5835 -0.69144,-0.5835 0.0409,-0.54927 0.68333,-0.53199 0.68333,-0.53199 0.6671,0 0.6424,0.5581 0.6424,0.5581"
         style="fill:#c20831;fill-opacity:1;fill-rule:nonzero;stroke:none;stroke-width:0.35277778"
         id="path11805"
         inkscape:connector-curvature="0" />
      <path
         d="m 108.40228,211.54621 h 0.57644 l 0.18168,0.53199 0.16439,-0.53199 h 0.52705 l -0.38664,0.86642 c 0,0 -0.15663,0.41205 -0.41169,0.36936 h -0.5521 v -0.30903 h 0.34608 z"
         style="fill:#c20831;fill-opacity:1;fill-rule:nonzero;stroke:none;stroke-width:0.35277778"
         id="path11809"
         inkscape:connector-curvature="0" />
      <path
         d="m 110.70881,211.82925 c 0,0 -0.2226,-0.0346 -0.23072,0.24906 0,0 0,0.23142 0.20603,0.23142 0,0 0.18908,0.008 0.20602,-0.22295 0,0 0.0247,-0.25753 -0.18133,-0.25753 m 0.16404,-0.28293 h 0.47802 v 1.07245 h -0.47767 v -0.19756 c -0.1397,0.22296 -0.42827,0.19756 -0.42827,0.19756 -0.502,-0.0515 -0.44414,-0.56656 -0.44414,-0.56656 0.0162,-0.56657 0.48542,-0.54081 0.48542,-0.54081 0.20602,-0.008 0.38699,0.1718 0.38699,0.1718 z"
         style="fill:#c20831;fill-opacity:1;fill-rule:nonzero;stroke:none;stroke-width:0.35277778"
         id="path11813"
         inkscape:connector-curvature="0" />
      <path
         d="m 114.13478,211.82925 c 0,0 -0.22225,-0.0346 -0.23036,0.24906 0,0 0,0.23142 0.20567,0.23142 0,0 0.18944,0.008 0.20566,-0.22295 0,0 0.0251,-0.25753 -0.18097,-0.25753 m 0.16439,-0.28293 h 0.47767 v 1.07245 h -0.47731 v -0.19756 c -0.14006,0.22296 -0.42863,0.19756 -0.42863,0.19756 -0.50165,-0.0515 -0.44414,-0.56656 -0.44414,-0.56656 0.0162,-0.56657 0.48577,-0.54081 0.48577,-0.54081 0.20602,-0.008 0.387,0.1718 0.387,0.1718 z"
         style="fill:#c20831;fill-opacity:1;fill-rule:nonzero;stroke:none;stroke-width:0.35277778"
         id="path11817"
         inkscape:connector-curvature="0" />
      <path
         d="m 122.52747,212.61876 -0.46955,7.1e-4 v -1.0728 h 0.48613 v 0.23142 c 0,0 0.0653,-0.23177 0.40323,-0.20673 v 0.51541 c 0,0 -0.36266,-0.0519 -0.41981,0.11995 z"
         style="fill:#c20831;fill-opacity:1;fill-rule:nonzero;stroke:none;stroke-width:0.35277778"
         id="path11821"
         inkscape:connector-curvature="0" />
      <path
         d="m 121.0942,211.82925 c 0,0 -0.22225,-0.0346 -0.23036,0.24906 0,0 0,0.23142 0.20567,0.23142 0,0 0.18944,0.008 0.20602,-0.22295 0,0 0.0247,-0.25753 -0.18133,-0.25753 m 0.16439,-0.28293 h 0.47767 v 1.07245 h -0.47731 v -0.19756 c -0.14006,0.22296 -0.42863,0.19756 -0.42863,0.19756 -0.50235,-0.0515 -0.44414,-0.56656 -0.44414,-0.56656 0.0162,-0.56657 0.48577,-0.54081 0.48577,-0.54081 0.20602,-0.008 0.387,0.1718 0.387,0.1718 z"
         style="fill:#c20831;fill-opacity:1;fill-rule:nonzero;stroke:none;stroke-width:0.35277778"
         id="path11825"
         inkscape:connector-curvature="0" />
      <path
         inkscape:connector-curvature="0"
         id="path11827"
         style="fill:#c20831;fill-opacity:1;fill-rule:nonzero;stroke:none;stroke-width:0.35277778"
         d="m 111.65563,211.3573 h 0.49389 v 1.26154 h -0.49389 z" />
      <path
         inkscape:connector-curvature="0"
         id="path11829"
         style="fill:#c20831;fill-opacity:1;fill-rule:nonzero;stroke:none;stroke-width:0.35277778"
         d="m 115.09063,211.54639 h 0.49354 v 1.07209 h -0.49354 z" />
      <path
         inkscape:connector-curvature="0"
         id="path11831"
         style="fill:#c20831;fill-opacity:1;fill-rule:nonzero;stroke:none;stroke-width:0.35277778"
         d="m 115.09063,211.3312 h 0.49354 v 0.14146 h -0.49354 z" />
      <path
         d="m 118.07125,212.61876 v -1.07244 h 0.47731 v 0.24024 c 0,0 0.10795,-0.25788 0.42086,-0.25788 0,0 0.23883,-0.0258 0.3623,0.21449 0,0 0.19791,-0.266 0.42016,-0.21449 0,0 0.27976,-0.0169 0.34608,0.29174 l -7.1e-4,0.79023 h -0.51047 v -0.55845 c 0,0 -0.0243,-0.16298 -0.14005,-0.1457 0,0 -0.12312,0 -0.1397,0.12841 v 0.58385 h -0.50271 v -0.54081 c 0,0 0.025,-0.18873 -0.115,-0.16298 0,0 -0.12348,-0.0173 -0.14782,0.13723 v 0.56656 z"
         style="fill:#c20831;fill-opacity:1;fill-rule:nonzero;stroke:none;stroke-width:0.35277778"
         id="path11835"
         inkscape:connector-curvature="0" />
      <path
         d="m 125.87921,211.5805 c 0,0 -0.18097,-0.0776 -0.56797,-0.0861 0,0 -0.54363,-0.008 -0.56021,0.59232 0,0 0,0.50623 0.60924,0.53198 0,0 0.39547,0 0.51894,-0.18026 v -0.24907 c 0,0 -0.12347,0.0773 -0.36195,0.0773 0,0 -0.28011,0.0173 -0.28011,-0.22331 0,0 0.0162,-0.20602 0.21379,-0.19685 0,0 0.20602,-0.043 0.42827,0.06 z"
         style="fill:#c20831;fill-opacity:1;fill-rule:nonzero;stroke:none;stroke-width:0.35277778"
         id="path11839"
         inkscape:connector-curvature="0" />
      <path
         d="m 107.88659,209.36735 c 0,0 -0.13123,0.22613 -0.13123,0.27376 0,0.0473 0.0342,0.11324 -0.006,0.13052 -0.0402,0.0184 -0.35419,0.1016 -0.32596,-0.19614 -0.31433,0.12523 -1.13101,0.48824 -1.86197,0.48824 -0.43709,0 -0.65722,0.0533 -0.83749,-0.13864 -0.0861,-0.12065 -0.3108,-0.29563 -0.45932,0.025 -0.15416,0.21907 -0.1598,0.42333 -0.25717,0.40499 -0.10266,-0.0187 -0.14852,-0.23178 -0.1771,-0.48789 -0.10865,0.363 -0.0194,0.83326 0.10866,0.82726 0.12418,0 0.20144,-0.22754 0.26635,-0.36724 0.0646,-0.13864 0.0907,-0.19967 0.18485,-0.20391 0.35419,0.0176 -0.0173,0.38665 1.12536,0.33302 0.53129,-0.0536 1.21673,-0.16051 1.67993,-0.48789 0.0854,-0.0713 0.10795,-0.0892 0.13088,0.0476 0.0286,0.14887 0.0914,0.20849 0.25118,0.19614 0.16016,-0.0116 0.45155,-0.29174 0.30868,-0.8449"
         style="fill:#c20831;fill-opacity:1;fill-rule:nonzero;stroke:none;stroke-width:0.35277778"
         id="path11843"
         inkscape:connector-curvature="0" />
      <path
         d="m 127.94885,208.94448 c -0.0568,0.10125 -0.18274,0.33373 -0.24518,0.36936 0,0.17251 0.0282,1.27353 -0.0116,1.35078 0.097,-0.1785 0.27975,-0.39863 0.26811,-0.5655 -0.0113,-0.16616 0.0173,-1.07703 -0.0113,-1.15464"
         style="fill:#c20831;fill-opacity:1;fill-rule:nonzero;stroke:none;stroke-width:0.35277778"
         id="path11847"
         inkscape:connector-curvature="0" />
      <path
         d="m 126.43522,209.18253 -0.28575,0.20249 0.16581,0.15487 0.25682,-0.23212 z"
         style="fill:#c20831;fill-opacity:1;fill-rule:nonzero;stroke:none;stroke-width:0.35277778"
         id="path11851"
         inkscape:connector-curvature="0" />
      <path
         d="m 123.1563,209.95028 c 0.0169,-0.10089 -0.10866,-0.24377 -0.25188,-0.20814 0,0.11324 0.0349,0.21449 0.0917,0.22648 0.0572,0.0117 0.14287,0.018 0.16016,-0.0183 m 2.03341,0.11324 c -0.19967,-0.11324 -0.81139,0.11324 -0.99342,0.21449 0.26247,0.0296 0.98813,0 0.99342,-0.21449 m 2.09691,-0.85125 c 0,0 -0.10901,0.13723 -0.14323,0.19085 -0.0339,0.0536 -0.0113,0.0713 -0.0169,0.16616 -0.006,0.096 0.006,0.24448 -0.1143,0.40499 0.0459,0.0476 0.58843,0.15452 0.58843,0.15452 l -0.27975,0.33372 c -0.0402,-0.024 -0.32561,0.0116 -0.45155,0.0233 -0.12559,0.0123 -0.75989,0.1016 -1.034,0.13723 -0.2741,0.0356 -0.91404,0.0596 -1.42204,0.0416 -0.50871,-0.0176 -0.70309,-0.11888 -0.99413,-0.20214 0,0 -0.1718,0.23813 -0.28011,0.26776 -0.1083,0.03 -0.47977,0.0596 -0.95955,-0.0416 0.14817,-0.0116 0.96555,-0.21449 1.10807,-0.375 -0.3369,0.012 -0.59972,-0.11889 -0.6223,-0.1905 -0.0233,-0.0713 0.0854,-0.22613 0.14253,-0.33302 0.0571,-0.1076 0.20567,-0.381 0.29703,-0.37536 0.16581,0.012 0.32527,0.30974 0.4057,0.52988 0.0741,0.10724 0.31397,0.26775 0.50271,0.22048 0.0339,-0.024 0.20567,-0.11924 0.28504,-0.16686 l -0.0113,-0.44062 c -0.005,-0.0833 -0.0624,-0.11289 -0.0741,-0.19015 -0.0113,-0.0776 0.0804,-0.25612 0.20038,-0.46461 -0.0286,0.0893 0.0797,0.19685 0.1023,0.31574 0.0233,0.11924 -0.0744,0.16051 -0.0854,0.1905 -0.0116,0.0296 -0.0169,0.2794 -0.006,0.52952 0.71966,-0.34537 0.86254,-0.29739 1.0167,-0.1905 0.15417,0.10724 0.097,0.32138 -0.1658,0.52987 0.17145,0.0236 0.74259,-0.03 1.03963,-0.10125 -0.0226,-0.018 -0.51964,-0.11324 -0.51964,-0.11324 0.0346,-0.0116 0.1711,-0.2734 0.1711,-0.2734 l 0.87983,-0.012 c 0.1143,0 0.1143,-0.0832 0.1143,-0.0832 l 0.006,-0.22648 c 0,-0.0593 -0.0226,-0.0713 -0.0399,-0.2085 -0.0173,-0.13687 0.2286,-0.33302 0.2286,-0.33302 -0.0571,0.2025 0,0.21414 0.13158,0.2854"
         style="fill:#c20831;fill-opacity:1;fill-rule:nonzero;stroke:none;stroke-width:0.35277778"
         id="path11855"
         inkscape:connector-curvature="0" />
      <path
         d="m 122.03104,210.22019 c -0.005,-0.0759 -0.0642,-0.17921 -0.26635,-0.17004 -0.20073,0.009 -0.42368,0.22331 -0.50906,0.33902 0.0811,0.005 0.59549,-0.0222 0.77541,-0.16898 m -0.68545,-0.96908 c 0.0385,0.009 0.0942,0.0557 0.11113,0.067 0.0169,0 -0.0127,0.0981 -0.11571,0.15628 0.0258,0.40605 -0.0212,0.66075 -0.0212,0.66075 0.7112,-0.5267 1.06221,-0.48225 1.1049,-0.2413 0.043,0.2413 -0.44521,0.73237 -0.8569,0.768 -0.41063,0.036 -0.6163,-0.0628 -1.02799,-0.25012 0.0773,0.0183 0.28293,-0.009 0.51435,0.0268 0.0169,-0.0533 0.11148,-0.1517 0.18838,-0.21378 l -0.0515,-0.60749 c -0.008,-0.0713 -0.0688,-0.0804 -0.0515,-0.23212 0.0176,-0.1517 0.0903,-0.34361 0.21872,-0.36619 -0.0173,0.0356 -0.03,0.18768 -0.0127,0.23213"
         style="fill:#c20831;fill-opacity:1;fill-rule:nonzero;stroke:none;stroke-width:0.35277778"
         id="path11859"
         inkscape:connector-curvature="0" />
      <path
         d="m 120.03425,208.98342 c -0.0212,0.0445 -0.21414,0.38417 -0.21414,0.38417 0.0173,0.28964 0.0557,1.09362 -0.0258,1.28094 0.17992,-0.24095 0.26564,-0.44203 0.26564,-0.53128 0,0 -0.005,-1.08479 -0.0258,-1.13383"
         style="fill:#c20831;fill-opacity:1;fill-rule:nonzero;stroke:none;stroke-width:0.35277778"
         id="path11863"
         inkscape:connector-curvature="0" />
      <path
         d="m 119.21379,210.14632 c -0.0127,0.0762 -0.0279,0.26987 0.1905,0.22578 0.0646,-0.0448 -0.0194,-0.25259 -0.1905,-0.22578 m -0.0148,-1.00683 c 0,0.0268 0.11959,0.0536 0.12841,0.12524 0.008,0.0713 -0.0212,0.12453 -0.0945,0.21378 l -0.0127,0.21943 c 0,0 -0.004,0.10231 0.0258,0.13335 0.0684,0.036 0.133,-0.0624 0.24412,-0.0219 0.18169,0.0653 0.073,0.36159 0.0346,0.5087 -0.0392,0.14746 -0.17604,0.39264 -0.266,0.38876 -0.14111,-0.007 -0.19261,-0.11641 -0.23107,-0.32632 -0.10301,0.0893 -0.65122,0.29493 -0.91263,0.29034 -0.26141,-0.005 -0.34255,-0.24095 -0.40287,-0.45085 -0.0296,0.0935 -0.26988,0.46849 -0.70662,0.4639 -0.43709,-0.004 -0.7373,-0.27199 -0.92992,-0.43744 l -0.0473,0.0138 c -0.0342,0.25894 -0.23531,0.32138 -0.3683,0.33443 -0.13265,0.0138 -0.27446,-0.18697 -0.3429,-0.38382 -0.06,0.0402 -0.80539,0.35913 -1.39206,0.36653 -1.0668,0.0131 -0.86995,-0.42474 -1.09714,-0.42015 -0.0945,0.004 -0.11959,0.0314 -0.1838,0.17003 -0.0653,0.1397 -0.16298,0.36125 -0.28751,0.36125 -0.30833,0 -0.25259,-0.57573 -0.0854,-0.85266 0.0512,-0.0938 0.0727,-0.0402 0.0469,0.0134 -0.0258,0.0536 -0.0857,0.41557 0.0173,0.43321 0.072,0.0127 0.1838,-0.0716 0.33831,-0.29033 0.13688,-0.22331 0.40288,-0.18768 0.4886,-0.067 0.16263,0.2413 0.41099,0.25012 0.84843,0.25894 0.43674,0.009 0.71508,-0.0713 1.40511,-0.36583 -0.0173,0.0579 -0.009,0.20955 0.0984,0.28998 0.10689,0.0804 0.28716,0.12065 0.35137,-0.0579 l -0.28716,-0.25893 c -0.0984,-0.085 -0.16264,-0.085 -0.14112,-0.33973 0,-0.47731 1.39207,-0.40605 1.39207,-0.40605 0.15028,0 0.29703,-0.0219 0.30903,0.10725 0.025,0.29457 -0.26176,0.49106 -0.53164,0.57185 0.0811,-0.0452 0.28681,-0.19685 0.30445,-0.26811 0.0187,-0.0797 -0.009,-0.11183 -0.0861,-0.10724 -0.0769,0.004 -1.0922,0.0981 -1.0922,0.0981 -0.0557,0.009 -0.0215,0.0582 -0.0215,0.0582 l 0.91229,0.63852 c 0.41169,0.21414 0.73695,0.0713 0.92145,0 0.18415,-0.0713 0.17992,-0.18732 0.18415,-0.27234 l 0.0173,-0.59373 c 0.0469,-0.0268 0.16263,-0.2413 0.16263,-0.2413 l -0.0173,0.95533 c 0.005,0.11183 0.0173,0.29915 0.14993,0.31714 0.29563,0.049 0.87842,-0.2413 1.01988,-0.34854 0.009,-0.0579 -0.008,-0.40181 -0.008,-0.40181 0,-0.0621 -0.0988,-0.0847 -0.0988,-0.16052 0,-0.0759 0.19297,-0.39723 0.23565,-0.44626 -0.0212,0.049 0.009,0.16051 0.009,0.18732"
         style="fill:#c20831;fill-opacity:1;fill-rule:nonzero;stroke:none;stroke-width:0.35277778"
         id="path11867"
         inkscape:connector-curvature="0" />
      <path
         d="m 112.62221,209.26893 -0.28257,0.22331 0.18873,0.0981 c 0,0 0.17992,-0.15169 0.25682,-0.14252 0.0769,0.009 0.18874,0.10689 0.18874,0.10689 0,0 0.248,-0.21414 0.28222,-0.22331 -0.0596,-0.0801 -0.16263,-0.12488 -0.16263,-0.12488 0,0 -0.21414,0.15169 -0.26564,0.15169 -0.0515,0 -0.20567,-0.0892 -0.20567,-0.0892"
         style="fill:#c20831;fill-opacity:1;fill-rule:nonzero;stroke:none;stroke-width:0.35277778"
         id="path11871"
         inkscape:connector-curvature="0" />
      <path
         d="m 114.82185,210.46255 c -0.0402,0.0356 -0.25717,0.16051 -0.30268,0.17286 l 0.18238,0.11254 c 0,0 0.21132,-0.12489 0.25718,-0.10689 0.0455,0.0176 0.15981,0.0952 0.15981,0.0952 l 0.29139,-0.15487 -0.13723,-0.12524 c 0,0 -0.22225,0.11924 -0.27411,0.11324 -0.0511,-0.006 -0.17674,-0.10689 -0.17674,-0.10689"
         style="fill:#c20831;fill-opacity:1;fill-rule:nonzero;stroke:none;stroke-width:0.35277778"
         id="path11875"
         inkscape:connector-curvature="0" />
      <path
         d="m 111.56853,209.0368 c -0.0219,0.0445 -0.21449,0.38417 -0.21449,0.38417 0.06,0.35702 0.1584,1.12466 0.0769,1.31234 0.18027,-0.24095 0.2487,-0.49107 0.2487,-0.58032 0,0 -0.09,-1.0668 -0.11112,-1.11619"
         style="fill:#c20831;fill-opacity:1;fill-rule:nonzero;stroke:none;stroke-width:0.35277778"
         id="path11879"
         inkscape:connector-curvature="0" />
      <path
         d="m 109.39475,209.89723 0.29704,-0.13123 c -0.0455,-0.0296 -0.37148,-0.0356 -0.42863,-0.0296 z m 1.4224,0.26635 c -0.0127,0.0755 -0.0286,0.27481 0.15981,0.23918 0.0688,-0.0656 0.0113,-0.26599 -0.15981,-0.23918 m -2.43346,0.19755 c -0.2914,0.024 -0.77117,0.50589 -1.0227,0.39899 -0.14676,-0.0621 -0.0117,-0.381 0.0914,-0.46425 -0.0857,0.30938 -0.0857,0.27375 -0.0226,0.32702 0.0624,0.054 0.46249,-0.29139 0.65687,-0.41627 0.19403,-0.12489 0.65123,-0.23813 0.9652,-0.24413 -0.0173,-0.036 -0.0741,-0.0952 -0.11959,-0.11324 -0.0459,-0.018 -0.19438,-0.0356 -0.19438,-0.0356 l 0.15416,-0.31538 c 0.3429,-0.0713 1.06857,0.0476 1.25695,0.0949 l -0.0748,0.36935 c -0.0512,0.006 -0.21696,0.0653 -0.31397,0.15452 0.19438,0.22013 0.72707,0 0.86854,-0.10689 0.008,-0.0582 0,-0.38065 0,-0.38065 0,-0.0632 -0.10936,-0.0628 -0.10936,-0.13829 0,-0.0762 0.19296,-0.39758 0.236,-0.44626 -0.0215,0.0487 0.008,0.16051 0.008,0.18732 0,0.0265 0.10195,0.0459 0.11042,0.11713 0.008,0.0713 -0.004,0.13264 -0.0762,0.22189 l -0.007,0.17357 c 0,0 -0.004,0.10301 0.0258,0.13441 0.0684,0.0353 0.13264,-0.0624 0.24447,-0.0226 0.18098,0.0653 0.0395,0.38982 10e-4,0.53728 -0.0388,0.14711 -0.0857,0.33055 -0.20531,0.31256 -0.18204,-0.0272 -0.16158,-0.16545 -0.20038,-0.375 -0.10231,-0.0448 -0.375,0.28293 -0.8883,0.18768 -0.20849,-0.0392 -0.35983,-0.12524 -0.57396,-0.32138 -0.0515,0.0624 -0.54258,0.0504 -0.81104,0.16333"
         style="fill:#c20831;fill-opacity:1;fill-rule:nonzero;stroke:none;stroke-width:0.35277778"
         id="path11883"
         inkscape:connector-curvature="0" />
      <path
         d="m 109.64618,209.08143 -0.30868,0.17286 0.17145,0.11289 0.25118,-0.17251 z"
         style="fill:#c20831;fill-opacity:1;fill-rule:nonzero;stroke:none;stroke-width:0.35277778"
         id="path11887"
         inkscape:connector-curvature="0" />
      <path
         d="m 104.68778,209.20063 c 0.0169,0.006 0.19403,0.0776 0.19403,0.0776 0,0 -0.23989,0.19615 -0.25718,0.20214 -0.0169,0.006 -0.17674,-0.0832 -0.23424,-0.0656 -0.0568,0.0183 -0.19403,0.16686 -0.19403,0.16686 0,0 -0.18274,-0.0653 -0.22295,-0.0776 0.097,-0.0536 0.24024,-0.21414 0.26881,-0.24412 0.11395,0.048 0.22825,0.11359 0.26247,0.10124 0.0342,-0.0116 0.1143,-0.16051 0.18309,-0.16051"
         style="fill:#c20831;fill-opacity:1;fill-rule:nonzero;stroke:none;stroke-width:0.35277778"
         id="path11891"
         inkscape:connector-curvature="0" />
      <path
         d="m 106.78413,210.48598 c 0.0342,0 0.21731,-0.15452 0.26282,-0.14887 0.0459,0.006 0.19438,0.12559 0.19438,0.12559 0,0 -0.26882,0.20814 -0.29739,0.20179 -0.0286,-0.006 -0.15981,-0.11254 -0.18874,-0.1069 -0.0279,0.006 -0.25118,0.16052 -0.25118,0.16052 l -0.23988,-0.10654 c 0,0 0.25717,-0.22049 0.29739,-0.22648 0.0395,-0.006 0.18238,0.0893 0.2226,0.10089"
         style="fill:#c20831;fill-opacity:1;fill-rule:nonzero;stroke:none;stroke-width:0.35277778"
         id="path11895"
         inkscape:connector-curvature="0" />
      <path
         d="m 108.29211,210.49236 -0.2286,0.11889 0.1143,0.14287 0.24024,-0.15487 z"
         style="fill:#c20831;fill-opacity:1;fill-rule:nonzero;stroke:none;stroke-width:0.35277778"
         id="path11899"
         inkscape:connector-curvature="0" />
    </g>
  </g>
</svg>
