<?xml version="1.0" encoding="UTF-8" standalone="no"?><!-- Generator: Gravit.io --><svg xmlns="http://www.w3.org/2000/svg" xmlns:xlink="http://www.w3.org/1999/xlink" style="isolation:isolate" viewBox="0 0 512 512" width="512pt" height="512pt"><defs><clipPath id="_clipPath_iworI58IHJLsjn3zQ7WtuihHl0te11Fx"><rect width="512" height="512"/></clipPath></defs><g clip-path="url(#_clipPath_iworI58IHJLsjn3zQ7WtuihHl0te11Fx)"><path d=" M 429.648 303.791 C 429.648 303.791 438.907 313.543 442.266 327.029 C 442.266 327.029 422.192 325.44 414.165 331.658 C 414.165 331.658 414.781 337.293 424.105 347.277 C 424.105 347.277 425.817 350.208 421.719 352.834 C 417.887 355.285 398.423 356.556 397.716 336.08 C 397.716 336.08 385.216 351.317 368.092 349.034 C 368.092 349.034 354.574 347.388 353.698 334.667 C 353.698 334.667 366.685 337.234 377.014 332.384 C 377.014 332.384 376.644 323.994 364.799 315.708 C 364.799 315.708 374.044 303.707 395.084 298.034 C 395.084 298.034 390.98 279.821 396.958 261.401 C 403.137 242.909 406.152 238.52 407.727 234.487 C 409.445 230.649 411.345 221.001 408.233 210.718 C 408.233 210.718 457.1 209.719 457.288 262.023 C 457.295 262.03 457.768 291.142 429.648 303.791 Z  M 374.641 393.603 L 345.976 380.493 L 374.167 371.267 L 401.185 383.612 L 374.641 393.603 Z  M 326.48 346.188 C 310.044 345.229 304.092 328.864 304.092 328.864 C 295.851 339.672 278.896 337.973 278.896 337.973 C 265.248 334.874 264.282 323.022 264.282 323.022 C 279.318 320.007 283.182 314.528 283.182 314.528 C 279.733 304.945 263.491 299.635 263.491 299.635 C 273.255 284.165 294.262 276.326 294.262 276.326 C 286.08 267.8 283.713 259.339 281.606 245.406 C 279.467 231.077 283.182 209 283.182 209 C 287.442 189.237 294.891 179.655 301.31 171.297 C 308.261 163.063 315.14 164.048 315.14 164.048 C 324.263 165.066 332.529 169.955 332.529 169.955 C 343.467 176.348 351.222 185.73 354.814 190.651 C 358.062 195.598 368.637 219.341 355.488 249.14 C 342.235 278.531 328.671 284.165 328.671 284.165 C 349.076 303.785 348.978 312.635 348.978 312.635 C 332.127 312.635 327.628 321.991 327.628 321.991 C 331.764 330.212 343.843 333.286 343.843 333.286 C 340.362 346.824 326.48 346.188 326.48 346.188 Z  M 315.594 389.655 C 309.869 389.655 305.2 385.155 305.2 379.385 C 305.2 373.472 309.869 368.985 315.594 368.985 C 321.144 368.985 325.741 373.472 325.741 379.385 C 325.741 385.149 321.144 389.655 315.594 389.655 Z  M 257.792 389.655 L 230.398 378.652 L 257.792 367.545 L 285.743 378.652 L 257.792 389.655 Z  M 211.498 328.864 C 211.498 328.864 205.391 345.222 189.123 346.188 C 189.123 346.188 175.196 346.83 171.805 333.299 C 171.805 333.299 183.612 330.219 187.904 322.004 C 187.904 322.004 183.404 312.648 166.456 312.648 C 166.456 312.648 166.3 303.804 186.957 284.178 C 186.957 284.178 173.095 278.544 159.972 249.153 C 146.869 219.348 157.333 195.611 160.789 190.664 C 164.239 185.743 171.961 176.361 182.976 169.968 C 182.976 169.968 191.159 165.079 200.521 164.061 C 200.521 164.061 207.206 163.076 213.975 171.31 C 220.491 179.668 228.336 189.25 232.311 209.013 C 232.311 209.013 236.091 231.083 233.912 245.419 C 231.883 259.352 229.549 267.813 221.295 276.339 C 221.295 276.339 242.075 284.178 251.995 299.648 C 251.995 299.648 235.592 304.958 232.311 314.541 C 232.311 314.541 236.207 320.02 251.133 323.035 C 251.133 323.035 250.523 334.887 236.408 337.986 C 236.415 337.973 219.681 339.672 211.498 328.864 Z  M 200.054 389.655 C 194.517 389.655 189.557 385.155 189.557 379.385 C 189.557 373.88 194.524 369.322 200.054 369.322 C 205.728 369.322 210.026 373.88 210.026 379.385 C 210.026 385.149 205.728 389.655 200.054 389.655 Z  M 140.832 393.603 L 113.977 383.677 L 141.254 371.267 L 169.354 380.72 L 140.832 393.603 Z  M 93.463 353.541 C 89.773 350.921 91.096 347.958 91.096 347.958 C 100.407 338.109 101.224 332.462 101.224 332.462 C 93.106 326.29 73.24 327.898 73.24 327.898 C 76.521 314.113 85.715 304.699 85.715 304.699 C 57.478 291.485 58.243 262.587 58.243 262.587 C 58.243 210.517 107.214 211.34 107.214 211.34 C 104.115 221.546 106.093 231.206 107.61 235.343 C 109.192 239.181 112.44 243.409 118.529 262.03 C 124.422 280.463 120.337 298.475 120.337 298.475 C 141.273 304.265 150.441 316.279 150.441 316.279 C 138.524 324.546 138.524 333.039 138.524 333.039 C 148.593 337.973 161.788 335.296 161.788 335.296 C 160.815 348.107 147.186 349.573 147.186 349.573 C 130.303 351.803 117.549 336.819 117.549 336.819 C 116.959 357.184 97.56 356.056 93.463 353.541 Z  M 502 260.526 C 512.478 257.024 511.226 245.412 511.226 245.412 C 508.983 231.829 494.758 233.761 494.758 233.761 C 503.757 223.212 496.625 214.984 496.625 214.984 C 489.661 206.29 478.672 211.898 478.672 211.898 C 483.671 200.752 477.064 195.131 477.064 195.131 C 468.278 187.403 459.104 195.397 459.104 195.397 C 458.838 184.511 450.973 182.021 450.973 182.021 C 441.715 178.014 434.913 186.352 434.913 186.352 C 428.118 167.66 414.775 177.256 411.585 178.546 C 408.427 180.407 408.116 178.546 408.116 178.546 C 407.52 155.95 388.282 164.444 388.282 164.444 C 393.521 153.156 384.392 146.795 384.392 146.795 C 374.518 140.688 366.303 149.246 366.303 149.246 C 365.285 134.327 354.263 138.755 350.761 140.072 C 347.403 140.824 340.154 141.096 340.154 141.096 C 317.357 138.276 308.922 139.585 308.922 139.585 C 281.165 139.021 257.779 185.055 257.779 185.055 L 257.779 185.457 L 257.364 185.055 C 257.364 185.055 233.646 139.021 205.981 139.585 C 205.981 139.585 197.5 138.276 174.775 141.096 C 174.775 141.096 167.694 140.824 164.174 140.072 C 160.672 138.755 149.598 134.327 148.833 149.246 C 148.833 149.246 140.515 140.688 130.608 146.795 C 130.608 146.795 121.517 153.156 126.743 164.444 C 126.743 164.444 107.415 155.95 106.812 178.546 C 106.812 178.546 106.702 180.407 103.292 178.546 C 100.219 177.249 86.908 167.66 80.139 186.352 C 80.139 186.352 73.22 178.014 64.059 182.021 C 64.059 182.021 56.078 184.511 55.799 195.397 C 55.799 195.397 46.573 187.403 37.716 195.131 C 37.716 195.131 31.089 200.752 35.959 211.898 C 35.959 211.898 25.235 206.29 18.524 214.984 C 18.524 214.984 11.275 223.212 20.391 233.761 C 20.391 233.761 5.771 231.829 3.754 245.412 C 3.754 245.412 2.646 257.024 12.851 260.526 C 12.851 260.526 0.862 266.134 3.015 275.782 C 3.015 275.782 3.748 285.391 16.196 287.225 C 16.196 287.225 5.771 294.137 10.095 303.798 C 10.095 303.798 14.225 315.073 27.549 311.792 C 27.549 311.792 22.537 323.476 30.292 328.676 C 30.292 328.676 37.567 334.881 46.573 328.786 C 46.573 328.786 51.306 327.035 53.277 330.426 C 53.277 330.426 56.668 335.86 49.561 343.88 C 49.561 343.88 88.295 340.599 98.734 403.083 L 415.708 403.083 C 426.199 340.599 465.477 343.88 465.477 343.88 C 458.196 335.86 461.723 330.426 461.723 330.426 C 463.5 327.042 468.272 328.786 468.272 328.786 C 477.304 334.881 484.779 328.676 484.779 328.676 C 492.255 323.476 487.366 311.792 487.366 311.792 C 500.82 315.073 505.112 303.798 505.112 303.798 C 508.976 294.144 498.732 287.225 498.732 287.225 C 511.22 285.391 511.725 275.782 511.725 275.782 C 513.943 266.134 502 260.526 502 260.526 Z  M 102.436 437.414 C 103.058 444.786 103.311 451.587 103.311 451.587 L 411.345 451.587 C 411.345 451.587 411.598 445.155 412.227 438.321 C 412.927 430.872 413.776 425.023 413.776 425.023 L 100.828 425.023 C 100.828 425.023 101.82 431.209 102.436 437.414 Z  M 240.104 130.074 C 240.104 130.074 230.197 129.86 223.681 133.095 C 223.681 133.095 246.679 139.255 257.792 165.89 C 268.989 139.261 291.844 133.095 291.844 133.095 C 285.743 129.86 275.401 130.074 275.401 130.074 C 274.403 126.598 270.545 123.856 270.545 123.856 C 273.56 120.212 279.57 116.212 279.57 116.212 L 257.798 64.53 L 236.104 116.212 C 236.104 116.212 242.049 120.219 245.032 123.856 C 245.025 123.849 241.096 126.598 240.104 130.074 Z " fill="rgb(95,99,103)"/><path d=" M 426.886 299.674 C 426.886 299.674 436.158 309.374 439.51 322.905 C 439.51 322.905 419.437 321.336 411.423 327.567 C 411.423 327.567 412.019 333.124 421.323 343.134 C 421.323 343.134 423.067 346.097 418.97 348.697 C 415.112 351.174 395.687 352.477 394.98 331.995 C 394.98 331.995 382.421 347.2 365.298 344.943 C 365.298 344.943 351.786 343.27 350.943 330.582 C 350.943 330.582 363.936 333.091 374.278 328.3 C 374.278 328.3 373.83 319.884 362.062 311.591 C 362.062 311.591 371.289 299.603 392.335 293.93 C 392.335 293.93 388.153 275.704 394.209 257.284 C 400.368 238.805 403.396 234.396 404.965 230.389 C 406.696 226.525 408.609 216.877 405.471 206.607 C 405.471 206.607 454.338 205.602 454.507 257.906 C 454.513 257.906 455.013 287.024 426.886 299.674 Z  M 371.814 389.512 L 343.234 376.37 L 371.431 367.143 L 398.365 379.443 L 371.814 389.512 Z  M 323.666 342.071 C 307.282 341.053 301.265 324.747 301.265 324.747 C 293.082 335.555 276.128 333.798 276.128 333.798 C 262.479 330.776 261.546 318.898 261.546 318.898 C 276.568 315.877 280.439 310.437 280.439 310.437 C 277.009 300.828 260.67 295.505 260.67 295.505 C 270.506 279.99 291.5 272.196 291.5 272.196 C 283.318 263.677 280.971 255.235 278.857 241.269 C 276.711 226.947 280.439 204.883 280.439 204.883 C 284.628 185.127 292.149 175.531 298.581 167.167 C 305.499 158.933 312.378 159.912 312.378 159.912 C 321.52 160.93 329.761 165.838 329.761 165.838 C 340.653 172.237 348.46 181.619 352.026 186.527 C 355.313 191.468 365.927 215.224 352.7 245.01 C 339.473 274.394 325.916 279.996 325.916 279.996 C 346.326 299.668 346.216 308.492 346.216 308.492 C 329.365 308.492 324.878 317.893 324.878 317.893 C 329.015 326.095 341.081 329.162 341.081 329.162 C 337.619 342.713 323.666 342.071 323.666 342.071 Z  M 312.884 385.557 C 307.152 385.557 302.458 380.993 302.458 375.293 C 302.458 369.374 307.159 364.887 312.884 364.887 C 318.395 364.887 322.927 369.374 322.927 375.293 C 322.927 380.993 318.395 385.557 312.884 385.557 Z  M 255.03 385.557 L 227.61 374.509 L 255.03 363.415 L 282.994 374.509 L 255.03 385.557 Z  M 208.749 324.747 C 208.749 324.747 202.648 341.053 186.309 342.071 C 186.309 342.071 172.434 342.719 169.056 329.168 C 169.056 329.168 180.83 326.095 185.155 317.9 C 185.155 317.9 180.675 308.498 163.713 308.498 C 163.713 308.498 163.512 299.681 184.215 280.003 C 184.215 280.003 170.346 274.401 157.23 245.017 C 144.113 215.231 154.545 191.474 158.047 186.534 C 161.489 181.619 169.218 172.237 180.221 165.844 C 180.221 165.844 188.416 160.936 197.772 159.918 C 197.772 159.918 204.418 158.939 211.271 167.173 C 217.735 175.537 225.6 185.133 229.555 204.889 C 229.555 204.889 233.348 226.953 231.163 241.276 C 229.153 255.241 226.8 263.683 218.552 272.203 C 218.552 272.203 239.32 280.003 249.253 295.512 C 249.253 295.512 232.855 300.828 229.555 310.444 C 229.555 310.444 233.452 315.883 248.41 318.905 C 248.41 318.905 247.768 330.783 233.614 333.804 C 233.614 333.798 216.977 335.555 208.749 324.747 Z  M 197.279 385.557 C 191.703 385.557 186.802 380.993 186.802 375.293 C 186.802 369.75 191.703 365.224 197.279 365.224 C 202.979 365.224 207.264 369.743 207.264 375.293 C 207.264 380.993 202.979 385.557 197.279 385.557 Z  M 138.038 389.512 L 111.215 379.586 L 138.433 367.143 L 166.586 376.564 L 138.038 389.512 Z  M 90.713 349.449 C 87.031 346.746 88.269 343.809 88.269 343.809 C 97.638 333.999 98.455 328.371 98.455 328.371 C 90.344 322.114 70.478 323.729 70.478 323.729 C 73.778 309.931 82.965 300.549 82.965 300.549 C 54.71 287.329 55.475 258.457 55.475 258.457 C 55.475 206.387 104.446 207.21 104.446 207.21 C 101.366 217.429 103.337 227.07 104.848 231.206 C 106.417 235.045 109.691 239.279 115.766 257.906 C 121.66 276.333 117.562 294.299 117.562 294.299 C 138.446 300.141 147.647 312.129 147.647 312.129 C 135.762 320.448 135.762 328.909 135.762 328.909 C 145.799 333.798 158.987 331.178 158.987 331.178 C 158.053 343.984 144.431 345.481 144.431 345.481 C 127.547 347.705 114.749 332.696 114.749 332.696 C 114.204 353.074 94.818 351.933 90.713 349.449 Z  M 499.244 256.402 C 509.651 252.888 508.419 241.276 508.419 241.276 C 506.182 227.699 491.996 229.631 491.996 229.631 C 500.995 219.082 493.85 210.874 493.85 210.874 C 486.899 202.172 475.916 207.768 475.916 207.768 C 480.921 196.609 474.302 191.014 474.302 191.014 C 465.484 183.266 456.355 191.28 456.355 191.28 C 456.082 180.387 448.231 177.917 448.231 177.917 C 438.927 173.884 432.158 182.248 432.158 182.248 C 425.376 163.543 412.019 173.132 408.855 174.442 C 405.672 176.277 405.38 174.442 405.38 174.442 C 404.77 151.846 385.507 160.307 385.507 160.307 C 390.779 149.026 381.689 142.672 381.689 142.672 C 371.781 136.564 363.554 145.116 363.554 145.116 C 362.555 130.203 351.449 134.638 347.98 135.941 C 344.621 136.694 337.385 136.959 337.385 136.959 C 314.569 134.139 306.179 135.455 306.179 135.455 C 278.39 134.917 255.03 180.932 255.03 180.932 L 255.03 181.327 L 254.628 180.932 C 254.628 180.932 230.904 134.917 203.231 135.455 C 203.231 135.455 194.744 134.146 172.025 136.959 C 172.025 136.959 164.945 136.694 161.418 135.941 C 157.923 134.632 146.862 130.197 146.071 145.116 C 146.071 145.116 137.759 136.564 127.852 142.672 C 127.852 142.672 118.762 149.026 123.929 160.307 C 123.929 160.307 104.66 151.846 104.037 174.442 C 104.037 174.442 103.953 176.277 100.51 174.442 C 97.489 173.132 84.178 163.543 77.389 182.248 C 77.389 182.248 70.478 173.884 61.31 177.917 C 61.31 177.917 53.329 180.387 53.069 191.28 C 53.069 191.28 43.836 183.266 34.986 191.014 C 34.986 191.014 28.301 196.609 33.229 207.768 C 33.229 207.768 22.492 202.172 15.743 210.874 C 15.743 210.874 8.526 219.082 17.668 229.631 C 17.668 229.631 3.028 227.699 0.966 241.276 C 0.966 241.276 -0.155 252.888 10.076 256.402 C 10.076 256.402 -1.919 262.004 0.266 271.645 C 0.266 271.645 0.96 281.241 13.402 283.102 C 13.402 283.102 3.022 290.007 7.307 299.674 C 7.307 299.674 11.457 310.988 24.8 307.701 C 24.8 307.701 19.801 319.3 27.523 324.552 C 27.523 324.552 34.844 330.783 43.843 324.636 C 43.843 324.636 48.569 322.905 50.541 326.296 C 50.541 326.296 53.931 331.749 46.748 339.75 C 46.748 339.75 85.533 336.424 95.978 398.952 L 412.972 398.952 C 423.476 336.424 462.741 339.75 462.741 339.75 C 455.415 331.749 458.987 326.296 458.987 326.296 C 460.757 322.912 465.49 324.636 465.49 324.636 C 474.554 330.783 482.043 324.552 482.043 324.552 C 489.519 319.3 484.591 307.701 484.591 307.701 C 498.09 310.988 502.382 299.674 502.382 299.674 C 506.195 290.013 496.003 283.102 496.003 283.102 C 508.432 281.241 508.996 271.645 508.996 271.645 C 511.155 262.004 499.244 256.402 499.244 256.402 Z  M 99.642 433.277 C 100.316 440.662 100.517 447.437 100.517 447.437 L 408.609 447.437 C 408.609 447.437 408.862 441.006 409.484 434.178 C 410.184 426.78 410.975 420.854 410.975 420.854 L 98.098 420.854 C 98.098 420.854 99.084 427.098 99.642 433.277 Z  M 237.342 125.944 C 237.342 125.944 227.442 125.749 220.925 128.972 C 220.925 128.972 243.923 135.125 255.036 161.753 C 266.233 135.125 289.101 128.972 289.101 128.972 C 283 125.743 272.659 125.944 272.659 125.944 C 271.654 122.442 267.757 119.726 267.757 119.726 C 270.804 116.082 276.808 112.107 276.808 112.107 L 255.036 60.413 L 233.355 112.107 C 233.355 112.107 239.294 116.082 242.276 119.726 C 242.27 119.719 238.276 122.442 237.342 125.944 Z " fill="rgb(166,132,75)"/></g></svg>