<?xml version="1.0" encoding="UTF-8" standalone="no"?><!-- Generator: Gravit.io --><svg xmlns="http://www.w3.org/2000/svg" xmlns:xlink="http://www.w3.org/1999/xlink" style="isolation:isolate" viewBox="0 0 512 512" width="512pt" height="512pt"><defs><clipPath id="_clipPath_kQv2RtqlV0uVRUk7cxYrfgM4xWi3j6kG"><rect width="512" height="512"/></clipPath></defs><g clip-path="url(#_clipPath_kQv2RtqlV0uVRUk7cxYrfgM4xWi3j6kG)"><path d=" M 512 256.055 C 512 397.484 397.465 512.001 256.078 512.001 C 114.672 512.001 0 397.484 0 256.055 C 0 114.626 114.672 -0.001 256.078 -0.001 C 397.467 -0.001 512 114.626 512 256.055 Z " fill="rgb(190,214,0)"/><path d=" M 237.423 122.432 C 197.099 122.432 170.939 124.661 152.003 131.691 C 120.181 144.087 98.204 170.068 98.204 204.211 C 98.204 232.648 111.446 253.243 149.767 276.93 C 190.654 301.716 198.811 309.908 198.811 324.843 C 198.811 341.19 182.795 359.796 141.586 359.796 C 127.203 359.796 105.54 357.805 91.697 354.419 L 85.091 352.753 C 81.407 362.631 73.042 385.999 70.492 394.477 L 77.032 396.401 C 89.484 400.373 119.036 403.474 140.208 403.474 C 210.642 403.474 252.666 360.921 252.666 316.361 C 252.666 288.981 240.237 268.171 198.222 241.956 C 177.147 228.992 166.408 220.586 159.885 214.078 C 154.598 207.285 154.013 202.23 154.013 196.889 C 154.013 191.79 155.148 185.914 158.509 181.61 C 162.145 176.289 168.813 172.898 177.839 170.1 C 187.116 167.023 204.304 166.941 231.074 166.941 L 256 166.941 L 273.799 122.434 L 237.423 122.434 L 237.423 122.432 Z  M 425.796 122.432 L 300.54 122.432 L 282.739 166.938 L 324.257 166.938 C 352.194 166.938 357.568 166.336 364.583 166.336 C 354.456 189.505 293.418 345.046 293.418 345.046 L 345.076 345.046 C 345.076 345.046 422.353 151.424 430.543 131.124 C 432.811 126.594 431.684 122.432 425.796 122.432 Z " fill="rgb(255,255,255)"/></g></svg>