<?xml version="1.0" encoding="UTF-8" standalone="no"?><!-- Generator: Gravit.io --><svg xmlns="http://www.w3.org/2000/svg" xmlns:xlink="http://www.w3.org/1999/xlink" style="isolation:isolate" viewBox="0 0 512 512" width="512pt" height="512pt"><defs><clipPath id="_clipPath_XlvOkPckmttMZz25zJZBn6wDuPLmzRiP"><rect width="512" height="512"/></clipPath></defs><g clip-path="url(#_clipPath_XlvOkPckmttMZz25zJZBn6wDuPLmzRiP)"><path d=" M 489.258 370.746 L 488.571 371.778 C 446.268 445.033 367.511 494.557 276.716 494.557 C 141.899 494.557 32.532 385.191 32.532 250.374 C 32.532 206.008 44.225 164.738 64.861 128.97 L 65.549 127.938 L 65.205 126.907 L 64.173 127.251 L 63.485 128.282 C 59.702 133.441 56.607 138.944 53.167 144.79 C -13.897 261.723 27.373 411.329 145.338 479.081 C 263.303 546.833 413.252 506.595 480.316 389.662 C 483.756 384.159 486.507 378.312 489.258 372.466 L 489.946 371.434 L 489.602 370.402 L 489.258 370.746 L 489.258 370.746 Z " fill="rgb(176,146,85)"/><path d=" M 217.217 61.906 C 182.481 69.472 124.015 104.896 111.634 164.394 C 149.121 120.028 187.984 96.642 217.905 91.483 C 187.296 114.182 158.751 167.489 167.693 204.977 C 183.857 165.426 212.059 126.563 238.197 112.462 C 223.408 136.536 218.593 195.347 232.694 221.141 C 236.133 187.781 246.451 144.103 263.303 122.436 L 268.118 164.394 L 262.271 164.394 L 268.118 207.04 L 263.303 207.04 L 268.118 249.686 L 263.991 249.686 L 270.181 292.332 L 249.89 302.65 L 249.89 304.026 L 302.51 304.026 L 302.51 302.65 L 282.218 292.332 L 276.028 297.147 L 282.218 292.332 L 288.409 249.686 L 284.282 249.686 L 289.097 207.04 L 284.282 207.04 L 290.472 164.394 L 284.626 164.394 L 289.441 122.436 C 306.293 144.103 316.61 187.437 320.05 221.141 C 334.15 195.347 329.335 136.88 314.547 112.462 C 340.341 126.563 368.886 165.426 385.051 204.977 C 393.992 167.489 365.103 114.182 334.838 91.483 C 364.759 96.986 403.622 120.028 441.11 164.394 C 428.728 105.24 370.606 69.472 335.87 61.906 C 374.045 58.123 411.532 70.504 445.237 86.668 C 408.437 44.366 353.066 28.889 316.61 33.016 C 322.801 26.482 328.648 23.043 338.277 20.291 C 322.801 13.069 298.727 16.852 289.441 27.514 C 289.441 27.514 287.721 7.91 276.372 0 C 265.022 7.566 263.303 27.514 263.303 27.514 C 254.017 16.852 229.942 13.069 214.466 20.291 C 223.752 23.043 229.599 26.482 236.133 33.016 C 199.334 28.889 143.962 44.366 107.507 86.668 C 141.555 70.16 179.042 58.123 217.217 61.906 Z " fill="rgb(176,146,85)"/><path d=" M 287.377 334.635 C 284.626 336.698 280.843 339.105 277.06 341.513 C 272.933 338.762 269.493 336.354 266.742 334.635 C 251.266 324.317 119.888 236.273 63.141 298.523 C 115.417 277.888 193.143 317.095 256.768 355.614 C 240.604 366.619 222.72 379 207.244 389.662 C 182.825 365.931 173.54 369.714 171.476 370.746 C 169.069 371.778 167.349 373.841 167.349 376.593 C 167.349 380.032 170.1 383.127 173.54 383.127 C 176.979 383.127 180.074 380.376 180.074 376.593 L 180.074 375.217 C 186.952 379.344 193.143 385.191 208.963 401.699 C 225.128 418.551 231.318 423.022 236.133 425.773 C 239.572 427.837 242.668 428.181 244.731 427.837 C 248.17 427.837 251.266 425.429 251.609 421.646 C 251.953 417.863 249.202 414.768 245.419 414.768 C 241.98 414.768 238.884 417.519 238.884 421.302 L 238.884 421.99 C 234.413 418.895 229.942 413.048 220.313 403.075 C 235.789 394.133 255.393 381.752 277.06 367.995 C 299.07 381.752 318.33 394.133 333.806 403.075 C 324.521 413.048 319.706 418.895 315.235 421.99 L 315.235 421.302 C 315.235 417.519 312.139 414.768 308.7 414.768 C 304.917 414.768 302.166 417.863 302.51 421.646 C 302.51 425.429 305.949 427.837 309.388 427.837 C 311.452 427.837 314.891 427.493 317.986 425.773 C 322.801 423.022 328.992 418.551 345.156 401.699 C 360.976 385.191 367.511 379.688 374.045 375.217 L 374.045 376.593 C 374.045 380.032 377.14 383.127 380.58 383.127 C 384.019 383.127 386.77 380.032 386.77 376.593 C 386.77 373.841 385.051 371.778 382.643 370.746 C 380.58 369.714 371.294 365.931 346.875 389.662 C 331.399 379.344 313.171 366.619 297.351 355.614 C 361.32 317.095 438.702 277.888 490.978 298.523 C 433.887 236.617 302.854 324.317 287.377 334.635 Z " fill="rgb(176,146,85)"/><path d=" M 140.867 416.488 C 138.804 415.456 136.74 414.424 135.708 414.424 C 135.02 414.424 134.333 414.424 133.989 415.112 C 133.645 415.8 133.301 416.831 133.989 417.519 C 134.333 418.207 135.02 419.239 137.084 421.302 C 145.682 428.869 162.878 435.403 208.275 409.953 C 206.9 408.577 205.524 407.202 203.805 405.482 C 200.709 402.387 197.958 399.635 195.55 397.228 C 171.82 412.361 152.56 421.302 140.867 416.488 Z " fill="rgb(176,146,85)"/><path d=" M 412.908 416.488 C 401.215 421.302 381.955 412.361 358.225 396.884 C 355.817 399.292 353.066 402.043 349.971 405.138 C 348.595 406.514 347.219 408.233 345.844 409.609 C 391.241 435.059 408.437 428.525 417.035 420.959 C 419.099 419.239 419.786 417.863 420.13 417.175 C 420.474 416.144 420.474 415.112 420.13 414.768 C 419.786 414.424 419.099 414.08 418.411 414.08 C 417.035 414.424 414.972 415.8 412.908 416.488 Z " fill="rgb(176,146,85)"/></g></svg>