<?xml version="1.0" encoding="utf-8"?>
<!-- Generator: Adobe Illustrator 24.1.3, SVG Export Plug-In . SVG Version: 6.00 Build 0)  -->
<svg version="1.1"
	 id="Layer_1" xmlns:cc="http://creativecommons.org/ns#" xmlns:dc="http://purl.org/dc/elements/1.1/" xmlns:rdf="http://www.w3.org/1999/02/22-rdf-syntax-ns#" xmlns:svg="http://www.w3.org/2000/svg"
	 xmlns="http://www.w3.org/2000/svg" xmlns:xlink="http://www.w3.org/1999/xlink" x="0px" y="0px" viewBox="0 0 508.1 150.4"
	 style="enable-background:new 0 0 508.1 150.4;" xml:space="preserve">
<style type="text/css">
	.st0{fill:#26265D;}
	.st1{fill:#B09255;}
</style>
<g id="g3337" transform="translate(-18.86368,-306.853)">
	<polygon id="polygon3365" class="st0" points="243.3,378.9 237.8,384.6 243.3,390.4 248.8,384.6 	"/>
	<polygon id="polygon3367" class="st0" points="209.1,318.3 214.6,312.6 209.1,306.9 203.6,312.6 	"/>
	<polygon id="polygon3369" class="st0" points="228.9,378.9 223.4,384.6 228.9,390.4 234.4,384.6 	"/>
	<polygon id="polygon3371" class="st0" points="223.5,318.3 229,312.6 223.5,306.9 218,312.6 	"/>
	<g id="g3373">
		<path id="path3375" class="st0" d="M346.9,358.4h-19.4V357c0-16.5,12.8-26.6,19.4-28.4V358.4z M494.8,318.1v40.4
			c0,2.3-0.2,4.2-1,5.6c-1,1.7-2.7,3-6.1,3c-3.3,0-5.1-1.4-6.1-3c-0.8-1.4-1.1-3.3-1.1-5.6v-29.1H471v29h-11.9v-29h-9.4v29h-11.9
			v-29h-9.4v29H392c-10.5-0.7-13-6.3-13-11.5c0-7.3,6.5-10.1,13.6-10.1h15.5v-7.3h-13.7c-11.2,0-20.5,4.6-20.5,16.2
			c0,7.5,3.4,11,6.3,12.8h-23.9v-36c-20.7,2.6-37,18-37,43.3h27.7v8.9c0,3.4,0.4,10-4.6,10.9v3.9c3.5-0.4,9.1-2.7,11.6-6.9
			c1.9-3.3,2.4-6.3,2.4-13.2v-3.7h115.9c0.4,0.9,0.9,1.8,1.5,2.8c2.9,4,8,5.8,14,5.8c5.9,0,11-1.8,13.9-5.8
			c2.4-3.4,2.7-6.7,2.7-10.8v-39.6L494.8,318.1L494.8,318.1z"/>
	</g>
	<rect id="rect3377" x="517.4" y="318.1" class="st0" width="9.4" height="47.6"/>
	<g id="g3379">
		<path id="path3381" class="st0" d="M289.2,329.2h-13.5v7.4H287c8.8,0,17.7,0.4,17.7,10.6c0,9-6.6,11.1-18.5,11.1h-22.7v7.4H288
			c14.7,0,22-4.5,22-18.4C310,333.2,301.4,329.2,289.2,329.2"/>
		<path id="path3383" class="st0" d="M219.5,358.4h-19.2v-1.2c0-16.4,12.7-26.8,19.2-28.6V358.4z M243.3,358.4
			c0,2.4-0.3,4.2-1.1,5.7c-1,1.7-2.7,3-6.1,3c-3.3,0-5.1-1.4-6.1-3c-0.8-1.4-1.1-3.3-1.1-5.7v-36c-22.5,2.1-37,19.9-37,43.4h28.7
			c0.4,0.9,0.9,1.8,1.5,2.7c2.9,4,8,5.8,13.9,5.8c6,0,11-1.8,13.9-5.8c2.5-3.4,2.8-6.7,2.8-10.8v-31.4h-9.4L243.3,358.4L243.3,358.4
			z"/>
		<path id="path3385" class="st0" d="M333.4,456.7c-9.3,0-16.3-1.9-20.6-6.1c-3.8-3.5-5.6-7.6-5.6-15.6v-33.6h10.1v35
			c0,5.2,0.8,8.1,3.3,10.7c2.7,2.9,7.2,4.4,12.8,4.4c5.5,0,10.1-1.5,12.7-4.4c2.5-2.6,3.2-5.6,3.2-10.7v-35h10.1V435
			c0,8-1.8,12.1-5.6,15.6C349.7,454.8,342.6,456.7,333.4,456.7"/>
		<path id="path3387" class="st0" d="M399.2,450.9c-2,0-6.4-0.2-8.3-1.7c-1.5-1.3-1.6-3.5-1.6-6.7v-37.5
			c15.5-1.4,32.7,3.2,32.7,23.6C422,444.8,411.4,450.9,399.2,450.9 M397.3,400.4c-5,0.1-17.2,0.7-26.1,3.2l0.8,4
			c2.4-0.7,4.7-1.2,7.3-1.6v49.5c14.3,0.3,20.4,0.2,27.9-0.6c13.1-1.6,25.5-11.4,25.5-26.6C432.6,407,413.6,400,397.3,400.4"/>
	</g>
	<rect id="rect3389" x="446.6" y="401.5" class="st0" width="10.1" height="54.1"/>
	<g id="g3391">
		<path id="path3393" class="st0" d="M259.3,432c5.2,0,14.8,0.7,21.6,6.2L268.6,413L259.3,432L259.3,432z M300.7,455.5h-11.5
			c-4-8.2-14.6-20.1-32.1-18.9l-9.2,18.9h-7.2l28.3-54.9h3.6L300.7,455.5L300.7,455.5z"/>
		<path id="path3395" class="st0" d="M485.6,432c5.2,0,14.8,0.7,21.6,6.2L494.9,413L485.6,432z M527,455.5h-11.5
			c-4.1-8.2-14.6-20.1-32.1-18.9l-9.2,18.9H467l28.2-55h3.6L527,455.5L527,455.5z"/>
		<path id="path3397" class="st0" d="M232.8,403.3c-2.9-1.5-10.1-3.8-17.6-3.6c-13.2,0.3-22,5.7-22.1,15.5c-0.1,1.9,0.4,4.4,1.5,6.5
			c6.4,11,32.9,9.2,32.9,20.9c0,3.4-3.2,8.9-12.3,8.9c-9.9,0-17.4-4.6-21-7.4l-2.6,7.9c3.1,1.6,11.3,4.6,23.2,4.6
			c5.3,0,11.4-1.4,15.8-4.9c4.3-3.4,6.2-7.5,6.2-12.6c0-19.4-33.8-14.5-33.8-26.7c0-2,1.1-3.5,1.5-4c1.8-2.4,5.9-3.8,10.9-3.8
			c4.7,0,9.7,1.6,14.7,5.5L232.8,403.3L232.8,403.3z"/>
		<path id="path3399" class="st1" d="M154.9,416.2l-0.2,0.3c-12.3,21.3-35.2,35.7-61.6,35.7c-39.2,0-71-31.8-71-71
			c0-12.9,3.4-24.9,9.4-35.3l0.2-0.3l-0.1-0.3l-0.3,0.1l-0.2,0.3c-1.1,1.5-2,3.1-3,4.8c-19.5,34-7.5,77.5,26.8,97.2
			c34.3,19.7,77.9,8,97.4-26c1-1.6,1.8-3.3,2.6-5l0.2-0.3l-0.1-0.3L154.9,416.2L154.9,416.2z"/>
		<path id="path3401" class="st1" d="M75.8,326.4c-10.1,2.2-27.1,12.5-30.7,29.8C56,343.3,67.3,336.5,76,335
			c-8.9,6.6-17.2,22.1-14.6,33c4.7-11.5,12.9-22.8,20.5-26.9c-4.3,7-5.7,24.1-1.6,31.6c1-9.7,4-22.4,8.9-28.7l1.4,12.2h-1.7
			l1.7,12.4h-1.4l1.4,12.4h-1.2l1.8,12.4l-5.9,3v0.4h15.3v-0.4l-5.9-3l-1.8,1.4l1.8-1.4l1.8-12.4h-1.2l1.4-12.4h-1.4l1.8-12.4h-1.7
			l1.4-12.2c4.9,6.3,7.9,18.9,8.9,28.7c4.1-7.5,2.7-24.5-1.6-31.6c7.5,4.1,15.8,15.4,20.5,26.9c2.6-10.9-5.8-26.4-14.6-33
			c8.7,1.6,20,8.3,30.9,21.2c-3.6-17.2-20.5-27.6-30.6-29.8c11.1-1.1,22,2.5,31.8,7.2c-10.7-12.3-26.8-16.8-37.4-15.6
			c1.8-1.9,3.5-2.9,6.3-3.7c-4.5-2.1-11.5-1-14.2,2.1c0,0-0.5-5.7-3.8-8c-3.3,2.2-3.8,8-3.8,8c-2.7-3.1-9.7-4.2-14.2-2.1
			c2.7,0.8,4.4,1.8,6.3,3.7c-10.7-1.2-26.8,3.3-37.4,15.6C53.8,328.8,64.7,325.3,75.8,326.4"/>
		<path id="path3403" class="st1" d="M96.2,405.7c-0.8,0.6-1.9,1.3-3,2c-1.2-0.8-2.2-1.5-3-2c-4.5-3-42.7-28.6-59.2-10.5
			c15.2-6,37.8,5.4,56.3,16.6c-4.7,3.2-9.9,6.8-14.4,9.9c-7.1-6.9-9.8-5.8-10.4-5.5c-0.7,0.3-1.2,0.9-1.2,1.7c0,1,0.8,1.9,1.8,1.9
			c1,0,1.9-0.8,1.9-1.9l0-0.4c2,1.2,3.8,2.9,8.4,7.7c4.7,4.9,6.5,6.2,7.9,7c1,0.6,1.9,0.7,2.5,0.6c1,0,1.9-0.7,2-1.8
			c0.1-1.1-0.7-2-1.8-2c-1,0-1.9,0.8-1.9,1.9v0.2c-1.3-0.9-2.6-2.6-5.4-5.5c4.5-2.6,10.2-6.2,16.5-10.2c6.4,4,12,7.6,16.5,10.2
			c-2.7,2.9-4.1,4.6-5.4,5.5l0-0.2c0-1.1-0.9-1.9-1.9-1.9c-1.1,0-1.9,0.9-1.8,2c0,1.1,1,1.8,2,1.8c0.6,0,1.6-0.1,2.5-0.6
			c1.4-0.8,3.2-2.1,7.9-7c4.6-4.8,6.5-6.4,8.4-7.7l0,0.4c0,1,0.9,1.9,1.9,1.9c1,0,1.8-0.9,1.8-1.9c0-0.8-0.5-1.4-1.2-1.7
			c-0.6-0.3-3.3-1.4-10.4,5.5c-4.5-3-9.8-6.7-14.4-9.9c18.6-11.2,41.1-22.6,56.3-16.6C138.8,377.2,100.7,402.7,96.2,405.7"/>
		<path id="path3405" class="st1" d="M53.6,429.5c-0.6-0.3-1.2-0.6-1.5-0.6c-0.2,0-0.4,0-0.5,0.2c-0.1,0.2-0.2,0.5,0,0.7
			c0.1,0.2,0.3,0.5,0.9,1.1c2.5,2.2,7.5,4.1,20.7-3.3c-0.4-0.4-0.8-0.8-1.3-1.3c-0.9-0.9-1.7-1.7-2.4-2.4
			C62.6,428.3,57,430.9,53.6,429.5"/>
		<path id="path3407" class="st1" d="M132.7,429.5c-3.4,1.4-9-1.2-15.9-5.7c-0.7,0.7-1.5,1.5-2.4,2.4c-0.4,0.4-0.8,0.9-1.2,1.3
			c13.2,7.4,18.2,5.5,20.7,3.3c0.6-0.5,0.8-0.9,0.9-1.1c0.1-0.3,0.1-0.6,0-0.7c-0.1-0.1-0.3-0.2-0.5-0.2
			C133.9,428.9,133.3,429.3,132.7,429.5"/>
	</g>
</g>
</svg>
