<?xml version="1.0" encoding="UTF-8" standalone="no"?><!-- Generator: Gravit.io --><svg xmlns="http://www.w3.org/2000/svg" xmlns:xlink="http://www.w3.org/1999/xlink" style="isolation:isolate" viewBox="0 0 512 512" width="512pt" height="512pt"><defs><clipPath id="_clipPath_57xKFXGM1hVMt2yzCJQ4OlpxkBHoxsAq"><rect width="512" height="512"/></clipPath></defs><g clip-path="url(#_clipPath_57xKFXGM1hVMt2yzCJQ4OlpxkBHoxsAq)"><path d=" M 503.093 71.267 C 505.834 69.714 508.855 68.623 512 68.308 C 510.269 71.039 507.818 73.216 506.168 76.001 C 501.83 82.956 499.518 90.964 497.905 98.95 C 496.336 106.523 495.739 114.309 493.347 121.692 C 490.175 132.132 485.069 141.992 478.269 150.488 C 469.593 161.167 458.713 169.761 447.387 177.395 C 433.641 186.858 419.122 195.468 407.226 207.352 C 398.749 215.844 391.933 226.17 388.218 237.679 C 380.983 258.923 374.855 280.694 364.765 300.814 C 357.551 315.348 348.015 328.687 336.598 340.153 C 321.799 355.219 304.065 366.908 285.987 377.544 C 246.08 400.595 202.269 416.085 157.61 426.644 C 107.698 438.235 56.443 443.762 5.241 443.686 C 3.489 443.713 1.736 443.648 0 443.442 C 45.262 437.269 90.169 426.639 132.361 408.728 C 170.989 392.463 207.247 369.878 237.527 340.566 C 244.198 334.1 250.633 327.368 256.615 320.245 C 270.221 303.697 279.865 284.353 289.057 265.08 C 293.83 255.15 298.426 245.101 304.006 235.589 C 312.462 221.164 323.997 208.579 337.71 199.111 C 354.294 187.569 373.344 180.468 392.191 173.687 C 403.195 169.723 414.23 165.836 425.019 161.297 C 432.168 158.241 439.356 155.146 445.924 150.917 C 458.401 143.034 469.528 132.333 475.904 118.766 C 480.285 109.602 482.381 99.563 486.122 90.138 C 482.026 92.006 479.129 95.839 477.774 100.09 C 475.99 105.655 470.404 108.95 464.943 109.835 C 467.399 107.68 469.577 105.058 470.496 101.844 C 472.743 94.487 479.322 88.287 487.133 87.847 C 490.837 81.007 496.287 75.029 503.093 71.267 M 493.03 83.922 C 491.24 84.997 491.046 87.885 492.707 89.167 C 494.503 90.774 497.873 89.438 497.911 86.946 C 498.217 84.465 495.073 82.473 493.03 83.922 L 493.03 83.922 Z " fill="rgb(220,0,28)"/><path d=" M 313.408 196.245 C 327.094 190.642 341.317 186.505 355.648 182.954 C 353.143 184.36 350.396 185.229 347.811 186.44 C 331.609 193.693 317.359 204.909 305.436 218.064 C 292.056 232.891 281.418 250.058 272.769 268.071 C 260.733 295.054 241.403 318.415 218.062 336.19 C 185.417 361.137 145.999 376.11 105.709 382.354 C 97.006 383.608 88.25 384.694 79.455 384.922 C 90.814 381.306 102.194 377.685 113.197 373.048 C 142.924 360.8 170.613 342.852 192.604 319.094 C 204.941 305.483 216.52 291.091 226.249 275.444 C 231.474 267.186 236.409 258.706 242.381 250.964 C 249.262 241.914 257.234 233.765 265.614 226.132 C 279.58 213.341 295.91 203.281 313.408 196.245 Z " fill="rgb(1,116,47)"/><path d=" M 408.694 218.097 C 411.505 213.124 414.456 208.123 418.396 203.97 C 416.381 213.205 414.209 222.445 413.397 231.886 C 411.903 246.686 412.817 261.573 413.338 276.394 C 414.306 294.006 413.107 312.177 406.28 328.611 C 399.464 344.866 389.541 359.97 376.398 371.702 C 358.401 387.685 335.221 396.762 311.709 400.281 C 302.167 401.643 292.481 402.479 282.848 401.822 C 287.874 398.56 293.314 395.975 298.469 392.908 C 313.94 384.042 329.045 374.275 342.21 362.119 C 355.449 349.877 366.512 335.316 375.306 319.534 C 383.956 304.023 387.998 286.509 391.944 269.315 C 395.943 251.795 399.948 233.939 408.694 218.097 L 408.694 218.097 Z " fill="rgb(255,60,0)"/></g></svg>