<?xml version="1.0" encoding="UTF-8" standalone="no"?><!-- Generator: Gravit.io --><svg xmlns="http://www.w3.org/2000/svg" xmlns:xlink="http://www.w3.org/1999/xlink" style="isolation:isolate" viewBox="0 0 512 512" width="512pt" height="512pt"><defs><clipPath id="_clipPath_ysLDJ4sPn1tmPWrc9sANQev2vo6vVgJh"><rect width="512" height="512"/></clipPath></defs><g clip-path="url(#_clipPath_ysLDJ4sPn1tmPWrc9sANQev2vo6vVgJh)"><g><path d=" M 337.834 438.177 L 358.813 438.177 L 512 73.784 L 490.573 73.784 L 337.834 438.177 L 337.834 438.177 Z " fill-rule="evenodd" fill="rgb(0,45,98)"/><path d=" M 9.318 438.216 L 302.962 438.216 L 305.788 437.998 L 308.368 437.341 L 310.957 436.048 L 313.569 434.515 L 315.947 432.794 L 317.905 430.638 L 319.613 428.268 L 320.695 425.652 L 462.678 86.348 L 463.518 83.732 L 463.764 81.568 L 463.518 79.404 L 462.892 77.454 L 461.595 75.948 L 459.855 74.87 L 457.901 73.994 L 455.313 73.784 L 340.172 73.784 L 337.802 74.208 L 335.42 75.08 L 333.05 76.372 L 330.885 78.112 L 326.553 82.02 L 322.435 86.348 L 1.954 425.652 L 0.662 427.82 L 0 429.98 L 0.21 431.93 L 1.078 433.88 L 2.584 435.601 L 4.538 437.13 L 6.702 437.998 L 9.318 438.216 L 9.318 438.216 Z " fill-rule="evenodd" fill="rgb(0,45,98)"/><path d=" M 266.383 200.819 C 314.096 200.819 352.847 239.817 352.847 287.498 C 352.847 335.418 314.096 374.419 266.383 374.419 C 218.459 374.419 179.252 335.418 179.252 287.498 C 179.252 239.817 218.459 200.819 266.383 200.819 L 266.383 200.819 Z  M 231.111 310.368 C 224.119 309.524 220.219 308.434 214.531 309.068 C 207.995 309.524 199.069 315.394 193.41 321.502 C 188.629 311.244 186.002 299.718 186.002 287.502 C 186.002 243.507 221.939 207.355 266.383 207.355 C 285.32 207.355 303.2 214.315 316.902 225.659 L 231.111 310.368 L 231.111 310.368 Z  M 260.727 315.6 L 334.786 329.124 C 342.201 316.69 346.312 302.988 346.312 287.498 C 346.312 264.197 335.876 242.841 319.748 228.045 L 260.727 315.6 L 260.727 315.6 Z  M 264.417 328.034 L 301.658 358.533 L 232.621 324.526 C 226.299 322.798 220.219 322.35 214.317 322.132 C 207.571 321.922 201.46 323.016 194.5 324.098 C 207.995 350.031 235.011 367.875 266.383 367.875 C 293.822 367.875 318.448 353.717 332.82 331.942 L 264.417 328.034 L 264.417 328.034 Z " fill-rule="evenodd" fill="rgb(255,255,255)"/></g></g></svg>