<svg version="1.0" width="300px" height="92px" xmlns="http://www.w3.org/2000/svg" xmlns:xlink="http://www.w3.org/1999/xlink">
<g>
	<g>
		<path fill-rule="evenodd" clip-rule="evenodd" fill="#002d62" d="M124.717,40.138l1.129-2.746
			c0.165-0.435,0.644-0.913,1.077-0.913h30.71c0.646,0,1.026,0.695,0.81,1.13l-1.241,3.016c-0.322,0.703-0.771,1.183-1.63,1.242
			h-6.183c-0.375,0-1.131,0.644-1.288,1.077l-9.376,22.682c-0.166,0.488-1.024,1.348-1.618,1.348h-12.339
			c-0.59,0-1.241-0.65-0.972-1.293l9.862-23.223c0.105-0.217-0.433-0.591-0.538-0.591h-7.17
			C125.092,41.866,124.282,41.058,124.717,40.138L124.717,40.138z"/>
		<path fill-rule="evenodd" clip-rule="evenodd" fill="#002d62" d="M166.472,56.303l-3.344,5.012h3.449l-0.695,4.094
			c-0.163,1.131-0.061,1.564,0.914,1.564h8.785c0.859,0,1.885-0.703,2.041-1.564l4.694-27.695c0.102-0.756-0.383-1.13-0.974-1.13
			h-17.025c-0.539,0-1.242,0.374-1.51,0.809l-19.075,28.069c-0.322,0.486,0.164,1.512,1.077,1.512h10.567
			c1.554,0,2.094-0.164,3.119-1.512l9.968-15.355l-0.968,6.197H166.472L166.472,56.303z"/>
		<path fill-rule="evenodd" clip-rule="evenodd" fill="#002d62" d="M198.959,58.508l2.317-5.49h0.643
			c0.542,0,1.193-0.539,1.409-1.078l3.605-8.517c0.167-0.374-0.164-1.078-0.536-1.078h-2.263l-10.35,24.628h-12.338
			c-0.859,0-1.938-0.703-1.614-1.617l11.644-27.591c0.536-1.233,1.346-1.182,1.885-1.182h18.423h0.053h6.196
			c2.424,0,4.257,2.372,3.234,5.014l-5.174,12.063c-0.536,1.512-2.424,2.912-4.31,2.912c1.295,1.076,1.781,4.527,1.183,6.09
			l-1.078,2.746c-0.322,0.756-1.453,1.564-2.26,1.564h-10.186c-0.808,0-1.614-1.078-1.234-1.885l1.828-4.313
			c0.484-1.189-0.375-2.207-0.698-2.207L198.959,58.508L198.959,58.508z"/>
		<path fill-rule="evenodd" clip-rule="evenodd" fill="#002d62" d="M273.962,49.732l-0.268-12.02c0-0.539-0.862-1.13-1.294-1.13
			h-10.24c-0.753,0-1.398,0-1.883,1.077l-11.586,27.428c-0.539,1.234,0.323,1.885,1.242,1.885h10.664
			c1.026,0,2.208-0.756,2.641-1.781l4.53-10.881l0.911,11.098c0.052,1.721,1.939,0.914,2.643,0l8.837-11.688l-4.58,11.471
			c-0.539,1.512,1.026,1.781,1.885,1.781h9.751c0.914,0,1.885-0.809,2.26-1.668l10.454-27.105c0.271-0.808-0.269-1.616-0.964-1.616
			h-13.851c-0.811,0-1.617,0.435-2.104,1.13L273.962,49.732L273.962,49.732z"/>
		<path fill-rule="evenodd" clip-rule="evenodd" fill="#002d62" d="M255.479,40.998l-9.429,22.422
			c-0.757,1.885-3.449,3.553-5.493,3.553h-20.368c-2.156,0-4.26-3.824-3.393-5.979l9.639-22.795
			c0.541-1.182,2.155-1.616,3.502-1.616h23.117C254.724,36.583,256.07,39.651,255.479,40.998L255.479,40.998z M239.157,42.51h1.236
			c0.435,0,0.861,0.973,0.651,1.399l-6.629,15.841c-0.271,0.645-1.133,1.244-1.888,1.244h-1.078c-0.435,0-1.078-0.92-0.859-1.408
			l6.684-15.677C237.543,43.213,238.35,42.51,239.157,42.51L239.157,42.51z"/>
		<g>
			<path fill="#002d62" d="M124.473,77.785l-0.629,0.129v-7.305h1.181c0.692,0,1.247,0.191,1.663,0.578
				c0.417,0.385,0.625,0.898,0.625,1.539c0,0.547-0.155,1.006-0.464,1.375c-0.313,0.373-0.726,0.6-1.244,0.678l2.21,2.746
				l-0.579,0.361l-2.761-3.619l0.5,0.008c0.522,0,0.927-0.133,1.22-0.402c0.291-0.27,0.438-0.645,0.438-1.125
				c0-0.482-0.146-0.857-0.438-1.127c-0.293-0.27-0.698-0.404-1.22-0.404h-0.5V77.785z"/>
			<path fill="#002d62" d="M131.762,71.953c0.603-0.604,1.339-0.904,2.208-0.904c0.867,0,1.6,0.301,2.2,0.904
				c0.6,0.605,0.9,1.352,0.9,2.242c0,0.885-0.302,1.631-0.906,2.234c-0.602,0.604-1.336,0.906-2.204,0.906
				c-0.869,0-1.604-0.301-2.204-0.904c-0.6-0.602-0.9-1.346-0.9-2.236S131.159,72.559,131.762,71.953z M130.516,75.682
				c0.207,0.482,0.496,0.902,0.867,1.256c0.345,0.33,0.737,0.58,1.175,0.752c0.438,0.17,0.908,0.256,1.413,0.256
				c0.503,0,0.971-0.086,1.405-0.256c0.434-0.172,0.824-0.422,1.169-0.752c0.369-0.35,0.657-0.764,0.863-1.248
				c0.209-0.484,0.312-0.984,0.312-1.494c0-0.533-0.099-1.033-0.3-1.502c-0.203-0.469-0.493-0.881-0.875-1.234
				c-0.353-0.336-0.745-0.586-1.177-0.756c-0.433-0.168-0.898-0.252-1.397-0.252c-0.504,0-0.975,0.084-1.413,0.256
				c-0.438,0.17-0.831,0.42-1.175,0.752c-0.371,0.354-0.661,0.771-0.867,1.25s-0.309,0.975-0.309,1.486
				C130.207,74.703,130.309,75.197,130.516,75.682z"/>
			<path fill="#002d62" d="M140.852,77.934l-0.62-0.137l1.489-7.428l2.43,5.98l2.44-5.98l1.479,7.428l-0.62,0.137l-1.068-5.447
				l-2.231,5.447l-2.229-5.447L140.852,77.934z"/>
			<path fill="#002d62" d="M155.027,74.307h-2.588l1.288-2.588L155.027,74.307z M152.122,74.906h3.197l1.489,2.951l0.617-0.189
				l-3.667-7.279L150,77.684l0.604,0.174L152.122,74.906z"/>
			<path fill="#002d62" d="M160.589,77.785l-0.63,0.139v-7.439l4.85,5.783v-5.658l0.629-0.125v7.439l-4.849-5.807V77.785z"/>
			<path fill="#002d62" d="M169.526,77.785l-0.651,0.092v-7.268l0.651-0.094V77.785z"/>
			<path fill="#002d62" d="M177.122,74.307h-2.588l1.289-2.588L177.122,74.307z M174.217,74.906h3.197l1.489,2.951l0.619-0.189
				l-3.668-7.279l-3.76,7.295l0.602,0.174L174.217,74.906z"/>
			<path fill="#002d62" d="M182.684,77.785l-0.627,0.139v-7.439l4.848,5.783v-5.658l0.627-0.125v7.439l-4.848-5.807V77.785z"/>
			<path fill="#002d62" d="M200.068,74.307h-2.591l1.289-2.588L200.068,74.307z M197.162,74.906h3.195l1.489,2.951l0.619-0.189
				l-3.668-7.279l-3.76,7.295l0.604,0.174L197.162,74.906z"/>
			<path fill="#002d62" d="M205.689,77.785l-0.65,0.092v-7.268l0.65-0.094V77.785z"/>
			<path fill="#002d62" d="M209.777,77.785l-0.63,0.129v-7.305h1.182c0.692,0,1.245,0.191,1.664,0.578
				c0.414,0.385,0.622,0.898,0.622,1.539c0,0.547-0.156,1.006-0.466,1.375c-0.311,0.373-0.724,0.6-1.242,0.678l2.208,2.746
				l-0.575,0.361l-2.763-3.619l0.5,0.008c0.523,0,0.93-0.133,1.221-0.402c0.292-0.27,0.438-0.645,0.438-1.125
				c0-0.482-0.146-0.857-0.438-1.127c-0.291-0.27-0.697-0.404-1.221-0.404h-0.5V77.785z"/>
			<path fill="#002d62" d="M222.806,77.785l-0.641,0.092v-6.65h-1.989l0.162-0.617h4.299v0.617h-1.831V77.785z"/>
			<path fill="#002d62" d="M228.183,77.785l-0.628,0.129v-7.305h1.18c0.692,0,1.247,0.191,1.664,0.578
				c0.416,0.385,0.622,0.898,0.622,1.539c0,0.547-0.153,1.006-0.464,1.375c-0.31,0.373-0.724,0.6-1.241,0.678l2.21,2.746
				l-0.58,0.361l-2.763-3.619l0.502,0.008c0.521,0,0.927-0.133,1.222-0.402c0.289-0.27,0.435-0.645,0.435-1.125
				c0-0.482-0.146-0.857-0.435-1.127c-0.295-0.27-0.7-0.404-1.222-0.404h-0.502V77.785z"/>
			<path fill="#002d62" d="M238.558,74.307h-2.588l1.289-2.588L238.558,74.307z M235.652,74.906h3.197l1.489,2.951l0.617-0.189
				l-3.666-7.279l-3.76,7.295l0.602,0.174L235.652,74.906z"/>
			<path fill="#002d62" d="M244.119,77.785l-0.63,0.139v-7.439l4.848,5.783v-5.658l0.631-0.125v7.439l-4.849-5.807V77.785z"/>
			<path fill="#002d62" d="M252.089,76.656l0.519-0.379c0.213,0.346,0.463,0.604,0.752,0.777s0.612,0.26,0.974,0.26
				c0.467,0,0.847-0.133,1.148-0.398s0.456-0.602,0.456-1.008c0-0.676-0.573-1.184-1.719-1.529
				c-0.122-0.033-0.211-0.061-0.273-0.082c-0.588-0.178-1.016-0.42-1.289-0.723c-0.272-0.305-0.408-0.697-0.408-1.176
				c0-0.541,0.203-1,0.611-1.375c0.406-0.375,0.92-0.563,1.536-0.563c0.381,0,0.722,0.066,1.023,0.199s0.609,0.35,0.914,0.648
				l-0.419,0.486c-0.276-0.262-0.534-0.447-0.773-0.561c-0.242-0.109-0.503-0.166-0.786-0.166c-0.401,0-0.745,0.131-1.026,0.393
				s-0.419,0.576-0.419,0.949c0,0.23,0.055,0.434,0.161,0.609c0.109,0.172,0.273,0.32,0.498,0.439
				c0.166,0.092,0.466,0.201,0.897,0.326c0.24,0.068,0.422,0.123,0.55,0.164c0.526,0.182,0.924,0.43,1.192,0.746
				c0.266,0.318,0.396,0.701,0.396,1.152c0,0.592-0.213,1.09-0.643,1.488s-0.977,0.598-1.636,0.598c-0.458,0-0.88-0.111-1.268-0.332
				C252.67,77.379,252.35,77.064,252.089,76.656z"/>
			<path fill="#002d62" d="M262.332,71.693c0.333,0.318,0.5,0.756,0.5,1.314c0,0.561-0.167,0.998-0.5,1.314
				c-0.331,0.318-0.794,0.477-1.388,0.477h-0.563v-3.582h0.563C261.538,71.217,262.001,71.375,262.332,71.693z M260.382,75.408
				h0.572c0.764,0,1.375-0.221,1.836-0.658c0.461-0.439,0.692-1.018,0.692-1.742c0-0.723-0.231-1.305-0.692-1.742
				s-1.072-0.656-1.836-0.656h-1.202v7.305l0.63-0.129V75.408z"/>
			<path fill="#002d62" d="M267.81,71.953c0.602-0.604,1.339-0.904,2.208-0.904c0.867,0,1.602,0.301,2.2,0.904
				c0.602,0.605,0.901,1.352,0.901,2.242c0,0.885-0.303,1.631-0.904,2.234c-0.604,0.604-1.341,0.906-2.207,0.906
				c-0.867,0-1.604-0.301-2.203-0.904c-0.602-0.602-0.9-1.346-0.9-2.236S267.206,72.559,267.81,71.953z M266.563,75.682
				c0.206,0.482,0.495,0.902,0.867,1.256c0.347,0.33,0.737,0.58,1.177,0.752c0.438,0.17,0.906,0.256,1.411,0.256
				c0.503,0,0.972-0.086,1.406-0.256c0.435-0.172,0.822-0.422,1.169-0.752c0.367-0.35,0.656-0.764,0.864-1.248
				c0.209-0.484,0.313-0.984,0.313-1.494c0-0.533-0.102-1.033-0.302-1.502s-0.492-0.881-0.875-1.234
				c-0.352-0.336-0.744-0.586-1.177-0.756c-0.433-0.168-0.898-0.252-1.398-0.252c-0.505,0-0.974,0.084-1.411,0.256
				c-0.439,0.17-0.83,0.42-1.177,0.752c-0.372,0.354-0.661,0.771-0.867,1.25c-0.205,0.479-0.307,0.975-0.307,1.486
				C266.256,74.703,266.357,75.197,266.563,75.682z"/>
			<path fill="#002d62" d="M277.487,77.785l-0.63,0.129v-7.305h1.185c0.69,0,1.245,0.191,1.661,0.578
				c0.414,0.385,0.625,0.898,0.625,1.539c0,0.547-0.156,1.006-0.466,1.375c-0.31,0.373-0.727,0.6-1.245,0.678l2.211,2.746
				l-0.578,0.361l-2.763-3.619l0.5,0.008c0.523,0,0.93-0.133,1.224-0.402c0.289-0.27,0.436-0.645,0.436-1.125
				c0-0.482-0.146-0.857-0.436-1.127c-0.294-0.27-0.7-0.404-1.224-0.404h-0.5V77.785z"/>
			<path fill="#002d62" d="M285.52,77.785l-0.64,0.092v-6.65h-1.989l0.158-0.617h4.302v0.617h-1.831V77.785z"/>
		</g>
		<polygon fill-rule="evenodd" clip-rule="evenodd" fill="#002d62" points="85.235,91.963 90.528,91.963 129.177,0.027 
			123.771,0.027 85.235,91.963 		"/>
		<polygon fill-rule="evenodd" clip-rule="evenodd" fill="#002d62" points="2.351,91.973 76.437,91.973 77.15,91.918 77.801,91.752 
			78.454,91.426 79.113,91.039 79.713,90.605 80.207,90.061 80.638,89.463 80.911,88.803 116.733,3.197 116.945,2.537 
			117.007,1.991 116.945,1.445 116.787,0.953 116.46,0.573 116.021,0.301 115.528,0.08 114.875,0.027 85.825,0.027 85.227,0.134 
			84.626,0.354 84.028,0.68 83.482,1.119 82.389,2.105 81.35,3.197 0.493,88.803 0.167,89.35 0,89.895 0.053,90.387 0.272,90.879 
			0.652,91.313 1.145,91.699 1.691,91.918 2.351,91.973 		"/>
		<path fill-rule="evenodd" clip-rule="evenodd" fill="#FFFFFF" d="M67.208,32.078c12.038,0,21.815,9.839,21.815,21.869
			c0,12.09-9.777,21.93-21.815,21.93c-12.091,0-21.983-9.84-21.983-21.93C45.225,41.917,55.117,32.078,67.208,32.078L67.208,32.078z
			 M58.309,59.717c-1.764-0.213-2.748-0.488-4.183-0.328c-1.649,0.115-3.901,1.596-5.329,3.137
			c-1.206-2.588-1.869-5.496-1.869-8.578c0-11.1,9.067-20.221,20.28-20.221c4.778,0,9.289,1.756,12.746,4.618L58.309,59.717
			L58.309,59.717z M65.781,61.037l18.685,3.412c1.871-3.137,2.908-6.594,2.908-10.502c0-5.879-2.633-11.267-6.702-15L65.781,61.037
			L65.781,61.037z M66.712,64.174l9.396,7.695l-17.418-8.58c-1.595-0.436-3.129-0.549-4.618-0.604c-1.702-0.053-3.244,0.223-5,0.496
			c3.405,6.543,10.221,11.045,18.136,11.045c6.923,0,13.136-3.572,16.762-9.066L66.712,64.174L66.712,64.174z"/>
	</g>
</g>
</svg>
