<?xml version="1.0" encoding="UTF-8" standalone="no"?><!-- Generator: Gravit.io --><svg xmlns="http://www.w3.org/2000/svg" xmlns:xlink="http://www.w3.org/1999/xlink" style="isolation:isolate" viewBox="0 0 512 512" width="512pt" height="512pt"><defs><clipPath id="_clipPath_ytef5xs6TNzuzG20YZWS4iSLWGT4RS8o"><rect width="512" height="512"/></clipPath></defs><g clip-path="url(#_clipPath_ytef5xs6TNzuzG20YZWS4iSLWGT4RS8o)"><path d=" M 256.013 380.539 C 251.545 383.073 219.592 410.159 156.002 410.159 C 102.429 410.186 45.222 382.739 27.254 383.273 C 20.936 383.006 15.869 384.289 11.885 386.04 C 4.384 389.19 -2.9 384.589 1.167 376.889 C 15.269 350.236 39.172 333.834 61.824 327 C 78.343 322.016 93.428 320.332 101.262 329.033 C 118.464 348.135 149.567 371.721 179.804 374.822 C 182.238 375.072 193.222 375.989 193.339 372.888 C 193.459 370.988 189.722 369.754 185.938 369.471 C 155.051 367.238 99.395 334.184 68.808 270.177 C 57.324 246.157 48.206 222.871 28.22 212.737 C 23.786 210.603 23.653 202.419 32.954 200.202 C 39.472 198.652 80.56 194.701 127.548 219.438 C 149.117 230.789 152.134 240.973 152.201 249.858 C 152.017 316.932 185.955 343.552 199.073 351.419 C 206.374 355.786 213.208 357.653 213.941 355.37 C 214.524 353.453 212.608 352.153 210.924 351.136 C 170.236 326.433 159.485 288.429 159.168 249.741 C 158.868 211.47 173.037 178.35 183.088 151.213 C 184.571 147.379 189.338 131.211 185.288 116.243 C 182.254 105.075 184.721 101.824 190.589 101.824 C 197.039 101.824 205.624 112.259 208.507 115.843 C 210.824 118.526 218.308 127.661 229.643 150.046 C 252.062 194.368 252.212 240.673 252.212 246.341 C 252.212 278.161 244.011 281.845 230.643 288.445 C 217.292 295.046 210.941 303.547 210.924 313.415 C 210.898 323.549 217.958 334.1 230.643 337.818 C 240.461 340.685 246.695 339.601 246.178 337.051 C 245.778 335.034 241.428 334.534 240.161 334.184 C 226.776 330.55 217.908 323.699 217.908 313.415 C 217.908 300.58 233.727 291.162 255.979 291.162 C 278.249 291.162 294.067 300.58 294.067 313.415 C 294.067 323.699 285.216 330.567 271.831 334.184 C 270.564 334.535 266.214 335.033 265.814 337.051 C 265.298 339.618 271.531 340.701 281.366 337.818 C 294.034 334.117 301.084 323.566 301.068 313.415 C 301.054 303.564 294.7 295.046 281.366 288.445 C 267.997 281.845 259.78 278.161 259.78 246.357 C 259.78 240.69 259.946 194.368 282.349 150.046 C 293.684 127.677 301.168 118.526 303.485 115.843 C 306.368 112.259 314.953 101.824 321.404 101.824 C 327.271 101.824 329.738 105.075 326.704 116.243 C 322.687 131.211 327.422 147.379 328.888 151.213 C 338.955 178.383 353.14 211.47 352.84 249.741 C 352.507 288.445 341.772 326.45 301.085 351.152 C 299.418 352.153 297.451 353.453 298.068 355.37 C 298.784 357.67 305.618 355.819 312.919 351.436 C 326.054 343.568 359.974 316.932 359.808 249.858 C 359.861 240.973 362.875 230.789 384.461 219.438 C 431.449 194.701 472.537 198.669 479.038 200.202 C 488.339 202.419 488.222 210.62 483.788 212.737 C 463.786 222.871 454.668 246.174 443.201 270.177 C 412.614 334.184 356.941 367.254 326.054 369.488 C 322.27 369.754 318.52 371.005 318.653 372.905 C 318.773 375.989 329.754 375.072 332.188 374.822 C 362.425 371.738 393.528 348.152 410.73 329.033 C 418.581 320.349 433.649 322.016 450.185 327.016 C 472.82 333.834 496.723 350.236 510.825 376.905 C 514.909 384.606 507.624 389.19 500.107 386.056 C 496.123 384.306 491.056 383.023 484.738 383.273 C 466.786 382.755 409.58 410.192 355.974 410.176 C 292.4 410.176 260.463 383.073 256.013 380.539" fill="rgb(217,158,9)"/></g></svg>