<?xml version="1.0" encoding="UTF-8" standalone="no"?><!-- Generator: Gravit.io --><svg xmlns="http://www.w3.org/2000/svg" xmlns:xlink="http://www.w3.org/1999/xlink" style="isolation:isolate" viewBox="0 0 512 512" width="512pt" height="512pt"><defs><clipPath id="_clipPath_M6CZ8FiGRdgTPhKz01OER58Sas1kqjSV"><rect width="512" height="512"/></clipPath></defs><g clip-path="url(#_clipPath_M6CZ8FiGRdgTPhKz01OER58Sas1kqjSV)"><path d=" M 0 165.756 C 0 165.756 12.952 164.497 17.397 164.99 C 22.544 165.574 32.919 169.799 38.057 170.379 C 42.363 170.864 51.426 173.308 55.735 173.069 C 61.09 172.783 69.918 166.917 77.795 168.304 C 119.148 175.587 182.34 250.029 224.296 248.218 C 300.011 244.955 298.244 164.609 318.28 164.609 L 512 164.609 C 398.422 216.888 320.957 275.115 361.136 309.139 C 397.916 340.295 508.543 301.45 508.543 301.45 C 508.543 301.45 462.429 347.391 382.849 347.391 C 228.905 347.391 125.504 216.498 49.017 184.788 C 36.882 179.766 13.693 170.085 0 165.756" fill="rgb(82,159,201)"/></g></svg>