<?xml version="1.0" encoding="UTF-8" standalone="no"?><!-- Generator: Gravit.io --><svg xmlns="http://www.w3.org/2000/svg" xmlns:xlink="http://www.w3.org/1999/xlink" style="isolation:isolate" viewBox="0 0 512 512" width="512pt" height="512pt"><defs><clipPath id="_clipPath_xCeXa4zloinWy0nvo4w7oeARAlOoI02b"><rect width="512" height="512"/></clipPath></defs><g clip-path="url(#_clipPath_xCeXa4zloinWy0nvo4w7oeARAlOoI02b)"><circle vector-effect="non-scaling-stroke" cx="256" cy="256" r="256" fill="rgb(27,27,29)" /><path d=" M 384 176.596 C 374.582 180.781 364.467 183.606 353.832 184.862 C 364.675 178.365 373.005 168.074 376.934 155.815 C 366.78 161.824 355.545 166.21 343.582 168.554 C 333.995 158.352 320.344 151.974 305.228 151.974 C 276.221 151.974 252.719 175.484 252.719 204.491 C 252.719 208.604 253.175 212.621 254.072 216.462 C 210.421 214.27 171.723 193.36 145.812 161.584 C 141.299 169.346 138.707 178.365 138.707 187.991 C 138.707 206.22 147.981 222.288 162.065 231.714 C 153.462 231.434 145.364 229.081 138.283 225.144 C 138.275 225.36 138.275 225.592 138.275 225.8 C 138.275 251.255 156.375 272.484 180.405 277.309 C 176.004 278.502 171.363 279.15 166.57 279.15 C 163.177 279.15 159.896 278.822 156.695 278.214 C 163.369 299.067 182.774 314.255 205.747 314.687 C 187.783 328.77 165.137 337.18 140.531 337.18 C 136.29 337.18 132.105 336.932 128 336.444 C 151.238 351.328 178.845 360.026 208.508 360.026 C 305.108 360.026 357.945 279.998 357.945 210.589 C 357.945 208.316 357.881 206.044 357.785 203.787 C 368.052 196.385 376.95 187.143 384 176.596 Z " fill="rgb(0,103,79)"/></g></svg>