<?xml version="1.0" encoding="UTF-8" standalone="no"?><!-- Generator: Gravit.io --><svg xmlns="http://www.w3.org/2000/svg" xmlns:xlink="http://www.w3.org/1999/xlink" style="isolation:isolate" viewBox="0 0 512 512" width="512pt" height="512pt"><defs><clipPath id="_clipPath_aaHtW1v7L0Dx9ONTsJ4X3GY2FO5Cj4cY"><rect width="512" height="512"/></clipPath></defs><g clip-path="url(#_clipPath_aaHtW1v7L0Dx9ONTsJ4X3GY2FO5Cj4cY)"><path d="M 477.714 383.995 L 256.005 512 L 34.286 383.995 L 34.286 127.985 L 256.005 0 L 477.714 127.985 L 477.714 383.995 Z" fill-rule="evenodd" fill="rgb(0,0,128)" /><path d=" M 247.39 130.472 C 252.347 127.176 258.801 127.176 263.758 130.472 C 276.375 138.377 288.478 147.063 300.001 156.484 C 300.001 156.484 303.139 158.65 303.225 154.98 C 302.915 150.24 303.192 145.48 304.062 140.812 C 305.011 138.317 307.411 136.656 310.087 136.643 C 310.087 136.643 324.319 137.352 333.357 138.56 C 337.398 139.092 340.549 142.316 340.977 146.353 C 340.977 146.353 346.792 184.958 348.097 198.876 C 348.097 198.876 349.217 205.967 359.521 217.968 C 359.521 217.968 380.444 247.152 382.877 252.732 C 382.877 252.732 387.728 262.823 377.267 264.195 C 377.267 264.195 358.176 266.112 356.337 266.532 C 353.766 266.834 351.907 269.132 352.151 271.699 C 352.151 271.699 351.149 338.857 346.211 371.119 C 346.211 371.119 344.913 383.921 337.84 383.626 C 337.84 383.626 318.208 383.002 313.647 383.127 C 313.647 383.127 311.682 383.127 311.972 380.501 C 311.972 380.501 321.972 275.783 315.196 222.847 C 315.196 222.847 314.899 216.012 309.672 214.509 C 309.672 214.509 304.899 212.591 300.337 218.678 C 280.541 246.278 269.704 279.256 269.282 313.179 C 269.282 313.179 268.735 329.855 271.293 334.018 C 271.293 334.018 272.875 336.939 281.003 337.603 L 291.293 338.981 C 291.293 338.981 293.178 338.981 293.007 341.476 C 293.007 341.476 290.667 372.202 290.001 377.664 C 289.955 378.912 289.704 380.133 289.243 381.289 C 289.243 381.289 288.867 382.332 285.644 382.208 C 285.644 382.208 240.277 381.879 235.168 382.208 C 235.168 382.208 233.032 382.208 232.577 381.085 C 232.116 379.956 229.433 341.437 229.519 335.981 C 229.433 334.845 230.072 333.782 231.107 333.309 C 238.121 328.903 242.742 321.557 243.665 313.35 C 244.219 307.507 244.298 301.644 243.916 295.794 C 243.916 295.794 245.59 236.896 246.012 227.429 C 246.012 227.429 246.342 224.219 242.156 223.641 C 241.154 223.398 240.099 223.575 239.216 224.107 C 238.339 224.645 237.713 225.512 237.469 226.517 L 237.469 226.845 C 237.469 227.18 234.542 265.699 235.082 281.035 C 235.082 281.035 236.091 291.08 229.103 291.29 C 229.103 291.29 222.32 292.295 221.984 283.918 C 221.984 283.918 222.485 246.147 224.159 227.475 C 224.173 225.341 222.564 223.536 220.435 223.306 C 218.22 222.998 216.15 224.488 215.754 226.681 C 215.728 226.792 215.728 226.904 215.754 227.009 C 215.754 227.009 212.821 263.158 213.362 282.25 C 213.362 282.25 214.199 291.507 206.789 291.166 C 206.789 291.166 200.593 291.875 200.263 283.662 C 200.263 283.662 201.937 231.933 202.399 227.935 C 202.287 225.899 200.711 224.232 198.674 224.015 L 198.253 224.015 C 196.084 223.831 194.139 225.335 193.77 227.475 C 193.757 227.6 193.757 227.725 193.77 227.849 C 193.77 227.849 191.014 289.708 191.39 307.881 C 191.39 307.881 191.14 326.56 204.99 334.143 C 204.99 334.143 207.04 335.311 207.086 337.104 C 207.086 337.104 208.635 369.911 210.052 380.501 C 210.052 380.501 210.56 383.041 208.299 383.041 L 173.433 384 C 169.643 383.98 166.518 381.019 166.314 377.244 C 161.798 342.487 159.643 307.454 159.874 272.408 C 160.124 269.723 158.331 267.274 155.688 266.697 C 155.688 266.697 137.856 265.075 133.545 263.992 C 129.603 262.967 127.223 258.963 128.232 255.03 C 128.416 254.36 128.68 253.717 129.023 253.106 C 157.995 203.334 198.602 161.257 247.396 130.472 L 247.39 130.472 Z " fill="rgb(255,255,255)"/></g></svg>