<?xml version="1.0" encoding="UTF-8" standalone="no"?><!-- Generator: Gravit.io --><svg xmlns="http://www.w3.org/2000/svg" xmlns:xlink="http://www.w3.org/1999/xlink" style="isolation:isolate" viewBox="0 0 512 512" width="512pt" height="512pt"><defs><clipPath id="_clipPath_ds9ShGrkpGXPztHRkog2DLNypGG0fybE"><rect width="512" height="512"/></clipPath></defs><g clip-path="url(#_clipPath_ds9ShGrkpGXPztHRkog2DLNypGG0fybE)"><path d="M 477.714 383.995 L 256.005 512 L 34.286 383.995 L 34.286 127.985 L 256.005 0 L 477.714 127.985 L 477.714 383.995 Z" fill-rule="evenodd" fill="rgb(27,27,29)" /><path d=" M 298.677 170.662 L 256.031 213.277 L 256.031 213.4 L 298.677 256.015 L 256.031 298.631 L 256.031 298.723 L 298.677 341.338 L 384 256.015 L 331.311 203.307 L 298.677 170.662 L 298.677 170.662 Z  M 213.354 170.662 L 255.938 213.277 L 255.938 213.4 L 213.354 256.015 L 255.938 298.631 L 255.938 298.723 L 213.354 341.338 L 128 256.015 L 213.354 170.662 L 213.354 170.662 Z " fill-rule="evenodd" fill="rgb(0,0,128)"/></g></svg>