<?xml version="1.0" encoding="UTF-8" standalone="no"?><!-- Generator: Gravit.io --><svg xmlns="http://www.w3.org/2000/svg" xmlns:xlink="http://www.w3.org/1999/xlink" style="isolation:isolate" viewBox="0 0 512 512" width="512pt" height="512pt"><defs><clipPath id="_clipPath_U82LHXZrZ92bYUiWGOlRQR7U3oDlQrbY"><rect width="512" height="512"/></clipPath></defs><g clip-path="url(#_clipPath_U82LHXZrZ92bYUiWGOlRQR7U3oDlQrbY)"><path d="M 477.714 383.995 L 256.005 512 L 34.286 383.995 L 34.286 127.985 L 256.005 0 L 477.714 127.985 L 477.714 383.995 Z" fill-rule="evenodd" fill="rgb(0,103,79)" /><path d=" M 347.909 128 L 255.972 128 L 164.034 128 L 130.98 176.679 L 139.581 362.243 C 140.149 374.42 150.183 384 162.374 384 L 196.932 384 L 196.932 315.054 C 196.932 312.145 195.867 309.335 193.937 307.163 L 184.656 296.689 C 182.413 294.149 181.164 289.721 181.164 286.329 L 181.164 221.612 C 181.164 218.958 183.321 216.801 185.975 216.801 L 194.917 216.801 L 194.917 272.179 C 194.917 274.762 197.003 276.848 199.6 276.848 L 200.253 276.848 C 202.836 276.848 204.922 274.762 204.922 272.179 L 204.922 216.801 L 211.365 216.801 L 217.809 216.801 L 217.809 272.179 C 217.809 274.762 219.895 276.848 222.492 276.848 L 223.145 276.848 C 225.728 276.848 227.828 274.762 227.828 272.179 L 227.828 216.801 L 236.769 216.801 C 239.423 216.801 241.581 218.944 241.581 221.612 L 241.581 286.329 C 241.581 289.721 240.332 294.163 238.089 296.689 L 228.808 307.163 C 226.877 309.335 225.813 312.145 225.813 315.054 L 225.813 384 L 256.014 384 L 286.059 384 L 286.059 309.335 C 286.059 305.176 284.03 301.855 281.22 298.974 C 279.602 297.81 278.083 296.491 276.65 295.043 C 276.636 295.043 276.636 295.029 276.621 295.029 L 276.621 295.015 C 268.972 287.251 264.118 275.529 264.118 262.032 C 264.118 237.678 279.928 213.04 299.414 213.04 C 318.914 213.04 334.724 237.692 334.724 262.032 C 334.724 275.529 329.871 287.251 322.221 295.015 L 322.221 295.029 C 322.207 295.043 322.207 295.043 322.193 295.043 C 320.759 296.491 319.241 297.81 317.637 298.974 C 314.813 301.855 312.797 305.176 312.797 309.335 L 312.797 384 L 349.612 384 C 361.803 384 371.837 374.42 372.405 362.243 L 381.02 176.679 L 347.909 128 Z  M 309.604 178.028 L 255.972 178.028 L 202.339 178.028 L 202.339 154.256 C 202.339 151.46 204.638 149.189 207.462 149.189 L 255.972 149.189 L 304.481 149.189 C 307.305 149.189 309.604 151.46 309.604 154.256 L 309.604 178.028 L 309.604 178.028 Z " fill="rgb(196,196,196)"/></g></svg>