<?xml version="1.0" encoding="UTF-8" standalone="no"?><!-- Generator: Gravit.io --><svg xmlns="http://www.w3.org/2000/svg" xmlns:xlink="http://www.w3.org/1999/xlink" style="isolation:isolate" viewBox="0 0 512 512" width="512pt" height="512pt"><defs><clipPath id="_clipPath_vuZSlyKB0V8QuE0AG5vxo67eoWsdJnOs"><rect width="512" height="512"/></clipPath></defs><g clip-path="url(#_clipPath_vuZSlyKB0V8QuE0AG5vxo67eoWsdJnOs)"><circle vector-effect="non-scaling-stroke" cx="256" cy="256" r="256" fill="rgb(27,27,29)" /><path d=" M 379.796 270.177 C 379.636 257.839 372.636 199.408 369.274 190.329 C 367.1 184.463 362.502 173.777 353.97 167.259 C 343.058 158.925 334.159 157.412 322.813 157.178 C 314.898 157.016 187.549 173.451 172.131 179.225 C 160.625 183.531 151.589 189.072 144.497 196.195 C 132.968 207.788 130.749 219.056 132.579 238.866 C 134.249 256.815 142.507 316.387 146.625 328.701 C 151.177 342.32 159.549 352.772 173.366 354.262 C 215.526 358.871 225.477 335.313 323.499 335.522 C 353.192 335.592 367.947 322.393 374.1 310.893 C 381.283 297.367 379.911 279.582 379.796 270.177 L 379.796 270.177 Z " fill="rgb(27,27,29)"/><path d=" M 319.633 161.695 L 319.748 161.695 C 330.591 161.905 339.078 163.371 349.486 171.31 C 357.63 177.525 362.022 187.722 364.081 193.332 C 367.283 201.992 373.963 257.746 374.123 269.525 C 374.238 278.488 375.564 295.482 368.679 308.379 C 362.845 319.32 348.8 331.867 320.617 331.867 C 320.548 331.867 320.48 331.867 320.411 331.867 C 319.976 331.867 319.565 331.867 319.13 331.867 C 235.062 331.867 219.598 350.305 187.275 350.305 C 184.095 350.305 180.755 350.118 177.187 349.746 C 164.01 348.303 156.027 338.339 151.68 325.349 C 147.746 313.593 139.876 256.768 138.275 239.635 C 136.514 220.732 138.641 209.977 149.644 198.919 C 156.393 192.121 165.017 186.837 176.02 182.74 C 190.615 177.246 311.055 161.695 319.633 161.695 L 319.633 161.695 Z  M 319.633 151.802 C 314.189 151.802 278.594 156.225 248.787 160.345 C 218.958 164.466 181.556 170.099 172.634 173.428 C 160.327 178.037 150.559 184.067 142.804 191.865 C 128.53 206.205 126.791 221.128 128.576 240.566 C 129.971 255.628 137.909 314.967 142.461 328.538 C 148.592 346.859 160.533 357.87 176.111 359.57 C 179.955 359.989 183.615 360.198 187.252 360.198 C 200.909 360.198 211.729 357.242 224.265 353.82 C 243.984 348.442 268.506 341.761 319.13 341.761 L 320.388 341.761 L 320.617 341.761 C 333.016 341.761 363.372 338.968 377.189 313.104 C 384.577 299.276 384.143 282.492 383.891 272.459 C 383.868 271.341 383.845 270.317 383.822 269.386 C 383.662 257.42 376.937 200.106 373.162 189.84 C 368.793 177.991 362.777 169.098 355.297 163.395 C 343.104 154.083 332.741 152.058 319.954 151.802 L 319.862 151.802 L 319.633 151.802 Z " fill="rgb(255,255,255)"/><path d=" M 294.127 254.161 C 293.807 254.347 293.486 254.557 293.189 254.743 C 290.719 256.419 288.271 258.118 285.823 259.818 C 280.15 263.752 247.117 286.612 247.117 286.612 C 244.304 288.777 239.019 292.176 237.006 291.105 C 234.993 290.011 234.284 282.632 233.804 279.047 L 233.689 278.255 C 233.095 273.948 228.337 232.93 227.788 228.414 C 227.627 227.134 226.85 222.454 228.291 221.384 C 229.823 220.243 233.712 221.547 235.016 221.966 C 242.634 224.41 280.79 237.935 292.663 244.011 C 293.006 244.197 293.395 244.36 293.784 244.523 C 295.477 245.245 297.81 246.246 297.856 249.133 C 297.879 251.88 295.797 253.137 294.127 254.161 L 294.127 254.161 Z " fill="rgb(27,27,29)"/><path d=" M 233.118 227.436 C 246.363 231.976 277.016 243.033 291.451 249.552 C 289.712 250.739 287.973 251.949 286.235 253.16 C 279.509 257.816 240.415 284.89 240.415 284.89 L 240.209 285.029 L 240.026 285.169 C 240.026 285.169 240.003 285.169 240.003 285.192 C 239.957 284.866 239.935 284.587 239.889 284.331 L 239.683 282.748 L 239.546 281.77 C 239.042 278.139 235.886 251.181 234.01 235.072 C 233.667 232.139 233.369 229.508 233.118 227.436 L 233.118 227.436 Z  M 225.706 215.261 C 224.859 215.261 224.105 215.401 223.578 215.797 C 221.863 217.054 222.801 222.617 222.984 224.131 C 223.624 229.462 229.274 278.069 229.961 283.167 L 230.075 284.098 C 230.647 288.358 231.471 297.111 233.872 298.392 C 234.193 298.555 234.582 298.648 235.016 298.648 C 237.876 298.648 242.977 295.319 245.859 293.084 C 245.859 293.084 284.977 266.01 291.702 261.354 C 294.607 259.329 297.513 257.327 300.441 255.348 C 300.807 255.115 301.173 254.883 301.562 254.65 C 303.552 253.439 305.999 251.926 305.954 248.69 C 305.885 245.291 303.14 244.104 301.127 243.243 C 300.669 243.057 300.235 242.847 299.823 242.638 C 285.777 235.444 240.575 219.428 231.562 216.518 C 230.418 216.146 227.788 215.261 225.706 215.261 L 225.706 215.261 Z " fill="rgb(255,255,255)"/></g></svg>