<?xml version="1.0" encoding="UTF-8" standalone="no"?><!-- Generator: Gravit.io --><svg xmlns="http://www.w3.org/2000/svg" xmlns:xlink="http://www.w3.org/1999/xlink" style="isolation:isolate" viewBox="0 0 1451.339 1451.339" width="1451.339pt" height="1451.339pt"><defs><clipPath id="_clipPath_RpCSEJG5KUJRk5uKIgO5wUICzlWjHWfU"><rect width="1451.339" height="1451.339"/></clipPath></defs><g clip-path="url(#_clipPath_RpCSEJG5KUJRk5uKIgO5wUICzlWjHWfU)"><rect x="0" y="0" width="1451.339" height="1451.339" transform="matrix(1,0,0,1,0,0)" fill="rgb(27,27,29)"/><path d=" M 365.991 644.492 C 362.669 647.115 361.969 651.485 363.892 657.606 C 365.641 663.026 369.75 669.756 376.219 677.799 C 402.269 709.971 433.303 736.72 469.32 758.051 C 505.337 779.382 543.89 795.117 584.977 805.257 C 626.239 815.573 668.375 820.73 711.385 820.73 C 766.46 820.73 818.912 812.689 868.741 796.602 C 918.569 780.692 960.181 758.312 993.577 729.464 C 1005.29 719.15 1011.147 710.932 1011.147 704.812 C 1011.147 702.539 1010.186 700.266 1008.263 697.993 C 1005.64 695.372 1002.493 694.497 998.821 695.372 C 995.149 696.244 989.992 698.43 983.348 701.927 C 951.352 718.712 912.364 732.087 866.38 742.053 C 820.573 752.194 772.754 757.264 722.925 757.264 C 661.207 757.264 601.587 748.872 544.064 732.087 C 486.542 715.302 435.576 689.077 391.167 653.41 C 384.699 648.34 379.453 645.104 375.432 643.705 C 371.585 642.307 368.438 642.57 365.991 644.492 L 365.991 644.492 Z  M 948.719 657.621 C 945.048 661.118 944.086 664.79 945.835 668.637 C 947.059 671.434 949.419 673.007 952.917 673.357 C 956.412 673.881 961.396 673.531 967.864 672.308 C 978.355 670.036 989.282 668.461 1000.647 667.587 C 1012.012 666.888 1021.891 667.062 1030.282 668.111 C 1038.676 669.335 1043.92 671.434 1046.019 674.406 C 1049.166 679.127 1048.029 689.092 1042.609 704.304 C 1037.364 719.514 1030.195 734.288 1021.103 748.626 C 1017.606 754.394 1015.509 758.94 1014.809 762.263 C 1014.11 765.585 1014.985 768.382 1017.432 770.655 C 1019.005 772.228 1020.753 773.015 1022.676 773.015 C 1027.748 773.015 1035.091 768.556 1044.707 759.64 C 1062.017 744.604 1074.167 726.77 1081.161 706.14 C 1085.007 695.473 1087.367 684.285 1088.242 672.57 C 1089.116 660.857 1087.804 652.463 1084.307 647.393 C 1080.986 642.497 1073.643 638.476 1062.278 635.33 C 1051.089 632.183 1039.811 630.608 1028.447 630.608 C 1006.241 630.608 985.174 635.854 965.243 646.345 C 957.9 650.366 952.392 654.125 948.719 657.621 Z " fill-rule="evenodd" fill="rgb(85,0,0)"/></g></svg>