<?xml version="1.0" encoding="UTF-8" standalone="no"?><!-- Generator: Gravit.io --><svg xmlns="http://www.w3.org/2000/svg" xmlns:xlink="http://www.w3.org/1999/xlink" style="isolation:isolate" viewBox="0 0 512 512" width="512pt" height="512pt"><defs><clipPath id="_clipPath_tB1MP3NX2UVI3mCzP3QdTYy6J5DSOXZP"><rect width="512" height="512"/></clipPath></defs><g clip-path="url(#_clipPath_tB1MP3NX2UVI3mCzP3QdTYy6J5DSOXZP)"><path d="M 477.714 383.995 L 256.005 512 L 34.286 383.995 L 34.286 127.985 L 256.005 0 L 477.714 127.985 L 477.714 383.995 Z" fill-rule="evenodd" fill="rgb(239,191,4)" /><path d=" M 229.201 224.25 C 224.893 221.384 210.578 211.424 210.578 211.424 C 222.649 194.12 238.572 187.384 260.581 187.384 C 276.146 187.384 289.362 192.632 298.798 202.563 C 308.238 212.497 313.622 226.704 314.847 244.871 C 320.08 247.065 324.912 249.649 329.3 252.605 C 346.993 264.531 356.737 282.362 356.737 302.806 C 356.737 346.256 321.197 384 256.866 384 C 201.63 384 144.245 351.796 144.245 255.904 C 144.245 160.558 199.83 128 256.71 128 C 282.976 128 344.586 131.889 367.755 208.569 L 346.028 214.218 C 328.114 159.586 290.555 150.891 256.117 150.891 C 199.191 150.891 166.991 185.631 166.991 259.543 C 166.991 325.816 202.982 361.023 256.873 361.023 C 301.208 361.023 334.265 337.93 334.265 304.125 C 334.265 281.119 314.978 270.103 313.991 270.103 C 310.225 289.843 300.128 323.047 255.803 323.047 C 229.978 323.047 207.712 305.169 207.712 281.744 C 207.712 248.293 239.374 236.187 264.379 236.187 C 273.743 236.187 285.043 236.819 290.927 238.019 C 290.927 227.824 282.322 210.376 260.584 210.376 C 240.653 210.372 235.598 216.852 229.201 224.25 L 229.201 224.25 Z  M 267.436 259.034 C 234.864 259.034 230.65 272.951 230.65 281.693 C 230.65 295.737 247.299 300.392 256.183 300.392 C 272.467 300.392 289.196 295.867 291.827 261.611 C 283.569 259.753 277.414 259.034 267.436 259.034 L 267.436 259.034 Z " fill="rgb(237,29,36)"/></g></svg>