<?xml version="1.0" encoding="UTF-8" standalone="no"?><!-- Generator: Gravit.io --><svg xmlns="http://www.w3.org/2000/svg" xmlns:xlink="http://www.w3.org/1999/xlink" style="isolation:isolate" viewBox="0 0 512 512" width="512pt" height="512pt"><defs><clipPath id="_clipPath_n8Y7mDjxHnSmKxR7wskJQeAaqVwpbkg6"><rect width="512" height="512"/></clipPath></defs><g clip-path="url(#_clipPath_n8Y7mDjxHnSmKxR7wskJQeAaqVwpbkg6)"><circle vector-effect="non-scaling-stroke" cx="256" cy="256" r="256" fill="rgb(27,27,29)" /><path d=" M 201.539 191.177 L 153.854 191.177 L 153.854 383.998 L 201.539 383.998 L 201.539 191.177 Z  M 351.077 202.203 C 351.077 161.288 317.759 128 276.803 128 L 153.854 128 L 153.854 169.179 L 270.957 169.179 C 289.492 169.179 304.845 183.74 305.184 201.637 C 305.354 210.598 301.99 219.055 295.714 225.45 C 289.436 231.847 281.047 235.373 272.094 235.373 L 226.476 235.373 C 224.857 235.373 223.539 236.689 223.539 238.309 L 223.539 274.906 C 223.539 275.529 223.731 276.124 224.093 276.625 L 301.49 384 L 358.146 384 L 280.569 276.331 C 319.637 274.37 351.078 241.545 351.078 202.204 L 351.077 202.203 Z " fill-rule="evenodd" fill="rgb(102,0,51)"/></g></svg>