<?xml version="1.0" encoding="UTF-8" standalone="no"?><!-- Generator: Gravit.io --><svg xmlns="http://www.w3.org/2000/svg" xmlns:xlink="http://www.w3.org/1999/xlink" style="isolation:isolate" viewBox="0 0 512 512" width="512pt" height="512pt"><defs><clipPath id="_clipPath_ZtnmxENuH6YqciNHaj0MtDBYhRB6TmWv"><rect width="512" height="512"/></clipPath></defs><g clip-path="url(#_clipPath_ZtnmxENuH6YqciNHaj0MtDBYhRB6TmWv)"><path d="M 477.714 383.995 L 256.005 512 L 34.286 383.995 L 34.286 127.985 L 256.005 0 L 477.714 127.985 L 477.714 383.995 Z" fill-rule="evenodd" fill="rgb(27,27,29)" /><g><path d=" M 201.723 211.093 L 129.958 211.093 L 129.958 226.481 L 179.76 226.481 L 130.657 287.334 C 129.119 289.573 128 291.671 128 296.427 L 128 300.344 L 195.708 300.344 C 199.065 300.344 201.864 297.547 201.864 294.189 L 201.864 285.935 L 149.543 285.935 L 195.708 228.019 C 196.407 227.18 197.666 225.642 198.226 224.942 L 198.506 224.522 C 201.164 220.605 201.723 217.248 201.723 213.191 L 201.723 211.093 Z  M 293.069 300.344 L 303.281 300.344 L 303.281 211.093 L 287.893 211.093 L 287.893 295.168 C 287.893 297.967 290.131 300.344 293.069 300.344 Z  M 348.747 230.399 C 329.302 230.399 313.494 246.207 313.494 265.652 C 313.494 285.097 329.302 300.905 348.747 300.905 C 368.192 300.905 384 285.097 384 265.652 C 384 246.207 368.192 230.399 348.747 230.399 Z  M 348.747 286.496 C 337.276 286.496 328.043 277.263 328.043 265.792 C 328.043 254.32 337.276 245.087 348.747 245.087 C 360.218 245.087 369.451 254.32 369.451 265.792 C 369.451 277.263 360.218 286.496 348.747 286.496 Z " fill-rule="evenodd" fill="rgb(0,0,128)"/><path d=" M 267.348 300.342 L 275.602 300.342 L 275.602 232.914 L 261.193 232.914 L 261.193 294.327 C 261.193 297.545 263.991 300.342 267.348 300.342 Z " fill="rgb(0,0,128)"/><path d=" M 240.471 230.961 C 221.166 230.961 205.498 246.629 205.498 265.934 C 205.498 285.239 221.166 300.907 240.471 300.907 C 259.776 300.907 275.444 285.239 275.444 265.934 C 275.585 246.629 259.917 230.961 240.471 230.961 Z  M 240.471 286.498 C 229.14 286.498 219.907 277.265 219.907 265.934 C 219.907 254.603 229.14 245.37 240.471 245.37 C 251.802 245.37 261.035 254.603 261.035 265.934 C 261.035 277.265 251.942 286.498 240.471 286.498 Z " fill="rgb(0,0,128)"/></g></g></svg>