<?xml version="1.0" encoding="UTF-8" standalone="no"?><!-- Generator: Gravit.io --><svg xmlns="http://www.w3.org/2000/svg" xmlns:xlink="http://www.w3.org/1999/xlink" style="isolation:isolate" viewBox="0 0 512 512" width="512pt" height="512pt"><defs><clipPath id="_clipPath_IDXJOZTPtSypK7gXgVrrsfTwmXzHtHgb"><rect width="512" height="512"/></clipPath></defs><g clip-path="url(#_clipPath_IDXJOZTPtSypK7gXgVrrsfTwmXzHtHgb)"><circle vector-effect="non-scaling-stroke" cx="256" cy="256" r="256" fill="rgb(0,0,128)" /><path d=" M 199.711 312.978 C 200.435 311.58 203.748 305.2 204.495 303.779 L 204.635 303.523 C 226.847 261.725 253.912 222.278 285.061 186.324 L 285.924 185.323 C 286.181 185.02 286.228 184.555 286.041 184.205 C 285.831 183.833 285.434 183.647 285.037 183.693 L 283.731 183.879 C 263.293 186.697 242.596 190.586 222.205 195.453 C 220.174 196.011 218.868 197.339 218.587 197.641 C 203.327 215.874 188.885 235.062 175.632 254.739 C 174.98 255.74 174.745 257.044 174.909 258.115 C 175.049 259.163 178.246 283.73 183.098 302.592 C 171.06 337.172 160.303 382.743 160.303 382.743 C 160.21 383.045 160.279 383.348 160.443 383.605 C 160.63 383.86 160.909 384 161.237 384 L 168.097 384 C 168.539 384 168.913 383.743 169.076 383.348 L 169.543 382.067 C 176.543 363.019 184.522 344.204 193.342 325.854 C 195.371 321.593 199.711 312.978 199.711 312.978 Z  M 295.117 193.8 L 295.094 192.496 C 295.07 192.077 294.813 191.727 294.44 191.588 C 294.066 191.448 293.624 191.564 293.343 191.867 L 292.48 192.845 C 256.153 234.783 225.611 281.309 201.719 331.163 L 201.158 332.329 C 200.972 332.701 201.041 333.144 201.322 333.446 C 201.508 333.632 201.764 333.749 202.021 333.749 C 202.138 333.749 202.278 333.725 202.418 333.68 L 203.608 333.19 C 224.024 324.761 244.86 317.449 265.555 311.464 C 266.792 311.116 267.841 310.23 268.424 309.09 C 277.5 291.438 298.569 257.254 298.569 257.254 C 299.106 256.486 298.966 255.345 298.966 255.345 C 298.966 255.345 295.35 214.478 295.117 193.8 Z  M 342.085 134.839 C 336.929 130.368 329.439 128.272 317.82 128.016 C 307.273 127.783 294.744 130.065 280.535 134.723 C 278.411 135.468 276.708 136.655 275.191 138.122 C 260.748 151.652 246.703 166.019 233.427 180.829 L 232.399 181.947 C 232.12 182.273 232.073 182.739 232.283 183.088 C 232.494 183.46 232.937 183.647 233.356 183.554 L 234.849 183.227 C 256.246 178.663 277.852 175.17 299.061 172.865 C 300.46 172.702 301.907 173.168 302.933 174.123 C 303.984 175.077 304.567 176.451 304.543 177.872 C 304.193 198.876 304.964 219.973 306.829 240.581 L 306.946 241.932 C 306.993 242.351 307.273 242.677 307.693 242.793 C 307.763 242.817 307.833 242.817 307.926 242.84 C 308.23 242.84 308.556 242.7 308.767 242.421 L 309.536 241.326 C 321.483 224.327 334.479 207.794 348.151 192.146 C 349.691 190.4 350.088 189.305 350.367 187.722 C 354.66 160.291 348.034 139.985 342.085 134.839 Z " fill-rule="evenodd" fill="rgb(255,255,255)"/></g></svg>