<svg xmlns="http://www.w3.org/2000/svg" width="512pt" height="512pt" style="isolation:isolate" viewBox="0 0 512 512"><defs><clipPath id="a"><path d="M0 0h512v512H0z"/></clipPath></defs><g clip-path="url(#a)"><path fill="#2396ED" d="M501.431 212.252c-11.529-8-37.95-11-58.607-7-2.402-19.999-13.451-37.498-32.666-52.998l-11.049-8-7.686 11.5c-9.608 14.999-14.412 35.999-12.971 55.998.481 6.999 2.883 19.499 10.089 30.499-6.726 3.999-20.657 8.999-38.912 8.999H2.31l-.961 4c-3.363 19.999-3.363 82.497 36.029 130.495 29.784 36.498 73.979 54.998 132.106 54.998 125.862 0 219.057-60.498 262.772-169.994 17.294.5 54.283 0 73.019-37.498.48-1 1.441-3 4.803-10.5l1.922-4-10.569-6.499ZM279.973 71.257h-52.842v49.998h52.842V71.257Zm0 59.998h-52.842v49.998h52.842v-49.998Zm-62.45 0H164.68v49.998h52.843v-49.998Zm-62.45 0H102.23v49.998h52.843v-49.998Zm-62.451 59.998H39.78v49.998h52.842v-49.998Zm62.451 0H102.23v49.998h52.843v-49.998Zm62.45 0H164.68v49.998h52.843v-49.998Zm62.45 0h-52.842v49.998h52.842v-49.998Zm62.45 0h-52.842v49.998h52.842v-49.998Z"/></g></svg>