<?xml version="1.0" encoding="UTF-8" standalone="no"?><!-- Generator: Gravit.io --><svg xmlns="http://www.w3.org/2000/svg" xmlns:xlink="http://www.w3.org/1999/xlink" style="isolation:isolate" viewBox="0 0 512 512" width="512pt" height="512pt"><defs><clipPath id="_clipPath_46Eiz2A0YePKUpTOQfFB5wd4jmnQ4YZ3"><rect width="512" height="512"/></clipPath></defs><g clip-path="url(#_clipPath_46Eiz2A0YePKUpTOQfFB5wd4jmnQ4YZ3)"><path d="M 477.714 383.995 L 256.005 512 L 34.286 383.995 L 34.286 127.985 L 256.005 0 L 477.714 127.985 L 477.714 383.995 Z" fill-rule="evenodd" fill="rgb(17,17,132)" /><path d=" M 256.027 359.945 C 254.209 359.958 252.419 359.492 250.837 358.596 C 237.293 350.759 136.98 287.863 133.192 285.943 C 130.309 284.598 128.34 281.841 128.003 278.678 L 128.003 190.457 C 127.928 187.163 129.556 184.065 132.31 182.257 L 133.036 181.842 C 142.741 175.822 175.226 155.999 180.364 153.144 C 181.543 152.445 182.886 152.069 184.256 152.055 C 185.541 152.069 186.804 152.389 187.941 152.989 C 187.941 152.989 233.401 182.621 240.354 185.267 C 245.234 187.509 250.554 188.626 255.923 188.536 C 262.007 188.664 268.018 187.197 273.36 184.281 C 280.158 180.7 323.594 153.144 324.061 153.144 C 325.156 152.483 326.414 152.141 327.693 152.158 C 329.065 152.165 330.41 152.541 331.586 153.248 C 337.502 156.518 377.772 181.168 379.484 182.257 C 382.317 183.966 384.034 187.045 383.999 190.353 L 383.999 278.574 C 383.682 281.746 381.707 284.51 378.81 285.839 C 375.022 287.915 275.021 350.812 261.216 358.492 C 259.645 359.425 257.854 359.926 256.027 359.945 Z " fill="rgb(255,255,255)"/></g></svg>