<?xml version="1.0" encoding="UTF-8" standalone="no"?><!-- Generator: Gravit.io --><svg xmlns="http://www.w3.org/2000/svg" xmlns:xlink="http://www.w3.org/1999/xlink" style="isolation:isolate" viewBox="0 0 512 512" width="512pt" height="512pt"><defs><clipPath id="_clipPath_Ks5D6owmQfCB3UYIi4tUU9m42096PFLz"><rect width="512" height="512"/></clipPath></defs><g clip-path="url(#_clipPath_Ks5D6owmQfCB3UYIi4tUU9m42096PFLz)"><circle vector-effect="non-scaling-stroke" cx="256" cy="256" r="256" fill="rgb(27,27,29)" /><path d=" M 190.562 266.935 C 183.957 267.762 172.395 270.236 165.788 276.018 C 145.97 293.356 157.531 323.903 197.996 323.903 C 221.117 323.903 244.24 309.04 262.407 285.923 C 235.982 273.539 214.511 264.456 190.562 266.935 Z  M 338.582 288.195 C 375.742 300.579 384 301.405 384 301.405 L 384 169.309 C 384 147.019 365.832 128.857 342.711 128.857 L 169.29 128.857 C 146.993 128.857 128 147.02 128 169.312 L 128 342.691 C 128 364.981 146.168 383.143 169.29 383.143 L 342.711 383.143 C 365.007 383.143 384 364.98 384 342.688 L 384 341.038 C 384 341.038 317.937 313.794 284.078 297.282 C 261.783 324.526 232.879 341.863 202.325 341.863 C 151.125 341.863 133.783 297.282 158.557 268.386 C 163.511 261.781 172.596 256.001 186.634 252.7 C 208.105 247.745 242.789 256.001 274.995 266.736 C 280.775 256.001 285.73 244.444 289.034 232.06 L 189.112 232.06 L 189.112 222.153 L 240.311 222.153 L 240.311 202.339 L 177.551 202.339 L 177.551 192.432 L 240.311 192.432 L 240.311 166.839 C 240.311 166.839 240.311 162.711 244.439 162.711 L 269.215 162.711 L 269.215 193.259 L 331.15 193.259 L 331.15 202.342 L 269.215 202.342 L 269.215 220.504 L 319.588 220.504 C 314.635 240.317 307.201 258.482 298.117 274.166 C 314.633 279.946 328.671 284.901 338.582 288.2 L 338.582 288.195 L 338.582 288.195 Z " fill-rule="evenodd" fill="rgb(85,0,0)"/></g></svg>