<?xml version="1.0" encoding="UTF-8" standalone="no"?><!-- Generator: Gravit.io --><svg xmlns="http://www.w3.org/2000/svg" xmlns:xlink="http://www.w3.org/1999/xlink" style="isolation:isolate" viewBox="0 0 1451.339 1451.339" width="1451.339pt" height="1451.339pt"><defs><clipPath id="_clipPath_n2PCaITjQ7FRO0zODPfe7xSdzDnyw0h4"><rect width="1451.339" height="1451.339"/></clipPath></defs><g clip-path="url(#_clipPath_n2PCaITjQ7FRO0zODPfe7xSdzDnyw0h4)"><rect x="0" y="0" width="1451.339" height="1451.339" transform="matrix(1,0,0,1,0,0)" fill="rgb(6,64,43)"/><path d=" M 1088.503 867.252 C 1087.042 869.271 1085.027 870.824 1082.703 871.725 C 1079.932 872.75 1076.993 873.248 1074.038 873.192 C 1070.913 873.265 1067.833 872.44 1065.163 870.816 C 1062.495 869.153 1060.398 866.715 1059.153 863.828 C 1057.653 860.689 1056.911 857.242 1056.987 853.765 L 1056.987 850.201 C 1056.735 845.187 1058.242 840.243 1061.25 836.224 C 1064.294 832.732 1068.785 830.848 1073.409 831.123 C 1077.141 830.931 1080.815 832.097 1083.752 834.407 C 1086.477 836.775 1088.18 840.106 1088.504 843.702 L 1083.123 843.702 C 1082.679 838.771 1078.343 835.121 1073.409 835.525 C 1070.205 835.32 1067.119 836.77 1065.233 839.369 C 1063.122 842.648 1062.118 846.518 1062.368 850.41 L 1062.368 853.765 C 1062.157 857.649 1063.265 861.491 1065.512 864.667 C 1067.513 867.347 1070.694 868.886 1074.038 868.79 C 1075.832 868.802 1077.619 868.566 1079.349 868.091 C 1080.811 867.72 1082.126 866.917 1083.123 865.785 L 1083.123 856.63 L 1073.689 856.63 L 1073.689 852.228 L 1088.504 852.228 L 1088.503 867.252 Z  M 1044.337 872.423 L 1038.956 872.423 L 1017.991 840.837 L 1017.991 872.423 L 1012.54 872.423 L 1012.54 831.682 L 1017.991 831.682 L 1038.956 863.338 L 1038.956 831.682 L 1044.267 831.682 L 1044.337 872.423 Z  M 998.704 872.423 L 993.323 872.423 L 993.323 831.682 L 998.704 831.682 L 998.704 872.423 Z  M 945.313 831.682 L 958.661 865.435 L 972.078 832.031 L 979.067 832.031 L 979.067 872.423 L 973.686 872.423 L 973.686 856.7 L 974.175 839.439 L 960.757 872.423 L 956.634 872.423 L 943.216 839.578 L 943.705 856.7 L 943.705 872.423 L 938.324 872.423 L 938.324 831.682 L 945.313 831.682 Z  M 919.037 861.871 L 901.916 861.871 L 898.072 872.423 L 892.482 872.423 L 908.136 831.472 L 912.818 831.472 L 928.332 872.423 L 922.741 872.423 L 919.037 861.871 Z  M 903.523 857.468 L 917.5 857.468 L 910.512 838.321 L 903.523 857.468 Z  M 883.117 867.252 C 881.673 869.288 879.653 870.846 877.317 871.724 C 874.547 872.756 871.607 873.254 868.651 873.192 C 865.527 873.264 862.447 872.44 859.776 870.816 C 857.108 869.153 855.011 866.715 853.766 863.828 C 852.299 860.796 851.512 857.481 851.46 854.114 L 851.46 850.55 C 851.179 845.522 852.717 840.561 855.793 836.574 C 858.815 833.093 863.28 831.209 867.882 831.472 C 871.615 831.267 875.294 832.435 878.225 834.757 C 880.95 837.125 882.653 840.456 882.977 844.051 L 877.596 844.051 C 877.189 839.131 872.873 835.472 867.952 835.875 C 864.729 835.671 861.623 837.119 859.706 839.718 C 857.62 843.006 856.64 846.875 856.911 850.76 L 856.911 854.114 C 856.701 857.999 857.809 861.841 860.056 865.016 C 862.027 867.695 865.187 869.236 868.512 869.139 C 870.328 869.145 872.138 868.91 873.893 868.441 C 875.326 868.05 876.613 867.248 877.597 866.135 L 877.597 856.631 L 868.302 856.631 L 868.302 852.228 L 883.117 852.228 L 883.117 867.252 Z  M 820.43 853.694 L 802.54 853.694 L 802.54 868.23 L 823.505 868.23 L 823.505 872.423 L 797.299 872.423 L 797.299 831.681 L 823.015 831.681 L 823.015 836.084 L 802.54 836.084 L 802.54 849.292 L 820.29 849.292 L 820.43 853.694 Z  M 784.44 831.681 L 784.44 859.635 C 784.578 863.166 783.265 866.601 780.806 869.139 C 778.181 871.697 774.687 873.17 771.022 873.262 L 769.554 873.262 C 765.659 873.444 761.839 872.145 758.862 869.628 C 756.143 867.03 754.667 863.392 754.808 859.635 L 754.808 831.681 L 760.189 831.681 L 760.189 859.635 C 759.966 862.207 760.857 864.751 762.635 866.623 C 764.504 868.411 767.043 869.325 769.623 869.139 C 772.184 869.278 774.696 868.399 776.612 866.693 C 778.306 864.775 779.162 862.258 778.989 859.705 L 778.989 831.751 L 784.44 831.681 Z  M 742.3 867.252 C 740.856 869.288 738.836 870.846 736.5 871.724 C 733.73 872.756 730.79 873.254 727.835 873.192 C 724.616 873.319 721.431 872.492 718.68 870.816 C 716.012 869.153 713.915 866.715 712.669 863.828 C 711.201 860.679 710.461 857.239 710.504 853.765 L 710.504 850.2 C 710.222 845.173 711.76 840.211 714.836 836.224 C 717.859 832.743 722.324 830.859 726.926 831.123 C 730.659 830.917 734.338 832.086 737.269 834.407 C 739.994 836.775 741.696 840.106 742.021 843.701 L 736.64 843.701 C 736.232 838.782 731.916 835.122 726.996 835.525 C 723.773 835.322 720.667 836.769 718.749 839.369 C 716.669 842.662 715.668 846.521 715.884 850.41 L 715.884 853.765 C 715.674 857.649 716.782 861.491 719.029 864.667 C 721.038 867.338 724.213 868.874 727.554 868.79 C 729.348 868.801 731.136 868.566 732.866 868.091 C 734.327 867.72 735.643 866.916 736.639 865.785 L 736.639 856.63 L 727.485 856.63 L 727.485 852.228 L 742.3 852.228 L 742.3 867.252 Z  M 693.103 861.871 L 675.982 861.871 L 672.138 872.423 L 666.547 872.423 L 682.201 831.472 L 686.883 831.472 L 702.537 872.423 L 697.016 872.423 L 693.103 861.871 Z  M 677.589 857.468 L 691.566 857.468 L 684.578 838.321 L 677.589 857.468 Z  M 656.624 853.695 L 638.873 853.695 L 638.873 868.23 L 659.838 868.23 L 659.838 872.423 L 633.492 872.423 L 633.492 831.681 L 659.209 831.681 L 659.209 836.084 L 638.873 836.084 L 638.873 849.292 L 656.624 849.292 L 656.624 853.695 Z  M 603.582 868.23 L 623.01 868.23 L 623.01 872.423 L 598.131 872.423 L 598.131 831.681 L 603.582 831.681 L 603.582 868.23 Z  M 554.804 856.071 L 545.23 856.071 L 545.23 872.423 L 539.779 872.423 L 539.779 831.682 L 553.336 831.682 C 557.139 831.426 560.908 832.541 563.958 834.826 C 566.564 837.131 567.957 840.51 567.732 843.981 C 567.868 846.483 567.126 848.955 565.635 850.969 C 564.207 852.944 562.206 854.432 559.904 855.232 L 569.478 872.423 L 563.748 872.423 L 554.804 856.071 Z  M 545.23 851.458 L 553.476 851.458 C 555.806 851.585 558.099 850.837 559.906 849.362 C 561.509 847.958 562.384 845.9 562.283 843.771 C 562.414 841.605 561.598 839.488 560.046 837.971 C 558.202 836.462 555.853 835.712 553.477 835.874 L 545.231 835.874 L 545.23 851.458 Z  M 527.41 853.485 C 527.475 857.082 526.785 860.653 525.384 863.967 C 524.213 866.816 522.217 869.25 519.653 870.956 C 514.337 874.128 507.708 874.128 502.392 870.956 C 499.816 869.244 497.799 866.814 496.592 863.967 C 495.14 860.766 494.423 857.279 494.494 853.764 L 494.494 850.829 C 494.401 847.23 495.092 843.653 496.52 840.347 C 497.728 837.5 499.744 835.07 502.32 833.359 C 507.637 830.186 514.265 830.186 519.581 833.359 C 522.183 835.041 524.208 837.48 525.382 840.347 C 526.783 843.685 527.472 847.279 527.408 850.899 L 527.41 853.485 Z  M 522.029 850.829 C 522.288 846.882 521.258 842.958 519.093 839.648 C 517.181 837.074 514.121 835.609 510.917 835.734 C 507.753 835.619 504.74 837.086 502.88 839.648 C 500.727 842.835 499.672 846.638 499.875 850.48 L 499.875 853.485 C 499.651 857.384 500.679 861.253 502.81 864.527 C 504.657 867.194 507.746 868.724 510.987 868.58 C 514.144 868.726 517.172 867.316 519.093 864.806 C 521.179 861.539 522.204 857.707 522.028 853.834 L 522.029 850.829 Z  M 476.954 831.682 L 482.405 831.682 L 482.405 860.683 C 482.602 864.107 481.302 867.448 478.841 869.837 C 476.292 872.159 472.92 873.367 469.476 873.192 C 466.069 873.372 462.72 872.248 460.112 870.047 C 457.737 867.783 456.484 864.586 456.688 861.311 L 462.069 861.311 C 461.919 863.349 462.668 865.351 464.12 866.789 C 465.572 868.227 467.58 868.958 469.616 868.789 C 471.639 868.88 473.602 868.09 474.997 866.622 C 476.465 865.032 477.222 862.912 477.094 860.752 L 476.954 831.682 Z  M 440.545 861.871 L 423.354 861.871 L 419.51 872.423 L 413.989 872.423 L 429.573 831.472 L 434.325 831.472 L 449.979 872.423 L 444.458 872.423 L 440.545 861.871 Z  M 425.171 857.468 L 439.148 857.468 L 432.16 838.321 L 425.171 857.468 Z  M 369.823 831.681 L 383.241 865.435 L 396.659 832.031 L 403.648 832.031 L 403.648 872.423 L 398.267 872.423 L 398.267 856.699 L 398.755 839.438 L 385.268 872.423 L 381.145 872.423 L 367.727 839.578 L 368.216 856.699 L 368.216 872.423 L 362.835 872.423 L 362.835 831.681 L 369.823 831.681 Z  M 948.052 661.725 L 948.052 717.631 L 992.288 717.631 L 982.993 726.856 L 974.607 735.172 C 967.493 741.963 957.951 745.614 948.121 745.305 C 919.226 742.799 897.046 718.611 897.046 689.608 C 897.046 660.604 919.226 636.416 948.121 633.91 L 1004.028 633.91 L 1004.028 578.004 L 948.121 578.004 C 886.6 578.004 836.726 627.877 836.726 689.398 C 836.726 750.92 886.6 800.793 948.121 800.793 C 957.926 800.85 967.682 799.413 977.053 796.531 C 989.713 792.48 1001.379 785.813 1011.296 776.963 C 1015.629 773.177 1019.714 769.116 1023.525 764.804 L 1031.631 756.627 L 1031.631 800.793 L 1087.538 800.793 L 1087.538 661.729 L 948.052 661.725 Z  M 558.454 578.147 C 537.87 578.001 517.959 585.467 502.547 599.112 C 487.091 585.541 467.209 578.086 446.641 578.147 C 424.474 578.203 403.241 587.076 387.626 602.81 C 372.011 618.543 363.298 639.843 363.41 662.009 L 363.41 800.937 L 419.316 800.937 L 419.316 661.73 C 419.315 646.455 431.576 634.006 446.85 633.777 C 462.133 634.146 474.435 646.448 474.804 661.73 L 474.804 800.937 L 530.71 800.937 L 530.71 661.73 C 530.972 646.402 543.335 634.039 558.664 633.777 C 566.077 633.777 573.187 636.722 578.43 641.964 C 583.672 647.207 586.617 654.317 586.617 661.73 L 586.617 800.937 L 642.523 800.937 L 642.523 661.73 C 642.617 639.45 633.774 618.062 617.973 602.353 C 602.171 586.645 580.731 577.928 558.452 578.153 L 558.454 578.147 Z  M 725.262 578.147 L 669.775 578.147 L 669.775 745.24 C 669.566 760.13 675.389 774.472 685.919 785.002 C 696.449 795.533 710.791 801.355 725.682 801.146 L 836.798 801.146 L 836.798 745.24 L 725.267 745.24 L 725.262 578.147 Z " fill="rgb(255,255,255)"/></g></svg>