<?xml version="1.0" encoding="UTF-8" standalone="no"?><!-- Generator: Gravit.io --><svg xmlns="http://www.w3.org/2000/svg" xmlns:xlink="http://www.w3.org/1999/xlink" style="isolation:isolate" viewBox="0 0 512 512" width="512pt" height="512pt"><defs><clipPath id="_clipPath_LNhTB9Pq9Gg4hrCWhlY2n3iXGNtwF5VL"><rect width="512" height="512"/></clipPath></defs><g clip-path="url(#_clipPath_LNhTB9Pq9Gg4hrCWhlY2n3iXGNtwF5VL)"><rect x="0" y="0" width="512" height="512" transform="matrix(1,0,0,1,0,0)" fill="rgb(27,27,29)"/><path d=" M 332.743 128.008 L 353.507 128.008 L 353.507 230.198 L 332.743 230.198 L 332.743 128.008 Z  M 202.964 196.244 C 202.964 215.415 188.343 230.201 169.223 230.201 C 150.142 230.201 135.164 215.415 135.164 196.244 L 135.164 128.011 L 155.419 128.011 L 155.419 196.244 C 155.419 203.994 161.575 210.24 169.223 210.24 C 176.91 210.24 183.015 203.994 183.015 196.244 L 183.015 128.011 L 202.964 128.011 L 202.964 196.244 Z  M 298.912 363.308 L 230.666 363.308 L 230.666 261.157 L 251.354 261.157 L 251.354 342.531 L 298.912 342.531 L 298.912 363.308 Z  M 298.912 230.19 L 278.173 230.19 L 251.354 171.645 L 251.354 230.19 L 230.666 230.19 L 230.666 128 L 251.354 128 L 278.173 186.456 L 278.173 128 L 298.912 128 L 298.912 230.19 Z  M 169.204 261.16 C 150.148 261.16 135.158 276.431 135.158 294.914 L 135.158 329.559 C 135.158 347.799 150.148 363.312 169.204 363.312 C 171.511 363.312 173.755 363.07 175.896 362.675 L 183.009 384 L 202.957 384 L 193.512 353.306 C 199.044 346.984 202.957 338.38 202.957 329.559 L 202.957 294.914 C 202.957 276.431 188.337 261.16 169.204 261.16 Z  M 183.009 329.559 C 183.009 336.277 176.903 342.535 169.204 342.535 C 161.569 342.535 155.412 336.277 155.412 329.559 L 155.412 294.914 C 155.412 287.278 161.569 281.147 169.204 281.147 C 176.903 281.147 183.009 287.278 183.009 294.914 L 183.009 329.559 Z  M 343.089 261.16 C 323.982 261.16 309.323 276.431 309.323 294.914 L 309.323 329.559 C 309.323 347.799 323.982 363.312 343.089 363.312 C 362.158 363.312 376.842 347.799 376.842 329.559 L 376.842 294.914 C 376.842 276.431 362.158 261.16 343.089 261.16 Z  M 356.932 329.559 C 356.932 336.277 350.686 342.535 343.089 342.535 C 335.454 342.535 329.246 336.277 329.246 329.559 L 329.246 294.914 C 329.246 287.278 335.454 281.147 343.089 281.147 C 350.686 281.147 356.932 287.278 356.932 294.914 L 356.932 329.559 Z " fill-rule="evenodd" fill="rgb(239,191,4)"/></g></svg>