<?xml version="1.0" encoding="UTF-8" standalone="no"?><!-- Generator: Gravit.io --><svg xmlns="http://www.w3.org/2000/svg" xmlns:xlink="http://www.w3.org/1999/xlink" style="isolation:isolate" viewBox="0 0 512 512" width="512pt" height="512pt"><defs><clipPath id="_clipPath_RSFde2Qhjw3JDrLqIs1AftHM5tHwJStz"><rect width="512" height="512"/></clipPath></defs><g clip-path="url(#_clipPath_RSFde2Qhjw3JDrLqIs1AftHM5tHwJStz)"><path d="M 477.714 383.995 L 256.005 512 L 34.286 383.995 L 34.286 127.985 L 256.005 0 L 477.714 127.985 L 477.714 383.995 Z" fill-rule="evenodd" fill="rgb(17,17,132)" /><path d=" M 285.091 192 L 320.189 192 L 349.091 192 L 285.091 128 L 285.091 158.342 L 285.091 192 Z  M 285.091 192 L 285.091 128 L 180.364 128 C 170.72 128 162.909 135.811 162.909 145.455 L 162.909 366.545 C 162.909 376.189 170.72 384 180.364 384 L 331.636 384 C 341.28 384 349.091 376.189 349.091 366.545 L 349.091 192 L 285.091 192 Z  M 276.364 314.182 L 235.636 314.182 L 235.636 299.636 L 276.364 299.636 L 276.364 314.182 Z  M 276.145 285.091 L 235.855 285.091 C 225.236 278.4 218.182 266.575 218.182 253.091 C 218.182 232.204 235.113 215.273 256 215.273 C 276.887 215.273 293.818 232.204 293.818 253.091 C 293.818 266.575 286.764 278.4 276.145 285.091 L 276.145 285.091 Z " fill-rule="evenodd" fill="rgb(255,255,255)"/></g></svg>