<?xml version="1.0" encoding="UTF-8" standalone="no"?><!-- Generator: Gravit.io --><svg xmlns="http://www.w3.org/2000/svg" xmlns:xlink="http://www.w3.org/1999/xlink" style="isolation:isolate" viewBox="0 0 512 512" width="512pt" height="512pt"><defs><clipPath id="_clipPath_wvOHgFBPqj5SxnU0VUJy0eG0aGS3Zxeo"><rect width="512" height="512"/></clipPath></defs><g clip-path="url(#_clipPath_wvOHgFBPqj5SxnU0VUJy0eG0aGS3Zxeo)"><rect width="512" height="512" style="fill:rgb(0,0,128)"/><path d=" M 128 351.664 L 128 160.868 C 128 159.571 128.556 158.831 129.852 158.831 C 133.001 158.831 135.965 158.831 140.226 158.645 C 144.671 158.46 149.302 158.46 154.304 158.275 C 159.305 158.09 164.677 158.09 170.42 157.904 C 176.162 157.719 181.719 157.719 187.276 157.719 C 202.466 157.719 215.062 159.571 225.436 163.461 C 234.698 166.611 243.219 171.797 250.258 178.651 C 256.185 184.579 260.816 191.803 263.78 199.768 C 266.559 207.548 268.041 215.514 268.041 223.849 C 268.041 239.78 264.336 252.932 256.926 263.305 C 249.517 273.679 239.143 281.459 227.103 285.904 C 214.507 290.535 200.614 292.202 185.424 292.202 C 180.978 292.202 178.014 292.202 176.162 292.017 C 174.31 291.832 171.716 291.832 168.197 291.832 L 168.197 351.294 C 168.382 352.59 167.456 353.702 166.159 353.887 L 165.418 353.887 L 130.223 353.887 C 128.741 353.887 128 353.146 128 351.479 L 128 351.664 Z  M 168.382 194.767 L 168.382 257.007 C 170.975 257.192 173.384 257.378 175.606 257.378 L 185.424 257.378 C 192.648 257.378 199.873 256.266 206.726 254.043 C 212.654 252.376 217.841 248.857 221.916 244.226 C 225.806 239.595 227.658 233.297 227.658 225.146 C 227.844 219.404 226.362 213.661 223.398 208.66 C 220.249 203.844 215.803 200.139 210.431 198.101 C 203.577 195.323 196.168 194.211 188.573 194.396 C 183.757 194.396 179.496 194.396 175.977 194.582 C 172.272 194.396 169.679 194.582 168.382 194.767 L 168.382 194.767 Z  M 294.715 205.696 L 327.132 205.696 C 328.984 205.696 330.466 206.993 331.022 208.66 C 331.577 210.142 331.948 211.624 332.133 213.291 C 332.504 215.143 332.874 217.181 333.059 219.033 C 333.245 221.071 333.43 223.294 333.43 225.702 C 338.987 219.218 345.656 213.846 353.25 209.771 C 361.771 204.955 371.589 202.547 381.407 202.547 C 382.703 202.362 383.815 203.288 384 204.584 L 384 205.325 L 384 241.447 C 384 242.929 383.074 243.485 381.036 243.485 C 374.368 243.299 367.514 243.855 361.03 245.337 C 355.658 246.448 350.472 248.116 345.47 250.338 C 341.951 252.006 338.616 254.228 336.023 257.192 L 336.023 351.664 C 336.023 353.516 335.282 354.257 333.615 354.257 L 297.123 354.257 C 295.641 354.443 294.344 353.516 294.159 352.035 L 294.159 351.294 L 294.159 248.671 C 294.159 244.226 294.159 239.595 293.974 234.778 C 293.789 229.962 293.789 225.146 293.603 220.33 C 293.603 216.069 293.233 211.994 292.863 207.734 C 292.677 206.807 293.233 205.881 294.159 205.696 C 294.159 205.511 294.53 205.511 294.715 205.696 L 294.715 205.696 Z " fill-rule="evenodd" fill="rgb(255,255,255)"/></g></svg>