<?xml version="1.0" encoding="UTF-8" standalone="no"?><!-- Generator: Gravit.io --><svg xmlns="http://www.w3.org/2000/svg" xmlns:xlink="http://www.w3.org/1999/xlink" style="isolation:isolate" viewBox="0 0 512 512" width="512pt" height="512pt"><defs><clipPath id="_clipPath_4hjO2HTPtwLumBdx1Bl0t7Kk5n3V3ne4"><rect width="512" height="512"/></clipPath></defs><g clip-path="url(#_clipPath_4hjO2HTPtwLumBdx1Bl0t7Kk5n3V3ne4)"><path d="M 477.714 383.995 L 256.005 512 L 34.286 383.995 L 34.286 127.985 L 256.005 0 L 477.714 127.985 L 477.714 383.995 Z" fill-rule="evenodd" fill="rgb(0,0,128)" /><path d=" M 184.924 245.347 C 189.162 248.792 191.285 254.172 191.285 261.486 L 191.285 298.216 L 171.091 298.216 L 171.091 264.189 C 171.091 262.706 170.534 261.406 169.422 260.293 C 168.308 259.18 167.009 258.624 165.526 258.624 L 153.759 258.624 C 152.274 258.624 151.002 259.18 149.943 260.293 C 148.882 261.406 148.353 262.706 148.353 264.189 L 148.353 298.216 L 128 298.216 L 128 213.784 L 148.353 213.784 L 148.353 241.292 C 148.671 241.187 149.411 240.974 150.579 240.656 C 151.744 240.338 153.282 240.179 155.19 240.179 L 168.229 240.179 C 175.118 240.179 180.684 241.903 184.924 245.347 Z  M 249.004 240.179 L 269.357 240.179 L 269.357 275.796 C 269.357 282.474 267.528 287.881 263.871 292.015 C 260.214 296.149 255.257 298.216 249.004 298.216 L 228.969 298.216 C 221.973 298.216 216.38 296.283 212.194 292.413 C 208.005 288.544 205.913 283.006 205.913 275.796 L 205.913 240.179 L 226.266 240.179 L 226.266 274.206 C 226.266 275.692 226.795 276.964 227.856 278.023 C 228.914 279.083 230.186 279.613 231.672 279.613 L 243.439 279.613 C 244.922 279.613 246.221 279.083 247.334 278.023 C 248.448 276.964 249.004 275.692 249.004 274.206 L 249.004 240.179 Z  M 284.78 213.784 L 305.133 213.784 L 305.133 298.216 L 284.78 298.216 L 284.78 213.784 Z  M 384 240.179 L 384 275.796 C 384 282.474 382.171 287.881 378.514 292.015 C 374.857 296.149 369.901 298.216 363.647 298.216 L 343.771 298.216 C 336.668 298.216 331.023 296.283 326.837 292.413 C 322.648 288.544 320.557 283.006 320.557 275.796 L 320.557 240.179 L 340.909 240.179 L 340.909 274.206 C 340.909 275.692 341.438 276.964 342.499 278.023 C 343.558 279.083 344.83 279.613 346.315 279.613 L 358.241 279.613 C 359.724 279.613 360.996 279.083 362.057 278.023 C 363.115 276.964 363.647 275.692 363.647 274.206 L 363.647 240.179 L 384 240.179 Z " fill="rgb(255,255,255)"/></g></svg>