<?xml version="1.0" encoding="UTF-8" standalone="no"?><!-- Generator: Gravit.io --><svg xmlns="http://www.w3.org/2000/svg" xmlns:xlink="http://www.w3.org/1999/xlink" style="isolation:isolate" viewBox="0 0 1451.339 1451.339" width="1451.339pt" height="1451.339pt"><defs><clipPath id="_clipPath_SJQ69xtBAH8kmbw3OUxJsjZzu23UOxF9"><rect width="1451.339" height="1451.339"/></clipPath></defs><g clip-path="url(#_clipPath_SJQ69xtBAH8kmbw3OUxJsjZzu23UOxF9)"><rect width="1451.339" height="1451.339" style="fill:rgb(237,29,36)"/><path d=" M 977.546 494.04 C 930.572 472.268 880.345 456.446 827.834 447.436 C 821.385 458.986 813.851 474.521 808.657 486.879 C 752.837 478.563 697.53 478.563 642.736 486.879 C 637.543 474.521 629.837 458.986 623.331 447.436 C 570.763 456.446 520.479 472.326 473.505 494.155 C 378.758 635.986 353.074 774.294 365.916 910.639 C 428.757 957.126 489.658 985.366 549.53 1003.845 C 564.313 983.691 577.498 962.266 588.856 939.686 C 567.224 931.544 546.505 921.496 526.929 909.83 C 532.122 906.019 537.203 902.034 542.111 897.934 C 661.514 953.257 791.249 953.257 909.225 897.934 C 914.191 902.034 919.27 906.019 924.407 909.83 C 904.773 921.553 883.998 931.601 862.366 939.745 C 873.724 962.266 886.852 983.749 901.691 1003.903 C 961.622 985.423 1022.579 957.184 1085.42 910.639 C 1100.488 752.581 1059.679 615.543 977.546 494.04 Z  M 605.123 826.788 C 569.279 826.788 539.884 793.64 539.884 753.274 C 539.884 712.907 568.651 679.702 605.123 679.702 C 641.595 679.702 670.989 712.849 670.361 753.274 C 670.418 793.64 641.595 826.788 605.123 826.788 Z  M 846.213 826.788 C 810.37 826.788 780.975 793.64 780.975 753.274 C 780.975 712.907 809.741 679.702 846.213 679.702 C 882.685 679.702 912.079 712.849 911.452 753.274 C 911.452 793.64 882.685 826.788 846.213 826.788 Z " fill="rgb(255,255,255)"/></g></svg>