<?xml version="1.0" encoding="UTF-8" standalone="no"?><!-- Generator: Gravit.io --><svg xmlns="http://www.w3.org/2000/svg" xmlns:xlink="http://www.w3.org/1999/xlink" style="isolation:isolate" viewBox="0 0 512 512" width="512pt" height="512pt"><defs><clipPath id="_clipPath_TMWreCdRBKnC8Bz1uMuGdRxbMjRAQq7B"><rect width="512" height="512"/></clipPath></defs><g clip-path="url(#_clipPath_TMWreCdRBKnC8Bz1uMuGdRxbMjRAQq7B)"><path d="M 477.714 383.995 L 256.005 512 L 34.286 383.995 L 34.286 127.985 L 256.005 0 L 477.714 127.985 L 477.714 383.995 Z" fill-rule="evenodd" fill="rgb(0,0,128)" /><path d=" M 192 186.149 C 227.328 186.149 256 214.821 256 250.149 L 256 255.927 L 133.778 255.927 C 130.56 255.927 128 253.294 128 250.149 C 128 214.821 156.672 186.222 192 186.149 C 192 186.149 192 186.149 192 186.149 Z  M 325.851 192 C 325.851 227.328 297.179 256 261.851 256 L 256 256 L 256 133.778 C 256 130.56 258.633 128 261.778 128 L 261.778 128 C 297.179 128 325.851 156.672 325.851 192 C 325.851 192 325.851 192 325.851 192 Z  M 320 325.851 C 284.672 325.851 256 297.179 256 261.851 L 256 256 L 378.222 256 C 381.44 256 384 258.633 384 261.778 L 384 261.778 C 384 297.179 355.401 325.851 320 325.851 C 320 325.851 320 325.851 320 325.851 Z  M 186.149 320 C 186.149 284.672 214.821 256 250.149 256 C 250.149 256 250.149 256 250.149 256 L 255.927 256 L 255.927 378.222 C 255.927 381.44 253.294 384 250.149 384 C 214.821 384 186.149 355.328 186.149 320 Z " fill-rule="evenodd" fill="rgb(255,255,255)"/></g></svg>