<?xml version="1.0" encoding="UTF-8" standalone="no"?>
<!-- Generator: Adobe Illustrator 22.1.0, SVG Export Plug-In . SVG Version: 6.00 Build 0)  -->

<svg
   xmlns:dc="http://purl.org/dc/elements/1.1/"
   xmlns:cc="http://creativecommons.org/ns#"
   xmlns:rdf="http://www.w3.org/1999/02/22-rdf-syntax-ns#"
   xmlns:svg="http://www.w3.org/2000/svg"
   xmlns="http://www.w3.org/2000/svg"
   xmlns:sodipodi="http://sodipodi.sourceforge.net/DTD/sodipodi-0.dtd"
   xmlns:inkscape="http://www.inkscape.org/namespaces/inkscape"
   version="1.1"
   id="图层_1"
   x="0px"
   y="0px"
   viewBox="0 0 180.33167 252"
   xml:space="preserve"
   sodipodi:docname="yatai.svg"
   width="180.33167"
   height="252"
   inkscape:version="0.92.4 (5da689c313, 2019-01-14)"><metadata
   id="metadata415"><rdf:RDF><cc:Work
       rdf:about=""><dc:format>image/svg+xml</dc:format><dc:type
         rdf:resource="http://purl.org/dc/dcmitype/StillImage" /><dc:title></dc:title></cc:Work></rdf:RDF></metadata><defs
   id="defs413" /><sodipodi:namedview
   pagecolor="#ffffff"
   bordercolor="#666666"
   borderopacity="1"
   objecttolerance="10"
   gridtolerance="10"
   guidetolerance="10"
   inkscape:pageopacity="0"
   inkscape:pageshadow="2"
   inkscape:window-width="1366"
   inkscape:window-height="705"
   id="namedview411"
   showgrid="false"
   fit-margin-top="1"
   fit-margin-bottom="1"
   fit-margin-right="1"
   fit-margin-left="1"
   inkscape:zoom="1.18"
   inkscape:cx="243.88"
   inkscape:cy="175.80903"
   inkscape:window-x="-8"
   inkscape:window-y="-8"
   inkscape:window-maximized="1"
   inkscape:current-layer="图层_1" />
<style
   type="text/css"
   id="style2">
	.st0{fill:#D0121B;}
	.st1{fill:#FFFFFF;}
	.st2{fill:#00901A;}
	.st3{fill:#231815;}
	.st4{fill:#DB3C11;}
	.st5{fill:#F6DEBD;}
	.st6{fill:#BE8A3B;}
	.st7{fill:#CF0916;}
	.st8{fill:#A6CAD8;}
	.st9{fill:none;stroke:#231815;stroke-width:0.5;stroke-miterlimit:22.9256;}
	.st10{fill:#BE8740;}
	.st11{fill:#BC8941;}
	.st12{fill:#DA8C18;}
	.st13{fill:#FFFFFF;stroke:#DA8C18;stroke-width:0.216;stroke-miterlimit:22.9256;}
	.st14{fill:#F6DDBD;}
	.st15{fill:#FFE100;}
	.st16{fill:#F1DEC3;}
	.st17{fill:#F7DDBE;}
	.st18{fill:#BD9E6A;}
	.st19{fill:#FADF1B;}
	.st20{fill:#FDFDFD;}
</style>
<g
   id="g408"
   transform="matrix(0.35709184,0,0,0.35709184,-52.670904,-16.854592)">
	<g
   id="g8">
		<rect
   x="150.3"
   y="50"
   class="st0"
   width="499.29999"
   height="102.7"
   id="rect4"
   style="fill:#d0121b" />
		<path
   class="st0"
   d="M 400,159.7 H 150.3 v 365.2 c 0,44.3 52.5,199.5 249.7,225.2 C 597.2,724.4 649.7,569.3 649.7,524.9 V 159.7 Z"
   id="path6"
   inkscape:connector-curvature="0"
   style="fill:#d0121b" />
	</g>
	<rect
   x="179.5"
   y="183.10001"
   class="st1"
   width="441"
   height="341.79999"
   id="rect10"
   style="fill:#ffffff" />
	<g
   id="g42">
		<path
   class="st2"
   d="m 298.9,188.2 c 0,0 -25.6,15.2 -34,43.8 0,-0.1 25.4,-18.8 34,-43.8 z"
   id="path12"
   inkscape:connector-curvature="0"
   style="fill:#00901a" />
		<path
   class="st2"
   d="m 267.3,209.9 c 0,0 -27.1,22.3 -20.3,61.7 0,0 25,-18.2 35.8,-46.5 0,0 -20.9,22.6 -27.1,24.7 0,0 2.4,-22.9 11.6,-39.9 z"
   id="path14"
   inkscape:connector-curvature="0"
   style="fill:#00901a" />
		<path
   class="st2"
   d="m 241.4,244.2 c 0,0 -18.8,40.8 -0.3,69.1 0,0 26.8,-45.3 31,-59 0,0 -24.1,29.8 -30.4,31.6 0,0 -2.7,-28.6 -0.3,-41.7 z"
   id="path16"
   inkscape:connector-curvature="0"
   style="fill:#00901a" />
		<path
   class="st2"
   d="m 225.2,278.7 c 0,0 -9.4,51.2 19.5,76.3 0,0 14.9,-44.1 14.6,-62.3 0,0 -14.6,33.7 -18.5,36.6 0,0.1 -10.7,-9.2 -15.6,-50.6 z"
   id="path18"
   inkscape:connector-curvature="0"
   style="fill:#00901a" />
		<path
   class="st2"
   d="m 218.2,327.9 c 0,0 0.6,27.4 13.4,39.9 3,3 27.4,27.4 27.4,27.4 0,0 -1.8,-11.6 0.6,-32.2 0.6,-4.8 1.2,-23.5 -0.6,-40.2 0,0 -10.4,33.4 -10.4,46.2 -0.1,0 -12,-2.1 -30.4,-41.1 z"
   id="path20"
   inkscape:connector-curvature="0"
   style="fill:#00901a" />
		<path
   class="st2"
   d="m 225,374.4 c 0,0 15.2,24.1 41.4,36.1 0,0 -5.1,-34.6 -2.7,-48 0,0 18.2,62.9 21.7,69.4 0.1,0 -47.9,-7.5 -60.4,-57.5 z"
   id="path22"
   inkscape:connector-curvature="0"
   style="fill:#00901a" />
		<path
   class="st2"
   d="m 240.5,420 c 0,0 35.8,25 49.8,21.7 5.2,-1.2 0.9,-13.1 -7.9,-40.4 0,0 17.4,22.5 17.1,28.5 -0.6,14.9 -21.2,18.2 -21.2,18.2 0,0 -21.4,6.5 -37.8,-28 z"
   id="path24"
   inkscape:connector-curvature="0"
   style="fill:#00901a" />
		<path
   class="st2"
   d="m 501.1,188.2 c 0,0 25.6,15.2 34,43.8 0,-0.1 -25.4,-18.8 -34,-43.8 z"
   id="path26"
   inkscape:connector-curvature="0"
   style="fill:#00901a" />
		<path
   class="st2"
   d="m 532.7,209.9 c 0,0 27.1,22.3 20.3,61.7 0,0 -25,-18.2 -35.8,-46.5 0,0 20.9,22.6 27.1,24.7 0,0 -2.4,-22.9 -11.6,-39.9 z"
   id="path28"
   inkscape:connector-curvature="0"
   style="fill:#00901a" />
		<path
   class="st2"
   d="m 558.6,244.2 c 0,0 18.8,40.8 0.3,69.1 0,0 -26.8,-45.3 -31,-59 0,0 24.1,29.8 30.4,31.6 0,0 2.7,-28.6 0.3,-41.7 z"
   id="path30"
   inkscape:connector-curvature="0"
   style="fill:#00901a" />
		<path
   class="st2"
   d="m 574.8,278.7 c 0,0 9.4,51.2 -19.5,76.3 0,0 -14.9,-44.1 -14.6,-62.3 0,0 14.6,33.7 18.5,36.6 0,0.1 10.7,-9.2 15.6,-50.6 z"
   id="path32"
   inkscape:connector-curvature="0"
   style="fill:#00901a" />
		<path
   class="st2"
   d="m 581.8,327.9 c 0,0 -0.6,27.4 -13.4,39.9 -3,3 -27.4,27.4 -27.4,27.4 0,0 1.8,-11.6 -0.6,-32.2 -0.6,-4.8 -1.2,-23.5 0.6,-40.2 0,0 10.4,33.4 10.4,46.2 0.1,0 12,-2.1 30.4,-41.1 z"
   id="path34"
   inkscape:connector-curvature="0"
   style="fill:#00901a" />
		<path
   class="st2"
   d="m 575,374.4 c 0,0 -15.2,24.1 -41.4,36.1 0,0 5.1,-34.6 2.7,-48 0,0 -18.2,62.9 -21.8,69.4 0,0 48,-7.5 60.5,-57.5 z"
   id="path36"
   inkscape:connector-curvature="0"
   style="fill:#00901a" />
		<path
   class="st2"
   d="m 559.5,420 c 0,0 -35.8,25 -49.8,21.7 -5.2,-1.2 -0.9,-13.1 7.9,-40.4 0,0 -17.4,22.5 -17.1,28.5 0.6,14.9 21.2,18.2 21.2,18.2 0,0 21.4,6.5 37.8,-28 z"
   id="path38"
   inkscape:connector-curvature="0"
   style="fill:#00901a" />
		<path
   class="st2"
   d="m 301.6,467.5 c 0,0 2.4,-2 15,1.2 2.8,0.7 22.2,4.9 35,3.2 5.2,-0.7 36.2,4.3 46,9.4 2.3,1.2 6.3,0.8 11.8,-2.4 1.4,-0.8 23.6,-9.8 39.8,-7.9 4.3,0.5 38.2,-4.7 47.2,-5.9 0,0 0.8,9.8 0,12.6 l 8.7,3.5 c 0,0 -17.7,19.7 -77.5,10.2 0,0 24.4,9.4 31.5,22.8 1.8,3.4 2.8,10.6 -5.5,3.9 -8.3,-6.7 -32.3,-26.4 -52,-26 -19.7,0.4 -44.1,14.6 -55.1,26 -2.4,2.4 -11,3.9 -4.7,-4.7 3.6,-4.9 21.3,-16.9 31.1,-21.6 0,0 -52.7,12.2 -77.9,-10.2 l 9.4,-1.2 c -0.1,0 1.1,-9 -2.8,-12.9 z"
   id="path40"
   inkscape:connector-curvature="0"
   style="fill:#00901a" />
	</g>
	<path
   class="st3"
   d="m 303.2,216.4 h -1.4 l -0.3,1.4 c -22.1,115.8 5.5,174.1 32.5,202.5 26.8,28.3 58.5,33.9 66.9,32.7 34.1,-4.7 60.5,-20.3 78.2,-46.2 24.4,-35.8 28.2,-85.3 27,-120.5 -1.3,-38.1 -8.4,-68.2 -8.5,-68.5 l -0.3,-1.3 H 496 303.2 Z"
   id="path44"
   inkscape:connector-curvature="0"
   style="fill:#231815" />
	<path
   class="st4"
   d="m 303.3,218.1 h 192.9 c 0,0 51,213.1 -95.4,233.2 -14.9,2 -137.8,-21.9 -97.5,-233.2 z"
   id="path46"
   inkscape:connector-curvature="0"
   style="fill:#db3c11" />
	<g
   id="g260">
		<g
   id="g176">
			<path
   class="st3"
   d="m 433.1,260.2 c 0,0 7.4,-0.7 11.6,-0.3 0,0 -2.4,9.8 -8.3,11.7 0,0 0.8,-6.8 -3.3,-11.4 z"
   id="path48"
   inkscape:connector-curvature="0"
   style="fill:#231815" />
			<g
   id="g174">
				<g
   id="g154">
					<g
   id="g140">
						<path
   class="st3"
   d="m 377,270.2 c 0,0 3,6 6.3,6.1 0,0 -4.8,-3.1 -2.7,-13.6 0,0 2,3.7 3,4.5 2.4,1.9 3.5,1.1 2.7,-1.4 -0.5,-1.7 -3.4,-1.6 -2.7,-16.2 0,0 6.4,0.6 9.1,2.7 1.4,1.1 2.1,3.3 16.1,1.5 1.8,-0.2 13.3,-1 15.9,-0.1 2.7,0.9 13.3,7.3 12.1,16.1 -0.5,3.9 0.7,4.8 -5.4,18.2 -0.5,1.1 3.4,-0.2 2.2,5.1 -0.4,1.9 0.6,5.4 -4.8,7.4 -1.6,0.6 -6.6,1.2 -8.9,5.4 -0.6,1.1 -3.3,4 -5.7,4.2 -2.4,0.1 -10.3,0.7 -15.6,-2.5 -1.6,-1.1 -24.9,-20.4 -21.6,-37.4 z"
   id="path50"
   inkscape:connector-curvature="0"
   style="fill:#231815" />
						<path
   class="st5"
   d="m 384.6,251.1 c 0,0 5.7,-0.5 12.1,5 0,0 -1.1,3.8 4,4.1 1.2,0.1 7.5,1.6 7.3,-2.9 0,-1 -1,-2.9 -1,-2.9 0,0 8.8,-1.6 15.9,7.3 0,0 1.5,-2.3 -2.1,-8 0,0 11,2.7 14.5,11.3 0.6,1.4 2.9,7.1 -4,19.6 -0.8,1.4 0.3,13.1 0.3,13.1 0,0 -3.4,2.7 -7.6,3.8 -1,0.3 -2.2,0.6 -3.5,2.1 -1.3,1.5 -4.7,5.4 -6.1,5.7 -1.4,0.3 -11.4,0.4 -15.2,-2.5 -0.9,-0.7 -20.2,-17.1 -21.5,-33.1 0,0 3,4.5 6.6,4.1 0,0 1.9,0.3 -1.8,-4.1 -1.3,-1.6 -2.4,-4.2 -1.6,-8.3 0,0 8.1,10.1 5.8,-0.8 -0.4,-2.6 -3,-1.5 -2.1,-13.5 z"
   id="path52"
   inkscape:connector-curvature="0"
   style="fill:#f6debd" />
						<g
   id="g138">
							<g
   id="g58">
								<path
   class="st3"
   d="m 384.5,252 -0.5,0.1 -0.2,7.7 0.9,-0.3 c 0.3,-0.1 0.6,-0.1 0.7,0 0.4,0.2 0.5,1 0.7,1.8 0.2,0.8 0.4,1.6 0.8,2.2 1.3,1.8 2.7,2.2 3.6,2.2 1.3,0 2.3,-0.7 2.7,-1.3 2.9,-4 0.5,-6.8 -1.4,-9 -3.5,-4.2 -7.2,-3.4 -7.3,-3.4 z"
   id="path54"
   inkscape:connector-curvature="0"
   style="fill:#231815" />
								<path
   class="st6"
   d="m 384.6,252.7 c 0,0 3.4,-0.7 6.7,3.1 1.9,2.3 3.9,4.6 1.3,8.2 -0.7,1 -3.1,2.1 -5.2,-0.9 -1,-1.5 -0.4,-4.9 -3,-4.2 z"
   id="path56"
   inkscape:connector-curvature="0"
   style="fill:#be8a3b" />
							</g>
							<g
   id="g136">
								<g
   id="g132">
									<g
   id="g64">
										<path
   class="st3"
   d="m 386.1,268.9 c 0,0 0.6,0.9 5.2,1.6 1.3,0.2 3.3,1.9 2.4,5.4 -0.2,0.8 -1.5,2.1 -3.7,0.9 -0.7,-0.4 -1.2,-3.1 1.3,-3.9 0,0 -2.4,-1.2 -2.7,2.2 -0.3,3.4 2.7,3.3 2.7,3.3 0,0 -0.1,10.6 2.1,11.9 0.8,0.5 1,1.2 1.2,2.2 0.2,1 1.5,7.2 12.8,8.9 1.6,0.3 7.6,1 8.8,-3.9 l 1.6,0.1 c 0,0 -2.1,6.9 -6.3,6.7 -1.2,0 -8.5,-1 -13.6,-3.9 -0.9,-0.5 -1.8,-0.3 1.8,1.5 3.6,1.8 8,4 12.2,3.6 1.5,-0.2 6.9,-2.2 7.4,-7.4 0.2,-1.5 -5.4,-1.3 -6.3,-1.4 -0.9,-0.1 -10.1,-1.9 -15.5,-7.5 -1.8,-1.9 -4.9,-4.6 -5.1,-10.9 0,0 2.1,-0.7 2.1,-5.7 0,-2.7 -3,-3.3 -4.5,-3.4 -1.5,-0.1 -3.9,0.3 -3.6,-0.9 z"
   id="path60"
   inkscape:connector-curvature="0"
   style="fill:#231815" />
										<path
   class="st7"
   d="m 397.1,295.4 c 0,0 13.1,-1.6 14.7,5.4 0.1,0 -8.3,2.2 -14.7,-5.4 z"
   id="path62"
   inkscape:connector-curvature="0"
   style="fill:#cf0916" />
									</g>
									<g
   id="g130">
										<g
   id="g70">
											<path
   class="st3"
   d="m 397.7,279 c -2.4,0.5 -4.3,2.6 -5.7,6.3 -0.3,0.8 -0.4,2.5 -0.5,4.3 -0.1,1.4 -0.2,2.8 -0.4,3.3 -0.5,1.8 -2.1,5.1 -3.2,5.2 -1.5,0.2 -6.9,-0.2 -10.5,-14.6 l -1.4,-4.2 0.4,4.4 c 0,0.3 0.7,8.5 6.1,14.9 0.6,0.7 2.6,2.1 4,2 3.4,-0.3 5.7,-2.4 6.3,-6 l 0.1,-0.8 c 0.3,-2.1 1.1,-7.6 2.8,-10.5 0.7,-1.2 1.6,-1.9 2.2,-1.9 0.4,0 1.5,0.4 2.2,1.2 0.6,0.6 0.8,1.3 0.7,2 -0.1,1.1 -0.4,1.5 -0.8,1.7 -0.6,0.4 -1.3,2 -1.2,3.5 0.1,1.1 0.6,2 1.6,2.5 l 0.3,0.2 c 1.1,0.8 4.5,3.3 12.8,5.1 1.6,0.4 14.1,1.4 17.6,-0.7 0.6,-0.4 2.7,-2.3 2.7,-4.4 0,-0.1 0,-0.1 0,-0.2 -0.1,-1.3 -0.9,-2.3 -2.5,-3 -0.7,-0.3 -1.6,-0.4 -2.2,-0.4 0.3,-0.8 1.4,-2.1 4.8,-2 0.2,0 1,0.2 1.6,0.9 0.5,0.5 1,1.4 0.9,2.8 l -0.3,1.1 c -0.5,1.6 -1.3,4.4 -1.1,7.3 0.1,1.4 0.8,3.8 4.2,4.1 1.2,0.1 6.4,-1.4 8.1,-4.1 l 3.3,-4.1 -4,3.4 c 0,0 -4.7,2.7 -7.2,2.7 -1,0 -1.7,-0.3 -2.2,-0.8 -0.6,-0.7 -0.8,-1.8 -0.5,-3.1 l 0.5,-2 c 0.6,-2 1.4,-4.6 0.5,-8.2 -0.2,-0.7 -1,-1.5 -2.2,-2 -0.9,-0.4 -3.2,-1.1 -5.5,0.3 l -0.6,0.3 c -0.5,0.2 -1.2,0.5 -2.3,1.2 -0.8,0.6 -2.4,0.9 -2.7,0.8 -0.5,-0.3 -1.9,-1.2 -2.6,-2.2 -0.8,-1.2 -1.8,-3.1 -5.6,-2.8 l -0.7,-0.1 c -1,0 -1.2,0.2 -2,0.8 -0.8,0.5 -1.5,0.8 -3.2,0.8 0,0 -4.6,0.1 -5.6,0.4 -0.3,-0.1 -1.4,-1.3 -1.9,-2.4 -0.5,-1.3 -3,-3.4 -5.1,-3 z"
   id="path66"
   inkscape:connector-curvature="0"
   style="fill:#231815" />
											<path
   class="st6"
   d="m 376.9,283.7 c 0,0 0.6,8.2 6,14.6 0.6,0.7 2.4,1.9 3.6,1.8 1.2,-0.1 5,-0.6 5.9,-5.6 0.2,-1 0.9,-7.9 3,-11.4 0.6,-1.1 1.7,-2.2 2.7,-2.2 1,0 3.7,1.3 3.5,3.8 -0.1,1.1 -0.4,1.7 -1,2.1 -0.6,0.4 -2.1,3.9 0.3,5.1 0.6,0.3 3.5,3.2 13,5.3 1.5,0.3 13.9,1.3 17.2,-0.6 0.9,-0.5 4.9,-4.6 0.2,-6.7 -1,-0.5 -2.7,-0.3 -2.7,-0.3 0,0 0.2,-3.2 5.5,-3.1 0.8,0 3.2,1.2 3,4.3 -0.1,0.8 -1.7,4.5 -1.4,8.3 0.1,1.5 0.9,3.4 3.8,3.7 1,0.1 6.1,-1.4 7.6,-3.9 0,0 -4.8,2.8 -7.4,2.8 -2.7,0 -3.6,-2 -3.2,-4.5 0.4,-2.5 2.1,-5.3 1,-10 -0.3,-1.2 -3.9,-3.2 -7,-1.3 -0.5,0.3 -1.3,0.4 -2.9,1.5 -0.8,0.6 -2.6,1.1 -3.2,0.8 -0.6,-0.3 -2,-1.3 -2.8,-2.4 -0.8,-1.1 -1.8,-2.5 -5.3,-2.3 -1.4,0.1 -1.5,0 -2.4,0.6 -0.9,0.6 -1.7,0.6 -3.5,0.6 -0.7,0 -5.2,0.2 -5.6,0.4 -0.4,0.2 -1.9,-1.4 -2.4,-2.7 -0.5,-1.3 -2.8,-3.3 -4.7,-2.9 -1.9,0.4 -3.8,1.9 -5.4,6 -0.5,1.3 -0.5,6.4 -0.9,7.6 -0.4,1.3 -2.1,5.4 -3.6,5.6 -1.4,0.2 -7.1,0.1 -10.9,-15 z"
   id="path68"
   inkscape:connector-curvature="0"
   style="fill:#be8a3b" />
										</g>
										<g
   id="g118">
											<g
   id="g112">
												<path
   class="st3"
   d="m 402.9,283 c 0,0 -0.9,-7.2 0,-10 0.5,-1.6 1.9,-7.6 7.4,-9.1 1,-0.3 3.6,0.9 3.6,0.9 l -0.6,-1.9 c 0,0 -0.3,-10.3 -4.9,-10.3 v -5.4 c 0,0 5.2,3.4 6.3,7.6 0.4,1.7 0.2,10 0.2,10 0,0 3,4 2.1,11.9 0,0 1.9,-6.6 4.3,-8.3 0,0 2.2,-2.1 3,-2.8 0.7,-0.7 1.5,-3 1.5,-4.2 0,-1.2 2.2,-6.3 9.7,-9.2 0,0 -1.5,5.8 -1.9,6.3 -0.4,0.4 -4.2,-0.6 -5.1,1.2 -0.9,1.8 -1.8,3.3 -1.9,4.3 -0.1,1 -1.9,3.3 -2.7,3.6 0,0 4.9,-1 6.1,2.4 0.8,2.3 2.5,6.5 -0.6,12.2 -1.4,2.6 -2.2,4.4 -4.7,5.7 C 422.6,289 422,285 422,285 l -5.4,-2.7 -4.6,1.6 -6,0.1 z"
   id="path72"
   inkscape:connector-curvature="0"
   style="fill:#231815" />
												<g
   id="g110">
													<path
   class="st1"
   d="m 404,282.3 c 0,0 -1.3,-1.2 -0.6,-6.9 0.2,-1.5 1.5,-9.2 7.7,-9.8 1.3,-0.1 5.1,0.3 5.5,7.5 0.1,1.2 -0.2,8.3 -2.9,10.2 -0.9,0.6 -0.8,1.4 -4.4,1 -1.3,-0.2 -5.3,-2 -5.3,-2 z"
   id="path74"
   inkscape:connector-curvature="0"
   style="fill:#ffffff" />
													<path
   class="st1"
   d="m 418.3,282.9 -3.3,-0.4 c 0,0 4,-10.3 6.6,-12.1 1.2,-0.8 5.5,-3.3 8,1 0.7,1.1 1,6.1 0.1,8.2 -0.9,2.1 -1.6,4.8 -4.8,7.6 -0.9,0.8 -2.1,-0.1 -2.2,-0.7 -0.1,-0.6 -2.5,-2.3 -4.4,-3.6 z"
   id="path76"
   inkscape:connector-curvature="0"
   style="fill:#ffffff" />
													<g
   id="g108">
														<g
   id="g82">
															<path
   class="st3"
   d="m 404,279.9 c 0,0 0.4,-7.6 4,-9.4 1.2,-0.6 4.6,-0.1 4.6,4.2 0,1.5 -0.3,7.6 -3.3,9.5 -1.3,0.9 -5.3,-4.3 -5.3,-4.3 z"
   id="path78"
   inkscape:connector-curvature="0"
   style="fill:#231815" />
															<path
   class="st3"
   d="m 418.3,282.9 c 0,0 -0.1,-4.9 1.2,-7 0.5,-0.8 2.1,-3.1 3.4,-3.1 1.3,0 3.7,1.2 3,7 -0.2,1.5 -1,5.1 -3.7,5.5 -2.7,0.4 -3.9,-2.4 -3.9,-2.4 z"
   id="path80"
   inkscape:connector-curvature="0"
   style="fill:#231815" />
														</g>
														<g
   id="g106">
															<g
   id="g88">
																<path
   class="st8"
   d="m 404.1,281.4 c 0,0 -0.1,-6.1 2.5,-9.2 0.9,-1 3,-1.6 4.9,0.6 0.6,0.7 0.4,6 -0.6,8.5 -0.5,1.1 -0.9,2.1 -2.1,3 -1.1,0.8 -4.7,-2.9 -4.7,-2.9 z"
   id="path84"
   inkscape:connector-curvature="0"
   style="fill:#a6cad8" />
																<path
   class="st8"
   d="m 419,279.5 c 0,0 0.2,-2.7 1.9,-5.1 0.6,-0.8 3.4,-1.3 4,1 0.2,1 1.2,6.6 -1.8,9.2 -0.8,0.9 -4.1,-5.1 -4.1,-5.1 z"
   id="path86"
   inkscape:connector-curvature="0"
   style="fill:#a6cad8" />
															</g>
															<g
   id="g104">
																<path
   class="st3"
   d="m 408.3,272.5 c 1.5,-0.1 2.8,2.5 2.5,4.6 -0.2,1.3 -1.6,7 -2.5,7.4 -0.9,0.4 -1.6,0.4 -3,0.3 -1.3,-0.1 -0.9,-2.6 -0.7,-4.3 0.1,-1.8 0.3,-7.9 3.7,-8 z"
   id="path90"
   inkscape:connector-curvature="0"
   style="fill:#231815" />
																<path
   class="st3"
   d="m 422.4,275.4 c 1.2,0 1.6,1.3 1.6,3 0,1.6 0.1,5.5 -1.9,6.9 -0.5,0.3 -3,-1.2 -3.3,-1.6 -0.3,-0.4 0,-2.5 0.3,-3.4 0.4,-1 1,-4.9 3.3,-4.9 z"
   id="path92"
   inkscape:connector-curvature="0"
   style="fill:#231815" />
																<g
   id="g102">
																	<path
   class="st1"
   d="m 405.2,284.4 c 0,0 -0.4,-1.5 -0.3,-2.4 0.1,-0.9 0.6,-2.2 1,-3.3 0.4,-1.1 2.1,-1.8 1.9,0 -0.1,1.8 -0.1,6 -2.6,5.7 z"
   id="path94"
   inkscape:connector-curvature="0"
   style="fill:#ffffff" />
																	<path
   class="st1"
   d="m 421.8,280.2 c 0,0 0.2,3.3 -0.6,3.7 -0.7,0.4 -1.8,-0.4 -1.5,-1.5 0.4,-1 0.1,-2.3 2.1,-2.2 z"
   id="path96"
   inkscape:connector-curvature="0"
   style="fill:#ffffff" />
																	<polygon
   class="st1"
   points="407.1,275.9 407.4,274.6 408.7,275 408.7,275.7 "
   id="polygon98"
   style="fill:#ffffff" />
																	<polygon
   class="st1"
   points="421,278.1 421.1,276.8 422.4,276.9 422.1,278.1 "
   id="polygon100"
   style="fill:#ffffff" />
																</g>
															</g>
														</g>
													</g>
												</g>
											</g>
											<path
   class="st9"
   d="m 417.1,277 c 0,0 -1.5,5.3 -2.6,6.1"
   id="path114"
   inkscape:connector-curvature="0"
   style="fill:none;stroke:#231815;stroke-width:0.5;stroke-miterlimit:22.92560005" />
											<polyline
   class="st9"
   points="414.5,283 417.1,282.9 417.1,277            "
   id="polyline116"
   style="fill:none;stroke:#231815;stroke-width:0.5;stroke-miterlimit:22.92560005" />
										</g>
										<g
   id="g124">
											<path
   class="st3"
   d="m 406.1,292.1 c 0,0 -1.8,-1.9 0.1,-3.6 0.7,-0.6 2.8,-1.6 4.2,0.3 0,0 0.3,-2.8 1,-4.4 l 0.9,0.1 c 0,0 -1.2,3.3 -1,4.4 0.1,1 1,1.5 1,1.5 l -0.1,1.8 h -1.6 c 0,0 0.3,-2.7 -2.4,-2.7 -1.9,0 -1.2,2.2 -1.2,2.2 z"
   id="path120"
   inkscape:connector-curvature="0"
   style="fill:#231815" />
											<path
   class="st3"
   d="m 420.4,294.1 c 0,0 -0.9,0.1 -0.7,-1.6 0.1,-1.8 2.4,-1.8 2.4,-1.8 l 0.6,-3.7 0.6,0.2 -0.3,3.5 c 0,0 3.1,0 3.1,2.1 0,1 -0.1,2.1 -1.9,2.5 0,0 2.7,-3 -0.7,-3 -0.2,0 -3.1,0 -3.1,1.8 z"
   id="path122"
   inkscape:connector-curvature="0"
   style="fill:#231815" />
										</g>
										<path
   class="st3"
   d="m 403.8,284.4 c 0,1.1 -0.3,1.9 -0.5,2 -0.4,0.2 -1.6,-0.4 -2.1,-0.9 l -0.6,0.8 c 0.3,0.3 2,1.7 3.2,1.1 1.1,-0.5 1.1,-2.2 1.1,-2.8 z"
   id="path126"
   inkscape:connector-curvature="0"
   style="fill:#231815" />
										<path
   class="st3"
   d="m 425.4,287.9 0.2,3.4 4.4,-1.9 -1.1,-0.8 c 0,0 -1.4,0.5 -2.2,0.9 0,-0.7 -0.1,-2 -0.1,-2 z"
   id="path128"
   inkscape:connector-curvature="0"
   style="fill:#231815" />
									</g>
								</g>
								<path
   class="st3"
   d="m 383.9,279.2 c 0,0 -2,-0.7 -1.9,1 0.1,1.7 1.2,3 2.5,2.7 1.3,-0.3 2,-1.2 1.9,-3 -0.1,-1.8 -1.7,-3.6 -2.5,-4.2 -0.8,-0.6 -0.8,1.6 -0.8,1.6 0,0 1.9,0.3 2.2,1.4 0.3,1.1 0.7,2.9 -1,2.9 -1.7,0 -2.1,-1.9 -0.8,-2 z"
   id="path134"
   inkscape:connector-curvature="0"
   style="fill:#231815" />
							</g>
						</g>
					</g>
					<g
   id="g152">
						<path
   class="st1"
   d="m 434.2,261.3 c 0,0 7.5,-1 9.1,-0.6 0,0 0.8,4.4 -6.6,10.3 0,0.1 1,-5.1 -2.5,-9.7 z"
   id="path142"
   inkscape:connector-curvature="0"
   style="fill:#ffffff" />
						<g
   id="g150">
							<path
   class="st3"
   d="m 435.4,264 -0.3,0.3 0.6,1.1 c 0.4,0.7 0.5,2.2 0.4,3.6 l 0.1,1.8 1.1,-0.9 c 1.5,-0.9 4,-5.2 4.8,-6.5 l 0.7,-1.2 -1.3,-0.3 c -3.3,-0.7 -6,2 -6.1,2.1 z"
   id="path144"
   inkscape:connector-curvature="0"
   style="fill:#231815" />
							<path
   class="st10"
   d="m 435.9,264.5 -0.2,0.2 0.2,0.2 c 0.7,0.7 1,3.2 0.7,4.1 v 0.6 l 0.5,-0.3 c 1.4,-0.8 4.2,-5.7 4.5,-6.3 l 0.2,-0.4 -0.4,-0.1 c -2.9,-0.5 -5.4,1.9 -5.5,2 z"
   id="path146"
   inkscape:connector-curvature="0"
   style="fill:#be8740" />
							<path
   class="st10"
   d="m 436.1,264.7 c 0,0 2.4,-2.4 5.2,-1.8 0,0 -3,5.4 -4.4,6.2 0,0 0.2,-3.4 -0.8,-4.4 z"
   id="path148"
   inkscape:connector-curvature="0"
   style="fill:#be8740" />
						</g>
					</g>
				</g>
				<g
   id="g172">
					<g
   id="g168">
						<g
   id="g162">
							<path
   class="st11"
   d="m 404.7,246.8 c -1.1,-0.7 -4.6,-15 -4.7,-18 -0.1,-3 -0.1,-4.3 -1.9,-4.4 -1.7,-0.1 -2.3,3.3 -2.9,5.1 -0.6,1.9 1,14.5 1,14.5 -2.1,-0.6 -3.1,-2 -5.1,-3.6 -2,-1.6 -3.2,-1.8 -3.7,-1.4 -2.1,1.4 2.9,7.2 4.3,7.7 6.4,2.3 5.4,4.4 5.4,8.3 0,3.9 3.1,3.7 5.7,3.6 2.6,-0.1 3.9,0.4 3.6,-1 -0.2,-1 0.1,-2.3 0.3,-3 -0.7,-2 -1.5,-5.5 -2,-7.8 0,0 0,0 0,0 z"
   id="path156"
   inkscape:connector-curvature="0"
   style="fill:#bc8941" />
							<path
   class="st12"
   d="m 415.7,244.2 c 2.3,-1.7 9,-0.7 9,-0.7 -0.3,-1.2 -2.9,-2.9 -4.3,-3.8 0,0.1 0,0.1 0,0.1 -8,-0.7 -15.5,6.8 -15.7,7 0.5,2.3 1.2,5.8 2,7.8 0.1,-0.3 0.2,-0.5 0.2,-0.5 0,0 1.1,0.1 1.1,-1 0,-8.6 0.9,-5.7 0.9,-5.7 4.4,2.7 5.6,7 5.6,7 6,1.7 8,5.8 8,5.8 0.1,-6.3 -5.7,-10 -5.7,-10 5.9,-1.2 9.5,3.1 10.8,4.7 -1,-10.5 -11.9,-10.7 -11.9,-10.7 z"
   id="path158"
   inkscape:connector-curvature="0"
   style="fill:#da8c18" />
							<path
   class="st11"
   d="m 431.5,227.7 c -4,5 -5.1,13.4 -5.1,13.4 -1.7,-1.3 -2.9,-6.6 -4.7,-6.4 -1.7,0.1 -1.4,4.3 -1.3,5 1.4,0.9 4,2.6 4.3,3.8 0,0 -6.7,-1 -9,0.7 0,0 10.9,0.1 11.8,10.7 0.1,0.2 0.3,0.3 0.4,0.4 1.3,1.6 4,-0.9 4,-0.9 -0.4,-9.8 1.1,-20.1 2,-24.7 0.8,-4.4 -1.7,-2.9 -2.4,-2 z"
   id="path160"
   inkscape:connector-curvature="0"
   style="fill:#bc8941" />
						</g>
						<path
   class="st13"
   d="m 418.3,250.6 c 0,0 3.8,-1.1 4.6,1.6 -0.1,0 -4.3,0.3 -4.6,-1.6 z"
   id="path164"
   inkscape:connector-curvature="0"
   style="fill:#ffffff;stroke:#da8c18;stroke-width:0.21600001;stroke-miterlimit:22.92560005" />
						<path
   class="st1"
   d="m 418.3,244.1 c 0,0 3.1,-1.4 3,0.4 0,0 -1.5,1 -3,-0.4 z"
   id="path166"
   inkscape:connector-curvature="0"
   style="fill:#ffffff" />
					</g>
					<path
   class="st3"
   d="m 434.1,226.3 c -0.6,-0.4 -1.5,-0.4 -2.4,0.2 -3.4,1.9 -4.9,9.1 -5.5,12.6 -1.1,-2.6 -3.5,-5.2 -4.4,-5.2 -0.9,0 -1.9,1 -1.9,2.7 v 3.4 c -0.7,-0.1 -1.4,-0.2 -2.1,-0.2 l -1,-0.1 c -3,-0.3 -10.5,5.5 -12.4,7 -1.2,-3.8 -2.2,-9.6 -3,-14.2 -0.6,-3.4 -1,-5.8 -1.3,-6.5 -0.5,-1.2 -1.1,-1.7 -1.8,-1.8 -1.3,-0.1 -2.4,1.8 -3,2.8 -0.6,1.1 -0.8,3.4 -0.8,6 0,3.8 0.4,8 0.6,9.8 -0.2,-0.1 -0.4,-0.3 -0.4,-0.3 -1.3,-0.8 -3,-1.8 -3.8,-2.9 -0.7,-1 -2.1,-1.6 -3.3,-1.3 -0.9,0.2 -1.6,1 -1.7,2 -0.3,2.6 4.7,7.3 6.7,8.2 3.4,1.5 3.4,2.5 3.4,5.1 l 0.1,2.4 c 0.4,4.4 4.7,4.1 7.9,3.9 l 1.2,-0.1 c 0.7,0 1.2,-0.4 1.6,-0.9 0.6,-1 0.5,-2.8 0.2,-4.5 9.2,-2.1 15.2,6.9 15.2,7 l 0.7,1.1 0.1,-1.3 c 0,-0.3 0,-0.6 0,-0.9 0,-4.7 -3.3,-8.4 -4.9,-9.8 5.4,-0.6 8.3,4.9 8.4,5.2 l 0.8,0.3 1.5,1.1 h 0.2 c 0.1,0 2.1,-0.2 3.1,-1.5 0.5,-0.6 0.7,-1.4 0.6,-2.3 -0.3,-1.8 0.4,-9.5 2,-22.9 l 0.1,-0.8 c 0.4,-1.7 0.1,-2.8 -0.7,-3.3 z m -28,32.2 v 0 c -0.2,0.3 -0.5,0.5 -0.9,0.5 l -1.2,0.1 c -3.7,0.2 -6.6,0.2 -6.9,-3.1 l -0.1,-2.4 c -0.1,-2.7 -0.1,-4.2 -4,-5.9 -1.9,-0.8 -6.4,-5.3 -6.2,-7.2 0.1,-0.7 0.4,-1.1 1,-1.3 0.8,-0.2 1.8,0.2 2.3,0.9 0.9,1.2 2.7,2.3 4.1,3.1 l 2,1.2 -0.1,-0.9 c -0.5,-3.7 -1.4,-13.8 -0.1,-16.1 0.4,-0.7 1.4,-2.5 2.2,-2.4 0.3,0 0.7,0.5 1,1.2 0.3,0.7 0.7,3.3 1.3,6.3 1,5.8 2.4,13.7 4,16.9 1,2.1 2.7,7.4 1.6,9.1 z m 11.1,-8.7 v 0 l -0.9,0.2 0.7,0.6 c 0.1,0 4.9,4 5.2,9.3 -2,-2.4 -7.4,-7.8 -15.1,-6.3 -0.2,-0.6 -2.1,-5.5 -2.3,-6.1 2.7,-2.2 9.5,-7.2 12,-7 l 1,0.1 c 0.8,0.1 1.5,0.1 2.2,0.3 0,0 1.5,0.5 1.9,0.6 0.6,0.3 1.1,0.8 1.5,1.4 0,0 0,0 0,0 -0.8,-0.1 -2.1,-0.3 -2.1,-0.3 0,0 -4.4,0.2 -5.4,1.4 l -0.5,0.7 0.8,0.1 c 0,0 3.4,0.3 5.6,1.5 0.8,0.6 2.5,1.9 3.8,3.5 0,0 0,0.1 0.1,0.1 0.6,1 1,2.3 1,3.9 0,0.1 0,0.3 0,0.4 -1.4,-2.2 -4.7,-5.6 -9.5,-4.4 z m 0.3,-5.9 v 0 c 1,-0.4 2.4,-0.4 3.7,-0.3 l -0.1,1.2 c -1.2,-0.5 -2.6,-0.7 -3.6,-0.9 z m 16.6,-14.4 v 0 l -0.1,0.8 c -0.5,4.5 -2.1,17.3 -2.1,21.9 0,0.5 0,0.9 0.1,1.2 0,0.1 0,0.3 0,0.4 0,0.5 -0.1,0.9 -0.4,1.2 -0.7,0.9 -2,1.1 -2.3,1.1 -0.2,-0.1 -1.2,-0.9 -1.6,-1.2 0,-0.3 0,-0.6 0,-0.9 0,-0.1 0,-0.3 0,-0.4 0,-0.1 0,-0.3 0,-0.5 0,-1.2 -0.2,-2.7 -1.2,-4 -1,-1.6 -2.4,-2.8 -3.8,-3.7 -0.1,-0.1 -0.2,-0.1 -0.2,-0.1 -0.2,-0.1 -0.3,-0.2 -0.4,-0.3 0,-0.3 0.1,-1 0.1,-1.5 0.4,0 0.8,0.1 1.2,0.1 0.3,0.1 0.6,0.1 0.9,0.2 l 0.8,0.2 -0.3,-0.7 v 0 c 0,0 0,0 0,0 v 0 c 0,0 0,0 0,0 -0.1,-0.1 -0.1,-0.3 -0.2,-0.5 -0.8,-1.7 -2.1,-2.4 -3.6,-2.8 0,-1.1 0,-3.6 0,-3.6 0,-1.1 0.5,-1.8 1,-1.8 0.6,0.2 3.9,3.8 4.1,6.4 h 0.9 c 0,-0.1 1.3,-11.6 5.3,-13.9 0.5,-0.3 1.1,-0.5 1.5,-0.2 0.3,0.2 0.5,0.8 0.5,1.6 -0.2,0.3 -0.2,0.6 -0.2,1 z"
   id="path170"
   inkscape:connector-curvature="0"
   style="fill:#231815" />
				</g>
			</g>
		</g>
		<g
   id="g258">
			<g
   id="g228">
				<path
   class="st3"
   d="m 330.1,320.4 c 0,0 2,-0.8 4.8,0.6 0,0 3.4,-8.1 22.4,-10.9 l -0.2,-2 c 0,0 18.5,-3.2 25,-1.2 l 0.4,0.6 4.2,0.4 25.8,4.4 c 0,0 13.5,-2.4 23.8,10.1 0,0 -0.6,3 1.8,5.4 2.4,2.4 8.3,11.9 12.9,7.5 1.4,-1.4 5.4,-4.6 11.1,1 0,0 10.9,0 8.9,7 -0.9,3 -2.8,3 -2.8,3 0,0 1.2,4.6 -3.4,5.2 0,0 0.8,4.6 -2,5 -2.8,0.4 -7.2,1.8 -9.5,-2.4 0,0 -6.4,2.4 -7.9,-6.4 0,0 -12.9,-2 -18.7,-7.2 0,0 0,1.8 -3.6,0 -1.5,-0.8 -3.2,-3.6 -3.6,-1.6 -0.4,2 -3.8,14.1 -12.1,18.7 -1.4,0.8 -1.2,1.6 -1.2,2.8 0,1.2 -0.6,38.5 -0.6,38.5 0,0 -7.4,3.6 -10.5,6.8 -3.2,3.2 -10.5,4.6 -17.1,-3.2 -2.5,-3 -4.2,-10.7 -4.6,-13.1 0,0 -2.4,0.2 -4,-1.2 -1.6,-1.4 -7.5,-5.8 -8.9,-7 -1.4,-1.2 -8.9,-3.2 -8.9,-6.6 0,-3.4 3.8,-3.8 6,-4.2 2.2,-0.4 3.4,-0.4 2.8,-3 -0.6,-2.6 -2,-17.5 8.7,-21.5 0,0 3,-4 -2,-18.5 0,0 -5.6,1 -7.2,0.8 l -0.8,-1.8 c 0,0 -12.1,-0.8 -13.1,0.8 -1,1.6 -1.4,4 3,4.2 0,0 4,3.8 -4.2,9.1 -1,0.6 -2.8,1 -2.8,1 0,0 -1.6,-0.2 -2.4,1.4 -0.8,1.6 -4.4,1.2 -5.6,0.4 -1.2,-0.8 -2.8,-1.6 -4.6,-1.8 -1.8,-0.2 -2.6,-1.4 -2.4,-3 0.2,-1.6 0.4,-3 -1.8,-4.2 -2.2,-1.2 -3.2,-1.4 -2,-4.2 0.7,-1.6 0.8,-1.8 -0.2,-3.8 -0.6,-1.7 3.1,-4.9 7.1,-5.9 z"
   id="path178"
   inkscape:connector-curvature="0"
   style="fill:#231815" />
				<g
   id="g226">
					<g
   id="g222">
						<g
   id="g192">
							<path
   class="st7"
   d="m 358.1,309.8 c 0,0 19,-3.8 27.7,-0.8 8.7,3 27.7,4.9 27.7,4.9 0,0 13.6,-0.8 22,8.7 l -9.5,17.1 c 0,0 -6.2,1.6 -6.2,-7.1 0,0 -0.8,6 -1.6,8.1 -0.8,2.2 -3.5,11.7 -10,15.7 -1.9,1.2 -3,0 -6.2,-1.1 -3.3,-1.1 -19.5,-11.1 -30.9,-10.8 0,0 0.3,-12.2 -3,-17.1 0,0 2.4,-1.9 3.3,-2.2 0,0 -3.5,0.8 -5.2,1.4 -1.6,0.5 -5.7,0.8 -5.7,0.8 0,0 -2.4,-10.3 -2.4,-17.6 z"
   id="path180"
   inkscape:connector-curvature="0"
   style="fill:#cf0916" />
							<g
   id="g190">
								<path
   class="st5"
   d="m 434.8,325.3 c 0,0 7.1,10.3 11.4,11.9 1.6,0.6 1.9,1.9 6.8,-2.2 1.2,-1 9.2,-0.8 8.7,5.7 -0.1,1.6 2.7,7.9 -2.7,6.8 -1.3,-0.3 -3.5,-3.8 -3,-7.3 0,0 -1.4,1.4 -1.4,2.4 0,1.1 1.1,3 -0.5,3.8 -1.6,0.8 -4.3,-1.1 -4.3,-1.1 0,0 -1.9,2.7 5.7,2.2 l 0.3,1.9 c 0,0 -4.1,0.3 -2.7,3.3 0,0 -5.7,3.3 -6.8,-6 0,0 -17.6,-3.3 -19,-7.6 z"
   id="path182"
   inkscape:connector-curvature="0"
   style="fill:#f6debd" />
								<path
   class="st5"
   d="m 461.9,337.5 c 0,0 6.8,1.4 7.3,2.7 0.5,1.4 0.8,3 -0.3,4.1 -1.1,1.1 -3.5,1.4 -5.2,0.3 -1.5,-1.2 -1.5,-1.4 -1.8,-7.1 z"
   id="path184"
   inkscape:connector-curvature="0"
   style="fill:#f6debd" />
								<path
   class="st5"
   d="m 463,345.4 c 0,0 4.6,0.4 4.6,1.8 0,1.4 -1.8,3.8 -2.8,3.8 -1,0 -4,1 -6.8,-0.6 -1.2,-0.7 -1.8,-1.8 -1,-2.8 0,0 6.2,2.7 6,-2.2 z"
   id="path186"
   inkscape:connector-curvature="0"
   style="fill:#f6debd" />
								<path
   class="st5"
   d="m 464.2,352.3 c 0,0 0.4,4 -4.6,3.8 -5,-0.2 -5.4,-1.2 -6,-3.6 -0.6,-2.4 1.6,-3 3,-2.2 1.4,0.8 1.8,1.8 7.6,2 z"
   id="path188"
   inkscape:connector-curvature="0"
   style="fill:#f6debd" />
							</g>
						</g>
						<g
   id="g220">
							<path
   class="st3"
   d="m 386.6,307.1 c 0,0 1.5,-1.6 4.9,-2.4 l 0.5,-4.3 6.6,7.2 c 0,0 9.6,2.9 12.1,2.3 0,0 8.1,8.9 -4.9,19 l -0.8,-7.6 -2.4,3.5 -0.5,-5.1 -6.5,7 c -0.1,-0.1 -10.4,-11.2 -9,-19.6 z"
   id="path194"
   inkscape:connector-curvature="0"
   style="fill:#231815" />
							<g
   id="g218">
								<g
   id="g210">
									<g
   id="g206">
										<path
   class="st1"
   d="m 387.6,307.6 c 0,0 2.1,-1.8 3.3,-1.2 0,0 -1.5,4.2 11,11.9 l -6,6 c 0,0 -8.6,-10.7 -8.3,-16.7 z"
   id="path196"
   inkscape:connector-curvature="0"
   style="fill:#ffffff" />
										<path
   class="st1"
   d="m 410.8,313.3 c 0,0 3.6,6.9 -3.9,12.8 l -0.6,-6.3 z"
   id="path198"
   inkscape:connector-curvature="0"
   style="fill:#ffffff" />
										<g
   id="g204">
											<path
   class="st7"
   d="m 388.5,307.6 c 0,0 2.7,9.2 10.4,13.7 l -1.5,1.5 c 0,0 -10.7,-10.1 -8.9,-15.2 z"
   id="path200"
   inkscape:connector-curvature="0"
   style="fill:#cf0916" />
											<path
   class="st7"
   d="m 406.5,322 c 0,0 3.5,-1.2 4.7,-4.8 0,0 0.6,3.9 -4.5,6 z"
   id="path202"
   inkscape:connector-curvature="0"
   style="fill:#cf0916" />
										</g>
									</g>
									<path
   class="st14"
   d="m 394.8,303.9 c 0.9,1 0.6,5.2 14.9,6.4 0,0 0.6,5 -6,10.3 v -2.4 c 0,0 -6.2,-3.2 -11.3,-9.7 -1.3,-1.7 -0.8,-2 -0.2,-3.2 0.6,-1.2 1,-3.2 2.6,-1.4 z"
   id="path208"
   inkscape:connector-curvature="0"
   style="fill:#f6ddbd" />
								</g>
								<g
   id="g216">
									<path
   class="st15"
   d="m 360.1,312.4 c 0,0 6,-2.4 22.4,-2.6 1.8,0 1.4,1.6 -0.4,1.6 -1.8,0 -16.1,-0.6 -22,1 z"
   id="path212"
   inkscape:connector-curvature="0"
   style="fill:#ffe100" />
									<path
   class="st15"
   d="m 413.1,314.6 c 0,0 16.5,2 21.1,10.1 l -0.6,1.4 c 0,0 -6,-9.9 -20.5,-9.9 z"
   id="path214"
   inkscape:connector-curvature="0"
   style="fill:#ffe100" />
								</g>
							</g>
						</g>
					</g>
					<path
   class="st5"
   d="m 357.1,310.8 c 0,0 0.8,9.3 2,14.5 0,0 -16.1,-2 -16.7,5.4 0,0 1.4,-2 2,-0.4 0.6,1.6 2.8,2.2 3.4,2.2 0.6,0 0.8,2.2 0,3.2 -0.8,1 -2.6,4 -4.2,4.6 -1.6,0.6 -2.4,0.2 -3.2,-0.4 -0.8,-0.6 -1.6,-1.6 1.4,-3.6 0.7,-0.5 -0.4,-1.4 -1.8,0.2 -1.4,1.6 -3.2,2.8 -1,3.8 0.9,0.4 1.8,1 0.4,1.8 -1.4,0.8 -2.4,1.8 -5.4,0.4 -1.5,-0.7 -5.6,-1.6 -5.6,-1.6 0,0 -0.6,-2.6 0,-3.6 0.6,-1 0,-1.8 -1.4,-2.4 -1.4,-0.6 -3.8,-1.4 -2.6,-4 0.5,-1.2 2,-2.6 0.8,-3 -1.2,-0.4 -2.4,-2.4 0.2,-4.4 0.8,-0.7 7,-4.2 8.7,-1.2 l -1.2,2.2 c 0,0 0.8,0 2.8,-3.4 2.1,-3.3 8.1,-6.3 21.4,-10.3 z"
   id="path224"
   inkscape:connector-curvature="0"
   style="fill:#f6debd" />
				</g>
			</g>
			<g
   id="g256">
				<path
   class="st1"
   d="m 370.4,345.1 c 0,0 12.8,2.2 17.7,4.7 2.3,1.2 8.1,4.7 13.8,6 1,0.2 3.9,0.6 4.3,1.7 l -3.3,-0.5 c 0,0 -4.9,-1.8 -6.8,-2.5 -1.8,-0.7 -8.6,-4.6 -15.1,-6 -1.5,-0.3 -6.9,-2.1 -10.7,-2.8 v -0.6 z"
   id="path230"
   inkscape:connector-curvature="0"
   style="fill:#ffffff" />
				<g
   id="g254">
					<g
   id="g244">
						<g
   id="g236">
							<path
   class="st1"
   d="m 370,346.2 5.8,1.8 c 0,0 -6.8,6 0,21.3 L 375,372 c 0,0 -8.3,1.8 -11.1,1 -2.8,-0.8 -3,-4.4 -3,-5.2 0,-0.8 -3.4,-15.1 9.1,-21.6 z"
   id="path232"
   inkscape:connector-curvature="0"
   style="fill:#ffffff" />
							<path
   class="st1"
   d="m 376.6,348.1 c 0,0 13.7,3.2 19.9,7.5 1.2,0.9 6.2,2.8 8.5,2.4 l 0.2,2.4 0.4,2.2 -10.3,3.4 -1.4,-4.4 -0.8,0.2 1.2,4.2 c 0,0 -4,-3.8 -13.9,3.8 -1.2,0.9 -2.8,1.6 -4.4,-2.2 -1.6,-3.8 -4.6,-13.9 0.6,-19.5 z"
   id="path234"
   inkscape:connector-curvature="0"
   style="fill:#ffffff" />
						</g>
						<g
   id="g242">
							<path
   class="st0"
   d="m 361.9,370.6 c 0,0 10.5,0.8 13.5,-0.8 v 0.8 c 0,0 -1,1 -13.3,1.4 z"
   id="path238"
   inkscape:connector-curvature="0"
   style="fill:#d0121b" />
							<path
   class="st0"
   d="m 377,370 c 0,0 5.8,-6.4 16.7,-7 l 0.4,1.4 c 0,0 -6,-2.2 -16.3,6 z"
   id="path240"
   inkscape:connector-curvature="0"
   style="fill:#d0121b" />
						</g>
					</g>
					<g
   id="g252">
						<path
   class="st16"
   d="m 360.5,370.4 2,3.8 3.8,0.8 c 0,0 6,7 7,12.5 0,0 -3.2,0.8 -7.5,-3.8 -1.2,-1.2 -11.1,-6.8 -11.9,-7.3 -0.8,-0.6 -2.8,-3.4 2.2,-4.6 1.4,-0.4 1.8,0.4 4.4,-1.4 z"
   id="path246"
   inkscape:connector-curvature="0"
   style="fill:#f1dec3" />
						<path
   class="st17"
   d="m 367.4,374.4 8.3,-1.2 0.6,-3.8 2.2,2.6 c 0,0 0.4,1 2,-0.2 1.6,-1.2 7.9,-7.5 14.1,-4.4 l 0.6,2 -2.2,15.3 c 0,0 -1,-0.4 -1.4,1 -0.4,1.4 -3.2,4.6 -4.6,5.8 -1.4,1.2 -5.1,3.6 -7.5,9.8 0.1,0 -8.5,-25.5 -12.1,-26.9 z"
   id="path248"
   inkscape:connector-curvature="0"
   style="fill:#f7ddbe" />
						<path
   class="st18"
   d="m 383.3,405.2 c 1.5,1.2 4,3.4 8.9,1.4 1.6,-0.7 10.3,-8.5 14.3,-7.7 l -12.7,-13.5 c 0,0 -6.2,6.6 -7.2,7.5 -0.9,0.9 -9,7.7 -3.3,12.3 z"
   id="path250"
   inkscape:connector-curvature="0"
   style="fill:#bd9e6a" />
					</g>
				</g>
			</g>
		</g>
	</g>
	<g
   id="g266">
		<path
   class="st1"
   d="m 436.1,379.8 c 0,11.6 -9.8,20.9 -21.9,20.9 -12.1,0 -21.9,-9.4 -21.9,-20.9 0,-11.5 9.8,-20.9 21.9,-20.9 12.1,0 21.9,9.3 21.9,20.9 z"
   id="path262"
   inkscape:connector-curvature="0"
   style="fill:#ffffff" />
		<path
   class="st3"
   d="m 434.5,379.8 1.4,-1.7 -2.8,-8.1 -2.3,-1 c -2.5,-3.4 -6.1,-5.9 -10.3,-7.1 l -2.3,-2.6 -7.5,0.2 -3.4,3 c -2.9,1.2 -5.5,3 -7.5,5.3 l -4.2,0.8 -3.2,7.7 2.9,2.5 c 0,0.3 -0.1,0.6 -0.1,1 0,4 1.3,7.7 3.5,10.7 l 0.6,4.1 7.7,4.8 2,-1.6 c 1.8,0.5 3.8,0.8 5.8,0.8 1.9,0 3.7,-0.3 5.4,-0.7 l 2.1,1.4 8.3,-6.2 0.1,-2.4 c 2.5,-3.1 3.8,-6.8 3.8,-10.9 0,0 0,0 0,0 z M 423,391.3 v 0 0 l -3.9,-6.3 1.9,-7.9 8.8,-2 4.1,5.5 c -0.1,3.4 -1.2,6.5 -3,9.2 z m 6.7,-22.9 v 0 l -0.1,6 -8.8,2 -5.7,-4.7 -0.1,-6.5 5.9,-2.8 c 3.4,1.3 6.5,3.3 8.8,6 z m -21.5,-5.5 v 0 l 6.2,2.4 0.1,6.5 -6.7,4.6 -7.9,-2.5 v -5.1 c 2,-2.7 4.9,-4.7 8.3,-5.9 z m -12.3,15.3 v 0 l 3.6,-3.8 7.6,2.4 2.3,8.3 -4,5.5 -6.7,-1.1 c -1.9,-2.8 -2.9,-6.1 -2.9,-9.7 0,-0.5 0.1,-1.1 0.1,-1.6 z m 13.5,19 v 0 l -3.5,-6.3 4,-5.5 8.6,-0.4 4.2,6.8 -3,5.5 c -1.5,0.4 -3.1,0.6 -4.8,0.6 -1.9,0.1 -3.7,-0.2 -5.5,-0.7 z"
   id="path264"
   inkscape:connector-curvature="0"
   style="fill:#231815" />
	</g>
	<g
   id="g272">
		<path
   class="st19"
   d="m 273.7,435.2 c 0,0 62.4,-20.4 127,-20.4 64.6,0 123.2,19.8 123.2,19.8 l 0.6,37.6 c 0,0 -68.4,-18.2 -123.2,-18.2 -54.9,0 -95,10 -130.1,19.8 z"
   id="path268"
   inkscape:connector-curvature="0"
   style="fill:#fadf1b" />
		<path
   d="m 400.7,414.8 c 64.6,0 123.2,19.8 123.2,19.8 l 0.6,37.6 c 0,0 -68.4,-18.2 -123.2,-18.2 -54.9,0 -95,10 -130.1,19.8 l 2.5,-38.6 c 0,0 62.4,-20.4 127,-20.4 m 0,-1.1 c -64,0 -126.7,20.2 -127.3,20.4 -0.5,0.1 -0.8,0.6 -0.8,1 l -2.5,38.6 c 0,0.4 0.1,0.7 0.4,1 0.2,0.2 0.5,0.3 0.7,0.3 0.1,0 0.2,0 0.3,0 36,-10 75.8,-19.7 129.8,-19.7 54.1,0 122.2,18 122.9,18.1 0.1,0 0.2,0 0.3,0 0.3,0 0.5,-0.1 0.7,-0.2 0.3,-0.2 0.5,-0.6 0.4,-0.9 L 525,434.7 c 0,-0.5 -0.3,-0.9 -0.8,-1.1 -0.5,-0.3 -59.5,-19.9 -123.5,-19.9 z"
   id="path270"
   inkscape:connector-curvature="0" />
	</g>
	<g
   id="g300">
		<path
   class="st3"
   d="m 305.2,438.5 -0.4,-2.2 -0.3,0.1 -5,0.9 0.4,2.2 h 0.3 c 0.4,-0.1 0.7,0 0.9,0 0.2,0.1 0.2,0.2 0.3,0.2 0.1,0.5 -0.1,2 -1.7,6.8 0,0 -0.1,0.2 -0.1,0.3 -0.6,-0.9 -3.1,-4.6 -3.1,-4.6 l -0.1,-0.2 c -0.4,-0.6 -0.5,-0.9 -0.6,-1.1 0,-0.3 0,-0.5 0.1,-0.6 0.1,-0.2 0.3,-0.3 0.7,-0.3 h 0.2 c 0,0 0.2,0 0.2,0 h 0.4 l -0.1,-0.3 -0.4,-1.9 -8.4,1.6 0.4,2.2 h 0.3 c 0.3,0 0.7,0.1 0.9,0.2 0.2,0.1 0.6,0.5 1.3,1.5 0,0 5.2,7.1 5.3,7.2 0,0.1 0.6,3.2 0.6,3.2 0.3,1.5 0.1,1.9 0.1,2.1 -0.1,0.2 -0.4,0.4 -1.3,0.6 l -0.3,0.1 0.4,2.2 8.5,-1.6 -0.4,-2.2 H 304 c -0.9,0.1 -1.2,0 -1.4,-0.1 -0.1,-0.1 -0.4,-0.4 -0.6,-1.9 0,0 -0.7,-3.6 -0.7,-3.7 0.8,-2.5 1.6,-4.9 2.2,-7.3 0,0 0.1,-0.4 0.1,-0.4 0.4,-1.5 0.6,-2 0.8,-2.3 0.2,-0.3 0.4,-0.5 0.6,-0.5 z"
   id="path274"
   inkscape:connector-curvature="0"
   style="fill:#231815" />
		<path
   class="st3"
   d="m 323.2,450.1 c -0.3,-0.3 -0.6,-0.8 -0.8,-1.4 L 315.5,433 h -0.3 l -4.6,0.7 0.8,1 0.2,0.4 v 0.2 0.3 l -1.9,14.6 c -0.1,0.9 -0.3,1.5 -0.4,1.8 -0.2,0.3 -0.4,0.5 -0.7,0.7 l -0.2,0.1 0.3,2.2 5.3,-0.7 -0.3,-2.3 -0.4,0.1 c -0.4,0.1 -0.6,0 -0.8,-0.2 -0.2,-0.2 -0.3,-0.5 -0.4,-0.8 v -0.4 -0.6 c 0,0 0.2,-2.1 0.2,-2.5 0.5,-0.1 3.9,-0.6 4.4,-0.6 0.2,0.4 1,2.6 1,2.6 0,0 0.2,0.6 0.2,0.6 0,0 0.1,0.4 0.1,0.4 0,0.3 0,0.5 -0.1,0.7 -0.2,0.2 -0.4,0.3 -0.8,0.4 l -0.3,0.1 0.3,2.3 7.7,-1.1 -0.3,-2.3 h -0.3 c -0.5,-0.2 -0.8,-0.3 -1,-0.6 z m -10.8,-5.2 v 0 c 0.1,-0.6 0.5,-4.2 0.7,-5.8 0.6,1.5 2,4.8 2.3,5.4 -0.6,0 -2.4,0.3 -3,0.4 z"
   id="path276"
   inkscape:connector-curvature="0"
   style="fill:#231815" />
		<path
   class="st3"
   d="m 356.8,444.8 c -0.3,-0.3 -0.6,-0.8 -0.8,-1.4 l -6.9,-15.7 h -0.3 l -4.6,0.7 0.8,1 0.2,0.4 v 0.2 0.3 l -1.9,14.6 c -0.1,0.9 -0.3,1.5 -0.4,1.8 -0.2,0.3 -0.4,0.5 -0.7,0.7 l -0.2,0.1 0.3,2.2 5.3,-0.7 -0.3,-2.3 -0.4,0.1 c -0.4,0 -0.6,0 -0.8,-0.2 -0.2,-0.2 -0.3,-0.5 -0.4,-0.8 v -0.4 -0.6 c 0,0 0.2,-2.1 0.2,-2.6 0.5,-0.1 3.9,-0.6 4.4,-0.6 0.2,0.4 1,2.6 1,2.6 0,0 0.2,0.6 0.2,0.6 l 0.1,0.4 c 0,0.3 0,0.5 -0.1,0.7 -0.1,0.2 -0.4,0.3 -0.8,0.4 l -0.3,0.1 0.3,2.3 7.7,-1.1 -0.3,-2.3 h -0.3 c -0.5,-0.1 -0.8,-0.2 -1,-0.5 z M 346,439.6 v 0 c 0.1,-0.6 0.5,-4.2 0.7,-5.8 0.6,1.5 2,4.8 2.3,5.4 -0.6,0.1 -2.4,0.3 -3,0.4 z"
   id="path278"
   inkscape:connector-curvature="0"
   style="fill:#231815" />
		<path
   class="st3"
   d="m 474.5,449.3 c -0.2,-0.4 -0.3,-0.9 -0.4,-1.6 L 472,430.2 h -0.3 l -4.6,-0.7 0.5,1.2 v 0.5 0.2 l -0.1,0.3 -6,13.8 c -0.4,0.8 -0.7,1.4 -0.9,1.6 -0.2,0.3 -0.5,0.4 -0.9,0.5 h -0.2 l -0.3,2.3 5.3,0.8 0.3,-2.4 -0.4,-0.1 c -0.4,-0.1 -0.6,-0.2 -0.7,-0.4 -0.1,-0.2 -0.2,-0.5 -0.1,-0.9 l 0.1,-0.4 0.2,-0.6 c 0,0 0.8,-2 0.9,-2.5 0.5,0.1 3.9,0.6 4.4,0.6 0,0.5 0.2,2.9 0.2,2.9 0,0 0,0.7 0,0.7 v 0.4 c 0,0.3 -0.1,0.5 -0.3,0.6 -0.2,0.1 -0.5,0.2 -0.9,0.1 h -0.3 l -0.3,2.3 7.7,1.1 0.3,-2.3 -0.3,-0.1 c -0.4,0.1 -0.6,-0.1 -0.8,-0.4 z m -8.8,-8.2 v 0 c 0.2,-0.6 1.7,-4 2.4,-5.5 0.2,1.7 0.6,5.3 0.6,5.9 -0.6,0 -2.4,-0.3 -3,-0.4 z"
   id="path280"
   inkscape:connector-curvature="0"
   style="fill:#231815" />
		<path
   class="st3"
   d="m 337.7,429.5 h -0.3 l -13.1,1.5 0.3,6.2 1.5,-0.2 v -0.3 c 0.1,-1.3 0.3,-2.3 0.7,-2.8 0.3,-0.5 0.8,-0.8 1.5,-0.9 0,0 0.7,-0.1 1,-0.1 0.1,0.6 1.6,13.9 1.6,13.9 l 0.1,1.1 -0.1,0.5 c -0.1,0.3 -0.2,0.5 -0.4,0.6 -0.2,0.2 -0.6,0.3 -1,0.3 h -0.4 l 0.3,2.2 7.9,-0.9 -0.2,-2.2 h -0.4 c -0.4,0 -0.8,0 -1,-0.1 -0.2,-0.1 -0.4,-0.3 -0.6,-0.5 0,0 -0.2,-0.5 -0.2,-0.5 0,0 -0.2,-1.1 -0.2,-1.1 0,0 -1.5,-13.3 -1.6,-13.9 0.3,0 0.9,-0.1 0.9,-0.1 0.8,-0.1 1.4,0.1 1.8,0.5 0.5,0.5 0.9,1.3 1.2,2.6 l 0.1,0.3 1.5,-0.2 z"
   id="path282"
   inkscape:connector-curvature="0"
   style="fill:#231815" />
		<path
   class="st3"
   d="m 443,426.1 h -0.3 l -13.2,-0.8 -0.8,6.1 1.6,0.1 0.1,-0.3 c 0.3,-1.3 0.7,-2.2 1.2,-2.6 0.4,-0.5 0.9,-0.7 1.6,-0.6 0,0 0.7,0 1,0.1 0,0.6 -0.8,14 -0.8,14 l -0.1,1.1 -0.1,0.5 c -0.1,0.3 -0.3,0.4 -0.5,0.6 -0.3,0.1 -0.6,0.2 -1,0.2 h -0.4 l -0.1,2.2 7.9,0.5 0.1,-2.2 h -0.4 c -0.4,0 -0.8,-0.1 -1,-0.3 -0.2,-0.1 -0.4,-0.3 -0.5,-0.6 0,0 -0.1,-0.5 -0.1,-0.5 0,0 0,-1.1 0,-1.1 0,0 0.8,-13.3 0.8,-14 0.3,0 0.9,0.1 0.9,0.1 0.8,0 1.4,0.3 1.7,0.8 0.4,0.5 0.6,1.4 0.7,2.7 v 0.3 l 1.5,0.1 z"
   id="path284"
   inkscape:connector-curvature="0"
   style="fill:#231815" />
		<path
   class="st3"
   d="m 358.8,426.5 0.1,2.2 h 0.3 c 0.7,0.1 1,0.2 1.1,0.4 0.1,0.1 0.3,0.5 0.3,1.5 l 0.7,11.8 c 0.1,1 -0.1,1.4 -0.2,1.5 -0.1,0.2 -0.4,0.4 -1.1,0.5 h -0.3 l 0.1,2.2 7.3,-0.4 -0.1,-2.2 h -0.3 c -0.7,-0.1 -1,-0.2 -1.1,-0.4 -0.1,-0.1 -0.3,-0.5 -0.4,-1.5 l -0.7,-11.8 c -0.1,-1 0.1,-1.4 0.2,-1.5 0.1,-0.2 0.4,-0.4 1.1,-0.5 l 0.3,-0.1 -0.1,-2.2 h -0.3 z"
   id="path286"
   inkscape:connector-curvature="0"
   style="fill:#231815" />
		<path
   class="st3"
   d="m 380.4,424.8 v 2.2 h 0.3 c 0.7,0.1 1,0.3 1.1,0.4 0.1,0.1 0.3,0.5 0.3,1.5 v 11.8 c 0,1 -0.2,1.4 -0.3,1.5 -0.1,0.1 -0.4,0.3 -1.1,0.4 h -0.3 v 2.2 h 7.7 v -2.2 h -0.3 c -0.9,0 -1.2,-0.2 -1.4,-0.4 -0.1,-0.1 -0.3,-0.6 -0.3,-2 0,0 0,-4.5 0,-5.1 0.4,0 1.2,0 1.2,0 0.6,0 1,0.2 1.3,0.6 0.3,0.4 0.5,1 0.6,1.7 v 0.3 h 1.7 v -7.1 h -1.8 v 0.3 c -0.1,0.7 -0.3,1.3 -0.6,1.6 -0.3,0.3 -0.7,0.5 -1.3,0.5 0,0 -0.8,0 -1.2,0 0,-0.6 0,-5.1 0,-5.1 0,-0.7 0.2,-0.9 0.2,-0.9 0.1,0 0.3,-0.2 1.3,-0.2 1.1,0 2,0.2 2.7,0.6 0.6,0.4 1.1,1.1 1.4,2 l 0.1,0.2 h 1.5 v -5 h -0.3 -12.5 z"
   id="path288"
   inkscape:connector-curvature="0"
   style="fill:#231815" />
		<path
   class="st3"
   d="m 408.1,427 c -0.7,-0.9 -1.5,-1.6 -2.4,-2.1 -0.9,-0.5 -1.9,-0.7 -2.9,-0.7 -1.2,0 -2.2,0.3 -3.2,0.9 -1,0.6 -1.8,1.4 -2.6,2.6 -0.6,1 -1.1,2.1 -1.5,3.3 -0.3,1.2 -0.5,2.5 -0.5,3.9 0,1.4 0.2,2.7 0.5,3.9 0.3,1.2 0.8,2.3 1.4,3.2 0.8,1.1 1.6,1.9 2.5,2.4 0.9,0.5 2,0.8 3,0.8 1.2,0 2.4,-0.3 3.4,-1 1,-0.6 1.9,-1.6 2.7,-2.8 0.6,-0.9 1,-1.9 1.3,-3.2 0.3,-1.2 0.4,-2.5 0.4,-3.8 0,-1.5 -0.2,-2.9 -0.6,-4.1 -0.2,-1.3 -0.7,-2.4 -1.5,-3.3 z m -5.3,15.8 v 0 c -1,0 -1.8,-0.7 -2.3,-2.1 -0.6,-1.5 -0.9,-3.7 -0.9,-6.5 0,-2.5 0.3,-4.5 0.9,-5.8 0.5,-1.2 1.3,-1.8 2.3,-1.8 1,0 1.8,0.7 2.3,2.1 0.6,1.5 0.9,3.7 0.9,6.5 0,2.6 -0.3,4.6 -0.8,5.9 -0.6,1.1 -1.4,1.7 -2.4,1.7 z"
   id="path290"
   inkscape:connector-curvature="0"
   style="fill:#231815" />
		<path
   class="st3"
   d="m 424.7,427.3 c -0.7,-0.9 -1.5,-1.6 -2.4,-2.1 -0.9,-0.5 -1.9,-0.7 -2.9,-0.7 -1.2,0 -2.2,0.3 -3.2,0.9 -1,0.6 -1.8,1.4 -2.6,2.6 -0.6,1 -1.1,2.1 -1.5,3.3 -0.3,1.2 -0.5,2.5 -0.5,3.9 0,1.4 0.2,2.7 0.5,3.9 0.3,1.2 0.8,2.3 1.4,3.2 0.7,1.1 1.6,1.9 2.5,2.4 0.9,0.5 2,0.8 3,0.8 1.2,0 2.4,-0.3 3.4,-1 1,-0.6 1.9,-1.6 2.7,-2.8 0.6,-0.9 1,-2 1.3,-3.2 0.3,-1.2 0.4,-2.5 0.4,-3.8 0,-1.5 -0.2,-2.9 -0.6,-4.1 -0.3,-1.3 -0.8,-2.4 -1.5,-3.3 z m -5.4,15.8 v 0 c -1,0 -1.8,-0.7 -2.3,-2.1 -0.6,-1.5 -0.9,-3.7 -0.9,-6.5 0,-2.6 0.3,-4.5 0.8,-5.8 0.5,-1.2 1.3,-1.8 2.3,-1.8 1,0 1.8,0.7 2.3,2.1 0.6,1.5 0.9,3.7 0.9,6.5 0,2.6 -0.3,4.6 -0.8,5.9 -0.5,1.1 -1.3,1.7 -2.3,1.7 z"
   id="path292"
   inkscape:connector-curvature="0"
   style="fill:#231815" />
		<path
   class="st3"
   d="m 454.8,438.3 c 1,-0.3 1.8,-0.8 2.4,-1.4 0.8,-0.8 1.2,-1.9 1.3,-3.1 0.1,-1.6 -0.3,-2.9 -1.2,-3.9 -0.9,-0.9 -2.4,-1.5 -4.3,-1.7 l -7.6,-0.7 h -0.3 l -0.2,2.3 0.3,0.1 c 0.8,0.2 1.1,0.4 1.2,0.6 0.1,0.1 0.2,0.5 0.2,1.6 l -1.1,12.3 c -0.1,1 -0.3,1.4 -0.4,1.5 -0.1,0.1 -0.5,0.3 -1.3,0.4 h -0.3 l -0.2,2.3 9,0.8 c 1.6,0.1 3.1,-0.3 4.2,-1.3 1.2,-1 1.8,-2.4 2,-4 0.1,-1.4 -0.2,-2.6 -0.9,-3.6 -0.7,-0.9 -1.6,-1.6 -2.8,-2.2 z m -1.7,-2 v 0 c -0.5,0.5 -1.2,0.7 -2.1,0.7 0,0 -0.2,0 -0.4,-0.1 0.1,-0.6 0.6,-6.3 0.6,-6.3 v -0.2 c 0,0 0.3,0 0.3,0 1,0.1 1.6,0.4 2,0.9 0.4,0.5 0.6,1.4 0.5,2.4 0,1.2 -0.4,2 -0.9,2.6 z m -2.9,9.7 v 0 c -0.1,-0.3 -0.3,-0.9 -0.1,-2.3 0,0 0.4,-4.1 0.4,-4.6 0,0 0,0 0,0 1.2,0.1 2,0.5 2.5,1.2 0.5,0.7 0.7,1.7 0.6,3.1 -0.1,1.1 -0.4,1.9 -0.8,2.5 -0.4,0.5 -1,0.8 -1.7,0.7 -0.6,0 -0.8,-0.3 -0.9,-0.6 z"
   id="path294"
   inkscape:connector-curvature="0"
   style="fill:#231815" />
		<path
   class="st3"
   d="m 490.3,449.1 c -0.8,1.4 -1.6,2.4 -2.3,2.9 -0.7,0.5 -1.6,0.6 -2.6,0.5 -0.8,-0.1 -1.3,-0.3 -1.5,-0.7 -0.1,-0.2 -0.3,-0.8 -0.1,-2.6 l 1.3,-10.7 c 0.1,-1 0.3,-1.4 0.4,-1.5 0.1,-0.1 0.4,-0.3 1.1,-0.3 h 0.2 l 0.3,-2.2 h -0.3 l -6.6,-0.8 -0.3,2.2 0.2,0.1 c 0.6,0.2 0.9,0.4 1,0.6 0.1,0.1 0.2,0.5 0.1,1.5 l -1.4,11.7 c -0.1,1 -0.3,1.4 -0.4,1.5 -0.1,0.1 -0.4,0.3 -1.1,0.3 h -0.2 l -0.3,2.2 12.4,1.5 1.7,-6.2 -1.6,-0.2 z"
   id="path296"
   inkscape:connector-curvature="0"
   style="fill:#231815" />
		<path
   class="st3"
   d="m 505.2,451.8 c -0.8,1.4 -1.6,2.4 -2.3,2.9 -0.7,0.5 -1.6,0.6 -2.6,0.5 -0.8,-0.1 -1.3,-0.3 -1.5,-0.7 -0.1,-0.2 -0.3,-0.8 -0.1,-2.6 l 1.3,-10.7 c 0.1,-1 0.3,-1.4 0.4,-1.5 0.1,-0.1 0.4,-0.3 1.1,-0.3 h 0.2 l 0.3,-2.2 h -0.3 l -6.6,-0.8 -0.3,2.2 0.2,0.1 c 0.6,0.2 0.9,0.4 1,0.6 0.1,0.1 0.2,0.5 0.1,1.5 l -1.4,11.7 c -0.1,1 -0.3,1.4 -0.4,1.5 -0.1,0.1 -0.4,0.3 -1.1,0.3 H 493 l -0.3,2.2 12.4,1.5 1.7,-6.2 -1.6,-0.2 z"
   id="path298"
   inkscape:connector-curvature="0"
   style="fill:#231815" />
	</g>
	<g
   id="g338">
		<path
   class="st1"
   d="m 315.9,652.1 -0.2,-10.6 c 5.2,-1.7 13.1,-4.9 16.5,-12.6 h 11.7 l -0.1,46.8 h -13.9 l -0.2,-30.2 c -4.4,2.7 -9,5.2 -13.8,6.6 z"
   id="path302"
   inkscape:connector-curvature="0"
   style="fill:#ffffff" />
		<path
   class="st1"
   d="m 376.5,636.7 c 3.4,0 6.4,2.5 6.9,7.9 -0.4,5.2 -3.1,7.9 -6.7,7.9 -4.2,0 -6.5,-3.4 -6.5,-8.7 0,-5.3 2.9,-7.1 6.3,-7.1 z m -0.8,39.4 v 0 c 18.1,0 21.2,-8.7 21.2,-27 0,-11.8 -6.9,-20.6 -20.8,-20.6 -13,0.9 -18.3,6.3 -18.9,16 1.1,8.5 5.3,15.7 15.7,16 5.6,0.2 10.5,-4.2 10.5,-4.2 0,8.7 -2.8,12.4 -6.1,12.4 -3.3,0 -4.2,-1.3 -5.1,-5.1 l -13.3,1.7 c 1.1,7.9 8.1,10.8 16.8,10.8 z"
   id="path304"
   inkscape:connector-curvature="0"
   style="fill:#ffffff" />
		<path
   class="st1"
   d="m 420.9,636.7 c 3.4,0 6.4,2.5 6.9,7.9 -0.4,5.2 -3.1,7.9 -6.7,7.9 -4.2,0 -6.5,-3.4 -6.5,-8.7 -0.1,-5.3 2.9,-7.1 6.3,-7.1 z m -0.8,39.4 v 0 c 18.1,0 21.2,-8.7 21.2,-27 0,-11.8 -6.9,-20.6 -20.8,-20.6 -13,0.9 -18.3,6.3 -18.9,16 1.1,8.5 5.3,15.7 15.7,16 5.6,0.2 10.5,-4.2 10.5,-4.2 0,8.7 -2.8,12.4 -6.1,12.4 -3.3,0 -4.2,-1.3 -5.1,-5.1 l -13.3,1.7 c 1.1,7.9 8.1,10.8 16.8,10.8 z"
   id="path306"
   inkscape:connector-curvature="0"
   style="fill:#ffffff" />
		<path
   class="st1"
   d="m 468.3,668.4 c -3.4,0 -6.4,-2.5 -6.9,-7.9 0.4,-5.2 3.1,-7.9 6.7,-7.9 4.2,0 6.5,3.4 6.5,8.7 0,5.3 -2.9,7.1 -6.3,7.1 z m 0.8,-39.4 v 0 c -18.1,0 -21.9,8.5 -21.9,26.8 0,11.8 7.7,20.8 21.5,20.8 13,-0.9 18.3,-6.3 18.9,-16 -1.1,-8.5 -5.3,-15.7 -15.7,-16 -5.6,-0.2 -10.5,4.2 -10.5,4.2 0,-8.7 2.8,-12.5 6.1,-12.5 3.3,0 4.2,1.3 5.1,5.1 l 13.3,-1.1 C 484.8,632.5 477.8,629 469.1,629 Z"
   id="path308"
   inkscape:connector-curvature="0"
   style="fill:#ffffff" />
		<g
   id="g316">
			<path
   class="st1"
   d="m 245.1,580.3 v -21.8 h -15.9 v 21.8 h -9.4 v 8.1 h 9.4 V 609 h 0.2 c 0.2,2.1 1.1,6.3 5.7,6.3 6.1,0 23.2,0 23.2,0 v -9.6 h -13.2 v -17.3 h 55.6 v -8.1 z"
   id="path310"
   inkscape:connector-curvature="0"
   style="fill:#ffffff" />
			<path
   class="st1"
   d="m 294.6,559.5 h -18.1 c -9.6,8.1 -25,16.3 -25,16.3 h 21.6 c 16.2,-8.1 21.5,-16.3 21.5,-16.3 z"
   id="path312"
   inkscape:connector-curvature="0"
   style="fill:#ffffff" />
			<path
   class="st1"
   d="m 273,594.6 h -17.3 l 23.4,19.7 h 20.6 v -9.2 H 288.1 C 278.9,596.8 273,594.6 273,594.6 Z"
   id="path314"
   inkscape:connector-curvature="0"
   style="fill:#ffffff" />
		</g>
		<path
   class="st1"
   d="m 394.1,586.3 v -6.1 h -34.6 v -3.5 h 33.2 V 571 h -33.2 v -2.8 h 34 v -5.7 h -34 v -3.3 h -15.1 v 3.3 h -31.8 v 5.7 h 31.8 v 2.8 h -30.7 v 5.7 h 30.7 v 3.5 H 312 v 6.1 h 9.4 l -3.9,2.9 h -4.7 v 8.1 h 3.3 v 16.9 h 59.6 14.2 v -16.9 h 3.1 v -8.1 l -7.5,-0.2 -1.2,-2.7 z m -18.5,23.5 v 0 h -46.2 v -4.1 h 46.2 z m -46.2,-8.5 v 0 -4.1 h 46.2 v 4.1 z m 42.7,-9.4 v 0 l 1.1,0.2 h -40.7 l 0.1,-0.2 7.8,-5.6 h 22.4 z"
   id="path318"
   inkscape:connector-curvature="0"
   style="fill:#ffffff" />
		<g
   id="g326">
			<path
   class="st1"
   d="m 484.1,566.5 v -5.3 h -79.6 v 5.3 h 22.6 v 41.9 h -22 v 6.3 h 78.6 v -6.3 h -21.1 v -41.9 z m -36.7,41.9 v 0 h -6 v -41.9 h 6 z"
   id="path320"
   inkscape:connector-curvature="0"
   style="fill:#ffffff" />
			<path
   class="st1"
   d="m 406.1,575.2 h 11.6 c 0,0 4.7,8.8 5.7,26.7 H 411 c 0,0 0.8,-15.1 -4.9,-26.7 z"
   id="path322"
   inkscape:connector-curvature="0"
   style="fill:#ffffff" />
			<path
   class="st1"
   d="m 481.9,575.2 h -10.6 c 0,0 -4.7,8.8 -5.7,26.7 H 476 c 0.1,0 0.2,-15.1 5.9,-26.7 z"
   id="path324"
   inkscape:connector-curvature="0"
   style="fill:#ffffff" />
		</g>
		<g
   id="g336">
			<path
   class="st1"
   d="m 529.9,604.6 h -0.2 c 0,0 0,1.4 0,2.2 0,0.8 0,1.4 -1.8,1.4 -1.8,0 -5.1,0 -5.1,0 v 6.1 c 0,0 11.4,0 14.2,0 2.8,0 5.9,-0.2 5.9,-3.9 0,-1.7 0,-3.5 0,-4.9 h 0.2 v -19.7 h -13.2 z"
   id="path328"
   inkscape:connector-curvature="0"
   style="fill:#ffffff" />
			<path
   class="st1"
   d="m 572.4,588.6 c -0.8,0 -2.2,-1.8 -3.1,-2.4 -0.7,-0.4 -0.1,-1.8 0.5,-2.8 h 7.1 v -5.1 h -33.8 v -2.9 h 32.6 v -5.1 h -32.6 v -3.6 h 32.6 v -4.9 h -32.6 v -3.9 h -13.6 v 3.9 h -32 v 4.9 h 32 v 3.6 h -32 v 5.1 h 32 v 2.9 h -33.4 v 5.1 h 7.5 l -4.1,5.1 h -3.9 v 6.3 h 9.4 l 5.7,-5.7 4.5,6.3 h 12.4 c 0,0 -4.1,-6.9 -4.5,-7.7 -0.4,-0.7 -2.3,-0.1 1.1,-4.3 h 24.4 c 0.4,0.4 1,1 1.4,1.4 0.6,0.6 0,1.8 -0.6,2.6 -0.6,0.8 -4.7,8.5 -4.7,8.5 h 11.8 l 3.9,-5.7 5.1,4.7 h 11.6 v -6.3 c 0,0 -3.9,0 -4.7,0 z"
   id="path330"
   inkscape:connector-curvature="0"
   style="fill:#ffffff" />
			<path
   class="st1"
   d="m 525.8,599.2 h -15.3 c -3.3,2.2 -9.4,9 -9.4,9 H 496 v 6.1 h 14.9 c 4.9,-9.2 14.9,-14.2 14.9,-14.2 z"
   id="path332"
   inkscape:connector-curvature="0"
   style="fill:#ffffff" />
			<path
   class="st1"
   d="m 562,599.2 h -15.3 v 1 c 0,0 8.1,4.9 13,14.2 h 16.9 v -6.1 H 569 c 0,-0.1 -3.7,-7 -7,-9.1 z"
   id="path334"
   inkscape:connector-curvature="0"
   style="fill:#ffffff" />
		</g>
	</g>
	<path
   class="st19"
   d="m 627.5,174.8 v 6.9 47.9 289.9 c 0,20.2 -12.3,65.7 -46.3,108.5 -19.2,24.1 -42.7,44.3 -69.9,60 C 479,706.6 441.6,718.8 400,724.3 358.4,718.8 321,706.6 288.7,688 261.5,672.3 238,652.1 218.8,628 184.8,585.2 172.5,539.7 172.5,519.5 v -289.8 -47.9 -6.9 h 455 m 3.5,-3.6 H 169 v 10.4 47.9 289.9 c 0,41 48.6,184.6 231,208.3 C 582.4,704.1 631,560.5 631,519.5 V 229.7 181.8 Z"
   id="path340"
   inkscape:connector-curvature="0"
   style="fill:#fadf1b" />
	<g
   id="g394">
		<path
   class="st20"
   d="m 206.2,91.5 c -2.6,-2.4 -3.9,-5.5 -3.9,-9.2 0,-3.6 1.3,-6.6 3.9,-9.1 2.6,-2.5 5.8,-3.7 9.7,-3.7 3.9,0 7.2,1.1 10,3.4 l -3.6,3.7 c -1.9,-1.4 -4,-2.1 -6.4,-2.1 -2.4,0 -4.4,0.7 -5.9,2.2 -1.5,1.4 -2.2,3.2 -2.2,5.5 0,2.4 0.8,4.3 2.3,5.7 1.5,1.4 3.5,2.1 5.9,2.1 2.4,0 4.6,-0.7 6.3,-2 l 3.6,3.7 c -2.8,2.3 -6.1,3.4 -10,3.4 -3.9,0.1 -7.1,-1.2 -9.7,-3.6 z"
   id="path342"
   inkscape:connector-curvature="0"
   style="fill:#fdfdfd" />
		<path
   class="st20"
   d="M 231.8,95.2 V 69.5 h 5.5 V 79.8 H 250 V 69.5 h 5.5 V 95.1 H 250 V 84.6 h -12.7 v 10.6 z"
   id="path344"
   inkscape:connector-curvature="0"
   style="fill:#fdfdfd" />
		<path
   class="st20"
   d="m 259.8,95.2 10.9,-25.6 h 5.5 l 10.9,25.6 h -5.8 l -1.6,-3.9 h -12.4 l -1.6,3.9 z m 13.8,-18.8 -4.1,9.7 h 8.2 z"
   id="path346"
   inkscape:connector-curvature="0"
   style="fill:#fdfdfd" />
		<path
   class="st20"
   d="M 291.2,95.2 V 69.5 h 1.8 l 17.1,16.1 V 69.5 h 5.5 v 25.6 h -2 L 296.7,79.2 v 15.9 h -5.5 z"
   id="path348"
   inkscape:connector-curvature="0"
   style="fill:#fdfdfd" />
		<path
   class="st20"
   d="m 323.6,91.5 c -2.6,-2.4 -3.9,-5.5 -3.9,-9.2 0,-3.6 1.3,-6.6 3.9,-9.1 2.6,-2.5 5.8,-3.7 9.7,-3.7 3.9,0 7.2,1.1 10,3.4 l -3.6,3.7 c -1.9,-1.4 -4,-2.1 -6.4,-2.1 -2.4,0 -4.4,0.7 -5.9,2.2 -1.5,1.4 -2.2,3.2 -2.2,5.5 0,2.4 0.8,4.3 2.3,5.7 1.5,1.4 3.5,2.1 5.9,2.1 2,0 3.5,-0.4 4.5,-1.1 v -4.4 h -3.6 v -4.8 h 9.1 v 12 c -2.8,2.3 -6.1,3.4 -10,3.4 -3.9,0.1 -7.2,-1.2 -9.8,-3.6 z"
   id="path350"
   inkscape:connector-curvature="0"
   style="fill:#fdfdfd" />
		<path
   class="st20"
   d="m 351.4,91.5 c -2.6,-2.4 -3.9,-5.5 -3.9,-9.2 0,-3.6 1.3,-6.6 3.9,-9.1 2.6,-2.5 5.8,-3.7 9.7,-3.7 3.9,0 7.2,1.1 10,3.4 l -3.6,3.7 c -1.9,-1.4 -4,-2.1 -6.4,-2.1 -2.4,0 -4.4,0.7 -5.9,2.2 -1.5,1.4 -2.2,3.2 -2.2,5.5 0,2.4 0.8,4.3 2.3,5.7 1.5,1.4 3.5,2.1 5.9,2.1 2.4,0 4.6,-0.7 6.3,-2 l 3.6,3.7 c -2.8,2.3 -6.1,3.4 -10,3.4 -3.9,0.1 -7.1,-1.2 -9.7,-3.6 z"
   id="path352"
   inkscape:connector-curvature="0"
   style="fill:#fdfdfd" />
		<path
   class="st20"
   d="M 377,95.2 V 69.5 h 5.5 v 10.3 h 12.7 V 69.5 h 5.5 v 25.6 h -5.5 V 84.6 h -12.7 v 10.6 z"
   id="path354"
   inkscape:connector-curvature="0"
   style="fill:#fdfdfd" />
		<path
   class="st20"
   d="m 411.5,69.5 v 14.9 c 0,1.9 0.6,3.4 1.8,4.3 1.2,0.9 2.7,1.4 4.5,1.4 1.8,0 3.3,-0.5 4.5,-1.4 1.2,-0.9 1.8,-2.3 1.8,-4.3 V 69.5 h 5.5 v 16.2 c 0,2.6 -1.1,4.8 -3.4,6.7 -2.2,1.8 -5.1,2.7 -8.5,2.7 -3.4,0 -6.2,-0.9 -8.5,-2.7 -2.2,-1.8 -3.4,-4 -3.4,-6.7 V 69.5 Z"
   id="path356"
   inkscape:connector-curvature="0"
   style="fill:#fdfdfd" />
		<path
   class="st20"
   d="M 435.6,95.2 V 69.5 h 1.8 l 17.1,16.1 V 69.5 h 5.5 v 25.6 h -2 L 441,79.3 v 15.9 z"
   id="path358"
   inkscape:connector-curvature="0"
   style="fill:#fdfdfd" />
		<path
   class="st20"
   d="m 476.7,69.5 h 6.4 l 6.3,8.4 6.5,-8.4 h 6.3 l -10,12.8 v 12.8 h -5.5 V 82.4 Z"
   id="path360"
   inkscape:connector-curvature="0"
   style="fill:#fdfdfd" />
		<path
   class="st20"
   d="m 504.8,95.2 10.9,-25.6 h 5.5 L 532,95.2 h -5.8 l -1.6,-3.9 h -12.4 l -1.6,3.9 z m 13.8,-18.8 -4.1,9.7 h 8.2 z"
   id="path362"
   inkscape:connector-curvature="0"
   style="fill:#fdfdfd" />
		<path
   class="st20"
   d="m 558.3,69.5 v 4.8 h -9.1 v 20.8 h -5.5 V 74.3 h -9.1 v -4.8 z"
   id="path364"
   inkscape:connector-curvature="0"
   style="fill:#fdfdfd" />
		<path
   class="st20"
   d="m 561,95.2 10.9,-25.6 h 5.5 l 10.9,25.6 h -5.8 l -1.6,-3.9 h -12.4 l -1.6,3.9 z m 13.7,-18.8 -4.1,9.7 h 8.2 z"
   id="path366"
   inkscape:connector-curvature="0"
   style="fill:#fdfdfd" />
		<path
   class="st20"
   d="m 592.3,69.5 h 5.4 v 25.7 h -5.4 z"
   id="path368"
   inkscape:connector-curvature="0"
   style="fill:#fdfdfd" />
		<path
   class="st20"
   d="m 233.4,130.2 v -25.6 h 19.2 v 4.8 h -13.7 v 5.5 H 249 v 4.8 h -10.1 v 10.6 h -5.5 z"
   id="path370"
   inkscape:connector-curvature="0"
   style="fill:#fdfdfd" />
		<path
   class="st20"
   d="m 259.1,126.5 c -2.6,-2.5 -3.9,-5.5 -3.9,-9.1 0,-3.6 1.3,-6.7 3.9,-9.1 2.6,-2.4 5.8,-3.7 9.7,-3.7 3.9,0 7.1,1.2 9.7,3.7 2.6,2.4 3.9,5.5 3.9,9.1 0,3.6 -1.3,6.7 -3.9,9.1 -2.6,2.4 -5.8,3.7 -9.7,3.7 -3.9,0 -7.1,-1.2 -9.7,-3.7 z m 9.7,-1.1 c 2.4,0 4.4,-0.8 5.9,-2.3 1.5,-1.5 2.3,-3.4 2.3,-5.7 0,-2.3 -0.8,-4.2 -2.3,-5.7 -1.5,-1.5 -3.5,-2.3 -5.9,-2.3 -2.4,0 -4.4,0.8 -5.9,2.3 -1.5,1.5 -2.3,3.4 -2.3,5.7 0,2.3 0.8,4.2 2.3,5.7 1.5,1.5 3.5,2.3 5.9,2.3 z"
   id="path372"
   inkscape:connector-curvature="0"
   style="fill:#fdfdfd" />
		<path
   class="st20"
   d="m 289,126.5 c -2.6,-2.5 -3.9,-5.5 -3.9,-9.1 0,-3.6 1.3,-6.7 3.9,-9.1 2.6,-2.4 5.8,-3.7 9.7,-3.7 3.9,0 7.1,1.2 9.7,3.7 2.6,2.4 3.9,5.5 3.9,9.1 0,3.6 -1.3,6.7 -3.9,9.1 -2.6,2.4 -5.8,3.7 -9.7,3.7 -3.8,0 -7.1,-1.2 -9.7,-3.7 z m 9.7,-1.1 c 2.4,0 4.4,-0.8 5.9,-2.3 1.5,-1.5 2.3,-3.4 2.3,-5.7 0,-2.3 -0.8,-4.2 -2.3,-5.7 -1.5,-1.5 -3.5,-2.3 -5.9,-2.3 -2.4,0 -4.4,0.8 -5.9,2.3 -1.5,1.5 -2.3,3.4 -2.3,5.7 0,2.3 0.8,4.2 2.3,5.7 1.5,1.5 3.5,2.3 5.9,2.3 z"
   id="path374"
   inkscape:connector-curvature="0"
   style="fill:#fdfdfd" />
		<path
   class="st20"
   d="m 338.7,104.5 v 4.8 h -9.1 v 20.8 h -5.5 V 109.3 H 315 v -4.8 z"
   id="path376"
   inkscape:connector-curvature="0"
   style="fill:#fdfdfd" />
		<path
   class="st20"
   d="m 362.1,116.7 c 2.4,1.5 3.7,3.5 3.8,5.9 -0.2,4.8 -3,7.4 -8.2,7.7 h -15.3 v -25.6 h 14.5 c 4.6,0.3 7,2.8 7.3,7.5 -0.2,2.2 -0.9,3.7 -2.1,4.5 z m -14.3,-1.9 h 7.6 c 2.2,0 3.3,-1.1 3.4,-3.2 -0.1,-1.3 -1.2,-1.9 -3.3,-2 h -7.7 z m 0,11.4 h 8.9 c 2.6,0 3.9,-1.3 3.9,-3.7 -0.1,-1.6 -1.4,-2.5 -3.9,-2.6 h -9 v 6.3 z"
   id="path378"
   inkscape:connector-curvature="0"
   style="fill:#fdfdfd" />
		<path
   class="st20"
   d="m 369.9,130.2 10.9,-25.6 h 5.5 l 10.9,25.6 h -5.8 l -1.6,-3.9 h -12.4 l -1.6,3.9 z m 13.8,-18.8 -4.1,9.7 h 8.2 z"
   id="path380"
   inkscape:connector-curvature="0"
   style="fill:#fdfdfd" />
		<path
   class="st20"
   d="m 406.7,104.5 v 20.8 h 14.5 v 4.8 h -20 v -25.6 z"
   id="path382"
   inkscape:connector-curvature="0"
   style="fill:#fdfdfd" />
		<path
   class="st20"
   d="m 431.2,104.5 v 20.8 h 14.5 v 4.8 h -20 v -25.6 z"
   id="path384"
   inkscape:connector-curvature="0"
   style="fill:#fdfdfd" />
		<path
   class="st20"
   d="m 465.6,126.5 c -2.6,-2.4 -3.9,-5.5 -3.9,-9.2 0,-3.6 1.3,-6.6 3.9,-9.1 2.6,-2.5 5.8,-3.7 9.7,-3.7 3.9,0 7.2,1.1 10,3.4 l -3.6,3.7 c -1.9,-1.4 -4,-2.1 -6.4,-2.1 -2.4,0 -4.4,0.7 -5.9,2.2 -1.5,1.4 -2.2,3.2 -2.2,5.5 0,2.4 0.8,4.3 2.3,5.7 1.5,1.4 3.5,2.1 5.9,2.1 2.4,0 4.6,-0.7 6.3,-2 l 3.6,3.7 c -2.8,2.3 -6.1,3.4 -10,3.4 -3.9,0.1 -7.1,-1.2 -9.7,-3.6 z"
   id="path386"
   inkscape:connector-curvature="0"
   style="fill:#fdfdfd" />
		<path
   class="st20"
   d="m 496.7,104.5 v 20.8 h 14.5 v 4.8 h -20 v -25.6 z"
   id="path388"
   inkscape:connector-curvature="0"
   style="fill:#fdfdfd" />
		<path
   class="st20"
   d="m 520.7,104.5 v 14.9 c 0,1.9 0.6,3.4 1.8,4.3 1.2,0.9 2.7,1.4 4.5,1.4 1.8,0 3.3,-0.5 4.5,-1.4 1.2,-0.9 1.8,-2.3 1.8,-4.3 v -14.9 h 5.5 v 16.2 c 0,2.6 -1.1,4.8 -3.4,6.7 -2.2,1.8 -5.1,2.7 -8.5,2.7 -3.4,0 -6.2,-0.9 -8.5,-2.7 -2.2,-1.8 -3.4,-4 -3.4,-6.7 v -16.2 z"
   id="path390"
   inkscape:connector-curvature="0"
   style="fill:#fdfdfd" />
		<path
   class="st20"
   d="m 564.2,116.7 c 2.4,1.5 3.7,3.5 3.8,5.9 -0.2,4.8 -3,7.4 -8.2,7.7 H 544.5 V 104.7 H 559 c 4.6,0.3 7,2.8 7.3,7.5 -0.3,2.2 -0.9,3.7 -2.1,4.5 z m -14.3,-1.9 h 7.6 c 2.2,0 3.3,-1.1 3.4,-3.2 -0.1,-1.3 -1.2,-1.9 -3.3,-2 h -7.7 z m 0,11.4 h 8.9 c 2.6,0 3.9,-1.3 3.9,-3.7 -0.1,-1.6 -1.4,-2.5 -3.9,-2.6 h -9 v 6.3 z"
   id="path392"
   inkscape:connector-curvature="0"
   style="fill:#fdfdfd" />
	</g>
	<g
   id="g400">
		<path
   class="st19"
   d="m 272.7,450.9 c 0,0 -24.1,7.8 -46.9,20.6 l 19.8,8.5 c 0,0 -15.4,24.3 -17.8,30.7 l 76.6,-30.4 -33.1,-6.6 z"
   id="path396"
   inkscape:connector-curvature="0"
   style="fill:#fadf1b" />
		<path
   d="m 271.4,452.6 -1.4,21.1 c 0,0.6 0.4,1.1 0.9,1.2 l 29.2,5.9 -70.2,27.9 c 4.2,-8.5 16.4,-27.8 16.5,-28 0.2,-0.3 0.2,-0.6 0.1,-1 -0.1,-0.4 -0.3,-0.6 -0.7,-0.7 l -17.6,-7.5 c 18.7,-10.1 37.6,-17 43.2,-18.9 m 1.3,-1.7 c 0,0 -24.1,7.8 -46.9,20.6 l 19.8,8.5 c 0,0 -15.4,24.3 -17.8,30.7 l 76.6,-30.4 -33.1,-6.6 z"
   id="path398"
   inkscape:connector-curvature="0" />
	</g>
	<g
   id="g406">
		<path
   class="st19"
   d="m 524.1,448.4 c 0,0 32.6,12.1 42.8,18.7 2.2,1.5 -0.5,2.3 -1.3,2.6 -0.8,0.3 -12,3.8 -13.9,4.4 -1.9,0.6 -4.5,0.6 1,9.7 5.5,9.1 13.7,22.5 13.7,22.5 l -70,-28.6 28.1,-5.7 z"
   id="path402"
   inkscape:connector-curvature="0"
   style="fill:#fadf1b" />
		<path
   d="m 525.3,450.1 c 6.7,2.5 32.3,12.4 40.9,18 0,0 0.1,0.1 0.1,0.1 -0.3,0.2 -0.7,0.3 -0.9,0.4 -0.1,0 -0.2,0.1 -0.3,0.1 -0.7,0.3 -11.7,3.7 -13.8,4.4 -0.1,0 -0.2,0.1 -0.3,0.1 -0.8,0.2 -2.1,0.6 -2.6,1.8 -0.7,1.7 0.3,4.5 3.3,9.5 3.9,6.4 9.1,15 11.8,19.5 l -63.1,-25.8 24.3,-4.9 c 0.6,-0.1 0.9,-0.6 0.9,-1.2 l -0.3,-22 m -1.2,-1.7 0.4,23.7 -28.1,5.7 70,28.6 c 0,0 -8.1,-13.4 -13.7,-22.5 -5.5,-9.1 -3,-9.1 -1,-9.7 2,-0.6 13.1,-4.1 13.9,-4.4 0.8,-0.3 3.5,-1.1 1.3,-2.6 -10.2,-6.7 -42.8,-18.8 -42.8,-18.8 z"
   id="path404"
   inkscape:connector-curvature="0" />
	</g>
</g>
</svg>