<?xml version="1.0" encoding="UTF-8" standalone="no"?><!-- Generator: Gravit.io --><svg xmlns="http://www.w3.org/2000/svg" xmlns:xlink="http://www.w3.org/1999/xlink" style="isolation:isolate" viewBox="0 0 512 512" width="512pt" height="512pt"><defs><clipPath id="_clipPath_FquRJk7onYvqdRdQIRnDIOfdNM7q5dT9"><rect width="512" height="512"/></clipPath></defs><g clip-path="url(#_clipPath_FquRJk7onYvqdRdQIRnDIOfdNM7q5dT9)"><rect x="0" y="0" width="512" height="512" transform="matrix(1,0,0,1,0,0)" fill="rgb(239,191,4)"/><path d=" M 255.866 344.276 C 255.866 344.276 336.062 344.276 355.954 338.979 C 367.154 335.978 375.577 327.327 378.534 316.645 C 384 297.048 384 255.823 384 255.823 C 384 255.823 384 214.863 378.534 195.443 C 375.577 184.496 367.154 176.022 355.954 173.109 C 336.062 167.724 255.866 167.724 255.866 167.724 C 255.866 167.724 175.849 167.724 156.046 173.109 C 145.025 176.022 136.423 184.496 133.286 195.443 C 128 214.863 128 255.823 128 255.823 C 128 255.823 128 297.048 133.286 316.645 C 136.423 327.327 145.025 335.978 156.046 338.979 C 175.849 344.276 255.866 344.276 255.866 344.276 Z  M 295.724 256 L 229.517 218.483 L 229.517 293.517 L 295.724 256 Z " fill-rule="evenodd" fill="rgb(255,255,255)"/></g></svg>