<?xml version="1.0" encoding="UTF-8" standalone="no"?><!-- Generator: Gravit.io --><svg xmlns="http://www.w3.org/2000/svg" xmlns:xlink="http://www.w3.org/1999/xlink" style="isolation:isolate" viewBox="0 0 1451.339 1451.339" width="1451.339pt" height="1451.339pt"><defs><clipPath id="_clipPath_kGSYm4XMa8QCuNh2roTINtpBQynQAgH8"><rect width="1451.339" height="1451.339"/></clipPath></defs><g clip-path="url(#_clipPath_kGSYm4XMa8QCuNh2roTINtpBQynQAgH8)"><rect width="1451.339" height="1451.339" style="fill:rgb(6,64,43)"/><path d=" M 725.289 975.9 C 725.289 975.9 952.616 975.9 1009.003 960.886 C 1040.752 952.378 1064.629 927.856 1073.01 897.578 C 1088.504 842.027 1088.504 725.169 1088.504 725.169 C 1088.504 725.169 1088.504 609.062 1073.01 554.011 C 1064.629 522.982 1040.752 498.96 1009.003 490.703 C 952.616 475.439 725.289 475.439 725.289 475.439 C 725.289 475.439 498.469 475.439 442.336 490.703 C 411.094 498.96 386.71 522.982 377.82 554.011 C 362.835 609.062 362.835 725.169 362.835 725.169 C 362.835 725.169 362.835 842.027 377.82 897.578 C 386.71 927.856 411.094 952.378 442.336 960.886 C 498.469 975.9 725.289 975.9 725.289 975.9 Z  M 838.273 725.669 L 650.6 619.321 L 650.6 832.017 L 838.273 725.669 Z " fill-rule="evenodd" fill="rgb(255,255,255)"/></g></svg>