<?xml version="1.0" encoding="UTF-8" standalone="no"?><!-- Generator: Gravit.io --><svg xmlns="http://www.w3.org/2000/svg" xmlns:xlink="http://www.w3.org/1999/xlink" style="isolation:isolate" viewBox="0 0 512 512" width="512pt" height="512pt"><defs><clipPath id="_clipPath_0fIFIL1QPCtky9vktY1eR9cW4VwqNwyw"><rect width="512" height="512"/></clipPath></defs><g clip-path="url(#_clipPath_0fIFIL1QPCtky9vktY1eR9cW4VwqNwyw)"><path d="M 477.714 383.995 L 256.005 512 L 34.286 383.995 L 34.286 127.985 L 256.005 0 L 477.714 127.985 L 477.714 383.995 Z" fill-rule="evenodd" fill="rgb(27,27,29)" /><path d=" M 223.286 236.472 C 231.462 241.518 242.949 244.726 255.878 244.726 C 268.79 244.726 280.386 241.518 288.683 236.472 C 297.011 231.431 301.917 224.625 301.936 217.442 C 301.917 210.241 297.041 203.502 288.75 198.504 C 280.484 193.513 268.917 190.372 255.97 190.347 C 243.046 190.372 231.541 193.513 223.329 198.504 C 215.111 203.508 210.284 210.223 210.265 217.424 C 210.284 224.644 215.099 231.431 223.286 236.472 Z  M 225.35 275.407 C 217.083 270.409 205.511 267.262 192.587 267.262 C 179.652 267.262 168.146 270.409 159.941 275.382 C 151.717 280.386 146.889 287.076 146.871 294.278 C 146.889 301.503 151.692 308.291 159.898 313.356 C 168.067 318.366 179.554 321.58 192.49 321.604 C 205.426 321.574 217.022 318.366 225.313 313.331 C 233.623 308.291 238.529 301.503 238.553 294.302 C 238.523 287.125 233.641 280.411 225.35 275.407 Z  M 351.852 275.407 C 343.574 270.409 331.995 267.262 319.066 267.262 C 306.142 267.262 294.619 270.409 286.431 275.382 C 278.207 280.38 273.392 287.076 273.38 294.296 C 273.392 301.497 278.183 308.285 286.394 313.35 C 294.57 318.359 306.051 321.574 318.974 321.598 C 331.898 321.568 343.507 318.359 351.81 313.325 C 360.119 308.285 365.026 301.497 365.038 294.296 C 365.026 287.125 360.143 280.411 351.852 275.407 Z  M 318.926 248.397 C 313.082 248.397 307.439 248.951 302.076 249.955 C 313.794 241.591 321.007 230.08 321.007 217.375 C 321.007 191.814 291.983 171.476 255.945 171.476 C 219.914 171.482 191.187 191.82 191.187 217.381 C 191.187 230.104 198.267 241.615 209.87 249.98 C 204.403 248.951 198.669 248.397 192.752 248.397 C 156.72 248.397 128 268.741 128 294.278 C 128 319.796 156.568 340.524 192.612 340.524 C 223.286 340.524 248.999 325.524 256 305.314 C 262.824 325.524 288.093 340.524 318.773 340.524 C 354.811 340.524 384 319.802 384 294.278 C 384 268.741 354.945 248.397 318.926 248.397 Z  M 202.936 217.357 C 202.979 205.846 211.72 198.072 216.846 194.45 C 227.097 187.164 240.988 183.237 255.951 183.237 C 270.963 183.237 284.903 187.182 295.233 194.45 C 300.402 198.097 309.247 205.882 309.289 217.357 C 309.119 236.545 284.483 251.818 255.793 251.861 C 240.891 251.861 227.06 247.873 216.852 240.532 C 207.958 234.158 202.936 225.946 202.936 217.357 Z  M 192.612 328.757 C 177.692 328.757 163.873 324.763 153.634 317.41 C 144.783 311.061 139.749 302.849 139.749 294.278 C 139.797 282.766 148.533 274.974 153.64 271.346 C 163.904 264.108 177.789 260.158 192.758 260.133 C 207.776 260.158 221.716 264.102 232.046 271.377 C 237.22 275.017 246.078 282.791 246.126 294.278 C 245.95 313.441 221.296 328.714 192.612 328.757 Z  M 256.018 283.272 C 253.194 275.133 247.325 267.864 239.32 262.112 C 244.574 263.092 250.083 263.615 255.763 263.615 C 261.607 263.615 267.25 263.067 272.631 262.057 C 264.65 267.816 258.788 275.09 256.018 283.272 Z  M 318.767 328.757 C 303.865 328.757 290.035 324.763 279.808 317.41 C 270.939 311.061 265.892 302.849 265.892 294.278 C 265.929 282.766 274.694 274.993 279.82 271.346 C 290.059 264.108 303.957 260.158 318.919 260.133 C 333.937 260.158 347.871 264.102 358.232 271.377 C 363.4 275.017 372.221 282.809 372.245 294.278 C 372.105 313.441 347.457 328.714 318.767 328.757 Z " fill="rgb(102,0,51)"/></g></svg>