<svg xmlns:dc="http://purl.org/dc/elements/1.1/" xmlns:cc="http://creativecommons.org/ns#" xmlns:rdf="http://www.w3.org/1999/02/22-rdf-syntax-ns#" xmlns:svg="http://www.w3.org/2000/svg" xmlns="http://www.w3.org/2000/svg" height="376.743259888" viewBox="0 0 310.0 440.0" width="265.432751285" xml:space="preserve" version="1.1"><rect id="backgroundrect" width="100%" height="100%" x="0" y="0" fill="none" stroke="none" class=""/><metadata id="metadata8"><rdf:RDF><cc:Work rdf:about=""><dc:format>image/svg+xml</dc:format><dc:type rdf:resource="http://purl.org/dc/dcmitype/StillImage"/></cc:Work></rdf:RDF></metadata><defs id="defs6"/><g class="currentLayer"><title>Layer 1</title><g id="g10" class=""><g id="g12" stroke-width="0"><path id="path14" style="fill:#2f3592;fill-opacity:1;fill-rule:nonzero;stroke:none" d="M154.23574429850248,70.82440698583372 C65.19841186434289,100.46974001978356 8.535745769903372,80.2590735572212 8.535745769903372,80.2590735572212 V208.7590722595204 C8.535745769903372,368.26187064872727 154.23574429850248,430.60973668575286 154.23574429850248,430.60973668575286 c0,0 145.6986651952793,-62.34786603702559 145.6986651952793,-221.8506644262325 v-128.49999870229917 c0,0 -56.662666094439516,20.210666462562397 -145.6986651952793,-9.434666571387487 " stroke-width="0"/><path id="path16" style="fill:#2f3592;fill-opacity:1;fill-rule:nonzero;stroke:none" d="m182.4624106801126,27.909740752555365 h-21.073333120517134 l-7.158666594372444,-19.66266646809656 l-7.155999927732708,19.66266646809656 H126.0010779169732 l16.74266649758517,11.887999879945001 l-6.93733326327432,19.06399980747573 l18.42399981393899,-10.909333223161731 l18.431999813858198,10.909333223161731 l-6.94533326319353,-19.06399980747573 l16.745333164224906,-11.887999879945001 " stroke-width="0"/><path id="path18" style="fill:#2f3592;fill-opacity:1;fill-rule:nonzero;stroke:none" d="m105.98774478575126,27.909740752555365 h-21.075999787156867 l-7.155999927732708,-19.66266646809656 l-7.158666594372444,19.66266646809656 h-21.077333120476737 l16.749333164184513,11.887999879945001 l-6.938666596594189,19.06399980747573 l18.425333147258858,-10.909333223161731 l18.427999813898595,10.909333223161731 l-6.94533326319353,-19.06399980747573 l16.749333164184513,-11.887999879945001 " stroke-width="0"/><path id="path20" style="fill:#2f3592;fill-opacity:1;fill-rule:nonzero;stroke:none" d="M258.9437432410732,27.909740752555365 H237.86774345391638 l-7.158666594372444,-19.66266646809656 l-7.158666594372444,19.66266646809656 h-21.073333120517134 l16.747999830864643,11.887999879945001 l-6.9413332632339255,19.06399980747573 l18.425333147258858,-10.909333223161731 l18.426666480578724,10.909333223161731 l-6.939999929914056,-19.06399980747573 l16.747999830864643,-11.887999879945001 " stroke-width="0"/><path id="path22" style="fill:#ffffff;fill-opacity:1;fill-rule:nonzero;stroke:none" d="m72.2864117927623,171.19773930551293 c-0.5506666611055726,0.6999999929308143 -1.0893333223323314,1.043999989456812 -1.6186666503200127,1.0346666562177345 c-0.2813333304921929,-0.00399999995960466 -0.5026666615903165,-0.129333332027217 -0.6613333266546346,-0.3759999962028372 l-5.097333281856184,-9.266666573084091 c-0.18666666478155003,-0.2719999972531158 -0.2533333307749608,-0.6373333268970065 -0.1973333313404963,-1.0973333222515407 c0.0786666658722248,-0.6759999931731874 0.337333329926659,-1.2959999869119045 0.7826666587626411,-1.8613333145360276 l16.611999832238087,-21.20133311922448 c0.40399999592006947,-0.545333327826099 0.9813333234230055,-1.0093333231402384 1.7266666492293379,-1.393333319262284 c0.7453333258063308,-0.3826666628021782 1.429333318898726,-0.577333327502936 2.0546666459169187,-0.5786666608228052 l11.223999886650631,-0.02799999971723256 c0.8413333248368426,-0.00399999995960466 1.2266666542787572,0.32666666336771377 1.1506666550462692,0.9853333233826094 c-0.03733333295631006,0.3026666636100854 -0.18533333146168213,0.6319999936175354 -0.4453333288359838,0.9879999900223471 l-25.53066640883657,32.79466633547861 " stroke-width="0"/><path id="path24" style="fill:#ffffff;fill-opacity:1;fill-rule:nonzero;stroke:none" d="m119.2890779847566,140.40973961643596 c0.258666664054434,-0.3599999963644187 0.4053333292399373,-0.6946666596513406 0.4399999955565108,-1.001333323221029 c0.07333333259275181,-0.665333326614239 -0.3093333302094258,-0.9986666565812927 -1.1466666550866644,-0.9959999899415563 c-0.6239999936983263,0 -1.3079999867907186,0.195999998020628 -2.050666645957314,0.5839999941022788 c-0.7493333257659354,0.3906666627213873 -1.3226666533092688,0.8653333245944721 -1.7279999825492078,1.4186666523397804 l-10.674666558864926,13.907999859545347 c-0.26133333069417003,0.35599999640481367 -0.40933332919954235,0.6866666597321306 -0.44799999547572045,0.9879999900223471 c-0.07199999927288359,0.6613333266546346 0.3119999968491627,0.9959999899415563 1.1506666550462692,1.001333323221029 c0.6226666603784566,0.005333333279472869 1.3093333201105868,-0.1826666648219454 2.0559999792367867,-0.5639999943042548 c0.7439999924864652,-0.3826666628021782 1.3199999866695324,-0.8493333247560516 1.7279999825492078,-1.3999999858616254 zm16.49733316672942,-4.041333292520558 c0.8759999911534184,-0.002666666639736431 1.2706666538344087,0.33333332996705445 1.1946666546019205,1.0039999898607657 c-0.03199999967683715,0.3106666635292949 -0.1826666648219454,0.6453333268162155 -0.4386666622366435,1.0106666564601066 l-13.746666527841292,18.06399981757457 c-0.40933332919954235,0.5546666610651776 -0.9879999900223471,1.0239999896587888 -1.7319999825088128,1.4079999857808347 c-0.7466666591262001,0.3839999961220465 -1.4133333190603075,0.5733333275433322 -2.006666646401663,0.5693333275837276 l-31.43199968257329,-0.26933333061337894 c-0.8746666578335497,-0.006666666599341083 -1.2746666537940132,-0.3399999965663948 -1.1973333212416568,-0.9959999899415563 c0.03599999963644184,-0.2999999969703487 0.1826666648219454,-0.6266666603380608 0.44133332887637905,-0.9813333234230055 l13.751999861120765,-17.73733315420686 c0.40799999587967445,-0.5506666611055726 0.9839999900627423,-1.018666656379316 1.7266666492293379,-1.405333319141098 c0.7466666591262001,-0.3879999960816511 1.4173333190199122,-0.5826666607824095 2.0106666463612677,-0.5839999941022788 l31.427999682613688,-0.08266666583182959 " stroke-width="0"/><path id="path26" style="fill:#ffffff;fill-opacity:1;fill-rule:nonzero;stroke:none" d="m173.29574410601862,136.271072991565 c0.8693333245540766,-0.00399999995960466 1.2706666538344087,0.337333329926659 1.198666654561525,1.0226666563389206 c-0.03733333295631006,0.3159999968087673 -0.20266666461996863,0.6573333266950305 -0.49066666171150347,1.0293333229382615 l-13.697333195006168,18.405333147460833 c-0.4346666622770387,0.565333327624123 -1.0239999896587888,1.0426666561369438 -1.7493333156670974,1.4333333188583306 c-0.7319999926076508,0.3933333293611233 -1.4106666524205709,0.5853333274221462 -2.031999979479159,0.5799999941426741 l-11.226666553290366,-0.09466666571064353 c-0.8719999911938139,-0.007999999919209312 -1.2706666538344087,-0.3493333298054729 -1.1973333212416568,-1.025333322978657 c0.03599999963644184,-0.3093333302094258 0.2013333313001006,-0.6453333268162155 0.49066666171150347,-1.0119999897799747 l12.159999877198118,-16.222666502836567 c0.2893333304114026,-0.3679999962836277 0.45333332875519256,-0.7079999928500229 0.4893333283916348,-1.0173333230594477 c0.07333333259275181,-0.6813333264526577 -0.3253333300478449,-1.0199999896991843 -1.1973333212416568,-1.0199999896991843 c-0.6239999936983263,0.002666666639736431 -1.297333320231773,0.2013333313001006 -2.025333312879818,0.5999999939406975 c-0.7306666592877816,0.3973333293207284 -1.310666653430455,0.8773333244732856 -1.7493333156670974,1.4439999854172765 l-12.161333210517984,16.187999836519992 c-0.4386666622366435,0.5559999943850462 -1.0226666563389206,1.0293333229382615 -1.7533333156267021,1.415999985700044 c-0.7306666592877816,0.385333329441914 -1.4079999857808347,0.577333327502936 -2.0293333128394226,0.5706666609035966 l-11.231999886569838,-0.09466666571064353 c-0.8746666578335497,-0.007999999919209312 -1.2759999871138814,-0.34533332984586845 -1.198666654561525,-1.013333323099843 c0.03733333295631006,-0.3079999968895582 0.19866666466036423,-0.6413333268566113 0.49066666171150347,-0.9999999899011605 l25.521333075597493,-33.81866632513739 c0.5493333277857037,-0.7386666592069909 1.0919999889720677,-1.1093333221303545 1.619999983639883,-1.1159999887296954 c0.2839999971319298,-0.0013333333198682147 0.48266666179229445,0.1253333320676122 0.614666660459247,0.3746666628829691 l5.142666614731704,9.530666570418 c0.15866666506431754,0.2839999971319298 0.20799999789944196,0.665333326614239 0.15333333178484493,1.1453333217667963 c-0.07999999919209279,0.7079999928500229 -0.3359999966067903,1.3586666529457105 -0.7786666588030373,1.9546666469268026 c-0.2186666644583872,0.2853333304517975 -0.3426666632061318,0.5533333277453082 -0.36933332960349546,0.8093333251600056 c-0.07599999923248824,0.6479999934559534 0.35466666308494627,0.9733333235037965 1.2893333203125634,0.9706666568640603 l15.717333174606512,-0.03999999959604654 " stroke-width="0"/><path id="path28" style="fill:#ffffff;fill-opacity:1;fill-rule:nonzero;stroke:none" d="m196.45974387208912,140.36173961692072 c0.25733333073456544,-0.37333332956310006 0.4066666625598062,-0.7186666594089676 0.4399999955565108,-1.037333322857471 c0.0786666658722248,-0.6933333263314726 -0.30533333024982157,-1.0386666561773392 -1.1479999884065326,-1.037333322857471 c-0.619999993738721,0 -1.3079999867907186,0.20266666461996863 -2.050666645957314,0.6079999938599067 c-0.7453333258063308,0.4053333292399373 -1.3199999866695324,0.895999990951441 -1.7253333159094697,1.4733333184543769 L181.30774402510667,154.82307280421134 c-0.2626666640140383,0.37199999624323227 -0.4106666625194107,0.714666659449363 -0.44799999547572045,1.0279999896183933 c-0.07733333255235646,0.6879999930520003 0.3093333302094258,1.0346666562177345 1.149333321726401,1.0413333228170756 c0.6266666603380608,0.00399999995960466 1.3119999867503231,-0.19199999806102347 2.0533333125970503,-0.5879999940618839 c0.7479999924460697,-0.3959999960008605 1.3253333199490056,-0.8813333244328899 1.7293333158690745,-1.4546666519762221 zm16.49733316672942,-4.195999957625271 c0.8733333245136806,-0.00399999995960466 1.2719999871542766,0.34533332984586845 1.1973333212416568,1.043999989456812 c-0.03466666631657361,0.3213333300882397 -0.18133333150207762,0.6693333265738447 -0.4426666621962481,1.0493333227362849 l-13.738666527922083,18.767999810464985 c-0.40799999587967445,0.5759999941830696 -0.9826666567428741,1.0639999892548353 -1.7293333158690745,1.4626666518954314 c-0.7453333258063308,0.3986666626405967 -1.415999985700044,0.5959999939810929 -2.006666646401663,0.5906666607016182 l-31.434666349213025,-0.2679999972935113 c-0.8706666578739441,-0.007999999919209312 -1.2706666538344087,-0.3519999964452088 -1.1946666546019205,-1.0346666562177345 c0.03466666631657361,-0.3133333301690304 0.17999999818220952,-0.6546666600552936 0.44133332887637905,-1.0199999896991843 l13.74133319456182,-18.44266648041714 c0.40799999587967445,-0.5706666609035966 0.9853333233826094,-1.0586666559753624 1.7306666491889424,-1.4613333185755633 c0.7453333258063308,-0.40133332928033255 1.4119999857404393,-0.6039999939003021 2.0079999797215313,-0.6053333272201694 l31.427999682613688,-0.08266666583182959 " stroke-width="0"/><path id="path30" style="fill:#ffffff;fill-opacity:1;fill-rule:nonzero;stroke:none" d="m250.4224099937955,136.06707299362517 c0.8693333245540766,-0.00399999995960466 1.2693333205145403,0.3519999964452088 1.1959999879217886,1.0626666559349671 c-0.03599999963644184,0.3279999966875812 -0.195999998020628,0.6826666597725258 -0.4919999950313713,1.0679999892144398 l-3.0199999695015056,4.26399995693855 c-0.4106666625194107,0.5919999940214886 -0.9853333233826094,1.0959999889316725 -1.7279999825492078,1.5079999847709504 c-0.7493333257659354,0.41333332915914694 -1.4333333188583306,0.6186666604188524 -2.0559999792367867,0.6186666604188524 l-11.226666553290366,-0.014666666518550376 c-0.839999991516976,-0.0013333333198682147 -1.2266666542787572,-0.35733332972468196 -1.1506666550462692,-1.0599999892952305 c0.03866666627617833,-0.32266666340810835 0.1826666648219454,-0.6759999931731874 0.4426666621962481,-1.0573333226554942 l1.5386666511279192,-2.1146666453109884 c0.25733333073456544,-0.3826666628021782 0.4026666626002012,-0.7359999925672552 0.4386666622366435,-1.0586666559753624 c0.07733333255235646,-0.7053333262102855 -0.32266666340810835,-1.0573333226554942 -1.1959999879217886,-1.055999989335626 c-0.5946666606612235,0 -1.2613333205953312,0.20799999789944196 -2.0093333130413993,0.6186666604188524 c-0.7453333258063308,0.411999995839279 -1.3213333199894008,0.9106666574699906 -1.7266666492293379,1.4959999848921368 l-12.226666543191527,16.795999830379902 c-0.40799999587967445,0.5853333274221462 -0.9866666567024789,1.0839999890528587 -1.7306666491889424,1.4879999849729275 c-0.7453333258063308,0.4066666625598062 -1.429333318898726,0.6066666605400376 -2.0493333126374456,0.6013333272605648 l-11.206666553492344,-0.09733333235037983 c-0.8373333248772372,-0.006666666599341083 -1.2213333209992845,-0.35733332972468196 -1.1453333217667963,-1.0519999893760215 c0.03466666631657361,-0.31733333012863507 0.1826666648219454,-0.6639999932943732 0.4399999955565108,-1.0386666561773392 l13.6959998616863,-18.78266647698354 c0.4386666622366435,-0.5839999941022788 1.0213333230190524,-1.0799999890932537 1.7519999823068346,-1.4893333182927957 c0.7293333259679118,-0.40933332919954235 1.405333319141098,-0.6159999937791165 2.031999979479159,-0.6159999937791165 l31.427999682613688,-0.08399999915169756 " stroke-width="0"/><path id="path32" style="fill:#ffffff;fill-opacity:1;fill-rule:nonzero;stroke:none" d="m106.11841145109838,126.86440641989475 l-6.641333266263577,-2.6079999736622277 l0.17866666486234098,-7.082666595139956 l-4.6893332859765104,5.3106666130350995 l-6.641333266263577,-2.609333306982096 l3.8026666282641477,5.819999941224756 l-4.5453332874307435,5.149333281331044 l7.158666594372444,-1.1586666549654785 l4.458666621639309,5.7186666089147735 l0.17066666494313137,-6.865333264001437 l6.747999931853034,-1.6746666497544775 " stroke-width="0"/><path id="path34" style="fill:#ffffff;fill-opacity:1;fill-rule:nonzero;stroke:none" d="m112.2424113892531,161.8777393996341 l-3.5719999639269466,3.6799999628362725 h0.9799999901031384 l3.5533332974487917,-3.6799999628362725 zm-2.119999978590461,4.878666617397798 h-6.129333271434183 l5.85466660754133,-6.10133327171695 h6.131999938073919 c0.48533332843203014,0 0.8533333247156563,0.02933333303710078 1.1013333222111452,0.08666666579143417 c0.22133333109812403,0.04799999951525583 0.34666666316573663,0.117333332148403 0.3706666629233643,0.20399999793983703 c0.06533333267354252,0.0786666658722248 0.05599999943446512,0.17733333154247313 -0.02133333311789149,0.2959999970107443 c-0.07599999923248824,0.09733333235037983 -0.18133333150207762,0.20399999793983703 -0.3213333300882397,0.3239999967279767 l-4.242666623820659,4.4386666218412865 c-0.27733333053258863,0.2999999969703487 -0.6853333264122623,0.5066666615499215 -1.2146666543999434,0.6186666604188524 c-0.5359999945870226,0.09599999903051164 -1.043999989456812,0.14133333190603098 -1.5293333178888422,0.13333333198682173 " stroke-width="0"/><path id="path36" style="fill:#ffffff;fill-opacity:1;fill-rule:nonzero;stroke:none" d="m120.4557446396413,163.08973938739427 h0.8653333245944721 l1.149333321726401,-1.2199999876794163 h-0.9506666570660369 zm-7.1293332613353435,3.6586666297183807 l5.09999994849592,-5.273333280078789 c0.2853333304517975,-0.2639999973339069 0.5879999940618839,-0.46933332859361154 0.9079999908302542,-0.614666660459247 c0.3213333300882397,-0.14266666522589888 0.8839999910726266,-0.21199999785904647 1.6946666495525013,-0.21199999785904647 h3.7919999617052023 c0.48799999507176695,0 0.8573333246752615,0.013333333198682169 1.1159999887296954,0.04399999955565111 c0.2826666638120624,0.03333333299670551 0.47733332851282084,0.08799999911130219 0.5826666607824095,0.16799999830339551 c0.09333333239077503,0.09466666571064353 0.09599999903051164,0.22666666437759672 0.014666666518550376,0.3986666626405967 c-0.09333333239077503,0.15333333178484493 -0.2719999972531158,0.35466666308494627 -0.5373333279068905,0.6106666604996422 l-4.634666619861914,4.891999950596479 h-3.5933332970448384 l2.3879999758839725,-2.438666642038964 h-0.9799999901031384 l-2.2986666434528016,2.438666642038964 l-3.5519999641289237,-0.013333333198682169 " stroke-width="0"/><path id="path38" style="fill:#ffffff;fill-opacity:1;fill-rule:nonzero;stroke:none" d="m130.90507786744848,161.88307273291355 l-1.2213333209992845,1.2106666544403388 h0.9679999902243247 l1.1293333219283779,-1.2106666544403388 zm-8.163999917553078,4.873333284118324 l5.782666608268446,-6.105333271676554 h5.362666612509959 c0.6933333263314726,0.006666666599341083 1.1826666547231064,0.0706666659530156 1.4693333184947723,0.19333333138089157 c0.3239999967279767,0.1266666653874804 0.4599999953545345,0.34533332984586845 0.3959999960008605,0.6559999933751632 l-2.057333312556655,2.06133331251626 c-0.1266666653874804,0.130666665347085 -0.3013333302902168,0.24399999753588364 -0.5279999946678138,0.3426666632061318 c-0.19199999806102347,0.0786666658722248 -0.40133332928033255,0.1453333318656357 -0.6226666603784566,0.20266666461996863 c-0.22399999773786064,0.05599999943446512 -0.43599999559690655,0.10266666562985252 -0.6346666602572701,0.14399999854576762 c-0.1973333313404963,0.023999999757627937 -0.3653333296438908,0.04933333283512404 -0.5013333282704479,0.07199999927288359 l0.059999999394069733,2.4333333087594915 h-3.4613332983778853 l0.05066666615499224,-1.9226666472499654 l-1.7813333153439346,1.9226666472499654 h-3.534666630970637 " stroke-width="0"/><path id="path40" style="fill:#ffffff;fill-opacity:1;fill-rule:nonzero;stroke:none" d="m146.17041104661968,160.6550727453149 l-5.833333274423439,6.093333271797741 h-5.457333278220602 c-0.9839999900627423,0 -1.5426666510875242,-0.09599999903051164 -1.6906666495928961,-0.29066666373127137 c-0.13866666526629431,-0.18933333142128686 -0.03333333299670551,-0.47333332855321614 0.3133333301690304,-0.8546666580355263 l4.675999952777828,-4.947999950030944 h3.55466663076866 l-4.694666619255984,4.8746666174381925 h1.0359999895376026 l4.494666621275751,-4.8746666174381925 h3.601333296964048 " stroke-width="0"/><path id="path42" style="fill:#ffffff;fill-opacity:1;fill-rule:nonzero;stroke:none" d="m141.6490777589466,166.74840601711264 l5.813333274625416,-6.111999938275896 h3.6666666296375903 l-4.722666618973216,4.8933332839163475 h3.2053333009631877 l-1.161333321605215,1.2186666543595481 h-6.801333264647762 " stroke-width="0"/><path id="path44" style="fill:#ffffff;fill-opacity:1;fill-rule:nonzero;stroke:none" d="m160.82641089861107,166.73373935059413 h-3.431999965340784 l4.578666620427449,-4.8906666172766124 h-1.6733333164346096 l1.1159999887296954,-1.2013333212012614 h6.9186665967961645 l-1.1413333218071917,1.2013333212012614 h-1.7573333155863067 l-4.609333286784418,4.8906666172766124 " stroke-width="0"/><path id="path46" style="fill:#ffffff;fill-opacity:1;fill-rule:nonzero;stroke:none" d="m170.9770774627678,163.07373938755586 h0.8653333245944721 l1.1506666550462692,-1.2186666543595481 h-0.9506666570660369 zm-7.1293332613353435,3.6599999630382487 l5.097333281856184,-5.273333280078789 c0.29066666373127137,-0.2626666640140383 0.5933333273413555,-0.46933332859361154 0.9133333241097265,-0.614666660459247 c0.3159999968087673,-0.14133333190603098 0.8813333244328899,-0.21199999785904647 1.6933333162326325,-0.21199999785904647 h3.789333295065466 c0.4893333283916348,0 0.8613333246348666,0.014666666518550376 1.1119999887700909,0.045333332875519404 c0.29066666373127137,0.03199999967683715 0.48399999511216235,0.08799999911130219 0.5866666607420145,0.16666666498352684 c0.09199999907090697,0.09466666571064353 0.09599999903051164,0.2279999976974654 0.015999999838418575,0.39999999596046537 c-0.09199999907090697,0.15199999846497686 -0.2746666638928534,0.35466666308494627 -0.5373333279068905,0.6093333271797746 l-4.634666619861914,4.891999950596479 h-3.5946666303647072 l2.386666642564104,-2.4373333087190963 h-0.9799999901031384 l-2.29999997677267,2.4373333087190963 l-3.547999964169319,-0.013333333198682169 " stroke-width="0"/><path id="path48" style="fill:#ffffff;fill-opacity:1;fill-rule:nonzero;stroke:none" d="m181.63574402179427,162.46307272705627 c-0.7413333258467264,0.19333333138089157 -1.2439999874370442,0.2653333306537747 -1.503999984811346,0.21466666449878255 c-0.21333333117891456,-0.05333333279472873 -0.22666666437759672,-0.1973333313404963 -0.02933333303710078,-0.43066666231743406 l1.2759999871138814,-1.335999986507951 c0.12133333210800754,-0.10399999894972065 0.26933333061337894,-0.17199999826300003 0.4453333288359838,-0.20399999793983703 c0.18799999810141874,-0.04399999955565111 0.4239999957180923,-0.06666666599341098 0.7093333261698906,-0.06933333263314716 h1.8159999816605086 c0.22133333109812403,0.002666666639736431 0.37333332956310006,0.04133333291591473 0.4613333286744023,0.11866666546827147 c0.11066666554906195,0.05733333275433333 0.0813333325119611,0.15999999838418608 -0.08799999911130219,0.3119999968491627 l-0.6626666599745034,0.6693333265738447 c-0.08933333243117061,0.09333333239077503 -0.1906666647411547,0.1639999983437908 -0.3079999968895582,0.215999997818651 c-0.11866666546827147,0.03333333299670551 -0.32266666340810835,0.07999999919209279 -0.6133333271393786,0.14266666522589888 l-1.5026666514914777,0.3666666629637597 " stroke-width="0"/><path id="path50" style="fill:#ffffff;fill-opacity:1;fill-rule:nonzero;stroke:none" d="m196.8917438677264,160.64173941211624 l-1.0933333222919361,1.2133333210800752 l-7.266666593281769,3.6733332962369314 h4.021333292722535 l-1.1666666548846878,1.2053333211608661 h-7.858666587303256 l1.086666655692595,-1.2053333211608661 l7.2706665932413745,-3.6733332962369314 h-4.021333292722535 l1.0813333224131219,-1.2053333211608661 l7.946666586414559,-0.007999999919209312 " stroke-width="0"/><path id="path52" style="fill:#ffffff;fill-opacity:1;fill-rule:nonzero;stroke:none" d="m192.66641057706403,166.7470726837928 l5.80266660806647,-6.105333271676554 h3.5639999640077376 l-5.839999941022779,6.105333271676554 h-3.5266666310514276 " stroke-width="0"/><path id="path54" style="fill:#ffffff;fill-opacity:1;fill-rule:nonzero;stroke:none" d="m201.89307715055213,166.7470726837928 l4.625333286622836,-4.882666617357401 h-1.198666654561525 l-4.58533328702679,4.882666617357401 h-3.41999996546197 l5.7026666090763545,-6.0973332717573445 h10.046666565206996 c0.8333333249176327,0.00399999995960466 1.3946666525821525,0.09199999907090697 1.681333316353819,0.26133333069417003 c0.2533333307749608,0.1653333316636587 0.15733333174444963,0.48266666179229445 -0.2746666638928534,0.9533333237057735 l-4.478666621437333,4.882666617357401 h-3.4399999652599935 l4.613333286744022,-4.882666617357401 h-1.2853333203529589 l-4.5733332871479755,4.882666617357401 h-3.4133332988626295 " stroke-width="0"/><path id="path56" style="fill:#ec1e27;fill-opacity:1;fill-rule:nonzero;stroke:none" d="M281.5104096798428,210.22973891133506 C281.5104096798428,351.42067081880384 154.23574429850248,406.609736928125 154.23574429850248,406.609736928125 c0,0 -127.2786653812999,-55.18906610932117 -127.2786653812999,-196.37999801678998 v-107.95066557649025 c71.60799927684232,12.259999876188234 127.2786653812999,-11.822666547271458 127.2786653812999,-11.822666547271458 c0,0 55.666666104497956,24.082666423459692 127.27466538134028,11.822666547271458 zm-127.27466538134028,-128.2853320378004 C71.59974513303018,109.45773992901525 19.011745664107906,92.83640676353804 19.011745664107906,92.83640676353804 v117.12533215050345 c0,148.03599850500825 135.22399863439458,205.9042645872726 135.22399863439458,205.9042645872726 c0,0 135.2226653010747,-57.868266082264356 135.2226653010747,-205.9042645872726 v-117.12533215050345 c0,0 -52.58933280224212,16.62133316547716 -135.2226653010747,-10.891999890003445 " stroke-width="0"/><path id="path58" style="fill:#ffffff;fill-opacity:1;fill-rule:nonzero;stroke:none" d="m273.99440975574566,209.1444055889623 v-98.15466567541849 c-10.317333229140244,1.2359999875178351 -20.79199979002494,1.845333314697609 -31.281333017428185,1.845333314697609 c-43.831999557347686,0 -76.89199922348007,-10.613333226150987 -88.47733243981499,-14.911999849406111 c-11.58266654969518,4.298666623255124 -44.645332882467294,14.911999849406111 -88.49199910633354,14.911999849406111 c-10.489333227403245,0 -20.965333121607806,-0.6093333271797746 -31.27999968410831,-1.845333314697609 v98.15466567541849 c0,56.8519994258608 20.727999790671266,106.29866559317354 61.57466604483402,146.94293184938027 c24.041333090543777,23.9155997584802 48.411999511095,37.67186628622455 58.19733274560783,42.65839956919968 c9.785333234512827,-4.9865332829751345 34.15599965506406,-18.74279981071948 58.18133274576941,-42.65839956919968 c40.862666254001184,-40.644266256206755 61.57733271147375,-90.0909324235195 61.57733271147375,-146.94293184938027 zm7.513333257457389,-106.85733225419831 V210.23240557797476 C281.507743013203,351.42067081880384 154.23574429850248,406.609736928125 154.23574429850248,406.609736928125 c0,0 -127.2866653812191,-55.18906610932117 -127.2866653812191,-196.37733135015023 v-107.94533224321079 c71.6053326102026,12.24666654298955 127.2866653812191,-11.830666547190669 127.2866653812191,-11.830666547190669 c0,0 55.66533277117809,24.077333090180222 127.27199871470054,11.830666547190669 " stroke-width="0"/><path id="path60" style="fill:#ffffff;fill-opacity:1;fill-rule:nonzero;stroke:none" d="m183.98241066476237,181.66173919983868 l1.167999988204556,3.6746666295567993 c0,0 -9.354666572195393,-12.194666543514689 -32.07066634279017,-9.187999907211866 c0,0 20.210666462562397,-7.683999922400521 39.921332930174216,9.187999907211866 c0,0 -7.014666595826677,-3.8426666278601944 -9.018666575588604,-3.6746666295567993 zm7.682666589080652,21.378666450766953 c0,0 -9.854666567145973,0.6693333265738447 -11.191999886973793,-0.8346666582375026 c-1.335999986507951,-1.5026666514914777 1.8386666480982679,-2.503999974712507 3.5093332978931406,-2.3373333097289803 c0,0 -1.8386666480982679,-1.3373333198278194 -6.5146666008760965,-0.33466666328692274 c0,0 3.6253332967216756,-9.854666567145973 -4.478666621437333,-11.8586665469079 c0,0 1.9733333134049578,6.2919999364581045 0.05199999947486046,9.60399990301075 c-1.9226666472499654,3.311999966552645 -3.0346666360200567,-1.03066665625813 -2.701333306053003,-3.145333301569118 c0.33466666328692274,-2.1173333119507247 -2.3386666430488483,-7.9066665868185115 -8.129333251236504,-8.129333251236504 c0,0 0.7813333254427735,-2.782666638564964 4.6773332860976975,-1.8919999808929964 c0,0 -9.463999904424588,-8.017333252367575 -23.60666642826674,0.05466666611459695 c0,0 -1.225333320958889,-4.343999956130643 6.957333263072344,-5.1786666143681455 c8.187999917310705,-0.8346666582375026 24.221333088725984,1.1693333215244244 27.898666384922524,6.347999935892569 h-5.847999940941989 c0,0 12.162666543837853,4.369333289208139 13.029333201752193,12.386666541575714 c0,0 1.6693333164750048,-4.035999959241085 1.1693333215244244,-6.206666603986538 c0,0 7.515999924097125,2.7813333052450955 5.177333281048277,11.523999883620979 zM155.586410951529,188.34307246569824 h2.839999971319297 v-3.006666636302824 c2.1719999780653216,4.174666624507379 5.5106666110153295,12.861333203448797 4.007999959523853,10.355999895416423 c-1.5026666514914777,-2.505333308032375 -6.84799993084315,-7.349333259113599 -6.84799993084315,-7.349333259113599 zm5.845333274302253,14.697333184907329 l-7.494666590979234,-11.523999883620979 l1.6493333166769828,0.8359999915573715 c0,0 6.7626665983715855,6.846666597523282 7.222666593726118,10.687999892063608 zm-47.101332857664545,-0.6666666599341082 c-3.5653332973276055,-1.5586666509259426 -2.006666646401663,-7.79599992126945 -2.006666646401663,-7.79599992126945 c-6.233333270383903,4.455999954999573 -3.3399999662698776,12.26933320942731 -3.3399999662698776,12.26933320942731 h-4.230666623941845 c0,0 1.1119999887700909,3.0973333020538627 -0.2253333310577288,3.0973333020538627 c-1.335999986507951,0 -6.455999934801895,2.0053333130817945 -6.455999934801895,2.0053333130817945 c1.335999986507951,-0.44399999551611546 3.9346666269311013,-3.785333295105861 3.9346666269311013,-3.785333295105861 h-3.9346666269311013 c0.4426666621962481,-2.44933330859791 6.455999934801895,-6.013333272605648 6.455999934801895,-6.013333272605648 c11.135999887539327,-22.939999768332633 35.41199964237991,-18.2639998155548 35.41199964237991,-18.2639998155548 c-25.833333072446656,0.22399999773786064 -25.609333074708797,18.486666479972797 -25.609333074708797,18.486666479972797 zm117.8693321429899,10.689333225383477 c-6.625333266425158,-17.70533315453002 -29.67733303362672,-24.05199975710272 -29.67733303362672,-24.05199975710272 c0,0 -19.041333141037974,-14.365333188260143 -34.91066631410946,-16.870666496292518 c-15.867999839751622,-2.505333308032375 -25.889333071881122,4.6773332860976975 -25.889333071881122,4.6773332860976975 c-26.223999735168046,-2.1719999780653216 -36.41466629892081,9.018666575588604 -36.41466629892081,9.018666575588604 c12.193333210194822,-7.515999924097125 24.38799975370951,-4.843999951081224 24.38799975370951,-4.843999951081224 c-19.709333134291946,1.8373333147783997 -28.06266638326631,17.038666494595915 -28.395999713233365,15.367999844801043 c-0.33333332996705445,-1.6693333164750048 1.167999988204556,-7.517333257416994 1.167999988204556,-7.517333257416994 l-8.350666582334629,6.681333265859623 l5.1786666143681455,-6.681333265859623 c-14.699999851547066,5.3453332793516735 -29.733333033061186,27.05999972672541 -33.24133299763446,32.07199967611003 c-3.505333297933536,5.01066661606475 -11.690666548604506,6.013333272605648 -11.690666548604506,6.013333272605648 c5.5106666110153295,6.681333265859623 19.041333141037974,4.449333288400232 19.041333141037974,4.449333288400232 c-2.8386666379994288,9.794666567751904 -4.175999957827248,29.458666369168334 -4.010666626163589,31.62799968059392 c0.16799999830339551,2.1719999780653216 3.6773332961965357,13.698666528326036 6.302666603017051,9.021333242228339 c2.6253333068205147,-4.6773332860976975 2.4253333088402824,-14.71199985142588 2.4253333088402824,-14.71199985142588 l-1.6186666503200127,-2.031999979479159 c-2.9839999698650637,-18.590666478922518 3.249333300518839,-30.191999695095852 3.249333300518839,-30.191999695095852 c0.8346666582375026,-0.6693333265738447 3.5066666312534043,1.8373333147783997 3.5066666312534043,1.8373333147783997 c6.347999935892569,-5.846666607622121 6.013333272605648,-8.18533325067097 6.013333272605648,-8.18533325067097 c-2.002666646442058,1.167999988204556 -6.013333272605648,0.8346666582375026 -6.013333272605648,0.8346666582375026 l6.013333272605648,-7.014666595826677 l-3.173333301286351,0.16666666498352684 c1.8373333147783997,-6.849333264163018 5.8439999409823855,-7.682666589080652 5.8439999409823855,-7.682666589080652 c-2.5026666413926373,5.009333282744882 1.8386666480982679,5.086666615297238 1.8386666480982679,5.086666615297238 c1.8386666480982679,1.5799999840438343 -1.8386666480982679,8.60933324638906 -1.8386666480982679,8.60933324638906 c1.1719999881641605,1.001333323221029 5.011999949384619,0 5.011999949384619,0 c5.346666612671541,-5.011999949384619 14.867999849850461,-6.346666602572702 17.20533315957944,-3.3413332995897456 c2.3373333097289803,3.006666636302824 4.842666617761355,3.3413332995897456 4.842666617761355,3.3413332995897456 c0,0 1.0026666565408973,-1.335999986507951 3.8426666278601944,-2.4119999756416 c2.839999971319297,-1.0759999891336491 3.173333301286351,-3.267999966996994 3.173333301286351,-3.267999966996994 c0,-4.843999951081224 0.5013333282704479,-13.027999868432325 0.5013333282704479,-13.027999868432325 l-0.5013333282704479,-1.3373333198278194 c-0.4999999949505809,0.3359999966067903 -2.0119999796811356,1.3373333198278194 -2.0119999796811356,1.3373333198278194 c-1.6773333163942143,-3.006666636302824 4.350666622729984,-13.19466653341585 4.183999957746457,-9.689333235482316 c-0.16666666498352684,3.5093332978931406 -0.33333332996705445,8.687999912261287 1.8386666480982679,6.682666599179491 c2.1706666447454537,-2.0053333130817945 9.354666572195393,-7.349333259113599 7.849333254064179,-4.343999956130643 c-1.5026666514914777,3.007999969622692 -10.523999893719818,10.023999898769238 -10.355999895416423,11.47066655082625 c0.16799999830339551,1.4466666520570128 1.1706666548442923,8.907999910039543 -0.33333332996705445,10.745333224817943 c-1.503999984811346,1.8373333147783997 -5.846666607622121,4.343999956130643 -0.8346666582375026,3.8426666278601944 c5.01066661606475,-0.5013333282704479 14.863999849890856,0.5013333282704479 17.702666487890287,3.770666628587311 c2.841333304639165,3.2719999669565984 3.6759999628766677,0.9053333241905175 3.6759999628766677,0.9053333241905175 c10.022666565449368,-10.187999897113027 20.421333127101573,-5.513333277655067 18.93066647548891,-8.183999917351102 c-1.491999984932532,-2.6693333063761657 0,-2.671999973015902 0,-2.671999973015902 c2.393333309163445,2.0039999797619266 3.6199999634422024,0.05333333279472873 3.6199999634422024,0.05333333279472873 c7.1826665941300725,-11.133333220899592 20.65733312471825,-5.787999941547919 23.774666426570136,-5.343999946031804 c3.1159999685320177,0.4453333288359838 4.006666626203985,-2.22533331086005 4.006666626203985,-2.22533331086005 l0.8933333243117038,-8.686666578941418 c5.790666608187656,1.782666648663803 11.135999887539327,10.243999896547493 11.135999887539327,10.243999896547493 h-6.9066665969173515 c5.791999941507524,4.231999957261713 3.789333295065466,13.933333192622841 3.789333295065466,13.933333192622841 c4.453333288359836,-0.5439999945062316 12.025333211891427,7.5586665903329076 12.025333211891427,7.5586665903329076 c0.6666666599341082,-4.119999958392783 -8.907999910039543,-16.367999834702204 -8.907999910039543,-16.367999834702204 c3.562666630687869,-3.5639999640077376 6.457333268121763,1.334666653188083 6.457333268121763,1.334666653188083 c5.1226666149336815,8.018666585687443 10.245333229867361,21.825333112922802 11.750666547998575,16.321333168506815 c1.5079999847709504,-5.50399994441599 -3.8919999606953186,-15.799999840438343 -3.8919999606953186,-15.799999840438343 l7.787999921350241,-0.5213333280684719 " stroke-width="0"/><path id="path62" style="fill:#ffffff;fill-opacity:1;fill-rule:nonzero;stroke:none" d="m132.8130778481799,350.47800416165705 c0,0 3.118666635171754,10.243733229883519 13.362666531719245,11.355733218653612 c10.245333229867361,1.1145333220778406 37.63866628655983,-2.002666646442058 40.979999586149574,-11.355733218653612 c3.3413332995897456,-9.354666572195393 3.007999969622692,-9.687999902162447 5.342666612711936,-6.234933270367745 c2.3399999763687167,3.4505332984869526 2.6746666396556384,16.254666502513402 -7.34799992579373,23.71613309382792 c-10.0213332321295,7.461466591314515 -21.562666448908764,9.13333324109727 -31.213333018114902,8.90933324335941 c-9.654666569165741,-0.2238666644058734 -23.12799976643405,-7.68279992241264 -23.35066643085204,-24.833333082545497 c0,0 0.7826666587626411,-2.335866643077125 2.226666644179918,-1.5571999842740878 " stroke-width="0"/><path id="path64" style="fill:#ffffff;fill-opacity:1;fill-rule:nonzero;stroke:none" d="m148.51441102294797,355.3748041122051 c0,0 6.570666600310561,-4.3395999561750775 11.805333214113173,-5.008799949416935 c5.233333280482742,-0.6666666599341082 21.26933311853776,2.5598666408149855 21.37999978408682,-6.234933270367745 c0,0 2.11333331199112,-18.37439981443989 -1.4479999853768812,-13.253066532826079 c-3.562666630687869,5.122399948269707 -6.794666598048422,14.143733190498047 -10.690666558703345,14.586399852694294 c-3.8973332939747913,0.4453333288359838 -10.357333228736291,1.4505333186846305 -11.803999880793304,1.8958666475206143 c-1.4453333187371449,0.4426666621962481 -8.239999916785566,1.0025333232089106 -17.259999825694035,-10.245333229867361 c-9.019999908908472,-11.246399886424417 -0.5546666610651776,20.822933123045882 8.017333252367575,18.259866482263213 " stroke-width="0"/><path id="path66" style="fill:#ffffff;fill-opacity:1;fill-rule:nonzero;stroke:none" d="m170.28507746975623,279.7110715429876 c0,0 6.367999935690593,-1.5053333181312132 12.03733321177024,0 l-1.5146666513702918,29.229333038151 c0,0 -1.8373333147783997,1.1693333215244244 -10.52266656039995,-29.229333038151 " stroke-width="0"/><path id="path68" style="fill:#ffffff;fill-opacity:1;fill-rule:nonzero;stroke:none" d="m122.39174462008992,289.45373811126456 c0,0 6.083999938558663,-4.546666620750612 11.839999880429746,-3.438666631940125 l0.0813333325119611,31.67333301346944 c0,0 -1.1519999883661374,1.4921333182645191 -11.921333212941706,-28.234666381529312 " stroke-width="0"/><path id="path70" style="fill:#ffffff;fill-opacity:1;fill-rule:nonzero;stroke:none" d="m139.1597444507526,284.9617381566286 c0,0 -2.3373333097289803,0.36933332960349546 -0.44399999551611546,5.494666611176912 c1.8933333142128645,5.1226666149336815 3.2279999674009474,2.5626666407867082 4.8999999505156895,1.2266666542787572 c1.6693333164750048,-1.3386666531476874 6.3453332692528335,0.6679999932539779 18.150666483366006,-1.7839999819836714 c0,0 1.7799999820240666,-0.4453333288359838 3.006666636302824,1.1146666554098272 c1.225333320958889,1.559999984245811 2.895999970753762,-6.234666603703771 1.113333322089959,-9.130666574457534 c-1.7813333153439346,-2.895999970753762 -3.785333295105861,4.230666623941845 -5.233333280482742,4.89866661719582 c-1.4479999853768812,0.6679999932539779 -15.14533318038305,2.226666644179918 -16.70533316462886,1.6706666497948728 c-1.5586666509259426,-0.5573333277049126 -1.6706666497948728,-3.3066666332731725 -4.787999951646758,-3.4906666314149857 " stroke-width="0"/><path id="path72" style="fill:#ffffff;fill-opacity:1;fill-rule:nonzero;stroke:none" d="m190.83041059560549,331.15667102344673 c0,0 0.5013333282704479,-13.02813320176431 6.178666604269306,-20.377599794209896 c5.679999942638594,-7.349599925777572 21.549333115710084,-6.513599934220202 37.24933295715831,-39.08533293861684 c0,0 3.342666632909614,6.5146666008760965 6.905333263597483,4.7333332855321615 c3.561333297368001,-1.782666648663803 3.1159999685320177,-33.96666632364277 -13.085333201186659,-52.67333280139382 l-1.0026666565408973,-5.01066661606475 c0,0 19.375999804324895,12.35999987517835 27.227999725028813,43.26133289644409 l-4.6773332860976975,-0.33333332996705445 c0,0 8.518666580638023,24.7199997503567 -12.69466653846527,45.4334662078414 c0,0 -1.335999986507951,-3.5083999645692328 -2.6733333063357705,-4.842666617761355 c0,0 -8.853333243924945,9.686399902178605 -20.042666464259,11.355733218653612 c-11.191999886973793,1.6723999831107017 -16.70533316462886,5.680133275970581 -23.385333097168612,17.539066489542456 " stroke-width="0"/><path id="path74" style="fill:#ffffff;fill-opacity:1;fill-rule:nonzero;stroke:none" d="m128.19174456151666,338.33893761758077 c0,0 -1.6706666497948728,-14.281333189108446 -12.193333210194822,-20.627599791685185 c-10.52266656039995,-6.348533269220517 -21.825333112922802,-0.7494666590979226 -43.87466622358347,-28.033599716893185 c0,0 -2.671999973015902,6.347999935892569 -5.3453332793516735,6.681333265859623 c-2.6693333063761657,0.33466666328692274 -11.914666546342366,-38.19733294758461 5.457333278220602,-63.9199993544822 c0,0 -19.71066646761182,7.830666587586024 -21.88133311235727,52.52266613624871 l4.845333284401092,-1.577333317404098 c0,0 0,24.317466421088483 6.846666597523282,32.9545330005308 l1.1693333215244244,-4.057333292358977 c0,0 5.343999946031804,8.185466584002956 15.5333331764647,12.026533211879308 l1.1693333215244244,-5.3437332793678305 c0,0 3.3413332995897456,5.680266609302567 15.869333173071489,6.513599934220202 c12.527999873481743,0.8358666582253845 23.050666433881695,-1.5031999848194253 32.403999672757216,12.860933203452836 " stroke-width="0"/><path id="path76" style="fill:#ffffff;fill-opacity:1;fill-rule:nonzero;stroke:none" d="m133.4810778414339,395.69093703839224 c0,0 13.959999859020208,-1.3385333198157006 20.455999793418147,-1.7838666486516843 c0,0 -0.411999995839279,-4.901466617167544 -13.327999865402672,-12.695733205121165 c-12.917333202883261,-7.793733254625675 -21.158666452988697,-25.687066407257113 -21.158666452988697,-25.687066407257113 c0,0 -10.466666560965484,-7.5213332573765985 -22.71733310391464,-25.549466408646715 c0,0 -17.561333155984254,0.304266663593927 -26.72666639675836,-7.559866590320789 c0,0 2.006666646401663,5.793199941495406 15.594666509178637,14.254666522711082 c13.58399986281737,8.464133247855413 40.97599958618997,43.429199561415494 47.879999516467585,59.02133273728639 " stroke-width="0"/><path id="path78" style="fill:#ffffff;fill-opacity:1;fill-rule:nonzero;stroke:none" d="m210.09574373438136,368.0737373172939 v-23.385333097168612 c0,0 7.123999928055871,-19.95053313185611 7.34799992579373,-28.349466380369968 c0,0 12.917333202883261,-5.059866615567887 16.48266650021087,-9.958399899431722 c0,0 3.7839999617859927,9.13079990778952 4.006666626203985,16.034399838071174 c0,0 3.786666628425729,-0.8879999910322309 4.231999957261713,-4.8983999505318465 c0.4453333288359838,-4.008399959519814 -2.894666637433894,-8.56826658013712 -2.894666637433894,-8.56826658013712 c0,0 4.007999959523853,-6.45826660144567 5.789333274867788,-8.298399916195795 c1.7813333153439346,-1.838533314766281 1.5586666509259426,8.850533243953222 9.243999906646332,7.514533257445271 c0,0 -9.911999899900307,25.1641330792048 -44.20799955355052,59.90933272831862 " stroke-width="0"/><path id="path80" style="fill:#ffffff;fill-opacity:1;fill-rule:nonzero;stroke:none" d="m196.67574386990776,306.4352046064382 c0,0 11.0239998886704,-18.374799814435853 7.0159999291465445,-39.418799601915886 c0,0 -0.8359999915573715,-18.541333146087393 -1.0026666565408973,-23.21866643218509 c0,0 4.6226666199831,5.846666607622121 7.406666591867932,15.5333331764647 c0,0 -0.05733333275433333,-7.6813332557607845 4.621333286663231,-10.855999890367004 c0,0 0.665333326614239,-4.843999951081224 0,-5.5119999443352 c-0.6693333265738447,-0.6693333265738447 -8.018666585687443,1.8359999814585328 -17.038666494595915,-8.686666578941418 c0,0 0.8359999915573715,-0.8346666582375026 9.019999908908472,3.006666636302824 c8.183999917351102,3.8426666278601944 8.018666585687443,-7.8506665873840475 11.690666548604506,0.6693333265738447 c3.6746666295567993,8.518666580638023 2.1719999780653216,10.189333230432895 2.1719999780653216,10.189333230432895 c0,0 9.437333238027223,5.651999942921361 -4.174666624507379,31.9013330111669 c0,0 1.6693333164750048,-0.1653333316636587 5.01066661606475,-5.094666615216448 c3.3413332995897456,-4.926666616913053 10.355999895416423,-19.793333133443642 1.1693333215244244,-30.14933302886007 c0,0 3.2293333007208154,-9.351999905555656 1.4479999853768812,-16.702666497989124 c0,0 8.017333252367575,6.125333271474577 6.458666601441631,20.157333129767668 c-1.5573333176060746,14.029333191653354 -0.8906666576719676,23.05199976720156 -0.5559999943850462,25.27866641138148 c0.33333332996705445,2.226666644179918 -17.150666493464843,23.603999761627 -33.24133299763446,32.90279966771992 " stroke-width="0"/><path id="path82" style="fill:#ffffff;fill-opacity:1;fill-rule:nonzero;stroke:none" d="m87.27041164144129,289.06307144854327 c0,0 -8.018666585687443,-4.174666624507379 -10.691999892023212,-10.0213332321295 c0,0 -1.335999986507951,8.68533324562155 7.350666592433467,15.869333173071489 c8.683999912301681,7.18146659414219 27.894666384962918,15.365333178161304 31.90266634448677,19.206533139369643 c0,0 -8.853333243924945,-12.860933203452836 -9.519999903859052,-14.863599849894896 c-0.6679999932539779,-2.005599979745768 -5.011999949384619,-10.022933232113342 -0.8359999915573715,-20.21226646254624 c0,0 -2.729333305770235,1.8386666480982679 -6.849333264163018,8.853333243924945 c0,0 -3.6746666295567993,-7.683999922400521 0.6693333265738447,-15.201333179817516 c0,0 -13.694666528366431,-1.167999988204556 -14.031999858293089,-16.367999834702204 c0,0 -0.33333332996705445,-3.5079999645732722 2.006666646401663,-5.678666609318726 c2.3373333097289803,-2.1719999780653216 16.366666501382333,-13.363999865039116 16.366666501382333,-13.363999865039116 c0,0 -0.16666666498352684,-1.334666653188083 -2.505333308032375,0 c-2.3386666430488483,1.3373333198278194 -13.025333201792588,8.853333243924945 -14.530666519923804,4.0093332928437215 c-1.5026666514914777,-4.843999951081224 -0.33333332996705445,-11.693333215244243 1.167999988204556,-11.190666553653926 c1.503999984811346,0.5013333282704479 3.841333294540326,9.52133323717892 12.027999878531164,6.013333272605648 c8.183999917351102,-3.5079999645732722 2.1706666447454537,-7.183999927449941 2.1706666447454537,-7.183999927449941 c0,0 -7.682666589080652,-11.0239998886704 -13.861333193349958,-4.175999957827248 c-6.182666604228911,6.849333264163018 -15.370666511440778,20.71333312415271 -6.682666599179491,36.58133296390434 c0,0 -0.3359999966067903,6.681333265859623 -1.8386666480982679,8.68533324562155 c-1.5026666514914777,2.0053333130817945 -2.6733333063357705,9.019999908908472 7.685333255720389,19.041333141037974 " stroke-width="0"/><path id="path84" style="fill:#ffffff;fill-opacity:1;fill-rule:nonzero;stroke:none" d="m130.0304112096149,242.90707191466527 c0,0 17.926666485628143,9.798666567711509 33.51599966152731,-2.5613333074668403 c0,0 2.8386666379994288,-2.226666644179918 3.118666635171754,2.2826666436143834 c0.27733333053258863,4.5106666211141695 1.4479999853768812,13.19466653341585 -8.407999915088961,19.877333132595343 c-9.853333233826106,6.681333265859623 -2.002666646442058,11.693333215244243 -2.002666646442058,11.693333215244243 c0,0 4.117333291753046,2.505333308032375 10.41066656153102,1.5026666514914777 c6.2919999364581045,-1.0026666565408973 11.635999882489909,-0.195999998020628 14.14266652384215,0.2346666642968058 c2.505333308032375,0.4346666622770387 10.131999897678561,-1.3466666530668971 7.350666592433467,-8.670666579102999 c0,0 0.7786666588030373,-2.866666637716661 2.671999973015902,-4.4266666219624735 c1.8919999808929964,-1.5586666509259426 0.7786666588030373,-3.2293333007208154 4.89866661719582,-4.231999957261713 c4.1186666250729145,-1.0026666565408973 31.069333019569136,-7.125333261375738 66.36799932976025,-9.463999904424588 l-1.113333322089959,-1.001333323221029 c0,0 -51.94799947538551,0.715999992769232 -78.66133253894519,13.138666533981388 c0,0 -10.425333228049569,3.8973332939747913 -2.627999973460251,-1.113333322089959 c7.794666587949583,-5.011999949384619 37.85999961765795,-16.035999838055016 83.29466582548724,-27.72799971997939 l-6.458666601441631,0.7786666588030373 c0,0 -27.839999718848322,6.237333270343508 -65.69999933650627,18.821333143259718 c0,0 -5.23466661380261,1.4453333187371449 -1.0026666565408973,-2.450666641917778 c4.231999957261713,-3.8973332939747913 40.587999590108325,-19.31999980489043 70.98933261642347,-30.845333021831276 l-8.403999915129356,1.5586666509259426 c0,0 -36.5279996311096,11.805333214113173 -73.94266591993158,33.40666632929812 c0,0 -9.13333324109727,6.679999932539755 -4.007999959523853,-0.11199999886893013 c5.1226666149336815,-6.791999931408685 31.51599968172499,-30.06533302970837 65.47733267208828,-49.44133283403327 c0,0 -8.906666576719672,1.335999986507951 -65.36533267321936,39.642666266321754 c0,0 -0.6666666599341082,3.0053333029829554 -7.127999928015475,-4.565333287228767 c0,0 -1.0026666565408973,-3.119999968491622 3.3413332995897456,1.334666653188083 c4.343999956130643,4.455999954999573 4.89866661719582,-0.5546666610651776 7.573333256851458,-3.561333297368001 c2.671999973015902,-3.006666636302824 15.80933317367742,-11.914666546342366 20.71066645751298,-12.69466653846527 c4.901333283835556,-0.7799999921229056 -10.0213332321295,-2.5613333074668403 -14.029333191653354,-2.895999970753762 c-4.0093332928437215,-0.33333332996705445 -25.277333078061613,-10.466666560965484 -37.527999621010764,5.01066661606475 c0,0 -1.3666666528649198,1.0853333223727268 -2.4533333085575144,-0.6679999932539779 c-1.08266665573299,-1.7533333156267021 -23.131999766393655,-11.690666548604506 -39.669332932719115,6.681333265859623 c0,0 -0.6666666599341082,0.751999992405675 0.751999992405675,1.6706666497948728 c1.4199999856596488,0.9186666573892006 16.03466650473515,14.198666523276616 16.367999834702204,14.53199985324367 c0.33466666328692274,0.33466666328692274 2.591999973823809,2.9239999704709945 -2.671999973015902,0.33466666328692274 c0,0 -7.538666590534885,-3.579999963846156 -24.45599975302279,-5.059999948899875 l-14.461333187290654,-3.841333294540326 l-33.57466632760151,-7.635999922885265 l48.818666173654805,15.03333318151412 c0,0 18.329333148228347,4.843999951081224 22.337333107752197,8.517333247318154 c4.007999959523853,3.6759999628766677 7.682666589080652,5.681333275958462 -0.3359999966067903,4.177333291147116 c0,0 -5.342666612711936,-2.0053333130817945 -7.5119999241375215,-2.3386666430488483 c-2.1719999780653216,-0.33466666328692274 -67.9853326467604,-5.343999946031804 -73.16133259448881,-4.0093332928437215 c-5.179999947688014,1.335999986507951 0,1.1693333215244244 0,1.1693333215244244 c0,0 48.27199951250884,1.8373333147783997 67.9813326468008,5.3453332793516735 c0,0 5.513333277655067,2.3386666430488483 5.513333277655067,3.5079999645732722 c0,1.1693333215244244 -63.3079993606627,0.33333332996705445 -70.49066595479276,2.6733333063357705 v0.7506666590858055 c0,0 49.10933283738608,-0.9186666573892006 75.33333257255413,-1.0853333223727268 c0,0 11.0239998886704,2.101333312112306 -1.0026666565408973,2.1359999784288797 c-12.026666545211295,0.03599999963644184 -63.30666602734283,11.05866655498697 -69.3186659666286,13.731999861322741 l-0.16799999830339551,0.8346666582375026 c0,0 50.945332818844605,-10.0213332321295 62.80533269907238,-10.855999890367004 c0,0 3.5106666312130086,-0.4453333288359838 3.3986666323440793,2.9213333038312577 c-0.11333333218879825,3.3706666326268464 0.33333332996705445,9.494666570781556 8.905333243399806,7.155999927732708 c8.574666580072488,-2.3386666430488483 6.015999939245384,-2.786666638524568 16.149333170243814,-3.0626666357372887 c10.131999897678561,-0.2786666638524578 10.9106665564816,-7.959999919613241 9.129333241137665,-9.853333233826106 c-1.782666648663803,-1.8933333142128645 -18.483999813333057,-7.0159999291465445 -18.70799981107092,-25.057333080283357 c0,0 0.5933333273413555,-2.317333309930957 3.007999969622692,-1.2239999876390208 " stroke-width="0"/><path id="path86" style="fill:#ffffff;fill-opacity:1;fill-rule:nonzero;stroke:none" d="m119.22907798536255,222.28707212290328 c0,3.206666634283056 -3.8546666277390083,5.809333274665811 -8.61066657970893,5.809333274665811 c-4.754666618650052,0 -8.611999913028798,-2.602666640382755 -8.611999913028798,-5.809333274665811 c0,-3.207999967602924 3.8573332943787446,-5.807999941345943 8.611999913028798,-5.807999941345943 c4.7559999519699225,0 8.61066657970893,2.5999999737430186 8.61066657970893,5.807999941345943 " stroke-width="0"/><path id="path88" style="fill:#272e73;fill-opacity:1;fill-rule:nonzero;stroke:none" d="m111.72107806118458,221.4150721317095 c0,0.5999999939406975 -0.48533332843203014,1.0853333223727268 -1.0853333223727268,1.0853333223727268 c-0.5986666606208286,0 -1.0839999890528587,-0.48533332843203014 -1.0839999890528587,-1.0853333223727268 c0,-0.5986666606208286 0.48533332843203014,-1.0839999890528587 1.0839999890528587,-1.0839999890528587 c0.5999999939406975,0 1.0853333223727268,0.48533332843203014 1.0853333223727268,1.0839999890528587 " stroke-width="0"/><path id="path90" style="fill:#ffffff;fill-opacity:1;fill-rule:nonzero;stroke:none" d="m173.959744099313,219.91107214689816 c0,0 -3.3306666330308,-5.343999946031804 2.342666643008453,-10.689333225383477 c5.673333276039252,-5.3453332793516735 11.687999881964771,0 11.687999881964771,0 c0,0 7.349333259113599,9.093333241501224 -8.519999913957891,13.065333201388635 l-5.5106666110153295,-2.375999976005158 " stroke-width="0"/><path id="path92" style="fill:#272e73;fill-opacity:1;fill-rule:nonzero;stroke:none" d="m181.09041069396824,213.2310722143584 c0,0.5999999939406975 -0.4866666617518991,1.0853333223727268 -1.086666655692595,1.0853333223727268 c-0.6013333272605648,0 -1.0853333223727268,-0.48533332843203014 -1.0853333223727268,-1.0853333223727268 c0,-0.5999999939406975 0.48399999511216235,-1.0853333223727268 1.0853333223727268,-1.0853333223727268 c0.5999999939406975,0 1.086666655692595,0.48533332843203014 1.086666655692595,1.0853333223727268 " stroke-width="0"/><path id="path94" style="fill:#ffffff;fill-opacity:1;fill-rule:nonzero;stroke:none" d="m71.73974513161633,332.711337674413 l-4.666666619538751,-7.8015999212128975 l5.6119999433253165,3.9015999605983693 c0,0 4.9999999495058045,7.8743999204777015 10.166666563995136,12.2077332100494 c5.166666614489332,4.333333289571697 27.499999722281924,20.666666457957326 42.83333290076639,42.49999957079934 l2.6666666397364294,7.3333332592751805 l-56.66666609439912,-56.16666609944854 l0.05466666611459695,-1.974399980060852 " stroke-width="0"/></g></g></g></svg>