<?xml version="1.0" encoding="UTF-8" standalone="no"?><!-- Generator: Gravit.io --><svg xmlns="http://www.w3.org/2000/svg" xmlns:xlink="http://www.w3.org/1999/xlink" style="isolation:isolate" viewBox="0 0 512 512" width="512pt" height="512pt"><defs><clipPath id="_clipPath_O7AORPuXH0ZOlAZ7snIP9OshyGv5hRCC"><rect width="512" height="512"/></clipPath></defs><g clip-path="url(#_clipPath_O7AORPuXH0ZOlAZ7snIP9OshyGv5hRCC)"><path d="M 477.714 383.995 L 256.005 512 L 34.286 383.995 L 34.286 127.985 L 256.005 0 L 477.714 127.985 L 477.714 383.995 Z" fill-rule="evenodd" fill="rgb(17,17,132)" /><path d=" M 210.555 210.389 L 288.181 132.763 C 293.972 126.972 300.545 125.876 307.588 132.763 L 379.737 204.912 C 384.902 210.076 384.432 217.902 379.737 222.597 L 222.762 379.415 C 217.128 385.05 209.772 385.989 203.199 379.415 L 132.615 308.831 C 126.981 303.197 127.45 294.276 132.615 289.112 L 210.555 210.389 Z  M 211.807 218.371 L 293.033 299.598 L 219.162 373.468 C 214.624 378.007 209.929 378.163 205.233 373.468 L 137.623 305.858 C 133.397 301.632 133.71 296.937 137.623 293.024 L 211.807 218.371 Z  M 298.198 294.746 L 216.971 213.52 L 290.842 139.649 C 295.381 135.11 300.076 134.954 304.771 139.649 L 372.381 207.259 C 376.607 211.485 376.294 216.18 372.381 220.093 L 298.198 294.746 Z  M 277.695 213.676 C 277.695 202.62 286.672 193.643 297.728 193.643 C 308.785 193.643 317.761 202.62 317.761 213.676 C 317.761 224.732 308.785 233.709 297.728 233.709 C 286.672 233.709 277.695 224.732 277.695 213.676 Z  M 221.51 299.598 C 221.51 288.541 230.486 279.565 241.543 279.565 C 252.599 279.565 261.575 288.541 261.575 299.598 C 261.575 310.654 252.599 319.63 241.543 319.63 C 230.486 319.63 221.51 310.654 221.51 299.598 Z  M 162.977 299.598 C 162.977 288.541 171.953 279.565 183.01 279.565 C 194.066 279.565 203.042 288.541 203.042 299.598 C 203.042 310.654 194.066 319.63 183.01 319.63 C 171.953 319.63 162.977 310.654 162.977 299.598 Z " fill-rule="evenodd" fill="rgb(255,255,255)"/></g></svg>