<?xml version="1.0" encoding="UTF-8" standalone="no"?><!-- Generator: Gravit.io --><svg xmlns="http://www.w3.org/2000/svg" xmlns:xlink="http://www.w3.org/1999/xlink" style="isolation:isolate" viewBox="0 0 512 512" width="512pt" height="512pt"><defs><clipPath id="_clipPath_tgCurNXJg1TZLJvisnS9JcsY8aOSJSai"><rect width="512" height="512"/></clipPath></defs><g clip-path="url(#_clipPath_tgCurNXJg1TZLJvisnS9JcsY8aOSJSai)"><rect width="512" height="512" style="fill:rgb(27,27,29)"/><path d=" M 284.452 231.238 C 284.882 225.925 283.002 220.685 279.293 216.857 C 275.584 213.029 270.405 210.985 265.082 211.248 M 301.033 236.584 C 301.677 225.688 297.907 214.992 290.573 206.909 C 282.615 198.842 271.838 194.176 260.51 193.892 M 318.079 243.48 C 318.895 225.474 312.253 207.927 299.716 194.977 C 287.663 183.153 271.346 176.699 254.467 177.078" fill-rule="evenodd" fill="none" vector-effect="non-scaling-stroke" stroke-width="6" stroke="rgb(85,0,0)" stroke-linejoin="round" stroke-linecap="round" stroke-miterlimit="4"/><path d=" M 350.234 152.982 C 343.88 147.093 318.156 128.42 260.898 128.188 C 260.898 128.188 193.334 124.081 160.172 154.299 C 141.809 172.662 135.378 199.47 134.681 232.71 C 133.983 265.949 133.131 328.244 193.179 345.135 L 193.179 345.135 L 193.179 370.936 C 193.179 370.936 193.179 381.396 199.688 383.488 C 207.978 386.123 212.859 378.142 220.84 369.619 C 225.179 364.893 231.222 357.997 235.716 352.728 C 261.264 355.115 287.03 353.23 311.958 347.15 C 320.248 344.438 367.202 338.472 374.873 276.099 C 383.008 211.867 371.309 171.267 350.234 152.982 L 350.234 152.982 Z  M 357.207 271.528 C 350.699 323.518 312.655 326.772 305.682 329.019 C 284.234 334.306 262.092 336.214 240.055 334.675 C 240.055 334.675 214.022 365.668 205.886 374.191 C 204.968 375.276 203.584 375.852 202.167 375.74 C 200.772 375.353 200.385 373.726 200.385 371.324 C 200.385 368.922 200.385 328.477 200.385 328.477 L 200.385 328.477 C 149.557 314.298 152.501 261.3 153.121 233.562 C 153.741 205.824 158.932 183.044 174.429 167.703 C 202.244 142.522 259.658 146.241 259.658 146.241 C 308.084 146.241 331.328 161.04 336.674 165.921 C 354.728 181.262 363.793 217.833 357.207 271.528 L 357.207 271.528 Z  M 265.779 274.627 C 268.378 274.821 270.93 273.857 272.752 271.993 L 277.556 265.949 C 280.952 262.213 286.543 261.461 290.806 264.167 C 294.916 266.539 298.899 269.125 302.738 271.915 C 306.379 274.627 313.74 280.748 313.74 280.826 C 317.33 283.729 318.164 288.868 315.677 292.758 L 315.677 292.758 C 313.04 297.338 309.693 301.47 305.759 305 L 305.759 305 C 302.921 307.577 299.395 309.273 295.609 309.881 C 295.122 309.965 294.624 309.965 294.137 309.881 C 292.693 309.903 291.254 309.694 289.876 309.261 L 289.876 309.261 C 280.219 305.923 270.925 301.613 262.137 296.399 C 253.958 291.912 246.181 286.727 238.893 280.903 C 235.232 278.006 231.739 274.902 228.433 271.605 L 228.433 271.605 L 228.433 271.605 L 228.433 271.605 L 228.433 271.605 L 228.046 271.605 C 224.769 268.254 221.666 264.737 218.748 261.068 C 212.95 253.761 207.767 245.986 203.252 237.824 C 198.036 229.048 193.751 219.751 190.467 210.085 L 190.467 210.085 C 190.009 208.684 189.774 207.22 189.77 205.746 C 189.723 205.257 189.723 204.764 189.77 204.274 C 190.366 200.508 192.065 197.003 194.651 194.202 L 194.651 194.202 C 197.632 189.688 201.321 185.685 205.576 182.347 L 205.576 182.347 C 209.49 179.849 214.655 180.682 217.586 184.284 C 217.586 184.284 223.784 192.032 226.419 195.286 C 229.053 198.541 232.307 204.197 234.167 207.219 C 236.801 211.536 236.023 217.113 232.307 220.545 L 226.264 225.272 C 224.396 227.123 223.434 229.7 223.629 232.322 C 229.627 252.641 245.483 268.555 265.779 274.627 L 265.779 274.627 Z " fill-rule="evenodd" fill="rgb(85,0,0)"/></g></svg>