<?xml version="1.0" encoding="UTF-8" standalone="no"?><!-- Generator: Gravit.io --><svg xmlns="http://www.w3.org/2000/svg" xmlns:xlink="http://www.w3.org/1999/xlink" style="isolation:isolate" viewBox="0 0 512 512" width="512pt" height="512pt"><defs><clipPath id="_clipPath_eFiyFTJGM18p7DtgkVywAyf8ftSGeb60"><rect width="512" height="512"/></clipPath></defs><g clip-path="url(#_clipPath_eFiyFTJGM18p7DtgkVywAyf8ftSGeb60)"><g><path d=" M 209.421 491.994 C 203.101 491.994 196.824 490.336 191.283 487.146 L 133.544 452.962 C 124.92 448.139 129.128 446.434 131.972 445.451 C 143.471 441.424 145.804 440.515 158.077 433.546 C 159.368 432.81 161.056 433.068 162.376 433.848 L 206.733 460.17 C 208.335 461.035 210.608 461.035 212.093 460.17 L 385.045 360.338 C 386.647 359.428 387.687 357.567 387.687 355.662 L 387.687 156.086 C 387.687 154.094 386.647 152.319 385.011 151.323 L 212.128 51.578 C 210.525 50.626 208.404 50.626 206.803 51.578 L 33.955 151.323 C 32.279 152.275 31.213 154.136 31.213 156.042 L 31.213 355.619 C 31.213 357.524 32.253 359.342 33.897 360.251 L 81.26 387.612 C 106.975 400.47 122.691 385.318 122.691 370.079 L 122.691 173.099 C 122.691 170.284 124.899 168.12 127.712 168.12 L 149.617 168.12 C 152.345 168.12 154.596 170.284 154.596 173.099 L 154.596 370.166 C 154.596 404.452 135.895 424.151 103.381 424.151 C 93.381 424.151 85.503 424.151 63.509 413.327 L 18.14 387.179 C 6.927 380.686 0 368.563 0 355.619 L 0 156.042 C 0 143.054 6.927 130.932 18.14 124.526 L 191.265 24.65 C 202.219 18.459 216.764 18.459 227.631 24.65 L 400.54 124.568 C 411.709 131.019 418.679 143.098 418.679 156.086 L 418.679 355.662 C 418.679 368.607 411.709 380.686 400.54 387.179 L 227.631 487.054 C 222.089 490.258 215.812 491.903 209.404 491.903" fill="rgb(104,159,99)"/><path d=" M 262.844 354.472 C 187.169 354.472 171.303 319.734 171.303 290.599 C 171.303 287.828 173.537 285.62 176.312 285.62 L 198.651 285.62 C 201.119 285.62 203.196 287.416 203.587 289.854 C 206.963 312.616 217.007 324.098 262.767 324.098 C 299.219 324.098 314.717 315.864 314.717 296.534 C 314.717 285.408 310.301 277.139 253.675 271.598 C 206.313 266.922 177.048 256.488 177.048 218.608 C 177.048 183.714 206.487 162.934 255.796 162.934 C 311.167 162.934 338.615 182.156 342.077 223.456 C 342.208 224.886 341.688 226.271 340.736 227.31 C 339.784 228.306 338.441 228.911 337.056 228.911 L 314.588 228.911 C 312.249 228.911 310.215 227.266 309.739 225.015 C 304.327 201.075 291.253 193.411 255.709 193.411 C 215.924 193.411 211.292 207.266 211.292 217.655 C 211.292 230.254 216.747 233.934 270.429 241.034 C 323.592 248.09 348.832 258.047 348.832 295.408 C 348.832 333.072 317.401 354.675 262.593 354.675 M 473.253 143.019 L 479.055 143.019 C 483.817 143.019 484.725 139.686 484.725 137.738 C 484.725 132.63 481.219 132.63 479.271 132.63 L 473.297 132.63 L 473.253 143.019 Z  M 466.197 126.655 L 479.055 126.655 C 483.471 126.655 492.129 126.655 492.129 136.526 C 492.129 143.41 487.713 144.838 485.072 145.703 C 490.224 146.05 490.571 149.427 491.263 154.188 C 491.609 157.176 492.172 162.328 493.211 164.059 L 485.289 164.059 C 485.072 162.328 483.86 152.803 483.86 152.284 C 483.34 150.163 482.604 149.124 479.964 149.124 L 473.427 149.124 L 473.427 164.103 L 466.197 164.103 L 466.197 126.655 Z  M 450.741 145.271 C 450.741 160.77 463.253 173.324 478.621 173.324 C 494.12 173.324 506.632 160.51 506.632 145.271 C 506.632 129.728 493.947 117.391 478.579 117.391 C 463.427 117.391 450.699 129.555 450.699 145.227 M 512 145.358 C 512 163.714 496.977 178.692 478.665 178.692 C 460.483 178.692 445.329 163.887 445.329 145.358 C 445.329 126.482 460.828 112.022 478.665 112.022 C 496.631 112.022 511.957 126.526 511.957 145.358" fill="rgb(104,159,99)"/></g></g></svg>