<?xml version="1.0" encoding="UTF-8" standalone="no"?><!-- Generator: Gravit.io --><svg xmlns="http://www.w3.org/2000/svg" xmlns:xlink="http://www.w3.org/1999/xlink" style="isolation:isolate" viewBox="0 0 512 512" width="512pt" height="512pt"><defs><clipPath id="_clipPath_oPHVZX0gMJBuu1RMISntENOatvKDsX9L"><rect width="512" height="512"/></clipPath></defs><g clip-path="url(#_clipPath_oPHVZX0gMJBuu1RMISntENOatvKDsX9L)"><path d="M 477.714 383.995 L 256.005 512 L 34.286 383.995 L 34.286 127.985 L 256.005 0 L 477.714 127.985 L 477.714 383.995 Z" fill-rule="evenodd" fill="rgb(27,27,29)" /><path d=" M 260.688 270.35 L 257.487 270.781 C 244.557 272.556 231.83 279.19 221.299 289.73 L 221.299 289.73 C 208.867 302.144 201.87 317.621 201.87 332.888 L 201.87 332.888 C 201.882 345.696 206.753 358.397 217.63 369.299 L 217.63 369.299 C 227.526 379.176 239.24 383.992 251.015 384 L 251.015 384 C 261.683 384 272.441 380.019 281.945 372.053 L 281.945 372.053 L 270.226 360.329 C 263.339 365.688 255.534 368.889 247.695 368.897 L 247.695 368.897 C 240.434 368.906 233.209 366.089 227.044 359.895 L 227.044 359.895 C 219.821 352.7 216.703 344.447 216.721 336.219 L 216.721 336.219 C 216.737 323.715 223.691 311.386 233.329 301.752 L 233.329 301.752 C 242.968 292.113 255.291 285.157 267.787 285.135 L 267.787 285.135 C 276.012 285.127 284.268 288.239 291.472 295.459 L 291.472 295.459 C 298.184 302.154 301.138 309.398 301.123 316.572 L 301.123 316.572 C 301.123 322.176 299.352 327.671 296.457 332.893 L 296.457 332.893 L 308.617 345.057 C 314.3 337.575 316.919 329.401 316.919 321.122 L 316.919 321.122 C 316.927 308.987 311.225 296.552 300.865 286.065 L 300.865 286.065 C 295.441 280.63 289.529 276.697 283.401 274.11 L 283.401 274.11 L 283.094 273.98 L 245.699 236.59 L 269.338 212.967 L 311.393 255.018 L 320.367 246.118 C 321.129 245.233 320.927 245.589 321.011 244.888 L 321.011 244.888 C 320.993 244.568 320.978 244.523 320.793 244.256 L 320.793 244.256 L 248.133 171.597 L 271.764 147.958 L 313.823 190.026 C 316.258 187.594 321.858 181.997 322.81 181.113 L 322.81 181.113 C 323.563 180.248 323.367 180.596 323.444 179.895 L 323.444 179.895 C 323.428 179.575 323.42 179.53 323.228 179.247 L 323.228 179.247 L 273.522 129.55 C 272.554 128.566 271.349 128.013 269.856 128 L 269.856 128 C 268.368 128 267.036 128.611 266.068 129.615 L 266.068 129.615 L 191.317 204.321 C 191.018 204.714 191.002 204.775 190.981 205.079 L 190.981 205.079 C 191.054 205.722 190.87 205.386 191.665 206.289 L 191.665 206.289 L 201.353 216.075 C 202.227 216.851 201.89 216.653 202.563 216.735 L 202.563 216.735 C 202.858 216.716 202.941 216.698 203.223 216.498 L 203.223 216.498 L 203.953 215.776 L 204.008 215.71 L 204.053 215.656 L 204.143 215.565 C 204.217 215.492 204.306 215.393 204.434 215.262 L 204.434 215.262 C 204.685 215.016 205.049 214.651 205.504 214.196 L 205.504 214.196 C 206.422 213.275 207.729 211.954 209.305 210.385 L 209.305 210.385 C 212.454 207.24 216.647 203.041 220.845 198.856 L 220.845 198.856 C 229.225 190.484 237.618 182.12 237.618 182.12 L 237.618 182.12 L 238.737 181 L 258.009 200.231 L 188.888 269.309 C 188.604 269.694 188.577 269.768 188.556 270.076 L 188.556 270.076 C 188.637 270.733 188.437 270.387 189.24 271.298 L 189.24 271.298 L 198.92 281.075 C 199.785 281.834 199.449 281.65 200.142 281.724 L 200.142 281.724 C 200.449 281.707 200.515 281.687 200.789 281.498 L 200.789 281.498 L 201.576 280.716 L 201.617 280.666 L 201.707 280.568 C 201.781 280.502 201.871 280.404 201.999 280.273 L 201.999 280.273 C 202.249 280.027 202.613 279.662 203.068 279.199 L 203.068 279.199 C 203.987 278.277 205.293 276.964 206.869 275.386 L 206.869 275.386 C 210.018 272.242 214.212 268.052 218.409 263.858 L 218.409 263.858 C 226.79 255.486 235.181 247.115 235.181 247.115 L 235.181 247.115 L 236.301 245.992 L 258.403 268.074 L 257.271 269.205 L 258.403 268.074 L 260.688 270.35 L 260.688 270.35 Z " fill="rgb(237,29,36)"/></g></svg>