<?xml version="1.0" encoding="UTF-8" standalone="no"?><!-- Generator: Gravit.io --><svg xmlns="http://www.w3.org/2000/svg" xmlns:xlink="http://www.w3.org/1999/xlink" style="isolation:isolate" viewBox="0 0 512 512" width="512pt" height="512pt"><defs><clipPath id="_clipPath_IWBcyF5kaKidhbnoHVSaXXDDtCpl1exS"><rect width="512" height="512"/></clipPath></defs><g clip-path="url(#_clipPath_IWBcyF5kaKidhbnoHVSaXXDDtCpl1exS)"><circle vector-effect="non-scaling-stroke" cx="256" cy="256" r="256" fill="rgb(27,27,29)" /><path d=" M 258.587 239.4 L 258.587 181.198 L 208.492 181.198 L 212.002 203.186 L 232.759 203.186 L 232.759 224.474 C 227.922 227.108 223.226 228.312 216.64 228.312 C 196.015 228.312 185.642 212.52 185.642 190.028 C 185.642 167.661 195.664 152.42 216.306 152.42 C 228.627 152.42 239.179 156.922 248.173 162.639 L 252.168 136.833 C 242.631 131.45 230.332 128 215.603 128 C 178.689 128 155.996 153.091 155.996 190.188 C 155.996 227.108 176.969 252.054 214.913 252.054 C 231.377 252.054 246.109 247.557 258.587 239.4 Z  M 356.004 213.749 C 356.004 194.7 345.632 185.691 319.649 176.151 C 304.731 170.449 301.421 167.501 301.421 161.399 C 301.421 155.86 305.761 152.105 314.796 152.105 C 323.949 152.105 335.225 155.538 345.959 161.765 L 350.466 136.833 C 340.047 131.811 330.02 128.86 314.422 128.86 C 291.562 128.86 273.547 141.133 273.547 164.198 C 273.547 183.942 283.928 191.758 307.843 200.923 C 324.661 207.355 328.114 210.488 328.114 217.224 C 328.114 224.326 322.225 227.969 313.721 227.969 C 301.777 227.969 288.109 223.456 275.788 216.895 L 271.463 242.176 C 283.601 247.713 297.111 251.157 313.2 251.157 C 336.957 251.155 356.004 239.746 356.004 213.749 Z  M 214.861 340.084 C 228.656 331.014 247.391 319.216 247.391 296.753 C 247.391 272.089 226.495 260.858 207.08 260.858 C 178.117 260.858 166.438 283.883 164.794 287.476 L 187.142 297.932 C 188.535 295.438 194.753 285.491 205.147 285.491 C 211.863 285.491 218.416 291.006 218.416 299.581 C 218.416 306.487 210.636 311.699 200.949 318.301 C 185.595 328.765 166.49 341.783 166.49 368.543 C 166.49 372.052 166.885 375.949 167.734 380.782 L 247.418 380.782 L 247.418 356.816 L 198.266 356.816 C 198.266 351.563 205.887 345.981 214.861 340.084 Z  M 316.588 297.283 C 315.051 296.783 312.338 296.043 309.597 296.043 C 301.983 296.043 295.812 302.215 295.812 309.825 C 295.812 315.002 298.556 319.426 302.885 321.864 C 304.792 322.938 309.64 324.397 311.004 325.127 C 316.798 328.225 320.738 334.332 320.738 341.363 C 320.738 351.526 312.498 359.773 302.331 359.773 C 292.689 359.773 284.78 352.351 283.993 342.912 L 259.329 348.274 C 263.35 368.639 281.299 384 302.845 384 C 327.344 384 347.206 364.141 347.206 339.639 C 347.207 319.93 334.368 303.064 316.588 297.283 Z  M 309.597 318.996 C 304.542 318.996 300.43 314.883 300.43 309.826 C 300.43 304.774 304.543 300.661 309.597 300.661 C 314.655 300.661 318.766 304.774 318.766 309.826 C 318.766 314.883 314.655 318.996 309.597 318.996 Z  M 267.03 262.506 L 262.171 317.882 L 286.982 317.882 L 290.146 286.416 L 318.643 286.416 C 335.499 286.416 341.627 272.749 341.627 262.506 L 267.03 262.506 L 267.03 262.506 Z " fill-rule="evenodd" fill="rgb(102,0,51)"/></g></svg>