<?xml version="1.0" encoding="UTF-8" standalone="no"?><!-- Generator: Gravit.io --><svg xmlns="http://www.w3.org/2000/svg" xmlns:xlink="http://www.w3.org/1999/xlink" style="isolation:isolate" viewBox="0 0 512 512" width="512pt" height="512pt"><defs><clipPath id="_clipPath_dwDhiQ2bsbpL9l8mQhGKLIjL7BGS4HA7"><rect width="512" height="512"/></clipPath></defs><g clip-path="url(#_clipPath_dwDhiQ2bsbpL9l8mQhGKLIjL7BGS4HA7)"><circle vector-effect="non-scaling-stroke" cx="256" cy="256" r="256" fill="rgb(222,88,51)"/><path d=" M 472.747 164.267 C 460.8 136.107 443.733 110.933 422.4 89.6 C 400.64 67.84 375.467 51.2 347.733 39.253 C 318.72 26.88 288 20.907 256 20.907 C 224.427 20.907 193.28 27.307 164.267 39.253 C 136.107 50.773 110.933 67.84 89.6 89.6 C 67.84 111.36 51.2 136.533 39.253 164.267 C 26.88 193.28 20.907 224 20.907 256 C 20.907 288 27.307 318.72 39.253 347.733 C 51.2 375.893 68.267 401.067 89.6 422.4 C 111.36 444.16 136.533 460.8 164.267 472.747 C 193.28 485.12 224 491.093 256 491.093 C 287.573 491.093 318.72 484.693 347.733 472.747 C 375.467 460.8 400.64 443.733 422.4 422.4 C 444.16 400.64 460.8 375.467 472.747 347.733 C 485.12 318.72 491.093 288 491.093 256 C 491.093 224 485.12 193.28 472.747 164.267 L 472.747 164.267 Z  M 307.2 467.2 C 293.547 444.16 257.707 379.733 257.707 331.947 C 257.707 221.867 331.52 316.16 331.52 228.267 C 331.52 207.36 321.28 133.973 257.28 118.613 C 241.493 97.707 204.373 77.653 145.493 85.76 C 145.493 85.76 155.307 88.747 166.4 94.293 C 166.4 94.293 145.067 97.28 144.213 111.787 C 144.213 111.787 186.453 109.653 210.347 117.333 C 155.307 124.587 127.147 153.6 132.267 206.08 C 139.52 280.747 171.093 413.867 182.187 460.373 C 98.56 430.507 38.4 350.293 38.4 256 C 38.4 136.107 135.68 38.4 256 38.4 C 376.32 38.4 473.6 135.68 473.6 256 C 473.173 358.4 402.347 444.16 307.2 467.2 Z " fill="rgb(255,255,255)"/><path d=" M 244.053 291.413 C 244.053 263.253 282.453 254.293 296.96 254.293 C 336.213 254.293 391.68 229.12 405.333 229.547 C 419.413 229.973 428.373 235.52 428.373 241.92 C 428.373 251.307 349.867 286.72 319.573 283.733 C 290.56 281.173 283.733 284.16 283.733 296.107 C 283.733 306.347 304.64 315.733 327.68 315.733 C 362.24 315.733 395.947 300.373 406.187 307.627 C 415.147 314.027 382.72 337.067 345.6 337.067 C 308.48 337.067 244.053 319.573 244.053 291.413 L 244.053 291.413 Z " fill-rule="evenodd" fill="rgb(254,211,10)"/><path d=" M 312.32 171.947 C 302.08 158.72 283.733 158.293 277.333 173.653 C 287.147 165.973 299.093 164.267 312.32 171.947 Z " fill="rgb(45,79,141)"/><path d=" M 198.4 172.373 C 184.32 163.84 160.853 162.987 162.133 189.867 C 168.96 173.227 178.347 170.24 198.4 172.373 Z " fill="rgb(45,79,141)"/><path d=" M 303.787 197.12 C 296.107 197.12 289.707 203.52 289.707 211.2 C 289.707 218.88 296.107 225.28 303.787 225.28 C 311.467 225.28 317.867 218.88 317.867 211.2 C 317.867 203.52 311.467 197.12 303.787 197.12 Z  M 308.907 210.347 C 306.773 210.347 304.64 208.64 304.64 206.08 C 304.64 203.947 306.347 201.813 308.907 201.813 C 311.467 201.813 313.173 203.52 313.173 206.08 C 312.747 208.213 311.04 210.347 308.907 210.347 Z " fill="rgb(45,79,141)"/><path d=" M 194.56 204.8 C 185.6 204.8 178.347 212.053 178.347 221.013 C 178.347 229.973 185.6 237.227 194.56 237.227 C 203.52 237.227 210.773 229.973 210.773 221.013 C 210.773 212.053 203.52 204.8 194.56 204.8 Z  M 200.533 219.733 C 197.973 219.733 195.84 217.6 195.84 215.04 C 195.84 212.48 197.973 210.347 200.533 210.347 C 203.093 210.347 205.227 212.48 205.227 215.04 C 205.227 217.6 203.093 219.733 200.533 219.733 Z " fill="rgb(45,79,141)"/><path d=" M 159.147 135.68 C 138.667 150.613 129.28 173.653 132.267 206.08 C 139.52 280.747 171.093 414.293 182.187 460.8 C 186.027 462.08 189.867 463.36 193.707 464.64 C 186.88 436.48 154.027 299.093 139.52 193.707 C 135.68 165.547 146.773 148.907 159.147 135.68 Z " fill="rgb(213,215,216)"/><path d=" M 209.92 117.333 C 211.627 117.333 212.907 116.907 212.907 116.907 C 190.72 106.24 155.733 105.813 146.347 105.813 C 145.493 107.52 144.64 109.653 144.64 111.787 C 144.213 112.213 185.6 109.653 209.92 117.333 Z " fill="rgb(213,215,216)"/><path d=" M 169.813 94.293 C 162.987 89.6 157.44 86.613 154.027 84.907 C 151.04 85.333 148.48 85.333 145.493 85.76 C 145.493 85.76 155.307 88.747 166.4 94.293 C 166.4 94.293 165.973 94.293 165.547 94.293 C 168.533 94.293 169.813 94.293 169.813 94.293 Z " fill="rgb(213,215,216)"/><path d=" M 341.76 378.027 C 334.507 376.32 306.347 396.373 295.68 404.053 C 295.253 401.92 294.827 400.213 294.4 399.36 C 293.12 395.093 265.813 397.653 259.413 404.48 C 242.347 396.373 208.213 380.587 207.787 390.4 C 206.507 403.2 207.787 456.533 214.613 460.373 C 219.733 463.36 248.747 447.573 263.253 439.467 C 263.253 439.467 263.253 439.467 263.68 439.467 C 272.64 441.6 289.28 439.467 295.253 435.627 C 296.107 435.2 296.533 434.347 296.96 433.493 C 310.187 438.613 338.773 448.853 344.747 446.72 C 352.427 444.587 350.72 380.16 341.76 378.027 L 341.76 378.027 Z " fill="rgb(103,189,71)"/><path d=" M 263.68 439.467 C 254.72 437.76 257.707 428.8 257.707 407.893 C 257.707 407.893 257.707 407.893 257.707 407.893 C 255.573 409.173 253.867 410.88 253.867 412.587 C 253.867 433.493 250.453 442.88 259.84 444.16 C 268.8 446.293 285.44 444.16 292.267 440.32 C 293.547 439.467 293.973 438.187 294.4 436.053 C 288 439.893 272.213 441.6 263.68 439.467 L 263.68 439.467 Z " fill="rgb(67,163,71)"/></g></svg>