<?xml version="1.0" encoding="UTF-8" standalone="no"?><!-- Generator: Gravit.io --><svg xmlns="http://www.w3.org/2000/svg" xmlns:xlink="http://www.w3.org/1999/xlink" style="isolation:isolate" viewBox="0 0 512 512" width="512pt" height="512pt"><defs><clipPath id="_clipPath_iPtHMTTZpEZ9xvBOHPNrSMq6z6kDLh2U"><rect width="512" height="512"/></clipPath></defs><g clip-path="url(#_clipPath_iPtHMTTZpEZ9xvBOHPNrSMq6z6kDLh2U)"><circle vector-effect="non-scaling-stroke" cx="256" cy="256" r="256" fill="rgb(102,0,51)" /><path d=" M 177.513 351.078 C 216.108 351.078 221.497 303.745 247.857 261.51 C 246.838 276.656 247.712 289.91 250.624 299.231 C 262.13 335.495 301.598 338.262 319.512 301.415 C 344.853 249.568 352.135 237.334 377.622 199.905 C 394.516 175.292 375 159.271 352.28 170.777 C 340.629 176.602 321.842 191.458 298.248 222.624 C 302.326 198.885 301.307 158.689 266.936 161.019 C 248.877 162.184 225.429 182.574 193.388 235.004 C 196.01 205.585 197.029 184.758 184.213 173.835 C 175.475 166.408 154.794 163.495 142.414 179.515 C 129.889 195.681 126.977 227.285 128.287 260.491 C 131.055 330.106 155.668 351.078 177.513 351.078 Z " fill="rgb(255,255,255)"/></g></svg>