<?xml version="1.0" encoding="UTF-8" standalone="no"?><!-- Generator: Gravit.io --><svg xmlns="http://www.w3.org/2000/svg" xmlns:xlink="http://www.w3.org/1999/xlink" style="isolation:isolate" viewBox="0 0 512 512" width="512pt" height="512pt"><defs><clipPath id="_clipPath_bb97JAWd0E3VDxfGNsUIFxTUS4WSc9L1"><rect width="512" height="512"/></clipPath></defs><g clip-path="url(#_clipPath_bb97JAWd0E3VDxfGNsUIFxTUS4WSc9L1)"><rect x="0" y="0" width="512" height="512" transform="matrix(1,0,0,1,0,0)" fill="rgb(27,27,29)"/><path d=" M 151.757 179.807 L 360.137 179.807 C 373.324 179.807 384 190.482 384 203.67 L 384 283.212 C 384 296.399 373.325 307.075 360.137 307.075 L 285.41 307.075 L 295.667 332.193 L 250.558 307.075 L 151.863 307.075 C 138.676 307.075 128 296.4 128 283.212 L 128 203.67 C 127.896 190.587 138.571 179.807 151.758 179.807 L 151.757 179.807 Z  M 142.576 201.557 C 144.033 199.58 146.219 198.539 149.132 198.331 C 154.44 197.915 157.458 200.412 158.186 205.824 C 161.412 227.574 164.95 245.993 168.697 261.083 L 191.487 217.688 C 193.568 213.733 196.17 211.652 199.292 211.444 C 203.871 211.132 206.681 214.045 207.825 220.185 C 210.427 234.026 213.757 245.785 217.712 255.775 C 220.417 229.342 224.996 210.299 231.449 198.539 C 233.01 195.625 235.299 194.169 238.317 193.96 C 240.71 193.752 242.896 194.481 244.873 196.042 C 246.85 197.603 247.891 199.58 248.099 201.973 C 248.203 203.847 247.891 205.407 247.058 206.969 C 243 214.461 239.67 227.053 236.964 244.535 C 234.363 261.498 233.426 274.715 234.05 284.185 C 234.259 286.786 233.842 289.076 232.802 291.053 C 231.553 293.342 229.68 294.591 227.286 294.799 C 224.581 295.007 221.771 293.758 219.065 290.949 C 209.387 281.063 201.686 266.286 196.067 246.617 C 189.303 259.937 184.308 269.928 181.082 276.588 C 174.942 288.347 169.739 294.383 165.368 294.695 C 162.558 294.903 160.165 292.509 158.084 287.514 C 152.776 273.881 147.053 247.553 140.913 208.529 C 140.496 205.823 141.121 203.43 142.578 201.557 L 142.576 201.557 Z  M 366.216 217.895 C 362.47 211.339 356.955 207.384 349.566 205.823 C 347.589 205.407 345.716 205.199 343.947 205.199 C 333.957 205.199 325.84 210.402 319.492 220.809 C 314.08 229.654 311.375 239.437 311.375 250.155 C 311.375 258.168 313.04 265.036 316.37 270.76 C 320.116 277.316 325.632 281.271 333.02 282.832 C 334.997 283.248 336.87 283.456 338.639 283.456 C 348.733 283.456 356.85 278.253 363.094 267.846 C 368.506 258.896 371.211 249.114 371.211 238.396 C 371.316 230.279 369.546 223.515 366.216 217.895 Z  M 353.104 246.721 C 351.647 253.589 349.046 258.688 345.195 262.123 C 342.178 264.829 339.368 265.973 336.766 265.453 C 334.269 264.933 332.187 262.747 330.626 258.689 C 329.378 255.463 328.753 252.237 328.753 249.219 C 328.753 246.617 328.961 244.016 329.482 241.622 C 330.418 237.356 332.187 233.193 334.997 229.238 C 338.431 224.139 342.073 222.058 345.82 222.786 C 348.318 223.307 350.399 225.492 351.96 229.55 C 353.209 232.777 353.833 236.002 353.833 239.02 C 353.833 241.726 353.625 244.328 353.105 246.721 L 353.104 246.721 Z  M 301.071 217.895 C 297.325 211.339 291.705 207.384 284.421 205.823 C 282.444 205.407 280.571 205.199 278.802 205.199 C 268.812 205.199 260.695 210.402 254.347 220.809 C 248.935 229.654 246.23 239.437 246.23 250.155 C 246.23 258.168 247.895 265.036 251.225 270.76 C 254.971 277.316 260.487 281.271 267.875 282.832 C 269.852 283.248 271.725 283.456 273.494 283.456 C 283.588 283.456 291.705 278.253 297.949 267.846 C 303.361 258.896 306.066 249.114 306.066 238.396 C 306.066 230.279 304.401 223.515 301.071 217.895 L 301.071 217.895 Z  M 287.855 246.721 C 286.398 253.589 283.797 258.688 279.946 262.123 C 276.929 264.829 274.119 265.973 271.517 265.453 C 269.02 264.933 266.938 262.747 265.377 258.689 C 264.129 255.463 263.504 252.237 263.504 249.219 C 263.504 246.617 263.712 244.016 264.233 241.622 C 265.169 237.356 266.938 233.193 269.748 229.238 C 273.182 224.139 276.824 222.058 280.571 222.786 C 283.069 223.307 285.15 225.492 286.711 229.55 C 287.96 232.777 288.584 236.002 288.584 239.02 C 288.688 241.726 288.376 244.328 287.856 246.721 L 287.855 246.721 Z " fill-rule="evenodd" fill="rgb(237,29,36)"/></g></svg>