<?xml version="1.0" encoding="UTF-8" standalone="no"?><!-- Generator: Gravit.io --><svg xmlns="http://www.w3.org/2000/svg" xmlns:xlink="http://www.w3.org/1999/xlink" style="isolation:isolate" viewBox="0 0 512 512" width="512pt" height="512pt"><defs><clipPath id="_clipPath_OWbeawJo9cXj4DIBGxEBpJlEVNhwJaNY"><rect width="512" height="512"/></clipPath></defs><g clip-path="url(#_clipPath_OWbeawJo9cXj4DIBGxEBpJlEVNhwJaNY)"><circle vector-effect="non-scaling-stroke" cx="256" cy="256" r="256" fill="rgb(17,17,132)" /><path d=" M 309.534 382.906 C 313.566 384.485 318.164 384.384 322.234 382.415 L 374.94 356.922 C 380.478 354.244 384 348.61 384 342.429 L 384 169.572 C 384 163.391 380.478 157.757 374.94 155.078 L 322.234 129.585 C 316.893 127.002 310.642 127.634 305.955 131.06 C 305.285 131.549 304.647 132.095 304.049 132.698 L 203.149 225.227 L 159.199 191.693 C 155.108 188.571 149.385 188.827 145.585 192.301 L 131.489 205.19 C 126.841 209.44 126.836 216.79 131.478 221.047 L 169.593 256 L 131.478 290.953 C 126.836 295.21 126.841 302.56 131.489 306.81 L 145.585 319.699 C 149.385 323.173 155.108 323.429 159.199 320.307 L 203.149 286.773 L 304.049 379.302 C 305.645 380.908 307.519 382.117 309.534 382.906 Z  M 320.039 197.584 L 243.479 256 L 320.039 314.416 L 320.039 197.584 Z " fill-rule="evenodd" fill="rgb(255,255,255)"/></g></svg>