<?xml version="1.0" encoding="UTF-8" standalone="no"?><!-- Generator: Gravit.io --><svg xmlns="http://www.w3.org/2000/svg" xmlns:xlink="http://www.w3.org/1999/xlink" style="isolation:isolate" viewBox="0 0 512 512" width="512pt" height="512pt"><defs><clipPath id="_clipPath_6W633NWzakA7135YkHqFU5PyF9lv5RBt"><rect width="512" height="512"/></clipPath></defs><g clip-path="url(#_clipPath_6W633NWzakA7135YkHqFU5PyF9lv5RBt)"><path d="M 477.714 383.995 L 256.005 512 L 34.286 383.995 L 34.286 127.985 L 256.005 0 L 477.714 127.985 L 477.714 383.995 Z" fill-rule="evenodd" fill="rgb(237,29,36)" /><path d=" M 183.491 158.471 C 212.841 180.505 244.41 225.181 256.001 249.156 C 267.592 225.183 299.159 180.505 328.51 158.471 C 349.687 142.572 384 130.271 384 169.415 C 384 177.233 379.518 235.087 376.889 244.48 C 367.751 277.135 334.453 285.464 304.834 280.423 C 356.608 289.234 369.778 318.422 341.335 347.609 C 287.315 403.041 263.692 333.701 257.636 315.933 C 256.527 312.676 256.008 311.152 256 312.448 C 255.992 311.152 255.473 312.676 254.364 315.933 C 248.31 333.701 224.688 403.043 170.665 347.609 C 142.221 318.422 155.391 289.232 207.166 280.423 C 177.546 285.464 144.248 277.135 135.111 244.48 C 132.482 235.087 128 177.232 128 169.415 C 128 130.271 162.314 142.572 183.49 158.471 L 183.491 158.471 Z " fill="rgb(255,255,255)"/></g></svg>