<?xml version="1.0" encoding="UTF-8" standalone="no"?>
<svg
   xmlns:dc="http://purl.org/dc/elements/1.1/"
   xmlns:cc="http://creativecommons.org/ns#"
   xmlns:rdf="http://www.w3.org/1999/02/22-rdf-syntax-ns#"
   xmlns:svg="http://www.w3.org/2000/svg"
   xmlns="http://www.w3.org/2000/svg"
   xmlns:sodipodi="http://sodipodi.sourceforge.net/DTD/sodipodi-0.dtd"
   xmlns:inkscape="http://www.inkscape.org/namespaces/inkscape"
   inkscape:version="1.0 (4035a4f, 2020-05-01)"
   sodipodi:docname="AppleMusic_2019.svg"
   id="svg30"
   version="1.1"
   viewBox="0 0 299.79776 72.000008"
   height="72.000008pt"
   width="299.79776pt">
  <metadata
     id="metadata36">
    <rdf:RDF>
      <cc:Work
         rdf:about="">
        <dc:format>image/svg+xml</dc:format>
        <dc:type
           rdf:resource="http://purl.org/dc/dcmitype/StillImage" />
      </cc:Work>
    </rdf:RDF>
  </metadata>
  <defs
     id="defs34" />
  <sodipodi:namedview
     inkscape:current-layer="svg30"
     inkscape:window-maximized="0"
     inkscape:window-y="23"
     inkscape:window-x="0"
     inkscape:cy="28.838552"
     inkscape:cx="232.96151"
     inkscape:zoom="1.3919667"
     showgrid="false"
     id="namedview32"
     inkscape:window-height="683"
     inkscape:window-width="1076"
     inkscape:pageshadow="2"
     inkscape:pageopacity="0"
     guidetolerance="10"
     gridtolerance="10"
     objecttolerance="10"
     borderopacity="1"
     bordercolor="#666666"
     pagecolor="#ffffff" />
  <path
     style="stroke-width:0.072055"
     d="m 50.570663,69.100575 c -3.90537,3.790088 -8.214251,3.199237 -12.321373,1.412275 -4.366526,-1.822985 -8.358361,-1.938273 -12.96987,0 -5.742777,2.478689 -8.790687,1.758139 -12.249317,-1.412275 -19.52685,-20.103295 -16.64467,-50.726596 5.54822,-51.879473 5.382493,0.288223 9.150963,2.975863 12.321373,3.199233 4.712383,-0.958325 9.223015,-3.703618 14.266857,-3.343343 6.059807,0.489974 10.592056,2.882193 13.61836,7.183866 -12.465483,7.493701 -9.511238,23.922202 1.938274,28.53371 -2.291342,6.016578 -5.231182,11.961103 -10.15973,16.356448 z M 30.467367,17.004939 C 29.883723,8.07014 37.125231,0.72055 45.454769,0 46.600441,10.303841 36.087641,18.013705 30.467367,17.004939 Z"
     id="path38" />
  <g
     id="g106">
    <path
       id="path75"
       style="font-style:normal;font-variant:normal;font-weight:500;font-stretch:normal;font-size:89.13px;line-height:1.25;font-family:'SF Pro Display';-inkscape-font-specification:'SF Pro Display Medium';letter-spacing:0px;word-spacing:0px;stroke-width:2.18467"
       d="m 70.521,70.95975 h 9.357386 V 22.108687 h 0.321088 L 100.15272,70.95975 h 7.61435 l 19.95325,-48.851063 h 0.32108 V 70.95975 h 9.35739 V 4.77 h -11.83435 l -21.46693,52.841713 h -0.27523 L 82.401212,4.77 H 70.521 Z" />
    <path
       id="path77"
       style="font-style:normal;font-variant:normal;font-weight:500;font-stretch:normal;font-size:89.13px;line-height:1.25;font-family:'SF Pro Display';-inkscape-font-specification:'SF Pro Display Medium';letter-spacing:0px;word-spacing:0px;stroke-width:2.18477"
       d="m 163.28914,72.000005 c 7.33946,0 12.24773,-3.34863 14.77067,-8.211026 h 0.22936 v 7.247716 h 9.95414 V 22.77975 h -9.95414 v 28.165176 c 0,7.522946 -4.49542,12.522953 -11.46791,12.522953 -6.88074,0 -10.27524,-4.036704 -10.27524,-11.330291 V 22.77975 h -9.90827 v 31.284446 c 0,11.100929 6.05506,17.935809 16.65139,17.935809 z" />
    <path
       id="path79"
       style="font-style:normal;font-variant:normal;font-weight:500;font-stretch:normal;font-size:89.13px;line-height:1.25;font-family:'SF Pro Display';-inkscape-font-specification:'SF Pro Display Medium';letter-spacing:0px;word-spacing:0px;stroke-width:2.18061"
       d="m 214.18503,71.999993 c 11.3545,0 19.59568,-6.043531 19.59568,-14.834118 v -0.04578 c 0,-6.91343 -3.75431,-10.805097 -13.59794,-13.094312 l -7.82911,-1.785588 c -5.17363,-1.236177 -7.14235,-3.250686 -7.14235,-6.226666 v -0.04578 c 0,-3.845882 3.34224,-6.364019 8.65322,-6.364019 5.5857,0 8.88216,2.930196 9.47736,7.142352 l 0.0458,0.320491 h 9.29421 l -0.0458,-0.549411 C 232.13248,28.32177 225.26483,21.95775 213.86453,21.95775 c -11.0798,0 -18.58842,5.906177 -18.58842,14.513627 v 0.04578 c 0,7.004999 4.53265,11.400293 13.68951,13.506371 l 7.8749,1.785589 c 5.17362,1.236175 6.91343,3.021764 6.91343,6.135097 v 0.04578 c 0,3.891666 -3.57118,6.364019 -9.52313,6.364019 -6.08932,0 -9.38579,-2.609705 -10.30148,-7.050784 l -0.0915,-0.457843 H 194.04 l 0.0458,0.412059 c 1.00727,8.790588 8.05804,14.742548 20.09932,14.742548 z" />
    <path
       id="path81"
       style="font-style:normal;font-variant:normal;font-weight:500;font-stretch:normal;font-size:89.13px;line-height:1.25;font-family:'SF Pro Display';-inkscape-font-specification:'SF Pro Display Medium';letter-spacing:0px;word-spacing:0px;stroke-width:2.19111"
       d="m 245.20561,15.040942 c 3.26633,0 5.7966,-2.576268 5.7966,-5.704593 0,-3.17433 -2.53027,-5.750599 -5.7966,-5.750599 -3.22034,0 -5.79661,2.576269 -5.79661,5.750599 0,3.128325 2.57627,5.704593 5.79661,5.704593 z m -4.96852,55.849809 h 9.93703 V 22.493717 h -9.93703 z" />
    <path
       id="path83"
       style="font-style:normal;font-variant:normal;font-weight:500;font-stretch:normal;font-size:89.13px;line-height:1.25;font-family:'SF Pro Display';-inkscape-font-specification:'SF Pro Display Medium';letter-spacing:0px;word-spacing:0px;stroke-width:2.1812"
       d="m 279.05187,72.000005 c 11.58656,0 19.64677,-7.419061 20.70009,-17.082157 l 0.0458,-0.320576 h -9.52571 l -0.0458,0.366373 c -1.19071,5.220819 -5.08342,8.747162 -11.17438,8.747162 -7.64805,0 -12.73147,-6.182549 -12.73147,-16.71578 v -0.0458 c 0,-10.304248 4.99183,-16.715781 12.68568,-16.715781 6.45732,0 10.12106,3.984309 11.17438,8.701365 l 0.0915,0.366374 h 9.43412 l -0.0458,-0.320576 C 298.83594,29.91287 291.32529,21.94425 278.91439,21.94425 c -13.73899,0 -22.71514,9.663096 -22.71514,24.913384 v 0.0458 c 0,15.433474 8.79295,25.096571 22.85253,25.096571 z" />
  </g>
</svg>
