<?xml version="1.0" encoding="UTF-8" standalone="no"?><!-- Generator: Gravit.io --><svg xmlns="http://www.w3.org/2000/svg" xmlns:xlink="http://www.w3.org/1999/xlink" style="isolation:isolate" viewBox="0 0 512 512" width="512pt" height="512pt"><defs><clipPath id="_clipPath_jy1AVdg7rUpvdCG3XuTS4DQcNz57oBfM"><rect width="512" height="512"/></clipPath></defs><g clip-path="url(#_clipPath_jy1AVdg7rUpvdCG3XuTS4DQcNz57oBfM)"><path d=" M 93.552 177.991 C 87.551 185.092 77.95 190.693 68.349 189.892 C 67.149 180.291 71.85 170.09 77.35 163.789 C 83.351 156.489 93.852 151.288 102.353 150.888 C 103.353 160.889 99.453 170.69 93.552 177.991 Z  M 102.253 191.793 C 88.351 190.993 76.45 199.694 69.849 199.694 C 63.149 199.694 53.047 192.193 42.046 192.393 C 27.745 192.593 14.443 200.694 7.142 213.595 C -7.86 239.398 3.242 277.602 17.743 298.605 C 24.844 309.006 33.345 320.407 44.546 320.007 C 55.148 319.607 59.348 313.107 72.15 313.107 C 85.051 313.107 88.752 320.007 99.953 319.807 C 111.554 319.607 118.855 309.406 125.956 299.005 C 134.057 287.204 137.357 275.702 137.557 275.102 C 137.357 274.902 115.155 266.401 114.955 240.798 C 114.754 219.396 132.457 209.195 133.257 208.595 C 123.255 193.793 107.654 192.193 102.253 191.793 Z  M 182.562 162.789 L 182.562 318.707 L 206.765 318.707 L 206.765 265.401 L 240.269 265.401 C 270.872 265.401 292.375 244.399 292.375 213.995 C 292.375 183.592 271.272 162.789 241.069 162.789 L 182.562 162.789 L 182.562 162.789 Z  M 206.765 183.192 L 234.668 183.192 C 255.671 183.192 267.672 194.393 267.672 214.095 C 267.672 233.797 255.671 245.099 234.568 245.099 L 206.765 245.099 L 206.765 183.192 L 206.765 183.192 Z  M 336.58 319.907 C 351.782 319.907 365.883 312.206 372.284 300.005 L 372.784 300.005 L 372.784 318.707 L 395.187 318.707 L 395.187 241.098 C 395.187 218.596 377.185 204.094 349.481 204.094 C 323.778 204.094 304.776 218.796 304.076 238.998 L 325.879 238.998 C 327.679 229.397 336.58 223.096 348.781 223.096 C 363.583 223.096 371.884 229.997 371.884 242.698 L 371.884 251.299 L 341.68 253.1 C 313.577 254.8 298.376 266.301 298.376 286.303 C 298.376 306.506 314.077 319.907 336.58 319.907 Z  M 343.081 301.405 C 330.179 301.405 321.978 295.204 321.978 285.703 C 321.978 275.902 329.879 270.202 344.981 269.302 L 371.884 267.601 L 371.884 276.402 C 371.884 291.004 359.483 301.405 343.081 301.405 Z  M 425.09 361.112 C 448.693 361.112 459.794 352.111 469.495 324.808 L 512 205.594 L 487.397 205.594 L 458.894 297.705 L 458.394 297.705 L 429.891 205.594 L 404.588 205.594 L 445.592 319.107 L 443.392 326.008 C 439.692 337.709 433.691 342.21 422.99 342.21 C 421.09 342.21 417.389 342.01 415.889 341.81 L 415.889 360.512 C 417.289 360.912 423.29 361.112 425.09 361.112 Z " fill="rgb(0,0,0)"/></g></svg>