<?xml version="1.0" encoding="UTF-8" standalone="no"?>
<!-- Generator: Gravit.io --><svg xmlns="http://www.w3.org/2000/svg" xmlns:xlink="http://www.w3.org/1999/xlink"
  style="isolation:isolate" viewBox="0 0 512 512" width="512pt" height="512pt">
  <defs>
    <clipPath id="_clipPath_yZPUN1bDGDcLamuqSyhgr8Czv3ZtMjAH">
      <rect width="512" height="512" />
    </clipPath>
  </defs>
  <g clip-path="url(#_clipPath_yZPUN1bDGDcLamuqSyhgr8Czv3ZtMjAH)">
    <rect x="0" y="0" width="512" height="512" transform="matrix(1,0,0,1,0,0)" fill="rgb(27,27,29)" />
    <path
      d=" M 344.882 192.912 C 349.694 204.681 355.526 217.783 358.463 229.469 C 361.099 239.834 362.18 250.532 361.671 261.214 C 361.174 271.885 359.067 282.419 355.422 292.46 C 351.821 302.357 346.736 311.65 340.341 320.018 C 333.969 328.292 326.368 335.541 317.803 341.515 L 317.803 341.515 C 314.62 343.765 311.325 345.851 307.929 347.764 Q 302.846 350.638 297.514 352.951 C 289.923 356.323 281.969 358.811 273.809 360.366 C 265.802 361.894 257.642 362.468 249.5 362.074 L 246.98 361.907 L 241.231 383.321 L 245.168 383.633 C 255.548 384.427 265.988 383.931 276.246 382.154 C 286.655 380.314 296.804 377.223 306.471 372.948 Q 312.595 370.24 318.615 366.844 C 322.51 364.636 326.426 362.157 330.321 359.45 C 351.386 344.79 367.388 323.963 376.127 299.834 C 384.908 275.506 386.142 249.094 379.668 224.053 C 375.502 212.034 370.961 196.162 362.358 184.018 C 356.672 175.977 340.007 180.747 344.965 192.912 L 344.882 192.912 Z  M 244.897 221.22 C 244.72 217.135 246.799 213.283 250.31 211.187 C 253.821 209.092 258.199 209.092 261.71 211.187 C 265.221 213.283 267.3 217.135 267.123 221.22 L 267.123 244.883 L 290.723 244.883 C 296.867 244.883 301.847 249.864 301.847 256.007 C 301.847 262.15 296.867 267.13 290.723 267.13 L 267.102 267.13 L 267.102 290.793 C 267.279 294.878 265.2 298.731 261.689 300.826 C 258.178 302.922 253.8 302.922 250.289 300.826 C 246.778 298.731 244.699 294.878 244.876 290.793 L 244.876 267.13 L 221.192 267.13 C 215.049 267.13 210.069 262.15 210.069 256.007 C 210.069 249.864 215.049 244.883 221.192 244.883 L 244.897 244.883 L 244.897 221.22 Z  M 178.761 357.908 C 186.146 363.648 194.154 368.539 202.632 372.489 L 206.153 374.135 L 211.881 352.784 L 209.486 351.638 C 203.312 348.568 197.464 344.883 192.03 340.64 C 186.528 336.343 181.469 331.507 176.928 326.205 L 175.157 324.122 L 156.056 335.141 L 158.514 338.119 C 164.511 345.432 171.301 352.055 178.761 357.866 L 178.761 357.908 Z  M 129.435 272.858 C 130.764 282.225 133.161 291.408 136.58 300.229 L 137.934 303.812 L 157.035 292.793 L 156.119 290.21 C 153.77 283.648 152.095 276.864 151.119 269.963 C 150.149 263.064 149.89 256.084 150.349 249.133 L 150.494 246.446 L 129.102 240.822 L 128.748 244.675 C 127.892 254.065 128.122 263.522 129.435 272.858 L 129.435 272.858 Z  M 145.703 192.6 C 143.787 195.828 142.058 199.078 140.475 202.39 L 138.788 205.931 L 160.139 211.659 L 161.347 209.264 C 162.555 206.91 163.826 204.619 165.159 202.411 C 166.492 200.203 167.971 197.974 169.533 195.808 C 172.065 192.248 174.776 188.821 177.657 185.538 C 180.453 182.323 183.429 179.27 186.572 176.394 L 188.51 174.623 L 177.449 155.439 L 174.449 158.042 C 170.229 161.72 166.236 165.65 162.493 169.811 C 158.667 174.056 155.086 178.514 151.765 183.164 C 149.578 186.246 147.599 189.413 145.683 192.537 L 145.703 192.6 Z  M 233.315 129.651 C 226.085 130.862 218.991 132.773 212.131 135.358 L 208.506 136.712 L 219.546 155.834 L 222.088 154.939 C 232.602 151.296 243.688 149.581 254.812 149.877 C 257.332 149.877 259.978 150.106 262.707 150.419 C 265.435 150.731 267.935 151.106 270.497 151.627 C 273.059 152.147 275.809 152.793 278.413 153.564 C 281.016 154.335 283.62 155.23 286.307 156.272 L 286.307 156.272 C 289.954 157.733 294.104 157.122 297.175 154.672 C 300.245 152.222 301.762 148.311 301.147 144.431 C 300.532 140.551 297.88 137.301 294.202 135.921 C 291.036 134.692 287.786 133.588 284.474 132.609 C 281.162 131.63 277.975 130.859 274.788 130.213 C 271.601 129.568 268.393 129.068 265.227 128.713 C 262.061 128.359 258.707 128.13 255.312 128.026 C 247.945 127.87 240.58 128.414 233.315 129.651 L 233.315 129.651 Z "
      fill="rgb(239,191,4)" />
  </g>
</svg>
