<?xml version="1.0" encoding="UTF-8" standalone="no"?><!-- Generator: Gravit.io --><svg xmlns="http://www.w3.org/2000/svg" xmlns:xlink="http://www.w3.org/1999/xlink" style="isolation:isolate" viewBox="0 0 512 512" width="512pt" height="512pt"><defs><clipPath id="_clipPath_8KyAL5G2SqX0toG0enxEulIP2JQ12Nxm"><rect width="512" height="512"/></clipPath></defs><g clip-path="url(#_clipPath_8KyAL5G2SqX0toG0enxEulIP2JQ12Nxm)"><rect x="0" y="0" width="512" height="512" transform="matrix(1,0,0,1,0,0)" fill="rgb(0,0,128)"/><path d=" M 359.965 384 L 152.035 384 C 138.755 384 128 373.236 128 359.965 L 128 152.035 C 128 138.755 138.755 128 152.035 128 L 359.965 128 C 373.236 128 384 138.755 384 152.035 L 384 359.965 C 384 373.236 373.236 384 359.965 384 Z  M 264.209 291.205 L 250.947 291.205 L 250.947 220.798 L 264.209 220.798 L 264.209 291.205 Z  M 298.873 256.002 C 310.309 248.464 317.857 235.52 317.857 220.8 C 317.857 197.533 298.989 178.673 275.722 178.673 L 205.106 178.673 C 203.752 178.673 202.667 179.758 202.667 181.112 L 202.667 330.894 C 202.667 332.247 203.753 333.342 205.106 333.342 L 275.722 333.342 C 298.989 333.342 317.857 314.483 317.857 291.207 C 317.857 276.487 310.31 263.533 298.873 256.004" fill-rule="evenodd" fill="rgb(255,255,255)"/></g></svg>