<?xml version="1.0" encoding="UTF-8" standalone="no"?>
<!-- Generator: Gravit.io --><svg xmlns="http://www.w3.org/2000/svg" xmlns:xlink="http://www.w3.org/1999/xlink"
  style="isolation:isolate" viewBox="0 0 512 512" width="512pt" height="512pt">
  <defs>
    <clipPath id="_clipPath_jxjTO0M5dgbsTuuxInXQSEyx0fywI2kS">
      <rect width="512" height="512" />
    </clipPath>
  </defs>
  <g clip-path="url(#_clipPath_jxjTO0M5dgbsTuuxInXQSEyx0fywI2kS)">
    <circle vector-effect="non-scaling-stroke" cx="256" cy="256" r="256" fill="rgb(6,64,43)" />
    <circle vector-effect="non-scaling-stroke" cx="256" cy="256" r="128" fill="rgb(255,255,255)" />
    <path
      d=" M 311.823 179.692 L 315.508 179.692 L 315.508 155.412 L 311.788 155.412 L 305.393 159.953 L 305.393 163.655 L 311.737 159.146 L 311.823 159.146 L 311.823 179.692 Z  M 341.521 201.913 L 341.521 201.947 L 345.088 201.947 L 345.088 201.898 C 345.088 199.372 347.089 197.455 349.748 197.455 C 352.273 197.455 354.225 199.17 354.225 201.324 C 354.225 203.227 353.45 204.505 350.489 207.584 L 341.723 216.519 L 341.723 219.077 L 358.331 219.077 L 358.331 215.897 L 346.804 215.897 L 346.804 215.813 L 352.879 209.703 C 356.428 206.07 357.942 203.968 357.942 201.137 C 357.942 197.285 354.496 194.343 349.868 194.343 C 345.036 194.343 341.521 197.538 341.521 201.913 L 341.521 201.913 Z  M 357.63 254.858 L 360.657 254.858 C 363.855 254.858 365.839 256.473 365.839 259.099 C 365.839 261.472 363.722 263.153 360.758 263.153 C 357.696 263.153 355.778 261.553 355.54 259.232 L 351.926 259.232 C 352.162 263.424 355.527 266.302 360.761 266.302 C 365.826 266.302 369.679 263.39 369.679 259.148 C 369.679 255.751 367.323 253.511 363.673 253.26 L 363.673 253.191 C 366.683 252.655 368.67 250.484 368.67 247.456 C 368.67 243.719 365.322 241.11 360.726 241.11 C 355.914 241.11 352.702 243.852 352.414 248.111 L 355.966 248.111 C 356.185 245.723 357.935 244.207 360.559 244.207 C 363.436 244.207 364.985 245.703 364.985 247.958 C 364.985 250.247 363.183 251.897 360.559 251.897 L 357.63 251.897 L 357.63 254.858 Z  M 351.321 322.462 L 351.321 317.666 L 339.17 317.666 L 339.17 314.368 C 341.258 310.447 344.017 306.09 349.484 298.181 L 354.937 298.181 L 354.937 314.501 L 358.27 314.501 L 358.27 317.666 L 354.937 317.666 L 354.937 322.462 L 351.318 322.462 L 351.321 322.462 Z  M 342.688 314.469 L 342.688 314.553 L 351.353 314.553 L 351.353 301.09 L 351.286 301.09 C 347.077 307.166 344.623 310.951 342.688 314.469 L 342.688 314.469 Z  M 309.452 357.378 C 314.686 357.378 318.353 353.927 318.353 348.948 C 318.353 344.236 315.006 340.82 310.346 340.82 C 307.973 340.82 305.986 341.745 304.926 343.276 L 304.842 343.276 L 305.516 335.823 L 316.94 335.823 L 316.94 332.642 L 302.486 332.642 L 301.206 346.373 L 304.657 346.373 C 305.6 344.773 307.417 343.813 309.521 343.813 C 312.549 343.813 314.668 346.004 314.668 349.049 C 314.668 352.094 312.551 354.23 309.487 354.23 C 306.779 354.23 304.709 352.581 304.441 350.176 L 300.837 350.176 C 301.058 354.415 304.606 357.378 309.452 357.378 L 309.452 357.378 Z  M 257.937 374.624 C 254.353 374.624 251.476 372.79 249.893 369.509 C 248.901 367.574 248.396 365.184 248.396 362.341 C 248.396 354.213 252.032 349.401 258.105 349.401 C 262.398 349.401 265.728 351.975 266.469 355.845 L 262.7 355.845 C 262.11 353.861 260.293 352.564 258.073 352.564 C 254.252 352.564 252.032 356.032 252.015 362.139 L 252.081 362.139 C 253.14 359.783 255.717 358.201 258.745 358.201 C 263.372 358.201 266.806 361.617 266.806 366.228 C 266.806 371.092 263.087 374.624 257.937 374.624 L 257.937 374.624 Z  M 257.903 371.444 C 259.264 371.458 260.573 370.928 261.541 369.971 C 262.508 369.013 263.052 367.709 263.052 366.348 C 263.052 363.402 260.916 361.282 257.937 361.282 C 254.976 361.282 252.77 363.399 252.77 366.279 C 252.77 369.157 255.01 371.444 257.903 371.444 L 257.903 371.444 Z  M 200.694 356.923 L 204.65 356.923 L 215.2 335.906 L 215.2 332.642 L 198.676 332.642 L 198.676 335.823 L 211.481 335.823 L 211.481 335.906 L 200.694 356.923 Z  M 166.432 322.917 C 161.014 322.917 157.243 320.005 157.243 315.899 C 157.243 312.802 159.431 310.329 162.646 309.657 L 162.646 309.573 C 159.953 308.832 158.22 306.727 158.22 304.121 C 158.22 300.436 161.669 297.726 166.432 297.726 C 171.21 297.726 174.626 300.418 174.626 304.138 C 174.626 306.713 172.911 308.798 170.218 309.573 L 170.218 309.657 C 173.447 310.329 175.618 312.82 175.618 315.899 C 175.618 320.022 171.815 322.914 166.432 322.914 L 166.432 322.917 Z  M 166.432 319.889 C 169.529 319.889 171.714 318.102 171.714 315.631 C 171.714 313.122 169.529 311.338 166.432 311.338 C 163.335 311.338 161.13 313.14 161.13 315.631 C 161.13 318.102 163.335 319.889 166.432 319.889 Z  M 166.432 308.31 C 169.041 308.31 170.907 306.727 170.907 304.524 C 170.907 302.304 169.056 300.721 166.432 300.721 C 163.788 300.721 161.954 302.304 161.954 304.524 C 161.954 306.727 163.788 308.31 166.432 308.31 Z  M 146.166 266.302 C 141.841 266.302 138.494 263.71 137.772 259.855 L 141.556 259.855 C 142.129 261.841 143.98 263.17 146.218 263.17 C 150.004 263.17 152.224 259.67 152.224 253.546 L 152.158 253.546 C 151.18 255.934 148.623 257.516 145.494 257.516 C 140.884 257.516 137.433 254.102 137.433 249.492 C 137.433 244.628 141.169 241.093 146.302 241.093 C 149.903 241.093 152.798 242.927 154.361 246.193 C 155.355 248.128 155.86 250.516 155.86 253.361 C 155.86 261.487 152.258 266.302 146.166 266.302 Z  M 146.302 254.437 C 149.28 254.437 151.5 252.3 151.5 249.44 C 151.514 248.072 150.975 246.756 150.006 245.79 C 149.037 244.824 147.719 244.29 146.351 244.308 C 143.458 244.308 141.186 246.548 141.186 249.374 C 141.186 252.283 143.358 254.437 146.302 254.437 Z  M 158.602 219.077 L 162.289 219.077 L 162.289 194.796 L 158.57 194.796 L 152.172 199.335 L 152.172 203.038 L 158.516 198.528 L 158.599 198.528 L 158.599 219.077 L 158.602 219.077 Z  M 174.028 219.532 C 168.207 219.532 164.758 214.651 164.758 206.912 C 164.758 199.222 168.241 194.341 174.028 194.341 C 179.835 194.341 183.266 199.205 183.266 206.895 C 183.266 214.634 179.85 219.532 174.028 219.532 Z  M 174.028 216.367 C 177.494 216.367 179.463 212.783 179.463 206.912 C 179.463 201.122 177.462 197.504 174.028 197.504 C 170.597 197.504 168.576 201.14 168.576 206.912 C 168.576 212.768 170.562 216.367 174.028 216.367 Z  M 195.926 179.692 L 199.611 179.692 L 199.611 155.412 L 195.889 155.412 L 189.494 159.953 L 189.494 163.655 L 195.838 159.146 L 195.924 159.146 L 195.924 179.692 L 195.926 179.692 Z  M 208.642 179.692 L 212.327 179.692 L 212.327 155.412 L 208.61 155.412 L 202.213 159.953 L 202.213 163.655 L 208.559 159.146 L 208.642 159.146 L 208.642 179.692 Z  M 250.43 162.462 L 254.114 162.462 L 254.114 138.181 L 250.395 138.181 L 244 142.72 L 244 146.422 L 250.343 141.913 L 250.43 141.913 L 250.43 162.462 Z  M 256.802 145.297 L 256.802 145.332 L 260.369 145.332 L 260.369 145.282 C 260.369 142.757 262.37 140.839 265.029 140.839 C 267.554 140.839 269.506 142.555 269.506 144.709 C 269.506 146.612 268.731 147.889 265.77 150.969 L 257.004 159.904 L 257.004 162.462 L 273.612 162.462 L 273.612 159.281 L 262.085 159.281 L 262.085 159.198 L 268.16 153.088 C 271.71 149.455 273.226 147.353 273.226 144.522 C 273.226 140.67 269.775 137.728 265.147 137.728 C 260.318 137.728 256.802 140.923 256.802 145.297 Z "
      fill-rule="evenodd" fill="rgb(6,64,43)" />
    <path
      d=" M 256.609 258.303 L 190.013 219.311 C 189.43 218.969 189.233 218.22 189.571 217.635 L 189.575 217.629 C 189.738 217.347 190.006 217.141 190.321 217.058 C 190.636 216.974 190.971 217.02 191.252 217.185 L 257.848 256.176 C 258.43 256.519 258.628 257.267 258.29 257.853 L 258.286 257.859 C 258.123 258.141 257.855 258.347 257.54 258.43 C 257.225 258.513 256.89 258.468 256.609 258.303 L 256.609 258.303 Z "
      fill-rule="evenodd" fill="rgb(6,64,43)" />
    <path
      d=" M 256.609 256.17 L 356.223 199.701 C 356.811 199.367 357.558 199.571 357.896 200.156 L 357.901 200.164 C 358.064 200.446 358.107 200.782 358.022 201.096 C 357.936 201.41 357.729 201.677 357.446 201.837 L 257.831 258.307 C 257.243 258.64 256.496 258.436 256.158 257.851 L 256.153 257.843 C 255.991 257.561 255.947 257.225 256.033 256.911 C 256.118 256.597 256.326 256.33 256.609 256.17 L 256.609 256.17 Z "
      fill-rule="evenodd" fill="rgb(6,64,43)" />
    <circle vector-effect="non-scaling-stroke" cx="257.23076923076917" cy="257.23076923076917" r="6.153846153846146"
      fill="rgb(6,64,43)" />
    <circle vector-effect="non-scaling-stroke" cx="257.2307692307693" cy="257.2307692307693" r="3.692307692307679"
      fill="rgb(6,64,43)" />
    <path
      d="M 257.23 236.31 L 257.23 236.31 C 257.909 236.31 258.46 236.861 258.46 237.541 L 258.46 370.459 C 258.46 371.139 257.909 371.69 257.23 371.69 L 257.23 371.69 C 256.551 371.69 256 371.139 256 370.459 L 256 237.541 C 256 236.861 256.551 236.31 257.23 236.31 Z"
      style="stroke:none;fill:#1B1B1D;stroke-miterlimit:10;" />
  </g>
</svg>
