<?xml version="1.0" encoding="UTF-8" standalone="no"?><!-- Generator: Gravit.io --><svg xmlns="http://www.w3.org/2000/svg" xmlns:xlink="http://www.w3.org/1999/xlink" style="isolation:isolate" viewBox="0 0 512 512" width="512pt" height="512pt"><defs><clipPath id="_clipPath_wbXr8obSM1iwY8a8gloDgO2PqMx2JTq4"><rect width="512" height="512"/></clipPath></defs><g clip-path="url(#_clipPath_wbXr8obSM1iwY8a8gloDgO2PqMx2JTq4)"><circle vector-effect="non-scaling-stroke" cx="256" cy="256" r="256" fill="rgb(6,64,43)" /><path d=" M 274.794 173.755 C 249.697 173.805 226.58 187.394 214.327 209.297 C 209.148 206.775 203.463 205.46 197.702 205.452 C 179.053 205.501 163.181 219.043 160.198 237.452 C 140.695 245.618 128.001 264.694 128 285.837 C 128.028 314.8 151.522 338.259 180.484 338.245 C 182.685 338.226 184.883 338.067 187.064 337.771 L 332.895 337.771 C 333.661 337.826 334.428 337.864 335.196 337.882 C 335.927 337.862 336.658 337.825 337.388 337.771 L 340.88 337.771 L 340.88 337.512 C 365.456 334.605 383.983 313.686 384 288.822 L 384 288.728 C 383.943 265.195 367.263 245.017 344.25 240.642 C 342.873 203.287 312.175 173.724 274.794 173.755 L 274.794 173.755 Z " fill="rgb(255,255,255)"/></g></svg>