<?xml version="1.0" encoding="UTF-8" standalone="no"?><!-- Generator: Gravit.io --><svg xmlns="http://www.w3.org/2000/svg" xmlns:xlink="http://www.w3.org/1999/xlink" style="isolation:isolate" viewBox="0 0 512 512" width="512pt" height="512pt"><defs><clipPath id="_clipPath_UO4N8NoxKemdtBMTE1dF5qyFXUkUp6UJ"><rect width="512" height="512"/></clipPath></defs><g clip-path="url(#_clipPath_UO4N8NoxKemdtBMTE1dF5qyFXUkUp6UJ)"><rect x="0" y="0" width="512" height="512" transform="matrix(1,0,0,1,0,0)" fill="rgb(27,27,29)"/><path d=" M 271.871 170.773 L 271.871 171.646 C 273.775 172.757 274.728 173.709 276.712 174.899 C 281.869 178.153 288.218 183.866 287.345 203.705 C 288.774 207.99 289.408 216.481 290.758 219.259 C 293.455 224.576 295.201 227.988 295.995 233.067 C 295.995 233.067 296.789 240.844 297.74 241.399 C 303.057 242.589 301.55 243.145 302.264 244.018 C 302.978 244.89 306.152 245.049 306.152 247.906 C 307.138 249.289 307.964 250.78 308.612 252.35 L 308.612 149.347 C 308.612 137.632 299.139 128.123 287.424 128.08 L 267.03 128.08 C 270.284 129.27 272.109 130.619 273.22 132.762 C 275.839 133 279.013 138.872 274.093 147.601 C 276.236 149.03 274.569 151.172 272.982 153.711 C 272.506 154.505 272.03 155.933 270.601 155.854 C 268.776 159.742 266.554 163.551 264.808 163.789 C 264.332 164.424 263.935 166.091 264.729 166.884 C 267.305 167.783 269.717 169.096 271.871 170.773 M 308.771 266.395 C 304.874 276.118 293.832 280.84 284.11 276.941 C 274.388 273.044 269.666 262.003 273.563 252.28 C 275.836 246.611 280.7 242.383 286.631 240.922 C 284.409 235.447 279.807 226.559 278.457 223.623 C 277.108 220.687 274.014 202.673 273.379 199.102 C 273.22 198.308 265.205 203.784 265.205 204.102 C 265.205 204.419 259.174 219.099 258.937 219.893 C 258.698 220.687 258.777 222.353 258.777 222.353 C 258.777 222.353 261.475 222.67 263.062 227.432 C 264.65 232.193 269.332 249.572 269.332 249.572 C 269.332 249.572 268.062 250.921 267.983 250.842 C 274.014 270.918 271.871 279.568 274.569 285.441 C 277.981 293.773 278.854 292.662 281.79 299.645 C 283.854 304.723 286.155 324.721 286.949 325.595 C 290.202 329.72 291.948 332.895 291.948 335.196 C 291.948 337.498 289.171 344.401 290.202 348.448 C 290.836 350.829 291.155 356.067 292.186 357.098 C 293.218 358.13 293.218 359.081 292.662 359.955 C 292.448 360.285 292.338 360.672 292.344 361.065 C 294.169 367.335 299.883 378.127 290.52 383.762 L 290.758 383.762 C 301.114 382.153 308.738 373.213 308.692 362.732 L 308.692 266.395 L 308.771 266.395 L 308.771 266.395 Z  M 284.806 358.607 C 281.394 355.59 283.694 354.242 283.536 353.051 C 281.314 343.767 273.855 338.053 277.743 335.037 C 276.791 331.943 274.887 328.134 274.965 328.134 C 263.459 321.547 253.62 310.755 251.953 309.167 C 250.287 307.58 246.477 304.723 245.842 302.978 C 243.065 300.438 229.495 281.156 226.321 274.014 L 220.766 273.22 C 218.227 262.984 209.894 254.334 209.656 244.097 C 209.578 240.208 211.403 231.876 212.117 230.209 C 212.831 228.543 216.005 225.766 216.005 225.766 L 216.005 222.988 C 203.943 223.305 207.435 222.115 205.372 217.433 C 203.943 214.18 204.975 213.465 205.451 211.243 C 207.038 204.578 212.434 194.341 214.656 189.738 C 215.371 187.357 217.672 181.724 217.672 181.724 C 226.639 163.472 229.972 164.821 240.685 163.789 L 241.24 162.995 C 251.953 162.519 250.208 161.726 251.715 151.41 C 250.128 152.044 249.731 148.156 249.731 148.156 C 248.858 142.284 251.318 143.395 252.508 143.315 C 252.746 133.713 253.778 130.698 260.682 128 L 224.496 128 C 212.75 128 203.229 137.522 203.229 149.267 L 203.229 362.653 C 203.229 374.412 212.738 383.956 224.496 384 L 287.504 384 C 280.282 380.111 284.568 372.731 284.806 358.607 L 284.806 358.607 Z  M 236.412 370.665 L 236.412 332.018 L 243.89 332.018 C 248.236 332.018 250.899 334.354 250.899 339.775 L 250.899 345.523 C 250.899 349.028 249.825 350.803 248.329 351.693 C 249.825 352.72 250.899 354.449 250.899 357.393 L 250.899 363.001 C 250.899 368.281 248.049 370.665 243.89 370.665 L 236.412 370.665 L 236.412 370.665 Z  M 241.553 353.888 L 241.553 365.805 L 243.516 365.805 C 245.292 365.805 245.759 364.87 245.759 363.047 L 245.759 356.505 C 245.759 354.589 245.152 353.888 243.47 353.888 L 241.553 353.888 L 241.553 353.888 Z  M 241.553 336.878 L 241.553 349.636 L 243.47 349.636 C 245.292 349.636 245.759 348.98 245.759 346.879 L 245.759 339.448 C 245.759 337.672 245.199 336.831 243.516 336.831 L 241.553 336.831 L 241.553 336.878 Z  M 263.05 362.814 L 258.377 362.814 L 257.722 370.665 L 252.535 370.665 L 257.208 332.018 L 264.592 332.018 L 269.078 370.665 L 263.657 370.665 L 263.05 362.814 Z  M 260.76 336.364 L 260.48 336.364 C 260.152 341.037 259.499 349.169 259.312 351.785 L 258.704 358.422 L 262.723 358.422 L 262.114 351.785 C 261.929 349.122 261.181 341.037 260.76 336.364 Z  M 221.132 370.665 L 216.646 370.665 L 216.646 332.018 L 223.748 332.018 L 229.497 363.655 C 229.029 356.085 228.375 346.924 228.375 339.121 L 228.375 331.971 L 232.861 331.971 L 232.861 370.618 L 226.319 370.618 L 220.57 339.682 C 220.944 346.832 221.085 352.532 221.085 358.467 L 221.085 370.665 L 221.132 370.665 L 221.132 370.665 Z " fill-rule="evenodd" fill="rgb(237,29,36)"/></g></svg>