<?xml version="1.0" encoding="UTF-8" standalone="no"?>
<!-- Generator: Gravit.io -->
<svg xmlns="http://www.w3.org/2000/svg" xmlns:xlink="http://www.w3.org/1999/xlink" style="isolation:isolate" viewBox="0 0 256 256" width="256pt" height="256pt"><defs><clipPath id="_clipPath_f6ikMHr70wYvrsbRNEBWoetd9p4aS3I5"><rect width="256" height="256"/></clipPath></defs><g clip-path="url(#_clipPath_f6ikMHr70wYvrsbRNEBWoetd9p4aS3I5)"><path d=" M 72.143 107.055 C 72.143 110.205 72.484 112.759 73.08 114.633 C 73.761 116.506 74.612 118.549 75.804 120.763 C 76.23 121.444 76.4 122.125 76.4 122.721 C 76.4 123.573 75.89 124.424 74.783 125.275 L 69.419 128.851 C 68.652 129.362 67.886 129.618 67.205 129.618 C 66.354 129.618 65.502 129.192 64.651 128.426 C 63.459 127.149 62.437 125.786 61.586 124.424 C 60.734 122.977 59.883 121.359 58.946 119.401 C 52.305 127.234 43.961 131.15 33.914 131.15 C 26.762 131.15 21.058 129.107 16.886 125.02 C 12.714 120.933 10.585 115.484 10.585 108.673 C 10.585 101.435 13.139 95.561 18.333 91.133 C 23.527 86.706 30.423 84.492 39.193 84.492 C 42.088 84.492 45.068 84.747 48.218 85.173 C 51.368 85.599 54.604 86.28 58.01 87.046 L 58.01 80.831 C 58.01 74.36 56.647 69.847 54.008 67.208 C 51.283 64.569 46.686 63.291 40.13 63.291 C 37.15 63.291 34.084 63.632 30.934 64.398 C 27.784 65.165 24.719 66.101 21.739 67.293 C 20.376 67.889 19.355 68.23 18.759 68.4 C 18.163 68.57 17.737 68.655 17.396 68.655 C 16.204 68.655 15.608 67.804 15.608 66.016 L 15.608 61.844 C 15.608 60.482 15.779 59.46 16.204 58.864 C 16.63 58.268 17.396 57.672 18.588 57.076 C 21.568 55.543 25.144 54.266 29.316 53.245 C 33.488 52.138 37.916 51.627 42.599 51.627 C 52.731 51.627 60.138 53.926 64.906 58.523 C 69.589 63.121 71.973 70.103 71.973 79.469 L 71.973 107.055 L 72.143 107.055 Z  M 37.575 119.997 C 40.385 119.997 43.28 119.486 46.345 118.464 C 49.41 117.442 52.135 115.569 54.434 113.015 C 55.796 111.397 56.818 109.609 57.328 107.566 C 57.839 105.522 58.18 103.053 58.18 100.158 L 58.18 96.582 C 55.711 95.986 53.071 95.475 50.347 95.135 C 47.622 94.794 44.983 94.624 42.343 94.624 C 36.639 94.624 32.467 95.731 29.657 98.03 C 26.847 100.329 25.485 103.564 25.485 107.821 C 25.485 111.823 26.507 114.803 28.635 116.846 C 30.679 118.975 33.659 119.997 37.575 119.997 Z  M 105.945 129.192 C 104.412 129.192 103.391 128.937 102.71 128.341 C 102.028 127.83 101.432 126.638 100.922 125.02 L 80.913 59.205 C 80.402 57.502 80.147 56.395 80.147 55.799 C 80.147 54.437 80.828 53.67 82.19 53.67 L 90.534 53.67 C 92.152 53.67 93.259 53.926 93.855 54.522 C 94.536 55.033 95.047 56.225 95.558 57.842 L 109.862 114.207 L 123.144 57.842 C 123.57 56.139 124.08 55.033 124.762 54.522 C 125.443 54.011 126.635 53.67 128.167 53.67 L 134.979 53.67 C 136.596 53.67 137.703 53.926 138.384 54.522 C 139.066 55.033 139.662 56.225 140.002 57.842 L 153.455 114.888 L 168.185 57.842 C 168.695 56.139 169.291 55.033 169.887 54.522 C 170.569 54.011 171.675 53.67 173.208 53.67 L 181.126 53.67 C 182.489 53.67 183.255 54.351 183.255 55.799 C 183.255 56.225 183.17 56.65 183.085 57.161 C 182.999 57.672 182.829 58.353 182.489 59.29 L 161.969 125.105 C 161.458 126.808 160.862 127.915 160.181 128.426 C 159.5 128.937 158.393 129.277 156.946 129.277 L 149.623 129.277 C 148.006 129.277 146.899 129.022 146.218 128.426 C 145.536 127.83 144.94 126.723 144.6 125.02 L 131.403 70.103 L 118.291 124.935 C 117.865 126.638 117.354 127.745 116.673 128.341 C 115.992 128.937 114.8 129.192 113.267 129.192 L 105.945 129.192 Z  M 215.354 131.491 C 210.926 131.491 206.499 130.98 202.242 129.958 C 197.985 128.937 194.664 127.83 192.45 126.553 C 191.088 125.786 190.151 124.935 189.811 124.169 C 189.47 123.402 189.3 122.551 189.3 121.785 L 189.3 117.442 C 189.3 115.654 189.981 114.803 191.258 114.803 C 191.769 114.803 192.28 114.888 192.791 115.058 C 193.302 115.229 194.068 115.569 194.919 115.91 C 197.814 117.187 200.965 118.209 204.285 118.89 C 207.691 119.571 211.011 119.911 214.417 119.911 C 219.781 119.911 223.953 118.975 226.848 117.102 C 229.743 115.229 231.275 112.504 231.275 109.013 C 231.275 106.629 230.509 104.671 228.977 103.053 C 227.444 101.435 224.549 99.988 220.377 98.626 L 208.031 94.794 C 201.816 92.836 197.218 89.941 194.409 86.11 C 191.599 82.363 190.151 78.191 190.151 73.764 C 190.151 70.188 190.918 67.038 192.45 64.313 C 193.983 61.589 196.026 59.205 198.581 57.331 C 201.135 55.373 204.03 53.926 207.435 52.904 C 210.841 51.882 214.417 51.457 218.163 51.457 C 220.037 51.457 221.995 51.542 223.868 51.797 C 225.826 52.053 227.614 52.393 229.402 52.734 C 231.105 53.159 232.723 53.585 234.255 54.096 C 235.788 54.607 236.98 55.118 237.831 55.629 C 239.023 56.31 239.875 56.991 240.386 57.757 C 240.897 58.438 241.152 59.375 241.152 60.567 L 241.152 64.569 C 241.152 66.357 240.471 67.293 239.194 67.293 C 238.513 67.293 237.406 66.953 235.958 66.271 C 231.105 64.058 225.656 62.951 219.611 62.951 C 214.758 62.951 210.926 63.717 208.287 65.335 C 205.647 66.953 204.285 69.422 204.285 72.913 C 204.285 75.297 205.137 77.34 206.839 78.958 C 208.542 80.575 211.693 82.193 216.205 83.641 L 228.295 87.472 C 234.426 89.43 238.853 92.155 241.493 95.646 C 244.132 99.137 245.409 103.138 245.409 107.566 C 245.409 111.227 244.643 114.547 243.195 117.442 C 241.663 120.337 239.619 122.891 236.98 124.935 C 234.341 127.063 231.19 128.596 227.529 129.703 C 223.698 130.895 219.696 131.491 215.354 131.491 Z " fill="rgb(37,47,62)"/><path d=" M 231.446 172.87 C 203.434 193.56 162.735 204.543 127.742 204.543 C 78.699 204.543 34.51 186.408 1.134 156.267 C -1.505 153.883 0.879 150.648 4.029 152.521 C 40.13 173.466 84.659 186.153 130.722 186.153 C 161.799 186.153 195.941 179.682 227.359 166.399 C 232.042 164.271 236.043 169.465 231.446 172.87 Z  M 243.11 159.588 C 239.534 154.99 219.441 157.374 210.33 158.481 C 207.606 158.822 207.18 156.438 209.649 154.65 C 225.656 143.411 251.965 146.646 255.03 150.393 C 258.095 154.224 254.179 180.533 239.194 193.134 C 236.895 195.093 234.681 194.071 235.703 191.517 C 239.109 183.087 246.686 164.101 243.11 159.588 Z " fill="rgb(255,153,0)"/></g></svg>