<?xml version="1.0" encoding="UTF-8" standalone="no"?>
<!-- Generator: Gravit.io -->
<svg xmlns="http://www.w3.org/2000/svg" xmlns:xlink="http://www.w3.org/1999/xlink" style="isolation:isolate" viewBox="0 0 256 256" width="256pt" height="256pt"><defs><clipPath id="_clipPath_BhRQMhWf1hRL4BF1WERiMkg2reOCasaC"><rect width="256" height="256"/></clipPath></defs><g clip-path="url(#_clipPath_BhRQMhWf1hRL4BF1WERiMkg2reOCasaC)"><path d=" M 93.867 115.2 C 93.867 117.551 95.778 119.467 98.133 119.467 C 100.489 119.467 102.4 117.551 102.4 115.2 C 102.4 112.849 100.489 110.933 98.133 110.933 C 95.778 110.933 93.867 112.849 93.867 115.2 L 93.867 115.2 Z  M 102.4 192 C 102.4 189.649 100.489 187.733 98.133 187.733 C 95.778 187.733 93.867 189.649 93.867 192 C 93.867 194.351 95.778 196.267 98.133 196.267 C 100.489 196.267 102.4 194.351 102.4 192 L 102.4 192 Z  M 68.267 115.2 C 68.267 112.849 66.355 110.933 64 110.933 C 61.645 110.933 59.733 112.849 59.733 115.2 C 59.733 117.551 61.645 119.467 64 119.467 C 66.355 119.467 68.267 117.551 68.267 115.2 L 68.267 115.2 Z  M 68.267 166.4 C 68.267 164.049 66.355 162.133 64 162.133 C 61.645 162.133 59.733 164.049 59.733 166.4 C 59.733 168.751 61.645 170.667 64 170.667 C 66.355 170.667 68.267 168.751 68.267 166.4 L 68.267 166.4 Z  M 93.867 72.533 C 93.867 74.884 95.778 76.8 98.133 76.8 C 100.489 76.8 102.4 74.884 102.4 72.533 C 102.4 70.182 100.489 68.267 98.133 68.267 C 95.778 68.267 93.867 70.182 93.867 72.533 L 93.867 72.533 Z  M 68.267 76.8 L 68.267 103.185 C 71.885 104.474 74.726 107.319 76.011 110.933 L 86.123 110.933 C 87.889 105.975 92.578 102.4 98.133 102.4 C 105.19 102.4 110.933 108.143 110.933 115.2 C 110.933 120.755 107.354 125.444 102.4 127.215 L 102.4 179.985 C 107.354 181.756 110.933 186.445 110.933 192 C 110.933 197.555 107.354 202.244 102.4 204.015 L 102.4 217.6 C 102.4 219.955 100.493 221.867 98.133 221.867 C 95.774 221.867 93.867 219.955 93.867 217.6 L 93.867 204.011 C 89.51 202.462 86.263 198.647 85.534 193.963 L 69.517 177.95 C 69.504 177.941 69.504 177.924 69.491 177.911 C 67.823 178.714 65.975 179.2 64 179.2 C 56.943 179.2 51.2 173.457 51.2 166.4 C 51.2 159.343 56.943 153.6 64 153.6 C 71.057 153.6 76.8 159.343 76.8 166.4 C 76.8 168.371 76.314 170.223 75.511 171.891 C 75.524 171.904 75.537 171.908 75.55 171.917 L 87.953 184.324 C 89.451 182.345 91.49 180.834 93.867 179.985 L 93.867 127.211 C 90.249 125.926 87.407 123.081 86.123 119.467 L 76.011 119.467 C 74.244 124.425 69.555 128 64 128 C 56.943 128 51.2 122.257 51.2 115.2 C 51.2 109.645 54.78 104.956 59.733 103.185 L 59.733 72.533 C 59.733 70.178 61.641 68.267 64 68.267 L 86.123 68.267 C 87.407 64.653 90.249 61.807 93.867 60.518 L 93.867 46.933 C 93.867 44.578 95.774 42.667 98.133 42.667 C 100.493 42.667 102.4 44.578 102.4 46.933 L 102.4 60.518 C 107.354 62.289 110.933 66.978 110.933 72.533 C 110.933 79.59 105.19 85.333 98.133 85.333 C 92.578 85.333 87.889 81.758 86.123 76.8 L 68.267 76.8 Z  M 237.367 158.912 C 243.721 153.327 247.467 145.246 247.467 136.533 C 247.467 127.403 243.409 119.014 236.437 113.382 C 238.08 109.956 238.933 106.223 238.933 102.4 C 238.933 93.594 234.313 85.483 227.021 80.853 C 229.222 77.018 230.4 72.691 230.4 68.267 C 230.4 57.259 223.407 47.689 213.286 44.156 C 213.316 43.657 213.333 43.162 213.333 42.667 C 213.333 28.548 201.852 17.067 187.733 17.067 C 184.29 17.067 180.937 17.766 177.805 19.115 C 174.135 8.004 163.584 0 151.467 0 C 133.513 0 125.53 16.196 123.819 24.764 C 123.789 24.905 123.827 25.041 123.819 25.186 C 123.806 25.331 123.733 25.451 123.733 25.6 L 123.733 225.877 C 122.769 237.99 112.482 247.467 100.267 247.467 C 88.094 247.467 77.837 237.956 76.911 225.809 C 76.74 223.586 74.761 221.867 72.533 221.867 C 71.202 221.867 69.948 222.49 69.137 223.548 C 65.826 227.904 60.843 230.4 55.467 230.4 C 46.054 230.4 38.4 222.746 38.4 213.333 C 38.4 209.459 39.748 205.756 42.308 202.62 C 43.46 201.207 43.588 199.215 42.62 197.666 C 41.655 196.117 39.829 195.349 38.029 195.772 C 36.599 196.105 35.324 196.267 34.133 196.267 C 24.721 196.267 17.067 188.612 17.067 179.2 C 17.067 172.164 21.534 165.764 28.177 163.273 C 29.76 162.679 30.844 161.212 30.942 159.531 C 31.04 157.845 30.135 156.258 28.642 155.486 C 21.5 151.804 17.067 144.538 17.067 136.533 C 17.067 129.007 20.937 122.18 27.422 118.272 C 28.433 117.662 29.146 116.659 29.393 115.503 C 29.636 114.342 29.389 113.139 28.71 112.171 C 26.675 109.265 25.6 105.89 25.6 102.4 C 25.6 95.313 30.114 88.9 36.826 86.438 C 38.153 85.952 39.155 84.838 39.501 83.469 C 39.842 82.095 39.479 80.64 38.537 79.586 C 35.695 76.416 34.133 72.397 34.133 68.267 C 34.133 59.998 40.06 52.954 48.218 51.511 C 49.361 51.307 50.381 50.645 51.025 49.677 C 51.669 48.708 51.891 47.518 51.644 46.383 C 51.345 45.052 51.2 43.836 51.2 42.667 C 51.2 33.254 58.854 25.6 68.267 25.6 C 71.962 25.6 75.524 26.833 78.575 29.167 C 79.817 30.114 81.476 30.31 82.897 29.679 C 84.326 29.043 85.291 27.682 85.423 26.129 C 86.234 16.265 94.63 8.533 104.533 8.533 C 109.286 8.533 113.216 10.061 116.544 13.201 C 118.263 14.818 120.964 14.737 122.577 13.022 C 124.194 11.307 124.117 8.61 122.402 6.993 C 117.483 2.351 111.471 0 104.533 0 C 92.416 0 81.865 8.004 78.195 19.115 C 75.063 17.766 71.71 17.067 68.267 17.067 C 54.148 17.067 42.667 28.548 42.667 42.667 C 42.667 43.162 42.684 43.657 42.714 44.156 C 32.593 47.689 25.6 57.259 25.6 68.267 C 25.6 72.691 26.778 77.018 28.979 80.853 C 21.687 85.483 17.067 93.594 17.067 102.4 C 17.067 106.223 17.92 109.956 19.563 113.382 C 12.591 119.014 8.533 127.403 8.533 136.533 C 8.533 145.246 12.279 153.327 18.633 158.912 C 12.399 163.678 8.533 171.162 8.533 179.2 C 8.533 192.397 18.573 203.294 31.415 204.655 C 30.391 207.42 29.867 210.338 29.867 213.333 C 29.867 227.452 41.348 238.933 55.467 238.933 C 60.766 238.933 65.809 237.325 70.042 234.377 C 74.394 246.98 86.421 256 100.267 256 C 116.941 256 130.991 243.021 132.254 226.458 C 132.258 226.402 132.233 226.351 132.233 226.295 C 132.237 226.236 132.267 226.193 132.267 226.133 L 132.267 26.069 C 132.898 23.45 137.109 8.533 151.467 8.533 C 161.37 8.533 169.766 16.265 170.577 26.129 C 170.709 27.682 171.674 29.043 173.103 29.679 C 174.524 30.31 176.183 30.114 177.425 29.167 C 180.476 26.833 184.038 25.6 187.733 25.6 C 197.146 25.6 204.8 33.254 204.8 42.667 C 204.8 43.836 204.655 45.052 204.356 46.383 C 204.109 47.518 204.331 48.708 204.975 49.677 C 205.619 50.645 206.639 51.307 207.782 51.511 C 215.94 52.954 221.867 59.998 221.867 68.267 C 221.867 72.397 220.305 76.416 217.463 79.586 C 216.521 80.64 216.158 82.095 216.499 83.469 C 216.845 84.838 217.847 85.952 219.174 86.438 C 225.886 88.9 230.4 95.313 230.4 102.4 C 230.4 105.89 229.325 109.265 227.29 112.171 C 226.611 113.139 226.364 114.342 226.607 115.503 C 226.854 116.659 227.567 117.662 228.578 118.272 C 235.063 122.18 238.933 129.007 238.933 136.533 C 238.933 144.538 234.5 151.804 227.358 155.486 C 225.865 156.258 224.96 157.845 225.058 159.531 C 225.156 161.212 226.24 162.679 227.823 163.273 C 234.466 165.764 238.933 172.164 238.933 179.2 C 238.933 188.612 231.279 196.267 221.867 196.267 C 220.676 196.267 219.401 196.105 217.971 195.772 C 216.179 195.349 214.349 196.117 213.38 197.666 C 212.412 199.215 212.54 201.207 213.692 202.62 C 216.252 205.756 217.6 209.459 217.6 213.333 C 217.6 222.746 209.946 230.4 200.533 230.4 C 195.14 230.4 190.165 227.874 186.889 223.467 C 185.788 221.995 183.872 221.393 182.127 221.965 C 181.495 222.174 180.941 222.519 180.493 222.959 C 179.699 223.667 179.174 224.674 179.089 225.809 C 178.163 237.956 167.906 247.467 155.733 247.467 C 150.37 247.467 145.31 245.705 141.099 242.372 C 139.243 240.909 136.567 241.225 135.104 243.068 C 133.641 244.915 133.956 247.599 135.799 249.062 C 141.453 253.534 148.535 256 155.733 256 C 169.587 256 181.623 246.963 185.967 234.347 C 190.187 237.316 195.221 238.933 200.533 238.933 C 214.652 238.933 226.133 227.452 226.133 213.333 C 226.133 210.338 225.609 207.42 224.585 204.655 C 237.427 203.294 247.467 192.397 247.467 179.2 C 247.467 171.162 243.601 163.678 237.367 158.912 L 237.367 158.912 Z  M 162.133 192 C 162.133 194.355 164.041 196.267 166.4 196.267 C 172.621 196.267 179.2 202.846 179.2 209.067 C 179.2 211.422 181.107 213.333 183.467 213.333 C 185.826 213.333 187.733 211.422 187.733 209.067 C 187.733 198.101 177.365 187.733 166.4 187.733 C 164.041 187.733 162.133 189.645 162.133 192 L 162.133 192 Z  M 200.533 76.8 C 194.313 76.8 187.733 70.221 187.733 64 C 187.733 61.645 185.826 59.733 183.467 59.733 C 181.107 59.733 179.2 61.645 179.2 64 C 179.2 74.965 189.568 85.333 200.533 85.333 C 202.893 85.333 204.8 83.422 204.8 81.067 C 204.8 78.711 202.893 76.8 200.533 76.8 L 200.533 76.8 Z  M 149.333 170.667 C 151.693 170.667 153.6 168.755 153.6 166.4 C 153.6 160.179 160.179 153.6 166.4 153.6 C 168.759 153.6 170.667 151.689 170.667 149.333 C 170.667 146.978 168.759 145.067 166.4 145.067 C 155.435 145.067 145.067 155.435 145.067 166.4 C 145.067 168.755 146.974 170.667 149.333 170.667 L 149.333 170.667 Z  M 166.4 119.467 C 168.759 119.467 170.667 117.555 170.667 115.2 C 170.667 112.845 168.759 110.933 166.4 110.933 C 160.179 110.933 153.6 104.354 153.6 98.133 C 153.6 95.778 151.693 93.867 149.333 93.867 C 146.974 93.867 145.067 95.778 145.067 98.133 C 145.067 109.099 155.435 119.467 166.4 119.467 L 166.4 119.467 Z  M 209.067 102.4 C 206.707 102.4 204.8 104.311 204.8 106.667 C 204.8 112.887 198.221 119.467 192 119.467 C 189.641 119.467 187.733 121.378 187.733 123.733 C 187.733 126.089 189.641 128 192 128 C 202.965 128 213.333 117.632 213.333 106.667 C 213.333 104.311 211.426 102.4 209.067 102.4 L 209.067 102.4 Z  M 192 153.6 C 189.641 153.6 187.733 155.511 187.733 157.867 C 187.733 160.222 189.641 162.133 192 162.133 C 198.221 162.133 204.8 168.713 204.8 174.933 C 204.8 177.289 206.707 179.2 209.067 179.2 C 211.426 179.2 213.333 177.289 213.333 174.933 C 213.333 163.968 202.965 153.6 192 153.6 L 192 153.6 Z  M 145.067 59.733 C 145.067 48.768 155.435 38.4 166.4 38.4 C 168.759 38.4 170.667 40.311 170.667 42.667 C 170.667 45.022 168.759 46.933 166.4 46.933 C 160.179 46.933 153.6 53.513 153.6 59.733 C 153.6 62.089 151.693 64 149.333 64 C 146.974 64 145.067 62.089 145.067 59.733 L 145.067 59.733 Z " fill-rule="evenodd" fill="rgb(0,0,0)"/></g></svg>