<?xml version="1.0" encoding="UTF-8" standalone="no"?>
<!-- Generator: Gravit.io -->
<svg xmlns="http://www.w3.org/2000/svg" xmlns:xlink="http://www.w3.org/1999/xlink" style="isolation:isolate" viewBox="0 0 256 256" width="256pt" height="256pt"><defs><clipPath id="_clipPath_7O5QqVkUhwfuYlh55Y9Ex3zBzXViUTxv"><rect width="256" height="256"/></clipPath></defs><g clip-path="url(#_clipPath_7O5QqVkUhwfuYlh55Y9Ex3zBzXViUTxv)"><path d=" M 49.067 153.92 L 56.8 157.387 C 47.728 168.181 42.699 181.872 42.699 195.973 C 42.699 196.107 42.731 213.333 42.731 213.333 L 68.331 213.333 L 68.331 196.267 C 68.331 183.067 75.797 170.933 87.6 164.997 L 107.936 152.533 C 115.003 149 119.536 141.733 119.536 133.797 L 119.536 102.464 L 111.339 107.264 C 108.587 108.693 106.613 111.147 105.867 114.08 L 101.867 127.467 C 100.667 131.533 97.6 134.869 93.664 136.4 L 88.053 138.667 C 86.4 139.36 84.64 139.68 82.88 139.68 C 80.946 139.68 79.006 139.279 77.195 138.478 L 59.467 130.613 C 54.464 128.32 51.2 123.307 51.2 117.813 L 51.2 57.867 C 51.2 55.133 52.333 52.469 54.267 50.464 L 58.2 46.531 L 52 34.133 C 51.467 33.131 51.2 32 51.2 30.869 C 51.2 27.936 53.536 25.6 56.469 25.6 L 112.469 25.6 C 158.736 25.6 195.723 63.136 195.723 109.387 L 195.723 213.333 L 221.355 213.333 L 221.321 109.387 C 221.813 49.067 172.8 0 112.48 0 L 56.469 0 C 39.403 0 25.6 13.803 25.6 30.869 C 25.6 35.403 26.533 39.872 28.333 44 C 26.533 48.427 25.6 53.12 25.6 57.867 L 25.6 117.813 C 25.6 133.44 34.8 147.627 49.067 153.92 Z  M 68.331 70.4 C 68.331 76.267 73.064 81.067 78.997 81.067 C 84.864 81.067 89.664 76.267 89.664 70.4 C 89.664 64.533 84.864 59.733 78.997 59.733 C 73.067 59.733 68.331 64.533 68.331 70.4 Z  M 217.6 230.4 L 37.92 230.4 C 31.333 230.4 25.6 236.107 25.6 242.72 C 25.6 249.333 31.333 256 37.92 256 L 217.6 256 C 224.693 256 230.4 250.293 230.4 243.2 C 230.4 236.107 224.693 230.4 217.6 230.4 Z " fill="rgb(255,255,255)"/></g></svg>