<?xml version="1.0" encoding="UTF-8" standalone="no"?>
<!-- Generator: Gravit.io -->
<svg xmlns="http://www.w3.org/2000/svg" xmlns:xlink="http://www.w3.org/1999/xlink" style="isolation:isolate" viewBox="0 0 256 256" width="256pt" height="256pt"><defs><clipPath id="_clipPath_L08UcK3vsQ0vxenQXD0IAdOOV4mREpL8"><rect width="256" height="256"/></clipPath></defs><g clip-path="url(#_clipPath_L08UcK3vsQ0vxenQXD0IAdOOV4mREpL8)"><path d=" M 178.589 96.522 L 129.967 68.45 C 128.75 67.748 127.251 67.748 126.034 68.45 L 77.411 96.522 C 76.196 97.224 75.445 98.522 75.445 99.928 L 75.445 156.071 C 75.445 157.475 76.196 158.774 77.411 159.478 L 126.034 187.55 C 127.251 188.253 128.75 188.253 129.967 187.55 L 178.589 159.478 C 179.806 158.775 180.555 157.476 180.555 156.071 L 180.555 99.928 C 180.554 98.522 179.804 97.224 178.589 96.522 Z " fill="#ffffff"/><path d=" M 1.583 122.977 L 59.677 21.911 C 61.787 18.257 65.685 15.562 69.905 15.562 L 186.094 15.562 C 190.314 15.562 194.213 18.257 196.324 21.911 L 254.417 122.755 C 256.528 126.41 256.528 131.023 254.417 134.678 L 196.324 234.916 C 194.213 238.57 190.314 240.438 186.094 240.438 L 69.906 240.438 C 65.686 240.438 61.787 238.626 59.678 234.971 L 1.584 134.57 C -0.528 130.916 -0.528 126.632 1.583 122.977 Z  M 49.688 171.577 C 49.688 173.063 50.583 174.437 51.871 175.181 L 125.869 217.874 C 127.156 218.617 128.768 218.617 130.055 217.874 L 204.111 175.181 C 205.398 174.437 206.299 173.064 206.299 171.577 L 206.299 86.189 C 206.299 84.702 205.411 83.329 204.123 82.585 L 130.128 39.891 C 128.84 39.147 127.23 39.147 125.943 39.891 L 51.883 82.585 C 50.595 83.329 49.688 84.702 49.688 86.189 L 49.688 171.577 L 49.688 171.577 Z " fill="#ffffff"/></g></svg>
