<?xml version="1.0" encoding="UTF-8" standalone="no"?>
<!-- Generator: Gravit.io -->
<svg xmlns="http://www.w3.org/2000/svg" xmlns:xlink="http://www.w3.org/1999/xlink" style="isolation:isolate" viewBox="0 0 256 256" width="256pt" height="256pt"><defs><clipPath id="_clipPath_3O998oy1SHyBV3RPTMbJGUEVHsLCiKKM"><rect width="256" height="256"/></clipPath></defs><g clip-path="url(#_clipPath_3O998oy1SHyBV3RPTMbJGUEVHsLCiKKM)"><g><path d=" M 178.588 97.409 L 129.967 69.337 C 128.75 68.634 127.249 68.634 126.032 69.337 L 77.411 97.409 C 76.194 98.11 75.443 99.408 75.441 100.813 L 75.441 156.955 C 75.441 158.359 76.194 159.658 77.411 160.363 L 126.032 188.435 C 127.249 189.136 128.746 189.136 129.967 188.435 L 178.588 160.363 C 179.805 159.662 180.553 158.363 180.553 156.955 L 180.553 100.813 C 180.553 99.405 179.805 98.11 178.588 97.405 L 178.588 97.409 Z " fill="rgb(128,128,242)"/><path d=" M 1.58 122.979 L 59.676 21.911 C 61.786 18.255 65.686 15.56 69.905 15.56 L 186.094 15.56 C 190.316 15.56 194.213 18.255 196.326 21.911 L 254.419 122.758 C 256.527 126.451 256.527 130.983 254.419 134.677 L 196.326 234.919 C 194.213 238.571 190.316 240.44 186.094 240.44 L 69.905 240.44 C 65.686 240.44 61.786 238.629 59.676 234.973 L 1.584 134.568 C -0.528 130.992 -0.528 126.551 1.584 122.975 L 1.58 122.979 Z  M 49.685 171.576 C 49.685 173.065 50.58 174.438 51.868 175.182 L 125.869 217.874 C 127.156 218.619 128.769 218.619 130.056 217.874 L 204.111 175.182 C 205.399 174.438 206.298 173.065 206.298 171.576 L 206.298 86.188 C 206.298 84.703 205.41 83.326 204.127 82.582 L 130.122 39.897 C 128.827 39.154 127.234 39.154 125.939 39.897 L 51.875 82.586 C 50.588 83.33 49.681 84.707 49.681 86.192 L 49.681 171.58 L 49.685 171.576 Z " fill="rgb(75,50,195)"/></g></g></svg>