<?xml version="1.0" encoding="UTF-8" standalone="no"?>
<!-- Generator: Gravit.io -->
<svg xmlns="http://www.w3.org/2000/svg" xmlns:xlink="http://www.w3.org/1999/xlink" style="isolation:isolate" viewBox="0 0 725.669 725.669" width="725.669pt" height="725.669pt"><defs><clipPath id="_clipPath_bJMEiti7huqI1PQ9xrMEPgYq51WNjca9"><rect width="725.669" height="725.669"/></clipPath></defs><g clip-path="url(#_clipPath_bJMEiti7huqI1PQ9xrMEPgYq51WNjca9)"><path d=" M 362.835 0 C 266.609 -0.005 174.323 38.216 106.279 106.254 C 38.234 174.292 0.004 266.574 0 362.799 C -0.014 459.036 38.207 551.336 106.254 619.39 C 174.3 687.443 266.597 725.674 362.835 725.669 C 459.072 725.674 551.369 687.443 619.416 619.39 C 687.462 551.336 725.684 459.036 725.669 362.799 C 725.665 266.574 687.435 174.292 619.391 106.254 C 551.346 38.216 459.06 -0.005 362.835 0 L 362.835 0 Z  M 337.77 164.268 L 566.05 164.268 L 336.847 325.899 L 493.555 325.899 L 159.619 561.331 L 232.115 399.77 L 265.274 325.899 L 337.77 164.268 Z " fill="rgb(0,204,184)"/></g></svg>