<?xml version="1.0" encoding="UTF-8" standalone="no"?>
<!-- Generator: Gravit.io -->
<svg xmlns="http://www.w3.org/2000/svg" xmlns:xlink="http://www.w3.org/1999/xlink" style="isolation:isolate" viewBox="0 0 256 256" width="256pt" height="256pt"><defs><clipPath id="_clipPath_dCS26pyn6FVqt3saoxjNwZybYrYzL9k1"><rect width="256" height="256"/></clipPath></defs><g clip-path="url(#_clipPath_dCS26pyn6FVqt3saoxjNwZybYrYzL9k1)"><path d=" M 251.169 117.451 L 139.4 5.692 C 136.308 2.6 132.115 0.863 127.743 0.863 C 123.371 0.863 119.178 2.6 116.087 5.692 L 92.878 28.898 L 122.314 58.345 C 129.374 55.939 137.188 57.756 142.461 63.03 C 147.761 68.339 149.567 76.207 147.112 83.296 L 175.487 111.679 C 182.575 109.214 190.447 111.023 195.749 116.333 C 199.432 120.008 201.502 124.998 201.502 130.201 C 201.502 135.404 199.432 140.394 195.749 144.069 C 192.072 147.753 187.08 149.823 181.875 149.823 C 176.67 149.823 171.679 147.753 168.001 144.069 C 162.408 138.47 160.726 130.059 163.735 122.74 L 137.27 96.275 L 137.27 165.913 C 139.192 166.858 140.945 168.11 142.461 169.621 C 150.122 177.285 150.122 189.707 142.461 197.372 C 134.793 205.028 122.37 205.028 114.724 197.372 C 111.04 193.694 108.97 188.702 108.97 183.496 C 108.97 178.291 111.04 173.299 114.724 169.621 C 116.555 167.779 118.738 166.324 121.142 165.343 L 121.142 95.056 C 118.738 94.075 116.555 92.62 114.724 90.778 C 109.092 85.149 107.419 76.675 110.489 69.328 L 81.468 40.296 L 4.831 116.934 C 1.738 120.025 0 124.219 0 128.592 C 0 132.965 1.738 137.158 4.831 140.25 L 116.601 252.019 C 119.692 255.112 123.885 256.849 128.257 256.849 C 132.629 256.849 136.822 255.112 139.914 252.019 L 251.169 140.778 C 257.61 134.336 257.61 123.892 251.169 117.451" fill="rgb(240,60,46)"/></g></svg>