<?xml version="1.0" encoding="UTF-8" standalone="no"?>
<!-- Generator: Gravit.io -->
<svg xmlns="http://www.w3.org/2000/svg" xmlns:xlink="http://www.w3.org/1999/xlink" style="isolation:isolate" viewBox="0 0 256 256" width="256pt" height="256pt"><defs><clipPath id="_clipPath_BIN3GuTnVkNfPhQOguQtdKPmymzC23R9"><rect width="256" height="256"/></clipPath></defs><g clip-path="url(#_clipPath_BIN3GuTnVkNfPhQOguQtdKPmymzC23R9)"><g><path d=" M 19.32 109.138 C 18.821 109.138 18.696 108.889 18.946 108.515 L 21.563 105.15 C 21.812 104.776 22.436 104.526 22.934 104.526 L 67.431 104.526 C 67.93 104.526 68.055 104.9 67.805 105.274 L 65.686 108.515 C 65.437 108.889 64.814 109.263 64.44 109.263 L 19.32 109.138 Z  M 0.499 120.605 C 0 120.605 -0.125 120.356 0.125 119.982 L 2.742 116.617 C 2.991 116.243 3.615 115.993 4.113 115.993 L 60.95 115.993 C 61.449 115.993 61.698 116.367 61.573 116.741 L 60.576 119.733 C 60.452 120.231 59.953 120.481 59.454 120.481 L 0.499 120.605 Z  M 30.662 132.072 C 30.163 132.072 30.039 131.698 30.288 131.324 L 32.033 128.208 C 32.282 127.834 32.781 127.461 33.279 127.461 L 58.208 127.461 C 58.707 127.461 58.956 127.834 58.956 128.333 L 58.707 131.324 C 58.707 131.823 58.208 132.197 57.834 132.197 L 30.662 132.072 Z  M 160.041 106.895 C 152.188 108.889 146.829 110.385 139.101 112.379 C 137.231 112.877 137.107 113.002 135.486 111.132 C 133.617 109.013 132.245 107.642 129.628 106.396 C 121.776 102.532 114.172 103.654 107.068 108.266 C 98.592 113.75 94.23 121.852 94.354 131.948 C 94.479 141.919 101.334 150.145 111.181 151.516 C 119.657 152.638 126.761 149.647 132.37 143.29 C 133.492 141.919 134.489 140.423 135.735 138.678 C 131.248 138.678 125.639 138.678 111.679 138.678 C 109.062 138.678 108.439 137.058 109.311 134.939 C 110.932 131.075 113.923 124.594 115.668 121.353 C 116.042 120.605 116.914 119.359 118.784 119.359 L 164.154 119.359 C 163.905 122.724 163.905 126.089 163.406 129.455 C 162.035 138.429 158.67 146.655 153.185 153.885 C 144.211 165.726 132.495 173.08 117.662 175.074 C 105.447 176.694 94.105 174.326 84.134 166.847 C 74.91 159.868 69.675 150.644 68.304 139.177 C 66.684 125.591 70.672 113.376 78.899 102.657 C 87.748 91.065 99.465 83.711 113.798 81.094 C 125.515 78.975 136.733 80.346 146.829 87.201 C 153.435 91.564 158.171 97.546 161.287 104.776 C 162.035 105.897 161.536 106.521 160.041 106.895 L 160.041 106.895 Z " fill-rule="evenodd" fill="rgb(0,172,215)"/><path d=" M 201.297 175.822 C 189.955 175.572 179.61 172.332 170.885 164.853 C 163.531 158.496 158.919 150.395 157.423 140.797 C 155.18 126.713 159.044 114.248 167.519 103.155 C 176.618 91.19 187.587 84.957 202.419 82.34 C 215.133 80.096 227.098 81.343 237.942 88.697 C 247.789 95.427 253.896 104.526 255.517 116.492 C 257.636 133.319 252.775 147.029 241.183 158.746 C 232.956 167.097 222.86 172.332 211.269 174.7 C 207.903 175.323 204.538 175.448 201.297 175.822 L 201.297 175.822 Z  M 230.962 125.466 C 230.838 123.846 230.838 122.599 230.588 121.353 C 228.345 109.013 217.002 102.033 205.161 104.776 C 193.569 107.393 186.091 114.747 183.349 126.463 C 181.105 136.185 185.842 146.032 194.816 150.021 C 201.671 153.012 208.527 152.638 215.133 149.273 C 224.979 144.163 230.339 136.185 230.962 125.466 L 230.962 125.466 Z " fill="rgb(0,172,215)"/></g></g></svg>