<?xml version="1.0" encoding="UTF-8" standalone="no"?>
<!-- Generator: Gravit.io -->
<svg xmlns="http://www.w3.org/2000/svg" xmlns:xlink="http://www.w3.org/1999/xlink" style="isolation:isolate" viewBox="0 0 256 256" width="256pt" height="256pt"><defs><clipPath id="_clipPath_5DqhBwOtnRZwKboi70fEgk0ZBCfvX987"><rect width="256" height="256"/></clipPath></defs><g clip-path="url(#_clipPath_5DqhBwOtnRZwKboi70fEgk0ZBCfvX987)"><path d=" M 161.373 105.337 C 161.993 106.577 160.753 106.577 160.133 106.577 L 139.053 112.157 C 137.193 113.397 135.953 111.537 135.953 111.537 C 122.933 95.417 95.653 106.577 94.413 130.137 C 93.173 152.457 122.313 161.136 135.953 138.817 L 112.393 138.817 C 110.533 138.817 107.433 138.197 110.533 132.617 L 115.493 122.077 C 116.733 119.597 117.353 119.597 121.073 119.597 L 164.473 119.597 C 164.473 169.816 108.673 192.136 78.913 161.756 C 65.273 147.497 60.933 115.257 88.833 92.317 C 111.153 74.337 148.353 74.337 161.373 105.337 Z  M 171.293 164.856 C 143.393 140.677 158.273 90.457 202.292 82.397 C 247.552 74.337 267.392 116.497 249.412 148.117 C 234.532 174.776 194.852 185.936 171.293 164.856 Z  M 229.572 133.237 C 235.152 117.737 223.992 102.857 207.252 104.097 C 188.652 105.957 175.632 130.137 187.412 144.397 C 199.192 158.036 223.372 151.837 229.572 133.237 Z  M 30.553 131.997 L 30.553 131.377 L 31.793 128.277 L 33.033 127.657 L 58.453 127.657 L 59.073 128.277 L 58.453 131.377 L 57.833 131.997 L 30.553 131.997 Z  M 0.794 120.837 C 0.794 120.837 -0.446 120.837 0.174 120.217 L 2.654 116.497 L 3.894 115.877 L 60.933 115.877 L 61.553 116.497 L 60.313 119.597 L 59.693 120.217 L 0.794 120.837 Z  M 19.393 109.057 L 18.773 108.437 L 21.873 105.337 L 23.113 104.717 L 67.753 104.717 L 67.753 105.337 L 65.893 108.437 L 64.653 109.057 L 19.393 109.057 Z " fill="rgb(255,255,255)"/></g></svg>