<?xml version="1.0" encoding="UTF-8" standalone="no"?>
<!-- Generator: Gravit.io -->
<svg xmlns="http://www.w3.org/2000/svg" xmlns:xlink="http://www.w3.org/1999/xlink" style="isolation:isolate" viewBox="0 0 256 256" width="256pt" height="256pt"><defs><clipPath id="_clipPath_02XBHzoUNt5t0W97UOagJnprbYcpftVK"><rect width="256" height="256"/></clipPath></defs><g clip-path="url(#_clipPath_02XBHzoUNt5t0W97UOagJnprbYcpftVK)"><path d=" M 25.478 189.703 L 130.134 8.438 L 139.529 13.862 L 34.873 195.127 L 25.478 189.703 Z  M 23.315 175.221 L 232.637 175.221 L 232.637 186.07 L 23.315 186.07 L 23.315 175.221 Z  M 27.456 181.314 L 32.88 171.919 L 137.574 232.366 L 132.15 241.761 L 27.456 181.314 Z  M 118.419 23.77 L 123.843 14.374 L 228.537 74.821 L 223.113 84.217 L 118.419 23.77 Z  M 27.486 74.787 L 132.18 14.34 L 137.605 23.736 L 32.91 84.183 L 27.486 74.787 Z  M 116.519 13.863 L 125.914 8.438 L 230.571 189.703 L 221.176 195.128 L 116.519 13.863 Z  M 31.623 67.59 L 42.472 67.59 L 42.472 188.493 L 31.623 188.493 L 31.623 67.59 Z  M 213.563 67.59 L 224.412 67.59 L 224.412 188.493 L 213.563 188.493 L 213.563 67.59 Z  M 125.571 228.963 L 216.627 176.39 L 221.366 184.598 L 130.31 237.171 L 125.571 228.963 Z " fill-rule="evenodd" fill="rgb(225,0,152)"/><path d=" M 238.789 192.02 C 234.177 200.035 225.189 204.479 216.021 203.28 C 206.852 202.081 199.31 195.474 196.915 186.543 C 194.519 177.613 197.742 168.118 205.079 162.491 C 212.417 156.865 222.422 156.214 230.426 160.844 C 241.332 167.153 245.073 181.1 238.789 192.02 Z  M 56.722 86.911 C 52.11 94.926 43.122 99.37 33.954 98.171 C 24.785 96.972 17.243 90.365 14.848 81.434 C 12.452 72.504 15.675 63.009 23.012 57.382 C 30.349 51.755 40.355 51.105 48.359 55.735 C 59.265 62.044 63.006 75.991 56.722 86.911 Z  M 17.237 192.02 C 12.607 184.017 13.257 174.011 18.884 166.674 C 24.511 159.337 34.005 156.114 42.936 158.51 C 51.867 160.905 58.474 168.447 59.673 177.616 C 60.872 186.784 56.428 195.771 48.413 200.384 C 37.493 206.668 23.546 202.927 17.237 192.02 Z  M 199.304 86.911 C 194.674 78.908 195.325 68.902 200.951 61.565 C 206.578 54.228 216.073 51.005 225.003 53.401 C 233.934 55.796 240.541 63.338 241.74 72.507 C 242.939 81.675 238.495 90.662 230.481 95.274 C 219.56 101.559 205.613 97.818 199.304 86.911 Z  M 128.013 256 C 115.393 256 105.163 245.77 105.163 233.15 C 105.163 220.531 115.393 210.3 128.013 210.3 C 140.633 210.3 150.863 220.531 150.863 233.15 C 150.88 239.215 148.478 245.037 144.189 249.326 C 139.9 253.615 134.078 256.017 128.013 256 Z  M 128 45.7 C 115.38 45.7 105.15 35.469 105.15 22.85 C 105.15 10.23 115.38 0 128 0 C 140.62 0 150.85 10.23 150.85 22.85 C 150.867 28.915 148.465 34.737 144.176 39.026 C 139.887 43.315 134.065 45.717 128 45.7 Z " fill-rule="evenodd" fill="rgb(225,0,152)"/></g></svg>