<?xml version="1.0" encoding="UTF-8" standalone="no"?>
<!-- Generator: Gravit.io -->
<svg xmlns="http://www.w3.org/2000/svg" xmlns:xlink="http://www.w3.org/1999/xlink" style="isolation:isolate" viewBox="0 0 256 256" width="256pt" height="256pt"><defs><clipPath id="_clipPath_mOE3EfHtB5sz88G8Lmg32K2tgYMThEAl"><rect width="256" height="256"/></clipPath></defs><g clip-path="url(#_clipPath_mOE3EfHtB5sz88G8Lmg32K2tgYMThEAl)"><g><path d=" M 229.364 126.043 C 229.364 119.724 226.854 113.664 222.386 109.196 C 217.917 104.727 211.857 102.217 205.538 102.217 C 204.701 102.216 203.865 102.259 203.033 102.345 L 235.764 5.815 L 96.674 5.815 L 129.36 102.263 C 128.884 102.263 128.4 102.217 127.915 102.217 C 116.159 102.204 106.15 110.767 104.344 122.385 C 102.539 134.002 109.477 145.199 120.683 148.754 C 115.615 157.481 109.304 165.424 101.95 172.334 C 92.376 181.486 81.002 188.544 68.551 193.06 C 54.073 186.199 47.411 169.275 53.328 154.386 C 54.032 152.74 54.745 151.076 55.422 149.412 C 66.369 146.834 74.025 136.954 73.788 125.709 C 73.551 114.464 65.485 104.915 54.438 102.801 C 43.391 100.687 32.37 106.583 27.997 116.945 C 23.625 127.308 27.091 139.317 36.313 145.755 C 28.708 159.545 22.903 174.254 19.042 189.522 C 15.806 209.042 19.042 229.751 35.911 241.463 C 75.225 268.718 117.913 224.567 162.914 213.476 C 179.225 209.454 197.127 210.103 211.49 201.783 C 221.996 195.799 229.296 185.453 231.412 173.55 C 233.343 162.23 230.602 150.611 223.815 141.348 C 227.399 137.065 229.361 131.656 229.355 126.071 L 229.364 126.043 Z  M 151.751 126.171 L 151.751 126.089 C 151.765 117.749 147.407 110.012 140.267 105.7 L 166.27 53.029 L 192.327 106.185 C 185.687 110.597 181.701 118.044 181.712 126.016 C 181.712 126.19 181.712 126.363 181.712 126.537 L 151.751 126.171 Z " fill="rgb(198,61,20)"/><path d=" M 235.188 126.043 C 235.169 111.792 225.026 99.565 211.024 96.914 L 243.883 0 L 88.564 0 L 121.479 97.106 C 109.725 99.733 100.731 109.213 98.725 121.087 C 96.718 132.962 102.098 144.871 112.336 151.214 C 108.201 157.356 103.393 163.017 98 168.091 C 89.652 176.078 79.843 182.38 69.108 186.651 C 58.697 180.607 54.285 167.847 58.74 156.663 L 59.106 155.812 L 59.783 154.212 C 72.303 149.872 80.426 137.755 79.686 124.525 C 78.947 111.294 69.523 100.159 56.597 97.241 C 43.672 94.323 30.378 100.33 24.026 111.959 C 17.674 123.589 19.805 138.02 29.246 147.319 C 28.258 149.431 27.216 151.57 26.146 153.774 C 20.218 164.673 15.906 176.376 13.346 188.516 C 9.095 214.116 15.952 234.624 32.647 246.19 C 41.609 252.598 52.358 256.03 63.376 256 C 82.868 256 102.59 246.208 121.89 236.626 C 135.375 229.292 149.602 223.414 164.331 219.09 C 169.607 217.792 175.038 217.006 180.788 216.174 C 192.504 215.237 203.929 212.046 214.434 206.775 C 226.427 199.924 234.758 188.1 237.172 174.5 C 239.115 163.088 236.871 151.358 230.855 141.467 C 233.701 136.823 235.204 131.481 235.197 126.034 L 235.188 126.043 Z  M 223.549 126.043 C 223.549 135.991 215.485 144.055 205.538 144.055 C 195.591 144.055 187.527 135.991 187.527 126.043 C 187.527 116.096 195.591 108.032 205.538 108.032 C 215.481 108.042 223.539 116.1 223.549 126.043 Z  M 227.636 11.639 L 198.617 97.216 C 197.374 97.517 196.153 97.898 194.96 98.359 L 166.297 39.845 L 137.543 98.011 C 136.291 97.578 135.011 97.229 133.712 96.969 L 104.793 11.639 L 227.636 11.639 Z  M 127.915 108.032 C 137.863 108.032 145.927 116.096 145.927 126.043 C 145.927 135.991 137.863 144.055 127.915 144.055 C 117.968 144.055 109.904 135.991 109.904 126.043 C 109.914 116.1 117.972 108.042 127.915 108.032 L 127.915 108.032 Z  M 50 108.206 C 57.288 108.209 63.856 112.605 66.638 119.341 C 69.42 126.078 67.869 133.827 62.707 138.972 C 57.546 144.118 49.792 145.646 43.064 142.843 C 36.336 140.041 31.961 133.46 31.979 126.171 C 31.989 116.228 40.047 108.17 49.991 108.16 L 50 108.206 Z  M 225.698 172.516 C 223.868 182.719 217.601 191.582 208.592 196.708 C 199.358 201.192 189.36 203.887 179.124 204.654 C 173.346 205.486 167.376 206.345 161.534 207.79 C 145.981 212.293 130.96 218.464 116.734 226.194 C 87.806 240.558 62.791 252.964 39.275 236.644 C 22.023 224.686 22.818 202.56 24.83 190.436 C 27.197 179.404 31.144 168.771 36.551 158.866 C 37.392 157.138 38.215 155.438 39.019 153.755 C 41.475 154.737 44.052 155.383 46.681 155.675 C 41.877 172.644 49.981 190.607 65.881 198.235 L 68.121 199.387 L 70.489 198.546 C 83.698 193.779 95.765 186.305 105.918 176.603 C 112.624 170.295 118.515 163.172 123.454 155.401 C 136.431 157.375 149.16 150.576 154.736 138.692 C 160.311 126.808 157.404 112.673 147.591 103.954 L 166.224 66.277 L 185.049 104.676 C 173.943 115.38 172.909 132.815 182.672 144.756 C 192.435 156.698 209.728 159.149 222.425 150.391 C 225.82 157.243 226.956 164.996 225.671 172.535 L 225.698 172.516 Z " fill="rgb(255,255,255)"/></g></g></svg>