<?xml version="1.0" encoding="UTF-8" standalone="no"?>
<!-- Generator: Gravit.io -->
<svg xmlns="http://www.w3.org/2000/svg" xmlns:xlink="http://www.w3.org/1999/xlink" style="isolation:isolate" viewBox="0 0 256 256" width="256pt" height="256pt"><defs><clipPath id="_clipPath_8rUpKLkglKxuyXYoePdn82xMgTTU8jzd"><rect width="256" height="256"/></clipPath></defs><g clip-path="url(#_clipPath_8rUpKLkglKxuyXYoePdn82xMgTTU8jzd)"><g><path d=" M 27.681 133.851 C 27.681 141.827 27.043 144.425 25.402 146.34 C 23.576 147.984 21.205 148.894 18.748 148.892 L 19.386 153.45 C 23.196 153.502 26.893 152.156 29.778 149.667 C 31.33 147.774 32.486 145.588 33.175 143.238 C 33.864 140.889 34.073 138.425 33.789 135.993 L 33.789 105.82 L 27.681 105.82 L 27.681 133.669 L 27.681 133.851 Z " fill="rgb(78,78,78)"/><path d=" M 73.23 130.256 C 73.23 133.674 73.23 136.728 73.503 139.372 L 68.08 139.372 L 67.715 133.948 C 66.58 135.867 64.958 137.451 63.013 138.54 C 61.067 139.629 58.868 140.183 56.639 140.147 C 51.352 140.147 45.062 137.275 45.062 125.561 L 45.062 106.099 L 51.17 106.099 L 51.17 124.331 C 51.17 130.666 53.13 134.905 58.645 134.905 C 59.779 134.917 60.905 134.703 61.956 134.274 C 63.006 133.846 63.961 133.212 64.763 132.409 C 65.566 131.607 66.2 130.652 66.628 129.602 C 67.057 128.551 67.271 127.425 67.259 126.291 L 67.259 105.871 L 73.367 105.871 L 73.367 130.074 L 73.23 130.256 Z " fill="rgb(78,78,78)"/><path d=" M 84.807 116.943 C 84.807 112.704 84.807 109.24 84.534 106.095 L 90.003 106.095 L 90.277 111.793 C 91.495 109.734 93.249 108.045 95.352 106.905 C 97.455 105.765 99.828 105.218 102.218 105.32 C 110.331 105.32 116.439 112.112 116.439 122.23 C 116.439 134.172 109.101 140.097 101.17 140.097 C 99.14 140.188 97.121 139.753 95.309 138.835 C 93.496 137.916 91.951 136.546 90.824 134.856 L 90.824 134.856 L 90.824 153.087 L 84.807 153.087 L 84.807 117.08 L 84.807 116.943 Z  M 90.824 125.831 C 90.84 126.658 90.932 127.482 91.097 128.292 C 91.614 130.316 92.791 132.11 94.442 133.389 C 96.093 134.669 98.124 135.361 100.213 135.357 C 106.639 135.357 110.422 130.115 110.422 122.504 C 110.422 115.849 106.867 110.152 100.441 110.152 C 97.897 110.36 95.517 111.489 93.747 113.326 C 91.976 115.164 90.937 117.584 90.824 120.134 L 90.824 125.831 Z " fill="rgb(78,78,78)"/><path d=" M 127.321 106.065 L 134.659 125.709 C 135.434 127.897 136.254 130.541 136.801 132.501 C 137.439 130.495 138.123 127.943 138.943 125.573 L 145.598 106.065 L 152.024 106.065 L 142.909 129.766 C 138.351 141.161 135.57 147.04 131.377 150.595 C 129.265 152.525 126.69 153.875 123.902 154.515 L 122.398 149.41 C 124.347 148.77 126.157 147.765 127.731 146.448 C 129.954 144.636 131.719 142.325 132.881 139.702 C 133.13 139.248 133.3 138.755 133.383 138.244 C 133.331 137.694 133.192 137.155 132.972 136.648 L 120.575 105.974 L 127.229 105.974 L 127.321 106.065 Z " fill="rgb(78,78,78)"/><path d=" M 168.238 96.503 L 168.238 106.074 L 176.989 106.074 L 176.989 110.632 L 168.238 110.632 L 168.238 128.59 C 168.238 132.692 169.423 135.062 172.796 135.062 C 173.994 135.082 175.189 134.944 176.351 134.652 L 176.625 139.21 C 174.882 139.814 173.044 140.092 171.201 140.03 C 169.98 140.107 168.758 139.918 167.617 139.478 C 166.476 139.037 165.444 138.355 164.592 137.478 C 162.735 134.995 161.889 131.901 162.222 128.818 L 162.222 110.587 L 157.026 110.587 L 157.026 106.029 L 162.313 106.029 L 162.313 97.916 L 168.238 96.503 Z " fill="rgb(78,78,78)"/><path d=" M 188.24 123.784 C 188.117 125.33 188.33 126.884 188.866 128.34 C 189.402 129.795 190.247 131.116 191.343 132.213 C 192.44 133.309 193.761 134.155 195.217 134.691 C 196.672 135.226 198.226 135.44 199.772 135.316 C 202.898 135.386 206.004 134.796 208.888 133.584 L 209.936 138.142 C 206.398 139.599 202.594 140.298 198.769 140.193 C 196.539 140.346 194.303 140.014 192.213 139.221 C 190.124 138.428 188.23 137.193 186.663 135.6 C 185.096 134.006 183.892 132.093 183.133 129.991 C 182.375 127.888 182.08 125.647 182.27 123.42 C 182.27 113.393 188.24 105.462 197.994 105.462 C 208.933 105.462 211.668 115.033 211.668 121.141 C 211.726 122.082 211.726 123.026 211.668 123.967 L 188.104 123.967 L 188.24 123.784 Z  M 206.107 119.227 C 206.283 118.008 206.196 116.766 205.851 115.584 C 205.506 114.402 204.912 113.308 204.109 112.375 C 203.306 111.442 202.312 110.692 201.194 110.176 C 200.076 109.659 198.861 109.389 197.63 109.382 C 195.125 109.563 192.779 110.673 191.051 112.494 C 189.322 114.315 188.336 116.716 188.286 119.227 L 206.107 119.227 Z " fill="rgb(78,78,78)"/><path d=" M 220.935 116.429 C 220.935 112.51 220.935 109.137 220.661 106.037 L 226.131 106.037 L 226.131 112.555 L 226.404 112.555 C 226.978 110.543 228.164 108.76 229.798 107.454 C 231.432 106.147 233.431 105.381 235.52 105.262 C 236.095 105.187 236.677 105.187 237.252 105.262 L 237.252 110.96 C 236.555 110.879 235.852 110.879 235.155 110.96 C 233.086 111.04 231.117 111.871 229.616 113.296 C 228.114 114.722 227.183 116.646 226.997 118.708 C 226.826 119.641 226.735 120.586 226.723 121.534 L 226.723 139.264 L 220.707 139.264 L 220.707 116.475 L 220.935 116.429 Z " fill="rgb(78,78,78)"/><path d=" M 218.258 14.517 C 218.445 17.579 217.717 20.628 216.165 23.274 C 214.614 25.921 212.31 28.045 209.547 29.378 C 206.783 30.71 203.686 31.19 200.649 30.756 C 197.612 30.321 194.773 28.993 192.494 26.94 C 190.215 24.887 188.598 22.201 187.851 19.226 C 187.103 16.251 187.258 13.12 188.295 10.234 C 189.333 7.347 191.206 4.834 193.677 3.016 C 196.148 1.197 199.104 0.155 202.169 0.023 C 204.178 -0.088 206.19 0.2 208.088 0.87 C 209.985 1.539 211.732 2.577 213.227 3.924 C 214.723 5.271 215.937 6.901 216.8 8.719 C 217.664 10.536 218.159 12.507 218.258 14.517 L 218.258 14.517 Z " fill="rgb(118,118,119)"/><path d=" M 128.132 193.018 C 87.112 193.018 51.059 178.296 32.417 156.555 C 39.65 176.113 52.701 192.986 69.814 204.903 C 86.927 216.82 107.28 223.208 128.132 223.208 C 148.986 223.208 169.338 216.82 186.451 204.903 C 203.564 192.986 216.615 176.113 223.848 156.555 C 205.252 178.296 169.336 193.018 128.132 193.018 Z " fill="rgb(243,119,38)"/><path d=" M 128.132 51.642 C 169.153 51.642 205.207 66.364 223.848 88.105 C 216.615 68.546 203.564 51.673 186.451 39.756 C 169.338 27.839 148.986 21.451 128.132 21.451 C 107.28 21.451 86.927 27.839 69.814 39.756 C 52.701 51.673 39.65 68.546 32.417 88.105 C 51.059 66.318 86.93 51.642 128.132 51.642 Z " fill="rgb(243,119,38)"/><path d=" M 71.662 235.326 C 71.903 239.183 70.99 243.024 69.039 246.36 C 67.089 249.696 64.19 252.376 60.711 254.059 C 57.232 255.741 53.331 256.35 49.505 255.807 C 45.679 255.265 42.101 253.595 39.227 251.012 C 36.353 248.429 34.313 245.048 33.367 241.302 C 32.422 237.555 32.613 233.611 33.916 229.973 C 35.219 226.335 37.576 223.168 40.686 220.874 C 43.796 218.581 47.519 217.265 51.379 217.095 C 53.908 216.959 56.439 217.324 58.827 218.167 C 61.216 219.01 63.414 220.315 65.298 222.008 C 67.181 223.701 68.713 225.749 69.805 228.034 C 70.897 230.319 71.528 232.797 71.662 235.326 L 71.662 235.326 Z " fill="rgb(158,158,158)"/><path d=" M 37.079 46.687 C 34.869 46.748 32.69 46.154 30.816 44.98 C 28.942 43.806 27.457 42.104 26.548 40.088 C 25.639 38.073 25.346 35.833 25.707 33.652 C 26.067 31.47 27.065 29.444 28.574 27.827 C 30.082 26.211 32.036 25.077 34.187 24.568 C 36.339 24.059 38.593 24.197 40.667 24.966 C 42.74 25.734 44.54 27.099 45.84 28.888 C 47.14 30.676 47.882 32.809 47.972 35.019 C 48.059 38.006 46.963 40.907 44.924 43.092 C 42.884 45.276 40.065 46.568 37.079 46.687 Z " fill="rgb(97,98,98)"/></g></g></svg>