<?xml version="1.0" encoding="UTF-8" standalone="no"?>
<!-- Generator: Gravit.io -->
<svg xmlns="http://www.w3.org/2000/svg" xmlns:xlink="http://www.w3.org/1999/xlink" style="isolation:isolate" viewBox="0 0 256 256" width="256pt" height="256pt"><defs><clipPath id="_clipPath_9VzeF5sRpjcATurnlX3cEdNBvazGgJ2k"><rect width="256" height="256"/></clipPath></defs><g clip-path="url(#_clipPath_9VzeF5sRpjcATurnlX3cEdNBvazGgJ2k)"><path d=" M 81.735 248.67 C 75.776 248.67 70.148 246.022 66.341 241.221 L 8.406 169.217 C 4.599 164.416 3.109 158.292 4.599 152.333 L 25.29 62.451 C 26.614 56.492 30.587 51.691 36.049 49.043 L 119.806 8.985 C 122.455 7.661 125.434 6.999 128.414 6.999 C 131.393 6.999 134.373 7.661 137.021 8.985 L 220.779 48.877 C 226.241 51.526 230.214 56.326 231.538 62.285 L 252.229 152.167 C 253.553 158.126 252.229 164.251 248.422 169.051 L 190.487 241.056 C 186.68 245.691 181.052 248.505 175.093 248.505 L 81.735 248.67 L 81.735 248.67 Z " fill="rgb(50,109,230)"/><path d=" M 128.248 11.137 C 130.566 11.137 132.883 11.634 135.035 12.627 L 218.792 52.519 C 223.096 54.671 226.407 58.644 227.4 63.278 L 248.091 153.16 C 249.249 157.961 248.091 162.926 244.946 166.734 L 187.011 238.738 C 184.031 242.546 179.397 244.697 174.596 244.697 L 81.735 244.697 C 76.935 244.697 72.3 242.546 69.32 238.738 L 11.385 166.734 C 8.406 162.926 7.247 157.961 8.24 153.16 L 28.931 63.278 C 30.09 58.478 33.235 54.505 37.539 52.519 L 121.296 12.461 C 123.448 11.634 125.931 11.137 128.248 11.137 L 128.248 11.137 Z  M 128.248 3.357 L 128.248 3.357 C 124.772 3.357 121.296 4.185 117.986 5.675 L 34.228 45.732 C 27.607 48.877 22.972 54.671 21.317 61.789 L 0.626 151.671 C -1.029 158.788 0.626 166.072 5.261 171.865 L 63.196 243.87 C 67.665 249.498 74.452 252.643 81.569 252.643 L 174.431 252.643 C 181.548 252.643 188.335 249.498 192.804 243.87 L 250.739 171.865 C 255.374 166.237 257.029 158.788 255.374 151.671 L 234.683 61.789 C 233.028 54.671 228.393 48.877 221.772 45.732 L 138.346 5.675 C 135.2 4.185 131.724 3.357 128.248 3.357 L 128.248 3.357 L 128.248 3.357 Z " fill="rgb(255,255,255)"/><path d=" M 212.171 146.043 L 212.171 146.043 L 212.171 146.043 C 212.006 146.043 212.006 146.043 212.171 146.043 L 212.006 146.043 C 211.84 146.043 211.675 146.043 211.675 145.877 C 211.343 145.877 211.012 145.712 210.681 145.712 C 209.523 145.546 208.529 145.38 207.536 145.38 C 207.04 145.38 206.543 145.38 205.881 145.215 L 205.716 145.215 C 202.239 144.884 199.425 144.553 196.777 143.725 C 195.618 143.229 195.287 142.566 194.956 141.904 C 194.956 141.739 194.791 141.739 194.791 141.573 L 194.791 141.573 L 192.639 140.911 C 193.632 133.297 193.301 125.352 191.48 117.572 C 189.659 109.792 186.514 102.509 182.211 95.888 L 183.866 94.398 L 183.866 94.067 C 183.866 93.239 184.031 92.411 184.693 91.584 C 186.68 89.763 189.163 88.273 192.142 86.452 L 192.142 86.452 C 192.639 86.121 193.135 85.956 193.632 85.625 C 194.625 85.128 195.453 84.632 196.446 83.969 C 196.611 83.804 196.943 83.638 197.274 83.307 C 197.439 83.142 197.605 83.142 197.605 82.976 L 197.605 82.976 C 199.922 80.99 200.419 77.679 198.763 75.528 C 197.936 74.369 196.446 73.707 194.956 73.707 C 193.632 73.707 192.473 74.203 191.315 75.031 L 191.315 75.031 L 191.315 75.031 C 191.149 75.196 191.149 75.196 190.984 75.362 C 190.652 75.528 190.487 75.859 190.156 76.024 C 189.328 76.852 188.666 77.514 188.004 78.342 C 187.673 78.673 187.342 79.169 186.845 79.5 L 186.845 79.5 C 184.528 81.983 182.376 83.969 180.224 85.459 C 179.728 85.79 179.231 85.956 178.734 85.956 C 178.403 85.956 178.072 85.956 177.741 85.79 L 177.41 85.79 L 177.41 85.79 L 175.424 87.115 C 173.272 84.797 170.955 82.811 168.637 80.824 C 158.705 73.045 146.622 68.244 134.042 67.086 L 133.876 64.934 C 133.711 64.768 133.711 64.768 133.545 64.603 C 133.049 64.106 132.386 63.61 132.221 62.451 C 132.055 59.802 132.386 56.823 132.718 53.512 L 132.718 53.347 C 132.718 52.85 132.883 52.188 133.049 51.691 C 133.214 50.698 133.38 49.705 133.545 48.546 L 133.545 47.553 L 133.545 47.057 L 133.545 47.057 L 133.545 47.057 C 133.545 44.077 131.228 41.594 128.414 41.594 C 127.09 41.594 125.765 42.256 124.772 43.25 C 123.779 44.243 123.282 45.567 123.282 47.057 L 123.282 47.057 L 123.282 47.057 L 123.282 47.388 L 123.282 48.381 C 123.282 49.54 123.448 50.533 123.779 51.526 C 123.945 52.023 123.945 52.519 124.11 53.181 L 124.11 53.347 C 124.441 56.657 124.938 59.637 124.607 62.285 C 124.441 63.444 123.779 63.941 123.282 64.437 C 123.117 64.603 123.117 64.603 122.951 64.768 L 122.951 64.768 L 122.786 66.92 C 119.806 67.251 116.827 67.582 113.847 68.244 C 101.102 71.058 89.846 77.514 81.073 86.783 L 79.417 85.625 L 79.086 85.625 C 78.755 85.625 78.424 85.79 78.093 85.79 C 77.597 85.79 77.1 85.625 76.603 85.294 C 74.452 83.804 72.3 81.652 69.982 79.169 L 69.982 79.169 C 69.651 78.838 69.32 78.342 68.824 78.01 C 68.162 77.183 67.499 76.521 66.672 75.693 C 66.506 75.528 66.175 75.362 65.844 75.031 C 65.679 74.865 65.513 74.865 65.513 74.7 L 65.513 74.7 C 64.52 73.872 63.196 73.376 61.871 73.376 C 60.382 73.376 58.892 74.038 58.064 75.196 C 56.409 77.348 56.906 80.659 59.223 82.645 L 59.223 82.645 L 59.223 82.645 C 59.389 82.645 59.389 82.811 59.554 82.811 C 59.885 82.976 60.051 83.307 60.382 83.473 C 61.375 84.135 62.203 84.632 63.196 85.128 C 63.692 85.294 64.189 85.625 64.685 85.956 L 64.685 85.956 C 67.665 87.777 70.148 89.266 72.134 91.087 C 72.962 91.915 72.962 92.742 72.962 93.57 L 72.962 93.901 L 72.962 93.901 L 74.617 95.391 C 74.286 95.888 73.955 96.219 73.789 96.715 C 65.513 109.792 62.368 125.186 64.52 140.415 L 62.368 141.077 C 62.368 141.242 62.203 141.242 62.203 141.408 C 61.871 142.07 61.375 142.732 60.382 143.229 C 57.899 144.056 54.919 144.387 51.443 144.718 L 51.278 144.718 C 50.781 144.718 50.119 144.718 49.622 144.884 C 48.629 144.884 47.636 145.049 46.477 145.215 C 46.146 145.215 45.815 145.38 45.484 145.38 C 45.319 145.38 45.153 145.38 44.988 145.546 L 44.988 145.546 L 44.988 145.546 C 42.008 146.208 40.187 149.022 40.684 151.671 C 41.18 153.988 43.332 155.478 45.981 155.478 C 46.477 155.478 46.808 155.478 47.305 155.312 L 47.305 155.312 L 47.305 155.312 C 47.471 155.312 47.636 155.312 47.636 155.147 C 47.967 155.147 48.298 154.981 48.629 154.981 C 49.788 154.65 50.616 154.319 51.609 153.822 C 52.105 153.657 52.602 153.326 53.098 153.16 L 53.264 153.16 C 56.409 152.002 59.223 151.008 61.871 150.677 L 62.203 150.677 C 63.196 150.677 63.858 151.174 64.354 151.505 C 64.52 151.505 64.52 151.671 64.685 151.671 L 64.685 151.671 L 67.003 151.339 C 70.976 163.589 78.59 174.513 88.687 182.459 C 91.004 184.28 93.322 185.769 95.805 187.259 L 94.812 189.411 C 94.812 189.577 94.977 189.577 94.977 189.742 C 95.308 190.404 95.639 191.232 95.308 192.39 C 94.315 194.873 92.825 197.356 91.004 200.17 L 91.004 200.336 C 90.673 200.832 90.342 201.163 90.011 201.66 C 89.349 202.488 88.853 203.315 88.19 204.309 C 88.025 204.474 87.859 204.805 87.694 205.136 C 87.694 205.302 87.528 205.467 87.528 205.467 L 87.528 205.467 L 87.528 205.467 C 86.204 208.281 87.197 211.426 89.68 212.585 C 90.342 212.916 91.004 213.082 91.667 213.082 C 93.653 213.082 95.639 211.757 96.632 209.936 L 96.632 209.936 L 96.632 209.936 C 96.632 209.771 96.798 209.605 96.798 209.605 C 96.963 209.274 97.129 208.943 97.295 208.778 C 97.791 207.619 97.957 206.791 98.288 205.798 C 98.453 205.302 98.619 204.805 98.784 204.309 L 98.784 204.309 C 99.943 200.998 100.771 198.35 102.26 196.032 C 102.922 195.039 103.75 194.873 104.412 194.542 C 104.578 194.542 104.578 194.542 104.743 194.377 L 104.743 194.377 L 105.902 192.225 C 113.185 195.039 121.131 196.529 129.076 196.529 C 133.876 196.529 138.842 196.032 143.477 194.873 C 146.456 194.211 149.27 193.384 152.084 192.39 L 153.078 194.211 C 153.243 194.211 153.243 194.211 153.409 194.377 C 154.236 194.542 154.898 194.873 155.56 195.867 C 156.885 198.184 157.878 200.998 159.037 204.143 L 159.037 204.309 C 159.202 204.805 159.368 205.302 159.533 205.798 C 159.864 206.791 160.03 207.785 160.526 208.778 C 160.692 209.109 160.857 209.274 161.023 209.605 C 161.023 209.771 161.188 209.936 161.188 209.936 L 161.188 209.936 L 161.188 209.936 C 162.182 211.923 164.168 213.082 166.154 213.082 C 166.816 213.082 167.478 212.916 168.141 212.585 C 169.299 211.923 170.292 210.93 170.624 209.605 C 170.955 208.281 170.955 206.791 170.292 205.467 L 170.292 205.467 L 170.292 205.467 C 170.292 205.302 170.127 205.302 170.127 205.136 C 169.961 204.805 169.796 204.474 169.63 204.309 C 169.134 203.315 168.472 202.488 167.81 201.66 C 167.478 201.163 167.147 200.832 166.816 200.336 L 166.816 200.17 C 164.996 197.356 163.34 194.873 162.513 192.39 C 162.182 191.232 162.513 190.57 162.678 189.742 C 162.678 189.577 162.844 189.577 162.844 189.411 L 162.844 189.411 L 162.016 187.425 C 170.789 182.293 178.238 175.01 183.866 166.072 C 186.845 161.437 189.163 156.305 190.818 151.174 L 192.804 151.505 C 192.97 151.505 192.97 151.339 193.135 151.339 C 193.797 151.008 194.294 150.512 195.287 150.512 L 195.618 150.512 C 198.267 150.843 201.081 151.836 204.226 152.995 L 204.391 152.995 C 204.888 153.16 205.384 153.491 205.881 153.657 C 206.874 154.153 207.702 154.485 208.861 154.816 C 209.192 154.816 209.523 154.981 209.854 154.981 C 210.019 154.981 210.185 154.981 210.35 155.147 L 210.35 155.147 C 210.847 155.312 211.178 155.312 211.675 155.312 C 214.157 155.312 216.309 153.657 216.971 151.505 C 216.971 149.519 215.151 146.87 212.171 146.043 L 212.171 146.043 Z  M 135.532 137.932 L 128.248 141.408 L 120.965 137.932 L 119.144 130.152 L 124.11 123.862 L 132.221 123.862 L 137.187 130.152 L 135.532 137.932 L 135.532 137.932 Z  M 178.734 120.717 C 180.059 126.345 180.39 131.973 179.893 137.435 L 154.567 130.152 C 152.25 129.49 150.926 127.172 151.422 124.855 C 151.588 124.193 151.919 123.531 152.415 123.034 L 172.444 104.992 C 175.258 109.626 177.41 114.923 178.734 120.717 L 178.734 120.717 Z  M 164.499 95.06 L 142.815 110.454 C 140.994 111.613 138.511 111.282 137.021 109.461 C 136.525 108.964 136.359 108.302 136.194 107.64 L 134.704 80.659 C 146.125 81.983 156.554 87.115 164.499 95.06 L 164.499 95.06 Z  M 116.496 81.487 C 118.317 81.156 119.972 80.824 121.793 80.493 L 120.303 106.978 C 120.137 109.295 118.317 111.282 115.834 111.282 C 115.172 111.282 114.344 111.116 113.847 110.785 L 91.832 95.06 C 98.619 88.273 107.061 83.638 116.496 81.487 L 116.496 81.487 Z  M 83.887 104.992 L 103.585 122.538 C 105.405 124.027 105.571 126.841 104.081 128.662 C 103.585 129.324 102.922 129.821 102.095 129.986 L 76.438 137.435 C 75.445 126.179 77.928 114.758 83.887 104.992 L 83.887 104.992 Z  M 79.417 149.85 L 105.736 145.38 C 107.888 145.215 109.875 146.705 110.371 148.857 C 110.537 149.85 110.537 150.677 110.206 151.505 L 110.206 151.505 L 100.108 175.838 C 90.839 169.879 83.39 160.775 79.417 149.85 L 79.417 149.85 Z  M 139.835 182.79 C 136.028 183.617 132.221 184.114 128.248 184.114 C 122.455 184.114 116.827 183.121 111.53 181.466 L 124.607 157.795 C 125.931 156.305 128.083 155.643 129.904 156.636 C 130.731 157.133 131.393 157.795 131.89 158.457 L 131.89 158.457 L 144.636 181.466 C 143.146 181.962 141.491 182.293 139.835 182.79 L 139.835 182.79 Z  M 172.113 159.781 C 167.975 166.403 162.513 171.699 156.223 175.838 L 145.794 150.843 C 145.298 148.857 146.125 146.705 148.112 145.712 C 148.774 145.38 149.601 145.215 150.429 145.215 L 176.914 149.684 C 175.92 153.326 174.265 156.636 172.113 159.781 L 172.113 159.781 Z " fill="rgb(255,255,255)"/></g></svg>