<?xml version="1.0" encoding="UTF-8" standalone="no"?>
<!-- Generator: Gravit.io -->
<svg xmlns="http://www.w3.org/2000/svg" xmlns:xlink="http://www.w3.org/1999/xlink" style="isolation:isolate" viewBox="0 0 256 256" width="256pt" height="256pt"><defs><clipPath id="_clipPath_4ATvptTA49gvfygurJZAu3TQc9mRCVO5"><rect width="256" height="256"/></clipPath></defs><g clip-path="url(#_clipPath_4ATvptTA49gvfygurJZAu3TQc9mRCVO5)"><path d=" M 117.519 2.731 C 123.866 -0.902 132.134 -0.919 138.476 2.731 C 170.383 20.76 202.3 38.761 234.201 56.801 C 240.201 60.181 244.215 66.858 244.154 73.772 L 244.154 182.242 C 244.198 189.442 239.788 196.279 233.458 199.582 C 201.656 217.512 169.87 235.463 138.074 253.393 C 131.595 257.097 123.161 256.812 116.885 252.804 C 107.351 247.277 97.8 241.777 88.265 236.256 C 86.317 235.094 84.12 234.17 82.744 232.28 C 83.961 230.641 86.135 230.437 87.902 229.721 C 91.882 228.456 95.537 226.424 99.193 224.453 C 100.118 223.82 101.246 224.063 102.133 224.629 C 110.286 229.304 118.366 234.114 126.547 238.744 C 128.292 239.751 130.059 238.414 131.55 237.582 C 162.758 219.944 194.004 202.373 225.206 184.73 C 226.362 184.174 227.001 182.946 226.907 181.68 C 226.929 145.898 226.912 110.11 226.918 74.328 C 227.05 72.891 226.219 71.57 224.919 70.982 C 193.228 53.135 161.553 35.26 129.866 17.408 C 128.743 16.635 127.26 16.633 126.134 17.402 C 94.448 35.26 62.778 53.151 31.092 70.998 C 29.797 71.587 28.928 72.886 29.082 74.328 C 29.088 110.11 29.082 145.898 29.082 181.685 C 28.97 182.951 29.657 184.153 30.805 184.697 C 39.261 189.492 47.727 194.253 56.189 199.032 C 60.955 201.597 66.808 203.122 72.059 201.156 C 76.694 199.494 79.942 194.765 79.854 189.844 C 79.898 154.271 79.832 118.692 79.887 83.125 C 79.771 81.546 81.269 80.241 82.804 80.39 C 86.867 80.362 90.935 80.335 94.998 80.401 C 96.694 80.362 97.861 82.063 97.651 83.654 C 97.635 119.452 97.695 155.251 97.624 191.049 C 97.635 200.59 93.715 210.971 84.891 215.639 C 74.019 221.271 60.581 220.077 49.841 214.676 C 40.543 210.036 31.67 204.559 22.537 199.587 C 16.19 196.302 11.802 189.437 11.846 182.243 L 11.846 73.772 C 11.78 66.715 15.953 59.916 22.14 56.586 C 53.937 38.641 85.728 20.684 117.519 2.731 Z  M 145.258 77.869 C 159.125 76.976 173.972 77.34 186.451 84.172 C 196.113 89.407 201.469 100.394 201.64 111.129 C 201.37 112.576 199.856 113.375 198.474 113.276 C 194.45 113.27 190.426 113.33 186.402 113.248 C 184.696 113.314 183.704 111.74 183.489 110.231 C 182.333 105.095 179.532 100.009 174.698 97.532 C 167.277 93.816 158.673 94.003 150.581 94.081 C 144.674 94.394 138.322 94.906 133.317 98.38 C 129.475 101.011 128.308 106.323 129.679 110.601 C 130.972 113.672 134.518 114.663 137.419 115.577 C 154.132 119.948 171.842 119.513 188.235 125.265 C 195.022 127.61 201.661 132.169 203.985 139.275 C 207.023 148.799 205.691 160.184 198.915 167.83 C 193.42 174.122 185.417 177.546 177.434 179.406 C 166.815 181.774 155.795 181.834 145.011 180.783 C 134.87 179.627 124.317 176.963 116.489 170.053 C 109.795 164.241 106.526 155.184 106.85 146.443 C 106.928 144.967 108.397 143.938 109.811 144.059 C 113.863 144.026 117.915 144.015 121.967 144.065 C 123.585 143.949 124.785 145.348 124.868 146.873 C 125.616 151.766 127.455 156.902 131.722 159.803 C 139.957 165.116 150.29 164.752 159.719 164.901 C 167.531 164.555 176.3 164.45 182.675 159.286 C 186.039 156.341 187.035 151.414 186.126 147.176 C 185.141 143.597 181.398 141.929 178.183 140.839 C 161.685 135.62 143.777 137.514 127.438 131.612 C 120.805 129.268 114.391 124.836 111.843 118.021 C 108.287 108.377 109.916 96.448 117.403 89.06 C 124.702 81.711 135.239 78.881 145.258 77.868 L 145.258 77.869 L 145.258 77.869 Z " fill-rule="evenodd" fill="rgb(139,200,75)"/></g></svg>