<?xml version="1.0" encoding="UTF-8" standalone="no"?>
<!-- Generator: Gravit.io -->
<svg xmlns="http://www.w3.org/2000/svg" xmlns:xlink="http://www.w3.org/1999/xlink" style="isolation:isolate" viewBox="0 0 256 256" width="256pt" height="256pt"><defs><clipPath id="_clipPath_G9B7y7IbGMKsEcn6rGrDYjp2fAmM6wlY"><rect width="256" height="256"/></clipPath></defs><g clip-path="url(#_clipPath_G9B7y7IbGMKsEcn6rGrDYjp2fAmM6wlY)"><g><path d=" M 110.026 52.015 L 67.26 30.431 L 20.312 53.858 L 64.242 75.915 L 110.026 52.015 L 110.026 52.015 Z " fill="rgb(77,171,207)"/><path d=" M 129.641 61.909 L 174.481 84.554 L 127.96 107.913 L 83.961 85.821 L 129.641 61.909 L 129.641 61.909 Z " fill="rgb(77,171,207)"/><path d=" M 189.535 30.753 L 235.607 53.858 L 194.396 74.545 L 149.464 51.877 L 189.535 30.753 L 189.535 30.753 Z " fill="rgb(77,171,207)"/><path d=" M 169.701 20.802 L 128.225 0 L 87.197 20.479 L 129.941 42.029 L 169.701 20.802 L 169.701 20.802 Z " fill="rgb(77,171,207)"/><path d=" M 137.278 199.4 L 137.278 256 L 187.519 230.925 L 187.473 174.303 L 137.278 199.4 L 137.278 199.4 Z " fill="rgb(77,171,207)"/><path d=" M 187.45 154.538 L 187.393 98.514 L 137.278 123.427 L 137.278 179.474 L 187.45 154.538 L 187.45 154.538 Z " fill="rgb(77,171,207)"/><path d=" M 247.77 144.045 L 247.77 200.863 L 204.912 222.241 L 204.877 165.687 L 247.77 144.045 L 247.77 144.045 Z " fill="rgb(77,171,207)"/><path d=" M 247.77 124.176 L 247.77 68.498 L 204.831 89.841 L 204.866 145.98 L 247.77 124.176 L 247.77 124.176 Z " fill="rgb(77,171,207)"/><path d=" M 119.54 123.427 L 85.7 106.404 L 85.7 179.935 C 85.7 179.935 44.304 91.868 40.48 83.955 C 39.985 82.93 37.958 81.813 37.439 81.536 C 29.976 77.643 8.23 66.632 8.23 66.632 L 8.23 196.59 L 38.315 212.715 L 38.315 144.759 C 38.315 144.759 79.261 223.45 79.688 224.314 C 79.688 224.314 84.203 233.459 88.603 236.373 C 94.442 240.255 119.517 255.332 119.517 255.332 L 119.54 123.427 Z " fill="rgb(77,119,207)"/></g></g></svg>