<?xml version="1.0" encoding="UTF-8" standalone="no"?>
<!-- Generator: Gravit.io -->
<svg xmlns="http://www.w3.org/2000/svg" xmlns:xlink="http://www.w3.org/1999/xlink" style="isolation:isolate" viewBox="0 0 256 256" width="256pt" height="256pt"><defs><clipPath id="_clipPath_VCGWm3y0XdHkBK92OgD9Sz61tbT0RU95"><rect width="256" height="256"/></clipPath></defs><g clip-path="url(#_clipPath_VCGWm3y0XdHkBK92OgD9Sz61tbT0RU95)"><g><rect x="92.468" y="15.133" width="27.977" height="58.092" transform="matrix(1,0,0,1,0,0)" fill="rgb(19,7,84)"/><rect x="92.468" y="134.463" width="27.977" height="58.092" transform="matrix(1,0,0,1,0,0)" fill="rgb(19,7,84)"/><rect x="92.468" y="90.18" width="27.977" height="27.408" transform="matrix(1,0,0,1,0,0)" fill="rgb(255,202,0)"/><rect x="47.535" y="62.9" width="27.977" height="193.1" transform="matrix(1,0,0,1,0,0)" fill="rgb(19,7,84)"/><rect x="136.484" y="182.393" width="27.977" height="58.092" transform="matrix(1,0,0,1,0,0)" fill="rgb(19,7,84)"/><rect x="136.484" y="62.969" width="27.977" height="58.092" transform="matrix(1,0,0,1,0,0)" fill="rgb(19,7,84)"/><rect x="136.484" y="138.017" width="27.977" height="27.408" transform="matrix(1,0,0,1,0,0)" fill="rgb(231,4,136)"/><rect x="180.488" y="0" width="27.977" height="193.1" transform="matrix(1,0,0,1,0,0)" fill="rgb(19,7,84)"/></g></g></svg>