<?xml version="1.0" encoding="UTF-8" standalone="no"?>
<!-- Generator: Gravit.io -->
<svg xmlns="http://www.w3.org/2000/svg" xmlns:xlink="http://www.w3.org/1999/xlink" style="isolation:isolate" viewBox="0 0 256 256" width="256pt" height="256pt"><defs><clipPath id="_clipPath_4kb9YHMyvgRGC87huA1T6jSuIapXi5WB"><rect width="256" height="256"/></clipPath></defs><g clip-path="url(#_clipPath_4kb9YHMyvgRGC87huA1T6jSuIapXi5WB)"><g><path d=" M 251.497 153.35 C 250.004 148.829 246.095 145.681 241.039 144.926 C 238.655 144.57 235.925 144.722 232.694 145.388 C 227.062 146.549 222.884 146.992 219.835 147.077 C 231.344 127.646 240.702 105.488 246.09 84.63 C 254.801 50.902 250.146 35.537 244.706 28.588 C 230.31 10.192 209.305 0.31 183.966 0.007 C 170.448 -0.158 158.582 2.511 152.391 4.43 C 146.627 3.413 140.43 2.845 133.927 2.74 C 121.738 2.546 110.968 5.203 101.765 10.664 C 96.671 8.942 88.494 6.513 79.051 4.963 C 56.842 1.317 38.942 4.158 25.85 13.407 C 9.996 24.606 2.646 44.063 4.006 71.239 C 4.437 79.867 9.264 106.118 16.863 131.014 C 21.23 145.324 25.888 157.208 30.705 166.337 C 37.538 179.283 44.848 186.907 53.055 189.645 C 57.655 191.177 66.013 192.25 74.803 184.929 C 75.917 186.279 77.404 187.62 79.377 188.865 C 81.882 190.445 84.946 191.736 88.006 192.501 C 99.032 195.258 109.361 194.568 118.173 190.705 C 118.227 192.272 118.269 193.769 118.304 195.062 C 118.362 197.16 118.421 199.216 118.497 201.139 C 119.019 214.142 119.904 224.253 122.526 231.327 C 122.669 231.716 122.863 232.309 123.067 232.938 C 124.375 236.942 126.561 243.645 132.125 248.895 C 137.886 254.333 144.854 256 151.236 256 C 154.437 256 157.491 255.58 160.169 255.006 C 169.717 252.96 180.561 249.843 188.405 238.673 C 195.822 228.114 199.427 212.21 200.079 187.152 C 200.164 186.443 200.242 185.766 200.317 185.122 L 200.472 183.797 L 202.219 183.951 L 202.67 183.981 C 212.394 184.425 224.285 182.362 231.588 178.97 C 237.359 176.292 255.85 166.53 251.497 153.35" fill="rgb(0,0,0)"/><path d=" M 234.869 155.912 C 205.953 161.877 203.965 152.088 203.965 152.088 C 234.494 106.786 247.257 49.282 236.244 35.209 C 206.197 -3.182 154.185 14.975 153.317 15.445 L 153.038 15.496 C 147.325 14.31 140.932 13.604 133.746 13.486 C 120.663 13.272 110.738 16.916 103.206 22.627 C 103.206 22.627 10.422 -15.597 14.738 70.701 C 15.655 89.059 41.051 209.613 71.342 173.201 C 82.413 159.885 93.111 148.627 93.111 148.627 C 98.424 152.157 104.784 153.957 111.452 153.311 L 111.97 152.871 C 111.809 154.524 111.883 156.141 112.178 158.055 C 104.374 166.774 106.668 168.304 91.068 171.516 C 75.283 174.769 84.556 180.56 90.61 182.075 C 97.95 183.909 114.93 186.509 126.403 170.448 L 125.946 172.281 C 129.003 174.73 131.15 188.21 130.79 200.43 C 130.43 212.65 130.19 221.04 132.598 227.593 C 135.009 234.146 137.409 248.891 157.917 244.497 C 175.051 240.825 183.931 231.309 185.167 215.435 C 186.043 204.151 188.027 205.82 188.152 195.73 L 189.743 190.954 C 191.578 175.658 190.035 170.722 200.591 173.018 L 203.158 173.243 C 210.926 173.596 221.096 171.993 227.065 169.219 C 239.917 163.255 247.539 153.296 234.867 155.912 L 234.869 155.912" fill="rgb(51,103,145)"/><path d=" M 108.637 78.911 C 106.032 78.548 103.672 78.884 102.478 79.788 C 101.807 80.296 101.599 80.885 101.543 81.291 C 101.393 82.365 102.146 83.553 102.608 84.166 C 103.917 85.901 105.829 87.093 107.721 87.355 C 107.995 87.394 108.268 87.411 108.539 87.411 C 111.694 87.411 114.564 84.954 114.816 83.141 C 115.132 80.87 111.835 79.356 108.637 78.912 M 194.96 78.983 C 194.712 77.202 191.544 76.695 188.538 77.113 C 185.535 77.531 182.624 78.886 182.867 80.671 C 183.062 82.058 185.567 84.427 188.533 84.427 C 188.784 84.427 189.036 84.41 189.291 84.374 C 191.271 84.1 192.723 82.843 193.414 82.118 C 194.464 81.014 195.072 79.783 194.96 78.983" fill="rgb(255,255,255)"/><path d=" M 244.49 155.235 C 243.388 151.901 239.839 150.828 233.943 152.046 C 216.437 155.659 210.168 153.156 208.11 151.64 C 221.717 130.911 232.91 105.854 238.949 82.475 C 241.81 71.401 243.39 61.116 243.519 52.733 C 243.662 43.532 242.095 36.771 238.863 32.641 C 225.832 15.991 206.708 7.059 183.558 6.814 C 167.642 6.635 154.196 10.708 151.589 11.854 C 146.099 10.489 140.115 9.65 133.6 9.543 C 121.652 9.35 111.325 12.21 102.775 18.041 C 99.061 16.659 89.462 13.364 77.724 11.472 C 57.43 8.206 41.304 10.681 29.796 18.834 C 16.065 28.562 9.725 45.952 10.953 70.52 C 11.367 78.785 16.076 104.212 23.508 128.563 C 33.292 160.613 43.926 178.757 55.115 182.49 C 56.425 182.926 57.935 183.232 59.601 183.232 C 63.682 183.232 68.686 181.392 73.893 175.133 C 80.244 167.514 86.813 160.081 93.592 152.842 C 97.991 155.203 102.823 156.521 107.765 156.653 C 107.775 156.783 107.788 156.912 107.799 157.04 C 106.949 158.055 106.116 159.084 105.301 160.127 C 101.876 164.474 101.164 165.38 90.141 167.649 C 87.005 168.296 78.678 170.012 78.555 175.85 C 78.423 182.228 88.399 184.907 89.536 185.191 C 93.497 186.182 97.313 186.672 100.953 186.672 C 109.803 186.672 117.592 183.762 123.817 178.134 C 123.625 200.872 124.573 223.277 127.303 230.103 C 129.54 235.692 135.002 249.35 152.256 249.349 C 154.788 249.349 157.574 249.054 160.64 248.397 C 178.647 244.537 186.468 236.578 189.492 219.031 C 191.111 209.653 193.889 187.261 195.196 175.249 C 197.953 176.11 201.503 176.503 205.34 176.502 C 213.344 176.502 222.58 174.802 228.372 172.114 C 234.878 169.092 246.62 161.677 244.49 155.235 L 244.49 155.235 Z  M 201.607 74.069 C 201.548 77.615 201.06 80.834 200.542 84.194 C 199.985 87.808 199.41 91.545 199.265 96.08 C 199.122 100.494 199.673 105.084 200.206 109.522 C 201.283 118.486 202.389 127.715 198.11 136.822 C 197.399 135.562 196.766 134.261 196.214 132.924 C 195.682 131.635 194.527 129.564 192.927 126.697 C 186.706 115.54 172.136 89.41 179.594 78.748 C 181.816 75.575 187.454 72.312 201.607 74.069 L 201.607 74.069 Z  M 184.452 13.995 C 205.195 14.452 221.603 22.212 233.22 37.057 C 242.13 48.443 232.318 100.253 203.915 144.95 C 203.629 144.587 203.342 144.225 203.054 143.864 L 202.694 143.415 C 210.034 131.293 208.599 119.3 207.321 108.667 C 206.796 104.304 206.3 100.182 206.427 96.311 C 206.557 92.208 207.099 88.688 207.624 85.285 C 208.269 81.092 208.925 76.752 208.744 71.637 C 208.88 71.1 208.934 70.467 208.863 69.714 C 208.401 64.809 202.801 50.128 191.386 36.841 C 185.142 29.573 176.037 21.44 163.604 15.955 C 168.952 14.846 176.264 13.813 184.452 13.995 L 184.452 13.995 Z  M 68.383 170.551 C 62.647 177.448 58.686 176.126 57.383 175.693 C 48.895 172.861 39.046 154.921 30.362 126.472 C 22.848 101.856 18.457 77.102 18.109 70.161 C 17.013 48.209 22.334 32.91 33.926 24.689 C 52.793 11.31 83.81 19.318 96.274 23.379 C 96.095 23.556 95.908 23.721 95.731 23.901 C 75.279 44.556 75.764 79.846 75.814 82.004 C 75.812 82.836 75.882 84.014 75.978 85.635 C 76.33 91.571 76.985 102.618 75.235 115.128 C 73.609 126.754 77.193 138.132 85.066 146.347 C 85.873 147.189 86.723 147.989 87.61 148.747 C 84.106 152.5 76.49 160.799 68.383 170.551 L 68.383 170.551 Z  M 90.239 141.39 C 83.894 134.768 81.012 125.559 82.331 116.12 C 84.179 102.905 83.497 91.395 83.131 85.211 C 83.079 84.346 83.033 83.587 83.007 82.99 C 85.995 80.34 99.841 72.922 109.716 75.184 C 114.221 76.216 116.967 79.284 118.108 84.562 C 124.016 111.886 118.89 123.274 114.772 132.426 C 113.923 134.311 113.121 136.094 112.436 137.937 L 111.905 139.362 C 110.562 142.966 109.311 146.316 108.536 149.497 C 101.791 149.478 95.229 146.596 90.239 141.389 L 90.239 141.39 Z  M 91.274 178.239 C 89.305 177.747 87.533 176.892 86.494 176.184 C 87.362 175.775 88.907 175.219 91.587 174.667 C 104.554 171.998 106.557 170.114 110.93 164.561 C 111.933 163.287 113.069 161.844 114.643 160.086 L 114.645 160.085 C 116.989 157.459 118.062 157.905 120.006 158.712 C 121.582 159.363 123.118 161.339 123.74 163.513 C 124.034 164.54 124.365 166.488 123.283 168.005 C 114.147 180.796 100.835 180.632 91.274 178.239 L 91.274 178.239 Z  M 159.139 241.391 C 143.275 244.79 137.658 236.695 133.957 227.442 C 131.568 221.468 130.393 194.53 131.226 164.782 C 131.237 164.386 131.181 164.004 131.072 163.644 C 130.974 162.934 130.826 162.231 130.629 161.542 C 129.39 157.213 126.371 153.593 122.749 152.091 C 121.31 151.495 118.669 150.402 115.496 151.213 C 116.173 148.425 117.346 145.276 118.619 141.866 L 119.153 140.432 C 119.754 138.815 120.508 137.14 121.305 135.366 C 125.615 125.791 131.518 112.676 125.112 83.048 C 122.712 71.95 114.699 66.531 102.551 67.79 C 95.269 68.543 88.606 71.482 85.282 73.167 C 84.568 73.528 83.914 73.878 83.304 74.219 C 84.231 63.037 87.735 42.141 100.844 28.92 C 109.097 20.597 120.089 16.487 133.481 16.708 C 159.869 17.14 176.79 30.682 186.34 41.967 C 194.57 51.691 199.026 61.487 200.804 66.77 C 187.43 65.41 178.334 68.049 173.724 74.642 C 163.693 88.981 179.211 116.811 186.67 130.187 C 188.038 132.638 189.218 134.757 189.59 135.657 C 192.018 141.543 195.163 145.473 197.458 148.341 C 198.162 149.22 198.845 150.073 199.364 150.818 C 195.313 151.985 188.038 154.684 188.701 168.17 C 188.166 174.937 184.364 206.62 182.432 217.814 C 179.881 232.602 174.439 238.11 159.139 241.391 L 159.139 241.391 Z  M 225.355 165.615 C 221.213 167.537 214.282 168.979 207.697 169.289 C 200.425 169.629 196.722 168.474 195.851 167.764 C 195.443 159.359 198.57 158.481 201.881 157.552 C 202.401 157.406 202.909 157.263 203.399 157.092 C 203.703 157.34 204.037 157.586 204.402 157.827 C 210.248 161.685 220.673 162.101 235.393 159.063 L 235.554 159.031 C 233.569 160.887 230.172 163.378 225.355 165.615 Z " fill="rgb(255,255,255)"/></g></g></svg>