<?xml version="1.0" encoding="UTF-8" standalone="no"?>
<!-- Generator: Gravit.io -->
<svg xmlns="http://www.w3.org/2000/svg" xmlns:xlink="http://www.w3.org/1999/xlink" style="isolation:isolate" viewBox="0 0 256 256" width="256pt" height="256pt"><defs><clipPath id="_clipPath_iY9Jhvf2o6dQLpuONJQ8rqIdTJpD0r91"><rect width="256" height="256"/></clipPath></defs><g clip-path="url(#_clipPath_iY9Jhvf2o6dQLpuONJQ8rqIdTJpD0r91)"><g><g style="mix-blend-mode:normal;" opacity="0.5"><path d="M 188.955 243.81 L 249.905 243.81 C 253.269 243.81 256 246.541 256 249.905 L 256 249.905 C 256 253.269 253.269 256 249.905 256 L 188.955 256 C 185.591 256 182.86 253.269 182.86 249.905 L 182.86 249.905 C 182.86 246.541 185.591 243.81 188.955 243.81 Z" style="stroke:none;fill:#4D616E;stroke-miterlimit:10;"/></g><g style="mix-blend-mode:normal;" opacity="0.5"><path d="M 91.426 243.81 L 164.574 243.81 C 167.939 243.81 170.67 246.541 170.67 249.905 L 170.67 249.905 C 170.67 253.269 167.939 256 164.574 256 L 91.426 256 C 88.061 256 85.33 253.269 85.33 249.905 L 85.33 249.905 C 85.33 246.541 88.061 243.81 91.426 243.81 Z" style="stroke:none;fill:#4D616E;stroke-miterlimit:10;"/></g><path d="M 6.095 243.81 L 67.045 243.81 C 70.409 243.81 73.14 246.541 73.14 249.905 L 73.14 249.905 C 73.14 253.269 70.409 256 67.045 256 L 6.095 256 C 2.731 256 0 253.269 0 249.905 L 0 249.905 C 0 246.541 2.731 243.81 6.095 243.81 Z" style="stroke:none;fill:#EA5E5E;stroke-miterlimit:10;"/><g style="mix-blend-mode:normal;" opacity="0.5"><path d="M 201.145 219.43 L 249.905 219.43 C 253.269 219.43 256 222.161 256 225.525 L 256 225.525 C 256 228.889 253.269 231.62 249.905 231.62 L 201.145 231.62 C 197.781 231.62 195.05 228.889 195.05 225.525 L 195.05 225.525 C 195.05 222.161 197.781 219.43 201.145 219.43 Z" style="stroke:none;fill:#4D616E;stroke-miterlimit:10;"/></g><g style="mix-blend-mode:normal;" opacity="0.5"><path d="M 164.575 219.43 L 176.765 219.43 C 180.129 219.43 182.86 222.161 182.86 225.525 L 182.86 225.525 C 182.86 228.889 180.129 231.62 176.765 231.62 L 164.575 231.62 C 161.211 231.62 158.48 228.889 158.48 225.525 L 158.48 225.525 C 158.48 222.161 161.211 219.43 164.575 219.43 Z" style="stroke:none;fill:#4D616E;stroke-miterlimit:10;"/></g><g style="mix-blend-mode:normal;" opacity="0.5"><path d="M 91.426 219.43 L 140.194 219.43 C 143.558 219.43 146.29 222.161 146.29 225.525 L 146.29 225.525 C 146.29 228.889 143.558 231.62 140.194 231.62 L 91.426 231.62 C 88.062 231.62 85.33 228.889 85.33 225.525 L 85.33 225.525 C 85.33 222.161 88.062 219.43 91.426 219.43 Z" style="stroke:none;fill:#4D616E;stroke-miterlimit:10;"/></g><path d="M 54.855 219.43 L 67.045 219.43 C 70.409 219.43 73.14 222.161 73.14 225.525 L 73.14 225.525 C 73.14 228.889 70.409 231.62 67.045 231.62 L 54.855 231.62 C 51.491 231.62 48.76 228.889 48.76 225.525 L 48.76 225.525 C 48.76 222.161 51.491 219.43 54.855 219.43 Z" style="stroke:none;fill:#F7B93E;stroke-miterlimit:10;"/><path d="M 6.095 219.43 L 30.475 219.43 C 33.839 219.43 36.57 222.161 36.57 225.525 L 36.57 225.525 C 36.57 228.889 33.839 231.62 30.475 231.62 L 6.095 231.62 C 2.731 231.62 0 228.889 0 225.525 L 0 225.525 C 0 222.161 2.731 219.43 6.095 219.43 Z" style="stroke:none;fill:#56B3B4;stroke-miterlimit:10;"/><g style="mix-blend-mode:normal;" opacity="0.5"><path d="M 140.195 195.05 L 249.905 195.05 C 253.269 195.05 256 197.781 256 201.145 L 256 201.145 C 256 204.509 253.269 207.24 249.905 207.24 L 140.195 207.24 C 136.831 207.24 134.1 204.509 134.1 201.145 L 134.1 201.145 C 134.1 197.781 136.831 195.05 140.195 195.05 Z" style="stroke:none;fill:#4D616E;stroke-miterlimit:10;"/></g><g style="mix-blend-mode:normal;" opacity="0.5"><path d="M 91.425 195.05 L 115.805 195.05 C 119.169 195.05 121.9 197.781 121.9 201.145 L 121.9 201.145 C 121.9 204.509 119.169 207.24 115.805 207.24 L 91.425 207.24 C 88.061 207.24 85.33 204.509 85.33 201.145 L 85.33 201.145 C 85.33 197.781 88.061 195.05 91.425 195.05 Z" style="stroke:none;fill:#4D616E;stroke-miterlimit:10;"/></g><path d="M 6.095 195.05 L 67.045 195.05 C 70.409 195.05 73.14 197.781 73.14 201.145 L 73.14 201.145 C 73.14 204.509 70.409 207.24 67.045 207.24 L 6.095 207.24 C 2.731 207.24 0 204.509 0 201.145 L 0 201.145 C 0 197.781 2.731 195.05 6.095 195.05 Z" style="stroke:none;fill:#BF85BF;stroke-miterlimit:10;"/><g style="mix-blend-mode:normal;" opacity="0.5"><path d="M 225.525 170.67 L 249.905 170.67 C 253.269 170.67 256 173.401 256 176.765 L 256 176.765 C 256 180.129 253.269 182.86 249.905 182.86 L 225.525 182.86 C 222.161 182.86 219.43 180.129 219.43 176.765 L 219.43 176.765 C 219.43 173.401 222.161 170.67 225.525 170.67 Z" style="stroke:none;fill:#4D616E;stroke-miterlimit:10;"/></g><g style="mix-blend-mode:normal;" opacity="0.5"><path d="M 176.765 170.67 L 201.145 170.67 C 204.509 170.67 207.24 173.401 207.24 176.765 L 207.24 176.765 C 207.24 180.129 204.509 182.86 201.145 182.86 L 176.765 182.86 C 173.401 182.86 170.67 180.129 170.67 176.765 L 170.67 176.765 C 170.67 173.401 173.401 170.67 176.765 170.67 Z" style="stroke:none;fill:#4D616E;stroke-miterlimit:10;"/></g><path d="M 42.665 170.67 L 152.384 170.67 C 155.749 170.67 158.48 173.401 158.48 176.765 L 158.48 176.765 C 158.48 180.129 155.749 182.86 152.384 182.86 L 42.666 182.86 C 39.301 182.86 36.57 180.129 36.57 176.765 L 36.57 176.765 C 36.57 173.401 39.301 170.67 42.665 170.67 Z" style="stroke:none;fill:#F7B93E;stroke-miterlimit:10;"/><path d="M 6.095 170.67 L 18.285 170.67 C 21.649 170.67 24.38 173.401 24.38 176.765 L 24.38 176.765 C 24.38 180.129 21.649 182.86 18.285 182.86 L 6.095 182.86 C 2.731 182.86 0 180.129 0 176.765 L 0 176.765 C 0 173.401 2.731 170.67 6.095 170.67 Z" style="stroke:none;fill:#BF85BF;stroke-miterlimit:10;"/><g style="mix-blend-mode:normal;" opacity="0.5"><path d="M 213.335 146.29 L 249.905 146.29 C 253.269 146.29 256 149.021 256 152.385 L 256 152.385 C 256 155.749 253.269 158.48 249.905 158.48 L 213.335 158.48 C 209.971 158.48 207.24 155.749 207.24 152.385 L 207.24 152.385 C 207.24 149.021 209.971 146.29 213.335 146.29 Z" style="stroke:none;fill:#4D616E;stroke-miterlimit:10;"/></g><path d="M 152.385 146.29 L 188.955 146.29 C 192.319 146.29 195.05 149.021 195.05 152.385 L 195.05 152.385 C 195.05 155.749 192.319 158.48 188.955 158.48 L 152.385 158.48 C 149.021 158.48 146.29 155.749 146.29 152.385 L 146.29 152.385 C 146.29 149.021 149.021 146.29 152.385 146.29 Z" style="stroke:none;fill:#BF85BF;stroke-miterlimit:10;"/><path d="M 79.236 146.29 L 128.004 146.29 C 131.368 146.29 134.1 149.021 134.1 152.385 L 134.1 152.385 C 134.1 155.749 131.368 158.48 128.004 158.48 L 79.236 158.48 C 75.872 158.48 73.14 155.749 73.14 152.385 L 73.14 152.385 C 73.14 149.021 75.872 146.29 79.236 146.29 Z" style="stroke:none;fill:#EA5E5E;stroke-miterlimit:10;"/><path d="M 6.095 146.29 L 54.855 146.29 C 58.219 146.29 60.95 149.021 60.95 152.385 L 60.95 152.385 C 60.95 155.749 58.219 158.48 54.855 158.48 L 6.095 158.48 C 2.731 158.48 0 155.749 0 152.385 L 0 152.385 C 0 149.021 2.731 146.29 6.095 146.29 Z" style="stroke:none;fill:#56B3B4;stroke-miterlimit:10;"/><g style="mix-blend-mode:normal;" opacity="0.5"><path d="M 225.525 121.9 L 249.905 121.9 C 253.269 121.9 256 124.633 256 128 L 256 128 C 256 131.367 253.269 134.1 249.905 134.1 L 225.525 134.1 C 222.161 134.1 219.43 131.367 219.43 128 L 219.43 128 C 219.43 124.633 222.161 121.9 225.525 121.9 Z" style="stroke:none;fill:#4D616E;stroke-miterlimit:10;"/></g><path d="M 103.616 121.9 L 201.144 121.9 C 204.509 121.9 207.24 124.633 207.24 128 L 207.24 128 C 207.24 131.367 204.509 134.1 201.144 134.1 L 103.616 134.1 C 100.251 134.1 97.52 131.367 97.52 128 L 97.52 128 C 97.52 124.633 100.251 121.9 103.616 121.9 Z" style="stroke:none;fill:#56B3B4;stroke-miterlimit:10;"/><path d="M 42.665 121.9 L 79.235 121.9 C 82.599 121.9 85.33 124.633 85.33 128 L 85.33 128 C 85.33 131.367 82.599 134.1 79.235 134.1 L 42.665 134.1 C 39.301 134.1 36.57 131.367 36.57 128 L 36.57 128 C 36.57 124.633 39.301 121.9 42.665 121.9 Z" style="stroke:none;fill:#F7B93E;stroke-miterlimit:10;"/><path d="M 6.095 121.9 L 18.285 121.9 C 21.649 121.9 24.38 124.633 24.38 128 L 24.38 128 C 24.38 131.367 21.649 134.1 18.285 134.1 L 6.095 134.1 C 2.731 134.1 0 131.367 0 128 L 0 128 C 0 124.633 2.731 121.9 6.095 121.9 Z" style="stroke:none;fill:#EA5E5E;stroke-miterlimit:10;"/><g style="mix-blend-mode:normal;" opacity="0.5"><path d="M 237.715 97.52 L 249.905 97.52 C 253.269 97.52 256 100.251 256 103.615 L 256 103.615 C 256 106.979 253.269 109.71 249.905 109.71 L 237.715 109.71 C 234.351 109.71 231.62 106.979 231.62 103.615 L 231.62 103.615 C 231.62 100.251 234.351 97.52 237.715 97.52 Z" style="stroke:none;fill:#4D616E;stroke-miterlimit:10;"/></g><path d="M 152.385 97.52 L 213.335 97.52 C 216.699 97.52 219.43 100.251 219.43 103.615 L 219.43 103.615 C 219.43 106.979 216.699 109.71 213.335 109.71 L 152.385 109.71 C 149.021 109.71 146.29 106.979 146.29 103.615 L 146.29 103.615 C 146.29 100.251 149.021 97.52 152.385 97.52 Z" style="stroke:none;fill:#F7B93E;stroke-miterlimit:10;"/><g style="mix-blend-mode:normal;" opacity="0.5"><path d="M 91.426 97.52 L 128.004 97.52 C 131.368 97.52 134.1 100.251 134.1 103.615 L 134.1 103.615 C 134.1 106.979 131.368 109.71 128.004 109.71 L 91.426 109.71 C 88.062 109.71 85.33 106.979 85.33 103.615 L 85.33 103.615 C 85.33 100.251 88.062 97.52 91.426 97.52 Z" style="stroke:none;fill:#4D616E;stroke-miterlimit:10;"/></g><path d="M 6.095 97.52 L 67.045 97.52 C 70.409 97.52 73.14 100.251 73.14 103.615 L 73.14 103.615 C 73.14 106.979 70.409 109.71 67.045 109.71 L 6.095 109.71 C 2.731 109.71 0 106.979 0 103.615 L 0 103.615 C 0 100.251 2.731 97.52 6.095 97.52 Z" style="stroke:none;fill:#BF85BF;stroke-miterlimit:10;"/><g style="mix-blend-mode:normal;" opacity="0.5"><path d="M 237.715 73.14 L 249.905 73.14 C 253.269 73.14 256 75.871 256 79.235 L 256 79.235 C 256 82.599 253.269 85.33 249.905 85.33 L 237.715 85.33 C 234.351 85.33 231.62 82.599 231.62 79.235 L 231.62 79.235 C 231.62 75.871 234.351 73.14 237.715 73.14 Z" style="stroke:none;fill:#4D616E;stroke-miterlimit:10;"/></g><path d="M 152.385 73.14 L 213.335 73.14 C 216.699 73.14 219.43 75.871 219.43 79.235 L 219.43 79.235 C 219.43 82.599 216.699 85.33 213.335 85.33 L 152.385 85.33 C 149.021 85.33 146.29 82.599 146.29 79.235 L 146.29 79.235 C 146.29 75.871 149.021 73.14 152.385 73.14 Z" style="stroke:none;fill:#EA5E5E;stroke-miterlimit:10;"/><g style="mix-blend-mode:normal;" opacity="0.5"><path d="M 91.426 73.14 L 128.004 73.14 C 131.368 73.14 134.1 75.871 134.1 79.235 L 134.1 79.235 C 134.1 82.599 131.368 85.33 128.004 85.33 L 91.426 85.33 C 88.062 85.33 85.33 82.599 85.33 79.235 L 85.33 79.235 C 85.33 75.871 88.062 73.14 91.426 73.14 Z" style="stroke:none;fill:#4D616E;stroke-miterlimit:10;"/></g><path d="M 54.855 73.14 L 67.045 73.14 C 70.409 73.14 73.14 75.871 73.14 79.235 L 73.14 79.235 C 73.14 82.599 70.409 85.33 67.045 85.33 L 54.855 85.33 C 51.491 85.33 48.76 82.599 48.76 79.235 L 48.76 79.235 C 48.76 75.871 51.491 73.14 54.855 73.14 Z" style="stroke:none;fill:#56B3B4;stroke-miterlimit:10;"/><path d="M 6.095 73.14 L 30.475 73.14 C 33.839 73.14 36.57 75.871 36.57 79.235 L 36.57 79.235 C 36.57 82.599 33.839 85.33 30.475 85.33 L 6.095 85.33 C 2.731 85.33 0 82.599 0 79.235 L 0 79.235 C 0 75.871 2.731 73.14 6.095 73.14 Z" style="stroke:none;fill:#F7B93E;stroke-miterlimit:10;"/><g style="mix-blend-mode:normal;" opacity="0.5"><path d="M 225.525 48.76 L 249.905 48.76 C 253.269 48.76 256 51.491 256 54.855 L 256 54.855 C 256 58.219 253.269 60.95 249.905 60.95 L 225.525 60.95 C 222.161 60.95 219.43 58.219 219.43 54.855 L 219.43 54.855 C 219.43 51.491 222.161 48.76 225.525 48.76 Z" style="stroke:none;fill:#4D616E;stroke-miterlimit:10;"/></g><path d="M 188.955 48.76 L 201.145 48.76 C 204.509 48.76 207.24 51.491 207.24 54.855 L 207.24 54.855 C 207.24 58.219 204.509 60.95 201.145 60.95 L 188.955 60.95 C 185.591 60.95 182.86 58.219 182.86 54.855 L 182.86 54.855 C 182.86 51.491 185.591 48.76 188.955 48.76 Z" style="stroke:none;fill:#56B3B4;stroke-miterlimit:10;"/><path d="M 115.806 48.76 L 164.574 48.76 C 167.938 48.76 170.67 51.491 170.67 54.855 L 170.67 54.855 C 170.67 58.219 167.938 60.95 164.574 60.95 L 115.806 60.95 C 112.442 60.95 109.71 58.219 109.71 54.855 L 109.71 54.855 C 109.71 51.491 112.442 48.76 115.806 48.76 Z" style="stroke:none;fill:#BF85BF;stroke-miterlimit:10;"/><path d="M 6.095 48.76 L 91.425 48.76 C 94.789 48.76 97.52 51.491 97.52 54.855 L 97.52 54.855 C 97.52 58.219 94.789 60.95 91.425 60.95 L 6.095 60.95 C 2.731 60.95 0 58.219 0 54.855 L 0 54.855 C 0 51.491 2.731 48.76 6.095 48.76 Z" style="stroke:none;fill:#56B3B4;stroke-miterlimit:10;"/><g style="mix-blend-mode:normal;" opacity="0.5"><path d="M 213.335 24.38 L 249.905 24.38 C 253.269 24.38 256 27.111 256 30.475 L 256 30.475 C 256 33.839 253.269 36.57 249.905 36.57 L 213.335 36.57 C 209.971 36.57 207.24 33.839 207.24 30.475 L 207.24 30.475 C 207.24 27.111 209.971 24.38 213.335 24.38 Z" style="stroke:none;fill:#4D616E;stroke-miterlimit:10;"/></g><path d="M 67.045 24.38 L 188.955 24.38 C 192.319 24.38 195.05 27.111 195.05 30.475 L 195.05 30.475 C 195.05 33.839 192.319 36.57 188.955 36.57 L 67.045 36.57 C 63.681 36.57 60.95 33.839 60.95 30.475 L 60.95 30.475 C 60.95 27.111 63.681 24.38 67.045 24.38 Z" style="stroke:none;fill:#F7B93E;stroke-miterlimit:10;"/><path d="M 6.095 24.38 L 42.665 24.38 C 46.029 24.38 48.76 27.111 48.76 30.475 L 48.76 30.475 C 48.76 33.839 46.029 36.57 42.665 36.57 L 6.095 36.57 C 2.731 36.57 0 33.839 0 30.475 L 0 30.475 C 0 27.111 2.731 24.38 6.095 24.38 Z" style="stroke:none;fill:#EA5E5E;stroke-miterlimit:10;"/><g style="mix-blend-mode:normal;" opacity="0.5"><path d="M 176.765 0 L 249.905 0 C 253.269 0 256 2.731 256 6.095 L 256 6.095 C 256 9.459 253.269 12.19 249.905 12.19 L 176.765 12.19 C 173.401 12.19 170.67 9.459 170.67 6.095 L 170.67 6.095 C 170.67 2.731 173.401 0 176.765 0 Z" style="stroke:none;fill:#4D616E;stroke-miterlimit:10;"/></g><path d="M 6.095 0 L 152.385 0 C 155.749 0 158.48 2.731 158.48 6.095 L 158.48 6.095 C 158.48 9.459 155.749 12.19 152.385 12.19 L 6.095 12.19 C 2.731 12.19 0 9.459 0 6.095 L 0 6.095 C 0 2.731 2.731 0 6.095 0 Z" style="stroke:none;fill:#56B3B4;stroke-miterlimit:10;"/></g></g></svg>