<?xml version="1.0" encoding="UTF-8" standalone="no"?>
<!-- Generator: Gravit.io -->
<svg xmlns="http://www.w3.org/2000/svg" xmlns:xlink="http://www.w3.org/1999/xlink" style="isolation:isolate" viewBox="0 0 256 256" width="256pt" height="256pt"><defs><clipPath id="_clipPath_ssM0vQj5b9JbGyaNiuuGlkfsBZ6PfCKk"><rect width="256" height="256"/></clipPath></defs><g clip-path="url(#_clipPath_ssM0vQj5b9JbGyaNiuuGlkfsBZ6PfCKk)"><path d=" M 54.859 219.429 L 67.051 219.429 C 68.666 219.429 70.215 220.071 71.357 221.213 C 72.5 222.355 73.141 223.905 73.141 225.52 L 73.141 225.52 C 73.141 227.135 72.5 228.685 71.357 229.827 C 70.215 230.969 68.666 231.611 67.051 231.611 L 54.859 231.611 C 53.243 231.611 51.694 230.969 50.552 229.827 C 49.41 228.685 48.768 227.135 48.768 225.52 L 48.768 225.52 C 48.768 223.905 49.41 222.355 50.552 221.213 C 51.694 220.071 53.243 219.429 54.859 219.429 Z  M 42.667 121.915 L 79.243 121.915 C 82.606 121.915 85.333 124.642 85.333 128.005 L 85.333 128.005 C 85.333 129.621 84.692 131.17 83.549 132.312 C 82.407 133.454 80.858 134.096 79.243 134.096 L 42.667 134.096 C 41.051 134.096 39.502 133.454 38.36 132.312 C 37.218 131.17 36.576 129.621 36.576 128.005 L 36.576 128.005 C 36.576 124.642 39.303 121.915 42.667 121.915 Z  M 42.667 170.672 L 152.384 170.672 C 153.999 170.672 155.549 171.314 156.691 172.456 C 157.833 173.598 158.475 175.147 158.475 176.763 L 158.475 176.763 C 158.475 178.378 157.833 179.927 156.691 181.069 C 155.549 182.212 153.999 182.853 152.384 182.853 L 42.667 182.853 C 41.051 182.853 39.502 182.212 38.36 181.069 C 37.218 179.927 36.576 178.378 36.576 176.763 L 36.576 176.763 C 36.576 175.147 37.218 173.598 38.36 172.456 C 39.502 171.314 41.051 170.672 42.667 170.672 Z  M 188.949 48.763 L 201.141 48.763 C 202.757 48.763 204.306 49.404 205.448 50.547 C 206.59 51.689 207.232 53.238 207.232 54.853 L 207.232 54.853 C 207.232 56.469 206.59 58.018 205.448 59.16 C 204.306 60.302 202.757 60.944 201.141 60.944 L 188.949 60.944 C 187.334 60.944 185.785 60.302 184.643 59.16 C 183.5 58.018 182.859 56.469 182.859 54.853 L 182.859 54.853 C 182.859 53.238 183.5 51.689 184.643 50.547 C 185.785 49.404 187.334 48.763 188.949 48.763 Z  M 152.384 146.288 L 188.96 146.288 C 190.575 146.288 192.125 146.93 193.267 148.072 C 194.409 149.214 195.051 150.763 195.051 152.379 L 195.051 152.379 C 195.051 153.994 194.409 155.543 193.267 156.685 C 192.125 157.828 190.575 158.469 188.96 158.469 L 152.384 158.469 C 150.769 158.469 149.219 157.828 148.077 156.685 C 146.935 155.543 146.293 153.994 146.293 152.379 L 146.293 152.379 C 146.293 150.763 146.935 149.214 148.077 148.072 C 149.219 146.93 150.769 146.288 152.384 146.288 Z  M 79.243 146.288 L 128 146.288 C 129.615 146.288 131.165 146.93 132.307 148.072 C 133.449 149.214 134.091 150.763 134.091 152.379 L 134.091 152.379 C 134.091 153.994 133.449 155.543 132.307 156.685 C 131.165 157.828 129.615 158.469 128 158.469 L 79.243 158.469 C 77.627 158.469 76.078 157.828 74.936 156.685 C 73.794 155.543 73.152 153.994 73.152 152.379 L 73.152 152.379 C 73.152 150.763 73.794 149.214 74.936 148.072 C 76.078 146.93 77.627 146.288 79.243 146.288 Z  M 54.859 73.147 L 67.051 73.147 C 70.414 73.147 73.141 75.874 73.141 79.237 L 73.141 79.237 C 73.141 82.601 70.414 85.328 67.051 85.328 L 54.859 85.328 C 51.495 85.328 48.768 82.601 48.768 79.237 L 48.768 79.237 C 48.768 75.874 51.495 73.147 54.859 73.147 Z  M 103.616 121.915 L 201.141 121.915 C 202.757 121.915 204.306 122.556 205.448 123.699 C 206.59 124.841 207.232 126.39 207.232 128.005 L 207.232 128.005 C 207.232 129.621 206.59 131.17 205.448 132.312 C 204.306 133.454 202.757 134.096 201.141 134.096 L 103.616 134.096 C 102.001 134.096 100.451 133.454 99.309 132.312 C 98.167 131.17 97.525 129.621 97.525 128.005 L 97.525 128.005 C 97.525 124.642 100.252 121.915 103.616 121.915 Z  M 115.808 48.763 L 164.565 48.763 C 166.184 48.76 167.738 49.402 168.883 50.547 C 170.028 51.691 170.669 53.245 170.667 54.864 L 170.667 54.864 C 170.667 56.479 170.025 58.029 168.883 59.171 C 167.741 60.313 166.191 60.955 164.576 60.955 L 115.808 60.955 C 112.444 60.955 109.717 58.228 109.717 54.864 L 109.717 54.864 C 109.714 53.247 110.355 51.695 111.497 50.55 C 112.64 49.406 114.191 48.763 115.808 48.763 L 115.808 48.763 Z  M 152.384 73.147 L 213.333 73.147 C 214.949 73.147 216.498 73.788 217.64 74.931 C 218.782 76.073 219.424 77.622 219.424 79.237 L 219.424 79.237 C 219.427 80.855 218.786 82.406 217.644 83.551 C 216.501 84.696 214.951 85.339 213.333 85.339 L 152.384 85.339 C 150.769 85.339 149.219 84.697 148.077 83.555 C 146.935 82.413 146.293 80.863 146.293 79.248 L 146.293 79.248 C 146.291 77.631 146.931 76.079 148.073 74.934 C 149.216 73.79 150.767 73.147 152.384 73.147 L 152.384 73.147 Z  M 152.384 97.531 L 213.333 97.531 C 214.949 97.531 216.498 98.172 217.64 99.315 C 218.782 100.457 219.424 102.006 219.424 103.621 L 219.424 103.621 C 219.424 105.237 218.782 106.786 217.64 107.928 C 216.498 109.07 214.949 109.712 213.333 109.712 L 152.384 109.712 C 150.769 109.712 149.219 109.07 148.077 107.928 C 146.935 106.786 146.293 105.237 146.293 103.621 L 146.293 103.621 C 146.293 102.006 146.935 100.457 148.077 99.315 C 149.219 98.172 150.769 97.531 152.384 97.531 Z  M 6.091 243.813 L 67.04 243.813 C 68.655 243.813 70.205 244.455 71.347 245.597 C 72.489 246.739 73.131 248.289 73.131 249.904 L 73.131 249.904 C 73.131 251.519 72.489 253.069 71.347 254.211 C 70.205 255.353 68.655 255.995 67.04 255.995 L 6.091 255.995 C 2.731 255.995 0.006 253.274 0 249.915 L 0 249.915 C -0.003 248.297 0.638 246.746 1.78 245.601 C 2.923 244.456 4.473 243.813 6.091 243.813 L 6.091 243.813 Z  M 6.091 146.288 L 54.859 146.288 C 56.474 146.288 58.023 146.93 59.165 148.072 C 60.308 149.214 60.949 150.763 60.949 152.379 L 60.949 152.379 C 60.949 153.994 60.308 155.543 59.165 156.685 C 58.023 157.828 56.474 158.469 54.859 158.469 L 6.091 158.469 C 2.731 158.469 0.006 155.749 0 152.389 L 0 152.389 C -0.003 150.772 0.638 149.22 1.78 148.076 C 2.923 146.931 4.473 146.288 6.091 146.288 L 6.091 146.288 Z  M 6.091 195.056 L 67.04 195.056 C 68.655 195.056 70.205 195.698 71.347 196.84 C 72.489 197.982 73.131 199.531 73.131 201.147 L 73.131 201.147 C 73.131 202.762 72.489 204.311 71.347 205.453 C 70.205 206.596 68.655 207.237 67.04 207.237 L 6.091 207.237 C 4.475 207.237 2.926 206.596 1.784 205.453 C 0.642 204.311 0 202.762 0 201.147 L 0 201.147 C 0 197.783 2.727 195.056 6.091 195.056 Z  M 6.091 219.429 L 30.475 219.429 C 32.09 219.429 33.639 220.071 34.781 221.213 C 35.924 222.355 36.565 223.905 36.565 225.52 L 36.565 225.52 C 36.565 227.135 35.924 228.685 34.781 229.827 C 33.639 230.969 32.09 231.611 30.475 231.611 L 6.091 231.611 C 2.731 231.611 0.006 228.89 0 225.531 L 0 225.531 C -0.003 223.913 0.638 222.362 1.78 221.217 C 2.923 220.072 4.473 219.429 6.091 219.429 L 6.091 219.429 Z  M 6.091 121.915 L 18.283 121.915 C 19.9 121.912 21.452 122.552 22.596 123.695 C 23.741 124.837 24.384 126.388 24.384 128.005 L 24.384 128.005 C 24.384 129.621 23.742 131.17 22.6 132.312 C 21.458 133.454 19.909 134.096 18.293 134.096 L 6.091 134.096 C 4.475 134.096 2.926 133.454 1.784 132.312 C 0.642 131.17 0 129.621 0 128.005 L 0 128.005 C 0 124.642 2.727 121.915 6.091 121.915 Z  M 6.091 170.672 L 18.283 170.672 C 19.898 170.672 21.447 171.314 22.589 172.456 C 23.732 173.598 24.373 175.147 24.373 176.763 L 24.373 176.763 C 24.373 178.378 23.732 179.927 22.589 181.069 C 21.447 182.212 19.898 182.853 18.283 182.853 L 6.091 182.853 C 4.475 182.853 2.926 182.212 1.784 181.069 C 0.642 179.927 0 178.378 0 176.763 L 0 176.763 C 0 175.147 0.642 173.598 1.784 172.456 C 2.926 171.314 4.475 170.672 6.091 170.672 Z  M 6.091 97.531 L 67.04 97.531 C 70.404 97.531 73.131 100.258 73.131 103.621 L 73.131 103.621 C 73.131 106.985 70.404 109.712 67.04 109.712 L 6.091 109.712 C 2.727 109.712 0 106.985 0 103.621 L 0 103.621 C 0 100.258 2.727 97.531 6.091 97.531 Z  M 6.091 73.147 L 30.475 73.147 C 33.838 73.147 36.565 75.874 36.565 79.237 L 36.565 79.237 C 36.568 80.855 35.928 82.406 34.785 83.551 C 33.643 84.696 32.092 85.339 30.475 85.339 L 6.091 85.339 C 2.727 85.339 0 82.612 0 79.248 L 0 79.248 C -0.003 77.631 0.638 76.079 1.78 74.934 C 2.923 73.79 4.473 73.147 6.091 73.147 L 6.091 73.147 Z  M 6.091 48.763 L 91.424 48.763 C 94.788 48.763 97.515 51.49 97.515 54.853 L 97.515 54.853 C 97.515 58.217 94.788 60.944 91.424 60.944 L 6.091 60.944 C 2.731 60.944 0.006 58.224 0 54.864 L 0 54.864 C -0.003 53.247 0.638 51.695 1.78 50.55 C 2.923 49.406 4.473 48.763 6.091 48.763 L 6.091 48.763 Z  M 67.051 24.389 L 188.949 24.389 C 190.565 24.389 192.114 25.031 193.256 26.173 C 194.398 27.315 195.04 28.865 195.04 30.48 L 195.04 30.48 C 195.04 32.095 194.398 33.645 193.256 34.787 C 192.114 35.929 190.565 36.571 188.949 36.571 L 67.051 36.571 C 63.687 36.571 60.96 33.844 60.96 30.48 L 60.96 30.48 C 60.96 27.116 63.687 24.389 67.051 24.389 Z  M 6.091 24.389 L 42.667 24.389 C 46.03 24.389 48.757 27.116 48.757 30.48 L 48.757 30.48 C 48.76 32.097 48.12 33.649 46.977 34.794 C 45.835 35.938 44.284 36.581 42.667 36.581 L 6.091 36.581 C 4.473 36.581 2.923 35.938 1.78 34.794 C 0.638 33.649 -0.003 32.097 0 30.48 L 0 30.48 C 0 28.865 0.642 27.315 1.784 26.173 C 2.926 25.031 4.475 24.389 6.091 24.389 Z  M 6.091 0.005 L 152.384 0.005 C 153.999 0.005 155.549 0.647 156.691 1.789 C 157.833 2.931 158.475 4.481 158.475 6.096 L 158.475 6.096 C 158.475 7.711 157.833 9.261 156.691 10.403 C 155.549 11.545 153.999 12.187 152.384 12.187 L 6.091 12.187 C 2.727 12.187 0 9.46 0 6.096 L 0 6.096 C 0 2.732 2.727 0.005 6.091 0.005 Z " fill-rule="evenodd" fill="rgb(255,255,255)"/><g opacity="0.5"><path d=" M 164.576 219.429 L 176.768 219.429 C 178.383 219.429 179.933 220.071 181.075 221.213 C 182.217 222.355 182.859 223.905 182.859 225.52 L 182.859 225.52 C 182.859 227.135 182.217 228.685 181.075 229.827 C 179.933 230.969 178.383 231.611 176.768 231.611 L 164.576 231.611 C 162.961 231.611 161.411 230.969 160.269 229.827 C 159.127 228.685 158.485 227.135 158.485 225.52 L 158.485 225.52 C 158.485 223.905 159.127 222.355 160.269 221.213 C 161.411 220.071 162.961 219.429 164.576 219.429 Z  M 91.424 219.429 L 140.181 219.429 C 141.797 219.429 143.346 220.071 144.488 221.213 C 145.63 222.355 146.272 223.905 146.272 225.52 L 146.272 225.52 C 146.272 227.135 145.63 228.685 144.488 229.827 C 143.346 230.969 141.797 231.611 140.181 231.611 L 91.424 231.611 C 88.064 231.611 85.339 228.89 85.333 225.531 L 85.333 225.531 C 85.331 223.913 85.971 222.362 87.113 221.217 C 88.256 220.072 89.807 219.429 91.424 219.429 L 91.424 219.429 Z  M 176.757 170.672 L 201.141 170.672 C 202.757 170.672 204.306 171.314 205.448 172.456 C 206.59 173.598 207.232 175.147 207.232 176.763 L 207.232 176.763 C 207.232 178.378 206.59 179.927 205.448 181.069 C 204.306 182.212 202.757 182.853 201.141 182.853 L 176.757 182.853 C 175.142 182.853 173.593 182.212 172.451 181.069 C 171.308 179.927 170.667 178.378 170.667 176.763 L 170.667 176.763 C 170.667 175.147 171.308 173.598 172.451 172.456 C 173.593 171.314 175.142 170.672 176.757 170.672 Z  M 91.424 195.056 L 115.808 195.056 C 117.423 195.056 118.973 195.698 120.115 196.84 C 121.257 197.982 121.899 199.531 121.899 201.147 L 121.899 201.147 C 121.899 202.762 121.257 204.311 120.115 205.453 C 118.973 206.596 117.423 207.237 115.808 207.237 L 91.424 207.237 C 89.809 207.237 88.259 206.596 87.117 205.453 C 85.975 204.311 85.333 202.762 85.333 201.147 L 85.333 201.147 C 85.333 197.783 88.06 195.056 91.424 195.056 Z  M 201.141 219.429 L 249.899 219.429 C 251.514 219.429 253.063 220.071 254.205 221.213 C 255.348 222.355 255.989 223.905 255.989 225.52 L 255.989 225.52 C 255.989 227.135 255.348 228.685 254.205 229.827 C 253.063 230.969 251.514 231.611 249.899 231.611 L 201.141 231.611 C 199.526 231.611 197.977 230.969 196.835 229.827 C 195.692 228.685 195.051 227.135 195.051 225.52 L 195.051 225.52 C 195.051 223.905 195.692 222.355 196.835 221.213 C 197.977 220.071 199.526 219.429 201.141 219.429 Z  M 176.757 0.005 L 249.899 0.005 C 251.516 0.003 253.068 0.643 254.212 1.785 C 255.357 2.928 256 4.479 256 6.096 L 256 6.096 C 256 7.711 255.358 9.261 254.216 10.403 C 253.074 11.545 251.525 12.187 249.909 12.187 L 176.757 12.187 C 175.142 12.187 173.593 11.545 172.451 10.403 C 171.308 9.261 170.667 7.711 170.667 6.096 L 170.667 6.096 C 170.667 4.481 171.308 2.931 172.451 1.789 C 173.593 0.647 175.142 0.005 176.757 0.005 Z  M 225.525 170.672 L 249.909 170.672 C 251.525 170.672 253.074 171.314 254.216 172.456 C 255.358 173.598 256 175.147 256 176.763 L 256 176.763 C 256 178.378 255.358 179.927 254.216 181.069 C 253.074 182.212 251.525 182.853 249.909 182.853 L 225.525 182.853 C 223.91 182.853 222.361 182.212 221.219 181.069 C 220.076 179.927 219.435 178.378 219.435 176.763 L 219.435 176.763 C 219.435 175.147 220.076 173.598 221.219 172.456 C 222.361 171.314 223.91 170.672 225.525 170.672 Z  M 213.333 146.288 L 249.909 146.288 C 251.525 146.288 253.074 146.93 254.216 148.072 C 255.358 149.214 256 150.763 256 152.379 L 256 152.379 C 256 153.994 255.358 155.543 254.216 156.685 C 253.074 157.828 251.525 158.469 249.909 158.469 L 213.333 158.469 C 211.718 158.469 210.169 157.828 209.027 156.685 C 207.884 155.543 207.243 153.994 207.243 152.379 L 207.243 152.379 C 207.243 150.763 207.884 149.214 209.027 148.072 C 210.169 146.93 211.718 146.288 213.333 146.288 Z  M 213.333 24.389 L 249.909 24.389 C 251.525 24.389 253.074 25.031 254.216 26.173 C 255.358 27.315 256 28.865 256 30.48 L 256 30.48 C 256 32.095 255.358 33.645 254.216 34.787 C 253.074 35.929 251.525 36.571 249.909 36.571 L 213.333 36.571 C 211.718 36.571 210.169 35.929 209.027 34.787 C 207.884 33.645 207.243 32.095 207.243 30.48 L 207.243 30.48 C 207.243 28.865 207.884 27.315 209.027 26.173 C 210.169 25.031 211.718 24.389 213.333 24.389 Z  M 225.525 121.915 L 249.909 121.915 C 253.273 121.915 256 124.642 256 128.005 L 256 128.005 C 256 129.621 255.358 131.17 254.216 132.312 C 253.074 133.454 251.525 134.096 249.909 134.096 L 225.525 134.096 C 223.908 134.099 222.356 133.458 221.212 132.316 C 220.067 131.173 219.424 129.623 219.424 128.005 L 219.424 128.005 C 219.424 126.388 220.067 124.837 221.212 123.695 C 222.356 122.552 223.908 121.912 225.525 121.915 L 225.525 121.915 Z  M 225.525 48.763 L 249.909 48.763 C 251.527 48.763 253.077 49.406 254.22 50.55 C 255.362 51.695 256.003 53.247 256 54.864 L 256 54.864 C 256 56.479 255.358 58.029 254.216 59.171 C 253.074 60.313 251.525 60.955 249.909 60.955 L 225.525 60.955 C 223.91 60.955 222.361 60.313 221.219 59.171 C 220.076 58.029 219.435 56.479 219.435 54.864 L 219.435 54.864 C 219.432 53.247 220.072 51.695 221.215 50.55 C 222.357 49.406 223.908 48.763 225.525 48.763 L 225.525 48.763 Z  M 237.717 73.147 L 249.909 73.147 C 251.525 73.147 253.074 73.788 254.216 74.931 C 255.358 76.073 256 77.622 256 79.237 L 256 79.237 C 256 80.853 255.358 82.402 254.216 83.544 C 253.074 84.686 251.525 85.328 249.909 85.328 L 237.717 85.328 C 236.102 85.328 234.553 84.686 233.411 83.544 C 232.268 82.402 231.627 80.853 231.627 79.237 L 231.627 79.237 C 231.627 77.622 232.268 76.073 233.411 74.931 C 234.553 73.788 236.102 73.147 237.717 73.147 Z  M 237.717 97.531 L 249.909 97.531 C 251.525 97.531 253.074 98.172 254.216 99.315 C 255.358 100.457 256 102.006 256 103.621 L 256 103.621 C 256 105.237 255.358 106.786 254.216 107.928 C 253.074 109.07 251.525 109.712 249.909 109.712 L 237.717 109.712 C 236.102 109.712 234.553 109.07 233.411 107.928 C 232.268 106.786 231.627 105.237 231.627 103.621 L 231.627 103.621 C 231.627 102.006 232.268 100.457 233.411 99.315 C 234.553 98.172 236.102 97.531 237.717 97.531 Z  M 140.192 195.056 L 249.909 195.056 C 251.525 195.056 253.074 195.698 254.216 196.84 C 255.358 197.982 256 199.531 256 201.147 L 256 201.147 C 256 202.762 255.358 204.311 254.216 205.453 C 253.074 206.596 251.525 207.237 249.909 207.237 L 140.192 207.237 C 138.577 207.237 137.027 206.596 135.885 205.453 C 134.743 204.311 134.101 202.762 134.101 201.147 L 134.101 201.147 C 134.101 199.531 134.743 197.982 135.885 196.84 C 137.027 195.698 138.577 195.056 140.192 195.056 Z  M 188.949 243.813 L 249.899 243.813 C 251.514 243.813 253.063 244.455 254.205 245.597 C 255.348 246.739 255.989 248.289 255.989 249.904 L 255.989 249.904 C 255.989 251.519 255.348 253.069 254.205 254.211 C 253.063 255.353 251.514 255.995 249.899 255.995 L 188.949 255.995 C 187.334 255.995 185.785 255.353 184.643 254.211 C 183.5 253.069 182.859 251.519 182.859 249.904 L 182.859 249.904 C 182.859 248.289 183.5 246.739 184.643 245.597 C 185.785 244.455 187.334 243.813 188.949 243.813 Z  M 91.424 243.813 L 164.565 243.813 C 166.181 243.813 167.73 244.455 168.872 245.597 C 170.014 246.739 170.656 248.289 170.656 249.904 L 170.656 249.904 C 170.656 251.519 170.014 253.069 168.872 254.211 C 167.73 255.353 166.181 255.995 164.565 255.995 L 91.424 255.995 C 88.064 255.995 85.339 253.274 85.333 249.915 L 85.333 249.915 C 85.331 248.297 85.971 246.746 87.113 245.601 C 88.256 244.456 89.807 243.813 91.424 243.813 L 91.424 243.813 Z  M 91.424 73.147 L 128 73.147 C 129.615 73.147 131.165 73.788 132.307 74.931 C 133.449 76.073 134.091 77.622 134.091 79.237 L 134.091 79.237 C 134.094 80.855 133.453 82.406 132.311 83.551 C 131.168 84.696 129.617 85.339 128 85.339 L 91.424 85.339 C 88.06 85.339 85.333 82.612 85.333 79.248 L 85.333 79.248 C 85.331 77.631 85.971 76.079 87.113 74.934 C 88.256 73.79 89.807 73.147 91.424 73.147 L 91.424 73.147 Z  M 91.424 97.531 L 128 97.531 C 129.615 97.531 131.165 98.172 132.307 99.315 C 133.449 100.457 134.091 102.006 134.091 103.621 L 134.091 103.621 C 134.091 105.237 133.449 106.786 132.307 107.928 C 131.165 109.07 129.615 109.712 128 109.712 L 91.424 109.712 C 88.06 109.712 85.333 106.985 85.333 103.621 L 85.333 103.621 C 85.333 100.258 88.06 97.531 91.424 97.531 Z " fill-rule="evenodd" fill="none"/></g></g></svg>