<?xml version="1.0" encoding="UTF-8" standalone="no"?>
<!-- Generator: Gravit.io -->
<svg xmlns="http://www.w3.org/2000/svg" xmlns:xlink="http://www.w3.org/1999/xlink" style="isolation:isolate" viewBox="0 0 256 256" width="256pt" height="256pt"><defs><clipPath id="_clipPath_fWgDTGBu9VE2AAOHzgtziTS2RSCYVdeq"><rect width="256" height="256"/></clipPath></defs><g clip-path="url(#_clipPath_fWgDTGBu9VE2AAOHzgtziTS2RSCYVdeq)"><g><linearGradient id="_lgradient_1" x1="0.5000023853027187" y1="0" x2="0.5000023853027185" y2="1" gradientTransform="matrix(191.651,0,0,189.631,0,-0.001)" gradientUnits="userSpaceOnUse"><stop offset="0%" stop-opacity="1" style="stop-color:rgb(50,126,189)"/><stop offset="100%" stop-opacity="1" style="stop-color:rgb(21,101,167)"/></linearGradient><path d=" M 100.722 -0.001 C 80.634 -0.001 64.35 15.766 64.35 35.216 L 64.35 59.597 L 127.301 59.597 L 127.301 66.37 L 36.372 66.37 C 16.284 66.37 0 82.137 0 101.587 L 0 154.413 C 0 173.863 16.284 189.63 36.372 189.63 L 57.356 189.63 L 57.356 159.831 C 57.356 140.381 73.64 124.613 93.728 124.613 L 160.875 124.613 C 177.873 124.613 191.651 111.272 191.651 94.815 L 191.651 35.216 C 191.651 15.766 175.368 -0.001 155.28 -0.001 L 100.722 -0.001 Z  M 92.329 43.343 C 99.282 43.343 104.919 37.885 104.919 31.153 C 104.919 24.42 99.282 18.962 92.329 18.962 C 85.375 18.962 79.738 24.42 79.738 31.153 C 79.738 37.885 85.375 43.343 92.329 43.343 Z " fill-rule="evenodd" fill="url(#_lgradient_1)"/><linearGradient id="_lgradient_2" x1="0.5000026238317388" y1="0" x2="0.5000026238317385" y2="1" gradientTransform="matrix(191.651,0,0,189.631,64.349,66.37)" gradientUnits="userSpaceOnUse"><stop offset="0%" stop-opacity="1" style="stop-color:rgb(255,218,75)"/><stop offset="100%" stop-opacity="1" style="stop-color:rgb(249,198,0)"/></linearGradient><path d=" M 155.278 256.001 C 175.366 256.001 191.65 240.234 191.65 220.784 L 191.65 196.403 L 128.699 196.403 L 128.699 189.631 L 219.629 189.631 C 239.716 189.631 256 173.863 256 154.413 L 256 101.587 C 256 82.137 239.716 66.37 219.629 66.37 L 198.645 66.37 L 198.645 96.169 C 198.645 115.62 182.36 131.387 162.273 131.387 L 95.125 131.387 C 78.127 131.387 64.349 144.728 64.349 161.185 L 64.349 220.784 C 64.349 240.234 80.633 256.001 100.72 256.001 L 155.278 256.001 Z  M 163.672 212.657 C 156.718 212.657 151.081 218.114 151.081 224.847 C 151.081 231.58 156.718 237.038 163.672 237.038 C 170.625 237.038 176.262 231.58 176.262 224.847 C 176.262 218.114 170.625 212.657 163.672 212.657 Z " fill-rule="evenodd" fill="url(#_lgradient_2)"/></g></g></svg>