<?xml version="1.0" encoding="UTF-8" standalone="no"?>
<!-- Generator: Gravit.io -->
<svg xmlns="http://www.w3.org/2000/svg" xmlns:xlink="http://www.w3.org/1999/xlink" style="isolation:isolate" viewBox="0 0 256 256" width="256pt" height="256pt"><defs><clipPath id="_clipPath_QTjFQOiFapb0DMHpnobPUzKos3C5cjuf"><rect width="256" height="256"/></clipPath></defs><g clip-path="url(#_clipPath_QTjFQOiFapb0DMHpnobPUzKos3C5cjuf)"><path d=" M 128 8.777 C 62.272 8.777 8.777 62.298 8.777 128 C 8.777 193.702 62.298 247.223 128 247.223 C 193.702 247.223 247.223 193.702 247.223 128 C 247.223 62.298 193.702 8.777 128 8.777 L 128 8.777 Z  M 127.823 19.37 C 132.063 19.48 135.442 22.96 135.44 27.214 C 135.44 31.546 131.929 35.058 127.596 35.058 C 123.264 35.058 119.753 31.546 119.753 27.214 C 119.752 25.094 120.609 23.064 122.13 21.586 C 123.65 20.108 125.704 19.309 127.823 19.37 Z  M 145.781 32.284 C 173.652 37.504 197.817 54.715 211.862 79.347 L 202.606 100.231 C 201.017 103.838 202.656 108.075 206.238 109.689 L 224.044 117.583 C 224.597 123.149 224.664 128.753 224.246 134.331 L 214.334 134.331 C 213.35 134.331 212.947 134.986 212.947 135.945 L 212.947 140.485 C 212.947 151.179 206.919 153.524 201.622 154.104 C 196.578 154.685 191.004 151.986 190.298 148.909 C 187.321 132.187 182.378 128.631 174.559 122.451 C 184.27 116.297 194.358 107.192 194.358 95.035 C 194.358 81.895 185.354 73.622 179.225 69.561 C 170.599 63.887 161.066 62.752 158.493 62.752 L 56.093 62.752 C 70.252 46.934 89.232 36.225 110.093 32.284 L 122.174 44.945 C 124.898 47.795 129.412 47.921 132.262 45.172 L 145.781 32.284 Z  M 34.301 90.344 C 38.545 90.467 41.92 93.943 41.918 98.188 C 41.918 102.52 38.407 106.032 34.074 106.032 C 29.742 106.032 26.231 102.52 26.231 98.188 C 26.23 96.068 27.087 94.037 28.608 92.56 C 30.128 91.082 32.182 90.283 34.301 90.344 L 34.301 90.344 Z  M 221.32 90.697 C 225.563 90.82 228.939 94.296 228.937 98.541 C 228.937 102.873 225.425 106.385 221.093 106.385 C 216.761 106.385 213.249 102.873 213.249 98.541 C 213.248 96.421 214.106 94.39 215.626 92.913 C 217.147 91.435 219.201 90.636 221.32 90.697 L 221.32 90.697 Z  M 49.081 91.958 L 62.752 91.958 L 62.752 153.6 L 35.159 153.6 C 31.751 141.633 30.689 129.121 32.032 116.751 L 48.93 109.235 C 52.537 107.621 54.176 103.409 52.562 99.802 L 49.081 91.958 Z  M 106.133 92.614 L 138.694 92.614 C 140.384 92.614 150.573 94.556 150.573 102.198 C 150.573 108.529 142.755 110.799 136.323 110.799 L 106.108 110.799 L 106.133 92.614 Z  M 106.133 136.903 L 131.077 136.903 C 133.347 136.903 143.259 137.559 146.412 150.22 C 147.395 154.104 149.59 166.766 151.078 170.826 C 152.566 175.366 158.594 184.446 165.025 184.446 L 205.733 184.446 C 203.005 188.1 200.021 191.555 196.805 194.787 L 180.234 191.231 C 176.375 190.398 172.567 192.87 171.734 196.729 L 167.8 215.09 C 142.197 226.688 112.81 226.55 87.317 214.712 L 83.383 196.351 C 82.551 192.492 78.767 190.02 74.908 190.852 L 58.691 194.333 C 55.681 191.229 52.884 187.926 50.317 184.446 L 129.185 184.446 C 130.068 184.446 130.673 184.295 130.673 183.462 L 130.673 155.567 C 130.673 154.76 130.068 154.584 129.185 154.584 L 106.108 154.584 L 106.133 136.903 Z  M 69.738 200.79 C 73.981 200.913 77.357 204.389 77.355 208.634 C 77.355 212.966 73.843 216.478 69.511 216.478 C 65.179 216.478 61.667 212.966 61.667 208.634 C 61.666 206.513 62.524 204.483 64.044 203.005 C 65.565 201.528 67.619 200.728 69.738 200.79 L 69.738 200.79 Z  M 185.884 201.143 C 190.127 201.266 193.502 204.742 193.501 208.987 C 193.501 213.319 189.989 216.831 185.657 216.831 C 181.325 216.831 177.813 213.319 177.813 208.987 C 177.812 206.867 178.669 204.836 180.19 203.358 C 181.71 201.881 183.764 201.081 185.884 201.143 L 185.884 201.143 Z " fill="rgb(255,255,255)"/><path d=" M 240.564 128 C 240.564 190.168 190.168 240.564 128 240.564 C 65.832 240.564 15.436 190.168 15.436 128 C 15.436 65.832 65.832 15.436 128 15.436 C 190.168 15.436 240.564 65.832 240.564 128 L 240.564 128 Z  M 238.446 117.129 L 256 128 L 238.446 138.871 L 253.528 152.969 L 234.208 160.208 L 246.264 176.98 L 225.86 180.31 L 234.435 199.125 L 213.779 198.394 L 218.521 218.521 L 198.394 213.779 L 199.125 234.435 L 180.31 225.86 L 176.98 246.264 L 160.208 234.208 L 152.969 253.528 L 138.871 238.446 L 128 256 L 117.129 238.446 L 103.031 253.528 L 95.792 234.208 L 79.02 246.264 L 75.69 225.86 L 56.875 234.435 L 57.606 213.779 L 37.479 218.521 L 42.221 198.394 L 21.565 199.125 L 30.14 180.31 L 9.736 176.98 L 21.792 160.208 L 2.472 152.969 L 17.554 138.871 L 0 128 L 17.554 117.129 L 2.472 103.031 L 21.792 95.792 L 9.736 79.02 L 30.14 75.69 L 21.565 56.875 L 42.221 57.606 L 37.479 37.479 L 57.606 42.221 L 56.875 21.565 L 75.69 30.14 L 79.02 9.736 L 95.792 21.792 L 103.031 2.472 L 117.129 17.554 L 128 0 L 138.871 17.554 L 152.969 2.472 L 160.208 21.792 L 176.98 9.736 L 180.31 30.14 L 199.125 21.565 L 198.394 42.221 L 218.521 37.479 L 213.779 57.606 L 234.435 56.875 L 225.86 75.69 L 246.264 79.02 L 234.208 95.792 L 253.528 103.031 L 238.446 117.129 Z " fill-rule="evenodd" fill="rgb(255,255,255)"/></g></svg>