<?xml version="1.0" encoding="UTF-8" standalone="no"?>
<!-- Generator: Gravit.io -->
<svg xmlns="http://www.w3.org/2000/svg" xmlns:xlink="http://www.w3.org/1999/xlink" style="isolation:isolate" viewBox="0 0 256 256" width="256pt" height="256pt"><defs><clipPath id="_clipPath_DwASoATQcTyiUedxffWJvACEeM0GH7oV"><rect width="256" height="256"/></clipPath></defs><g clip-path="url(#_clipPath_DwASoATQcTyiUedxffWJvACEeM0GH7oV)"><g><clipPath id="_clipPath_KzasF9WmxhU6IHaWoz3wja5CrCW3MU3B"><path d=" M 242.223 62.465 L 132.909 0 L 132.909 256 L 176.587 230.634 L 176.587 158.622 L 209.566 177.698 L 209.38 128.441 L 176.587 109.705 L 176.587 81.1 L 242.376 119.115 L 242.223 62.465 L 242.223 62.465 Z " fill="rgb(255,255,255)"/></clipPath><g clip-path="url(#_clipPath_KzasF9WmxhU6IHaWoz3wja5CrCW3MU3B)"><g><linearGradient id="_lgradient_0" x1="0" y1="0.5000000000000001" x2="0.9999999999999999" y2="0.5000000000000001" gradientTransform="matrix(268.429,0,0,257.255,3.688,-0.933)" gradientUnits="userSpaceOnUse"><stop offset="0%" stop-opacity="1" style="stop-color:rgb(255,111,0)"/><stop offset="100%" stop-opacity="1" style="stop-color:rgb(255,168,0)"/></linearGradient><rect x="3.688" y="-0.933" width="268.429" height="257.255" transform="matrix(1,0,0,1,0,0)" fill="url(#_lgradient_0)"/></g></g><clipPath id="_clipPath_zBhK9KcKZZ3W6eXe5miHNq4eMMmX2pdb"><path d=" M 13.777 62.465 L 123.091 0 L 123.091 256 L 79.413 230.634 L 79.413 81.1 L 13.624 119.115 L 13.777 62.465 L 13.777 62.465 Z " fill="rgb(255,255,255)"/></clipPath><g clip-path="url(#_clipPath_zBhK9KcKZZ3W6eXe5miHNq4eMMmX2pdb)"><g><linearGradient id="_lgradient_1" x1="0" y1="0.5" x2="1" y2="0.5" gradientTransform="matrix(268.429,0,0,257.255,1.857,-0.933)" gradientUnits="userSpaceOnUse"><stop offset="100%" stop-opacity="1" style="stop-color:rgb(255,111,0)"/><stop offset="100%" stop-opacity="1" style="stop-color:rgb(255,111,0)"/></linearGradient><rect x="1.857" y="-0.933" width="268.429" height="257.255" transform="matrix(1,0,0,1,0,0)" fill="url(#_lgradient_1)"/></g></g></g></g></svg>