<?xml version="1.0" encoding="UTF-8" standalone="no"?>
<!-- Generator: Gravit.io -->
<svg xmlns="http://www.w3.org/2000/svg" xmlns:xlink="http://www.w3.org/1999/xlink" style="isolation:isolate" viewBox="0 0 256 256" width="256pt" height="256pt"><defs><clipPath id="_clipPath_Sofse2nFXxaojiT1WbxdWTMZOwzp4xYX"><rect width="256" height="256"/></clipPath></defs><g clip-path="url(#_clipPath_Sofse2nFXxaojiT1WbxdWTMZOwzp4xYX)"><path d=" M 127.009 0 L 177.462 29.109 L 177.462 45.114 L 238.53 80.381 L 238.53 140.707 L 254.911 150.163 L 254.911 208.414 L 204.49 237.522 L 182.106 224.577 L 127.68 256 L 73.581 224.759 L 51.51 237.522 L 1.089 208.364 L 1.089 150.163 L 16.831 141.075 L 16.831 80.381 L 76.588 45.882 L 76.622 45.881 L 76.622 29.109 L 127.009 0 Z  M 177.462 60.25 L 177.462 87.326 L 127.041 116.435 L 76.622 87.326 L 76.622 61.001 L 76.588 61.002 L 29.936 87.949 L 29.936 133.509 L 51.51 121.054 L 101.93 150.163 L 101.93 208.364 L 86.676 217.185 L 127.68 240.864 L 169.011 217.006 L 154.07 208.364 L 154.07 150.163 L 204.49 121.054 L 225.425 133.141 L 225.425 87.949 L 177.462 60.25 Z  M 167.175 200.862 L 167.175 165.332 L 197.938 183.089 L 197.938 218.619 L 167.175 200.862 Z  M 241.806 165.283 L 211.043 183.04 L 211.043 218.619 L 241.806 200.813 L 241.806 165.283 Z  M 14.194 200.813 L 14.194 165.283 L 44.957 183.04 L 44.957 218.57 L 14.194 200.813 Z  M 88.825 165.283 L 58.062 183.04 L 58.062 218.57 L 88.825 200.813 L 88.825 165.283 Z  M 173.727 153.98 L 204.49 136.223 L 235.253 153.98 L 204.49 171.754 L 173.727 153.98 Z  M 51.51 136.174 L 20.746 153.98 L 51.51 171.704 L 82.273 153.98 L 51.51 136.174 Z  M 89.726 79.759 L 89.726 44.229 L 120.456 62.001 L 120.456 97.515 L 89.726 79.759 Z  M 164.324 44.229 L 133.594 62.001 L 133.594 97.499 L 164.324 79.759 L 164.324 44.229 Z  M 96.279 32.892 L 127.009 15.136 L 157.772 32.892 L 127.009 50.65 L 96.279 32.892 Z " fill-rule="evenodd" fill="rgb(255,255,255)"/></g></svg>