<?xml version="1.0" encoding="UTF-8" standalone="no"?>
<!-- Generator: Gravit.io -->
<svg xmlns="http://www.w3.org/2000/svg" xmlns:xlink="http://www.w3.org/1999/xlink" style="isolation:isolate" viewBox="0 0 256 256" width="256pt" height="256pt"><defs><clipPath id="_clipPath_wxS0FHTVObpYMPnCRHEi8yYsHwFCkzB2"><rect width="256" height="256"/></clipPath></defs><g clip-path="url(#_clipPath_wxS0FHTVObpYMPnCRHEi8yYsHwFCkzB2)"><g><path d=" M 127.898 44.82 C 82.032 44.82 44.717 82.135 44.717 128 C 44.717 173.865 82.032 211.18 127.898 211.18 C 173.763 211.18 211.078 173.865 211.078 128 C 211.078 82.135 173.763 44.82 127.898 44.82 Z  M 127.898 171.046 C 104.121 171.046 84.851 151.777 84.851 128 C 84.851 104.223 104.121 84.954 127.898 84.954 C 151.674 84.954 170.944 104.223 170.944 128 C 170.944 151.777 151.674 171.046 127.898 171.046 Z " fill="rgb(255,255,255)"/><linearGradient id="_lgradient_0" x1="0.546443814550549" y1="0.0703109715765643" x2="0.054642519699698855" y2="0.5621122664274143" gradientTransform="matrix(256,0,0,255.799,0,0.101)" gradientUnits="userSpaceOnUse"><stop offset="0%" stop-opacity="1" style="stop-color:rgb(0,150,255)"/><stop offset="100%" stop-opacity="1" style="stop-color:rgb(255,30,86)"/></linearGradient><path d=" M 134.87 31.158 L 134.87 0.101 C 202.374 3.71 256 59.597 256 128 C 256 196.403 202.374 252.275 134.87 255.899 L 134.87 224.842 C 185.181 221.249 225.02 179.209 225.02 128 C 225.02 76.791 185.181 34.751 134.87 31.158 Z  M 54.54 191.508 C 41.203 176.111 32.606 156.501 31.073 134.97 L 0 134.97 C 1.611 165.098 13.662 192.438 32.544 213.488 L 54.524 191.508 L 54.54 191.508 Z  M 120.929 255.899 L 120.929 224.842 C 99.383 223.309 79.773 214.727 64.376 201.375 L 42.396 223.355 C 63.462 242.253 90.802 254.288 120.914 255.899 L 120.929 255.899 Z " fill-rule="evenodd" fill="url(#_lgradient_0)"/></g></g></svg>