<?xml version="1.0" encoding="UTF-8" standalone="no"?>
<!-- Generator: Gravit.io -->
<svg xmlns="http://www.w3.org/2000/svg" xmlns:xlink="http://www.w3.org/1999/xlink" style="isolation:isolate" viewBox="0 0 256 256" width="256pt" height="256pt"><defs><clipPath id="_clipPath_rn4Ev8tC7dLePbXmZTFD78wuZcl4EUgN"><rect width="256" height="256"/></clipPath></defs><g clip-path="url(#_clipPath_rn4Ev8tC7dLePbXmZTFD78wuZcl4EUgN)"><path d=" M 181.58 254.175 C 185.609 255.745 190.204 255.644 194.271 253.687 L 246.945 228.341 C 252.48 225.678 256 220.076 256 213.931 L 256 42.07 C 256 35.925 252.48 30.323 246.945 27.66 L 194.271 2.313 C 188.933 -0.255 182.687 0.374 178.002 3.78 C 177.333 4.266 176.695 4.809 176.097 5.408 L 75.259 97.405 L 31.336 64.063 C 27.247 60.96 21.528 61.214 17.73 64.668 L 3.643 77.483 C -1.002 81.708 -1.008 89.016 3.631 93.249 L 41.723 128 L 3.631 162.752 C -1.008 166.984 -1.002 174.292 3.643 178.517 L 17.73 191.332 C 21.528 194.786 27.247 195.041 31.336 191.937 L 75.259 158.596 L 176.097 250.592 C 177.692 252.188 179.565 253.39 181.58 254.175 Z  M 192.078 69.92 L 115.565 128 L 192.078 186.08 L 192.078 69.92 Z " fill-rule="evenodd" fill="none"/><path d=" M 246.947 27.699 L 194.231 2.318 C 188.129 -0.62 180.837 0.619 176.049 5.408 L 3.478 162.752 C -1.164 166.984 -1.159 174.292 3.489 178.517 L 17.585 191.332 C 21.385 194.786 27.108 195.04 31.199 191.937 L 239.014 34.284 C 245.986 28.995 256 33.967 256 42.718 L 256 42.106 C 256 35.964 252.481 30.364 246.947 27.699 Z " fill="rgb(255,255,255)"/><path d=" M 246.947 228.301 L 194.231 253.682 C 188.129 256.621 180.837 255.381 176.049 250.592 L 3.478 93.248 C -1.164 89.016 -1.159 81.708 3.489 77.483 L 17.585 64.668 C 21.385 61.214 27.108 60.959 31.199 64.063 L 239.014 221.716 C 245.986 227.005 256 222.032 256 213.282 L 256 213.894 C 256 220.036 252.481 225.636 246.947 228.301 Z " fill="rgb(255,255,255)"/><path d=" M 194.234 253.687 C 188.13 256.623 180.838 255.381 176.049 250.592 C 181.949 256.493 192.039 252.313 192.039 243.969 L 192.039 12.031 C 192.039 3.686 181.949 -0.493 176.049 5.408 C 180.838 0.618 188.13 -0.623 194.234 2.313 L 246.94 27.659 C 252.478 30.323 256 35.925 256 42.07 L 256 213.931 C 256 220.076 252.478 225.678 246.94 228.341 L 194.234 253.687 Z " fill="rgb(255,255,255)"/><g opacity="0.25"><path d=" M 181.424 254.175 C 185.454 255.745 190.049 255.644 194.116 253.687 L 246.79 228.341 C 252.325 225.678 255.844 220.076 255.844 213.931 L 255.844 42.07 C 255.844 35.925 252.325 30.323 246.79 27.659 L 194.116 2.313 C 188.778 -0.255 182.531 0.374 177.846 3.779 C 177.177 4.266 176.54 4.809 175.942 5.408 L 75.103 97.404 L 31.18 64.063 C 27.092 60.959 21.372 61.214 17.575 64.668 L 3.487 77.483 C -1.158 81.708 -1.163 89.016 3.476 93.248 L 41.567 128 L 3.476 162.752 C -1.163 166.984 -1.158 174.292 3.487 178.517 L 17.575 191.332 C 21.372 194.786 27.092 195.04 31.18 191.937 L 75.103 158.595 L 175.942 250.592 C 177.537 252.188 179.41 253.39 181.424 254.175 Z  M 191.922 69.92 L 115.409 128 L 191.922 186.08 L 191.922 69.92 Z " fill-rule="evenodd" fill="rgb(255,255,255)"/></g></g></svg>