<?xml version="1.0" encoding="UTF-8" standalone="no"?>
<!-- Generator: Gravit.io -->
<svg xmlns="http://www.w3.org/2000/svg" xmlns:xlink="http://www.w3.org/1999/xlink" style="isolation:isolate" viewBox="0 0 256 256" width="256pt" height="256pt"><defs><clipPath id="_clipPath_OdjsXcmptBkdY9ADDC36QjRX3yXSN2Qv"><rect width="256" height="256"/></clipPath></defs><g clip-path="url(#_clipPath_OdjsXcmptBkdY9ADDC36QjRX3yXSN2Qv)"><path d=" M 256 214.244 L 256 214.244 C 256 229.615 243.545 242.07 228.174 242.07 L 228.174 242.07 L 27.826 242.07 L 27.826 242.07 C 12.455 242.07 0 229.615 0 214.244 L 0 52.853 C 0 40.559 9.967 30.592 22.261 30.592 L 22.261 30.592 L 134.517 30.592 L 179.59 14.264 C 182.445 13.223 185.606 14.698 186.646 17.542 L 191.393 30.592 L 211.478 30.592 C 223.772 30.592 233.739 40.559 233.739 52.853 L 233.739 63.983 L 233.739 63.983 C 246.033 63.983 256 73.951 256 86.244 L 256 214.244 Z  M 22.261 41.722 L 22.261 41.722 C 16.117 41.722 11.13 46.709 11.13 52.853 C 11.13 58.997 16.117 63.983 22.261 63.983 L 41.433 63.983 L 41.433 63.983 L 42.485 63.983 C 42.557 63.955 42.602 63.894 42.674 63.866 L 103.791 41.722 L 22.261 41.722 Z  M 184.086 42.73 L 178.176 26.457 L 178.17 26.457 L 178.17 26.457 L 166.756 30.592 L 166.773 30.592 L 136.086 41.722 L 136.031 41.722 L 74.596 63.983 L 191.811 63.983 L 184.086 42.73 Z  M 222.609 52.853 C 222.609 46.709 217.622 41.722 211.478 41.722 L 195.434 41.722 L 203.526 63.983 L 222.609 63.983 L 222.609 63.983 L 222.609 52.853 Z  M 233.739 75.114 L 22.261 75.114 L 22.261 75.114 C 18.187 75.114 14.414 73.939 11.13 72.025 L 11.13 214.244 C 11.13 223.466 18.61 230.94 27.826 230.94 L 228.174 230.94 C 237.395 230.94 244.87 223.466 244.87 214.244 L 244.87 175.288 L 222.609 175.288 C 210.315 175.288 200.348 165.32 200.348 153.027 C 200.348 140.733 210.315 130.766 222.609 130.766 L 244.87 130.766 L 244.87 86.244 C 244.87 80.1 239.883 75.114 233.739 75.114 Z  M 244.87 164.157 L 244.87 141.896 L 222.609 141.896 C 216.465 141.896 211.478 146.883 211.478 153.027 C 211.478 159.171 216.465 164.157 222.609 164.157 L 244.87 164.157 Z  M 222.609 147.462 L 233.739 147.462 L 233.739 158.592 L 222.609 158.592 L 222.609 147.462 Z " fill-rule="evenodd" fill="rgb(255,255,255)"/></g></svg>