<?xml version="1.0" encoding="UTF-8" standalone="no"?>
<!-- Generator: Gravit.io -->
<svg xmlns="http://www.w3.org/2000/svg" xmlns:xlink="http://www.w3.org/1999/xlink" style="isolation:isolate" viewBox="0 0 256 256" width="256pt" height="256pt"><defs><clipPath id="_clipPath_x91kUa2eTSqLIYbODlHlG9t7Y56VOQkb"><rect width="256" height="256"/></clipPath></defs><g clip-path="url(#_clipPath_x91kUa2eTSqLIYbODlHlG9t7Y56VOQkb)"><path d=" M 239.69 204.881 C 226.499 208.014 219.82 210.9 203.496 221.535 C 177.937 238.025 150.07 245.692 150.07 245.692 C 150.07 245.692 147.762 249.155 141.083 250.722 C 129.541 253.525 86.091 255.916 82.134 255.998 C 71.498 256.081 64.985 253.277 63.171 248.908 C 57.647 235.716 71.086 229.945 71.086 229.945 C 71.086 229.945 68.118 228.131 66.386 226.482 C 64.82 224.916 63.171 221.783 62.676 222.937 C 60.615 227.966 59.543 240.251 54.019 245.775 C 46.434 253.442 32.088 250.887 23.596 246.434 C 14.28 241.488 24.256 229.862 24.256 229.862 C 24.256 229.862 19.227 232.831 15.187 226.729 C 11.559 221.123 8.179 211.559 9.086 199.769 C 10.24 186.166 25.245 173.139 25.245 173.139 C 25.245 173.139 22.607 153.269 31.264 132.905 C 39.096 114.354 60.203 99.431 60.203 99.431 C 60.203 99.431 42.477 79.891 49.072 62.165 C 53.36 50.622 55.091 50.705 56.493 50.21 C 61.439 48.314 66.221 46.253 69.767 42.378 C 87.493 23.25 110.083 26.878 110.083 26.878 C 110.083 26.878 120.637 -5.524 130.53 0.824 C 133.581 2.803 144.546 27.207 144.546 27.207 C 144.546 27.207 156.254 20.364 157.573 22.92 C 164.663 36.689 165.488 62.99 162.355 78.984 C 157.078 105.367 143.887 119.548 138.61 128.453 C 137.373 130.514 152.791 137.027 162.52 163.987 C 171.506 188.639 163.509 209.333 164.911 211.642 C 165.158 212.054 165.24 212.219 165.24 212.219 C 165.24 212.219 175.546 213.043 196.241 200.264 C 207.288 193.421 220.398 185.753 235.32 185.588 C 249.749 185.341 250.491 202.325 239.69 204.881 L 239.69 204.881 Z " fill="rgb(44,142,187)"/></g></svg>