<?xml version="1.0" encoding="UTF-8" standalone="no"?>
<!-- Generator: Gravit.io -->
<svg xmlns="http://www.w3.org/2000/svg" xmlns:xlink="http://www.w3.org/1999/xlink" style="isolation:isolate" viewBox="0 0 256 256" width="256pt" height="256pt"><defs><clipPath id="_clipPath_S1s1O5T7bOIoYuAnmgBgfVx2a1uTFyJv"><rect width="256" height="256"/></clipPath></defs><g clip-path="url(#_clipPath_S1s1O5T7bOIoYuAnmgBgfVx2a1uTFyJv)"><path d=" M 0 128 C 0 57.355 57.355 0 128 0 C 198.645 0 256 57.355 256 128 C 256 198.645 198.645 256 128 256 C 57.355 256 0 198.645 0 128 Z  M 215.08 166.795 C 214.19 159.778 208.259 154.934 200.649 155.033 C 189.282 155.181 179.744 161.063 173.418 164.967 C 170.947 166.499 168.822 167.636 166.993 168.476 C 167.388 162.743 167.042 155.231 164.077 146.978 C 160.47 137.093 155.626 131.015 152.167 127.506 C 156.17 121.674 161.656 113.174 164.225 100.028 C 166.449 88.809 165.758 71.364 160.667 61.578 C 159.629 59.602 157.9 58.168 155.725 57.575 C 154.836 57.328 153.155 56.834 149.844 57.773 C 144.853 47.444 143.123 46.357 141.788 45.467 C 139.021 43.688 135.759 43.293 132.695 44.429 C 128.593 45.912 125.084 49.866 121.773 56.883 C 121.279 57.921 120.834 58.91 120.439 59.898 C 114.162 60.343 104.278 62.616 95.926 71.66 C 94.888 72.797 92.862 73.637 90.737 74.428 L 90.786 74.428 C 86.437 75.96 84.46 79.518 82.039 85.943 C 78.678 94.937 82.137 103.784 85.547 109.517 C 80.902 113.668 74.724 120.29 71.463 128.049 C 67.41 137.637 66.965 147.027 67.114 152.117 C 63.654 155.775 58.317 162.644 57.724 170.354 C 56.933 181.127 60.837 188.442 62.567 191.11 C 63.061 191.901 63.605 192.544 64.198 193.186 C 64 194.52 63.951 195.954 64.247 197.436 C 64.89 200.896 67.064 203.713 70.375 205.492 C 76.899 208.951 85.992 210.434 93.01 206.925 C 95.531 209.594 100.127 212.164 108.479 212.164 L 108.973 212.164 C 111.098 212.164 138.082 210.73 145.94 208.803 C 149.449 207.963 151.87 206.48 153.452 205.146 C 158.493 203.564 172.429 198.82 185.575 190.32 C 194.866 184.29 198.079 183.005 204.998 181.325 C 211.719 179.694 215.92 173.566 215.08 166.795 L 215.08 166.795 Z  M 203.317 174.06 C 195.41 175.938 191.407 177.668 181.622 184.043 C 166.351 193.927 149.646 198.524 149.646 198.524 C 149.646 198.524 148.263 200.599 144.259 201.538 C 137.341 203.219 111.296 204.652 108.924 204.701 C 102.548 204.751 98.644 203.07 97.557 200.451 C 94.246 192.544 102.301 189.084 102.301 189.084 C 102.301 189.084 100.522 187.997 99.484 187.008 C 98.545 186.069 97.557 184.192 97.26 184.883 C 96.025 187.898 95.382 195.262 92.071 198.573 C 87.524 203.169 78.925 201.637 73.835 198.968 C 68.25 196.003 74.23 189.035 74.23 189.035 C 74.23 189.035 71.215 190.814 68.794 187.157 C 66.619 183.796 64.593 178.063 65.137 170.996 C 65.73 162.941 74.724 155.132 74.724 155.132 C 74.724 155.132 73.143 143.222 78.332 131.015 C 83.027 119.895 95.679 110.95 95.679 110.95 C 95.679 110.95 85.053 99.188 89.007 88.612 C 91.577 81.693 92.615 81.742 93.455 81.446 C 96.42 80.309 99.286 79.073 101.412 76.751 C 112.037 65.285 125.578 67.459 125.578 67.459 C 125.578 67.459 132.003 47.938 137.934 51.744 C 139.762 52.93 146.335 67.558 146.335 67.558 C 146.335 67.558 153.353 63.456 154.144 64.988 C 158.394 73.242 158.888 89.007 157.01 98.595 C 153.847 114.409 145.94 122.91 142.777 128.247 C 142.036 129.483 151.277 133.387 157.109 149.547 C 162.496 164.324 157.702 176.729 158.542 178.113 C 158.69 178.36 158.74 178.459 158.74 178.459 C 158.74 178.459 164.917 178.953 177.322 171.293 C 183.944 167.191 191.802 162.595 200.747 162.496 C 209.396 162.347 209.841 172.479 203.317 174.06 L 203.317 174.06 Z " fill-rule="evenodd" fill="rgb(255,255,255)"/></g></svg>