<?xml version="1.0" encoding="UTF-8" standalone="no"?><!-- Generator: Gravit.io --><svg xmlns="http://www.w3.org/2000/svg" xmlns:xlink="http://www.w3.org/1999/xlink" style="isolation:isolate" viewBox="0 0 512 512" width="512pt" height="512pt"><defs><clipPath id="_clipPath_x0dPEnMZ8SHgy553AmSA5BNJOp8bJNAb"><rect width="512" height="512"/></clipPath></defs><g clip-path="url(#_clipPath_x0dPEnMZ8SHgy553AmSA5BNJOp8bJNAb)"><circle vector-effect="non-scaling-stroke" cx="256" cy="256" r="256" fill="rgb(17,17,132)" /><path d=" M 156.239 301.581 C 148.611 301.278 142.37 299.191 137.491 295.315 C 136.559 294.574 134.34 292.354 133.596 291.417 C 131.617 288.929 130.272 286.507 129.374 283.821 C 126.613 275.55 128.034 264.698 133.439 252.787 C 138.067 242.59 145.207 232.477 157.665 218.47 C 159.5 216.409 164.965 210.382 165 210.382 C 165.013 210.382 164.715 210.897 164.341 211.526 C 161.101 216.951 158.33 223.342 156.82 228.875 C 154.394 237.753 154.687 245.371 157.677 251.279 C 159.739 255.349 163.275 258.874 167.251 260.823 C 174.211 264.233 184.401 264.515 196.846 261.648 C 197.703 261.45 240.16 250.179 291.195 236.602 C 342.23 223.023 383.993 211.923 384 211.932 C 384.014 211.944 265.43 262.686 203.872 289.011 C 194.123 293.179 191.516 294.232 186.933 295.841 C 175.217 299.955 164.722 301.918 156.239 301.581 L 156.239 301.581 Z " fill="rgb(255,255,255)"/></g></svg>