<?xml version="1.0" encoding="UTF-8" standalone="no"?><!-- Generator: Gravit.io --><svg xmlns="http://www.w3.org/2000/svg" xmlns:xlink="http://www.w3.org/1999/xlink" style="isolation:isolate" viewBox="0 0 512 512" width="512pt" height="512pt"><defs><clipPath id="_clipPath_CETuXG8LJW7QHd8DRu4dQ1E5pKs1jnVk"><rect width="512" height="512"/></clipPath></defs><g clip-path="url(#_clipPath_CETuXG8LJW7QHd8DRu4dQ1E5pKs1jnVk)"><rect width="512" height="512" style="fill:rgb(27,27,29)"/><g><path d=" M 271.965 224 L 343.05 224 C 349.766 224 355.21 229.444 355.21 236.16 C 355.21 236.16 355.21 236.16 355.21 236.16 L 355.21 300.909 C 355.21 325.591 335.201 345.6 310.519 345.6 L 310.519 345.6 L 310.307 345.6 C 285.625 345.603 265.613 325.597 265.61 300.915 C 265.61 300.913 265.61 300.911 265.61 300.909 L 265.61 230.355 C 265.61 226.845 268.455 224 271.965 224 L 271.965 224 Z " fill="rgb(237,29,36)"/><path d=" M 291.21 182.4 C 291.21 166.505 304.115 153.6 320.01 153.6 C 335.905 153.6 348.81 166.505 348.81 182.4 C 348.81 198.295 335.905 211.2 320.01 211.2 C 304.115 211.2 291.21 198.295 291.21 182.4 Z  M 188.81 169.6 C 188.81 146.64 207.45 128 230.41 128 C 253.37 128 272.01 146.64 272.01 169.6 C 272.01 192.56 253.37 211.2 230.41 211.2 C 207.45 211.2 188.81 192.56 188.81 169.6 Z  M 285.879 224 L 168.541 224 C 161.905 224.164 156.656 229.671 156.81 236.307 L 156.81 310.157 C 155.883 349.979 187.389 383.025 227.21 384 C 267.031 383.025 298.537 349.979 297.61 310.157 L 297.61 236.307 C 297.764 229.671 292.515 224.164 285.879 224 Z " fill-rule="evenodd" fill="rgb(237,29,36)"/></g></g></svg>