<?xml version="1.0" encoding="UTF-8" standalone="no"?><!-- Generator: Gravit.io --><svg xmlns="http://www.w3.org/2000/svg" xmlns:xlink="http://www.w3.org/1999/xlink" style="isolation:isolate" viewBox="0 0 512 512" width="512pt" height="512pt"><defs><clipPath id="_clipPath_zyAz5CoIp5jRXuODbosTxZUtXqGBiV2m"><rect width="512" height="512"/></clipPath></defs><g clip-path="url(#_clipPath_zyAz5CoIp5jRXuODbosTxZUtXqGBiV2m)"><circle vector-effect="non-scaling-stroke" cx="256" cy="256" r="256" fill="rgb(27,27,29)" /><path d=" M 317.817 307.674 C 317.746 307.444 317.693 307.32 317.693 307.32 C 317.693 307.32 317.711 307.408 317.746 307.55 C 317.569 307.16 317.374 306.77 317.179 306.381 C 316.736 305.388 316.187 304.485 315.62 303.599 C 310.659 295.431 303.448 288.663 303.448 288.663 L 303.555 290.648 C 303.555 290.648 303.59 290.665 303.59 290.665 L 303.803 293.766 C 303.803 293.766 280.54 280.265 270.636 267.81 C 262.947 258.154 254.088 247.63 248.844 234.696 L 246.912 231.596 C 240.215 223.623 233.217 225.129 217.927 207.429 C 212.683 201.352 206.889 189.411 205.046 181.509 C 201.166 164.819 201.857 145.809 205.985 129.243 C 205.985 129.243 207.917 123.591 197.339 140.405 L 197.339 140.405 C 192.042 148.821 188.321 158.406 186.55 168.186 C 185.646 173.182 185.238 178.214 185.398 183.174 C 181.801 176.017 178.931 168.221 176.947 160.177 C 174.342 149.583 173.332 138.58 174.395 128.056 C 174.395 128.056 172.535 126.231 166.104 143.417 C 159.672 160.603 158.663 175.273 161.604 191.697 C 149.786 181.686 147.111 163.331 143.178 148.821 C 143.178 148.821 143.178 148.821 143.178 148.821 C 143.178 148.821 143.178 148.821 143.178 148.821 C 143.178 148.821 143.16 148.821 143.16 148.838 C 143.16 148.838 143.16 148.838 143.16 148.838 C 143.124 148.874 143.071 148.927 143.018 149.051 C 142.876 149.334 142.664 149.972 142.54 151.319 C 142.54 152.364 142.416 153.409 142.416 154.455 C 141.707 161.719 141.034 181.474 151.168 202.132 C 151.381 202.61 151.593 203.106 151.806 203.585 C 153.241 206.614 154.942 209.361 156.501 212.089 C 159.07 216.607 161.054 217.723 163.942 221.71 C 163.641 221.674 146.243 218.007 139.882 217.068 C 143.727 219.584 150.778 225.997 158.804 233.509 C 158.804 233.509 182.793 235.441 201.645 249.366 C 201.645 249.366 185.327 241.394 165.749 240.029 C 166.901 241.11 168.053 242.209 169.204 243.289 C 174.785 248.534 180.402 253.778 185.38 258.172 L 185.309 258.172 L 171.153 256.772 L 191.493 273.231 L 195.142 273.356 C 195.142 273.356 201.981 273.125 208.749 274.649 C 215.96 276.279 219.805 278.618 219.805 278.618 C 215.765 277.253 209.068 277.041 205.029 277.306 C 202.141 277.501 200.263 278.299 198.172 278.582 L 199.359 279.539 L 212.204 289.868 L 223.632 290.169 C 213.976 296.175 204.497 298.549 192.361 294.475 C 185.912 292.313 179.658 288.929 174.342 284.641 C 176.486 289.921 181.482 294.439 185.362 298.443 C 172.571 297.451 162.259 294.492 150.566 289.142 C 155.03 296.087 158.592 300.8 162.135 304.502 C 165.679 308.188 170.569 312.192 173.014 313.662 C 174.573 314.601 181.713 314.548 186.443 314.105 C 187.329 314.017 188.144 313.928 188.817 313.804 C 189.898 313.627 191.262 313.326 192.697 313.007 C 197.552 311.891 203.416 310.243 203.097 310.456 C 200.989 311.837 198.686 313.184 196.259 314.424 C 194.824 315.168 193.353 315.859 191.847 316.515 C 185.044 319.438 177.638 321.245 170.87 320.395 C 178.435 323.088 186.337 325.072 194.345 325.816 C 197.109 326.082 198.101 326.047 200.493 324.931 C 204.072 323.283 207.013 321.919 209.865 320.554 C 211.301 319.863 212.736 319.155 214.189 318.428 C 216.191 317.418 218.246 316.338 220.531 315.062 C 219.203 316.302 217.874 317.472 216.509 318.623 C 215.748 319.261 214.968 319.917 214.171 320.554 C 211.407 322.822 208.448 325.161 205.082 328.12 C 214.118 328.757 219.344 330.246 231.357 326.49 C 231.357 326.49 228.894 328.332 225.457 330.334 L 229.018 337.315 L 225.156 335.579 L 227.689 340.327 C 227.689 340.327 229.496 342.559 232.065 344.437 L 232.933 347.237 C 230.949 346.652 228.398 344.526 227.14 343.675 C 229.142 351.737 233.943 350.16 235.325 355.05 C 236.264 358.345 239.755 364.263 237.77 367.399 C 235.449 371.102 233.926 370.836 230.666 373.777 C 226.874 377.179 229.797 381.431 230.577 382.795 C 231.357 378.809 234.333 376.222 235.999 375.726 C 238.638 374.946 241.81 375.549 242.979 374.379 C 247.16 370.216 256.143 369.153 262.344 373.051 C 259.474 368.409 257.986 368.551 252.263 366.885 C 262.38 367.558 263.035 369.755 267.996 375.531 C 268.403 372.253 265.675 368.072 263.354 366.088 C 262.628 365.468 254.602 364.334 246.788 363.661 C 244.042 363.43 242.944 359.887 242.536 357.991 C 243.015 358.257 245.229 359.426 247.373 359.391 C 246.824 356.644 246.062 353.509 245.619 351.631 C 246.381 351.985 247.178 352.463 248.914 352.534 L 247.78 347.91 C 247.249 344.225 246.044 341.549 249.588 335.915 C 251.537 337.297 252.405 337.882 253.291 338.874 C 253.291 338.874 254.017 342.4 254.832 344.278 C 254.991 344.632 258.464 347.609 258.588 347.963 L 252.6 346.227 C 252.6 346.227 254.602 350.78 258.553 353.402 C 260.891 354.235 262.982 355.174 263.673 356.078 C 264.382 357.034 265.569 359.586 265.002 360.95 C 264.559 362.066 261.37 357.335 254.655 362.97 C 259.226 363.04 264.718 364.298 265.905 365.698 C 267.447 367.505 268.527 369.153 269.644 369.826 C 274.516 372.75 274.853 374.273 274.463 380.014 C 277.475 377.693 276.624 371.633 276.181 370.163 C 280.168 374.946 279.3 381.449 278.077 384 C 281.071 382.335 284.703 375.726 281.266 370.499 C 280.345 369.649 275.278 365.875 274.286 364.741 C 271.752 361.853 271.114 358.576 269.856 355.263 C 270.742 355.298 271.841 355.67 272.726 355.652 C 272.284 353.686 271.646 351.134 271.167 348.317 C 271.114 348.069 271.079 347.804 271.043 347.556 C 271.026 347.449 271.008 347.343 270.99 347.237 C 270.919 346.811 270.866 346.404 270.813 345.961 C 270.795 345.855 270.795 345.748 270.778 345.66 C 270.724 345.235 270.671 344.792 270.636 344.349 C 272.284 345.394 273.417 345.855 273.417 345.855 L 270.6 338.219 C 270.6 338.219 270.6 338.219 270.6 338.201 C 270.654 337.616 270.724 337.049 270.813 336.464 C 270.813 336.429 270.831 336.394 270.831 336.358 C 270.919 335.827 271.026 335.313 271.15 334.799 C 271.167 334.71 271.185 334.622 271.203 334.551 C 271.327 334.073 271.469 333.612 271.61 333.134 C 271.646 333.027 271.681 332.903 271.717 332.797 C 271.911 332.23 272.142 331.681 272.39 331.132 C 271.114 333.86 274.853 337.811 274.853 337.811 C 275.331 331.769 280.735 326.118 285.27 324.08 C 285.022 325.763 285.89 327.446 285.89 327.446 C 287.237 324.594 289.965 323.46 291.932 323.017 L 295.599 324.488 L 299.497 326.047 L 300.507 326.454 C 300.507 326.454 301.216 329.555 302.934 330.937 C 304.6 332.283 306.318 333.258 310.447 335.915 C 310.145 336.943 309.206 337.9 307.346 338.573 C 313.228 340.77 320.634 338.13 319.571 331.823 C 319.199 329.59 318.224 323.442 318.224 323.442 L 318.224 323.425 L 319.606 318.889 L 320.014 317.542 L 320.067 317.401 L 320.262 316.781 C 320.173 313.804 319.234 310.704 317.817 307.674 Z  M 296.946 316.993 L 293.828 311.377 L 285.855 307.355 L 292.375 314.92 C 288.938 312.954 283.091 309.853 276.748 308.666 C 276.748 308.666 282.134 313.698 284.703 316.214 C 285.199 316.533 285.288 316.781 285.288 316.781 C 285.111 316.621 284.916 316.409 284.703 316.214 C 283.941 315.718 282.223 315.062 278.29 314.832 C 274.64 314.46 270.299 313.503 266.366 311.288 C 266.366 311.288 267.145 312.44 268.758 313.822 C 268.775 313.84 268.811 313.857 268.829 313.875 C 268.829 313.875 268.846 313.893 268.846 313.893 C 270.352 315.168 272.567 316.639 275.561 317.613 C 275.792 317.684 278.786 318.924 279.016 318.995 C 276.872 319.846 275.065 320.891 273.559 322.043 C 270.654 324.293 268.846 326.986 267.766 329.75 C 265.905 334.516 264.187 343.108 265.516 347.998 C 261.387 342.453 257.738 335.313 259.757 327.216 C 253.468 330.76 249.428 329.608 245.07 328.97 C 243.05 331.681 240.392 338.183 240.056 343.764 C 239.684 343.179 239.347 342.542 239.028 341.868 C 237.398 338.413 236.565 334.445 236.371 330.635 C 236.282 329.112 236.282 327.659 236.406 326.312 L 236.406 326.295 L 250.775 316.107 L 229.868 314.353 C 229.868 314.353 229.868 314.353 229.868 314.353 C 230.205 314.088 230.577 313.84 230.931 313.591 C 238.975 307.922 248.897 304.024 258.872 304.467 C 259.651 304.502 260.413 304.556 261.175 304.644 C 254.761 301.048 243.493 301.225 236.814 303.315 C 227.742 306.15 224.146 306.31 214.454 304.609 C 224.642 302.536 224.27 302.27 230.311 299.418 C 235.272 296.636 244.698 291.516 256.586 293.695 C 253.68 292.419 251.182 291.215 247.639 290.382 C 244.184 289.585 238.55 288.823 232.508 290.116 C 232.508 290.116 236.619 285.722 244.29 284.641 C 233.819 275.198 202.903 260.404 202.903 260.404 C 246.788 270.769 265.462 291.374 268.244 294.705 C 268.439 294.847 268.616 295.006 268.793 295.148 C 267.145 291.392 257.401 268.678 230.719 252.059 C 227.016 249.756 222.941 248.126 219.167 245.947 C 213.143 242.439 207.58 238.559 202.513 234.324 L 202.531 234.413 C 152.887 194.956 171.366 140.706 171.366 140.706 C 169.771 153.303 171.897 165.617 175.547 176.584 C 177.868 183.547 180.791 189.96 183.768 195.541 C 187.099 201.813 190.5 207.022 193.158 210.778 C 199.341 218.326 206.676 224.775 215.163 229.434 C 215.163 229.434 177.691 203.921 198.987 149.529 C 198.154 151.85 183.431 195.453 238.78 233.403 C 239.843 234.112 240.623 234.094 240.942 234.874 C 248.312 252.609 276.677 280.832 281.957 294.421 C 281.727 291.64 281.479 288.876 281.248 286.094 C 284.42 289.496 286.9 293.73 288.211 298.213 C 288.442 295.467 288.69 291.303 288.92 288.575 C 293.509 291.091 300.312 296.353 305.911 302.412 C 305.911 302.412 305.84 302.341 305.751 302.252 C 305.557 302.04 305.362 301.827 305.202 301.65 C 305.291 301.739 305.379 301.827 305.45 301.916 C 305.503 301.969 305.539 302.004 305.574 302.058 C 305.645 302.128 305.716 302.199 305.751 302.252 C 305.805 302.306 305.84 302.359 305.911 302.412 L 305.663 298.39 L 305.539 296.512 C 305.539 296.512 314.008 306.93 316.896 314.991 C 317.055 315.452 317.197 315.895 317.339 316.338 C 317.285 318.605 316.967 320.129 316.594 321.121 C 316.276 321.972 314.982 323.389 314.699 323.602 C 314.486 323.761 314.362 323.797 314.362 323.797 C 314.752 323.495 314.84 322.751 314.858 322.078 C 314.858 321.228 314.681 320.342 314.362 319.314 C 314.061 318.357 313.707 317.454 313.405 316.745 C 313.086 315.983 312.838 315.47 312.838 315.47 C 313.016 317.348 312.927 318.712 312.714 319.704 C 312.714 319.739 312.714 319.775 312.697 319.793 C 312.271 321.671 311.421 322.149 311.191 322.255 C 311.155 322.273 311.138 322.273 311.12 322.273 C 311.049 321.972 310.996 321.688 310.925 321.423 C 310.695 320.749 310.429 320.076 310.163 319.42 C 309.206 317.029 305.698 310.402 304.547 308.081 C 303.555 309.499 304.883 312.776 304.883 312.776 C 305.326 313.645 306.372 315.859 306.372 315.859 C 305.397 318.074 306.832 320.519 308.781 321.458 C 308.232 321.706 306.425 321.44 305.149 320.696 C 305.627 321.653 307.328 323.956 308.179 324.612 C 305.681 324.027 300.029 319.544 296.946 316.993 Z  M 309.649 333.665 L 307.204 331.681 L 305.45 330.263 L 305.007 328.917 L 304.901 328.563 L 304.299 326.72 L 304.281 326.667 C 306.248 327.818 307.807 329.927 308.817 331.592 C 309.029 331.947 310.128 334.055 310.128 334.055 L 309.649 333.665 Z  M 317.232 335.1 C 316.488 336.039 315.301 336.872 314.043 337.421 C 312.643 338.041 311.155 338.325 310.021 338.041 C 310.057 338.024 310.074 338.006 310.11 338.006 C 310.234 337.953 310.34 337.882 310.447 337.829 C 310.535 337.793 310.624 337.74 310.695 337.705 C 313.529 335.951 312.006 332.638 309.047 329.254 L 308.994 329.236 L 302.243 323.371 L 301.871 323.053 L 301.765 322.964 L 301.836 322.946 L 302.049 322.875 L 302.102 322.858 L 302.35 322.769 L 303.36 323.336 L 306.797 325.267 L 307.045 325.409 L 308.569 326.259 L 310.216 327.198 C 310.216 327.198 310.234 327.198 310.234 327.198 C 310.252 327.198 310.252 327.198 310.269 327.198 C 311.811 326.844 313.565 326.401 313.813 326.33 C 314.964 326.029 315.62 325.692 315.974 325.427 C 316.028 325.675 318.933 332.939 317.232 335.1 Z  M 352.72 172.066 L 353.057 172.101 C 343.596 172.668 334.241 175.414 326.445 180.357 C 332.859 167.849 347.05 159.38 359.594 154.419 C 359.594 154.419 361.153 152.01 345.987 154.278 C 344.021 154.49 342.072 154.827 340.123 155.252 C 340.088 155.252 340.07 155.252 340.034 155.27 L 340.07 155.27 C 331.743 157.112 323.823 160.815 317.144 166.077 C 313.37 169.054 309.986 172.526 307.133 176.442 C 294.359 193.433 290.036 208.298 290.036 208.298 C 290.036 208.298 288.194 186.364 316.222 157.431 C 319.305 152.276 322.778 147.35 326.605 142.868 C 326.605 142.868 327.243 139.59 311.386 151.638 C 299.905 159.664 289.895 170.188 282.666 181.952 C 280.061 186.594 274.516 197.029 272.904 203.939 C 272.921 204.134 272.939 204.347 272.939 204.559 C 272.939 204.559 273.116 208.705 273.878 214.197 C 274.799 220.841 277.528 230.037 277.528 230.037 C 275.668 226.245 272.354 217.9 271.256 214.056 C 270.724 212.178 270.281 210.406 269.927 208.687 C 269.697 207.624 269.52 206.614 269.342 205.605 C 269.254 205.073 269.165 204.506 269.077 203.939 C 268.935 203.036 268.811 202.132 268.705 201.264 C 268.35 198.039 268.209 195.01 268.173 191.962 C 268.12 187.923 268.279 184.291 268.474 181.651 C 261.192 198.358 260.502 211.221 260.484 216.359 C 260.112 219.637 259.935 222.099 259.793 224.155 C 261.689 229.523 265.037 236.681 271.043 245.752 C 271.043 245.752 265.64 242.74 259.279 231.631 C 259.031 234.076 258.57 236.876 257.596 241.216 C 264.807 253.459 272.035 262.867 278.555 270.06 L 278.555 255.443 C 280.894 257.782 282.506 259.607 283.623 261.007 C 284.668 256.258 286.121 250.571 288.158 244.512 C 300.862 206.721 315.921 195.205 315.921 195.205 C 302.066 216.855 289.345 260.634 289.877 281.08 C 292.552 283.366 294.962 285.208 296.946 286.608 C 295.865 284.996 294.962 283.153 294.731 281.718 C 300.897 252.502 320.138 233.456 320.138 233.456 C 324.319 191.608 371.678 173.873 371.678 173.873 C 375.54 171.056 352.72 172.066 352.72 172.066 Z " fill-rule="evenodd" fill="rgb(255,255,255)"/></g></svg>