<?xml version="1.0" encoding="UTF-8" standalone="no"?>
<!-- Generator: Gravit.io --><svg xmlns="http://www.w3.org/2000/svg" xmlns:xlink="http://www.w3.org/1999/xlink"
  style="isolation:isolate" viewBox="0 0 512 512" width="512pt" height="512pt">
  <defs>
    <clipPath id="_clipPath_oLzDJg0R4vNbN7P07Q6AOwgRFF8NK1b9">
      <rect width="512" height="512" />
    </clipPath>
  </defs>
  <g clip-path="url(#_clipPath_oLzDJg0R4vNbN7P07Q6AOwgRFF8NK1b9)">
    <circle vector-effect="non-scaling-stroke" cx="256" cy="256" r="256" fill="rgb(0,0,128)" />
    <circle vector-effect="non-scaling-stroke" cx="256" cy="256" r="128" fill="rgb(255,255,255)" />
    <path
      d=" M 256 140.493 L 256 159.334 M 256 352.051 L 256 370.893 M 276.07 142.336 L 272.794 160.973 M 239.206 350.413 L 235.93 369.05 M 295.322 147.456 L 288.973 165.274 M 223.027 346.112 L 216.678 363.93 M 235.93 142.336 L 239.206 160.973 M 272.794 350.413 L 276.07 369.05 M 216.678 147.456 L 223.027 165.274 M 288.973 346.112 L 295.322 363.93 M 198.451 156.058 L 207.872 172.442 M 304.128 339.149 L 313.549 355.328 M 182.067 167.526 L 194.15 181.862 M 317.85 329.523 L 329.933 343.859 M 167.731 181.658 L 182.272 193.741 M 329.728 317.645 L 344.269 329.728 M 156.262 198.246 L 172.646 207.667 M 339.354 303.923 L 355.738 313.344 M 147.866 216.269 L 165.478 222.822 M 346.522 288.563 L 364.134 295.117 M 142.541 235.725 L 161.178 239.002 M 350.822 272.384 L 369.459 275.661 M 140.902 255.795 L 159.744 255.795 M 352.256 255.795 L 371.098 255.795 M 142.541 275.661 L 161.178 272.384 M 350.822 239.002 L 369.459 235.725 M 147.866 295.117 L 165.478 288.563 M 346.522 222.822 L 364.134 216.269 M 156.262 313.344 L 172.646 303.923 M 339.354 207.667 L 355.738 198.246 M 167.731 329.728 L 182.272 317.645 M 329.728 193.741 L 344.269 181.658 M 182.067 343.859 L 194.15 329.523 M 317.85 181.862 L 329.933 167.526 M 198.451 355.328 L 207.872 339.149 M 304.128 172.442 L 313.549 156.058 M 245.965 141.107 L 246.784 151.347 M 265.216 360.243 L 266.035 370.483 M 226.099 144.589 L 228.762 154.419 M 283.238 356.966 L 285.901 367.002 M 207.258 151.347 L 211.558 160.768 M 300.237 350.822 L 304.742 360.038 M 189.85 161.382 L 195.789 169.779 M 316.211 341.606 L 322.15 350.003 M 174.49 174.285 L 181.862 181.453 M 330.138 329.933 L 337.51 337.101 M 161.587 189.645 L 170.189 195.584 M 341.811 315.802 L 350.413 321.741 M 151.757 207.053 L 160.973 211.354 M 351.027 300.032 L 360.243 304.333 M 144.794 225.894 L 154.829 228.557 M 357.171 282.829 L 367.206 285.491 M 141.312 245.555 L 151.552 246.579 M 360.448 264.806 L 370.688 265.83 M 141.312 265.83 L 151.552 264.806 M 360.448 246.579 L 370.688 245.555 M 144.794 285.491 L 154.829 282.829 M 357.171 228.557 L 367.206 225.894 M 151.757 304.333 L 160.973 300.032 M 351.027 211.354 L 360.243 207.053 M 161.587 321.741 L 170.189 315.802 M 341.811 195.584 L 350.413 189.645 M 189.85 350.003 L 195.789 341.606 M 316.211 169.779 L 322.15 161.382 M 207.258 360.038 L 211.763 350.822 M 300.237 160.768 L 304.742 151.347 M 226.099 367.002 L 228.762 356.966 M 283.238 154.419 L 285.901 144.589 M 245.965 370.483 L 246.784 360.243 M 265.216 151.347 L 266.035 141.107"
      fill="none" vector-effect="non-scaling-stroke" stroke-width="1" stroke="rgb(0,0,128)" stroke-linejoin="miter"
      stroke-linecap="butt" stroke-miterlimit="4" />
    <path
      d=" M 343.45 167.936 L 245.146 245.146 L 255.795 255.795 L 343.45 167.936 Z  M 255.795 255.795 L 268.083 268.083 L 343.45 167.936 L 255.795 255.795 Z  M 245.146 245.146 L 167.936 343.45 L 255.795 255.795 L 245.146 245.146 Z  M 167.936 343.45 L 268.083 268.083 L 255.795 255.795 L 167.936 343.45 Z "
      fill-rule="evenodd" fill="rgb(0,0,128)" />
  </g>
</svg>
