<?xml version="1.0" encoding="UTF-8" standalone="no"?><!-- Generator: Gravit.io --><svg xmlns="http://www.w3.org/2000/svg" xmlns:xlink="http://www.w3.org/1999/xlink" style="isolation:isolate" viewBox="0 0 512 512" width="512pt" height="512pt"><defs><clipPath id="_clipPath_xLharV6XZPkQOi2SfakskrbMSWBuRjQp"><rect width="512" height="512"/></clipPath></defs><g clip-path="url(#_clipPath_xLharV6XZPkQOi2SfakskrbMSWBuRjQp)"><rect x="0" y="0" width="512" height="512" transform="matrix(1,0,0,1,0,0)" fill="rgb(27,27,29)"/><mask id="_mask_PS6oK6NPTE84P3ur4rJpg1kqDA5F8VkZ"><path d=" M 386.599 223.272 L 362.812 204.486 L 362.812 204.486 L 362.812 161.777 C 362.812 158.871 361.663 158.06 359.602 158.06 L 337.842 158.06 C 335.477 158.06 334.024 158.533 334.024 161.777 L 334.024 181.746 L 334.024 181.746 C 302.567 156.911 268.474 129.982 267.19 128.968 C 264.622 126.941 263.034 126.4 261.175 126.4 C 259.351 126.4 257.763 126.941 255.161 128.968 C 252.593 130.995 139.198 220.569 135.752 223.272 C 131.562 226.584 132.744 231.348 137.407 231.348 L 159.539 231.348 L 159.539 351.5 C 159.539 359.272 162.647 362.38 170.047 362.38 L 352.304 362.38 C 359.703 362.38 362.812 359.272 362.812 351.5 L 362.812 231.314 L 384.943 231.314 C 389.606 231.314 390.789 226.584 386.599 223.272 Z  M 344.16 334.606 C 344.16 339.978 341.39 343.695 335.781 343.695 L 186.536 343.695 C 180.927 343.695 178.156 339.978 178.156 334.606 L 178.156 222.326 C 178.156 215.805 180.995 211.649 184.272 209.081 L 256.039 152.417 C 257.932 150.931 259.553 150.289 261.142 150.289 C 262.73 150.289 264.351 150.931 266.244 152.451 L 338.011 209.115 C 341.255 211.683 344.127 215.839 344.127 222.36 L 344.127 334.606 L 344.16 334.606 Z  M 338.078 209.081 L 266.277 152.384 C 264.385 150.897 262.696 150.255 261.175 150.255 C 259.621 150.255 257.965 150.897 256.073 152.417 L 184.272 209.081 C 181.028 211.649 178.156 215.805 178.156 222.326 L 178.156 334.606 C 178.156 339.978 180.927 343.695 186.536 343.695 L 335.781 343.695 C 341.39 343.695 344.16 339.978 344.16 334.606 L 344.16 222.326 C 344.16 215.805 341.322 211.649 338.078 209.081 Z  M 325.577 317.746 C 325.577 322.746 322.738 325.078 318.582 325.078 L 203.802 325.078 C 199.646 325.078 196.808 322.746 196.808 317.746 L 196.808 230.064 C 196.808 225.198 197.957 222.428 201.403 219.691 C 203.363 218.136 255.566 176.914 256.952 175.833 C 258.337 174.718 259.824 174.177 261.175 174.177 C 262.527 174.177 264.014 174.752 265.399 175.833 C 266.784 176.948 318.988 218.17 320.948 219.691 C 324.394 222.428 325.543 225.232 325.543 230.064 L 325.577 317.746 Z  M 320.948 219.691 C 318.988 218.17 266.784 176.914 265.399 175.833 C 264.014 174.718 262.527 174.177 261.175 174.177 C 259.824 174.177 258.337 174.752 256.952 175.833 C 255.566 176.948 203.363 218.17 201.403 219.691 C 197.957 222.428 196.808 225.232 196.808 230.064 L 196.808 317.746 C 196.808 322.746 199.646 325.078 203.802 325.078 L 318.582 325.078 C 322.738 325.078 325.577 322.746 325.577 317.746 L 325.577 230.064 C 325.543 225.232 324.394 222.428 320.948 219.691 Z  M 306.925 300.885 C 306.925 304.906 304.695 306.46 301.654 306.46 L 220.696 306.46 C 217.655 306.46 215.425 304.906 215.425 300.885 L 215.425 237.835 C 215.425 235.031 215.425 232.801 218.5 230.334 C 220.528 228.712 256.749 200.127 257.83 199.282 C 258.911 198.438 259.993 197.998 261.175 197.998 C 262.392 198.032 263.574 198.505 264.52 199.282 C 265.602 200.127 301.823 228.712 303.85 230.334 C 306.925 232.801 306.925 235.031 306.925 237.835 L 306.925 300.885 Z  M 303.85 230.334 C 301.823 228.712 265.602 200.127 264.52 199.282 C 263.574 198.471 262.392 198.032 261.175 197.998 C 259.993 197.998 258.911 198.438 257.83 199.282 C 256.749 200.127 220.494 228.712 218.5 230.334 C 215.425 232.801 215.425 235.031 215.425 237.835 L 215.425 300.885 C 215.425 304.906 217.655 306.46 220.696 306.46 L 301.62 306.46 C 304.661 306.46 306.891 304.906 306.891 300.885 L 306.891 237.835 C 306.925 234.997 306.925 232.767 303.85 230.334 Z  M 288.308 284.058 C 288.308 287.167 286.753 287.843 284.591 287.843 L 237.794 287.843 C 235.631 287.843 234.077 287.133 234.077 284.058 L 234.077 245.573 C 234.077 243.41 235.057 241.315 236.712 239.964 C 237.658 239.187 257.999 223.272 258.709 222.698 C 260.128 221.515 262.223 221.515 263.642 222.698 C 264.385 223.272 284.692 239.187 285.638 239.964 C 287.328 241.349 288.308 243.41 288.274 245.573 L 288.308 284.058 Z  M 261.175 287.809 L 284.557 287.809 C 286.72 287.809 288.274 287.099 288.274 284.024 L 288.274 245.573 C 288.274 243.41 287.294 241.315 285.638 239.964 C 284.692 239.187 264.351 223.272 263.642 222.698 C 262.223 221.515 260.128 221.515 258.709 222.698 C 257.999 223.272 237.658 239.187 236.712 239.964 C 235.023 241.349 234.043 243.41 234.077 245.573 L 234.077 284.024 C 234.077 287.133 235.631 287.809 237.794 287.809 L 261.175 287.809 Z " fill-rule="evenodd" fill="white" stroke="none"/></mask><path d=" M 386.599 223.272 L 362.812 204.486 L 362.812 204.486 L 362.812 161.777 C 362.812 158.871 361.663 158.06 359.602 158.06 L 337.842 158.06 C 335.477 158.06 334.024 158.533 334.024 161.777 L 334.024 181.746 L 334.024 181.746 C 302.567 156.911 268.474 129.982 267.19 128.968 C 264.622 126.941 263.034 126.4 261.175 126.4 C 259.351 126.4 257.763 126.941 255.161 128.968 C 252.593 130.995 139.198 220.569 135.752 223.272 C 131.562 226.584 132.744 231.348 137.407 231.348 L 159.539 231.348 L 159.539 351.5 C 159.539 359.272 162.647 362.38 170.047 362.38 L 352.304 362.38 C 359.703 362.38 362.812 359.272 362.812 351.5 L 362.812 231.314 L 384.943 231.314 C 389.606 231.314 390.789 226.584 386.599 223.272 Z  M 344.16 334.606 C 344.16 339.978 341.39 343.695 335.781 343.695 L 186.536 343.695 C 180.927 343.695 178.156 339.978 178.156 334.606 L 178.156 222.326 C 178.156 215.805 180.995 211.649 184.272 209.081 L 256.039 152.417 C 257.932 150.931 259.553 150.289 261.142 150.289 C 262.73 150.289 264.351 150.931 266.244 152.451 L 338.011 209.115 C 341.255 211.683 344.127 215.839 344.127 222.36 L 344.127 334.606 L 344.16 334.606 Z  M 338.078 209.081 L 266.277 152.384 C 264.385 150.897 262.696 150.255 261.175 150.255 C 259.621 150.255 257.965 150.897 256.073 152.417 L 184.272 209.081 C 181.028 211.649 178.156 215.805 178.156 222.326 L 178.156 334.606 C 178.156 339.978 180.927 343.695 186.536 343.695 L 335.781 343.695 C 341.39 343.695 344.16 339.978 344.16 334.606 L 344.16 222.326 C 344.16 215.805 341.322 211.649 338.078 209.081 Z  M 325.577 317.746 C 325.577 322.746 322.738 325.078 318.582 325.078 L 203.802 325.078 C 199.646 325.078 196.808 322.746 196.808 317.746 L 196.808 230.064 C 196.808 225.198 197.957 222.428 201.403 219.691 C 203.363 218.136 255.566 176.914 256.952 175.833 C 258.337 174.718 259.824 174.177 261.175 174.177 C 262.527 174.177 264.014 174.752 265.399 175.833 C 266.784 176.948 318.988 218.17 320.948 219.691 C 324.394 222.428 325.543 225.232 325.543 230.064 L 325.577 317.746 Z  M 320.948 219.691 C 318.988 218.17 266.784 176.914 265.399 175.833 C 264.014 174.718 262.527 174.177 261.175 174.177 C 259.824 174.177 258.337 174.752 256.952 175.833 C 255.566 176.948 203.363 218.17 201.403 219.691 C 197.957 222.428 196.808 225.232 196.808 230.064 L 196.808 317.746 C 196.808 322.746 199.646 325.078 203.802 325.078 L 318.582 325.078 C 322.738 325.078 325.577 322.746 325.577 317.746 L 325.577 230.064 C 325.543 225.232 324.394 222.428 320.948 219.691 Z  M 306.925 300.885 C 306.925 304.906 304.695 306.46 301.654 306.46 L 220.696 306.46 C 217.655 306.46 215.425 304.906 215.425 300.885 L 215.425 237.835 C 215.425 235.031 215.425 232.801 218.5 230.334 C 220.528 228.712 256.749 200.127 257.83 199.282 C 258.911 198.438 259.993 197.998 261.175 197.998 C 262.392 198.032 263.574 198.505 264.52 199.282 C 265.602 200.127 301.823 228.712 303.85 230.334 C 306.925 232.801 306.925 235.031 306.925 237.835 L 306.925 300.885 Z  M 303.85 230.334 C 301.823 228.712 265.602 200.127 264.52 199.282 C 263.574 198.471 262.392 198.032 261.175 197.998 C 259.993 197.998 258.911 198.438 257.83 199.282 C 256.749 200.127 220.494 228.712 218.5 230.334 C 215.425 232.801 215.425 235.031 215.425 237.835 L 215.425 300.885 C 215.425 304.906 217.655 306.46 220.696 306.46 L 301.62 306.46 C 304.661 306.46 306.891 304.906 306.891 300.885 L 306.891 237.835 C 306.925 234.997 306.925 232.767 303.85 230.334 Z  M 288.308 284.058 C 288.308 287.167 286.753 287.843 284.591 287.843 L 237.794 287.843 C 235.631 287.843 234.077 287.133 234.077 284.058 L 234.077 245.573 C 234.077 243.41 235.057 241.315 236.712 239.964 C 237.658 239.187 257.999 223.272 258.709 222.698 C 260.128 221.515 262.223 221.515 263.642 222.698 C 264.385 223.272 284.692 239.187 285.638 239.964 C 287.328 241.349 288.308 243.41 288.274 245.573 L 288.308 284.058 Z  M 261.175 287.809 L 284.557 287.809 C 286.72 287.809 288.274 287.099 288.274 284.024 L 288.274 245.573 C 288.274 243.41 287.294 241.315 285.638 239.964 C 284.692 239.187 264.351 223.272 263.642 222.698 C 262.223 221.515 260.128 221.515 258.709 222.698 C 257.999 223.272 237.658 239.187 236.712 239.964 C 235.023 241.349 234.043 243.41 234.077 245.573 L 234.077 284.024 C 234.077 287.133 235.631 287.809 237.794 287.809 L 261.175 287.809 Z " fill-rule="evenodd" fill="rgb(0,0,128)"/><path d=" M 386.599 223.272 L 362.812 204.486 L 362.812 204.486 L 362.812 161.777 C 362.812 158.871 361.663 158.06 359.602 158.06 L 337.842 158.06 C 335.477 158.06 334.024 158.533 334.024 161.777 L 334.024 181.746 L 334.024 181.746 C 302.567 156.911 268.474 129.982 267.19 128.968 C 264.622 126.941 263.034 126.4 261.175 126.4 C 259.351 126.4 257.763 126.941 255.161 128.968 C 252.593 130.995 139.198 220.569 135.752 223.272 C 131.562 226.584 132.744 231.348 137.407 231.348 L 159.539 231.348 L 159.539 351.5 C 159.539 359.272 162.647 362.38 170.047 362.38 L 352.304 362.38 C 359.703 362.38 362.812 359.272 362.812 351.5 L 362.812 231.314 L 384.943 231.314 C 389.606 231.314 390.789 226.584 386.599 223.272 Z  M 344.16 334.606 C 344.16 339.978 341.39 343.695 335.781 343.695 L 186.536 343.695 C 180.927 343.695 178.156 339.978 178.156 334.606 L 178.156 222.326 C 178.156 215.805 180.995 211.649 184.272 209.081 L 256.039 152.417 C 257.932 150.931 259.553 150.289 261.142 150.289 C 262.73 150.289 264.351 150.931 266.244 152.451 L 338.011 209.115 C 341.255 211.683 344.127 215.839 344.127 222.36 L 344.127 334.606 L 344.16 334.606 Z  M 338.078 209.081 L 266.277 152.384 C 264.385 150.897 262.696 150.255 261.175 150.255 C 259.621 150.255 257.965 150.897 256.073 152.417 L 184.272 209.081 C 181.028 211.649 178.156 215.805 178.156 222.326 L 178.156 334.606 C 178.156 339.978 180.927 343.695 186.536 343.695 L 335.781 343.695 C 341.39 343.695 344.16 339.978 344.16 334.606 L 344.16 222.326 C 344.16 215.805 341.322 211.649 338.078 209.081 Z  M 325.577 317.746 C 325.577 322.746 322.738 325.078 318.582 325.078 L 203.802 325.078 C 199.646 325.078 196.808 322.746 196.808 317.746 L 196.808 230.064 C 196.808 225.198 197.957 222.428 201.403 219.691 C 203.363 218.136 255.566 176.914 256.952 175.833 C 258.337 174.718 259.824 174.177 261.175 174.177 C 262.527 174.177 264.014 174.752 265.399 175.833 C 266.784 176.948 318.988 218.17 320.948 219.691 C 324.394 222.428 325.543 225.232 325.543 230.064 L 325.577 317.746 Z  M 320.948 219.691 C 318.988 218.17 266.784 176.914 265.399 175.833 C 264.014 174.718 262.527 174.177 261.175 174.177 C 259.824 174.177 258.337 174.752 256.952 175.833 C 255.566 176.948 203.363 218.17 201.403 219.691 C 197.957 222.428 196.808 225.232 196.808 230.064 L 196.808 317.746 C 196.808 322.746 199.646 325.078 203.802 325.078 L 318.582 325.078 C 322.738 325.078 325.577 322.746 325.577 317.746 L 325.577 230.064 C 325.543 225.232 324.394 222.428 320.948 219.691 Z  M 306.925 300.885 C 306.925 304.906 304.695 306.46 301.654 306.46 L 220.696 306.46 C 217.655 306.46 215.425 304.906 215.425 300.885 L 215.425 237.835 C 215.425 235.031 215.425 232.801 218.5 230.334 C 220.528 228.712 256.749 200.127 257.83 199.282 C 258.911 198.438 259.993 197.998 261.175 197.998 C 262.392 198.032 263.574 198.505 264.52 199.282 C 265.602 200.127 301.823 228.712 303.85 230.334 C 306.925 232.801 306.925 235.031 306.925 237.835 L 306.925 300.885 Z  M 303.85 230.334 C 301.823 228.712 265.602 200.127 264.52 199.282 C 263.574 198.471 262.392 198.032 261.175 197.998 C 259.993 197.998 258.911 198.438 257.83 199.282 C 256.749 200.127 220.494 228.712 218.5 230.334 C 215.425 232.801 215.425 235.031 215.425 237.835 L 215.425 300.885 C 215.425 304.906 217.655 306.46 220.696 306.46 L 301.62 306.46 C 304.661 306.46 306.891 304.906 306.891 300.885 L 306.891 237.835 C 306.925 234.997 306.925 232.767 303.85 230.334 Z  M 288.308 284.058 C 288.308 287.167 286.753 287.843 284.591 287.843 L 237.794 287.843 C 235.631 287.843 234.077 287.133 234.077 284.058 L 234.077 245.573 C 234.077 243.41 235.057 241.315 236.712 239.964 C 237.658 239.187 257.999 223.272 258.709 222.698 C 260.128 221.515 262.223 221.515 263.642 222.698 C 264.385 223.272 284.692 239.187 285.638 239.964 C 287.328 241.349 288.308 243.41 288.274 245.573 L 288.308 284.058 Z  M 261.175 287.809 L 284.557 287.809 C 286.72 287.809 288.274 287.099 288.274 284.024 L 288.274 245.573 C 288.274 243.41 287.294 241.315 285.638 239.964 C 284.692 239.187 264.351 223.272 263.642 222.698 C 262.223 221.515 260.128 221.515 258.709 222.698 C 257.999 223.272 237.658 239.187 236.712 239.964 C 235.023 241.349 234.043 243.41 234.077 245.573 L 234.077 284.024 C 234.077 287.133 235.631 287.809 237.794 287.809 L 261.175 287.809 Z " fill-rule="evenodd" fill="rgb(0,0,128)" mask="url(#_mask_PS6oK6NPTE84P3ur4rJpg1kqDA5F8VkZ)" vector-effect="non-scaling-stroke" stroke-width="2" stroke="rgb(27,27,29)" stroke-linejoin="miter" stroke-linecap="square" stroke-miterlimit="3"/></g></svg>