<?xml version="1.0" encoding="UTF-8" standalone="no"?><!-- Generator: Gravit.io --><svg xmlns="http://www.w3.org/2000/svg" xmlns:xlink="http://www.w3.org/1999/xlink" style="isolation:isolate" viewBox="0 0 512 512" width="512pt" height="512pt"><defs><clipPath id="_clipPath_xGAlz8UkcnRGx3SNHKGyit17MCAKTmWR"><rect width="512" height="512"/></clipPath></defs><g clip-path="url(#_clipPath_xGAlz8UkcnRGx3SNHKGyit17MCAKTmWR)"><rect width="512" height="512" style="fill:rgb(27,27,29)"/><path d=" M 374.097 218.195 C 362.774 197.205 340.618 184.137 316.525 184.218 L 134.23 184.218 C 131.713 184.228 129.446 185.741 128.472 188.062 C 127.511 190.369 128.045 193.028 129.823 194.785 L 169.534 234.19 C 173.04 237.681 177.817 239.635 182.787 239.635 L 311.298 239.635 C 320.457 239.538 327.944 246.792 328.041 255.823 C 328.137 264.854 320.795 272.253 311.635 272.341 L 223.037 272.341 C 220.518 272.342 218.245 273.85 217.263 276.169 C 216.293 278.479 216.824 281.147 218.606 282.909 L 258.341 322.346 C 261.87 325.835 266.633 327.789 271.594 327.783 L 311.667 327.783 C 363.803 327.783 403.225 272.776 374.097 218.171" fill="rgb(85,0,0)"/></g></svg>