<?xml version="1.0" encoding="UTF-8" standalone="no"?><!-- Generator: Gravit.io --><svg xmlns="http://www.w3.org/2000/svg" xmlns:xlink="http://www.w3.org/1999/xlink" style="isolation:isolate" viewBox="0 0 512 512" width="512pt" height="512pt"><defs><clipPath id="_clipPath_4zkxDj0JpxwRXQcEeOAEQGgwscAJKXHh"><rect width="512" height="512"/></clipPath></defs><g clip-path="url(#_clipPath_4zkxDj0JpxwRXQcEeOAEQGgwscAJKXHh)"><rect x="0" y="0" width="512" height="512" transform="matrix(1,0,0,1,0,0)" fill="rgb(27,27,29)"/><path d=" M 349.644 295.586 L 323.907 295.586 L 323.907 258.032 L 353.213 258.032 C 365.993 258.032 374.918 265.219 374.918 275.509 C 374.918 280.475 374.918 295.586 349.644 295.586 L 349.644 295.586 Z  M 323.907 216.413 L 345.681 216.413 C 353.347 216.413 359.071 217.71 362.694 220.268 C 365.063 221.94 368.212 225.103 368.212 233.242 C 368.212 247.818 356.732 248.951 353.213 248.951 L 323.907 248.951 L 323.907 216.413 Z  M 381.289 288.918 C 383.088 285.069 384 280.558 384 275.509 C 384 267.825 380.728 260.911 374.786 256.041 C 373.261 254.789 371.549 253.673 369.699 252.723 L 369.208 252.472 L 369.622 252.108 C 373.122 249.025 377.294 243.249 377.294 233.242 C 377.294 224.095 374.144 217.234 367.932 212.849 C 362.672 209.136 355.393 207.331 345.681 207.331 L 317.774 207.331 C 316.153 207.331 314.829 208.651 314.825 210.273 L 314.825 301.719 C 314.825 303.343 316.147 304.667 317.772 304.669 L 349.644 304.669 C 359.687 304.669 367.731 302.519 373.553 298.279 C 376.93 295.82 379.533 292.671 381.289 288.918 M 290.21 305.1 C 290.507 305.1 290.801 305.053 291.084 304.96 C 292.232 304.583 293.003 303.517 293.003 302.309 L 293.003 167.961 L 283.899 167.961 L 283.899 284.088 L 224.021 207.752 C 223.491 207.034 222.652 206.61 221.769 206.61 C 221.472 206.61 221.178 206.657 220.894 206.75 C 219.748 207.128 218.977 208.193 218.977 209.401 L 218.977 344.039 L 228.08 344.039 L 228.08 227.671 L 287.959 303.958 C 288.489 304.676 289.329 305.1 290.21 305.1 M 157.416 295.587 L 137.083 295.587 L 137.083 216.413 L 157.416 216.413 C 164.883 216.413 175.362 218.347 182.874 227.563 C 190.946 237.465 191.573 252.275 191.573 256.577 C 191.571 262.998 190.439 275.155 182.874 284.436 C 175.362 293.653 164.884 295.587 157.416 295.587 L 157.416 295.587 Z  M 189.913 290.175 C 199.253 278.717 200.652 264.208 200.654 256.579 C 200.654 250.091 199.608 233.717 189.913 221.825 C 185.805 216.786 180.633 212.982 174.54 210.521 C 169.302 208.404 163.54 207.331 157.416 207.331 L 130.95 207.331 C 129.324 207.331 128 208.654 128 210.281 L 128 301.719 C 128 303.343 129.322 304.667 130.946 304.669 L 157.416 304.669 C 163.539 304.669 169.3 303.595 174.54 301.478 C 180.632 299.017 185.805 295.214 189.913 290.175" fill-rule="evenodd" fill="rgb(85,0,0)"/></g></svg>