<?xml version="1.0" encoding="UTF-8" standalone="no"?><!-- Generator: Gravit.io --><svg xmlns="http://www.w3.org/2000/svg" xmlns:xlink="http://www.w3.org/1999/xlink" style="isolation:isolate" viewBox="0 0 512 512" width="512pt" height="512pt"><defs><clipPath id="_clipPath_gD9WSUYMG8ko0zfJEQqxmXafSzWMpgmr"><rect width="512" height="512"/></clipPath></defs><g clip-path="url(#_clipPath_gD9WSUYMG8ko0zfJEQqxmXafSzWMpgmr)"><rect x="0" y="0" width="512" height="512" transform="matrix(1,0,0,1,0,0)" fill="rgb(27,27,29)"/><path d=" M 162.807 285.34 C 162.807 230.889 206.689 186.681 260.739 186.681 C 314.789 186.681 358.67 230.889 358.67 285.34 C 358.67 339.792 314.789 384 260.739 384 C 206.689 384 162.807 339.792 162.807 285.34 Z  M 316.36 204.06 C 314.905 203.059 313.449 202.093 311.958 201.163 C 309.504 205.505 306.562 209.549 303.191 213.214 C 307.822 210.531 312.226 207.469 316.36 204.06 Z  M 274.156 239.64 C 278.354 239.941 282.507 240.696 286.544 241.893 C 291.336 239.283 292.33 240.641 292.33 240.641 C 293.409 242.624 293.409 245.024 292.33 247.007 C 292.77 249.315 291.736 251.656 289.738 252.871 C 289.738 252.478 289.738 249.653 284.84 250.976 C 279.942 252.299 277.989 254.552 274.191 253.479 C 275.818 255.024 278.19 255.471 280.261 254.623 C 283.811 253.229 287.928 250.833 289.632 252.907 L 289.632 252.907 C 290.874 258.306 285.514 260.81 266.312 265.208 C 254.74 267.89 252.113 281.836 252.504 289.274 C 253.462 312.625 271.636 315.771 295.098 317.631 C 316.395 319.312 332.439 329.968 336.237 348.026 C 370.58 306.007 364.655 243.906 322.997 209.245 C 305.279 224.424 283.051 233.231 259.816 234.276 C 264.309 236.762 269.141 238.569 274.156 239.64 Z  M 212.039 215.503 C 208.813 212.385 205.922 208.933 203.414 205.204 C 202.136 206.134 200.858 207.099 199.616 208.101 C 203.636 210.979 207.873 213.537 212.288 215.753 L 212.039 215.503 Z  M 243.701 225.301 C 247.529 225.774 251.381 226.013 255.237 226.016 L 256.976 226.016 C 261.976 225.946 266.962 225.468 271.884 224.586 C 286.333 220.488 298.584 210.794 305.96 197.623 C 275.313 181.54 238.525 182.898 209.129 201.199 C 211.377 204.51 213.945 207.588 216.796 210.389 C 224.235 217.754 233.544 222.914 243.701 225.301 L 243.701 225.301 Z  M 227.338 249.689 C 233.053 243.609 237.702 246.363 237.702 246.363 C 236.543 244.566 234.308 243.811 232.307 244.539 C 227.636 246.832 222.603 248.285 217.435 248.83 C 209.874 248.83 194.327 239.068 195.25 236.636 C 195.605 235.671 199.58 234.348 203.556 233.347 C 214.808 230.486 234.614 236.922 234.614 236.922 C 235.946 235.566 237.436 234.378 239.051 233.382 C 239.346 233.356 239.643 233.356 239.939 233.382 C 223.068 230.843 207.07 224.189 193.333 214.001 C 169.492 236.792 158.589 270.112 164.302 302.719 C 170.015 335.326 191.583 362.871 221.73 376.061 C 189.642 337.084 215.092 262.705 227.338 249.689 Z  M 199.403 170.303 C 199.239 162.369 200.726 154.487 203.769 147.167 C 204.088 145.5 203.2 143.836 201.642 143.186 C 200.085 142.536 198.289 143.079 197.344 144.485 C 189.063 164.475 191.318 187.32 203.343 205.276 C 205.224 203.917 207.105 202.629 209.058 201.414 C 202.925 192.2 199.571 181.395 199.403 170.303 Z  M 319.625 178.385 C 320.185 177.004 319.835 175.419 318.748 174.407 C 317.661 173.395 316.065 173.169 314.743 173.839 C 313.421 174.51 312.651 175.937 312.81 177.419 C 311.805 184.527 309.481 191.381 305.96 197.623 C 307.983 198.696 310.006 199.84 311.958 201.199 C 315.895 194.139 318.495 186.402 319.625 178.385 L 319.625 178.385 Z  M 343.336 186.144 C 344.141 184.899 344.226 183.315 343.558 181.99 C 342.89 180.664 341.57 179.799 340.097 179.719 C 338.624 179.639 337.22 180.357 336.415 181.603 C 330.933 190.096 324.166 197.673 316.36 204.06 C 318.702 205.705 320.974 207.421 323.175 209.245 C 330.977 202.576 337.769 194.793 343.336 186.144 L 343.336 186.144 Z  M 161.53 132.112 C 161.491 129.843 159.665 128.019 157.412 128 L 157.412 128 C 155.127 128.058 153.31 129.952 153.33 132.255 C 153.934 166.513 167.777 194.941 193.298 213.822 C 195.286 211.927 197.344 209.96 199.616 208.351 C 175.302 190.865 162.098 164.331 161.53 132.112 Z " fill-rule="evenodd" fill="rgb(0,103,79)"/></g></svg>