<?xml version="1.0" encoding="utf-8"?>
<!-- Generator: Adobe Illustrator 21.0.2, SVG Export Plug-In . SVG Version: 6.00 Build 0)  -->
<svg version="1.1" baseProfile="tiny" id="ps_x5F_cc_x5F_app_x5F_RGB.svg"
	 xmlns="http://www.w3.org/2000/svg" xmlns:xlink="http://www.w3.org/1999/xlink" x="0px" y="0px" viewBox="0 0 240 234"
	 xml:space="preserve">
<rect x="0" y="0" fill-rule="evenodd" fill="#061E26" width="240" height="234"/>
<path fill-rule="evenodd" fill="#26C9FF" d="M109.2,136.8l11.8,21.8c9.2-3.1,16.8-10.2,20.3-19.2l1-2.6L109.2,136.8z M110.8,114.6
	l-11-20c-9.1,3.1-16.5,10.9-20.1,19.8l0.3,0.2L110.8,114.6z M99.8,131.5L88.6,151c5.8,5.1,13.2,8.5,21.5,8.5c1.7,0,3.9-0.3,5.5-0.5
	l0.2-0.3L99.8,131.5z M120.9,120.8l11.2-19.3c-5.8-5.1-13.4-8.2-21.7-8.2c-1.7,0-3.2,0.2-4.8,0.4l-0.2,0.4L120.9,120.8z
	 M100.5,119.9H78c-0.4,2.1-0.7,4-0.7,6.3c0,7.7,2.7,14.8,7.1,20.4l0.5,0.3L100.5,119.9z M120,131.6h22.8c0.4-2.1,0.5-3.6,0.5-5.8
	c0-7.8-2.7-14.5-7.2-20.1l-0.5-0.4L120,131.6z"/>
<path fill-rule="evenodd" fill="#D9F5FF" d="M91.3,47.6c-2.7,0-5.3,1.4-6.6,3.7l-54.5,91.8c-1,1.7-1.2,3.6-0.7,5.4
	c0.5,1.9,1.7,3.4,3.4,4.4l93.4,52.1c1.1,0.6,2.4,0.9,3.6,0.9c2.7,0,5.2-1.4,6.6-3.7l54.5-91.8c1-1.7,1.3-3.6,0.8-5.5
	c-0.5-1.9-1.7-3.4-3.4-4.4L94.9,48.5C93.8,47.9,92.6,47.6,91.3,47.6z M129.9,209.9c-2,0-3.9-0.5-5.6-1.4l-93.4-52.1
	c-2.7-1.5-4.5-3.9-5.3-6.8c-0.8-2.9-0.4-5.9,1.2-8.5l54.5-91.8c2.1-3.5,5.9-5.6,10-5.6c2,0,3.9,0.5,5.6,1.4l93.4,52.1
	c2.7,1.5,4.5,3.9,5.3,6.8c0.8,2.9,0.4,5.9-1.2,8.5L140,204.3C137.9,207.7,134,209.9,129.9,209.9z"/>
</svg>
