<?xml version="1.0" encoding="UTF-8" standalone="no"?><!-- Generator: Gravit.io --><svg xmlns="http://www.w3.org/2000/svg" xmlns:xlink="http://www.w3.org/1999/xlink" style="isolation:isolate" viewBox="0 0 512 512" width="512pt" height="512pt"><defs><clipPath id="_clipPath_8xjK1ZPWaFi4j8KkR7gyLlSqs9j8sxal"><rect width="512" height="512"/></clipPath></defs><g clip-path="url(#_clipPath_8xjK1ZPWaFi4j8KkR7gyLlSqs9j8sxal)"><g><circle vector-effect="non-scaling-stroke" cx="256" cy="256" r="256" fill="rgb(96,181,125)"/><path d=" M 235.635 118.285 C 238.739 120.778 239.234 125.316 236.741 128.42 C 234.247 131.524 229.71 132.019 226.606 129.526 C 207.813 114.43 192.16 109.445 182.505 114.374 C 171.269 120.104 166.911 138.54 169.179 164.266 L 169.521 167.739 C 169.711 169.497 169.931 171.286 170.18 173.104 L 170.718 176.781 C 171.385 181.08 172.208 185.533 173.188 190.12 C 186.72 188.022 201.286 186.652 216.582 186.08 C 223.218 177.555 229.964 169.554 236.74 162.145 L 240.136 158.484 C 248.629 149.458 257.147 141.379 265.529 134.386 L 268.874 131.647 C 299.464 107.077 327.936 97.355 346.349 109.31 C 362.388 119.715 366.687 143.287 360.73 174.876 C 359.992 178.788 356.222 181.362 352.31 180.624 C 348.397 179.886 345.824 176.116 346.562 172.204 C 351.55 145.749 348.266 127.74 338.499 121.404 C 325.806 113.163 302.218 122.65 275.622 144.807 L 272.654 147.32 C 271.165 148.603 269.667 149.924 268.163 151.283 L 265.144 154.051 C 262.117 156.868 259.065 159.834 256 162.941 L 252.93 166.095 C 252.418 166.628 251.906 167.165 251.393 167.706 L 248.314 170.999 L 245.232 174.382 L 242.15 177.853 C 241.122 179.025 240.095 180.211 239.069 181.412 L 235.992 185.057 L 235.393 185.783 C 242.565 185.821 249.862 186.029 257.256 186.413 L 260.126 186.571 L 265.831 186.937 C 270.564 187.269 275.244 187.669 279.865 188.135 L 285.38 188.725 C 286.294 188.828 287.206 188.934 288.115 189.043 L 293.538 189.725 C 298.031 190.319 302.457 190.976 306.807 191.693 L 311.991 192.582 L 317.1 193.528 L 322.132 194.529 C 338.772 197.96 354.07 202.305 367.552 207.397 L 371.542 208.947 C 406.95 223.095 428.77 242.571 427.65 264.098 C 426.722 281.895 410.77 296.585 384.032 307.112 C 380.327 308.571 376.142 306.75 374.683 303.045 C 373.225 299.341 375.045 295.155 378.75 293.697 C 400.799 285.016 412.693 274.062 413.252 263.348 C 413.965 249.632 397.554 235.446 370.237 224.004 L 366.838 222.617 C 364.536 221.701 362.163 220.805 359.723 219.93 L 356.012 218.633 C 354.758 218.206 353.488 217.784 352.202 217.368 L 348.296 216.138 L 344.296 214.943 C 343.622 214.747 342.943 214.552 342.262 214.359 L 338.126 213.219 C 337.429 213.032 336.729 212.847 336.025 212.664 L 331.759 211.582 C 327.451 210.521 323.017 209.52 318.469 208.586 L 313.884 207.675 C 313.113 207.527 312.34 207.381 311.563 207.236 L 306.868 206.394 L 302.104 205.599 C 301.304 205.471 300.502 205.345 299.696 205.22 L 294.832 204.5 C 293.2 204.268 291.558 204.045 289.905 203.83 L 284.916 203.213 L 279.87 202.649 C 277.332 202.381 274.774 202.134 272.196 201.907 L 267.015 201.484 C 265.279 201.352 263.536 201.23 261.784 201.118 L 256.507 200.812 L 251.226 200.569 L 245.985 200.39 C 239.896 200.218 233.895 200.174 228.001 200.252 L 223.881 200.33 L 222.261 202.478 C 221.255 203.828 220.251 205.191 219.25 206.567 L 216.258 210.731 C 212.78 215.633 209.348 220.687 205.977 225.881 C 205.014 227.365 204.064 228.849 203.126 230.333 L 200.351 234.781 C 197.396 239.581 194.573 244.371 191.887 249.135 C 192.134 249.738 192.384 250.344 192.636 250.95 L 194.596 255.579 C 194.929 256.352 195.265 257.126 195.604 257.902 L 197.677 262.565 L 199.826 267.247 L 202.049 271.946 L 204.348 276.659 L 206.722 281.382 L 209.152 286.077 L 211.616 290.705 L 214.114 295.265 C 214.533 296.019 214.954 296.77 215.375 297.518 L 217.918 301.971 C 218.771 303.443 219.628 304.903 220.489 306.35 L 223.085 310.655 C 223.954 312.077 224.827 313.486 225.704 314.882 L 228.344 319.031 L 231.002 323.1 C 233.224 326.456 235.464 329.727 237.714 332.907 L 240.42 336.68 C 242.226 339.166 244.039 341.593 245.854 343.959 L 248.578 347.461 L 251.305 350.869 C 251.759 351.429 252.213 351.985 252.668 352.537 L 255.392 355.802 L 258.113 358.968 C 260.832 362.084 263.541 365.05 266.231 367.858 L 268.915 370.614 L 271.584 373.261 C 272.914 374.558 274.238 375.814 275.554 377.029 L 278.176 379.401 C 279.481 380.559 280.778 381.674 282.065 382.746 L 284.626 384.831 C 302.029 398.68 317.452 404.274 327.691 399.051 C 337.306 394.148 341.894 379.835 341.556 359.536 L 341.468 356.447 C 341.427 355.403 341.373 354.344 341.307 353.271 L 341.071 350.01 C 340.981 348.909 340.878 347.794 340.762 346.666 L 340.38 343.244 C 340.31 342.667 340.237 342.086 340.161 341.503 L 339.668 337.966 L 339.102 334.356 L 338.462 330.675 C 337.899 327.579 337.259 324.412 336.543 321.181 L 335.648 317.274 L 334.679 313.307 C 334.512 312.642 334.341 311.973 334.167 311.303 L 333.089 307.253 L 331.939 303.15 C 331.741 302.462 331.54 301.772 331.336 301.08 L 330.076 296.904 L 328.744 292.681 C 328.059 290.559 327.348 288.42 326.609 286.266 L 325.096 281.94 L 323.51 277.576 C 322.428 274.655 321.299 271.711 320.121 268.747 L 318.318 264.287 L 316.444 259.8 C 316.125 259.05 315.804 258.3 315.479 257.548 L 313.497 253.026 L 311.442 248.483 C 311.094 247.724 310.743 246.965 310.388 246.205 L 308.226 241.636 C 307.86 240.874 307.49 240.111 307.118 239.347 C 305.374 235.768 306.861 231.452 310.44 229.708 C 314.018 227.963 318.334 229.45 320.078 233.029 L 322.469 238.008 C 323.253 239.665 324.024 241.32 324.782 242.972 L 327.016 247.919 C 329.211 252.857 331.287 257.765 333.242 262.632 L 335.156 267.484 C 335.468 268.291 335.777 269.096 336.083 269.899 L 337.875 274.705 C 338.167 275.503 338.456 276.3 338.741 277.095 L 340.411 281.848 C 341.496 285.004 342.527 288.135 343.502 291.236 L 344.922 295.866 C 361.922 352.683 359.741 398.893 334.241 411.895 C 313.615 422.416 284.369 407.803 254.932 376.985 L 251.886 373.74 C 249.856 371.538 247.826 369.261 245.799 366.911 L 242.762 363.332 C 234.671 353.644 226.653 342.816 218.887 331.037 L 215.986 326.575 C 208.766 315.311 201.786 303.231 195.191 290.489 L 193.878 287.932 C 193.005 286.222 192.147 284.512 191.301 282.805 L 188.807 277.687 C 186.844 273.597 184.959 269.52 183.155 265.461 L 181.992 267.765 C 181.633 268.486 181.277 269.205 180.924 269.923 L 178.85 274.218 L 176.855 278.481 L 174.94 282.711 C 174.628 283.413 174.319 284.113 174.014 284.812 L 172.221 288.985 C 171.929 289.677 171.64 290.368 171.355 291.056 L 169.684 295.167 C 169.412 295.848 169.144 296.528 168.88 297.205 L 167.332 301.247 C 167.081 301.916 166.834 302.584 166.59 303.249 L 165.167 307.215 L 163.827 311.127 C 163.179 313.069 162.561 314.99 161.976 316.888 L 160.846 320.654 L 159.802 324.355 C 159.635 324.967 159.472 325.576 159.312 326.182 L 158.396 329.782 C 157.669 332.754 157.031 335.652 156.484 338.469 L 155.87 341.81 C 151.79 365.469 154.449 382.917 164.56 389.478 C 174.743 396.085 193.625 391.059 216.925 374.238 C 220.153 371.907 224.66 372.635 226.99 375.863 C 229.32 379.091 228.593 383.597 225.365 385.928 C 197.75 405.864 173.34 412.361 156.712 401.573 C 136.621 388.535 135.209 354.059 148.581 311.17 L 149.967 306.854 C 150.924 303.958 151.946 301.027 153.032 298.064 L 154.709 293.597 C 157.008 287.61 159.561 281.505 162.358 275.311 L 164.502 270.65 L 166.736 265.959 C 169.583 260.083 172.64 254.144 175.9 248.166 C 175.468 247.061 175.039 245.96 174.617 244.861 L 172.752 239.91 C 170.322 233.331 168.123 226.845 166.16 220.484 L 164.732 215.737 C 163.85 212.728 163.023 209.749 162.251 206.804 C 161.362 206.982 160.482 207.164 159.608 207.349 L 155.688 208.211 L 151.862 209.116 C 151.233 209.271 150.607 209.427 149.986 209.584 L 146.308 210.552 L 142.731 211.559 C 141.556 211.901 140.399 212.25 139.259 212.605 L 135.894 213.69 C 134.79 214.057 133.705 214.431 132.638 214.811 L 129.494 215.969 C 107.889 224.194 94.728 234.988 94.116 246.745 C 93.557 257.46 104.251 269.59 125.282 280.511 C 128.816 282.345 130.193 286.697 128.358 290.231 C 126.523 293.764 122.172 295.141 118.638 293.307 C 93.132 280.063 78.789 263.793 79.718 245.995 C 81.008 221.184 112.328 202.245 158.912 192.683 C 149.484 147.633 154.282 112.582 175.952 101.531 C 191.969 93.355 212.894 100.017 235.635 118.285 Z  M 275.142 252.385 C 277.534 263.456 270.499 274.363 259.428 276.76 C 248.357 279.152 237.45 272.116 235.053 261.045 C 232.665 249.974 239.697 239.067 250.768 236.67 C 261.838 234.278 272.746 241.314 275.142 252.385 Z  M 205.347 201.172 L 204.045 201.263 C 203.052 201.335 202.064 201.41 201.08 201.489 L 196.39 201.893 L 191.77 202.35 C 191.006 202.43 190.245 202.513 189.487 202.598 L 184.976 203.132 C 184.231 203.225 183.488 203.32 182.749 203.417 L 178.354 204.026 L 176.61 204.292 L 177.226 206.593 C 178.191 210.1 179.236 213.664 180.362 217.278 L 181.75 221.638 C 181.988 222.369 182.229 223.101 182.473 223.835 L 183.977 228.262 C 184.391 229.456 184.813 230.655 185.243 231.858 C 187.527 228.061 189.888 224.255 192.325 220.449 L 193.882 218.033 C 197.635 212.25 201.462 206.625 205.347 201.172 Z " fill="rgb(255,255,255)"/></g></g></svg>