<?xml version="1.0" encoding="UTF-8" standalone="no"?><!-- Generator: Gravit.io --><svg xmlns="http://www.w3.org/2000/svg" xmlns:xlink="http://www.w3.org/1999/xlink" style="isolation:isolate" viewBox="0 0 512 512" width="512pt" height="512pt"><defs><clipPath id="_clipPath_c9SOcdVojPU9YfEqzMI5fLoVv1MI6rBV"><rect width="512" height="512"/></clipPath></defs><g clip-path="url(#_clipPath_c9SOcdVojPU9YfEqzMI5fLoVv1MI6rBV)"><g><path d=" M 256 512 L 462.933 392.533 L 384 346.667 L 302.933 393.6 C 299.733 395.733 296.533 393.6 296.533 389.333 L 296.533 278.4 C 296.533 275.2 298.667 272 300.8 270.933 L 396.8 215.467 C 400 213.333 403.2 215.467 403.2 219.733 L 403.2 313.6 L 482.133 359.467 L 482.133 119.467 L 256 250.667 L 256 512 Z " fill="rgb(0,0,0)"/><path d=" M 276.267 0 L 276.267 91.733 L 357.333 138.667 C 360.533 140.8 360.533 145.067 357.333 146.133 L 261.333 201.6 C 258.133 203.733 254.933 202.667 252.8 201.6 L 156.8 146.133 C 153.6 145.067 153.6 139.733 156.8 138.667 L 237.867 91.733 L 237.867 0 L 29.867 119.467 L 256 250.667 L 482.133 119.467 L 276.267 0 Z " fill="rgb(128,128,128)"/><path d=" M 210.133 393.6 L 129.067 346.667 L 50.133 392.533 L 257.067 512 L 257.067 250.667 L 29.867 119.467 L 29.867 358.4 L 29.867 357.333 L 29.867 358.4 L 108.8 312.533 L 108.8 218.667 C 108.8 215.467 113.067 213.333 115.2 214.4 L 211.2 269.867 C 214.4 272 215.467 274.133 215.467 277.333 L 215.467 388.267 C 216.533 392.533 213.333 395.733 210.133 393.6 L 210.133 393.6 Z " fill="rgb(76,76,76)"/></g></g></svg>