<?xml version="1.0" encoding="UTF-8" standalone="no"?><!-- Generator: Gravit.io --><svg xmlns="http://www.w3.org/2000/svg" xmlns:xlink="http://www.w3.org/1999/xlink" style="isolation:isolate" viewBox="0 0 512 512" width="512pt" height="512pt"><defs><clipPath id="_clipPath_mQPBG1QKEBrKBv4YWJwqXwcEZo1Q0dw6"><rect width="512" height="512"/></clipPath></defs><g clip-path="url(#_clipPath_mQPBG1QKEBrKBv4YWJwqXwcEZo1Q0dw6)"><g><path d=" M 107.94 323.615 C 107.94 353.349 83.908 377.381 54.173 377.381 C 24.439 377.381 0.407 353.349 0.407 323.615 C 0.407 293.881 24.439 269.849 54.173 269.849 L 107.94 269.849 L 107.94 323.615 Z  M 134.823 323.615 C 134.823 293.881 158.854 269.849 188.589 269.849 C 218.323 269.849 242.355 293.881 242.355 323.615 L 242.355 458.03 C 242.355 487.765 218.323 511.796 188.589 511.796 C 158.854 511.796 134.823 487.765 134.823 458.03 L 134.823 323.615 Z " fill="rgb(224,30,90)"/><path d=" M 188.589 107.736 C 158.854 107.736 134.823 83.704 134.823 53.97 C 134.823 24.235 158.854 0.204 188.589 0.204 C 218.323 0.204 242.355 24.235 242.355 53.97 L 242.355 107.736 L 188.589 107.736 Z  M 188.589 135.026 C 218.323 135.026 242.355 159.058 242.355 188.792 C 242.355 218.527 218.323 242.558 188.589 242.558 L 53.766 242.558 C 24.032 242.558 0 218.527 0 188.792 C 0 159.058 24.032 135.026 53.766 135.026 L 188.589 135.026 Z " fill="rgb(54,197,240)"/><path d=" M 404.06 188.792 C 404.06 159.058 428.092 135.026 457.827 135.026 C 487.561 135.026 511.593 159.058 511.593 188.792 C 511.593 218.527 487.561 242.558 457.827 242.558 L 404.06 242.558 L 404.06 188.792 Z  M 377.177 188.792 C 377.177 218.527 353.146 242.558 323.411 242.558 C 293.677 242.558 269.645 218.527 269.645 188.792 L 269.645 53.97 C 269.645 24.235 293.677 0.204 323.411 0.204 C 353.146 0.204 377.177 24.235 377.177 53.97 L 377.177 188.792 L 377.177 188.792 Z " fill="rgb(46,182,125)"/><path d=" M 323.411 404.264 C 353.146 404.264 377.177 428.296 377.177 458.03 C 377.177 487.765 353.146 511.796 323.411 511.796 C 293.677 511.796 269.645 487.765 269.645 458.03 L 269.645 404.264 L 323.411 404.264 Z  M 323.411 377.381 C 293.677 377.381 269.645 353.349 269.645 323.615 C 269.645 293.881 293.677 269.849 323.411 269.849 L 458.234 269.849 C 487.968 269.849 512 293.881 512 323.615 C 512 353.349 487.968 377.381 458.234 377.381 L 323.411 377.381 Z " fill="rgb(236,178,46)"/></g></g></svg>