<?xml version="1.0" encoding="UTF-8" standalone="no"?><!-- Generator: Gravit.io --><svg xmlns="http://www.w3.org/2000/svg" xmlns:xlink="http://www.w3.org/1999/xlink" style="isolation:isolate" viewBox="0 0 512 512" width="512pt" height="512pt"><defs><clipPath id="_clipPath_DXEncpehNwp45zrGxQmzlt1NqHdHbPth"><rect width="512" height="512"/></clipPath></defs><g clip-path="url(#_clipPath_DXEncpehNwp45zrGxQmzlt1NqHdHbPth)"><circle vector-effect="non-scaling-stroke" cx="256" cy="256" r="256" fill="rgb(27,27,29)" /><path d=" M 197.955 128 L 314.045 128 L 314.045 146.671 L 197.955 146.671 L 197.955 128 Z  M 292.279 184.005 L 292.279 282.573 L 292.271 282.573 C 292.271 291.297 292.474 296.576 292.882 301.651 L 292.474 301.651 C 290.34 295.843 287.823 290.751 284.076 284.12 L 225.782 184.005 L 199.144 184.005 L 199.144 328.093 L 219.9 328.093 L 219.9 229.525 L 219.917 229.525 C 219.917 220.792 219.713 215.522 219.306 210.447 L 219.713 210.447 C 221.839 216.255 224.356 221.346 228.104 227.969 L 286.397 328.093 L 312.766 328.093 L 312.766 184.005 L 292.279 184.005 Z  M 197.955 365.427 L 314.045 365.427 L 314.045 384 L 197.955 384 L 197.955 365.427 Z " fill="rgb(102,0,51)"/></g></svg>