<?xml version="1.0" encoding="UTF-8" standalone="no"?><!-- Generator: Gravit.io --><svg xmlns="http://www.w3.org/2000/svg" xmlns:xlink="http://www.w3.org/1999/xlink" style="isolation:isolate" viewBox="0 0 512 512" width="512pt" height="512pt"><defs><clipPath id="_clipPath_EjWQwzW4oIplonVk8ehZacZedNhtxAkp"><rect width="512" height="512"/></clipPath></defs><g clip-path="url(#_clipPath_EjWQwzW4oIplonVk8ehZacZedNhtxAkp)"><circle vector-effect="non-scaling-stroke" cx="256" cy="256" r="256" fill="rgb(0,103,79)" /><path d=" M 348.881 191.575 C 347.447 190.135 345.733 189 343.848 188.239 C 341.963 187.479 339.942 187.108 337.909 187.148 L 337.845 187.148 C 335.013 187.148 332.209 186.589 329.593 185.505 C 326.975 184.42 324.598 182.829 322.599 180.823 C 320.597 178.82 319.011 176.439 317.933 173.821 C 316.852 171.203 316.299 168.396 316.304 165.564 C 316.335 163.575 315.973 161.601 315.238 159.752 C 314.503 157.905 313.41 156.219 312.023 154.794 C 310.635 153.37 308.981 152.233 307.153 151.449 C 305.325 150.665 303.36 150.25 301.371 150.229 L 179.958 150.229 C 177.969 150.242 176.004 150.65 174.174 151.428 C 172.344 152.205 170.685 153.338 169.296 154.76 C 167.904 156.181 166.809 157.865 166.074 159.712 C 165.337 161.559 164.975 163.533 165.004 165.522 C 165.004 171.252 162.729 176.748 158.677 180.8 C 154.625 184.85 149.129 187.127 143.399 187.127 L 143.399 187.148 C 141.385 187.106 139.383 187.468 137.511 188.212 C 135.638 188.955 133.935 190.067 132.499 191.482 C 131.063 192.895 129.926 194.581 129.152 196.443 C 128.381 198.302 127.99 200.3 128 202.314 L 128 241.161 C 127.992 243.173 128.386 245.169 129.159 247.026 C 129.934 248.884 131.072 250.57 132.508 251.981 C 133.942 253.391 135.645 254.501 137.515 255.245 C 139.387 255.988 141.387 256.348 143.399 256.306 C 149.118 256.306 154.604 258.574 158.654 262.612 C 162.704 266.649 164.987 272.128 165.004 277.847 L 165.004 317.245 C 165.004 322.286 171.359 324.51 174.494 320.592 L 196.374 293.204 L 301.371 293.204 C 303.358 293.185 305.319 292.774 307.147 291.995 C 308.973 291.213 310.627 290.082 312.014 288.661 C 313.402 287.239 314.495 285.557 315.232 283.713 C 315.967 281.868 316.331 279.898 316.304 277.911 L 316.304 277.89 C 316.304 265.943 325.941 256.285 337.909 256.285 C 339.923 256.333 341.929 255.975 343.804 255.236 C 345.678 254.495 347.383 253.385 348.821 251.974 C 350.26 250.561 351.399 248.875 352.175 247.014 C 352.948 245.154 353.342 243.156 353.329 241.14 L 353.329 202.293 C 353.329 198.417 351.846 194.541 348.881 191.575 Z  M 323.082 241.564 C 323.027 247.257 320.726 252.699 316.681 256.704 C 312.635 260.709 307.17 262.957 301.477 262.957 L 179.852 262.957 C 174.159 262.957 168.696 260.709 164.651 256.704 C 160.605 252.699 158.305 247.257 158.247 241.564 L 158.247 201.891 C 158.305 196.197 160.605 190.755 164.651 186.75 C 168.696 182.745 174.159 180.497 179.852 180.497 L 301.455 180.497 C 307.149 180.497 312.614 182.745 316.66 186.75 C 320.705 190.755 323.005 196.197 323.061 201.891 L 323.061 241.564 L 323.082 241.564 L 323.082 241.564 Z  M 207.071 198.968 C 203.048 198.968 199.191 200.565 196.347 203.409 C 193.502 206.254 191.905 210.111 191.905 214.134 L 191.905 229.299 C 191.905 231.291 192.297 233.263 193.059 235.103 C 193.822 236.944 194.938 238.615 196.347 240.024 C 197.755 241.432 199.426 242.548 201.267 243.311 C 203.108 244.074 205.08 244.465 207.071 244.465 C 209.062 244.465 211.034 244.074 212.874 243.311 C 214.715 242.548 216.386 241.432 217.795 240.024 C 219.203 238.615 220.32 236.944 221.082 235.103 C 221.845 233.263 222.237 231.291 222.237 229.299 L 222.237 214.134 C 222.237 205.767 215.459 198.968 207.071 198.968 Z  M 274.237 198.968 C 270.215 198.968 266.358 200.565 263.513 203.409 C 260.668 206.254 259.071 210.111 259.071 214.134 L 259.071 229.299 C 259.071 233.322 260.668 237.179 263.513 240.024 C 266.358 242.868 270.215 244.465 274.237 244.465 C 278.26 244.465 282.117 242.868 284.961 240.024 C 287.806 237.179 289.403 233.322 289.403 229.299 L 289.403 214.134 C 289.403 205.767 282.625 198.968 274.237 198.968 Z  M 205.779 359.756 L 227.045 333.173 L 332.042 333.173 C 334.028 333.154 335.99 332.743 337.818 331.964 C 339.644 331.182 341.298 330.051 342.685 328.63 C 344.073 327.209 345.166 325.527 345.903 323.682 C 346.638 321.837 347.002 319.867 346.974 317.88 C 346.968 312.161 349.23 306.673 353.265 302.619 C 357.298 298.565 362.776 296.277 368.495 296.254 L 368.601 296.254 C 370.615 296.299 372.617 295.941 374.487 295.199 C 376.36 294.456 378.065 293.348 379.501 291.935 C 380.937 290.522 382.074 288.839 382.847 286.979 C 383.621 285.119 384.012 283.124 384 281.109 L 384 242.771 C 384 239.106 382.792 235.527 380.547 232.625 L 376.311 227.097 L 376.311 271.112 C 376.319 273.124 375.925 275.119 375.152 276.977 C 374.379 278.834 373.239 280.521 371.806 281.931 C 370.369 283.342 368.666 284.452 366.796 285.195 C 364.926 285.939 362.924 286.299 360.912 286.256 L 360.827 286.256 C 355.112 286.28 349.639 288.565 345.604 292.615 C 341.571 296.663 339.307 302.147 339.307 307.862 C 339.334 309.851 338.97 311.825 338.233 313.672 C 337.496 315.519 336.401 317.203 335.011 318.626 C 333.622 320.049 331.965 321.183 330.135 321.964 C 328.307 322.744 326.342 323.157 324.353 323.176 L 219.356 323.176 L 196.226 352.11 C 195.321 353.385 194.94 354.959 195.158 356.505 C 195.376 358.053 196.179 359.46 197.401 360.434 C 198.624 361.411 200.172 361.881 201.729 361.749 C 203.286 361.62 204.737 360.9 205.779 359.735 L 205.779 359.756 Z  M 181.378 331.479 L 203.999 303.202 L 308.996 303.202 C 310.985 303.185 312.953 302.776 314.783 301.994 C 316.613 301.215 318.271 300.082 319.661 298.658 C 321.05 297.233 322.146 295.549 322.883 293.702 C 323.618 291.853 323.98 289.876 323.95 287.887 C 323.95 275.983 333.545 266.325 345.428 266.282 L 345.555 266.282 C 347.57 266.327 349.573 265.969 351.448 265.225 C 353.32 264.482 355.026 263.37 356.462 261.957 C 357.898 260.542 359.035 258.854 359.808 256.992 C 360.579 255.13 360.969 253.133 360.954 251.116 L 360.954 207.059 L 366.504 214.324 C 368.736 217.228 369.95 220.787 369.956 224.449 L 369.956 262.787 C 369.965 264.8 369.571 266.795 368.798 268.653 C 368.023 270.51 366.885 272.196 365.451 273.607 C 364.015 275.018 362.312 276.127 360.442 276.871 C 358.571 277.614 356.57 277.975 354.557 277.932 L 354.452 277.932 C 348.739 277.96 343.272 280.249 339.243 284.297 C 335.214 288.347 332.952 293.825 332.952 299.537 C 332.98 301.526 332.616 303.5 331.878 305.347 C 331.141 307.194 330.046 308.878 328.657 310.302 C 327.267 311.723 325.611 312.858 323.781 313.64 C 321.953 314.419 319.987 314.832 317.998 314.851 L 213.002 314.851 L 192.561 340.439 C 191.365 341.89 189.647 342.811 187.776 343.004 C 185.908 343.199 184.036 342.65 182.568 341.477 C 181.1 340.303 180.153 338.598 179.929 336.732 C 179.706 334.866 180.227 332.987 181.378 331.5 L 181.378 331.479 Z " fill-rule="evenodd" fill="rgb(255,255,255)"/></g></svg>