<?xml version="1.0" encoding="UTF-8" standalone="no"?><!-- Generator: Gravit.io --><svg xmlns="http://www.w3.org/2000/svg" xmlns:xlink="http://www.w3.org/1999/xlink" style="isolation:isolate" viewBox="0 0 512 512" width="512pt" height="512pt"><defs><clipPath id="_clipPath_LZjrwIXtuRF0MS3M0EQDvu8MkGjeqh5B"><rect width="512" height="512"/></clipPath></defs><g clip-path="url(#_clipPath_LZjrwIXtuRF0MS3M0EQDvu8MkGjeqh5B)"><path d=" M 206.288 45.551 C 200.644 39.879 192.77 36.377 184.016 36.377 C 175.296 36.377 167.482 39.879 161.905 45.551 L 161.744 45.551 C 156.117 51.195 152.614 59.075 152.614 67.795 C 152.614 76.549 156.117 84.362 161.744 89.973 L 161.905 90.1 C 167.482 95.744 175.296 99.214 184.016 99.214 C 192.77 99.214 200.644 95.744 206.288 90.1 L 206.371 89.973 C 212.026 84.362 215.496 76.549 215.496 67.795 C 215.496 59.075 212.026 51.195 206.371 45.551 L 206.288 45.551 Z  M 184.016 475.623 C 192.77 475.623 200.644 472.06 206.288 466.482 L 206.371 466.316 C 212.026 460.75 215.496 452.87 215.496 444.21 C 215.496 435.456 212.026 427.61 206.371 421.938 L 206.288 421.938 C 200.644 416.2 192.77 412.731 184.016 412.731 C 175.296 412.731 167.482 416.2 161.905 421.938 L 161.744 421.938 C 156.117 427.61 152.614 435.456 152.614 444.21 C 152.614 452.87 156.117 460.75 161.744 466.316 L 161.905 466.482 C 167.482 472.06 175.296 475.623 184.016 475.623 Z  M 355.197 380.438 C 362.983 378.396 370.032 373.399 374.332 365.846 L 374.913 364.745 C 378.737 357.579 379.434 349.312 377.392 341.986 C 375.333 334.14 370.276 327.201 362.739 322.857 L 362.302 322.564 C 354.959 318.541 346.593 317.667 338.907 319.742 C 331.094 321.69 324.078 326.908 319.8 334.4 C 315.468 341.82 314.56 350.38 316.635 358.26 C 318.777 366.007 323.784 373.012 331.271 377.389 L 331.321 377.389 C 338.824 381.699 347.323 382.48 355.197 380.438 Z  M 216.259 223.804 C 208.003 215.57 196.627 210.413 184.016 210.413 C 171.455 210.413 160.106 215.57 151.867 223.804 C 143.667 232.01 138.609 243.359 138.609 255.936 C 138.609 268.547 143.667 279.929 151.867 288.229 C 160.106 296.397 171.455 301.521 184.016 301.521 C 196.627 301.521 208.003 296.397 216.259 288.229 C 224.476 279.929 229.534 268.547 229.534 255.936 C 229.534 243.359 224.476 232.01 216.259 223.804 Z  M 198.132 170.252 C 216.403 173.262 232.843 182.016 245.387 194.659 L 245.487 194.659 C 247.479 196.668 249.426 198.843 251.225 201.045 L 282.594 182.895 C 278.377 170.152 278.184 156.828 281.57 144.344 C 286.047 127.611 296.892 112.632 313.149 103.231 L 313.686 102.91 C 329.766 93.797 348.048 91.915 364.554 96.392 C 381.265 100.863 396.344 111.758 405.728 128.004 L 405.728 128.037 C 415.069 144.184 416.967 162.726 412.507 179.393 C 408.064 196.115 397.168 211.193 380.928 220.528 L 376.645 223.062 L 376.208 223.062 C 361.185 230.223 344.662 231.329 329.489 227.34 C 317.028 224.031 305.596 217.092 296.649 207.204 L 265.329 225.298 C 268.926 234.826 270.924 245.108 270.924 255.936 C 270.924 266.732 268.926 277.14 265.329 286.735 L 296.649 304.763 C 305.596 294.748 317.028 287.936 329.489 284.627 C 346.2 280.056 364.731 282.004 380.928 291.439 L 381.962 291.926 L 381.962 291.992 C 397.611 301.454 408.113 316.112 412.507 332.646 C 416.967 349.213 415.069 367.761 405.728 383.941 L 405.164 385.075 L 405.098 384.975 C 395.713 400.574 380.928 411.143 364.604 415.614 C 347.855 420.024 329.329 418.142 313.149 408.841 L 313.149 408.708 C 296.892 399.307 286.047 384.295 281.57 367.6 C 278.184 355.15 278.377 341.82 282.594 329.082 L 251.225 310.988 C 249.426 313.196 247.479 315.271 245.487 317.28 L 245.387 317.374 C 232.843 329.957 216.403 338.711 198.132 341.627 L 198.132 377.876 C 211.152 380.598 222.822 387.117 231.969 396.258 L 232.013 396.357 C 244.269 408.548 251.856 425.535 251.856 444.21 C 251.856 462.825 244.269 479.707 232.013 491.964 L 231.969 492.157 C 219.629 504.414 202.691 512 184.016 512 C 165.441 512 148.481 504.414 136.174 492.157 L 136.13 492.157 L 136.13 491.964 C 123.857 479.707 116.254 462.825 116.254 444.21 C 116.254 425.535 123.857 408.548 136.13 396.357 L 136.13 396.258 L 136.174 396.258 C 145.304 387.117 156.991 380.598 169.978 377.876 L 169.978 341.627 C 151.69 338.711 135.3 329.957 122.772 317.374 L 122.64 317.28 C 106.98 301.554 97.192 279.929 97.192 255.936 C 97.192 232.01 106.98 210.385 122.64 194.659 L 122.772 194.659 C 135.3 182.016 151.69 173.262 169.978 170.252 L 169.978 134.163 C 156.991 131.341 145.304 124.828 136.174 115.748 L 136.13 115.748 L 136.13 115.648 C 123.857 103.331 116.254 86.47 116.254 67.795 C 116.254 49.214 123.857 32.193 136.13 19.937 L 136.174 19.876 C 148.481 7.586 165.441 0 184.016 0 C 202.691 0 219.629 7.586 231.969 19.876 L 231.969 19.937 L 232.013 19.937 C 244.269 32.193 251.856 49.214 251.856 67.795 C 251.856 86.47 244.269 103.331 232.013 115.648 L 231.969 115.748 C 222.822 124.828 211.152 131.341 198.132 134.163 L 198.132 170.252 Z  M 374.332 146.192 L 374.072 145.805 C 369.739 138.507 362.834 133.643 355.197 131.534 C 347.323 129.459 338.824 130.339 331.271 134.65 L 331.321 134.65 C 323.784 138.927 318.743 145.932 316.635 153.779 C 314.56 161.559 315.468 170.152 319.8 177.639 L 319.944 177.838 C 324.288 185.225 331.194 190.183 338.907 192.192 C 346.659 194.366 355.297 193.459 362.739 189.115 L 363.143 188.921 C 370.47 184.544 375.35 177.639 377.392 170.052 C 379.467 162.239 378.642 153.679 374.332 146.192 Z " fill="rgb(26,25,25)"/></g></svg>