<?xml version="1.0" encoding="UTF-8" standalone="no"?><!-- Generator: Gravit.io --><svg xmlns="http://www.w3.org/2000/svg" xmlns:xlink="http://www.w3.org/1999/xlink" style="isolation:isolate" viewBox="0 0 512 512" width="512pt" height="512pt"><defs><clipPath id="_clipPath_VcUqgac0QRTO4nGanICsESpAnZqG1nwb"><rect width="512" height="512"/></clipPath></defs><g clip-path="url(#_clipPath_VcUqgac0QRTO4nGanICsESpAnZqG1nwb)"><path d=" M 491.411 204.826 L 327.628 204.826 C 322.175 204.86 316.936 202.709 313.08 198.853 C 309.224 194.997 307.073 189.758 307.107 184.305 L 307.107 20.522 C 307.107 15.091 304.941 9.884 301.089 6.056 C 297.237 2.228 292.017 0.095 286.586 0.129 L 225.28 0.129 C 219.849 0.095 214.629 2.228 210.777 6.056 C 206.925 9.884 204.759 15.091 204.759 20.522 L 204.759 184.305 C 204.793 189.758 202.642 194.997 198.786 198.853 C 194.93 202.709 189.691 204.86 184.238 204.826 L 122.931 204.826 C 117.478 204.86 112.239 202.709 108.383 198.853 C 104.527 194.997 102.376 189.758 102.41 184.305 L 102.41 20.522 C 102.445 15.069 100.294 9.829 96.438 5.973 C 92.582 2.117 87.342 -0.034 81.889 0 L 20.455 0 C 15.024 0 9.818 2.167 5.989 6.019 C 2.161 9.871 0.028 15.091 0.062 20.522 L 0.062 491.478 C 0.028 496.931 2.179 502.171 6.035 506.027 C 9.89 509.883 15.13 512.034 20.583 512 L 491.411 512 C 496.864 512.034 502.104 509.883 505.96 506.027 C 509.816 502.171 511.967 496.931 511.932 491.478 L 511.932 225.732 C 512.071 220.212 509.967 214.873 506.099 210.933 C 502.232 206.993 496.932 204.789 491.411 204.826 Z  M 409.071 378.741 C 409.105 386.893 405.89 394.723 400.138 400.499 C 394.386 406.276 386.57 409.523 378.418 409.523 L 337.376 409.523 C 329.224 409.523 321.407 406.276 315.655 400.499 C 309.903 394.723 306.688 386.893 306.722 378.741 L 306.722 337.827 C 306.688 329.675 309.903 321.846 315.655 316.069 C 321.407 310.293 329.224 307.046 337.376 307.046 L 378.418 307.046 C 386.57 307.046 394.386 310.293 400.138 316.069 C 405.89 321.846 409.105 329.675 409.071 337.827 L 409.071 378.741 L 409.071 378.741 Z " fill="rgb(255,102,0)"/></g></svg>