<?xml version="1.0" encoding="UTF-8" standalone="no"?><!-- Generator: Gravit.io --><svg xmlns="http://www.w3.org/2000/svg" xmlns:xlink="http://www.w3.org/1999/xlink" style="isolation:isolate" viewBox="0 0 512 512" width="512pt" height="512pt"><defs><clipPath id="_clipPath_C7nmvrFa1Qvu5WHCij11sCg2kZzwlcyd"><rect width="512" height="512"/></clipPath></defs><g clip-path="url(#_clipPath_C7nmvrFa1Qvu5WHCij11sCg2kZzwlcyd)"><circle vector-effect="non-scaling-stroke" cx="256" cy="256" r="256" fill="rgb(149,6,6)" /><path d=" M 373.933 295.546 L 373.933 286.917 C 371.31 292.327 365.123 295.546 358.114 295.546 C 346.177 295.546 337.98 286.146 337.98 271.098 C 337.98 256.092 346.177 246.649 358.114 246.649 C 364.985 246.649 371.402 251.395 373.933 256.716 L 373.933 229.392 L 384 229.392 L 384 295.546 L 373.933 295.546 Z  M 360.99 255.278 C 353.845 255.278 348.047 261.776 348.047 271.098 C 348.047 280.463 353.865 287.078 361.007 287.078 C 368.106 287.078 373.933 280.374 373.933 271.098 C 373.933 261.868 368.088 255.278 360.99 255.278 Z  M 322.16 266.783 L 322.16 295.546 L 310.655 295.546 L 310.655 246.649 L 322.16 246.649 L 322.16 256.115 L 322.387 256.115 C 323.926 250.432 328.013 246.649 333.665 246.649 C 335.112 246.649 335.681 246.422 336.541 246.649 L 336.541 256.716 L 332.227 256.716 C 325.85 256.716 322.16 259.964 322.16 266.783 Z  M 293.397 295.546 L 293.397 286.917 C 290.757 292.129 283.839 295.546 277.578 295.546 C 268.273 295.546 261.747 290.987 261.747 282.269 C 261.747 273.551 268.279 268.523 280.221 267.787 L 293.397 266.783 L 293.397 263.907 C 293.397 258.784 289.051 255.195 283.33 255.212 C 278.498 255.229 275.418 257.156 274.702 261.031 L 264.635 261.031 C 264.948 252.036 272.484 246.661 283.802 246.661 C 295.701 246.661 303.484 253.026 303.484 262.759 L 303.464 295.546 L 293.397 295.546 Z  M 293.397 273.974 L 281.892 273.974 C 276.076 274.388 271.825 277.244 271.825 281.165 C 271.825 285.039 276.151 288.312 281.116 288.312 C 287.512 288.312 293.397 284.101 293.397 278.288 L 293.397 273.974 Z  M 229.909 287.032 C 238.544 287.032 244.13 281.886 245.939 273.974 L 257.444 273.974 C 255.41 288.024 245.539 295.546 230.119 295.546 C 211.49 295.546 199.918 283.52 199.918 262.469 C 199.918 241.552 211.582 229.392 230.119 229.392 C 245.266 229.392 255.997 238.308 257.444 252.402 L 245.939 252.402 C 244.403 244.173 238.576 238.02 230.119 238.02 C 218.905 238.02 209.985 247.829 209.985 262.469 C 209.985 277.201 218.606 287.032 229.909 287.032 Z  M 176.206 296.99 C 170.914 296.99 169.016 293.625 162.912 293.625 C 156.354 293.625 154.502 296.99 149.483 296.99 C 143.92 296.99 139.988 291.623 136.505 286.624 C 131.984 280.074 128.141 269.8 128.006 259.932 C 127.914 254.703 128.909 249.566 131.443 245.202 C 135.012 239.108 141.389 234.972 148.353 234.836 C 153.688 234.652 158.437 238.518 161.69 238.518 C 164.811 238.518 170.644 234.836 177.245 234.836 C 180.095 234.836 186.587 235.061 191.29 242.335 C 190.927 242.562 183.394 248.021 183.394 258.707 C 183.803 270.89 193.985 273.974 194.166 273.974 C 193.985 274.201 192.889 280.983 188.73 286.851 C 185.431 291.896 181.766 296.99 176.206 296.99 Z  M 161.089 233.706 C 160.14 228.931 162.961 223.809 165.403 220.763 C 168.524 217.081 174.095 215.01 178.346 215.01 C 178.617 219.785 175.669 224.542 172.594 227.953 C 169.835 231.635 165.475 234.252 161.089 233.706 Z " fill-rule="evenodd" fill="rgb(255,255,255)"/></g></svg>