<?xml version="1.0" encoding="UTF-8" standalone="no"?><!-- Generator: Gravit.io --><svg xmlns="http://www.w3.org/2000/svg" xmlns:xlink="http://www.w3.org/1999/xlink" style="isolation:isolate" viewBox="0 0 512 512" width="512pt" height="512pt"><defs><clipPath id="_clipPath_IG7GyQC1Lybik5ydHpei1h5appQDeerU"><rect width="512" height="512"/></clipPath></defs><g clip-path="url(#_clipPath_IG7GyQC1Lybik5ydHpei1h5appQDeerU)"><circle vector-effect="non-scaling-stroke" cx="256" cy="256" r="256" fill="rgb(149,6,6)" /><path d=" M 383.982 198.907 C 383.967 196.332 383.939 193.759 383.867 191.181 C 383.717 185.574 383.386 179.916 382.389 174.369 C 381.378 168.736 379.725 163.498 377.12 158.381 C 374.563 153.355 371.219 148.756 367.231 144.768 C 363.244 140.78 358.645 137.438 353.618 134.879 C 348.505 132.277 343.266 130.624 337.638 129.613 C 332.088 128.613 326.43 128.284 320.818 128.132 C 318.242 128.062 315.668 128.033 313.093 128.017 C 310.036 128 306.977 128 303.921 128 L 236.154 128 L 208.08 128 C 205.021 128 201.965 128 198.909 128.018 C 196.332 128.034 193.756 128.063 191.183 128.133 C 189.781 128.171 188.375 128.22 186.969 128.287 C 182.749 128.491 178.524 128.864 174.364 129.613 C 170.142 130.372 166.14 131.491 162.246 133.101 C 160.948 133.637 159.662 134.228 158.383 134.879 C 154.612 136.798 151.082 139.158 147.871 141.9 C 146.801 142.814 145.766 143.771 144.769 144.768 C 140.781 148.756 137.437 153.355 134.88 158.38 C 132.275 163.498 130.624 168.736 129.612 174.369 C 128.616 179.916 128.285 185.574 128.134 191.181 C 128.064 193.758 128.034 196.332 128.017 198.906 C 127.998 201.964 128 205.022 128 208.079 L 128 249.813 L 128 303.919 C 128 306.979 127.997 310.034 128.017 313.094 C 128.034 315.669 128.064 318.242 128.134 320.816 C 128.285 326.426 128.616 332.085 129.612 337.629 C 130.624 343.261 132.275 348.504 134.88 353.62 C 137.437 358.646 140.781 363.244 144.769 367.23 C 148.755 371.22 153.355 374.562 158.383 377.123 C 163.497 379.725 168.735 381.376 174.365 382.387 C 179.911 383.385 185.574 383.717 191.184 383.867 C 193.756 383.936 196.333 383.966 198.909 383.981 C 201.965 384.003 205.021 384 208.08 384 L 303.921 384 C 306.977 384 310.036 384.003 313.092 383.981 C 315.668 383.966 318.242 383.936 320.818 383.867 C 326.429 383.717 332.087 383.385 337.637 382.387 C 343.265 381.376 348.504 379.725 353.617 377.123 C 358.645 374.563 363.244 371.22 367.231 367.23 C 371.219 363.244 374.563 358.646 377.12 353.62 C 379.725 348.504 381.378 343.261 382.389 337.629 C 383.386 332.085 383.717 326.426 383.867 320.816 C 383.938 318.242 383.966 315.669 383.982 313.094 C 384.002 310.034 384 306.979 384 303.919 L 384 208.079 C 384 205.022 384.002 201.964 383.982 198.907 Z  M 330.851 286.023 C 330.845 286.015 330.84 286.01 330.833 286.002 C 331.116 285.039 331.409 284.081 331.657 283.093 C 342.282 240.761 316.35 190.712 272.468 164.36 C 291.698 190.43 300.2 222.005 292.646 249.619 C 291.972 252.082 291.162 254.445 290.267 256.743 C 289.295 256.104 288.071 255.38 286.427 254.473 C 286.427 254.473 242.776 227.522 195.465 179.85 C 194.224 178.599 220.693 217.683 250.733 249.42 C 236.58 241.477 197.138 212.78 172.169 189.926 C 175.236 195.043 178.885 199.969 182.896 204.712 C 203.748 231.156 230.941 263.783 263.52 288.838 C 240.629 302.846 208.285 303.935 176.082 288.852 C 168.116 285.12 160.628 280.616 153.697 275.498 C 167.328 297.303 188.323 316.115 213.876 327.098 C 244.348 340.193 274.651 339.305 297.221 327.312 L 297.203 327.338 C 297.306 327.273 297.437 327.202 297.544 327.136 C 298.471 326.638 299.39 326.13 300.29 325.595 C 311.134 319.966 332.552 314.256 344.049 336.624 C 346.864 342.098 352.847 313.087 330.851 286.023 Z " fill-rule="evenodd" fill="rgb(255,255,255)"/></g></svg>