<?xml version="1.0" encoding="UTF-8" standalone="no"?><!-- Generator: Gravit.io --><svg xmlns="http://www.w3.org/2000/svg" xmlns:xlink="http://www.w3.org/1999/xlink" style="isolation:isolate" viewBox="0 0 512 512" width="512pt" height="512pt"><defs><clipPath id="_clipPath_l6ft2XOWgk1h7XFxL6oo3OYD3PO5A4JQ"><rect width="512" height="512"/></clipPath></defs><g clip-path="url(#_clipPath_l6ft2XOWgk1h7XFxL6oo3OYD3PO5A4JQ)"><rect x="0" y="0" width="512" height="512" transform="matrix(1,0,0,1,0,0)" fill="rgb(239,191,4)"/><path d=" M 139.319 218.561 L 139.319 234.025 L 128 234.025 L 128 258.845 L 139.319 258.845 L 139.319 265.458 C 139.319 283.968 150.441 293.432 167.674 293.432 C 174.306 293.432 181.033 292.005 187.051 289.055 L 187.051 269.319 C 184.093 270.334 181.032 270.946 177.972 270.946 C 172.466 270.946 167.468 268.406 167.468 261.082 L 167.468 218.561 L 139.319 218.561 Z  M 278.235 218.565 L 278.235 291.808 L 306.384 291.808 L 306.384 281.536 C 310.258 287.334 316.275 293.439 326.576 293.439 C 340.448 293.439 351.56 283.059 351.56 262.918 C 351.56 242.778 340.448 232.402 326.576 232.402 C 316.275 232.402 310.258 238.506 306.384 244.305 L 306.384 218.565 L 278.235 218.565 Z  M 185.315 232.402 C 176.749 232.402 171.041 238.405 171.041 246.643 C 171.041 254.881 176.749 260.88 185.315 260.88 C 193.881 260.88 199.594 254.881 199.594 246.643 C 199.594 238.405 193.881 232.402 185.315 232.402 Z  M 203.267 234.025 L 203.267 271.462 C 203.267 287.331 212.751 293.435 224.275 293.435 C 235.799 293.435 241.207 288.857 245.388 281.532 L 245.388 291.808 L 272.721 291.808 L 272.721 234.025 L 244.572 234.025 L 244.572 269.323 C 244.572 275.019 241.412 277.159 237.641 277.159 C 234.069 277.159 231.416 275.019 231.416 269.323 L 231.416 234.025 L 203.267 234.025 Z  M 355.851 234.025 L 355.851 291.808 L 384 291.808 L 384 234.025 L 355.851 234.025 Z  M 314.441 248.678 C 320.153 248.678 323.419 253.762 323.419 262.918 C 323.419 272.07 320.254 277.159 314.441 277.159 C 308.628 277.159 305.467 272.07 305.467 262.918 C 305.467 253.767 308.731 248.678 314.441 248.678 Z " fill="rgb(237,29,36)"/></g></svg>