<?xml version="1.0" encoding="UTF-8" standalone="no"?><!-- Generator: Gravit.io --><svg xmlns="http://www.w3.org/2000/svg" xmlns:xlink="http://www.w3.org/1999/xlink" style="isolation:isolate" viewBox="0 0 512 512" width="512pt" height="512pt"><defs><clipPath id="_clipPath_bcX2wrtz6apCrrx1i5s4haPAKmna30fx"><rect width="512" height="512"/></clipPath></defs><g clip-path="url(#_clipPath_bcX2wrtz6apCrrx1i5s4haPAKmna30fx)"><rect x="0" y="0" width="512" height="512" transform="matrix(1,0,0,1,0,0)" fill="rgb(0,103,79)"/><path d=" M 383.963 307.2 L 128 307.2 L 128 204.8 L 384 204.8 L 384 307.2 L 383.963 307.2 Z  M 133.12 256 C 133.12 281.171 184.618 302.08 256.018 302.08 C 327.419 302.08 378.88 281.171 378.88 256 C 378.88 230.829 327.382 209.92 256.018 209.92 C 184.654 209.92 133.12 230.829 133.12 256 Z  M 246.907 271.372 C 247.714 272.518 248.595 273.593 249.622 274.56 L 221.92 274.56 C 221.92 273.485 220.856 271.3 219.682 269.581 C 218.508 267.862 212.16 258.443 212.16 258.443 L 212.16 271.372 C 212.16 272.446 212.16 273.485 212.71 274.56 L 189.631 274.56 C 190.182 273.485 190.182 272.446 190.182 271.372 L 190.182 240.642 C 190.182 239.568 190.182 238.529 189.631 237.455 L 212.71 237.455 C 212.16 238.529 212.16 239.568 212.16 240.642 L 212.16 254.073 C 212.16 254.073 219.535 244.689 221.223 242.504 C 222.507 240.857 224.085 238.529 224.085 237.455 L 248.154 237.455 C 246.503 238.529 244.669 240.463 243.164 242.254 C 241.843 243.83 234.358 252.748 234.358 252.748 C 234.358 252.748 245.439 269.259 246.907 271.372 L 246.907 271.372 Z  M 254.172 240.642 L 254.172 271.372 C 254.172 272.446 254.172 273.485 253.621 274.56 L 298.165 274.56 L 298.165 264.245 C 297.064 264.782 296 264.782 294.899 264.782 L 276.15 264.782 L 276.15 259.911 L 294.166 259.911 L 294.166 252.103 L 276.15 252.103 L 276.15 247.196 L 294.899 247.196 C 296 247.196 297.064 247.196 298.165 247.698 L 298.165 237.419 L 253.621 237.419 C 254.172 238.529 254.172 239.568 254.172 240.642 Z  M 359.88 271.372 C 360.247 272.554 360.871 273.628 361.678 274.56 L 337.535 274.56 C 337.645 273.485 337.242 272.446 336.801 271.372 C 336.801 271.372 336.434 270.512 335.921 269.259 L 335.7 268.722 L 321.794 268.722 L 321.574 269.295 C 321.574 269.295 321.17 270.333 320.804 271.408 C 320.437 272.482 320.033 273.521 320.18 274.595 L 301.137 274.595 C 301.915 273.656 302.501 272.573 302.862 271.408 L 314.273 240.678 C 314.676 239.603 315.08 238.565 314.933 237.49 L 347.111 237.49 C 346.818 238.565 347.405 239.603 347.809 240.678 C 348.763 243.006 359.073 269.295 359.88 271.372 L 359.88 271.372 Z  M 332.655 260.878 L 329.279 252.282 C 328.986 251.494 328.729 250.671 328.546 249.847 C 328.399 250.677 328.178 251.492 327.885 252.282 C 327.775 252.641 326.344 256.401 324.693 260.878 L 332.655 260.878 Z  M 178.697 237.455 L 153.6 237.455 C 154.15 238.529 154.15 239.568 154.15 240.642 L 154.15 271.372 C 154.15 272.446 154.15 273.485 153.6 274.56 L 178.697 274.56 C 178.147 273.485 178.147 272.446 178.147 271.372 L 178.147 240.642 C 178.147 239.568 178.147 238.529 178.697 237.455 L 178.697 237.455 Z  M 352.175 240.391 C 352.065 237.777 354.156 235.592 356.835 235.521 L 357.165 235.521 C 359.88 235.485 362.118 237.562 362.155 240.212 L 362.155 240.391 C 362.228 243.078 360.063 245.334 357.275 245.406 C 354.523 245.477 352.211 243.364 352.138 240.642 C 352.175 240.57 352.175 240.463 352.175 240.391 L 352.175 240.391 Z  M 353.166 240.391 C 353.166 242.54 354.963 244.295 357.165 244.295 C 359.367 244.295 361.164 242.54 361.164 240.391 C 361.164 238.243 359.366 236.487 357.165 236.487 C 355.037 236.416 353.239 238.028 353.166 240.105 L 353.166 240.391 Z  M 356.174 243.292 L 355.294 243.292 L 355.294 237.419 L 357.532 237.419 C 358.596 237.455 359.403 238.278 359.403 239.317 C 359.403 240.033 359 240.678 358.339 241.036 L 359.623 243.292 L 358.633 243.292 L 357.458 241.215 L 356.174 241.215 L 356.174 243.292 L 356.174 243.292 Z  M 356.174 240.391 L 357.385 240.391 C 357.972 240.427 358.486 239.997 358.486 239.424 C 358.486 238.851 358.082 238.35 357.495 238.35 L 356.174 238.35 L 356.174 240.391 Z " fill-rule="evenodd" fill="rgb(255,255,255)"/></g></svg>