<?xml version="1.0" encoding="UTF-8" standalone="no"?><!-- Generator: Gravit.io --><svg xmlns="http://www.w3.org/2000/svg" xmlns:xlink="http://www.w3.org/1999/xlink" style="isolation:isolate" viewBox="0 0 512 512" width="512pt" height="512pt"><defs><clipPath id="_clipPath_Nua9iAtnnNo20mc84Z0f8xdxAfoVPQMB"><rect width="512" height="512"/></clipPath></defs><g clip-path="url(#_clipPath_Nua9iAtnnNo20mc84Z0f8xdxAfoVPQMB)"><path d=" M 320.454 357.038 L 375.714 357.038 L 287.5 128.098 L 226.402 128.098 L 138.188 357.038 L 193.452 357.038 L 207.868 318.258 L 291.218 318.258 L 276.13 275.346 L 221.25 275.346 L 256.95 176.838 L 320.454 357.038 Z  M 502.678 187.537 C 500.714 180.465 493.41 176.311 486.308 178.283 C 479.234 180.247 475.088 187.575 477.052 194.649 C 482.598 214.619 485.408 235.261 485.408 256.001 C 485.408 382.497 382.496 485.405 256 485.405 C 129.504 485.405 26.594 382.497 26.594 256.001 C 26.594 129.503 129.504 26.593 256 26.593 C 309.586 26.593 361.436 45.629 402.358 79.505 C 400.766 83.305 399.882 87.475 399.882 91.851 C 399.882 109.521 414.206 123.845 431.876 123.845 C 449.546 123.845 463.87 109.521 463.87 91.851 C 463.87 74.181 449.546 59.857 431.876 59.857 C 428.474 59.857 425.2 60.399 422.124 61.383 C 376.044 22.113 317.026 0.001 256 0.001 C 114.842 0.001 0 114.841 0 256.001 C 0 397.159 114.842 511.999 256 511.999 C 397.158 511.999 512 397.159 512 256.001 C 512 232.857 508.866 209.821 502.678 187.537 Z " fill="rgb(17,43,73)"/></g></svg>