<?xml version="1.0" encoding="UTF-8" standalone="no"?><!-- Generator: Gravit.io --><svg xmlns="http://www.w3.org/2000/svg" xmlns:xlink="http://www.w3.org/1999/xlink" style="isolation:isolate" viewBox="0 0 512 512" width="512pt" height="512pt"><defs><clipPath id="_clipPath_WDWTYgvMVYsCc66UJ6geoGg18GGHAt6S"><rect width="512" height="512"/></clipPath></defs><g clip-path="url(#_clipPath_WDWTYgvMVYsCc66UJ6geoGg18GGHAt6S)"><path d="M 56 0 L 456 0 C 486.907 0 512 25.093 512 56 L 512 456 C 512 486.907 486.907 512 456 512 L 56 512 C 25.093 512 0 486.907 0 456 L 0 56 C 0 25.093 25.093 0 56 0 Z" style="stroke:none;fill:#092E20;stroke-miterlimit:10;"/><path d=" M 372.754 188.395 L 372.754 320.849 C 372.754 366.487 369.415 388.375 359.398 407.299 C 350.121 425.483 337.875 436.981 312.647 449.597 L 259.59 424.367 C 284.82 412.495 297.063 402.11 304.854 386.149 C 313.018 369.826 315.618 350.902 315.618 301.186 L 315.618 188.395 L 372.754 188.395 Z  M 281.857 100.157 L 281.857 364.634 C 252.546 370.199 231.025 372.425 207.652 372.425 C 137.898 372.425 101.537 340.89 101.537 280.41 C 101.537 222.159 140.126 184.317 199.859 184.317 C 209.134 184.317 216.183 185.056 224.718 187.282 L 224.718 100.157 L 281.857 100.157 Z  M 205.426 230.321 C 176.486 230.321 159.789 248.131 159.789 279.295 C 159.789 309.721 175.744 326.416 205.055 326.416 C 211.36 326.416 216.556 326.045 224.718 324.935 L 224.718 233.286 C 218.04 231.063 212.475 230.321 205.426 230.321 Z  M 372.754 100.461 L 372.754 159.084 L 315.618 159.084 L 315.618 100.461 L 372.754 100.461 Z " fill="rgb(255,255,253)"/></g></svg>