<?xml version="1.0" encoding="UTF-8" standalone="no"?><!-- Generator: Gravit.io --><svg xmlns="http://www.w3.org/2000/svg" xmlns:xlink="http://www.w3.org/1999/xlink" style="isolation:isolate" viewBox="0 0 512 512" width="512pt" height="512pt"><defs><clipPath id="_clipPath_THi2mZiDy6y0evfhh61bvRCCiopLwOet"><rect width="512" height="512"/></clipPath></defs><g clip-path="url(#_clipPath_THi2mZiDy6y0evfhh61bvRCCiopLwOet)"><path d=" M 3.332 297.486 L 3.332 240.505 L 74.476 240.505 L 74.476 237.173 L 3.332 237.173 L 3.332 185.19 L 78.974 185.19 L 78.974 181.857 L 0 181.857 L 0 300.819 L 79.641 300.819 L 79.641 297.486 L 3.332 297.486 L 3.332 297.486 Z  M 143.787 215.18 L 114.296 254.001 L 85.472 215.18 L 81.14 215.18 L 112.297 256.5 L 78.141 300.819 L 82.14 300.819 L 114.296 258.999 L 146.619 300.819 L 150.784 300.819 L 116.462 256.5 L 147.785 215.18 L 143.787 215.18 L 143.787 215.18 Z  M 160.781 330.143 L 160.781 276.827 L 161.114 276.827 C 163.114 284.602 167.057 290.85 172.944 295.57 C 178.831 300.291 186.328 302.651 195.436 302.651 C 201.323 302.651 206.544 301.457 211.098 299.069 C 215.652 296.681 219.456 293.432 222.511 289.322 C 225.565 285.213 227.898 280.437 229.509 274.994 C 231.119 269.551 231.925 263.831 231.925 257.833 C 231.925 251.39 231.091 245.448 229.425 240.005 C 227.759 234.563 225.343 229.842 222.178 225.843 C 219.012 221.844 215.18 218.734 210.681 216.513 C 206.183 214.291 201.101 213.181 195.436 213.181 C 191.104 213.181 187.078 213.819 183.357 215.097 C 179.636 216.374 176.332 218.179 173.444 220.512 C 170.556 222.844 168.056 225.593 165.946 228.759 C 163.836 231.925 162.225 235.396 161.114 239.172 L 160.781 239.172 L 160.781 215.18 L 157.449 215.18 L 157.449 330.143 L 160.781 330.143 L 160.781 330.143 Z  M 195.436 299.486 C 184.995 299.486 176.609 295.904 170.278 288.739 C 163.947 281.575 160.781 271.273 160.781 257.833 C 160.781 252.279 161.559 247.003 163.114 242.005 C 164.669 237.006 166.918 232.619 169.861 228.842 C 172.805 225.066 176.443 222.067 180.774 219.845 C 185.106 217.624 189.994 216.513 195.436 216.513 C 200.99 216.513 205.85 217.624 210.015 219.845 C 214.18 222.067 217.624 225.093 220.345 228.925 C 223.066 232.758 225.121 237.145 226.51 242.088 C 227.898 247.031 228.592 252.279 228.592 257.833 C 228.592 262.831 227.954 267.802 226.676 272.745 C 225.399 277.687 223.427 282.13 220.761 286.074 C 218.096 290.017 214.68 293.238 210.515 295.737 C 206.349 298.236 201.323 299.486 195.436 299.486 L 195.436 299.486 L 195.436 299.486 Z  M 250.252 300.819 L 250.252 252.335 C 250.252 247.669 250.918 243.115 252.251 238.672 C 253.584 234.229 255.639 230.314 258.416 226.926 C 261.193 223.538 264.719 220.873 268.996 218.929 C 273.272 216.985 278.354 216.18 284.241 216.513 L 284.241 213.181 C 279.131 213.07 274.661 213.625 270.829 214.847 C 266.996 216.069 263.692 217.735 260.915 219.845 C 258.138 221.956 255.917 224.427 254.251 227.259 C 252.584 230.092 251.363 233.119 250.585 236.34 L 250.252 236.34 L 250.252 215.18 L 246.92 215.18 L 246.92 300.819 L 250.252 300.819 L 250.252 300.819 Z  M 288.406 258.666 L 360.049 258.666 C 360.272 252.779 359.688 247.114 358.3 241.671 C 356.912 236.229 354.69 231.397 351.636 227.176 C 348.581 222.955 344.638 219.567 339.806 217.013 C 334.974 214.458 329.226 213.181 322.562 213.181 C 317.785 213.181 313.12 214.18 308.566 216.18 C 304.012 218.179 300.013 221.095 296.57 224.927 C 293.127 228.759 290.35 233.452 288.24 239.006 C 286.129 244.559 285.074 250.891 285.074 257.999 C 285.074 264.331 285.796 270.245 287.24 275.744 C 288.684 281.242 290.905 286.018 293.904 290.072 C 296.903 294.126 300.763 297.264 305.484 299.486 C 310.205 301.707 315.897 302.763 322.562 302.651 C 332.336 302.651 340.556 299.902 347.22 294.404 C 353.885 288.906 357.828 281.159 359.05 271.162 L 355.718 271.162 C 354.274 280.603 350.58 287.684 344.638 292.405 C 338.695 297.126 331.226 299.486 322.228 299.486 C 316.119 299.486 310.954 298.431 306.733 296.32 C 302.513 294.21 299.069 291.322 296.404 287.656 C 293.738 283.991 291.766 279.687 290.489 274.744 C 289.211 269.801 288.517 264.442 288.406 258.666 L 288.406 258.666 L 288.406 258.666 Z  M 356.717 255.334 L 288.406 255.334 C 288.739 249.335 289.85 243.948 291.738 239.172 C 293.627 234.396 296.098 230.314 299.153 226.926 C 302.207 223.538 305.762 220.956 309.816 219.179 C 313.87 217.401 318.23 216.513 322.895 216.513 C 328.449 216.513 333.336 217.54 337.557 219.595 C 341.778 221.65 345.304 224.455 348.137 228.009 C 350.969 231.564 353.107 235.701 354.551 240.422 C 355.995 245.142 356.717 250.113 356.717 255.334 L 356.717 255.334 L 356.717 255.334 Z  M 429.194 240.505 L 432.526 240.505 C 432.526 230.953 429.749 224.01 424.195 219.678 C 418.641 215.347 411.088 213.181 401.536 213.181 C 396.204 213.181 391.706 213.847 388.04 215.18 C 384.375 216.513 381.376 218.235 379.043 220.345 C 376.711 222.455 375.045 224.788 374.045 227.343 C 373.045 229.897 372.545 232.341 372.545 234.674 C 372.545 239.339 373.378 243.06 375.045 245.837 C 376.711 248.614 379.321 250.779 382.875 252.335 C 385.319 253.445 388.096 254.445 391.206 255.334 C 394.316 256.222 397.926 257.166 402.036 258.166 C 405.701 259.055 409.311 259.943 412.866 260.832 C 416.42 261.72 419.558 262.914 422.279 264.414 C 425.001 265.913 427.222 267.829 428.944 270.162 C 430.665 272.495 431.526 275.549 431.526 279.326 C 431.526 282.991 430.665 286.101 428.944 288.656 C 427.222 291.211 425.028 293.293 422.363 294.904 C 419.697 296.515 416.725 297.681 413.449 298.403 C 410.172 299.125 406.979 299.486 403.869 299.486 C 393.761 299.486 386.013 297.237 380.626 292.738 C 375.239 288.239 372.545 281.159 372.545 271.495 L 369.213 271.495 C 369.213 282.269 372.129 290.156 377.96 295.154 C 383.792 300.152 392.428 302.651 403.869 302.651 C 407.534 302.651 411.227 302.235 414.948 301.402 C 418.669 300.569 422.002 299.208 424.945 297.32 C 427.889 295.432 430.277 292.988 432.109 289.989 C 433.942 286.99 434.858 283.324 434.858 278.993 C 434.858 274.883 434.053 271.551 432.443 268.996 C 430.832 266.441 428.722 264.331 426.111 262.664 C 423.501 260.998 420.558 259.693 417.281 258.749 C 414.004 257.805 410.7 256.889 407.367 256 C 402.702 254.778 398.62 253.723 395.121 252.834 C 391.623 251.946 388.374 250.891 385.375 249.669 C 382.487 248.447 380.182 246.697 378.46 244.42 C 376.738 242.143 375.878 238.894 375.878 234.674 C 375.878 233.896 376.1 232.508 376.544 230.508 C 376.988 228.509 378.044 226.482 379.71 224.427 C 381.376 222.372 383.931 220.539 387.374 218.929 C 390.817 217.318 395.538 216.513 401.536 216.513 C 405.646 216.513 409.394 216.957 412.782 217.846 C 416.17 218.734 419.086 220.151 421.529 222.094 C 423.973 224.038 425.861 226.51 427.194 229.509 C 428.527 232.508 429.194 236.173 429.194 240.505 L 429.194 240.505 L 429.194 240.505 Z  M 506.335 240.505 L 509.667 240.505 C 509.667 230.953 506.891 224.01 501.337 219.678 C 495.783 215.347 488.23 213.181 478.678 213.181 C 473.346 213.181 468.847 213.847 465.182 215.18 C 461.516 216.513 458.517 218.235 456.185 220.345 C 453.852 222.455 452.186 224.788 451.186 227.343 C 450.187 229.897 449.687 232.341 449.687 234.674 C 449.687 239.339 450.52 243.06 452.186 245.837 C 453.852 248.614 456.463 250.779 460.017 252.335 C 462.461 253.445 465.237 254.445 468.348 255.334 C 471.458 256.222 475.068 257.166 479.177 258.166 C 482.843 259.055 486.453 259.943 490.007 260.832 C 493.562 261.72 496.699 262.914 499.421 264.414 C 502.142 265.913 504.364 267.829 506.085 270.162 C 507.807 272.495 508.668 275.549 508.668 279.326 C 508.668 282.991 507.807 286.101 506.085 288.656 C 504.364 291.211 502.17 293.293 499.504 294.904 C 496.838 296.515 493.867 297.681 490.59 298.403 C 487.314 299.125 484.12 299.486 481.01 299.486 C 470.902 299.486 463.155 297.237 457.768 292.738 C 452.38 288.239 449.687 281.159 449.687 271.495 L 446.355 271.495 C 446.355 282.269 449.27 290.156 455.102 295.154 C 460.933 300.152 469.569 302.651 481.01 302.651 C 484.676 302.651 488.369 302.235 492.09 301.402 C 495.811 300.569 499.143 299.208 502.087 297.32 C 505.03 295.432 507.418 292.988 509.251 289.989 C 511.084 286.99 512 283.324 512 278.993 C 512 274.883 511.195 271.551 509.584 268.996 C 507.974 266.441 505.863 264.331 503.253 262.664 C 500.643 260.998 497.699 259.693 494.422 258.749 C 491.146 257.805 487.841 256.889 484.509 256 C 479.844 254.778 475.762 253.723 472.263 252.834 C 468.764 251.946 465.515 250.891 462.516 249.669 C 459.628 248.447 457.323 246.697 455.602 244.42 C 453.88 242.143 453.019 238.894 453.019 234.674 C 453.019 233.896 453.241 232.508 453.686 230.508 C 454.13 228.509 455.185 226.482 456.851 224.427 C 458.517 222.372 461.072 220.539 464.515 218.929 C 467.959 217.318 472.679 216.513 478.678 216.513 C 482.787 216.513 486.536 216.957 489.924 217.846 C 493.312 218.734 496.227 220.151 498.671 222.094 C 501.115 224.038 503.003 226.51 504.336 229.509 C 505.669 232.508 506.335 236.173 506.335 240.505 L 506.335 240.505 L 506.335 240.505 Z " fill="rgb(34,34,34)"/></g></svg>