<?xml version="1.0" encoding="UTF-8" standalone="no"?><!-- Generator: Gravit.io --><svg xmlns="http://www.w3.org/2000/svg" xmlns:xlink="http://www.w3.org/1999/xlink" style="isolation:isolate" viewBox="0 0 512 512" width="512pt" height="512pt"><defs><clipPath id="_clipPath_860KMvE43I1lAMP0DIsTFz0VrYns1put"><rect width="512" height="512"/></clipPath></defs><g clip-path="url(#_clipPath_860KMvE43I1lAMP0DIsTFz0VrYns1put)"><path d=" M 495.885 138.448 L 512 96.708 L 511.299 94.122 L 351.865 136.129 C 368.865 111.539 363.026 91.82 363.026 91.82 C 363.026 91.82 312.111 124.334 273.608 123.483 C 235.105 122.633 222.694 112.356 163.654 131.191 C 104.615 150.008 87.933 207.78 70.817 220.191 C 53.701 232.603 0 273.025 0 273.025 L 0.117 273.742 L 48.529 258.327 C 48.529 258.327 35.25 270.839 7.04 308.858 C 7.04 308.858 6.556 308.408 5.722 307.641 L 5.772 307.908 C 5.772 307.908 28.444 342.557 50.698 336.151 C 52.933 335.5 55.452 334.433 58.205 333.031 C 67.163 338.019 78.858 342.924 91.77 344.275 C 91.77 344.275 83.028 334.116 75.738 322.555 C 77.707 321.287 79.725 319.969 81.777 318.634 L 80.826 319.302 L 99.26 326.075 L 97.225 308.742 C 97.292 308.708 97.342 308.658 97.409 308.625 L 115.526 315.281 L 113.274 299.516 C 115.576 298.315 117.861 297.181 120.147 296.13 L 139.031 224.696 L 217.122 171.429 L 210.916 187.043 C 195.084 225.98 165.356 235.172 165.356 235.172 L 152.944 239.877 C 143.719 250.787 139.832 253.473 136.662 290.091 C 144.103 288.222 151.209 287.772 157.649 289.507 C 191.014 298.499 202.575 338.703 193.583 349.83 C 191.331 352.616 185.976 357.371 179.219 362.959 L 165.673 362.959 L 165.49 373.937 C 165.022 374.304 164.555 374.654 164.105 375.021 L 150.325 375.021 L 150.158 385.731 C 148.941 386.665 147.723 387.566 146.555 388.45 C 133.609 388.717 117.211 377.423 117.211 377.423 C 117.211 387.7 125.769 403.514 125.769 403.514 C 125.769 403.514 126.336 403.248 127.287 402.78 C 126.453 403.398 125.986 403.731 125.986 403.731 C 125.986 403.731 160.635 426.836 182.456 418.278 C 201.857 410.671 252.088 371.067 295.446 352.316 L 426.653 317.75 L 443.952 272.924 L 343.958 299.266 L 343.958 259.011 L 461.285 228.099 L 478.585 183.273 L 343.991 218.74 L 343.991 178.469 L 495.885 138.448 Z " fill="rgb(0,0,0)"/></g></svg>