<?xml version="1.0" encoding="UTF-8" standalone="no"?><!-- Generator: Gravit.io --><svg xmlns="http://www.w3.org/2000/svg" xmlns:xlink="http://www.w3.org/1999/xlink" style="isolation:isolate" viewBox="0 0 512 512" width="512pt" height="512pt"><defs><clipPath id="_clipPath_BbTHywpVsuLDt0THZc8TSGCXiaektBz5"><rect width="512" height="512"/></clipPath></defs><g clip-path="url(#_clipPath_BbTHywpVsuLDt0THZc8TSGCXiaektBz5)"><path d=" M 301.471 1.004 C 297.769 1.004 294.331 1.797 291.158 2.855 C 297.901 7.351 301.604 13.301 303.455 20.044 C 303.587 20.97 303.852 21.631 303.984 22.557 C 304.117 23.35 304.248 24.143 304.248 24.937 C 304.777 36.572 301.207 38.027 298.695 44.903 C 294.86 53.762 295.918 63.282 300.546 70.951 C 300.943 71.876 301.471 72.934 302.133 73.86 C 297.108 40.407 325.008 35.382 330.164 24.937 C 330.561 15.813 323.024 9.731 317.074 5.5 C 311.388 2.062 306.232 1.004 301.471 1.004 L 301.471 1.004 Z  M 343.519 8.541 C 342.99 11.582 343.387 10.789 343.255 12.375 C 343.122 13.433 343.122 14.755 342.99 15.813 C 342.726 16.871 342.461 17.929 342.065 18.987 C 341.801 20.044 341.404 21.102 341.007 22.16 C 340.478 23.218 340.082 24.143 339.553 25.201 C 339.156 25.73 338.892 26.259 338.495 26.788 C 338.231 27.184 337.966 27.581 337.702 27.978 C 337.04 28.903 336.379 29.829 335.718 30.622 C 334.925 31.416 334.264 32.341 333.338 33.002 L 333.338 33.135 C 332.545 33.796 331.751 34.589 330.826 35.25 C 328.049 37.366 324.876 38.953 321.967 40.936 C 321.041 41.597 320.116 42.126 319.322 42.919 C 318.397 43.581 317.603 44.242 316.81 45.035 C 315.884 45.828 315.223 46.622 314.43 47.547 C 313.769 48.341 312.975 49.266 312.447 50.192 C 311.785 51.117 311.124 52.043 310.595 52.968 C 310.066 54.026 309.67 54.952 309.141 56.01 C 308.744 57.067 308.348 57.993 308.083 59.051 C 307.686 60.241 307.422 61.299 307.158 62.356 C 307.025 62.886 307.025 63.546 306.893 64.075 C 306.761 64.604 306.761 65.133 306.629 65.662 C 306.629 66.72 306.497 67.91 306.497 68.968 C 306.497 69.761 306.497 70.554 306.629 71.348 C 306.629 72.406 306.761 73.463 307.026 74.653 C 307.158 75.711 307.422 76.769 307.687 77.827 C 308.084 78.885 308.348 79.942 308.745 81 C 309.009 81.661 309.406 82.322 309.67 82.851 L 279.259 71.083 C 274.102 69.629 269.077 68.307 263.92 67.117 C 261.144 66.455 258.367 65.794 255.59 65.133 C 247.657 63.546 239.591 62.356 231.525 61.563 C 231.261 61.563 231.129 61.431 230.864 61.431 C 222.931 60.637 215.13 60.241 207.196 60.241 C 201.378 60.241 195.56 60.505 189.875 60.902 C 181.809 61.431 173.743 62.489 165.677 63.811 C 163.694 64.075 161.711 64.472 159.727 64.869 C 155.628 65.662 151.662 66.587 147.827 67.513 C 145.844 68.042 143.86 68.571 141.877 69.1 C 139.894 69.893 138.042 70.819 136.191 71.612 C 134.737 72.273 133.282 72.934 131.828 73.595 C 131.564 73.728 131.299 73.728 131.167 73.86 C 129.845 74.521 128.654 75.05 127.465 75.711 C 127.068 75.843 126.803 75.975 126.539 76.107 C 125.084 76.769 123.63 77.562 122.44 78.223 C 121.514 78.62 120.589 79.149 119.795 79.545 C 119.399 79.81 118.87 80.074 118.605 80.206 C 117.415 80.868 116.225 81.529 115.168 82.19 C 113.978 82.851 112.92 83.512 111.994 84.173 C 111.069 84.834 110.143 85.363 109.35 86.024 C 109.217 86.157 109.085 86.157 108.953 86.289 C 108.16 86.818 107.234 87.479 106.441 88.14 C 106.441 88.14 106.308 88.272 106.176 88.404 C 105.515 88.933 104.854 89.462 104.193 89.991 C 103.929 90.123 103.664 90.387 103.4 90.52 C 102.739 91.049 102.078 91.71 101.416 92.239 C 101.284 92.503 101.02 92.635 100.887 92.768 C 100.094 93.561 99.301 94.222 98.507 95.016 C 98.375 95.016 98.375 95.148 98.243 95.28 C 97.45 95.941 96.656 96.734 95.863 97.528 C 95.731 97.66 95.731 97.792 95.599 97.792 C 94.938 98.453 94.276 99.114 93.615 99.907 C 93.351 100.172 92.954 100.437 92.69 100.701 C 92.029 101.494 91.235 102.288 90.442 103.081 C 90.31 103.345 90.045 103.478 89.913 103.742 C 88.855 104.8 87.929 105.858 86.872 106.915 C 86.739 107.048 86.607 107.18 86.475 107.312 C 84.359 109.56 82.112 111.808 79.732 113.791 C 77.351 115.907 74.839 117.89 72.327 119.609 C 69.682 121.46 67.17 123.047 64.393 124.634 C 61.749 126.088 58.972 127.41 56.063 128.6 C 53.287 129.79 50.378 130.848 47.469 131.774 C 41.915 132.964 36.23 135.212 31.337 135.608 C 30.279 135.608 29.089 135.872 28.032 136.005 C 26.842 136.269 25.784 136.534 24.726 136.798 C 23.668 137.195 22.61 137.592 21.553 137.988 C 20.495 138.385 19.437 138.914 18.379 139.443 C 17.454 140.104 16.396 140.633 15.47 141.294 C 14.545 141.955 13.619 142.748 12.826 143.542 C 11.9 144.203 10.975 145.128 10.181 145.922 C 9.388 146.847 8.595 147.641 7.933 148.566 C 7.272 149.624 6.479 150.55 5.95 151.607 C 5.289 152.533 4.628 153.591 4.099 154.649 C 3.57 155.839 3.041 156.896 2.644 158.086 C 2.248 159.144 1.851 160.334 1.454 161.524 C 1.19 162.582 0.925 163.64 0.793 164.698 C 0.793 164.83 0.661 164.962 0.661 165.094 C 0.397 166.284 0.397 167.871 0.264 168.664 C 0.132 169.59 0 170.383 0 171.309 C 0 171.838 0 172.499 0.132 173.028 C 0.265 173.953 0.397 174.747 0.662 175.54 C 0.926 176.333 1.191 177.127 1.587 177.92 L 1.587 178.053 C 1.984 178.846 2.513 179.639 3.042 180.433 C 3.571 181.226 4.099 182.019 4.76 182.813 C 5.422 183.474 6.215 184.267 7.008 184.928 C 7.802 185.722 8.595 186.383 9.521 187.044 C 12.694 189.821 13.487 190.746 17.586 192.862 C 18.247 193.258 18.909 193.523 19.702 193.92 C 19.834 193.92 19.966 194.052 20.099 194.052 C 20.099 194.316 20.099 194.449 20.231 194.713 C 20.363 195.771 20.628 196.829 20.892 197.887 C 21.156 199.077 21.553 200.134 21.95 201.06 C 22.347 201.853 22.611 202.647 23.008 203.44 C 23.14 203.704 23.272 203.969 23.404 204.101 C 23.934 205.159 24.462 206.085 24.991 207.01 C 25.652 207.936 26.313 208.861 26.974 209.787 C 27.636 210.58 28.429 211.506 29.222 212.299 C 30.016 213.092 30.809 213.754 31.735 214.547 C 31.735 214.547 31.867 214.679 31.999 214.679 C 32.792 215.341 33.586 216.002 34.379 216.531 C 35.304 217.192 36.23 217.721 37.288 218.249 C 38.213 218.779 39.271 219.307 40.329 219.704 C 41.122 220.101 42.048 220.365 42.974 220.63 C 43.106 220.762 43.238 220.762 43.503 220.894 C 44.032 221.026 44.693 221.158 45.222 221.29 C 44.825 228.431 44.692 235.174 45.751 237.554 C 46.941 240.199 52.759 232.133 58.576 222.877 C 57.783 232.001 57.254 242.711 58.576 245.884 C 60.031 249.19 67.964 238.876 74.84 227.505 C 168.587 205.82 254.137 270.61 263.128 362.11 C 261.409 347.83 243.823 339.896 235.758 341.879 C 231.791 351.664 225.047 364.225 214.205 372.027 C 215.131 363.3 214.734 354.309 212.883 345.582 C 209.974 357.746 204.288 369.118 196.487 378.902 C 183.926 379.828 171.364 373.746 164.753 364.622 C 164.224 364.225 164.092 363.432 163.695 362.903 C 163.298 361.978 162.902 361.052 162.637 360.126 C 162.241 359.201 161.976 358.275 161.844 357.35 C 161.711 356.424 161.711 355.499 161.711 354.441 C 161.711 353.78 161.711 353.119 161.711 352.457 C 161.844 351.532 162.108 350.606 162.373 349.681 C 162.637 348.755 162.902 347.83 163.298 346.904 C 163.827 345.978 164.224 345.053 164.885 344.127 C 167.133 337.78 167.133 332.624 163.034 329.583 C 162.24 329.053 161.447 328.657 160.521 328.26 C 159.992 328.128 159.331 327.864 158.803 327.731 C 158.406 327.599 158.141 327.467 157.745 327.334 C 156.819 327.07 155.894 326.805 154.968 326.673 C 154.042 326.409 153.117 326.277 152.191 326.277 C 151.266 326.144 150.208 326.012 149.282 326.012 C 148.621 326.012 147.96 326.145 147.299 326.145 C 146.241 326.145 145.316 326.277 144.39 326.542 C 143.464 326.674 142.539 326.806 141.613 327.071 C 140.688 327.335 139.762 327.6 138.837 327.996 C 137.911 328.393 137.118 328.79 136.192 329.186 C 135.399 329.583 134.605 330.112 133.68 330.508 C 102.871 350.607 121.251 397.679 142.274 411.298 C 134.341 412.752 126.275 414.471 124.027 416.19 C 123.895 416.322 123.763 416.454 123.763 416.454 C 129.449 419.892 135.399 422.801 141.614 425.313 C 150.076 428.09 159.067 430.602 163.034 431.66 L 163.034 431.793 C 174.009 434.04 185.116 434.834 196.355 434.173 C 254.93 430.074 302.928 385.514 311.655 326.806 C 311.919 327.996 312.184 329.054 312.448 330.244 C 312.845 332.624 313.374 335.136 313.638 337.649 L 313.638 337.781 C 313.902 338.971 314.035 340.161 314.167 341.219 L 314.167 341.748 C 314.3 342.938 314.431 344.128 314.431 345.186 C 314.564 346.64 314.696 348.095 314.696 349.549 L 314.696 351.665 C 314.696 352.326 314.828 353.119 314.828 353.781 C 314.828 354.574 314.696 355.367 314.696 356.161 L 314.696 358.012 C 314.696 358.937 314.563 359.731 314.563 360.656 C 314.563 361.185 314.563 361.714 314.431 362.375 C 314.431 363.301 314.298 364.226 314.298 365.284 C 314.166 365.681 314.166 366.077 314.166 366.474 C 314.033 367.532 313.901 368.458 313.769 369.515 C 313.769 369.912 313.769 370.309 313.637 370.705 C 313.504 372.028 313.24 373.218 313.108 374.54 L 313.108 374.672 L 313.108 374.805 C 312.843 375.995 312.578 377.317 312.314 378.507 L 312.314 378.904 C 312.05 380.094 311.785 381.284 311.521 382.474 C 311.521 382.606 311.388 382.871 311.388 383.003 C 311.124 384.193 310.859 385.383 310.463 386.573 L 310.463 386.97 C 310.066 388.292 309.669 389.482 309.405 390.672 C 309.273 390.804 309.273 390.936 309.273 390.936 C 308.876 392.258 308.479 393.581 308.083 394.903 C 307.554 396.225 307.157 397.415 306.628 398.737 C 306.099 400.06 305.703 401.382 305.174 402.572 C 304.645 403.894 304.116 405.084 303.587 406.407 L 303.454 406.407 C 302.925 407.597 302.397 408.919 301.735 410.109 C 301.603 410.505 301.471 410.77 301.339 411.034 C 301.206 411.167 301.206 411.299 301.075 411.431 C 292.48 428.752 279.786 443.958 263.919 455.859 C 262.862 456.52 261.804 457.313 260.746 458.106 C 260.482 458.371 260.085 458.503 259.82 458.767 C 258.895 459.429 257.969 460.09 256.911 460.751 L 257.308 461.544 L 257.441 461.544 C 259.292 461.28 261.143 461.015 262.994 460.751 L 263.126 460.751 C 266.564 460.222 270.002 459.561 273.44 458.9 C 274.365 458.767 275.423 458.503 276.349 458.239 C 277.01 458.106 277.539 457.974 278.2 457.842 C 279.126 457.709 280.051 457.445 280.977 457.313 C 281.77 457.049 282.563 456.916 283.357 456.652 C 296.579 453.478 309.405 449.115 321.702 443.958 C 300.678 472.651 272.514 495.79 239.59 510.996 C 254.796 509.938 270.002 507.426 284.679 503.195 C 337.966 487.46 382.79 451.627 409.631 403.365 C 404.21 433.909 392.046 462.998 374.063 488.386 C 386.889 479.923 398.657 470.139 409.367 459.032 C 438.985 428.091 458.422 388.82 465.034 346.641 C 469.529 367.532 470.852 389.085 468.868 410.373 C 564.334 277.223 476.802 139.18 440.175 102.818 C 440.043 102.554 439.911 102.422 439.911 102.157 C 439.779 102.289 439.779 102.289 439.779 102.421 C 439.779 102.289 439.779 102.289 439.646 102.157 C 439.646 103.744 439.514 105.33 439.382 106.917 C 438.985 109.958 438.589 112.867 438.06 115.776 C 437.399 118.685 436.605 121.594 435.812 124.503 C 434.886 127.28 433.828 130.189 432.638 132.965 C 431.448 135.61 430.126 138.387 428.672 141.031 C 427.217 143.543 425.631 146.188 423.912 148.568 C 422.193 151.08 420.342 153.46 418.49 155.708 C 416.507 158.088 414.391 160.204 412.276 162.319 C 410.954 163.509 409.764 164.567 408.441 165.625 C 407.383 166.551 406.458 167.344 405.4 168.269 C 403.02 170.121 400.64 171.839 397.996 173.426 C 395.483 175.013 392.839 176.6 390.194 177.922 C 387.418 179.244 384.641 180.434 381.864 181.624 C 379.087 182.682 376.178 183.607 373.269 184.401 C 370.361 185.194 367.319 185.855 364.41 186.384 C 361.369 186.913 358.328 187.178 355.419 187.442 C 353.304 187.574 351.188 187.706 349.072 187.706 C 346.031 187.706 342.99 187.442 340.081 187.177 C 337.04 186.913 333.999 186.516 331.09 185.855 C 328.049 185.326 325.14 184.533 322.231 183.607 L 322.098 183.607 C 325.007 183.343 327.916 183.078 330.825 182.549 C 333.866 182.02 336.775 181.359 339.684 180.566 C 342.593 179.773 345.502 178.847 348.279 177.789 C 351.188 176.731 353.965 175.409 356.609 174.087 C 359.386 172.765 361.898 171.31 364.542 169.723 C 367.055 168.005 369.567 166.286 371.947 164.434 C 374.327 162.583 376.575 160.6 378.691 158.484 C 380.938 156.501 382.922 154.253 384.905 152.005 C 386.888 149.625 388.74 147.245 390.459 144.865 C 390.723 144.469 390.988 143.94 391.252 143.543 C 392.574 141.427 393.896 139.312 395.086 137.196 C 396.541 134.552 397.863 131.907 399.053 129.13 C 400.243 126.354 401.301 123.577 402.227 120.668 C 403.152 117.891 403.813 114.982 404.474 112.074 C 405.004 109.032 405.532 106.123 405.797 103.214 C 406.061 100.173 406.326 97.132 406.326 94.223 C 406.326 92.108 406.193 89.992 406.062 87.876 C 405.797 84.835 405.4 81.926 405.004 79.017 C 404.475 75.976 403.814 73.067 403.02 70.158 C 402.095 67.382 401.169 64.473 400.111 61.696 C 399.054 58.919 397.731 56.142 396.409 53.498 C 394.955 50.853 393.5 48.209 391.913 45.697 C 390.195 43.184 388.476 40.804 386.624 38.424 C 384.641 36.176 382.658 33.929 380.542 31.681 C 379.484 30.623 378.294 29.433 377.104 28.375 C 371.154 23.747 364.94 19.384 358.725 15.417 C 357.799 14.888 357.006 14.492 356.081 14.095 C 351.717 11.318 347.618 9.864 343.519 8.542 L 343.519 8.541 Z " fill-rule="evenodd" fill="rgb(224,35,78)"/></g></svg>