<?xml version="1.0" encoding="UTF-8" standalone="no"?><!-- Generator: Gravit.io --><svg xmlns="http://www.w3.org/2000/svg" xmlns:xlink="http://www.w3.org/1999/xlink" style="isolation:isolate" viewBox="0 0 512 512" width="512pt" height="512pt"><defs><clipPath id="_clipPath_4Bxy36MrghJD8UsTqNvV2k1KzcDzwsHK"><rect width="512" height="512"/></clipPath></defs><g clip-path="url(#_clipPath_4Bxy36MrghJD8UsTqNvV2k1KzcDzwsHK)"><path d=" M 464.756 368.51 C 401.74 452.47 267.129 424.129 180.826 428.206 C 180.826 428.206 165.548 429.056 150.16 431.589 C 150.16 431.589 155.979 429.107 163.4 426.548 C 224.014 405.587 252.659 401.375 289.49 382.456 C 358.693 347.007 427.565 269.791 441.578 189.578 C 415.238 266.725 335.126 333.124 262.181 360.087 C 212.253 378.51 121.963 396.44 121.95 396.448 C 121.992 396.512 118.352 394.558 118.301 394.516 C 56.897 364.641 55.125 231.649 166.647 188.779 C 215.543 169.97 262.313 180.301 315.171 167.719 C 371.548 154.315 436.842 112.057 463.382 56.81 C 493.134 145.059 528.876 283.125 464.756 368.51 L 464.756 368.51 Z  M 465.851 29.464 C 458.349 47.287 449.194 63.348 438.639 77.713 C 392.183 30.035 327.341 0.329 255.67 0.329 C 114.685 0.329 0 115.027 0 255.985 C 0 329.881 31.542 396.525 81.829 443.239 L 87.428 448.199 C 78.078 440.575 76.64 426.844 84.218 417.486 C 91.842 408.124 105.586 406.674 114.94 414.256 C 124.319 421.854 125.748 435.619 118.154 444.994 C 110.588 454.373 96.82 455.79 87.453 448.22 L 91.263 451.595 C 135.745 489.048 193.085 511.671 255.67 511.671 C 390.429 511.671 501.085 406.8 510.557 274.435 C 517.572 209.626 498.429 127.332 465.851 29.464 Z " fill="rgb(95,184,50)"/></g></svg>