<?xml version="1.0" encoding="UTF-8" standalone="no"?><!-- Generator: Gravit.io --><svg xmlns="http://www.w3.org/2000/svg" xmlns:xlink="http://www.w3.org/1999/xlink" style="isolation:isolate" viewBox="0 0 512 512" width="512pt" height="512pt"><defs><clipPath id="_clipPath_ecIdIeuKBa1O2IrkuFZSITSwrRM6RJQY"><rect width="512" height="512"/></clipPath></defs><g clip-path="url(#_clipPath_ecIdIeuKBa1O2IrkuFZSITSwrRM6RJQY)"><circle vector-effect="non-scaling-stroke" cx="256" cy="256" r="256" fill="rgb(27,27,29)" /><g><path d=" M 136.305 140.918 C 133.883 140.887 131.571 141.928 129.989 143.763 C 128.407 145.598 127.718 148.038 128.106 150.429 L 162.913 361.735 C 163.809 367.072 168.407 370.996 173.819 371.041 L 340.805 371.041 C 344.867 371.094 348.355 368.164 349.005 364.154 L 383.894 150.511 C 384.282 148.12 383.593 145.68 382.011 143.845 C 380.429 142.01 378.117 140.969 375.695 141 L 136.305 140.918 Z  M 282.874 293.636 L 229.577 293.636 L 215.145 218.282 L 295.789 218.282 L 282.874 293.636 Z " fill="rgb(102,0,51)"/><path d=" M 372.743 218.282 L 295.789 218.282 L 282.874 293.636 L 229.577 293.636 L 166.644 368.376 C 168.639 370.101 171.182 371.06 173.819 371.082 L 340.846 371.082 C 344.908 371.135 348.396 368.205 349.046 364.195 L 372.743 218.282 Z " fill="rgb(102,0,51)"/></g></g></svg>