<?xml version="1.0" encoding="UTF-8" standalone="no"?><!-- Generator: Gravit.io --><svg xmlns="http://www.w3.org/2000/svg" xmlns:xlink="http://www.w3.org/1999/xlink" style="isolation:isolate" viewBox="0 0 512 512" width="512pt" height="512pt"><defs><clipPath id="_clipPath_HvOLmmGkBWMO36eubIgUgbasJgz64yCY"><rect width="512" height="512"/></clipPath></defs><g clip-path="url(#_clipPath_HvOLmmGkBWMO36eubIgUgbasJgz64yCY)"><circle vector-effect="non-scaling-stroke" cx="256" cy="256" r="256" fill="rgb(27,27,29)" /><path d=" M 128 211.852 C 128 168.729 163.011 133.718 206.134 133.718 C 249.257 133.718 284.268 168.729 284.268 211.852 C 284.268 254.976 249.257 289.986 206.134 289.986 C 163.011 289.986 128 254.976 128 211.852 Z  M 384 219.475 C 384 228.247 376.888 235.356 368.119 235.356 C 359.35 235.356 352.238 228.247 352.238 219.475 C 352.238 210.703 359.35 203.594 368.119 203.594 C 376.888 203.594 384 210.703 384 219.475 Z  M 355.415 258.224 C 355.415 275.765 341.195 289.985 323.653 289.985 C 306.109 289.985 291.891 275.765 291.891 258.224 C 291.891 240.683 306.109 226.462 323.653 226.462 C 341.196 226.462 355.415 240.683 355.415 258.224 Z  M 361.766 340.169 C 361.766 361.219 344.704 378.282 323.652 378.282 C 302.6 378.282 285.538 361.219 285.538 340.169 C 285.538 319.12 302.6 302.056 323.652 302.056 C 344.704 302.056 361.766 319.12 361.766 340.169 Z " fill-rule="evenodd" fill="rgb(85,0,0)"/></g></svg>