<?xml version="1.0" encoding="UTF-8" standalone="no"?>
<!-- Generator: Gravit.io --><svg xmlns="http://www.w3.org/2000/svg" xmlns:xlink="http://www.w3.org/1999/xlink"
  style="isolation:isolate" viewBox="0 0 512 512" width="512pt" height="512pt">
  <defs>
    <clipPath id="_clipPath_wt76d3dF3vh7QqWhITVYMVejG7p7LCXj">
      <rect width="512" height="512" />
    </clipPath>
  </defs>
  <g clip-path="url(#_clipPath_wt76d3dF3vh7QqWhITVYMVejG7p7LCXj)">
    <circle vector-effect="non-scaling-stroke" cx="256" cy="256" r="256" fill="rgb(27,27,29)" />
    <path
      d=" M 331.636 384 L 180.364 384 C 170.764 384 162.909 376.145 162.909 366.545 L 162.909 145.455 C 162.909 135.855 170.764 128 180.364 128 L 285.091 128 L 349.091 192 L 349.091 366.545 C 349.091 376.145 341.236 384 331.636 384 Z  M 308.364 241.455 L 203.636 241.455 L 203.636 226.909 L 308.364 226.909 L 308.364 241.455 Z  M 308.364 261.818 L 203.636 261.818 L 203.636 276.364 L 308.364 276.364 L 308.364 261.818 Z  M 279.273 296.727 L 203.636 296.727 L 203.636 311.273 L 279.273 311.273 L 279.273 296.727 Z "
      fill-rule="evenodd" fill="rgb(85,0,0)" />
  </g>
</svg>
