<?xml version="1.0" encoding="UTF-8" standalone="no"?><!-- Generator: Gravit.io --><svg xmlns="http://www.w3.org/2000/svg" xmlns:xlink="http://www.w3.org/1999/xlink" style="isolation:isolate" viewBox="0 0 512 512" width="512pt" height="512pt"><defs><clipPath id="_clipPath_sz7HHnh2kl41OuJIw17fve1eDPTTgODh"><rect width="512" height="512"/></clipPath></defs><g clip-path="url(#_clipPath_sz7HHnh2kl41OuJIw17fve1eDPTTgODh)"><path d="M 477.714 383.995 L 256.005 512 L 34.286 383.995 L 34.286 127.985 L 256.005 0 L 477.714 127.985 L 477.714 383.995 Z" fill-rule="evenodd" fill="rgb(27,27,29)" /><path d=" M 258.148 180.914 C 288.286 180.914 312.199 199.503 321.277 227.151 L 382.024 227.151 C 371.015 168.047 322.233 128 258.635 128 C 186.41 128 129.976 182.827 129.976 256.244 C 129.976 329.66 184.984 384 258.635 384 C 320.808 384 370.546 343.953 381.555 284.361 L 321.277 284.361 C 312.668 312.01 288.756 331.086 258.617 331.086 C 217 331.086 187.836 299.142 187.836 256.244 C 187.854 212.858 216.549 180.914 258.148 180.914 Z " fill="rgb(237,29,36)"/></g></svg>