<?xml version="1.0" encoding="UTF-8" standalone="no"?><!-- Generator: Gravit.io --><svg xmlns="http://www.w3.org/2000/svg" xmlns:xlink="http://www.w3.org/1999/xlink" style="isolation:isolate" viewBox="0 0 512 512" width="512pt" height="512pt"><defs><clipPath id="_clipPath_mBYqoH5LbLLvGqX9f0ZsQYHXwnaHYbRU"><rect width="512" height="512"/></clipPath></defs><g clip-path="url(#_clipPath_mBYqoH5LbLLvGqX9f0ZsQYHXwnaHYbRU)"><rect x="0" y="0" width="512" height="512" transform="matrix(1,0,0,1,0,0)" fill="rgb(239,191,4)"/><path d=" M 237.969 163.453 L 183.78 162.954 L 183.78 198.905 L 273.587 198.905 L 180.256 318.537 L 180.256 348.96 L 237.969 348.96 L 237.969 384 L 272.597 384 L 272.597 348.96 L 331.465 348.96 C 331.96 347.558 332.133 343.778 329 340.316 C 323.806 334.544 319.675 328.513 315.883 320.927 C 314.151 317.547 312.836 313.498 312.342 313.169 C 300.749 312.637 234.058 312.775 234.094 312.353 L 327.508 191.988 L 327.508 163.453 L 272.597 163.453 L 272.597 128 L 237.969 128 L 237.969 163.453 Z " fill="rgb(255,255,255)"/></g></svg>