<?xml version="1.0" encoding="UTF-8" standalone="no"?><!-- Generator: Gravit.io --><svg xmlns="http://www.w3.org/2000/svg" xmlns:xlink="http://www.w3.org/1999/xlink" style="isolation:isolate" viewBox="0 0 512 512" width="512pt" height="512pt"><defs><clipPath id="_clipPath_J7OyHgPBuuVT5DHIMIU7MpmGFkMCaU6V"><rect width="512" height="512"/></clipPath></defs><g clip-path="url(#_clipPath_J7OyHgPBuuVT5DHIMIU7MpmGFkMCaU6V)"><circle vector-effect="non-scaling-stroke" cx="256" cy="256" r="256" fill="rgb(0,0,128)" /><path d=" M 218.471 218.593 L 293.491 218.593 L 293.491 284.693 C 321.372 288.971 347.765 297.921 371.804 310.678 C 379.608 294.152 384 275.665 384 256.118 C 384 185.347 326.628 128 255.961 128 C 185.255 128 128 185.347 128 256.118 C 128 275.586 132.353 294.074 140.118 310.599 C 164.196 297.842 190.51 288.932 218.471 284.693 L 218.471 218.593 Z  M 255.961 384 C 300.706 384 340.079 360.998 363.02 326.143 C 331.059 309.225 294.549 299.609 255.843 299.609 C 217.216 299.609 180.823 309.186 148.902 326.104 C 171.804 360.959 211.137 384 255.961 384" fill-rule="evenodd" fill="rgb(255,255,255)"/></g></svg>