<?xml version="1.0" encoding="UTF-8" standalone="no"?><!-- Generator: Gravit.io --><svg xmlns="http://www.w3.org/2000/svg" xmlns:xlink="http://www.w3.org/1999/xlink" style="isolation:isolate" viewBox="0 0 512 512" width="512pt" height="512pt"><defs><clipPath id="_clipPath_ma8xiUaglIOAu26eRib2q0LZodH7e5jE"><rect width="512" height="512"/></clipPath></defs><g clip-path="url(#_clipPath_ma8xiUaglIOAu26eRib2q0LZodH7e5jE)"><path d="M 477.714 383.995 L 256.005 512 L 34.286 383.995 L 34.286 127.985 L 256.005 0 L 477.714 127.985 L 477.714 383.995 Z" fill-rule="evenodd" fill="rgb(0,0,128)" /><path d=" M 359.487 131.163 C 357.412 129.087 354.842 128 351.975 128 L 160.025 128 C 157.158 128 154.588 129.087 152.513 131.163 C 150.437 133.239 149.35 135.808 149.35 138.675 L 149.35 266.675 C 149.35 276.263 151.228 285.653 154.885 295.042 C 158.641 304.432 163.188 312.735 168.723 320.049 C 174.258 327.364 180.781 334.381 188.392 341.3 C 196.003 348.219 203.021 353.952 209.446 358.499 C 215.87 363.046 222.592 367.395 229.609 371.447 C 236.627 375.5 241.569 378.267 244.534 379.651 C 247.5 381.134 249.872 382.221 251.651 383.012 C 252.936 383.703 254.419 384 256 384 C 257.581 384 258.965 383.703 260.349 383.012 C 262.128 382.221 264.5 381.134 267.466 379.651 C 270.431 378.168 275.373 375.5 282.391 371.447 C 289.408 367.395 296.13 363.046 302.554 358.499 C 308.979 353.952 315.997 348.219 323.608 341.3 C 331.219 334.381 337.742 327.364 343.277 320.049 C 348.812 312.735 353.359 304.432 357.115 295.042 C 360.871 285.653 362.65 276.164 362.65 266.675 L 362.65 138.675 C 362.65 135.808 361.563 133.337 359.487 131.163 Z  M 334.777 267.861 C 334.777 314.218 256.099 354.051 256.099 354.051 L 256.099 155.379 L 334.777 155.379 C 334.777 155.478 334.777 221.504 334.777 267.861 Z " fill="rgb(255,255,255)"/></g></svg>