<?xml version="1.0" encoding="UTF-8" standalone="no"?><!-- Generator: Gravit.io --><svg xmlns="http://www.w3.org/2000/svg" xmlns:xlink="http://www.w3.org/1999/xlink" style="isolation:isolate" viewBox="0 0 512 512" width="512pt" height="512pt"><defs><clipPath id="_clipPath_YPO55nuSKIXzuceOzQMLlN3U4zfhsLEW"><rect width="512" height="512"/></clipPath></defs><g clip-path="url(#_clipPath_YPO55nuSKIXzuceOzQMLlN3U4zfhsLEW)"><g><linearGradient id="_lgradient_0" x1="0" y1="0.5" x2="0.6710355227334142" y2="1.2414252000235044" gradientTransform="matrix(380.407,0,0,511.683,0,0.159)" gradientUnits="userSpaceOnUse"><stop offset="21.988804927112717%" stop-opacity="1" style="stop-color:rgb(66,133,235)"/><stop offset="68.08365762711273%" stop-opacity="1" style="stop-color:rgb(46,199,255)"/></linearGradient><path d=" M 234.158 9.267 L 9.076 234.165 C -3.025 246.256 -3.025 265.785 9.076 277.876 L 234.158 502.773 C 246.259 514.864 265.804 514.864 277.905 502.773 L 372.279 408.477 C 383.116 397.649 383.116 380.093 372.279 369.264 C 361.442 358.436 343.871 358.436 333.034 369.264 L 261.49 440.75 C 258.478 443.759 253.907 443.759 250.895 440.75 L 71.15 261.153 C 68.138 258.143 68.138 253.576 71.15 250.567 L 250.895 70.97 C 253.907 67.96 258.478 67.96 261.49 70.97 L 333.034 142.455 C 343.871 153.283 361.442 153.283 372.279 142.455 C 383.116 131.627 383.116 114.071 372.279 103.242 L 277.915 8.956 C 265.765 -2.873 246.213 -2.777 234.158 9.267 Z " fill="url(#_lgradient_0)"/><linearGradient id="_lgradient_1" x1="0" y1="0.5" x2="0.10633594696518393" y2="-0.49433026021690474" gradientTransform="matrix(380.407,0,0,511.683,0,0.159)" gradientUnits="userSpaceOnUse"><stop offset="0%" stop-opacity="1" style="stop-color:rgb(11,99,255)"/><stop offset="33.58385977785669%" stop-opacity="1" style="stop-color:rgb(20,142,255)"/><stop offset="100%" stop-opacity="1" style="stop-color:rgb(39,200,255)"/></linearGradient><path d=" M 234.158 9.267 L 9.076 234.165 C -3.025 246.256 -3.025 265.785 9.076 277.876 L 234.158 502.773 C 246.259 514.864 265.804 514.864 277.905 502.773 L 372.279 408.477 C 383.116 397.649 383.116 380.093 372.279 369.264 C 361.442 358.436 343.871 358.436 333.034 369.264 L 261.49 440.75 C 258.478 443.759 253.907 443.759 250.895 440.75 L 71.15 261.153 C 68.138 258.143 68.138 253.576 71.15 250.567 L 250.895 70.97 C 258.394 64.504 270.631 51.409 288.6 48.347 C 301.954 46.07 316.554 51.08 332.399 63.376 C 321.805 52.791 303.644 34.651 277.915 8.956 C 265.765 -2.873 246.213 -2.777 234.158 9.267 Z " fill="url(#_lgradient_1)"/><linearGradient id="_lgradient_2" x1="0" y1="0.5" x2="0.24997812040980488" y2="-0.4682514855740636" gradientTransform="matrix(126.707,0,0,199.405,385.293,157.065)" gradientUnits="userSpaceOnUse"><stop offset="0%" stop-opacity="1" style="stop-color:rgb(245,35,51)"/><stop offset="35.76799003843066%" stop-opacity="1" style="stop-color:rgb(247,74,92)"/><stop offset="100%" stop-opacity="1" style="stop-color:rgb(249,116,106)"/></linearGradient><path d=" M 394.064 348.349 C 404.902 359.177 422.472 359.177 433.309 348.349 L 502.924 278.791 C 515.025 266.7 515.025 247.171 502.926 235.082 L 432.704 165.167 C 421.841 154.351 404.265 154.367 393.421 165.202 C 382.584 176.03 382.584 193.586 393.421 204.414 L 440.85 251.803 C 443.861 254.813 443.861 259.38 440.85 262.389 L 394.064 309.136 C 383.227 319.964 383.227 337.52 394.064 348.349 Z " fill="url(#_lgradient_2)"/><linearGradient id="_lgradient_3" x1="0" y1="0.5" x2="0.24290289933837153" y2="-0.47005060769684226" gradientTransform="matrix(121.545,0,0,121.445,196.385,196.422)" gradientUnits="userSpaceOnUse"><stop offset="0%" stop-opacity="1" style="stop-color:rgb(245,34,49)"/><stop offset="61.49630620927926%" stop-opacity="1" style="stop-color:rgb(247,74,92)"/><stop offset="100%" stop-opacity="1" style="stop-color:rgb(249,119,114)"/></linearGradient><ellipse vector-effect="non-scaling-stroke" cx="257.1570688343293" cy="257.14481019905713" rx="60.77234878139922" ry="60.722375262799176" fill="url(#_lgradient_3)"/></g></g></svg>