<?xml version="1.0" encoding="UTF-8" standalone="no"?><!-- Generator: Gravit.io --><svg xmlns="http://www.w3.org/2000/svg" xmlns:xlink="http://www.w3.org/1999/xlink" style="isolation:isolate" viewBox="0 0 512 512" width="512pt" height="512pt"><defs><clipPath id="_clipPath_2lHohX9Sp0tTsqD4GP6dCGBoe8QVFUKP"><rect width="512" height="512"/></clipPath></defs><g clip-path="url(#_clipPath_2lHohX9Sp0tTsqD4GP6dCGBoe8QVFUKP)"><linearGradient id="_lgradient_0" x1="0.148591796875" y1="0.0264656862745098" x2="1.0224218749999998" y2="0.7201121706495106" gradientTransform="matrix(512,0,0,408,0,52)" gradientUnits="userSpaceOnUse"><stop offset="0%" stop-opacity="1" style="stop-color:rgb(144,19,254)"/><stop offset="100%" stop-opacity="1" style="stop-color:rgb(102,16,242)"/></linearGradient><path d=" M 56.481 105.32 C 55.515 77.58 77.128 52 106.342 52 L 405.695 52 C 434.909 52 456.522 77.58 455.556 105.32 C 454.628 131.967 455.833 166.485 464.52 194.63 C 473.235 222.862 487.931 240.707 512 243 L 512 269 C 487.931 271.293 473.235 289.138 464.52 317.37 C 455.833 345.515 454.628 380.033 455.556 406.681 C 456.522 434.42 434.909 460 405.695 460 L 106.342 460 C 77.128 460 55.515 434.42 56.482 406.681 C 57.409 380.033 56.204 345.515 47.516 317.37 C 38.802 289.138 24.07 271.293 0 269 L 0 243 C 24.069 240.707 38.802 222.862 47.516 194.63 C 56.204 166.485 57.409 131.967 56.481 105.32 Z " fill="url(#_lgradient_0)"/><defs><filter id="djnb0rk0YuQJF32WNcoqy3P1BW9GnC2E" x="-200%" y="-200%" width="400%" height="400%" filterUnits="objectBoundingBox" color-interpolation-filters="sRGB"><feGaussianBlur xmlns="http://www.w3.org/2000/svg" in="SourceGraphic" stdDeviation="8"/><feOffset xmlns="http://www.w3.org/2000/svg" dx="0" dy="4" result="pf_100_offsetBlur"/><feFlood xmlns="http://www.w3.org/2000/svg" flood-color="#000000" flood-opacity="0"/><feComposite xmlns="http://www.w3.org/2000/svg" in2="pf_100_offsetBlur" operator="in" result="pf_100_dropShadow"/><feBlend xmlns="http://www.w3.org/2000/svg" in="SourceGraphic" in2="pf_100_dropShadow" mode="normal"/></filter></defs><g filter="url(#djnb0rk0YuQJF32WNcoqy3P1BW9GnC2E)"><linearGradient id="_lgradient_1" x1="0.09458787878787867" y1="0.06582027649769584" x2="0.5971146847876627" y2="0.9157029210625762" gradientTransform="matrix(197,0,0,249,161.901,135.457)" gradientUnits="userSpaceOnUse"><stop offset="0%" stop-opacity="1" style="stop-color:rgb(255,255,255)"/><stop offset="100%" stop-opacity="1" style="stop-color:rgb(241,229,252)"/></linearGradient><path d=" M 268.403 384.457 C 324.873 384.457 358.901 357.884 358.901 314.054 C 358.901 280.923 334.621 256.938 298.569 253.141 L 298.569 251.761 C 325.056 247.619 345.842 223.979 345.842 197.578 C 345.842 159.961 314.94 135.457 267.851 135.457 L 161.901 135.457 L 161.901 384.457 L 268.403 384.457 Z  M 203.104 167.035 L 257.919 167.035 C 287.717 167.035 304.639 179.804 304.639 202.927 C 304.639 227.603 284.958 241.407 249.273 241.407 L 203.104 241.407 L 203.104 167.035 L 203.104 167.035 Z  M 203.104 352.88 L 203.104 270.915 L 257.55 270.915 C 296.545 270.915 316.779 284.719 316.779 311.639 C 316.779 338.557 297.098 352.88 259.941 352.88 L 203.104 352.88 L 203.104 352.88 Z " fill="url(#_lgradient_1)" vector-effect="non-scaling-stroke" stroke-width="1" stroke="rgb(255,255,255)" stroke-linejoin="miter" stroke-linecap="butt" stroke-miterlimit="4"/></g></g></svg>