<?xml version="1.0" encoding="UTF-8" standalone="no"?><!-- Generator: Gravit.io --><svg xmlns="http://www.w3.org/2000/svg" xmlns:xlink="http://www.w3.org/1999/xlink" style="isolation:isolate" viewBox="0 0 512 512" width="512pt" height="512pt"><defs><clipPath id="_clipPath_sapFj9AzzBSb7amymRBdjPPRYx9bAAKX"><rect width="512" height="512"/></clipPath></defs><g clip-path="url(#_clipPath_sapFj9AzzBSb7amymRBdjPPRYx9bAAKX)"><path d=" M 428.582 491.043 C 428.582 502.617 351.315 512 256 512 C 160.685 512 83.418 502.617 83.418 491.043 C 83.418 479.468 174.057 470.087 256 470.087 C 353.543 470.087 428.582 479.468 428.582 491.043 Z " fill="rgb(26,70,88)"/><path d=" M 417.9 339.83 C 412.558 339.83 406.805 337.364 402.695 318.463 C 398.585 299.561 392.422 280.248 392.422 280.248 C 398.998 280.248 402.695 277.371 402.695 277.371 C 398.174 275.315 388.312 268.331 381.739 259.702 C 375.165 251.073 358.316 237.101 358.316 237.101 L 358.316 209.16 C 358.316 190.257 370.439 175.466 370.439 175.466 C 362.222 175.466 358.316 182.861 358.316 182.861 L 358.316 143.003 C 358.316 103.555 378.245 85.888 378.245 85.888 C 372.081 85.478 367.972 88.353 367.972 88.353 C 370.849 59.18 379.787 50.55 379.787 50.55 C 346.915 41.92 328.577 61.233 328.577 61.233 C 324.879 43.565 339.338 33.288 339.338 33.288 C 322.492 29.59 308.558 34.521 308.558 34.521 C 308.558 8.634 318.85 0 318.85 0 C 267.485 0 238.322 38.621 238.322 38.621 C 236.268 22.183 240.791 7.787 240.791 7.787 C 191.072 28.744 177.926 75.153 177.926 75.153 C 174.64 67.347 174.229 49.623 174.229 49.623 C 174.229 49.623 153.683 84.037 149.985 107.869 C 146.287 131.702 153.272 200.119 153.272 200.119 C 153.272 200.119 149.986 196.011 143 195.19 C 143 195.19 150.396 203.408 150.396 221.899 C 150.396 221.899 147.519 219.433 142.589 220.666 C 142.589 220.666 150.395 227.651 151.218 239.567 C 151.218 239.567 142.178 245.731 137.247 251.895 C 137.247 251.895 129.439 252.306 125.33 253.539 C 125.33 253.539 131.905 257.237 133.138 260.524 C 133.138 260.524 113.825 280.248 103.963 296.273 C 103.963 296.273 112.593 290.932 118.756 292.575 C 118.756 292.575 105.195 309.011 100.675 336.131 C 100.675 336.131 107.25 332.845 110.126 334.488 C 110.126 334.488 101.908 351.745 101.497 369.826 L 92.458 375.168 L 99.443 380.099 C 99.443 380.099 94.101 402.288 92.868 415.026 C 92.868 415.026 96.977 410.918 100.264 409.685 C 100.264 409.685 104.785 420.367 110.949 428.586 C 117.113 436.805 131.085 443.79 139.302 443.79 L 154.748 443.188 C 152.832 451.454 149.053 458.464 141.087 458.831 L 140.203 460.25 C 140.037 460.237 139.872 460.23 139.712 460.226 C 139.554 462.64 134.683 463.075 133.343 464.747 C 129.271 469.828 126.165 476.808 124.097 483.032 C 122.582 487.593 123.298 487.592 122.248 492.278 C 121.905 493.811 120.314 495.449 119.783 497.002 C 124.22 495.512 136.516 494.517 142.993 494.041 L 143.102 499.774 C 143.102 499.774 144.17 500.767 145.939 501.487 C 146 501.475 146.059 501.458 146.133 501.464 C 146.733 501.513 147.313 501.601 147.881 501.742 C 157.6 500.873 164.367 502.512 175.633 501.577 C 177.825 501.316 179.88 501.008 181.799 499.916 C 182.344 498.286 182.417 498.186 182.674 496.081 C 182.729 495.705 182.729 495.319 182.82 494.862 C 182.996 494.832 183.168 494.807 183.34 494.782 C 183.406 494.757 183.51 494.735 183.742 494.726 C 183.79 494.711 183.831 494.689 183.885 494.684 C 184.063 494.668 184.241 494.654 184.42 494.638 C 184.542 494.592 184.659 494.58 184.765 494.609 C 186.804 494.426 190.077 494.254 192.116 494.143 C 198.743 494.132 207.461 494.895 207.461 494.895 C 208 487.468 208.539 475.943 220.559 442.351 L 223.538 440.503 C 223.538 440.503 260.454 453.51 294.707 439.977 C 297.417 446.648 306.188 469.073 307.567 483.209 C 308.746 484.866 308.615 486.968 308.655 489.196 C 308.688 491.081 308.847 492.967 308.897 494.847 C 310.13 494.679 314.577 494.134 320.192 494.143 C 322.23 494.254 325.503 494.426 327.543 494.609 C 327.649 494.58 327.765 494.592 327.888 494.638 C 328.067 494.654 328.244 494.668 328.423 494.684 C 328.477 494.689 328.518 494.711 328.566 494.726 C 328.797 494.735 328.902 494.757 328.969 494.782 C 329.14 494.807 329.311 494.832 329.488 494.862 C 329.578 495.319 329.578 495.705 329.634 496.081 C 329.89 498.186 329.963 498.286 330.509 499.916 C 330.685 500.016 330.863 500.102 331.041 500.191 C 337.174 499.412 343.39 499.27 349.562 499.562 C 354.416 499.792 359.187 500.703 363.965 501.573 C 363.966 501.618 363.97 501.664 363.97 501.71 C 364.451 501.761 364.922 501.795 365.392 501.826 C 367.955 502.284 370.526 502.711 373.113 502.99 C 373.162 499.754 373.144 496.925 373.077 494.44 C 378.223 494.686 385.672 495.711 388.797 496.166 C 390.037 496.463 391.043 496.646 392.099 496.873 C 392.243 496.916 392.394 496.959 392.525 497.002 C 392.52 496.991 392.514 496.977 392.509 496.965 C 393.57 497.204 394.713 497.505 396.223 498.03 C 395.993 495.25 396.014 495.308 395.646 491.823 C 395.363 489.127 393.43 480.939 389.814 477.561 C 389.814 477.561 393.754 479.264 394.957 479.942 C 391.073 474.68 389.184 467.157 376.982 461.97 C 376.982 461.97 379.211 460.919 381.248 460.654 C 379.119 459.342 377.492 458.826 375.337 458.982 C 376.069 456.902 379.292 451.655 381.996 450.981 C 381.996 450.981 380.336 449.828 377.622 450.72 C 376.614 451.248 375.635 451.816 374.683 452.487 C 374.323 452.741 373.798 452.478 373.692 452.084 C 372.838 448.929 372.284 445.723 371.78 442.504 C 396.37 441.613 399.819 428.998 399.819 428.998 C 401.874 430.642 401.873 434.34 401.873 434.34 C 412.556 420.368 411.324 406.397 411.324 406.397 C 413.79 406.808 415.844 408.452 415.844 408.452 C 417.077 387.085 410.503 350.513 410.503 350.513 C 413.79 352.157 415.844 350.103 415.844 350.103 C 412.146 348.46 411.736 344.349 411.736 344.349 C 417.078 344.761 417.9 339.83 417.9 339.83 Z " fill="rgb(237,247,250)"/><path d=" M 182.82 494.862 C 182.82 494.862 183.783 484.47 180.394 476.971 C 180.394 476.971 186.812 477.407 187.891 494.357 C 187.891 494.357 183.396 494.879 182.82 494.862 Z " fill="rgb(205,233,238)"/><line x1="150.601" y1="459.816" x2="150.641" y2="459.497"/><path d=" M 156.611 494.057 C 156.574 494.047 156.553 494.041 156.553 494.041 C 156.553 494.041 156.579 493.97 156.628 493.846 L 156.611 494.057 Z " fill="rgb(205,233,238)"/><path d=" M 238.324 38.621 C 236.27 22.183 240.793 7.787 240.793 7.787 C 191.073 28.744 177.926 75.153 177.926 75.153 C 174.64 67.347 174.229 49.623 174.229 49.623 C 174.229 49.623 153.683 84.037 149.985 107.869 C 146.287 131.702 153.272 200.119 153.272 200.119 C 153.272 200.119 149.986 196.011 143 195.19 C 143 195.19 150.396 203.408 150.396 221.899 C 150.396 221.899 147.519 219.433 142.589 220.666 C 142.589 220.666 150.395 227.651 151.218 239.567 C 151.218 239.567 142.178 245.731 137.247 251.895 C 137.247 251.895 129.439 252.306 125.33 253.539 C 125.33 253.539 131.905 257.237 133.138 260.524 C 133.138 260.524 113.825 280.248 103.963 296.273 C 103.963 296.273 112.593 290.932 118.756 292.575 C 118.756 292.575 105.195 309.011 100.675 336.131 C 100.675 336.131 107.25 332.845 110.126 334.488 C 110.126 334.488 101.908 351.745 101.497 369.826 L 92.458 375.168 L 99.443 380.099 C 99.443 380.099 94.101 402.288 92.868 415.026 C 92.868 415.026 96.977 410.918 100.264 409.685 C 100.264 409.685 104.785 420.367 110.949 428.586 C 117.113 436.805 131.085 443.79 139.302 443.79 L 140.342 443.648 C 139.884 446.481 139.368 449.303 138.616 452.084 C 138.51 452.478 137.985 452.741 137.625 452.487 C 136.673 451.816 135.695 451.248 134.685 450.72 C 131.972 449.828 130.312 450.981 130.312 450.981 C 133.016 451.655 136.238 456.902 136.972 458.982 C 134.815 458.826 133.189 459.342 131.059 460.654 C 133.098 460.919 135.326 461.97 135.326 461.97 C 123.124 467.157 121.234 474.68 117.352 479.942 C 118.554 479.264 122.494 477.561 122.494 477.561 C 118.878 480.939 116.946 489.127 116.662 491.823 C 116.295 495.308 116.314 495.25 116.085 498.03 C 119.32 496.905 120.892 496.794 123.51 496.166 C 127.556 495.577 138.864 494.027 143.017 494.458 L 142.363 502.447 C 142.363 502.447 142.446 502.447 142.566 502.444 C 144.699 501.832 146.436 501.914 148.338 501.71 C 148.366 499.508 148.481 497.308 148.662 495.115 C 148.535 491.366 149 487.952 149.766 484.147 C 149.791 484.019 149.823 483.885 149.849 483.757 C 151.358 478.562 153.982 475.605 155.686 473.785 C 156.252 473.181 156.743 472.466 157.164 471.733 C 158.181 470.379 159.238 468.615 160.054 466.389 C 161.744 461.78 161.019 451.652 157.624 441.769 C 161.204 446.918 164.465 451.437 166.011 452.983 L 165.908 440.4 C 165.908 440.4 172.482 446.97 178.367 451.933 C 181.2 454.407 184.694 457.624 187.175 458.906 C 187.355 459.019 187.516 457.824 187.713 459.627 L 187.712 459.627 C 187.737 459.627 187.761 459.27 187.787 459.285 C 191.119 461.154 194.548 462.639 197.757 464.716 C 198.1 464.938 198.451 465.045 198.789 465.278 C 200.274 466.301 202.889 467.437 205.238 468.676 L 207.461 494.92 C 209.464 467.337 225.181 440.926 225.181 440.926 L 224.606 440.749 C 219.743 439.245 184.158 426.935 163.134 382.977 C 161.75 380.082 170.942 386.263 170.942 386.263 C 162.312 365.306 159.024 331.611 159.024 331.611 C 161.901 334.077 164.778 334.488 164.778 334.488 C 158.614 317.229 156.149 295.862 156.149 276.548 C 154.506 172.589 192.926 148.757 192.926 148.757 C 186.352 146.291 179.366 146.496 179.366 146.496 C 186.968 128.211 212.237 102.735 212.237 102.735 C 205.458 103.146 178.954 110.335 178.954 110.335 C 200.938 53.014 223.128 37.811 223.128 37.811 C 221.484 51.575 226.826 66.163 226.826 66.163 C 274.492 7.197 312.788 9.948 312.788 9.948 C 315.629 4.033 318.855 0 318.855 0 C 267.491 0 238.324 38.621 238.324 38.621 Z " fill="rgb(205,233,238)"/><path d=" M 373.058 494.537 C 373.058 494.537 372.594 479.641 369.205 472.142 C 369.205 472.142 378.04 477.587 377.989 494.793 C 377.989 494.793 373.634 494.555 373.058 494.537 Z " fill="rgb(205,233,238)"/><path d=" M 143.198 417.924 C 149.017 360.928 150.601 249.428 150.601 249.428 C 137.966 274.391 127.796 319.694 127.796 319.694 L 130.261 329.556 L 124.714 327.091 C 115.798 358.033 121.831 399.453 123.828 411.122 C 129.5 415.611 136.256 417.126 143.198 417.924 Z " fill="rgb(171,216,215)"/><path d=" M 131.279 416.692 C 133.085 425.814 134.959 434.599 137.041 443.66 C 138.583 443.892 140.316 443.776 140.316 443.776 C 141.73 438.265 141.965 429.736 143.064 419.245 C 139.013 418.77 135.038 418.05 131.279 416.692 Z " fill="rgb(171,216,215)"/><path d=" M 324.391 465.807 C 324.06 465.902 323.808 465.754 323.672 465.528 C 323.033 465.653 322.544 465.769 322.215 465.854 C 322.215 465.852 322.216 465.852 322.216 465.852 C 330.693 459.682 331.472 453.159 331.472 453.159 C 325.849 455.694 319.879 456.641 316.974 456.975 C 336.569 439.99 339.825 408.452 339.825 408.452 C 331.8 418.304 320.41 426.63 311.608 432.218 L 311.627 432.18 C 311.627 432.18 305.729 435.478 300.279 438.046 C 300.04 438.01 299.8 438.074 299.621 438.352 C 296.821 439.649 294.211 440.707 292.673 440.964 C 292.673 440.964 297.212 449.344 299.107 453.863 L 298.735 454.164 C 298.735 454.164 305.3 469.682 307.691 484.715 C 307.943 487.255 308.138 489.481 308.274 491.181 C 308.389 493.38 308.545 494.895 308.545 494.895 C 317.226 493.611 329.488 494.862 329.488 494.862 C 329.429 496.276 330.206 499.671 330.349 500.286 C 334.471 499.731 338.63 499.488 342.791 499.452 C 342.735 484.882 342.095 460.673 324.391 465.807 Z " fill="rgb(205,233,238)"/><path d=" M 142.742 422.32 C 129.129 420.018 116.775 404.372 116.775 404.372 C 126.701 414.927 139.058 416.34 139.058 416.34 C 140.689 404.287 130.726 376.698 130.726 376.698 C 138.105 385.887 142.141 396.515 144.348 405.215 L 142.742 422.32 Z " fill="rgb(131,186,192)"/><path d=" M 173.638 400.977 C 173.638 400.977 184.347 419.853 193.747 428.02 C 203.891 436.833 213.316 449.285 217.323 456.835 C 217.323 456.835 222.408 445.023 225.181 440.913 C 225.181 440.913 195.134 432.104 173.638 400.977 Z " fill="rgb(171,216,215)"/><path d=" M 313.421 437.793 C 314.91 435.698 316.615 433.751 318.241 431.762 C 320.906 428.499 323.951 425.331 326.189 421.78 C 322.327 424.67 318.026 427.174 313.63 429.819 C 300.87 438.465 291.981 440.913 291.981 440.913 C 294.754 445.023 299.839 456.835 299.839 456.835 C 302.264 452.266 306.68 445.901 312.034 439.632 C 312.483 439.009 312.982 438.411 313.421 437.793 Z " fill="rgb(171,216,215)"/><path d=" M 169.575 119.878 C 168.407 119.963 164.668 120.057 164.668 120.057 C 130.789 122.422 105.886 96.168 105.886 96.168 C 105.886 96.168 103.66 116.662 118.377 134.619 C 133.099 152.577 162.93 155.65 162.93 155.65 C 163.899 159.85 161.8 169.215 161.8 169.215 C 161.8 169.215 170.522 159.565 172.738 141.283 C 174.292 128.472 170.299 119.826 169.575 119.878 Z " fill="rgb(84,83,82)"/><path d=" M 169.575 119.878 C 168.451 119.942 164.668 120.057 164.668 120.057 C 130.789 122.422 105.886 96.168 105.886 96.168 C 105.886 96.168 121.363 140.96 173.053 137.421 C 173.053 137.421 174.482 129.136 169.575 119.878 Z " fill="rgb(110,121,121)"/><path d=" M 338.727 119.878 C 339.894 119.963 343.633 120.057 343.633 120.057 C 377.513 122.422 402.415 96.168 402.415 96.168 C 402.415 96.168 404.641 116.662 389.925 134.619 C 375.202 152.577 345.371 155.65 345.371 155.65 C 344.403 159.85 346.502 169.215 346.502 169.215 C 346.502 169.215 337.779 159.565 335.564 141.283 C 334.009 128.472 338.003 119.826 338.727 119.878 Z " fill="rgb(84,83,82)"/><path d=" M 338.727 119.878 C 339.85 119.942 343.633 120.057 343.633 120.057 C 377.513 122.422 402.415 96.168 402.415 96.168 C 402.415 96.168 386.938 140.96 335.249 137.421 C 335.249 137.421 333.819 129.136 338.727 119.878 Z " fill="rgb(110,121,121)"/><path d=" M 151.892 271.617 C 151.892 271.617 127.539 359.141 151.892 415.231 L 151.892 271.617 Z " fill="rgb(205,233,238)"/><path d=" M 394.374 410.065 C 382.355 419.237 369.849 419.818 369.849 419.818 C 369.292 407.836 382.391 381.639 382.391 381.639 C 379.41 383.398 377.014 385.527 375.044 387.862 L 374.958 379.071 L 384.409 371.264 L 376.808 365.101 L 386.463 326.269 L 377.218 332.433 C 377.218 332.433 374.343 277.167 376.397 253.334 C 376.397 253.334 364.686 241.621 358.933 236.897 C 358.933 236.897 360.02 253.913 361.26 281.101 C 366.509 302.911 374.659 348.047 364.52 387.742 C 364.637 395.788 364.724 403.96 364.77 412.209 C 364.77 412.209 369.823 429.766 371.466 442.093 C 371.466 442.093 373.109 442.555 375.575 442.145 L 375.389 423.266 C 388.085 419.432 394.374 410.065 394.374 410.065 Z " fill="rgb(205,233,238)"/><path d=" M 280.447 240.589 C 280.447 249.924 286.425 257.492 293.802 257.492 C 301.179 257.492 307.159 249.924 307.159 240.589 C 307.159 231.252 301.179 223.685 293.802 223.685 C 286.425 223.685 280.447 231.252 280.447 240.589 Z " fill="rgb(205,233,238)"/><path d=" M 280.86 236.074 C 280.86 245.265 286.746 252.716 294.009 252.716 C 301.271 252.716 307.159 245.265 307.159 236.074 C 307.159 226.882 301.271 219.432 294.009 219.432 C 286.746 219.432 280.86 226.882 280.86 236.074 Z " fill="rgb(255,255,255)"/><path d=" M 290.518 227.494 C 290.413 227.903 290.341 228.328 290.341 228.78 C 290.341 231.124 291.869 233.022 293.752 233.022 C 295.426 233.022 296.812 231.521 297.101 229.543 C 298.175 230.952 298.837 232.849 298.837 234.944 C 298.837 239.285 296.009 242.803 292.52 242.803 C 289.031 242.803 286.202 239.285 286.202 234.944 C 286.202 231.474 288.01 228.537 290.518 227.494 Z " fill="rgb(71,71,70)"/><path d=" M 216.345 240.589 C 216.345 249.924 222.324 257.492 229.701 257.492 C 237.076 257.492 243.056 249.924 243.056 240.589 C 243.056 231.252 237.076 223.685 229.701 223.685 C 222.324 223.685 216.345 231.252 216.345 240.589 Z " fill="rgb(205,233,238)"/><path d=" M 216.757 236.074 C 216.757 245.265 222.644 252.716 229.907 252.716 C 237.169 252.716 243.056 245.265 243.056 236.074 C 243.056 226.882 237.169 219.432 229.907 219.432 C 222.644 219.432 216.757 226.882 216.757 236.074 Z " fill="rgb(255,255,255)"/><path d=" M 228.881 227.494 C 228.776 227.903 228.704 228.328 228.704 228.78 C 228.704 231.124 230.231 233.022 232.116 233.022 C 233.789 233.022 235.176 231.521 235.464 229.543 C 236.539 230.952 237.201 232.849 237.201 234.944 C 237.201 239.285 234.371 242.803 230.883 242.803 C 227.394 242.803 224.565 239.285 224.565 234.944 C 224.565 231.474 226.374 228.537 228.881 227.494 Z " fill="rgb(71,71,70)"/><path d=" M 328.567 253.852 C 327.729 256.373 324.884 257.044 316.776 258.611 L 316.224 258.718 C 308.281 260.243 294.078 260.043 286.3 258.907 C 285.965 258.859 285.641 258.81 285.332 258.758 C 278.123 257.539 277.302 256.605 274.983 252.868 C 272.589 249.001 271.117 237.645 270.845 235.406 L 270.832 235.293 C 270.544 232.926 270.401 231.741 273.442 230.38 C 277.531 228.546 295.682 225.985 303.12 225.65 C 308.991 225.391 321.438 226.209 327.129 227.04 C 328.021 227.172 328.683 227.292 329.091 227.4 C 329.746 227.574 332.157 228.747 332.034 231.31 C 331.875 234.689 329.7 250.442 328.567 253.852 L 328.567 253.852 Z  M 249.405 235.293 L 249.391 235.406 C 249.12 237.645 247.648 249.001 245.253 252.868 C 242.934 256.605 242.114 257.539 234.903 258.758 C 234.596 258.81 234.272 258.859 233.936 258.907 C 226.158 260.043 211.956 260.243 204.012 258.718 L 203.461 258.611 C 195.353 257.044 192.507 256.373 191.669 253.852 C 190.537 250.442 188.362 234.689 188.202 231.31 C 188.079 228.747 190.491 227.574 191.145 227.4 C 191.553 227.292 192.214 227.172 193.106 227.04 C 198.798 226.209 211.244 225.391 217.117 225.65 C 224.554 225.985 242.704 228.546 246.794 230.38 C 249.835 231.741 249.693 232.926 249.405 235.293 L 249.405 235.293 Z  M 338.978 220.293 C 333.023 219.422 322.629 218.436 310.152 219.072 C 293.916 219.908 280.004 222.162 271.694 223.507 C 269.214 223.91 267.264 224.227 265.777 224.424 L 264.155 224.644 C 262.332 224.895 261.137 225.053 260.118 225.104 C 259.1 225.053 257.904 224.895 256.082 224.644 L 254.459 224.424 C 252.972 224.227 251.023 223.91 248.542 223.507 C 240.232 222.162 226.32 219.908 210.085 219.072 C 197.608 218.436 187.214 219.422 181.258 220.293 C 181.258 220.293 174.903 221.102 169.468 223.401 L 170.504 230.309 C 170.504 230.309 176.247 228.942 181.856 228.193 C 182.899 237.934 184.927 250.451 184.927 250.451 L 184.96 250.839 C 185.114 251.47 185.257 252.083 185.413 252.751 C 186.568 257.673 187.715 260.567 192.331 262.302 C 196.865 264.013 207.592 265.599 218.409 266.156 C 222.432 266.364 226.998 266.116 231.616 265.444 C 238.464 264.444 244.659 262.6 247.026 260.851 C 250.469 258.305 252.311 251.901 253.53 247.663 L 253.896 246.414 C 254.327 244.969 254.701 243.452 255.063 241.98 C 255.583 239.868 256.12 237.684 256.579 236.93 C 256.662 236.798 257.048 236.343 258.553 236.122 C 259.019 236.055 259.543 236.019 260.118 236.012 C 260.694 236.019 261.217 236.055 261.683 236.122 C 263.188 236.343 263.575 236.798 263.658 236.93 C 264.116 237.684 264.653 239.868 265.173 241.98 C 265.535 243.452 265.91 244.969 266.341 246.414 L 266.705 247.663 C 267.925 251.901 269.767 258.305 273.211 260.851 C 275.578 262.6 281.771 264.444 288.62 265.444 C 293.238 266.116 297.804 266.364 301.826 266.156 C 312.645 265.599 323.371 264.013 327.905 262.302 C 332.52 260.567 333.668 257.673 334.824 252.751 C 334.979 252.083 335.123 251.47 335.276 250.839 L 335.308 250.451 C 335.308 250.451 337.337 237.934 338.379 228.193 C 343.99 228.942 349.732 230.309 349.732 230.309 L 350.769 223.401 C 345.333 221.102 338.978 220.293 338.978 220.293 L 338.978 220.293 Z " fill="rgb(84,83,82)"/><path d=" M 233.823 202.799 C 233.823 202.799 218.969 195.715 210.467 208.869 C 210.467 208.869 209.589 195.788 221.585 194.327 C 233.582 192.863 233.823 202.799 233.823 202.799 Z " fill="rgb(160,209,222)"/><path d=" M 228.252 183.578 C 228.252 183.578 214.482 177.08 208.208 189.569 C 208.208 189.569 206.158 178.657 215.985 176.023 C 225.813 173.389 228.252 183.578 228.252 183.578 Z " fill="rgb(160,209,222)"/><path d=" M 287.032 210.819 C 287.032 210.819 298.568 205.317 305.172 215.534 C 305.172 215.534 305.853 205.375 296.537 204.239 C 287.219 203.103 287.032 210.819 287.032 210.819 Z " fill="rgb(160,209,222)"/><path d=" M 295.236 192.624 C 295.236 192.624 306.909 190.734 308.907 201.403 C 308.907 201.403 312.782 193.701 306.015 189.623 C 299.247 185.543 295.236 192.624 295.236 192.624 Z " fill="rgb(160,209,222)"/><path d=" M 232.79 306.426 C 232.79 306.426 240.94 300.949 245.751 300.195 C 245.751 300.195 246.801 310.53 251.581 315.623 C 251.581 315.623 261.899 306.323 272.102 305.662 C 272.102 305.662 274.735 311.33 279.011 313.432 L 278.987 313.497 C 280.53 314.461 282.421 315.435 284.252 315.842 C 284.252 315.842 290.107 312.298 291.802 305.825 C 291.802 305.825 292.366 319.489 283.789 326.936 C 283.789 326.936 277.249 323.744 272.537 318.636 C 271.122 317.258 269.651 315.655 268.937 314.352 C 268.937 314.352 253.806 325.056 253.253 331.16 C 253.253 331.16 242.33 320.511 238.606 312.306 C 238.606 312.306 231.316 314.607 229.294 316.09 C 229.294 316.09 223.435 306.507 222.245 297.86 C 222.245 297.86 229.292 304.59 232.79 306.426 Z " fill="rgb(178,220,229)"/><path d=" M 260.294 279.572 C 259.69 279.443 275.642 280.676 291.305 280.119 C 291.305 280.119 292.142 277.131 293.343 275.489 C 293.343 275.489 293.082 280.519 294.489 281.548 C 294.489 281.548 286.651 284.633 278.746 284.611 C 278.746 284.611 287.36 283.173 290.249 281.687 C 290.249 281.687 274.531 282.561 260.294 279.572 Z " fill="rgb(84,83,82)"/></g></svg>