<?xml version="1.0" encoding="UTF-8" standalone="no"?><!-- Generator: Gravit.io --><svg xmlns="http://www.w3.org/2000/svg" xmlns:xlink="http://www.w3.org/1999/xlink" style="isolation:isolate" viewBox="0 0 512 512" width="512pt" height="512pt"><defs><clipPath id="_clipPath_CB3CueZjzM7KaqBPmIbghcrhIHvRap2b"><rect width="512" height="512"/></clipPath></defs><g clip-path="url(#_clipPath_CB3CueZjzM7KaqBPmIbghcrhIHvRap2b)"><path d=" M 436.747 263.618 L 512 263.618 C 485.684 272.39 477.374 289.933 472.757 339.794 C 469.526 375.344 453.367 384.577 453.367 384.577 C 441.363 384.577 429.36 333.331 418.741 278.853 C 422.896 269.619 428.436 265.003 436.747 263.618 Z " fill="rgb(235,112,119)"/><path d=" M 452.905 384.115 L 377.652 384.115 C 391.041 384.115 400.274 358.723 405.814 326.406 C 409.508 304.707 413.201 289.01 418.28 278.391 C 428.898 332.869 440.902 384.115 452.905 384.115 Z " fill="rgb(235,112,119)"/><path d=" M 418.28 278.391 C 412.739 288.548 409.046 304.707 405.814 326.406 C 400.274 358.723 391.041 384.115 377.652 384.115 C 363.34 380.884 351.798 326.406 336.563 243.304 C 336.101 240.534 335.639 238.225 335.178 235.455 C 346.72 175.437 358.723 123.729 370.727 123.729 L 374.882 123.729 C 389.194 126.961 400.736 181.439 415.971 264.541 C 416.894 269.619 417.356 273.775 418.28 278.391 Z " fill="rgb(246,162,173)"/><path d=" M 299.628 124.191 L 370.727 124.191 C 358.723 124.191 346.258 175.899 335.178 235.917 C 324.559 179.592 312.094 124.191 299.628 124.191 Z " fill="rgb(235,112,119)"/><path d=" M 335.178 235.917 C 334.254 241.919 332.869 247.921 331.946 254.384 C 314.864 347.643 304.707 381.807 292.703 384.577 C 279.315 384.577 266.388 324.097 255.769 265.003 C 255.769 264.079 255.307 263.156 255.307 262.233 C 255.769 259.463 256.231 257.154 256.693 254.384 C 273.775 160.664 283.931 126.961 295.473 124.191 L 299.628 124.191 C 312.094 124.191 324.559 179.592 335.178 235.917 Z " fill="rgb(235,112,119)"/><path d=" M 292.703 384.115 L 217.45 384.115 C 230.377 384.115 243.304 326.406 254.846 261.771 C 254.846 262.694 255.307 263.618 255.307 264.541 C 266.388 324.097 279.776 384.115 292.703 384.115 Z " fill="rgb(235,112,119)"/><path d=" M 255.307 262.233 C 243.304 326.867 230.377 384.577 217.912 384.577 C 203.138 380.884 192.058 326.406 176.361 243.766 C 175.899 240.995 175.437 238.687 174.976 235.917 C 186.518 175.899 198.521 124.191 210.525 124.191 L 214.68 124.191 C 228.992 127.423 240.072 180.977 255.307 262.233 Z " fill="rgb(246,162,173)"/><path d=" M 139.427 124.191 L 210.525 124.191 C 198.521 124.191 186.518 175.899 174.976 235.917 C 164.357 179.592 151.892 124.191 139.427 124.191 Z " fill="rgb(235,112,119)"/><path d=" M 174.976 235.917 C 174.052 241.919 172.667 247.921 171.744 254.384 C 154.662 347.643 144.505 381.807 132.501 384.577 C 119.113 384.577 124.191 382.269 115.881 344.873 C 107.571 307.477 101.107 285.317 92.335 273.775 C 93.72 267.311 94.644 260.848 96.029 254.384 C 113.573 160.664 123.729 126.961 135.271 124.191 L 139.427 124.191 C 151.892 124.191 164.357 179.592 174.976 235.917 Z " fill="rgb(235,112,119)"/><path d=" M 132.501 384.115 L 57.248 384.115 C 69.252 384.115 81.255 332.869 92.797 273.313 C 101.107 284.855 107.571 307.015 116.343 344.411 C 124.653 381.807 119.113 384.115 132.501 384.115 Z " fill="rgb(235,112,119)"/><path d=" M 92.797 273.313 C 81.255 332.869 69.252 384.115 57.248 384.115 C 55.863 382.269 47.553 384.115 39.704 337.948 C 32.779 295.473 20.314 268.696 0 263.618 L 75.253 263.618 C 82.64 264.079 87.719 266.849 92.797 273.313 Z " fill="rgb(246,162,173)"/><path d=" M 436.747 263.156 L 512 263.156 C 485.684 271.928 477.374 289.472 472.757 339.333 C 469.526 374.882 453.367 384.115 453.367 384.115 C 441.363 384.115 429.36 332.869 418.741 278.391 C 422.896 269.158 428.436 264.541 436.747 263.156 Z " fill="rgb(235,112,119)"/><path d=" M 452.905 383.654 L 377.652 383.654 C 391.041 383.654 400.274 358.261 405.814 325.944 C 409.508 304.245 413.201 288.548 418.28 277.93 C 428.898 332.408 440.902 383.654 452.905 383.654 Z " fill="rgb(235,112,119)"/><path d=" M 418.28 277.93 C 412.739 288.087 409.046 304.245 405.814 325.944 C 400.274 358.261 391.041 383.654 377.652 383.654 C 363.34 380.422 351.798 325.944 336.563 242.842 C 336.101 240.072 335.639 237.764 335.178 234.994 C 346.72 175.437 358.723 123.729 370.727 123.729 L 374.882 123.729 C 389.194 126.961 400.736 181.439 415.971 264.541 C 416.894 268.696 417.356 273.313 418.28 277.93 Z " fill="rgb(246,162,173)"/><path d=" M 299.628 123.729 L 370.727 123.729 C 358.723 123.729 346.258 175.437 335.178 235.455 C 324.559 179.131 312.094 123.729 299.628 123.729 Z " fill="rgb(235,112,119)"/><path d=" M 335.178 235.455 C 334.254 241.457 332.869 247.459 331.946 253.922 C 314.864 347.181 304.707 381.345 292.703 384.115 C 279.315 384.115 266.388 323.636 255.769 264.541 C 255.769 263.618 255.307 262.694 255.307 261.771 C 255.769 259.001 256.231 256.693 256.693 253.922 C 273.775 160.202 283.931 126.5 295.473 123.729 L 299.628 123.729 C 312.094 123.729 324.559 179.131 335.178 235.455 Z " fill="rgb(235,112,119)"/><path d=" M 292.703 383.654 L 217.45 383.654 C 230.377 383.654 243.304 325.944 254.846 261.309 C 254.846 262.233 255.307 263.156 255.307 264.079 C 266.388 323.636 279.776 383.654 292.703 383.654 Z " fill="rgb(235,112,119)"/><path d=" M 255.307 261.771 C 243.304 326.406 230.377 384.115 217.912 384.115 C 203.6 380.884 192.058 326.406 176.822 243.304 C 176.361 240.534 175.899 238.225 175.437 235.455 C 186.518 175.437 198.521 123.729 210.525 123.729 L 214.68 123.729 C 228.992 126.961 240.072 180.054 255.307 261.771 Z " fill="rgb(246,162,173)"/><path d=" M 139.427 123.729 L 210.525 123.729 C 198.521 123.729 186.518 175.437 174.976 235.455 C 164.357 179.131 151.892 123.729 139.427 123.729 Z " fill="rgb(235,112,119)"/><path d=" M 174.976 235.455 C 174.052 241.457 172.667 247.459 171.744 253.922 C 154.662 347.181 144.505 381.345 132.501 384.115 C 119.113 384.115 124.191 381.807 115.881 344.411 C 107.571 307.015 101.107 284.855 92.335 273.313 C 93.72 266.849 94.644 260.386 96.029 253.922 C 113.573 160.202 123.729 126.5 135.271 123.729 L 139.427 123.729 C 151.892 123.729 164.357 179.131 174.976 235.455 Z " fill="rgb(235,112,119)"/><path d=" M 132.501 383.654 L 57.248 383.654 C 69.252 383.654 81.255 332.408 92.797 272.851 C 101.107 284.393 107.571 306.554 116.343 343.95 C 124.653 381.345 119.113 383.654 132.501 383.654 Z " fill="rgb(235,112,119)"/><path d=" M 92.797 277.468 C 81.255 337.024 69.252 388.271 57.248 388.271 C 55.863 386.424 47.553 388.271 39.704 342.103 C 32.779 299.628 20.314 272.851 0 267.773 L 75.253 267.773 C 82.64 267.773 87.719 271.005 92.797 277.468 Z " fill="rgb(246,162,173)"/></g></svg>