<?xml version="1.0" encoding="UTF-8" standalone="no"?><!-- Generator: Gravit.io --><svg xmlns="http://www.w3.org/2000/svg" xmlns:xlink="http://www.w3.org/1999/xlink" style="isolation:isolate" viewBox="0 0 512 512" width="512pt" height="512pt"><defs><clipPath id="_clipPath_nkLmzYk0gfz0dEG1euz4aUtMCIqiA66O"><rect width="512" height="512"/></clipPath></defs><g clip-path="url(#_clipPath_nkLmzYk0gfz0dEG1euz4aUtMCIqiA66O)"><path d=" M 256 0 C 129.269 207.985 78.777 247.423 78.777 334.777 C 78.777 432.654 158.123 512 256 512 C 353.877 512 433.223 432.654 433.223 334.777 C 433.223 246.658 381.957 207.603 256 0 Z  M 256 482.901 C 174.03 482.901 107.581 416.45 107.581 334.481 C 107.581 261.325 149.867 228.296 256 54.115 C 361.486 227.977 404.419 260.684 404.419 334.481 C 404.419 416.45 337.97 482.901 256 482.901 Z  M 237.627 420.643 C 220.551 416.813 207.608 409.922 195.357 398.358 C 186.549 390.011 181.726 383.656 176.824 374.16 C 169.09 359.074 166.41 346.975 167.022 329.745 C 167.251 321.244 167.789 316.956 169.32 311.289 C 171.617 302.636 175.445 293.14 177.514 290.843 C 178.356 289.924 179.045 288.851 179.045 288.393 C 179.045 287.933 179.657 286.708 180.347 285.636 C 182.338 282.496 182.415 278.054 180.576 274.378 C 176.442 266.338 169.702 262.968 161.432 264.807 C 155.689 266.108 152.703 269.937 146.882 283.415 C 139.913 299.649 137.081 311.595 136.391 327.83 C 133.787 386.948 174.451 438.945 232.42 450.737 C 238.316 451.886 240.997 452.116 243.37 451.58 C 255.24 448.9 259.605 435.269 251.488 426.386 C 249.037 423.629 246.74 422.71 237.627 420.643 Z " fill="rgb(155,77,202)"/></g></svg>