<?xml version="1.0" encoding="UTF-8" standalone="no"?><!-- Generator: Gravit.io --><svg xmlns="http://www.w3.org/2000/svg" xmlns:xlink="http://www.w3.org/1999/xlink" style="isolation:isolate" viewBox="0 0 512 512" width="512pt" height="512pt"><defs><clipPath id="_clipPath_9UwOtftz0uDsjALWp7zMa5MgPc7zyUFK"><rect width="512" height="512"/></clipPath></defs><g clip-path="url(#_clipPath_9UwOtftz0uDsjALWp7zMa5MgPc7zyUFK)"><path d=" M 0 0 L 512 0 L 512 512 L 0 512 L 0 0 Z " fill="rgb(52,189,178)"/><path d=" M 336.922 174.082 C 309.89 158.398 285.894 146.064 254.502 146.608 C 236.542 146.92 221.122 156.682 217.88 174.548 C 214.862 191.17 229.638 200.39 245.01 206.05 C 270.504 215.438 292.698 225.35 317.748 235.788 C 363.286 254.766 386.636 285.5 383.876 324.934 C 380.364 375.108 350.168 411.094 302.178 422.958 C 239.47 438.462 178.576 414.846 127.126 381.878 C 140.112 362.096 155.178 348.592 168.086 328.93 C 197.81 341.582 221.162 358.678 252.258 361.344 C 274.184 363.224 299.028 362.178 303.954 336.424 C 308.394 313.2 288.182 300.75 268.468 293.796 C 244.998 285.518 221.572 275.392 198.556 265.992 C 156.01 248.614 138.698 214.624 141.612 174.582 C 141.612 151.104 161.092 103.65 208.854 88.89 C 282.238 66.21 322.67 89.434 375.884 123.632 C 361.75 142.324 350.884 155.614 336.922 174.082 Z " fill="rgb(255,255,255)"/></g></svg>