<?xml version="1.0" encoding="UTF-8" standalone="no"?><!-- Generator: Gravit.io --><svg xmlns="http://www.w3.org/2000/svg" xmlns:xlink="http://www.w3.org/1999/xlink" style="isolation:isolate" viewBox="0 0 512 512" width="512pt" height="512pt"><defs><clipPath id="_clipPath_GXJqYl0rpVK5IsVg8ecmJFOg9tSDB7sY"><rect width="512" height="512"/></clipPath></defs><g clip-path="url(#_clipPath_GXJqYl0rpVK5IsVg8ecmJFOg9tSDB7sY)"><rect x="0" y="0" width="512" height="512" transform="matrix(1,0,0,1,0,0)" fill="rgb(17,17,132)"/><path d=" M 256 128.02 L 145.069 192.066 L 145.069 320.056 L 256 384 L 366.931 320.056 L 366.931 192.066 L 256 128.02 Z  M 256 128.02 L 145.069 192.066 L 145.069 320.056 L 256 384 L 366.931 320.056 L 366.931 192.066 L 256 128.02 Z  M 299.78 334.03 L 283.947 334.03 L 265.152 316.665 L 265.152 307.778 L 284.662 289.187 L 284.662 259.565 L 310.199 242.915 L 339.311 264.877 L 299.78 334.03 Z  M 234.406 287.349 L 237.368 259.565 L 227.767 234.641 L 284.254 234.641 L 274.856 259.565 L 277.512 287.349 L 234.406 287.349 Z  M 247.277 316.665 L 228.482 334.234 L 212.445 334.234 L 172.71 264.877 L 202.026 243.119 L 227.767 259.565 L 227.767 289.187 L 247.277 307.778 L 247.277 316.665 Z  M 212.24 183.364 L 299.576 183.364 L 309.995 227.797 L 202.026 227.797 L 212.24 183.364 Z  M 255.959 128 L 145.13 192.046 L 145.13 320.036 L 255.959 383.98 L 366.89 320.036 L 366.89 192.046 L 255.959 128 Z " fill-rule="evenodd" fill="rgb(255,255,255)"/></g></svg>