<?xml version="1.0" encoding="UTF-8" standalone="no"?><!-- Generator: Gravit.io --><svg xmlns="http://www.w3.org/2000/svg" xmlns:xlink="http://www.w3.org/1999/xlink" style="isolation:isolate" viewBox="0 0 512 512" width="512pt" height="512pt"><defs><clipPath id="_clipPath_lKCUsz3nI7lwaXMvrPouoBh5Fg1VrE85"><rect width="512" height="512"/></clipPath></defs><g clip-path="url(#_clipPath_lKCUsz3nI7lwaXMvrPouoBh5Fg1VrE85)"><rect x="0" y="0" width="512" height="512" transform="matrix(1,0,0,1,0,0)" fill="rgb(237,29,36)"/><path d=" M 206.06 228.997 C 199.53 229.404 196.696 232.544 194.57 234.775 C 192.292 237.155 191.025 242.169 191.025 242.169 L 191.025 229.099 L 165.563 229.099 C 163.64 229.099 161.816 229.909 160.449 231.835 C 159.033 233.71 153.211 243.335 153.211 243.335 L 253.9 243.335 L 253.9 228.997 L 206.06 228.997 Z  M 332.82 228.997 C 326.341 229.404 323.456 232.544 321.33 234.775 C 319.051 237.155 317.785 242.169 317.785 242.169 L 317.785 243.335 L 384 243.335 L 384 228.997 L 332.82 228.997 Z  M 256.379 229.049 L 256.379 243.335 L 270.707 243.335 L 270.707 229.049 L 256.379 229.049 Z  M 303.358 229.049 L 303.358 243.335 L 317.632 243.335 L 317.632 229.049 L 303.358 229.049 Z  M 152.602 244.197 L 128 282.903 L 144.807 282.903 L 168.499 245.918 L 152.602 244.197 Z  M 256.531 244.399 L 256.531 265.24 C 256.509 264.813 256.481 264.208 256.481 264.208 C 256.126 262.08 252.076 252.657 243.369 251.846 C 238.155 251.339 191.734 247.642 191.734 247.642 C 192.646 252.303 194.722 254.683 196.139 256 C 199.379 259.09 204.491 260.004 204.491 260.004 C 205.706 260.104 240.281 262.992 240.281 262.992 C 241.395 263.042 243.472 263.346 243.421 266.082 C 243.421 266.436 243.117 268.819 240.484 268.819 L 190.418 268.819 L 190.418 247.539 L 176.497 246.527 C 176.447 246.527 176.447 282.903 176.447 282.903 L 243.369 282.903 C 255.012 280.572 256.228 269.933 256.228 269.933 C 256.433 268.771 256.503 267.747 256.531 266.839 L 256.531 269.781 C 258.809 281.939 269.795 282.903 269.795 282.903 C 269.795 282.903 270.909 282.953 271.112 283.003 L 303.763 283.003 C 303.763 283.003 317.735 281.889 317.735 268.412 L 317.632 248.503 L 303.561 247.642 L 303.561 264.208 C 303.561 264.208 303.509 268.969 298.904 268.969 L 274.807 268.969 C 274.807 268.969 270.707 268.615 270.707 264.258 L 270.707 245.413 L 256.531 244.399 Z  M 318.646 248.503 C 320.013 253.315 321.887 254.786 323.303 256.102 C 326.544 259.242 331.351 259.952 331.351 259.952 C 332.568 260.054 367.498 262.992 367.498 262.992 C 368.61 263.042 370.888 263.144 370.888 265.879 C 370.888 266.691 370.484 267.553 369.977 268.007 C 369.977 268.007 368.762 268.667 367.598 268.667 L 317.887 268.667 L 317.735 283.003 L 368.965 283.003 C 381.824 282.243 383.645 270.033 383.645 270.033 C 384.1 266.843 383.748 264.208 383.748 264.208 C 383.393 261.32 379.293 252.605 370.534 251.746 C 365.372 251.239 318.646 248.503 318.646 248.503 Z " fill="rgb(239,191,4)"/></g></svg>