<svg xmlns="http://www.w3.org/2000/svg" width="512pt" height="512pt" style="isolation:isolate" viewBox="0 0 512 512"><defs><clipPath id="a"><path d="M0 0h512v512H0z"/></clipPath></defs><g clip-path="url(#a)"><path fill="#E01E5A" d="M107.94 323.615c0 29.734-24.032 53.766-53.767 53.766-29.734 0-53.766-24.032-53.766-53.766 0-29.734 24.032-53.766 53.766-53.766h53.767v53.766Zm26.883 0c0-29.734 24.031-53.766 53.766-53.766 29.734 0 53.766 24.032 53.766 53.766V458.03c0 29.735-24.032 53.766-53.766 53.766-29.735 0-53.766-24.031-53.766-53.766V323.615Z"/><path fill="#36C5F0" d="M188.589 107.736c-29.735 0-53.766-24.032-53.766-53.766 0-29.735 24.031-53.766 53.766-53.766 29.734 0 53.766 24.031 53.766 53.766v53.766h-53.766Zm0 27.29c29.734 0 53.766 24.032 53.766 53.766 0 29.735-24.032 53.766-53.766 53.766H53.766C24.032 242.558 0 218.527 0 188.792c0-29.734 24.032-53.766 53.766-53.766h134.823Z"/><path fill="#2EB67D" d="M404.06 188.792c0-29.734 24.032-53.766 53.767-53.766 29.734 0 53.766 24.032 53.766 53.766 0 29.735-24.032 53.766-53.766 53.766H404.06v-53.766Zm-26.883 0c0 29.735-24.031 53.766-53.766 53.766-29.734 0-53.766-24.031-53.766-53.766V53.97c0-29.735 24.032-53.766 53.766-53.766 29.735 0 53.766 24.031 53.766 53.766v134.822Z"/><path fill="#ECB22E" d="M323.411 404.264c29.735 0 53.766 24.032 53.766 53.766 0 29.735-24.031 53.766-53.766 53.766-29.734 0-53.766-24.031-53.766-53.766v-53.766h53.766Zm0-26.883c-29.734 0-53.766-24.032-53.766-53.766 0-29.734 24.032-53.766 53.766-53.766h134.823c29.734 0 53.766 24.032 53.766 53.766 0 29.734-24.032 53.766-53.766 53.766H323.411Z"/></g></svg>