<?xml version="1.0" encoding="UTF-8" standalone="no"?><!-- Generator: Gravit.io --><svg xmlns="http://www.w3.org/2000/svg" xmlns:xlink="http://www.w3.org/1999/xlink" style="isolation:isolate" viewBox="0 0 512 512" width="512pt" height="512pt"><defs><clipPath id="_clipPath_mKvbq13mezKqqWBuN7e7N6hrgbEcLVp7"><rect width="512" height="512"/></clipPath></defs><g clip-path="url(#_clipPath_mKvbq13mezKqqWBuN7e7N6hrgbEcLVp7)"><path d="M 477.714 383.995 L 256.005 512 L 34.286 383.995 L 34.286 127.985 L 256.005 0 L 477.714 127.985 L 477.714 383.995 Z" fill-rule="evenodd" fill="rgb(239,191,4)" /><path d=" M 358.256 335.333 C 356.464 348.664 347.493 360.192 334.938 365.317 C 328.785 367.873 322.12 368.65 315.454 367.873 C 309.051 367.109 302.636 365.054 295.982 361.219 C 286.76 356.083 277.526 348.15 266.762 336.36 C 283.678 315.598 293.927 296.64 297.774 279.724 C 299.566 271.78 299.829 264.601 299.052 257.935 C 298.025 251.532 295.719 245.631 292.136 240.506 C 284.192 228.978 270.86 222.313 255.999 222.313 C 241.139 222.313 227.807 229.229 219.863 240.506 C 216.279 245.631 213.974 251.532 212.946 257.935 C 211.919 264.601 212.182 272.031 214.225 279.724 C 218.071 296.64 228.572 315.861 245.236 336.611 C 234.724 348.401 225.251 356.345 216.016 361.47 C 209.351 365.317 202.948 367.371 196.545 368.136 C 189.939 368.877 183.261 367.993 177.073 365.579 C 164.518 360.455 155.546 348.915 153.755 335.595 C 152.99 329.192 153.504 322.789 156.06 315.61 C 156.825 313.042 158.115 310.485 159.393 307.415 C 161.185 303.318 163.24 298.957 165.282 294.597 L 165.545 294.083 C 183.225 255.892 202.195 216.937 221.93 179.009 L 222.694 177.468 C 224.749 173.633 226.792 169.524 228.846 165.677 C 230.901 161.58 233.207 157.733 236.026 154.4 C 241.413 148.248 248.581 144.915 256.525 144.915 C 264.469 144.915 271.648 148.248 277.024 154.4 C 279.843 157.733 282.149 161.58 284.203 165.677 C 286.258 169.524 288.301 173.621 290.356 177.456 L 291.132 178.997 C 310.604 217.176 329.574 256.131 347.254 294.322 L 347.254 294.573 C 349.308 298.671 351.1 303.294 353.143 307.391 C 354.421 310.473 355.711 313.03 356.476 315.586 C 358.519 322.264 359.283 328.667 358.256 335.333 L 358.256 335.333 Z  M 255.999 323.279 C 242.166 305.85 233.195 289.448 230.113 275.615 C 228.834 269.714 228.572 264.589 229.348 259.978 C 229.862 255.881 231.403 252.285 233.445 249.215 C 238.319 242.298 246.514 237.938 255.999 237.938 C 265.484 237.938 273.942 242.047 278.553 249.215 C 280.608 252.297 282.137 255.881 282.65 259.978 C 283.415 264.589 283.164 269.977 281.886 275.615 C 278.816 289.198 269.845 305.599 255.999 323.279 L 255.999 323.279 Z  M 371.587 309.959 C 370.309 306.889 369.019 303.557 367.741 300.737 C 365.686 296.126 363.643 291.766 361.84 287.669 L 361.589 287.418 C 343.909 248.976 324.939 210.02 304.953 171.579 L 304.189 170.038 C 302.134 166.191 300.091 162.094 298.037 157.996 C 295.468 153.385 292.912 148.511 288.815 143.9 C 280.608 133.638 268.817 128 256.262 128 C 243.444 128 231.916 133.638 223.447 143.374 C 219.6 147.985 216.781 152.859 214.225 157.47 C 212.17 161.568 210.127 165.665 208.072 169.512 L 207.308 171.041 C 187.573 209.483 168.352 248.438 150.673 286.88 L 150.422 287.394 C 148.63 291.491 146.575 295.851 144.52 300.463 C 143.147 303.497 141.868 306.579 140.674 309.685 C 137.341 319.17 136.314 328.141 137.592 337.363 C 140.411 356.584 153.229 372.735 170.909 379.903 C 177.575 382.722 184.491 384 191.671 384 C 193.725 384 196.282 383.749 198.337 383.486 C 206.794 382.459 215.503 379.652 223.96 374.778 C 234.473 368.888 244.46 360.431 255.736 348.127 C 267.013 360.431 277.263 368.888 287.512 374.778 C 295.97 379.652 304.679 382.459 313.136 383.486 C 315.191 383.749 317.747 384 319.802 384 C 326.982 384 334.149 382.722 340.564 379.903 C 358.507 372.723 371.062 356.321 373.881 337.363 C 375.936 328.404 374.908 319.445 371.587 309.959 L 371.587 309.959 Z " fill="rgb(255,255,255)"/></g></svg>