<?xml version="1.0" encoding="UTF-8" standalone="no"?><!-- Generator: Gravit.io --><svg xmlns="http://www.w3.org/2000/svg" xmlns:xlink="http://www.w3.org/1999/xlink" style="isolation:isolate" viewBox="0 0 512 512" width="512pt" height="512pt"><defs><clipPath id="_clipPath_7akQWZ16u2Dd3HzrCQkoH2p5YsAL5DRv"><rect width="512" height="512"/></clipPath></defs><g clip-path="url(#_clipPath_7akQWZ16u2Dd3HzrCQkoH2p5YsAL5DRv)"><circle vector-effect="non-scaling-stroke" cx="256" cy="256" r="256" fill="rgb(237,29,36)" /><path d=" M 271.994 157.455 C 271.13 156.883 267.947 159.475 266.206 162.074 C 264.764 164.386 264.478 167.569 266.504 168.719 C 268.531 169.876 271.422 168.427 271.994 164.672 C 272.286 162.36 273.156 157.741 271.994 157.455 Z  M 246.543 164.672 C 247.115 168.427 249.719 169.876 252.044 168.719 C 254.059 167.569 253.773 164.386 252.044 162.074 C 250.583 159.475 247.407 156.883 246.543 157.455 C 245.666 157.741 246.25 162.36 246.543 164.672 Z  M 259.853 201.643 C 264.478 194.425 266.206 186.623 266.206 186.623 L 253.487 186.623 C 253.487 186.623 255.507 194.425 259.853 201.643 Z  M 262.165 146.482 L 272.584 128.286 L 280.678 146.482 L 293.988 146.482 C 285.894 153.986 282.705 165.543 282.705 173.052 L 282.705 181.426 C 282.705 184.895 280.977 190.67 280.977 190.67 C 280.977 190.67 292.546 199.622 294.274 201.071 C 295.138 201.643 296.009 202.221 295.437 203.663 C 294.56 206.262 286.466 209.724 285.596 210.595 C 283.868 212.043 283.569 212.907 283.868 214.629 C 284.439 216.09 285.894 216.364 289.071 215.214 C 291.962 214.356 298.328 210.881 303.829 208.86 C 309.033 206.548 316.263 206.84 316.263 206.84 L 316.263 196.725 L 296.009 196.725 L 296.009 164.386 L 292.546 158.891 L 301.517 143.007 L 310.183 158.891 L 306.72 164.386 L 306.72 181.426 L 317.139 181.426 L 317.139 164.386 L 313.372 158.891 L 322.343 143.007 L 331.307 158.891 L 327.844 164.386 L 327.844 181.426 L 337.953 181.426 L 337.953 164.386 L 334.496 158.891 L 343.168 143.007 L 352.139 158.891 L 348.67 164.386 L 348.67 196.725 L 328.708 196.725 L 328.708 211.745 C 333.035 216.09 337.375 225.608 337.375 231.676 C 337.375 237.451 333.626 239.763 333.626 239.763 C 335.074 244.382 334.776 246.409 334.198 250.45 C 333.626 254.783 328.416 261.429 328.416 261.429 L 328.416 338.528 C 328.416 344.023 316.263 343.439 316.263 338.826 L 316.263 263.163 C 309.319 255.647 290.519 249.878 290.519 249.878 C 283.569 256.517 279.236 268.646 279.236 268.646 C 282.413 270.654 287.044 268.646 288.779 266.62 C 290.519 264.599 293.988 264.015 296.009 265.177 C 298.035 266.62 298.614 266.912 297.749 270.082 C 297.171 272.979 295.723 278.17 295.723 281.645 C 295.723 285.102 300.062 284.53 302.953 284.816 C 309.033 285.102 310.183 292.033 309.611 295.788 C 309.033 299.549 307.292 307.637 307.292 312.834 C 307.292 317.739 307.584 322.936 308.169 325.821 C 308.448 328.426 309.611 331.602 309.319 335.071 C 309.033 339.976 306.142 340.561 302.953 337.67 C 300.062 334.493 257.534 289.447 257.534 289.447 C 254.643 298.673 266.504 314.27 270.265 319.175 C 274.02 323.807 273.734 327.555 270.558 330.726 C 267.083 334.201 260.717 335.935 259.56 338.826 C 258.398 342.003 262.737 350.955 271.422 362.506 C 280.386 373.764 261.289 381.572 250.005 383.58 C 238.436 385.893 238.436 378.097 239.313 373.764 C 240.177 369.431 240.177 367.125 239.885 363.077 C 239.599 359.329 236.123 354.125 231.206 347.778 C 226.289 341.419 226.289 335.643 228.309 320.916 C 230.342 306.189 229.764 296.938 229.764 296.938 C 229.764 296.938 224.84 297.237 217.61 296.938 C 210.094 296.665 204.014 292.319 203.436 274.701 C 203.138 256.797 202.566 214.629 201.41 210.309 C 200.247 205.677 195.622 204.813 193.595 204.527 C 191.283 203.943 191.283 200.772 193.309 199.908 C 198.519 197.31 204.878 190.67 202.566 186.623 C 200.247 182.576 190.99 183.44 184.624 186.623 C 178.259 189.508 171.905 196.153 170.164 197.888 C 168.43 199.908 166.975 199.908 167.268 197.888 C 167.268 195.861 166.111 186.337 165.247 182.868 C 164.377 179.406 161.2 173.052 160.323 171.318 C 159.173 169.577 160.323 169.005 162.064 169.577 C 163.799 170.454 167.268 171.89 171.029 172.76 C 174.504 173.91 177.973 172.176 179.713 168.719 C 181.162 165.543 184.624 158.319 186.079 154.856 C 187.814 151.673 190.704 152.55 192.731 152.823 C 195.044 153.408 197.07 154.856 199.097 155.72 C 201.111 156.591 202.852 156.292 203.436 155.434 C 204.014 154.284 204.878 153.986 206.029 151.387 C 207.191 148.789 208.932 149.951 208.932 151.101 C 215.005 187.487 230.92 188.936 230.92 188.936 C 228.607 195.289 222.814 204.813 221.663 207.138 C 220.215 209.438 219.637 212.621 219.351 215.214 C 219.059 217.812 220.215 241.778 221.949 250.45 C 223.69 259.402 228.893 255.933 230.628 253.334 C 232.369 250.45 237.572 239.477 237.572 239.477 C 237.572 239.477 239.014 236.295 239.014 233.696 C 239.014 231.383 234.681 225.608 233.519 223.88 C 232.655 222.431 228.893 218.962 228.893 210.595 C 228.893 202.221 236.422 196.153 239.014 193.853 C 241.911 191.82 241.911 188.644 241.613 186.909 C 240.177 180.27 233.233 166.693 230.044 161.502 C 226.581 156.019 219.923 146.19 219.923 146.19 L 233.811 146.19 L 242.489 128 L 252.044 146.19 L 262.165 146.482 Z  M 316.263 238.315 L 316.263 227.914 C 316.263 227.914 313.372 223.594 306.428 223.594 C 299.776 223.594 295.723 225.608 295.723 227.343 C 295.723 230.227 301.79 238.315 316.263 238.315 Z " fill-rule="evenodd" fill="rgb(255,255,255)"/></g></svg>