<?xml version="1.0" encoding="UTF-8" standalone="no"?><!-- Generator: Gravit.io --><svg xmlns="http://www.w3.org/2000/svg" xmlns:xlink="http://www.w3.org/1999/xlink" style="isolation:isolate" viewBox="0 0 512 512" width="512pt" height="512pt"><defs><clipPath id="_clipPath_k06vCSSXay4qQRNRmTG8DY9i2fWtdkds"><rect width="512" height="512"/></clipPath></defs><g clip-path="url(#_clipPath_k06vCSSXay4qQRNRmTG8DY9i2fWtdkds)"><path d="M 477.714 383.995 L 256.005 512 L 34.286 383.995 L 34.286 127.985 L 256.005 0 L 477.714 127.985 L 477.714 383.995 Z" fill-rule="evenodd" fill="rgb(239,191,4)" /><path d=" M 256.014 383.454 L 291.828 182.034 C 325.965 182.034 336.733 185.777 338.288 201.056 C 338.288 201.056 361.188 192.518 372.738 175.176 C 327.666 154.291 282.38 153.349 282.38 153.349 L 255.955 185.535 L 256.014 185.531 L 229.589 153.344 C 229.589 153.344 184.301 154.287 139.236 175.172 C 150.776 192.514 173.685 201.052 173.685 201.052 C 175.249 185.772 186.003 182.029 219.911 182.005 L 256.014 383.454 Z  M 256 144.052 C 292.434 143.774 334.136 149.689 376.827 168.295 C 382.533 158.025 384 153.487 384 153.487 C 337.333 135.023 293.629 128.705 255.995 128.546 C 218.363 128.705 174.661 135.024 128 153.487 C 128 153.487 130.082 159.077 135.168 168.295 C 177.85 149.689 219.56 143.774 255.995 144.052 L 256 144.052" fill-rule="evenodd" fill="rgb(255,255,255)"/></g></svg>