<?xml version="1.0" encoding="UTF-8" standalone="no"?><!-- Generator: Gravit.io --><svg xmlns="http://www.w3.org/2000/svg" xmlns:xlink="http://www.w3.org/1999/xlink" style="isolation:isolate" viewBox="0 0 512 512" width="512pt" height="512pt"><defs><clipPath id="_clipPath_z30IoIUHt6JhIhc9VuwA1eWOgvakv5DK"><rect width="512" height="512"/></clipPath></defs><g clip-path="url(#_clipPath_z30IoIUHt6JhIhc9VuwA1eWOgvakv5DK)"><path d="M 477.714 383.995 L 256.005 512 L 34.286 383.995 L 34.286 127.985 L 256.005 0 L 477.714 127.985 L 477.714 383.995 Z" fill-rule="evenodd" fill="rgb(237,29,36)" /><path d=" M 364.341 155.978 C 364.255 146.049 364.138 131.006 347.841 129.025 L 345.472 128.805 C 334.261 127.788 315.45 126.11 307.938 135.571 L 307.62 136.011 C 302.997 143.712 303.343 156.06 303.661 167.969 C 303.806 172.837 303.921 177.457 303.661 181.5 L 303.661 256.994 C 303.286 263.814 303.488 270.553 303.69 277.071 C 304.095 290.767 304.499 303.692 299.616 315.876 C 296.755 321.294 289.734 324.732 281.586 324.568 C 273.495 324.43 266.647 320.855 264.104 315.464 C 261.186 309.111 260.55 301.602 260.348 295.855 C 260.261 288.924 260.29 281.746 260.29 274.321 C 260.29 268.188 260.29 261.917 260.29 255.399 L 260.29 254.546 C 260.146 248.963 260.001 242.638 257.256 237.302 L 257.083 237 C 251.766 228.529 241.913 227.456 233.215 226.494 C 221.513 225.201 212.267 224.184 209.753 209.195 C 207.961 199.927 208.106 190.466 208.279 180.455 C 208.366 175.78 208.424 170.939 208.279 166.236 C 208.279 164.366 208.279 162.468 208.279 160.571 C 208.308 150.697 208.337 141.374 204.147 135.681 L 203.945 135.434 C 196.895 127.265 184.383 127.87 174.328 128.338 C 172.132 128.448 170.08 128.53 168.115 128.53 C 162.076 128.585 157.28 130.318 153.87 133.646 C 147.398 139.944 147.542 150.202 147.658 159.251 C 147.658 161.231 147.716 163.183 147.658 165.109 L 147.658 196.324 C 147.687 198.221 147.658 200.147 147.658 202.127 C 147.6 212.028 147.571 222.231 152.743 228.309 C 158.638 234.415 167.017 235.24 174.443 235.982 C 178.922 236.422 183.141 236.835 186.521 238.265 L 187.041 238.457 C 201.027 242.39 200.275 266.317 199.64 285.541 C 199.437 291.977 199.235 298.055 199.64 302.867 L 199.64 303.886 C 199.582 314.033 199.524 331.004 216.37 333.506 C 218.017 333.726 219.635 333.945 221.195 334.139 C 240.584 336.641 249.454 337.769 251.304 358.972 L 251.535 360.761 C 252.517 368.379 253.5 376.244 261.475 380.673 C 267.109 383.477 273.582 384 279.765 384 C 281.672 384 283.55 383.945 285.371 383.891 C 286.469 383.891 287.538 383.834 288.491 383.808 C 288.636 383.808 288.78 383.808 288.925 383.808 C 309.585 383.808 311.434 369.837 312.936 358.588 C 313.832 351.932 314.67 345.662 318.484 341.454 C 322.414 337.219 329.406 336.008 338.074 334.826 L 340.242 334.578 C 347.899 333.67 355.817 332.762 360.556 325.668 C 364.427 319.26 364.399 310.981 364.369 303.692 C 364.369 302.015 364.369 300.365 364.369 298.716 L 364.369 193.463 C 364.369 184.333 364.369 175.422 364.369 166.071 L 364.369 156.005 L 364.341 155.978 Z " fill="rgb(255,255,255)"/></g></svg>