<?xml version="1.0" encoding="utf-8"?>
<!-- Generator: Adobe Illustrator 13.0.0, SVG Export Plug-In  -->
<!DOCTYPE svg PUBLIC "-//W3C//DTD SVG 1.1//EN" "http://www.w3.org/Graphics/SVG/1.1/DTD/svg11.dtd" [
	<!ENTITY ns_flows "http://ns.adobe.com/Flows/1.0/">
]>
<svg version="1.1"
	 xmlns="http://www.w3.org/2000/svg" xmlns:xlink="http://www.w3.org/1999/xlink" xmlns:a="http://ns.adobe.com/AdobeSVGViewerExtensions/3.0/"
	 x="0px" y="0px" width="230px" height="300px" viewBox="-15 -12.782 230 300" enable-background="new -15 -12.782 230 300"
	 xml:space="preserve">
<defs>
</defs>
<path fill="#FFCB05" d="M100,0c27.903,0,53.104,15.686,71.25,41.008C188.992,65.726,200,99.798,200,137.258
	c0,37.379-11.008,71.452-28.75,96.17c-18.146,25.322-43.347,41.008-71.25,41.008c-27.903,0-53.105-15.686-71.25-41.008
	C11.008,208.709,0,174.637,0,137.258c0-37.459,11.008-71.532,28.75-96.25C46.895,15.686,72.097,0,100,0z"/>
<path fill="#276FB8" d="M30.806,58.669C18.588,80.282,11.25,107.581,11.25,137.258c0,29.597,7.339,56.896,19.557,78.508v-55.202
	c0.645,0.162,1.291,0.242,2.016,0.323c2.016,0.242,4.436,0.322,7.218,0.242c-2.057,0.807-3.911,1.774-6.129,2.823
	c2.419,1.129,4.274,1.653,7.459,1.008c1.008-0.202,2.057-0.322,3.064-0.363c-1.774,0.928-3.427,1.936-4.879,3.307
	c1.411,0.766,2.621,1.25,4.274,1.331l-0.887,0.403c2.298,0.927,4.355,1.572,6.855,1.613c-0.645,0.444-1.25,0.927-1.855,1.371
	c0.887,0.242,1.774,0.484,2.661,0.686v68.266c6.089,5.887,12.742,10.686,19.758,14.274v-63.185c0.363,0.766,1.129,1.29,2.097,1.492
	c0.847,0.202,1.936,0.161,2.943-0.161c0.565-0.202,1.089-0.444,1.533-0.726c0.121-0.081,0.242-0.161,0.322-0.242
	c1.411,3.064,3.427,5.806,5.887,8.064c-0.121,0.081-0.242,0.161-0.323,0.242c-0.443,0.323-0.847,0.726-1.169,1.209
	c-0.645,0.888-1.048,1.896-1.088,2.742c-0.121,1.129,0.242,2.097,1.048,2.702c0.806,0.605,1.855,0.605,2.903,0.202
	c0.807-0.363,1.613-1.008,2.258-1.895c0.363-0.484,0.605-1.008,0.807-1.492c0.041-0.121,0.081-0.282,0.121-0.403
	c0.806,0.443,1.613,0.847,2.419,1.21v56.734c3.266,0.524,6.573,0.807,9.879,0.807c3.306,0,6.613-0.282,9.879-0.807v-56.734
	c0.807-0.363,1.613-0.767,2.419-1.21c0.04,0.121,0.081,0.283,0.121,0.403c0.202,0.484,0.444,1.008,0.807,1.492
	c0.645,0.887,1.452,1.532,2.258,1.895c1.048,0.403,2.097,0.403,2.903-0.202c0.806-0.605,1.169-1.573,1.048-2.702
	c-0.04-0.887-0.443-1.854-1.088-2.742c-0.323-0.483-0.726-0.887-1.169-1.209c-0.081-0.081-0.202-0.161-0.323-0.242
	c2.46-2.258,4.476-5,5.887-8.064c0.081,0.081,0.202,0.161,0.323,0.242c0.443,0.282,0.968,0.524,1.532,0.726
	c1.008,0.322,2.097,0.363,2.943,0.161c0.968-0.202,1.734-0.726,2.097-1.492v63.185c7.016-3.588,13.669-8.387,19.758-14.274v-68.266
	c0.887-0.202,1.774-0.444,2.661-0.686c-0.604-0.444-1.209-0.927-1.855-1.371c2.5-0.041,4.557-0.686,6.855-1.613l-0.887-0.403
	c1.653-0.081,2.863-0.564,4.274-1.331c-1.452-1.371-3.105-2.379-4.879-3.307c1.008,0.041,2.056,0.161,3.064,0.363
	c3.186,0.646,5.041,0.121,7.459-1.008c-2.217-1.048-4.072-2.016-6.129-2.823c2.782,0.081,5.202,0,7.218-0.242
	c0.726-0.081,1.371-0.161,2.016-0.323v55.202c12.218-21.613,19.557-48.911,19.557-78.508c0-29.677-7.339-56.976-19.557-78.589
	v19.436c-0.726,1.452-0.807,3.75-0.363,5.605c0.121,0.524,0.242,1.048,0.363,1.532v6.129c-0.202,0.767-0.524,1.573-0.968,2.379
	c-2.5,4.637-5.968,8.871-9.839,12.782c-2.903,2.943-5.927,5.686-8.992,8.387V32.863c-6.089-5.887-12.742-10.686-19.758-14.274
	v115.565c-1.049,1.29-2.097,2.661-3.105,4.072c-1.089-1.573-2.218-3.145-3.307-4.758c-3.468,2.339-7.5,4.436-11.573,7.016
	l3.75,0.604c-0.444,2.823-1.533,5.282-3.267,7.057c-0.645,0.686-1.411,1.25-2.258,1.734v-28.831h16.734v-8.669h-16.734v-2.298
	c1.089-1.774,1.734-3.871,1.734-6.089c0-2.258-0.645-4.354-1.734-6.129V12.097c-3.266-0.524-6.573-0.807-9.879-0.807
	c-3.307,0-6.613,0.282-9.879,0.807v85.766c-1.088,1.774-1.734,3.871-1.734,6.129c0,2.218,0.646,4.315,1.734,6.089v2.298H73.387
	v8.669h16.734v28.831c-0.847-0.484-1.613-1.048-2.258-1.734c-1.734-1.774-2.823-4.234-3.266-7.057l3.75-0.604
	c-4.073-2.581-8.105-4.677-11.573-7.016c-1.088,1.613-2.218,3.185-3.306,4.758c-1.008-1.411-2.057-2.782-3.105-4.072V18.588
	c-7.016,3.589-13.669,8.387-19.758,14.274v82.057c-3.064-2.702-6.089-5.444-8.992-8.387c-3.871-3.911-7.338-8.145-9.838-12.782
	c-0.443-0.807-0.766-1.613-0.968-2.379v-6.129c0.121-0.484,0.242-1.008,0.363-1.532c0.444-1.854,0.363-4.153-0.363-5.605V58.669z"/>
<path fill="#FFCB05" d="M100,165.927c1.854-1.693,3.911-3.145,6.048-4.476c2.338-1.452,4.758-2.702,7.177-3.911
	c3.226-1.613,6.25-3.226,8.589-5.524c2.984-2.943,3.952-6.411,4.234-10.484l1.734,0.363c-1.693-2.137-3.307-4.355-4.879-6.613
	c-2.5,1.532-5.081,3.024-7.702,4.436l1.653,0.242c-0.403,3.387-1.331,6.573-3.75,9.073c-2.379,2.5-5.242,3.307-8.548,3.508v-32.823
	h20.726v-6.008h-21.976c4.073-1.371,6.976-5.242,6.976-9.718c0-5.685-4.637-10.322-10.282-10.322v5.766
	c2.5,0,4.516,2.017,4.516,4.557c0,2.5-2.016,4.557-4.516,4.557V165.927z M74.718,113.709v6.008h20.726v32.823
	c-3.307-0.202-6.169-1.008-8.548-3.508c-2.419-2.5-3.347-5.686-3.75-9.073l1.653-0.242c-2.621-1.412-5.202-2.903-7.702-4.436
	c-1.573,2.258-3.186,4.476-4.879,6.613l1.734-0.363c0.282,4.073,1.25,7.541,4.234,10.484c2.339,2.298,5.363,3.911,8.589,5.524
	c2.419,1.209,4.839,2.459,7.177,3.911c2.137,1.331,4.194,2.782,6.049,4.476v-57.379l0,0c-2.5,0-4.557-2.057-4.557-4.557
	c0-2.54,2.056-4.557,4.557-4.557l0,0v-5.766c-5.646,0-10.283,4.637-10.283,10.322c0,4.476,2.903,8.347,6.976,9.718H74.718z"/>
<path fill="#FFCB05" d="M110.766,161.573c0.726,0.363,1.452,0.806,2.178,1.25l0.484-0.685c0-0.726,0.323-1.573,0.887-2.339
	c0.968-1.331,2.46-1.976,3.307-1.371c0.807,0.564,0.686,2.178-0.322,3.549c-0.564,0.766-1.291,1.331-1.976,1.532l-0.484,0.726
	c3.226,2.581,5.767,6.048,7.258,10l0.847-0.282c0.403-0.564,1.129-1.089,2.056-1.371c1.613-0.524,3.186-0.161,3.508,0.807
	s-0.766,2.177-2.379,2.701c-0.887,0.323-1.814,0.323-2.46,0.081l-0.847,0.282c0.564,1.976,0.847,4.072,0.847,6.21
	c0,2.137-0.282,4.193-0.847,6.169l0.847,0.282c0.646-0.242,1.573-0.202,2.46,0.081c1.613,0.524,2.702,1.733,2.379,2.742
	c-0.323,0.968-1.895,1.331-3.508,0.807c-0.927-0.323-1.653-0.847-2.056-1.412l-0.847-0.242c-1.492,3.952-4.032,7.379-7.258,10
	l0.484,0.686c0.686,0.242,1.412,0.766,1.976,1.532c1.008,1.411,1.129,3.024,0.322,3.629c-0.847,0.564-2.339-0.041-3.307-1.452
	c-0.564-0.766-0.887-1.613-0.887-2.298l-0.484-0.726c-0.726,0.443-1.452,0.887-2.178,1.25v-8.226l1.533,2.137
	c2.54-2.057,4.516-4.798,5.766-7.863l-2.903-0.928c-0.202,0.605-0.847,0.403-0.645-0.202l-3.548-1.169
	c0.081-0.282-0.041-0.484-0.202-0.524v-2.016l0.283,0.081c-0.202,0.564,0.443,0.766,0.645,0.202l3.548,1.169
	c0.202-0.605,0.847-0.403,0.645,0.202l2.903,0.927c0.403-1.532,0.605-3.186,0.605-4.838c0-1.694-0.202-3.347-0.605-4.879
	l-2.903,0.927c0.202,0.605-0.443,0.807-0.645,0.202l-3.548,1.169c-0.202-0.564-0.847-0.322-0.645,0.202l-0.283,0.081v-2.016
	c0.162-0.041,0.283-0.242,0.202-0.484l3.548-1.169c-0.202-0.605,0.443-0.847,0.645-0.202l2.903-0.967
	c-1.25-3.065-3.226-5.766-5.766-7.863l-1.533,2.137V161.573L110.766,161.573z M110.766,194.919c0.041-0.081,0.041-0.162,0-0.242
	V194.919L110.766,194.919z M110.766,170.605c0.041-0.081,0.041-0.162,0-0.242V170.605z M105.564,172.944l0.081-0.081
	c0.444,0.323,0.847-0.201,0.403-0.564l2.177-3.024c-0.484-0.363-0.081-0.927,0.403-0.564l1.774-2.419
	c-1.492-0.967-3.104-1.733-4.838-2.258v-0.726c0.403-0.242,0.807-0.484,1.209-0.767c0.887-0.524,1.774-1.048,2.702-1.572
	c0.444,0.202,0.887,0.403,1.29,0.605v8.226l-0.201,0.323c0.081,0.081,0.161,0.161,0.201,0.242v0.242
	c-0.08,0.161-0.322,0.242-0.604,0.04l-2.218,3.064c-0.484-0.363-0.887,0.202-0.403,0.524l-1.492,2.057
	c0.524,0.363,0.161,0.927-0.403,0.524l-0.081,0.121V172.944L105.564,172.944z M110.766,203.71c-1.653,0.846-3.387,1.492-5.201,1.976
	v-4.436c1.734-0.524,3.347-1.291,4.838-2.258l-1.774-2.419c-0.484,0.363-0.887-0.162-0.363-0.564l-2.218-3.024
	c0.443-0.322,0.041-0.887-0.403-0.564l-0.081-0.081v-3.992l0.081,0.121c0.524-0.363,0.927,0.161,0.403,0.564l1.492,2.016
	c-0.484,0.363-0.081,0.887,0.403,0.564l2.218,3.024c0.282-0.202,0.524-0.121,0.604,0.041v0.242c-0.04,0.081-0.121,0.202-0.201,0.282
	l0.201,0.282V203.71L110.766,203.71z M110.766,178.347v2.016l-2.137,0.686c0.201,0.605-0.444,0.847-0.645,0.242l-2.419,0.766v-2.46
	l1.693-0.564c-0.202-0.605,0.444-0.806,0.645-0.202l2.419-0.766C110.403,178.347,110.605,178.427,110.766,178.347L110.766,178.347z
	 M110.766,184.919v2.016c-0.161-0.041-0.363,0.04-0.443,0.323l-2.419-0.807c-0.161,0.604-0.847,0.403-0.645-0.202l-1.693-0.564
	v-2.46l2.419,0.807c0.201-0.645,0.846-0.403,0.645,0.202L110.766,184.919z M101.169,178.306c0.121,0.041,0.282,0.081,0.403,0.121
	l2.178-2.984c-0.524-0.363-0.121-0.927,0.403-0.564l1.411-1.935v3.992l-2.097,2.903c0.121,0.121,0.201,0.242,0.282,0.363
	l1.814-0.605v2.46l-1.089,0.363c0,0.081,0,0.161,0,0.242c0,0.081,0,0.121,0,0.201l1.089,0.363v2.46l-1.814-0.565
	c-0.081,0.122-0.162,0.242-0.282,0.363l2.097,2.863v3.992l-1.411-1.936c-0.484,0.363-0.928-0.162-0.403-0.564l-2.178-2.984
	c-0.121,0.04-0.282,0.081-0.403,0.121v3.71c0.646,0,0.646,0.686,0,0.686v2.54c-0.604,0-0.604,0.645,0,0.645v3.791
	c0.646,0,0.646,0.645,0,0.645v3.024c1.492-0.081,2.984-0.363,4.396-0.766v4.436c-1.411,0.323-2.903,0.564-4.396,0.605v0.887
	c0.403,0.564,0.646,1.412,0.646,2.379c0,1.693-0.807,3.104-1.814,3.104c-1.008,0-1.815-1.411-1.815-3.104
	c0-0.968,0.242-1.815,0.645-2.379v-0.887c-1.491-0.041-2.983-0.282-4.395-0.605v-4.436c1.411,0.403,2.903,0.686,4.395,0.766v-3.024
	c-0.604,0-0.604-0.645,0-0.645v-3.791c0.605,0,0.605-0.645,0-0.645v-2.54c-0.604,0-0.645-0.686,0-0.686v-3.71
	c-0.121-0.04-0.282-0.081-0.403-0.121l-2.178,2.984c0.524,0.403,0.122,0.927-0.403,0.564l-1.411,1.936v-3.992l2.096-2.863
	c-0.121-0.121-0.201-0.242-0.282-0.363l-1.814,0.565v-2.46l1.088-0.363c0-0.081,0-0.121,0-0.201c0-0.081,0-0.162,0-0.242
	l-1.088-0.363v-2.46l1.814,0.605c0.081-0.121,0.162-0.242,0.282-0.363l-2.096-2.863v-4.032l1.411,1.935
	c0.484-0.363,0.927,0.202,0.403,0.564l2.178,2.984c0.121-0.04,0.282-0.081,0.403-0.121v-3.709c-0.645,0-0.645-0.686,0-0.686v-2.5
	c0.605,0,0.605-0.685,0-0.685v-3.75c-0.483,0-0.604-0.403-0.322-0.605c0.484,0.444,1.008,0.928,1.492,1.371l0,0l0,0l0,0
	c0.483-0.443,0.968-0.927,1.492-1.371c0.282,0.202,0.161,0.605-0.323,0.605v3.75c-0.604,0-0.604,0.685,0,0.685v2.5
	c0.605,0,0.646,0.686,0,0.686V178.306L101.169,178.306z M105.564,164.032c-0.242-0.04-0.484-0.121-0.766-0.202
	c0.282-0.161,0.524-0.323,0.766-0.524V164.032L105.564,164.032z M94.436,163.347c0.242,0.161,0.483,0.323,0.766,0.484
	c-0.282,0.081-0.524,0.162-0.766,0.202V163.347z M94.436,205.686c-2.662-0.686-5.121-1.774-7.379-3.226l-0.484,0.726
	c0,0.686-0.322,1.532-0.847,2.298c-1.008,1.411-2.5,2.016-3.347,1.452c-0.807-0.605-0.686-2.218,0.322-3.629
	c0.564-0.767,1.291-1.291,1.976-1.532l0.484-0.686c-3.226-2.621-5.766-6.048-7.258-10l-0.847,0.242
	c-0.403,0.564-1.129,1.089-2.056,1.412c-1.613,0.524-3.186,0.161-3.508-0.807c-0.322-0.968,0.766-2.218,2.379-2.742
	c0.887-0.283,1.815-0.323,2.46-0.081l0.847-0.282c-0.564-1.976-0.847-4.032-0.847-6.169c0-2.138,0.282-4.234,0.806-6.21
	l-0.806-0.242c-0.645,0.201-1.573,0.201-2.46-0.122c-1.613-0.524-2.701-1.733-2.379-2.701c0.323-0.968,1.895-1.331,3.508-0.807
	c0.927,0.282,1.653,0.807,2.056,1.371l0.847,0.282c1.492-3.952,4.032-7.419,7.258-10l-0.484-0.726
	c-0.686-0.201-1.412-0.766-1.976-1.532c-1.008-1.371-1.129-2.984-0.322-3.549c0.847-0.604,2.339,0.041,3.307,1.371
	c0.564,0.766,0.887,1.613,0.887,2.339l0.484,0.685c1.089-0.726,2.258-1.331,3.468-1.854c0.927,0.524,1.814,1.048,2.702,1.572
	c0.403,0.282,0.807,0.524,1.21,0.807v0.686c-1.734,0.524-3.347,1.291-4.839,2.258l1.774,2.419c0.484-0.363,0.887,0.202,0.363,0.564
	l2.218,3.024c-0.443,0.363-0.04,0.887,0.403,0.564l0.081,0.081v4.032l-0.081-0.161c-0.524,0.403-0.927-0.161-0.403-0.524
	l-1.492-2.057c0.484-0.323,0.081-0.887-0.403-0.524l-2.218-3.064c-0.524,0.403-0.887-0.161-0.403-0.524l-1.733-2.46
	c-2.541,2.097-4.517,4.798-5.767,7.863l2.903,0.967c0.202-0.604,0.847-0.403,0.646,0.202l3.548,1.169
	c-0.162,0.524,0.484,0.726,0.645,0.202l2.419,0.766c0.161-0.604,0.847-0.403,0.645,0.202l1.694,0.564v2.46l-2.42-0.766
	c-0.201,0.604-0.846,0.403-0.645-0.202l-2.419-0.807c0.201-0.524-0.444-0.766-0.646-0.202l-3.548-1.169
	c-0.202,0.605-0.847,0.403-0.645-0.202l-2.903-0.927c-0.403,1.532-0.605,3.186-0.605,4.879c0,1.653,0.202,3.306,0.605,4.879
	l2.903-0.968c-0.202-0.605,0.443-0.807,0.645-0.202l3.548-1.169c0.202,0.564,0.847,0.363,0.646-0.202l2.419-0.766
	c-0.201-0.604,0.444-0.847,0.645-0.202l2.42-0.807v2.46l-1.694,0.564c0.202,0.605-0.443,0.806-0.645,0.202l-2.419,0.807
	c-0.161-0.565-0.807-0.363-0.645,0.201l-3.548,1.169c0.202,0.605-0.444,0.807-0.646,0.202l-2.903,0.928
	c1.25,3.104,3.226,5.806,5.767,7.863l1.733-2.419c-0.483-0.403-0.081-0.927,0.403-0.564l2.218-3.024
	c0.484,0.323,0.887-0.201,0.403-0.564l1.492-2.016c-0.524-0.363-0.161-0.927,0.403-0.564l0.081-0.121v3.992l-0.081,0.081
	c-0.443-0.323-0.847,0.242-0.403,0.564l-2.177,3.024c0.484,0.403,0.081,0.927-0.403,0.564l-1.774,2.459
	c1.492,0.927,3.104,1.694,4.839,2.218V205.686z"/>
<path fill="#FFCB05" d="M29.717,137.943c-5.282-1.451-9.879-4.919-13.79-8.629c-0.847-0.847-1.452-1.371-1.896-1.613
	c0.162,0.564,0.565,1.492,1.129,2.459c4.193,7.057,11.209,10.686,18.629,13.387c0.484,0.161,0.645,0.282,1.089,0.564
	c2.984,2.137,5.927,3.669,8.791,4.839c2.581,1.048,5.121,1.774,7.621,2.339c-0.363-0.767-0.484-1.734,0.121-2.419
	c-2.5-0.363-5-1.169-7.5-2.298c-4.113-1.896-7.863-4.436-11.653-6.936C31.411,139.073,30.524,138.548,29.717,137.943z"/>
<path fill="#FFCB05" d="M52.983,147.661c-0.121-0.564-0.081-1.048,0.162-1.411c-4.637-1.573-9.436-3.306-13.347-6.25
	c-1.291-0.968-2.137-2.419-3.387-3.428c-2.662-2.218-5.202-4.717-7.943-6.734c-2.823-2.096-5.323-4.556-7.379-7.379
	c-1.411-1.976-2.581-3.871-4.274-5.524c-1.129-1.128-1.532,0.122-1.532,1.089c0.04,2.701,2.459,5.726,3.992,7.822
	c1.452,1.976,2.984,3.911,4.637,5.686c2.661,2.822,5.847,4.879,9.073,7.016c3.709,2.419,7.419,4.96,11.492,6.814
	C47.338,146.653,50.121,147.5,52.983,147.661z"/>
<path fill="#FFCB05" d="M58.508,139.959c0.605-0.403,1.452-0.403,2.177-0.282c-0.161-1.452,0-3.347,1.734-3.709
	c-3.589-4.919-7.581-9.597-11.936-13.871c-5.162-5.081-11.331-8.952-16.371-14.113c-4.314-4.436-8.468-9.879-10.283-15.847
	c-2.822-0.524-4.153,1.492-2.742,4.354c2.218,4.476,4.798,8.871,7.782,13.146c2.944,4.193,6.291,8.306,10.202,12.298
	c0.242,0.282,0.363,0.403,0.564,0.766c0.726,1.411,1.452,2.742,2.218,3.992c3.387,5.484,8.508,8.387,13.992,11.573
	C56.814,138.791,57.661,139.355,58.508,139.959z"/>
<path fill="#FFCB05" d="M55.887,142.379c0.605-0.121,1.291,0.041,1.855,0.242c-0.121-0.524-0.161-1.048-0.041-1.573
	c-0.766-0.564-1.613-1.129-2.5-1.653c-5.726-3.266-10.927-6.331-14.476-12.016c-0.847-1.331-1.613-2.782-2.379-4.274
	c-7.419-7.541-13.467-16.169-18.226-25.605c-2.218,4.476,2.742,11.572,4.919,15.202c3.347,5.443,6.895,11.29,11.653,15.484
	c1.411,1.25,2.5,2.702,3.588,4.113c2.702,3.629,5.081,5.524,9.194,7.419C51.492,140.645,53.709,141.532,55.887,142.379z"/>
<path fill="#FFCB05" d="M55,145.403c-0.242-0.605-0.444-1.371-0.242-2.057c-3.911-1.532-8.186-3.105-11.532-5.766
	c-1.653-1.291-2.823-2.863-4.032-4.476c-1.008-1.371-2.057-2.782-3.387-3.951c-0.645-0.565-1.291-1.169-1.895-1.814l0,0
	c-2.097-1.613-4.355-3.831-6.573-6.533c-2.621-3.145-6.008-7.217-7.339-11.129c-1.371-4.153-3.871-2.338-2.702,1.291
	c1.815,5.604,6.331,11.613,10.283,15.847c2.943,3.186,6.089,5.766,9.677,8.71c1.25,1.008,2.097,2.459,3.347,3.427
	c3.75,2.822,8.387,4.516,12.823,5.968C53.831,145.081,54.597,145.443,55,145.403z"/>
<path fill="#FFCB05" d="M68.347,162.218c-1.371,1.129-3.992,1.452-5.726,1.734c-1.209,0.524-2.258,0.847-3.226,0.968
	c-0.403,0.887,0.403,1.088,1.169,1.209c1.451,0.161,2.258-0.322,3.548-1.048c1.613-0.847,3.468-1.129,5.081-1.936
	C68.911,162.863,68.629,162.54,68.347,162.218z"/>
<path fill="#FFCB05" d="M58.467,159.959c-0.967-0.282-1.854-0.726-2.621-1.29c-0.726,0-1.371-0.081-1.976-0.242
	c-0.564-0.161-1.048,0.282-0.564,0.766C54.637,160.605,56.814,160.363,58.467,159.959z"/>
<path fill="#FFCB05" d="M65.161,160.161c-1.371,0.202-2.702,0.323-3.871,0.242c-1.653,0.605-3.347,1.088-4.879,1.129
	c-0.646,0.041-0.968,0.121-1.573,0.444c1.291,1.048,2.298,1.572,3.307,1.693c1.129,0.161,2.298-0.162,3.871-0.807
	c0.282-0.121,0.444-0.161,0.767-0.201c1.371-0.162,3.064-0.444,4.274-1.089C66.371,161.209,65.686,160.726,65.161,160.161z"/>
<path fill="#FFCB05" d="M64.032,157.581c-3.105-0.161-5.766-0.726-7.863-1.653c-1.734-0.766-3.104-1.814-4.072-3.186
	c0,0.121,0,0.323,0.04,0.565l0,0c0,0.081,0.041,0.161,0.081,0.201c0.121,0.323,0.202,0.605,0,1.049
	c-0.121,0.282-0.282,0.443-0.121,0.846c0.282,0.726,0.766,1.21,1.411,1.533c0.484,0.282,1.089,0.403,1.814,0.484
	c0.928,0.041,0.928,0,1.653,0.524c0.928,0.605,2.016,0.968,3.266,1.129c1.25,0.161,2.621,0.121,4.153-0.081
	c-0.162-0.363-0.242-0.806-0.242-1.209C64.153,157.621,64.153,157.581,64.032,157.581z"/>
<path fill="#FFCB05" d="M62.298,155.04c-1.693-0.604-4.112-1.653-6.008-3.024c-1.008-0.726-1.895-1.532-2.5-2.419
	c-0.403-0.121-1.21-0.282-1.452,0.121c-0.202,0.323,0,0.927,0.161,1.209c0.807,1.694,2.258,2.984,4.194,3.831
	c1.693,0.767,3.75,1.25,6.169,1.492C62.621,155.887,62.419,155.484,62.298,155.04z"/>
<path fill="#FFCB05" d="M71.169,149.516c-0.444-0.686-0.847-1.411-1.291-2.097c-2.137-3.508-4.234-6.976-6.653-10.323v0.081
	c-0.564-0.04-0.968,0.121-1.129,0.524c-0.484,1.048-0.081,2.581,0.121,3.669c-0.806-0.242-1.733-0.605-2.581-0.484
	c3.024,2.459,5.403,5.403,7.782,8.709C68.629,149.395,69.919,149.436,71.169,149.516z"/>
<path fill="#FFCB05" d="M58.911,141.976c0.081,0.847,0.524,1.814,0.766,2.621c-1.089-0.242-2.339-1.008-3.347-1.008
	c-0.282,0-0.363,0.04-0.403,0.322c0,0.766,0.443,1.573,0.766,2.258c3.105,1.451,6.008,3.589,8.589,5.726
	c-0.403-1.129-0.162-1.613,0.766-1.936C63.831,146.936,61.653,144.234,58.911,141.976z"/>
<path fill="#FFCB05" d="M54.476,146.693c-0.323,0.121-0.403,0.444-0.161,1.21c0.363,1.129,1.411,2.177,2.702,3.105
	c1.814,1.29,4.113,2.258,5.726,2.863c0.645-0.363,1.371-0.564,2.097-0.645C61.774,150.645,58.226,148.064,54.476,146.693z"/>
<path fill="#FFCB05" d="M74.556,156.613c-0.605-1.936-1.573-3.871-2.621-5.766c-1.613-0.161-3.387-0.282-4.959,0.121
	c-0.443,0.121-0.645,0.161-0.686,0.161c0,0.041,0.121,0.162,0.282,0.524C67.661,154.314,72.056,155.807,74.556,156.613z"/>
<path fill="#FFCB05" d="M75.04,158.831c-0.04-0.242-0.081-0.524-0.121-0.766c-2.581-0.807-5.484-1.814-7.621-3.548
	c-1.21-0.242-2.581-0.161-3.75,0.323C65.121,158.629,71.693,158.791,75.04,158.831z"/>
<path fill="#FFCB05" d="M75.161,161.129c0.04-0.363,0.04-0.686,0-1.048c-2.903,0-5.766-0.242-8.024-0.968
	c-0.564-0.202-1.088-0.363-1.613-0.604c0.202,0.524,0.645,0.967,1.129,1.29C69.274,161.774,72.137,161.291,75.161,161.129z"/>
<path fill="#FFCB05" d="M74.072,165.202c0.443-0.927,0.766-1.855,0.928-2.823c-1.532,0.121-3.105,0.283-4.638,0.161
	C71.411,163.589,72.661,164.637,74.072,165.202z"/>
<path fill="#FFCB05" d="M72.097,168.024c0.524-0.564,0.968-1.169,1.331-1.734c-1.21-0.524-2.298-1.331-3.266-2.218
	c-0.968,0.524-1.936,0.807-2.863,1.129c-0.887,0.282-1.774,0.564-2.581,1.008c-0.767,0.403-1.371,0.524-0.887,0.726
	C66.008,168.064,69.717,168.347,72.097,168.024z"/>
<path fill="#FFCB05" d="M53.831,161.089c-0.766-0.323-1.411-0.887-1.936-1.694c-2.944,0.524-5.847,1.21-8.669,2.057
	c-2.218,0.686-4.395,1.452-6.411,2.338c1.411,0.282,2.863,0.162,4.314-0.121c1.814-0.403,3.669-0.443,5.524-0.484
	c1.371,0,2.944-0.564,4.436-1.129C51.895,161.774,53.145,161.492,53.831,161.089z"/>
<path fill="#FFCB05" d="M56.733,164.597c-1.169-0.403-2.177-1.209-3.145-2.016c-1.613,0.444-3.186,0.968-4.758,1.532
	c-2.379,0.887-4.718,1.976-6.774,3.508c2.823,0.847,5.766-0.242,8.508-0.887c1.935-0.444,3.951-1.25,5.887-2.016l0,0
	C56.532,164.677,56.613,164.637,56.733,164.597z"/>
<path fill="#FFCB05" d="M59.879,167.258c-0.484-0.121-0.928-0.282-1.291-0.564c-0.363-0.323-0.605-0.686-0.605-1.169
	c-0.363,0.161-0.726,0.282-1.048,0.443l0,0c-2.057,0.766-4.113,1.613-6.21,2.097c-1.492,0.323-2.944,0.807-4.314,1.412
	c0.726,0.201,1.452,0.322,2.218,0.403c3.226,0.282,4.032-0.403,6.854-1.048C56.976,168.508,58.427,167.903,59.879,167.258z"/>
<path fill="#FFCB05" d="M72.661,139.274c-8.75-12.621-21.209-21.048-31.936-31.854c-3.952-3.992-7.5-8.307-10.041-13.064
	c-1.976-3.71-1.734-6.976-0.766-10.928c0.484-1.976,0.403-4.476-0.524-5.323c-0.686-0.605-1.694-0.04-2.258,0.484
	c-0.887,0.846-1.572,2.137-1.936,3.024c-1.572,3.669-1.169,7.662,0.323,11.613c1.895,5.041,5.645,9.96,9.476,13.871
	c5.04,5.162,11.209,9.032,16.371,14.113c7.783,7.661,13.912,16.21,19.597,25.565c4.274,7.016,8.669,14.234,2.379,21.734
	c-0.564,0.645-0.766,0.726-1.613,0.806c-1.451,0.162-2.943,0.081-4.435-0.161c-1.694-0.282-3.428-0.766-5.162-1.492
	c-2.056,0.968-4.113,1.936-6.331,2.46c-1.734,0.403-3.347,1.048-4.839,1.936c2.016,0.524,4.194,0.887,6.452,1.129
	c4.597,0.524,10.121,1.089,14.355-1.048c1.814-0.928,3.427-2.218,4.798-3.791c0.968-1.129,1.976-2.339,3.387-3.145
	c1.008-0.605,2.056-0.887,3.064-0.887c0.041-0.04,0.081-0.081,0.121-0.081c-0.121-0.081-0.242-0.162-0.323-0.242
	c-0.443-0.363-0.847-0.766-1.169-1.25c-0.645-0.887-1.048-1.854-1.088-2.742c-0.121-1.129,0.242-2.057,1.048-2.662
	c0.322-0.242,0.685-0.363,1.088-0.443c-2.016-1.129-3.871-2.379-5.443-3.911c-2.339-2.379-4.032-5.403-4.516-9.839l-3.226,0.403
	C70.564,142.137,71.613,140.726,72.661,139.274z"/>
<path fill="#FFCB05" d="M50.847,152.541c-2.5-0.524-5.041-1.291-7.662-2.339c-1.331-0.564-2.701-1.169-4.072-1.896
	c-6.734-0.322-14.073-1.532-20.767-0.483c4.274,5.484,28.105,5.766,32.621,6.008c0-0.081-0.04-0.161-0.081-0.282l0,0
	C50.806,153.186,50.806,152.822,50.847,152.541z"/>
<path fill="#FFCB05" d="M36.814,146.976c-1.049-0.645-2.057-1.291-3.105-2.056c-4.032-1.452-7.823-3.105-11.169-5.282
	c-1.089-0.726-6.573-4.678-7.057-4.153c-0.322,0.323,0.363,1.774,0.524,2.056c0.927,1.774,2.46,3.347,4.355,4.758
	c1.814,1.371,4.435,2.782,6.895,3.952C30.443,146.411,33.588,146.774,36.814,146.976z"/>
<path fill="#FFCB05" d="M23.266,151.895c-0.686,0.202-1.331,0.444-1.936,0.766c2.984,1.25,6.935,2.218,11.734,2.903
	c5.201,0.726,11.371,1.169,18.427,1.331c-0.403-0.524-0.726-1.169-0.766-1.734C41.572,154.557,32.097,154.637,23.266,151.895z"/>
<path fill="#FFCB05" d="M51.25,158.226c-5.201-0.121-9.919-0.403-14.113-0.806c-1.129-0.121-1.29-0.121-2.419,0.081
	c-1.572,0.282-3.226,0.605-4.758,0.484c-0.686-0.041-1.25,0.081-1.814,0.242c1.008,0.646,2.621,1.089,4.839,1.331
	c2.822,0.363,7.217,0.363,11.653,0.081c2.137-0.564,4.314-1.008,6.492-1.412C51.169,158.226,51.209,158.226,51.25,158.226z"/>
<path d="M109.879,188.508v3.508l0.847,1.209c0.161,0,0.323,0.041,0.443,0.122l0,0c0.282,0.121,0.484,0.282,0.646,0.523
	c0.161,0.202,0.242,0.484,0.282,0.767c0.04,0.121,0.04,0.282,0,0.443l0.443,0.564c1.492-1.452,2.782-3.186,3.709-5.081l-0.726-0.242
	c-0.121,0.081-0.242,0.121-0.403,0.161l0,0c-0.283,0.041-0.565,0.041-0.807-0.04c-0.282-0.081-0.524-0.242-0.726-0.444
	c-0.081-0.121-0.161-0.242-0.242-0.363L109.879,188.508z"/>
<path d="M109.879,182.057v1.169l5,1.653c0.161-0.081,0.282-0.121,0.443-0.161l0,0c0.282-0.041,0.564-0.041,0.807,0.04
	c0.282,0.081,0.524,0.242,0.686,0.444c0.121,0.121,0.202,0.242,0.282,0.363l0.686,0.242c0.202-1.008,0.282-2.096,0.282-3.145
	c0-1.089-0.081-2.138-0.282-3.186l-0.686,0.242c-0.081,0.121-0.162,0.242-0.282,0.363l0,0c-0.162,0.202-0.403,0.363-0.686,0.443
	c-0.242,0.081-0.524,0.121-0.807,0.041c-0.161,0-0.282-0.081-0.403-0.121L109.879,182.057z"/>
<path d="M109.879,173.307v3.508l3.468-1.129c0.081-0.161,0.161-0.282,0.242-0.363l0,0c0.202-0.242,0.444-0.363,0.726-0.444
	c0.242-0.121,0.524-0.121,0.807-0.081c0.121,0.041,0.282,0.081,0.403,0.162l0.726-0.242c-0.927-1.896-2.217-3.629-3.709-5.081
	l-0.443,0.604c0.04,0.121,0.04,0.282,0,0.403v0.041c-0.041,0.282-0.121,0.524-0.282,0.766c-0.162,0.202-0.403,0.403-0.646,0.524
	c-0.121,0.04-0.282,0.081-0.403,0.121L109.879,173.307z"/>
<path d="M129.637,134.153V18.588c-6.291-3.186-12.944-5.403-19.758-6.492v85.766c1.089,1.774,1.734,3.871,1.734,6.129
	c0,2.218-0.645,4.315-1.734,6.089v2.298h16.734v8.669h-16.734v28.831c0.847-0.484,1.613-1.048,2.258-1.734
	c1.734-1.774,2.823-4.234,3.267-7.057l-3.75-0.604c4.073-2.581,8.105-4.677,11.573-7.016c1.089,1.613,2.218,3.185,3.307,4.758
	C127.54,136.814,128.588,135.443,129.637,134.153z"/>
<path d="M129.637,190.444v-15.565c-0.122,0.282-0.323,0.605-0.605,0.887c-0.564,0.686-1.452,1.25-2.5,1.572
	c-0.524,0.202-1.129,0.283-1.653,0.323c-0.121,0-0.242,0-0.403,0c0.363,1.613,0.524,3.266,0.524,5c0,1.693-0.161,3.346-0.524,4.959
	c0.161,0,0.282,0,0.403,0c0.524,0.04,1.129,0.121,1.653,0.322c1.048,0.323,1.936,0.928,2.5,1.573
	C129.314,189.798,129.516,190.121,129.637,190.444z"/>
<path d="M109.879,262.339c6.814-1.089,13.468-3.307,19.758-6.492v-63.185c-0.363,0.766-1.129,1.29-2.097,1.492
	c-0.847,0.202-1.936,0.161-2.943-0.161c-0.564-0.202-1.089-0.444-1.532-0.726c-0.121-0.081-0.242-0.161-0.323-0.242
	c-1.411,3.064-3.427,5.806-5.887,8.064c0.121,0.081,0.242,0.161,0.323,0.242c0.443,0.323,0.847,0.726,1.169,1.209
	c0.645,0.888,1.048,1.855,1.088,2.742c0.121,1.129-0.242,2.097-1.048,2.702c-0.807,0.605-1.855,0.605-2.903,0.202
	c-0.807-0.363-1.613-1.008-2.258-1.895c-0.363-0.484-0.605-1.008-0.807-1.492c-0.04-0.121-0.081-0.282-0.121-0.403
	c-0.807,0.443-1.613,0.847-2.419,1.21V262.339z"/>
<path d="M90.121,176.814v-3.508l-0.847-1.21c-0.162-0.04-0.322-0.081-0.443-0.121l0,0c-0.282-0.122-0.484-0.323-0.646-0.524
	c-0.161-0.242-0.242-0.484-0.282-0.766c-0.04-0.162-0.04-0.323,0-0.444l-0.443-0.604c-1.492,1.452-2.782,3.185-3.709,5.081
	l0.726,0.242c0.121-0.081,0.242-0.121,0.403-0.121l0,0c0.282-0.081,0.564-0.081,0.807,0.04c0.282,0.081,0.524,0.202,0.726,0.444
	c0.081,0.081,0.161,0.202,0.242,0.363L90.121,176.814z"/>
<path d="M90.121,183.226v-1.169l-5-1.613c-0.161,0.04-0.282,0.121-0.443,0.121l0,0c-0.282,0.081-0.564,0.041-0.807-0.041
	c-0.282-0.08-0.524-0.242-0.686-0.443c-0.121-0.121-0.202-0.242-0.282-0.363l-0.685-0.242c-0.202,1.048-0.283,2.096-0.283,3.186
	c0,1.048,0.081,2.137,0.283,3.145l0.685-0.242c0.081-0.121,0.162-0.242,0.282-0.363l0,0c0.162-0.202,0.403-0.363,0.686-0.444
	c0.242-0.081,0.524-0.081,0.807-0.04c0.161,0.04,0.282,0.081,0.403,0.161L90.121,183.226z"/>
<path d="M90.121,192.016v-3.508l-3.467,1.129c-0.081,0.121-0.162,0.242-0.242,0.363l0,0c-0.202,0.202-0.443,0.363-0.686,0.444
	c-0.282,0.081-0.564,0.081-0.847,0.04c-0.121-0.04-0.282-0.081-0.403-0.161l-0.726,0.242c0.927,1.895,2.218,3.629,3.709,5.081
	l0.443-0.564c-0.04-0.161-0.04-0.323,0-0.443l0,0c0.041-0.282,0.121-0.564,0.282-0.767c0.162-0.242,0.404-0.403,0.646-0.523
	c0.121-0.081,0.282-0.122,0.403-0.122L90.121,192.016z"/>
<path d="M70.362,192.662v63.185c6.291,3.186,12.944,5.403,19.758,6.492v-56.734c-0.806-0.363-1.613-0.767-2.419-1.21
	c-0.041,0.121-0.081,0.283-0.121,0.403c-0.202,0.484-0.444,1.008-0.807,1.492c-0.645,0.887-1.452,1.532-2.258,1.895
	c-1.048,0.403-2.097,0.403-2.903-0.202c-0.807-0.605-1.169-1.573-1.048-2.702c0.04-0.847,0.443-1.854,1.088-2.742
	c0.323-0.483,0.726-0.887,1.169-1.209c0.081-0.081,0.202-0.161,0.323-0.242c-2.46-2.258-4.476-5-5.887-8.064
	c-0.081,0.081-0.202,0.161-0.322,0.242c-0.444,0.282-0.968,0.524-1.533,0.726c-1.008,0.322-2.097,0.363-2.943,0.161
	C71.492,193.952,70.726,193.427,70.362,192.662z"/>
<path d="M70.362,174.879v15.565c0.122-0.323,0.323-0.646,0.605-0.928c0.565-0.645,1.452-1.25,2.5-1.573
	c0.524-0.202,1.129-0.282,1.653-0.322c0.121,0,0.242,0,0.403,0c-0.363-1.613-0.524-3.266-0.524-4.959c0-1.734,0.161-3.388,0.524-5
	c-0.161,0-0.282,0-0.403,0c-0.524-0.04-1.129-0.121-1.653-0.282c-1.049-0.363-1.936-0.927-2.5-1.613
	C70.685,175.484,70.484,175.202,70.362,174.879z"/>
<path d="M90.121,12.097c-6.814,1.088-13.467,3.306-19.758,6.492v115.565c1.049,1.29,2.097,2.661,3.105,4.072
	c1.088-1.573,2.218-3.145,3.306-4.758c3.468,2.339,7.5,4.436,11.573,7.016l-3.75,0.604c0.443,2.823,1.532,5.282,3.266,7.057
	c0.645,0.686,1.411,1.25,2.258,1.734v-28.831H73.387v-8.669h16.734v-2.298c-1.088-1.774-1.734-3.871-1.734-6.089
	c0-2.258,0.646-4.354,1.734-6.129V12.097z"/>
<path d="M30.806,160.564v55.202c2.218,3.911,4.597,7.621,7.097,11.129c3.912,5.403,8.146,10.363,12.702,14.678v-68.266
	c-0.887-0.202-1.774-0.444-2.661-0.686c0.605-0.444,1.21-0.927,1.855-1.371c-2.5-0.041-4.557-0.686-6.855-1.613l0.887-0.403
	c-1.653-0.081-2.863-0.564-4.274-1.331c1.452-1.371,3.105-2.379,4.879-3.307c-1.008,0.041-2.056,0.161-3.064,0.363
	c-3.185,0.646-5.04,0.121-7.459-1.008c2.218-1.048,4.072-2.016,6.129-2.823c-2.782,0.081-5.202,0-7.218-0.242
	C32.097,160.806,31.451,160.726,30.806,160.564z"/>
<path d="M30.806,156.573v0.121c0.202,0,0.403-0.04,0.605-0.04C31.209,156.613,31.008,156.573,30.806,156.573z"/>
<path d="M50.604,32.863c-4.556,4.314-8.79,9.274-12.702,14.678c-2.5,3.508-4.879,7.217-7.097,11.128v19.436
	c0.726,1.452,0.807,3.75,0.363,5.605c-0.121,0.524-0.242,1.048-0.363,1.532v6.129c0.202,0.767,0.524,1.573,0.968,2.379
	c2.5,4.637,5.968,8.871,9.838,12.782c2.903,2.943,5.928,5.686,8.992,8.387V32.863z"/>
<path d="M89.072,160.161c-0.766-0.403-1.573-0.806-2.338-1.209c0,0.04,0.04,0.04,0.04,0.081c0.363,0.443,0.605,0.968,0.807,1.492
	c0.041,0.121,0.081,0.242,0.121,0.363C88.145,160.645,88.589,160.403,89.072,160.161z"/>
<path d="M113.266,158.952c-0.766,0.403-1.573,0.807-2.339,1.209c0.484,0.242,0.927,0.484,1.371,0.726
	c0.04-0.121,0.081-0.242,0.121-0.403c0.202-0.484,0.444-1.008,0.807-1.452C113.226,158.992,113.266,158.992,113.266,158.952z"/>
<path d="M75.403,171.331c0.565,0.161,1.089,0.403,1.533,0.726c0.121,0.081,0.242,0.161,0.322,0.242
	c1.048-2.339,2.459-4.436,4.153-6.331c-0.282,0.121-0.524,0.242-0.807,0.403c-0.968,0.565-1.936,1.452-2.943,2.742h-0.04
	C76.976,169.919,76.209,170.645,75.403,171.331z"/>
<path d="M118.588,165.968c1.694,1.895,3.105,3.992,4.153,6.331c0.081-0.081,0.202-0.161,0.323-0.242
	c0.443-0.323,0.968-0.565,1.532-0.726c-0.807-0.686-1.573-1.411-2.218-2.218h-0.041c-1.008-1.29-1.976-2.177-2.943-2.742
	C119.113,166.21,118.871,166.088,118.588,165.968z"/>
<path d="M169.193,91.371v-6.129c-0.121-0.484-0.242-1.008-0.363-1.532c-0.444-1.854-0.363-4.153,0.363-5.605V58.669
	c-2.218-3.911-4.597-7.621-7.097-11.128c-3.911-5.403-8.145-10.363-12.702-14.678v82.057c3.064-2.702,6.089-5.444,8.992-8.387
	c3.871-3.911,7.339-8.145,9.839-12.782C168.669,92.943,168.992,92.137,169.193,91.371z"/>
<path d="M169.193,156.693v-0.121c-0.202,0-0.403,0.04-0.605,0.081C168.791,156.653,168.992,156.693,169.193,156.693z"/>
<path d="M149.395,241.573c4.557-4.314,8.791-9.274,12.702-14.678c2.5-3.508,4.879-7.218,7.097-11.129v-55.202
	c-0.645,0.162-1.29,0.242-2.016,0.323c-2.016,0.242-4.436,0.322-7.218,0.242c2.057,0.807,3.912,1.774,6.129,2.823
	c-2.419,1.129-4.274,1.653-7.459,1.008c-1.008-0.202-2.057-0.322-3.064-0.363c1.774,0.928,3.427,1.936,4.879,3.307
	c-1.411,0.766-2.621,1.25-4.274,1.331l0.887,0.403c-2.298,0.927-4.354,1.572-6.855,1.613c0.646,0.444,1.25,0.927,1.855,1.371
	c-0.887,0.242-1.774,0.484-2.661,0.686V241.573z"/>
<path fill="#FFCB05" d="M83.266,61.169c0.041,2.298,0.403,3.104,1.533,3.669c0.726,0.363,2.056,0.363,2.782,0
	c1.129-0.564,1.492-1.371,1.492-3.669V50.927c0-1.088-0.081-1.896-0.242-2.379c-0.202-0.484-0.524-0.927-0.968-1.331h8.387
	c-0.443,0.403-0.766,0.847-0.967,1.291C95.121,48.992,95,49.798,95,50.927v10.403c0,1.532-0.081,2.702-0.323,3.508
	c-0.202,0.807-0.564,1.532-1.089,2.137c-1.492,1.694-3.347,1.896-5.363,1.976c-1.411,0.04-2.702,0.04-4.113,0
	c-1.976-0.081-3.831-0.282-5.323-1.976c-0.524-0.605-0.887-1.331-1.129-2.137c-0.202-0.806-0.323-1.976-0.323-3.508V50.927
	c0-1.129-0.081-1.936-0.282-2.419c-0.161-0.444-0.484-0.887-0.927-1.291h8.347c-0.443,0.403-0.726,0.847-0.927,1.331
	c-0.162,0.483-0.283,1.291-0.283,2.379V61.169z"/>
<path fill="#FFCB05" d="M105.564,64.919c0,1.854,0.121,2.5,1.492,3.79h-8.75c1.371-1.25,1.492-1.936,1.492-3.79V50.967
	c0-1.128-0.081-1.976-0.282-2.419c-0.161-0.484-0.483-0.927-0.887-1.331h14.758v4.476c-0.483-0.484-0.927-0.806-1.371-0.968
	c-0.403-0.202-0.928-0.282-1.573-0.282h-4.879v5.363h5.726v4.113c-0.242-0.323-0.564-0.605-0.927-0.766
	c-0.363-0.202-0.807-0.282-1.291-0.282h-3.508V64.919z"/>
<path fill="#FFCB05" d="M133.145,67.984c-1.169,0.322-2.258,0.564-3.347,0.726c-1.048,0.162-2.057,0.242-3.024,0.242
	c-3.79,0-6.855-1.048-9.153-3.105c-2.339-2.097-3.467-4.798-3.467-8.145c0-3.266,1.128-5.968,3.427-8.065
	c2.258-2.096,5.202-3.145,8.79-3.145c0.726,0,1.492,0.041,2.299,0.162c0.806,0.081,1.653,0.282,2.54,0.484l0.444,4.314
	c-1.008-0.524-1.936-0.928-2.783-1.169c-0.847-0.242-1.653-0.363-2.459-0.363c-1.814,0-3.226,0.605-4.234,1.855
	c-1.048,1.25-1.572,2.984-1.572,5.162c0,2.742,0.645,4.838,1.895,6.331c1.25,1.492,3.024,2.258,5.322,2.258
	c1.048,0,2.097-0.161,3.186-0.484c1.089-0.322,2.258-0.766,3.548-1.411L133.145,67.984z"/>
<path fill="#FFCB05" d="M72.661,64.838c0,1.089,0.081,1.896,0.282,2.42c0.202,0.483,0.524,0.968,0.968,1.371h-8.468
	c0.443-0.403,0.766-0.887,0.968-1.371c0.161-0.524,0.282-1.331,0.282-2.42V50.967c0-1.169-0.121-1.976-0.282-2.459
	c-0.202-0.444-0.524-0.887-0.968-1.291h8.468c-0.484,0.403-0.766,0.847-0.968,1.331c-0.202,0.524-0.282,1.291-0.282,2.419V64.838z"
	/>
<path fill="#FFCB05" d="M77.661,240.605c2.459-3.952,4.032-6.532,4.718-7.782c0.645-1.291,1.008-2.137,1.008-2.581
	c0-0.444-0.161-0.807-0.403-1.048c-0.282-0.242-0.686-0.363-1.209-0.363c-0.403,0-0.847,0.121-1.331,0.323
	c-0.524,0.202-1.089,0.524-1.774,0.968l0.807-2.702c0.807-0.242,1.532-0.443,2.097-0.564c0.605-0.081,1.129-0.161,1.573-0.161
	c1.291,0,2.339,0.322,3.105,0.968c0.766,0.645,1.169,1.532,1.169,2.581c0,0.726-0.242,1.572-0.766,2.581
	c-0.524,1.048-1.694,2.903-3.549,5.604c0.524,0.041,0.887,0.121,1.169,0.121c0.282,0.041,0.524,0.041,0.766,0.041
	c0.484,0,0.968-0.041,1.452-0.202c0.484-0.121,1.129-0.363,1.895-0.726l-0.927,2.943H77.661z"/>
<path fill="#FFCB05" d="M94.718,238.307c0.564,0,1.008-0.363,1.331-1.089c0.323-0.766,0.443-1.774,0.443-3.104
	c0-1.492-0.161-2.662-0.524-3.549c-0.323-0.807-0.767-1.209-1.331-1.25v-2.581c0,0,0,0,0.041,0c1.532,0,2.822,0.686,3.871,2.016
	c1.008,1.331,1.492,3.024,1.492,5.121c0,2.056-0.484,3.75-1.532,5.041c-1.048,1.331-2.298,1.976-3.871,1.976v-2.581
	C94.677,238.307,94.677,238.307,94.718,238.307z M94.637,229.314c0,0-0.04,0-0.081,0c-0.564,0-1.008,0.323-1.291,1.048
	c-0.322,0.726-0.483,1.774-0.483,3.105c0,1.492,0.161,2.661,0.524,3.548c0.323,0.807,0.766,1.25,1.331,1.291v2.581
	c0,0-0.04,0-0.081,0c-1.532,0-2.823-0.645-3.831-1.976c-1.008-1.331-1.532-3.065-1.532-5.121c0-2.057,0.524-3.75,1.572-5.081
	c1.008-1.331,2.299-1.976,3.871-1.976V229.314z"/>
<path fill="#FFCB05" d="M112.983,229.436l0.726-2.218c0.766-0.121,1.452-0.242,1.936-0.323c0.484-0.081,0.927-0.121,1.331-0.121
	c1.412,0,2.5,0.323,3.347,0.928c0.807,0.564,1.25,1.371,1.25,2.379c0,0.605-0.202,1.129-0.524,1.573
	c-0.363,0.443-0.887,0.847-1.613,1.169c0.928,0.282,1.653,0.766,2.178,1.371c0.484,0.605,0.726,1.331,0.726,2.137
	c0,1.291-0.564,2.379-1.693,3.226c-1.169,0.887-2.621,1.291-4.355,1.291c-0.363,0-0.806,0-1.331-0.081
	c-0.484-0.041-1.129-0.161-1.936-0.323l-0.524-2.419c0.645,0.282,1.209,0.484,1.734,0.645c0.484,0.121,0.927,0.161,1.331,0.161
	c0.847,0,1.532-0.201,2.056-0.686c0.524-0.443,0.807-1.048,0.807-1.814c0-0.726-0.282-1.29-0.807-1.693
	c-0.564-0.403-1.331-0.605-2.339-0.605c-0.242,0-0.403,0-0.524,0s-0.242,0.041-0.363,0.041v-1.815h0.363
	c0.968,0,1.734-0.161,2.218-0.483c0.524-0.323,0.766-0.807,0.766-1.412c0-0.524-0.161-0.927-0.524-1.209
	c-0.363-0.282-0.846-0.403-1.492-0.403c-0.363,0-0.726,0.041-1.169,0.162C114.113,229.032,113.588,229.194,112.983,229.436z"/>
<path fill="#FFCB05" d="M106.089,238.307c0.564,0,1.008-0.363,1.331-1.089c0.282-0.766,0.443-1.774,0.443-3.104
	c0-1.492-0.161-2.662-0.524-3.549c-0.323-0.807-0.767-1.209-1.331-1.25v-2.581l0,0c1.573,0,2.863,0.686,3.912,2.016
	c1.008,1.331,1.532,3.024,1.532,5.121c0,2.056-0.524,3.75-1.572,5.041c-1.049,1.331-2.339,1.976-3.871,1.976v-2.581
	C106.048,238.307,106.048,238.307,106.089,238.307z M106.008,229.314c-0.041,0-0.041,0-0.081,0c-0.564,0-1.008,0.323-1.331,1.048
	c-0.282,0.726-0.443,1.774-0.443,3.105c0,1.492,0.161,2.661,0.524,3.548c0.323,0.807,0.766,1.25,1.331,1.291v2.581
	c-0.041,0-0.041,0-0.081,0c-1.532,0-2.823-0.645-3.831-1.976c-1.048-1.331-1.532-3.065-1.532-5.121c0-2.057,0.524-3.75,1.532-5.081
	c1.048-1.331,2.339-1.976,3.911-1.976V229.314z"/>
<path fill="#FFCB05" d="M170.282,137.943c5.282-1.451,9.879-4.919,13.79-8.629c0.847-0.847,1.452-1.371,1.896-1.613
	c-0.162,0.564-0.565,1.492-1.129,2.459c-4.193,7.057-11.209,10.686-18.629,13.387c-0.484,0.161-0.645,0.282-1.089,0.564
	c-2.984,2.137-5.927,3.669-8.79,4.839c-2.581,1.048-5.121,1.774-7.621,2.339c0.363-0.767,0.484-1.734-0.121-2.419
	c2.5-0.363,5-1.169,7.5-2.298c4.113-1.896,7.863-4.436,11.653-6.936C168.588,139.073,169.476,138.548,170.282,137.943z"/>
<path fill="#FFCB05" d="M147.016,147.661c0.121-0.564,0.081-1.048-0.161-1.411c4.637-1.573,9.435-3.306,13.346-6.25
	c1.291-0.968,2.138-2.419,3.388-3.428c2.661-2.218,5.202-4.717,7.943-6.734c2.822-2.096,5.323-4.556,7.379-7.379
	c1.411-1.976,2.581-3.871,4.274-5.524c1.129-1.128,1.533,0.122,1.533,1.089c-0.041,2.701-2.46,5.726-3.992,7.822
	c-1.452,1.976-2.984,3.911-4.637,5.686c-2.661,2.822-5.847,4.879-9.072,7.016c-3.709,2.419-7.419,4.96-11.492,6.814
	C152.661,146.653,149.879,147.5,147.016,147.661z"/>
<path fill="#FFCB05" d="M141.492,139.959c-0.605-0.403-1.452-0.403-2.177-0.282c0.161-1.452,0-3.347-1.734-3.709
	c3.588-4.919,7.581-9.597,11.936-13.871c5.161-5.081,11.331-8.952,16.371-14.113c4.314-4.436,8.467-9.879,10.282-15.847
	c2.822-0.524,4.153,1.492,2.742,4.354c-2.218,4.476-4.798,8.871-7.782,13.146c-2.943,4.193-6.29,8.306-10.202,12.298
	c-0.242,0.282-0.363,0.403-0.564,0.766c-0.726,1.411-1.452,2.742-2.218,3.992c-3.387,5.484-8.508,8.387-13.992,11.573
	C143.186,138.791,142.338,139.355,141.492,139.959z"/>
<path fill="#FFCB05" d="M144.113,142.379c-0.605-0.121-1.291,0.041-1.855,0.242c0.121-0.524,0.161-1.048,0.041-1.573
	c0.766-0.564,1.613-1.129,2.5-1.653c5.726-3.266,10.927-6.331,14.476-12.016c0.847-1.331,1.613-2.782,2.379-4.274
	c7.419-7.541,13.467-16.169,18.226-25.605c2.218,4.476-2.742,11.572-4.919,15.202c-3.347,5.443-6.895,11.29-11.653,15.484
	c-1.412,1.25-2.5,2.702-3.589,4.113c-2.702,3.629-5.081,5.524-9.194,7.419C148.508,140.645,146.29,141.532,144.113,142.379z"/>
<path fill="#FFCB05" d="M145,145.403c0.242-0.605,0.444-1.371,0.242-2.057c3.911-1.532,8.186-3.105,11.532-5.766
	c1.653-1.291,2.823-2.863,4.032-4.476c1.008-1.371,2.057-2.782,3.387-3.951c0.646-0.565,1.291-1.169,1.895-1.814l0,0
	c2.097-1.613,4.355-3.831,6.573-6.533c2.621-3.145,6.008-7.217,7.339-11.129c1.371-4.153,3.871-2.338,2.702,1.291
	c-1.815,5.604-6.331,11.613-10.282,15.847c-2.944,3.186-6.089,5.766-9.678,8.71c-1.25,1.008-2.097,2.459-3.347,3.427
	c-3.75,2.822-8.387,4.516-12.823,5.968C146.169,145.081,145.403,145.443,145,145.403z"/>
<path fill="#FFCB05" d="M131.653,162.218c1.371,1.129,3.992,1.452,5.726,1.734c1.209,0.524,2.258,0.847,3.226,0.968
	c0.403,0.887-0.403,1.088-1.169,1.209c-1.452,0.161-2.258-0.322-3.589-1.048c-1.573-0.847-3.428-1.129-5.041-1.936
	C131.088,162.863,131.371,162.54,131.653,162.218z"/>
<path fill="#FFCB05" d="M141.532,159.959c0.968-0.282,1.854-0.726,2.621-1.29c0.726,0,1.371-0.081,1.976-0.242
	c0.564-0.161,1.048,0.282,0.564,0.766C145.363,160.605,143.186,160.363,141.532,159.959z"/>
<path fill="#FFCB05" d="M134.839,160.161c1.371,0.202,2.701,0.323,3.871,0.242c1.653,0.605,3.347,1.088,4.879,1.129
	c0.645,0.041,0.967,0.121,1.572,0.444c-1.29,1.048-2.298,1.572-3.307,1.693c-1.129,0.161-2.339-0.162-3.871-0.807
	c-0.282-0.121-0.444-0.161-0.766-0.201c-1.371-0.162-3.064-0.444-4.274-1.089C133.629,161.209,134.314,160.726,134.839,160.161z"/>
<path fill="#FFCB05" d="M135.967,157.581c3.105-0.161,5.767-0.726,7.863-1.653c1.734-0.766,3.104-1.814,4.072-3.186
	c0,0.121,0,0.323-0.04,0.565l0,0c0,0.081-0.041,0.161-0.081,0.201c-0.121,0.323-0.202,0.605,0,1.049
	c0.121,0.282,0.282,0.443,0.121,0.846c-0.282,0.726-0.766,1.21-1.411,1.533c-0.484,0.282-1.089,0.403-1.814,0.484
	c-0.928,0.041-0.928,0-1.653,0.524c-0.927,0.605-2.016,0.968-3.266,1.129c-1.25,0.161-2.621,0.121-4.153-0.081
	c0.162-0.363,0.242-0.806,0.242-1.209C135.847,157.621,135.847,157.581,135.967,157.581z"/>
<path fill="#FFCB05" d="M137.702,155.04c1.693-0.604,4.113-1.653,6.008-3.024c1.008-0.726,1.895-1.532,2.5-2.419
	c0.403-0.121,1.21-0.282,1.452,0.121c0.202,0.323,0,0.927-0.161,1.209c-0.807,1.694-2.258,2.984-4.194,3.831
	c-1.693,0.767-3.75,1.25-6.169,1.492C137.379,155.887,137.581,155.484,137.702,155.04z"/>
<path fill="#FFCB05" d="M128.831,149.516c0.443-0.686,0.847-1.411,1.29-2.097c2.137-3.508,4.234-6.976,6.654-10.323v0.081
	c0.564-0.04,0.967,0.121,1.128,0.524c0.484,1.048,0.081,2.581-0.121,3.669c0.806-0.242,1.733-0.605,2.581-0.484
	c-3.024,2.459-5.403,5.403-7.782,8.709C131.371,149.395,130.081,149.436,128.831,149.516z"/>
<path fill="#FFCB05" d="M141.088,141.976c-0.081,0.847-0.524,1.814-0.766,2.621c1.089-0.242,2.339-1.008,3.347-1.008
	c0.283,0,0.363,0.04,0.403,0.322c0,0.766-0.443,1.573-0.766,2.258c-3.105,1.451-6.008,3.589-8.589,5.726
	c0.404-1.129,0.162-1.613-0.766-1.936C136.169,146.936,138.347,144.234,141.088,141.976z"/>
<path fill="#FFCB05" d="M145.524,146.693c0.323,0.121,0.403,0.444,0.161,1.21c-0.363,1.129-1.411,2.177-2.701,3.105
	c-1.815,1.29-4.113,2.258-5.726,2.863c-0.645-0.363-1.371-0.564-2.097-0.645C138.226,150.645,141.774,148.064,145.524,146.693z"/>
<path fill="#FFCB05" d="M125.443,156.613c0.605-1.936,1.573-3.871,2.621-5.766c1.613-0.161,3.387-0.282,4.959,0.121
	c0.444,0.121,0.645,0.161,0.686,0.161c0,0.041-0.121,0.162-0.282,0.524C132.338,154.314,127.943,155.807,125.443,156.613z"/>
<path fill="#FFCB05" d="M124.959,158.831c0.04-0.242,0.081-0.524,0.121-0.766c2.581-0.807,5.484-1.814,7.621-3.548
	c1.21-0.242,2.581-0.161,3.75,0.323C134.879,158.629,128.306,158.791,124.959,158.831z"/>
<path fill="#FFCB05" d="M124.838,161.129c-0.04-0.363-0.04-0.686,0-1.048c2.903,0,5.766-0.242,8.024-0.968
	c0.564-0.202,1.089-0.363,1.613-0.604c-0.202,0.524-0.645,0.967-1.129,1.29C130.726,161.774,127.863,161.291,124.838,161.129z"/>
<path fill="#FFCB05" d="M125.927,165.202c-0.443-0.927-0.766-1.855-0.928-2.823c1.533,0.121,3.105,0.283,4.638,0.161
	C128.588,163.589,127.338,164.637,125.927,165.202z"/>
<path fill="#FFCB05" d="M127.903,168.024c-0.524-0.564-0.968-1.169-1.331-1.734c1.21-0.524,2.298-1.331,3.266-2.218
	c0.968,0.524,1.936,0.807,2.863,1.129c0.887,0.282,1.774,0.564,2.581,1.008c0.766,0.403,1.371,0.524,0.887,0.726
	C133.992,168.064,130.282,168.347,127.903,168.024z"/>
<path fill="#FFCB05" d="M146.169,161.089c0.766-0.323,1.411-0.887,1.936-1.694c2.943,0.524,5.847,1.21,8.669,2.057
	c2.218,0.686,4.395,1.452,6.412,2.338c-1.412,0.282-2.863,0.162-4.315-0.121c-1.814-0.403-3.669-0.443-5.524-0.484
	c-1.371,0-2.943-0.564-4.436-1.129C148.105,161.774,146.855,161.492,146.169,161.089z"/>
<path fill="#FFCB05" d="M143.266,164.597c1.169-0.403,2.177-1.209,3.145-2.016c1.613,0.444,3.186,0.968,4.758,1.532
	c2.379,0.887,4.718,1.976,6.774,3.508c-2.823,0.847-5.766-0.242-8.508-0.887c-1.936-0.444-3.952-1.25-5.887-2.016l0,0
	C143.468,164.677,143.387,164.637,143.266,164.597z"/>
<path fill="#FFCB05" d="M140.121,167.258c0.484-0.121,0.928-0.282,1.291-0.564c0.363-0.323,0.605-0.686,0.605-1.169
	c0.363,0.161,0.726,0.282,1.048,0.443l0,0c2.057,0.766,4.113,1.613,6.209,2.097c1.492,0.323,2.944,0.807,4.315,1.412
	c-0.726,0.201-1.452,0.322-2.218,0.403c-3.226,0.282-4.033-0.403-6.855-1.048C143.024,168.508,141.572,167.903,140.121,167.258z"/>
<path fill="#FFCB05" d="M127.338,139.274c8.75-12.621,21.21-21.048,31.936-31.854c3.952-3.992,7.5-8.307,10.041-13.064
	c1.976-3.71,1.734-6.976,0.766-10.928c-0.484-1.976-0.403-4.476,0.524-5.323c0.686-0.605,1.694-0.04,2.258,0.484
	c0.887,0.846,1.572,2.137,1.936,3.024c1.572,3.669,1.169,7.662-0.323,11.613c-1.895,5.041-5.645,9.96-9.476,13.871
	c-5.041,5.162-11.21,9.032-16.371,14.113c-7.782,7.661-13.912,16.21-19.597,25.565c-4.274,7.016-8.669,14.234-2.379,21.734
	c0.564,0.645,0.767,0.726,1.613,0.806c1.452,0.162,2.944,0.081,4.436-0.161c1.694-0.282,3.428-0.766,5.162-1.492
	c2.056,0.968,4.113,1.936,6.331,2.46c1.734,0.403,3.347,1.048,4.839,1.936c-2.016,0.524-4.193,0.887-6.452,1.129
	c-4.597,0.524-10.121,1.089-14.355-1.048c-1.814-0.928-3.427-2.218-4.798-3.791c-0.968-1.129-1.976-2.339-3.387-3.145
	c-1.008-0.605-2.056-0.887-3.064-0.887c-0.041-0.04-0.081-0.081-0.121-0.081c0.121-0.081,0.242-0.162,0.323-0.242
	c0.443-0.363,0.847-0.766,1.169-1.25c0.645-0.887,1.048-1.854,1.088-2.742c0.121-1.129-0.242-2.057-1.048-2.662
	c-0.323-0.242-0.686-0.363-1.089-0.443c2.016-1.129,3.871-2.379,5.443-3.911c2.339-2.379,4.032-5.403,4.516-9.839l3.226,0.403
	C129.435,142.137,128.387,140.726,127.338,139.274z"/>
<path fill="#FFCB05" d="M149.153,152.541c2.5-0.524,5.041-1.291,7.662-2.339c1.331-0.564,2.702-1.169,4.072-1.896
	c6.734-0.322,14.073-1.532,20.767-0.483c-4.274,5.484-28.105,5.766-32.621,6.008c0-0.081,0.041-0.161,0.081-0.282l0,0
	C149.193,153.186,149.193,152.822,149.153,152.541z"/>
<path fill="#FFCB05" d="M163.186,146.976c1.048-0.645,2.056-1.291,3.104-2.056c4.032-1.452,7.823-3.105,11.169-5.282
	c1.089-0.726,6.573-4.678,7.057-4.153c0.322,0.323-0.363,1.774-0.524,2.056c-0.927,1.774-2.459,3.347-4.355,4.758
	c-1.814,1.371-4.435,2.782-6.895,3.952C169.556,146.411,166.411,146.774,163.186,146.976z"/>
<path fill="#FFCB05" d="M176.733,151.895c0.686,0.202,1.331,0.444,1.936,0.766c-2.983,1.25-6.935,2.218-11.733,2.903
	c-5.202,0.726-11.371,1.169-18.428,1.331c0.403-0.524,0.726-1.169,0.766-1.734C158.427,154.557,167.903,154.637,176.733,151.895z"/>
<path fill="#FFCB05" d="M148.75,158.226c5.202-0.121,9.919-0.403,14.113-0.806c1.129-0.121,1.29-0.121,2.419,0.081
	c1.573,0.282,3.226,0.605,4.758,0.484c0.686-0.041,1.25,0.081,1.814,0.242c-1.008,0.646-2.621,1.089-4.838,1.331
	c-2.823,0.363-7.218,0.363-11.653,0.081c-2.137-0.564-4.314-1.008-6.492-1.412C148.831,158.226,148.79,158.226,148.75,158.226z"/>
</svg>
