<?xml version="1.0" encoding="UTF-8"?>
<svg xmlns="http://www.w3.org/2000/svg" xmlns:xlink="http://www.w3.org/1999/xlink" width="203px" height="250px" viewBox="0 0 203 254" version="1.1">
<g id="surface1">
<path style=" stroke:none;fill-rule:nonzero;fill:rgb(0%,0%,0%);fill-opacity:1;" d="M 0 0 L 0 121.15625 C 0 143.402344 1.964844 169.386719 16.539062 193.511719 C 37.804688 231.871094 101.511719 253.867188 101.511719 253.867188 C 101.511719 253.867188 165.222656 231.871094 186.488281 193.511719 C 201.058594 169.386719 203.027344 143.402344 203.027344 121.15625 L 203.027344 0 Z M 0 0 "/>
<path style=" stroke:none;fill-rule:nonzero;fill:rgb(100%,87.058824%,0%);fill-opacity:1;" d="M 40.53125 28.546875 L 40.53125 22.320312 L 43.4375 22.320312 L 47.011719 18.753906 L 40.53125 18.753906 L 40.53125 13.839844 L 47.585938 13.839844 L 47.585938 10.273438 L 36.957031 10.273438 L 36.957031 32.113281 L 47.734375 32.113281 L 47.734375 28.546875 Z M 40.53125 28.546875 "/>
<path style=" stroke:none;fill-rule:nonzero;fill:rgb(100%,87.058824%,0%);fill-opacity:1;" d="M 100.703125 10.273438 L 100.703125 21.964844 L 94.351562 10.273438 L 92.164062 10.273438 L 92.164062 32.113281 L 95.738281 32.113281 L 95.738281 20.148438 L 102.519531 32.113281 L 104.277344 32.113281 L 104.277344 10.273438 Z M 100.703125 10.273438 "/>
<path style=" stroke:none;fill-rule:nonzero;fill:rgb(100%,87.058824%,0%);fill-opacity:1;" d="M 129.773438 10.273438 L 129.773438 21.964844 L 123.421875 10.273438 L 121.238281 10.273438 L 121.238281 32.113281 L 124.8125 32.113281 L 124.8125 20.148438 L 131.59375 32.113281 L 133.351562 32.113281 L 133.351562 10.273438 Z M 129.773438 10.273438 "/>
<path style=" stroke:none;fill-rule:nonzero;fill:rgb(100%,87.058824%,0%);fill-opacity:1;" d="M 192.730469 10.273438 L 179.652344 10.273438 L 176.078125 13.839844 L 176.078125 32.113281 L 179.652344 32.113281 L 179.652344 13.839844 L 182.617188 13.839844 L 182.617188 32.113281 L 186.191406 32.113281 L 186.191406 13.839844 L 189.15625 13.839844 L 189.15625 32.113281 L 192.730469 32.113281 Z M 192.730469 10.273438 "/>
<path style=" stroke:none;fill-rule:nonzero;fill:rgb(100%,87.058824%,0%);fill-opacity:1;" d="M 72.214844 28.546875 L 67.253906 28.546875 L 67.253906 13.839844 L 72.214844 13.839844 Z M 75.792969 10.273438 L 67.253906 10.273438 C 65.28125 10.273438 63.679688 11.871094 63.679688 13.839844 L 63.679688 32.113281 L 72.214844 32.113281 L 75.792969 28.546875 Z M 75.792969 10.273438 "/>
<path style=" stroke:none;fill-rule:nonzero;fill:rgb(100%,87.058824%,0%);fill-opacity:1;" d="M 10.296875 10.273438 L 13.871094 13.839844 L 17.5 13.839844 L 17.5 28.546875 L 13.871094 28.546875 L 13.871094 22.320312 L 10.296875 18.753906 L 10.296875 28.546875 C 10.296875 30.519531 11.898438 32.113281 13.871094 32.113281 L 21.074219 32.113281 L 21.074219 10.273438 Z M 10.296875 10.273438 "/>
<path style=" stroke:none;fill-rule:nonzero;fill:rgb(100%,87.058824%,0%);fill-opacity:1;" d="M 158.027344 18.789062 L 153.066406 18.789062 L 153.066406 13.839844 L 158.027344 13.839844 Z M 153.066406 10.273438 C 151.089844 10.273438 149.492188 11.871094 149.492188 13.839844 L 149.492188 32.113281 L 153.066406 32.113281 L 153.066406 22.359375 L 156.238281 22.359375 L 158.027344 20.574219 L 158.027344 32.113281 L 161.601562 32.113281 L 161.601562 10.273438 Z M 153.066406 10.273438 "/>
<path style=" stroke:none;fill-rule:nonzero;fill:rgb(100%,87.058824%,0%);fill-opacity:1;" d="M 158.921875 39.558594 L 158.921875 48.332031 L 154.15625 39.558594 L 152.519531 39.558594 L 152.519531 55.941406 L 155.199219 55.941406 L 155.199219 46.96875 L 160.285156 55.941406 L 161.601562 55.941406 L 161.601562 39.558594 Z M 158.921875 39.558594 "/>
<path style=" stroke:none;fill-rule:nonzero;fill:rgb(100%,87.058824%,0%);fill-opacity:1;" d="M 130.667969 53.265625 L 126.949219 53.265625 L 126.949219 42.234375 L 130.667969 42.234375 Z M 133.351562 53.265625 L 133.351562 39.558594 L 126.949219 39.558594 C 125.464844 39.558594 124.265625 40.757812 124.265625 42.234375 L 124.265625 55.941406 L 130.667969 55.941406 Z M 133.351562 53.265625 "/>
<path style=" stroke:none;fill-rule:nonzero;fill:rgb(100%,87.058824%,0%);fill-opacity:1;" d="M 12.976562 42.234375 L 16.699219 42.234375 L 16.699219 53.265625 L 12.976562 53.265625 Z M 19.378906 53.265625 L 19.378906 42.234375 C 19.378906 40.757812 18.179688 39.558594 16.699219 39.558594 L 10.296875 39.558594 L 10.296875 55.941406 L 16.699219 55.941406 Z M 19.378906 53.265625 "/>
<path style=" stroke:none;fill-rule:nonzero;fill:rgb(100%,87.058824%,0%);fill-opacity:1;" d="M 45.054688 45.949219 L 41.332031 45.949219 L 41.332031 42.234375 L 45.054688 42.234375 L 45.054688 45.949219 C 46.535156 45.949219 47.734375 44.75 47.734375 43.273438 L 47.734375 42.234375 C 47.734375 40.757812 46.535156 39.558594 45.054688 39.558594 L 38.652344 39.558594 L 38.652344 55.941406 L 41.332031 55.941406 L 41.332031 48.625 L 45.054688 48.625 L 45.054688 55.941406 L 47.734375 55.941406 L 47.734375 48.621094 Z M 45.054688 45.949219 "/>
<path style=" stroke:none;fill-rule:nonzero;fill:rgb(100%,87.058824%,0%);fill-opacity:1;" d="M 73.109375 45.949219 L 69.390625 45.949219 L 69.390625 42.234375 L 73.109375 42.234375 Z M 75.792969 39.558594 L 69.390625 39.558594 C 67.910156 39.558594 66.707031 40.757812 66.707031 42.234375 L 66.707031 55.941406 L 69.390625 55.941406 L 69.390625 48.625 L 71.769531 48.625 L 73.109375 47.285156 L 73.109375 55.941406 L 75.792969 55.941406 Z M 75.792969 39.558594 "/>
<path style=" stroke:none;fill-rule:nonzero;fill:rgb(100%,87.058824%,0%);fill-opacity:1;" d="M 104.277344 53.265625 L 104.277344 46.125 L 100.101562 46.125 L 100.101562 48.800781 L 101.59375 48.800781 L 101.59375 53.265625 L 97.875 53.265625 L 97.875 42.234375 L 101.59375 42.234375 L 104.277344 39.558594 L 97.875 39.558594 C 96.394531 39.558594 95.191406 40.757812 95.191406 42.234375 L 95.191406 55.941406 L 101.59375 55.941406 C 103.074219 55.941406 104.273438 54.746094 104.277344 53.265625 "/>
<path style=" stroke:none;fill-rule:nonzero;fill:rgb(100%,87.058824%,0%);fill-opacity:1;" d="M 192.730469 53.265625 L 192.730469 49.808594 L 187.667969 43.949219 L 187.667969 42.234375 L 192.730469 42.234375 L 192.730469 39.558594 L 187.667969 39.558594 L 184.988281 42.234375 L 184.988281 45.238281 L 190.050781 51.113281 L 190.050781 53.265625 L 184.988281 53.265625 L 184.988281 55.941406 L 190.050781 55.941406 C 191.53125 55.941406 192.730469 54.742188 192.730469 53.265625 "/>
<path style=" stroke:none;fill-rule:nonzero;fill:rgb(100%,87.058824%,0%);fill-opacity:1;" d="M 40.117188 68.195312 L 40.117188 85.695312 L 57.660156 103.195312 L 57.660156 68.957031 C 67.34375 68.957031 75.195312 76.789062 75.199219 86.453125 L 75.199219 195.542969 L 75.1875 195.53125 C 65.644531 187.417969 57.660156 175.375 57.660156 161.160156 L 57.660156 118.085938 L 40.117188 100.585938 L 40.117188 121.15625 C 40.117188 141.046875 41.785156 157.210938 49.917969 171.460938 C 57.816406 185.300781 71.898438 197.214844 92.738281 207.644531 L 92.738281 68.195312 Z M 40.117188 68.195312 "/>
<path style=" stroke:none;fill-rule:nonzero;fill:rgb(100%,87.058824%,0%);fill-opacity:1;" d="M 145.363281 161.160156 C 145.363281 175.375 137.375 187.417969 127.832031 195.53125 L 127.820312 195.542969 L 127.820312 68.957031 C 137.507812 68.957031 145.363281 76.792969 145.363281 86.460938 Z M 145.402344 68.195312 L 110.28125 68.195312 L 110.28125 207.644531 C 131.121094 197.214844 145.207031 185.300781 153.101562 171.460938 C 161.234375 157.210938 162.902344 141.046875 162.902344 121.15625 L 162.902344 84.882812 C 162.472656 75.597656 154.816406 68.195312 145.402344 68.195312 "/>
<path style=" stroke:none;fill-rule:nonzero;fill:rgb(100%,87.058824%,0%);fill-opacity:1;" d="M 22.578125 68.195312 L 10.296875 68.195312 L 10.296875 78.277344 L 22.578125 90.53125 Z M 22.578125 68.195312 "/>
<path style=" stroke:none;fill-rule:nonzero;fill:rgb(100%,87.058824%,0%);fill-opacity:1;" d="M 180.449219 68.195312 L 180.449219 90.53125 L 192.730469 78.277344 L 192.730469 68.195312 Z M 180.449219 68.195312 "/>
<path style=" stroke:none;fill-rule:nonzero;fill:rgb(100%,87.058824%,0%);fill-opacity:1;" d="M 180.449219 121.15625 C 180.445312 161.957031 174.503906 200.160156 101.511719 229.90625 C 28.523438 200.160156 22.578125 161.957031 22.578125 121.15625 L 22.578125 105.421875 L 10.296875 93.167969 L 10.296875 121.15625 C 10.296875 142.023438 12.09375 166.324219 25.425781 188.324219 C 41.253906 216.285156 79.503906 234.984375 101.511719 242.941406 C 123.523438 234.984375 161.773438 216.285156 177.597656 188.324219 C 190.929688 166.324219 192.730469 142.023438 192.730469 121.15625 L 192.730469 93.167969 L 180.449219 105.421875 Z M 180.449219 121.15625 "/>
</g>
</svg>