<?xml version="1.0" encoding="UTF-8" standalone="no"?>
<svg
   xmlns:dc="http://purl.org/dc/elements/1.1/"
   xmlns:cc="http://creativecommons.org/ns#"
   xmlns:rdf="http://www.w3.org/1999/02/22-rdf-syntax-ns#"
   xmlns:svg="http://www.w3.org/2000/svg"
   xmlns="http://www.w3.org/2000/svg"
   viewBox="0 0 253.52803 251.99999"
   height="252"
   width="253.52803"
   xml:space="preserve"
   id="svg2"
   version="1.1"><metadata
     id="metadata8"><rdf:RDF><cc:Work
         rdf:about=""><dc:format>image/svg+xml</dc:format><dc:type
           rdf:resource="http://purl.org/dc/dcmitype/StillImage" /><dc:title></dc:title></cc:Work></rdf:RDF></metadata><defs
     id="defs6"><clipPath
       id="clipPath18"
       clipPathUnits="userSpaceOnUse"><path
         id="path16"
         d="M 0,858.897 H 612.288 V 0 H 0 Z" /></clipPath></defs><g
     transform="matrix(1.3333333,0,0,-1.3333333,-164.08041,691.03512)"
     id="g10"><g
       transform="matrix(0.65211201,0,0,0.65211201,18.738636,143.76066)"
       id="g12"><g
         clip-path="url(#clipPath18)"
         id="g14"><g
           transform="translate(319.5352,547.0225)"
           id="g20"><path
             id="path22"
             style="fill:#ffffff;fill-opacity:1;fill-rule:nonzero;stroke:none"
             d="m 0,0 c -25.169,0 -49.607,-7.172 -70.672,-20.74 -20.466,-13.181 -36.812,-31.726 -47.293,-53.635 -10.903,6.252 -22.028,13.396 -33.447,21.47 l -6.998,4.948 7.194,-39.967 1.486,-0.804 c 7.794,-4.207 15.375,-7.93 22.671,-11.226 l -0.167,-0.714 c -2.3,-9.783 -3.466,-19.885 -3.466,-30.024 0,-72.067 58.628,-130.696 130.692,-130.696 72.068,0 130.699,58.629 130.699,130.696 C 130.699,-58.628 72.068,0 0,0" /></g><g
           transform="translate(318.6797,378.9492)"
           id="g24"><path
             id="path26"
             style="fill:#231f20;fill-opacity:1;fill-rule:nonzero;stroke:none"
             d="m 0,0 -9.91,-9.979 -2.517,-0.792 17.855,-30.191 8.824,2.399 9.161,-0.946 0.281,1.052 -9.629,2.547 L 8.21,-36.55 -4.5,-14.378 21.221,-0.045 C 13.907,-1.169 0.684,-0.065 0,0" /></g><g
           transform="translate(284.3105,368.1025)"
           id="g28"><path
             id="path30"
             style="fill:#231f20;fill-opacity:1;fill-rule:nonzero;stroke:none"
             d="m 0,0 -2.523,-0.787 17.86,-29.328 8.826,2.399 9.17,-0.948 0.271,1.052 -9.63,2.549 -5.854,-0.64 -12.709,22.174 26.265,14.82 c -6.095,0.702 -11.351,1.849 -16.78,3.547 z" /></g><g
           transform="translate(352.6426,385.0332)"
           id="g32"><path
             id="path34"
             style="fill:#231f20;fill-opacity:1;fill-rule:nonzero;stroke:none"
             d="m 0,0 c -0.104,0 -0.22,-0.006 -0.348,-0.016 -1.815,-0.17 -4.261,-0.28 -7.059,-0.28 -13.241,0 -34.43,2.515 -34.583,13.573 -0.111,7.754 16.965,16.795 23.421,19.347 1.396,0.55 1.444,0.974 0.472,0.974 -0.303,0 -0.703,-0.04 -1.191,-0.13 -25.547,-4.73 -45.54,-5.656 -57.275,-5.656 -7.544,0 -11.671,0.382 -11.671,0.382 0,0 9.06,-19.219 37.375,-27.63 2.965,-0.88 6.142,-1.641 9.542,-2.252 3.296,-0.59 6.8,-1.038 10.526,-1.305 2.809,-0.205 5.503,-0.303 8.097,-0.303 8.485,0 15.9,1.003 22.769,2.42 C 0.813,-0.725 1.179,0 0,0" /></g><g
           transform="translate(406.0928,442.6367)"
           id="g36"><path
             id="path38"
             style="fill:#231f20;fill-opacity:1;fill-rule:nonzero;stroke:none"
             d="m 0,0 c 0,0 -1.251,-4.116 -3.331,-2.858 -1.514,0.913 -2.938,2.566 -5.922,3.194 -0.765,0.166 -1.341,0.348 -1.549,0.383 -0.559,0.09 -0.042,0.118 -0.042,0.118 H 1.354 Z m 28.774,-2.641 c -6.727,3.603 -18.85,3.938 -18.85,3.938 -11.949,9.454 -27.185,3.974 -30.958,2.8 -65.347,-20.263 -130.528,-18.011 -218.962,44.52 l 5.375,-29.87 c 60.334,-32.578 108.414,-35.857 108.414,-35.857 l 0.563,-0.744 c -13.816,-1.071 -49.469,5.328 -71.067,15.799 l 4.898,-15.749 c 56.227,-17.326 104.873,-4.588 116.483,-3.189 13.779,1.662 41.186,6.213 46.999,-8.937 5.036,-13.133 -15.466,-23.917 -21.67,-26.886 -0.948,-0.456 -0.312,-0.878 0.314,-0.718 39.368,9.866 60.405,47.409 60.405,47.409 2.455,2.688 15.374,6.245 18.162,6.986 0.339,0.092 0.712,0.102 0.712,0.102 0.005,0.12 -0.6,0.281 -0.818,0.396" /></g><g
           transform="translate(311.0254,521.9502)"
           id="g40"><path
             id="path42"
             style="fill:#231f20;fill-opacity:1;fill-rule:nonzero;stroke:none"
             d="M 0,0 1.621,0.115 0.639,2.376 Z" /></g><g
           transform="translate(297.1416,516.6421)"
           id="g44"><path
             id="path46"
             style="fill:#231f20;fill-opacity:1;fill-rule:nonzero;stroke:none"
             d="M 0,0 C -0.07,0.29 -0.189,0.557 -0.358,0.794 -0.524,1.031 -0.746,1.237 -1.011,1.41 -1.241,1.559 -1.558,1.647 -1.947,1.67 -2.374,1.692 -2.896,1.639 -3.498,1.508 l -0.01,-0.003 1.041,-4.319 c 0.036,0.004 0.071,0.007 0.107,0.009 0.155,0.018 0.301,0.034 0.437,0.055 0.063,0.013 0.124,0.02 0.18,0.022 0,0 0.005,0 0.011,0.002 0.067,0.016 0.136,0.025 0.2,0.026 0.302,0.1 0.565,0.213 0.797,0.332 0.219,0.118 0.42,0.261 0.594,0.428 0.156,0.149 0.251,0.344 0.291,0.594 0.048,0.284 0.022,0.638 -0.08,1.052 z" /></g><g
           transform="translate(294.2666,521.1533)"
           id="g48"><path
             id="path50"
             style="fill:#231f20;fill-opacity:1;fill-rule:nonzero;stroke:none"
             d="M 0,0 0.023,0.021 C 0.172,0.145 0.264,0.287 0.304,0.453 0.349,0.64 0.345,0.855 0.288,1.089 L 0.248,1.25 0.211,1.33 0.186,1.426 c -0.163,0.386 -0.347,0.683 -0.545,0.887 -0.17,0.171 -0.336,0.26 -0.509,0.273 L -0.88,2.587 C -1.065,2.606 -1.286,2.601 -1.531,2.575 -1.667,2.559 -1.812,2.54 -1.965,2.516 l 0.774,-3.209 c 0.208,0.076 0.406,0.167 0.599,0.267 0.221,0.117 0.42,0.26 0.592,0.426" /></g><g
           transform="translate(251.3604,494.0073)"
           id="g52"><path
             id="path54"
             style="fill:#231f20;fill-opacity:1;fill-rule:nonzero;stroke:none"
             d="M 0,0 C -0.253,0.553 -0.605,1.071 -1.054,1.545 L -1.3,1.805 C -1.34,1.83 -1.377,1.858 -1.41,1.895 L -1.45,1.937 C -1.49,1.961 -1.53,1.993 -1.563,2.029 L -1.582,2.047 C -2.072,2.46 -2.611,2.804 -3.182,3.069 -3.758,3.336 -4.389,3.528 -5.06,3.636 -5.635,3.727 -6.187,3.709 -6.685,3.583 -7.173,3.458 -7.644,3.221 -8.087,2.876 -8.375,2.531 -8.595,2.125 -8.743,1.667 -8.898,1.189 -8.974,0.653 -8.968,0.08 c -0.006,-0.573 0.13,-1.144 0.397,-1.705 0.277,-0.582 0.699,-1.175 1.255,-1.766 l 0.222,-0.236 c 0.561,-0.592 1.154,-1.045 1.763,-1.343 0.607,-0.295 1.26,-0.466 1.945,-0.503 0.615,-0.033 1.192,0.024 1.699,0.172 0.488,0.141 0.931,0.368 1.318,0.676 0.353,0.391 0.604,0.821 0.748,1.275 0.144,0.467 0.184,0.989 0.119,1.546 C 0.422,-1.165 0.252,-0.557 0,0" /></g><g
           transform="translate(266.6084,507.252)"
           id="g56"><path
             id="path58"
             style="fill:#231f20;fill-opacity:1;fill-rule:nonzero;stroke:none"
             d="M 0,0 -0.189,0.303 C -0.227,0.333 -0.256,0.369 -0.28,0.408 L -0.313,0.459 C -0.349,0.492 -0.381,0.53 -0.404,0.57 L -0.421,0.595 C -0.824,1.094 -1.287,1.533 -1.797,1.902 -2.311,2.275 -2.896,2.583 -3.532,2.819 -4.085,3.018 -4.624,3.106 -5.137,3.075 -5.639,3.047 -6.147,2.904 -6.647,2.652 -6.998,2.368 -7.292,2.01 -7.523,1.588 -7.767,1.149 -7.945,0.64 -8.05,0.074 c -0.112,-0.56 -0.09,-1.147 0.066,-1.748 0.16,-0.624 0.461,-1.288 0.896,-1.973 l 0.173,-0.272 c 0.437,-0.692 0.933,-1.25 1.474,-1.659 0.536,-0.406 1.148,-0.698 1.812,-0.865 0.456,-0.116 0.9,-0.174 1.314,-0.174 0.127,0 0.258,0.008 0.384,0.018 0.507,0.045 0.984,0.184 1.424,0.413 0.421,0.316 0.75,0.689 0.975,1.108 0.233,0.432 0.374,0.934 0.416,1.495 0.044,0.642 -0.002,1.271 -0.146,1.864 C 0.597,-1.127 0.349,-0.549 0,0" /></g><g
           transform="translate(412.9443,475.5039)"
           id="g60"><path
             id="path62"
             style="fill:#231f20;fill-opacity:1;fill-rule:nonzero;stroke:none"
             d="m 0,0 c -0.043,0.181 -0.117,0.388 -0.222,0.613 -0.057,0.123 -0.121,0.256 -0.191,0.391 l -2.795,-1.76 c 0.138,-0.171 0.288,-0.331 0.442,-0.479 0.184,-0.172 0.382,-0.317 0.598,-0.427 l 0.023,-0.015 c 0.166,-0.1 0.33,-0.14 0.499,-0.128 0.193,0.018 0.396,0.09 0.599,0.22 l 0.14,0.088 0.063,0.062 0.085,0.053 c 0.313,0.278 0.535,0.549 0.665,0.802 0.109,0.215 0.141,0.4 0.096,0.567 z" /></g><g
           transform="translate(407.7285,473.4707)"
           id="g64"><path
             id="path66"
             style="fill:#231f20;fill-opacity:1;fill-rule:nonzero;stroke:none"
             d="m 0,0 -0.005,0.01 -3.761,-2.365 c 0.015,-0.033 0.031,-0.066 0.042,-0.099 0.067,-0.14 0.13,-0.272 0.195,-0.398 0.028,-0.052 0.056,-0.107 0.076,-0.162 0,-0.003 0.004,-0.005 0.005,-0.009 0.039,-0.059 0.067,-0.122 0.091,-0.181 0.189,-0.251 0.379,-0.469 0.568,-0.649 0.18,-0.173 0.38,-0.316 0.596,-0.428 0.192,-0.1 0.405,-0.128 0.653,-0.088 0.285,0.048 0.613,0.188 0.973,0.413 l 0.256,0.163 c 0.253,0.158 0.469,0.358 0.639,0.594 0.169,0.232 0.294,0.508 0.373,0.813 0.068,0.268 0.049,0.594 -0.052,0.971 C 0.533,-1.001 0.315,-0.525 0,0" /></g><g
           transform="translate(396.7012,343.7705)"
           id="g68"><path
             id="path70"
             style="fill:#231f20;fill-opacity:1;fill-rule:nonzero;stroke:none"
             d="M 0,0 1.948,2.145 -2.101,3.856 Z" /></g><g
           transform="translate(266.1826,332.874)"
           id="g72"><path
             id="path74"
             style="fill:#231f20;fill-opacity:1;fill-rule:nonzero;stroke:none"
             d="m 0,0 c -0.345,0.677 -0.852,1.288 -1.505,1.818 l -0.008,0.006 c -0.602,0.304 -1.276,0.495 -1.997,0.559 -0.741,0.066 -1.538,0 -2.364,-0.199 -0.83,-0.18 -1.614,-0.565 -2.341,-1.141 -0.744,-0.587 -1.457,-1.389 -2.115,-2.375 l -0.261,-0.386 c -0.666,-1.002 -1.122,-2.003 -1.348,-2.973 -0.23,-0.972 -0.257,-1.973 -0.087,-2.975 0.159,-0.901 0.428,-1.703 0.808,-2.389 0.371,-0.666 0.856,-1.236 1.438,-1.703 0.693,-0.389 1.406,-0.616 2.128,-0.67 0.73,-0.056 1.498,0.06 2.287,0.34 0.893,0.321 1.71,0.76 2.427,1.306 0.71,0.547 1.342,1.228 1.874,2.024 l 0.306,0.45 c 0.012,0.057 0.036,0.112 0.068,0.157 l 0.065,0.099 c 0.018,0.055 0.042,0.112 0.077,0.158 l 0.027,0.047 c 0.434,0.842 0.75,1.728 0.945,2.635 0.191,0.911 0.259,1.877 0.194,2.873 C 0.559,-1.466 0.351,-0.681 0,0" /></g><g
           transform="translate(430.5674,379.3145)"
           id="g76"><path
             id="path78"
             style="fill:#231f20;fill-opacity:1;fill-rule:nonzero;stroke:none"
             d="m 0,0 -0.849,0.286 c 0.029,0.099 0.031,0.193 0.007,0.284 -0.031,0.117 -0.08,0.221 -0.149,0.316 -0.083,0.12 -0.175,0.23 -0.279,0.331 -0.096,0.094 -0.205,0.185 -0.319,0.266 -0.075,0.045 -0.15,0.089 -0.221,0.124 -0.069,0.035 -0.135,0.066 -0.198,0.091 l -0.115,0.045 c -0.064,0.025 -0.123,0.059 -0.175,0.1 L -2.703,2.007 C -2.734,2.019 -2.76,2.029 -2.779,2.039 l -0.205,0.079 -9.315,2.568 10.692,-9.387 -0.567,-1.418 -0.207,-0.201 -0.085,-0.07 c -0.18,-0.171 -0.416,-0.325 -0.699,-0.451 -0.277,-0.129 -0.605,-0.23 -0.976,-0.3 -0.342,-0.069 -0.704,-0.126 -1.065,-0.164 -0.365,-0.047 -0.733,-0.071 -1.101,-0.091 h -0.012 -0.013 l -11.154,0.124 8.788,-4.857 c 0.268,-0.103 0.513,-0.195 0.729,-0.261 0.205,-0.064 0.39,-0.104 0.553,-0.119 l 0.042,-0.006 c 0.146,-0.03 0.305,-0.035 0.472,-0.02 0.173,0.016 0.344,0.047 0.511,0.096 0.033,0.009 0.059,0.016 0.091,0.024 l 0.075,0.061 0.111,0.005 c 0.054,0.025 0.113,0.045 0.173,0.056 0.03,0.01 0.058,0.023 0.08,0.04 0.011,0.004 0.025,0.021 0.038,0.034 l 0.774,-0.435 -2.288,-5.729 -0.863,0.135 c -0.007,0.101 -0.029,0.199 -0.067,0.296 -0.041,0.104 -0.101,0.215 -0.181,0.325 -0.094,0.136 -0.193,0.266 -0.29,0.391 -0.092,0.12 -0.193,0.236 -0.292,0.355 -0.043,0.039 -0.083,0.076 -0.122,0.105 -0.072,0.05 -0.147,0.117 -0.219,0.192 -0.04,0.028 -0.085,0.063 -0.133,0.1 -0.057,0.039 -0.118,0.083 -0.183,0.13 l -0.009,0.003 c -0.101,0.076 -0.197,0.132 -0.284,0.177 -0.102,0.05 -0.187,0.091 -0.25,0.113 l -0.108,0.047 -12.523,6.895 -0.011,0.006 c -0.077,0.05 -0.165,0.094 -0.263,0.144 -0.102,0.051 -0.194,0.089 -0.279,0.124 l -0.161,0.063 c -0.068,0.028 -0.129,0.063 -0.189,0.103 l -0.189,0.079 c -0.142,0.057 -0.261,0.102 -0.359,0.132 -0.071,0.02 -0.115,0.027 -0.139,0.027 l -0.056,-0.007 -0.043,0.01 c -0.048,0.005 -0.092,0.005 -0.137,0.005 -0.04,-0.005 -0.082,-0.015 -0.123,-0.029 -0.051,-0.02 -0.112,-0.046 -0.18,-0.065 -0.036,-0.016 -0.078,-0.032 -0.128,-0.05 l -0.085,-0.031 c 0.003,0 -0.01,-0.004 -0.045,-0.026 -0.064,-0.035 -0.118,-0.059 -0.165,-0.073 l -0.272,-0.102 -0.925,-0.335 2.086,5.429 0.532,1.326 13.654,-0.106 -10.227,8.699 2.99,7.497 0.274,-1.554 c 0.031,-0.171 0.071,-0.327 0.12,-0.463 0.046,-0.134 0.102,-0.254 0.165,-0.36 l 0.02,-0.036 c 0.026,-0.049 0.05,-0.092 0.077,-0.125 0.023,-0.029 0.042,-0.048 0.062,-0.065 l 0.047,-0.041 c 0.059,-0.066 0.1,-0.101 0.123,-0.119 0.053,-0.042 0.101,-0.079 0.152,-0.119 l 0.045,-0.043 c 0.011,-0.009 0.021,-0.017 0.03,-0.025 0.01,-0.005 0.016,-0.009 0.023,-0.011 l 0.345,-0.137 0.073,0.003 0.081,-0.035 c 0.009,-0.006 0.016,-0.008 0.024,-0.008 0.013,-0.001 0.02,-0.001 0.029,-0.001 l 0.08,0.001 0.072,-0.017 14.476,-3.881 0.023,-0.01 c 0.099,-0.041 0.15,-0.054 0.172,-0.059 0.041,-0.011 0.083,-0.017 0.124,-0.021 l 0.07,-0.006 0.012,-0.006 0.078,0.033 0.158,-0.067 h 0.039 l 0.046,0.006 0.047,-0.01 C -0.257,6.49 -0.024,6.47 0.203,6.47 h 0.033 c 0.22,0 0.443,0.014 0.665,0.047 0.196,0.032 0.381,0.093 0.548,0.172 0.156,0.076 0.288,0.177 0.409,0.31 l 0.747,-0.47 z m -22.08,-38.806 -0.755,0.457 c 0.061,0.164 0.096,0.316 0.104,0.451 0.007,0.126 -0.002,0.237 -0.031,0.327 -0.03,0.098 -0.07,0.19 -0.116,0.271 -0.043,0.073 -0.097,0.134 -0.156,0.19 -0.048,0.044 -0.101,0.085 -0.155,0.123 -0.029,0.022 -0.063,0.041 -0.105,0.05 -0.073,0.025 -0.142,0.057 -0.205,0.091 -0.026,0.015 -0.052,0.035 -0.078,0.051 -0.04,0.013 -0.08,0.034 -0.121,0.054 -0.006,0.006 -0.023,0.01 -0.04,0.021 l -0.016,0.004 c -0.035,0.011 -0.073,0.019 -0.111,0.037 -0.045,0.013 -0.088,0.023 -0.127,0.038 -0.057,0.021 -0.116,0.041 -0.178,0.066 -0.054,0.025 -0.099,0.045 -0.14,0.07 l -4.521,1.897 -3.397,-3.741 2.614,-4.601 c 0.057,-0.075 0.112,-0.151 0.164,-0.22 0.068,-0.091 0.119,-0.166 0.158,-0.23 0.014,-0.021 0.025,-0.035 0.038,-0.05 l 0.116,-0.101 c 0.073,-0.069 0.142,-0.12 0.207,-0.16 0.057,-0.041 0.113,-0.064 0.163,-0.08 0.053,-0.02 0.114,-0.028 0.177,-0.036 0.084,-0.004 0.147,-0.004 0.21,0.008 l 0.034,0.003 h 0.035 c 0.065,0 0.136,-0.003 0.219,-0.015 h 0.045 c 0.062,0.02 0.118,0.03 0.175,0.034 l 0.062,0.022 h 0.082 -0.011 c -0.009,0 -0.089,-0.022 -0.167,-0.107 l 0.665,-0.604 -4.45,-4.898 -0.574,0.52 -0.147,-0.015 v 0.009 c -0.013,-0.028 -0.018,-0.054 -0.018,-0.079 0.002,0.051 0.005,0.096 0.012,0.141 -0.002,0.055 -0.002,0.104 0,0.155 0.003,0.054 0.009,0.111 0.018,0.165 0.012,0.377 -0.003,0.717 -0.037,1.02 -0.039,0.309 -0.104,0.599 -0.191,0.857 -0.092,0.271 -0.194,0.527 -0.3,0.751 -0.097,0.207 -0.196,0.386 -0.288,0.538 l -0.057,0.053 -7.575,14.082 -0.002,0.035 c -0.05,0.06 -0.103,0.126 -0.15,0.199 l -0.015,0.021 c -0.026,0.041 -0.05,0.077 -0.079,0.111 -0.021,0.029 -0.049,0.06 -0.08,0.085 -0.09,0.081 -0.181,0.145 -0.27,0.19 -0.044,0.025 -0.085,0.034 -0.122,0.03 l -0.05,-0.005 -0.048,0.005 c -0.095,0.011 -0.196,0.011 -0.306,0 -0.12,-0.009 -0.242,-0.03 -0.365,-0.055 l -1.299,-0.254 3.778,4.28 0.964,1.062 17.754,-7.045 c 0.262,-0.102 0.501,-0.177 0.698,-0.221 0.203,-0.045 0.399,-0.086 0.579,-0.11 0.177,-0.016 0.36,-0.031 0.551,-0.045 0.161,-0.01 0.313,-0.01 0.457,-0.006 0.085,0.02 0.178,0.025 0.271,0.01 0.021,-0.004 0.04,-0.004 0.054,-0.004 h 0.107 0.13 c 0.07,0.01 0.142,0.014 0.218,0.004 l 0.03,0.015 0.078,-0.005 c 0.034,0.005 0.064,0.005 0.09,0.011 0.027,0 0.043,0.004 0.048,0.01 l 0.477,-0.727 z m -25.501,-23.717 c -0.114,-0.067 -0.252,-0.117 -0.403,-0.152 -0.121,-0.029 -0.25,-0.055 -0.381,-0.075 l -0.043,-0.005 c -0.15,-0.011 -0.295,-0.015 -0.434,-0.02 -0.146,-0.004 -0.306,0.005 -0.464,0.025 -0.152,0.006 -0.291,0.016 -0.421,0.025 -0.139,0.011 -0.285,0.025 -0.432,0.045 l -0.049,0.011 c -0.147,0.034 -0.287,0.07 -0.42,0.099 -0.136,0.037 -0.27,0.071 -0.401,0.116 -0.082,0.016 -0.158,0.03 -0.225,0.055 -0.051,0.02 -0.103,0.036 -0.158,0.054 l -0.065,0.027 -0.053,0.04 c -0.017,0.009 -0.038,0.025 -0.06,0.035 -0.022,0.01 -0.052,0.024 -0.09,0.034 l -0.046,0.021 -13.465,6.549 4.82,-8.727 c 0.206,-0.37 0.403,-0.678 0.584,-0.897 0.17,-0.21 0.342,-0.377 0.511,-0.497 0.168,-0.104 0.364,-0.195 0.588,-0.274 0.229,-0.081 0.491,-0.136 0.777,-0.171 l -0.04,-0.35 0.255,-0.462 -5.549,-3.063 -0.596,0.63 c 0.015,0.026 0.033,0.056 0.056,0.101 0.029,0.054 0.064,0.116 0.107,0.17 0.014,0.029 0.027,0.066 0.038,0.094 0.015,0.045 0.027,0.086 0.036,0.12 l 0.01,0.051 0.024,0.051 c 0.061,0.125 0.109,0.26 0.138,0.403 0.033,0.167 0.054,0.337 0.073,0.514 -0.004,0.148 -0.032,0.339 -0.084,0.57 -0.061,0.245 -0.151,0.531 -0.267,0.851 l -0.013,0.025 -6.736,12.188 c -0.218,0.39 -0.437,0.731 -0.658,1.002 -0.21,0.261 -0.404,0.456 -0.572,0.577 -0.187,0.125 -0.362,0.229 -0.524,0.304 -0.149,0.07 -0.286,0.115 -0.408,0.134 h -0.038 c -0.045,-0.014 -0.09,-0.019 -0.138,-0.019 h -0.013 c -0.07,0.005 -0.137,0.015 -0.205,0.041 -0.02,0.003 -0.036,0.009 -0.055,0.009 -0.042,0.006 -0.08,0.006 -0.113,0.006 l -0.054,0.004 -0.147,0.021 -1.079,0.37 1.894,1.042 c 0.225,0.104 0.47,0.224 0.729,0.37 l 3.097,1.713 14.659,-7.041 -4.572,8.271 c -0.201,0.371 -0.426,0.692 -0.66,0.963 -0.231,0.262 -0.471,0.48 -0.716,0.662 -0.237,0.139 -0.461,0.23 -0.677,0.268 -0.203,0.037 -0.402,0.026 -0.593,-0.025 l -0.341,0.823 4.783,2.713 1.723,0.952 -0.076,-0.842 c -0.015,-0.17 -0.058,-0.309 -0.132,-0.431 -0.024,-0.034 -0.046,-0.074 -0.066,-0.124 l -0.027,-0.056 -0.04,-0.044 c -0.018,-0.02 -0.03,-0.039 -0.038,-0.06 -0.01,-0.016 -0.015,-0.03 -0.02,-0.051 l -0.014,-0.06 -0.029,-0.056 c -0.056,-0.099 -0.108,-0.228 -0.144,-0.375 -0.04,-0.14 -0.061,-0.29 -0.061,-0.439 l -0.003,-0.026 c -0.002,-0.055 0,-0.221 0.116,-0.6 0.092,-0.312 0.238,-0.682 0.433,-1.107 l 9.028,-16.345 z m -38.283,-14.769 c -0.402,-0.184 -0.826,-0.35 -1.268,-0.506 -0.422,-0.15 -0.868,-0.295 -1.326,-0.44 -0.455,-0.17 -0.919,-0.309 -1.374,-0.425 -0.456,-0.111 -0.924,-0.211 -1.388,-0.29 l -0.019,-0.006 -1.799,-0.235 c -0.754,-0.1 -1.503,-0.151 -2.235,-0.151 -0.77,0 -1.538,0.055 -2.284,0.167 -1.455,0.215 -2.879,0.654 -4.239,1.309 -1.41,0.674 -2.562,1.705 -3.424,3.071 -0.849,1.347 -1.431,3.035 -1.728,5.008 l -0.013,0.11 c -0.085,1.953 0.114,3.686 0.586,5.158 0.481,1.492 1.263,2.743 2.318,3.721 1.036,0.95 2.191,1.728 3.438,2.314 1.245,0.58 2.604,0.98 4.041,1.191 l 1.137,0.18 c 0.382,0.03 0.77,0.056 1.142,0.075 0.375,0.014 0.771,0.031 1.174,0.04 0.389,0.011 0.776,0.004 1.164,-0.006 0.398,-0.009 0.812,-0.043 1.225,-0.094 l 0.342,-0.045 0.574,-4.357 -1.71,-0.225 -0.135,0.085 c -0.379,0.236 -0.764,0.446 -1.147,0.635 -0.366,0.18 -0.753,0.312 -1.156,0.391 h -0.013 c -0.324,0.076 -0.651,0.126 -0.971,0.155 -0.31,0.025 -0.616,0.025 -0.916,0.005 -0.777,-0.16 -1.516,-0.455 -2.197,-0.871 -0.693,-0.424 -1.342,-0.99 -1.925,-1.676 -0.658,-0.752 -1.122,-1.612 -1.383,-2.559 -0.26,-0.953 -0.317,-2.018 -0.165,-3.161 l 0.011,-0.077 0.043,-0.119 0.045,-0.34 c 0.254,-1.246 0.612,-2.307 1.063,-3.16 0.438,-0.83 0.991,-1.491 1.638,-1.958 0.667,-0.489 1.357,-0.87 2.041,-1.137 0.678,-0.259 1.386,-0.423 2.097,-0.489 0.101,-0.012 0.194,-0.019 0.281,-0.025 0.072,-0.01 0.143,-0.022 0.217,-0.026 0.091,0.01 0.191,0.01 0.297,0 0.062,-0.006 0.115,-0.006 0.157,0 l 0.282,0.035 0.058,-0.025 0.004,0.006 c 0.235,0.045 0.47,0.104 0.7,0.165 0.236,0.06 0.45,0.126 0.645,0.188 0.259,0.092 0.497,0.192 0.712,0.288 0.11,0.049 0.213,0.1 0.306,0.145 l -0.572,4.347 c -0.047,0.366 -0.112,0.716 -0.189,1.035 -0.073,0.302 -0.167,0.562 -0.279,0.786 l -0.011,0.026 c -0.086,0.202 -0.211,0.375 -0.379,0.536 -0.186,0.175 -0.402,0.325 -0.649,0.457 l -1.208,0.645 5.689,0.83 1.749,0.23 -0.165,-0.76 -0.02,-0.151 c -0.018,-0.089 -0.034,-0.19 -0.043,-0.294 -0.007,-0.096 -0.007,-0.186 0.004,-0.277 l 1.07,-8.116 0.036,-0.057 0.013,-0.099 c 0.005,-0.039 0.014,-0.075 0.024,-0.115 0.011,-0.04 0.028,-0.08 0.046,-0.121 0.015,-0.041 0.039,-0.081 0.064,-0.124 0.045,-0.071 0.088,-0.15 0.119,-0.225 l 0.186,-0.406 z m -35.551,18.134 c -0.126,-0.12 -0.247,-0.201 -0.381,-0.237 -0.043,-0.015 -0.087,-0.031 -0.133,-0.049 l -0.056,-0.027 -0.064,-0.008 c -0.024,-0.006 -0.047,-0.01 -0.063,-0.016 -0.022,-0.01 -0.036,-0.016 -0.051,-0.029 l -0.051,-0.035 -0.057,-0.019 c -0.111,-0.041 -0.23,-0.103 -0.358,-0.188 -0.123,-0.079 -0.235,-0.18 -0.336,-0.29 l -0.02,-0.019 c -0.037,-0.041 -0.143,-0.165 -0.311,-0.527 -0.133,-0.295 -0.272,-0.67 -0.407,-1.116 l -4.044,-18.227 -1.527,0.34 c -0.134,0.025 -0.263,0.076 -0.403,0.151 -0.115,0.059 -0.228,0.13 -0.338,0.199 l -0.034,0.021 c -0.114,0.088 -0.227,0.186 -0.338,0.275 -0.114,0.094 -0.227,0.205 -0.332,0.327 -0.108,0.104 -0.205,0.204 -0.299,0.294 -0.097,0.106 -0.197,0.211 -0.295,0.32 l -0.03,0.041 c -0.085,0.124 -0.167,0.24 -0.248,0.354 -0.08,0.111 -0.155,0.232 -0.224,0.352 -0.053,0.064 -0.095,0.126 -0.131,0.19 -0.028,0.046 -0.056,0.095 -0.083,0.144 l -0.032,0.061 -0.015,0.064 c -0.005,0.021 -0.011,0.045 -0.02,0.067 -0.009,0.023 -0.025,0.055 -0.042,0.09 l -0.023,0.044 -5.765,13.816 -2.157,-9.73 c -0.094,-0.415 -0.146,-0.772 -0.158,-1.062 -0.01,-0.265 0.011,-0.505 0.056,-0.706 0.054,-0.188 0.142,-0.388 0.26,-0.595 0.119,-0.215 0.279,-0.431 0.468,-0.64 l -0.26,-0.237 -0.116,-0.515 h -0.005 l -6.182,1.373 -0.026,0.866 c 0.024,0.01 0.059,0.02 0.102,0.04 0.06,0.021 0.126,0.039 0.196,0.055 0.03,0.014 0.061,0.029 0.092,0.047 0.041,0.022 0.074,0.045 0.105,0.067 l 0.042,0.03 0.051,0.021 c 0.128,0.051 0.253,0.125 0.369,0.216 0.134,0.1 0.266,0.214 0.394,0.334 0.097,0.111 0.203,0.275 0.313,0.482 0.117,0.22 0.241,0.495 0.364,0.816 l 3.02,13.62 c 0.099,0.441 0.156,0.837 0.171,1.187 0.016,0.334 -0.002,0.605 -0.054,0.811 -0.052,0.219 -0.113,0.412 -0.186,0.576 -0.065,0.144 -0.138,0.27 -0.216,0.372 -0.01,0.009 -0.019,0.014 -0.029,0.024 -0.045,0.02 -0.083,0.049 -0.118,0.079 -0.052,0.051 -0.1,0.106 -0.138,0.177 -0.005,0.01 -0.018,0.024 -0.03,0.038 -0.031,0.031 -0.057,0.056 -0.079,0.081 l -0.041,0.039 -0.097,0.112 -0.56,0.991 2.107,-0.47 c 0.237,-0.07 0.501,-0.142 0.789,-0.206 l 3.457,-0.766 6.332,-14.978 2.048,9.228 c 0.089,0.411 0.138,0.802 0.138,1.158 0.003,0.346 -0.032,0.675 -0.1,0.97 -0.083,0.257 -0.193,0.478 -0.329,0.649 -0.129,0.164 -0.28,0.284 -0.46,0.374 l 0.29,0.84 5.381,-1.13 1.918,-0.421 z m -37.408,5.908 c -0.291,-1.389 -0.892,-2.823 -1.788,-4.267 l -0.011,-0.015 c -0.072,-0.109 -0.151,-0.22 -0.236,-0.325 -0.069,-0.091 -0.134,-0.179 -0.199,-0.275 l -0.036,-0.044 c -0.092,-0.106 -0.173,-0.207 -0.242,-0.299 -0.083,-0.097 -0.165,-0.198 -0.254,-0.296 -0.173,-0.223 -0.362,-0.438 -0.562,-0.629 -0.193,-0.19 -0.404,-0.379 -0.62,-0.566 -0.792,-0.701 -1.686,-1.301 -2.656,-1.782 -0.966,-0.481 -2.029,-0.851 -3.161,-1.092 -0.573,-0.135 -1.16,-0.201 -1.738,-0.201 -0.586,0 -1.18,0.07 -1.763,0.205 -1.138,0.272 -2.301,0.798 -3.455,1.569 l -0.929,0.621 c -1.462,0.974 -2.627,2.074 -3.463,3.244 -0.846,1.193 -1.369,2.507 -1.557,3.916 -0.189,1.382 -0.135,2.769 0.155,4.122 0.288,1.342 0.819,2.687 1.578,3.995 l 0.049,0.075 c 0.133,0.202 0.289,0.416 0.464,0.641 0.173,0.225 0.366,0.466 0.573,0.708 0.111,0.129 0.226,0.255 0.339,0.37 0.112,0.113 0.23,0.229 0.35,0.345 l 0.009,0.01 c 0.111,0.095 0.224,0.2 0.339,0.306 0.125,0.114 0.256,0.22 0.393,0.318 0.758,0.649 1.617,1.199 2.554,1.635 0.936,0.435 1.973,0.76 3.077,0.971 1.134,0.24 2.321,0.198 3.523,-0.114 1.182,-0.318 2.411,-0.892 3.652,-1.724 l 0.954,-0.601 c 1.221,-0.842 2.229,-1.822 3.002,-2.919 0.779,-1.105 1.325,-2.355 1.626,-3.721 0.316,-1.37 0.326,-2.785 0.033,-4.181 m -28.736,25.328 -1.078,1.411 0.051,0.211 c 0.058,0.24 0.077,0.512 0.058,0.798 -0.018,0.278 -0.086,0.559 -0.201,0.83 l -0.011,0.025 c -0.082,0.229 -0.197,0.475 -0.335,0.72 -0.137,0.243 -0.287,0.481 -0.445,0.722 -0.077,0.076 -0.15,0.155 -0.218,0.24 l -0.179,0.236 c -0.128,0.139 -0.264,0.29 -0.402,0.455 -0.042,0.049 -0.087,0.1 -0.13,0.151 l -3.733,-2.84 0.668,-0.876 0.018,-0.041 c 0.09,-0.176 0.186,-0.33 0.288,-0.466 0.107,-0.138 0.215,-0.264 0.318,-0.37 l 0.038,-0.044 c 0.073,-0.096 0.147,-0.17 0.22,-0.219 0.088,-0.063 0.175,-0.112 0.266,-0.152 l 0.099,-0.045 1.06,-1.313 -3.438,-2.618 -1.082,1.418 0.058,0.213 c 0.035,0.13 0.047,0.272 0.04,0.428 -0.011,0.165 -0.043,0.345 -0.1,0.536 -0.073,0.215 -0.163,0.42 -0.263,0.616 -0.103,0.194 -0.226,0.39 -0.365,0.574 l -0.051,0.062 -0.025,0.084 -0.237,0.316 -5.191,-3.957 c 0.018,-0.029 0.032,-0.06 0.046,-0.095 l 0.107,-0.145 -0.009,-0.045 0.004,-0.005 c 0.122,-0.23 0.247,-0.466 0.373,-0.697 0.123,-0.229 0.252,-0.465 0.385,-0.706 0.082,-0.14 0.165,-0.274 0.246,-0.41 l 0.032,-0.056 c 0.073,-0.125 0.148,-0.249 0.225,-0.38 0.049,-0.036 0.091,-0.08 0.129,-0.13 l 0.077,-0.099 c 0.113,-0.122 0.233,-0.236 0.355,-0.352 0.131,-0.12 0.263,-0.24 0.396,-0.349 0.12,-0.096 0.253,-0.191 0.397,-0.286 0.156,-0.106 0.313,-0.209 0.473,-0.321 0.312,-0.191 0.648,-0.345 1.003,-0.469 0.357,-0.127 0.761,-0.223 1.196,-0.283 l 0.176,-0.025 1.231,-1.526 -5.147,-1.563 -8.518,11.181 1.16,-0.224 c 0.097,-0.021 0.202,-0.03 0.31,-0.034 0.125,-0.007 0.245,-0.007 0.365,0 h 0.023 0.025 c 0.019,-0.007 0.042,-0.007 0.062,0 0.06,0.009 0.126,0.019 0.196,0.024 0.065,0.016 0.141,0.019 0.223,0.025 0.029,0 0.048,0 0.06,0.004 0.093,0.032 0.19,0.06 0.292,0.097 0.089,0.029 0.178,0.07 0.266,0.118 0.098,0.056 0.198,0.116 0.293,0.176 0.095,0.066 0.198,0.135 0.301,0.216 l 0.049,0.035 11.253,8.574 c 0.2,0.155 0.41,0.331 0.62,0.518 0.208,0.198 0.419,0.393 0.621,0.598 0.161,0.18 0.293,0.394 0.398,0.636 0.108,0.25 0.174,0.54 0.198,0.861 l 0.088,1.162 6.277,-8.122 0.025,-0.082 c 0.017,-0.058 0.045,-0.113 0.079,-0.16 0.054,-0.069 0.111,-0.13 0.174,-0.191 l 0.03,-0.024 0.025,-0.034 c 0.017,-0.021 0.037,-0.045 0.057,-0.061 0.026,-0.025 0.05,-0.041 0.078,-0.059 l 0.067,-0.045 0.013,-0.016 c 0.076,-0.034 0.143,-0.069 0.205,-0.11 l 0.063,-0.04 1.037,-1.286 z m -21.666,26.669 c -0.037,-0.093 -0.069,-0.194 -0.097,-0.3 -0.033,-0.13 -0.066,-0.271 -0.097,-0.416 -0.041,-0.165 -0.083,-0.325 -0.128,-0.479 -0.049,-0.155 -0.098,-0.322 -0.156,-0.486 -0.132,-0.366 -0.293,-0.727 -0.478,-1.077 -0.185,-0.35 -0.401,-0.706 -0.644,-1.061 -0.26,-0.376 -0.565,-0.697 -0.913,-0.962 -0.348,-0.266 -0.747,-0.476 -1.177,-0.627 -0.81,-0.284 -1.602,-0.425 -2.359,-0.425 -0.213,0 -0.426,0.011 -0.634,0.03 -0.955,0.105 -1.867,0.452 -2.704,1.026 -0.808,0.544 -1.522,1.231 -2.118,2.05 -0.588,0.806 -1.086,1.755 -1.479,2.817 l -0.371,1.067 c -0.116,0.326 -0.215,0.66 -0.301,1.003 -0.082,0.341 -0.152,0.684 -0.208,1.036 -0.054,0.344 -0.107,0.706 -0.154,1.061 -0.046,0.365 -0.081,0.736 -0.098,1.111 l -0.005,0.051 0.01,0.051 c 0,0.005 0,0.009 0.003,0.009 l -0.028,0.075 c -0.03,0.091 -0.043,0.186 -0.033,0.281 -0.005,0.085 -0.002,0.169 0.008,0.255 0.005,0.044 0.005,0.095 0.002,0.145 l -0.017,0.287 4.251,2.303 0.608,-1.743 -0.097,-0.176 c -0.162,-0.296 -0.303,-0.591 -0.418,-0.885 -0.114,-0.281 -0.198,-0.574 -0.258,-0.858 -0.027,-0.166 -0.055,-0.32 -0.081,-0.466 -0.022,-0.13 -0.037,-0.264 -0.043,-0.41 l -0.003,-0.024 c -0.016,-0.136 -0.03,-0.281 -0.043,-0.433 -0.01,-0.134 -0.015,-0.264 -0.01,-0.378 V 2.184 2.174 c -0.004,-0.122 -0.005,-0.237 -0.007,-0.356 -0.003,-0.095 0.003,-0.186 0.017,-0.271 l 0.007,-0.054 -0.004,-0.051 c -0.005,-0.065 -0.003,-0.141 0.01,-0.216 l 0.002,-0.019 c 0.017,-0.107 0.032,-0.205 0.05,-0.311 0.02,-0.121 0.043,-0.225 0.067,-0.326 0.023,-0.085 0.048,-0.175 0.079,-0.26 0.159,-0.339 0.337,-0.66 0.528,-0.946 0.18,-0.275 0.393,-0.505 0.628,-0.696 0.301,-0.246 0.609,-0.426 0.921,-0.536 0.298,-0.111 0.616,-0.146 0.95,-0.111 0.064,0.006 0.129,0.016 0.187,0.032 0.07,0.014 0.145,0.024 0.223,0.035 l 0.055,0.018 c 0.059,0.02 0.121,0.037 0.187,0.037 l 0.131,0.045 c 0.168,0.06 0.32,0.129 0.461,0.21 0.123,0.076 0.227,0.165 0.322,0.27 l 0.028,0.03 c 0.048,0.045 0.095,0.096 0.138,0.155 l 0.145,0.189 c 0.04,0.102 0.093,0.202 0.152,0.298 0.04,0.058 0.079,0.134 0.117,0.219 0.051,0.155 0.108,0.317 0.17,0.485 0.059,0.161 0.119,0.341 0.178,0.532 0.062,0.195 0.122,0.395 0.176,0.601 0.057,0.196 0.109,0.405 0.156,0.625 l 0.621,3.356 c -0.017,0.06 -0.022,0.126 -0.017,0.19 l -0.008,0.024 v 0.076 c 0,0.085 0.008,0.161 0.02,0.225 0.005,0.04 0.013,0.085 0.02,0.125 0.018,0.101 0.045,0.211 0.083,0.331 0.033,0.104 0.065,0.201 0.097,0.29 0.111,0.406 0.253,0.807 0.423,1.191 0.175,0.397 0.404,0.803 0.676,1.207 0.283,0.421 0.619,0.797 0.997,1.111 0.377,0.315 0.821,0.581 1.314,0.798 l 0.089,0.033 c 1.013,0.352 1.97,0.493 2.843,0.418 0.891,-0.079 1.711,-0.395 2.431,-0.945 0.704,-0.501 1.307,-1.093 1.795,-1.765 0.486,-0.669 0.879,-1.427 1.167,-2.253 l 0.429,-1.122 -0.003,-0.085 v -0.01 l 0.151,-0.431 -0.014,-0.06 0.148,-0.419 0.006,-0.066 c 0.002,-0.036 0.009,-0.07 0.025,-0.117 l 0.092,-0.274 c 0.032,-0.154 0.072,-0.316 0.118,-0.476 0.052,-0.183 0.093,-0.381 0.118,-0.581 0.055,-0.223 0.095,-0.459 0.117,-0.691 0.02,-0.209 0.045,-0.419 0.072,-0.621 0.03,-0.225 0.049,-0.429 0.053,-0.612 0.003,-0.189 -0.002,-0.363 -0.023,-0.523 l -0.03,-0.28 -3.882,-1.359 -0.564,1.617 0.043,0.147 c 0.08,0.25 0.154,0.536 0.228,0.845 0.069,0.306 0.127,0.636 0.169,0.99 0.042,0.352 0.062,0.698 0.058,1.037 -0.007,0.343 -0.037,0.684 -0.089,1.014 l -0.006,0.038 c -0.005,0.056 -0.012,0.117 -0.025,0.18 -0.017,0.072 -0.027,0.142 -0.035,0.211 -0.067,0.13 -0.151,0.257 -0.245,0.375 -0.123,0.151 -0.263,0.307 -0.413,0.452 -0.189,0.175 -0.411,0.32 -0.662,0.436 -0.252,0.11 -0.552,0.184 -0.887,0.225 -0.079,0.006 -0.152,0.011 -0.224,0.011 -0.07,0.003 -0.146,0.009 -0.228,0.013 -0.055,-0.004 -0.105,-0.013 -0.15,-0.024 -0.053,-0.01 -0.108,-0.026 -0.167,-0.045 -0.249,-0.091 -0.482,-0.241 -0.691,-0.447 -0.223,-0.218 -0.42,-0.508 -0.585,-0.866 -0.177,-0.376 -0.325,-0.764 -0.436,-1.151 -0.109,-0.391 -0.181,-0.797 -0.221,-1.217 l -0.003,-0.031 -0.579,-3.503 z m 194.786,95.412 -0.002,-0.01 c -0.076,-0.546 -0.256,-1.045 -0.533,-1.48 -0.276,-0.435 -0.663,-0.811 -1.139,-1.114 -0.291,-0.182 -0.602,-0.32 -0.925,-0.41 -0.326,-0.09 -0.671,-0.126 -1.03,-0.11 -0.347,0.007 -0.674,0.062 -0.975,0.167 0.022,-0.283 0.025,-0.575 0.01,-0.871 -0.022,-0.378 -0.086,-0.762 -0.193,-1.145 -0.11,-0.425 -0.323,-0.826 -0.636,-1.191 -0.294,-0.349 -0.699,-0.682 -1.197,-0.995 l -0.018,-0.009 c -0.561,-0.321 -1.1,-0.541 -1.607,-0.648 -0.262,-0.058 -0.523,-0.088 -0.77,-0.088 -0.246,0 -0.486,0.027 -0.718,0.085 -0.437,0.086 -0.848,0.218 -1.223,0.392 -0.384,0.179 -0.734,0.399 -1.045,0.657 l -0.014,0.015 c -0.165,0.148 -0.322,0.297 -0.466,0.443 -0.146,0.148 -0.286,0.296 -0.411,0.438 l -0.023,0.031 c -0.121,0.162 -0.227,0.318 -0.32,0.465 l -3.258,5.175 0.597,0.631 c 0.018,-0.007 0.037,-0.018 0.06,-0.026 0.02,-0.009 0.037,-0.019 0.057,-0.028 0.021,-0.004 0.043,-0.011 0.063,-0.015 l 0.04,0.004 0.085,-0.02 c 0.076,-0.02 0.15,-0.027 0.225,-0.022 0.08,0.006 0.156,0.02 0.218,0.038 0.096,0.034 0.208,0.082 0.333,0.142 0.128,0.06 0.271,0.137 0.425,0.236 l 0.035,0.021 8.906,5.609 c 0.036,0.037 0.074,0.067 0.117,0.096 l 0.096,0.062 c 0.033,0.032 0.071,0.065 0.12,0.098 l 0.039,0.023 c 0.037,0.034 0.07,0.067 0.1,0.096 0.034,0.033 0.072,0.071 0.116,0.111 0.029,0.045 0.062,0.088 0.094,0.133 0.038,0.053 0.071,0.102 0.102,0.149 0.045,0.066 0.077,0.136 0.097,0.211 0.022,0.068 0.027,0.135 0.019,0.208 l 0.824,0.287 2.482,-3.862 0.426,-0.68 c 0.318,-0.56 0.552,-1.118 0.692,-1.659 0.145,-0.556 0.186,-1.11 0.125,-1.64 m -17.774,5.661 c -0.185,-0.167 -0.344,-0.327 -0.466,-0.478 -0.12,-0.146 -0.22,-0.285 -0.303,-0.416 -0.049,-0.103 -0.078,-0.202 -0.082,-0.308 -0.004,-0.097 0.019,-0.203 0.076,-0.318 l -0.74,-0.493 -2.764,3.069 0.083,0.078 c -0.11,0.048 -0.222,0.106 -0.331,0.171 -0.256,0.12 -0.523,0.294 -0.797,0.515 -0.27,0.223 -0.555,0.498 -0.845,0.819 l -0.519,0.577 c -0.547,0.609 -0.953,1.218 -1.203,1.809 -0.264,0.618 -0.36,1.24 -0.284,1.845 0.068,0.564 0.202,1.098 0.401,1.583 0.195,0.481 0.461,0.934 0.788,1.345 0.03,0.047 0.063,0.091 0.097,0.134 0.031,0.039 0.069,0.076 0.109,0.116 0.037,0.049 0.08,0.097 0.127,0.14 l 0.073,0.065 c 0.062,0.075 0.131,0.145 0.202,0.21 l 6.145,5.533 c 0.116,0.103 0.213,0.214 0.296,0.329 0.08,0.115 0.147,0.229 0.197,0.34 0.045,0.131 0.085,0.264 0.116,0.396 0.032,0.135 0.054,0.282 0.071,0.435 l 0.104,0.986 3.064,-3.321 1.11,-1.229 -0.871,-0.097 c -0.073,-0.009 -0.159,-0.025 -0.258,-0.044 -0.1,-0.021 -0.203,-0.048 -0.306,-0.084 -0.056,-0.017 -0.111,-0.034 -0.171,-0.056 -0.042,-0.015 -0.08,-0.033 -0.11,-0.05 l -0.05,-0.023 c -0.056,-0.023 -0.098,-0.042 -0.133,-0.062 -0.048,-0.028 -0.096,-0.058 -0.152,-0.091 l -0.018,-0.012 c -0.04,-0.02 -0.072,-0.043 -0.102,-0.063 -0.028,-0.017 -0.047,-0.035 -0.069,-0.053 l -0.045,-0.042 -0.061,-0.03 -0.097,-0.086 -5.649,-5.086 c -0.408,-0.367 -0.722,-0.717 -0.935,-1.042 -0.201,-0.306 -0.324,-0.591 -0.369,-0.852 -0.037,-0.29 -0.037,-0.558 -0.003,-0.795 0.037,-0.233 0.103,-0.449 0.198,-0.644 0.038,-0.066 0.072,-0.133 0.104,-0.205 0.013,-0.028 0.029,-0.053 0.053,-0.077 l 0.029,-0.034 c 0.272,-0.26 0.555,-0.471 0.84,-0.621 0.274,-0.143 0.553,-0.227 0.827,-0.252 0.084,-0.008 0.165,-0.011 0.24,-0.011 0.244,0 0.48,0.04 0.701,0.118 0.292,0.104 0.581,0.284 0.855,0.531 l 5.698,5.13 c 0.219,0.195 0.406,0.391 0.564,0.579 0.148,0.177 0.257,0.342 0.328,0.49 l 0.005,0.01 c 0.078,0.152 0.131,0.303 0.156,0.447 0.03,0.162 0.045,0.327 0.045,0.489 l 0.007,1.142 3.255,-3.533 1.162,-1.289 -0.954,-0.037 c -0.213,-0.011 -0.412,-0.039 -0.593,-0.083 -0.175,-0.042 -0.346,-0.108 -0.505,-0.195 -0.18,-0.098 -0.357,-0.211 -0.533,-0.339 -0.18,-0.128 -0.357,-0.269 -0.527,-0.423 z m -8.723,23.674 c -0.123,-0.107 -0.261,-0.252 -0.406,-0.431 l -6.276,-7.689 c 0.077,-0.094 0.157,-0.181 0.237,-0.263 0.167,-0.173 0.324,-0.338 0.464,-0.491 0.094,-0.093 0.189,-0.186 0.288,-0.273 0.099,-0.09 0.191,-0.178 0.28,-0.265 0.104,-0.071 0.205,-0.135 0.299,-0.195 0.095,-0.063 0.196,-0.121 0.298,-0.174 l 0.026,-0.012 c 0.134,-0.077 0.287,-0.148 0.446,-0.208 0.171,-0.062 0.345,-0.115 0.522,-0.16 l 0.024,-0.005 c 0.087,-0.025 0.174,-0.046 0.264,-0.06 0.106,-0.015 0.205,-0.029 0.305,-0.04 0.117,-0.01 0.231,-0.018 0.345,-0.023 0.087,-0.003 0.181,-0.005 0.282,-0.005 h 0.23 l 1.265,-0.974 -3.48,-2.038 -7.119,5.812 0.324,0.396 -0.048,0.373 c 0.046,0.008 0.095,0.009 0.148,0.004 0.022,0.002 0.045,0.002 0.07,0.002 l 0.057,0.009 0.043,-0.008 0.04,0.006 c 0.042,0.006 0.087,0.009 0.138,0.007 0.123,0.029 0.237,0.065 0.34,0.106 0.092,0.037 0.175,0.084 0.24,0.138 0.099,0.081 0.19,0.161 0.278,0.237 0.073,0.066 0.14,0.136 0.199,0.207 l 6.659,8.158 c 0.106,0.129 0.194,0.252 0.263,0.365 0.082,0.132 0.122,0.211 0.141,0.252 0.024,0.061 0.041,0.12 0.056,0.184 0.008,0.028 0.008,0.055 0.004,0.085 l -0.006,0.044 c 0,0.023 -0.002,0.049 -0.007,0.079 -0.01,0.054 -0.015,0.12 -0.021,0.196 -0.002,0.074 -0.002,0.146 0,0.218 0,0.072 0.006,0.148 0.014,0.226 l 0.075,0.828 3.637,-2.898 1.385,-1.132 -1.054,-0.163 -0.015,-0.017 -0.168,-0.025 c -0.048,-0.008 -0.097,-0.011 -0.145,-0.007 -0.037,-0.002 -0.072,-0.002 -0.109,10e-4 -0.024,0 -0.043,0 -0.066,0.003 l -0.005,-10e-4 c -0.023,0 -0.07,-0.007 -0.153,-0.039 -0.098,-0.036 -0.203,-0.076 -0.313,-0.118 -0.088,-0.054 -0.188,-0.127 -0.295,-0.222 m -12.088,6.71 c -0.215,0.378 -0.433,0.724 -0.644,1.027 -0.199,0.286 -0.418,0.535 -0.648,0.74 -0.181,0.166 -0.352,0.312 -0.514,0.436 -0.16,0.12 -0.321,0.236 -0.476,0.34 -0.487,0.231 -0.967,0.35 -1.42,0.356 h -0.034 c -0.446,0 -0.886,-0.105 -1.307,-0.313 -0.516,-0.254 -0.976,-0.578 -1.37,-0.957 -0.397,-0.385 -0.751,-0.843 -1.049,-1.365 l -0.132,-0.234 -0.005,-0.04 -0.041,-0.077 c -0.305,-0.581 -0.515,-1.189 -0.626,-1.808 -0.112,-0.625 -0.138,-1.281 -0.074,-1.954 0.054,-0.576 0.224,-1.099 0.503,-1.557 0.256,-0.425 0.611,-0.797 1.054,-1.109 h 0.036 l 0.111,-0.071 c 0.196,-0.127 0.391,-0.235 0.576,-0.318 0.18,-0.082 0.359,-0.142 0.526,-0.182 l 0.031,-0.008 c 0.17,-0.053 0.347,-0.094 0.53,-0.125 0.185,-0.03 0.378,-0.05 0.578,-0.058 l 0.013,-0.001 0.302,-0.023 c 0.082,-0.005 0.166,-0.006 0.252,-0.003 l 0.041,0.003 0.038,-0.005 c 0.08,-0.009 0.162,-0.014 0.242,-0.014 h 0.031 c 0.121,0.003 0.239,0.003 0.361,0.001 l 0.108,-0.001 1.329,-0.71 -2.499,-2.377 -0.195,0.012 c -0.252,0.016 -0.501,0.052 -0.741,0.108 -0.233,0.053 -0.466,0.126 -0.69,0.216 -0.209,0.072 -0.422,0.147 -0.63,0.223 -0.203,0.077 -0.403,0.162 -0.593,0.253 l -0.035,-0.013 -1.205,0.687 c -0.821,0.471 -1.547,1.047 -2.158,1.716 -0.61,0.67 -1.124,1.468 -1.527,2.373 -0.402,0.925 -0.562,1.909 -0.477,2.926 0.082,1 0.406,2.064 0.954,3.166 l 0.034,0.059 0.355,0.626 c 0.035,0.059 0.078,0.119 0.123,0.173 0.027,0.042 0.055,0.085 0.085,0.124 0.032,0.042 0.07,0.087 0.11,0.132 0.49,0.724 1.067,1.368 1.712,1.914 0.644,0.55 1.375,1.028 2.17,1.416 0.838,0.411 1.763,0.56 2.744,0.443 0.953,-0.114 1.982,-0.484 3.06,-1.098 l 0.72,-0.387 c 0.146,-0.099 0.295,-0.197 0.448,-0.293 0.167,-0.105 0.338,-0.223 0.51,-0.356 0.176,-0.117 0.354,-0.243 0.527,-0.375 0.172,-0.132 0.339,-0.261 0.506,-0.388 0.089,-0.071 0.182,-0.146 0.27,-0.223 0.093,-0.08 0.183,-0.162 0.265,-0.246 0.038,-0.039 0.076,-0.076 0.113,-0.114 0.01,-0.01 0.019,-0.017 0.027,-0.023 l 0.055,-0.031 0.046,-0.044 c 0.034,-0.038 0.072,-0.073 0.107,-0.111 0.04,-0.04 0.078,-0.077 0.115,-0.114 l 0.244,-0.242 -1.644,-2.876 -1.168,0.667 z m -29.14,0.695 -8.896,2.31 0.156,0.598 -0.16,0.244 c 0.009,0.007 0.019,0.013 0.033,0.021 -0.031,-0.01 -0.061,-0.023 -0.089,-0.041 0.038,0.024 0.079,0.043 0.123,0.06 0.019,0.009 0.041,0.02 0.062,0.028 l 0.051,0.035 0.04,0.01 0.035,0.021 c 0.035,0.025 0.076,0.046 0.121,0.065 0.1,0.077 0.189,0.157 0.267,0.237 0.067,0.075 0.123,0.151 0.161,0.227 0.054,0.115 0.105,0.225 0.153,0.331 0.039,0.091 0.07,0.182 0.09,0.27 l 0.132,0.5 2.519,9.694 c 0.04,0.159 0.069,0.308 0.088,0.441 0.018,0.156 0.021,0.243 0.018,0.289 -0.003,0.063 -0.009,0.129 -0.021,0.189 -0.004,0.028 -0.018,0.055 -0.032,0.078 l -0.024,0.039 c -0.012,0.023 -0.023,0.046 -0.042,0.069 -0.029,0.046 -0.061,0.103 -0.098,0.171 -0.034,0.064 -0.066,0.13 -0.092,0.196 -0.029,0.068 -0.059,0.139 -0.082,0.212 l -0.276,0.784 4.514,-1.117 1.73,-0.45 -0.891,-0.587 -0.005,-0.022 -0.146,-0.096 c -0.04,-0.026 -0.082,-0.047 -0.125,-0.063 -0.029,-0.018 -0.064,-0.035 -0.101,-0.046 -0.022,-0.012 -0.04,-0.019 -0.062,-0.026 l -0.002,-0.002 c -0.018,-0.01 -0.059,-0.034 -0.123,-0.099 -0.075,-0.075 -0.152,-0.154 -0.235,-0.239 -0.058,-0.084 -0.116,-0.193 -0.178,-0.325 -0.064,-0.149 -0.131,-0.337 -0.187,-0.56 l -2.496,-9.61 c 0.113,-0.049 0.219,-0.095 0.328,-0.138 0.222,-0.087 0.433,-0.172 0.626,-0.252 0.121,-0.045 0.249,-0.088 0.375,-0.128 0.128,-0.039 0.247,-0.082 0.365,-0.124 0.123,-0.019 0.241,-0.037 0.353,-0.052 0.113,-0.017 0.228,-0.028 0.343,-0.031 l 0.029,-0.002 c 0.155,-0.015 0.32,-0.017 0.493,-0.002 0.179,0.013 0.363,0.039 0.54,0.072 l 0.022,0.005 c 0.091,0.011 0.181,0.03 0.268,0.055 0.1,0.03 0.199,0.06 0.293,0.09 0.111,0.042 0.219,0.083 0.323,0.126 0.1,0.039 0.208,0.087 0.328,0.143 l 0.141,0.065 1.554,-0.358 z m -14.619,3.299 -9.143,0.921 0.062,0.614 -0.198,0.216 c 0.01,0.008 0.02,0.015 0.029,0.024 -0.029,-0.014 -0.059,-0.033 -0.085,-0.056 0.035,0.032 0.074,0.057 0.119,0.082 0.019,0.012 0.035,0.024 0.054,0.036 l 0.046,0.04 0.04,0.018 0.027,0.027 c 0.035,0.029 0.071,0.057 0.114,0.082 0.085,0.092 0.162,0.184 0.224,0.277 0.058,0.083 0.1,0.167 0.126,0.248 0.037,0.123 0.07,0.242 0.1,0.351 0.024,0.096 0.043,0.191 0.052,0.281 l 1.056,10.478 c 0.014,0.165 0.02,0.317 0.018,0.45 -0.004,0.156 -0.014,0.243 -0.024,0.288 -0.013,0.063 -0.03,0.125 -0.054,0.185 -0.009,0.026 -0.021,0.05 -0.043,0.072 l -0.029,0.035 c -0.012,0.019 -0.03,0.039 -0.051,0.059 -0.036,0.041 -0.079,0.093 -0.125,0.157 -0.04,0.054 -0.082,0.115 -0.119,0.177 -0.038,0.061 -0.078,0.128 -0.112,0.198 l -0.398,0.733 4.633,-0.414 1.78,-0.178 -0.788,-0.718 -0.004,-0.021 -0.126,-0.117 c -0.036,-0.032 -0.075,-0.06 -0.116,-0.082 -0.026,-0.023 -0.059,-0.044 -0.094,-0.063 -0.018,-0.012 -0.036,-0.023 -0.053,-0.033 l -0.004,-0.003 c -0.019,-0.013 -0.056,-0.045 -0.109,-0.117 -0.06,-0.085 -0.125,-0.176 -0.192,-0.272 -0.046,-0.092 -0.089,-0.208 -0.126,-0.346 -0.045,-0.158 -0.08,-0.354 -0.102,-0.586 l -0.995,-9.875 c 0.119,-0.034 0.233,-0.062 0.346,-0.087 0.233,-0.053 0.454,-0.104 0.655,-0.153 0.131,-0.025 0.261,-0.049 0.391,-0.068 0.134,-0.022 0.262,-0.045 0.381,-0.069 0.125,0 0.243,0 0.358,0.001 0.114,0.002 0.229,0.01 0.343,0.023 l 0.03,0.003 c 0.156,0.009 0.319,0.033 0.487,0.072 0.171,0.042 0.35,0.095 0.522,0.156 l 0.02,0.006 c 0.088,0.028 0.176,0.061 0.256,0.098 0.095,0.046 0.188,0.089 0.277,0.133 0.104,0.058 0.203,0.115 0.298,0.174 0.096,0.055 0.195,0.119 0.304,0.191 l 0.127,0.087 1.593,-0.116 z m -13.703,1.211 -4.873,-0.349 -0.227,0.85 c 0.094,0.049 0.174,0.1 0.232,0.154 0.051,0.05 0.091,0.097 0.111,0.14 0.03,0.056 0.05,0.11 0.059,0.161 0.011,0.046 0.016,0.088 0.011,0.131 -0.003,0.039 -0.007,0.08 -0.015,0.121 -0.002,0.01 -0.008,0.024 -0.015,0.039 -0.028,0.051 -0.052,0.109 -0.07,0.168 -0.005,0.017 -0.011,0.036 -0.015,0.055 -0.012,0.029 -0.025,0.06 -0.033,0.092 -0.014,0.026 -0.033,0.055 -0.048,0.085 l -0.002,0.006 c -0.015,0.025 -0.028,0.051 -0.041,0.078 -0.023,0.034 -0.041,0.077 -0.062,0.124 -0.018,0.038 -0.032,0.076 -0.043,0.112 l -1.32,3.02 -3.302,-0.237 -0.865,-3.458 c -0.008,-0.063 -0.016,-0.124 -0.022,-0.182 -0.008,-0.079 -0.022,-0.146 -0.034,-0.205 l 0.007,-0.108 c 0.003,-0.061 0.01,-0.114 0.024,-0.156 0.008,-0.037 0.019,-0.066 0.032,-0.088 0.013,-0.025 0.03,-0.049 0.053,-0.074 0.029,-0.032 0.057,-0.059 0.088,-0.079 l 0.028,-0.02 0.024,-0.023 c 0.034,-0.036 0.073,-0.076 0.11,-0.12 0.035,-0.018 0.064,-0.04 0.095,-0.063 l 0.047,-0.021 0.058,-0.056 c -0.013,0.013 -0.023,0.019 -0.025,0.02 -0.007,0.006 -0.019,0.013 -0.038,0.021 l 0.003,-0.004 -0.003,0.004 c -0.034,0.013 -0.087,0.029 -0.152,0.029 v -0.382 l 0.038,-0.512 -0.026,0.316 0.023,-0.317 -0.007,0.11 0.005,-0.11 -4.579,-0.327 -0.051,0.671 -0.191,0.148 c 0.008,0.009 0.018,0.019 0.025,0.029 -0.019,-0.011 -0.037,-0.024 -0.05,-0.04 0.021,0.022 0.045,0.044 0.072,0.064 0.02,0.027 0.047,0.053 0.071,0.076 0.03,0.03 0.064,0.057 0.095,0.082 0.179,0.175 0.33,0.346 0.453,0.509 0.122,0.166 0.221,0.333 0.299,0.498 0.081,0.174 0.151,0.346 0.204,0.507 0.043,0.136 0.079,0.261 0.103,0.373 l -0.004,0.058 2.964,10.761 c 0.004,0.046 0.009,0.093 0.018,0.14 l 0.005,0.029 c 0.005,0.024 0.01,0.048 0.013,0.072 v 0.059 c -0.005,0.074 -0.018,0.139 -0.039,0.192 -0.002,0.01 -0.004,0.014 -0.004,0.014 l -0.04,0.03 -0.029,0.033 c -0.036,0.045 -0.079,0.088 -0.13,0.127 -0.062,0.05 -0.129,0.097 -0.199,0.14 l -1.119,0.713 4.354,0.373 1.089,0.078 5.583,-12.135 c 0.08,-0.17 0.16,-0.314 0.233,-0.426 0.078,-0.115 0.155,-0.223 0.23,-0.321 0.083,-0.091 0.166,-0.185 0.253,-0.28 0.068,-0.076 0.138,-0.143 0.208,-0.204 0.063,-0.038 0.117,-0.09 0.165,-0.152 0.008,-0.008 0.013,-0.012 0.015,-0.018 l 0.108,-0.101 c 0.039,-0.028 0.075,-0.059 0.11,-0.096 l 0.015,-0.007 0.057,-0.055 c 0.011,-0.011 0.02,-0.019 0.031,-0.025 0.005,-0.004 0.008,-0.005 0.01,-0.007 z m -18.977,1.076 c -0.061,-0.533 -0.223,-1.008 -0.474,-1.41 -0.223,-0.386 -0.482,-0.736 -0.766,-1.035 -0.291,-0.305 -0.613,-0.567 -0.958,-0.78 l -0.018,-0.01 c -0.192,-0.106 -0.382,-0.208 -0.567,-0.299 -0.185,-0.09 -0.371,-0.174 -0.548,-0.247 l -0.033,-0.013 c -0.194,-0.063 -0.379,-0.114 -0.545,-0.155 l -5.948,-1.433 -0.406,0.769 c 0.014,0.011 0.03,0.026 0.044,0.044 0.017,0.016 0.032,0.031 0.044,0.046 0.013,0.019 0.026,0.037 0.037,0.056 l 0.008,0.039 0.046,0.073 c 0.043,0.066 0.074,0.134 0.092,0.206 0.023,0.081 0.033,0.153 0.036,0.219 -0.003,0.103 -0.011,0.225 -0.028,0.362 -0.015,0.141 -0.044,0.301 -0.088,0.477 l -2.479,10.272 c -0.024,0.045 -0.043,0.093 -0.052,0.14 l -0.028,0.113 c -0.022,0.042 -0.043,0.09 -0.055,0.144 l -0.01,0.042 c -0.02,0.048 -0.041,0.09 -0.06,0.129 -0.021,0.043 -0.046,0.092 -0.067,0.146 -0.033,0.041 -0.066,0.085 -0.098,0.131 -0.036,0.05 -0.07,0.099 -0.106,0.145 -0.049,0.062 -0.104,0.115 -0.171,0.159 -0.056,0.039 -0.118,0.066 -0.189,0.081 l -0.01,0.875 4.455,1.119 0.777,0.186 c 0.635,0.122 1.238,0.162 1.794,0.124 0.573,-0.041 1.109,-0.178 1.594,-0.405 l 0.009,-0.004 c 0.495,-0.248 0.908,-0.576 1.232,-0.978 0.325,-0.401 0.557,-0.886 0.69,-1.437 0.08,-0.333 0.114,-0.671 0.094,-1.006 -0.019,-0.34 -0.094,-0.678 -0.224,-1.013 -0.115,-0.324 -0.276,-0.617 -0.471,-0.869 0.277,-0.071 0.553,-0.16 0.829,-0.269 0.352,-0.141 0.695,-0.324 1.021,-0.549 0.37,-0.242 0.682,-0.572 0.929,-0.983 0.233,-0.393 0.421,-0.88 0.562,-1.452 l 0.002,-0.02 c 0.126,-0.634 0.157,-1.216 0.104,-1.73 m -17.521,-8.184 v 0 l -3.642,-1.491 -0.474,0.746 c 0.08,0.072 0.138,0.147 0.175,0.23 0.046,0.095 0.078,0.196 0.095,0.302 0.014,0.106 0.014,0.215 0,0.326 -0.017,0.115 -0.052,0.237 -0.102,0.36 l -0.015,0.041 -4.075,9.949 -0.245,-0.1 c -0.227,-0.122 -0.438,-0.247 -0.631,-0.367 -0.185,-0.118 -0.359,-0.244 -0.515,-0.376 -0.142,-0.141 -0.274,-0.289 -0.399,-0.439 -0.111,-0.134 -0.203,-0.274 -0.266,-0.412 l -0.079,-0.163 -1.416,-0.537 -0.658,3.64 1.265,0.519 0.195,-0.122 0.004,-0.003 c 0.01,0.003 0.023,0.006 0.037,0.013 l 0.058,0.023 0.062,0.007 c 0.007,0.001 0.019,0.004 0.042,0.012 l 0.171,0.07 6.618,2.758 0.592,0.241 c 0.023,0.024 0.048,0.05 0.077,0.078 0.051,0.052 0.106,0.101 0.165,0.144 l 0.043,0.035 1.316,0.582 0.432,-3.721 -1.318,-0.539 -0.21,0.223 c -0.017,0.017 -0.058,0.051 -0.155,0.089 -0.09,0.037 -0.201,0.061 -0.336,0.074 h -0.028 c -0.146,0 -0.288,-0.01 -0.425,-0.031 -0.141,-0.021 -0.286,-0.062 -0.432,-0.121 l -0.017,-0.006 -0.545,-0.198 4.068,-9.93 c 0.061,-0.148 0.121,-0.261 0.183,-0.34 0.044,-0.057 0.095,-0.099 0.155,-0.128 l 0.03,-0.017 c 0.086,-0.048 0.177,-0.091 0.273,-0.125 0.103,-0.034 0.201,-0.067 0.29,-0.094 l 0.132,-0.016 0.17,-0.035 0.981,-0.476 z m -12.755,-4.461 c -0.165,-0.834 -0.507,-1.601 -1.018,-2.275 -0.501,-0.661 -1.173,-1.262 -2.003,-1.785 l -0.654,-0.415 c -1.047,-0.661 -2.082,-1.101 -3.08,-1.303 -0.431,-0.087 -0.86,-0.132 -1.28,-0.132 -0.577,0 -1.15,0.083 -1.709,0.245 -0.946,0.278 -1.825,0.706 -2.613,1.28 -0.784,0.568 -1.501,1.294 -2.125,2.155 l -0.039,0.06 c -0.089,0.143 -0.186,0.305 -0.279,0.482 -0.098,0.177 -0.196,0.369 -0.291,0.573 -0.053,0.106 -0.104,0.217 -0.146,0.326 -0.037,0.101 -0.077,0.208 -0.12,0.323 l -0.006,0.013 c -0.028,0.097 -0.061,0.197 -0.095,0.299 -0.041,0.113 -0.074,0.233 -0.1,0.351 -0.199,0.672 -0.307,1.383 -0.319,2.11 -0.016,0.73 0.07,1.49 0.253,2.26 0.17,0.808 0.535,1.569 1.092,2.259 0.542,0.674 1.263,1.3 2.15,1.861 l 0.654,0.44 c 0.89,0.547 1.813,0.917 2.743,1.103 0.937,0.187 1.904,0.182 2.87,-0.017 0.981,-0.189 1.895,-0.586 2.718,-1.177 0.812,-0.584 1.566,-1.381 2.238,-2.372 l 0.007,-0.011 c 0.054,-0.081 0.104,-0.165 0.15,-0.252 0.035,-0.068 0.072,-0.132 0.112,-0.195 l 0.026,-0.052 c 0.041,-0.083 0.078,-0.16 0.117,-0.229 0.043,-0.08 0.083,-0.162 0.121,-0.248 0.094,-0.179 0.177,-0.362 0.245,-0.548 0.064,-0.177 0.129,-0.365 0.187,-0.561 0.225,-0.709 0.358,-1.456 0.392,-2.219 0.033,-0.763 -0.034,-1.551 -0.198,-2.349 m -16.159,-13.243 c -0.367,-0.747 -0.914,-1.466 -1.626,-2.136 l -0.564,-0.534 c -0.9,-0.851 -1.834,-1.479 -2.773,-1.867 -0.78,-0.323 -1.584,-0.486 -2.39,-0.486 -0.188,0 -0.377,0.009 -0.565,0.025 -0.983,0.09 -1.928,0.346 -2.812,0.756 -0.879,0.411 -1.721,0.986 -2.497,1.713 l -0.051,0.049 c -0.114,0.123 -0.239,0.264 -0.367,0.421 -0.127,0.156 -0.263,0.326 -0.393,0.504 -0.072,0.098 -0.143,0.197 -0.205,0.295 -0.057,0.091 -0.117,0.187 -0.18,0.292 l -0.006,0.012 c -0.049,0.089 -0.102,0.182 -0.154,0.275 -0.061,0.105 -0.116,0.215 -0.163,0.324 -0.324,0.624 -0.566,1.301 -0.719,2.011 -0.152,0.713 -0.216,1.475 -0.183,2.268 0.013,0.824 0.228,1.641 0.639,2.426 0.403,0.765 0.993,1.517 1.758,2.238 l 0.555,0.556 c 0.772,0.707 1.605,1.246 2.485,1.607 0.86,0.354 1.787,0.533 2.748,0.533 h 0.069 c 1.003,0 1.977,-0.213 2.896,-0.637 0.909,-0.419 1.799,-1.058 2.649,-1.899 l 0.009,-0.011 c 0.068,-0.069 0.13,-0.143 0.194,-0.219 0.046,-0.058 0.097,-0.114 0.148,-0.17 l 0.038,-0.044 c 0.054,-0.075 0.107,-0.145 0.156,-0.204 0.058,-0.074 0.114,-0.147 0.166,-0.22 0.128,-0.158 0.242,-0.323 0.345,-0.491 0.098,-0.16 0.195,-0.333 0.294,-0.515 0.356,-0.654 0.627,-1.363 0.806,-2.105 0.181,-0.742 0.266,-1.529 0.252,-2.341 0,-0.852 -0.186,-1.668 -0.559,-2.426 m -15.269,-16.884 -0.789,0.394 c 0.027,0.091 0.035,0.175 0.025,0.25 -0.01,0.095 -0.028,0.181 -0.056,0.258 -0.042,0.094 -0.087,0.188 -0.139,0.273 -0.043,0.072 -0.09,0.14 -0.144,0.205 -0.034,0.03 -0.069,0.063 -0.102,0.095 -0.012,0.016 -0.027,0.028 -0.045,0.041 l -0.075,0.057 -0.023,0.042 -0.173,0.133 c -0.044,0.033 -0.086,0.075 -0.124,0.12 l -8.112,6.212 c -0.123,0.096 -0.254,0.183 -0.387,0.265 -0.125,0.073 -0.244,0.136 -0.357,0.183 -0.107,0.035 -0.218,0.053 -0.336,0.056 -0.127,0 -0.275,-0.028 -0.44,-0.078 l -1.322,-0.404 4.334,5.747 0.596,0.776 0.012,0.002 h 0.002 c 0.012,0.031 0.026,0.057 0.032,0.083 l -0.022,0.118 0.837,1.157 2.858,-2.189 -0.893,-1.169 -0.245,0.022 c -0.11,0.011 -0.23,-0.007 -0.366,-0.053 -0.155,-0.049 -0.322,-0.132 -0.498,-0.242 -0.131,-0.088 -0.258,-0.183 -0.375,-0.286 -0.116,-0.1 -0.226,-0.209 -0.331,-0.324 l -0.155,-0.204 c -0.023,-0.05 -0.05,-0.101 -0.081,-0.149 -0.026,-0.048 -0.057,-0.096 -0.09,-0.141 -0.027,-0.055 -0.052,-0.106 -0.077,-0.148 -0.015,-0.027 -0.03,-0.058 -0.043,-0.09 l -0.024,-0.053 c -0.038,-0.067 -0.073,-0.141 -0.105,-0.214 l 2.295,-1.759 1.05,1.37 c 0.009,0.017 0.016,0.032 0.023,0.05 0.013,0.024 0.021,0.045 0.023,0.055 l -0.023,0.128 0.838,1.158 2.604,-1.992 -0.879,-1.147 -0.221,-0.003 c -0.065,0 -0.138,-0.016 -0.218,-0.052 -0.094,-0.039 -0.202,-0.113 -0.32,-0.21 -0.096,-0.08 -0.19,-0.167 -0.287,-0.263 -0.089,-0.085 -0.177,-0.175 -0.264,-0.268 -0.033,-0.06 -0.065,-0.118 -0.1,-0.173 -0.043,-0.069 -0.09,-0.14 -0.141,-0.205 -0.007,-0.009 -0.014,-0.018 -0.02,-0.028 l 3.471,-2.658 0.027,0.003 0.233,-0.179 c 0.131,-0.072 0.267,-0.137 0.398,-0.198 0.123,-0.054 0.251,-0.097 0.388,-0.125 0.1,-0.014 0.203,-0.009 0.308,0.012 0.108,0.026 0.216,0.077 0.321,0.151 l 0.616,-0.641 z m 80.135,70.486 c -50.673,0 -94.429,-29.64 -114.875,-72.532 12.928,-7.243 25.55,-13.214 37.974,-17.958 13.736,28.67 43.045,48.519 76.901,48.519 33.926,0 63.286,-19.926 76.989,-48.687 0.959,0.069 1.947,0.112 2.964,0.112 6.79,0 12.78,-1.85 17.804,-5.498 3.178,-0.179 12.681,-1.005 19.127,-4.547 l 0.019,-0.012 c 1.055,-0.617 2.537,-1.7 3.05,-2.232 C 9.385,60.884 9.8,60.349 9.689,59.68 9.565,58.918 8.855,58.553 8.173,58.195 7.695,57.947 5.809,57.196 5.283,57.023 4.61,56.791 3.48,56.415 2.054,55.937 0.418,55.39 -1.617,54.71 -3.65,54.021 c -5.013,-1.7 -6.755,-2.729 -7.286,-3.109 -0.532,-0.897 -1.803,-2.98 -3.792,-5.802 -2.336,-3.322 -6.161,-8.355 -11.269,-13.761 -2.924,-44.359 -39.946,-79.547 -85.035,-79.547 -46.92,0 -85.106,38.117 -85.213,85.018 -7.171,1.391 -14.232,3.153 -21.1,5.268 l -1.805,0.558 -6.101,19.554 c -3.205,1.291 -6.405,2.639 -9.593,4.037 -2.205,-9.381 -3.372,-19.167 -3.372,-29.221 0,-70.241 56.948,-127.187 127.184,-127.187 70.256,0 127.191,56.946 127.191,127.187 0,70.24 -56.935,127.183 -127.191,127.183" /></g><g
           transform="translate(436.5889,494.8096)"
           id="g80"><path
             id="path82"
             style="fill:#231f20;fill-opacity:1;fill-rule:nonzero;stroke:none"
             d="m 0,0 -6.484,3.498 6.725,3.023 1.321,7.244 4.959,-5.46 7.3,0.979 -3.671,-6.393 3.196,-6.643 -7.224,1.511 -5.319,-5.087 z" /></g><g
           transform="translate(446.9502,501.7676)"
           id="g84"><path
             id="path86"
             style="fill:#ffffff;fill-opacity:1;fill-rule:nonzero;stroke:none"
             d="m 0,0 -2.236,-3.895 1.951,-4.06 -4.407,0.92 -3.252,-3.102 -0.49,4.473 -3.954,2.139 4.101,1.839 0.809,4.428 3.017,-3.334 z" /></g><g
           transform="translate(434.5645,498.2422)"
           id="g88"><path
             id="path90"
             style="fill:#231f20;fill-opacity:1;fill-rule:nonzero;stroke:none"
             d="m 0,0 3.953,-2.139 2.739,1.901 z" /></g><g
           transform="translate(439.4863,504.4687)"
           id="g92"><path
             id="path94"
             style="fill:#231f20;fill-opacity:1;fill-rule:nonzero;stroke:none"
             d="M 0,0 -0.863,-4.417 1.771,-6.464 Z" /></g><g
           transform="translate(446.9473,501.7798)"
           id="g96"><path
             id="path98"
             style="fill:#231f20;fill-opacity:1;fill-rule:nonzero;stroke:none"
             d="M 0,0 -4.573,-0.638 -5.69,-3.776 Z" /></g><g
           transform="translate(446.665,493.8125)"
           id="g100"><path
             id="path102"
             style="fill:#231f20;fill-opacity:1;fill-rule:nonzero;stroke:none"
             d="m 0,0 -1.951,4.061 -3.456,0.13 z" /></g><g
           transform="translate(439.0059,491.6304)"
           id="g104"><path
             id="path106"
             style="fill:#231f20;fill-opacity:1;fill-rule:nonzero;stroke:none"
             d="M 0,0 3.222,3.08 2.251,6.374 Z" /></g><g
           transform="translate(407.7314,526.1431)"
           id="g108"><path
             id="path110"
             style="fill:#231f20;fill-opacity:1;fill-rule:nonzero;stroke:none"
             d="M 0,0 -7.237,1.391 -1.732,6.292 -2.644,13.599 3.715,9.88 10.387,13.002 8.814,5.802 13.853,0.423 6.515,-0.303 2.951,-6.751 Z" /></g><g
           transform="translate(415.5225,535.8872)"
           id="g112"><path
             id="path114"
             style="fill:#ffffff;fill-opacity:1;fill-rule:nonzero;stroke:none"
             d="m 0,0 -0.964,-4.391 3.075,-3.281 -4.479,-0.445 -2.173,-3.936 -1.799,4.12 -4.416,0.851 3.355,2.988 -0.555,4.466 3.88,-2.275 z" /></g><g
           transform="translate(404.7666,528.8052)"
           id="g116"><path
             id="path118"
             style="fill:#231f20;fill-opacity:1;fill-rule:nonzero;stroke:none"
             d="M 0,0 4.416,-0.851 6.455,1.783 Z" /></g><g
           transform="translate(407.5908,536.2227)"
           id="g120"><path
             id="path122"
             style="fill:#231f20;fill-opacity:1;fill-rule:nonzero;stroke:none"
             d="M 0,0 0.509,-4.467 3.631,-5.634 Z" /></g><g
           transform="translate(415.5127,535.8999)"
           id="g124"><path
             id="path126"
             style="fill:#231f20;fill-opacity:1;fill-rule:nonzero;stroke:none"
             d="M 0,0 -4.166,-1.981 -4.291,-5.312 Z" /></g><g
           transform="translate(417.6338,528.2148)"
           id="g128"><path
             id="path130"
             style="fill:#231f20;fill-opacity:1;fill-rule:nonzero;stroke:none"
             d="M 0,0 -3.075,3.282 -6.413,2.373 Z" /></g><g
           transform="translate(410.9805,523.8345)"
           id="g132"><path
             id="path134"
             style="fill:#231f20;fill-opacity:1;fill-rule:nonzero;stroke:none"
             d="M 0,0 2.153,3.903 0.241,6.753 Z" /></g><g
           transform="translate(370.8008,547.3774)"
           id="g136"><path
             id="path138"
             style="fill:#231f20;fill-opacity:1;fill-rule:nonzero;stroke:none"
             d="M 0,0 -7.326,-0.848 -3.542,5.483 -6.595,12.18 0.588,10.536 6.013,15.518 6.659,8.175 13.079,4.562 6.298,1.663 4.842,-5.556 Z" /></g><g
           transform="translate(375.3115,559.0122)"
           id="g140"><path
             id="path142"
             style="fill:#ffffff;fill-opacity:1;fill-rule:nonzero;stroke:none"
             d="m 0,0 0.395,-4.48 3.917,-2.21 -4.137,-1.766 -0.893,-4.408 -2.957,3.392 -4.467,-0.51 2.309,3.855 -1.868,4.09 4.377,-1.003 z" /></g><g
           transform="translate(367.1699,549.0298)"
           id="g144"><path
             id="path146"
             style="fill:#231f20;fill-opacity:1;fill-rule:nonzero;stroke:none"
             d="M 0,0 4.467,0.51 5.623,3.635 Z" /></g><g
           transform="translate(367.6455,556.9487)"
           id="g148"><path
             id="path150"
             style="fill:#231f20;fill-opacity:1;fill-rule:nonzero;stroke:none"
             d="m 0,0 1.818,-4.113 3.33,-0.171 z" /></g><g
           transform="translate(375.3027,559.0195)"
           id="g152"><path
             id="path154"
             style="fill:#231f20;fill-opacity:1;fill-rule:nonzero;stroke:none"
             d="m 0,0 -3.385,-3.141 0.876,-3.213 z" /></g><g
           transform="translate(379.624,552.3223)"
           id="g156"><path
             id="path158"
             style="fill:#231f20;fill-opacity:1;fill-rule:nonzero;stroke:none"
             d="M 0,0 -3.918,2.209 -6.83,0.343 Z" /></g><g
           transform="translate(374.5937,546.1479)"
           id="g160"><path
             id="path162"
             style="fill:#231f20;fill-opacity:1;fill-rule:nonzero;stroke:none"
             d="M 0,0 0.882,4.372 -1.8,6.518 Z" /></g><g
           transform="translate(329.1982,556.5518)"
           id="g164"><path
             id="path166"
             style="fill:#231f20;fill-opacity:1;fill-rule:nonzero;stroke:none"
             d="m 0,0 -6.73,-2.997 1.707,7.168 -4.925,5.472 7.343,0.59 L 1.08,16.61 3.905,9.801 11.116,8.276 5.513,3.481 6.287,-3.844 Z" /></g><g
           transform="translate(330.0088,569.0059)"
           id="g168"><path
             id="path170"
             style="fill:#ffffff;fill-opacity:1;fill-rule:nonzero;stroke:none"
             d="m 0,0 1.725,-4.153 4.406,-0.936 -3.427,-2.924 0.472,-4.474 -3.834,2.351 -4.114,-1.828 1.048,4.369 -3.011,3.343 4.482,0.359 z" /></g><g
           transform="translate(325.2363,557.042)"
           id="g172"><path
             id="path174"
             style="fill:#231f20;fill-opacity:1;fill-rule:nonzero;stroke:none"
             d="M 0,0 4.114,1.828 4.276,5.154 Z" /></g><g
           transform="translate(323.3145,564.7373)"
           id="g176"><path
             id="path178"
             style="fill:#231f20;fill-opacity:1;fill-rule:nonzero;stroke:none"
             d="m 0,0 2.972,-3.374 3.226,0.833 z" /></g><g
           transform="translate(329.999,569.0098)"
           id="g180"><path
             id="path182"
             style="fill:#231f20;fill-opacity:1;fill-rule:nonzero;stroke:none"
             d="m 0,0 -2.289,-4.007 1.803,-2.806 z" /></g><g
           transform="translate(336.1406,563.916)"
           id="g184"><path
             id="path186"
             style="fill:#231f20;fill-opacity:1;fill-rule:nonzero;stroke:none"
             d="M 0,0 -4.406,0.937 -6.628,-1.72 Z" /></g><g
           transform="translate(333.1836,556.5186)"
           id="g188"><path
             id="path190"
             style="fill:#231f20;fill-opacity:1;fill-rule:nonzero;stroke:none"
             d="M 0,0 -0.468,4.433 -3.671,5.677 Z" /></g><g
           transform="translate(286.7588,552.8306)"
           id="g192"><path
             id="path194"
             style="fill:#231f20;fill-opacity:1;fill-rule:nonzero;stroke:none"
             d="m 0,0 -5.518,-4.89 -0.517,7.359 -6.349,3.74 6.835,2.766 1.6,7.191 4.735,-5.648 7.336,0.705 -3.908,-6.252 2.934,-6.758 z" /></g><g
           transform="translate(283.7998,564.9526)"
           id="g196"><path
             id="path198"
             style="fill:#ffffff;fill-opacity:1;fill-rule:nonzero;stroke:none"
             d="m 0,0 2.887,-3.449 4.483,0.434 -2.383,-3.817 1.788,-4.13 -4.361,1.09 -3.375,-2.974 -0.311,4.483 -3.881,2.282 4.171,1.69 z" /></g><g
           transform="translate(282.8379,552.1069)"
           id="g200"><path
             id="path202"
             style="fill:#231f20;fill-opacity:1;fill-rule:nonzero;stroke:none"
             d="M 0,0 3.376,2.975 2.528,6.2 Z" /></g><g
           transform="translate(278.6895,558.8696)"
           id="g204"><path
             id="path206"
             style="fill:#231f20;fill-opacity:1;fill-rule:nonzero;stroke:none"
             d="m 0,0 3.853,-2.33 2.824,1.767 z" /></g><g
           transform="translate(283.7842,564.9526)"
           id="g208"><path
             id="path210"
             style="fill:#231f20;fill-opacity:1;fill-rule:nonzero;stroke:none"
             d="M 0,0 -0.979,-4.513 1.582,-6.646 Z" /></g><g
           transform="translate(291.1699,561.9375)"
           id="g212"><path
             id="path214"
             style="fill:#231f20;fill-opacity:1;fill-rule:nonzero;stroke:none"
             d="M 0,0 -4.481,-0.435 -5.804,-3.631 Z" /></g><g
           transform="translate(290.5752,553.9907)"
           id="g216"><path
             id="path218"
             style="fill:#231f20;fill-opacity:1;fill-rule:nonzero;stroke:none"
             d="M 0,0 -1.782,4.09 -5.209,4.315 Z" /></g><g
           transform="translate(247.3916,536.5483)"
           id="g220"><path
             id="path222"
             style="fill:#231f20;fill-opacity:1;fill-rule:nonzero;stroke:none"
             d="m 0,0 -3.798,-6.32 -2.704,6.864 -7.171,1.664 5.684,4.683 -0.632,7.343 6.215,-3.966 6.791,2.874 L 2.529,6.004 7.359,0.44 Z" /></g><g
           transform="translate(240.9346,547.2212)"
           id="g224"><path
             id="path226"
             style="fill:#ffffff;fill-opacity:1;fill-rule:nonzero;stroke:none"
             d="M 0,0 3.786,-2.42 7.935,-0.665 6.801,-5.026 9.751,-8.423 5.258,-8.69 2.934,-12.54 1.292,-8.365 -3.095,-7.342 0.38,-4.483 Z" /></g><g
           transform="translate(243.8691,534.6821)"
           id="g228"><path
             id="path230"
             style="fill:#231f20;fill-opacity:1;fill-rule:nonzero;stroke:none"
             d="M 0,0 2.323,3.848 0.551,6.675 Z" /></g><g
           transform="translate(237.8823,539.8887)"
           id="g232"><path
             id="path234"
             style="fill:#231f20;fill-opacity:1;fill-rule:nonzero;stroke:none"
             d="M 0,0 4.372,-1.07 6.538,1.468 Z" /></g><g
           transform="translate(240.917,547.2212)"
           id="g236"><path
             id="path238"
             style="fill:#231f20;fill-opacity:1;fill-rule:nonzero;stroke:none"
             d="M 0,0 0.42,-4.599 3.503,-5.864 Z" /></g><g
           transform="translate(248.8691,546.5562)"
           id="g240"><path
             id="path242"
             style="fill:#231f20;fill-opacity:1;fill-rule:nonzero;stroke:none"
             d="M 0,0 -4.148,-1.755 -4.449,-5.199 Z" /></g><g
           transform="translate(250.6846,538.7983)"
           id="g244"><path
             id="path246"
             style="fill:#231f20;fill-opacity:1;fill-rule:nonzero;stroke:none"
             d="M 0,0 -2.925,3.369 -6.264,2.559 Z" /></g><g
           transform="translate(214.7202,509.1997)"
           id="g248"><path
             id="path250"
             style="fill:#231f20;fill-opacity:1;fill-rule:nonzero;stroke:none"
             d="m 0,0 -1.728,-7.159 -4.636,5.729 -7.346,-0.562 4.022,6.179 -2.804,6.81 L -5.368,9.08 0.241,13.862 0.611,6.49 6.89,2.631 Z" /></g><g
           transform="translate(205.3555,517.4512)"
           id="g252"><path
             id="path254"
             style="fill:#ffffff;fill-opacity:1;fill-rule:nonzero;stroke:none"
             d="M 0,0 4.345,-1.175 7.773,1.74 8,-2.752 11.833,-5.11 7.632,-6.714 l -1.07,-4.37 -2.815,3.494 -4.492,-0.342 2.453,3.767 z" /></g><g
           transform="translate(211.918,506.3672)"
           id="g256"><path
             id="path258"
             style="fill:#231f20;fill-opacity:1;fill-rule:nonzero;stroke:none"
             d="M 0,0 1.07,4.37 -1.471,6.534 Z" /></g><g
           transform="translate(204.6445,509.5381)"
           id="g260"><path
             id="path262"
             style="fill:#231f20;fill-opacity:1;fill-rule:nonzero;stroke:none"
             d="M 0,0 4.493,0.296 5.802,3.363 Z" /></g><g
           transform="translate(205.3462,517.4448)"
           id="g264"><path
             id="path266"
             style="fill:#231f20;fill-opacity:1;fill-rule:nonzero;stroke:none"
             d="M 0,0 1.775,-4.26 5.1,-4.543 Z" /></g><g
           transform="translate(213.1279,519.1914)"
           id="g268"><path
             id="path270"
             style="fill:#231f20;fill-opacity:1;fill-rule:nonzero;stroke:none"
             d="m 0,0 -3.427,-2.916 0.745,-3.375 z" /></g><g
           transform="translate(217.1885,512.3418)"
           id="g272"><path
             id="path274"
             style="fill:#231f20;fill-opacity:1;fill-rule:nonzero;stroke:none"
             d="M 0,0 -3.795,2.334 -6.742,0.559 Z" /></g></g></g></g></svg>