<?xml version="1.0" encoding="UTF-8" standalone="no"?><!-- Generator: Gravit.io --><svg xmlns="http://www.w3.org/2000/svg" xmlns:xlink="http://www.w3.org/1999/xlink" style="isolation:isolate" viewBox="0 0 512 512" width="512pt" height="512pt"><defs><clipPath id="_clipPath_nG9wwKKqPqlLlli7ndYzWotUHMsmXxDx"><rect width="512" height="512"/></clipPath></defs><g clip-path="url(#_clipPath_nG9wwKKqPqlLlli7ndYzWotUHMsmXxDx)"><rect width="512" height="512" style="fill:rgb(0,103,79)"/><path d=" M 150.219 191.218 C 159.287 171.898 173.923 155.73 192.249 144.792 C 212.544 133.173 235.651 127.381 259.027 128.052 C 280.693 127.582 302.071 133.075 320.828 143.929 C 338.463 154.446 352.666 169.855 361.713 188.287 C 371.566 208.597 376.477 230.95 376.045 253.52 C 376.522 277.107 371.47 300.479 361.292 321.763 C 352.029 340.854 337.375 356.812 319.142 367.667 C 299.662 378.854 277.49 384.49 255.033 383.965 C 232.905 384.499 211.055 378.944 191.868 367.907 C 174.08 357.377 159.699 341.95 150.44 323.469 C 140.529 303.452 135.56 281.351 135.948 259.019 C 135.536 235.632 140.414 212.454 150.219 191.218 Z  M 195.019 300.206 C 199.853 312.42 208.052 323.012 218.663 330.755 C 229.471 338.309 242.413 342.206 255.595 341.875 C 269.633 342.43 283.47 338.4 295.015 330.394 C 305.492 322.675 313.475 312.054 317.977 299.845 C 323.01 286.21 325.493 271.766 325.303 257.233 C 325.459 242.561 323.124 227.97 318.398 214.079 C 314.225 201.538 306.499 190.479 296.159 182.246 C 284.903 173.86 271.103 169.607 257.08 170.203 C 243.612 169.854 230.381 173.782 219.285 181.423 C 208.495 189.198 200.14 199.884 195.199 212.232 C 184.238 240.536 184.181 271.903 195.039 300.246 L 195.019 300.206 Z " fill="rgb(196,196,196)"/></g></svg>