<?xml version="1.0" encoding="UTF-8" standalone="no"?><!-- Generator: Gravit.io --><svg xmlns="http://www.w3.org/2000/svg" xmlns:xlink="http://www.w3.org/1999/xlink" style="isolation:isolate" viewBox="0 0 512 512" width="512pt" height="512pt"><defs><clipPath id="_clipPath_uzAxOn6tQ5neh8HTsxwciJDoRB5vdd0h"><rect width="512" height="512"/></clipPath></defs><g clip-path="url(#_clipPath_uzAxOn6tQ5neh8HTsxwciJDoRB5vdd0h)"><g><path d=" M 351.14 174.001 L 351.026 172.904 L 349.249 173.055 L 349.362 174.152 L 351.14 174.001 Z  M 363.089 202.739 L 363.127 203.344 L 364.375 203.231 C 364.337 202.853 364.488 202.248 364.753 201.491 L 364.639 200.395 C 364.11 200.432 363.581 201.227 363.089 202.739 L 363.089 202.739 Z  M 316.464 238.927 C 316.389 237.906 313.212 233.936 306.935 226.94 C 306.822 225.654 308.977 223.726 313.401 221.192 L 326.031 210.188 C 328.867 206.596 330.531 200.773 331.023 192.681 L 330.871 190.828 C 330.38 185.231 326.334 180.731 318.658 177.29 C 314.12 174.227 305.952 172.526 294.154 172.223 C 284.398 173.055 271.655 176.534 255.962 182.698 C 251.651 185.799 246.736 188.899 241.215 192 L 241.29 192.945 C 241.631 192.908 242.16 192.718 242.765 192.303 C 243.408 192.227 243.786 192.529 243.824 193.134 L 244.769 192.643 L 245.223 192.605 L 245.261 193.021 C 245.299 193.513 241.895 196.197 235.013 201 L 235.543 201.983 L 235.089 202.021 L 233.955 201.605 C 233.992 201.945 233.501 202.172 232.555 202.248 L 232.593 202.664 L 233.69 204.025 C 233.349 204.063 232.82 203.911 232.102 203.647 C 230.513 203.798 228.963 204.63 227.413 206.218 L 228.056 203.42 C 230.362 193.475 231.95 184.664 232.782 177.026 L 232.669 176.534 C 231.081 175.513 229.53 174.076 228.093 172.261 C 228.131 171.089 228.131 170.408 228.093 170.257 L 227.98 169.841 L 227.526 169.955 C 222.535 177.442 212.93 190.223 198.674 208.298 C 187.822 221.155 182.225 228.301 181.885 229.738 C 177.461 234.314 175.343 237.074 175.57 238.019 C 174.398 238.776 173.906 239.532 174.095 240.364 C 173.755 240.44 173.528 240.326 173.452 239.986 C 171.562 243.049 168.763 245.015 165.02 245.885 L 161.087 246.792 C 160.558 246.906 160.293 247.284 160.331 247.927 L 160.444 248.418 L 161.919 248.078 L 162.032 248.494 L 158.705 249.78 L 152.806 251.141 L 149.705 251.33 C 149.251 251.784 152.163 251.292 151.029 251.557 L 147.172 252.464 C 144.827 252.994 143.542 252.805 143.315 251.859 L 142.861 251.973 C 142.936 252.389 142.974 252.691 142.899 252.956 L 142.672 252.011 L 139.571 252.729 C 139.344 251.292 135.147 246.074 127.017 237.074 C 126.866 235.335 129.739 232.801 135.601 229.511 L 152.163 214.953 C 155.869 210.188 158.062 202.55 158.781 192.038 L 158.554 189.58 C 157.911 182.168 152.541 176.194 142.445 171.581 C 136.47 167.534 125.731 165.379 110.227 165.039 C 97.371 166.135 80.581 170.711 59.935 178.69 C 54.263 182.811 47.797 186.895 40.536 190.941 L 40.65 192.227 C 41.142 192.189 41.784 191.924 42.578 191.471 C 43.41 191.395 43.864 191.773 43.94 192.529 L 45.225 191.811 L 45.868 191.773 L 45.906 192.378 C 45.944 192.983 41.444 196.5 32.331 202.928 L 33.049 204.063 L 32.406 204.1 L 31.007 203.609 C 31.045 203.987 30.402 204.252 29.079 204.365 L 29.155 205.046 L 30.667 206.71 C 30.175 206.747 29.495 206.596 28.625 206.294 C 25.676 206.558 22.802 208.676 19.966 212.684 L 20.684 213.819 C 23.142 211.55 24.579 210.415 24.995 210.378 L 25.146 212.23 C 24.73 212.268 24.087 212.533 23.218 212.987 L 24.768 215.331 C 27.755 212.117 31.045 209.357 34.638 207.05 C 36.415 207.504 37.36 208.071 37.398 208.676 L 38.759 208.562 C 48.515 201.34 58.158 196.122 67.725 192.908 L 67.838 194.193 C 66.061 196.84 64.851 198.201 64.208 198.277 C 64.284 199.185 64.586 199.979 65.153 200.659 C 65.305 202.285 60.956 213.251 52.145 233.52 C 32.142 280.636 15.352 315.5 1.702 338.037 C 1.739 338.491 2.004 339.096 2.496 339.852 C 5.861 339.058 7.979 338.226 8.886 337.432 L 9.605 337.357 L 9.718 338.642 L 10.966 338.529 L 12.252 337.81 C 12.29 338.188 12.705 338.378 13.575 338.302 L 13.689 339.588 C 13.802 340.835 13.084 342.726 11.571 345.335 C 10.21 346.886 8.735 350.138 7.185 355.091 L 7.222 355.696 L 8.47 355.583 C 13.916 349.495 18.037 343.52 20.873 337.697 C 36.755 333.046 48.856 328.47 57.25 323.97 C 65.683 323.252 72.111 321.021 76.497 317.353 L 76.422 316.672 L 73.245 317.618 L 72.527 317.693 L 72.451 317.013 C 78.653 316.067 82.926 314.706 85.308 312.815 C 97.371 303.513 106.484 296.934 112.648 293.039 C 125.315 283.736 133.559 274.661 137.302 265.851 C 137.983 265.699 138.664 265.548 139.42 265.359 C 141.197 265.283 142.18 265.245 142.445 265.17 C 142.369 264.83 142.521 264.64 142.861 264.565 C 145.697 264.262 144.336 264.754 146.151 264.338 L 150.915 263.241 C 150.613 263.317 150.499 263.468 150.575 263.771 L 151.293 263.317 C 151.142 263.317 151.029 263.279 150.915 263.241 L 151.709 263.052 L 151.331 263.279 C 151.861 263.355 152.428 263.317 153.071 263.166 L 153.411 264.565 L 131.744 299.013 L 126.941 305.026 L 124.597 312.891 L 125.051 312.778 L 127.395 311.794 L 126.639 314.857 L 126.866 315.765 L 127.508 316.559 C 127.206 316.635 127.092 316.824 127.168 317.164 L 127.282 317.656 L 128.265 317.429 C 129.702 316.181 130.307 315.046 130.08 314.025 C 131.63 314.29 132.651 314.404 133.181 314.252 L 133.294 314.744 C 132.349 314.971 131.857 315.727 131.781 317.013 L 131.895 317.504 L 132.424 317.391 C 140.29 308.807 159.575 279.426 175.04 259.498 C 174.549 257.342 182.603 254.355 199.241 250.498 L 199.771 250.385 C 200.376 252.994 199.09 259.309 195.914 269.329 C 193.872 275.38 192.889 278.707 193.04 279.237 C 190.393 287.291 189.145 291.64 189.296 292.32 L 183.397 311.643 C 179.578 321.55 176.666 331.949 174.625 342.915 C 174.965 342.84 175.494 342.877 176.251 343.066 L 177.082 342.348 C 177.158 342.688 177.385 342.802 177.725 342.726 L 177.385 341.327 L 179.956 341.251 C 180.713 341.062 181.355 340.117 181.885 338.378 C 181.771 335.768 182.301 334.369 183.473 334.067 C 185.061 327.865 186.044 324.765 186.385 324.651 C 187.859 318.487 188.956 314.971 189.674 314.101 C 191.905 306.084 193.531 301.963 194.59 301.698 L 194.817 302.681 L 193.191 306.879 C 190.355 319.471 187.481 329.416 184.57 336.714 L 185.401 340.344 L 185.931 340.23 C 192.964 325.105 203.098 295.156 216.295 250.385 C 216.674 246.452 218.564 243.389 221.93 241.234 L 221.173 240.44 L 221.06 240.024 C 222.573 239.683 223.631 239.078 224.236 238.246 C 224.161 237.906 222.837 237.414 220.266 236.734 L 226.845 208.525 C 228.282 207.239 229.114 206.558 229.379 206.558 L 229.492 207.995 C 229.152 208.033 228.623 208.222 228.018 208.638 L 229.266 210.415 C 231.534 207.957 233.992 205.84 236.677 204.063 C 238.038 204.441 238.719 204.895 238.795 205.348 L 239.778 205.273 C 247.265 199.79 254.601 195.857 261.823 193.475 L 261.899 194.42 C 260.575 196.424 259.668 197.445 259.176 197.483 C 259.252 198.164 259.441 198.769 259.781 199.298 C 259.895 200.546 256.643 208.865 249.988 224.293 C 234.786 260.027 222.043 286.459 211.682 303.627 C 211.72 303.967 211.947 304.421 212.363 305.026 C 214.896 304.421 216.522 303.778 217.165 303.173 L 217.619 303.135 L 217.695 304.08 L 218.753 304.005 L 219.699 303.513 C 219.736 303.778 220.077 303.891 220.72 303.853 L 220.795 304.874 C 220.871 305.782 220.342 307.219 219.169 309.185 C 218.073 310.357 216.938 312.815 215.728 316.559 L 215.766 317.051 L 216.749 316.975 C 220.871 312.362 224.009 307.824 226.165 303.362 C 238.227 299.807 247.416 296.366 253.769 292.963 C 260.235 292.396 265.113 290.732 268.441 287.934 L 268.403 287.442 L 265.945 288.161 L 265.416 288.199 L 265.378 287.707 C 270.067 287.026 273.357 285.968 275.134 284.568 C 284.285 277.535 291.205 272.506 295.894 269.556 C 310.49 258.931 317.296 248.721 316.464 238.927 L 316.464 238.927 Z  M 313.969 239.57 L 314.309 243.389 C 313.855 244.334 313.364 244.826 312.91 244.864 L 312.343 238.36 C 313.401 238.738 313.931 239.116 313.969 239.57 L 313.969 239.57 Z  M 27.642 208.789 L 26.999 208.827 L 26.886 207.655 L 29.495 207.428 L 29.533 208.033 C 29.117 208.071 28.474 208.298 27.642 208.789 Z  M 14.899 336.26 C 13.386 335.579 12.025 335.315 10.853 335.428 L 10.701 333.575 C 10.626 332.857 11.042 332.365 11.949 332.176 C 12.781 332.1 13.273 332.705 13.348 333.916 C 15.542 331.231 16.752 329.869 16.978 329.832 L 18.378 330.399 C 17.924 334.18 16.752 336.109 14.899 336.26 Z  M 151.066 193.815 C 150.424 193.891 149.138 191.887 147.285 187.916 L 147.172 186.744 C 148.382 186.63 149.63 188.597 150.953 192.643 L 151.066 193.815 Z  M 149.251 179.71 L 148.722 180.958 L 130.231 173.244 C 142.558 173.66 148.911 175.816 149.251 179.71 Z  M 71.166 246.755 L 68.557 246.981 L 68.443 245.809 L 71.052 245.582 L 71.166 246.755 Z  M 69.048 206.483 L 69.691 206.445 L 69.842 208.298 C 69.237 208.336 68.443 209.243 67.46 210.983 L 67.347 209.697 C 68.519 208.298 69.124 207.239 69.048 206.483 L 69.048 206.483 Z  M 63.565 219.415 L 63.792 221.873 L 63.149 221.911 L 62.922 219.453 L 63.565 219.415 Z  M 60.691 224.028 L 61.939 223.915 C 61.826 225.957 61.258 227.053 60.238 227.129 L 59.595 227.167 C 60.389 225.806 60.767 224.747 60.691 224.028 Z  M 58.536 230.457 L 59.254 230.381 L 59.292 230.986 L 58.12 232.952 L 56.872 233.066 L 56.834 232.461 C 58.082 232.347 58.649 231.705 58.536 230.457 L 58.536 230.457 Z  M 56.418 236.242 L 56.04 239.343 L 55.397 239.381 L 55.133 236.318 L 56.418 236.242 Z  M 35.205 296.555 C 34.373 300.791 33.465 302.946 32.52 303.022 L 32.482 302.417 C 32.255 300.337 33.163 298.37 35.205 296.555 Z  M 31.31 304.988 L 31.348 305.593 C 31.423 306.425 31.045 306.916 30.213 306.954 L 30.175 306.349 C 30.1 305.631 30.478 305.177 31.31 304.988 Z  M 30.175 322.496 L 32.142 322.307 L 32.217 322.987 C 31.726 323.025 31.083 323.29 30.289 323.744 L 29.041 323.857 C 28.965 323.214 29.381 322.723 30.175 322.496 L 30.175 322.496 Z  M 86.14 305.215 C 75.098 310.66 68.594 314.366 66.666 316.294 C 54.717 320.454 48.78 323.025 48.893 324.046 C 38.268 328.243 31.272 331.344 27.907 333.273 C 27.113 333.348 25.978 333.046 24.466 332.365 C 24.277 330.21 25.26 328.47 27.339 327.071 C 29.192 326.92 30.97 327.185 32.671 327.903 C 34.638 326.882 38.079 325.748 42.957 324.538 L 42.843 323.252 L 38.91 323.592 C 39.402 322.912 43.183 321.134 50.292 318.261 L 52.259 318.071 L 52.297 318.677 C 48.931 318.979 47.078 319.962 46.662 321.739 C 46.738 322.534 47.192 322.874 48.024 322.798 C 50.557 321.21 51.805 320.265 51.767 320 C 56.57 319.092 69.842 312.135 91.585 299.165 L 91.699 300.337 C 91.736 300.904 89.884 302.492 86.14 305.215 L 86.14 305.215 Z  M 52.788 316.181 C 55.965 315.916 58.687 314.63 60.956 312.399 C 61.864 312.324 62.355 312.664 62.393 313.458 C 60.843 313.609 57.855 314.895 53.507 317.391 L 52.864 317.429 L 52.788 316.181 L 52.788 316.181 Z  M 106.597 274.85 L 89.921 288.047 C 77.518 296.177 70.863 300.261 69.918 300.337 C 50.179 311.189 37.89 316.824 33.125 317.24 L 32.406 317.315 C 33.012 315.084 41.784 297.123 58.801 263.317 C 66.288 262.674 78.086 259.195 94.157 252.843 L 98.089 252.502 C 106.219 251.784 112.307 253.372 116.316 257.153 L 116.542 259.611 C 113.517 268.308 110.19 273.375 106.597 274.85 L 106.597 274.85 Z  M 74.002 256.51 L 76.687 256.284 L 76.724 256.889 L 74.04 257.116 L 74.002 256.51 Z  M 111.702 250.12 L 113.669 249.931 C 115.484 250.801 116.429 251.557 116.505 252.238 L 116.542 252.843 C 114.803 252.994 113.177 252.086 111.702 250.12 L 111.702 250.12 Z  M 117.034 219.755 C 115.295 221.835 110.53 225.39 102.74 230.381 C 100.169 230.608 90.602 234.314 74.04 241.574 C 73.208 241.196 72.338 241.045 71.393 241.12 L 71.279 239.948 C 71.09 237.566 72.149 234.578 74.493 230.948 C 75.779 224.142 77.178 220.247 78.729 219.302 L 92.531 188.256 C 92.379 186.328 95.329 184.853 101.379 183.832 L 103.345 183.643 L 103.497 185.42 C 109.433 184.513 113.139 183.983 114.576 183.87 C 125.542 182.925 131.252 185.156 131.706 190.487 L 132.954 190.374 L 132.689 187.235 L 134.05 187.122 C 137.264 188.899 139.004 191.055 139.231 193.588 C 139.382 195.328 138.437 197.483 136.432 200.054 C 135.601 200.13 135.109 199.525 135.033 198.315 L 133.672 198.428 L 133.37 202.21 C 127.811 210.529 123.765 214.802 121.269 215.029 C 119 218.167 117.601 219.718 117.034 219.755 Z  M 125.504 241.498 C 124.37 240.742 123.462 240.402 122.782 240.44 L 122.63 238.587 L 123.878 238.473 L 126.639 240.099 C 126.752 240.969 126.374 241.423 125.504 241.498 L 125.504 241.498 Z  M 134.277 251.897 C 135.487 252.389 136.206 252.918 136.357 253.41 L 135.752 253.561 L 135.79 253.599 C 135.676 253.599 135.525 253.637 135.412 253.674 L 134.504 254.393 L 134.277 251.897 L 134.277 251.897 Z  M 135.109 257.116 L 134.996 256.624 L 136.584 256.246 L 136.697 256.737 L 135.109 257.116 Z  M 138.928 261.388 C 140.554 261.124 141.348 261.01 144.373 260.33 L 144.487 260.821 L 138.739 262.145 C 138.815 261.88 138.89 261.615 138.928 261.388 Z  M 144.525 263.771 C 142.105 263.998 142.634 263.695 138.777 264.565 L 138.664 264.073 L 143.466 262.523 L 145.773 261.994 L 145.999 262.901 C 144.978 263.128 145.735 263.128 144.525 263.771 L 144.525 263.771 Z  M 149.63 262.561 C 149.062 262.712 148.609 262.447 148.344 261.804 L 149.819 261.464 C 150.461 261.313 150.877 261.578 151.029 262.22 L 149.63 262.561 Z  M 163.469 247.662 L 163.356 247.17 L 165.738 246.603 L 165.965 247.511 L 163.469 247.662 L 163.469 247.662 Z  M 178.255 338.34 C 178.406 337.659 178.444 337.168 178.368 336.827 L 178.897 336.714 C 179.54 336.562 179.918 336.789 180.07 337.394 L 180.183 337.886 L 178.255 338.34 L 178.255 338.34 Z  M 188.616 251.557 L 187.557 251.368 C 185.855 252.048 184.418 252.54 183.246 252.805 L 182.263 253.032 C 181.696 253.183 181.242 252.956 181.015 252.351 L 187.935 250.763 L 190.204 249.704 L 190.96 250.574 C 189.864 250.801 189.069 251.141 188.616 251.557 L 188.616 251.557 Z  M 193.947 249.855 L 193.834 249.364 C 194.174 249.288 194.628 249.023 195.12 248.532 L 200.035 247.397 L 200.149 247.889 C 197.54 248.532 195.46 249.175 193.947 249.855 Z  M 194.704 239.91 C 194.363 239.986 193.91 240.288 193.342 240.742 C 193.267 240.402 192.586 240.402 191.3 240.704 C 191.074 239.759 194.704 238.435 202.229 236.696 L 203.287 236.469 L 203.514 237.377 C 198.22 238.927 195.271 239.797 194.704 239.91 L 194.704 239.91 Z  M 207.939 225.617 C 207.409 231.629 205.292 235.032 201.548 235.902 L 201.435 235.41 L 198.107 236.696 L 196.632 237.036 C 195.876 237.225 195.195 237.188 194.59 236.999 L 194.288 235.675 C 194.174 235.183 198.977 228.528 208.733 215.747 L 209.867 215.936 C 210.283 217.676 209.64 220.89 207.939 225.617 L 207.939 225.617 Z  M 231.345 205.575 L 230.892 205.613 L 230.816 204.668 L 232.782 204.479 L 232.82 204.97 C 232.48 205.046 231.988 205.235 231.345 205.575 Z  M 221.703 302.417 C 220.568 301.887 219.547 301.66 218.678 301.736 L 218.564 300.299 C 218.526 299.807 218.829 299.467 219.472 299.278 C 220.115 299.202 220.493 299.656 220.568 300.639 C 222.194 298.56 223.102 297.501 223.291 297.501 L 224.312 297.917 C 223.934 300.791 223.064 302.303 221.703 302.417 L 221.703 302.417 Z  M 325.086 194.269 C 324.594 194.307 323.649 192.794 322.174 189.731 L 322.099 188.786 C 323.044 188.71 324.027 190.185 325.01 193.21 L 325.086 194.269 Z  M 323.725 183.454 L 323.271 184.437 L 309.28 178.576 C 318.62 178.879 323.46 180.505 323.725 183.454 Z  M 264.395 234.389 L 262.428 234.578 L 262.353 233.633 L 264.319 233.482 L 264.395 234.389 Z  M 262.769 203.798 L 263.298 203.76 L 263.412 205.197 C 262.92 205.235 262.315 205.916 261.596 207.239 L 261.521 206.294 C 262.391 205.197 262.806 204.365 262.769 203.798 L 262.769 203.798 Z  M 258.647 213.63 L 258.798 215.482 L 258.269 215.52 L 258.118 213.667 L 258.647 213.63 Z  M 256.416 217.146 L 257.399 217.071 C 257.286 218.659 256.87 219.491 256.151 219.566 L 255.622 219.604 C 256.189 218.545 256.454 217.713 256.416 217.146 L 256.416 217.146 Z  M 254.828 221.986 L 255.282 221.949 L 255.319 222.44 L 254.45 223.953 L 253.466 224.028 L 253.429 223.537 C 254.45 223.461 254.903 222.932 254.828 221.986 L 254.828 221.986 Z  M 253.24 226.373 L 252.899 228.793 L 252.445 228.831 L 252.256 226.448 L 253.24 226.373 Z  M 237.093 272.241 C 236.45 275.417 235.77 277.043 235.051 277.119 L 235.013 276.703 C 234.9 275.115 235.581 273.602 237.093 272.241 L 237.093 272.241 Z  M 234.106 278.632 L 234.144 279.048 C 234.219 279.728 233.917 280.106 233.236 280.144 L 233.198 279.653 C 233.16 279.161 233.463 278.821 234.106 278.632 Z  M 233.274 291.942 L 234.786 291.829 L 234.824 292.32 C 234.484 292.358 233.955 292.547 233.349 292.887 L 232.366 292.963 C 232.329 292.434 232.631 292.093 233.274 291.942 Z  M 275.739 278.821 C 267.42 282.942 262.466 285.741 260.916 287.178 C 251.84 290.354 247.341 292.32 247.416 293.114 C 239.362 296.329 234.068 298.635 231.572 300.11 C 230.967 300.148 230.097 299.921 228.963 299.391 C 228.812 297.765 229.568 296.442 231.156 295.459 C 232.593 295.345 233.955 295.534 235.202 296.064 C 236.715 295.308 239.324 294.476 243.03 293.53 L 242.954 292.585 L 239.853 292.812 C 240.232 292.282 243.143 290.921 248.551 288.728 L 250.063 288.614 L 250.101 289.03 C 247.53 289.257 246.093 290.014 245.79 291.375 C 245.828 291.98 246.206 292.282 246.849 292.207 C 248.74 290.959 249.647 290.24 249.647 290.014 C 253.277 289.371 263.336 284.077 279.861 274.17 L 279.936 275.115 C 279.974 275.531 278.575 276.741 275.739 278.821 L 275.739 278.821 Z  M 250.404 287.14 C 252.861 286.913 254.941 285.968 256.681 284.304 C 257.323 284.228 257.702 284.531 257.739 285.136 C 256.605 285.249 254.374 286.194 251.009 288.009 L 250.479 288.047 L 250.404 287.14 L 250.404 287.14 Z  M 291.318 255.716 L 278.726 265.851 C 269.31 272.014 264.206 275.115 263.412 275.191 C 248.437 283.434 239.135 287.707 235.467 288.009 L 234.938 288.047 C 235.391 286.346 242.084 272.695 255.017 247.057 C 260.651 246.565 269.575 243.881 281.827 239.04 L 284.89 238.776 C 291.053 238.246 295.667 239.456 298.692 242.368 L 298.843 244.221 C 296.536 250.725 294.041 254.544 291.318 255.716 L 291.318 255.716 Z  M 266.588 241.801 L 268.554 241.612 L 268.592 242.103 L 266.626 242.292 L 266.588 241.801 Z  M 295.213 236.923 L 296.726 236.809 C 298.125 237.49 298.843 238.095 298.881 238.587 L 298.919 239.003 C 297.595 239.116 296.347 238.435 295.213 236.923 L 295.213 236.923 Z  M 299.183 213.894 C 297.86 215.482 294.268 218.205 288.406 221.986 C 286.44 222.175 279.18 224.974 266.626 230.419 C 266.021 230.192 265.34 230.116 264.622 230.154 L 264.546 229.209 C 264.395 227.394 265.189 225.125 266.928 222.365 C 267.911 217.146 269.008 214.235 270.142 213.554 L 280.692 189.958 C 280.579 188.559 282.81 187.425 287.348 186.555 L 288.86 186.441 L 288.974 187.878 C 293.436 187.16 296.234 186.744 297.368 186.63 C 305.687 185.912 310.036 187.576 310.376 191.66 L 311.36 191.584 L 311.17 189.315 L 312.154 189.24 C 314.574 190.563 315.859 192.151 316.011 194.042 C 316.124 195.403 315.443 197.067 314.006 198.996 C 313.364 199.071 312.986 198.617 312.91 197.634 L 311.927 197.71 L 311.624 200.546 C 307.427 206.936 304.364 210.226 302.435 210.378 C 300.734 212.684 299.675 213.856 299.183 213.894 L 299.183 213.894 Z  M 303.608 229.625 L 303.494 228.188 L 304.477 228.112 L 306.595 229.398 C 306.633 230.003 306.33 230.343 305.687 230.419 C 304.78 229.852 304.099 229.587 303.608 229.625 L 303.608 229.625 Z  M 127.584 321.475 L 126.601 321.702 L 125.769 322.42 C 125.92 323.025 126.298 323.252 126.941 323.101 C 127.584 322.949 127.849 322.571 127.697 321.966 L 127.584 321.475 Z  M 123.84 314.025 L 123.954 314.517 C 124.597 314.366 124.861 313.988 124.71 313.383 L 124.597 312.891 C 123.992 313.042 123.727 313.42 123.84 314.025 Z  M 150.461 250.687 L 151.596 250.422 L 151.369 249.439 L 150.235 249.704 L 150.461 250.687 Z  M 493.585 279.501 C 482.089 282.073 480.652 281.619 478.232 281.808 L 478.308 282.753 L 479.367 282.678 L 479.934 282.64 L 479.783 282.526 L 481.03 282.035 C 492.412 280.787 493.736 281.241 493.622 279.955 L 493.585 279.501 Z  M 431.683 287.707 L 431.759 288.652 L 431.91 288.652 L 431.835 287.707 L 431.683 287.707 Z  M 424.574 262.788 L 423.553 262.447 C 422.721 264.678 422.305 266.002 422.343 266.38 L 422.381 266.796 C 423.175 266.758 423.894 265.397 424.574 262.788 L 424.574 262.788 Z  M 495.929 279.312 L 496.005 280.258 L 497.669 280.56 L 497.593 279.615 L 495.929 279.312 Z  M 417.692 288.879 L 415.121 288.577 L 414.667 289.56 L 414.705 290.051 L 430.019 288.766 L 429.944 287.82 L 417.692 288.879 L 417.692 288.879 Z  M 410.734 255.338 L 410.697 254.847 L 410.167 254.884 L 409.222 255.49 L 409.751 256.397 C 410.47 256.321 410.81 255.981 410.734 255.338 Z  M 503.189 272.355 L 503.908 272.279 C 504.324 272.241 504.513 271.901 504.475 271.296 L 504.059 270.388 C 501.45 270.615 500.24 270.729 498.122 271.901 L 498.084 271.409 L 494.946 271.712 C 494.87 270.766 494.606 270.275 494.19 270.313 L 492.564 270.464 C 490.673 270.615 489.765 270.539 488.82 271.258 C 488.782 270.918 488.669 270.766 488.48 270.766 L 486.665 270.918 L 485.606 271.523 C 485.568 271.182 485.455 271.031 485.266 271.031 L 484.623 271.598 L 484.585 271.107 L 482.051 270.918 L 481.446 270.955 L 481.522 271.901 L 482.808 272.241 L 484.018 272.165 C 484.434 272.43 484.887 272.506 485.417 272.468 L 486.476 271.939 L 486.513 272.355 C 480.577 273.829 480.614 273.565 476.531 274.245 C 476.077 273.943 475.736 273.791 475.51 273.829 L 475.434 273.905 C 474.98 273.867 474.716 273.565 474.678 273.073 L 476.795 272.808 C 476.947 272.808 477.06 272.96 478.232 273.186 C 479.934 272.355 480.009 272.014 480.917 271.939 L 480.841 270.993 C 475.018 272.128 477.362 271.371 470.064 272.014 L 469.724 272.052 L 469.648 271.107 C 479.026 269.972 475.888 270.615 479.102 269.708 C 479.14 270.048 479.253 270.199 479.442 270.199 C 479.82 269.821 480.236 269.632 480.728 269.556 L 481.371 269.518 C 484.661 269.254 485.757 269.897 492.261 268.082 L 492.299 268.497 L 493.358 267.968 L 494.341 267.892 C 494.265 266.947 495.702 266.796 496.194 266.758 L 496.118 265.737 C 484.698 268.044 481.711 267.401 478.535 268.308 L 478.497 267.892 C 475.51 268.422 475.396 268.195 474.64 268.233 C 474.413 268.271 474.073 268.46 473.695 268.838 C 473.657 268.497 473.543 268.346 473.316 268.346 C 473.203 268.346 473.165 268.384 473.127 268.384 L 463.447 269.972 C 463.409 269.708 463.296 269.556 463.069 269.594 C 458.04 270.653 459.401 270.842 452.67 271.447 C 452.368 271.485 451.952 271.636 451.422 271.976 C 451.384 271.712 451.233 271.56 450.893 271.598 L 446.771 271.939 L 444.011 272.619 C 443.973 272.355 443.822 272.203 443.481 272.241 C 441.931 272.657 440.57 272.922 439.473 272.997 L 439.397 272.997 C 438.717 273.073 439.738 272.808 439.208 272.581 L 438.376 273.073 C 437.166 273.186 437.809 272.997 433.65 273.035 C 426.352 273.943 427.146 274.056 426.352 274.094 L 423.629 273.905 C 423.667 274.17 423.516 274.359 423.213 274.359 C 420.112 273.943 418.524 273.451 418.486 272.884 C 418.902 269.934 419.621 268.422 420.642 268.346 L 421.171 268.308 L 420.717 269.292 L 421.247 269.254 C 422.23 268.724 422.684 268.233 422.646 267.779 L 422.57 266.758 L 421.587 266.834 L 421.511 265.888 C 421.436 265.17 421.549 264.527 421.814 263.998 L 424.045 260.405 L 424.121 261.351 L 425.179 261.275 L 425.104 260.33 L 424.499 259.46 C 425.293 258.779 425.898 258.401 426.389 258.363 L 426.352 257.872 L 424.915 257.985 L 424.801 256.548 C 427.675 250.574 429.036 247.095 428.961 246.112 L 429.982 246.528 C 430.625 246.49 430.927 246.112 430.889 245.431 L 429.906 245.507 L 429.868 245.091 C 429.793 244.372 429.944 243.692 430.246 243.087 C 431.797 241.461 432.515 239.835 432.364 238.133 C 432.666 238.095 432.818 238.246 432.856 238.587 C 434.179 237.83 435.2 235.826 435.956 232.499 C 438.301 228.264 441.628 219.793 445.977 207.126 C 454.296 184.74 453.956 182.357 455.128 177.064 L 454.145 177.139 C 454.22 177.82 454.069 178.463 453.767 179.068 C 453.086 178.803 452.557 178.652 452.178 178.69 L 452.141 178.274 C 451.989 176.345 452.783 174.038 454.599 171.316 L 455.052 171.278 L 455.884 174.53 L 456.867 174.454 C 456.83 174.227 457.094 172.942 457.624 170.56 C 457.586 170.068 457.208 169.765 456.451 169.728 L 455.506 170.333 C 455.43 169.652 455.468 167.875 455.582 165.039 L 455.09 165.077 C 454.258 164.245 453.842 163.564 453.804 162.997 L 448.397 163.526 C 448.359 163.148 448.17 162.581 447.792 161.862 C 447.754 161.371 448.964 160.879 451.46 160.388 L 452.557 160.804 L 453.578 160.199 C 453.615 160.539 453.804 160.69 454.183 160.652 L 455.204 160.047 C 455.241 160.388 455.43 160.539 455.809 160.501 L 456.3 160.463 L 456.225 159.367 C 455.468 159.442 453.464 159.442 450.288 159.329 L 449.267 160.009 L 449.229 159.404 C 423.856 161.484 409.449 162.656 406.008 162.997 C 405.554 163.035 403.777 162.997 400.638 162.921 C 400.676 163.337 400.298 163.564 399.542 163.64 L 398.445 163.148 L 394.739 164.093 C 393.869 164.169 392.395 164.131 390.353 163.904 C 389.786 164.358 389.105 164.623 388.273 164.698 C 387.819 164.736 393.68 164.396 399.126 164.018 C 398.558 164.471 397.689 164.736 396.479 164.85 C 395.647 164.925 394.928 164.812 394.323 164.471 C 393.491 164.85 390.806 165.455 386.307 166.362 L 385.21 165.946 L 367.513 168.669 C 366.832 168.329 366.038 168.215 365.131 168.291 C 364.186 168.366 362.597 168.707 360.404 169.312 L 351.858 172.866 L 352.501 173.925 C 352.917 173.887 353.522 173.66 354.24 173.244 L 357.266 173.509 L 356.887 176.345 C 354.089 177.593 352.463 179.446 352.009 181.79 C 347.812 183.643 345.732 184.967 345.732 185.761 L 345.77 186.252 L 346.413 186.214 L 347.547 185.609 L 348.871 187.198 L 349.06 189.391 C 349.136 190.071 342.064 204.932 327.922 233.973 C 315.67 261.956 309.242 277.27 308.637 280.031 C 304.44 281.203 302.019 282.905 301.301 285.173 C 301.377 285.892 302.625 286.383 305.045 286.573 L 305.158 287.669 L 304.061 289.484 L 304.251 291.677 C 304.364 292.812 307.427 293.682 313.439 294.287 C 313.401 293.908 313.591 293.682 314.006 293.644 C 314.12 295.005 313.742 297.652 312.872 301.585 L 313.515 301.547 C 316.011 298.144 317.183 295.799 317.069 294.513 L 317.599 294.476 C 318.204 294.438 318.847 295.118 319.603 296.593 C 318.847 296.896 316.2 302.908 311.662 314.668 L 312.305 315.727 L 312.948 315.689 C 318.506 301.622 321.985 293.833 323.422 292.358 C 330.72 291.715 343.35 290.43 361.274 288.501 L 362.408 287.82 C 362.446 288.199 362.673 288.388 363.089 288.35 L 364.261 288.236 L 365.396 287.556 C 365.433 287.934 365.66 288.123 366.076 288.085 L 379.651 286.913 C 383.244 286.61 384.945 285.514 384.794 283.661 C 384.756 283.169 386.874 282.602 391.147 281.997 C 391.563 281.959 392.168 282.073 393 282.337 C 392.962 281.997 395.117 281.657 399.428 281.279 C 399.542 279.01 400.26 277.8 401.546 277.686 L 401.432 276.59 C 400.222 276.703 398.861 277.006 397.273 277.535 C 394.437 277.384 392.622 277.157 391.865 276.892 C 391.109 277.308 390.542 277.535 390.126 277.573 L 380.672 277.875 L 379.538 278.48 C 379.5 278.14 379.273 277.989 378.857 278.027 L 378.328 278.064 L 377.118 278.669 C 377.08 278.329 376.097 278.064 374.131 277.8 L 372.921 278.518 L 370.576 278.707 L 370.538 278.102 C 382.714 276.779 388.727 275.115 388.575 273.149 C 389.37 273.073 389.786 273.451 389.861 274.245 L 393.416 273.338 L 393.302 272.241 L 364.148 273.035 C 364.186 273.413 363.996 273.64 363.581 273.678 L 360.026 273.375 C 359.118 273.451 358.362 273.716 357.757 274.17 L 356.434 273.678 C 352.766 273.981 350.043 274.434 348.228 275.001 C 345.732 274.812 342.972 274.85 339.909 275.115 L 333.367 275.682 L 330.342 275.342 C 330.191 273.413 333.934 263.922 341.648 246.906 C 343.879 241.158 345.921 237.566 347.888 236.204 C 348.304 236.167 348.909 236.318 349.741 236.658 L 354.392 235.07 L 356.774 235.448 C 360.782 235.108 365.433 233.973 370.765 232.007 C 372.089 231.894 373.072 231.969 373.79 232.272 L 377.345 231.44 L 387.933 230.532 C 392.432 230.154 397.31 229.171 402.604 227.545 L 402.491 226.448 C 400.525 226.638 399.504 226.297 399.428 225.503 C 399.315 224.028 397.878 223.423 395.117 223.65 L 395.004 222.554 L 397.916 221.722 L 405.554 221.079 L 405.44 219.982 C 405.138 220.02 403.588 219.982 400.714 219.869 L 400.6 218.697 L 403.55 218.432 C 404.344 218.356 404.684 217.978 404.609 217.222 C 400.638 217.335 398.634 217.146 398.596 216.617 C 370.916 217.978 357.039 218.243 356.963 217.373 C 356.547 217.411 355.98 217.676 355.224 218.129 L 354.505 216.995 C 361.841 201.416 366.152 193.55 367.4 193.437 C 367.438 194.042 367.135 195.025 366.454 196.349 L 366.492 196.84 L 367.664 196.727 C 370.576 189.769 373.034 186.177 375.076 186.025 C 383.773 185.269 373.866 184.702 392.47 181.79 C 393.227 182.131 393.756 182.282 394.134 182.244 C 401.432 180.769 411.604 179.219 424.65 177.631 L 424.574 176.534 L 417.617 177.177 L 417.541 176.08 C 418.373 176.005 419.053 175.74 419.621 175.286 L 419.658 175.891 C 420.037 175.853 420.566 175.589 421.247 175.135 C 422.457 175.022 423.364 175.135 424.007 175.475 C 426.427 174.832 428.394 174.454 429.83 174.303 L 434.179 173.887 C 435.238 173.206 435.729 172.601 435.692 172.034 L 435.654 171.543 C 434.557 171.656 433.309 171.581 431.835 171.316 C 431.797 170.711 432.099 170.295 432.818 170.106 L 440.91 169.349 L 444.616 168.404 C 444.653 168.82 444.843 168.971 445.145 168.971 C 445.523 168.934 446.053 168.669 446.733 168.215 C 446.922 168.253 447.149 168.253 447.338 168.291 C 446.847 169.312 446.279 170.786 445.712 172.715 L 444.653 172.791 C 444.578 172.072 444.389 171.429 444.048 170.862 L 443.519 170.9 C 433.687 198.277 429.301 211.02 420.226 232.045 C 418.562 237.414 417.163 240.402 415.953 241.045 C 415.991 241.65 416.369 241.952 417.012 241.877 C 417.238 244.523 416.633 247.133 415.159 249.704 C 410.961 261.804 408.163 268.422 406.726 269.632 L 407.671 275.342 C 407.709 275.947 407.407 276.287 406.764 276.363 L 405.781 276.438 C 405.63 274.85 405.062 274.094 404.041 274.207 L 403.512 274.245 C 402.226 276.249 401.243 278.556 400.6 281.241 L 401.583 281.165 C 402.907 280.295 403.512 279.274 403.399 278.102 L 405.365 277.913 L 406.499 278.329 C 405.592 279.766 405.176 280.9 405.251 281.77 L 405.781 282.678 L 404.495 285.703 L 404.533 286.194 C 405.667 286.081 406.915 286.459 408.239 287.253 C 409.146 287.178 410.129 286.762 411.226 286.043 C 412.36 285.93 416.596 285.892 423.894 285.892 L 427.562 284.644 C 432.024 284.606 432.742 284.72 436.599 284.379 L 438.187 284.228 L 439.019 283.661 L 439.057 284.152 C 443.103 283.812 443.368 284.077 446.544 284.455 L 446.582 284.947 L 444.351 285.136 L 444.427 286.081 C 445.107 286.005 445.712 285.816 446.204 285.4 C 446.771 285.362 447.111 285.665 447.149 286.346 C 446.242 286.421 445.221 286.648 444.086 287.026 L 443.103 286.686 C 441.553 287.102 441.893 287.215 440.834 287.291 L 439.284 286.988 C 439.322 287.253 439.17 287.442 438.906 287.442 C 438.944 288.047 439.284 288.35 439.851 288.312 L 441.439 288.161 L 449.721 287.442 L 452.859 286.762 C 452.897 287.026 453.01 287.178 453.275 287.14 L 454.788 286.573 L 457.624 286.346 C 459.817 286.157 459.779 286.005 464.544 285.249 C 464.506 284.947 464.619 284.833 464.846 284.795 L 464.884 285.211 C 472.636 283.888 473.127 283.812 474.375 283.396 L 474.489 283.623 C 476.417 283.169 475.321 283.283 475.85 282.905 C 475.888 283.245 476.001 283.396 476.19 283.396 L 477.552 283.283 L 477.476 282.262 L 474.716 282.224 L 474.678 282.148 C 474.564 282.186 474.489 282.186 474.375 282.224 L 473.997 282.224 L 473.997 282.3 C 472.144 282.678 472.106 282.413 470.896 282.526 L 463.976 282.905 L 463.939 282.413 L 467.796 281.884 L 469.195 281.77 L 469.989 281.203 L 470.027 281.695 C 475.472 281.241 477.4 282.602 502.584 277.232 C 503.946 277.119 503.832 275.985 504.702 273.64 C 504.248 273.678 503.794 273.565 503.378 273.338 C 501.299 274.132 500.202 273.754 496.194 274.396 C 495.853 274.434 495.589 274.132 495.475 273.527 L 495.438 273.111 L 499.295 273.224 C 500.013 273.149 501.412 273.035 503.492 271.863 C 503.492 272.203 502.736 272.392 503.189 272.355 L 503.189 272.355 Z  M 316.994 275.342 L 315.217 275.493 C 315.141 274.775 316.086 272.052 318.053 267.401 L 319.225 267.287 C 319.263 268.384 318.544 271.069 316.994 275.342 Z  M 319.149 266.72 L 319.111 266.229 C 319.074 265.624 319.452 265.208 320.284 265.019 L 320.321 265.51 C 320.359 266.229 319.981 266.645 319.149 266.72 Z  M 342.783 284.984 L 342.821 285.476 L 339.871 285.741 L 339.833 285.249 L 342.783 284.984 Z  M 339.228 284.682 C 339.266 285.287 338.359 285.968 336.392 286.648 L 332.762 286.383 L 331.59 286.497 L 331.477 285.4 L 339.228 284.682 L 339.228 284.682 Z  M 363.127 174.681 L 361.349 174.832 L 361.312 174.227 C 361.274 173.622 361.614 173.206 362.37 173.017 L 363.013 172.98 L 364.223 173.471 C 364.261 174.19 363.921 174.606 363.127 174.681 L 363.127 174.681 Z  M 390.164 169.387 L 390.731 169.349 L 390.806 170.446 L 389.181 170.597 C 389.143 169.992 389.445 169.576 390.164 169.387 L 390.164 169.387 Z  M 383.357 171.77 L 380.672 171.467 L 380.635 170.975 C 384.151 170.673 385.323 170.295 387.479 169.69 C 387.517 170.106 387.895 170.257 388.575 170.181 L 388.651 171.278 L 387.592 171.391 C 386.76 171.467 386.042 171.354 385.437 171.013 C 384.794 171.429 384.113 171.694 383.357 171.77 L 383.357 171.77 Z  M 386.723 181.563 L 386.685 181.072 L 391.033 180.656 L 391.071 181.147 L 386.723 181.563 Z  M 391.374 177.782 L 391.336 177.177 L 393.453 176.988 L 393.491 177.593 L 391.374 177.782 Z  M 391.865 170.37 L 391.298 170.408 L 391.79 169.236 L 396.63 168.782 L 396.668 169.387 C 395.42 169.501 393.794 169.841 391.865 170.37 L 391.865 170.37 Z  M 394.323 180.807 L 394.248 179.71 L 396.365 179.521 C 397.084 179.446 397.462 179.786 397.5 180.542 L 394.323 180.807 L 394.323 180.807 Z  M 407.142 163.337 L 404.419 164.093 L 403.928 164.131 C 402.642 164.245 400.978 164.207 399.012 164.018 C 402.529 163.791 405.894 163.526 407.142 163.337 Z  M 404.23 175.438 L 404.268 175.929 L 400.525 176.269 L 400.487 175.778 L 404.23 175.438 Z  M 410.356 178.349 C 410.318 177.895 409.6 177.593 408.125 177.442 L 404.382 178.5 L 401.508 178.614 C 400.865 178.16 400.525 177.858 400.487 177.631 L 403.814 177.82 L 411.302 176.61 L 415.121 176.761 L 415.159 177.366 C 413.268 177.555 411.68 177.895 410.356 178.349 L 410.356 178.349 Z  M 448.889 168.404 C 449.342 168.442 449.645 168.442 449.758 168.442 C 451.082 167.156 452.557 166.135 454.258 165.417 C 452.897 171.391 450.779 175.816 447.868 178.69 L 445.75 177.404 C 447.527 172.904 448.586 169.917 448.889 168.404 L 448.889 168.404 Z  M 442.385 179.559 L 442.914 179.521 C 442.196 180.883 441.553 181.601 441.023 181.639 L 440.91 180.202 C 441.25 180.202 441.742 179.975 442.385 179.559 L 442.385 179.559 Z  M 438.187 189.58 C 439.208 185.496 440.191 183.189 441.099 182.584 L 441.137 183.076 C 440.607 186.857 439.775 188.861 438.679 189.013 L 438.868 191.395 C 437.96 192.681 437.544 193.664 437.582 194.42 L 437.053 194.458 L 436.75 191.168 C 437.355 191.092 437.847 190.563 438.187 189.58 L 438.187 189.58 Z  M 436.561 195.025 C 436.599 195.592 436.221 196.916 435.465 198.958 L 434.935 198.996 L 434.822 197.559 C 435.54 195.895 436.145 195.063 436.561 195.025 L 436.561 195.025 Z  M 406.045 283.585 L 406.008 283.169 L 406.991 283.094 L 407.104 284.531 C 406.575 284.568 406.197 284.266 406.045 283.585 Z  M 449.645 284.72 C 449.607 284.379 449.456 284.228 449.116 284.266 L 446.658 284.493 L 446.62 284.001 L 446.847 284.001 L 452.67 283.51 L 452.708 284.001 C 451.006 284.077 449.985 284.342 449.645 284.72 Z  M 446.733 283.51 C 446.96 283.623 446.847 283.736 446.733 283.812 C 446.62 283.774 446.469 283.661 446.733 283.51 Z  M 447.036 276.703 L 443.784 276.968 L 443.746 276.476 L 446.695 276.212 L 449.267 275.569 C 449.305 275.871 449.456 275.985 449.796 275.947 C 452.859 275.417 452.557 275.266 454.031 275.153 C 454.523 275.115 454.825 275.417 454.863 276.022 L 447.036 276.703 L 447.036 276.703 Z  M 458.418 275.72 C 456.603 275.531 456.489 275.38 455.204 275.493 L 455.166 275.077 L 458.077 274.812 L 458.115 275.228 C 457.813 275.266 458.909 275.342 458.418 275.72 Z  M 458.645 275.191 L 458.607 274.775 L 460.195 274.623 L 460.233 275.039 L 458.645 275.191 Z  M 462.161 274.888 L 462.123 274.472 C 462.388 274.434 462.766 274.245 463.258 273.867 C 464.052 273.791 464.468 274.321 464.544 274.926 L 462.161 274.888 L 462.161 274.888 Z  M 466.661 274.321 L 466.623 273.829 L 468.552 273.678 L 468.59 274.17 L 466.661 274.321 Z  M 469.346 274.094 C 469.308 273.527 469.535 273.186 470.027 273.111 L 470.669 273.943 C 470.632 273.678 470.745 273.527 470.972 273.489 L 471.464 274.396 L 469.346 274.094 L 469.346 274.094 Z  M 440.796 286.421 L 440.721 285.476 L 440.418 285.514 L 440.494 286.459 L 440.796 286.421 Z  M 507.235 269.216 C 507.538 269.027 507.689 268.838 506.971 268.724 C 506.63 269.103 507.349 269.216 506.593 269.254 L 506.63 269.594 C 506.706 269.518 506.895 269.405 507.046 269.292 L 506.63 269.632 L 506.63 269.67 L 505.836 270.691 L 507.425 270.123 L 507.614 270.123 L 507.538 269.178 L 507.235 269.216 L 507.235 269.216 Z  M 509.996 271.371 L 509.693 271.409 L 509.769 272.355 L 512 272.165 C 511.962 271.56 510.487 271.371 509.996 271.371 L 509.996 271.371 Z  M 506.555 269.708 L 506.593 269.67 L 506.593 269.632 C 506.593 269.632 506.555 269.67 506.555 269.708 L 506.555 269.708 Z " fill="rgb(0,0,0)"/><path d=" M 361.387 199.714 L 361.425 200.319 L 362.673 200.206 C 362.635 199.827 362.786 199.222 363.051 198.466 L 362.938 197.37 C 362.408 197.407 361.879 198.201 361.387 199.714 L 361.387 199.714 Z  M 349.438 170.975 L 349.325 169.879 L 347.547 170.03 L 347.661 171.127 L 349.438 170.975 Z  M 314.763 235.902 C 314.687 234.881 311.511 230.91 305.234 223.915 C 305.12 222.629 307.276 220.701 311.7 218.167 L 324.33 207.163 C 327.166 203.571 328.83 197.748 329.321 189.656 L 329.17 187.803 C 328.678 182.206 324.632 177.706 316.956 174.265 C 312.418 171.202 304.251 169.501 292.453 169.198 C 282.697 170.03 269.953 173.509 254.261 179.673 C 249.95 182.773 245.034 185.874 239.513 188.975 L 239.589 189.92 C 239.929 189.882 240.458 189.693 241.064 189.277 C 241.706 189.202 242.084 189.504 242.122 190.109 L 243.068 189.618 L 243.521 189.58 L 243.559 189.996 C 243.597 190.487 240.194 193.172 233.312 197.975 L 233.841 198.958 L 233.387 198.996 L 232.253 198.58 C 232.291 198.92 231.799 199.147 230.854 199.222 L 230.892 199.638 L 231.988 201 C 231.648 201.038 231.118 200.886 230.4 200.622 C 228.812 200.773 227.261 201.605 225.711 203.193 L 226.354 200.395 C 228.661 190.45 230.249 181.639 231.081 174.001 L 230.967 173.509 C 229.379 172.488 227.829 171.051 226.392 169.236 C 226.43 168.064 226.43 167.383 226.392 167.232 L 226.278 166.816 L 225.825 166.929 C 220.833 174.417 211.228 187.198 196.973 205.273 C 186.12 218.129 180.523 225.276 180.183 226.713 C 175.759 231.289 173.641 234.049 173.868 234.994 C 172.696 235.751 172.204 236.507 172.394 237.339 C 172.053 237.414 171.826 237.301 171.751 236.961 C 169.86 240.024 167.062 241.99 163.318 242.86 L 159.386 243.767 C 158.856 243.881 158.591 244.259 158.629 244.902 L 158.743 245.393 L 160.217 245.053 L 160.331 245.469 L 157.003 246.755 L 151.104 248.116 L 148.004 248.305 C 147.55 248.759 150.461 248.267 149.327 248.532 L 145.47 249.439 C 143.126 249.969 141.84 249.78 141.613 248.834 L 141.159 248.948 C 141.235 249.364 141.273 249.666 141.197 249.931 L 140.97 248.986 L 137.869 249.704 C 137.643 248.267 133.445 243.049 125.315 234.049 C 125.164 232.31 128.038 229.776 133.899 226.486 L 150.461 211.928 C 154.167 207.163 156.36 199.525 157.079 189.013 L 156.852 186.555 C 156.209 179.143 150.84 173.169 140.743 168.555 C 134.769 164.509 124.03 162.354 108.526 162.014 C 95.669 163.11 78.88 167.686 58.233 175.664 C 52.561 179.786 46.095 183.87 38.835 187.916 L 38.948 189.202 C 39.44 189.164 40.083 188.899 40.877 188.445 C 41.709 188.37 42.162 188.748 42.238 189.504 L 43.524 188.786 L 44.167 188.748 L 44.204 189.353 C 44.242 189.958 39.742 193.475 30.629 199.903 L 31.348 201.038 L 30.705 201.075 L 29.306 200.584 C 29.344 200.962 28.701 201.227 27.377 201.34 L 27.453 202.021 L 28.965 203.684 C 28.474 203.722 27.793 203.571 26.923 203.269 C 23.974 203.533 21.1 205.651 18.264 209.659 L 18.983 210.794 C 21.44 208.525 22.877 207.39 23.293 207.352 L 23.445 209.205 C 23.029 209.243 22.386 209.508 21.516 209.962 L 23.066 212.306 C 26.054 209.092 29.344 206.331 32.936 204.025 C 34.713 204.479 35.658 205.046 35.696 205.651 L 37.058 205.537 C 46.814 198.315 56.456 193.097 66.023 189.882 L 66.136 191.168 C 64.359 193.815 63.149 195.176 62.506 195.252 C 62.582 196.16 62.884 196.954 63.452 197.634 C 63.603 199.26 59.254 210.226 50.444 230.495 C 30.44 277.611 13.651 312.475 0 335.012 C 0.038 335.466 0.303 336.071 0.794 336.827 C 4.16 336.033 6.277 335.201 7.185 334.407 L 7.903 334.331 L 8.017 335.617 L 9.264 335.504 L 10.55 334.785 C 10.588 335.163 11.004 335.352 11.874 335.277 L 11.987 336.562 C 12.1 337.81 11.382 339.701 9.869 342.31 C 8.508 343.861 7.033 347.113 5.483 352.066 L 5.521 352.671 L 6.769 352.558 C 12.214 346.47 16.336 340.495 19.172 334.672 C 35.053 330.021 47.154 325.445 55.549 320.945 C 63.981 320.227 70.409 317.996 74.796 314.328 L 74.72 313.647 L 71.544 314.593 L 70.825 314.668 L 70.75 313.988 C 76.951 313.042 81.224 311.681 83.606 309.79 C 95.669 300.488 104.782 293.908 110.946 290.014 C 123.614 280.711 131.857 271.636 135.601 262.825 C 136.281 262.674 136.962 262.523 137.718 262.334 C 139.495 262.258 140.479 262.22 140.743 262.145 C 140.668 261.804 140.819 261.615 141.159 261.54 C 143.995 261.237 142.634 261.729 144.449 261.313 L 149.214 260.216 L 150.008 260.027 L 149.63 260.254 C 150.159 260.33 150.726 260.292 151.369 260.141 L 151.709 261.54 L 130.042 295.988 L 125.24 302.001 L 122.895 309.866 L 123.349 309.752 L 125.693 308.769 L 124.937 311.832 L 125.164 312.74 L 125.807 313.534 C 125.504 313.609 125.391 313.799 125.466 314.139 L 125.58 314.63 L 126.563 314.404 C 128 313.156 128.605 312.021 128.378 311 C 129.929 311.265 130.949 311.378 131.479 311.227 L 131.592 311.719 C 130.647 311.946 130.155 312.702 130.08 313.988 L 130.193 314.479 L 130.723 314.366 C 138.588 305.782 157.873 276.401 173.339 256.473 C 172.847 254.317 180.902 251.33 197.54 247.473 L 198.069 247.36 C 198.674 249.969 197.388 256.284 194.212 266.304 C 192.17 272.355 191.187 275.682 191.338 276.212 C 188.691 284.266 187.443 288.614 187.595 289.295 L 181.696 308.618 C 177.877 318.525 174.965 328.924 172.923 339.89 C 173.263 339.814 173.793 339.852 174.549 340.041 L 175.381 339.323 C 175.456 339.663 175.683 339.777 176.024 339.701 L 175.683 338.302 L 178.255 338.226 C 179.011 338.037 179.654 337.092 180.183 335.352 C 180.07 332.743 180.599 331.344 181.771 331.042 C 183.36 324.84 184.343 321.739 184.683 321.626 C 186.158 315.462 187.254 311.946 187.973 311.076 C 190.204 303.059 191.83 298.938 192.889 298.673 L 193.116 299.656 L 191.49 303.853 C 188.653 316.445 185.78 326.391 182.868 333.689 L 183.7 337.319 L 184.229 337.205 C 191.263 322.08 201.397 292.131 214.594 247.36 C 214.972 243.427 216.863 240.364 220.228 238.209 L 219.472 237.414 L 219.358 236.999 C 220.871 236.658 221.93 236.053 222.535 235.221 C 222.459 234.881 221.136 234.389 218.564 233.709 L 225.144 205.5 C 226.581 204.214 227.413 203.533 227.677 203.533 L 227.791 204.97 C 227.451 205.008 226.921 205.197 226.316 205.613 L 227.564 207.39 C 229.833 204.932 232.291 202.815 234.975 201.038 C 236.337 201.416 237.017 201.869 237.093 202.323 L 238.076 202.248 C 245.563 196.765 252.899 192.832 260.122 190.45 L 260.197 191.395 C 258.874 193.399 257.966 194.42 257.475 194.458 C 257.55 195.139 257.739 195.744 258.08 196.273 C 258.193 197.521 254.941 205.84 248.286 221.268 C 233.085 257.002 220.342 283.434 209.981 300.601 C 210.018 300.942 210.245 301.396 210.661 302.001 C 213.195 301.396 214.821 300.753 215.464 300.148 L 215.917 300.11 L 215.993 301.055 L 217.052 300.98 L 217.997 300.488 C 218.035 300.753 218.375 300.866 219.018 300.828 L 219.094 301.849 C 219.169 302.757 218.64 304.194 217.468 306.16 C 216.371 307.332 215.237 309.79 214.027 313.534 L 214.064 314.025 L 215.048 313.95 C 219.169 309.336 222.308 304.799 224.463 300.337 C 236.526 296.782 245.715 293.341 252.067 289.938 C 258.534 289.371 263.412 287.707 266.739 284.909 L 266.701 284.417 L 264.243 285.136 L 263.714 285.173 L 263.676 284.682 C 268.365 284.001 271.655 282.942 273.432 281.543 C 282.583 274.51 289.503 269.481 294.192 266.531 C 308.788 255.905 315.595 245.696 314.763 235.902 L 314.763 235.902 Z  M 312.267 236.545 L 312.607 240.364 C 312.154 241.309 311.662 241.801 311.208 241.839 L 310.641 235.335 C 311.7 235.713 312.229 236.091 312.267 236.545 L 312.267 236.545 Z  M 25.94 205.764 L 25.297 205.802 L 25.184 204.63 L 27.793 204.403 L 27.831 205.008 C 27.415 205.046 26.772 205.273 25.94 205.764 Z  M 13.197 333.235 C 11.684 332.554 10.323 332.29 9.151 332.403 L 9 330.55 C 8.924 329.832 9.34 329.34 10.248 329.151 C 11.079 329.075 11.571 329.68 11.647 330.89 C 13.84 328.206 15.05 326.844 15.277 326.806 L 16.676 327.374 C 16.222 331.155 15.05 333.084 13.197 333.235 Z  M 149.365 190.79 C 148.722 190.866 147.436 188.861 145.583 184.891 L 145.47 183.719 C 146.68 183.605 147.928 185.572 149.251 189.618 L 149.365 190.79 Z  M 147.55 176.685 L 147.02 177.933 L 128.529 170.219 C 140.857 170.635 147.209 172.791 147.55 176.685 Z  M 69.464 243.729 L 66.855 243.956 L 66.742 242.784 L 69.351 242.557 L 69.464 243.729 Z  M 67.347 203.458 L 67.989 203.42 L 68.141 205.273 C 67.536 205.31 66.742 206.218 65.758 207.957 L 65.645 206.672 C 66.817 205.273 67.422 204.214 67.347 203.458 L 67.347 203.458 Z  M 61.864 216.39 L 62.09 218.848 L 61.448 218.886 L 61.221 216.428 L 61.864 216.39 Z  M 58.99 221.003 L 60.238 220.89 C 60.124 222.932 59.557 224.028 58.536 224.104 L 57.893 224.142 C 58.687 222.781 59.065 221.722 58.99 221.003 Z  M 56.834 227.432 L 57.553 227.356 L 57.591 227.961 L 56.418 229.927 L 55.17 230.041 L 55.133 229.436 C 56.381 229.322 56.948 228.679 56.834 227.432 L 56.834 227.432 Z  M 54.717 233.217 L 54.339 236.318 L 53.696 236.356 L 53.431 233.293 L 54.717 233.217 Z  M 33.503 293.53 C 32.671 297.765 31.764 299.921 30.818 299.996 L 30.781 299.391 C 30.554 297.312 31.461 295.345 33.503 293.53 Z  M 29.608 301.963 L 29.646 302.568 C 29.722 303.4 29.344 303.891 28.512 303.929 L 28.474 303.324 C 28.398 302.606 28.776 302.152 29.608 301.963 Z  M 28.474 319.471 L 30.44 319.282 L 30.516 319.962 C 30.024 320 29.381 320.265 28.587 320.718 L 27.339 320.832 C 27.264 320.189 27.68 319.697 28.474 319.471 L 28.474 319.471 Z  M 84.438 302.19 C 73.397 307.635 66.893 311.341 64.964 313.269 C 53.015 317.429 47.078 320 47.192 321.021 C 36.566 325.218 29.57 328.319 26.205 330.248 C 25.411 330.323 24.277 330.021 22.764 329.34 C 22.575 327.185 23.558 325.445 25.638 324.046 C 27.491 323.895 29.268 324.16 30.97 324.878 C 32.936 323.857 36.377 322.723 41.255 321.513 L 41.142 320.227 L 37.209 320.567 C 37.7 319.887 41.482 318.109 48.591 315.235 L 50.557 315.046 L 50.595 315.651 C 47.23 315.954 45.377 316.937 44.961 318.714 C 45.036 319.508 45.49 319.849 46.322 319.773 C 48.856 318.185 50.103 317.24 50.066 316.975 C 54.868 316.067 68.141 309.11 89.884 296.139 L 89.997 297.312 C 90.035 297.879 88.182 299.467 84.438 302.19 L 84.438 302.19 Z  M 51.087 313.156 C 54.263 312.891 56.986 311.605 59.254 309.374 C 60.162 309.299 60.653 309.639 60.691 310.433 C 59.141 310.584 56.154 311.87 51.805 314.366 L 51.162 314.404 L 51.087 313.156 L 51.087 313.156 Z  M 104.896 271.825 L 88.22 285.06 C 75.817 293.19 69.162 297.274 68.178 297.349 C 48.44 308.202 36.15 313.836 31.386 314.252 L 30.667 314.328 C 31.272 312.097 40.045 294.135 57.061 260.33 C 64.548 259.687 76.346 256.208 92.417 249.855 L 96.35 249.515 C 104.48 248.796 110.568 250.385 114.576 254.166 L 114.803 256.624 C 111.816 265.283 108.488 270.35 104.896 271.825 L 104.896 271.825 Z  M 72.3 253.485 L 74.985 253.258 L 75.023 253.864 L 72.338 254.09 L 72.3 253.485 Z  M 110.001 247.095 L 111.967 246.906 C 113.782 247.775 114.727 248.532 114.803 249.212 L 114.841 249.817 C 113.101 249.969 111.475 249.061 110.001 247.095 L 110.001 247.095 Z  M 115.332 216.73 C 113.593 218.81 108.828 222.365 101.039 227.356 C 98.467 227.583 88.9 231.289 72.338 238.549 C 71.506 238.171 70.636 238.019 69.691 238.095 L 69.578 236.923 C 69.388 234.541 70.447 231.553 72.792 227.923 C 74.077 221.117 75.477 217.222 77.027 216.277 L 90.829 185.231 C 90.678 183.303 93.627 181.828 99.677 180.807 L 101.644 180.618 L 101.795 182.395 C 107.732 181.488 111.438 180.958 112.874 180.845 C 123.84 179.9 129.55 182.131 130.004 187.462 L 131.252 187.349 L 130.987 184.21 L 132.349 184.097 C 135.563 185.874 137.302 188.03 137.529 190.563 C 137.68 192.303 136.735 194.458 134.731 197.029 C 133.899 197.105 133.407 196.5 133.332 195.29 L 131.97 195.403 L 131.668 199.185 C 126.109 207.504 122.063 211.777 119.568 212.004 C 117.299 215.142 115.9 216.692 115.332 216.73 Z  M 123.803 238.473 C 122.668 237.717 121.761 237.377 121.08 237.414 L 120.929 235.562 L 122.177 235.448 L 124.937 237.074 C 125.051 237.944 124.672 238.398 123.803 238.473 L 123.803 238.473 Z  M 132.575 248.872 C 133.786 249.364 134.504 249.893 134.655 250.385 L 134.05 250.536 L 134.088 250.574 C 133.975 250.574 133.823 250.612 133.71 250.649 L 132.802 251.368 L 132.575 248.872 L 132.575 248.872 Z  M 133.407 254.09 L 133.294 253.599 L 134.882 253.221 L 134.996 253.712 L 133.407 254.09 Z  M 137.227 258.363 C 138.853 258.099 139.647 257.985 142.672 257.305 L 142.785 257.796 L 137.038 259.12 C 137.113 258.855 137.189 258.59 137.227 258.363 Z  M 142.823 260.746 C 140.403 260.973 140.932 260.67 137.075 261.54 L 136.962 261.048 L 141.802 259.498 L 144.109 258.968 L 144.336 259.876 C 143.277 260.103 144.033 260.103 142.823 260.746 Z  M 147.928 259.536 C 147.361 259.687 146.907 259.422 146.642 258.779 L 148.117 258.439 C 148.76 258.288 149.176 258.552 149.327 259.195 L 147.928 259.536 Z  M 161.768 244.637 L 161.654 244.145 L 164.037 243.578 L 164.264 244.486 L 161.768 244.637 L 161.768 244.637 Z  M 176.553 335.315 C 176.704 334.634 176.742 334.142 176.666 333.802 L 177.196 333.689 C 177.839 333.537 178.217 333.764 178.368 334.369 L 178.482 334.861 L 176.553 335.315 L 176.553 335.315 Z  M 186.914 248.532 L 185.855 248.343 C 184.154 249.023 182.717 249.515 181.544 249.78 L 180.561 250.006 C 179.994 250.158 179.54 249.931 179.313 249.326 L 186.233 247.738 L 188.502 246.679 L 189.258 247.549 C 188.162 247.775 187.368 248.116 186.914 248.532 L 186.914 248.532 Z  M 192.246 246.83 L 192.132 246.339 C 192.473 246.263 192.926 245.998 193.418 245.507 L 198.334 244.372 L 198.447 244.864 C 195.838 245.507 193.758 246.149 192.246 246.83 Z  M 193.002 236.885 C 192.662 236.961 192.208 237.263 191.641 237.717 C 191.565 237.377 190.884 237.377 189.599 237.679 C 189.372 236.734 193.002 235.41 200.527 233.671 L 201.586 233.444 L 201.813 234.352 C 196.519 235.902 193.569 236.772 193.002 236.885 L 193.002 236.885 Z  M 206.237 222.591 C 205.708 228.604 203.59 232.007 199.846 232.877 L 199.733 232.385 L 196.405 233.671 L 194.931 234.011 C 194.174 234.2 193.494 234.162 192.889 233.973 L 192.586 232.65 C 192.473 232.158 197.275 225.503 207.031 212.722 L 208.165 212.911 C 208.581 214.651 207.939 217.865 206.237 222.591 L 206.237 222.591 Z  M 229.644 202.55 L 229.19 202.588 L 229.114 201.643 L 231.081 201.453 L 231.118 201.945 C 230.778 202.021 230.287 202.21 229.644 202.55 Z  M 220.001 299.391 C 218.867 298.862 217.846 298.635 216.976 298.711 L 216.863 297.274 C 216.825 296.782 217.127 296.442 217.77 296.253 C 218.413 296.177 218.791 296.631 218.867 297.614 C 220.493 295.534 221.4 294.476 221.589 294.476 L 222.61 294.892 C 222.232 297.765 221.362 299.278 220.001 299.391 L 220.001 299.391 Z  M 323.384 191.244 C 322.893 191.282 321.947 189.769 320.473 186.706 L 320.397 185.761 C 321.342 185.685 322.326 187.16 323.309 190.185 L 323.384 191.244 Z  M 322.023 180.429 L 321.569 181.412 L 307.578 175.551 C 316.918 175.853 321.758 177.479 322.023 180.429 Z  M 262.693 231.364 L 260.727 231.553 L 260.651 230.608 L 262.617 230.419 L 262.693 231.364 Z  M 261.067 200.773 L 261.596 200.735 L 261.71 202.172 C 261.218 202.21 260.613 202.89 259.895 204.214 L 259.819 203.269 C 260.689 202.172 261.105 201.34 261.067 200.773 L 261.067 200.773 Z  M 256.945 210.604 L 257.097 212.457 L 256.567 212.495 L 256.416 210.642 L 256.945 210.604 Z  M 254.714 214.121 L 255.697 214.045 C 255.584 215.634 255.168 216.466 254.45 216.541 L 253.92 216.579 C 254.487 215.52 254.752 214.688 254.714 214.121 L 254.714 214.121 Z  M 253.126 218.961 L 253.58 218.923 L 253.618 219.415 L 252.748 220.928 L 251.765 221.003 L 251.727 220.512 C 252.748 220.436 253.202 219.907 253.126 218.961 L 253.126 218.961 Z  M 251.538 223.348 L 251.198 225.768 L 250.744 225.806 L 250.555 223.423 L 251.538 223.348 Z  M 235.391 269.216 C 234.749 272.392 234.068 274.018 233.349 274.094 L 233.312 273.678 C 233.198 272.09 233.879 270.577 235.391 269.216 L 235.391 269.216 Z  M 232.404 275.606 L 232.442 276.022 C 232.518 276.703 232.215 277.081 231.534 277.119 L 231.497 276.627 C 231.459 276.136 231.761 275.796 232.404 275.606 Z  M 231.572 288.917 L 233.085 288.804 L 233.123 289.295 C 232.782 289.333 232.253 289.522 231.648 289.862 L 230.665 289.938 C 230.627 289.409 230.929 289.068 231.572 288.917 Z  M 274.037 275.796 C 265.718 279.917 260.765 282.716 259.214 284.152 C 250.139 287.329 245.639 289.295 245.715 290.089 C 237.66 293.303 232.366 295.61 229.871 297.085 C 229.266 297.123 228.396 296.896 227.261 296.366 C 227.11 294.74 227.866 293.417 229.455 292.434 C 230.892 292.32 232.253 292.509 233.501 293.039 C 235.013 292.282 237.622 291.451 241.328 290.505 L 241.253 289.56 L 238.19 289.825 C 238.568 289.295 241.479 287.934 246.887 285.741 L 248.399 285.627 L 248.437 286.043 C 245.866 286.27 244.429 287.026 244.126 288.388 C 244.164 288.993 244.542 289.295 245.185 289.219 C 247.076 287.972 247.983 287.253 247.983 287.026 C 251.614 286.383 261.672 281.09 278.197 271.182 L 278.272 272.128 C 278.272 272.506 276.873 273.716 274.037 275.796 L 274.037 275.796 Z  M 248.702 284.115 C 251.16 283.888 253.24 282.942 254.979 281.279 C 255.622 281.241 256 281.505 256.038 282.11 C 254.903 282.224 252.672 283.169 249.307 284.984 L 248.778 285.022 L 248.702 284.115 L 248.702 284.115 Z  M 289.617 252.691 L 277.025 262.825 C 267.609 268.989 262.504 272.09 261.71 272.165 C 246.736 280.409 237.433 284.682 233.765 284.984 L 233.236 285.022 C 233.69 283.321 240.383 269.67 253.315 244.032 C 258.949 243.54 267.874 240.856 280.125 236.015 L 283.188 235.751 C 289.352 235.221 293.965 236.431 296.99 239.343 L 297.142 241.196 C 294.835 247.7 292.339 251.519 289.617 252.691 L 289.617 252.691 Z  M 264.886 238.776 L 266.853 238.587 L 266.89 239.078 L 264.924 239.267 L 264.886 238.776 Z  M 293.511 233.898 L 295.024 233.784 C 296.423 234.465 297.142 235.07 297.179 235.562 L 297.217 235.978 C 295.894 236.091 294.646 235.41 293.511 233.898 L 293.511 233.898 Z  M 297.482 210.869 C 296.158 212.457 292.566 215.18 286.705 218.961 C 284.739 219.15 277.478 221.949 264.924 227.394 C 264.319 227.167 263.638 227.091 262.92 227.129 L 262.844 226.184 C 262.693 224.369 263.487 222.1 265.227 219.339 C 266.21 214.121 267.306 211.209 268.441 210.529 L 278.991 186.933 C 278.877 185.534 281.108 184.399 285.646 183.53 L 287.159 183.416 L 287.272 184.853 C 291.734 184.135 294.532 183.719 295.667 183.605 C 303.986 182.887 308.334 184.551 308.675 188.635 L 309.658 188.559 L 309.469 186.29 L 310.452 186.214 C 312.872 187.538 314.158 189.126 314.309 191.017 C 314.422 192.378 313.742 194.042 312.305 195.97 C 311.662 196.046 311.284 195.592 311.208 194.609 L 310.225 194.685 L 309.923 197.521 C 305.725 203.911 302.662 207.201 300.734 207.352 C 299.032 209.659 297.973 210.831 297.482 210.869 L 297.482 210.869 Z  M 301.906 226.6 L 301.793 225.163 L 302.776 225.087 L 304.893 226.373 C 304.931 226.978 304.629 227.318 303.986 227.394 C 303.078 226.827 302.398 226.562 301.906 226.6 L 301.906 226.6 Z  M 125.882 318.45 L 124.899 318.677 L 124.067 319.395 C 124.219 320 124.597 320.227 125.24 320.076 C 125.882 319.924 126.147 319.546 125.996 318.941 L 125.882 318.45 Z  M 122.139 311 L 122.252 311.492 C 122.895 311.341 123.16 310.962 123.009 310.357 L 122.895 309.866 C 122.29 310.017 122.025 310.395 122.139 311 Z  M 148.911 260.708 L 149.63 260.254 C 149.478 260.254 149.365 260.216 149.251 260.178 C 148.987 260.254 148.873 260.443 148.911 260.708 Z  M 148.76 247.662 L 149.894 247.397 L 149.667 246.414 L 148.533 246.679 L 148.76 247.662 Z  M 415.991 285.854 L 413.419 285.552 L 412.965 286.535 L 413.003 287.026 L 428.318 285.741 L 428.242 284.795 L 415.991 285.854 L 415.991 285.854 Z  M 429.982 284.682 L 430.057 285.627 L 430.209 285.627 L 430.133 284.682 L 429.982 284.682 Z  M 494.227 276.287 L 494.303 277.232 L 495.967 277.535 L 495.891 276.59 L 494.227 276.287 Z  M 491.883 276.476 C 480.388 279.048 478.951 278.594 476.531 278.783 L 476.606 279.728 L 477.665 279.653 L 478.232 279.615 L 478.081 279.501 L 479.329 279.01 C 490.711 277.762 492.034 278.216 491.921 276.93 L 491.883 276.476 Z  M 422.873 259.762 L 421.852 259.422 C 421.02 261.653 420.604 262.977 420.642 263.355 L 420.679 263.771 C 421.474 263.733 422.192 262.372 422.873 259.762 L 422.873 259.762 Z  M 409.033 252.313 L 408.995 251.822 L 408.466 251.859 L 407.52 252.464 L 408.05 253.372 C 408.768 253.296 409.108 252.956 409.033 252.313 Z  M 439.095 283.396 L 439.019 282.451 L 438.717 282.489 L 438.792 283.434 L 439.095 283.396 Z  M 501.488 269.329 L 502.206 269.254 C 502.622 269.216 502.811 268.876 502.773 268.271 L 502.357 267.363 C 499.748 267.59 498.538 267.703 496.421 268.876 L 496.383 268.384 L 493.244 268.687 C 493.169 267.741 492.904 267.25 492.488 267.287 L 490.862 267.439 C 488.971 267.59 488.064 267.514 487.118 268.233 C 487.081 267.892 486.967 267.741 486.778 267.741 L 484.963 267.892 L 483.904 268.497 C 483.866 268.157 483.753 268.006 483.564 268.006 L 482.921 268.573 L 482.883 268.082 L 480.35 267.892 L 479.745 267.93 L 479.82 268.876 L 481.106 269.216 L 482.316 269.14 C 482.732 269.405 483.186 269.481 483.715 269.443 L 484.774 268.913 L 484.812 269.329 C 478.875 270.804 478.913 270.539 474.829 271.22 C 474.375 270.918 474.035 270.766 473.808 270.804 L 473.732 270.88 C 473.279 270.842 473.014 270.539 472.976 270.048 L 475.094 269.783 C 475.245 269.783 475.358 269.934 476.531 270.161 C 478.232 269.329 478.308 268.989 479.215 268.913 L 479.14 267.968 C 473.316 269.103 475.661 268.346 468.363 268.989 L 468.022 269.027 L 467.947 268.082 C 477.325 266.947 474.186 267.59 477.4 266.682 C 477.438 267.023 477.552 267.174 477.741 267.174 C 478.119 266.796 478.535 266.607 479.026 266.531 L 479.669 266.493 C 482.959 266.229 484.056 266.871 490.56 265.056 L 490.597 265.472 L 491.656 264.943 L 492.639 264.867 C 492.564 263.922 494.001 263.771 494.492 263.733 L 494.417 262.712 C 482.997 265.019 480.009 264.376 476.833 265.283 L 476.795 264.867 C 473.808 265.397 473.695 265.17 472.938 265.208 C 472.711 265.245 472.371 265.435 471.993 265.813 C 471.955 265.472 471.842 265.321 471.615 265.321 C 471.501 265.321 471.464 265.359 471.426 265.359 L 461.745 266.947 C 461.708 266.682 461.594 266.531 461.367 266.569 C 456.338 267.628 457.699 267.817 450.968 268.422 C 450.666 268.46 450.25 268.611 449.721 268.951 C 449.683 268.687 449.531 268.535 449.191 268.573 L 445.069 268.913 L 442.309 269.594 C 442.271 269.329 442.12 269.178 441.78 269.216 C 440.229 269.632 438.868 269.897 437.771 269.972 L 437.696 269.972 C 437.015 270.048 438.036 269.783 437.507 269.556 L 436.675 270.048 C 435.465 270.161 436.108 269.972 431.948 270.01 C 424.65 270.918 425.444 271.031 424.65 271.069 L 421.927 270.88 C 421.965 271.144 421.814 271.334 421.511 271.334 C 418.411 270.918 416.822 270.426 416.785 269.859 C 417.201 266.909 417.919 265.397 418.94 265.321 L 419.469 265.283 L 419.016 266.266 L 419.545 266.229 C 420.528 265.699 420.982 265.208 420.944 264.754 L 420.869 263.733 L 419.885 263.809 L 419.81 262.863 C 419.734 262.145 419.848 261.502 420.112 260.973 L 422.343 257.38 L 422.419 258.326 L 423.478 258.25 L 423.402 257.305 L 422.797 256.435 C 423.591 255.754 424.196 255.376 424.688 255.338 L 424.65 254.847 L 423.213 254.96 L 423.1 253.523 C 425.973 247.549 427.335 244.07 427.259 243.087 L 428.28 243.503 C 428.923 243.465 429.225 243.087 429.188 242.406 L 428.204 242.482 L 428.167 242.066 C 428.091 241.347 428.242 240.666 428.545 240.061 C 430.095 238.435 430.814 236.809 430.662 235.108 C 430.965 235.07 431.116 235.221 431.154 235.562 C 432.477 234.805 433.498 232.801 434.255 229.474 C 436.599 225.238 439.927 216.768 444.275 204.1 C 452.594 181.715 452.254 179.332 453.426 174.038 L 452.443 174.114 C 452.519 174.795 452.368 175.438 452.065 176.043 C 451.384 175.778 450.855 175.627 450.477 175.664 L 450.439 175.248 C 450.288 173.32 451.082 171.013 452.897 168.291 L 453.351 168.253 L 454.183 171.505 L 455.166 171.429 C 455.128 171.202 455.393 169.917 455.922 167.534 C 455.884 167.043 455.506 166.74 454.75 166.703 L 453.804 167.308 C 453.729 166.627 453.767 164.85 453.88 162.014 L 453.388 162.051 C 452.557 161.219 452.141 160.539 452.103 159.972 L 446.695 160.501 C 446.658 160.123 446.469 159.556 446.09 158.837 C 446.053 158.346 447.263 157.854 449.758 157.362 L 450.855 157.778 L 451.876 157.173 C 451.914 157.514 452.103 157.665 452.481 157.627 L 453.502 157.022 C 453.54 157.362 453.729 157.514 454.107 157.476 L 454.599 157.438 L 454.523 156.342 C 453.767 156.417 451.762 156.417 448.586 156.304 L 447.565 156.984 L 447.527 156.379 C 422.154 158.459 407.747 159.631 404.306 159.972 C 403.852 160.009 402.075 159.972 398.936 159.896 C 398.974 160.312 398.596 160.539 397.84 160.614 L 396.743 160.123 L 393.038 161.068 C 392.168 161.144 390.693 161.106 388.651 160.879 C 388.084 161.333 387.403 161.598 386.571 161.673 C 386.118 161.711 391.979 161.371 397.424 160.993 C 396.857 161.446 395.987 161.711 394.777 161.825 C 393.945 161.9 393.227 161.787 392.622 161.446 C 391.79 161.825 389.105 162.43 384.605 163.337 L 383.508 162.921 L 365.812 165.644 C 365.131 165.303 364.337 165.19 363.429 165.266 C 362.484 165.341 360.896 165.682 358.703 166.287 L 350.157 169.841 L 350.799 170.9 C 351.215 170.862 351.82 170.635 352.539 170.219 L 355.564 170.484 L 355.186 173.32 C 352.388 174.568 350.762 176.421 350.308 178.765 C 346.11 180.618 344.031 181.942 344.031 182.736 L 344.069 183.227 L 344.711 183.189 L 345.846 182.584 L 347.169 184.173 L 347.358 186.366 C 347.434 187.046 340.363 201.907 326.22 230.948 C 313.969 258.931 307.54 274.245 306.935 277.006 C 302.738 278.178 300.318 279.879 299.599 282.148 C 299.675 282.867 300.923 283.358 303.343 283.547 L 303.456 284.644 L 302.36 286.459 L 302.549 288.652 C 302.662 289.787 305.725 290.656 311.738 291.261 C 311.7 290.883 311.889 290.656 312.305 290.619 C 312.418 291.98 312.04 294.627 311.17 298.56 L 311.813 298.522 C 314.309 295.118 315.481 292.774 315.368 291.488 L 315.897 291.451 C 316.502 291.413 317.145 292.093 317.901 293.568 C 317.145 293.871 314.498 299.883 309.96 311.643 L 310.603 312.702 L 311.246 312.664 C 316.805 298.597 320.284 290.808 321.721 289.333 C 329.019 288.69 341.648 287.404 359.572 285.476 L 360.707 284.795 C 360.744 285.173 360.971 285.362 361.387 285.325 L 362.56 285.211 L 363.694 284.531 C 363.732 284.909 363.959 285.098 364.375 285.06 L 377.95 283.888 C 381.542 283.585 383.244 282.489 383.092 280.636 C 383.055 280.144 385.172 279.577 389.445 278.972 C 389.861 278.934 390.466 279.048 391.298 279.312 C 391.26 278.972 393.416 278.632 397.726 278.253 C 397.84 275.985 398.558 274.775 399.844 274.661 L 399.731 273.565 C 398.521 273.678 397.159 273.981 395.571 274.51 C 392.735 274.359 390.92 274.132 390.164 273.867 C 389.407 274.283 388.84 274.51 388.424 274.548 L 378.971 274.85 L 377.836 275.455 C 377.799 275.115 377.572 274.964 377.156 275.001 L 376.626 275.039 L 375.416 275.644 C 375.378 275.304 374.395 275.039 372.429 274.775 L 371.219 275.493 L 368.874 275.682 L 368.837 275.077 C 381.013 273.754 387.025 272.09 386.874 270.123 C 387.668 270.048 388.084 270.426 388.16 271.22 L 391.714 270.313 L 391.601 269.216 L 362.446 270.01 C 362.484 270.388 362.295 270.615 361.879 270.653 L 358.324 270.35 C 357.417 270.426 356.661 270.691 356.056 271.144 L 354.732 270.653 C 351.064 270.955 348.342 271.409 346.526 271.976 C 344.031 271.787 341.27 271.825 338.207 272.09 L 331.666 272.657 L 328.64 272.317 C 328.489 270.388 332.233 260.897 339.947 243.881 C 342.178 238.133 344.22 234.541 346.186 233.179 C 346.602 233.142 347.207 233.293 348.039 233.633 L 352.69 232.045 L 355.072 232.423 C 359.081 232.083 363.732 230.948 369.064 228.982 C 370.387 228.869 371.37 228.944 372.089 229.247 L 375.643 228.415 L 386.231 227.507 C 390.731 227.129 395.609 226.146 400.903 224.52 L 400.789 223.423 C 398.823 223.612 397.802 223.272 397.726 222.478 C 397.613 221.003 396.176 220.398 393.416 220.625 L 393.302 219.529 L 396.214 218.697 L 403.852 218.054 L 403.739 216.957 C 403.436 216.995 401.886 216.957 399.012 216.844 L 398.899 215.671 L 401.848 215.407 C 402.642 215.331 402.983 214.953 402.907 214.197 C 398.936 214.31 396.932 214.121 396.895 213.592 C 369.215 214.953 355.337 215.218 355.261 214.348 C 354.845 214.386 354.278 214.651 353.522 215.104 L 352.804 213.97 C 360.139 198.391 364.45 190.525 365.698 190.412 C 365.736 191.017 365.433 192 364.791 193.323 L 364.828 193.815 L 366.001 193.702 C 368.912 186.744 371.37 183.152 373.412 183 C 382.109 182.244 372.202 181.677 390.806 178.765 C 391.563 179.105 392.092 179.257 392.47 179.219 C 399.768 177.744 409.94 176.194 422.986 174.606 L 422.91 173.509 L 415.953 174.152 L 415.877 173.055 C 416.709 172.98 417.39 172.715 417.957 172.261 L 417.995 172.866 C 418.373 172.828 418.902 172.564 419.583 172.11 C 420.793 171.996 421.7 172.11 422.343 172.45 C 424.763 171.807 426.73 171.429 428.167 171.278 L 432.515 170.862 C 433.574 170.181 434.066 169.576 434.028 169.009 L 433.99 168.518 C 432.893 168.631 431.645 168.555 430.171 168.291 C 430.133 167.686 430.435 167.27 431.154 167.081 L 439.246 166.324 L 442.952 165.379 C 442.99 165.795 443.179 165.946 443.481 165.946 C 443.859 165.908 444.389 165.644 445.069 165.19 C 445.258 165.228 445.485 165.228 445.674 165.266 C 445.183 166.287 444.616 167.761 444.048 169.69 L 442.99 169.765 C 442.914 169.047 442.725 168.404 442.385 167.837 L 441.855 167.875 C 432.024 195.252 427.637 207.995 418.562 229.02 C 416.898 234.389 415.499 237.377 414.289 238.019 C 414.327 238.625 414.705 238.927 415.348 238.851 C 415.575 241.498 414.97 244.108 413.495 246.679 C 409.297 258.779 406.499 265.397 405.062 266.607 L 406.008 272.317 C 406.045 272.922 405.743 273.262 405.1 273.338 L 404.117 273.413 C 403.966 271.825 403.399 271.069 402.378 271.182 L 401.848 271.22 C 400.562 273.224 399.579 275.531 398.936 278.216 L 399.92 278.14 C 401.243 277.27 401.848 276.249 401.735 275.077 L 403.701 274.888 L 404.835 275.304 C 403.928 276.741 403.512 277.875 403.588 278.745 L 404.117 279.653 L 402.831 282.678 L 402.869 283.169 C 404.004 283.056 405.251 283.434 406.575 284.228 C 407.482 284.152 408.466 283.736 409.562 283.018 C 410.697 282.905 414.932 282.867 422.23 282.867 L 425.898 281.619 C 430.36 281.581 431.078 281.695 434.935 281.354 L 436.523 281.203 L 437.355 280.636 L 437.393 281.127 C 441.439 280.787 441.704 281.052 444.88 281.43 L 444.918 281.921 L 442.687 282.11 L 442.763 283.056 C 443.443 282.98 444.048 282.791 444.54 282.375 C 445.107 282.337 445.448 282.64 445.485 283.321 C 444.578 283.396 443.557 283.623 442.422 284.001 L 441.439 283.661 C 439.889 284.077 440.229 284.19 439.17 284.266 L 437.62 283.963 C 437.658 284.228 437.507 284.417 437.242 284.417 C 437.28 285.022 437.62 285.325 438.187 285.287 L 439.775 285.136 L 448.057 284.417 L 451.195 283.736 C 451.233 284.001 451.347 284.152 451.611 284.115 L 453.124 283.547 L 455.96 283.321 C 458.153 283.131 458.115 282.98 462.88 282.224 C 462.842 281.921 462.955 281.808 463.182 281.77 L 463.22 282.186 C 470.972 280.863 471.464 280.787 472.711 280.371 L 472.825 280.598 C 474.753 280.144 473.657 280.258 474.186 279.879 C 474.224 280.22 474.337 280.371 474.526 280.371 L 475.888 280.258 L 475.812 279.237 L 473.052 279.199 L 473.014 279.123 C 472.9 279.161 472.825 279.161 472.711 279.199 L 472.333 279.199 L 472.333 279.274 C 470.48 279.653 470.443 279.388 469.232 279.501 L 462.313 279.879 L 462.275 279.388 L 466.132 278.858 L 467.531 278.745 L 468.325 278.178 L 468.363 278.669 C 473.808 278.216 475.736 279.577 500.921 274.207 C 502.282 274.094 502.168 272.96 503.038 270.615 C 502.584 270.653 502.131 270.539 501.715 270.313 C 499.635 271.107 498.538 270.729 494.53 271.371 C 494.19 271.409 493.925 271.107 493.812 270.502 L 493.774 270.086 L 497.631 270.199 C 498.349 270.123 499.748 270.01 501.828 268.838 C 501.828 269.178 501.034 269.367 501.488 269.329 L 501.488 269.329 Z  M 315.292 272.317 L 313.515 272.468 C 313.439 271.749 314.385 269.027 316.351 264.376 L 317.523 264.262 C 317.561 265.359 316.843 268.044 315.292 272.317 Z  M 317.448 263.695 L 317.41 263.204 C 317.372 262.599 317.75 262.183 318.582 261.994 L 318.62 262.485 C 318.658 263.204 318.279 263.619 317.448 263.695 Z  M 341.081 281.959 L 341.119 282.451 L 338.17 282.716 L 338.132 282.224 L 341.081 281.959 Z  M 337.527 281.657 C 337.565 282.262 336.657 282.942 334.691 283.623 L 331.061 283.358 L 329.888 283.472 L 329.775 282.375 L 337.527 281.657 L 337.527 281.657 Z  M 361.425 171.656 L 359.648 171.807 L 359.61 171.202 C 359.572 170.597 359.913 170.181 360.669 169.992 L 361.312 169.955 L 362.522 170.446 C 362.56 171.165 362.219 171.581 361.425 171.656 L 361.425 171.656 Z  M 388.462 166.362 L 389.029 166.324 L 389.105 167.421 L 387.479 167.572 C 387.441 166.967 387.744 166.551 388.462 166.362 L 388.462 166.362 Z  M 381.656 168.744 L 378.971 168.442 L 378.933 167.95 C 382.45 167.648 383.622 167.27 385.777 166.665 C 385.815 167.081 386.193 167.232 386.874 167.156 L 386.949 168.253 L 385.891 168.366 C 385.059 168.442 384.34 168.329 383.735 167.988 C 383.092 168.404 382.412 168.669 381.656 168.744 L 381.656 168.744 Z  M 385.021 178.538 L 384.983 178.047 L 389.332 177.631 L 389.37 178.122 L 385.021 178.538 Z  M 389.672 174.757 L 389.634 174.152 L 391.752 173.963 L 391.79 174.568 L 389.672 174.757 Z  M 390.164 167.345 L 389.596 167.383 L 390.088 166.211 L 394.928 165.757 L 394.966 166.362 C 393.718 166.476 392.092 166.816 390.164 167.345 L 390.164 167.345 Z  M 392.622 177.782 L 392.546 176.685 L 394.664 176.496 C 395.382 176.421 395.76 176.761 395.798 177.517 L 392.622 177.782 L 392.622 177.782 Z  M 405.44 160.312 L 402.718 161.068 L 402.226 161.106 C 400.941 161.219 399.277 161.182 397.31 160.993 C 400.827 160.766 404.193 160.501 405.44 160.312 Z  M 402.529 172.412 L 402.567 172.904 L 398.823 173.244 L 398.785 172.753 L 402.529 172.412 Z  M 408.655 175.324 C 408.617 174.87 407.898 174.568 406.424 174.417 L 402.68 175.475 L 399.806 175.589 C 399.163 175.135 398.823 174.832 398.785 174.606 L 402.113 174.795 L 409.6 173.585 L 413.419 173.736 L 413.457 174.341 C 411.566 174.53 409.978 174.87 408.655 175.324 L 408.655 175.324 Z  M 447.187 165.379 C 447.641 165.417 447.943 165.417 448.057 165.417 C 449.38 164.131 450.855 163.11 452.557 162.392 C 451.195 168.366 449.078 172.791 446.166 175.664 L 444.048 174.379 C 445.826 169.879 446.884 166.892 447.187 165.379 L 447.187 165.379 Z  M 440.683 176.534 L 441.212 176.496 C 440.494 177.858 439.851 178.576 439.322 178.614 L 439.208 177.177 C 439.549 177.177 440.04 176.95 440.683 176.534 L 440.683 176.534 Z  M 436.486 186.555 C 437.507 182.471 438.49 180.164 439.397 179.559 L 439.435 180.051 C 438.906 183.832 438.074 185.836 436.977 185.988 L 437.166 188.37 C 436.259 189.656 435.843 190.639 435.881 191.395 L 435.351 191.433 L 435.049 188.143 C 435.654 188.067 436.145 187.538 436.486 186.555 L 436.486 186.555 Z  M 434.86 192 C 434.897 192.567 434.519 193.891 433.763 195.933 L 433.234 195.97 L 433.12 194.534 C 433.839 192.87 434.444 192.038 434.86 192 L 434.86 192 Z  M 404.344 280.56 L 404.306 280.144 L 405.289 280.069 L 405.403 281.505 C 404.873 281.543 404.495 281.241 404.344 280.56 Z  M 447.943 281.695 C 447.905 281.354 447.754 281.203 447.414 281.241 L 444.956 281.468 L 444.918 280.976 L 445.145 280.976 L 450.968 280.484 L 451.006 280.976 C 449.305 281.052 448.284 281.316 447.943 281.695 Z  M 445.032 280.484 C 445.258 280.598 445.145 280.711 445.032 280.787 C 444.918 280.749 444.767 280.636 445.032 280.484 Z  M 445.334 273.678 L 442.082 273.943 L 442.044 273.451 L 444.994 273.186 L 447.565 272.544 C 447.603 272.846 447.754 272.96 448.095 272.922 C 451.157 272.392 450.855 272.241 452.33 272.128 C 452.821 272.09 453.124 272.392 453.162 272.997 L 445.334 273.678 L 445.334 273.678 Z  M 456.716 272.695 C 454.901 272.506 454.788 272.355 453.502 272.468 L 453.464 272.052 L 456.376 271.787 L 456.414 272.203 C 456.111 272.241 457.208 272.317 456.716 272.695 Z  M 456.943 272.165 L 456.905 271.749 L 458.493 271.598 L 458.531 272.014 L 456.943 272.165 Z  M 460.46 271.863 L 460.422 271.447 C 460.687 271.409 461.065 271.22 461.556 270.842 C 462.35 270.766 462.766 271.296 462.842 271.901 L 460.46 271.863 L 460.46 271.863 Z  M 464.96 271.296 L 464.922 270.804 L 466.85 270.653 L 466.888 271.144 L 464.96 271.296 Z  M 467.644 271.069 C 467.606 270.502 467.833 270.161 468.325 270.086 L 468.968 270.918 C 468.93 270.653 469.043 270.502 469.27 270.464 L 469.762 271.371 L 467.644 271.069 L 467.644 271.069 Z  M 504.853 266.682 L 504.891 266.645 L 504.891 266.607 C 504.891 266.607 504.853 266.645 504.853 266.682 L 504.853 266.682 Z  M 505.534 266.191 C 505.836 266.002 505.988 265.813 505.269 265.699 C 504.929 266.077 505.647 266.191 504.891 266.229 L 504.929 266.569 C 505.004 266.493 505.194 266.38 505.345 266.266 L 504.929 266.607 L 504.929 266.645 L 504.135 267.666 L 505.723 267.098 L 505.912 267.098 L 505.836 266.153 L 505.534 266.191 L 505.534 266.191 Z  M 508.294 268.346 L 507.992 268.384 L 508.067 269.329 L 510.298 269.14 C 510.261 268.535 508.786 268.346 508.294 268.346 L 508.294 268.346 Z " fill="rgb(249,220,62)"/></g></g></svg>