<?xml version="1.0" encoding="UTF-8" standalone="no"?><!-- Generator: Gravit.io --><svg xmlns="http://www.w3.org/2000/svg" xmlns:xlink="http://www.w3.org/1999/xlink" style="isolation:isolate" viewBox="0 0 512 512" width="512pt" height="512pt"><defs><clipPath id="_clipPath_RmMnJ1orqE5b7B4a4FGIz5vZZpUuA4gu"><rect width="512" height="512"/></clipPath></defs><g clip-path="url(#_clipPath_RmMnJ1orqE5b7B4a4FGIz5vZZpUuA4gu)"><g><path d=" M 256 0 L 482.269 127.985 L 482.269 384.015 L 256 512 L 29.731 384.015 L 29.731 127.985 L 256 0 Z " fill="rgb(255,255,255)"/><path d=" M 441.868 375.186 L 263.484 476.101 L 263.484 397.521 L 374.631 336.364 L 441.868 375.186 Z  M 454.088 364.136 L 454.088 153.126 L 388.838 190.838 L 388.838 326.483 L 454.088 364.136 Z  M 69.43 375.186 L 247.815 476.101 L 247.815 397.521 L 136.609 336.364 L 69.43 375.186 Z  M 57.21 364.136 L 57.21 153.126 L 122.46 190.838 L 122.46 326.483 L 57.21 364.136 Z  M 64.87 139.445 L 247.815 35.958 L 247.815 111.907 L 130.587 176.396 L 129.652 176.923 L 64.87 139.445 Z  M 446.429 139.445 L 263.484 35.958 L 263.484 111.907 L 380.711 176.338 L 381.647 176.864 L 446.429 139.445 Z " fill="rgb(142,214,251)"/><path d=" M 247.815 379.63 L 138.129 319.291 L 138.129 199.842 L 247.815 263.162 L 247.815 379.63 Z  M 263.484 379.63 L 373.169 319.35 L 373.169 199.842 L 263.484 263.162 L 263.484 379.63 Z  M 145.555 186.044 L 255.649 125.53 L 365.744 186.044 L 255.649 249.598 L 145.555 186.044 Z " fill="rgb(28,120,192)"/></g></g></svg>