<?xml version="1.0" encoding="UTF-8" standalone="no"?><!-- Generator: Gravit.io --><svg xmlns="http://www.w3.org/2000/svg" xmlns:xlink="http://www.w3.org/1999/xlink" style="isolation:isolate" viewBox="0 0 1451.339 1451.339" width="1451.339pt" height="1451.339pt"><defs><clipPath id="_clipPath_7cGgLdzmzWIknv9XEauDef2qm7ZuPVSf"><rect width="1451.339" height="1451.339"/></clipPath></defs><g clip-path="url(#_clipPath_7cGgLdzmzWIknv9XEauDef2qm7ZuPVSf)"><rect width="1451.339" height="1451.339" style="fill:rgb(239,191,4)"/><path d=" M 725.746 1020.317 C 720.592 1020.353 715.52 1019.033 711.035 1016.493 C 672.642 994.279 388.29 815.991 377.552 810.547 C 369.38 806.734 363.799 798.921 362.842 789.953 L 362.842 539.877 C 362.63 530.542 367.245 521.758 375.051 516.635 L 377.111 515.458 C 404.619 498.394 496.705 442.201 511.269 434.11 C 514.611 432.127 518.417 431.061 522.301 431.021 C 525.944 431.062 529.524 431.97 532.746 433.669 C 532.746 433.669 661.609 517.665 681.32 525.167 C 695.151 531.521 710.233 534.688 725.452 534.434 C 742.697 534.795 759.737 530.636 774.878 522.372 C 794.149 512.222 917.274 434.11 918.598 434.11 C 921.702 432.235 925.269 431.267 928.895 431.315 C 932.784 431.334 936.595 432.401 939.928 434.404 C 956.698 443.672 1070.85 513.546 1075.704 516.635 C 1083.733 521.479 1088.6 530.207 1088.502 539.583 L 1088.502 789.659 C 1087.602 798.649 1082.004 806.486 1073.793 810.253 C 1063.054 816.137 779.586 994.427 740.456 1016.199 C 736.001 1018.843 730.926 1020.263 725.746 1020.317 Z " fill="rgb(237,29,36)"/></g></svg>