<?xml version="1.0" encoding="UTF-8" standalone="no"?><!-- Generator: Gravit.io --><svg xmlns="http://www.w3.org/2000/svg" xmlns:xlink="http://www.w3.org/1999/xlink" style="isolation:isolate" viewBox="0 0 512 512" width="512pt" height="512pt"><defs><clipPath id="_clipPath_paoffwDKrjlxkL8lBZLuVWGz6PLB9OC4"><rect width="512" height="512"/></clipPath></defs><g clip-path="url(#_clipPath_paoffwDKrjlxkL8lBZLuVWGz6PLB9OC4)"><rect x="0" y="0" width="512" height="512" transform="matrix(1,0,0,1,0,0)" fill="rgb(27,27,29)"/><path d=" M 352.195 230.917 C 356.219 204.017 335.738 189.557 307.733 179.91 L 316.818 143.471 L 294.637 137.944 L 285.793 173.422 C 279.962 171.969 273.973 170.598 268.022 169.24 L 276.93 133.528 L 254.762 128 L 245.671 164.426 C 240.845 163.327 236.106 162.24 231.507 161.097 L 231.533 160.983 L 200.944 153.345 L 195.043 177.036 C 195.043 177.036 211.5 180.807 211.153 181.041 C 220.136 183.284 221.76 189.228 221.488 193.941 L 211.14 235.453 C 211.759 235.611 212.562 235.838 213.446 236.192 C 212.707 236.009 211.917 235.806 211.102 235.611 L 196.597 293.762 C 195.498 296.491 192.712 300.585 186.433 299.031 C 186.654 299.353 170.311 295.007 170.311 295.007 L 159.3 320.396 L 188.164 327.592 C 193.534 328.938 198.796 330.346 203.976 331.673 L 194.797 368.529 L 216.952 374.056 L 226.043 337.592 C 232.095 339.235 237.97 340.751 243.719 342.179 L 234.66 378.472 L 256.84 384 L 266.019 347.214 C 303.842 354.371 332.283 351.484 344.254 317.276 C 353.901 289.732 343.774 273.843 323.874 263.483 C 338.366 260.141 349.283 250.608 352.195 230.917 Z  M 301.517 301.981 C 294.662 329.525 248.286 314.635 233.251 310.901 L 245.431 262.074 C 260.466 265.827 308.681 273.256 301.517 301.981 Z  M 308.378 230.519 C 302.123 255.574 263.524 242.844 251.003 239.723 L 262.046 195.438 C 274.567 198.559 314.891 204.384 308.378 230.519 Z " fill="rgb(255,255,255)"/></g></svg>