<?xml version="1.0" encoding="UTF-8" standalone="no"?><!-- Generator: Gravit.io --><svg xmlns="http://www.w3.org/2000/svg" xmlns:xlink="http://www.w3.org/1999/xlink" style="isolation:isolate" viewBox="0 0 512 512" width="512pt" height="512pt"><defs><clipPath id="_clipPath_xN3yJLBsAjgRHemE9yLRQjXjF6FhMIgL"><rect width="512" height="512"/></clipPath></defs><g clip-path="url(#_clipPath_xN3yJLBsAjgRHemE9yLRQjXjF6FhMIgL)"><circle vector-effect="non-scaling-stroke" cx="256" cy="256" r="256" fill="rgb(237,29,36)" /><path d=" M 128 168.567 L 166.875 168.567 L 166.875 272.898 C 166.875 289.409 174.427 299.244 180.4 303.46 C 174.077 309.081 154.756 313.999 140.353 302.054 C 131.862 295.014 128 283.437 128 272.547 L 128 168.567 Z  M 370.952 255.233 L 370.952 244.268 L 382.809 244.268 L 382.809 205.804 L 369.789 205.804 C 364.79 182.71 344.23 165.405 319.642 165.405 C 291.316 165.405 268.354 188.368 268.354 216.693 L 268.354 306.52 C 276.424 307.654 286.038 306.379 294.218 299.596 C 302.708 292.554 306.57 280.978 306.57 270.088 L 306.57 266.779 L 325.985 266.779 L 325.985 228.314 L 306.57 228.314 L 306.57 216.693 L 306.616 216.693 C 306.616 209.5 312.447 203.668 319.642 203.668 C 326.835 203.668 332.689 209.5 332.689 216.693 L 332.689 255.233 C 332.689 283.557 355.675 306.52 384 306.52 L 384 268.257 C 376.807 268.257 370.952 262.426 370.952 255.233 Z  M 223.719 205.804 L 223.719 262.255 C 223.719 265.46 221.06 268.058 217.78 268.058 C 214.499 268.058 211.84 265.46 211.84 262.255 L 211.84 205.804 L 173.373 205.804 L 173.373 272.196 C 173.373 284.139 177.424 299.244 195.856 304.162 C 214.308 309.086 225.013 298.894 225.013 298.894 C 224.038 305.608 217.714 310.526 207.527 311.58 C 199.819 312.377 189.962 309.824 185.045 307.716 L 185.045 342.891 C 197.574 346.586 210.826 347.78 223.794 345.263 C 247.33 340.697 262.184 321.025 262.184 294.854 L 262.184 205.804 L 223.719 205.804 Z " fill-rule="evenodd" fill="rgb(255,255,255)"/></g></svg>