<?xml version="1.0" encoding="UTF-8" standalone="no"?><!-- Generator: Gravit.io --><svg xmlns="http://www.w3.org/2000/svg" xmlns:xlink="http://www.w3.org/1999/xlink" style="isolation:isolate" viewBox="0 0 512 512" width="512pt" height="512pt"><defs><clipPath id="_clipPath_6NHg6Hb5hd9rDvCAYpy2Ls37TRZ2Pokh"><rect width="512" height="512"/></clipPath></defs><g clip-path="url(#_clipPath_6NHg6Hb5hd9rDvCAYpy2Ls37TRZ2Pokh)"><rect x="0" y="0" width="512" height="512" transform="matrix(1,0,0,1,0,0)" fill="rgb(149,6,6)"/><path d=" M 384 305.947 C 383.484 306.659 382.773 307.207 381.953 307.525 C 380.976 307.887 379.939 308.062 378.897 308.043 C 377.794 308.068 376.708 307.777 375.766 307.204 C 374.825 306.618 374.085 305.758 373.646 304.739 C 373.116 303.632 372.855 302.416 372.881 301.189 L 372.881 299.932 C 372.793 298.163 373.324 296.419 374.385 295.001 C 375.459 293.769 377.043 293.105 378.675 293.202 C 379.991 293.134 381.287 293.545 382.324 294.36 C 383.285 295.196 383.886 296.371 384 297.639 L 382.102 297.639 C 381.945 295.9 380.415 294.612 378.675 294.755 C 377.544 294.682 376.456 295.194 375.79 296.111 C 375.046 297.267 374.692 298.633 374.78 300.006 L 374.78 301.189 C 374.705 302.559 375.096 303.915 375.889 305.035 C 376.595 305.981 377.717 306.524 378.897 306.49 C 379.53 306.494 380.16 306.411 380.77 306.243 C 381.286 306.112 381.75 305.829 382.102 305.43 L 382.102 302.2 L 378.774 302.2 L 378.774 300.647 L 384 300.647 L 384 305.947 Z  M 368.419 307.771 L 366.52 307.771 L 359.124 296.629 L 359.124 307.771 L 357.202 307.771 L 357.202 293.399 L 359.124 293.399 L 366.52 304.566 L 366.52 293.399 L 368.394 293.399 L 368.419 307.771 Z  M 352.32 307.771 L 350.422 307.771 L 350.422 293.399 L 352.32 293.399 L 352.32 307.771 Z  M 333.485 293.399 L 338.194 305.306 L 342.927 293.522 L 345.393 293.522 L 345.393 307.771 L 343.495 307.771 L 343.495 302.225 L 343.667 296.135 L 338.934 307.771 L 337.479 307.771 L 332.746 296.184 L 332.918 302.225 L 332.918 307.771 L 331.02 307.771 L 331.02 293.399 L 333.485 293.399 Z  M 324.216 304.049 L 318.176 304.049 L 316.82 307.771 L 314.848 307.771 L 320.37 293.325 L 322.022 293.325 L 327.495 307.771 L 325.522 307.771 L 324.216 304.049 Z  M 318.743 302.496 L 323.674 302.496 L 321.208 295.741 L 318.743 302.496 Z  M 311.544 305.947 C 311.035 306.665 310.322 307.215 309.498 307.525 C 308.521 307.889 307.483 308.065 306.441 308.043 C 305.339 308.068 304.252 307.777 303.31 307.204 C 302.369 306.618 301.629 305.758 301.19 304.739 C 300.672 303.67 300.394 302.5 300.376 301.312 L 300.376 300.055 C 300.277 298.281 300.82 296.531 301.905 295.125 C 302.971 293.897 304.546 293.232 306.169 293.325 C 307.486 293.252 308.784 293.664 309.818 294.484 C 310.779 295.319 311.38 296.494 311.495 297.762 L 309.596 297.762 C 309.453 296.027 307.93 294.736 306.194 294.878 C 305.057 294.806 303.961 295.317 303.285 296.234 C 302.549 297.394 302.203 298.759 302.299 300.129 L 302.299 301.312 C 302.225 302.683 302.616 304.038 303.409 305.158 C 304.104 306.103 305.219 306.647 306.392 306.613 C 307.032 306.615 307.671 306.532 308.29 306.367 C 308.795 306.229 309.249 305.946 309.597 305.553 L 309.597 302.2 L 306.318 302.2 L 306.318 300.647 L 311.544 300.647 L 311.544 305.947 Z  M 289.429 301.164 L 283.118 301.164 L 283.118 306.292 L 290.514 306.292 L 290.514 307.771 L 281.269 307.771 L 281.269 293.398 L 290.341 293.398 L 290.341 294.952 L 283.118 294.952 L 283.118 299.611 L 289.38 299.611 L 289.429 301.164 Z  M 276.733 293.398 L 276.733 303.26 C 276.782 304.506 276.318 305.717 275.451 306.613 C 274.525 307.515 273.292 308.035 271.999 308.067 L 271.481 308.067 C 270.107 308.132 268.76 307.673 267.71 306.785 C 266.75 305.869 266.23 304.585 266.279 303.26 L 266.279 293.398 L 268.178 293.398 L 268.178 303.26 C 268.099 304.167 268.413 305.065 269.041 305.725 C 269.7 306.356 270.596 306.678 271.506 306.613 C 272.409 306.662 273.295 306.352 273.971 305.75 C 274.569 305.073 274.871 304.185 274.81 303.285 L 274.81 293.423 L 276.733 293.398 Z  M 261.867 305.947 C 261.357 306.665 260.645 307.215 259.821 307.525 C 258.844 307.889 257.806 308.065 256.764 308.043 C 255.628 308.087 254.505 307.796 253.534 307.204 C 252.593 306.618 251.853 305.758 251.414 304.739 C 250.896 303.628 250.635 302.415 250.65 301.189 L 250.65 299.932 C 250.55 298.158 251.093 296.408 252.178 295.001 C 253.245 293.773 254.82 293.109 256.443 293.202 C 257.76 293.129 259.058 293.541 260.092 294.36 C 261.053 295.196 261.654 296.371 261.768 297.639 L 259.87 297.639 C 259.726 295.904 258.204 294.612 256.468 294.755 C 255.331 294.683 254.235 295.193 253.559 296.111 C 252.825 297.272 252.472 298.634 252.548 300.006 L 252.548 301.189 C 252.474 302.559 252.865 303.915 253.657 305.035 C 254.366 305.977 255.486 306.519 256.665 306.49 C 257.298 306.494 257.928 306.411 258.539 306.243 C 259.054 306.112 259.518 305.829 259.87 305.43 L 259.87 302.2 L 256.64 302.2 L 256.64 300.647 L 261.867 300.647 L 261.867 305.947 Z  M 244.511 304.049 L 238.471 304.049 L 237.115 307.771 L 235.143 307.771 L 240.665 293.325 L 242.317 293.325 L 247.839 307.771 L 245.892 307.771 L 244.511 304.049 Z  M 239.038 302.496 L 243.969 302.496 L 241.504 295.741 L 239.038 302.496 Z  M 231.642 301.165 L 225.38 301.165 L 225.38 306.292 L 232.776 306.292 L 232.776 307.771 L 223.482 307.771 L 223.482 293.398 L 232.554 293.398 L 232.554 294.952 L 225.38 294.952 L 225.38 299.611 L 231.642 299.611 L 231.642 301.165 Z  M 212.93 306.292 L 219.784 306.292 L 219.784 307.771 L 211.007 307.771 L 211.007 293.398 L 212.93 293.398 L 212.93 306.292 Z  M 195.722 302.003 L 192.345 302.003 L 192.345 307.771 L 190.422 307.771 L 190.422 293.399 L 195.205 293.399 C 196.546 293.309 197.876 293.702 198.952 294.508 C 199.871 295.321 200.363 296.513 200.283 297.738 C 200.331 298.62 200.069 299.492 199.543 300.203 C 199.04 300.9 198.334 301.425 197.522 301.707 L 200.899 307.771 L 198.878 307.771 L 195.722 302.003 Z  M 192.345 300.375 L 195.254 300.375 C 196.076 300.42 196.885 300.156 197.522 299.636 C 198.088 299.141 198.397 298.415 198.361 297.664 C 198.407 296.899 198.119 296.153 197.572 295.617 C 196.921 295.085 196.093 294.821 195.254 294.878 L 192.345 294.878 L 192.345 300.375 Z  M 186.058 301.09 C 186.081 302.359 185.838 303.619 185.344 304.788 C 184.931 305.793 184.226 306.652 183.322 307.254 C 181.447 308.373 179.108 308.373 177.233 307.254 C 176.324 306.65 175.612 305.793 175.187 304.788 C 174.674 303.659 174.421 302.429 174.446 301.189 L 174.446 300.153 C 174.414 298.884 174.657 297.622 175.161 296.456 C 175.587 295.451 176.299 294.594 177.207 293.99 C 179.083 292.871 181.421 292.871 183.297 293.99 C 184.215 294.584 184.929 295.444 185.343 296.456 C 185.837 297.633 186.08 298.901 186.058 300.178 L 186.058 301.09 Z  M 184.16 300.153 C 184.252 298.761 183.888 297.377 183.124 296.209 C 182.45 295.301 181.37 294.784 180.24 294.828 C 179.124 294.788 178.061 295.305 177.405 296.209 C 176.645 297.333 176.273 298.675 176.345 300.03 L 176.345 301.09 C 176.266 302.466 176.628 303.831 177.38 304.986 C 178.032 305.927 179.121 306.466 180.265 306.416 C 181.379 306.467 182.447 305.97 183.124 305.084 C 183.86 303.932 184.222 302.58 184.16 301.214 L 184.16 300.153 Z  M 168.259 293.399 L 170.182 293.399 L 170.182 303.63 C 170.251 304.838 169.793 306.016 168.924 306.859 C 168.025 307.678 166.836 308.104 165.621 308.043 C 164.419 308.106 163.237 307.71 162.317 306.933 C 161.479 306.134 161.037 305.007 161.109 303.851 L 163.008 303.851 C 162.955 304.57 163.219 305.277 163.731 305.784 C 164.243 306.291 164.952 306.549 165.67 306.489 C 166.384 306.521 167.076 306.243 167.568 305.725 C 168.086 305.164 168.353 304.416 168.308 303.654 L 168.259 293.399 Z  M 155.414 304.049 L 149.35 304.049 L 147.994 307.771 L 146.046 307.771 L 151.544 293.325 L 153.22 293.325 L 158.743 307.771 L 156.795 307.771 L 155.414 304.049 Z  M 149.991 302.496 L 154.922 302.496 L 152.456 295.741 L 149.991 302.496 Z  M 130.465 293.398 L 135.199 305.306 L 139.932 293.522 L 142.398 293.522 L 142.398 307.771 L 140.5 307.771 L 140.5 302.224 L 140.672 296.135 L 135.914 307.771 L 134.459 307.771 L 129.726 296.184 L 129.898 302.224 L 129.898 307.771 L 128 307.771 L 128 293.398 L 130.465 293.398 Z  M 334.452 233.442 L 334.452 253.164 L 350.057 253.164 L 346.778 256.419 L 343.82 259.352 C 341.31 261.748 337.944 263.036 334.476 262.927 C 324.282 262.043 316.458 253.51 316.458 243.278 C 316.458 233.046 324.282 224.513 334.476 223.629 L 354.199 223.629 L 354.199 203.907 L 334.476 203.907 C 312.773 203.907 295.178 221.501 295.178 243.204 C 295.178 264.908 312.773 282.502 334.476 282.502 C 337.935 282.522 341.377 282.015 344.682 280.998 C 349.149 279.569 353.264 277.217 356.763 274.095 C 358.291 272.76 359.732 271.327 361.077 269.806 L 363.936 266.921 L 363.936 282.502 L 383.659 282.502 L 383.659 233.443 L 334.452 233.442 Z  M 197.01 203.957 C 189.749 203.906 182.724 206.54 177.287 211.353 C 171.835 206.566 164.821 203.936 157.565 203.957 C 149.745 203.977 142.254 207.107 136.746 212.658 C 131.237 218.208 128.163 225.722 128.203 233.542 L 128.203 282.553 L 147.925 282.553 L 147.925 233.444 C 147.925 228.055 152.25 223.663 157.639 223.582 C 163.03 223.713 167.37 228.052 167.5 233.444 L 167.5 282.553 L 187.223 282.553 L 187.223 233.444 C 187.315 228.036 191.676 223.675 197.084 223.582 C 199.699 223.582 202.208 224.621 204.057 226.471 C 205.906 228.32 206.945 230.828 206.945 233.444 L 206.945 282.553 L 226.668 282.553 L 226.668 233.444 C 226.701 225.584 223.581 218.038 218.007 212.497 C 212.432 206.955 204.869 203.88 197.009 203.959 L 197.01 203.957 Z  M 255.856 203.957 L 236.282 203.957 L 236.282 262.904 C 236.208 268.157 238.262 273.216 241.977 276.931 C 245.692 280.646 250.751 282.7 256.004 282.626 L 295.204 282.626 L 295.204 262.904 L 255.858 262.904 L 255.856 203.957 Z " fill="rgb(255,255,255)"/></g></svg>