<?xml version="1.0" encoding="UTF-8" standalone="no"?><!-- Generator: Gravit.io --><svg xmlns="http://www.w3.org/2000/svg" xmlns:xlink="http://www.w3.org/1999/xlink" style="isolation:isolate" viewBox="0 0 512 512" width="512pt" height="512pt"><defs><clipPath id="_clipPath_JbRb0UuaOmMMi4eNOBqUwbXPPkdiyXlL"><rect width="512" height="512"/></clipPath></defs><g clip-path="url(#_clipPath_JbRb0UuaOmMMi4eNOBqUwbXPPkdiyXlL)"><circle vector-effect="non-scaling-stroke" cx="256" cy="256" r="256" fill="rgb(102,0,51)" /><path d=" M 220.857 132.922 L 220.857 202.113 C 230.962 195.509 243.029 191.655 256.003 191.655 C 291.537 191.655 320.346 220.463 320.346 256 C 320.346 291.536 291.537 320.344 256.003 320.344 C 220.467 320.344 191.658 291.536 191.658 256 C 191.658 254.856 191.69 253.721 191.748 252.592 L 191.658 145.362 C 153.598 167.546 128 208.771 128 256 C 128 326.694 185.311 384.005 256.006 384.005 C 326.7 384.005 384 326.694 384 256 C 384 185.306 326.7 127.995 256.006 127.995 C 243.81 127.995 232.03 129.736 220.857 132.922 Z  M 241.788 284.944 C 236.412 281.481 237.602 276.567 237.602 276.567 L 237.602 232.045 C 237.602 232.045 237.809 226.208 242.526 223.988 C 247.243 221.768 251.135 223.952 255.687 226.793 C 265.009 233.539 281.131 245.853 281.131 245.853 C 281.131 245.853 295.812 253.666 281.131 263.954 C 266.449 274.242 253.669 283.682 253.669 283.682 C 253.669 283.682 247.163 288.407 241.788 284.944 Z " fill-rule="evenodd" fill="rgb(255,255,255)"/></g></svg>