<?xml version="1.0" encoding="UTF-8" standalone="no"?><!-- Generator: Gravit.io --><svg xmlns="http://www.w3.org/2000/svg" xmlns:xlink="http://www.w3.org/1999/xlink" style="isolation:isolate" viewBox="0 0 512 512" width="512pt" height="512pt"><defs><clipPath id="_clipPath_y7y2GGXRtTktDqRVG8uBmY06JrBBK5ek"><rect width="512" height="512"/></clipPath></defs><g clip-path="url(#_clipPath_y7y2GGXRtTktDqRVG8uBmY06JrBBK5ek)"><circle vector-effect="non-scaling-stroke" cx="256" cy="256" r="256" fill="rgb(27,27,29)" /><path d=" M 376.49 222.092 L 352.159 213.462 C 346.369 211.569 340.021 214.743 338.128 220.533 C 336.569 225.099 332.338 228.161 327.494 228.161 L 311.737 228.161 L 311.737 144.644 C 311.737 138.52 306.726 133.509 300.601 133.509 L 272.763 133.509 C 266.638 133.509 261.627 138.52 261.627 144.644 L 261.627 228.161 L 203.444 228.161 C 194.535 228.161 185.849 230.388 178.11 234.675 L 178.11 144.644 C 178.11 138.52 173.099 133.509 166.975 133.509 L 139.136 133.509 C 133.011 133.509 128 138.52 128 144.644 L 128 367.356 C 128 373.48 133.011 378.491 139.136 378.491 L 166.975 378.491 C 173.099 378.491 178.11 373.48 178.11 367.356 L 178.11 300.542 C 178.11 288.238 188.076 278.271 200.381 278.271 L 261.627 278.271 L 261.627 367.356 C 261.627 373.48 266.638 378.491 272.763 378.491 L 300.601 378.491 C 306.726 378.491 311.737 373.48 311.737 367.356 L 311.737 278.271 L 326.492 278.271 C 353.885 278.271 377.381 260.621 383.673 235.343 C 385.065 229.72 381.891 223.874 376.49 222.092 Z " fill="rgb(102,0,51)"/></g></svg>