<?xml version="1.0" encoding="UTF-8" standalone="no"?><!-- Generator: Gravit.io --><svg xmlns="http://www.w3.org/2000/svg" xmlns:xlink="http://www.w3.org/1999/xlink" style="isolation:isolate" viewBox="0 0 512 512" width="512pt" height="512pt"><defs><clipPath id="_clipPath_xfvh2xgLjLkrHaoHtbyX93RkxjTOvjyF"><rect width="512" height="512"/></clipPath></defs><g clip-path="url(#_clipPath_xfvh2xgLjLkrHaoHtbyX93RkxjTOvjyF)"><linearGradient id="_lgradient_1" x1="0.9968471602988074" y1="0.15813812836421548" x2="0.49080291371648077" y2="1.0346480095580204" gradientTransform="matrix(221.345,0,0,281.065,0,230.754)" gradientUnits="userSpaceOnUse"><stop offset="0%" stop-opacity="1" style="stop-color:rgb(0,82,204)"/><stop offset="92.30000000000001%" stop-opacity="1" style="stop-color:rgb(38,132,255)"/></linearGradient><path d=" M 151.862 236.474 C 148.769 232.426 143.784 230.289 138.719 230.839 C 133.654 231.389 129.245 234.547 127.093 239.165 L 1.583 490.106 C -0.741 494.756 -0.493 500.278 2.24 504.7 C 4.973 509.123 9.801 511.815 15 511.815 L 189.766 511.815 C 195.484 511.948 200.744 508.697 203.182 503.522 C 240.881 425.621 218.034 307.173 151.862 236.474 Z " fill="url(#_lgradient_1)"/><path d=" M 243.917 8.231 C 180.295 106.126 172.952 230.298 224.593 335.01 L 308.849 503.522 C 311.39 508.604 316.584 511.815 322.266 511.815 L 497 511.815 C 502.199 511.815 507.027 509.123 509.76 504.7 C 512.493 500.278 512.741 494.756 510.417 490.106 C 510.417 490.106 275.34 19.898 269.432 8.137 C 267.049 3.252 262.081 0.161 256.645 0.181 C 251.21 0.201 246.265 3.329 243.917 8.231 Z " fill="rgb(38,132,255)"/></g></svg>