<?xml version="1.0" encoding="UTF-8" standalone="no"?><!-- Generator: Gravit.io --><svg xmlns="http://www.w3.org/2000/svg" xmlns:xlink="http://www.w3.org/1999/xlink" style="isolation:isolate" viewBox="0 0 532.119 66.025" width="532.119pt" height="66.025pt"><defs><clipPath id="_clipPath_NI9YW0RYtw5yy4ddeLPUv8CP5dPr8gdM"><rect width="532.119" height="66.025"/></clipPath></defs><g clip-path="url(#_clipPath_NI9YW0RYtw5yy4ddeLPUv8CP5dPr8gdM)"><linearGradient id="_lgradient_0" x1="0.9968471602988074" y1="0.15813812836421548" x2="0.49080291371648077" y2="1.0346480095580204" gradientTransform="matrix(28.212,0,0,35.824,-0.002,29.386)" gradientUnits="userSpaceOnUse"><stop offset="0%" stop-opacity="1" style="stop-color:rgb(0,82,204)"/><stop offset="92.30000000000001%" stop-opacity="1" style="stop-color:rgb(38,132,255)"/></linearGradient><path d=" M 19.354 30.115 C 18.96 29.599 18.324 29.327 17.679 29.397 C 17.033 29.467 16.471 29.869 16.197 30.458 L 0.2 62.442 C -0.096 63.035 -0.065 63.738 0.284 64.302 C 0.632 64.866 1.247 65.209 1.91 65.209 L 24.185 65.209 C 24.914 65.226 25.584 64.812 25.895 64.152 C 30.7 54.223 27.788 39.126 19.354 30.115 Z " fill="url(#_lgradient_0)"/><path d=" M 31.087 1.024 C 22.978 13.501 22.042 29.328 28.624 42.674 L 39.363 64.152 C 39.687 64.8 40.349 65.209 41.073 65.209 L 63.344 65.209 C 64.007 65.209 64.622 64.866 64.97 64.302 C 65.319 63.738 65.35 63.035 65.054 62.442 C 65.054 62.442 35.092 2.511 34.339 1.012 C 34.035 0.389 33.402 -0.005 32.709 -0.002 C 32.016 0.001 31.386 0.399 31.087 1.024 Z " fill="rgb(38,132,255)"/><path d=" M 292.314 26.669 C 292.314 34.589 295.988 40.877 310.359 43.653 C 318.933 45.453 320.729 46.837 320.729 49.695 C 320.729 52.471 318.929 54.268 312.89 54.268 C 305.591 54.137 298.438 52.201 292.069 48.634 L 292.069 61.534 C 296.397 63.657 302.112 66.025 312.727 66.025 C 327.751 66.025 333.712 59.325 333.712 49.368 M 333.712 49.368 C 333.712 39.978 328.731 35.568 314.687 32.548 C 306.93 30.833 305.052 29.119 305.052 26.669 C 305.052 23.569 307.828 22.26 312.972 22.26 C 319.178 22.26 325.302 24.138 331.099 26.751 L 331.099 14.421 C 325.54 11.891 319.486 10.636 313.38 10.747 C 299.499 10.747 292.314 16.789 292.314 26.669" fill="rgb(0,82,204)"/><path d=" M 485.332 11.563 L 485.332 65.209 L 496.763 65.209 L 496.763 24.301 L 501.581 35.16 L 517.748 65.209 L 532.119 65.209 L 532.119 11.563 L 520.688 11.563 L 520.688 46.184 L 516.36 36.14 L 503.377 11.563 L 485.332 11.563 L 485.332 11.563 Z " fill="rgb(0,82,204)"/><rect x="400.133" y="11.563" width="12.493" height="53.646" transform="matrix(1,0,0,1,0,0)" fill="rgb(0,82,204)"/><path d=" M 385.718 49.368 C 385.718 39.978 380.737 35.568 366.693 32.548 C 358.936 30.833 357.058 29.119 357.058 26.669 C 357.058 23.569 359.834 22.26 364.978 22.26 C 371.184 22.26 377.308 24.138 383.105 26.751 L 383.105 14.421 C 377.546 11.891 371.492 10.636 365.386 10.747 C 351.505 10.747 344.32 16.789 344.32 26.669 C 344.32 34.589 347.994 40.877 362.365 43.653 C 370.939 45.453 372.735 46.837 372.735 49.695 C 372.735 52.471 370.935 54.268 364.896 54.268 C 357.597 54.137 350.444 52.201 344.075 48.634 L 344.075 61.534 C 348.403 63.657 354.118 66.025 364.733 66.025 C 379.757 66.025 385.718 59.325 385.718 49.368" fill="rgb(0,82,204)"/><path d=" M 195.265 11.563 L 195.265 65.209 L 220.943 65.209 L 224.986 53.614 L 207.839 53.614 L 207.839 11.563 L 195.265 11.563 L 195.265 11.563 Z " fill="rgb(0,82,204)"/><path d=" M 144.533 11.563 L 144.533 23.157 L 158.414 23.157 L 158.414 65.209 L 170.988 65.209 L 170.988 23.157 L 185.849 23.157 L 185.849 11.563 L 144.533 11.563 L 144.533 11.563 Z " fill="rgb(0,82,204)"/><path d=" M 126.3 11.563 L 109.821 11.563 L 91.114 65.209 L 105.4 65.209 L 108.052 56.174 C 114.583 58.092 121.529 58.092 128.06 56.174 L 130.712 65.209 L 145.001 65.209 L 126.3 11.563 Z  M 118.06 46.5 C 115.733 46.5 113.418 46.167 111.185 45.511 L 118.06 22.1 L 124.935 45.519 C 122.702 46.172 120.387 46.502 118.06 46.5 Z " fill="rgb(0,82,204)"/><path d=" M 265.211 11.563 L 248.733 11.563 L 230.026 65.209 L 244.315 65.209 L 246.967 56.174 C 253.498 58.092 260.444 58.092 266.975 56.174 L 269.627 65.209 L 283.916 65.209 L 265.211 11.563 Z  M 256.972 46.5 C 254.645 46.5 252.33 46.167 250.097 45.511 L 256.972 22.1 L 263.847 45.519 C 261.614 46.172 259.299 46.502 256.972 46.5 L 256.972 46.5 Z " fill="rgb(0,82,204)"/><path d=" M 457.644 11.563 L 441.166 11.563 L 422.459 65.209 L 436.748 65.209 L 439.4 56.174 C 445.931 58.092 452.877 58.092 459.408 56.174 L 462.06 65.209 L 476.35 65.209 L 457.644 11.563 Z  M 449.4 46.5 C 447.073 46.5 444.758 46.167 442.525 45.511 L 449.4 22.1 L 456.275 45.519 C 454.042 46.172 451.727 46.502 449.4 46.5 L 449.4 46.5 Z " fill="rgb(0,82,204)"/></g></svg>