<?xml version="1.0" encoding="UTF-8" standalone="no"?><!-- Generator: Gravit.io --><svg xmlns="http://www.w3.org/2000/svg" xmlns:xlink="http://www.w3.org/1999/xlink" style="isolation:isolate" viewBox="0 0 512 512" width="512pt" height="512pt"><defs><clipPath id="_clipPath_0nfqf2Aj78FSqOdsNmHFjjlDUzYLxDdT"><rect width="512" height="512"/></clipPath></defs><g clip-path="url(#_clipPath_0nfqf2Aj78FSqOdsNmHFjjlDUzYLxDdT)"><path d=" M 16.611 25.836 C 11.766 25.773 7.142 27.856 3.978 31.526 C 0.815 35.195 -0.564 40.076 0.212 44.859 L 69.827 467.469 C 71.617 478.144 80.814 485.993 91.638 486.082 L 425.61 486.082 C 433.734 486.187 440.71 480.327 442.009 472.307 L 511.788 45.023 C 512.564 40.24 511.185 35.359 508.022 31.69 C 504.858 28.02 500.234 25.937 495.389 26 L 16.611 25.836 Z  M 309.749 331.273 L 203.153 331.273 L 174.29 180.563 L 335.578 180.563 L 309.749 331.273 Z " fill="rgb(38,132,255)"/><linearGradient id="_lgradient_2" x1="1.086333797493535" y1="0.13791190858908298" x2="0.4692659637955041" y2="0.619710197827197" gradientTransform="matrix(412.197,0,0,305.603,77.288,180.563)" gradientUnits="userSpaceOnUse"><stop offset="18%" stop-opacity="1" style="stop-color:rgb(0,82,204)"/><stop offset="100%" stop-opacity="1" style="stop-color:rgb(38,132,255)"/></linearGradient><path d=" M 489.485 180.563 L 335.578 180.563 L 309.749 331.273 L 203.153 331.273 L 77.288 480.753 C 81.278 484.202 86.364 486.121 91.638 486.164 L 425.692 486.164 C 433.816 486.269 440.792 480.409 442.091 472.389 L 489.485 180.563 Z " fill="url(#_lgradient_2)"/></g></svg>