<?xml version="1.0" encoding="UTF-8" standalone="no"?><!-- Generator: Gravit.io --><svg xmlns="http://www.w3.org/2000/svg" xmlns:xlink="http://www.w3.org/1999/xlink" style="isolation:isolate" viewBox="0 0 512 512" width="512pt" height="512pt"><defs><clipPath id="_clipPath_RxsNQvNqlP6lpbh7XRv2J28p5sjmiS8J"><rect width="512" height="512"/></clipPath></defs><g clip-path="url(#_clipPath_RxsNQvNqlP6lpbh7XRv2J28p5sjmiS8J)"><linearGradient id="_lgradient_3" x1="0.9914008696571173" y1="1.1270808362243516" x2="0.33858981152572953" y2="0.7519593026934752" gradientTransform="matrix(490.811,0,0,245.638,0,256.346)" gradientUnits="userSpaceOnUse"><stop offset="18%" stop-opacity="1" style="stop-color:rgb(0,82,204)"/><stop offset="100%" stop-opacity="1" style="stop-color:rgb(38,132,255)"/></linearGradient><path d=" M 18.567 385.584 C 13.271 394.219 7.324 404.24 2.273 412.223 C -2.247 419.863 0.18 429.716 7.732 434.382 L 113.638 499.555 C 117.355 501.851 121.839 502.557 126.082 501.515 C 130.325 500.473 133.972 497.771 136.204 494.016 C 140.44 486.928 145.898 477.722 151.845 467.865 C 193.801 398.619 236 407.091 312.089 443.425 L 417.099 493.364 C 421.077 495.257 425.651 495.459 429.779 493.924 C 433.908 492.389 437.239 489.248 439.014 485.217 L 489.441 371.165 C 493.004 363.019 489.379 353.521 481.295 349.82 C 459.136 339.393 415.063 318.619 375.389 299.474 C 232.66 230.146 111.357 234.627 18.567 385.584 Z " fill="url(#_lgradient_3)"/><linearGradient id="_lgradient_4" x1="0" y1="0.5" x2="0.9609861515403089" y2="0.7765964868680484" gradientTransform="matrix(491.137,0,0,245.961,20.863,10.015)" gradientUnits="userSpaceOnUse"><stop offset="100%" stop-opacity="1" style="stop-color:rgb(0,82,204)"/><stop offset="100%" stop-opacity="1" style="stop-color:rgb(1,83,205)"/></linearGradient><path d=" M 493.433 126.766 C 498.729 118.13 504.676 108.11 509.727 100.126 C 514.247 92.487 511.82 82.634 504.268 77.968 L 398.362 12.795 C 394.614 10.27 389.987 9.416 385.584 10.435 C 381.182 11.455 377.401 14.257 375.144 18.171 C 370.908 25.259 365.45 34.465 359.503 44.322 C 317.548 113.568 275.348 105.096 199.259 68.762 L 94.575 19.068 C 90.598 17.175 86.024 16.972 81.895 18.507 C 77.766 20.042 74.435 23.183 72.66 27.214 L 22.233 141.267 C 18.67 149.413 22.295 158.911 30.379 162.611 C 52.538 173.039 96.611 193.813 136.285 212.957 C 279.34 282.203 400.643 277.56 493.433 126.766 Z " fill="url(#_lgradient_4)"/></g></svg>