<?xml version="1.0" encoding="UTF-8" standalone="no"?><!-- Generator: Gravit.io --><svg xmlns="http://www.w3.org/2000/svg" xmlns:xlink="http://www.w3.org/1999/xlink" style="isolation:isolate" viewBox="0 0 512 512" width="512pt" height="512pt"><defs><clipPath id="_clipPath_SwRy9TUQmocYe4tfCW5QE24DGR8MVDPn"><rect width="512" height="512"/></clipPath></defs><g clip-path="url(#_clipPath_SwRy9TUQmocYe4tfCW5QE24DGR8MVDPn)"><g><path d=" M 497.672 241.667 L 277.343 21.338 L 255.99 0 L 14.324 241.667 C 6.424 249.588 6.424 262.412 14.324 270.318 L 165.85 421.839 L 255.99 512 L 497.672 270.318 C 505.578 262.412 505.578 249.588 497.672 241.667 L 497.672 241.667 Z  M 255.99 331.677 L 180.31 256.003 L 255.99 180.301 L 331.686 256.003 L 255.99 331.677 Z " fill="rgb(38,132,255)"/><linearGradient id="_lgradient_5" x1="0.8042363204391444" y1="0.4777020204358375" x2="0.3643691385113635" y2="0.9174593497078921" gradientTransform="matrix(166.175,0,0,255.744,89.815,0.592)" gradientUnits="userSpaceOnUse"><stop offset="0%" stop-opacity="1" style="stop-color:rgb(0,82,204)"/><stop offset="100%" stop-opacity="1" style="stop-color:rgb(38,132,255)"/></linearGradient><path d=" M 255.99 180.301 C 206.443 130.733 206.189 50.452 255.462 0.592 L 89.815 166.175 L 179.976 256.336 L 255.99 180.301 Z " fill="url(#_lgradient_5)"/><linearGradient id="_lgradient_6" x1="0.2015534352260584" y1="0.5175698549456536" x2="0.6405210279491944" y2="0.0786022622225176" gradientTransform="matrix(166.046,0,0,256.212,255.99,255.788)" gradientUnits="userSpaceOnUse"><stop offset="0%" stop-opacity="1" style="stop-color:rgb(0,82,204)"/><stop offset="100%" stop-opacity="1" style="stop-color:rgb(38,132,255)"/></linearGradient><path d=" M 331.896 255.788 L 255.99 331.677 C 279.911 355.576 293.364 388.016 293.364 421.839 C 293.364 455.661 279.911 488.079 255.99 512 L 422.036 345.949 L 331.896 255.788 Z " fill="url(#_lgradient_6)"/></g></g></svg>