<?xml version="1.0" encoding="UTF-8" standalone="no"?><!-- Generator: Gravit.io --><svg xmlns="http://www.w3.org/2000/svg" xmlns:xlink="http://www.w3.org/1999/xlink" style="isolation:isolate" viewBox="0 0 512 512" width="512pt" height="512pt"><defs><clipPath id="_clipPath_h9owPRKqaU5yh8I7LjzXLiZk5FQ3anrF"><rect width="512" height="512"/></clipPath></defs><g clip-path="url(#_clipPath_h9owPRKqaU5yh8I7LjzXLiZk5FQ3anrF)"><linearGradient id="_lgradient_7" x1="0" y1="0.5" x2="6.123233995736766e-17" y2="-0.5" gradientTransform="matrix(512,0,0,511.67,0,0.165)" gradientUnits="userSpaceOnUse"><stop offset="0%" stop-opacity="1" style="stop-color:rgb(0,82,204)"/><stop offset="100%" stop-opacity="1" style="stop-color:rgb(38,132,255)"/></linearGradient><path d=" M 451.219 0.165 L 60.863 0.165 C 27.282 0.165 0.046 27.364 0 60.945 L 0 450.727 C -0.064 466.911 6.319 482.455 17.74 493.922 C 29.161 505.389 44.679 511.835 60.863 511.835 L 451.219 511.835 C 467.389 511.813 482.886 505.358 494.289 493.893 C 505.692 482.428 512.064 466.897 512 450.727 L 512 60.945 C 511.954 27.396 484.768 0.21 451.219 0.165 Z  M 220.811 368.702 C 220.79 374.111 218.614 379.289 214.766 383.091 C 210.918 386.893 205.714 389.006 200.305 388.963 L 115 388.963 C 103.842 388.917 94.822 379.859 94.822 368.702 L 94.822 114.836 C 94.822 103.678 103.842 94.621 115 94.575 L 200.305 94.575 C 211.476 94.62 220.52 103.665 220.565 114.836 L 220.811 368.702 Z  M 417.671 252.145 C 417.671 257.561 415.503 262.752 411.65 266.559 C 407.797 270.365 402.58 272.471 397.164 272.406 L 311.859 272.406 C 300.688 272.36 291.644 263.316 291.599 252.145 L 291.599 114.836 C 291.644 103.665 300.688 94.62 311.859 94.575 L 397.164 94.575 C 408.322 94.621 417.343 103.678 417.343 114.836 L 417.671 252.145 Z " fill-rule="evenodd" fill="url(#_lgradient_7)"/></g></svg>