<?xml version="1.0" encoding="UTF-8" standalone="no"?><!-- Generator: Gravit.io --><svg xmlns="http://www.w3.org/2000/svg" xmlns:xlink="http://www.w3.org/1999/xlink" style="isolation:isolate" viewBox="0 0 512 512" width="512pt" height="512pt"><defs><clipPath id="_clipPath_ZHNHeDHZZAv1OtiMxmZ5m4T4KrgtHIaw"><rect width="512" height="512"/></clipPath></defs><g clip-path="url(#_clipPath_ZHNHeDHZZAv1OtiMxmZ5m4T4KrgtHIaw)"><path d="M 477.714 383.995 L 256.005 512 L 34.286 383.995 L 34.286 127.985 L 256.005 0 L 477.714 127.985 L 477.714 383.995 Z" fill-rule="evenodd" fill="rgb(27,27,29)" /><path d=" M 362.165 261.424 L 362.164 261.425 L 360.984 261.426 C 360.693 261.427 360.421 261.514 360.158 261.782 C 359.832 262.115 359.783 262.542 359.862 262.96 C 360.819 268.067 361.312 273.051 361.473 277.753 L 346.662 277.753 C 346.328 277.753 346.051 277.872 345.83 278.091 C 345.597 278.321 345.453 278.615 345.453 279.096 L 345.455 283.347 C 345.455 284.193 346.037 284.665 346.74 284.665 L 361.468 284.665 C 361.358 287.913 361.104 290.966 360.757 293.698 C 360.492 295.789 360.177 297.749 359.844 299.532 C 359.78 300.042 359.914 300.363 360.161 300.636 C 360.455 300.931 360.799 301.002 361.203 301.001 L 362.672 300.999 L 364.958 301.001 C 365.54 301.002 365.972 300.733 366.23 300.468 C 366.611 300.077 366.676 299.658 366.718 299.417 C 367.016 297.674 367.303 295.765 367.541 293.733 C 367.863 290.991 368.098 287.926 368.2 284.665 L 382.713 284.665 C 383.416 284.665 383.998 284.193 383.999 283.347 L 384 279.096 C 384 278.615 383.856 278.321 383.623 278.091 C 383.402 277.872 383.125 277.753 382.791 277.753 L 368.203 277.753 C 368.114 274.943 367.916 272.034 367.579 269.055 C 367.352 267.048 367.063 265.011 366.707 262.956 C 366.634 262.538 366.49 262.122 366.061 261.787 C 365.776 261.566 365.381 261.427 365.114 261.426 L 363.121 261.425 C 363.118 261.425 363.116 261.424 363.113 261.424 L 362.715 261.425 L 362.165 261.424 Z  M 264.255 186.002 C 254.643 186.002 245.244 187.182 236.181 189.455 C 228.597 191.358 221.342 194.027 214.472 197.408 C 211.929 198.659 209.532 199.968 207.255 201.321 C 202.817 203.957 198.776 206.771 194.988 209.833 C 192.055 212.204 189.405 214.61 187.114 216.879 C 185.586 218.394 184.175 219.867 182.694 221.523 C 182.56 221.673 182.434 221.812 182.303 221.959 C 182.07 222.219 181.79 222.622 181.928 223.174 C 181.972 223.351 182.071 223.514 182.209 223.645 C 182.464 223.869 182.759 223.923 183.026 223.902 C 183.342 223.878 183.699 223.691 183.898 223.541 C 184.032 223.441 184.16 223.324 184.283 223.198 C 184.738 222.732 185.155 222.272 185.594 221.817 C 186.381 221.002 187.184 220.2 188.012 219.399 C 191.139 216.37 195.045 213.067 199.307 210.043 C 201.614 208.406 204.038 206.818 206.675 205.268 C 208.84 203.997 212.921 201.713 218.074 199.495 C 222.641 197.529 227.074 196.005 231.239 194.822 C 234.247 193.969 237.359 193.223 240.5 192.62 C 243.288 192.085 246.109 191.655 248.945 191.324 C 253.304 190.816 257.652 190.578 262.002 190.578 C 272.091 190.578 282.395 191.936 292.292 194.706 C 295.869 195.707 299.352 196.877 302.748 198.216 C 307.154 199.953 311.208 201.862 315.537 204.289 C 323.513 208.76 330.621 214.194 337.023 220.656 C 340.134 223.795 342.824 226.958 345.147 230.049 C 348.046 233.907 350.377 237.652 352.232 241.07 C 353.417 243.253 354.408 245.306 355.213 247.105 C 356.912 250.897 357.923 253.997 357.923 253.997 C 358.03 254.291 358.109 254.414 358.236 254.606 C 358.545 255.018 359.038 255.258 359.54 255.258 L 363.664 255.256 C 363.975 255.256 364.117 255.193 364.285 255.095 C 364.44 255.005 364.656 254.799 364.752 254.575 C 364.865 254.313 364.895 253.962 364.792 253.641 C 363.309 249.206 361.282 244.549 358.882 240.073 C 355.142 233.099 349.47 224.566 341.202 216.449 C 333.901 209.281 326.542 204.234 320.396 200.708 C 312.757 196.326 304.653 192.914 296.06 190.453 C 285.708 187.488 274.96 186.002 264.255 186.002 Z  M 245.332 280.747 C 245.475 280.766 245.507 280.773 245.644 280.786 C 247.236 281.004 248.474 281.227 249.588 281.512 C 250.875 281.841 251.968 282.243 252.768 282.688 C 253.373 283.024 253.851 283.384 254.244 283.781 C 254.469 284.007 254.672 284.26 254.855 284.522 C 255.132 284.918 255.518 285.634 255.714 286.083 C 255.878 286.458 255.978 286.747 256.014 286.855 C 256.208 287.435 256.345 288.043 256.425 288.663 C 256.56 289.704 256.548 290.682 256.4 291.609 C 256.248 292.562 255.922 293.965 254.82 295.439 C 253.881 296.695 252.569 297.699 251.029 298.438 C 249.173 299.337 247.214 299.782 245.254 300.007 C 241.588 300.411 237.585 299.682 234.307 298.054 C 233.26 297.527 232.348 296.985 231.529 296.376 C 230.731 295.782 229.974 295.105 229.409 294.332 C 228.518 293.111 228.181 292.032 228.188 290.954 C 228.194 289.931 228.52 289.002 229.014 288.306 C 229.578 287.455 230.49 286.842 231.527 286.412 C 233.276 285.687 235.429 285.484 237.166 285.546 C 239.276 285.624 243.066 286.281 245.071 286.991 C 245.625 287.193 247.669 287.987 248.027 288.352 C 248.281 288.606 248.444 288.977 248.333 289.316 C 247.871 290.722 244.472 291.458 243.495 291.601 C 240.865 292.005 239.479 291.009 236.491 289.83 C 235.748 289.544 234.758 289.218 234.003 289.146 C 233.248 289.077 232.404 289.164 231.76 289.511 C 231.103 289.864 230.754 290.452 230.765 291.086 C 230.774 291.683 231.244 292.227 232.224 292.656 C 232.663 292.845 233.079 293.001 233.484 293.128 C 234.559 293.465 235.56 293.602 236.704 293.616 C 238.947 293.654 241.323 293.492 243.61 293.017 C 246.075 292.504 248.437 291.623 250.417 290.221 C 250.931 289.85 251.446 289.309 251.452 288.619 C 251.472 287.232 249.037 286.386 249.037 286.386 C 246.891 285.487 243.287 285.024 240.68 284.742 C 240.17 284.686 239.698 284.631 239.283 284.588 C 238.82 284.548 238.276 284.5 237.752 284.453 C 237.349 284.418 236.982 284.392 236.527 284.357 C 236.109 284.326 235.568 284.285 235.161 284.248 C 234.261 284.168 233.456 284.091 232.828 284.024 C 232.511 283.991 231.679 283.895 230.833 283.746 C 230.237 283.641 229.638 283.526 229.065 283.297 C 228.532 283.084 227.99 282.738 227.56 282.28 C 227.182 281.877 226.892 281.401 226.8 280.923 C 226.358 279.178 226.924 277.021 227.894 275.621 C 230.447 271.962 236.411 270.576 240.865 270.029 C 245.175 269.489 252.149 269.495 256.388 271.748 C 257.039 272.093 257.378 272.425 257.241 273.122 C 256.961 274.437 255.978 275.284 254.78 275.655 C 253.529 276.052 250.931 276.206 249.792 276.277 C 244.687 276.564 238.508 276.41 233.644 277.739 C 233.266 277.849 232.608 278.025 232.394 278.266 C 231.986 278.709 232.404 278.983 232.956 279.158 C 233.361 279.286 233.882 279.373 234.581 279.477 L 245.332 280.747 Z  M 282.985 294.577 C 282.034 296.81 279.52 299.2 276.407 297.715 C 273.327 296.231 268.423 286.197 268.423 286.197 C 268.423 286.197 266.56 282.453 266.209 282.55 C 266.209 282.55 265.805 281.821 265.557 285.91 C 265.303 289.98 265.609 297.917 263.981 299.167 C 262.444 300.418 260.582 299.923 259.611 298.458 C 258.739 297.012 258.374 293.587 258.849 287.571 C 259.416 281.541 260.816 275.127 262.607 273.128 C 264.392 271.149 265.824 272.588 266.384 273.109 C 266.384 273.109 268.775 275.277 272.721 281.639 L 273.412 282.817 C 273.412 282.817 276.994 288.827 277.371 288.814 C 277.371 288.814 277.664 289.088 277.925 288.886 C 278.303 288.782 278.146 286.854 278.146 286.854 C 278.146 286.854 277.404 280.304 274.141 269.215 C 274.141 269.215 273.646 267.835 273.978 266.539 C 274.31 265.23 275.619 265.842 275.619 265.842 C 275.619 265.842 280.686 268.388 283.148 276.638 C 285.59 284.888 283.949 292.331 282.985 294.577 M 311.214 276.514 C 307.632 277.341 298.21 277.797 298.21 277.797 L 297.019 281.522 C 297.019 281.522 301.727 281.118 305.158 281.476 C 305.158 281.476 306.265 281.346 306.395 282.74 C 306.441 284.036 306.285 285.423 306.285 285.423 C 306.285 285.423 306.213 286.263 305.021 286.478 C 303.732 286.7 294.87 287.038 294.87 287.038 L 293.438 291.89 C 293.438 291.89 292.904 293.017 294.102 292.691 C 295.209 292.398 304.494 290.653 305.699 290.907 C 307.001 291.226 308.433 292.952 308.017 294.528 C 307.522 296.482 298.256 302.389 292.617 301.978 C 292.617 301.978 289.648 302.167 287.141 298.168 C 284.81 294.352 288.027 287.129 288.027 287.129 C 288.027 287.129 286.555 283.762 287.623 282.616 C 287.623 282.616 288.261 282.043 290.117 281.913 L 292.383 277.211 C 292.383 277.211 289.798 277.386 288.261 275.485 C 286.822 273.681 286.705 272.854 287.805 272.352 C 288.977 271.772 299.754 269.806 307.164 270.053 C 307.164 270.053 309.742 269.799 311.975 274.273 C 311.975 274.273 313.056 276.077 311.214 276.514 M 335.578 279.044 C 335.578 279.044 335.543 278.769 335.409 278.494 C 335.126 277.913 334.402 277.329 332.635 279.317 C 330.401 281.785 326.364 286.421 323.115 292.718 C 326.527 292.334 329.815 290.484 330.805 289.54 C 331.758 288.695 333.459 286.995 334.569 284.68 C 335.181 283.403 335.619 281.938 335.647 280.327 C 335.654 279.909 335.629 279.481 335.578 279.044 Z  M 337.368 289.645 C 335.063 293.669 328.552 302.088 319.905 300.102 C 318.842 302.676 317.842 305.264 316.936 308.037 C 315.405 312.721 314.132 317.936 313.269 324.519 C 313.269 324.519 312.969 326.557 311.276 325.848 C 309.947 325.384 307.936 323.538 306.881 320.877 C 306.603 320.176 306.399 319.442 306.283 318.637 C 306.133 317.38 306.152 315.883 306.348 314.23 C 306.699 311.259 307.595 307.704 308.985 303.763 C 309.941 301.05 311.134 298.154 312.547 295.14 C 311.206 292.952 310.288 289.827 311.069 285.38 C 311.069 285.38 311.448 282.663 313.337 278.941 C 314.743 276.172 316.986 272.846 320.525 269.668 C 320.525 269.668 321.521 268.806 322.094 269.073 C 322.732 269.34 322.444 272.025 321.936 273.334 C 321.416 274.636 317.717 281.036 317.717 281.036 C 317.717 281.036 315.412 285.354 316.063 288.759 C 318.088 285.651 321.303 281.072 324.786 277.488 C 327.791 274.395 330.995 272.041 333.794 272.015 C 335.422 272 337.036 272.79 338.135 274.812 C 339.029 276.455 339.452 278.662 339.452 280.965 C 339.452 283.999 338.723 287.236 337.368 289.645 M 217.381 265.007 C 217.381 265.007 216.722 266.195 216.566 266.415 C 216.493 266.534 216.253 266.864 215.958 267.116 C 215.729 267.311 215.484 267.449 215.157 267.479 C 214.82 267.51 214.477 267.385 214.111 267.079 C 213.232 266.298 212.729 265.106 212.69 263.934 C 212.671 263.419 212.754 262.853 212.657 262.423 C 212.571 262.04 212.331 261.646 212.066 261.257 C 211.826 260.906 211.567 260.572 211.381 260.242 C 211.216 259.949 211.082 259.654 210.973 259.382 C 210.625 258.518 210.531 257.755 210.496 257.052 C 210.34 254.174 211.857 251.502 213.83 249.412 C 215.822 247.289 218.396 245.546 221.221 244.348 C 223.898 243.222 227.836 242.453 230.772 243.469 C 231.729 243.801 233.058 244.615 233.728 245.462 C 233.872 245.644 233.989 245.833 234.132 245.924 C 234.262 246.009 234.601 246.041 234.874 246.093 C 235.812 246.256 237.16 246.966 237.713 247.435 C 238.814 248.392 239.419 249.303 239.699 250.625 C 239.963 251.866 239.748 253.274 239.248 254.529 C 238.719 255.858 237.881 257.075 236.984 257.99 C 233.995 261.05 231.039 263.205 227.211 264.703 C 225.99 265.181 224.354 265.574 223.074 265.723 C 222.399 265.802 221.768 265.826 221.159 265.801 C 220.487 265.774 219.818 265.686 219.251 265.582 C 219.251 265.582 217.839 265.294 217.381 265.007 L 217.381 265.007 Z  M 223.732 260.338 C 225.256 260.191 226.586 259.92 227.813 259.531 C 228.478 259.321 229.145 259.052 229.793 258.739 C 231.209 258.057 232.654 257.063 233.573 256.231 C 234.059 255.789 234.481 255.337 234.816 254.89 C 235.483 254 235.879 252.996 235.753 251.94 C 235.649 251.055 235.07 250.384 234.334 250.072 C 232.708 249.364 230.872 250.204 229.542 250.973 C 228.585 251.529 227.137 252.598 225.788 253.748 C 224.19 255.109 222.669 256.652 221.715 257.886 C 221.174 258.624 220.621 259.354 220.119 260.118 C 220.196 260.331 221.975 260.43 222.958 260.365 M 214.944 257.948 C 215.464 257.125 216.07 256.32 216.652 255.561 C 217.297 254.72 218.415 253.454 218.853 252.99 C 219.827 251.959 220.865 250.952 221.756 250.189 C 222.29 249.74 222.895 249.226 222.895 249.226 C 222.895 249.226 222.468 249.233 221.914 249.344 C 221.646 249.396 221.175 249.52 220.791 249.661 C 220.324 249.833 219.94 249.993 219.601 250.165 C 218.544 250.699 217.626 251.422 217.196 251.79 C 216.399 252.476 215.555 253.375 215.02 254.349 C 214.708 254.916 214.494 255.516 214.456 256.107 C 214.43 256.515 214.491 256.922 214.65 257.319 C 214.768 257.599 214.944 257.948 214.944 257.948 M 220.796 270.915 C 220.914 270.934 221.089 270.986 221.246 271.045 C 222.587 271.553 223.14 272.796 223.473 274.164 C 224.234 277.328 224.56 284.335 224.69 287.076 C 224.781 289.133 224.833 291.158 224.918 293.197 C 224.99 294.916 225.133 297.208 224.775 298.822 C 224.645 299.402 224.254 300.079 223.694 300.424 C 223.062 300.834 221.61 300.867 220.809 300.698 C 218.849 300.294 218.211 299.031 217.931 297.09 C 217.261 292.454 217.586 283.351 217.977 279.516 C 218.107 278.246 218.582 274.183 219.247 272.484 C 219.475 271.904 219.956 270.752 220.796 270.915 M 148.694 237.489 C 147.13 237.467 144.306 237.484 141.058 237.893 C 138.826 238.174 136.508 238.606 134.378 239.196 C 133.198 239.515 132.214 239.906 131.36 240.464 C 130.386 241.1 129.585 241.951 128.943 243.079 C 128.344 244.134 127.78 245.295 128.086 246.467 C 128.346 247.457 129.691 247.783 130.905 247.988 C 131.999 248.157 134.479 248.286 135.137 247.485 C 135.322 247.292 135.406 246.746 135.156 246.384 C 134.909 245.948 134.284 245.634 133.685 245.524 C 133.18 245.431 132.33 245.347 131.8 245.271 C 131.435 245.219 131.245 245.156 131.147 245.105 C 131.119 245.089 131.098 245.075 131.083 245.063 C 131.056 245.04 131.053 245.014 131.053 245.014 C 131.053 245.014 131.062 244.988 131.085 244.966 C 131.113 244.938 131.155 244.898 131.198 244.868 C 131.619 244.595 132.971 244.212 133.315 244.124 C 134.862 243.695 137.242 243.441 139.187 243.339 C 141.108 243.239 143.057 243.239 144.65 243.298 C 151.088 243.503 157.328 244.54 163.588 246.326 C 166.981 247.295 170.443 248.5 174.108 249.938 C 179.259 251.98 184.548 254.775 189.428 258.213 C 193.753 261.26 197.611 264.713 200.602 268.53 C 202.413 270.863 204.582 274.379 205.665 277.793 C 206.033 278.954 206.347 280.284 206.38 281.854 C 206.413 283.375 206.181 285.126 205.525 286.849 C 204.291 290.089 201.686 293.113 197.394 295.356 C 195.808 296.185 193.99 296.912 191.927 297.499 C 189.702 298.133 187.407 298.539 185.124 298.786 C 182.429 299.078 179.739 299.14 177.002 299.067 C 176.617 299.057 175.807 299.009 174.886 298.926 C 172.54 298.713 170.406 298.347 169.18 298.116 L 168.758 278.296 C 171.831 278.342 175.209 278.704 178.397 279.26 C 180.177 279.57 183.181 280.172 186.887 281.368 C 187.631 281.619 188.517 282.158 188.589 282.946 C 188.617 283.28 188.498 283.572 188.287 283.855 C 187.73 284.603 186.815 285.162 186.041 285.538 C 185.575 285.764 185.17 285.933 184.984 286.142 C 184.783 286.416 184.767 286.807 185.047 287.028 C 185.43 287.331 186.03 287.545 186.639 287.684 C 189.712 288.384 191.759 287.006 192.95 285.697 C 194.238 284.28 194.607 283.182 194.728 282.031 C 194.937 280.058 194.036 278.512 193.581 277.871 C 192.45 276.28 190.712 275.21 189.312 274.54 C 186.137 273.021 182.513 272.238 180.674 271.911 C 178.334 271.495 175.355 271.158 171.915 271.089 C 170.314 271.056 168.703 271.134 168.703 271.134 C 168.703 271.134 168.638 268.445 168.521 266.661 C 168.325 263.724 167.512 257.962 164.842 256.301 C 164.354 256.002 163.754 255.969 163.416 256.425 C 162.895 257.102 162.387 259.681 162.27 260.345 C 162.158 260.978 162.043 261.775 161.933 262.621 C 161.761 263.951 161.616 265.434 161.519 266.635 C 161.465 267.304 161.316 269.484 161.287 271.788 C 161.255 271.821 161.209 271.872 161.163 271.905 C 161.163 271.905 159.962 272.086 158.428 272.391 C 153.382 273.395 149.878 274.79 148.505 275.393 C 146.05 276.467 142.529 278.366 141.46 280.856 C 141.212 281.472 141.108 281.858 141.078 282.487 C 141.014 283.875 141.524 285.097 141.961 285.874 C 143.119 288.06 145.438 290.418 147.387 292.176 C 148.793 293.444 150.842 295.023 152.49 296.149 C 153.833 297.066 154.847 297.713 155.786 298.265 C 156.88 298.909 157.951 299.482 159.044 300.002 C 159.635 300.283 160.363 300.639 161.033 300.957 C 161.033 300.957 161.132 301.896 161.263 302.971 C 161.396 304.123 161.512 305.291 161.971 306.368 C 162.146 306.759 162.349 307.108 162.625 307.418 C 163.393 308.278 164.258 308.457 164.619 308.522 C 165.353 308.655 166.052 308.583 166.789 308.445 C 167.094 308.388 167.407 308.28 167.649 308.155 C 168.055 307.944 168.369 307.627 168.585 307.175 C 168.911 306.524 169.028 305.485 169.037 305.353 C 169.077 304.756 169.049 304.085 169.049 304.085 C 169.049 304.085 171.417 304.648 173.071 304.948 C 175.784 305.426 178.388 305.71 181.478 305.758 C 185.206 305.815 189.183 305.336 193.443 304.308 C 196.017 303.686 198.466 302.864 200.859 301.753 C 203.079 300.723 205.063 299.495 206.785 298.074 C 208.078 297.007 209.426 295.665 210.725 293.82 C 211.094 293.295 211.421 292.787 211.663 292.368 C 211.738 292.24 211.944 291.938 212.217 291.476 C 212.976 290.194 213.918 288.212 214.41 285.687 C 214.542 284.938 214.637 284.202 214.684 283.465 C 214.865 280.243 214.211 276.995 212.95 274.032 C 212.667 273.336 211.657 270.871 209.487 267.746 C 207.594 265.02 205.392 262.486 203.089 260.187 C 201.558 258.66 200.397 257.591 198.424 255.936 C 195.63 253.618 192.965 251.875 192.144 251.335 C 189.435 249.56 186.299 247.817 183.547 246.487 C 179.113 244.343 174.779 242.7 170.463 241.363 C 168.965 240.9 167.573 240.506 166.324 240.174 C 163.735 239.485 159.817 238.539 155.663 238.006 C 153.151 237.684 150.732 237.519 148.694 237.489 L 148.694 237.489 Z  M 161.027 278.616 C 161.027 278.616 160.961 281.546 160.948 284.509 C 160.934 287.569 160.97 290.659 161.006 292.837 C 161.036 294.655 161.065 295.837 161.065 295.837 C 161.065 295.837 158.954 295.146 157.862 294.601 C 155.857 293.739 153.948 292.732 152.127 291.595 C 149.822 290.155 147.887 288.687 146.081 287.065 C 145.711 286.734 145.059 286.105 144.731 285.773 C 143.904 284.953 143.072 284.12 143.27 283.005 C 143.419 282.152 145.245 281.343 145.946 281.149 C 147.614 280.673 149.3 280.241 151.084 279.876 C 152.981 279.489 154.816 279.19 156.134 279.045 C 157.953 278.768 161.027 278.616 161.027 278.616 L 161.027 278.616 Z " fill-rule="evenodd" fill="rgb(85,0,0)"/></g></svg>