<?xml version="1.0" encoding="UTF-8" standalone="no"?><!-- Generator: Gravit.io --><svg xmlns="http://www.w3.org/2000/svg" xmlns:xlink="http://www.w3.org/1999/xlink" style="isolation:isolate" viewBox="0 0 1451.339 1451.339" width="1451.339pt" height="1451.339pt"><defs><clipPath id="_clipPath_nr5mKUtF69UGQ1GsVaRe2xB8tu8I1Jw6"><rect width="1451.339" height="1451.339"/></clipPath></defs><g clip-path="url(#_clipPath_nr5mKUtF69UGQ1GsVaRe2xB8tu8I1Jw6)"><rect x="0" y="0" width="1451.339" height="1451.339" transform="matrix(1,0,0,1,0,0)" fill="rgb(17,17,132)"/><path d=" M 700.053 1074.68 L 674.666 1060.863 L 674.608 820.987 L 674.55 581.111 L 657.027 573.454 C 647.39 569.243 639.471 565.692 639.43 565.564 C 639.388 565.435 639.323 564.018 639.285 562.414 L 639.216 559.498 L 682.385 559.498 L 725.555 559.498 L 725.555 824.004 C 725.555 969.483 725.529 1088.508 725.498 1088.504 C 725.466 1088.501 714.016 1082.28 700.053 1074.68 L 700.053 1074.68 Z  M 625.379 1033.851 C 622.423 1032.231 611.101 1026.064 600.22 1020.148 L 580.437 1009.391 L 580.322 795.327 C 580.259 677.592 580.154 581.21 580.089 581.144 C 580.023 581.079 572.098 577.585 562.478 573.381 L 544.986 565.737 L 544.923 562.618 L 544.859 559.498 L 587.978 559.498 L 631.097 559.498 L 631.097 798.16 C 631.097 929.424 631.019 1036.816 630.925 1036.809 C 630.831 1036.802 628.335 1035.471 625.379 1033.851 L 625.379 1033.851 Z  M 532.178 982.927 C 529.788 981.607 518.39 975.372 506.848 969.071 L 485.864 957.614 L 485.864 758.556 L 485.864 559.498 L 511.251 559.498 L 536.638 559.498 L 536.638 772.43 C 536.638 889.542 536.613 985.353 536.581 985.344 C 536.55 985.335 534.568 984.247 532.178 982.927 L 532.178 982.927 Z  M 769.696 812.021 L 769.696 559.727 L 780.294 559.727 C 786.123 559.727 795.849 559.795 801.907 559.879 L 812.923 560.03 L 812.914 765.548 L 812.905 971.066 L 804.344 980.558 L 795.784 990.05 L 795.777 992.051 C 795.773 993.152 795.835 994.052 795.915 994.052 C 796.041 994.052 804.153 989.875 813.038 985.236 C 814.547 984.447 824.736 979.15 835.68 973.463 C 846.624 967.776 855.758 963.029 855.978 962.913 C 856.358 962.713 856.378 964.072 856.369 989.984 L 856.36 1017.266 L 850.594 1020.386 C 845.14 1023.338 783.413 1056.954 774.614 1061.765 C 772.35 1063.003 770.317 1064.083 770.097 1064.166 C 769.716 1064.309 769.696 1052.207 769.696 812.021 L 769.696 812.021 Z  M 880.851 781.554 L 880.851 559.498 L 923.163 559.498 L 965.474 559.498 L 965.474 612.07 L 965.474 664.642 L 963.702 665.458 C 962.727 665.907 957.326 668.546 951.7 671.322 C 946.074 674.099 941.417 676.37 941.351 676.37 C 941.286 676.37 941.206 660.495 941.174 641.091 L 941.117 605.812 L 930.138 605.812 L 919.16 605.812 L 919.102 760.88 L 919.044 915.947 L 910.595 925.438 L 902.146 934.93 L 902.134 936.823 L 902.121 938.715 L 902.864 938.338 C 903.273 938.13 906.85 936.283 910.812 934.234 C 924.144 927.34 927.367 925.678 934.163 922.187 L 940.932 918.71 L 941.082 913.918 C 941.164 911.282 941.231 897.949 941.231 884.289 L 941.231 859.453 L 953.353 853.469 L 965.474 847.485 L 965.474 902.538 L 965.474 957.59 L 931.453 976.096 C 912.742 986.274 893.702 996.629 889.142 999.106 L 880.851 1003.61 L 880.851 781.554 Z  M 494.382 521.473 L 488.151 515.239 L 488.151 477.387 L 488.151 439.535 L 494.499 433.19 L 500.848 426.845 L 518.687 426.845 L 536.527 426.845 L 542.872 433.193 L 549.217 439.541 L 549.217 447.604 L 549.217 455.667 L 539.097 455.608 L 528.976 455.548 L 528.915 450.345 L 528.853 445.142 L 518.68 445.142 L 508.507 445.142 L 508.507 477.39 L 508.507 509.639 L 518.684 509.639 L 528.862 509.639 L 528.862 503.807 L 528.862 497.974 L 532.693 497.974 C 534.8 497.974 539.38 497.906 542.871 497.823 L 549.217 497.672 L 549.217 506.466 L 549.217 515.26 L 542.968 521.483 L 536.719 527.707 L 518.666 527.707 L 500.613 527.707 L 494.382 521.473 Z  M 563.626 477.276 L 563.626 426.845 L 587.814 426.845 L 612.002 426.845 L 618.253 433.098 L 624.503 439.352 L 624.477 459.229 L 624.45 479.106 L 618.496 485.069 L 612.541 491.031 L 615.328 496.847 C 622.922 512.698 629.146 525.646 629.64 526.623 L 630.192 527.711 L 618.957 527.652 L 607.723 527.593 L 600.198 510.325 C 596.06 500.828 592.573 492.826 592.45 492.542 C 592.229 492.036 592.159 492.028 588.104 492.028 L 583.982 492.028 L 583.982 509.867 L 583.982 527.707 L 573.804 527.707 L 563.626 527.707 L 563.626 477.276 Z  M 602.082 471.515 L 604.337 469.3 L 604.337 457.221 L 604.337 445.142 L 594.16 445.142 L 583.982 445.142 L 583.982 459.436 L 583.982 473.731 L 591.904 473.731 L 599.827 473.731 L 602.082 471.515 Z  M 640.016 477.274 L 640.016 426.84 L 650.137 426.9 L 660.257 426.959 L 660.315 477.333 L 660.373 527.707 L 650.195 527.707 L 640.016 527.707 L 640.016 477.274 Z  M 682.155 521.473 L 675.924 515.239 L 675.924 477.269 L 675.924 439.299 L 682.166 433.072 L 688.408 426.845 L 706.348 426.845 L 724.288 426.845 L 730.639 433.196 L 736.991 439.547 L 736.991 447.605 L 736.991 455.663 L 726.813 455.663 L 716.635 455.663 L 716.635 450.4 L 716.635 445.137 L 706.4 445.197 L 696.165 445.256 L 696.165 477.39 L 696.165 509.524 L 706.343 509.524 L 716.521 509.524 L 716.582 503.785 L 716.643 498.045 L 726.588 497.882 C 732.058 497.792 736.636 497.783 736.762 497.86 C 736.908 497.95 736.991 501.141 736.991 506.66 L 736.991 515.318 L 730.644 521.512 L 724.297 527.705 L 706.341 527.706 L 688.386 527.707 L 682.155 521.473 Z  M 751.399 477.276 L 751.399 426.845 L 761.348 426.845 L 771.297 426.845 L 771.297 446.615 C 771.297 457.489 771.375 466.427 771.469 466.477 C 771.563 466.528 775.885 463.939 781.073 460.724 L 790.506 454.878 L 790.565 440.918 L 790.624 426.959 L 800.687 426.959 L 810.75 426.959 L 810.809 443.88 L 810.868 460.801 L 806.692 464.986 L 802.517 469.171 L 806.691 473.306 L 810.865 477.441 L 810.865 502.574 L 810.865 527.707 L 800.801 527.707 L 790.738 527.707 L 790.738 505.689 L 790.738 483.671 L 788.618 481.56 C 787.452 480.399 786.397 479.449 786.274 479.449 C 786.15 479.449 782.756 481.121 778.731 483.165 L 771.412 486.882 L 771.353 507.294 L 771.295 527.707 L 761.347 527.707 L 751.399 527.707 L 751.399 477.276 Z  M 825.4 523.533 C 825.316 521.237 825.279 498.569 825.318 473.159 L 825.388 426.959 L 855.178 426.901 L 884.968 426.843 L 884.968 435.992 L 884.968 445.142 L 865.298 445.142 L 845.629 445.142 L 845.629 456.006 L 845.629 466.87 L 860.381 466.87 L 875.133 466.87 L 875.133 475.789 L 875.133 484.709 L 860.381 484.709 L 845.629 484.709 L 845.629 497.174 L 845.629 509.639 L 865.298 509.639 L 884.968 509.639 L 884.968 518.673 L 884.968 527.707 L 855.26 527.707 L 825.552 527.707 L 825.4 523.533 Z  M 919.274 486.427 L 919.274 445.146 L 907.782 445.087 L 896.289 445.027 L 896.289 435.993 L 896.289 426.959 L 929.681 426.959 L 963.073 426.959 L 963.073 435.993 L 963.073 445.027 L 951.351 445.087 L 939.63 445.146 L 939.63 486.426 L 939.63 527.707 L 929.452 527.707 L 919.274 527.707 L 919.274 486.427 Z  M 595.76 406.696 C 590.965 406.305 587.767 404.373 586.489 401.096 C 586.043 399.952 585.946 399.201 585.862 396.254 L 585.763 392.767 L 586.781 392.767 C 587.341 392.767 588.895 392.7 590.236 392.617 L 592.673 392.468 L 592.683 394.276 C 592.706 398.402 593.597 399.829 596.468 400.334 C 599.469 400.862 601.88 399.846 602.928 397.61 L 603.537 396.312 L 603.603 380.13 L 603.668 363.949 L 607.548 363.949 L 611.427 363.949 L 611.42 379.787 C 611.411 397.476 611.372 398.036 609.949 400.914 C 607.762 405.34 602.989 407.284 595.761 406.696 L 595.76 406.696 Z  M 637.958 406.704 C 630.2 406.142 625.555 402.188 624.309 395.088 C 623.799 392.177 623.991 375.624 624.558 373.669 C 626.113 368.305 629.559 364.964 635.099 363.448 C 637.608 362.761 644.079 362.704 646.535 363.347 C 652.04 364.789 655.614 368.376 656.866 373.718 C 657.235 375.29 657.284 376.586 657.28 384.762 C 657.276 395.161 657.175 396.063 655.679 399.103 C 652.907 404.734 646.817 407.347 637.958 406.704 Z  M 645.097 399.329 C 646.695 398.544 647.986 397.126 648.593 395.486 C 649.024 394.326 649.051 393.687 649.051 384.647 L 649.051 375.041 L 648.388 373.606 C 647.009 370.62 644.054 369.201 639.834 369.498 C 636.459 369.736 634.349 370.969 633.17 373.391 C 632.104 375.58 631.961 377.217 632.058 386.093 C 632.14 393.546 632.175 394.105 632.641 395.363 C 633.285 397.101 634.063 398.098 635.377 398.868 C 637.036 399.841 638.25 400.083 641.16 400.024 C 643.519 399.976 643.925 399.905 645.097 399.329 L 645.097 399.329 Z  M 859.123 406.706 C 852.975 406.23 848.811 403.311 847.11 398.285 C 846.219 395.649 846.038 392.928 846.144 383.714 C 846.227 376.568 846.304 375.042 846.646 373.783 C 848.212 368.017 852.053 364.477 858.094 363.231 C 861.055 362.62 866.025 362.729 868.801 363.464 C 874.625 365.007 878.084 369.452 878.102 375.418 L 878.107 376.709 L 876.334 376.842 C 875.359 376.915 873.625 377.039 872.481 377.116 L 870.401 377.257 L 870.259 375.746 C 869.971 372.656 869.153 371.275 866.985 370.214 C 865.917 369.692 865.322 369.572 863.353 369.485 C 860.016 369.336 858.172 369.902 856.482 371.592 C 855.506 372.568 855.184 373.095 854.798 374.344 C 854.348 375.802 854.32 376.409 854.32 384.99 C 854.32 393.56 854.348 394.18 854.796 395.63 C 855.675 398.475 857.736 399.932 861.314 400.237 C 864.361 400.496 867.328 399.622 868.968 397.981 C 870.29 396.659 870.844 395.087 870.875 392.566 L 870.902 390.365 L 866.614 390.303 L 862.325 390.241 L 862.325 387.158 L 862.325 384.075 L 870.216 384.075 L 878.107 384.075 L 878.107 394.948 L 878.107 405.82 L 875.999 405.755 L 873.891 405.689 L 873.514 404.023 C 873.306 403.107 873.076 402.297 873.002 402.223 C 872.928 402.15 872.323 402.569 871.656 403.156 C 868.577 405.865 864.218 407.1 859.123 406.706 L 859.123 406.706 Z  M 902.578 406.48 C 897.425 405.849 893.825 403.624 892.049 399.971 C 890.561 396.911 890.601 397.437 890.512 379.901 L 890.431 363.949 L 894.321 363.949 L 898.212 363.949 L 898.286 379.215 C 898.354 393.112 898.397 394.591 898.767 395.696 C 899.234 397.092 900.455 398.554 901.671 399.175 C 902.9 399.802 905.369 400.168 907.211 399.997 C 911.042 399.641 912.974 397.743 913.548 393.771 C 913.68 392.862 913.778 386.218 913.781 378.072 L 913.785 363.949 L 917.687 363.949 L 921.59 363.949 L 921.505 379.673 C 921.422 395.231 921.416 395.415 920.903 397.11 C 919.737 400.969 917.862 403.298 914.655 404.871 C 913.61 405.383 912.003 405.956 911.084 406.145 C 908.939 406.586 904.778 406.75 902.578 406.48 L 902.578 406.48 Z  M 490.667 384.876 L 490.667 363.949 L 495.642 363.949 L 500.616 363.95 L 505.648 375.723 C 508.415 382.198 510.785 387.499 510.913 387.501 C 511.042 387.504 511.792 386.091 512.58 384.361 C 513.368 382.632 515.784 377.332 517.949 372.584 L 521.886 363.951 L 526.632 363.95 L 531.378 363.949 L 531.378 384.876 L 531.378 405.803 L 527.833 405.803 L 524.288 405.803 L 524.288 390.15 C 524.288 381.541 524.199 374.442 524.091 374.375 C 523.983 374.308 521.496 379.452 518.564 385.805 L 513.233 397.356 L 510.836 397.291 L 508.438 397.227 L 503.427 385.905 C 500.671 379.679 498.319 374.486 498.201 374.367 C 498.067 374.231 497.986 380.086 497.986 389.977 L 497.986 405.803 L 494.326 405.803 L 490.667 405.803 L 490.667 384.876 Z  M 541.899 404.409 C 541.899 402.999 542.148 402.158 552.958 367.151 L 553.911 364.063 L 559.569 364.002 C 562.681 363.968 565.227 363.994 565.227 364.06 C 565.227 364.125 568.006 373.046 571.403 383.885 C 575.934 398.344 577.578 403.887 577.578 404.703 L 577.578 405.814 L 573.755 405.751 L 569.932 405.689 L 568.72 401.458 C 568.053 399.13 567.402 396.839 567.273 396.366 L 567.038 395.505 L 559.475 395.565 L 551.913 395.625 L 550.488 400.657 L 549.064 405.689 L 545.481 405.752 L 541.899 405.815 L 541.899 404.409 Z  M 564.856 388.466 C 564.919 388.365 563.817 384.275 562.408 379.377 C 560.576 373.01 559.747 370.453 559.498 370.405 C 559.224 370.352 558.605 372.247 556.593 379.299 C 555.186 384.228 554.09 388.349 554.156 388.455 C 554.309 388.703 564.704 388.713 564.856 388.466 L 564.856 388.466 Z  M 669.978 384.876 L 669.978 363.949 L 679.776 363.949 C 688.789 363.949 689.716 363.985 691.343 364.401 C 694.712 365.263 696.915 366.943 698.181 369.615 L 698.91 371.153 L 698.91 376.871 L 698.91 382.589 L 698.289 383.914 C 697.5 385.597 695.43 387.68 693.713 388.517 L 692.404 389.155 L 692.776 389.874 C 692.981 390.27 694.727 393.446 696.658 396.932 C 700 402.967 700.168 403.33 700.168 404.536 L 700.168 405.803 L 696.419 405.803 L 692.67 405.803 L 688.848 398.427 C 686.746 394.37 684.919 390.92 684.788 390.759 C 684.61 390.542 683.726 390.483 681.323 390.531 L 678.097 390.594 L 678.037 398.199 L 677.977 405.803 L 673.977 405.803 L 669.978 405.803 L 669.978 384.876 Z  M 687.775 383.773 C 690.431 382.766 691.082 381.628 691.205 377.778 C 691.316 374.295 691.065 373.29 689.778 372.052 C 688.315 370.645 686.982 370.353 682.027 370.353 L 677.983 370.353 L 677.983 377.353 L 677.983 384.353 L 682.385 384.25 C 685.709 384.173 687.03 384.056 687.775 383.773 L 687.775 383.773 Z  M 731.273 384.876 L 731.273 363.949 L 735.161 363.949 L 739.049 363.949 L 739.049 381.331 L 739.049 398.713 L 746.825 398.713 L 754.601 398.713 L 754.601 402.258 L 754.601 405.803 L 742.937 405.803 L 731.273 405.803 L 731.273 384.876 Z  M 766.494 384.876 L 766.494 363.949 L 779.188 363.949 L 791.882 363.949 L 791.882 367.265 L 791.882 370.581 L 783.19 370.581 L 774.499 370.581 L 774.499 375.842 L 774.499 381.102 L 782.733 381.102 L 790.967 381.102 L 790.967 384.419 L 790.967 387.735 L 782.733 387.735 L 774.499 387.735 L 774.499 393.338 L 774.499 398.942 L 783.762 398.942 L 793.025 398.942 L 793.025 402.372 L 793.025 405.803 L 779.76 405.803 L 766.494 405.803 L 766.494 384.876 Z  M 802.397 404.717 C 802.393 403.932 804.087 398.128 808.505 383.79 L 814.619 363.949 L 820.263 363.949 L 825.906 363.949 L 826.014 364.463 C 826.074 364.746 827.468 369.249 829.112 374.47 C 837.916 402.426 838.082 402.98 838.082 404.421 L 838.082 405.803 L 834.349 405.803 L 830.617 405.803 L 829.171 400.654 L 827.725 395.505 L 820.161 395.565 L 812.597 395.626 L 811.384 399.857 C 810.717 402.184 810.066 404.474 809.938 404.946 L 809.704 405.803 L 806.053 405.803 L 802.402 405.803 L 802.397 404.717 Z  M 825.545 388.53 C 825.611 388.465 824.511 384.374 823.101 379.439 C 821.154 372.626 820.446 370.449 820.161 370.393 C 819.954 370.353 819.785 370.353 819.785 370.393 C 819.785 370.434 818.652 374.43 817.269 379.273 C 815.885 384.115 814.753 388.206 814.753 388.364 C 814.753 388.584 815.971 388.65 820.089 388.65 C 823.025 388.65 825.48 388.596 825.545 388.53 L 825.545 388.53 Z  M 933.912 384.876 L 933.912 363.949 L 946.606 363.949 L 959.299 363.949 L 959.299 367.265 L 959.299 370.581 L 950.608 370.581 L 941.917 370.581 L 941.917 375.842 L 941.917 381.102 L 950.151 381.102 L 958.384 381.102 L 958.384 384.419 L 958.384 387.735 L 950.151 387.735 L 941.917 387.735 L 941.917 393.338 L 941.917 398.942 L 951.18 398.942 L 960.443 398.942 L 960.443 402.372 L 960.443 405.803 L 947.177 405.803 L 933.912 405.803 L 933.912 384.876 Z " fill-rule="evenodd" fill="rgb(255,255,255)"/></g></svg>