<?xml version="1.0" encoding="UTF-8" standalone="no"?>
<!-- Generator: Gravit.io --><svg xmlns="http://www.w3.org/2000/svg" xmlns:xlink="http://www.w3.org/1999/xlink"
  style="isolation:isolate" viewBox="0 0 512 512" width="512pt" height="512pt">
  <defs>
    <clipPath id="_clipPath_EqzlnxrioaEbEsNn65ahz0vPrkeRkWFr">
      <rect width="512" height="512" />
    </clipPath>
  </defs>
  <g clip-path="url(#_clipPath_EqzlnxrioaEbEsNn65ahz0vPrkeRkWFr)">
    <path d="M 477.714 383.995 L 256.005 512 L 34.286 383.995 L 34.286 127.985 L 256.005 0 L 477.714 127.985 L 477.714 383.995 Z" fill-rule="evenodd" fill="rgb(27,27,29)" />
    <path
      d=" M 373.303 131.678 L 249.939 131.678 C 249.939 161.46 274.897 185.701 305.559 185.701 L 328.378 185.701 L 328.378 206.825 C 328.378 236.607 353.337 260.849 384 260.849 L 384 142.067 C 384 136.18 379.365 131.678 373.303 131.678 Z  M 312.335 191.241 L 188.969 191.241 C 188.969 221.023 213.927 245.264 244.591 245.264 L 267.409 245.264 L 267.409 266.735 C 267.409 296.517 292.368 320.759 323.031 320.759 L 323.031 201.63 C 323.031 196.089 318.395 191.241 312.335 191.241 Z  M 251.366 251.152 L 128 251.152 C 128 280.934 152.958 305.175 183.621 305.175 L 206.44 305.175 L 206.44 326.299 C 206.44 356.081 231.399 380.322 262.061 380.322 L 262.061 261.54 C 262.061 255.653 257.071 251.152 251.366 251.152 Z "
      fill-rule="evenodd" fill="rgb(255,255,255)" />
  </g>
</svg>