<?xml version="1.0" encoding="UTF-8" standalone="no"?><!-- Generator: Gravit.io --><svg xmlns="http://www.w3.org/2000/svg" xmlns:xlink="http://www.w3.org/1999/xlink" style="isolation:isolate" viewBox="0 0 512 512" width="512pt" height="512pt"><defs><clipPath id="_clipPath_WvoKTkhNjjKWzzUeDdFybgwM3ZpvrZWI"><rect width="512" height="512"/></clipPath></defs><g clip-path="url(#_clipPath_WvoKTkhNjjKWzzUeDdFybgwM3ZpvrZWI)"><circle vector-effect="non-scaling-stroke" cx="256" cy="256" r="256" fill="rgb(237,29,36)" /><path d=" M 247.228 128.016 C 240.442 128.016 239.039 129.199 236.837 131.654 C 235.972 131.597 235.067 131.581 234.121 131.581 C 228.901 131.581 222.196 132.347 216.478 136.173 C 210.956 139.819 208.33 146.271 211.275 150.993 C 211.275 150.993 213.248 148.098 219.741 148.098 C 220.655 148.098 221.666 148.196 222.743 148.285 C 231.715 149.346 238.354 154.068 237.547 166.539 C 236.829 179.003 232.155 192.901 213.036 193.064 C 213.036 193.064 210.573 193.064 207.947 192.82 C 199.048 191.849 196.25 186.262 196.25 186.262 C 196.25 186.262 203.942 184.174 204.007 174.411 C 203.942 167.771 198.159 161.695 189.815 159.239 C 187.082 158.44 184.081 158.049 180.957 158.049 C 171.12 158.049 160.076 162.168 152.629 171.89 C 135.745 194.182 134.375 226.677 138.494 256.897 C 142.638 287.182 161.846 315.233 162.409 315.999 C 162.817 316.538 163.184 316.831 163.6 316.831 C 163.812 316.831 164.032 316.733 164.261 316.546 C 172.556 308.495 180.467 297.492 183.852 290.135 C 187.474 293.022 185.582 299.164 183.591 305.722 C 181.699 312.427 177.099 321.325 175.435 324.197 C 173.828 327.002 171.675 330.265 174.57 331.97 C 174.864 332.149 175.239 332.247 175.688 332.247 C 179.407 332.247 188.159 325.763 197.922 312.745 C 208.852 298.096 214.399 285.094 214.399 285.094 C 215.198 285.274 216.536 286.628 216.315 290.314 C 216.168 294.058 212.319 307.99 204.823 320.958 C 197.245 333.919 190.247 342.027 188.836 343.87 C 187.963 344.939 188.706 345.607 189.268 346.04 C 189.823 346.415 203.224 358.927 222.694 369.498 C 245.76 381.79 255.989 384 255.989 384 C 255.989 384 266.192 381.847 289.259 369.563 C 308.72 358.976 322.179 346.407 322.676 345.983 C 323.239 345.599 323.957 344.996 323.108 343.821 C 321.779 342.059 314.756 333.911 307.195 320.95 C 299.724 308.071 295.727 294.05 295.67 290.355 C 295.515 286.628 296.771 285.396 297.538 285.086 C 297.538 285.086 303.141 298.169 314.071 312.737 C 323.883 325.771 332.554 332.239 336.289 332.239 C 336.762 332.239 337.138 332.141 337.448 331.962 C 340.253 330.257 338.165 326.945 336.518 324.172 C 334.984 321.317 330.319 312.476 328.337 305.714 C 326.436 299.083 324.462 292.949 328.149 290.127 C 331.542 297.484 339.397 308.544 347.717 316.48 C 347.937 316.709 348.19 316.823 348.434 316.823 C 348.801 316.823 349.193 316.538 349.535 316.04 C 350.147 315.224 369.388 287.223 373.499 256.889 C 377.626 226.604 376.264 194.182 359.364 171.882 C 351.966 162.135 340.841 157.991 330.939 157.991 C 327.847 157.991 324.895 158.391 322.195 159.166 C 313.786 161.695 308.027 167.828 308.076 174.402 C 308.076 184.166 315.808 186.254 315.808 186.254 C 315.808 186.254 313.223 191.702 304.006 192.812 C 302.285 193.024 300.613 193.122 299.014 193.122 C 292.081 193.122 286.241 190.919 280.858 183.317 C 275.638 176.001 275.809 160.936 275.507 155.912 C 275.271 150.814 274.178 139.378 268.819 134.713 C 263.476 129.925 256.967 128.318 248.852 128 C 248.256 128.016 247.726 128.016 247.228 128.016 Z " fill="rgb(239,191,4)"/></g></svg>