<svg width="20" height="21" viewBox="0 0 20 21" fill="none" xmlns="http://www.w3.org/2000/svg">
<g clip-path="url(#clip0_3_4786)">
<path d="M14.7368 2.46985H12.6316V3.52507H7.3684V2.46985H5.26314V3.52507H3.15788V8.80115H2.10524V9.85637H1.05261V11.9668H2.10524V14.0772H4.21051V15.1325H6.31577V17.2429H7.3684V19.3533H12.6316V17.2429H13.6842V15.1325H15.7895V14.0772H17.8947V11.9668H18.9473V9.85637H17.8947V8.80115H16.8421V3.52507H14.7368V2.46985Z" fill="white"/>
<path d="M12.6316 0.359375H7.36841V3.52503H12.6316V0.359375Z" fill="black"/>
<path d="M7.36845 1.41455H5.26318V2.46977H7.36845V1.41455Z" fill="black"/>
<path d="M7.36845 7.74585H5.26318V8.80107H7.36845V7.74585Z" fill="black"/>
<path d="M12.6316 19.3533H7.36841V20.4085H12.6316V19.3533Z" fill="black"/>
<path d="M3.15792 3.52502H2.10529V8.80111H3.15792V3.52502Z" fill="black"/>
<path d="M2.10524 11.9668H1.05261V15.1324H2.10524V11.9668Z" fill="black"/>
<path d="M1.05261 14.0772V15.1324H4.21051V14.0772H1.05261Z" fill="black"/>
<path d="M2.10524 4.5802H1.05261V9.85628H2.10524V4.5802Z" fill="black"/>
<path d="M1.05263 7.74585H0V11.9667H1.05263V7.74585Z" fill="black"/>
<path d="M7.36843 8.80115H6.3158V11.9668H7.36843V8.80115Z" fill="black"/>
<path d="M5.26316 2.46985H3.1579V3.52507H5.26316V2.46985Z" fill="black"/>
<path d="M5.26316 6.69067H3.1579V7.74589H5.26316V6.69067Z" fill="black"/>
<path d="M7.36842 17.2428H3.1579V18.298H7.36842V17.2428Z" fill="black"/>
<path d="M7.36845 18.2981H5.26318V19.3533H7.36845V18.2981Z" fill="black"/>
<path d="M2.10529 15.1324V17.2428H6.31581V15.1324H2.10529Z" fill="black"/>
<path d="M12.6316 6.69067H7.36841V14.0772H12.6316V6.69067Z" fill="black"/>
<path d="M7.36843 14.0771H6.3158V15.1324H7.36843V14.0771Z" fill="black"/>
<path d="M12.6316 2.46985L14.7368 2.46985L14.7368 1.41463L12.6316 1.41463L12.6316 2.46985Z" fill="black"/>
<path d="M12.6316 8.80115L14.7368 8.80115L14.7368 7.74593L12.6316 7.74593L12.6316 8.80115Z" fill="black"/>
<path d="M16.8421 8.80115L17.8947 8.80115L17.8947 3.52506L16.8421 3.52506L16.8421 8.80115Z" fill="black"/>
<path d="M17.8948 15.1324L18.9474 15.1324L18.9474 11.9668L17.8948 11.9668L17.8948 15.1324Z" fill="black"/>
<path d="M15.7895 14.0772L15.7895 15.1324L18.9474 15.1324L18.9474 14.0772L15.7895 14.0772Z" fill="black"/>
<path d="M17.8948 9.85632L18.9474 9.85632L18.9474 4.58024L17.8948 4.58024L17.8948 9.85632Z" fill="black"/>
<path d="M18.9474 11.9668L20 11.9668L20 7.74593L18.9474 7.74593L18.9474 11.9668Z" fill="black"/>
<path d="M12.6316 11.9668L13.6842 11.9668L13.6842 8.80115L12.6316 8.80115L12.6316 11.9668Z" fill="black"/>
<path d="M14.7368 3.52502L16.8421 3.52502L16.8421 2.46981L14.7368 2.46981L14.7368 3.52502Z" fill="black"/>
<path d="M14.7368 7.74585L16.8421 7.74585L16.8421 6.69063L14.7368 6.69063L14.7368 7.74585Z" fill="black"/>
<path d="M12.6316 18.2981L16.8421 18.2981L16.8421 17.2429L12.6316 17.2429L12.6316 18.2981Z" fill="black"/>
<path d="M12.6316 19.3533L14.7368 19.3533L14.7368 18.2981L12.6316 18.2981L12.6316 19.3533Z" fill="black"/>
<path d="M13.6842 15.1324L13.6842 17.2428L17.8947 17.2428L17.8947 15.1324L13.6842 15.1324Z" fill="black"/>
<path d="M12.6316 15.1324L13.6842 15.1324L13.6842 14.0772L12.6316 14.0772L12.6316 15.1324Z" fill="black"/>
<path d="M3.15792 11.9668H2.10529V14.0772H3.15792V11.9668Z" fill="#CCCCCC"/>
<path d="M17.8947 11.9668H16.8421V14.0772H17.8947V11.9668Z" fill="#CCCCCC"/>
<path d="M4.21053 13.022H3.1579V14.0772H4.21053V13.022Z" fill="#CCCCCC"/>
<path d="M16.8421 13.022H15.7895V14.0772H16.8421V13.022Z" fill="#CCCCCC"/>
<path d="M7.36843 15.1324H6.3158V17.2429H7.36843V15.1324Z" fill="#CCCCCC"/>
<path d="M13.6842 15.1324H12.6316V17.2429H13.6842V15.1324Z" fill="#CCCCCC"/>
<path d="M8.4211 16.1876H7.36847V19.3533H8.4211V16.1876Z" fill="#CCCCCC"/>
<path d="M12.6316 17.2429H7.36847V19.3534H12.6316V17.2429Z" fill="#CCCCCC"/>
<path d="M12.6316 16.1876H11.579V19.3533H12.6316V16.1876Z" fill="#CCCCCC"/>
<path d="M6.31583 14.0773H4.21057V15.1325H6.31583V14.0773Z" fill="#CCCCCC"/>
<path d="M15.7895 14.0773H13.6842V15.1325H15.7895V14.0773Z" fill="#CCCCCC"/>
</g>
<defs>
<clipPath id="clip0_3_4786">
<rect width="20" height="20.0491" fill="white" transform="translate(0 0.359375)"/>
</clipPath>
</defs>
</svg>
