<?xml version="1.0" encoding="UTF-8" standalone="no"?><!-- Generator: Gravit.io --><svg xmlns="http://www.w3.org/2000/svg" xmlns:xlink="http://www.w3.org/1999/xlink" style="isolation:isolate" viewBox="0 0 512 512" width="512pt" height="512pt"><defs><clipPath id="_clipPath_RrwXWzxPiUPVNsDx3nu65Flxp6XwemAI"><rect width="512" height="512"/></clipPath></defs><g clip-path="url(#_clipPath_RrwXWzxPiUPVNsDx3nu65Flxp6XwemAI)"><circle vector-effect="non-scaling-stroke" cx="256" cy="256" r="256" fill="rgb(27,27,29)" /><path d=" M 148.892 139.044 L 290.541 128.582 C 307.941 127.089 312.411 128.095 323.352 136.049 L 368.569 167.902 C 376.026 173.381 378.509 174.873 378.509 180.838 L 378.509 355.537 C 378.509 366.486 374.533 372.962 360.615 373.95 L 196.123 383.914 C 185.678 384.408 180.704 382.915 175.234 375.945 L 141.936 332.646 C 135.964 324.676 133.488 318.712 133.488 311.738 L 133.488 156.452 C 133.488 147.5 137.464 140.035 148.892 139.044 Z " fill="rgb(27,27,29)"/><path d=" M 290.541 128.584 L 148.892 139.047 C 137.464 140.035 133.488 147.502 133.488 156.452 L 133.488 311.738 C 133.488 318.709 135.964 324.674 141.936 332.646 L 175.234 375.942 C 180.704 382.913 185.678 384.408 196.123 383.911 L 360.618 373.953 C 374.526 372.962 378.512 366.486 378.512 355.539 L 378.512 180.84 C 378.512 175.183 376.277 173.552 369.698 168.724 L 323.352 136.049 C 312.414 128.095 307.941 127.089 290.541 128.582 L 290.541 128.584 Z  M 199.842 177.981 C 186.41 178.885 183.364 179.089 175.735 172.887 L 156.341 157.46 C 154.37 155.464 155.361 152.973 160.327 152.476 L 296.498 142.526 C 307.934 141.527 313.888 145.513 318.36 148.995 L 341.715 165.916 C 342.713 166.42 345.196 169.397 342.209 169.397 L 201.583 177.863 L 199.842 177.984 L 199.842 177.981 Z  M 184.183 354.047 L 184.183 205.741 C 184.183 199.264 186.172 196.277 192.127 195.775 L 353.644 186.319 C 359.122 185.825 361.598 189.306 361.598 195.773 L 361.598 343.09 C 361.598 349.567 360.6 355.045 351.658 355.539 L 197.096 364.499 C 188.154 364.993 184.186 362.016 184.186 354.047 L 184.183 354.047 Z  M 336.756 213.692 C 337.747 218.172 336.756 222.652 332.276 223.164 L 324.827 224.641 L 324.827 334.138 C 318.358 337.619 312.403 339.609 307.427 339.609 C 299.473 339.609 297.487 337.118 291.53 329.658 L 242.814 253.013 L 242.814 327.167 L 258.225 330.656 C 258.225 330.656 258.225 339.616 245.791 339.616 L 211.513 341.605 C 210.515 339.609 211.513 334.635 214.987 333.644 L 223.939 331.161 L 223.939 233.115 L 211.516 232.109 C 210.517 227.629 213.001 221.16 219.964 220.658 L 256.742 218.182 L 307.429 295.818 L 307.429 227.135 L 294.509 225.65 C 293.511 220.164 297.487 216.178 302.453 215.692 L 336.756 213.695 L 336.756 213.692 Z " fill-rule="evenodd" fill="rgb(0,0,128)"/></g></svg>