<?xml version="1.0" encoding="UTF-8" standalone="no"?><!-- Generator: Gravit.io --><svg xmlns="http://www.w3.org/2000/svg" xmlns:xlink="http://www.w3.org/1999/xlink" style="isolation:isolate" viewBox="0 0 512 512" width="512pt" height="512pt"><defs><clipPath id="_clipPath_hK77acPvfXVDdd9wNduII80iDU9uA5Df"><rect width="512" height="512"/></clipPath></defs><g clip-path="url(#_clipPath_hK77acPvfXVDdd9wNduII80iDU9uA5Df)"><circle vector-effect="non-scaling-stroke" cx="256" cy="256" r="256" fill="rgb(0,103,79)" /><path d=" M 300.518 380.234 L 193.175 310.348 C 193.175 310.348 179.711 302.61 176.628 288.206 C 172.299 267.958 186.564 250.602 186.564 250.602 L 325.882 341.332 C 336.629 348.338 339.562 362.668 332.656 373.478 C 325.567 384.563 310.982 387.016 300.518 380.234 Z  M 198.835 235.61 C 198.835 235.61 182.391 225.675 182.391 202.718 C 182.391 179.83 198.827 170.028 198.827 170.028 L 257.52 131.617 C 262.685 128.339 268.934 127.23 274.911 128.532 C 280.888 129.834 286.11 133.441 289.444 138.569 C 292.778 143.698 293.954 149.935 292.717 155.926 C 291.481 161.916 287.931 167.178 282.838 170.567 L 233.377 202.775 L 317.652 257.659 C 317.652 257.659 332.823 266.354 335.82 281.024 C 339.991 301.491 325.902 318.354 325.902 318.354 L 198.835 235.61 Z  M 309.304 179.887 C 303.791 179.887 299.871 181.624 296.044 184.116 L 267.396 202.775 L 296.044 221.434 C 299.908 223.921 303.962 225.661 309.304 225.661 C 315.33 225.594 321.086 223.153 325.323 218.868 C 329.561 214.583 331.938 208.8 331.938 202.774 C 331.938 196.748 329.561 190.964 325.323 186.679 C 321.086 182.395 315.33 179.954 309.304 179.887 Z  M 198.551 383.945 C 204.061 383.945 207.982 382.208 211.808 379.715 L 240.459 361.056 L 211.808 342.398 C 207.945 339.911 203.894 338.171 198.551 338.171 C 195.524 338.137 192.521 338.704 189.714 339.839 C 186.908 340.975 184.355 342.655 182.202 344.783 C 180.05 346.912 178.341 349.447 177.175 352.24 C 176.008 355.034 175.408 358.031 175.408 361.058 C 175.408 364.085 176.008 367.082 177.175 369.876 C 178.341 372.67 180.05 375.204 182.202 377.333 C 184.355 379.461 186.908 381.142 189.714 382.277 C 192.521 383.412 195.524 383.979 198.551 383.945 Z " fill-rule="evenodd" fill="rgb(255,255,255)"/></g></svg>