<?xml version="1.0" encoding="UTF-8" standalone="no"?><!-- Generator: Gravit.io --><svg xmlns="http://www.w3.org/2000/svg" xmlns:xlink="http://www.w3.org/1999/xlink" style="isolation:isolate" viewBox="0 0 512 512" width="512pt" height="512pt"><defs><clipPath id="_clipPath_xKBdUWqQvCKaGLXfCht1sataC30NP0En"><rect width="512" height="512"/></clipPath></defs><g clip-path="url(#_clipPath_xKBdUWqQvCKaGLXfCht1sataC30NP0En)"><path d="M 477.714 383.995 L 256.005 512 L 34.286 383.995 L 34.286 127.985 L 256.005 0 L 477.714 127.985 L 477.714 383.995 Z" fill-rule="evenodd" fill="rgb(239,191,4)" /><path d=" M 128 256.009 C 128 185.301 185.297 128 255.991 128 C 326.684 128 384 185.297 384 256.009 C 384 326.673 326.686 384 255.991 384 C 185.299 384 128 326.674 128 256.009 L 128 256.009 Z  M 255.966 341.316 C 303.084 341.316 341.282 303.111 341.282 256.004 C 341.282 208.877 303.085 170.673 255.966 170.673 C 208.851 170.673 170.654 208.874 170.654 256.004 C 170.654 303.111 208.855 341.316 255.966 341.316 L 255.966 341.316 Z  M 298.624 256 C 298.624 279.558 279.528 298.658 255.966 298.658 C 232.404 298.658 213.312 279.558 213.312 256 C 213.312 232.442 232.408 213.342 255.97 213.342 C 279.532 213.342 298.624 232.442 298.624 256 Z " fill="rgb(255,255,255)"/></g></svg>