<?xml version="1.0" encoding="UTF-8" standalone="no"?><!-- Generator: Gravit.io --><svg xmlns="http://www.w3.org/2000/svg" xmlns:xlink="http://www.w3.org/1999/xlink" style="isolation:isolate" viewBox="0 0 512 512" width="512pt" height="512pt"><defs><clipPath id="_clipPath_f96hbQdU5I9eYJaGSOPFclTVvOle8UnR"><rect width="512" height="512"/></clipPath></defs><g clip-path="url(#_clipPath_f96hbQdU5I9eYJaGSOPFclTVvOle8UnR)"><rect width="512" height="512" style="fill:rgb(0,0,128)"/><path d=" M 347.107 128.046 C 346.198 128.13 338.118 129.562 337.146 129.76 L 225.304 152.327 L 225.263 152.338 C 222.346 152.954 220.057 153.989 218.291 155.473 C 216.158 157.261 214.977 159.79 214.528 162.738 C 214.434 163.365 214.277 164.64 214.277 166.522 C 214.277 166.522 214.277 280.789 214.277 306.502 C 214.277 309.773 214.016 312.951 211.8 315.658 C 209.584 318.365 206.845 319.181 203.636 319.829 C 201.201 320.32 198.765 320.811 196.33 321.303 C 187.09 323.163 181.08 324.428 175.634 326.539 C 170.429 328.557 166.53 331.128 163.425 334.389 C 157.269 340.838 154.771 349.587 155.628 357.782 C 156.36 364.775 159.506 371.464 164.91 376.408 C 168.558 379.753 173.115 382.293 178.488 383.37 C 184.059 384.488 189.996 384.101 198.671 382.345 C 203.291 381.415 207.619 379.962 211.737 377.527 C 215.813 375.123 219.305 371.914 222.033 368.004 C 224.771 364.085 226.538 359.726 227.51 355.096 C 228.513 350.319 228.754 346.002 228.754 341.235 L 228.754 219.83 C 228.754 213.328 230.593 211.614 235.84 210.339 C 235.84 210.339 328.805 191.587 333.143 190.74 C 339.195 189.58 342.048 191.305 342.048 197.649 L 342.048 280.527 C 342.048 283.809 342.017 287.133 339.78 289.851 C 337.564 292.558 334.826 293.373 331.617 294.021 C 329.181 294.513 326.746 295.004 324.311 295.495 C 315.071 297.356 309.06 298.621 303.615 300.732 C 298.409 302.749 294.51 305.321 291.406 308.582 C 285.249 315.031 282.532 323.78 283.389 331.975 C 284.121 338.967 287.486 345.657 292.89 350.601 C 296.538 353.946 301.096 356.413 306.468 357.5 C 312.039 358.618 317.976 358.221 326.652 356.475 C 331.272 355.545 335.599 354.155 339.718 351.719 C 343.794 349.315 347.285 346.106 350.013 342.197 C 352.752 338.277 354.518 333.919 355.49 329.288 C 356.494 324.511 356.536 320.195 356.536 315.428 L 356.536 137.934 C 356.557 131.495 353.159 127.523 347.107 128.046 Z " fill-rule="evenodd" fill="rgb(255,255,255)"/></g></svg>