<?xml version="1.0" encoding="UTF-8" standalone="no"?><!-- Generator: Gravit.io --><svg xmlns="http://www.w3.org/2000/svg" xmlns:xlink="http://www.w3.org/1999/xlink" style="isolation:isolate" viewBox="0 0 512 512" width="512pt" height="512pt"><defs><clipPath id="_clipPath_WGz4BcFxZIkF1ClwCgkl5ViY79deJPHy"><rect width="512" height="512"/></clipPath></defs><g clip-path="url(#_clipPath_WGz4BcFxZIkF1ClwCgkl5ViY79deJPHy)"><g><linearGradient id="_lgradient_0" x1="-0.0006074253686844997" y1="0.009138048882522266" x2="0.9901984641244438" y2="0.0014637148028113327" gradientTransform="matrix(511.883,0,0,415.687,0.117,48.157)" gradientUnits="userSpaceOnUse"><stop offset="0.000009999999999999999%" stop-opacity="1" style="stop-color:rgb(255,185,0)"/><stop offset="33.755317%" stop-opacity="1" style="stop-color:rgb(243,128,0)"/><stop offset="56.728964999999995%" stop-opacity="1" style="stop-color:rgb(248,60,114)"/><stop offset="78%" stop-opacity="1" style="stop-color:rgb(252,28,190)"/><stop offset="93%" stop-opacity="1" style="stop-color:rgb(254,8,237)"/><stop offset="100%" stop-opacity="1" style="stop-color:rgb(255,0,255)"/></linearGradient><path d=" M 256.113 463.843 C 252.477 463.868 248.899 462.937 245.736 461.145 C 218.653 445.476 18.073 319.712 10.499 315.872 C 4.734 313.182 0.797 307.671 0.122 301.345 L 0.122 124.943 C -0.027 118.359 3.228 112.162 8.734 108.548 L 10.187 107.718 C 29.591 95.681 94.549 56.043 104.821 50.336 C 107.179 48.937 109.864 48.185 112.604 48.157 C 115.173 48.186 117.699 48.826 119.972 50.024 C 119.972 50.024 210.871 109.275 224.775 114.567 C 234.531 119.049 245.17 121.283 255.905 121.104 C 268.07 121.358 280.09 118.425 290.77 112.595 C 304.364 105.435 391.216 50.336 392.149 50.336 C 394.339 49.013 396.855 48.33 399.413 48.364 C 402.156 48.377 404.844 49.13 407.195 50.543 C 419.025 57.08 499.547 106.369 502.971 108.548 C 508.635 111.965 512.068 118.122 511.999 124.736 L 511.999 301.138 C 511.364 307.479 507.415 313.007 501.623 315.665 C 494.048 319.815 294.091 445.58 266.489 460.938 C 263.347 462.803 259.767 463.805 256.113 463.843 Z " fill="url(#_lgradient_0)"/><linearGradient id="_lgradient_1" x1="-0.43899202032877516" y1="0.8751698746943216" x2="1.4635526582247853" y2="-0.17825259341724908" gradientTransform="matrix(256.925,0,0,347.513,255.075,116.331)" gradientUnits="userSpaceOnUse"><stop offset="0%" stop-opacity="1" style="stop-color:rgb(238,10,63)"/><stop offset="100%" stop-opacity="0" style="stop-color:rgb(238,10,63)"/></linearGradient><path d=" M 255.075 463.843 L 256.113 463.843 C 259.748 463.868 263.326 462.937 266.489 461.145 C 293.572 445.476 494.048 319.712 501.623 315.872 C 507.415 313.215 511.364 307.686 511.999 301.345 L 511.999 124.943 C 512.032 121.957 511.357 119.005 510.027 116.331 L 255.075 256.311 L 255.075 463.843 Z " fill="url(#_lgradient_1)"/><linearGradient id="_lgradient_2" x1="0.24226373950111835" y1="0.6640413496933052" x2="1.1332677820143218" y2="-0.0537118591278265" gradientTransform="matrix(-254.188,0,0,343.81,254.188,117.545)" gradientUnits="userSpaceOnUse"><stop offset="0%" stop-opacity="1" style="stop-color:rgb(237,102,0)"/><stop offset="100%" stop-opacity="1" style="stop-color:rgb(249,130,0)"/></linearGradient><path d=" M 254.188 461.356 L 253.161 461.355 C 249.565 461.38 246.025 460.459 242.896 458.686 C 216.101 443.184 17.761 318.76 10.267 314.961 C 4.536 312.332 0.63 306.862 0.001 300.589 L 0.001 126.066 C -0.032 123.112 0.636 120.191 1.952 117.545 L 254.188 256.034 L 254.188 461.356 Z " fill="url(#_lgradient_2)"/></g></g></svg>