<?xml version="1.0" encoding="UTF-8" standalone="no"?><!-- Generator: Gravit.io --><svg xmlns="http://www.w3.org/2000/svg" xmlns:xlink="http://www.w3.org/1999/xlink" style="isolation:isolate" viewBox="0 0 512 512" width="512pt" height="512pt"><defs><clipPath id="_clipPath_KhHi18ptb4L4tprn6UJTVKDfKFJURVPj"><rect width="512" height="512"/></clipPath></defs><g clip-path="url(#_clipPath_KhHi18ptb4L4tprn6UJTVKDfKFJURVPj)"><path d=" M 425.816 98.589 C 425.461 96.003 423.202 94.569 421.327 94.413 C 419.467 94.257 383.018 93.703 383.018 93.703 C 383.018 93.703 352.534 64.1 349.523 61.089 C 346.512 58.078 340.631 58.987 338.344 59.668 C 338.316 59.683 332.62 61.444 323.032 64.413 C 321.427 59.214 319.068 52.822 315.702 46.401 C 304.85 25.691 288.955 14.739 269.75 14.711 C 269.722 14.711 269.707 14.711 269.679 14.711 C 268.343 14.711 267.023 14.839 265.688 14.952 C 265.12 14.27 264.551 13.603 263.955 12.949 C 255.588 4.001 244.864 -0.36 232.009 0.023 C 207.207 0.733 182.506 18.646 162.477 50.464 C 148.386 72.85 137.661 100.976 134.622 122.751 C 106.141 131.572 86.227 137.737 85.786 137.879 C 71.411 142.396 70.957 142.836 69.082 156.388 C 67.69 166.629 30.076 457.483 30.076 457.483 L 345.29 512 L 481.91 478.036 C 481.91 478.036 426.171 101.175 425.816 98.589 Z  M 307.25 69.299 C 299.992 71.543 291.738 74.1 282.79 76.87 C 282.605 64.313 281.114 46.842 275.261 31.742 C 294.083 35.308 303.344 56.6 307.25 69.299 Z  M 266.298 81.984 C 249.778 87.097 231.753 92.68 213.67 98.277 C 218.755 78.802 228.401 59.413 240.247 46.7 C 244.651 41.969 250.815 36.7 258.116 33.688 C 264.977 48.006 266.469 68.276 266.298 81.984 Z  M 232.505 16.529 C 238.329 16.401 243.23 17.68 247.421 20.435 C 240.716 23.915 234.238 28.915 228.159 35.435 C 212.406 52.339 200.332 78.575 195.517 103.887 C 180.502 108.532 165.815 113.092 152.292 117.268 C 160.829 77.424 194.224 17.637 232.505 16.529 Z " fill="rgb(149,191,71)"/><path d=" M 421.341 94.427 C 419.481 94.271 383.031 93.717 383.031 93.717 C 383.031 93.717 352.549 64.115 349.537 61.103 C 348.415 59.981 346.895 59.399 345.304 59.157 L 345.318 511.986 L 481.924 478.037 C 481.924 478.037 426.185 101.189 425.83 98.604 C 425.475 96.018 423.202 94.583 421.341 94.427 Z " fill="rgb(94,142,62)"/><path d=" M 269.579 164.669 L 253.713 224.03 C 253.713 224.03 236.014 215.976 215.034 217.297 C 184.266 219.244 183.939 238.647 184.253 243.519 C 185.929 270.067 255.772 275.863 259.693 338.051 C 262.775 386.971 233.741 420.437 191.909 423.079 C 141.695 426.247 114.053 396.63 114.053 396.63 L 124.692 351.375 C 124.692 351.375 152.519 372.369 174.792 370.963 C 189.338 370.039 194.536 358.207 194.01 349.84 C 191.823 315.209 134.948 317.255 131.354 260.351 C 128.329 212.468 159.778 163.945 229.167 159.57 C 255.9 157.851 269.579 164.669 269.579 164.669 Z " fill="rgb(255,255,255)"/></g></svg>