<?xml version="1.0" encoding="UTF-8" standalone="no"?><!-- Generator: Gravit.io --><svg xmlns="http://www.w3.org/2000/svg" xmlns:xlink="http://www.w3.org/1999/xlink" style="isolation:isolate" viewBox="0 0 512 512" width="512pt" height="512pt"><defs><clipPath id="_clipPath_XP6voOfFt6D5lyCotEFsU7LTGXcsFdsB"><rect width="512" height="512"/></clipPath></defs><g clip-path="url(#_clipPath_XP6voOfFt6D5lyCotEFsU7LTGXcsFdsB)"><path d="M 477.714 383.995 L 256.005 512 L 34.286 383.995 L 34.286 127.985 L 256.005 0 L 477.714 127.985 L 477.714 383.995 Z" fill-rule="evenodd" fill="rgb(27,27,29)" /><path d=" M 128 255.947 C 127.972 305.024 155.999 349.797 200.15 371.205 L 139.031 203.91 C 131.727 220.31 127.968 238.068 128 256.022 L 128 255.947 Z  M 342.363 249.536 C 342.363 233.731 336.699 222.697 331.854 214.198 C 325.369 203.686 319.183 194.814 319.183 184.228 C 319.183 172.449 328.127 161.489 340.798 161.489 L 342.363 161.564 C 314.698 136.247 277.323 124.339 240.115 128.988 C 202.907 133.636 169.609 154.373 149.019 185.719 L 157.218 185.868 C 170.634 185.868 191.43 184.228 191.43 184.228 C 198.287 183.781 199.107 193.92 192.175 194.74 C 192.175 194.74 185.318 195.56 177.566 196.007 L 224.151 334.674 L 252.25 250.579 L 232.349 195.933 C 227.866 195.639 223.392 195.216 218.933 194.665 C 212.001 194.292 212.821 183.706 219.678 184.153 C 219.678 184.153 240.846 185.793 253.443 185.793 C 266.785 185.793 287.505 184.153 287.505 184.153 C 294.437 183.706 295.257 193.845 288.325 194.665 C 288.325 194.665 281.394 195.485 273.716 195.933 L 319.928 333.482 L 333.121 291.658 C 339.009 273.392 342.438 260.346 342.438 249.461 L 342.363 249.536 Z  M 258.213 267.205 L 219.827 378.809 C 245.609 386.383 273.119 385.653 298.462 376.722 C 298.117 376.176 297.818 375.603 297.568 375.007 L 258.213 267.205 Z  M 368.301 194.591 C 368.867 198.941 369.141 203.325 369.121 207.712 C 369.121 220.758 366.736 235.296 359.432 253.562 L 320.301 366.657 C 380.282 331.795 401.572 255.479 368.301 194.591 Z " fill="rgb(85,0,0)"/></g></svg>