<?xml version="1.0" encoding="UTF-8" standalone="no"?><!-- Generator: Gravit.io --><svg xmlns="http://www.w3.org/2000/svg" xmlns:xlink="http://www.w3.org/1999/xlink" style="isolation:isolate" viewBox="0 0 512 512" width="512pt" height="512pt"><defs><clipPath id="_clipPath_lVGWXaXy6OGqZhj1QuESdc08o3Mfb5hh"><rect width="512" height="512"/></clipPath></defs><g clip-path="url(#_clipPath_lVGWXaXy6OGqZhj1QuESdc08o3Mfb5hh)"><circle vector-effect="non-scaling-stroke" cx="256" cy="256" r="256" fill="rgb(27,27,29)" /><path d=" M 252.349 169.571 C 269.673 152.256 292.026 144.67 315.757 144.67 L 333.31 144.67 L 333.31 128 L 315.667 128 C 287.482 128 261.003 137.314 240.554 157.764 C 219.979 178.339 210.789 204.65 210.789 233.373 L 210.785 276.463 C 210.785 278.036 210.663 280.04 210.412 281.394 C 209.816 284.612 208.491 287.236 206.337 289.385 C 204.407 291.309 202.051 292.418 200.274 293.061 C 198.738 293.617 196.772 294.039 194.667 294.353 C 190.007 295.049 178.69 295.303 178.69 295.303 L 178.69 347.007 L 194.021 347.007 C 213.547 347.007 231.489 341.067 244.908 327.67 C 258.327 314.271 264.218 297.116 264.218 278.627 L 264.223 233.373 C 264.223 219.431 268.648 206.346 278.886 196.137 C 289.181 185.874 302.251 181.433 315.96 181.433 L 318.356 181.433 L 318.355 201.307 C 313.669 201.62 310.395 202.063 306.132 203.41 C 301.634 204.833 297.362 207.19 293.63 210.896 C 287.366 217.117 284.774 225.117 284.774 233.373 L 284.77 278.627 C 284.77 302.801 277.047 325.043 259.651 342.429 C 242.327 359.743 219.973 367.33 196.243 367.33 L 178.69 367.33 L 178.69 384 L 196.333 384 C 224.518 384 250.997 374.685 271.446 354.236 C 292.021 333.66 301.21 307.35 301.21 278.627 L 301.215 235.537 C 301.215 233.963 301.337 231.96 301.588 230.605 C 302.184 227.388 303.509 224.763 305.663 222.615 C 307.593 220.691 309.949 219.582 311.726 218.938 C 313.262 218.382 315.228 217.961 317.334 217.646 C 321.993 216.951 333.31 216.696 333.31 216.696 L 333.31 164.991 L 317.979 164.991 C 298.453 164.991 280.511 170.933 267.092 184.33 C 253.672 197.728 247.782 214.883 247.782 233.373 L 247.777 278.627 C 247.777 292.568 243.352 305.654 233.113 315.863 C 222.819 326.125 209.748 330.567 196.04 330.567 L 193.644 330.567 L 193.645 310.277 C 198.331 309.964 201.9 309.372 205.868 308.174 C 210.384 306.808 214.637 304.81 218.37 301.104 C 224.633 294.882 227.226 286.883 227.226 278.627 L 227.23 233.373 C 227.23 209.198 234.953 186.956 252.349 169.571 Z " fill="rgb(255,255,255)"/></g></svg>