<?xml version="1.0" encoding="UTF-8" standalone="no"?><!-- Generator: Gravit.io --><svg xmlns="http://www.w3.org/2000/svg" xmlns:xlink="http://www.w3.org/1999/xlink" style="isolation:isolate" viewBox="0 0 512 512" width="512pt" height="512pt"><defs><clipPath id="_clipPath_9na8OP45E1AYxBY8Ix6GRXf6MoQjiXtj"><rect width="512" height="512"/></clipPath></defs><g clip-path="url(#_clipPath_9na8OP45E1AYxBY8Ix6GRXf6MoQjiXtj)"><path d="M 477.714 383.995 L 256.005 512 L 34.286 383.995 L 34.286 127.985 L 256.005 0 L 477.714 127.985 L 477.714 383.995 Z" fill-rule="evenodd" fill="rgb(239,191,4)" /><path d=" M 128.054 192.146 C 129.99 175.129 143.995 162.035 161.104 161.246 L 306.704 161.246 C 317.274 162.117 326.895 167.688 332.913 176.42 C 335.591 180.349 337.48 184.76 338.475 189.41 L 381.263 168.193 C 381.813 167.918 382.463 167.926 383.007 168.215 C 383.551 168.505 383.92 169.04 383.999 169.65 C 383.999 177.664 383.999 185.643 383.999 193.71 C 384.034 195.355 383.052 196.853 381.529 197.477 Q 322.483 226.76 263.418 256.114 L 381.263 314.415 C 382.801 314.948 383.877 316.344 383.999 317.968 C 383.999 326 383.999 333.961 383.999 342.063 C 384.004 342.81 383.587 343.496 382.921 343.835 C 382.255 344.173 381.455 344.107 380.854 343.662 C 366.816 336.555 352.583 329.856 338.653 322.606 C 337.716 325.973 336.467 329.245 334.921 332.379 C 330.149 341.161 321.899 347.527 312.194 349.917 C 308.983 350.592 305.7 350.86 302.422 350.717 L 166.719 350.717 C 163.663 350.717 160.589 350.717 157.551 350.486 C 141.791 348.126 129.643 335.371 128.054 319.514 C 128.054 311.749 128.054 303.966 128.054 296.201 C 128.317 294.217 129.701 292.563 131.608 291.955 C 155.809 279.996 179.957 267.931 204.194 256.026 Q 167.572 237.795 130.897 219.67 C 129.199 218.921 128.1 217.244 128.09 215.388 C 128.054 207.658 127.93 199.893 128.054 192.146 Z  M 155.027 192.306 C 153.57 195.238 154.246 198.632 154.121 201.795 C 180.775 214.961 207.233 228.199 233.833 241.277 Q 273.263 221.731 312.728 202.186 C 312.728 199.822 312.834 197.459 312.728 195.078 C 312.087 190.676 308.291 187.426 303.843 187.473 L 163.148 187.473 C 159.724 187.358 156.547 189.245 155.01 192.306 L 155.027 192.306 Z  M 154.121 310.221 C 154.246 313.42 153.553 316.867 155.099 319.834 C 156.682 322.811 159.813 324.635 163.183 324.543 L 303.967 324.543 C 307.144 324.569 310.086 322.877 311.661 320.119 C 313.438 317.009 312.621 313.277 312.799 309.866 C 286.447 296.859 260.131 283.639 233.726 270.774 Q 193.799 290.498 154.103 310.221 L 154.121 310.221 Z " fill="rgb(237,29,36)"/></g></svg>