<?xml version="1.0" encoding="UTF-8" standalone="no"?><!-- Generator: Gravit.io --><svg xmlns="http://www.w3.org/2000/svg" xmlns:xlink="http://www.w3.org/1999/xlink" style="isolation:isolate" viewBox="0 0 512 512" width="512pt" height="512pt"><defs><clipPath id="_clipPath_xJjCpkf9UmeLR9Ndujvr8sppSu7nDGqZ"><rect width="512" height="512"/></clipPath></defs><g clip-path="url(#_clipPath_xJjCpkf9UmeLR9Ndujvr8sppSu7nDGqZ)"><circle vector-effect="non-scaling-stroke" cx="256" cy="256" r="256" fill="rgb(0,0,128)" /><path d=" M 215.158 185.52 C 215.158 188.067 214.946 192.312 212.399 195.071 C 209.639 197.618 205.394 197.831 202.847 197.831 L 175.679 197.831 C 167.826 197.831 163.156 197.831 159.972 198.255 C 158.275 198.467 156.152 199.317 155.091 199.741 C 154.666 199.953 154.666 199.741 154.878 199.528 L 216.856 136.49 C 217.068 136.278 217.28 136.278 217.068 136.702 C 216.643 137.764 215.795 139.886 215.582 141.584 C 215.158 144.768 215.158 149.437 215.158 157.291 L 215.158 185.52 Z  M 272.89 376.121 C 265.673 371.452 261.853 365.297 260.367 361.476 C 258.882 357.868 258.033 353.835 258.033 349.802 C 258.033 332.185 272.466 317.753 290.295 317.753 C 295.601 317.753 299.846 321.997 299.846 327.304 C 299.846 330.912 297.936 333.884 294.964 335.581 C 293.903 336.218 292.417 336.643 291.356 336.855 C 290.295 337.067 286.262 337.492 284.352 339.19 C 282.229 340.888 280.531 343.647 280.531 346.619 C 280.531 349.802 281.805 352.774 283.927 354.896 C 287.748 358.717 292.842 360.839 298.36 360.839 C 312.793 360.839 324.467 349.165 324.467 334.732 C 324.467 321.785 315.765 310.323 304.303 305.229 C 302.606 304.381 299.846 303.744 297.299 303.107 C 294.115 302.471 291.144 302.046 290.932 302.046 C 282.017 300.985 259.73 293.981 258.245 274.241 C 258.245 274.241 251.665 303.956 238.505 312.022 C 237.232 312.659 235.534 313.295 233.624 313.72 C 231.714 314.144 229.591 314.356 228.954 314.356 C 207.517 315.63 184.806 308.838 169.099 292.707 C 169.099 292.707 158.487 284.004 152.968 259.595 C 151.695 253.652 149.148 243.04 147.662 233.064 C 147.025 229.456 146.813 226.696 146.601 224.15 C 146.601 213.749 152.968 206.745 161.034 205.684 L 162.307 205.684 L 204.333 205.684 C 211.762 205.684 216.007 203.774 218.766 201.227 C 222.374 197.831 223.223 192.949 223.223 187.218 C 223.223 187.218 223.223 148.588 223.223 143.707 C 223.223 143.494 223.223 142.645 223.223 142.433 C 224.284 134.58 231.289 128 241.689 128 L 246.783 128 C 248.906 128 251.453 128.212 253.787 128.425 C 255.486 128.637 256.971 129.061 259.518 129.698 C 272.466 132.882 275.225 146.041 275.225 146.041 C 275.225 146.041 299.633 150.286 311.944 152.409 C 323.618 154.531 352.484 156.442 358.003 185.52 C 370.95 254.714 363.097 321.785 362.46 321.785 C 353.333 387.158 298.997 383.975 298.997 383.975 C 287.323 383.975 278.621 380.154 272.89 376.121 Z  M 321.708 237.097 C 314.704 236.46 308.76 239.22 306.638 244.526 C 306.213 245.587 305.789 246.861 306.001 247.497 C 306.213 248.134 306.638 248.347 307.063 248.558 C 309.61 249.832 313.854 250.469 320.01 251.105 C 326.165 251.742 330.41 252.167 333.169 251.742 C 333.594 251.742 334.018 251.53 334.443 250.894 C 334.868 250.257 334.655 248.983 334.655 247.922 C 333.806 241.979 328.712 237.946 321.708 237.097 Z " fill="rgb(255,255,255)"/></g></svg>