<?xml version="1.0" encoding="UTF-8" standalone="no"?><!-- Generator: Gravit.io --><svg xmlns="http://www.w3.org/2000/svg" xmlns:xlink="http://www.w3.org/1999/xlink" style="isolation:isolate" viewBox="0 0 512 512" width="512pt" height="512pt"><defs><clipPath id="_clipPath_B5dbxDEkHhMXnJOfmuyRTWSwUmZP9eTo"><rect width="512" height="512"/></clipPath></defs><g clip-path="url(#_clipPath_B5dbxDEkHhMXnJOfmuyRTWSwUmZP9eTo)"><path d="M 477.714 383.995 L 256.005 512 L 34.286 383.995 L 34.286 127.985 L 256.005 0 L 477.714 127.985 L 477.714 383.995 Z" fill-rule="evenodd" fill="rgb(27,27,29)" /><path d=" M 256 336.742 C 258.687 336.742 261.246 336.102 263.678 334.695 L 291.701 318.572 C 297.331 315.373 303.857 313.965 310.383 314.733 C 344.42 318.7 368.22 325.098 375.258 327.145 C 376.665 327.529 378.329 327.017 379.225 325.866 C 380.376 324.458 381.784 322.155 382.935 318.828 C 383.959 315.629 384.087 312.942 383.959 311.022 C 383.831 309.487 382.807 308.079 381.272 307.695 C 370.267 304.496 321.515 291.317 256 291.317 C 190.485 291.317 141.733 304.496 130.728 307.695 C 129.193 308.079 128.169 309.487 128.041 311.022 C 127.913 312.814 128.041 315.501 129.065 318.828 C 130.088 322.155 131.624 324.458 132.775 325.866 C 133.671 327.017 135.335 327.529 136.742 327.145 C 143.78 325.098 167.708 318.7 201.617 314.733 C 208.143 313.965 214.669 315.373 220.299 318.572 L 248.322 334.695 C 250.754 336.102 253.441 336.742 256 336.742 Z  M 209.295 246.019 C 210.83 248.706 213.262 250.498 216.077 251.266 C 218.892 252.033 221.835 251.649 224.522 250.114 C 227.209 248.578 229.001 246.147 229.768 243.332 C 230.536 240.517 230.152 237.574 228.617 234.887 L 203.409 191.253 C 202.641 189.845 200.978 189.333 199.442 189.461 C 197.395 189.589 194.58 190.613 191.253 192.532 C 187.926 194.452 185.623 196.371 184.471 198.035 C 183.575 199.314 183.319 200.978 184.087 202.385 L 209.295 246.019 Z  M 186.262 277.241 C 188.949 278.777 192.02 279.033 194.708 278.393 C 197.523 277.625 199.954 275.834 201.489 273.147 C 203.025 270.459 203.281 267.388 202.641 264.701 C 202.001 262.014 200.082 259.455 197.395 257.919 L 153.761 232.711 C 152.353 231.944 150.69 232.2 149.41 233.095 C 147.747 234.247 145.827 236.55 143.908 239.877 C 141.988 243.204 140.965 246.019 140.837 248.067 C 140.709 249.73 141.349 251.266 142.628 252.033 L 186.262 277.241 Z  M 267.132 230.536 C 267.132 233.607 265.853 236.422 263.933 238.47 C 261.886 240.517 259.199 241.669 256 241.669 C 252.929 241.669 250.114 240.389 248.067 238.47 C 246.019 236.422 244.868 233.735 244.868 230.536 L 244.868 180.248 C 244.868 178.585 245.891 177.305 247.427 176.665 C 249.218 175.77 252.161 175.258 256 175.258 C 259.839 175.258 262.782 175.77 264.573 176.665 C 265.981 177.433 267.132 178.585 267.132 180.248 L 267.132 230.536 Z  M 302.705 246.019 C 301.17 248.706 298.738 250.498 295.923 251.266 C 293.108 252.033 290.165 251.649 287.478 250.114 C 284.791 248.578 282.999 246.147 282.232 243.332 C 281.464 240.517 281.848 237.574 283.383 234.887 L 308.591 191.253 C 309.359 189.845 311.022 189.333 312.558 189.461 C 314.605 189.589 317.42 190.613 320.747 192.532 C 324.074 194.452 326.377 196.371 327.529 198.035 C 328.425 199.314 328.681 200.978 327.913 202.385 L 302.705 246.019 Z  M 325.738 277.241 C 323.051 278.777 319.98 279.033 317.292 278.393 C 314.477 277.625 312.046 275.834 310.511 273.147 C 308.975 270.459 308.719 267.388 309.359 264.701 C 310.127 261.886 311.918 259.455 314.605 257.919 L 358.239 232.711 C 359.647 231.944 361.31 232.2 362.59 233.095 C 364.253 234.247 366.173 236.55 368.092 239.877 C 370.012 243.204 371.035 246.019 371.163 248.067 C 371.291 249.73 370.651 251.266 369.372 252.033 L 325.738 277.241 Z " fill-rule="evenodd" fill="rgb(237,29,36)"/></g></svg>