<svg height="148.32397" viewBox="0 0 1000 220.33647" width="674.199862" xmlns="http://www.w3.org/2000/svg"><path d="m.258064 21.1935 1.096776-.2258c.96774-.258 1.22581-.3871 1.22581-2.3225v-15.19359c0-1.93548-.29033-2.09677-1.22581-2.32258l-1.096776-.225804v-.903226h17.483836l.3226 6.41935h-1c-.8064-1.77419-1.3226-2.70967-1.8064-3.41935-1.0323-1.48387-1.7097-1.6129-3.9355-1.6129-1.64518 0-2.45163.19355-2.9355.32258v8.2258h.87096c2.25804 0 2.77424-.25806 3.16134-.96774.4516-.80645.7096-1.41935 1-2.45161h.9677v8.32257h-.9677c-.2904-1-.5484-1.6452-1-2.5806-.3871-.8065-.8065-.9678-3.16134-.9678h-.87096v6.1936c0 2.8709.09677 3.1935 3.2258 3.1935 2.5806 0 3.0968-.3226 4.1613-1.9032.5806-.871 1.1935-2.2258 2.0323-4.2581h1.0322l-.4516 7.5807h-18.096777l-.032259-.9033m21.290336-12.09673c-.7419-1.80645-1.0968-2.25806-1.9032-2.51612l-.6129-.19355v-.83871h9.5806v.83871l-.871.2258c-.6774.19355-1 .51613-1 1.29033 0 .45161.1613 1 .4194 1.70967l2.6774 7.3548h.1613l2.5806-7.3548c.2904-.77419.4194-1.32258.4194-1.77419 0-.70968-.3226-1.06452-1-1.22581l-.871-.2258v-.83871h5.9033v.83871l-.6129.19355c-.8388.29032-1.1936.77419-1.9678 2.87096l-4.9355 12.64519h-2.7096zm14.7419 4.64513c0-5.54835 4.0968-8.61287 8.3226-8.61287 4.3871 0 7.129 2.19355 7.2258 7.96777h-10.5484c.0968 5.2258 2.0645 6.6451 5.3549 6.6451 1.9677 0 3.4838-.5806 4.6774-1.1935v1.0645c-1.129 1.2258-3.5484 2.9032-6.742 2.9032-5.5483-.0645-8.2903-3.3548-8.2903-8.7742m5-1.8709 5.4516-.2904c0-3.83866-.5161-5.25802-2.4193-5.25802-1.6129 0-2.9032 1.54839-3.0323 5.54842m18.9355-4.29035c.9032-.96775 2.7419-2.54839 4.871-2.54839 1.3548 0 2.4838 1.09677 2.4838 2.48387s-1.0967 2.48387-2.4838 2.48387c-1 0-1.9032-.6129-2.2581-1.48387-.1935-.35484-.6129-.45161-.9032-.45161-.5807 0-1.2581.41935-1.6774.80645v10.32253c0 1.4839.129 1.6452 1.0967 1.8065l1.0646.2258v.871h-9.1936v-.871l.8387-.2258c1.0645-.2903 1.1936-.4516 1.1936-1.8065v-9.90318c0-1.35484-.1613-1.45161-1.0645-2.06451l-1.0646-.70968v-.64516l6.7097-.7742.3549.25807-.0646 2.19355zm8.3226 13.64515.8387-.2258c1.0645-.2903 1.1935-.4516 1.1935-1.8065v-9.90318c0-1.35484-.1612-1.45161-1.0645-2.06451l-1.0645-.70968v-.64516l6.7097-.7742.3548.22581-.0645 2.03226h.129c1.6775-1.19355 3.7742-2.25807 6.0968-2.25807 2.7097 0 4.1613 1.3871 4.1613 4.25807v9.80646c0 1.3871.129 1.5484 1.1613 1.8064l.8387.2258v.871h-8.871v-.871l.7742-.1935c.9678-.2581 1.0645-.3548 1.0645-1.8387v-8.5484c0-1.93548-.7096-2.54838-2.1935-2.54838-1.129 0-2.2581.25806-2.9677.41935v10.70963c0 1.5162.0967 1.5807 1.0645 1.8388l.7742.1935v.871h-8.871v-.871zm19.9032-7.3871c0-6.09676 4.3226-8.70967 8.6129-8.70967 4.6125 0 8.6455 2.7742 8.6455 8.54837 0 6.0968-4.258 8.7742-8.6455 8.7742-4.6129 0-8.6129-2.7742-8.6129-8.6129m11.9034.1613c0-6.41935-1.226-7.64516-3.4195-7.64516-2 0-3.1936 1.45161-3.1936 6.93546 0 6.5162 1.0645 7.9355 3.3871 7.9355 1.9033 0 3.226-1.129 3.226-7.2258m8.097 4.0645v-10.64515h-2v-.77419c2.483-.96774 4.387-2.80645 5.29-5.35484h1.806v4.25807h4.226l-.419 1.87096h-3.807v10.32255c0 1.5807.484 2.2258 2.065 2.2258.774 0 1.71-.1612 2.29-.2903v.9032c-.774.7097-2.355 1.871-5.032 1.871-2.871 0-4.419-1.2581-4.419-4.3871m10.096-4.3226c0-5.54835 4.097-8.61287 8.323-8.61287 4.387 0 7.129 2.19355 7.226 7.96777h-10.516c.096 5.2258 2.064 6.6451 5.354 6.6451 1.968 0 3.484-.5806 4.678-1.1935v1.0645c-1.129 1.2258-3.548 2.9032-6.742 2.9032-5.581-.0645-8.323-3.3548-8.323-8.7742m5-1.8709 5.452-.2904c0-3.83866-.516-5.25802-2.419-5.25802-1.613 0-2.904 1.54839-3.033 5.54842" transform="matrix(5.6631483 0 0 5.6631483 240.5888 35.44254)"/><path d="m10.5161 8.93548c0 .3871-.0322 1.03226-.4193 1.45162-.41938.3871-1.06454.4194-1.45164.4194h-4.12903c-1.19355 0-1.90323 0-2.3871.0645-.25806.0322-.58064.1613-.74193.2258-.06452.0322-.06452 0-.03226-.0323l9.41936-9.58063c.0323-.03226.0645-.03226.0323.03226-.0646.16129-.1936.48387-.2259.74193-.0645.48388-.0645 1.19355-.0645 2.3871zm8.7742 28.96772c-1.0968-.7096-1.6774-1.6451-1.9032-2.2258-.2258-.5484-.3548-1.1613-.3548-1.7742 0-2.6774 2.1935-4.8709 4.9032-4.8709.8064 0 1.4516.6451 1.4516 1.4516 0 .5484-.2903 1-.7419 1.258-.1613.0968-.3871.1613-.5484.1936-.1613.0322-.7742.0968-1.0645.3548-.3226.2581-.5807.6774-.5807 1.1291 0 .4838.1936.9354.5161 1.258.5807.5807 1.3549.9032 2.1936.9032 2.1935 0 3.9677-1.7742 3.9677-3.9677 0-1.9677-1.3225-3.7097-3.0645-4.4839-.258-.129-.6774-.2258-1.0645-.3225-.4839-.0968-.9355-.1613-.9677-.1613-1.3549-.1613-4.742-1.2258-4.9678-4.2258 0 0-1 4.5161-3 5.7419-.1935.0968-.4516.1935-.7419.2581-.2903.0645-.6129.0967-.7097.0967-3.25806.1936-6.70967-.8387-9.09677-3.2903 0 0-1.6129-1.3226-2.45161-5.0323-.193552-.9032-.580649-2.5161-.806456-4.0322-.096774-.5484-.129032-.9678-.1612898-1.3548 0-1.5807.9677458-2.6452 2.1935458-2.8065h.19355 6.3871c1.12903 0 1.77423-.2903 2.19353-.6774.5484-.5161.6774-1.2581.6774-2.12905 0 0 0-5.87097 0-6.6129 0-.03226 0-.1613 0-.19355.1613-1.19355 1.2258-2.193552 2.8065-2.193552h.7742c.3226 0 .7097.032258 1.0645.064516.2581.032259.4839.096775.871.193549 1.9677.483871 2.3871 2.483867 2.3871 2.483867s3.7096.64517 5.5806.96775c1.7742.32258 6.1613.6129 7 5.03225 1.9678 10.51612.7742 20.70972.6774 20.70972-1.3871 9.9354-9.6451 9.4516-9.6451 9.4516-1.7742 0-3.0968-.5807-3.9678-1.1936m7.4194-21.129c-1.0645-.0968-1.9678.3226-2.2903 1.129-.0646.1613-.1291.3549-.0968.4516.0322.0968.0968.1291.1613.1613.3871.1936 1.0322.2904 1.9677.3871.9355.0968 1.5807.1613 2 .0968.0645 0 .129-.0323.1936-.129.0645-.0968.0322-.2904.0322-.4516-.129-.9033-.9032-1.5162-1.9677-1.6452" fill="#00a82d" transform="matrix(5.6631483 0 0 5.6631483 -.54805 -1.09609)"/></svg>