<?xml version="1.0" encoding="UTF-8" standalone="no"?><!-- Generator: Gravit.io --><svg xmlns="http://www.w3.org/2000/svg" xmlns:xlink="http://www.w3.org/1999/xlink" style="isolation:isolate" viewBox="0 0 512 512" width="512pt" height="512pt"><defs><clipPath id="_clipPath_anr6nMYZV0dKfcbFaAoXybdw2z2Scz22"><rect width="512" height="512"/></clipPath></defs><g clip-path="url(#_clipPath_anr6nMYZV0dKfcbFaAoXybdw2z2Scz22)"><path d=" M 174.315 115.04 C 174.315 120.134 173.891 128.624 168.797 134.143 C 163.278 139.237 154.788 139.662 149.694 139.662 L 95.358 139.662 C 79.652 139.662 70.312 139.662 63.945 140.511 C 60.549 140.934 56.304 142.633 54.181 143.482 C 53.332 143.906 53.332 143.482 53.757 143.057 L 177.712 16.98 C 178.137 16.556 178.56 16.556 178.137 17.405 C 177.287 19.527 175.589 23.772 175.164 27.168 C 174.315 33.536 174.315 42.875 174.315 58.581 L 174.315 115.04 Z  M 289.78 496.243 C 275.346 486.905 267.706 474.594 264.735 466.952 C 261.763 459.735 260.066 451.67 260.066 443.604 C 260.066 408.371 288.931 379.505 324.589 379.505 C 335.201 379.505 343.692 387.995 343.692 398.608 C 343.692 405.825 339.872 411.767 333.929 415.163 C 331.806 416.436 328.835 417.285 326.712 417.71 C 324.589 418.134 316.524 418.984 312.704 422.379 C 308.458 425.776 305.062 431.294 305.062 437.238 C 305.062 443.604 307.61 449.547 311.854 453.792 C 319.495 461.434 329.684 465.678 340.72 465.678 C 369.586 465.678 392.934 442.33 392.934 413.465 C 392.934 387.571 375.53 364.647 352.606 354.459 C 349.211 352.761 343.692 351.487 338.598 350.215 C 332.23 348.941 326.287 348.092 325.863 348.092 C 308.033 345.97 263.461 331.961 260.489 292.483 C 260.489 292.483 247.33 351.912 221.011 368.043 C 218.464 369.317 215.068 370.59 211.247 371.44 C 207.427 372.289 203.182 372.712 201.908 372.712 C 159.033 375.26 113.612 361.676 82.199 329.414 C 82.199 329.414 60.974 312.009 49.936 263.191 C 47.389 251.305 42.295 230.08 39.324 210.129 C 38.05 202.912 37.626 197.393 37.201 192.3 C 37.201 171.499 49.936 157.49 66.067 155.368 L 68.615 155.368 L 152.666 155.368 C 167.524 155.368 176.014 151.548 181.532 146.453 C 188.749 139.662 190.446 129.897 190.446 118.436 C 190.446 118.436 190.446 41.177 190.446 31.413 C 190.446 30.989 190.446 29.291 190.446 28.866 C 192.569 13.16 206.577 0 227.378 0 L 237.567 0 C 241.812 0 246.906 0.425 251.575 0.849 C 254.971 1.274 257.943 2.123 263.037 3.396 C 288.931 9.764 294.45 36.083 294.45 36.083 C 294.45 36.083 343.267 44.573 367.888 48.818 C 391.236 53.063 448.968 56.883 460.005 115.04 C 485.901 253.428 470.193 387.571 468.92 387.571 C 450.666 518.316 341.994 511.95 341.994 511.95 C 318.647 511.95 301.242 504.308 289.78 496.243 Z  M 387.416 218.194 C 373.408 216.92 361.52 222.439 357.277 233.051 C 356.426 235.174 355.578 237.722 356.003 238.994 C 356.426 240.268 357.277 240.693 358.125 241.117 C 363.219 243.664 371.709 244.938 384.019 246.211 C 396.33 247.485 404.821 248.334 410.339 247.485 C 411.187 247.485 412.036 247.06 412.886 245.787 C 413.735 244.513 413.31 241.966 413.31 239.844 C 411.612 227.957 401.424 219.892 387.416 218.194 Z " fill="rgb(0,168,45)"/></g></svg>