<?xml version="1.0" encoding="UTF-8" standalone="no"?><!-- Generator: Gravit.io --><svg xmlns="http://www.w3.org/2000/svg" xmlns:xlink="http://www.w3.org/1999/xlink" style="isolation:isolate" viewBox="0 0 512 512" width="512pt" height="512pt"><defs><clipPath id="_clipPath_eDjZcQ60htAI4GmN5as4ZoX8a3XYFFVy"><rect width="512" height="512"/></clipPath></defs><g clip-path="url(#_clipPath_eDjZcQ60htAI4GmN5as4ZoX8a3XYFFVy)"><rect x="0" y="0" width="512" height="512" transform="matrix(1,0,0,1,0,0)" fill="rgb(27,27,29)"/><path d=" M 251.295 230.882 L 243.219 230.882 C 243.219 230.882 242.255 231.474 242.255 232.956 C 242.255 234.735 243.219 235.105 243.219 235.105 L 250.406 235.105 C 260.779 235.105 267.374 242.07 267.374 255.778 C 267.374 270.523 260.927 276.895 249.443 276.895 L 244.775 276.895 C 244.108 276.895 243.515 276.08 243.515 275.635 C 243.515 272.894 243.515 255.555 243.515 254.148 C 243.515 247.034 238.625 243.107 230.77 243.107 C 225.436 243.107 221.657 245.478 219.508 249.554 C 219.508 248.22 219.508 245.775 219.508 245.108 C 219.508 244.441 219.063 244.071 218.545 244.071 C 217.952 244.071 205.207 244.071 205.207 244.071 C 205.207 244.071 204.318 244.812 204.318 246.219 C 204.318 247.701 205.133 248.294 205.133 248.294 C 205.133 248.294 207.208 248.294 208.171 248.294 C 208.912 248.294 209.801 249.109 209.801 250.072 C 209.801 250.887 209.801 275.635 209.801 275.635 C 209.801 276.228 209.06 276.821 208.542 276.821 L 205.652 276.821 L 204.392 280.526 C 213.062 280.526 223.435 280.526 223.435 280.526 C 223.435 280.526 224.102 279.933 224.102 278.599 C 224.102 277.34 223.435 276.821 223.435 276.821 L 221.138 276.821 C 220.471 276.821 220.027 276.302 220.027 275.709 L 220.027 255.778 C 221.879 250.665 225.51 247.701 228.548 247.701 C 231.363 247.701 233.142 249.85 233.142 253.036 C 233.142 254.666 233.142 272.449 233.142 275.413 C 233.142 276.228 232.549 276.821 232.03 276.821 L 229.289 276.821 C 229.289 276.821 228.548 277.34 228.548 278.599 C 228.548 279.933 229.289 280.526 229.289 280.526 L 251.74 280.526 C 274.042 280.526 279.822 267.114 279.822 255.778 C 279.822 237.773 267.374 230.882 251.295 230.882 M 201.132 276.821 C 198.687 276.599 198.391 275.191 198.391 273.561 L 198.391 253.999 C 198.391 251.184 197.353 247.85 194.982 245.849 C 191.944 243.33 187.573 242.663 183.794 242.663 C 178.83 242.663 174.977 243.256 170.975 244.589 C 170.531 244.812 170.383 245.182 170.383 245.775 C 170.383 247.775 170.383 248.887 170.383 251.184 C 170.383 251.628 170.679 251.925 171.049 251.925 C 171.049 251.925 172.902 251.925 173.124 251.925 C 173.569 251.925 174.013 251.702 174.31 251.258 C 175.495 249.702 176.903 248.442 178.089 247.775 C 179.126 247.257 180.83 246.59 182.534 246.59 C 186.61 246.59 188.314 249.554 188.314 253.036 L 188.314 258.445 C 172.976 257.556 166.678 262.076 166.678 269.263 C 166.678 277.562 172.383 281.044 178.014 281.044 C 183.053 281.044 186.906 279.118 188.981 276.154 C 189.425 278.747 190.981 280.526 192.982 280.526 C 194.019 280.526 197.131 280.526 200.984 280.526 L 202.318 276.821 L 201.132 276.821 L 201.132 276.821 Z  M 188.314 271.412 C 186.758 273.487 184.238 275.191 181.497 275.191 C 178.014 275.191 176.014 273.487 176.014 269.56 C 176.014 264.966 178.163 262.52 188.314 262.52 L 188.314 271.412 M 304.496 276.821 L 300.272 276.821 C 299.605 276.821 299.235 276.45 299.235 275.858 C 299.235 275.858 299.235 246.294 299.235 245.478 C 299.235 244.589 298.938 244.071 297.901 244.071 C 296.864 244.071 284.934 244.071 284.934 244.071 C 284.934 244.071 284.045 244.886 284.045 246.145 C 284.045 247.331 284.934 248.22 284.934 248.22 C 284.934 248.22 288.269 248.22 288.565 248.22 C 288.787 248.22 289.01 248.368 289.01 248.739 C 289.01 249.109 289.01 275.784 289.01 275.784 C 289.01 276.376 288.491 276.821 288.046 276.821 L 283.897 276.821 C 283.897 276.821 283.082 277.34 283.082 278.599 C 283.082 279.785 283.897 280.526 283.897 280.526 L 304.496 280.526 C 304.496 280.526 305.162 279.785 305.162 278.599 C 305.162 277.414 304.496 276.821 304.496 276.821 M 144.746 248.813 C 137.632 246.368 136.225 244.293 136.225 241.403 C 136.225 238.291 139.114 235.105 145.338 235.105 C 147.487 235.105 149.71 235.846 151.859 237.18 C 153.118 237.995 154.526 239.329 156.082 241.996 C 156.23 242.292 156.601 242.441 156.823 242.441 C 157.416 242.441 159.046 242.441 159.046 242.441 C 159.342 242.441 159.491 242.218 159.491 241.848 C 159.491 240.292 159.491 235.994 159.491 233.401 C 159.491 232.956 159.194 232.66 158.75 232.438 C 154.526 231.104 150.377 230.437 144.894 230.437 C 134.743 230.437 128 236.216 128 245.034 C 128 253.703 134.594 257.334 143.116 260.001 C 148.599 261.631 155.045 263.928 155.045 269.263 C 155.045 272.449 152.081 276.154 146.228 276.154 C 141.782 276.154 138.818 274.524 137.114 272.746 C 135.335 270.967 133.705 269.263 132.149 266.003 C 132.001 265.632 131.705 265.262 131.334 265.262 C 130.445 265.262 128.741 265.188 128.741 265.188 C 128.37 265.262 128.074 265.484 128.074 266.003 C 128.074 268.078 128.074 273.561 128.074 275.858 C 128.074 276.228 128.296 276.821 128.667 277.043 C 133.779 279.933 140.374 281.044 145.857 281.044 C 155.638 280.97 163.121 274.524 163.121 264.151 C 163.121 253.036 152.896 251.628 144.746 248.813 M 325.094 257.482 C 317.685 255.704 316.128 254.37 316.128 251.777 C 316.128 249.554 318.055 247.183 321.982 247.183 C 325.835 247.183 329.392 249.48 331.096 252.073 C 331.318 252.443 331.614 252.592 332.059 252.592 C 332.726 252.592 333.541 252.592 333.911 252.592 C 334.282 252.592 334.43 252.369 334.43 252.147 C 334.43 251.925 334.43 247.627 334.43 245.701 C 334.43 245.256 334.208 244.812 333.689 244.663 C 330.873 243.848 326.576 243.256 321.908 243.256 C 315.61 243.256 308.793 246.886 308.793 254.592 C 308.793 261.261 314.128 264.891 318.722 266.077 C 326.576 268.226 328.873 269.337 328.873 272.671 C 328.873 275.561 326.576 277.34 322.649 277.34 C 318.648 277.34 314.943 274.45 312.794 269.189 C 312.424 268.67 312.201 268.522 311.831 268.522 C 310.794 268.448 309.682 268.522 309.386 268.522 C 309.015 268.522 308.719 268.67 308.719 269.189 C 308.719 271.041 308.719 276.302 308.719 276.821 C 308.719 277.414 309.534 278.006 309.534 278.006 C 309.534 278.006 311.757 279.414 314.276 280.303 C 316.425 280.97 319.018 281.563 322.649 281.563 C 331.911 281.563 336.282 275.858 336.282 269.115 C 336.282 263.113 332.874 259.334 325.094 257.482 M 289.825 238.958 L 299.087 238.958 C 299.605 238.958 299.976 238.736 300.124 238.291 L 302.273 231.623 C 302.421 231.104 302.05 230.808 301.532 230.808 L 291.825 230.808 C 291.307 230.808 291.01 231.104 290.936 231.548 L 289.158 237.624 C 288.861 238.365 289.232 238.958 289.825 238.958 M 382.074 276.895 C 379.851 276.895 378.221 276.154 377.257 274.746 C 376.813 274.079 365.254 256.445 364.957 256 C 367.921 251.999 369.403 250.443 371.997 249.109 C 373.701 248.22 376.887 247.553 379.258 247.553 C 379.258 247.553 379.777 247.109 379.777 245.849 C 379.777 244.515 379.258 243.997 379.258 243.997 L 367.625 244.071 C 367.18 244.071 366.662 244.367 366.217 244.96 C 365.995 245.33 356.881 258.371 354.436 261.854 C 354.436 249.183 354.436 232.438 354.436 232.141 C 354.436 231.4 353.991 230.882 353.176 230.882 C 352.287 230.882 338.654 230.808 338.654 230.808 C 338.654 230.808 337.913 231.4 337.913 232.586 C 337.913 233.845 338.654 234.512 338.654 234.512 C 338.654 234.512 342.803 234.512 343.322 234.512 C 343.914 234.512 344.137 234.809 344.137 235.401 C 344.137 235.994 344.137 275.932 344.137 275.932 C 344.137 276.524 343.84 276.821 343.47 276.821 L 339.024 276.821 C 339.024 276.821 338.283 277.414 338.283 278.599 C 338.283 279.785 339.024 280.526 339.024 280.526 L 358.363 280.526 C 358.363 280.526 358.956 279.711 358.956 278.599 C 358.956 277.488 358.363 276.821 358.363 276.821 L 355.251 276.821 C 354.806 276.821 354.436 276.45 354.436 276.006 C 354.436 276.006 354.436 272.079 354.436 266.596 C 355.325 265.632 357.029 263.928 357.177 263.706 C 357.77 263.113 358.437 263.336 358.733 263.854 C 359.178 264.447 366.513 275.784 366.662 276.08 C 367.032 276.599 366.81 276.895 366.439 276.895 L 364.142 276.895 C 364.142 276.895 363.55 277.784 363.55 278.673 C 363.55 279.637 364.068 280.526 364.068 280.526 L 383.407 280.526 C 383.407 280.526 384 279.785 384 278.747 C 384 277.71 383.259 276.895 383.259 276.895 C 383.259 276.895 382.74 276.895 382.074 276.895" fill-rule="evenodd" fill="rgb(237,29,36)"/></g></svg>