<?xml version="1.0" encoding="UTF-8" standalone="no"?><!-- Generator: Gravit.io --><svg xmlns="http://www.w3.org/2000/svg" xmlns:xlink="http://www.w3.org/1999/xlink" style="isolation:isolate" viewBox="0 0 512 512" width="512pt" height="512pt"><defs><clipPath id="_clipPath_qz9svlqOh13Sc3Aq2hJijaMcvJSftRNb"><rect width="512" height="512"/></clipPath></defs><g clip-path="url(#_clipPath_qz9svlqOh13Sc3Aq2hJijaMcvJSftRNb)"><rect width="512" height="512" style="fill:rgb(27,27,29)"/><path d=" M 365.458 128 L 147.298 128 C 136.862 128 128 136.253 128 146.42 L 128 365.568 C 128 375.747 133.815 384 144.25 384 L 362.411 384 C 372.858 384 384 375.747 384 365.568 L 384 146.42 C 384 136.253 375.906 128 365.458 128 Z " fill-rule="evenodd" fill="rgb(27,27,29)"/><path d=" M 365.458 128 L 147.298 128 C 136.862 128 128 136.253 128 146.42 L 128 365.568 C 128 375.747 133.815 384 144.25 384 L 362.411 384 C 372.858 384 384 375.747 384 365.568 L 384 146.42 C 384 136.253 375.906 128 365.458 128 Z  M 225.524 225.524 L 259.986 225.524 L 259.986 243.09 L 260.364 243.09 C 265.618 233.618 281.137 224 300.325 224 C 337.152 224 347.429 243.554 347.429 279.771 L 347.429 347.429 L 310.857 347.429 L 310.857 286.44 C 310.857 270.226 304.384 256 289.243 256 C 270.86 256 262.095 268.446 262.095 288.878 L 262.095 347.429 L 225.524 347.429 L 225.524 225.524 Z  M 164.571 347.429 L 201.143 347.429 L 201.143 225.524 L 164.571 225.524 L 164.571 347.429 Z  M 205.714 182.857 C 205.718 191.022 201.365 198.569 194.295 202.653 C 187.226 206.738 178.514 206.74 171.442 202.659 C 164.37 198.578 160.013 191.034 160.012 182.869 C 160.011 170.251 170.239 160.02 182.857 160.016 C 195.476 160.013 205.709 170.239 205.714 182.857 L 205.714 182.857 Z " fill-rule="evenodd" fill="rgb(102,0,51)"/></g></svg>