<?xml version="1.0" encoding="UTF-8" standalone="no"?><!-- Generator: Gravit.io --><svg xmlns="http://www.w3.org/2000/svg" xmlns:xlink="http://www.w3.org/1999/xlink" style="isolation:isolate" viewBox="0 0 512 512" width="512pt" height="512pt"><defs><clipPath id="_clipPath_ZlYFMt38Ycm4JnNBR6LqTvBH2YDsEbZ2"><rect width="512" height="512"/></clipPath></defs><g clip-path="url(#_clipPath_ZlYFMt38Ycm4JnNBR6LqTvBH2YDsEbZ2)"><rect width="512" height="512" style="fill:rgb(149,6,6)"/><path d=" M 263.845 327.617 C 254.975 310.159 244.57 292.525 224.272 292.525 C 220.392 292.525 216.517 293.168 212.961 294.791 L 206.065 280.991 C 214.468 273.782 228.046 268.066 245.499 268.066 C 272.65 268.066 286.584 281.144 297.646 297.839 C 304.213 283.586 307.335 264.338 307.335 240.48 C 307.335 180.901 288.702 150.309 245.18 150.309 C 202.292 150.309 183.761 180.901 183.761 240.48 C 183.761 299.744 202.292 330.022 245.18 330.022 C 251.997 330.022 258.171 329.272 263.845 327.617 Z  M 274.477 348.409 C 265.075 350.929 255.086 352.321 245.18 352.321 C 188.071 352.321 132.155 306.75 132.155 240.48 C 132.155 173.58 188.071 128 245.18 128 C 303.247 128 358.627 173.252 358.627 240.48 C 358.627 277.874 341.178 308.263 315.817 327.903 C 324.011 340.182 332.447 348.335 344.193 348.335 C 357.013 348.335 362.183 338.429 363.048 330.66 L 379.743 330.66 C 380.718 341.005 375.543 384 328.886 384 C 300.625 384 285.683 367.62 274.477 348.409 Z " fill="rgb(255,255,255)"/></g></svg>