<?xml version="1.0" encoding="UTF-8" standalone="no"?><!-- Generator: Gravit.io --><svg xmlns="http://www.w3.org/2000/svg" xmlns:xlink="http://www.w3.org/1999/xlink" style="isolation:isolate" viewBox="0 0 512 512" width="512pt" height="512pt"><defs><clipPath id="_clipPath_k7y5426xNX2vUsXvWmCztF6Di24ysEj7"><rect width="512" height="512"/></clipPath></defs><g clip-path="url(#_clipPath_k7y5426xNX2vUsXvWmCztF6Di24ysEj7)"><circle vector-effect="non-scaling-stroke" cx="256" cy="256" r="256" fill="rgb(237,29,36)" /><path d=" M 128 345.701 L 128 163.285 C 128 162.044 128.532 161.335 129.773 161.335 C 132.786 161.335 135.623 161.335 139.7 161.158 C 143.955 160.981 148.387 160.981 153.173 160.803 C 157.959 160.626 163.1 160.626 168.596 160.449 C 174.092 160.271 179.41 160.271 184.728 160.271 C 199.265 160.271 211.319 162.044 221.247 165.767 C 230.11 168.781 238.265 173.744 245.002 180.304 C 250.674 185.976 255.106 192.89 257.943 200.513 C 260.602 207.958 262.02 215.581 262.02 223.559 C 262.02 238.804 258.474 251.391 251.383 261.318 C 244.292 271.246 234.365 278.691 222.842 282.946 C 210.787 287.378 197.492 288.973 182.955 288.973 C 178.701 288.973 175.864 288.973 174.092 288.796 C 172.319 288.619 169.837 288.619 166.469 288.619 L 166.469 345.524 C 166.646 346.765 165.76 347.828 164.519 348.006 C 164.341 348.006 164.164 348.006 163.81 348.006 L 130.127 348.006 C 128.709 348.006 128 347.297 128 345.701 Z  M 166.646 195.549 L 166.646 255.114 C 169.128 255.291 171.432 255.468 173.56 255.468 L 182.955 255.468 C 189.869 255.468 196.783 254.405 203.342 252.277 C 209.015 250.682 213.978 247.314 217.878 242.882 C 221.601 238.45 223.374 232.422 223.374 224.622 C 223.551 219.127 222.133 213.631 219.297 208.845 C 216.283 204.236 212.028 200.69 206.887 198.74 C 200.328 196.081 193.237 195.017 185.969 195.195 C 181.36 195.195 177.282 195.195 173.914 195.372 C 170.369 195.195 167.887 195.372 166.646 195.549 L 166.646 195.549 Z  M 372.64 244.3 C 367.321 241.463 361.649 239.513 355.621 238.272 C 349.062 236.854 342.503 235.968 335.766 235.968 C 332.221 235.791 328.498 236.322 325.13 237.209 C 322.825 237.741 320.875 238.982 319.634 240.754 C 318.748 242.173 318.216 243.945 318.216 245.541 C 318.216 247.136 318.925 248.732 319.989 250.15 C 321.584 252.1 323.712 253.695 326.016 254.936 C 330.094 257.064 334.348 259.014 338.603 260.786 C 348.176 263.977 357.394 268.409 365.903 273.728 C 371.753 277.45 376.54 282.414 379.908 288.441 C 382.744 294.114 384.162 300.319 383.985 306.701 C 384.162 315.033 381.681 323.365 377.071 330.278 C 372.108 337.369 365.194 342.865 357.217 346.056 C 348.53 349.779 337.894 351.729 325.13 351.729 C 316.975 351.729 308.998 351.019 301.02 349.424 C 294.816 348.36 288.611 346.41 282.938 343.751 C 281.697 343.042 280.811 341.801 280.988 340.383 L 280.988 309.537 C 280.988 309.005 281.166 308.296 281.697 307.942 C 282.229 307.587 282.761 307.764 283.293 308.119 C 290.207 312.196 297.475 315.033 305.275 316.805 C 312.012 318.578 319.103 319.464 326.194 319.464 C 332.93 319.464 337.716 318.578 340.907 316.983 C 343.744 315.742 345.694 312.728 345.694 309.537 C 345.694 307.055 344.276 304.751 341.439 302.446 C 338.603 300.141 332.753 297.482 324.066 294.114 C 315.025 290.923 306.693 286.669 298.893 281.35 C 293.398 277.45 288.788 272.309 285.42 266.282 C 282.584 260.609 281.166 254.405 281.343 248.2 C 281.343 240.577 283.47 233.309 287.37 226.75 C 291.802 219.659 298.361 213.986 305.984 210.44 C 314.316 206.186 324.775 204.236 337.362 204.236 C 344.63 204.236 352.076 204.768 359.344 205.831 C 364.662 206.54 369.803 207.958 374.59 209.908 C 375.299 210.086 376.008 210.795 376.362 211.504 C 376.54 212.213 376.717 212.922 376.717 213.631 L 376.717 242.527 C 376.717 243.236 376.362 243.945 375.831 244.3 C 374.235 244.654 373.349 244.654 372.64 244.3 Z " fill-rule="evenodd" fill="rgb(239,191,4)"/></g></svg>