<?xml version="1.0" encoding="UTF-8" standalone="no"?>
<!-- Generator: Gravit.io --><svg xmlns="http://www.w3.org/2000/svg" xmlns:xlink="http://www.w3.org/1999/xlink"
  style="isolation:isolate" viewBox="0 0 512 512" width="512pt" height="512pt">
  <defs>
    <clipPath id="_clipPath_qWwUiyy0IoBpzVNWN8F5kGNMRG6CW1ov">
      <rect width="512" height="512" />
    </clipPath>
  </defs>
  <g clip-path="url(#_clipPath_qWwUiyy0IoBpzVNWN8F5kGNMRG6CW1ov)">
    <circle vector-effect="non-scaling-stroke" cx="256" cy="256" r="256" fill="rgb(17,17,132)" />
    <path
      d=" M 256.012 128 C 221.249 128 216.886 128.152 203.233 128.773 C 189.606 129.397 180.305 131.555 172.166 134.72 C 163.747 137.989 156.606 142.363 149.491 149.48 C 142.371 156.595 137.997 163.736 134.717 172.152 C 131.544 180.293 129.384 189.597 128.771 203.219 C 128.16 216.872 128 221.237 128 256 C 128 290.763 128.155 295.112 128.773 308.765 C 129.4 322.392 131.557 331.693 134.72 339.832 C 137.992 348.251 142.365 355.392 149.483 362.507 C 156.595 369.627 163.736 374.011 172.15 377.28 C 180.294 380.445 189.598 382.603 203.222 383.227 C 216.876 383.848 221.236 384 255.996 384 C 290.762 384 295.111 383.848 308.765 383.227 C 322.391 382.603 331.704 380.445 339.848 377.28 C 348.264 374.011 355.394 369.627 362.506 362.507 C 369.626 355.392 374 348.251 377.28 339.835 C 380.427 331.693 382.587 322.389 383.227 308.768 C 383.84 295.115 384 290.763 384 256 C 384 221.237 383.84 216.875 383.227 203.221 C 382.587 189.595 380.427 180.293 377.28 172.155 C 374 163.736 369.626 156.595 362.506 149.48 C 355.386 142.36 348.266 137.987 339.84 134.72 C 331.679 131.555 322.373 129.397 308.746 128.773 C 295.092 128.152 290.746 128 255.972 128 L 256.012 128 Z  M 244.529 151.067 C 247.937 151.061 251.74 151.067 256.012 151.067 C 290.188 151.067 294.239 151.189 307.735 151.803 C 320.215 152.373 326.989 154.459 331.501 156.211 C 337.474 158.531 341.733 161.304 346.21 165.784 C 350.69 170.264 353.464 174.531 355.789 180.504 C 357.541 185.011 359.629 191.784 360.197 204.264 C 360.81 217.757 360.944 221.811 360.944 255.971 C 360.944 290.131 360.81 294.184 360.197 307.677 C 359.626 320.157 357.541 326.931 355.789 331.437 C 353.469 337.411 350.69 341.664 346.21 346.141 C 341.73 350.621 337.477 353.395 331.501 355.715 C 326.994 357.475 320.215 359.555 307.735 360.125 C 294.242 360.739 290.188 360.872 256.012 360.872 C 221.833 360.872 217.782 360.739 204.289 360.125 C 191.809 359.549 185.035 357.464 180.521 355.712 C 174.547 353.392 170.28 350.619 165.8 346.139 C 161.32 341.659 158.547 337.403 156.222 331.427 C 154.47 326.92 152.382 320.147 151.814 307.667 C 151.2 294.173 151.078 290.12 151.078 255.939 C 151.078 221.757 151.2 217.725 151.814 204.232 C 152.384 191.752 154.47 184.979 156.222 180.467 C 158.542 174.493 161.32 170.227 165.8 165.747 C 170.28 161.267 174.547 158.493 180.521 156.168 C 185.033 154.408 191.809 152.328 204.289 151.755 C 216.097 151.221 220.673 151.061 244.529 151.035 L 244.529 151.067 Z  M 324.338 172.32 C 315.858 172.32 308.978 179.192 308.978 187.675 C 308.978 196.155 315.858 203.035 324.338 203.035 C 332.818 203.035 339.698 196.155 339.698 187.675 C 339.698 179.195 332.818 172.315 324.338 172.315 L 324.338 172.32 Z  M 256.012 190.267 C 219.71 190.267 190.278 219.699 190.278 256 C 190.278 292.301 219.71 321.72 256.012 321.72 C 292.314 321.72 321.735 292.301 321.735 256 C 321.735 219.699 292.311 190.267 256.009 190.267 L 256.012 190.267 Z  M 256.012 213.333 C 279.575 213.333 298.679 232.435 298.679 256 C 298.679 279.563 279.575 298.667 256.012 298.667 C 232.446 298.667 213.345 279.563 213.345 256 C 213.345 232.435 232.446 213.333 256.012 213.333 Z "
      fill="rgb(255,255,255)" />
  </g>
</svg>
