<?xml version="1.0" encoding="UTF-8" standalone="no"?><!-- Generator: Gravit.io --><svg xmlns="http://www.w3.org/2000/svg" xmlns:xlink="http://www.w3.org/1999/xlink" style="isolation:isolate" viewBox="0 0 512 512" width="512pt" height="512pt"><defs><clipPath id="_clipPath_5uFL83N1uBnwPXwfr6aYpQRfePl7RxQb"><rect width="512" height="512"/></clipPath></defs><g clip-path="url(#_clipPath_5uFL83N1uBnwPXwfr6aYpQRfePl7RxQb)"><path d="M 477.714 383.995 L 256.005 512 L 34.286 383.995 L 34.286 127.985 L 256.005 0 L 477.714 127.985 L 477.714 383.995 Z" fill-rule="evenodd" fill="rgb(27,27,29)" /><mask id="_mask_Fo8ATXex5xa24VzUE9EFHoKVS2HbORzU"><path d=" M 128 248.905 L 146.205 325.585 L 199.171 262.139 L 128 248.905 Z  M 128 248.905 L 199.171 262.139 L 246.836 151.662 L 128 248.905 Z  M 246.836 151.672 L 294.889 203.398 L 199.181 262.149 L 246.836 151.672 Z  M 199.076 262.139 L 283.899 311.518 L 294.785 203.389 L 199.076 262.139 Z  M 283.993 311.527 L 383.99 278.706 L 294.88 203.408 L 283.993 311.527 Z  M 384 278.697 L 338.749 360.338 L 283.984 311.518 L 384 278.697 Z  M 283.993 311.527 L 146.205 325.595 L 199.162 262.149 L 283.993 311.527 Z  M 294.88 203.398 L 314.476 152.903 L 384 278.697 L 294.88 203.398 Z " fill-rule="evenodd" fill="white" stroke="none"/></mask><path d=" M 128 248.905 L 146.205 325.585 L 199.171 262.139 L 128 248.905 Z  M 128 248.905 L 199.171 262.139 L 246.836 151.662 L 128 248.905 Z  M 246.836 151.672 L 294.889 203.398 L 199.181 262.149 L 246.836 151.672 Z  M 199.076 262.139 L 283.899 311.518 L 294.785 203.389 L 199.076 262.139 Z  M 283.993 311.527 L 383.99 278.706 L 294.88 203.408 L 283.993 311.527 Z  M 384 278.697 L 338.749 360.338 L 283.984 311.518 L 384 278.697 Z  M 283.993 311.527 L 146.205 325.595 L 199.162 262.149 L 283.993 311.527 Z  M 294.88 203.398 L 314.476 152.903 L 384 278.697 L 294.88 203.398 Z " fill-rule="evenodd" fill="rgb(239,191,4)"/><path d=" M 128 248.905 L 146.205 325.585 L 199.171 262.139 L 128 248.905 Z  M 128 248.905 L 199.171 262.139 L 246.836 151.662 L 128 248.905 Z  M 246.836 151.672 L 294.889 203.398 L 199.181 262.149 L 246.836 151.672 Z  M 199.076 262.139 L 283.899 311.518 L 294.785 203.389 L 199.076 262.139 Z  M 283.993 311.527 L 383.99 278.706 L 294.88 203.408 L 283.993 311.527 Z  M 384 278.697 L 338.749 360.338 L 283.984 311.518 L 384 278.697 Z  M 283.993 311.527 L 146.205 325.595 L 199.162 262.149 L 283.993 311.527 Z  M 294.88 203.398 L 314.476 152.903 L 384 278.697 L 294.88 203.398 Z " fill-rule="evenodd" fill="rgb(239,191,4)" mask="url(#_mask_Fo8ATXex5xa24VzUE9EFHoKVS2HbORzU)" vector-effect="non-scaling-stroke" stroke-width="2" stroke="rgb(27,27,29)" stroke-linejoin="miter" stroke-linecap="square" stroke-miterlimit="3"/></g></svg>