<?xml version="1.0" encoding="UTF-8" standalone="no"?><!-- Generator: Gravit.io --><svg xmlns="http://www.w3.org/2000/svg" xmlns:xlink="http://www.w3.org/1999/xlink" style="isolation:isolate" viewBox="0 0 512 512" width="512pt" height="512pt"><defs><clipPath id="_clipPath_hcuL89ntXBdw8WVCEss1sruZKNIUCT77"><rect width="512" height="512"/></clipPath></defs><g clip-path="url(#_clipPath_hcuL89ntXBdw8WVCEss1sruZKNIUCT77)"><circle vector-effect="non-scaling-stroke" cx="256" cy="256" r="256" fill="rgb(239,191,4)" /><path d=" M 383.639 212.671 C 311.425 232.53 265.568 246.973 232.711 282.358 C 248.598 288.858 265.207 294.996 279.65 299.329 C 296.621 265.749 327.312 238.669 384 214.116 L 383.639 212.671 L 383.639 212.671 Z  M 290.482 221.337 C 281.817 220.615 272.429 218.81 264.846 216.643 C 248.959 215.921 165.19 213.755 128 229.642 C 138.11 235.78 148.581 241.918 161.58 248.779 C 198.77 231.447 246.432 225.309 290.482 222.781 L 290.482 221.337 Z  M 344.282 220.976 C 332.728 222.42 314.313 223.142 303.12 223.142 C 269.901 226.753 211.408 236.141 178.189 256.722 C 190.465 262.86 202.742 268.999 215.74 274.415 C 250.403 244.446 296.982 231.086 344.282 222.059 C 344.282 222.059 344.282 220.976 344.282 220.976 Z " fill-rule="evenodd" fill="rgb(237,29,36)"/></g></svg>