<?xml version="1.0" encoding="UTF-8" standalone="no"?><!-- Generator: Gravit.io --><svg xmlns="http://www.w3.org/2000/svg" xmlns:xlink="http://www.w3.org/1999/xlink" style="isolation:isolate" viewBox="0 0 512 512" width="512pt" height="512pt"><defs><clipPath id="_clipPath_VxA4Fq1N2GBBdhVBrLmj53d9Z2gUHjfP"><rect width="512" height="512"/></clipPath></defs><g clip-path="url(#_clipPath_VxA4Fq1N2GBBdhVBrLmj53d9Z2gUHjfP)"><rect width="512" height="512" style="fill:rgb(149,6,6)"/><path d=" M 299.889 172.748 L 212.137 172.748 C 206.618 172.748 201.325 170.554 197.425 166.649 C 193.525 162.744 191.338 157.449 191.345 151.93 C 191.345 140.436 200.643 131.112 212.137 131.112 L 299.863 131.112 C 311.344 131.112 320.655 140.436 320.655 151.93 C 320.655 163.424 311.357 172.748 299.863 172.748 L 299.889 172.748 Z  M 363.44 242.136 L 148.572 242.136 C 137.208 242.136 128 232.812 128 221.319 C 128 209.825 137.208 200.501 148.572 200.501 L 363.428 200.501 C 374.792 200.501 384 209.825 384 221.319 C 384 232.812 374.792 242.136 363.428 242.136 L 363.44 242.136 Z  M 345.296 311.499 L 166.743 311.499 C 161.259 311.465 156.014 309.254 152.161 305.352 C 148.307 301.45 146.162 296.178 146.196 290.694 C 146.196 279.201 155.391 269.876 166.73 269.876 L 345.309 269.876 C 356.648 269.876 365.842 279.201 365.842 290.694 C 365.842 302.188 356.648 311.512 345.309 311.512 L 345.296 311.512 L 345.296 311.499 Z  M 290.113 380.888 L 221.926 380.888 C 216.407 380.888 211.114 378.694 207.214 374.789 C 203.314 370.884 201.127 365.589 201.134 360.07 C 201.134 348.576 210.432 339.252 221.926 339.252 L 290.113 339.252 C 301.581 339.252 310.892 348.576 310.892 360.07 C 310.892 371.564 301.594 380.888 290.1 380.888 L 290.113 380.888 Z " fill="rgb(255,255,255)"/></g></svg>