<?xml version="1.0" encoding="UTF-8" standalone="no"?><!-- Generator: Gravit.io --><svg xmlns="http://www.w3.org/2000/svg" xmlns:xlink="http://www.w3.org/1999/xlink" style="isolation:isolate" viewBox="0 0 512 512" width="512pt" height="512pt"><defs><clipPath id="_clipPath_StUsC8PHrKujGxXRzu9z6rb4auMyc4kq"><rect width="512" height="512"/></clipPath></defs><g clip-path="url(#_clipPath_StUsC8PHrKujGxXRzu9z6rb4auMyc4kq)"><rect x="0" y="0" width="512" height="512" transform="matrix(1,0,0,1,0,0)" fill="rgb(27,27,29)"/><path d=" M 310.89 303.484 L 237.757 303.484 L 274.301 366.848 L 347.441 366.848 L 347.456 366.848 L 347.456 366.848 L 310.89 303.484 Z  M 347.434 240.187 L 384 303.514 L 347.456 366.848 L 310.89 303.484 L 347.434 240.187 Z  M 292.566 145.159 L 292.574 145.152 L 219.441 145.152 L 182.897 208.457 L 256.022 208.457 L 256.022 208.457 L 292.566 145.159 Z  M 256.022 208.457 L 292.588 271.806 L 329.132 208.486 L 292.566 145.152 L 256.022 208.457 Z  M 201.154 303.477 L 201.154 303.477 L 237.699 240.179 L 164.566 240.179 L 128.022 303.477 L 128.022 303.477 L 128 303.506 L 201.154 303.477 Z  M 237.713 366.848 L 237.691 366.848 L 164.566 366.848 L 128 303.506 L 128.022 303.477 L 201.154 303.477 L 237.713 366.848 Z  M 310.831 240.179 L 292.581 271.799 L 256.015 271.799 L 256.015 271.799 L 237.757 303.484 L 310.89 303.484 L 347.434 240.179 L 310.831 240.179 Z  M 201.25 240.179 L 237.691 240.179 L 256.015 271.799 L 256.015 271.799 L 292.581 271.799 L 256.022 208.45 L 182.897 208.45 L 201.25 240.179 Z  M 255.985 335.089 L 237.757 303.484 L 256.015 271.799 L 256.015 271.799 L 237.691 240.179 L 201.154 303.477 L 237.713 366.848 L 255.985 335.089 Z " fill-rule="evenodd" fill="rgb(0,0,128)"/></g></svg>