<?xml version="1.0" encoding="UTF-8" standalone="no"?><!-- Generator: Gravit.io --><svg xmlns="http://www.w3.org/2000/svg" xmlns:xlink="http://www.w3.org/1999/xlink" style="isolation:isolate" viewBox="0 0 512 512" width="512pt" height="512pt"><defs><clipPath id="_clipPath_iBSG2wBiGx3spW5dH27gFIkfHraYBmik"><rect width="512" height="512"/></clipPath></defs><g clip-path="url(#_clipPath_iBSG2wBiGx3spW5dH27gFIkfHraYBmik)"><circle vector-effect="non-scaling-stroke" cx="256" cy="256" r="256" fill="rgb(17,17,132)" /><path d=" M 216.27 293.153 C 211.235 289.751 207.748 284.783 205.844 278.214 L 217.533 273.398 C 218.595 277.44 220.447 280.572 223.091 282.796 C 225.719 285.019 228.919 286.113 232.658 286.113 C 236.481 286.113 239.766 284.951 242.51 282.627 C 245.254 280.302 246.637 277.338 246.637 273.751 C 246.637 270.08 245.188 267.081 242.291 264.758 C 239.395 262.435 235.757 261.271 231.411 261.271 L 224.658 261.271 L 224.658 249.701 L 230.72 249.701 C 234.459 249.701 237.609 248.691 240.169 246.67 C 242.729 244.649 244.009 241.887 244.009 238.367 C 244.009 235.235 242.863 232.741 240.573 230.872 C 238.284 229.004 235.386 228.06 231.866 228.06 C 228.43 228.06 225.701 228.97 223.68 230.806 C 221.659 232.641 220.193 234.898 219.268 237.559 L 207.698 232.742 C 209.23 228.397 212.044 224.557 216.169 221.239 C 220.296 217.921 225.567 216.253 231.967 216.253 C 236.699 216.253 240.96 217.164 244.733 218.999 C 248.506 220.835 251.47 223.378 253.609 226.611 C 255.748 229.861 256.809 233.5 256.809 237.541 C 256.809 241.668 255.816 245.153 253.828 248.017 C 251.84 250.88 249.398 253.069 246.501 254.602 L 246.501 255.292 C 250.324 256.892 253.44 259.334 255.899 262.619 C 258.341 265.903 259.57 269.828 259.57 274.409 C 259.57 278.99 258.408 283.082 256.083 286.67 C 253.759 290.258 250.542 293.087 246.467 295.141 C 242.374 297.196 237.777 298.24 232.673 298.24 C 226.762 298.257 221.306 296.556 216.27 293.153 Z  M 288 235.15 L 275.233 244.43 L 268.817 234.696 L 291.84 218.089 L 300.666 218.089 L 300.666 296.421 L 288 296.421 L 288 235.15 Z  M 188.631 353.684 L 188.631 384 L 323.368 384 L 323.368 323.369 L 188.631 323.369 L 188.631 353.684 Z  M 323.369 384 L 384 323.369 L 353.684 323.368 L 323.369 323.369 L 323.368 353.684 L 323.369 384 Z  M 148.21 128 C 137.044 128 128 137.044 128 148.21 L 128 323.368 L 158.316 323.369 L 188.631 323.368 L 188.631 188.631 L 323.368 188.631 L 323.369 158.316 L 323.369 128 L 148.21 128 Z  M 128 323.369 L 128 363.79 C 128 374.957 137.044 384 148.21 384 L 188.631 384 L 188.631 323.369 L 128 323.369 Z  M 323.369 188.631 L 323.369 323.368 L 384 323.368 L 384 188.631 L 353.684 188.631 L 323.369 188.631 Z  M 384 188.631 L 384 148.21 C 384 137.043 374.956 128 363.79 128 L 323.369 128 L 323.369 188.631 L 384 188.631 Z " fill-rule="evenodd" fill="rgb(255,255,255)"/></g></svg>