<?xml version="1.0" encoding="UTF-8" standalone="no"?><!-- Generator: Gravit.io --><svg xmlns="http://www.w3.org/2000/svg" xmlns:xlink="http://www.w3.org/1999/xlink" style="isolation:isolate" viewBox="0 0 512 512" width="512pt" height="512pt"><defs><clipPath id="_clipPath_K2cId202pGNZN6iAQbuayk12KXzr8dHo"><rect width="512" height="512"/></clipPath></defs><g clip-path="url(#_clipPath_K2cId202pGNZN6iAQbuayk12KXzr8dHo)"><circle vector-effect="non-scaling-stroke" cx="256" cy="256" r="256" fill="rgb(237,29,36)" /><g><path d=" M 147.354 337.668 L 158.644 357.168 C 160.99 361.274 164.362 364.499 168.321 366.845 L 208.641 297.054 L 128 297.054 C 128 301.599 129.173 306.144 131.519 310.25 L 147.354 337.668 Z " fill="rgb(255,255,255)"/><path d=" M 256 214.946 L 215.679 145.155 C 211.72 147.501 208.348 150.726 206.002 154.832 L 131.519 283.858 C 129.216 287.875 128.003 292.424 128 297.054 L 208.641 297.054 L 256 214.946 Z " fill="rgb(255,255,255)"/><path d=" M 343.679 366.845 C 347.638 364.499 351.01 361.274 353.356 357.168 L 358.048 349.104 L 380.481 310.25 C 382.827 306.144 384 301.599 384 297.054 L 303.353 297.054 L 320.513 330.777 L 343.679 366.845 Z " fill="rgb(255,255,255)"/><path d=" M 256 214.946 L 296.321 145.155 C 292.362 142.809 287.817 141.636 283.125 141.636 L 228.875 141.636 C 224.183 141.636 219.638 142.955 215.679 145.155 L 256 214.946 Z " fill="rgb(255,255,255)"/><path d=" M 303.359 297.054 L 208.641 297.054 L 168.321 366.845 C 172.279 369.191 176.825 370.364 181.517 370.364 L 330.483 370.364 C 335.175 370.364 339.72 369.045 343.679 366.845 L 303.359 297.054 Z " fill="rgb(255,255,255)"/><path d=" M 343.239 219.345 L 305.998 154.832 C 303.652 150.726 300.279 147.501 296.321 145.155 L 256 214.946 L 303.359 297.054 L 383.853 297.054 C 383.853 292.509 382.68 287.963 380.334 283.858 L 343.239 219.345 Z " fill="rgb(255,255,255)"/></g></g></svg>