<?xml version="1.0" encoding="UTF-8" standalone="no"?>
<!-- Generator: Gravit.io --><svg xmlns="http://www.w3.org/2000/svg" xmlns:xlink="http://www.w3.org/1999/xlink"
  style="isolation:isolate" viewBox="0 0 512 512" width="512pt" height="512pt">
  <defs>
    <clipPath id="_clipPath_lF6aa9DjgnLWKapud3PrPxVXSkSwpUPO">
      <rect width="512" height="512" />
    </clipPath>
  </defs>
  <g clip-path="url(#_clipPath_lF6aa9DjgnLWKapud3PrPxVXSkSwpUPO)">
    <circle vector-effect="non-scaling-stroke" cx="256" cy="256" r="256" fill="rgb(27,27,29)" />
    <path
      d=" M 203.931 246.237 C 202.384 244.213 199.892 243.144 197.36 243.42 C 194.827 243.695 192.623 245.273 191.547 247.583 L 128.792 373.053 C 127.629 375.378 127.754 378.139 129.12 380.35 C 130.487 382.561 132.901 383.907 135.5 383.908 L 222.883 383.908 C 225.742 383.974 228.372 382.348 229.591 379.761 C 248.441 340.811 237.017 281.586 203.931 246.237 Z  M 249.959 132.116 C 218.147 181.063 214.476 243.149 240.297 295.505 L 282.425 379.761 C 283.695 382.302 286.292 383.907 289.133 383.908 L 376.5 383.908 C 379.099 383.907 381.513 382.561 382.88 380.35 C 384.246 378.139 384.371 375.378 383.208 373.053 C 383.208 373.053 265.67 137.949 262.716 132.068 C 261.524 129.626 259.04 128.08 256.323 128.09 C 253.605 128.1 251.132 129.664 249.959 132.116 Z "
      fill-rule="evenodd" fill="rgb(239,191,4)" />
  </g>
</svg>