<?xml version="1.0" encoding="UTF-8" standalone="no"?><!-- Generator: Gravit.io --><svg xmlns="http://www.w3.org/2000/svg" xmlns:xlink="http://www.w3.org/1999/xlink" style="isolation:isolate" viewBox="0 0 512 512" width="512pt" height="512pt"><defs><clipPath id="_clipPath_0qPhQkMksjPOoFWZPabxi7eusrGAbDze"><rect width="512" height="512"/></clipPath></defs><g clip-path="url(#_clipPath_0qPhQkMksjPOoFWZPabxi7eusrGAbDze)"><rect x="0" y="0" width="512" height="512" transform="matrix(1,0,0,1,0,0)" fill="rgb(27,27,29)"/><path d=" M 211.222 274.738 L 200.982 292.423 L 144.301 289.235 L 149.976 279.384 L 211.222 274.738 Z  M 252.197 218.388 L 257.332 237.905 L 176.906 232.62 L 182.577 222.772 L 252.197 218.388 Z  M 198.878 194.465 L 245.955 194.5 L 249.509 207.845 L 193.214 204.312 L 198.878 194.465 Z  M 194.74 303.421 L 186.566 317.476 L 128 317.538 L 133.671 307.695 L 194.74 303.421 Z  M 297.563 265.503 L 283.387 290.076 L 296.888 290.076 C 303.144 290.076 314.354 286.954 317.803 278.045 C 320.999 269.766 315.126 265.493 311.026 265.493 L 297.563 265.503 Z  M 311.082 241.998 L 322.859 241.925 C 330.697 241.883 338.871 238.298 341.862 231.024 C 344.619 224.275 340.912 218.527 335.999 218.548 L 324.608 218.534 L 311.082 241.998 Z  M 257.774 237.905 L 269.666 217.275 L 309.914 214.692 L 311.319 212.188 L 274.089 209.584 L 282.796 194.465 L 351.838 194.462 C 373.069 194.462 388.775 202.052 382.67 224.375 C 380.834 231.138 372.203 248.163 346.893 255.294 C 352.265 255.934 365.645 261.862 363.34 277.231 C 359.244 304.485 323.958 317.459 304.329 317.465 L 222.818 317.504 L 218.802 301.735 L 261.495 298.724 L 262.944 296.227 L 216.639 293.407 L 211.65 274.714 L 277.538 270.868 L 278.971 268.393 L 160.598 260.924 L 166.269 251.08 L 293.686 242.808 L 295.129 240.329 L 257.774 237.905 Z " fill-rule="evenodd" fill="rgb(0,103,79)"/></g></svg>