<?xml version="1.0" encoding="UTF-8" standalone="no"?><!-- Generator: Gravit.io --><svg xmlns="http://www.w3.org/2000/svg" xmlns:xlink="http://www.w3.org/1999/xlink" style="isolation:isolate" viewBox="0 0 512 512" width="512pt" height="512pt"><defs><clipPath id="_clipPath_Bdz3C1oatp3K2p2GJSpZ8st1iVHhSl2S"><rect width="512" height="512"/></clipPath></defs><g clip-path="url(#_clipPath_Bdz3C1oatp3K2p2GJSpZ8st1iVHhSl2S)"><circle vector-effect="non-scaling-stroke" cx="256" cy="256" r="256" fill="rgb(27,27,29)" /><path d=" M 207.738 276.37 C 201.229 276.37 195.936 271.145 195.936 264.723 C 195.936 258.299 201.229 253.074 207.738 253.074 C 214.246 253.074 219.54 258.299 219.54 264.723 C 219.54 271.145 214.246 276.37 207.738 276.37 Z  M 209.716 241.854 C 205.064 241.854 200.758 243.482 197.594 246.437 L 196.504 247.453 L 196.504 224.438 L 184.11 224.438 L 184.11 263.77 C 184.11 278.444 192.998 287.562 207.307 287.562 C 221.298 287.562 231.452 277.968 231.452 264.751 C 231.452 251.483 222.31 241.854 209.716 241.854 Z  M 140.287 224.438 L 128 224.438 L 128 285.808 L 140.287 285.808 L 140.287 258.116 L 164.807 285.808 L 180.603 285.808 L 153.474 255.123 L 179.868 224.438 L 164.319 224.438 L 140.287 252.376 L 140.287 224.438 Z  M 354.318 261.603 L 354.318 224.438 L 341.918 224.438 L 341.918 285.808 L 354.318 285.808 L 354.318 267.411 L 370.187 285.808 L 384 285.808 L 365.626 264.507 L 384 243.205 L 370.187 243.205 L 354.318 261.603 Z  M 318.665 241.972 C 311.229 241.972 306.641 245.471 304.449 247.922 L 304.449 243.423 L 292.822 243.423 L 292.822 285.808 L 304.868 285.808 L 304.867 262.725 C 304.867 256.956 308.864 252.925 313.863 252.925 C 318.863 252.925 322.859 256.956 322.859 262.725 L 322.859 285.808 L 334.904 285.808 L 334.904 259.09 C 334.904 249.172 327.753 241.972 318.665 241.972 Z  M 260.669 276.399 C 254.242 276.399 249.015 271.188 249.015 264.782 C 249.015 258.375 254.242 253.164 260.669 253.164 C 267.095 253.164 272.322 258.375 272.322 264.782 C 272.322 271.188 267.095 276.399 260.669 276.399 Z  M 260.298 241.972 C 246.632 241.972 236.712 251.577 236.712 264.809 C 236.712 277.992 245.853 287.562 258.447 287.562 C 267.397 287.562 272.18 281.1 272.227 281.035 L 272.921 280.079 L 272.921 286.133 L 284.055 286.133 L 284.055 264.809 C 284.055 251.577 274.064 241.972 260.298 241.972 Z " fill-rule="evenodd" fill="rgb(102,0,51)"/></g></svg>