<?xml version="1.0" encoding="UTF-8" standalone="no"?><!-- Generator: Gravit.io --><svg xmlns="http://www.w3.org/2000/svg" xmlns:xlink="http://www.w3.org/1999/xlink" style="isolation:isolate" viewBox="0 0 512 512" width="512pt" height="512pt"><defs><clipPath id="_clipPath_Ydq1xyV2erN7LHbfjvZSkqZRFarCnbDM"><rect width="512" height="512"/></clipPath></defs><g clip-path="url(#_clipPath_Ydq1xyV2erN7LHbfjvZSkqZRFarCnbDM)"><path d=" M 487.622 226.087 L 510.767 202.942 C 511.607 202.101 513.575 200.13 509.592 196.029 C 507.884 194.27 506.326 193.372 504.964 193.361 L 504.94 193.361 C 503.767 193.361 502.977 193.99 502.358 194.608 L 479.159 217.808 L 455.997 194.503 C 454.125 192.629 451.932 193.069 449.106 195.891 C 446.232 198.78 445.762 200.999 447.626 202.874 L 470.791 226.177 L 448.104 248.866 L 447.942 249.024 C 447.39 249.559 446.556 250.367 446.545 251.684 C 446.535 253.042 447.439 254.641 449.234 256.437 C 450.75 257.953 452.185 258.722 453.504 258.722 L 453.505 258.722 C 454.991 258.72 455.94 257.769 456.477 257.232 L 479.251 234.458 L 502.539 257.748 C 502.832 258.041 503.653 258.717 504.969 258.717 L 505.017 258.717 C 506.489 258.699 508.039 257.845 509.626 256.179 C 512.239 253.435 512.675 251.148 510.921 249.384 L 487.622 226.087 Z  M 404.006 192.838 C 386.854 194.143 373.418 209.228 373.418 227.182 L 373.418 283.953 C 373.418 287.242 375.919 287.915 379.672 287.915 C 383.425 287.915 385.925 287.242 385.925 283.953 L 385.925 227.049 C 385.925 215.863 394.063 206.258 404.451 205.182 C 410.414 204.574 416.147 206.441 420.605 210.462 C 424.982 214.407 427.493 220.078 427.495 226.024 C 427.495 227.726 426.661 233.267 422.858 238.411 C 419.982 242.298 414.533 246.928 404.871 246.928 C 404.819 246.929 404.749 246.928 404.688 246.928 C 402.209 246.928 400.092 247.045 399.685 252.918 C 399.411 256.87 399.434 258.637 402.848 259.113 C 408.938 259.957 415.147 258.767 421.3 255.569 C 431.808 250.102 438.847 239.745 439.674 228.535 C 440.393 218.799 436.882 209.301 430.039 202.475 C 423.171 195.625 413.687 192.117 404.006 192.838 Z  M 48.894 230.464 C 36.604 228.699 24.62 231.969 14.858 239.482 L 14.858 205.671 L 72.154 205.671 C 74.145 205.671 75.572 205.312 75.572 199.434 C 75.572 193.697 73.261 193.47 71.736 193.47 L 8.291 193.47 C 4.607 193.47 2.658 196.45 2.658 199.753 L 2.658 255.245 C 2.658 258.154 4.502 259.141 7.935 259.82 C 10.94 260.415 12.685 260.067 13.999 258.611 L 14.138 258.398 C 20.182 249.685 33.334 241.246 45.835 242.776 C 60.756 244.601 72.77 256.505 74.414 271.078 C 75.462 280.377 72.624 289.315 66.429 296.248 C 60.312 303.092 51.556 307.018 42.41 307.018 C 28.859 307.018 17.016 298.308 12.084 285.667 C 11.354 283.795 10.121 282.41 4.783 284.35 C -0.122 286.134 -0.406 288.198 0.27 290.067 C 6.691 307.746 23.625 319.626 42.408 319.626 C 55.129 319.626 67.303 314.172 75.809 304.661 C 84.428 295.027 88.342 282.608 86.9 269.691 C 84.641 249.471 68.99 233.34 48.894 230.464 Z  M 296.613 306.192 C 268.937 306.192 246.421 283.676 246.421 256.001 C 246.421 228.324 268.937 205.808 296.613 205.808 C 324.287 205.808 346.801 228.324 346.801 256.001 C 346.801 283.676 324.287 306.192 296.613 306.192 L 296.613 306.192 Z  M 296.613 192.204 C 261.433 192.204 232.814 220.823 232.814 256.001 C 232.814 291.178 261.433 319.796 296.613 319.796 C 331.791 319.796 360.408 291.178 360.408 256.001 C 360.408 220.823 331.791 192.204 296.613 192.204 Z  M 158.546 306.192 C 130.87 306.192 108.355 283.676 108.355 256.001 C 108.355 228.324 130.87 205.808 158.546 205.808 C 186.221 205.808 208.735 228.324 208.735 256.001 C 208.735 283.676 186.221 306.192 158.546 306.192 L 158.546 306.192 Z  M 158.546 192.204 C 123.367 192.204 94.747 220.823 94.747 256.001 C 94.747 291.178 123.367 319.796 158.546 319.796 C 193.723 319.796 222.342 291.178 222.342 256.001 C 222.342 220.823 193.723 192.204 158.546 192.204 Z " fill="rgb(16,15,13)"/></g></svg>