<?xml version="1.0" encoding="UTF-8" standalone="no"?><!-- Generator: Gravit.io --><svg xmlns="http://www.w3.org/2000/svg" xmlns:xlink="http://www.w3.org/1999/xlink" style="isolation:isolate" viewBox="0 0 512 512" width="512pt" height="512pt"><defs><clipPath id="_clipPath_M6aGqf9FbFtGqnH3RUqtrHdcdN25XZ9w"><rect width="512" height="512"/></clipPath></defs><g clip-path="url(#_clipPath_M6aGqf9FbFtGqnH3RUqtrHdcdN25XZ9w)"><circle vector-effect="non-scaling-stroke" cx="256" cy="256" r="256" fill="rgb(27,27,29)" /><path d=" M 152.159 158.699 C 150.527 159.022 148.895 164.824 145.639 168.052 C 143.354 170.312 140.416 170.312 138.792 172.894 C 138.139 173.863 138.466 175.799 137.813 177.413 C 136.507 180.964 131.938 181.287 131.938 184.83 C 131.938 188.703 135.855 189.672 139.111 192.569 C 141.722 194.828 142.048 196.442 144.986 197.411 C 147.597 198.379 151.506 195.474 155.096 196.442 C 158.034 197.411 160.971 198.056 161.616 200.961 C 162.261 203.867 161.616 208.055 158.026 207.409 C 156.72 207.409 151.506 205.473 145.304 206.118 C 137.479 207.087 128.666 209.346 128.013 218.054 C 127.687 222.896 133.562 228.375 139.103 227.407 C 143.019 226.761 141.061 221.919 143.346 219.668 C 146.283 216.763 162.261 229.666 177.268 229.666 C 183.461 229.666 188.357 228.052 192.927 223.218 C 193.253 222.896 193.906 221.927 194.559 221.927 C 195.212 221.927 196.191 222.573 196.517 222.896 C 208.586 232.572 217.717 251.608 261.757 251.931 C 267.951 251.931 275.132 254.836 280.999 259.993 C 286.222 264.835 289.151 272.251 292.089 279.668 C 296.658 290.958 304.484 301.925 316.553 313.86 C 317.206 314.506 326.99 322.245 327.969 322.568 C 327.969 322.568 328.948 324.504 328.622 325.473 C 328.295 332.889 327.316 353.863 343.302 354.831 C 347.219 355.154 346.239 352.249 346.239 350.312 C 346.239 346.761 345.587 342.896 347.545 339.345 C 350.156 334.18 341.996 331.929 341.996 320.639 C 342.323 312.254 335.15 313.545 331.559 307.412 C 329.601 303.861 327.643 301.602 327.643 297.091 C 328.295 271.606 322.094 254.836 319.164 250.963 C 316.879 247.735 314.594 246.767 316.879 245.153 C 330.254 236.445 333.191 228.375 333.191 228.375 C 340.364 211.921 346.566 196.765 355.371 190.309 C 357.003 189.018 361.564 185.467 364.502 184.184 C 372.654 180.311 376.897 178.059 379.182 175.799 C 382.772 172.249 386.028 164.509 382.446 159.99 C 377.876 154.18 370.377 158.699 366.787 160.959 C 342.323 175.477 338.732 200.639 330.254 215.149 C 323.407 226.761 312.636 235.469 302.852 236.114 C 295.353 236.76 287.519 235.146 279.694 231.595 C 260.452 223.211 250.007 212.566 247.404 210.629 C 242.181 206.756 202.392 167.73 169.768 166.116 C 169.768 166.116 165.852 158.054 164.872 158.054 C 162.588 157.731 159.976 162.896 158.352 163.541 C 156.394 164.509 153.783 158.376 152.159 158.699 L 152.159 158.699 Z " fill="rgb(237,29,36)"/></g></svg>