<?xml version="1.0" encoding="UTF-8" standalone="no"?><!-- Generator: Gravit.io --><svg xmlns="http://www.w3.org/2000/svg" xmlns:xlink="http://www.w3.org/1999/xlink" style="isolation:isolate" viewBox="0 0 512 512" width="512pt" height="512pt"><defs><clipPath id="_clipPath_q180D6MZQTZ7miTMcReN50s02NeSDsrc"><rect width="512" height="512"/></clipPath></defs><g clip-path="url(#_clipPath_q180D6MZQTZ7miTMcReN50s02NeSDsrc)"><g><path d=" M 377.671 241.945 C 381.408 241.5 384.988 241.479 388.278 241.945 C 390.182 237.579 390.51 230.05 388.797 221.853 C 386.251 209.667 382.806 202.293 375.685 203.441 C 368.566 204.588 368.303 213.417 370.849 225.602 C 372.28 232.456 374.83 238.314 377.671 241.945" fill="rgb(35,31,32)"/><path d=" M 316.545 251.587 C 321.639 253.823 324.77 255.305 325.995 254.009 C 326.783 253.202 326.549 251.662 325.332 249.674 C 322.818 245.569 317.645 241.408 312.158 239.069 C 300.936 234.239 287.553 235.846 277.228 243.264 C 273.821 245.762 270.59 249.221 271.052 251.321 C 271.202 252.001 271.712 252.513 272.908 252.68 C 275.719 253.002 285.538 248.036 296.85 247.344 C 304.834 246.855 311.45 249.352 316.545 251.587" fill="rgb(35,31,32)"/><path d=" M 306.298 257.435 C 299.661 258.482 296.002 260.67 293.652 262.704 C 291.648 264.456 290.408 266.393 290.419 267.756 C 290.423 268.404 290.705 268.778 290.927 268.966 C 291.23 269.231 291.587 269.38 292.018 269.38 C 293.516 269.38 296.873 268.031 296.873 268.031 C 306.107 264.727 312.198 265.128 318.234 265.816 C 321.57 266.19 323.146 266.397 323.877 265.254 C 324.095 264.925 324.356 264.215 323.689 263.132 C 322.134 260.612 315.435 256.35 306.297 257.435" fill="rgb(35,31,32)"/><path d=" M 357.031 278.9 C 361.535 281.114 366.495 280.244 368.111 276.959 C 369.724 273.675 367.381 269.217 362.875 267.001 C 358.371 264.79 353.411 265.657 351.795 268.943 C 350.182 272.229 352.525 276.685 357.031 278.9 Z " fill="rgb(35,31,32)"/><path d=" M 385.994 253.591 C 382.334 253.528 379.299 257.548 379.213 262.566 C 379.127 267.587 382.027 271.704 385.686 271.767 C 389.346 271.83 392.383 267.81 392.467 262.792 C 392.553 257.771 389.653 253.652 385.994 253.591 Z " fill="rgb(35,31,32)"/><path d=" M 140.159 344.091 C 139.249 342.95 137.753 343.297 136.304 343.635 C 135.293 343.872 134.147 344.137 132.89 344.116 C 130.198 344.063 127.919 342.914 126.638 340.947 C 124.971 338.387 125.067 334.568 126.909 330.2 C 127.156 329.608 127.449 328.954 127.767 328.242 C 130.702 321.655 135.615 310.632 130.099 300.13 C 125.948 292.225 119.177 287.3 111.036 286.268 C 103.221 285.277 95.175 288.174 90.042 293.836 C 81.946 302.769 80.68 314.925 82.246 319.221 C 82.82 320.792 83.717 321.228 84.37 321.317 C 85.747 321.501 87.784 320.5 89.06 317.066 C 89.152 316.82 89.273 316.437 89.425 315.95 C 89.995 314.136 91.053 310.756 92.787 308.047 C 94.878 304.78 98.135 302.531 101.958 301.712 C 105.852 300.878 109.833 301.622 113.164 303.804 C 118.837 307.514 121.021 314.463 118.6 321.095 C 117.348 324.525 115.314 331.082 115.763 336.472 C 116.67 347.377 123.377 351.758 129.404 352.223 C 135.264 352.443 139.359 349.155 140.396 346.75 C 141.007 345.328 140.491 344.463 140.159 344.091" fill="rgb(35,31,32)"/><path d=" M 195.865 143.785 C 214.977 121.701 238.505 102.501 259.579 91.72 C 260.309 91.346 261.082 92.138 260.687 92.853 C 259.013 95.883 255.792 102.373 254.77 107.296 C 254.611 108.063 255.445 108.639 256.093 108.198 C 269.204 99.261 292.014 89.684 312.02 88.453 C 312.879 88.4 313.295 89.502 312.611 90.027 C 309.568 92.362 306.241 95.591 303.81 98.858 C 303.396 99.413 303.786 100.214 304.479 100.218 C 318.527 100.318 338.33 105.235 351.239 112.475 C 352.113 112.964 351.49 114.655 350.514 114.431 C 330.984 109.956 299.015 106.56 265.808 114.659 C 236.161 121.891 213.534 133.054 197.027 145.06 C 196.192 145.668 195.191 144.566 195.865 143.785 L 195.865 143.785 Z  M 291.05 357.758 C 291.052 357.762 291.054 357.77 291.056 357.77 C 291.06 357.776 291.062 357.788 291.068 357.794 C 291.062 357.782 291.056 357.77 291.05 357.758 L 291.05 357.758 Z  M 369.864 367.062 C 370.431 366.823 370.821 366.177 370.755 365.536 C 370.675 364.745 369.971 364.171 369.181 364.252 C 369.181 364.252 328.394 370.288 289.865 356.185 C 294.062 342.544 305.221 347.468 322.088 348.831 C 352.491 350.644 379.738 346.202 399.876 340.421 C 417.327 335.415 440.245 325.541 458.046 311.49 C 464.051 324.68 466.17 339.194 466.17 339.194 C 466.17 339.194 470.819 338.364 474.702 340.753 C 478.373 343.012 481.065 347.707 479.225 359.847 C 475.482 382.526 465.842 400.932 449.642 417.866 C 439.779 428.482 427.806 437.712 414.108 444.423 C 406.832 448.244 399.086 451.55 390.903 454.221 C 329.826 474.169 267.308 452.24 247.156 405.146 C 245.548 401.605 244.188 397.899 243.115 394.022 C 234.527 362.988 241.817 325.755 264.608 302.318 C 264.61 302.316 264.606 302.306 264.608 302.306 C 266.013 300.814 267.446 299.056 267.446 296.845 C 267.446 294.995 266.272 293.043 265.252 291.659 C 257.278 280.094 229.659 260.387 235.202 222.248 C 239.184 194.849 263.145 175.553 285.486 176.696 C 287.374 176.795 289.265 176.91 291.148 177.021 C 300.83 177.595 309.276 178.837 317.246 179.169 C 330.585 179.746 342.58 177.806 356.786 165.97 C 361.579 161.976 365.421 158.515 371.923 157.413 C 372.606 157.296 374.306 156.686 377.704 156.847 C 381.172 157.03 384.474 157.984 387.44 159.959 C 398.831 167.538 400.445 185.893 401.036 199.322 C 401.373 206.987 402.301 225.532 402.616 230.856 C 403.342 243.029 406.542 244.745 413.015 246.876 C 416.656 248.076 420.035 248.969 425.016 250.367 C 440.092 254.599 449.031 258.895 454.664 264.41 C 458.025 267.857 459.589 271.521 460.072 275.014 C 461.848 287.983 450.001 304.004 418.641 318.561 C 384.359 334.471 342.77 338.5 314.035 335.301 C 311.832 335.057 303.994 334.168 303.967 334.163 C 280.982 331.068 267.871 360.773 281.665 381.124 C 290.557 394.24 314.773 402.777 339.002 402.781 C 394.555 402.786 437.254 379.064 453.137 358.576 C 453.613 357.964 453.659 357.897 454.407 356.764 C 455.189 355.587 454.545 354.937 453.571 355.604 C 440.594 364.483 382.955 399.735 321.3 389.13 C 321.3 389.13 313.809 387.898 306.97 385.238 C 301.536 383.124 290.162 377.891 288.78 366.222 C 338.535 381.609 369.864 367.063 369.864 367.063 L 369.864 367.062 Z  M 96.577 248.817 C 79.273 252.182 64.021 261.989 54.696 275.535 C 49.121 270.887 38.737 261.887 36.903 258.38 C 22.013 230.109 53.152 175.141 74.905 144.098 C 128.663 67.383 212.861 9.315 251.837 19.851 C 258.175 21.645 279.159 45.976 279.159 45.976 C 279.159 45.976 240.2 67.594 204.067 97.727 C 155.383 135.213 118.608 189.696 96.577 248.817 Z  M 125.654 378.551 C 123.035 378.998 120.363 379.176 117.669 379.111 C 91.633 378.413 63.51 354.972 60.715 327.175 C 57.626 296.451 73.325 272.806 101.121 267.198 C 104.444 266.529 108.46 266.142 112.791 266.368 C 128.364 267.221 151.315 279.178 156.558 313.107 C 161.202 343.155 153.826 373.746 125.654 378.551 L 125.654 378.551 Z  M 478.345 324.145 C 478.122 323.357 476.669 318.046 474.673 311.647 C 472.677 305.244 470.61 300.74 470.61 300.74 C 478.617 288.751 478.759 278.031 477.695 271.957 C 476.558 264.43 473.425 258.016 467.109 251.386 C 460.793 244.756 447.876 237.965 429.721 232.868 C 427.645 232.285 420.798 230.405 420.196 230.224 C 420.149 229.831 419.694 207.767 419.283 198.297 C 418.982 191.45 418.395 180.761 415.078 170.233 C 411.125 155.983 404.238 143.513 395.644 135.535 C 419.364 110.947 434.173 83.859 434.137 60.621 C 434.069 15.932 379.186 2.411 311.552 30.417 C 311.481 30.446 297.325 36.449 297.222 36.499 C 297.158 36.438 271.315 11.081 270.926 10.743 C 193.814 -56.517 -47.284 211.469 29.8 276.555 L 46.646 290.827 C 42.276 302.147 40.559 315.116 41.962 329.063 C 43.762 346.975 53.002 364.146 67.978 377.412 C 82.195 390.009 100.887 397.981 119.026 397.966 C 149.022 467.092 217.561 509.499 297.922 511.885 C 384.125 514.446 456.487 473.996 486.808 401.337 C 488.792 396.238 497.209 373.261 497.209 352.979 C 497.209 332.594 485.684 324.145 478.345 324.145" fill="rgb(35,31,32)"/></g></g></svg>