<?xml version="1.0" encoding="UTF-8" standalone="no"?><!-- Generator: Gravit.io --><svg xmlns="http://www.w3.org/2000/svg" xmlns:xlink="http://www.w3.org/1999/xlink" style="isolation:isolate" viewBox="0 0 512 512" width="512pt" height="512pt"><defs><clipPath id="_clipPath_daVJ3lq7Ajt9WFsM3sKfRMfm0gsZ6tWw"><rect width="512" height="512"/></clipPath></defs><g clip-path="url(#_clipPath_daVJ3lq7Ajt9WFsM3sKfRMfm0gsZ6tWw)"><path d="M 477.714 383.995 L 256.005 512 L 34.286 383.995 L 34.286 127.985 L 256.005 0 L 477.714 127.985 L 477.714 383.995 Z" fill-rule="evenodd" fill="rgb(27,27,29)" /><path d=" M 286.552 139.929 C 288.046 141.064 289.438 142.337 290.727 143.747 C 293.374 147.03 296.197 150.172 299.197 153.171 C 301.037 154.806 303.184 155.8 305.639 156.153 C 304.085 158.759 301.779 159.992 298.72 159.851 C 299.996 161.21 300.99 162.76 301.702 164.503 C 303.14 168.824 304.651 173.119 306.235 177.387 C 307.108 178.959 308.42 179.993 310.172 180.488 C 309.553 181.214 308.758 181.652 307.786 181.801 C 306.275 181.96 304.764 181.96 303.253 181.801 C 302.536 181.478 301.82 181.239 301.106 181.085 C 302.04 182.537 302.438 184.128 302.299 185.856 C 302.259 186.612 302.219 187.367 302.179 188.123 C 300.054 193.18 301.207 197.236 305.639 200.291 C 305.429 200.642 305.111 200.84 304.684 200.887 C 301.397 201.355 298.494 200.52 295.976 198.382 C 296.432 199.294 296.909 200.249 297.408 201.245 C 297.946 202.626 298.225 204.057 298.243 205.54 C 297.841 208.976 297.324 212.396 296.692 215.799 C 296.039 219.447 297.113 222.469 299.913 224.865 C 296.183 226.032 292.804 225.316 289.773 222.718 C 289.905 223.892 289.905 225.085 289.773 226.296 C 289.02 229.549 288.304 232.809 287.626 236.078 C 287.151 242.45 288.344 248.494 291.204 254.211 C 294.197 259.717 296.662 265.443 298.601 271.389 C 299.035 273.204 299.393 275.033 299.674 276.876 C 303.07 278.367 306.411 279.958 309.695 281.648 C 314.05 284.252 318.782 285.684 323.89 285.942 C 332.175 285.61 336.51 281.276 336.893 272.939 C 336.704 269.03 335.471 265.492 333.195 262.322 C 329.493 257.505 325.437 252.972 321.027 248.723 C 317.215 244.753 313.955 240.379 311.245 235.601 C 310.412 233.858 309.657 232.108 308.979 230.352 C 307.3 224.903 307.141 219.416 308.502 213.89 C 309.557 210.984 310.989 208.28 312.796 205.778 C 313.433 205.301 313.989 204.744 314.466 204.108 C 315.505 203.07 316.618 202.115 317.807 201.245 C 318.005 198.704 318.124 196.159 318.164 193.61 C 318.797 189.521 320.745 186.22 324.01 183.709 C 326.555 182.198 329.099 180.687 331.644 179.176 C 333.602 177.607 334.795 175.579 335.223 173.092 C 336.037 174.483 336.355 175.994 336.177 177.625 C 336.238 179.198 336.04 180.709 335.581 182.158 C 336.424 181.235 337.339 180.4 338.325 179.653 C 341.108 177.784 343.972 176.034 346.914 174.404 C 349.333 172.386 351.003 169.88 351.924 166.889 C 352.492 168.215 352.73 169.607 352.64 171.064 C 352.633 172.923 352.353 174.712 351.805 176.432 C 352.141 176.125 352.499 175.847 352.878 175.597 C 354.904 174.704 356.891 173.75 358.843 172.734 C 359.857 171.88 360.692 170.886 361.348 169.752 C 362.061 168.088 362.737 166.417 363.376 164.742 C 364.452 166.573 365.048 168.562 365.165 170.706 C 365.373 173.824 365.254 176.925 364.807 180.011 C 363.455 187.29 360.353 193.692 355.503 199.217 C 358.311 198.721 360.735 199.477 362.78 201.484 C 362.896 201.792 362.937 202.11 362.899 202.438 C 359.649 202.513 356.786 203.587 354.31 205.659 C 348.92 211.618 342.239 213.924 334.269 212.578 C 330.079 211.791 326.062 210.479 322.22 208.641 C 316.846 213.475 315.016 219.44 316.733 226.535 C 317.972 230.763 319.96 234.58 322.697 237.987 C 327.222 243.069 331.835 248.079 336.535 253.018 C 340.28 257.086 342.984 261.778 344.647 267.094 C 346.527 274.776 345.017 281.695 340.114 287.851 C 334.658 293.244 328.097 295.351 320.431 294.173 C 318.649 293.952 316.899 293.594 315.182 293.1 C 313.297 292.524 311.467 291.809 309.695 290.952 C 306.808 289.628 303.945 288.237 301.106 286.777 C 300.486 286.506 299.85 286.307 299.197 286.181 C 298.283 290.315 297.368 294.45 296.453 298.587 C 295.679 303.978 297.23 308.551 301.106 312.306 C 302.855 313.737 304.843 314.652 307.07 315.049 C 314.325 316.035 319.574 313.251 322.817 306.699 C 323.416 307.659 323.853 308.693 324.129 309.801 C 324.83 313.522 324.154 316.942 322.101 320.06 C 321.906 320.452 321.588 320.73 321.147 320.895 C 323.239 321.075 325.306 320.916 327.35 320.418 C 328.291 320.106 329.166 319.669 329.974 319.105 C 330.263 320.513 330.064 321.865 329.378 323.161 C 327.884 326.167 325.777 328.673 323.055 330.677 C 321.577 331.717 320.066 332.712 318.522 333.659 C 319.322 334.403 320.277 334.721 321.385 334.613 C 322.426 334.67 323.381 334.432 324.248 333.897 C 324.514 334.189 324.554 334.508 324.368 334.852 C 324.129 335.25 323.89 335.646 323.652 336.045 C 318.706 340.43 314.57 345.44 311.245 351.075 C 309.716 354.215 308.125 357.317 306.474 360.38 C 305.324 361.969 303.773 362.764 301.821 362.766 C 302.078 361.54 301.68 360.626 300.629 360.022 C 299.372 359.767 298.179 359.927 297.05 360.5 C 295.984 361.327 294.99 362.241 294.067 363.243 C 291.523 366.583 288.978 369.924 286.433 373.264 C 282.503 377.594 277.612 379.98 271.76 380.421 C 270.107 380.309 268.596 379.794 267.227 378.87 C 266.853 378.689 266.535 378.727 266.273 378.99 C 264.68 380.543 263.209 382.213 261.859 384 C 261.61 383.733 261.451 383.413 261.382 383.046 C 261.262 381.058 261.223 379.071 261.262 377.081 C 258.753 377.098 256.765 376.105 255.298 374.099 C 254.149 373.853 253.115 374.092 252.196 374.815 C 251.149 375.798 250.274 376.912 249.572 378.155 C 249.275 378.264 249.076 378.145 248.975 377.797 C 248.493 373.433 250.124 370.093 253.866 367.776 C 253.264 367.135 252.708 366.459 252.196 365.748 C 251.401 365.589 250.605 365.589 249.81 365.748 C 248.68 366.283 247.646 366.96 246.709 367.776 C 246.489 364.911 247.443 362.487 249.572 360.5 C 249.969 360.302 250.367 360.101 250.765 359.903 C 252.602 355.067 255.982 353.478 260.904 355.131 C 261.501 354.468 262.177 353.872 262.932 353.342 C 264.478 352.812 265.989 352.891 267.465 353.581 C 268.767 354.721 270.199 355.675 271.76 356.444 C 274.333 356.549 276.798 356.071 279.156 355.012 C 285.771 351.736 290.821 346.845 294.306 340.339 C 294.658 339.402 294.937 338.447 295.141 337.476 C 294.981 335.522 293.947 334.21 292.04 333.54 C 289.397 332.685 286.693 332.366 283.928 332.585 C 283.259 334.635 282.384 336.584 281.303 338.431 C 280.913 338.903 280.515 339.38 280.11 339.862 C 278.534 341.635 276.545 342.589 274.146 342.725 C 275.351 339.476 274.636 336.772 271.999 334.613 C 271.528 334.298 271.051 333.979 270.567 333.659 C 268.772 337.049 266.069 339.275 262.455 340.339 C 261.899 340.339 261.342 340.339 260.785 340.339 C 261.389 339.13 261.866 337.856 262.217 336.522 C 262.87 333.807 262.353 331.342 260.666 329.126 C 259.068 327.607 257.557 326.017 256.133 324.354 C 255.034 322.793 254.199 321.123 253.628 319.344 C 252.73 314.759 253.167 310.305 254.94 305.983 C 256.277 303.388 257.55 300.763 258.757 298.11 C 259.928 295.366 259.848 292.662 258.519 289.998 C 258.472 291.445 258.313 292.876 258.041 294.293 C 256.356 297.584 254.606 300.844 252.793 304.075 C 252.235 305.23 251.798 306.423 251.48 307.653 C 244.943 309.662 241.881 314.116 242.295 321.014 C 242.934 326.313 245.757 329.852 250.765 331.631 C 252.001 331.827 253.194 331.786 254.343 331.512 C 254.661 331.512 254.821 331.671 254.821 331.989 C 252.761 335.954 249.5 337.426 245.039 336.403 C 244.141 336.195 243.266 335.918 242.414 335.568 C 242.335 335.646 242.255 335.727 242.176 335.806 C 243.393 337.729 245.143 338.884 247.424 339.266 C 248.296 339.385 249.17 339.425 250.049 339.385 C 249.202 341.699 247.532 343.011 245.039 343.322 C 244.164 343.481 243.289 343.481 242.414 343.322 C 240.108 342.766 237.802 342.207 235.495 341.651 C 233.099 341.337 230.872 341.814 228.815 343.083 C 225.954 345.23 222.932 347.139 219.749 348.809 C 217.44 349.785 215.054 350.143 212.591 349.883 C 214.017 346.533 212.904 344.784 209.251 344.634 C 206.771 344.839 204.465 345.595 202.332 346.9 C 199.09 349.105 195.671 351.013 192.073 352.626 C 189.852 353.511 187.545 353.948 185.154 353.938 C 182.682 353.857 180.535 352.982 178.712 351.314 C 178.309 351.758 177.951 352.235 177.639 352.746 C 177.063 354.356 176.466 355.947 175.849 357.517 C 175.591 357.238 175.392 356.921 175.253 356.563 C 174.323 353.001 174.204 349.422 174.895 345.827 C 172.877 344.961 171.088 343.768 169.527 342.248 C 169.013 342.506 168.536 342.823 168.095 343.202 C 167.255 344.405 166.54 345.676 165.948 347.02 C 165.378 346.256 165.059 345.381 164.994 344.395 C 164.292 341.37 165.206 338.984 167.738 337.238 C 167.935 336.212 168.054 335.179 168.095 334.136 C 168.282 333.418 168.56 332.74 168.93 332.108 C 167.691 331.812 166.578 332.051 165.59 332.824 C 165.004 333.408 164.447 334.005 163.92 334.613 C 163.153 330.54 164.664 327.717 168.453 326.144 C 170.073 326.057 171.664 326.017 173.225 326.024 C 173.493 325.687 173.732 325.329 173.941 324.951 C 173.189 323.264 171.917 322.707 170.123 323.281 C 168.033 324.39 167.675 323.873 169.05 321.73 C 171.673 318.827 174.735 318.31 178.235 320.179 C 179.208 321.309 180.401 321.587 181.814 321.014 C 182.896 320.966 183.93 321.165 184.916 321.61 L 192.073 327.336 C 193.619 328.302 195.289 328.939 197.083 329.245 C 203.784 329.984 210.146 328.871 216.17 325.905 C 219.225 324.209 220.457 321.624 219.868 318.151 C 219.497 317.011 218.94 315.977 218.198 315.049 C 216.279 312.892 214.45 310.665 212.711 308.369 C 211.509 306.633 210.753 304.724 210.444 302.643 C 205.705 303.317 202.404 301.488 200.543 297.156 C 200.356 296.811 200.396 296.493 200.662 296.201 C 203.312 297.512 205.937 297.472 208.535 296.082 L 209.251 295.366 C 205.766 295.89 203.221 294.578 201.616 291.43 C 201.215 290.195 201.056 288.922 201.139 287.612 C 201.661 287.661 202.138 287.82 202.571 288.089 C 204.499 289.044 206.407 288.925 208.297 287.732 C 209.639 285.991 211.071 284.321 212.591 282.721 C 214.915 280.965 217.539 279.931 220.465 279.62 C 224.61 279.407 228.745 279.089 232.871 278.665 C 235.729 278.25 238.234 277.097 240.386 275.206 C 240.545 275.047 240.545 274.888 240.386 274.729 C 237.593 272.055 234.929 269.272 232.394 266.378 C 230.843 264.629 229.332 262.839 227.861 261.01 C 217.725 261.34 208.261 264.044 199.469 269.122 C 196.553 270.686 194.367 272.952 192.908 275.922 C 192.254 279.004 191.698 282.106 191.238 285.226 C 190.561 286.856 189.687 288.367 188.614 289.76 C 188.303 291.173 188.183 292.604 188.256 294.054 C 188.329 294.632 188.25 295.189 188.017 295.724 C 187.535 295.321 187.058 294.923 186.586 294.531 C 185.797 293.192 185.201 291.76 184.796 290.237 C 183.284 289.94 182.131 289.144 181.337 287.851 C 181.292 287.358 181.173 286.881 180.979 286.419 C 179.419 288.718 177.232 289.792 174.418 289.64 C 173.703 291.182 173.385 292.813 173.464 294.531 C 172.714 294.46 172.197 294.062 171.913 293.338 C 170.558 291.023 170.279 288.597 171.078 286.062 C 170.275 284.489 170.195 282.899 170.839 281.29 C 167.79 280.86 165.921 279.15 165.232 276.16 C 163.803 275.534 162.411 275.653 161.057 276.518 C 160.195 277.334 159.479 278.249 158.91 279.262 C 158.249 274.102 160.476 271.041 165.59 270.076 C 166.261 269.127 167.057 268.292 167.976 267.571 C 167.12 266.356 166.643 265.004 166.545 263.515 C 164.438 263.257 162.768 263.973 161.534 265.663 C 161.303 261.872 162.893 259.128 166.306 257.432 C 167.565 257.01 168.837 256.97 170.123 257.312 C 172.324 256.301 174.471 256.42 176.565 257.67 C 177.989 258.855 179.341 260.128 180.621 261.487 C 181.93 262.183 183.282 262.262 184.677 261.726 C 193.413 255.296 202.082 248.775 210.683 242.162 C 207.277 238.676 203.658 235.455 199.827 232.5 C 199.598 234.629 198.683 236.379 197.083 237.748 C 195.7 232.115 192.758 227.502 188.256 223.911 C 184.787 220.62 180.651 218.989 175.849 219.02 C 173.306 220.05 171.079 221.56 169.169 223.553 C 168.286 224.114 167.331 224.472 166.306 224.626 C 165.586 224.587 164.87 224.627 164.159 224.746 C 160.343 226.555 157.52 225.561 155.689 221.763 C 155.176 220.674 154.977 219.561 155.093 218.423 C 155.889 219.06 156.764 219.577 157.717 219.974 C 158.592 220.133 159.467 220.133 160.341 219.974 C 160.291 218.296 160.927 216.944 162.25 215.918 C 163.348 215.473 164.461 215.075 165.59 214.725 C 165.96 214.435 166.238 214.078 166.425 213.651 C 166.584 212.618 166.584 211.584 166.425 210.55 C 165.792 209.277 164.758 208.72 163.324 208.88 C 161.379 209.112 159.43 209.152 157.478 208.999 C 156.029 208.476 154.916 207.561 154.138 206.255 C 153.929 206.076 153.691 205.957 153.423 205.897 C 152.071 205.738 150.719 205.738 149.367 205.897 C 148.3 206.368 147.505 207.123 146.981 208.164 C 146.236 205.234 147.19 202.968 149.844 201.364 C 150.829 200.811 151.863 200.373 152.945 200.052 C 153.334 197.958 154.447 196.407 156.286 195.4 C 155.58 194.371 155.222 193.217 155.212 191.94 C 153.45 190.204 151.342 189.448 148.889 189.674 C 148.354 189.922 147.837 190.2 147.339 190.509 C 147.573 187.646 149.124 185.856 151.991 185.141 C 154.145 184.825 156.212 185.104 158.194 185.976 C 159.385 185.021 160.737 184.544 162.25 184.544 C 162.487 183.752 162.725 182.956 162.966 182.158 C 162.109 179.315 160.201 177.645 157.24 177.148 C 158.344 175.707 159.815 175.07 161.654 175.24 C 165.106 175.353 167.532 176.983 168.93 180.13 C 169.508 180.2 170.065 180.319 170.601 180.488 C 171.557 180.928 172.233 181.644 172.629 182.636 C 172.759 187.157 173.634 191.532 175.253 195.758 C 176.353 198.129 177.824 200.236 179.667 202.08 C 182.43 202.532 185.134 203.208 187.779 204.108 C 193.445 207.141 199.171 210.123 204.957 213.055 C 209.952 214.921 215.121 215.915 220.465 216.037 C 219.951 217.383 219.315 218.655 218.556 219.855 C 216.891 221.795 214.903 223.346 212.591 224.507 C 215.962 224.452 218.507 222.981 220.226 220.093 C 222.228 217.287 224.176 214.424 226.071 211.504 C 227.351 209.946 228.743 208.515 230.246 207.21 C 232.675 205.459 235.14 203.75 237.643 202.08 C 241.159 199.7 242.63 196.399 242.056 192.179 C 241.303 189.754 239.673 188.839 237.165 189.435 C 233.289 191.641 229.749 194.305 226.548 197.428 C 226.6 198.581 226.878 199.694 227.383 200.768 C 226.624 201.079 225.908 200.999 225.236 200.529 C 224.44 200.049 223.724 199.452 223.089 198.74 C 222.725 198.499 222.327 198.38 221.896 198.382 C 222.011 200.15 222.25 201.899 222.612 203.631 C 222.206 203.669 221.809 203.63 221.419 203.512 C 218.914 201.961 216.886 199.933 215.335 197.428 C 214.408 195.607 214.289 193.738 214.977 191.821 C 214.442 190.239 214.203 188.609 214.261 186.93 C 215.439 187.519 216.632 188.115 217.84 188.719 C 219.285 188.958 220.637 188.759 221.896 188.123 C 223.802 187.37 225.114 186.018 225.833 184.067 C 226.225 182.975 226.543 181.862 226.787 180.727 C 227.317 179.061 226.801 177.908 225.236 177.267 C 222.328 177.001 219.465 177.2 216.647 177.864 C 215.21 178.082 214.136 178.798 213.426 180.011 C 213.388 181.452 213.508 182.884 213.784 184.306 C 211.042 183.348 208.696 181.758 206.746 179.534 C 204.946 177.404 204.748 175.137 206.149 172.734 C 205.99 172.575 205.831 172.575 205.672 172.734 C 205.08 173.308 204.444 173.825 203.764 174.285 C 203.183 173.287 202.746 172.253 202.451 171.184 C 206.299 167.573 210.355 164.233 214.619 161.163 C 215.428 158.605 216.82 156.417 218.794 154.602 C 221.386 152.766 224.011 150.977 226.668 149.234 C 226.957 144.56 228.866 140.702 232.394 137.663 C 235.356 135.497 238.179 133.15 240.863 130.624 C 241.302 129.747 241.739 128.873 242.176 128 C 244.373 130.186 245.208 132.811 244.681 135.873 C 249.109 130.764 254.716 128.497 261.501 129.074 C 263.978 129.124 266.364 129.602 268.658 130.505 C 267.117 131.648 265.646 132.881 264.245 134.203 C 264.104 134.438 264.183 134.597 264.483 134.68 C 272.684 133.043 280.04 134.792 286.552 139.929 Z  M 223.805 159.016 C 225.477 158.976 227.147 159.016 228.815 159.135 C 228.218 159.414 227.781 159.851 227.503 160.447 C 226.963 161.965 226.207 163.357 225.236 164.623 C 222.85 165.864 221.14 165.268 220.107 162.833 C 219.829 161.677 220.187 160.763 221.18 160.089 C 222.053 159.655 222.928 159.297 223.805 159.016 Z " fill-rule="evenodd" fill="rgb(239,191,4)"/></g></svg>