<?xml version="1.0" encoding="UTF-8" standalone="no"?><!-- Generator: Gravit.io --><svg xmlns="http://www.w3.org/2000/svg" xmlns:xlink="http://www.w3.org/1999/xlink" style="isolation:isolate" viewBox="0 0 512 512" width="512pt" height="512pt"><defs><clipPath id="_clipPath_KOU9QNySuLyadprGu8Ebjw3npmvt0iu5"><rect width="512" height="512"/></clipPath></defs><g clip-path="url(#_clipPath_KOU9QNySuLyadprGu8Ebjw3npmvt0iu5)"><path d="M 477.714 383.995 L 256.005 512 L 34.286 383.995 L 34.286 127.985 L 256.005 0 L 477.714 127.985 L 477.714 383.995 Z" fill-rule="evenodd" fill="rgb(27,27,29)" /><g><path d=" M 381.44 258.844 C 381.44 248.32 380.586 240.64 378.738 232.676 L 258.56 232.676 L 258.56 280.177 L 329.102 280.177 C 327.68 291.982 320 309.76 302.933 321.706 L 302.694 323.296 L 340.692 352.733 L 343.324 352.996 C 367.502 330.666 381.44 297.813 381.44 258.844" fill="rgb(85,0,0)"/><path d=" M 258.56 384 C 293.12 384 322.133 372.622 343.324 352.996 L 302.933 321.706 C 292.124 329.244 277.617 334.506 258.56 334.506 C 224.711 334.506 195.983 312.178 185.742 281.316 L 184.241 281.443 L 144.73 312.021 L 144.213 313.457 C 165.262 355.27 208.497 384 258.56 384 Z " fill="rgb(85,0,0)"/><path d=" M 185.742 281.316 C 183.04 273.351 181.476 264.817 181.476 256 C 181.476 247.182 183.04 238.649 185.6 230.684 L 185.528 228.988 L 145.522 197.919 L 144.213 198.542 C 135.538 215.893 130.56 235.378 130.56 256 C 130.56 276.622 135.538 296.106 144.213 313.457 L 185.742 281.316 Z " fill="rgb(85,0,0)"/><path d=" M 258.56 177.493 C 282.595 177.493 298.808 187.875 308.053 196.551 L 344.177 161.28 C 321.991 140.658 293.12 128 258.56 128 C 208.497 128 165.262 156.729 144.213 198.542 L 185.6 230.684 C 195.983 199.822 224.711 177.493 258.56 177.493 Z " fill="rgb(85,0,0)"/></g></g></svg>