<?xml version="1.0" encoding="UTF-8" standalone="no"?>
<!-- Generator: Gravit.io --><svg xmlns="http://www.w3.org/2000/svg" xmlns:xlink="http://www.w3.org/1999/xlink"
  style="isolation:isolate" viewBox="0 0 512 512" width="512pt" height="512pt">
  <defs>
    <clipPath id="_clipPath_Y6Tm1K9KzF5IBbP5baM8BGcMknl4f5It">
      <rect width="512" height="512" />
    </clipPath>
  </defs>
  <g clip-path="url(#_clipPath_Y6Tm1K9KzF5IBbP5baM8BGcMknl4f5It)">
    <path d="M 477.714 383.995 L 256.005 512 L 34.286 383.995 L 34.286 127.985 L 256.005 0 L 477.714 127.985 L 477.714 383.995 Z" fill-rule="evenodd" fill="rgb(27,27,29)" />
    <path
      d=" M 366.969 384 C 376.331 384 384 376.461 384 367.229 L 384 196.161 C 384 186.929 376.331 179.39 366.969 179.39 L 200.74 179.39 L 267.452 384 L 366.969 384 Z "
      fill="rgb(85,0,0)" />
    <path
      d=" M 145.031 128 C 135.669 128 128 135.667 128 145.053 L 128 318.66 C 128 328.02 135.669 335.687 145.031 335.687 L 311.26 335.687 L 244.548 128 L 145.031 128 L 145.031 128 Z "
      fill="rgb(85,0,0)" />
    <path
      d=" M 368.098 250.089 L 368.098 240.063 L 319.75 240.063 L 319.75 223.856 L 304.053 223.856 L 304.053 240.063 L 273.197 240.063 L 273.197 250.089 L 334.601 250.089 C 331.318 261.654 324.059 272.579 316.98 281.067 C 304.438 266.219 304.386 261.398 304.386 261.398 L 291.357 261.398 C 291.357 261.398 291.895 268.629 309.49 289.247 C 303.771 295.094 299.436 298.556 299.436 298.556 L 303.437 311.07 C 303.437 311.07 309.49 305.864 317.057 297.838 C 324.649 306.069 334.447 315.968 347.117 327.764 L 355.35 319.532 C 341.782 307.223 331.83 297.453 324.521 289.606 C 334.318 278.015 344.27 263.424 346.373 250.064 L 368.072 250.064 L 368.072 250.089 L 368.098 250.089 Z "
      fill="rgb(27,27,29)" />
    <path
      d=" M 223.259 238.421 C 222.618 246.191 215.975 257.705 199.893 257.705 C 185.966 257.705 174.681 246.191 174.681 232.01 C 174.681 217.83 185.966 206.316 199.893 206.316 C 207.819 206.316 213.102 209.752 216.129 212.547 L 226.696 202.392 C 219.746 195.981 210.692 191.981 199.893 191.981 C 177.81 191.981 159.881 209.906 159.881 231.985 C 159.881 254.064 177.81 271.989 199.893 271.989 C 223.029 271.989 238.315 255.756 238.315 232.857 C 238.315 229.574 237.905 227.164 237.366 224.702 L 199.919 224.702 L 199.919 238.396 L 223.259 238.421 L 223.259 238.421 Z "
      fill="rgb(27,27,29)" />
  </g>
</svg>
