<svg xmlns="http://www.w3.org/2000/svg" width="512pt" height="512pt" style="isolation:isolate" viewBox="0 0 512 512"><defs><clipPath id="a"><path d="M0 0h512v512H0z"/></clipPath></defs><g clip-path="url(#a)"><path fill="#368FB9" d="M256 0C114.656 0 0 114.656 0 256s114.656 256 256 256 256-114.656 256-256S397.344 0 256 0Z"/><path fill="#FFF" d="M406.635 348.12c-15.815 3.756-23.821 7.216-43.392 19.966-30.542 19.769-63.95 28.961-63.95 28.961s-2.768 4.151-10.774 6.029c-13.838 3.361-65.927 6.227-70.672 6.326-12.75.099-20.559-3.261-22.733-8.5-6.623-15.815 9.488-22.734 9.488-22.734s-3.558-2.174-5.634-4.151c-1.878-1.878-3.854-5.634-4.448-4.25-2.471 6.029-3.756 20.757-10.378 27.379-9.093 9.192-26.292 6.128-36.473.791-11.169-5.931.791-19.868.791-19.868s-6.029 3.559-10.872-3.755c-4.349-6.722-8.402-18.187-7.315-32.322 1.186-16.111 19.176-31.728 19.176-31.728s-3.163-23.821 7.215-48.235c9.39-22.239 34.694-40.129 34.694-40.129s-21.251-23.525-13.344-44.677c5.14-13.838 7.215-13.739 8.896-14.332 5.93-2.273 11.663-4.744 15.913-9.39 21.251-22.931 48.334-18.582 48.334-18.582s12.849-39.043 24.71-31.432c3.657 2.372 16.803 31.63 16.803 31.63s14.036-8.204 15.617-5.14c8.501 16.506 9.489 48.037 5.733 67.212-6.326 31.63-22.14 48.63-28.466 59.305-1.483 2.471 17 10.28 28.664 42.601 10.774 29.554 1.186 54.363 2.866 57.13.297.495.396.692.396.692s12.355.989 37.164-14.332c13.245-8.204 28.961-17.396 46.851-17.593 17.297-.297 18.187 19.966 5.14 23.128Zm23.524-14.529c-1.779-14.036-13.64-23.722-28.862-23.525-22.733.297-41.81 12.059-54.461 19.868-4.943 3.064-9.193 5.337-12.85 7.017.791-11.465.099-26.489-5.832-42.996-7.215-19.768-16.901-31.926-23.82-38.943 8.006-11.664 18.977-28.665 24.117-54.956 4.448-22.437 3.064-57.329-7.117-76.899-2.075-3.954-5.535-6.82-9.884-8.006-1.779-.495-5.14-1.483-11.762.395-9.983-20.658-13.442-22.832-16.111-24.612-5.535-3.558-12.059-4.349-18.187-2.075-8.204 2.965-15.222 10.872-21.844 24.908-.988 2.075-1.878 4.052-2.669 6.029-12.553.89-32.321 5.436-49.025 23.524-2.076 2.274-6.128 3.954-10.379 5.536h.099c-8.698 3.064-12.652 10.18-17.495 23.03-6.721 17.989.198 35.682 7.018 47.147-9.291 8.303-21.646 21.548-28.17 37.066-8.105 19.175-8.994 37.955-8.698 48.136-6.919 7.314-17.594 21.053-18.78 36.472-1.581 21.548 6.227 36.176 9.687 41.514.988 1.581 2.075 2.866 3.261 4.151-.395 2.669-.494 5.535.099 8.501 1.285 6.919 5.634 12.552 12.257 16.111 13.047 6.919 31.234 9.884 45.269 2.866 5.041 5.338 14.233 10.477 30.938 10.477h.988c4.25 0 58.218-2.866 73.934-6.721 7.017-1.68 11.861-4.645 15.023-7.314 10.082-3.163 37.956-12.652 64.248-29.653 18.582-12.058 25.007-14.628 38.844-17.989 13.443-3.262 21.844-15.518 20.164-29.059Z"/></g></svg>