<?xml version="1.0" encoding="UTF-8" standalone="no"?><!-- Generator: Gravit.io --><svg xmlns="http://www.w3.org/2000/svg" xmlns:xlink="http://www.w3.org/1999/xlink" style="isolation:isolate" viewBox="0 0 512 512" width="512pt" height="512pt"><defs><clipPath id="_clipPath_gYghMkM4sxGKywPd9vGiGOZOmhVnuCHd"><rect width="512" height="512"/></clipPath></defs><g clip-path="url(#_clipPath_gYghMkM4sxGKywPd9vGiGOZOmhVnuCHd)"><path d="M 477.714 383.995 L 256.005 512 L 34.286 383.995 L 34.286 127.985 L 256.005 0 L 477.714 127.985 L 477.714 383.995 Z" fill-rule="evenodd" fill="rgb(237,29,36)" /><path d=" M 378.499 287.623 C 359.375 267.766 307.159 275.856 294.657 277.327 C 276.272 259.675 263.771 238.348 259.358 230.994 C 265.976 211.137 270.387 191.28 271.124 169.954 C 271.124 151.567 263.771 131.712 243.177 131.712 C 235.823 131.712 229.203 136.123 225.525 142.006 C 216.701 157.452 220.377 188.341 234.351 219.964 C 226.262 242.762 218.907 264.825 198.315 303.804 C 176.987 312.626 132.125 333.22 128.447 355.285 C 126.977 361.901 129.182 368.523 134.33 373.67 C 139.479 378.082 146.097 380.288 152.717 380.288 C 179.928 380.288 206.403 342.783 224.79 311.156 C 240.234 306.009 264.504 298.654 288.774 294.241 C 317.455 319.246 342.46 322.922 355.699 322.922 C 373.349 322.922 379.969 315.569 382.175 308.949 C 385.851 301.597 383.645 293.506 378.499 287.623 L 378.499 287.623 Z  M 360.11 300.126 C 359.375 305.274 352.758 310.421 340.99 307.48 C 327.016 303.804 314.514 297.184 303.483 288.358 C 313.044 286.886 334.37 284.68 349.816 287.623 C 355.699 289.093 361.582 292.771 360.11 300.126 L 360.11 300.126 Z  M 237.293 148.625 C 238.764 146.419 240.971 144.949 243.177 144.949 C 249.795 144.949 251.266 153.038 251.266 159.658 C 250.53 175.104 247.588 190.546 242.442 205.255 C 231.409 175.837 233.616 155.243 237.293 148.625 Z  M 235.823 291.3 C 241.706 279.534 249.797 258.94 252.738 250.114 C 259.356 261.144 270.387 274.384 276.272 280.268 C 276.272 281.004 253.473 285.416 235.823 291.3 Z  M 192.431 320.718 C 175.517 348.664 157.865 366.314 148.304 366.314 C 146.834 366.314 145.362 365.579 143.891 364.844 C 141.684 363.372 140.949 361.166 141.684 358.225 C 143.891 347.929 163.013 333.955 192.431 320.718 L 192.431 320.718 Z " fill="rgb(255,255,255)"/></g></svg>