<?xml version="1.0" encoding="UTF-8" standalone="no"?><!-- Generator: Gravit.io --><svg xmlns="http://www.w3.org/2000/svg" xmlns:xlink="http://www.w3.org/1999/xlink" style="isolation:isolate" viewBox="0 0 512 512" width="512pt" height="512pt"><defs><clipPath id="_clipPath_3S03OjkjaeRwKCjVHujCaKyvI89yVU8S"><rect width="512" height="512"/></clipPath></defs><g clip-path="url(#_clipPath_3S03OjkjaeRwKCjVHujCaKyvI89yVU8S)"><rect x="0" y="0" width="512" height="512" transform="matrix(1,0,0,1,0,0)" fill="rgb(27,27,29)"/><path d=" M 128 263.522 C 128.774 225.402 142.964 193.281 171.409 167.675 C 188.437 152.323 208.367 142.326 230.942 138.069 C 270.997 130.587 307.052 139.746 338.399 165.74 C 360.136 183.8 374.132 206.955 380.647 234.497 C 383.743 247.461 384.71 260.684 383.485 273.971 C 380.518 307.253 366.65 335.181 342.269 357.885 C 335.045 364.658 326.983 370.334 318.34 375.171 C 317.05 375.881 315.76 376.074 314.534 375.171 C 313.438 374.333 313.115 373.236 313.373 371.882 C 313.631 370.721 314.405 370.076 315.373 369.56 C 322.274 365.69 328.789 361.239 334.723 356.079 C 356.008 337.697 369.617 314.735 375.229 287.193 C 377.422 276.422 378.131 265.521 377.228 254.621 C 375.1 227.66 365.231 203.924 347.429 183.542 C 330.143 163.74 308.536 150.84 282.929 144.906 C 268.288 141.487 253.453 140.971 238.553 143.1 C 191.21 150.13 152.188 184.187 139.03 230.304 C 134.773 245.139 133.225 260.232 135.031 275.583 C 139.933 317.057 160.573 348.404 196.564 369.624 C 197.08 369.947 197.596 370.14 198.047 370.463 C 199.66 371.43 200.24 373.236 199.402 374.784 C 198.563 376.397 196.693 376.913 194.951 376.01 C 190.501 373.623 186.179 370.979 182.051 368.012 C 155.413 348.791 138.385 323.12 130.967 291.128 C 128.968 282.033 128.065 272.81 128 263.522 Z  M 368.714 262.877 C 367.94 296.61 355.298 324.99 330.014 347.565 C 324.274 352.725 317.888 357.111 311.18 360.917 C 309.89 361.626 308.665 361.755 307.439 360.852 C 306.343 360.078 306.02 358.982 306.214 357.692 C 306.407 356.466 307.246 355.821 308.213 355.241 C 314.405 351.758 320.21 347.694 325.564 342.986 C 343.688 326.99 355.621 307.253 360.136 283.452 C 366.392 250.751 358.975 221.145 337.948 195.281 C 321.952 175.608 301.183 163.095 276.157 158.451 C 243.649 152.388 214.172 159.805 188.501 180.704 C 168.571 196.893 156.187 217.92 151.478 243.269 C 144.254 282.42 159.089 321.572 190.049 346.082 C 194.693 349.758 199.66 353.048 204.884 355.95 C 206.368 356.789 206.948 357.95 206.69 359.433 C 206.497 360.659 205.465 361.691 204.11 361.949 C 203.078 362.142 202.24 361.691 201.401 361.239 C 184.115 351.564 170.248 338.342 159.863 321.507 C 151.349 307.64 145.931 292.547 144.125 276.357 C 140.449 243.398 149.35 214.05 171.022 188.895 C 188.308 169.094 210.044 156.387 235.973 152.13 C 276.737 145.422 311.567 157.354 339.689 187.605 C 354.395 203.408 363.232 222.306 367.037 243.527 C 368.134 249.912 368.65 256.362 368.714 262.877 Z  M 353.363 266.424 C 352.009 298.868 336.142 327.119 304.601 346.34 C 304.021 346.727 303.44 347.114 302.666 347.178 C 301.118 347.307 299.764 346.533 299.248 345.05 C 298.732 343.631 299.312 342.147 300.667 341.309 C 302.666 340.083 304.666 338.922 306.601 337.568 C 327.757 322.926 341.173 303.06 345.494 277.647 C 350.203 249.912 343.366 225.015 325.306 203.472 C 311.696 187.218 294.346 176.898 273.512 173.028 C 245.132 167.739 219.526 174.318 197.338 192.83 C 181.471 206.052 171.28 223.016 167.152 243.333 C 161.476 271.068 167.539 296.223 184.825 318.605 C 192.178 328.151 201.337 335.762 211.915 341.631 C 213.527 342.534 214.172 343.695 213.914 345.114 C 213.721 346.469 212.689 347.501 211.27 347.759 C 210.367 347.952 209.528 347.565 208.754 347.178 C 188.888 335.955 174.505 319.766 165.862 298.674 C 160.057 284.613 157.928 269.972 158.96 254.879 C 161.992 212.954 192.565 177.221 233.651 167.481 C 283.381 155.742 333.884 184.574 348.977 233.4 C 351.88 242.817 353.234 252.363 353.363 266.424 Z  M 174.118 262.167 C 174.182 222.371 201.982 188.573 240.23 181.091 C 283.445 172.641 325.951 200.118 335.819 242.946 C 343.882 277.905 328.208 314.154 297.248 332.15 C 295.313 333.246 293.507 332.988 292.475 331.376 C 291.443 329.699 292.024 327.893 293.959 326.732 C 309.697 317.315 320.984 304.092 327.112 286.806 C 342.463 243.656 316.469 197.28 271.706 187.541 C 231.265 178.769 190.823 204.956 182.18 245.397 C 175.279 277.841 189.92 310.542 218.752 327.119 C 220.622 328.215 221.396 329.376 221.074 330.86 C 220.622 333.182 218.236 334.149 216.043 332.859 C 210.431 329.699 205.207 325.958 200.498 321.507 C 186.824 308.736 178.439 293.063 175.214 274.616 C 174.44 270.294 174.182 265.844 174.118 262.167 Z  M 322.661 260.813 C 321.758 285.452 311.18 304.544 290.282 317.831 C 287.896 319.314 285.38 318.153 284.993 315.96 C 284.735 314.541 285.316 313.38 286.928 312.413 C 291.572 309.639 295.765 306.285 299.506 302.351 C 309.697 291.579 315.373 278.808 316.147 263.909 C 317.63 233.271 296.539 206.826 266.353 201.408 C 235.006 195.797 204.11 216.566 197.338 247.655 C 191.726 273.519 203.078 299.319 225.911 312.735 C 227.266 313.509 228.298 314.477 228.233 316.154 C 228.104 318.605 225.524 319.83 223.202 318.54 C 218.042 315.638 213.398 312.09 209.27 307.962 C 198.499 297.126 191.984 284.033 190.049 268.875 C 185.663 234.497 209.012 202.311 243.262 195.539 C 277.769 188.702 311.761 210.116 320.533 244.172 C 321.887 249.59 322.532 255.137 322.661 260.813 Z  M 204.884 262.296 C 204.626 236.432 221.654 215.211 245.068 210.116 C 273.512 203.924 301.376 222.564 306.472 251.331 C 310.084 271.649 300.667 292.676 283.123 303.447 C 281.252 304.608 279.382 304.35 278.35 302.738 C 277.318 301.125 277.834 299.255 279.769 298.029 C 291.25 290.547 298.216 280.098 300.409 266.553 C 303.376 247.977 293.636 229.014 276.866 220.307 C 250.486 206.697 218.752 221.468 212.237 250.428 C 208.109 268.875 216.365 288.161 232.555 298.158 C 232.942 298.416 233.393 298.674 233.78 298.932 C 235.264 299.964 235.651 301.77 234.748 303.254 C 233.845 304.673 232.039 305.189 230.491 304.35 C 227.008 302.415 223.847 300.029 220.945 297.255 C 210.431 287.193 205.142 274.745 204.884 262.296 Z  M 220.235 261.071 C 220.3 241.463 233.587 226.241 251.195 223.854 C 270.416 221.274 288.347 234.368 291.314 253.653 C 293.572 268.424 288.154 280.356 276.028 289.064 C 274.286 290.354 272.351 290.031 271.255 288.419 C 270.223 286.871 270.739 285.065 272.48 283.775 C 281.897 277.002 286.219 267.843 285.316 256.298 C 284.413 244.236 274.802 233.4 262.87 230.691 C 246.229 226.886 230.233 237.335 227.008 254.04 C 224.75 265.586 230.039 277.583 240.166 284.162 C 241.262 284.871 242.165 285.581 242.294 287 C 242.359 288.225 241.907 289.257 240.875 289.902 C 239.714 290.612 238.553 290.547 237.392 289.902 C 233.522 287.58 230.233 284.613 227.524 281.001 C 222.686 274.68 220.3 267.392 220.235 261.071 Z  M 256.033 238.302 C 264.74 238.302 272.48 243.785 275.318 251.912 C 278.156 260.039 275.576 269.133 268.997 274.487 C 267.643 275.583 266.224 275.712 264.998 274.874 C 263.837 274.164 263.321 272.745 263.708 271.391 C 263.902 270.552 264.418 270.036 265.063 269.52 C 269.513 265.65 271.126 260.748 269.642 255.137 C 268.159 249.396 264.224 245.978 258.484 244.817 C 252.421 243.591 246.035 246.945 243.326 252.686 C 240.617 258.362 242.101 265.328 246.874 269.391 C 247.261 269.714 247.712 270.036 248.099 270.359 C 249.583 271.52 249.905 273.326 248.873 274.809 C 247.777 276.293 245.971 276.615 244.358 275.454 C 240.23 272.552 237.521 268.617 236.231 263.78 C 232.877 250.88 242.681 238.302 256.033 238.302 Z  M 260.677 258.555 C 260.677 261.2 258.548 263.264 255.839 263.264 C 253.195 263.199 251.131 261.071 251.195 258.426 C 251.26 255.846 253.388 253.782 255.968 253.782 C 258.548 253.782 260.677 255.911 260.677 258.555 Z " fill-rule="evenodd" fill="rgb(237,29,36)"/></g></svg>