<?xml version="1.0" encoding="UTF-8" standalone="no"?><!-- Generator: Gravit.io --><svg xmlns="http://www.w3.org/2000/svg" xmlns:xlink="http://www.w3.org/1999/xlink" style="isolation:isolate" viewBox="0 0 512 512" width="512pt" height="512pt"><defs><clipPath id="_clipPath_wUM0QVWjxjDaCK3oUTjVRaEcdGeCx6q6"><rect width="512" height="512"/></clipPath></defs><g clip-path="url(#_clipPath_wUM0QVWjxjDaCK3oUTjVRaEcdGeCx6q6)"><rect x="0" y="0" width="512" height="512" transform="matrix(1,0,0,1,0,0)" fill="rgb(27,27,29)"/><path d=" M 209.436 383.983 L 209.436 213.084 L 202.259 213.084 L 158.722 241.91 L 158.722 249.206 L 201.766 221.026 L 202.276 221.026 L 202.276 384 L 209.436 384 L 209.436 383.983 Z  M 251.969 213.084 L 251.969 219.631 L 345.846 219.631 L 345.846 220.142 L 270.456 384 L 278.517 384 L 353.278 220.006 L 353.278 213.084 L 251.969 213.084 L 251.969 213.084 Z  M 139.08 179.564 L 139.08 142.609 L 139.216 142.609 L 153.824 175.788 L 158.671 175.788 L 173.229 142.609 L 173.399 142.609 L 173.399 179.564 L 178.246 179.564 L 178.246 130.619 L 173.11 130.619 L 156.341 169.836 L 156.205 169.836 L 139.386 130.636 L 134.25 130.636 L 134.25 179.564 L 139.08 179.564 L 139.08 179.564 Z  M 204.589 141.384 C 194.368 141.384 188.688 148.816 188.688 158.884 L 188.688 162.574 C 188.688 172.693 194.317 180.159 204.589 180.159 C 214.844 180.159 220.439 172.693 220.439 162.574 L 220.439 158.884 C 220.456 148.816 214.776 141.384 204.589 141.384 L 204.589 141.384 Z  M 204.589 146.01 C 211.256 146.01 215.167 150.993 215.167 159.139 L 215.167 162.302 C 215.167 170.482 211.256 175.465 204.589 175.465 C 197.872 175.465 193.977 170.448 193.977 162.302 L 193.977 159.139 C 193.977 151.01 197.889 146.01 204.589 146.01 L 204.589 146.01 Z  M 230.32 179.564 L 235.592 179.564 L 235.592 156.554 C 235.592 151.18 238.534 146.214 245.422 146.214 C 251.306 146.214 255.082 149.768 255.082 156.18 L 255.082 179.53 L 260.354 179.53 L 260.354 155.381 C 260.354 146.265 254.571 141.35 246.833 141.35 C 240.66 141.35 237.14 144.581 235.745 147.098 L 235.592 147.098 L 235.592 141.962 L 230.32 141.962 L 230.32 179.564 L 230.32 179.564 Z  M 284.622 141.35 C 275.285 141.35 269.588 148.629 269.588 158.816 L 269.588 162.659 C 269.588 173.033 274.86 180.125 284.622 180.125 C 290.013 180.125 293.874 177.404 295.88 173.697 L 296.016 173.697 L 296.016 179.547 L 300.999 179.547 L 300.999 128 L 295.727 128 L 295.727 147.37 L 295.591 147.37 C 293.772 144.122 289.894 141.35 284.622 141.35 L 284.622 141.35 Z  M 285.098 146.061 C 291.765 146.061 295.863 151.299 295.863 159.054 L 295.863 162.54 C 295.863 170.618 291.884 175.448 285.166 175.448 C 279.214 175.448 274.877 171.112 274.877 162.506 L 274.877 159.105 C 274.86 150.33 279.282 146.061 285.098 146.061 L 285.098 146.061 Z  M 333.635 174.683 L 333.771 174.683 L 333.771 179.564 L 338.907 179.564 L 338.907 153.442 C 338.907 145.721 333.244 141.384 325.421 141.384 C 316.713 141.384 312.224 145.942 311.782 152.472 L 316.765 152.472 C 317.19 148.493 320.03 145.942 325.2 145.942 C 330.54 145.942 333.635 148.782 333.635 154.054 L 333.635 158.102 L 323.414 158.102 C 314.843 158.136 310.319 162.302 310.319 168.799 C 310.319 175.686 315.302 180.176 322.598 180.176 C 328.329 180.159 331.832 177.693 333.635 174.683 L 333.635 174.683 Z  M 323.839 175.618 C 319.605 175.618 315.761 173.357 315.761 168.697 C 315.761 165.04 318.091 162.421 323.584 162.421 L 333.635 162.421 L 333.635 167.047 C 333.635 172.098 329.434 175.618 323.839 175.618 Z  M 377.75 141.996 L 372.121 141.996 L 361.39 173.425 L 361.203 173.425 L 350.472 141.996 L 344.604 141.996 L 358.635 180.159 L 357.92 182.455 C 356.815 186.333 354.91 188.594 350.489 188.594 C 349.672 188.594 348.329 188.492 347.733 188.373 L 347.733 192.863 C 348.669 192.999 350.063 193.152 351.322 193.152 C 358.635 193.152 361.152 188.135 363.124 182.71 L 364.196 179.904 L 377.75 141.996 L 377.75 141.996 Z " fill-rule="evenodd" fill="rgb(237,29,36)"/></g></svg>