<?xml version="1.0" encoding="UTF-8" standalone="no"?><!-- Generator: Gravit.io --><svg xmlns="http://www.w3.org/2000/svg" xmlns:xlink="http://www.w3.org/1999/xlink" style="isolation:isolate" viewBox="0 0 512 512" width="512pt" height="512pt"><defs><clipPath id="_clipPath_pL3XUeZlPW4C96CS5NOX1ZjFbBsvwLWR"><rect width="512" height="512"/></clipPath></defs><g clip-path="url(#_clipPath_pL3XUeZlPW4C96CS5NOX1ZjFbBsvwLWR)"><path d="M 477.714 383.995 L 256.005 512 L 34.286 383.995 L 34.286 127.985 L 256.005 0 L 477.714 127.985 L 477.714 383.995 Z" fill-rule="evenodd" fill="rgb(237,29,36)" /><path d=" M 185.02 128 L 185.901 384 C 204.588 380.401 219.282 380.794 235.867 379.297 L 235.867 128.294 L 185.02 128 Z " fill="rgb(255,255,255)"/><path d=" M 275.545 128.294 L 326.393 128.294 L 326.98 383.412 L 275.251 374.889 L 275.545 128.294 Z " fill="rgb(255,255,255)"/><path d=" M 185.607 128.294 C 186.783 131.233 273.782 378.71 273.782 378.71 C 288.077 378.607 307.246 380.942 326.099 383.118 L 235.573 128.294 L 185.607 128.294 Z " fill="rgb(255,255,255)"/></g></svg>