<?xml version="1.0" encoding="UTF-8" standalone="no"?><!-- Generator: Gravit.io --><svg xmlns="http://www.w3.org/2000/svg" xmlns:xlink="http://www.w3.org/1999/xlink" style="isolation:isolate" viewBox="0 0 512 512" width="512pt" height="512pt"><defs><clipPath id="_clipPath_LiSs7MvG0DnFRsL3dtdB2ZxTgUunxvkD"><rect width="512" height="512"/></clipPath></defs><g clip-path="url(#_clipPath_LiSs7MvG0DnFRsL3dtdB2ZxTgUunxvkD)"><circle vector-effect="non-scaling-stroke" cx="256" cy="256" r="256" fill="rgb(0,103,79)" /><path d=" M 181.076 128 L 330.924 128 C 360.328 128 384 151.673 384 181.077 L 384 330.923 C 384 360.327 360.328 384 330.924 384 L 181.076 384 C 151.672 384 128 360.327 128 330.923 L 128 181.077 C 128 151.673 151.672 128 181.076 128 Z  M 199.588 173.833 C 197.202 173.833 195.703 174.382 194.44 175.645 L 168.859 201.226 C 168.384 201.701 168.117 202.346 168.117 203.017 C 168.116 204.416 169.25 205.55 170.649 205.55 L 281.544 205.55 L 213.369 273.724 C 212.025 275.068 211.243 275.849 211.244 278.486 L 211.243 296.423 C 211.244 297.509 211.738 298.451 212.447 299.16 C 213.156 299.869 214.096 300.362 215.182 300.362 L 233.121 300.362 C 235.757 300.362 236.538 299.581 237.881 298.238 L 306.057 230.062 L 306.057 340.957 C 306.057 342.356 307.191 343.49 308.589 343.49 C 309.261 343.49 309.906 343.223 310.381 342.748 L 335.962 317.167 C 337.225 315.904 337.773 314.404 337.773 312.019 L 337.773 190.928 C 337.773 186.394 335.972 182.046 332.766 178.84 C 329.56 175.634 325.211 173.833 320.678 173.833 L 199.588 173.833 Z  M 177.861 305.347 L 202.467 305.347 C 204.526 305.347 206.183 307.004 206.183 309.062 L 206.183 333.822 C 206.183 335.881 204.526 337.538 202.467 337.538 L 177.861 337.538 C 175.803 337.538 174.146 335.881 174.146 333.822 L 174.146 309.062 C 174.146 307.004 175.803 305.347 177.861 305.347 Z " fill-rule="evenodd" fill="rgb(196,196,196)"/></g></svg>