<?xml version="1.0" encoding="UTF-8" standalone="no"?><!-- Generator: Gravit.io --><svg xmlns="http://www.w3.org/2000/svg" xmlns:xlink="http://www.w3.org/1999/xlink" style="isolation:isolate" viewBox="0 0 512 512" width="512pt" height="512pt"><defs><clipPath id="_clipPath_VnNwTaQuBCLBwzo0tquCZmYD0spfBGyi"><rect width="512" height="512"/></clipPath></defs><g clip-path="url(#_clipPath_VnNwTaQuBCLBwzo0tquCZmYD0spfBGyi)"><path d="M 477.714 383.995 L 256.005 512 L 34.286 383.995 L 34.286 127.985 L 256.005 0 L 477.714 127.985 L 477.714 383.995 Z" fill-rule="evenodd" fill="rgb(102,0,51)" /><path d=" M 297.561 319.592 C 296.072 331.886 288.622 341.732 277.083 346.663 C 270.657 349.409 262.028 350.892 255.199 350.426 C 244.545 350.019 234.535 347.428 225.309 342.692 C 222.013 340.999 217.099 337.618 213.326 334.452 C 212.371 333.652 212.257 333.139 212.89 332.242 C 213.231 331.728 213.861 330.799 215.252 328.76 C 217.27 325.803 217.522 325.433 217.749 325.086 C 218.395 324.095 219.444 324.008 220.478 324.823 C 220.587 324.907 220.587 324.907 220.669 324.972 C 220.839 325.103 220.839 325.103 221.239 325.414 C 221.645 325.73 221.885 325.917 221.982 325.99 C 231.933 333.783 243.521 338.277 255.221 338.727 C 271.498 338.505 283.203 331.186 285.3 319.948 C 287.606 307.58 277.897 296.896 258.902 290.941 C 252.961 289.079 237.945 283.068 235.176 281.444 C 222.174 273.815 216.095 263.823 216.959 251.481 C 218.283 234.372 234.165 221.612 254.234 221.527 C 263.208 221.508 272.164 223.373 280.767 226.999 C 283.813 228.283 289.253 231.242 291.13 232.644 C 292.212 233.439 292.426 234.364 291.806 235.363 C 291.459 235.942 290.887 236.86 289.681 238.774 L 289.667 238.795 C 288.079 241.316 288.03 241.395 287.665 241.985 C 287.036 242.943 286.296 243.032 285.161 242.312 C 275.955 236.128 265.749 233.016 254.524 232.791 C 240.55 233.068 230.077 241.384 229.388 252.714 C 229.205 262.946 236.88 270.416 253.457 276.112 C 287.108 286.926 299.985 299.603 297.561 319.592 M 256.004 142.948 C 277.912 142.948 295.769 163.738 296.605 189.763 L 215.404 189.763 C 216.239 163.738 234.097 142.948 256.004 142.948 Z  M 369.385 194.656 C 369.385 191.954 367.208 189.763 364.524 189.763 L 311.892 189.763 C 310.601 155.4 286.073 128 256.004 128 C 225.936 128 201.408 155.4 200.116 189.763 L 147.409 189.764 C 144.766 189.812 142.638 191.985 142.638 194.656 C 142.638 194.784 142.643 194.911 142.652 195.036 L 142.615 195.036 L 150.129 360.661 C 150.13 361.122 150.147 361.587 150.181 362.054 C 150.189 362.16 150.197 362.264 150.206 362.369 L 150.222 362.719 L 150.24 362.737 C 151.382 374.262 159.746 383.545 171.119 383.973 L 171.145 383.998 L 338.338 383.998 C 338.417 383.999 338.496 384 338.575 384 C 338.655 384 338.734 383.999 338.813 383.998 L 339.169 383.998 L 339.176 383.991 C 350.748 383.675 360.121 374.263 361.111 362.596 L 361.117 362.59 L 361.124 362.434 C 361.134 362.311 361.143 362.189 361.15 362.066 C 361.169 361.772 361.181 361.479 361.186 361.188 L 369.384 194.909 L 369.378 194.909 C 369.383 194.825 369.385 194.741 369.385 194.656" fill-rule="evenodd" fill="rgb(255,255,255)"/></g></svg>