<?xml version="1.0" encoding="UTF-8" standalone="no"?><!-- Generator: Gravit.io --><svg xmlns="http://www.w3.org/2000/svg" xmlns:xlink="http://www.w3.org/1999/xlink" style="isolation:isolate" viewBox="0 0 512 512" width="512pt" height="512pt"><defs><clipPath id="_clipPath_abETvynNT0Y2PkJp09Ql6UDnwXAZyKlq"><rect width="512" height="512"/></clipPath></defs><g clip-path="url(#_clipPath_abETvynNT0Y2PkJp09Ql6UDnwXAZyKlq)"><path d="M 477.714 383.995 L 256.005 512 L 34.286 383.995 L 34.286 127.985 L 256.005 0 L 477.714 127.985 L 477.714 383.995 Z" fill-rule="evenodd" fill="rgb(237,29,36)" /><path d=" M 384 192.703 L 128 192.703 L 128 319.297 L 257.407 319.297 M 254.593 218.022 L 254.593 277.662 L 232.651 218.022 L 210.708 218.022 L 192.141 267.534 C 189.89 255.156 176.949 250.655 166.822 247.279 C 160.07 245.029 152.756 242.215 152.756 238.277 C 152.756 235.464 156.695 232.651 164.009 233.213 C 169.073 233.776 173.574 233.776 182.576 238.277 L 191.578 223.086 C 183.138 218.585 171.886 216.334 162.884 216.334 C 152.193 216.334 143.191 219.71 137.565 225.336 C 133.626 229.275 131.938 234.338 131.376 239.965 C 131.376 247.842 134.189 253.468 140.378 257.969 C 145.442 261.345 151.631 263.596 157.257 265.284 C 164.571 267.534 170.198 269.785 170.198 273.723 C 169.635 278.787 164.009 279.912 160.07 279.912 C 153.319 280.475 147.692 279.349 139.253 274.286 L 131.376 289.477 C 139.815 294.541 148.818 296.791 159.508 296.791 C 166.822 296.791 178.075 294.541 184.264 288.914 L 183.138 293.978 L 204.519 293.978 L 208.457 284.413 C 216.897 286.664 226.462 287.226 234.901 284.413 L 237.714 293.978 L 275.974 293.978 L 275.974 271.473 L 283.851 271.473 C 303.543 271.473 315.358 261.908 315.358 245.029 C 315.358 225.899 304.105 218.022 279.912 218.022 L 254.593 218.022 Z  M 213.521 267.534 L 221.398 242.215 L 221.96 242.215 L 229.837 267.534 C 224.211 269.222 218.585 269.222 213.521 267.534 Z  M 275.974 254.593 L 275.974 234.338 L 281.6 234.338 C 288.914 234.338 294.541 236.589 294.541 243.903 C 294.541 251.78 288.914 254.593 281.6 254.593 L 275.974 254.593 Z " fill-rule="evenodd" fill="rgb(239,191,4)"/></g></svg>