<?xml version="1.0" encoding="UTF-8" standalone="no"?><!-- Generator: Gravit.io --><svg xmlns="http://www.w3.org/2000/svg" xmlns:xlink="http://www.w3.org/1999/xlink" style="isolation:isolate" viewBox="0 0 512 512" width="512pt" height="512pt"><defs><clipPath id="_clipPath_IDZelDgkOeMcsRr9NnPlw70aUZfHI1P6"><rect width="512" height="512"/></clipPath></defs><g clip-path="url(#_clipPath_IDZelDgkOeMcsRr9NnPlw70aUZfHI1P6)"><rect width="512" height="512" style="fill:rgb(237,29,36)"/><path d=" M 256 127.996 C 183.904 127.996 128 180.828 128 252.156 C 128 289.468 143.296 321.724 168.192 343.996 C 170.272 345.852 171.552 348.476 171.616 351.292 L 172.32 374.076 C 172.424 377.481 174.214 380.61 177.095 382.426 C 179.976 384.242 183.572 384.507 186.688 383.132 L 212.096 371.932 C 214.24 370.972 216.672 370.812 218.944 371.42 C 230.624 374.62 243.04 376.348 256 376.348 C 328.096 376.348 384 323.516 384 252.188 C 384 180.86 328.096 127.996 256 127.996 Z  M 179.136 288.476 L 216.736 228.828 C 219.596 224.288 224.225 221.152 229.502 220.179 C 234.778 219.206 240.221 220.486 244.512 223.708 L 274.432 246.14 C 277.176 248.195 280.95 248.182 283.68 246.108 L 324.064 215.452 C 329.44 211.356 336.48 217.82 332.896 223.548 L 295.264 283.164 C 292.404 287.705 287.775 290.841 282.498 291.814 C 277.222 292.787 271.779 291.507 267.488 288.284 L 237.568 265.852 C 234.824 263.798 231.05 263.811 228.32 265.884 L 187.936 296.54 C 182.56 300.636 175.52 294.204 179.136 288.476 L 179.136 288.476 Z " fill-rule="evenodd" fill="rgb(255,255,255)"/></g></svg>