<?xml version="1.0" encoding="UTF-8" standalone="no"?><!-- Generator: Gravit.io --><svg xmlns="http://www.w3.org/2000/svg" xmlns:xlink="http://www.w3.org/1999/xlink" style="isolation:isolate" viewBox="0 0 512 512" width="512pt" height="512pt"><defs><clipPath id="_clipPath_mo9X6AEiqMqnFekH2Jv4MBOXXohUXbqv"><rect width="512" height="512"/></clipPath></defs><g clip-path="url(#_clipPath_mo9X6AEiqMqnFekH2Jv4MBOXXohUXbqv)"><circle vector-effect="non-scaling-stroke" cx="256" cy="256" r="256" fill="rgb(239,191,4)" /><path d=" M 288.09 305.919 L 316.032 296.604 C 323.893 293.985 332.521 295.113 339.44 299.668 L 373.901 322.346 C 384.583 329.376 387.231 343.897 379.724 354.25 L 364.136 375.735 C 337.047 402.824 266.535 359.398 209.568 302.431 C 152.602 245.464 109.175 174.948 136.265 147.863 L 157.749 132.276 C 168.098 124.768 182.623 127.42 189.653 138.099 L 212.332 172.56 C 216.887 179.482 218.015 188.11 215.396 195.968 L 206.08 223.909 C 204.017 230.103 204.981 236.927 208.728 242.277 C 225.485 266.183 245.817 286.514 269.723 303.271 C 275.068 307.014 281.896 307.982 288.09 305.919 Z " fill="rgb(237,29,36)"/></g></svg>