<?xml version="1.0" encoding="UTF-8" standalone="no"?><!-- Generator: Gravit.io --><svg xmlns="http://www.w3.org/2000/svg" xmlns:xlink="http://www.w3.org/1999/xlink" style="isolation:isolate" viewBox="0 0 512 512" width="512pt" height="512pt"><defs><clipPath id="_clipPath_tZVvgXHiH62YMB5LIrU3ilO2npWgwgIT"><rect width="512" height="512"/></clipPath></defs><g clip-path="url(#_clipPath_tZVvgXHiH62YMB5LIrU3ilO2npWgwgIT)"><path d="M 477.714 383.995 L 256.005 512 L 34.286 383.995 L 34.286 127.985 L 256.005 0 L 477.714 127.985 L 477.714 383.995 Z" fill-rule="evenodd" fill="rgb(27,27,29)" /><path d=" M 206.284 235.574 L 255.999 185.861 L 305.74 235.6 L 334.667 206.672 L 255.999 128.002 L 177.356 206.646 L 206.284 235.574 Z  M 156.928 227.068 L 185.855 255.995 L 156.927 284.924 L 128 255.997 L 156.928 227.068 Z  M 206.284 276.426 L 255.999 326.139 L 305.738 276.402 L 334.681 305.313 L 334.667 305.33 L 255.999 383.998 L 177.354 305.356 L 177.314 305.315 L 206.284 276.426 Z  M 384 256.009 L 355.072 284.938 L 326.145 256.011 L 355.073 227.082 L 384 256.009 Z  M 285.341 255.985 L 285.353 255.985 L 255.999 226.631 L 234.305 248.324 L 234.303 248.324 L 231.812 250.817 L 226.671 255.959 L 226.671 255.959 L 226.63 255.999 L 226.671 256.041 L 255.999 285.369 L 285.353 256.015 L 285.367 255.999 L 285.341 255.985 Z " fill-rule="evenodd" fill="rgb(85,0,0)"/></g></svg>