<?xml version="1.0" encoding="UTF-8" standalone="no"?><!-- Generator: Gravit.io --><svg xmlns="http://www.w3.org/2000/svg" xmlns:xlink="http://www.w3.org/1999/xlink" style="isolation:isolate" viewBox="0 0 512 512" width="512pt" height="512pt"><defs><clipPath id="_clipPath_jfq8DKnq7SgViuH3jNDLgobz17fzCOY4"><rect width="512" height="512"/></clipPath></defs><g clip-path="url(#_clipPath_jfq8DKnq7SgViuH3jNDLgobz17fzCOY4)"><circle vector-effect="non-scaling-stroke" cx="256" cy="256" r="256" fill="rgb(237,29,36)" /><path d=" M 308.725 362.084 C 279.504 391.305 232.496 391.305 203.275 362.084 L 149.916 308.725 C 120.695 279.504 120.695 232.496 149.916 203.275 L 203.275 149.916 C 232.496 120.695 279.504 120.695 308.725 149.916 L 362.084 203.275 C 391.305 232.496 391.305 279.504 362.084 308.725 L 308.725 362.084 Z  M 224.873 334.134 C 221.062 334.134 217.251 330.323 217.251 326.511 C 217.251 323.97 218.521 322.7 219.792 321.429 C 221.062 320.159 223.603 318.888 224.873 318.888 C 228.685 318.888 232.496 322.7 232.496 326.511 C 232.496 330.323 228.685 334.134 224.873 334.134 C 224.873 334.134 224.873 334.134 224.873 334.134 Z  M 252.824 189.3 C 249.012 189.3 245.201 190.571 242.66 193.112 C 236.308 199.464 233.767 210.898 233.767 227.414 C 233.767 247.742 238.849 287.127 255.365 308.725 C 257.906 312.536 260.447 315.077 264.258 316.347 C 266.799 317.618 270.61 320.159 275.692 320.159 C 276.963 320.159 278.233 320.159 279.504 320.159 C 288.397 317.618 299.831 307.454 308.725 294.749 C 309.995 292.208 312.536 290.938 315.077 290.938 C 316.347 290.938 317.618 290.938 318.888 292.208 C 320.159 293.479 321.429 294.749 321.429 296.02 C 321.429 297.29 321.429 299.831 320.159 301.102 C 308.725 318.888 294.749 330.323 282.045 332.864 C 282.045 332.864 282.045 332.864 282.045 332.864 C 279.504 332.864 276.963 334.134 274.422 334.134 C 265.529 334.134 260.447 330.323 255.365 327.782 C 251.553 325.241 247.742 321.429 243.931 316.347 C 221.062 287.127 219.792 232.496 219.792 227.414 C 219.792 213.439 221.062 193.112 232.496 181.677 C 237.578 176.596 245.201 174.055 252.824 174.055 L 254.094 174.055 C 261.717 174.055 269.34 176.596 274.422 181.677 C 285.856 193.112 288.397 212.169 287.127 227.414 C 287.127 242.66 284.586 271.881 268.069 297.29 C 266.799 299.831 264.258 301.102 261.717 301.102 C 260.447 301.102 259.176 301.102 257.906 299.831 C 254.094 297.29 254.094 293.479 255.365 289.668 C 266.799 271.881 271.881 251.553 271.881 226.144 C 271.881 209.628 269.34 196.923 262.988 191.841 C 261.717 190.571 259.176 189.3 252.824 189.3 L 252.824 189.3 Z " fill-rule="evenodd" fill="rgb(255,255,255)"/></g></svg>