<?xml version="1.0" encoding="UTF-8" standalone="no"?><!-- Generator: Gravit.io --><svg xmlns="http://www.w3.org/2000/svg" xmlns:xlink="http://www.w3.org/1999/xlink" style="isolation:isolate" viewBox="0 0 512 512" width="512pt" height="512pt"><defs><clipPath id="_clipPath_98pv63EMHpeCv7ahZYJ2xMDj9mi6Hlb7"><rect width="512" height="512"/></clipPath></defs><g clip-path="url(#_clipPath_98pv63EMHpeCv7ahZYJ2xMDj9mi6Hlb7)"><path d="M 477.714 383.995 L 256.005 512 L 34.286 383.995 L 34.286 127.985 L 256.005 0 L 477.714 127.985 L 477.714 383.995 Z" fill-rule="evenodd" fill="rgb(239,191,4)" /><path d=" M 328.932 128 C 328.586 128.096 328.541 128.497 328.45 128.804 C 328.638 131.504 327.959 133.762 327.715 136.085 C 327.285 139.227 326.126 142.219 325.349 145.272 C 321.384 158.274 315.147 170.208 306.447 181.285 C 295.891 195.471 281.522 205.635 267.057 215.553 C 264.821 217.082 262.566 218.61 260.35 220.146 C 256.386 223.238 252.237 226.288 249.763 230.781 C 248.132 233.827 246.812 237.308 245.606 240.542 C 244.422 244.403 242.658 248.447 240.024 251.681 C 237.822 254.405 235.014 256.57 231.434 257.607 C 230.714 257.555 229.602 258.135 229.114 257.308 C 228.974 256.832 229.2 256.447 229.551 256.16 C 231.857 255.179 233.718 253.595 235.178 251.681 C 236.463 249.998 237.433 248.046 238.118 246.054 C 240.485 239.001 242.137 231.603 245.812 225.085 C 247.647 221.585 249.901 218.453 252.427 215.553 C 258.334 208.762 265.671 203.233 272.477 197.271 C 274.267 196.019 275.976 194.284 277.714 192.93 C 285.937 185.573 293.715 177.233 299.281 167.803 C 301.405 163.929 303.239 159.863 303.76 155.423 C 304.689 150.247 303.905 144.324 299.534 141.504 C 298.027 140.53 296.534 139.033 294.642 139.277 C 294.263 139.367 294.07 139.712 294.205 140.103 C 296.573 143.478 297.204 148.461 295.997 152.414 C 293.189 162.471 287.295 171.331 280.425 179.447 C 271.529 190.524 259.765 198.782 249.372 208.501 C 248.013 209.951 246.316 211.239 245.261 212.888 C 244.446 213.742 243.684 214.633 242.987 215.552 C 240.137 219.294 238.141 223.552 236.556 227.817 C 234.619 233.667 233.382 239.763 231.779 245.709 C 231.547 247.158 230.727 248.322 230.24 249.637 C 229.724 250.389 229.068 251.324 228.218 251.681 C 227.873 251.833 227.506 251.886 227.093 251.795 C 226.996 251.755 226.892 251.725 226.795 251.681 C 225.522 251.029 224.799 249.589 224.521 248.282 C 221.91 236.626 227.469 226.234 234.627 217.734 C 235.226 216.996 235.853 216.272 236.464 215.552 C 240.792 210.574 245.468 205.853 248.844 200.371 C 251.313 196.265 252.176 190.374 249.418 186.268 C 248.598 184.382 246.816 183.03 245.077 182.203 C 244.937 182.01 244.937 181.769 245.077 181.583 C 246.619 181.187 248.014 181.899 249.464 181.95 C 252.959 182.385 256.77 181.858 259.868 180.595 C 261.902 179.586 264.183 178.093 264.76 175.771 C 264.915 174.956 265.334 173.735 264.416 173.107 C 263.685 172.817 263.883 173.782 263.542 174.072 C 261.947 175.753 259.48 176.438 257.111 176.438 C 251.358 175.854 246.147 174.088 240.873 172.349 C 237.057 171.188 233.36 169.869 229.435 169.134 C 225.285 168.709 219.636 167.69 216.871 171.614 C 216.294 172.576 216.546 173.635 217.032 174.6 C 214.711 174.843 212.279 174.747 209.866 174.991 C 209.289 173.253 208.759 171.557 207.983 169.961 C 206.623 170.248 205.321 170.733 203.826 170.535 C 204.987 172.03 205.903 173.673 206.192 175.518 C 202.85 176.526 199.125 177.708 197.142 180.755 C 196.757 181.769 195.894 182.723 196.131 183.833 C 199.37 182.434 202.764 181.321 206.536 181.123 L 206.719 181.284 C 206.719 183.114 206.241 185.052 205.662 186.796 C 204.121 187.221 202.565 186.964 201.069 187.118 C 201.159 187.36 200.818 187.609 200.908 187.899 C 201.151 189.626 203.299 189.489 204.215 190.265 C 203.299 192.101 202.129 194.051 200.678 195.548 C 199.279 194.246 197.401 193.138 195.464 193.228 C 191.738 192.894 188.929 195.733 185.588 196.65 C 184.812 196.944 183.943 196.394 183.268 196.26 C 182.979 197.171 183.618 198.135 184.393 198.718 C 185.016 198.962 185.541 199.589 186.208 199.453 C 187.126 199.927 188.452 199.888 189.607 199.843 C 192.173 199.593 194.05 197.77 196.428 196.949 C 197.436 196.795 198.51 196.113 199.529 196.742 C 199.337 197.427 198.501 197.816 197.967 198.35 C 194.734 200.716 190.71 201.817 188.574 205.539 C 188.042 206.989 187.997 208.729 188.62 210.179 C 189.691 211.871 191.554 212.833 193.535 212.545 C 193.535 212.301 193.373 212.105 193.283 211.924 C 192.456 209.269 195.31 207.526 196.957 205.975 C 198.118 204.678 198.943 202.736 198.06 200.992 C 199.176 200.074 200.235 199.222 201.436 198.35 C 202.122 200.088 203.043 201.734 204.537 203.127 C 206.276 204.623 208.966 205.249 211.129 204.23 C 213.74 203.069 216.358 200.368 216.159 197.317 C 214.896 198.624 213.246 199.549 211.405 199.889 C 210.623 198.972 209.956 198.442 209.039 197.615 C 207.435 196.408 205.324 196.017 203.297 196.398 C 205.035 194.37 206.33 192.21 207.637 189.944 C 210.69 189.645 213.726 189.01 216.779 188.291 C 220.596 187.509 225.197 187.715 227.666 191.001 C 228.153 191.533 228.526 192.31 228.906 193.137 C 230.555 197.821 227.663 202.118 224.519 205.448 C 220.934 209.088 216.971 212.348 212.944 215.554 C 204.42 222.337 195.593 228.864 189.448 238.131 C 187.901 240.158 186.512 242.571 185.497 245.09 C 184.399 247.14 183.496 249.36 182.787 251.682 C 181.059 257.401 180.531 263.703 181.362 269.735 C 181.958 273.999 183.217 278.117 185.198 281.77 C 186.219 283.905 187.481 285.906 188.942 287.788 C 195.008 295.649 204.417 301.364 213.15 304.831 C 223.067 308.936 233.419 311.658 244.157 312.961 L 244.341 313.145 C 245.677 316.497 246.566 320.195 246.798 323.917 C 247.02 327.393 246.651 330.909 245.558 334.229 C 245.406 334.608 245.072 335.05 245.213 335.538 C 246.856 334.949 248.509 333.781 249.715 332.575 C 250.633 331.947 251.075 330.985 251.851 330.21 C 252.037 330.163 252.122 330.263 252.218 330.416 C 253.629 340.621 256.013 350.559 259.706 360.021 C 260.55 362.219 261.489 364.386 262.485 366.521 C 263.018 368.214 264.65 369.505 264.208 371.345 C 263.875 371.776 263.343 372.36 262.715 372.31 C 261.986 372.264 261.162 372.233 260.533 372.034 C 258.551 371.502 256.625 370.567 254.699 370.036 C 251.8 369.56 247.637 367.908 245.213 370.564 C 244.829 371.295 244.833 372.211 245.167 372.976 C 244.3 373.174 243.328 372.941 242.364 373.045 C 240.274 372.988 238.504 374.241 237.587 376.031 C 237.298 376.898 237.284 378.229 237.817 378.994 C 238.152 379.571 238.774 379.912 239.402 379.959 C 239.595 379.805 239.655 379.558 239.7 379.269 C 240.964 376.856 243.824 376.477 246.384 376.421 C 246.571 376.477 246.797 376.659 246.706 376.903 C 245.975 377.531 245.079 377.867 244.501 378.649 C 243.782 379.667 243.368 380.866 243.995 382.117 C 244.528 383.137 245.546 383.909 246.798 383.909 C 247.262 383.921 247.255 384.108 247.441 383.909 C 247.301 382.996 247.87 382.027 248.59 381.291 C 251.682 378.878 255.604 378.408 259.568 378.029 C 266.926 377.399 275.406 377.235 282.536 378.741 C 284.162 379.075 284.116 379.177 284.925 379.568 C 285.979 380.054 287.049 380.91 287.428 382.071 C 288.012 382.161 288.548 381.831 288.99 381.543 C 290.576 380.285 292.073 378.609 291.631 376.535 C 291.479 375.951 291.211 375.589 290.621 374.973 C 288.147 373.049 284.614 373.093 281.617 373.343 C 281.617 373.343 281.521 373.343 281.181 373.343 C 278.724 373.433 276.204 373.393 274.221 372.034 C 271.611 370.007 271.224 366.61 269.881 363.903 C 269.497 362.616 269.13 361.313 268.778 360.021 C 266.332 350.92 264.698 341.647 263.978 332.093 C 263.978 331.893 263.965 331.612 264.208 331.702 C 266.53 333.441 269.094 334.51 271.948 334.941 C 273.353 335.138 275.051 335.183 275.968 334.067 C 274.655 332.86 272.982 331.821 271.719 330.554 C 269.844 328.571 268.274 326.316 267.033 323.916 C 263.761 317.55 262.76 309.997 264.163 302.809 C 261.163 300.396 258.554 298.064 255.802 295.551 C 253.276 293.064 250.724 290.499 248.384 287.787 C 243.728 282.452 239.86 276.575 238.439 269.734 C 238.308 269.117 238.203 268.48 238.117 267.851 C 238.163 266.831 237.658 265.478 238.484 264.612 C 238.621 264.566 238.945 264.505 239.036 264.659 C 239.636 266.364 240.281 268.064 241.011 269.734 C 241.873 271.717 242.83 273.665 243.906 275.545 C 246.385 280.149 249.866 284.072 253.644 287.787 C 259.692 293.71 266.528 299.074 271.421 305.701 C 273.313 308.17 274.66 310.959 275.877 313.809 C 276.892 316.985 277.602 320.448 277.738 323.915 C 277.806 325.562 277.74 327.215 277.531 328.853 C 277.719 329.091 277.91 329.339 278.243 329.243 C 279.07 328.709 279.155 327.79 279.507 326.969 C 279.785 325.95 280.003 324.933 280.172 323.915 C 281.834 314.276 279.068 304.639 273.511 296.858 C 270.856 293.471 267.812 290.533 264.669 287.786 C 258.049 281.964 250.94 276.885 245.905 269.733 C 245.204 268.714 244.535 267.649 243.906 266.54 C 243.617 265.82 242.902 264.858 243.723 264.129 C 243.922 264.077 244.191 264.033 244.388 264.175 L 246.915 266.886 C 247.935 267.882 249.004 268.816 250.085 269.734 C 257.25 275.731 265.628 279.847 275.488 279.541 C 281.254 278.776 286.426 275.815 290.577 271.709 L 290.716 271.135 C 290.625 270.891 290.432 270.744 290.233 270.699 C 285.419 270.885 280.773 270.532 276.292 269.734 C 272.86 269.116 269.535 268.254 266.301 267.184 C 263.356 266.029 260.402 264.994 257.734 263.211 C 257.688 262.967 257.695 262.645 257.849 262.453 C 263.45 262.254 269.583 260.325 272.732 255.149 C 272.682 254.815 272.965 254.268 272.479 254.116 C 268.027 254.455 263.209 254.516 258.905 253.587 C 258.571 253.587 258.468 253.3 258.468 253.013 C 258.52 252.825 258.769 252.712 258.905 252.577 C 261.089 252.446 263.218 252.176 265.267 251.681 C 268.744 250.83 271.989 249.369 274.821 247.064 C 275.694 246.378 275.93 245.326 276.75 244.699 C 277.193 243.82 277.904 242.962 277.416 241.896 C 272.484 242.717 267.645 243.972 262.763 244.216 C 261.556 244.261 260.065 244.322 258.858 244.124 C 258.615 243.835 258.843 243.484 259.041 243.297 C 261.844 242.52 264.701 242.031 267.356 240.977 C 271.129 239.572 274.917 238.118 277.668 234.822 C 278.292 233.479 279.601 232.181 279.024 230.596 C 278.775 230.352 278.536 230.137 278.151 230.229 C 272.737 232.506 267.038 234.262 261.085 235.281 C 260.309 235.235 259.488 235.8 258.903 235.121 C 258.524 234.735 259.241 234.835 259.133 234.5 C 265.375 232.375 271.624 230.343 276.703 225.75 C 278.488 223.812 280.027 221.263 279.551 218.607 C 279.4 218.226 279.074 217.814 278.586 217.872 C 274.237 219.949 269.886 221.979 265.242 223.43 C 264.665 223.43 264.127 224.055 263.542 223.568 C 263.396 223.382 263.39 223.055 263.589 222.902 C 267.219 220.359 270.916 217.966 274.613 215.553 C 278.109 213.276 281.608 210.994 285.017 208.548 C 287.385 206.757 289.841 204.778 292.252 202.989 C 303.239 194.34 313.122 183.504 321.146 171.753 C 322.21 170.213 323.108 168.574 324.224 167.068 C 328.433 159.331 333.028 151.54 334.675 142.745 C 335.299 137.817 333.665 132.734 330.379 128.918 C 329.938 128.533 329.561 128.046 328.932 128 Z  M 337.867 147.132 C 337.703 147.126 337.53 147.171 337.43 147.293 C 336.563 149.416 335.846 151.605 334.972 153.678 C 330.902 162.043 326.455 170.408 320.457 177.748 C 316.109 183.846 310.457 188.912 305.619 194.469 C 305.569 194.666 305.467 195.011 305.619 195.204 C 305.863 195.498 306.295 195.388 306.538 195.388 L 308.904 193.504 C 319.098 184.805 328.871 175.668 336.465 164.404 C 338.878 160.727 339.743 156.084 339.221 151.495 C 338.927 150.092 338.987 148.544 338.256 147.338 C 338.187 147.194 338.031 147.138 337.867 147.132 Z  M 308.33 149.659 C 308.039 149.666 307.768 149.828 307.687 150.049 C 307.687 151.159 307.848 152.216 307.848 153.334 C 306.733 162.033 302.604 169.961 297.49 176.922 C 286.457 192.591 269.893 202.484 256.538 215.783 C 255.775 216.802 254.493 217.53 254.402 218.884 C 254.538 219.036 254.653 219.218 254.885 219.366 C 255.275 219.462 255.5 219.376 255.941 219.274 C 259.862 215.942 263.788 212.939 268.091 209.995 C 271.422 207.582 274.765 205.266 278.151 202.944 C 289.948 194.143 300.966 183.79 308.124 170.651 C 311.409 165.276 313.541 157.456 309.961 151.611 C 309.576 150.924 309.15 150.236 308.629 149.704 C 308.53 149.67 308.428 149.656 308.33 149.659 Z  M 335.271 170.835 C 335.046 170.866 334.817 170.978 334.674 171.179 C 320.787 189.431 301.979 204.164 282.859 215.553 C 282.593 215.711 282.344 215.875 282.078 216.035 C 282.167 216.571 282.455 217.11 282.698 217.643 C 283.566 220.152 283.067 223.104 281.526 225.176 C 281.424 225.373 281.472 225.556 281.618 225.659 C 287.175 222.542 292.693 219.181 298.017 215.553 C 307.866 208.823 317.092 201.129 325.005 192.057 C 329.213 186.886 332.698 181.564 335.157 175.612 C 335.598 174.258 336.167 172.914 336.122 171.409 C 336.025 170.958 335.647 170.78 335.271 170.835 Z  M 222.844 175.818 C 223.189 175.801 223.61 175.957 223.947 175.957 C 226.66 176.443 229.398 176.875 231.962 177.656 C 232.109 177.747 232.009 177.95 231.962 178.093 C 229.504 178.393 227.318 179.307 224.842 179.494 C 224.123 179.494 223.45 179.395 222.866 178.965 C 222.102 178.233 222.06 177.035 222.338 176.117 C 222.452 175.916 222.639 175.829 222.844 175.818 Z  M 210.396 180.963 C 215.256 180.946 217.654 181.144 217.654 182.663 C 217.654 184.763 213.201 185.886 209.271 186.453 C 209.503 185.79 209.866 184.621 210.098 183.421 C 210.274 182.481 210.335 182.282 210.396 180.963 Z  M 323.788 198.488 C 323.668 198.505 323.542 198.531 323.443 198.579 C 317.565 204.917 311.083 210.563 304.173 215.553 C 297.169 220.581 289.735 224.946 282.078 228.645 C 282.904 231.256 282.449 234.16 280.998 236.523 C 280.658 237.106 280.037 237.552 279.895 238.176 C 280.037 238.465 280.319 238.223 280.561 238.223 C 292.937 232.843 305.226 225.759 314.898 215.554 C 316.349 214.017 317.736 212.445 319.055 210.776 C 321.621 207.145 324.267 203.411 324.614 198.97 C 324.538 198.537 324.149 198.433 323.788 198.488 Z  M 315.726 220.376 C 313.455 221.876 312.06 223.817 309.731 225.268 C 306.877 227.492 303.976 229.426 300.981 231.308 C 294.406 235.073 287.624 238.427 280.471 240.794 C 280.708 244.368 279.445 247.83 276.59 250.211 C 276.653 250.5 276.176 250.403 276.176 250.647 C 276.176 250.75 276.177 250.878 276.268 250.969 C 282.31 249.87 287.967 247.409 293.539 244.561 C 301.032 240.058 308.362 234.79 313.498 227.45 C 314.846 225.467 316.065 223.517 316.507 221.065 C 316.478 220.531 316.167 220.329 315.726 220.376 Z  M 216.942 227.289 C 217.174 227.289 217.414 227.298 217.516 227.542 L 217.516 228.024 C 215.914 230.392 214.612 232.763 213.451 235.374 C 211.18 240.489 209.573 246.09 209.362 251.682 C 209.328 252.853 209.347 254.023 209.431 255.195 C 209.709 260.387 210.876 265.209 212.785 269.734 C 213.934 272.413 215.351 274.987 216.988 277.474 C 217.566 278.147 217.946 279.02 218.619 279.541 C 220.959 282.695 223.824 285.397 226.865 287.787 C 228.547 289.106 230.282 290.335 232.009 291.484 C 232.406 291.819 233.163 292.122 233.066 292.656 C 232.2 293.233 231.252 292.366 230.379 292.174 C 227.038 291.115 223.762 289.627 220.687 287.787 C 216.059 285 211.881 281.357 208.651 276.9 C 207.033 274.719 205.686 272.291 204.632 269.734 C 202.31 264.098 201.429 257.746 202.243 251.681 C 202.611 248.968 203.31 246.299 204.403 243.78 C 205.898 240.348 207.839 236.963 210.053 234.019 C 212.143 231.639 214.178 229.135 216.942 227.289 Z  M 307.986 239.921 C 306.536 240.549 305.384 241.793 304.081 242.608 C 298.062 246.493 291.664 249.591 284.88 251.681 C 281.947 252.575 278.953 253.319 275.877 253.84 L 275.83 254.369 C 276.306 258.814 272.286 262.196 268.756 264.038 L 268.756 264.313 L 269.399 264.428 C 272.3 264.184 275.093 263.461 277.806 262.82 C 285.108 260.407 292.223 257.255 298.362 252.186 C 298.589 252.017 298.808 251.856 299.028 251.68 C 302.182 249.233 305.206 246.151 307.595 242.86 C 307.838 242.034 308.77 241.32 308.628 240.403 C 308.477 240.212 308.28 239.876 307.986 239.921 Z  M 296.847 258.089 C 289.842 262.053 282.493 265.131 274.269 266.151 C 274.224 266.303 274.129 266.503 274.269 266.656 C 275.821 266.945 277.377 267.278 279.024 267.369 C 283.124 267.611 287.182 267.743 291.151 267.07 C 293.042 265.134 294.681 262.979 296.226 260.8 C 296.515 259.984 297.504 259.306 297.306 258.342 C 297.261 258.143 297 258.133 296.847 258.089 Z  M 257.549 277.519 C 257.35 277.671 257.321 277.907 257.411 278.14 C 261.331 281.718 265.408 284.688 269.446 287.786 C 275.568 292.48 281.576 297.473 286.764 305.31 C 290.139 310.412 292.132 313.361 294.16 319.137 C 294.726 320.762 295.228 322.362 295.652 323.915 C 298.042 332.691 298.031 340.404 295.606 348.582 C 295.606 349.302 294.974 349.791 295.353 350.512 C 296.373 350.754 296.773 349.55 297.305 348.973 C 299.961 344.572 302.518 339.985 304.012 335.008 C 305.195 331.434 305.864 327.686 306.01 323.915 C 306.396 314.393 303.468 304.759 296.915 297.732 C 293.143 293.273 288.579 290.21 283.686 287.787 C 276.625 284.303 268.84 282.187 261.614 279.22 C 260.216 278.742 259 277.762 257.549 277.519 Z  M 216.529 308.641 C 216.343 313.731 215.504 318.913 214.002 323.914 C 213.227 326.524 212.287 329.076 211.177 331.562 C 215.452 331.562 218.959 328.663 221.948 326.187 C 220.795 330.978 219.15 334.7 216.918 339.968 C 213.521 348.027 210.098 353.953 206.399 360.018 C 205.148 362.086 203.848 364.189 202.517 366.38 C 201.645 367.874 200.581 369.642 198.796 370.469 C 193.819 371.811 190.266 367.816 185.429 368.241 C 183.147 368.637 182.398 369.074 181.616 369.895 C 181.179 370.568 181.235 371.41 181.524 372.123 C 178.812 371.895 175.873 371.892 173.738 373.478 C 172.821 374.35 172.389 375.648 172.773 376.946 C 173.062 377.773 173.601 378.472 174.565 378.83 C 175.725 376.604 178.1 375.589 180.467 375.017 C 181.487 374.869 182.548 374.666 183.522 375.063 C 183.754 375.198 183.554 375.507 183.361 375.661 C 182.398 376.147 181.335 376.7 180.558 377.567 C 179.795 378.587 179.106 379.858 179.501 381.173 C 180.199 382.844 181.925 383.484 183.566 383.286 C 183.707 383.087 183.52 382.91 183.52 382.712 C 183.322 380.882 185.148 379.904 186.552 379.129 C 191.191 377.525 196.47 377.524 201.55 377.383 C 205.746 377.139 209.996 377.433 214.205 377.728 C 216.68 378.017 219.158 378.45 221.05 380.002 C 221.474 380.433 221.569 381.213 221.28 381.748 C 221.903 381.934 222.493 381.535 223.025 381.242 C 223.116 381.152 223.172 381.13 223.393 380.92 C 224.843 379.759 225.345 378.151 225.345 376.464 C 225.298 374.822 223.731 373.714 222.428 373.226 C 222.138 373.113 222.074 373.075 221.762 372.973 C 218.567 372.008 215.042 372.42 211.61 372.467 C 210.631 372.314 209.37 372.499 208.945 371.434 C 208.747 370.804 209.048 370.095 209.336 369.574 C 211.552 366.363 213.853 363.18 216.157 360.019 C 219.941 354.849 223.763 349.714 227.273 344.47 C 230.025 340.351 231.818 335.296 231.959 330.46 C 233.895 332.396 236.214 333.988 238.734 335.008 C 239.358 335.148 240.132 335.338 240.71 335.146 C 238.462 331.758 236.942 327.939 236.002 323.915 C 235.322 320.934 234.932 317.836 234.853 314.728 C 233.551 314.347 232.119 314.304 230.811 313.97 C 225.837 312.808 221.031 310.82 216.529 308.641 Z " fill="rgb(255,255,255)"/></g></svg>