<svg xmlns="http://www.w3.org/2000/svg" width="512pt" height="512pt" style="isolation:isolate" viewBox="0 0 512 512"><defs><clipPath id="a"><path d="M0 0h512v512H0z"/></clipPath></defs><g clip-path="url(#a)"><path fill="#112B49" d="M320.454 357.038h55.26L287.5 128.098h-61.098l-88.214 228.94h55.264l14.416-38.78h83.35l-15.088-42.912h-54.88l35.7-98.508 63.504 180.2Zm182.224-169.501c-1.964-7.072-9.268-11.226-16.37-9.254-7.074 1.964-11.22 9.292-9.256 16.366a229.291 229.291 0 0 1 8.356 61.352c0 126.496-102.912 229.404-229.408 229.404-126.496 0-229.406-102.908-229.406-229.404 0-126.498 102.91-229.408 229.406-229.408 53.586 0 105.436 19.036 146.358 52.912a31.875 31.875 0 0 0-2.476 12.346c0 17.67 14.324 31.994 31.994 31.994s31.994-14.324 31.994-31.994-14.324-31.994-31.994-31.994c-3.402 0-6.676.542-9.752 1.526C376.044 22.113 317.026.001 256 .001c-141.158 0-256 114.84-256 256 0 141.158 114.842 255.998 256 255.998 141.158 0 256-114.84 256-255.998a255.9 255.9 0 0 0-9.322-68.464Z"/></g></svg>