<?xml version="1.0" encoding="UTF-8" standalone="no"?>
<!-- Generator: Gravit.io --><svg xmlns="http://www.w3.org/2000/svg" xmlns:xlink="http://www.w3.org/1999/xlink"
  style="isolation:isolate" viewBox="0 0 512 512" width="512pt" height="512pt">
  <defs>
    <clipPath id="_clipPath_eZITDw2I8s4b4MjjV8jFrAqRlUDOnfVq">
      <rect width="512" height="512" />
    </clipPath>
  </defs>
  <g clip-path="url(#_clipPath_eZITDw2I8s4b4MjjV8jFrAqRlUDOnfVq)">
    <rect width="512" height="512" style="fill:rgb(102,0,51)" />
    <path
      d=" M 137.283 320.792 C 134.636 325.11 131.662 330.12 129.137 334.112 C 126.876 337.932 128.09 342.858 131.866 345.191 L 184.819 377.778 C 186.678 378.925 188.919 379.278 191.041 378.758 C 193.162 378.237 194.986 376.886 196.102 375.008 C 198.22 371.464 200.949 366.861 203.923 361.932 C 224.9 327.309 246 331.546 284.045 349.713 L 336.55 374.682 C 338.538 375.628 340.825 375.729 342.89 374.962 C 344.954 374.195 346.62 372.624 347.507 370.609 L 372.721 313.582 C 374.502 309.509 372.69 304.76 368.647 302.91 C 357.568 297.696 335.531 287.309 315.694 277.737 C 244.33 243.073 183.678 245.314 137.283 320.792 Z  M 374.717 191.383 C 377.364 187.065 380.338 182.055 382.863 178.063 C 385.124 174.243 383.91 169.317 380.134 166.984 L 327.181 134.397 C 325.307 133.135 322.993 132.708 320.792 133.218 C 318.591 133.727 316.701 135.128 315.572 137.086 C 313.454 140.629 310.725 145.232 307.751 150.161 C 286.774 184.784 265.674 180.548 227.629 162.381 L 175.287 137.534 C 173.299 136.587 171.012 136.486 168.947 137.254 C 166.883 138.021 165.218 139.591 164.33 141.607 L 139.116 198.633 C 137.335 202.706 139.148 207.455 143.19 209.305 C 154.269 214.519 176.306 224.906 196.143 234.479 C 267.67 269.102 328.322 266.78 374.717 191.383 Z "
      fill-rule="evenodd" fill="rgb(255,255,255)" />
  </g>
</svg>