<?xml version="1.0" encoding="UTF-8" standalone="no"?><!-- Generator: Gravit.io --><svg xmlns="http://www.w3.org/2000/svg" xmlns:xlink="http://www.w3.org/1999/xlink" style="isolation:isolate" viewBox="0 0 512 512" width="512pt" height="512pt"><defs><clipPath id="_clipPath_N0mntUEe1cG94dR8Uj8r2JvAFk5jA1EG"><rect width="512" height="512"/></clipPath></defs><g clip-path="url(#_clipPath_N0mntUEe1cG94dR8Uj8r2JvAFk5jA1EG)"><circle vector-effect="non-scaling-stroke" cx="256" cy="256" r="256" fill="rgb(27,27,29)" /><path d=" M 176.07 374.754 C 172.95 378.374 175.513 384 180.303 384 L 331.753 384 C 336.543 384 339.105 378.374 335.986 374.754 L 260.233 287.471 C 259.267 286.354 257.896 285.667 256.422 285.562 C 254.948 285.458 253.494 285.944 252.379 286.914 C 252.157 287.137 176.07 374.754 176.014 374.754 L 176.07 374.754 Z  M 211.495 256 C 211.495 231.436 231.492 211.495 256 211.495 C 280.508 211.495 300.505 231.492 300.505 256 C 300.505 270.705 293.319 283.628 282.346 291.76 L 291.481 302.287 C 305.406 291.593 314.43 274.883 314.43 255.944 C 314.43 223.694 288.306 197.514 256 197.514 C 223.694 197.514 197.57 223.638 197.57 255.944 C 197.57 274.883 206.594 291.593 220.519 302.287 L 229.654 291.76 C 218.681 283.628 211.495 270.649 211.495 256 Z  M 178.075 256 C 178.075 213.055 212.999 178.075 256 178.075 C 299.001 178.075 333.925 212.999 333.925 256 C 333.925 280.731 322.284 302.733 304.292 317.048 L 313.483 327.631 C 334.482 310.809 347.85 285.02 347.85 256.056 C 347.85 205.368 306.743 164.261 256.056 164.261 C 205.368 164.261 164.261 205.312 164.261 256 C 164.261 284.964 177.741 310.754 198.628 327.575 L 207.819 316.992 C 189.772 302.677 178.186 280.731 178.186 255.944 L 178.075 256 Z  M 141.925 256 C 141.925 193.114 193.114 141.925 256 141.925 C 318.886 141.925 370.075 193.114 370.075 256 C 370.075 291.593 353.643 323.453 328.021 344.341 L 337.211 354.924 C 365.786 331.419 384 295.826 384 256 C 384 185.316 326.684 128 256 128 C 185.316 128 128 185.316 128 256 C 128 295.882 146.27 331.474 174.789 354.924 L 183.979 344.341 C 158.301 323.398 141.925 291.593 141.925 256 L 141.925 256 Z " fill-rule="evenodd" fill="rgb(239,191,4)"/></g></svg>