<?xml version="1.0" encoding="UTF-8" standalone="no"?><!-- Generator: Gravit.io --><svg xmlns="http://www.w3.org/2000/svg" xmlns:xlink="http://www.w3.org/1999/xlink" style="isolation:isolate" viewBox="0 0 512 512" width="512pt" height="512pt"><defs><clipPath id="_clipPath_YSkLEqwc90Tqm09NfHGbJfmRSl9wq8w4"><rect width="512" height="512"/></clipPath></defs><g clip-path="url(#_clipPath_YSkLEqwc90Tqm09NfHGbJfmRSl9wq8w4)"><path d="M 477.714 383.995 L 256.005 512 L 34.286 383.995 L 34.286 127.985 L 256.005 0 L 477.714 127.985 L 477.714 383.995 Z" fill-rule="evenodd" fill="rgb(27,27,29)" /><path d=" M 142.222 277.333 L 170.667 277.333 L 170.667 234.667 L 184.889 234.667 L 184.889 277.333 L 199.111 277.333 L 199.111 220.444 L 142.222 220.444 L 142.222 277.333 Z  M 213.333 220.444 L 213.333 291.556 L 241.778 291.556 L 241.778 277.333 L 270.222 277.333 L 270.222 220.444 L 213.333 220.444 Z  M 256 263.111 L 241.778 263.111 L 241.778 234.667 L 256 234.667 L 256 263.111 Z  M 284.444 220.444 L 284.444 277.333 L 312.889 277.333 L 312.889 234.667 L 327.111 234.667 L 327.111 277.333 L 341.333 277.333 L 341.333 234.667 L 355.556 234.667 L 355.556 277.333 L 369.778 277.333 L 369.778 220.444 L 284.444 220.444 Z " fill-rule="evenodd" fill="rgb(27,27,29)"/><path d=" M 128 206.222 L 384 206.222 L 384 291.556 L 256 291.556 L 256 305.778 L 199.111 305.778 L 199.111 291.556 L 128 291.556 L 128 206.222 Z  M 142.222 277.333 L 170.667 277.333 L 170.667 234.667 L 184.889 234.667 L 184.889 277.333 L 199.111 277.333 L 199.111 220.444 L 142.222 220.444 L 142.222 277.333 Z  M 213.333 220.444 L 213.333 291.556 L 241.778 291.556 L 241.778 277.333 L 270.222 277.333 L 270.222 220.444 L 213.333 220.444 Z  M 241.778 234.667 L 256 234.667 L 256 263.111 L 241.778 263.111 L 241.778 234.667 Z  M 284.444 220.444 L 284.444 277.333 L 312.889 277.333 L 312.889 234.667 L 327.111 234.667 L 327.111 277.333 L 341.333 277.333 L 341.333 234.667 L 355.556 234.667 L 355.556 277.333 L 369.778 277.333 L 369.778 220.444 L 284.444 220.444 Z " fill="rgb(255,255,255)"/></g></svg>