<?xml version="1.0" encoding="UTF-8" standalone="no"?><!-- Generator: Gravit.io --><svg xmlns="http://www.w3.org/2000/svg" xmlns:xlink="http://www.w3.org/1999/xlink" style="isolation:isolate" viewBox="0 0 512 512" width="512pt" height="512pt"><defs><clipPath id="_clipPath_CKcSHmv2KuWOxVFpvxYjbrygV3wjz70S"><rect width="512" height="512"/></clipPath></defs><g clip-path="url(#_clipPath_CKcSHmv2KuWOxVFpvxYjbrygV3wjz70S)"><path d="M 477.714 383.995 L 256.005 512 L 34.286 383.995 L 34.286 127.985 L 256.005 0 L 477.714 127.985 L 477.714 383.995 Z" fill-rule="evenodd" fill="rgb(27,27,29)" /><path d=" M 304.339 306.453 C 306.072 301.863 305.479 296.719 302.745 292.645 C 299.951 289.294 295.938 287.192 291.593 286.803 L 199.186 285.741 C 198.655 285.741 198.123 285.21 197.592 285.21 C 197.342 285.022 197.194 284.726 197.194 284.413 C 197.194 284.1 197.342 283.804 197.592 283.616 C 198.123 282.554 198.655 282.023 199.717 282.023 L 292.655 280.961 C 304.669 279.628 315.026 271.911 319.74 260.78 L 325.051 246.972 C 325.051 246.441 325.582 245.91 325.051 245.379 C 319.118 218.953 296.351 199.686 269.308 198.204 C 242.265 196.722 217.53 213.387 208.745 239.006 C 203.195 235.042 196.425 233.162 189.626 233.695 C 176.774 235.128 166.63 245.273 165.197 258.125 C 164.843 261.319 165.023 264.549 165.728 267.684 C 144.735 268.264 128.019 285.451 128.021 306.453 C 127.934 308.415 128.113 310.38 128.553 312.294 C 128.603 313.153 129.288 313.837 130.146 313.888 L 300.621 313.888 C 301.683 313.888 302.745 313.357 302.745 312.294 L 304.339 306.453 Z  M 333.548 246.972 L 330.892 246.972 C 330.361 246.972 329.83 247.503 329.299 248.034 L 325.582 260.78 C 323.848 265.369 324.442 270.514 327.175 274.588 C 329.969 277.939 333.982 280.04 338.327 280.43 L 357.977 281.492 C 358.508 281.492 359.039 282.023 359.571 282.023 C 359.821 282.211 359.969 282.506 359.969 282.82 C 359.969 283.133 359.821 283.428 359.571 283.616 C 359.039 284.678 358.508 285.21 357.446 285.21 L 337.265 286.272 C 325.252 287.605 314.894 295.322 310.18 306.453 L 309.118 311.232 C 308.587 311.763 309.118 312.826 310.18 312.826 L 380.282 312.826 C 380.721 312.888 381.164 312.741 381.477 312.427 C 381.791 312.114 381.938 311.671 381.876 311.232 C 383.14 306.733 383.853 302.096 384 297.424 C 383.825 269.633 361.339 247.147 333.548 246.972" fill-rule="evenodd" fill="rgb(85,0,0)"/></g></svg>