<?xml version="1.0" encoding="UTF-8" standalone="no"?><!-- Generator: Gravit.io --><svg xmlns="http://www.w3.org/2000/svg" xmlns:xlink="http://www.w3.org/1999/xlink" style="isolation:isolate" viewBox="0 0 1451.339 1112.939" width="1451.339pt" height="1112.939pt"><defs><clipPath id="_clipPath_xtik34ObRKsDuJAqISSchw0TD2yaO7zq"><rect width="1451.339" height="1112.939"/></clipPath></defs><g clip-path="url(#_clipPath_xtik34ObRKsDuJAqISSchw0TD2yaO7zq)"><path d=" M 1229.422 93.211 C 1135.474 49.667 1035.021 18.022 929.999 0.003 C 917.102 23.103 902.033 54.173 891.644 78.889 C 780.004 62.257 669.39 62.257 559.803 78.889 C 549.416 54.173 534.005 23.103 520.992 0.003 C 415.857 18.022 315.289 49.784 221.341 93.441 C 31.847 377.103 -19.521 653.719 6.163 926.408 C 131.845 1019.383 253.646 1075.863 373.392 1112.822 C 402.957 1072.512 429.326 1029.663 452.042 984.504 C 408.779 968.219 367.342 948.122 328.188 924.792 C 338.576 917.169 348.736 909.199 358.552 900.998 C 597.359 1011.646 856.828 1011.646 1092.782 900.998 C 1102.713 909.199 1112.871 917.169 1123.145 924.792 C 1083.877 948.236 1042.326 968.333 999.063 984.62 C 1021.779 1029.663 1048.034 1072.629 1077.713 1112.936 C 1197.574 1075.977 1319.488 1019.499 1445.17 926.408 C 1475.307 610.292 1393.688 336.217 1229.422 93.211 Z  M 484.576 758.707 C 412.889 758.707 354.1 692.41 354.1 611.678 C 354.1 530.945 411.634 464.535 484.576 464.535 C 557.521 464.535 616.308 530.829 615.053 611.678 C 615.166 692.41 557.521 758.707 484.576 758.707 Z  M 966.757 758.707 C 895.07 758.707 836.28 692.41 836.28 611.678 C 836.28 530.945 893.813 464.535 966.757 464.535 C 1039.7 464.535 1098.489 530.829 1097.234 611.678 C 1097.234 692.41 1039.7 758.707 966.757 758.707 Z " fill="rgb(255,255,255)"/></g></svg>