<?xml version="1.0" encoding="UTF-8" standalone="no"?><!-- Generator: Gravit.io --><svg xmlns="http://www.w3.org/2000/svg" xmlns:xlink="http://www.w3.org/1999/xlink" style="isolation:isolate" viewBox="0 0 512 512" width="512pt" height="512pt"><defs><clipPath id="_clipPath_BvigJ8tp19zmnMITXlFfOZ0AOyNS55B5"><rect width="512" height="512"/></clipPath></defs><g clip-path="url(#_clipPath_BvigJ8tp19zmnMITXlFfOZ0AOyNS55B5)"><rect width="512" height="512" style="fill:rgb(27,27,29)"/><path d=" M 223.207 294.99 L 170.409 294.99 L 159.61 328.455 C 159.343 329.788 158.143 330.588 156.943 330.455 L 129.744 330.455 C 128.144 330.455 127.744 329.655 128.144 327.922 L 174.142 196.461 C 174.542 194.994 174.942 193.928 175.609 192.061 C 176.142 189.128 176.409 185.928 176.409 182.861 C 176.276 182.195 176.809 181.395 177.609 181.261 L 178.009 181.261 L 214.674 181.261 C 215.874 181.261 216.407 181.661 216.54 182.461 L 268.405 327.788 C 268.805 329.388 268.405 330.055 266.938 330.055 L 237.206 330.055 C 236.273 330.188 235.206 329.522 234.94 328.455 L 223.207 294.59 L 223.207 294.99 Z  M 178.675 266.591 L 214.807 266.591 C 214.007 263.658 212.807 260.058 211.474 256.325 C 210.141 252.458 208.941 248.325 207.608 244.059 C 206.141 239.659 204.941 235.392 203.474 230.993 C 202.008 226.593 200.808 222.46 199.608 218.326 C 198.408 214.327 197.475 210.593 196.408 207.26 L 196.141 207.26 C 194.808 213.393 193.341 219.526 191.342 225.66 C 189.208 232.459 187.075 239.659 184.809 246.725 C 182.942 253.925 180.809 260.591 178.675 266.591 L 178.675 266.591 Z  M 284.538 328.322 L 284.538 243.659 C 284.538 241.126 284.538 238.059 284.404 234.992 C 284.271 231.659 284.271 228.726 284.138 225.926 C 284.004 223.126 283.871 220.326 283.738 218.726 C 283.604 218.326 283.604 217.793 284.004 217.26 C 284.404 216.993 284.804 216.86 285.471 216.86 L 308.403 216.86 C 309.203 216.86 310.003 216.993 310.67 217.26 C 311.203 217.527 311.603 218.06 311.87 218.86 C 312.136 219.66 312.536 220.86 312.803 222.06 C 313.203 223.66 313.47 225.26 313.603 226.726 C 318.003 222.86 323.203 219.926 328.669 217.927 C 334.269 216.06 340.002 215.127 345.868 215.127 C 350.401 215.127 354.935 215.793 359.201 217.26 C 369.334 220.593 377.334 228.326 380.8 238.326 C 383.067 244.192 384 251.792 384 261.125 L 384 328.455 C 384 329.922 383.467 330.455 382.133 330.455 L 355.335 330.722 C 354.135 330.855 353.201 330.188 353.068 328.988 L 353.068 328.455 L 353.068 264.591 C 352.935 260.325 352.135 256.058 350.401 252.192 C 349.068 249.392 347.068 246.725 344.535 245.125 C 341.602 243.259 338.269 242.459 334.802 242.592 C 331.069 242.592 327.336 243.125 324.003 244.592 C 320.803 245.925 318.003 247.792 315.47 250.058 L 315.47 328.722 C 315.47 330.188 314.936 330.722 313.603 330.722 L 286.537 330.722 C 285.604 330.855 284.671 330.188 284.538 329.122 C 284.404 328.588 284.404 328.455 284.538 328.322 L 284.538 328.322 Z " fill-rule="evenodd" fill="rgb(102,0,51)"/></g></svg>