<?xml version="1.0" encoding="UTF-8" standalone="no"?><!-- Generator: Gravit.io --><svg xmlns="http://www.w3.org/2000/svg" xmlns:xlink="http://www.w3.org/1999/xlink" style="isolation:isolate" viewBox="0 0 512 512" width="512pt" height="512pt"><defs><clipPath id="_clipPath_YG0ClH1hyffQoz8gjAGBahVjXEGcoqVl"><rect width="512" height="512"/></clipPath></defs><g clip-path="url(#_clipPath_YG0ClH1hyffQoz8gjAGBahVjXEGcoqVl)"><circle vector-effect="non-scaling-stroke" cx="256" cy="256" r="256" fill="rgb(27,27,29)" /><path d=" M 190.578 128 L 321.422 128 C 333.981 128 344.178 138.196 344.178 150.756 L 344.178 361.244 C 344.178 373.804 333.981 384 321.422 384 L 190.578 384 C 178.019 384 167.822 373.804 167.822 361.244 L 167.822 150.756 C 167.822 138.196 178.019 128 190.578 128 Z  M 196.267 145.067 L 315.733 145.067 C 322.013 145.067 327.111 150.165 327.111 156.444 L 327.111 193.422 C 327.111 199.702 322.013 204.8 315.733 204.8 L 196.267 204.8 C 189.987 204.8 184.889 199.702 184.889 193.422 L 184.889 156.444 C 184.889 150.165 189.987 145.067 196.267 145.067 Z  M 238.933 349.867 C 238.933 340.447 246.581 332.8 256 332.8 C 265.419 332.8 273.067 340.447 273.067 349.867 C 273.067 359.286 265.419 366.933 256 366.933 C 246.581 366.933 238.933 359.286 238.933 349.867 Z  M 238.933 295.822 C 238.933 286.403 246.581 278.756 256 278.756 C 265.419 278.756 273.067 286.403 273.067 295.822 C 273.067 305.242 265.419 312.889 256 312.889 C 246.581 312.889 238.933 305.242 238.933 295.822 Z  M 184.889 241.778 C 184.889 232.358 192.536 224.711 201.956 224.711 C 211.375 224.711 219.022 232.358 219.022 241.778 C 219.022 251.197 211.375 258.844 201.956 258.844 C 192.536 258.844 184.889 251.197 184.889 241.778 Z  M 238.933 241.778 C 238.933 232.358 246.581 224.711 256 224.711 C 265.419 224.711 273.067 232.358 273.067 241.778 C 273.067 251.197 265.419 258.844 256 258.844 C 246.581 258.844 238.933 251.197 238.933 241.778 Z  M 292.978 241.778 C 292.978 232.358 300.625 224.711 310.044 224.711 C 319.464 224.711 327.111 232.358 327.111 241.778 C 327.111 251.197 319.464 258.844 310.044 258.844 C 300.625 258.844 292.978 251.197 292.978 241.778 Z  M 184.889 295.822 C 184.889 286.403 192.536 278.756 201.956 278.756 C 211.375 278.756 219.022 286.403 219.022 295.822 C 219.022 305.242 211.375 312.889 201.956 312.889 C 192.536 312.889 184.889 305.242 184.889 295.822 Z  M 184.889 349.867 C 184.889 340.447 192.536 332.8 201.956 332.8 C 211.375 332.8 219.022 340.447 219.022 349.867 C 219.022 359.286 211.375 366.933 201.956 366.933 C 192.536 366.933 184.889 359.286 184.889 349.867 Z  M 292.978 295.822 C 292.978 286.403 300.625 278.756 310.044 278.756 C 319.464 278.756 327.111 286.403 327.111 295.822 C 327.111 305.242 319.464 312.889 310.044 312.889 C 300.625 312.889 292.978 305.242 292.978 295.822 Z  M 292.978 349.867 C 292.978 340.447 300.625 332.8 310.044 332.8 C 319.464 332.8 327.111 340.447 327.111 349.867 C 327.111 359.286 319.464 366.933 310.044 366.933 C 300.625 366.933 292.978 359.286 292.978 349.867 Z " fill-rule="evenodd" fill="rgb(102,0,51)"/></g></svg>