<?xml version="1.0" encoding="UTF-8" standalone="no"?><!-- Generator: Gravit.io --><svg xmlns="http://www.w3.org/2000/svg" xmlns:xlink="http://www.w3.org/1999/xlink" style="isolation:isolate" viewBox="0 0 512 512" width="512pt" height="512pt"><defs><clipPath id="_clipPath_Apr1OIOEVlJkC8vVT2VcfqeTZPbZiCio"><rect width="512" height="512"/></clipPath></defs><g clip-path="url(#_clipPath_Apr1OIOEVlJkC8vVT2VcfqeTZPbZiCio)"><path d="M 477.714 383.995 L 256.005 512 L 34.286 383.995 L 34.286 127.985 L 256.005 0 L 477.714 127.985 L 477.714 383.995 Z" fill-rule="evenodd" fill="rgb(27,27,29)" /><path d=" M 285.711 384 C 247.209 384 218.517 364.193 218.517 316.806 L 218.517 240.915 L 183.53 240.915 L 183.53 199.816 C 222.031 189.825 238.136 156.693 239.99 128 L 279.971 128 L 279.971 193.157 L 326.614 193.157 L 326.614 240.915 L 279.971 240.915 L 279.971 306.996 C 279.971 326.804 289.969 333.648 305.884 333.648 L 328.47 333.648 L 328.47 384 L 285.711 384 Z " fill="rgb(239,191,4)"/></g></svg>