<?xml version="1.0" encoding="UTF-8" standalone="no"?><!-- Generator: Gravit.io --><svg xmlns="http://www.w3.org/2000/svg" xmlns:xlink="http://www.w3.org/1999/xlink" style="isolation:isolate" viewBox="0 0 512 512" width="512pt" height="512pt"><defs><clipPath id="_clipPath_TP3YqgkkpefMlYaweOypAQsTRoM6Nk1A"><rect width="512" height="512"/></clipPath></defs><g clip-path="url(#_clipPath_TP3YqgkkpefMlYaweOypAQsTRoM6Nk1A)"><clipPath id="_clipPath_3mD1TpqdRIhuq4Zbmg5Fm1QISPl4wlgV"><path d=" M 3.151 278.843 L 0 307.2 L 3.151 335.557 C 3.151 337.132 4.726 337.132 4.726 337.132 C 6.302 337.132 6.302 335.557 6.302 335.557 L 11.028 307.2 L 6.302 278.843 C 6.302 277.268 4.726 277.268 4.726 277.268 C 4.726 277.268 3.151 277.268 3.151 278.843 Z  M 22.055 261.514 L 17.329 307.2 L 22.055 352.886 C 22.055 354.462 23.631 354.462 23.631 354.462 C 25.206 354.462 25.206 352.886 25.206 352.886 L 31.508 307.2 L 25.206 261.514 C 25.206 259.938 23.631 259.938 23.631 259.938 C 23.631 259.938 23.631 259.938 23.631 259.938 C 23.631 259.938 22.055 261.514 22.055 261.514 Z  M 81.92 255.212 L 78.769 307.2 L 81.92 362.338 C 81.92 363.914 83.495 365.489 85.071 365.489 C 86.646 365.489 88.222 363.914 88.222 362.338 L 94.523 307.2 L 89.797 255.212 C 89.797 253.637 88.222 252.062 86.646 252.062 C 83.495 252.062 81.92 253.637 81.92 255.212 Z  M 42.535 252.062 L 37.809 307.2 L 42.535 359.188 C 42.535 360.763 44.111 362.338 45.686 362.338 C 45.686 362.338 47.262 360.763 47.262 359.188 L 51.988 307.2 L 47.262 252.062 C 47.262 250.486 45.686 248.911 44.111 248.911 C 44.111 250.486 42.535 250.486 42.535 252.062 Z  M 61.44 250.486 L 56.714 307.2 L 61.44 360.763 C 61.44 362.338 63.015 363.914 64.591 363.914 C 66.166 363.914 67.742 362.338 67.742 360.763 L 72.468 307.2 L 67.742 250.486 C 67.742 248.911 66.166 247.335 64.591 247.335 C 63.015 247.335 63.015 248.911 61.44 250.486 Z  M 102.4 222.129 L 97.674 307.2 L 102.4 362.338 C 102.4 363.914 103.975 365.489 105.551 365.489 C 108.702 365.489 110.277 363.914 110.277 362.338 L 115.003 307.2 L 110.277 222.129 C 110.277 220.554 108.702 218.978 107.126 218.978 C 103.975 218.978 102.4 220.554 102.4 222.129 Z  M 122.88 203.225 L 119.729 307.2 L 122.88 362.338 C 122.88 365.489 124.455 367.065 127.606 367.065 C 129.182 367.065 132.332 365.489 132.332 362.338 L 137.058 307.2 L 132.332 203.225 C 132.332 200.074 130.757 198.498 127.606 198.498 C 124.455 198.498 122.88 200.074 122.88 203.225 Z  M 206.375 198.498 L 203.225 307.2 L 206.375 359.188 C 206.375 362.338 209.526 365.489 212.677 365.489 C 215.828 365.489 218.978 362.338 218.978 359.188 L 222.129 307.2 L 218.978 196.923 C 218.978 193.772 215.828 190.622 212.677 190.622 C 207.951 192.197 206.375 193.772 206.375 198.498 Z  M 143.36 193.772 L 140.209 307.2 L 143.36 360.763 C 143.36 363.914 144.935 365.489 148.086 365.489 C 151.237 365.489 152.812 363.914 152.812 360.763 L 155.963 307.2 L 152.812 193.772 C 152.812 190.622 151.237 189.046 148.086 189.046 C 144.935 189.046 143.36 192.197 143.36 193.772 Z  M 184.32 193.772 L 181.169 307.2 L 184.32 360.763 C 184.32 363.914 187.471 367.065 190.622 367.065 C 193.772 367.065 196.923 363.914 196.923 360.763 L 200.074 307.2 L 196.923 193.772 C 196.923 190.622 193.772 187.471 190.622 187.471 C 187.471 187.471 184.32 190.622 184.32 193.772 Z  M 163.84 190.622 L 160.689 307.2 L 163.84 360.763 C 163.84 363.914 165.415 365.489 168.566 365.489 C 171.717 365.489 173.292 363.914 173.292 360.763 L 176.443 307.2 L 173.292 190.622 C 173.292 187.471 170.142 185.895 168.566 185.895 C 166.991 185.895 163.84 187.471 163.84 190.622 Z  M 226.855 176.443 L 223.705 307.2 L 226.855 359.188 C 226.855 362.338 230.006 365.489 233.157 365.489 C 236.308 365.489 239.458 362.338 239.458 359.188 L 242.609 307.2 L 239.458 176.443 C 239.458 173.292 236.308 170.142 233.157 170.142 C 230.006 170.142 226.855 173.292 226.855 176.443 Z  M 248.911 165.415 L 245.76 307.2 L 248.911 359.188 C 248.911 362.338 252.062 365.489 255.212 365.489 C 258.363 365.489 261.514 362.338 261.514 359.188 L 264.665 307.2 L 261.514 165.415 C 261.514 162.265 258.363 159.114 255.212 159.114 C 255.212 159.114 253.637 159.114 253.637 159.114 C 250.486 159.114 248.911 162.265 248.911 165.415 Z  M 274.117 151.237 C 269.391 152.812 267.815 154.388 267.815 159.114 L 267.815 359.188 C 267.815 362.338 270.966 365.489 274.117 367.065 L 448.985 367.065 C 483.643 367.065 512 338.708 512 304.049 C 512 269.391 483.643 241.034 448.985 241.034 C 441.108 241.034 431.655 242.609 425.354 245.76 C 420.628 189.046 373.366 144.935 315.077 144.935 C 311.926 144.935 310.351 144.935 307.2 144.935 C 296.172 144.935 285.145 148.086 274.117 151.237 Z " fill-rule="evenodd" fill="rgb(255,255,255)"/></clipPath><g clip-path="url(#_clipPath_3mD1TpqdRIhuq4Zbmg5Fm1QISPl4wlgV)"><linearGradient id="_lgradient_20" x1="0.5000015614457836" y1="-2.5516382978723406" x2="0.5000015614457828" y2="1.8565602836879433" gradientTransform="matrix(1961.354,0,0,222.129,0,144.935)" gradientUnits="userSpaceOnUse"><stop offset="0%" stop-opacity="1" style="stop-color:rgb(248,160,29)"/><stop offset="71.28%" stop-opacity="1" style="stop-color:rgb(242,110,35)"/><stop offset="100%" stop-opacity="1" style="stop-color:rgb(239,88,38)"/></linearGradient><rect x="0" y="144.935" width="1961.354" height="222.129" transform="matrix(1,0,0,1,0,0)" fill="url(#_lgradient_20)"/></g></g></svg>