<?xml version="1.0" encoding="UTF-8" standalone="no"?><!-- Generator: Gravit.io --><svg xmlns="http://www.w3.org/2000/svg" xmlns:xlink="http://www.w3.org/1999/xlink" style="isolation:isolate" viewBox="0 0 512 512" width="512pt" height="512pt"><defs><clipPath id="_clipPath_1fwnfhyWOSEFGmIJvUenAvEc54DC3mzy"><rect width="512" height="512"/></clipPath></defs><g clip-path="url(#_clipPath_1fwnfhyWOSEFGmIJvUenAvEc54DC3mzy)"><path d=" M 256.251 0.277 C 114.87 0.277 0.253 114.891 0.253 256.272 C 0.253 397.66 114.87 512.265 256.251 512.265 C 397.648 512.265 512.253 397.66 512.253 256.272 C 512.253 114.901 397.648 0.289 256.248 0.289 L 256.251 0.277 L 256.251 0.277 Z  M 373.651 369.496 C 369.065 377.016 359.222 379.4 351.702 374.784 C 291.596 338.07 215.93 329.755 126.82 350.115 C 118.233 352.071 109.674 346.691 107.717 338.101 C 105.752 329.511 111.11 320.951 119.719 318.995 C 217.236 296.716 300.883 306.309 368.362 347.547 C 375.882 352.163 378.267 361.976 373.651 369.496 L 373.651 369.496 Z  M 404.984 299.791 C 399.207 309.182 386.918 312.147 377.533 306.37 C 308.721 264.074 203.828 251.825 122.436 276.531 C 111.881 279.719 100.732 273.77 97.528 263.233 C 94.349 252.677 100.301 241.55 110.838 238.34 C 203.809 210.131 319.39 223.795 398.412 272.355 C 407.797 278.133 410.762 290.422 404.984 299.794 L 404.984 299.791 Z  M 407.675 227.207 C 325.167 178.201 189.041 173.695 110.267 197.603 C 97.617 201.44 84.24 194.299 80.406 181.649 C 76.573 168.993 83.708 155.625 96.367 151.78 C 186.794 124.328 337.12 129.632 432.112 186.024 C 443.514 192.776 447.244 207.471 440.488 218.834 C 433.763 230.212 419.028 233.963 407.687 227.207 L 407.675 227.207 Z " fill="rgb(30,215,96)"/></g></svg>