<?xml version="1.0" encoding="UTF-8" standalone="no"?><!-- Generator: Gravit.io --><svg xmlns="http://www.w3.org/2000/svg" xmlns:xlink="http://www.w3.org/1999/xlink" style="isolation:isolate" viewBox="0 0 512 512" width="512pt" height="512pt"><defs><clipPath id="_clipPath_jJd66PgzOqXMVrRVGKz9Ar0Em3Cbl4al"><rect width="512" height="512"/></clipPath></defs><g clip-path="url(#_clipPath_jJd66PgzOqXMVrRVGKz9Ar0Em3Cbl4al)"><rect x="0" y="0" width="512" height="512" transform="matrix(1,0,0,1,0,0)" fill="rgb(27,27,29)"/><path d=" M 181.141 218.033 C 181.146 219.4 180.585 220.708 179.59 221.646 C 178.591 222.648 177.222 223.194 175.807 223.156 C 174.45 223.116 173.158 222.562 172.194 221.606 C 168.401 217.813 162.17 216.293 158.097 216.312 C 151.905 216.312 147.062 218.431 143.567 222.67 C 140.073 226.909 138.321 232.926 138.313 240.722 L 138.313 296.649 C 138.42 298.127 137.815 299.567 136.684 300.524 C 135.696 301.355 134.453 301.819 133.163 301.838 C 131.873 301.819 130.629 301.355 129.642 300.524 C 128.509 299.568 127.903 298.127 128.013 296.649 L 128.013 240.722 C 127.978 236.156 128.615 231.61 129.904 227.23 C 131.071 223.233 132.998 219.5 135.58 216.234 C 138.101 213.056 141.301 210.484 144.947 208.706 C 149.057 206.792 153.552 205.853 158.084 205.96 C 161.97 206.027 165.813 206.783 169.435 208.194 C 173.166 209.513 176.568 211.624 179.406 214.382 C 180.462 215.309 181.089 216.63 181.141 218.034 L 181.141 218.033 Z  M 206.916 296.647 C 207.023 298.125 206.418 299.565 205.287 300.522 C 203.252 302.249 200.266 302.249 198.232 300.522 C 197.099 299.566 196.493 298.125 196.603 296.647 L 196.603 212.871 C 196.495 211.393 197.101 209.953 198.232 208.996 C 200.268 207.274 203.25 207.274 205.287 208.996 C 206.416 209.954 207.021 211.393 206.916 212.871 L 206.916 296.647 Z  M 296.336 296.647 C 296.44 298.127 295.83 299.567 294.694 300.522 C 292.661 302.241 289.684 302.241 287.652 300.522 C 286.519 299.566 285.913 298.125 286.023 296.647 L 286.023 239.525 C 286.044 236.424 285.427 233.351 284.21 230.499 C 281.846 224.925 277.408 220.488 271.834 218.124 C 266.058 215.718 259.56 215.718 253.783 218.124 C 248.21 220.489 243.773 224.926 241.408 230.499 C 240.198 233.353 239.585 236.425 239.608 239.525 L 239.608 296.647 C 239.717 298.125 239.112 299.566 237.979 300.522 C 235.944 302.249 232.959 302.249 230.924 300.522 C 229.791 299.566 229.185 298.125 229.295 296.647 L 229.295 239.525 C 229.262 235.033 230.156 230.583 231.922 226.453 C 233.596 222.474 236.017 218.852 239.056 215.786 C 242.082 212.772 245.647 210.352 249.566 208.652 C 257.961 205.085 267.446 205.085 275.841 208.652 C 283.888 211.998 290.284 218.393 293.63 226.441 C 295.394 230.571 296.288 235.021 296.257 239.512 L 296.336 296.647 Z  M 383.998 302.663 C 384.044 307.177 383.149 311.651 381.371 315.8 C 377.977 323.81 371.576 330.169 363.544 333.51 C 359.413 335.273 354.964 336.168 350.472 336.137 C 347.931 336.123 345.397 335.864 342.905 335.362 C 340.209 334.839 337.57 334.061 335.022 333.037 C 332.467 332.02 330.046 330.696 327.81 329.096 C 325.689 327.602 323.855 325.737 322.397 323.591 C 321.809 322.73 321.51 321.704 321.543 320.662 C 321.506 319.249 322.104 317.894 323.172 316.97 C 324.17 316.026 325.491 315.499 326.864 315.498 C 327.599 315.509 328.325 315.655 329.005 315.932 C 329.846 316.298 330.543 316.93 330.989 317.732 C 333.032 320.809 337.442 323.244 340.356 324.182 C 343.599 325.253 346.991 325.808 350.406 325.824 C 353.507 325.845 356.579 325.228 359.432 324.011 C 365.006 321.647 369.443 317.21 371.807 311.636 C 373.041 308.805 373.681 305.751 373.686 302.663 L 373.686 290.839 C 370.642 293.745 367.076 296.05 363.176 297.632 C 359.144 299.297 354.821 300.146 350.459 300.128 C 345.945 300.174 341.47 299.279 337.321 297.5 C 329.348 294.112 323 287.764 319.612 279.791 C 317.831 275.642 316.936 271.167 316.984 266.653 L 316.984 239.525 C 316.951 235.033 317.845 230.582 319.612 226.453 C 321.283 222.472 323.705 218.85 326.745 215.785 C 329.772 212.771 333.337 210.352 337.255 208.652 C 345.65 205.085 355.135 205.085 363.531 208.652 C 371.578 211.997 377.974 218.392 381.319 226.44 C 383.083 230.571 383.978 235.021 383.947 239.512 L 383.947 302.663 L 383.998 302.663 Z  M 373.685 239.525 C 373.707 236.424 373.09 233.351 371.872 230.499 C 369.508 224.925 365.071 220.488 359.497 218.124 C 353.72 215.718 347.223 215.718 341.446 218.124 C 335.856 220.476 331.399 224.909 329.018 230.486 C 327.81 233.34 327.197 236.412 327.218 239.512 L 327.218 266.51 C 327.188 269.631 327.801 272.726 329.018 275.601 C 330.192 278.363 331.887 280.875 334.01 282.997 C 336.13 285.12 338.642 286.811 341.406 287.976 C 347.183 290.382 353.681 290.382 359.458 287.976 C 365.032 285.612 369.469 281.174 371.833 275.601 C 373.073 272.731 373.704 269.635 373.686 266.51 L 373.685 239.525 Z  M 192.95 184.677 C 192.95 179.812 196.9 175.862 201.766 175.862 C 206.631 175.862 210.581 179.812 210.581 184.677 C 210.581 189.543 206.631 193.493 201.766 193.493 C 196.9 193.493 192.95 189.543 192.95 184.677 Z " fill-rule="evenodd" fill="rgb(239,191,4)"/></g></svg>