<?xml version="1.0" encoding="UTF-8" standalone="no"?><!-- Generator: Gravit.io --><svg xmlns="http://www.w3.org/2000/svg" xmlns:xlink="http://www.w3.org/1999/xlink" style="isolation:isolate" viewBox="0 0 1451.339 1451.339" width="1451.339pt" height="1451.339pt"><defs><clipPath id="_clipPath_Nl782ZQnyTTMb5YPobO06oshvrR67yGe"><rect width="1451.339" height="1451.339"/></clipPath></defs><g clip-path="url(#_clipPath_Nl782ZQnyTTMb5YPobO06oshvrR67yGe)"><rect width="1451.339" height="1451.339" style="fill:rgb(237,29,36)"/><path d=" M 505.501 362.837 C 464.187 362.837 430.556 396.492 430.556 437.805 L 430.556 1013.536 C 430.556 1054.849 464.187 1088.504 505.501 1088.504 L 945.744 1088.504 C 987.059 1088.504 1020.69 1054.85 1020.69 1013.536 L 1020.69 540.125 C 1020.69 540.125 1021.868 526.262 1015.851 512.773 C 1010.21 500.128 1001.016 491.328 1001.016 491.328 C 1000.993 491.297 1000.971 491.265 1000.947 491.235 L 891.721 384.099 C 891.662 384.037 891.601 383.977 891.54 383.917 C 891.54 383.917 882.214 375.037 868.391 369.105 C 852.114 362.121 835.337 362.858 835.337 362.858 L 835.586 362.835 L 505.501 362.837 Z  M 505.501 387.463 L 835.587 387.463 C 835.67 387.464 835.753 387.464 835.837 387.463 C 835.837 387.463 849.036 387.591 858.691 391.734 C 867.983 395.721 874.572 401.757 874.616 401.798 C 874.616 401.798 874.661 401.844 874.661 401.844 L 983.615 508.73 C 983.615 508.73 990.179 515.661 993.36 522.793 C 995.928 528.549 996.086 539.081 996.086 539.081 C 996.075 539.255 996.067 539.429 996.063 539.603 L 996.063 1013.537 C 996.063 1041.637 973.844 1063.879 945.744 1063.879 L 505.501 1063.879 C 477.4 1063.879 455.181 1041.639 455.181 1013.537 L 455.181 437.806 C 455.181 409.704 477.4 387.464 505.501 387.464 L 505.501 387.463 Z  M 577.908 794.893 C 560.965 777.95 579.296 754.668 629.045 729.944 L 660.348 714.388 L 672.543 687.706 C 679.25 673.03 689.261 649.085 694.788 634.494 L 704.839 607.965 L 697.913 588.332 C 689.397 564.192 686.36 527.914 691.763 514.87 C 699.082 497.201 723.055 499.014 732.546 517.954 C 739.958 532.746 739.201 559.535 730.414 593.319 L 723.211 621.016 L 729.556 631.787 C 733.045 637.712 743.239 651.778 752.208 663.046 L 769.065 684.014 L 790.04 681.277 C 856.676 672.582 879.5 687.36 879.5 708.55 C 879.5 735.293 827.176 737.5 783.238 706.639 C 773.351 699.696 766.562 692.798 766.562 692.798 C 766.562 692.798 739.036 698.402 725.484 702.055 C 711.495 705.825 704.515 708.187 684.023 715.103 C 684.023 715.103 676.834 725.545 672.149 733.135 C 654.718 761.375 634.366 784.778 619.831 793.296 C 603.558 802.833 586.498 803.483 577.908 794.893 L 577.908 794.893 Z  M 604.498 785.394 C 614.022 779.508 633.299 756.708 646.643 735.548 L 652.046 726.98 L 627.446 739.349 C 589.451 758.452 572.07 776.457 581.108 787.347 C 586.185 793.465 592.26 792.958 604.498 785.394 Z  M 851.294 716.12 C 860.609 709.596 859.257 696.447 848.725 691.145 C 840.529 687.02 833.923 686.172 812.631 686.486 C 799.547 687.378 778.508 690.015 774.942 690.817 C 774.942 690.817 786.5 698.806 791.632 701.742 C 798.463 705.643 815.063 712.886 827.183 716.596 C 839.138 720.255 846.054 719.869 851.294 716.12 L 851.294 716.12 Z  M 752.06 674.876 C 746.423 668.95 736.836 656.58 730.757 647.389 C 722.807 636.962 718.82 629.606 718.82 629.606 C 718.82 629.606 713.009 648.297 708.242 659.545 L 693.368 696.308 L 689.055 704.648 C 689.055 704.648 711.981 697.131 723.646 694.084 C 736 690.857 761.074 685.926 761.074 685.926 L 752.06 674.876 Z  M 720.081 546.632 C 721.519 534.564 722.13 522.514 718.252 516.438 C 707.498 504.681 694.518 514.485 696.716 542.436 C 697.456 551.839 699.792 567.913 702.915 577.82 L 708.593 595.833 L 712.589 582.266 C 714.787 574.804 718.159 558.769 720.081 546.632 L 720.081 546.632 Z  M 606.722 873.355 L 634.23 873.355 Q 647.414 873.355 655.634 875.877 Q 663.854 878.319 669.469 886.864 Q 675.085 895.328 675.085 907.292 Q 675.085 918.279 670.527 926.173 Q 665.97 934.068 658.238 937.567 Q 650.588 941.067 634.637 941.067 L 625.115 941.067 L 625.115 984.445 L 606.722 984.445 L 606.722 873.355 Z  M 625.115 887.597 L 625.115 926.336 L 634.23 926.336 Q 646.438 926.336 651.076 921.778 Q 655.797 917.221 655.797 906.966 Q 655.797 899.316 652.704 894.596 Q 649.612 889.794 645.868 888.736 Q 642.205 887.596 634.23 887.596 L 625.115 887.597 Z  M 689.165 873.355 L 714.15 873.355 Q 732.299 873.355 743.123 879.784 Q 754.028 886.213 759.562 898.909 Q 765.178 911.605 765.178 927.068 Q 765.178 943.345 760.132 956.123 Q 755.168 968.819 744.832 976.632 Q 734.577 984.445 715.533 984.445 L 689.165 984.445 L 689.165 873.355 Z  M 707.558 888.085 L 707.558 969.714 L 715.208 969.714 Q 731.241 969.714 738.484 958.646 Q 745.727 947.496 745.727 928.94 Q 745.727 888.085 715.208 888.085 L 707.558 888.085 Z  M 782.839 873.355 L 844.528 873.355 L 844.528 888.085 L 801.232 888.085 L 801.232 921.29 L 835.901 921.29 L 835.901 936.021 L 801.232 936.021 L 801.232 984.445 L 782.839 984.445 L 782.839 873.355 Z " fill-rule="evenodd" fill="rgb(239,191,4)"/></g></svg>