<?xml version="1.0" encoding="UTF-8" standalone="no"?><!-- Generator: Gravit.io --><svg xmlns="http://www.w3.org/2000/svg" xmlns:xlink="http://www.w3.org/1999/xlink" style="isolation:isolate" viewBox="0 0 512 512" width="512pt" height="512pt"><defs><clipPath id="_clipPath_vi2pnMWV1H30Xgsa7pPUy6obArDJIFa0"><rect width="512" height="512"/></clipPath></defs><g clip-path="url(#_clipPath_vi2pnMWV1H30Xgsa7pPUy6obArDJIFa0)"><rect width="512" height="512" style="fill:rgb(27,27,29)"/><path d=" M 373.953 143.49 C 369.107 138.737 363.982 134.278 358.604 130.137 C 356.739 128.739 354.374 128.182 352.081 128.602 C 320.364 133.841 288.298 136.689 256.153 137.12 C 223.946 136.547 191.828 133.545 160.072 128.142 C 157.779 127.712 155.411 128.269 153.549 129.676 C 148.106 133.962 142.929 138.575 138.047 143.49 C 136.477 144.809 135.463 146.673 135.208 148.709 C 135.208 155.846 135.208 161.755 135.208 167.434 C 135.208 173.113 135.208 180.633 135.668 188.307 C 137.771 240.722 147.971 292.496 165.905 341.792 C 166.375 343.093 167.167 344.255 168.207 345.168 C 192.611 366.426 230.522 384 256.153 384 C 281.785 384 319.389 366.503 343.947 345.168 C 344.986 344.255 345.778 343.093 346.249 341.792 C 364.131 292.488 374.278 240.714 376.332 188.307 C 376.332 180.633 376.792 173.88 376.792 167.51 C 376.792 161.141 376.792 155.846 376.792 148.785 C 376.556 146.722 375.54 144.828 373.953 143.49 Z  M 237.889 288.072 L 237.428 288.84 C 227.836 305.876 212.334 308.025 194.913 301.118 C 177.493 294.212 162.988 279.938 169.051 259.985 C 174.807 242.027 202.818 249.317 215.787 252.31 C 234.052 256.838 247.942 267.659 238.196 287.151 C 238.58 286.691 238.733 286.537 237.889 288.072 Z  M 343.179 275.64 C 338.728 293.828 320.54 303.344 302.582 305.263 C 286.083 306.951 271.502 290.988 270.888 274.566 C 270.888 275.64 270.888 276.638 270.888 273.875 C 270.888 273.108 270.888 273.108 270.888 273.338 C 271.425 253.922 300.05 250.315 314.478 249.011 C 333.51 247.169 348.474 253.692 343.179 275.64 Z " fill="rgb(102,0,51)"/></g></svg>