<?xml version="1.0" encoding="UTF-8" standalone="no"?><!-- Generator: Gravit.io --><svg xmlns="http://www.w3.org/2000/svg" xmlns:xlink="http://www.w3.org/1999/xlink" style="isolation:isolate" viewBox="0 0 512 512" width="512pt" height="512pt"><defs><clipPath id="_clipPath_wcVTtnvoU9Cz0t44bDjsKLMv1qm5zqtH"><rect width="512" height="512"/></clipPath></defs><g clip-path="url(#_clipPath_wcVTtnvoU9Cz0t44bDjsKLMv1qm5zqtH)"><path d="M 477.714 383.995 L 256.005 512 L 34.286 383.995 L 34.286 127.985 L 256.005 0 L 477.714 127.985 L 477.714 383.995 Z" fill-rule="evenodd" fill="rgb(237,29,36)" /><path d=" M 225.983 173.491 C 227.685 177.4 230.04 180.95 232.9 183.839 C 235.77 186.889 239.282 189.268 243.3 190.988 C 247.169 192.667 251.384 193.527 255.906 193.527 C 260.468 193.527 264.633 192.667 268.502 190.988 C 272.371 189.268 275.884 186.889 278.942 183.839 C 281.801 180.95 284.117 177.4 285.819 173.491 C 287.481 169.592 288.332 165.333 288.332 160.764 C 288.332 156.195 287.481 151.935 285.819 148.026 C 284.117 144.127 281.801 140.568 278.942 137.488 C 275.884 134.599 272.371 132.249 268.502 130.529 C 264.633 128.85 260.468 128 255.906 128 C 251.384 128 247.169 128.85 243.3 130.529 C 239.282 132.249 235.77 134.599 232.9 137.488 C 230.04 140.568 227.685 144.127 225.983 148.026 C 224.173 151.935 223.322 156.195 223.322 160.764 C 223.322 165.333 224.173 169.592 225.983 173.491 Z  M 160.973 363.964 C 162.675 367.873 165.03 371.422 168.048 374.312 C 170.907 377.361 174.42 379.741 178.289 381.46 C 182.158 383.14 186.363 384 190.886 384 L 321.114 384 C 325.637 384 329.842 383.14 333.869 381.46 C 337.728 379.741 341.251 377.361 344.111 374.312 C 346.97 371.422 349.325 367.873 351.027 363.964 C 352.69 360.055 353.541 355.805 353.541 351.236 L 353.541 278.901 L 203.838 278.901 L 203.838 259.224 L 353.541 259.224 L 353.541 246.137 C 353.541 241.568 352.69 237.309 351.027 233.409 C 349.325 229.5 346.97 225.941 344.111 222.901 C 341.251 220.012 337.728 217.623 333.869 215.943 C 329.842 214.233 325.637 213.373 321.114 213.373 L 190.886 213.373 C 186.363 213.373 182.158 214.233 178.289 215.943 C 174.42 217.623 170.907 220.012 168.048 222.901 C 165.03 225.941 162.675 229.5 160.973 233.409 C 159.31 237.309 158.459 241.568 158.459 246.137 L 158.459 318.463 L 307.816 318.463 L 307.816 338.149 L 158.459 338.149 L 158.459 351.236 C 158.459 355.805 159.31 360.055 160.973 363.964 L 160.973 363.964 Z " fill-rule="evenodd" fill="rgb(239,191,4)"/></g></svg>