<?xml version="1.0" encoding="UTF-8" standalone="no"?><!-- Generator: Gravit.io --><svg xmlns="http://www.w3.org/2000/svg" xmlns:xlink="http://www.w3.org/1999/xlink" style="isolation:isolate" viewBox="0 0 512 512" width="512pt" height="512pt"><defs><clipPath id="_clipPath_SQbZAmNXwxhThVGyeWp9FJfOVSiqZx4a"><rect width="512" height="512"/></clipPath></defs><g clip-path="url(#_clipPath_SQbZAmNXwxhThVGyeWp9FJfOVSiqZx4a)"><path d="M 477.714 383.995 L 256.005 512 L 34.286 383.995 L 34.286 127.985 L 256.005 0 L 477.714 127.985 L 477.714 383.995 Z" fill-rule="evenodd" fill="rgb(239,191,4)" /><path d=" M 155.445 204.583 L 155.445 239.014 C 155.445 239.014 167.577 239.014 174.07 238.521 C 179.176 237.627 180.116 237.134 181.056 232.028 L 182.935 224.549 L 188.488 224.549 L 187.549 240.894 L 188.041 257.639 L 182.442 257.639 L 181.056 251.1 C 179.669 246.447 177.789 245.501 174.07 245.054 C 169.416 244.561 155.445 244.561 155.445 244.561 L 155.445 273.439 C 155.445 278.992 158.264 281.364 164.757 281.364 L 184.322 281.364 C 190.368 281.364 196.408 280.872 200.174 272.052 L 205.234 260.86 L 209.933 260.86 C 209.44 263.186 207.114 283.691 206.667 288.304 C 206.667 288.304 188.981 287.857 181.548 287.857 L 148.012 287.857 L 128 288.304 L 128 283.244 L 134.493 281.811 C 139.192 280.872 140.579 279.485 140.579 275.765 C 140.579 275.765 141.072 263.186 141.072 242.229 C 141.072 221.323 140.579 208.738 140.579 208.738 C 140.579 204.572 139.192 203.632 134.493 202.692 L 128 201.317 L 128 196.211 L 147.565 196.612 L 184.815 196.612 C 192.248 196.612 204.781 195.271 204.781 195.271 C 204.781 195.271 204.334 203.151 203.841 221.776 L 198.735 221.776 L 196.855 215.237 C 195.022 206.864 192.242 202.698 187.096 202.698 L 157.817 202.698 C 155.445 202.704 155.445 203.151 155.445 204.583 Z  M 230.839 208.257 L 236.438 208.257 L 236.438 227.822 L 255.556 226.882 L 254.616 235.747 L 235.991 234.315 L 235.991 268.791 C 235.991 278.551 239.258 282.31 244.856 282.31 C 249.917 282.31 253.676 279.49 255.063 277.164 L 257.837 280.43 C 255.063 286.923 247.183 290.19 239.705 290.19 C 230.438 290.19 222.913 284.637 222.913 273.937 L 222.913 234.802 L 211.807 234.802 L 211.807 230.148 C 221.125 229.209 228.065 223.61 230.839 208.257 Z  M 270.909 268.293 L 274.622 277.158 C 276.009 280.872 279.276 284.637 286.708 284.637 C 294.634 284.637 297.901 280.43 297.901 275.324 C 297.901 259.473 266.697 264.132 266.697 242.727 C 266.697 230.641 276.456 224.996 289.035 224.996 C 294.634 224.996 303.007 225.936 307.213 227.816 C 306.273 232.469 305.78 238.515 305.78 243.174 L 301.167 243.621 L 297.901 234.309 C 296.961 232.028 293.201 230.143 288.588 230.143 C 282.989 230.143 277.396 232.469 277.396 238.515 C 277.396 252.934 309.54 249.708 309.54 271.112 C 309.54 283.244 298.841 289.737 285.769 289.737 C 276.009 289.737 266.204 285.978 266.204 285.978 C 267.144 280.425 266.697 274.384 266.204 268.293 L 270.909 268.293 Z  M 307.219 312.975 C 308.606 307.869 309.546 301.382 310.485 295.29 L 315.592 294.843 L 317.471 304.603 C 317.918 306.929 319.305 308.809 323.024 308.809 C 329.07 308.809 336.996 305.096 344.469 292.064 C 341.157 284.138 331.397 258.573 322.532 239.008 C 320.205 233.862 319.758 233.409 316.531 232.469 L 314.159 231.575 L 314.159 226.876 L 328.171 227.369 L 345.363 226.429 L 345.363 231.088 L 341.157 232.028 C 337.89 232.475 336.543 234.309 336.543 236.194 C 336.543 236.687 336.543 237.134 336.99 238.074 C 337.884 240.894 345.363 261.805 350.962 275.771 C 355.575 266.012 364.441 244.12 365.828 240.401 C 366.321 238.521 366.768 238.074 366.768 236.687 C 366.768 234.315 365.381 232.928 362.154 232.034 L 358.842 231.088 L 358.842 226.435 L 371.914 226.882 L 384 226.435 L 384 231.088 L 381.673 232.922 C 377.02 234.802 376.527 235.249 374.687 239.008 L 354.229 286.912 C 342.096 314.402 329.517 316.729 320.692 316.729 C 315.099 316.735 310.892 315.302 307.219 312.975 Z " fill="rgb(237,29,36)"/></g></svg>