<svg width="786" height="67" viewBox="0 0 786 67" fill="none" xmlns="http://www.w3.org/2000/svg">
<path d="M42 0.26709L78 36.3339V0.26709H42Z" fill="#FFC815"/>
<path d="M42 66.2671L78 30.2671V66.2671H42Z" fill="#FFC815"/>
<rect x="72" y="30.2671" width="6" height="6" fill="#FFC815"/>
<rect x="60" y="18.2671" width="6" height="6" fill="#FFC815"/>
<rect x="48" y="6.26709" width="6" height="6" fill="#FFC815"/>
<rect x="42" y="0.26709" width="6" height="6" fill="#FFC815"/>
<rect x="66" y="24.2671" width="6" height="6" fill="#FFC815"/>
<rect x="54" y="12.2671" width="6" height="6" fill="#FFC815"/>
<rect x="42" y="0.26709" width="36" height="3" fill="#FFC815"/>
<rect x="78" y="63.2671" width="3" height="36" transform="rotate(90 78 63.2671)" fill="#FFC815"/>
<rect x="60" y="48.2671" width="6" height="6" transform="rotate(90 60 48.2671)" fill="#FFC815"/>
<rect x="72" y="36.2671" width="6" height="6" transform="rotate(90 72 36.2671)" fill="#FFC815"/>
<rect x="54" y="54.2671" width="6" height="6" transform="rotate(90 54 54.2671)" fill="#FFC815"/>
<rect x="48" y="60.2671" width="6" height="6" transform="rotate(90 48 60.2671)" fill="#FFC815"/>
<rect x="66" y="42.2671" width="6" height="6" transform="rotate(90 66 42.2671)" fill="#FFC815"/>
<rect x="78" y="30.2671" width="6" height="6" transform="rotate(90 78 30.2671)" fill="#FFC815"/>
<rect x="51" y="30.2671" width="6" height="6" fill="#FFC815"/>
<rect x="39" y="18.2671" width="6" height="6" fill="#FFC815"/>
<rect x="27" y="6.26709" width="6" height="6" fill="#FFC815"/>
<rect x="45" y="24.2671" width="6" height="6" fill="#FFC815"/>
<rect x="33" y="12.2671" width="6" height="6" fill="#FFC815"/>
<rect x="21" y="0.26709" width="6" height="6" fill="#FFC815"/>
<rect x="27" y="60.2671" width="6" height="6" transform="rotate(90 27 60.2671)" fill="#FFC815"/>
<rect x="39" y="48.2671" width="6" height="6" transform="rotate(90 39 48.2671)" fill="#FFC815"/>
<rect x="51" y="36.2671" width="6" height="6" transform="rotate(90 51 36.2671)" fill="#FFC815"/>
<rect x="33" y="54.2671" width="6" height="6" transform="rotate(90 33 54.2671)" fill="#FFC815"/>
<rect x="45" y="42.2671" width="6" height="6" transform="rotate(90 45 42.2671)" fill="#FFC815"/>
<rect x="57" y="30.2671" width="6" height="6" transform="rotate(90 57 30.2671)" fill="#FFC815"/>
<rect x="30" y="30.2671" width="6" height="6" fill="#FFC815"/>
<rect x="18" y="18.2671" width="6" height="6" fill="#FFC815"/>
<rect x="6" y="6.26709" width="6" height="6" fill="#FFC815"/>
<rect x="24" y="24.2671" width="6" height="6" fill="#FFC815"/>
<rect x="12" y="12.2671" width="6" height="6" fill="#FFC815"/>
<rect y="0.26709" width="6" height="6" fill="#FFC815"/>
<rect x="6" y="60.2671" width="6" height="6" transform="rotate(90 6 60.2671)" fill="#FFC815"/>
<rect x="18" y="48.2671" width="6" height="6" transform="rotate(90 18 48.2671)" fill="#FFC815"/>
<rect x="30" y="36.2671" width="6" height="6" transform="rotate(90 30 36.2671)" fill="#FFC815"/>
<rect x="12" y="54.2671" width="6" height="6" transform="rotate(90 12 54.2671)" fill="#FFC815"/>
<rect x="24" y="42.2671" width="6" height="6" transform="rotate(90 24 42.2671)" fill="#FFC815"/>
<rect x="36" y="30.2671" width="6" height="6" transform="rotate(90 36 30.2671)" fill="#FFC815"/>
<path d="M744 0.26709L708 36.3339V0.26709H744Z" fill="#FFC815"/>
<path d="M744 66.2671L708 30.2671V66.2671H744Z" fill="#FFC815"/>
<rect width="6" height="6" transform="matrix(-1 0 0 1 714 30.2671)" fill="#FFC815"/>
<rect width="6" height="6" transform="matrix(-1 0 0 1 726 18.2671)" fill="#FFC815"/>
<rect width="6" height="6" transform="matrix(-1 0 0 1 738 6.26709)" fill="#FFC815"/>
<rect width="6" height="6" transform="matrix(-1 0 0 1 744 0.26709)" fill="#FFC815"/>
<rect width="6" height="6" transform="matrix(-1 0 0 1 720 24.2671)" fill="#FFC815"/>
<rect width="6" height="6" transform="matrix(-1 0 0 1 732 12.2671)" fill="#FFC815"/>
<rect width="36" height="3" transform="matrix(-1 0 0 1 744 0.26709)" fill="#FFC815"/>
<rect width="3" height="36" transform="matrix(0 1 1 0 708 63.2671)" fill="#FFC815"/>
<rect width="6" height="6" transform="matrix(0 1 1 0 726 48.2671)" fill="#FFC815"/>
<rect width="6" height="6" transform="matrix(0 1 1 0 714 36.2671)" fill="#FFC815"/>
<rect width="6" height="6" transform="matrix(0 1 1 0 732 54.2671)" fill="#FFC815"/>
<rect width="6" height="6" transform="matrix(0 1 1 0 738 60.2671)" fill="#FFC815"/>
<rect width="6" height="6" transform="matrix(0 1 1 0 720 42.2671)" fill="#FFC815"/>
<rect width="6" height="6" transform="matrix(0 1 1 0 708 30.2671)" fill="#FFC815"/>
<rect width="6" height="6" transform="matrix(-1 0 0 1 735 30.2671)" fill="#FFC815"/>
<rect width="6" height="6" transform="matrix(-1 0 0 1 747 18.2671)" fill="#FFC815"/>
<rect width="6" height="6" transform="matrix(-1 0 0 1 759 6.26709)" fill="#FFC815"/>
<rect width="6" height="6" transform="matrix(-1 0 0 1 741 24.2671)" fill="#FFC815"/>
<rect width="6" height="6" transform="matrix(-1 0 0 1 753 12.2671)" fill="#FFC815"/>
<rect width="6" height="6" transform="matrix(-1 0 0 1 765 0.26709)" fill="#FFC815"/>
<rect width="6" height="6" transform="matrix(0 1 1 0 759 60.2671)" fill="#FFC815"/>
<rect width="6" height="6" transform="matrix(0 1 1 0 747 48.2671)" fill="#FFC815"/>
<rect width="6" height="6" transform="matrix(0 1 1 0 735 36.2671)" fill="#FFC815"/>
<rect width="6" height="6" transform="matrix(0 1 1 0 753 54.2671)" fill="#FFC815"/>
<rect width="6" height="6" transform="matrix(0 1 1 0 741 42.2671)" fill="#FFC815"/>
<rect width="6" height="6" transform="matrix(0 1 1 0 729 30.2671)" fill="#FFC815"/>
<rect width="6" height="6" transform="matrix(-1 0 0 1 756 30.2671)" fill="#FFC815"/>
<rect width="6" height="6" transform="matrix(-1 0 0 1 768 18.2671)" fill="#FFC815"/>
<rect width="6" height="6" transform="matrix(-1 0 0 1 780 6.26709)" fill="#FFC815"/>
<rect width="6" height="6" transform="matrix(-1 0 0 1 762 24.2671)" fill="#FFC815"/>
<rect width="6" height="6" transform="matrix(-1 0 0 1 774 12.2671)" fill="#FFC815"/>
<rect width="6" height="6" transform="matrix(-1 0 0 1 786 0.26709)" fill="#FFC815"/>
<rect width="6" height="6" transform="matrix(0 1 1 0 780 60.2671)" fill="#FFC815"/>
<rect width="6" height="6" transform="matrix(0 1 1 0 768 48.2671)" fill="#FFC815"/>
<rect width="6" height="6" transform="matrix(0 1 1 0 756 36.2671)" fill="#FFC815"/>
<rect width="6" height="6" transform="matrix(0 1 1 0 774 54.2671)" fill="#FFC815"/>
<rect width="6" height="6" transform="matrix(0 1 1 0 762 42.2671)" fill="#FFC815"/>
<rect width="6" height="6" transform="matrix(0 1 1 0 750 30.2671)" fill="#FFC815"/>
<rect x="73" y="0.27002" width="640" height="66" fill="#FFC815"/>
<rect width="640" height="66" transform="translate(73 0.26709)" fill="#FFC815"/>
<path d="M96.5 40.7671V25.7671H91.5V23.2671H106.5V25.7671H101.5V40.7671H96.5ZM109 40.7671V23.2671H114V28.2671H124V30.7671H126.5V40.7671H121.5V30.7671H114V40.7671H109ZM131.5 40.7671V38.2671H129V30.7671H131.5V28.2671H144V30.7671H146.5V35.7671H134V38.2671H144V40.7671H131.5ZM134 33.2671H141.5V30.7671H134V33.2671ZM176.5 30.7671H179V33.2671H176.5V40.7671H171.5V28.2671H176.5V30.7671ZM186.5 28.2671V30.7671H179V28.2671H186.5ZM196.5 25.7671V23.2671H201.5V25.7671H196.5ZM191.5 40.7671V38.2671H196.5V30.7671H194V28.2671H201.5V38.2671H206.5V40.7671H191.5ZM211.5 43.2671V40.7671H221.5V38.2671H211.5V35.7671H209V30.7671H211.5V28.2671H226.5V40.7671H224V43.2671H211.5ZM214 35.7671H221.5V30.7671H214V35.7671ZM229 40.7671V23.2671H234V28.2671H244V30.7671H246.5V40.7671H241.5V30.7671H234V40.7671H229ZM256.5 40.7671V30.7671H251.5V28.2671H256.5V23.2671H261.5V28.2671H266.5V30.7671H261.5V40.7671H256.5ZM291.5 40.7671V38.2671H296.5V25.7671H294V23.2671H301.5V38.2671H306.5V40.7671H291.5ZM316.5 25.7671V23.2671H321.5V25.7671H316.5ZM311.5 40.7671V38.2671H316.5V30.7671H314V28.2671H321.5V38.2671H326.5V40.7671H311.5ZM329 40.7671V28.2671H344V30.7671H346.5V40.7671H341.5V30.7671H334V40.7671H329ZM351.5 40.7671V38.2671H349V30.7671H351.5V28.2671H364V30.7671H366.5V35.7671H354V38.2671H364V40.7671H351.5ZM354 33.2671H361.5V30.7671H354V33.2671ZM371.5 40.7671V38.2671H369V28.2671H374V38.2671H381.5V28.2671H386.5V40.7671H371.5ZM389 43.2671V28.2671H404V30.7671H406.5V35.7671H404V38.2671H394V43.2671H389ZM394 35.7671H401.5V30.7671H394V35.7671ZM436.5 40.7671V30.7671H431.5V28.2671H436.5V23.2671H441.5V28.2671H446.5V30.7671H441.5V40.7671H436.5ZM451.5 40.7671V38.2671H449V30.7671H451.5V28.2671H464V30.7671H466.5V38.2671H464V40.7671H451.5ZM454 38.2671H461.5V30.7671H454V38.2671ZM489 40.7671V38.2671H501.5V35.7671H491.5V33.2671H489V30.7671H491.5V28.2671H504V30.7671H494V33.2671H504V35.7671H506.5V38.2671H504V40.7671H489ZM516.5 40.7671V30.7671H511.5V28.2671H516.5V23.2671H521.5V28.2671H526.5V30.7671H521.5V40.7671H516.5ZM531.5 40.7671V38.2671H529V35.7671H531.5V33.2671H541.5V30.7671H531.5V28.2671H544V30.7671H546.5V40.7671H531.5ZM534 38.2671H541.5V35.7671H534V38.2671ZM556.5 30.7671H559V33.2671H556.5V40.7671H551.5V28.2671H556.5V30.7671ZM566.5 28.2671V30.7671H559V28.2671H566.5ZM576.5 40.7671V30.7671H571.5V28.2671H576.5V23.2671H581.5V28.2671H586.5V30.7671H581.5V40.7671H576.5ZM611.5 43.2671V40.7671H621.5V38.2671H611.5V35.7671H609V30.7671H611.5V28.2671H626.5V40.7671H624V43.2671H611.5ZM614 35.7671H621.5V30.7671H614V35.7671ZM631.5 40.7671V38.2671H629V35.7671H631.5V33.2671H641.5V30.7671H631.5V28.2671H644V30.7671H646.5V40.7671H631.5ZM634 38.2671H641.5V35.7671H634V38.2671ZM649 40.7671V28.2671H664V30.7671H666.5V40.7671H661.5V30.7671H659V40.7671H654V30.7671H651.5V40.7671H649ZM671.5 40.7671V38.2671H669V30.7671H671.5V28.2671H684V30.7671H686.5V35.7671H674V38.2671H684V40.7671H671.5ZM674 33.2671H681.5V30.7671H674V33.2671Z" fill="#C81519"/>
</svg>
