<?xml version="1.0" encoding="UTF-8" standalone="no"?><!-- Generator: Gravit.io --><svg xmlns="http://www.w3.org/2000/svg" xmlns:xlink="http://www.w3.org/1999/xlink" style="isolation:isolate" viewBox="0 0 512 512" width="512pt" height="512pt"><defs><clipPath id="_clipPath_I4Bp4FqmmEg4dpiG5wClzJjwnBBSiOJm"><rect width="512" height="512"/></clipPath></defs><g clip-path="url(#_clipPath_I4Bp4FqmmEg4dpiG5wClzJjwnBBSiOJm)"><path d="M 477.714 383.995 L 256.005 512 L 34.286 383.995 L 34.286 127.985 L 256.005 0 L 477.714 127.985 L 477.714 383.995 Z" fill-rule="evenodd" fill="rgb(27,27,29)" /><path d=" M 310.624 220.411 C 327.154 232.22 347.403 239.169 369.274 239.169 L 369.274 197.105 C 365.135 197.106 361.006 196.675 356.957 195.817 L 356.957 228.928 C 335.088 228.928 314.841 221.979 298.307 210.17 L 298.307 296.01 C 298.307 338.951 263.479 373.759 220.518 373.759 C 204.489 373.759 189.59 368.916 177.213 360.609 C 191.339 375.045 211.038 384 232.832 384 C 275.796 384 310.626 349.192 310.626 306.248 L 310.626 220.411 L 310.624 220.411 L 310.624 220.411 Z  M 325.818 177.974 C 317.371 168.749 311.824 156.829 310.624 143.65 L 310.624 138.24 L 298.952 138.24 C 301.89 154.99 311.911 169.3 325.818 177.974 L 325.818 177.974 Z  M 204.386 327.657 C 199.666 321.472 197.116 313.905 197.127 306.125 C 197.127 286.486 213.057 270.562 232.711 270.562 C 236.374 270.561 240.015 271.121 243.505 272.228 L 243.505 229.224 C 239.426 228.666 235.309 228.428 231.194 228.515 L 231.194 261.988 C 227.701 260.88 224.058 260.318 220.394 260.322 C 200.741 260.322 184.811 276.244 184.811 295.887 C 184.811 309.775 192.774 321.799 204.386 327.657 Z  M 298.307 210.169 C 314.841 221.978 335.088 228.927 356.957 228.927 L 356.957 195.817 C 344.75 193.218 333.943 186.842 325.818 177.974 C 311.91 169.299 301.89 154.989 298.952 138.24 L 268.294 138.24 L 268.294 306.247 C 268.224 325.833 252.321 341.692 232.709 341.692 C 221.153 341.692 210.885 336.186 204.383 327.657 C 192.772 321.799 184.809 309.774 184.809 295.887 C 184.809 276.247 200.739 260.323 220.393 260.323 C 224.158 260.323 227.788 260.909 231.192 261.988 L 231.192 228.516 C 188.986 229.388 155.042 263.856 155.042 306.248 C 155.042 327.409 163.495 346.593 177.214 360.61 C 189.591 368.916 204.489 373.76 220.519 373.76 C 263.481 373.76 298.308 338.95 298.308 296.01 L 298.308 210.169 L 298.307 210.169 Z  M 356.957 195.817 L 356.957 186.864 C 345.949 186.881 335.158 183.799 325.818 177.973 C 334.086 187.019 344.972 193.257 356.957 195.817 Z  M 298.952 138.24 C 298.672 136.639 298.457 135.028 298.307 133.41 L 298.307 128 L 255.976 128 L 255.976 296.009 C 255.908 315.592 240.006 331.451 220.393 331.451 C 214.634 331.451 209.198 330.085 204.383 327.658 C 210.885 336.186 221.153 341.691 232.709 341.691 C 252.319 341.691 268.225 325.834 268.294 306.248 L 268.294 138.24 L 298.952 138.24 Z  M 231.194 228.516 L 231.194 218.986 C 227.657 218.502 224.09 218.26 220.52 218.262 C 177.555 218.261 142.726 253.071 142.726 296.009 C 142.726 322.928 156.415 346.653 177.215 360.608 C 163.496 346.592 155.043 327.407 155.043 306.247 C 155.043 263.856 188.986 229.388 231.194 228.516 Z " fill-rule="evenodd" fill="rgb(255,255,255)"/></g></svg>