<?xml version="1.0" encoding="UTF-8" standalone="no"?><!-- Generator: Gravit.io --><svg xmlns="http://www.w3.org/2000/svg" xmlns:xlink="http://www.w3.org/1999/xlink" style="isolation:isolate" viewBox="0 0 512 512" width="512pt" height="512pt"><defs><clipPath id="_clipPath_H0Mta7BLLz945UGW4rjFBfcxhiIdRbsr"><rect width="512" height="512"/></clipPath></defs><g clip-path="url(#_clipPath_H0Mta7BLLz945UGW4rjFBfcxhiIdRbsr)"><rect x="0" y="0" width="512" height="512" transform="matrix(1,0,0,1,0,0)" fill="rgb(17,17,132)"/><path d=" M 256.023 128 C 185.281 128 128 185.278 128 255.995 C 128 326.676 185.281 384 256.023 384 C 326.728 384 384 326.676 384 255.995 C 384 185.278 326.728 128 256.023 128 Z  M 256.023 150.57 C 287.888 150.57 316.386 164.728 335.649 186.966 L 298.931 186.966 L 302.234 180.049 C 305.943 171.978 291.551 164.857 287.372 173.786 L 280.748 186.966 L 176.407 186.966 C 195.614 164.608 224.167 150.57 256.023 150.57 Z  M 150.575 255.875 C 150.575 235.704 156.267 216.666 166.129 200.589 C 166.129 200.589 263.634 204.878 264.686 204.878 C 265.664 204.878 267.057 205.238 267.869 207.027 C 268.634 208.826 277.509 229.828 278.146 231.055 C 278.616 232.199 278.616 234.348 274.779 234.348 C 270.655 234.348 186.278 234.348 179.718 234.348 C 173.168 234.348 167.937 239.559 167.937 246.117 C 167.937 246.117 167.937 279.598 167.937 281.748 C 167.937 284.588 168.74 287.097 170.318 289.007 C 172.938 292.078 177.458 293.655 178.279 293.996 C 179.497 294.458 179.728 293.655 179.728 292.945 C 179.728 292.327 179.728 248.515 179.728 247.519 C 179.728 246.375 180.42 245.785 181.296 245.785 C 182.099 245.785 191.389 245.785 191.619 245.785 C 191.85 245.785 193.013 245.785 192.21 247.058 C 189.018 251.937 187.33 256.586 187.33 264.896 C 187.33 277.772 196.85 286.645 199.922 288.776 C 200.273 289.025 200.734 289.827 200.144 291.054 C 199.572 292.235 190.863 309.566 190.512 310.202 C 190.051 311.134 189.71 312.185 190.872 313.403 L 237.129 359.41 C 187.883 350.592 150.575 307.703 150.575 255.875 Z  M 261.365 361.153 C 261.365 361.153 216.907 316.576 213.835 313.514 C 212.728 312.462 213.604 311.595 214.065 310.663 C 214.527 309.732 230.081 280.364 230.727 278.925 C 231.428 277.468 232.821 277.246 233.042 277.246 C 234.02 277.246 243.31 277.246 243.541 277.246 C 243.772 277.246 245.054 277.366 244.362 278.814 C 243.67 280.263 229.85 307.823 229.5 308.514 C 229.149 309.206 229.278 310.193 229.85 310.793 C 230.431 311.364 278.017 358.893 278.017 358.893 C 272.629 360.102 267.057 360.803 261.365 361.153 L 261.365 361.153 Z  M 295.499 353.535 L 253.412 311.355 C 252.536 310.534 252.896 309.446 253.006 308.865 L 268.164 278.685 C 268.865 277.468 269.788 277.127 270.885 277.127 C 270.885 277.127 296.662 277.127 297.354 277.127 C 298.11 277.127 298.571 277.892 298.11 278.814 L 290.969 294.882 C 290.868 295.223 290.628 296.404 291.56 296.976 L 301.311 303.423 C 302.465 304.235 303.452 303.423 303.811 302.731 C 304.042 302.086 314.255 278.704 314.255 278.704 C 315.011 277.486 315.703 277.145 316.976 277.145 L 325.916 277.145 C 326.276 277.145 327.309 277.385 326.737 278.704 C 326.147 280.05 319.366 295.601 319.366 295.601 C 319.237 295.952 319.015 297.105 319.993 297.76 L 329.689 304.124 C 330.916 304.991 331.848 304.124 332.189 303.432 C 332.595 302.74 343.048 278.944 343.85 276.924 C 346.71 270.403 345.548 259.556 332.595 259.556 C 332.595 259.556 319.716 259.556 318.203 259.556 C 316.506 259.556 316.164 258.283 316.164 257.757 C 316.164 257.185 316.164 207.987 316.164 207.987 C 316.164 206.004 317.198 204.906 318.665 204.786 C 319.237 204.675 345.769 200.608 345.769 200.608 C 355.622 216.685 361.324 235.593 361.324 255.783 C 361.314 300.222 334.081 337.993 295.499 353.535 L 295.499 353.535 Z " fill="rgb(255,255,255)"/></g></svg>