<?xml version="1.0" encoding="UTF-8" standalone="no"?><!-- Generator: Gravit.io --><svg xmlns="http://www.w3.org/2000/svg" xmlns:xlink="http://www.w3.org/1999/xlink" style="isolation:isolate" viewBox="0 0 512 512" width="512pt" height="512pt"><defs><clipPath id="_clipPath_je5m1FyGKGrFETlP1eREiM7qOThZ0HE8"><rect width="512" height="512"/></clipPath></defs><g clip-path="url(#_clipPath_je5m1FyGKGrFETlP1eREiM7qOThZ0HE8)"><rect x="0" y="0" width="512" height="512" transform="matrix(1,0,0,1,0,0)" fill="rgb(0,0,128)"/><path d=" M 128 256.006 C 128 185.3 185.3 128 256.006 128 C 326.711 128 384 185.3 384 256.006 C 384 317.864 340.146 369.462 281.819 381.406 C 273.487 383.116 264.854 384 256.041 384 L 128 384 L 128 256 L 128 256.006 Z  M 344.579 243.878 L 286.898 243.878 L 273.316 267.407 L 320.877 267.407 C 313.425 308.33 267.915 336.19 222.436 312.625 C 212.657 307.563 204.693 299.737 199.548 289.957 C 173.384 240.146 209.126 190.031 256.29 190.031 C 275.737 190.031 293.248 198.547 305.278 212.047 L 317.466 190.933 C 300.102 174.496 276.134 164.924 250 166.763 C 205.506 169.832 169.432 206.712 167.266 251.248 C 164.797 302.384 205.672 344.747 256.261 344.747 C 306.85 344.747 345.38 304.757 345.38 255.622 C 345.38 251.628 345.078 247.712 344.574 243.878 L 344.579 243.878 Z " fill-rule="evenodd" fill="rgb(255,255,255)"/></g></svg>