<?xml version="1.0" encoding="UTF-8" standalone="no"?><!-- Generator: Gravit.io --><svg xmlns="http://www.w3.org/2000/svg" xmlns:xlink="http://www.w3.org/1999/xlink" style="isolation:isolate" viewBox="0 0 512 512" width="512pt" height="512pt"><defs><clipPath id="_clipPath_pmxsJ30uRxXMuZ8WPv41BJ00sm5SmaMh"><rect width="512" height="512"/></clipPath></defs><g clip-path="url(#_clipPath_pmxsJ30uRxXMuZ8WPv41BJ00sm5SmaMh)"><circle vector-effect="non-scaling-stroke" cx="256" cy="256" r="256" fill="rgb(237,29,36)" /><path d=" M 242.207 299.68 C 251.382 305.125 266.691 313.443 283.89 313.68 L 284.597 313.68 C 294.31 313.68 301.242 311.04 305.74 306.878 C 310.338 302.618 312.126 297.013 312.186 291.882 C 312.009 274.26 293.511 266.07 276.817 256.74 C 259.838 247.425 244.376 237.539 244.376 220.029 L 244.39 219.516 C 244.689 196.926 264.549 185.558 290.958 185.546 L 291.418 185.546 C 306.306 185.696 321.825 189.573 327.874 190.894 L 328.271 190.98 L 328.271 185.356 L 328.026 185.296 C 321.447 183.831 306.315 180.2 291.483 180.039 L 290.434 180.029 C 276.89 180.029 264.406 182.706 254.953 188.73 C 245.244 194.865 238.934 206.19 238.839 219.442 L 238.839 219.695 C 238.839 241.21 257.239 252.258 274.148 261.555 C 291.249 270.765 306.7 278.945 306.657 291.234 L 306.627 291.811 C 306.265 299.636 302.136 308.088 283.985 308.173 C 267.129 308.015 251.115 298.672 242.58 293.475 L 242.479 293.414 L 242.213 293.681 L 242.213 299.68 L 242.207 299.68 L 242.207 299.68 Z  M 291.834 193.791 L 291.855 193.791 C 306.035 193.936 320.526 199.092 328.24 201.632 L 328.263 201.632 L 328.263 197.277 C 320.195 194.61 306.238 190.117 291.905 189.948 L 291.092 189.948 C 281.235 189.948 271.933 191.722 264.99 196.276 L 265 196.276 C 257.867 200.894 252.866 208.647 252.819 218.581 C 252.877 236.869 271.296 245.846 288.085 255.234 C 305.123 264.537 320.66 274.002 320.626 289.752 L 320.626 290.261 C 320.309 306.137 308.389 318.203 284.008 318.228 L 283.812 318.228 C 266.55 318.07 249.081 310.318 242.482 307.155 L 242.207 307.017 L 242.207 311.652 L 242.305 311.704 C 250.277 315.376 266.691 321.854 283.798 322.064 L 284.826 322.064 C 297.357 322.064 307.424 319.544 314.527 314.133 C 321.836 308.577 325.813 299.764 325.878 290.316 L 325.878 290.204 C 325.857 270.215 307.497 259.989 290.632 250.655 C 273.569 241.376 258.044 232.669 258.08 219.187 L 258.08 218.643 C 258.297 202.224 272.74 193.802 291.834 193.791 Z  M 304.623 244.331 C 287.506 235.222 271.929 227.45 272.035 218.376 L 272.063 217.813 C 272.288 207.761 279.622 203.746 291.148 203.608 C 304.449 203.729 318.199 209.813 327.825 213.669 L 327.963 213.731 L 328.266 213.426 L 328.266 207.919 L 328.085 207.851 C 318.647 204.042 305.195 198.301 291.201 198.111 L 290.751 198.111 C 284.485 198.111 278.652 199.422 274.14 202.559 C 269.497 205.753 266.523 211.053 266.509 217.746 C 266.96 232.957 285.294 239.674 301.911 249.149 C 318.787 258.505 334.327 269.319 334.321 288.209 L 334.321 288.711 C 333.968 312.69 314.584 326.443 284.173 326.476 L 283.708 326.476 C 266.366 326.291 247.967 320.486 242.481 319.041 L 242.196 318.957 L 242.196 324.653 L 242.294 324.676 C 248.747 326.473 266.479 331.776 283.64 331.963 L 284.918 331.971 C 300.397 331.971 313.777 328.683 323.598 321.889 C 333.675 314.955 339.75 302.538 339.862 288.769 L 339.862 288.412 C 339.853 265.863 321.551 253.704 304.612 244.337 L 304.623 244.331 L 304.623 244.331 Z  M 131.374 299.68 C 140.531 305.125 155.858 313.443 173.047 313.68 L 173.753 313.68 C 183.468 313.68 190.405 311.04 194.896 306.878 C 199.496 302.618 201.284 297.013 201.349 291.882 C 201.167 274.26 182.682 266.07 165.979 256.74 C 148.996 247.425 133.53 237.539 133.549 220.029 L 133.549 219.516 C 133.866 196.926 153.702 185.558 180.112 185.546 L 180.597 185.546 C 195.475 185.696 210.998 189.573 217.038 190.894 L 217.435 190.98 L 217.435 185.356 L 217.19 185.296 C 210.616 183.831 195.478 180.2 180.66 180.039 L 179.601 180.029 C 166.066 180.029 153.575 182.706 144.131 188.73 C 134.412 194.865 128.103 206.19 128 219.442 L 128 219.695 C 128 241.21 146.4 252.258 163.3 261.555 C 180.411 270.765 195.856 278.945 195.797 291.234 L 195.774 291.811 C 195.415 299.636 191.295 308.088 173.131 308.173 C 156.284 308.015 140.276 298.672 131.741 293.475 L 131.638 293.414 L 131.374 293.681 L 131.374 299.68 L 131.374 299.68 L 131.374 299.68 Z  M 180.994 193.791 L 181.028 193.791 C 195.185 193.936 209.7 199.092 217.413 201.632 L 217.429 201.632 L 217.429 197.277 C 209.361 194.61 195.413 190.117 181.081 189.948 L 180.263 189.948 C 170.406 189.948 161.097 191.722 154.176 196.276 C 147.043 200.894 142.043 208.647 141.98 218.581 C 142.052 236.869 160.471 245.846 177.257 255.234 C 194.28 264.54 209.799 274.005 209.79 289.755 L 209.79 290.264 C 209.473 306.141 197.549 318.206 173.163 318.231 L 172.967 318.231 C 155.713 318.073 138.245 310.322 131.646 307.158 L 131.366 307.02 L 131.366 311.655 L 131.46 311.707 C 139.43 315.379 155.841 321.857 172.951 322.068 L 173.995 322.068 C 186.521 322.068 196.577 319.548 203.691 314.136 C 210.99 308.58 214.977 299.767 215.04 290.32 L 215.04 290.207 C 215.021 270.218 196.661 259.992 179.801 250.659 C 162.736 241.382 147.202 232.675 147.244 219.194 L 147.244 218.649 C 147.45 202.23 161.892 193.802 180.987 193.791 L 180.994 193.791 L 180.994 193.791 Z  M 193.779 244.331 C 176.669 235.222 161.085 227.45 161.203 218.376 L 161.213 217.813 C 161.447 207.761 168.786 203.746 180.307 203.608 C 193.595 203.729 207.358 209.813 216.989 213.669 L 217.117 213.731 L 217.434 213.426 L 217.434 207.919 L 217.233 207.851 C 207.814 204.042 194.352 198.301 180.367 198.111 L 179.905 198.111 C 173.645 198.111 167.821 199.422 163.304 202.559 C 158.66 205.753 155.711 211.053 155.667 217.746 C 156.122 232.947 174.454 239.664 191.064 249.14 C 207.955 258.496 223.494 269.31 223.478 288.2 L 223.478 288.701 C 223.135 312.68 203.766 326.434 173.351 326.467 L 172.877 326.467 C 155.554 326.282 137.136 320.476 131.65 319.032 L 131.374 318.948 L 131.374 324.643 L 131.453 324.667 C 137.909 326.464 155.657 331.767 172.818 331.953 L 174.084 331.961 C 189.587 331.961 202.951 328.674 212.769 321.879 C 222.861 314.949 228.919 302.532 229.031 288.757 L 229.031 288.399 C 229.021 265.85 210.734 253.691 193.78 244.324 L 193.779 244.331 L 193.779 244.331 Z  M 367.467 330.482 L 372.469 330.482 L 372.469 182.228 L 367.467 182.228 L 367.467 330.482 L 367.467 330.482 Z  M 355.965 182.537 C 357.45 213.758 356.03 325.078 355.965 330.291 L 356.166 330.498 L 361.623 330.498 L 361.623 182.238 L 356.278 182.238 L 355.97 182.537 L 355.965 182.537 L 355.965 182.537 Z  M 383.981 182.537 C 382.497 213.758 383.937 325.078 384 330.291 L 383.79 330.498 L 378.348 330.498 L 378.348 182.238 L 383.687 182.238 L 383.981 182.537 L 383.981 182.537 L 383.981 182.537 Z " fill-rule="evenodd" fill="rgb(239,191,4)"/></g></svg>