<?xml version="1.0" encoding="UTF-8" standalone="no"?><!-- Generator: Gravit.io --><svg xmlns="http://www.w3.org/2000/svg" xmlns:xlink="http://www.w3.org/1999/xlink" style="isolation:isolate" viewBox="0 0 512 512" width="512pt" height="512pt"><defs><clipPath id="_clipPath_eZGAfMhXQI46Jfj6FGrhkXFO7a5wjl7l"><rect width="512" height="512"/></clipPath></defs><g clip-path="url(#_clipPath_eZGAfMhXQI46Jfj6FGrhkXFO7a5wjl7l)"><path d="M 477.714 383.995 L 256.005 512 L 34.286 383.995 L 34.286 127.985 L 256.005 0 L 477.714 127.985 L 477.714 383.995 Z" fill-rule="evenodd" fill="rgb(237,29,36)" /><path d=" M 128 384 L 146.084 318.267 C 134.912 298.983 129.044 277.109 129.071 254.848 C 129.1 184.903 186.276 128 256.536 128 C 290.631 128.017 322.634 141.226 346.702 165.204 C 370.77 189.182 384.012 221.053 384 254.95 C 383.969 324.889 326.784 381.803 256.534 381.803 L 256.479 381.803 C 235.148 381.794 214.188 376.467 195.57 366.36 L 128 384 Z  M 256.574 149.429 C 198.136 149.429 150.611 196.724 150.59 254.857 C 150.562 274.707 156.177 294.161 166.786 310.968 L 169.307 314.955 L 158.603 353.862 L 198.7 343.395 L 202.572 345.678 C 218.834 355.286 237.48 360.369 256.495 360.379 L 256.534 360.379 C 314.928 360.379 362.453 313.079 362.475 254.943 C 362.564 226.954 351.401 200.094 331.474 180.35 C 311.658 160.497 284.687 149.363 256.574 149.429 L 256.574 149.429 Z  M 224.678 201.817 C 222.29 196.538 219.778 196.431 217.511 196.339 L 211.406 196.265 C 209.282 196.265 205.831 197.058 202.914 200.232 C 199.996 203.405 191.766 211.075 191.766 226.674 C 191.766 242.274 203.179 257.347 204.769 259.465 C 206.359 261.583 226.801 294.615 259.175 307.324 C 286.077 317.886 291.551 315.785 297.393 315.257 C 303.234 314.729 316.236 307.588 318.888 300.184 C 321.541 292.78 321.542 286.437 320.747 285.11 C 319.952 283.784 317.828 282.996 314.64 281.409 C 311.453 279.823 295.797 272.153 292.878 271.094 C 289.959 270.035 287.837 269.509 285.711 272.683 C 283.586 275.856 277.489 282.994 275.631 285.11 C 273.772 287.226 271.916 287.492 268.729 285.907 C 265.541 284.322 255.285 280.973 243.117 270.171 C 233.65 261.767 227.259 251.388 225.398 248.217 C 223.538 245.045 225.201 243.327 226.798 241.747 C 228.227 240.326 229.982 238.045 231.578 236.194 C 233.173 234.344 233.698 233.021 234.758 230.908 C 235.819 228.795 235.29 226.94 234.493 225.355 C 233.696 223.77 227.508 208.089 224.678 201.818" fill-rule="evenodd" fill="rgb(255,255,255)"/></g></svg>