<?xml version="1.0" encoding="UTF-8" standalone="no"?><!-- Generator: Gravit.io --><svg xmlns="http://www.w3.org/2000/svg" xmlns:xlink="http://www.w3.org/1999/xlink" style="isolation:isolate" viewBox="0 0 512 512" width="512pt" height="512pt"><defs><clipPath id="_clipPath_1RwFOPekmmbtq1UKXVcCI0pJfO0QyoAq"><rect width="512" height="512"/></clipPath></defs><g clip-path="url(#_clipPath_1RwFOPekmmbtq1UKXVcCI0pJfO0QyoAq)"><circle vector-effect="non-scaling-stroke" cx="256" cy="256" r="256" fill="rgb(0,0,128)" /><path d=" M 238.241 209.486 C 216.584 217.259 209.132 238.31 209.132 238.31 C 206.218 246.08 198.479 251.911 189.749 251.911 L 148.685 251.911 C 137.372 251.911 128 242.506 128 231.185 C 128 219.842 135.757 210.779 148.685 210.779 L 181.256 210.837 L 134.132 163.509 C 126.066 155.408 126.066 142.455 134.132 134.39 C 142.219 126.296 155.161 126.296 163.231 134.39 L 210.108 181.249 L 210.108 148.946 C 210.108 137.621 219.164 128.245 230.792 128.245 C 242.127 128.245 251.176 137.621 251.176 148.946 L 251.176 190.057 C 251.176 198.802 245.998 206.907 238.241 209.486 Z  M 230.792 383.676 C 219.494 383.676 210.423 376.205 210.757 363.27 L 210.811 330.448 L 163.553 377.826 C 155.48 385.941 142.219 385.941 134.462 377.826 C 126.389 369.753 126.389 356.473 134.462 348.714 L 181.213 301.739 L 149.011 301.739 C 137.372 301.739 128.333 292.359 128.333 281.056 C 128.333 269.713 137.372 260.322 149.011 260.322 L 190.061 260.322 C 198.787 260.322 206.552 265.491 209.473 273.272 C 216.911 295.27 237.9 302.715 237.9 302.715 C 245.998 305.626 251.499 313.071 251.499 322.141 L 251.499 363.27 C 251.499 374.605 242.432 383.676 230.792 383.676 Z  M 362.992 301.429 L 330.359 301.393 L 377.531 348.714 C 385.615 356.793 385.615 369.754 377.531 377.826 C 369.465 385.941 356.516 385.941 348.443 377.826 L 301.573 330.887 L 301.573 363.27 C 301.573 375.589 292.19 384 280.881 384 C 269.557 384 260.185 374.606 260.185 363.27 L 260.185 322.141 C 260.185 313.395 265.679 305.305 273.446 302.715 C 295.096 295.27 302.531 273.917 302.531 273.917 C 305.441 266.161 313.205 260.322 321.931 260.322 L 362.992 260.322 C 374.319 260.322 383.681 269.713 383.681 281.056 C 383.681 292.359 375.277 301.429 362.992 301.429 M 363.319 251.58 L 322.254 251.58 C 313.532 251.58 305.441 246.4 302.861 238.631 C 295.416 216.935 274.092 209.158 274.092 209.158 C 266.332 206.241 260.508 198.803 260.508 189.725 L 260.508 148.618 C 260.508 137.297 269.884 128.245 281.211 128.245 C 292.517 128.245 301.573 136.656 301.573 148.618 L 301.58 181.567 L 348.762 134.062 C 356.846 125.979 369.781 125.979 377.861 134.062 C 385.944 142.131 385.944 155.408 377.861 163.509 L 331.318 210.131 L 363.319 210.131 C 374.628 210.131 384 219.522 384 230.857 C 384 242.19 374.628 251.58 363.319 251.58 Z " fill-rule="evenodd" fill="rgb(255,255,255)"/></g></svg>