<?xml version="1.0" encoding="UTF-8" standalone="no"?><!-- Generator: Gravit.io --><svg xmlns="http://www.w3.org/2000/svg" xmlns:xlink="http://www.w3.org/1999/xlink" style="isolation:isolate" viewBox="0 0 512 512" width="512pt" height="512pt"><defs><clipPath id="_clipPath_f78GPlTWpwuEKHxSS0YfeUmlGSvQIVgZ"><rect width="512" height="512"/></clipPath></defs><g clip-path="url(#_clipPath_f78GPlTWpwuEKHxSS0YfeUmlGSvQIVgZ)"><path d="M 477.714 383.995 L 256.005 512 L 34.286 383.995 L 34.286 127.985 L 256.005 0 L 477.714 127.985 L 477.714 383.995 Z" fill-rule="evenodd" fill="rgb(0,103,79)" /><path d=" M 256 128 C 185.306 128 128 185.306 128 256 C 128 326.694 185.306 384 256 384 C 326.694 384 384 326.694 384 256 C 384 185.306 326.694 128 256 128 L 256 128 Z  M 319.026 313.27 L 300.576 294.82 C 308.79 285.395 314.065 273.337 314.966 260.081 L 341.1 260.081 C 340.134 280.508 331.94 299.072 319.026 313.274 L 319.026 313.27 Z  M 259.273 341.128 L 259.273 315.015 C 272.844 314.273 285.191 308.957 294.808 300.58 L 313.258 319.03 C 298.872 332.107 280.01 340.337 259.273 341.124 L 259.273 341.128 Z  M 198.738 319.034 L 217.188 300.584 C 226.421 308.631 238.182 313.853 251.121 314.909 L 251.121 341.055 C 231.016 339.913 212.749 331.773 198.738 319.034 Z  M 170.9 260.076 L 197.034 260.076 C 197.939 273.333 203.21 285.391 211.424 294.816 L 192.974 313.266 C 180.06 299.068 171.871 280.499 170.9 260.072 L 170.9 260.076 Z  M 192.966 198.738 L 211.416 217.188 C 203.206 226.613 197.935 238.667 197.03 251.919 L 170.896 251.919 C 171.862 231.497 180.052 212.932 192.962 198.734 L 192.966 198.738 Z  M 251.121 170.945 L 251.121 197.091 C 238.178 198.147 226.417 203.373 217.18 211.424 L 198.73 192.974 C 212.745 180.227 231.011 172.087 251.121 170.945 Z  M 313.266 192.974 L 294.816 211.424 C 285.199 203.043 272.848 197.723 259.273 196.981 L 259.273 170.868 C 280.014 171.655 298.88 179.889 313.266 192.97 L 313.266 192.974 Z  M 292.011 292.015 C 282.391 301.636 269.599 306.935 255.996 306.935 C 242.393 306.935 229.601 301.636 219.981 292.015 C 210.36 282.395 205.061 269.603 205.061 256 C 205.061 242.397 210.36 229.605 219.981 219.985 C 229.601 210.364 242.393 205.065 255.996 205.065 C 269.599 205.065 282.391 210.364 292.011 219.985 C 301.632 229.605 306.931 242.397 306.931 256 C 306.931 269.603 301.632 282.395 292.011 292.015 Z  M 314.962 251.924 C 314.057 238.671 308.79 226.617 300.576 217.192 L 319.026 198.742 C 331.936 212.941 340.125 231.505 341.091 251.928 L 314.957 251.928 L 314.962 251.924 Z  M 324.826 192.942 L 343.582 174.186 C 352.75 183.99 360.132 195.118 365.57 207.356 L 341.087 217.498 C 337.052 208.595 331.593 200.316 324.831 192.942 L 324.826 192.942 Z  M 319.062 187.178 C 311.872 180.574 303.812 175.217 295.154 171.21 L 305.3 146.715 C 317.281 152.124 328.19 159.413 337.818 168.422 L 319.062 187.178 L 319.062 187.178 Z  M 287.613 168.116 C 278.608 164.884 269.069 163.049 259.273 162.715 L 259.273 136.19 C 272.534 136.54 285.444 139.039 297.759 143.625 L 287.613 168.12 L 287.613 168.116 Z  M 251.121 162.776 C 241.7 163.257 232.536 165.136 223.87 168.304 L 213.723 143.812 C 225.696 139.292 238.235 136.756 251.116 136.243 L 251.116 162.772 L 251.121 162.776 Z  M 216.344 171.438 C 207.874 175.417 199.99 180.7 192.934 187.178 L 174.178 168.422 C 183.672 159.539 194.413 152.332 206.198 146.947 L 216.344 171.443 L 216.344 171.438 Z  M 187.169 192.942 C 180.435 200.279 174.993 208.518 170.966 217.376 L 146.478 207.234 C 151.908 195.045 159.274 183.957 168.414 174.186 L 187.169 192.942 Z  M 167.921 224.938 C 164.896 233.535 163.139 242.605 162.739 251.919 L 136.214 251.919 C 136.638 239.136 139.047 226.686 143.409 214.783 L 167.921 224.938 L 167.921 224.938 Z  M 162.739 260.072 C 163.167 270.072 165.161 279.786 168.605 288.938 L 144.118 299.08 C 139.308 286.614 136.658 273.525 136.214 260.072 L 162.739 260.072 Z  M 171.814 296.434 C 175.747 304.607 180.9 312.226 187.178 319.062 L 168.422 337.818 C 159.735 328.536 152.658 318.06 147.314 306.584 L 171.818 296.434 L 171.814 296.434 Z  M 192.942 324.826 C 199.957 331.267 207.792 336.526 216.21 340.496 L 206.064 364.988 C 194.336 359.611 183.639 352.428 174.182 343.582 L 192.938 324.826 L 192.942 324.826 Z  M 223.731 343.639 C 232.438 346.839 241.647 348.735 251.121 349.22 L 251.121 375.749 C 238.19 375.236 225.602 372.68 213.589 368.13 L 223.735 343.639 L 223.731 343.639 Z  M 259.273 349.285 C 269.122 348.947 278.706 347.096 287.751 343.831 L 297.898 368.326 C 285.538 372.945 272.583 375.46 259.273 375.81 L 259.273 349.285 L 259.273 349.285 Z  M 295.289 340.725 C 303.894 336.73 311.9 331.394 319.054 324.826 L 337.81 343.582 C 328.218 352.554 317.358 359.819 305.435 365.22 L 295.289 340.725 Z  M 324.818 319.062 C 331.125 312.194 336.298 304.534 340.239 296.316 L 364.739 306.462 C 359.391 317.986 352.289 328.503 343.574 337.818 L 324.818 319.062 L 324.818 319.062 Z  M 343.435 288.815 C 346.851 279.7 348.833 270.027 349.257 260.072 L 375.782 260.072 C 375.338 273.484 372.7 286.528 367.923 298.957 L 343.435 288.815 Z  M 349.257 251.919 C 348.861 242.65 347.116 233.62 344.12 225.06 L 368.636 214.905 C 372.969 226.768 375.362 239.181 375.786 251.915 L 349.261 251.915 L 349.257 251.919 Z " fill="rgb(255,255,255)"/></g></svg>