<?xml version="1.0" encoding="UTF-8" standalone="no"?><!-- Generator: Gravit.io --><svg xmlns="http://www.w3.org/2000/svg" xmlns:xlink="http://www.w3.org/1999/xlink" style="isolation:isolate" viewBox="0 0 512 512" width="512pt" height="512pt"><defs><clipPath id="_clipPath_BWGFxxtrPf1DwPGD7hUen1EGMEG4FKHC"><rect width="512" height="512"/></clipPath></defs><g clip-path="url(#_clipPath_BWGFxxtrPf1DwPGD7hUen1EGMEG4FKHC)"><path d="M 477.714 383.995 L 256.005 512 L 34.286 383.995 L 34.286 127.985 L 256.005 0 L 477.714 127.985 L 477.714 383.995 Z" fill-rule="evenodd" fill="rgb(237,29,36)" /><path d=" M 235.215 195.112 C 223.861 194.94 213.783 204.121 213.783 217.406 L 213.783 277.231 C 213.794 279.384 212.186 281.295 209.844 281.295 L 191.144 281.295 C 150.678 281.343 154.293 229.562 188.738 229.513 C 204.05 229.492 209.402 229.513 209.402 229.513 L 209.402 215.005 L 188.003 215.005 C 174.594 215.027 164.443 220.134 157.614 227.746 C 150.786 235.36 147.29 245.498 147.295 255.574 C 147.301 265.274 150.609 275.341 157.52 282.971 C 164.431 290.601 174.938 295.819 189.461 295.819 L 224.758 295.819 C 226.798 295.819 228.528 294.09 228.528 292.075 L 228.528 218.984 C 228.506 215.162 230.488 212.09 233.676 211.072 L 233.676 211.072 C 236.768 210.089 240.164 211.37 242.211 214.281 L 242.22 214.294 L 242.228 214.308 C 247.189 222.436 259.583 242.375 270.779 260.35 C 276.377 269.337 281.675 277.833 285.595 284.118 C 287.556 287.26 289.171 289.849 290.308 291.671 C 291.435 293.478 292.062 294.481 292.132 294.595 C 292.958 295.762 293.997 296.2 294.862 295.928 L 294.863 295.928 L 294.864 295.927 C 295.355 295.774 295.741 295.428 296.03 294.859 C 296.32 294.29 296.491 293.499 296.491 292.549 L 296.491 218.995 C 296.479 215.185 298.449 212.106 301.647 211.094 C 304.72 210.109 308.127 211.391 310.153 214.305 L 310.161 214.316 L 310.168 214.328 C 315.14 222.451 327.54 242.391 338.738 260.365 C 349.93 278.329 359.936 294.355 360.093 294.605 C 360.093 294.605 360.094 294.605 360.094 294.606 C 360.903 295.765 362.008 296.228 362.931 295.938 C 363.431 295.779 363.83 295.426 364.127 294.857 C 364.425 294.287 364.603 293.501 364.603 292.56 L 364.603 195.565 L 364.603 195.56 L 349.965 195.56 L 349.965 252.201 C 349.965 252.201 340.9 236.83 325.448 210.3 C 310.329 184.31 281.798 195.053 281.787 217.416 L 281.787 252.191 C 281.787 252.191 272.94 236.809 257.497 210.279 C 251.351 199.725 242.984 195.229 235.215 195.112 Z  M 190.648 195.56 C 106.532 195.55 107.33 315.388 191.781 315.443 L 224.779 315.443 C 238.98 315.453 248.099 307.031 248.087 291.508 L 248.087 261.153 C 248.087 261.153 266.594 291.837 273.857 303.848 C 286.213 324.27 316.114 320.255 316.038 294.745 L 316.038 261.175 C 316.038 261.175 334.545 291.847 341.817 303.875 C 354.173 324.29 384.076 320.271 384 294.755 L 384 195.56 L 369.384 195.56 L 369.384 292.559 L 369.384 292.56 C 369.395 297.144 366.825 299.706 364.377 300.48 L 364.375 300.48 C 361.389 301.432 358.14 300.158 356.12 297.265 L 356.113 297.255 L 356.107 297.245 C 355.689 296.577 316.08 233.149 306.177 216.944 C 305.356 215.778 304.152 215.298 303.084 215.636 C 301.976 215.991 301.271 217.165 301.271 218.993 L 301.271 292.537 L 301.271 292.538 C 301.282 297.14 298.757 299.695 296.319 300.48 L 296.317 300.48 L 296.316 300.481 C 293.373 301.405 290.176 300.134 288.169 297.243 L 288.164 297.236 L 288.159 297.229 C 288.079 297.104 287.44 296.082 286.297 294.253 C 285.154 292.423 283.533 289.827 281.568 286.68 C 277.639 280.384 272.335 271.88 266.735 262.891 C 255.54 244.921 243.172 225.024 238.227 216.923 C 237.406 215.758 236.192 215.287 235.122 215.626 L 235.122 215.625 C 234.001 215.981 233.289 217.155 233.299 218.968 L 233.299 218.97 L 233.299 292.074 C 233.299 296.766 229.453 300.589 224.758 300.589 L 189.46 300.589 C 173.401 300.589 161.641 294.759 153.926 286.208 C 146.212 277.656 142.536 266.409 142.525 255.574 C 142.514 244.332 146.407 233.016 154.049 224.492 C 161.691 215.968 173.092 210.257 187.992 210.235 L 187.993 210.235 L 209.402 210.235 L 209.402 195.56 L 190.648 195.56 Z " fill="rgb(255,255,255)"/></g></svg>