<?xml version="1.0" encoding="UTF-8" standalone="no"?><!-- Generator: Gravit.io --><svg xmlns="http://www.w3.org/2000/svg" xmlns:xlink="http://www.w3.org/1999/xlink" style="isolation:isolate" viewBox="0 0 512 424.2" width="512pt" height="424.2pt"><defs><clipPath id="_clipPath_tQm8t3ZIEifkudeIOTRPHOkOczc7MBR8"><rect width="512" height="424.2"/></clipPath></defs><g clip-path="url(#_clipPath_tQm8t3ZIEifkudeIOTRPHOkOczc7MBR8)"><path d=" M 35.054 182.954 C 172.466 123.278 263.943 83.625 309.878 64.387 C 440.615 9.815 468.098 0.393 485.765 0 C 489.691 0 498.328 0.785 504.217 5.496 C 508.929 9.423 510.106 14.526 510.892 18.452 C 511.677 22.378 512.462 30.623 511.677 36.905 C 504.61 111.5 473.987 292.491 458.282 375.723 C 451.608 411.058 438.652 422.836 426.089 424.013 C 398.607 426.369 377.798 405.954 351.494 388.679 C 309.878 361.589 286.714 344.707 246.276 318.01 C 199.556 287.387 229.786 270.505 256.483 243.023 C 263.55 235.956 384.08 126.026 386.436 116.211 C 386.828 115.033 386.828 110.322 384.08 107.966 C 381.332 105.611 377.406 106.396 374.265 107.181 C 369.946 107.966 303.989 151.938 175.607 238.704 C 156.762 251.66 139.88 257.942 124.568 257.549 C 107.686 257.156 75.493 248.126 51.151 240.274 C 21.706 230.852 -1.851 225.748 0.112 209.259 C 1.29 200.621 13.068 191.984 35.054 182.954 Z " fill-rule="evenodd" fill="rgb(255,255,255)"/></g></svg>