<?xml version="1.0" encoding="UTF-8" standalone="no"?><!-- Generator: Gravit.io --><svg xmlns="http://www.w3.org/2000/svg" xmlns:xlink="http://www.w3.org/1999/xlink" style="isolation:isolate" viewBox="0 0 512 512" width="512pt" height="512pt"><defs><clipPath id="_clipPath_aitGzx7AmlcJF24iPdWNJ6bjI9uSoeeD"><rect width="512" height="512"/></clipPath></defs><g clip-path="url(#_clipPath_aitGzx7AmlcJF24iPdWNJ6bjI9uSoeeD)"><rect x="0" y="0" width="512" height="512" transform="matrix(1,0,0,1,0,0)" fill="rgb(27,27,29)"/><path d=" M 239.871 128.902 C 207.271 133.34 177.061 150.237 156.75 174.985 C 124.663 214.071 118.86 269.883 142.243 314.601 C 177.744 382.872 262.913 404.89 327.259 362.05 C 408.843 307.774 400.992 185.738 313.092 141.703 C 291.416 130.779 262.742 125.83 239.871 128.902 Z  M 266.838 181.642 C 267.692 183.519 268.545 187.616 268.545 190.858 C 268.545 195.979 270.423 198.539 281.346 209.633 C 305.412 233.699 306.777 248.207 287.149 270.907 C 281.346 277.734 279.298 279.1 274.348 279.1 C 268.887 279.1 268.545 279.441 268.545 285.073 L 268.545 291.047 L 277.932 291.047 C 286.125 291.047 288.003 290.364 293.806 285.244 C 298.585 280.806 304.388 278.246 318.383 274.15 C 328.283 271.248 337.329 268.859 338.353 268.859 C 339.377 268.859 340.23 271.419 340.23 274.321 C 340.23 279.1 339.206 280.465 333.745 283.367 C 329.648 285.585 324.869 290.706 320.261 297.874 C 316.165 304.019 310.02 311.699 306.265 315.284 C 297.902 323.135 291.245 324.159 247.552 323.135 C 219.219 322.452 213.757 321.94 207.101 318.868 C 196.007 313.918 185.766 301.971 182.352 290.194 C 178.085 275.515 178.085 275.515 201.468 276.027 C 221.438 276.539 221.608 276.539 222.12 280.806 C 223.315 288.828 227.07 291.047 239.871 291.047 L 251.477 291.047 L 251.477 285.073 L 251.477 279.1 L 242.09 279.1 C 236.97 279.1 232.703 278.417 232.703 277.563 C 232.703 276.71 235.433 271.59 238.676 266.128 C 251.136 245.646 250.795 230.797 237.482 201.782 C 234.58 195.467 232.703 189.834 233.215 189.322 C 233.727 188.81 237.994 189.493 242.773 190.858 L 251.477 193.419 L 251.477 188.64 C 251.477 179.594 262.913 174.473 266.838 181.642 Z  M 230.825 215.436 C 237.994 233.87 237.311 248.889 229.118 259.301 C 225.875 263.568 224.851 263.738 208.807 263.738 C 199.249 263.738 191.398 263.056 190.886 262.032 C 189.691 260.154 223.657 205.708 225.875 205.708 C 226.558 205.708 228.777 210.145 230.825 215.436 Z " fill="rgb(237,29,36)"/></g></svg>