<?xml version="1.0" encoding="UTF-8" standalone="no"?><!-- Generator: Gravit.io --><svg xmlns="http://www.w3.org/2000/svg" xmlns:xlink="http://www.w3.org/1999/xlink" style="isolation:isolate" viewBox="0 0 512 512" width="512pt" height="512pt"><defs><clipPath id="_clipPath_haIKadhD5WYhD9JyHHf3gd9Zm4P2fDCo"><rect width="512" height="512"/></clipPath></defs><g clip-path="url(#_clipPath_haIKadhD5WYhD9JyHHf3gd9Zm4P2fDCo)"><rect x="0" y="0" width="512" height="512" transform="matrix(1,0,0,1,0,0)" fill="rgb(27,27,29)"/><path d=" M 167.842 217.73 C 145.833 217.73 128 231.433 128 248.334 C 128 258.474 134.441 267.45 144.331 273.021 L 139.643 290.054 C 139.192 291.687 141.064 292.989 142.51 292.044 L 162.86 278.686 C 164.493 278.843 166.152 278.937 167.842 278.937 C 189.851 278.937 207.684 265.234 207.684 248.334 C 207.684 231.432 189.851 217.73 167.842 217.73 M 245.248 233.776 L 245.248 263.841 C 246 263.935 247.896 264.116 249.693 264.116 C 259.526 264.116 263.307 257.406 263.307 246.834 C 263.307 237.545 260.76 231.936 252.91 231.936 C 250.357 231.936 247.521 232.674 245.248 233.776 M 245.248 273.218 L 245.248 292.066 L 231.446 292.066 L 231.446 222.559 L 241.18 222.559 L 242.883 226.972 C 245.818 224.124 250.256 221.088 257.448 221.088 C 270.969 221.088 277.404 230.928 277.304 246.834 C 277.304 263.471 267.376 274.138 253.192 274.138 C 250.45 274.138 248.372 273.95 245.248 273.218 M 314.413 259.889 L 314.413 250.693 L 308.078 250.693 C 300.98 250.693 297.387 253.178 297.387 258.142 C 297.387 261.91 299.378 263.751 303.44 263.751 C 307.227 263.751 312.053 261.91 314.413 259.889 M 306.563 242.143 L 314.413 242.143 L 314.413 240.49 C 314.413 234.969 311.202 232.397 305.619 232.397 C 301.362 232.397 295.878 233.592 291.434 235.708 L 287.647 226.694 C 292.567 223.389 300.135 221.092 306.845 221.092 C 320.084 221.092 327.277 227.89 327.277 240.853 L 327.277 272.759 L 317.536 272.759 L 316.116 268.527 C 310.538 272.483 305.431 274.136 300.798 274.136 C 290.677 274.136 285.006 268.251 285.006 258.324 C 285.006 247.751 292.567 242.143 306.563 242.143 Z  M 367.825 267.61 C 363.005 280.116 357.234 289.218 348.821 294.27 L 340.308 286.639 C 345.228 282.502 348.721 278.458 351.751 273.037 L 333.404 224.4 L 347.112 220.813 L 358.843 260.254 L 370.473 220.631 L 384 224.306 L 367.825 267.61 Z " fill="rgb(0,0,128)"/></g></svg>