<svg width="64" height="64" viewBox="0 0 64 64" fill="none" xmlns="http://www.w3.org/2000/svg">
<rect x="2" y="9" width="54" height="7" fill="#FFC815"/>
<rect x="2" y="18" width="58" height="36" fill="#FFC815"/>
<rect x="6" y="5" width="48" height="2" fill="black"/>
<rect x="2" y="16" width="56" height="2" fill="black"/>
<rect x="6" y="56" width="54" height="2" fill="black"/>
<rect x="56" y="9" width="2" height="7" fill="black"/>
<rect x="60" y="20.0007" width="2" height="36" fill="black"/>
<rect x="2" y="9" width="2" height="45" fill="black"/>
<rect x="4" y="9" width="2" height="7" fill="#FFF2B4"/>
<rect x="54" y="9" width="2" height="7" fill="#FFF2B4"/>
<rect x="6" y="7" width="50" height="2" fill="#FFF2B4"/>
<rect x="4" y="7" width="2" height="2" fill="black"/>
<rect x="54" y="7" width="2" height="2" fill="black"/>
<rect x="58" y="20" width="2" height="2" fill="#FFF2B4"/>
<rect x="4" y="18" width="56" height="2" fill="#FFF2B4"/>
<rect x="58" y="18" width="2" height="2" fill="black"/>
<rect width="2" height="2" transform="matrix(1 0 0 -1 58 54)" fill="#FF7F0D"/>
<rect width="2" height="2" transform="matrix(1 0 0 -1 4 54)" fill="#FF7F0D"/>
<rect width="54" height="2" transform="matrix(1 0 0 -1 6 56)" fill="#FF7F0D"/>
<rect width="2" height="2" transform="matrix(1 0 0 -1 58 56)" fill="black"/>
<rect width="2" height="2" transform="matrix(1 0 0 -1 4 56)" fill="black"/>
<rect x="45" y="44" width="4" height="2" fill="black"/>
<rect x="43" y="43" width="2" height="2" fill="black"/>
<rect x="49" y="43" width="2" height="2" fill="black"/>
<rect x="44" y="30" width="6" height="14" fill="#C81519"/>
<rect x="45" y="43" width="4" height="2" fill="#9F1B1F"/>
<rect x="43" y="42" width="2" height="2" fill="#9F1B1F"/>
<rect x="49" y="42" width="2" height="2" fill="#9F1B1F"/>
<rect x="45" y="30" width="4" height="2" fill="#FF7B82"/>
<rect x="43" y="31" width="2" height="2" fill="#FF7B82"/>
<rect x="49" y="31" width="2" height="2" fill="#FF7B82"/>
<rect x="45" y="28" width="4" height="2" fill="black"/>
<rect x="43" y="29" width="2" height="2" fill="black"/>
<rect x="49" y="29" width="2" height="2" fill="black"/>
<rect x="42" y="30" width="2" height="14" fill="black"/>
<rect x="50" y="30" width="2" height="14" fill="black"/>
</svg>
