<?xml version="1.0" encoding="UTF-8" standalone="no"?><!-- Generator: Gravit.io --><svg xmlns="http://www.w3.org/2000/svg" xmlns:xlink="http://www.w3.org/1999/xlink" style="isolation:isolate" viewBox="0 0 512 512" width="512pt" height="512pt"><defs><clipPath id="_clipPath_rqomyP7dxn018gplCTdgbF282rsnSQVc"><rect width="512" height="512"/></clipPath></defs><g clip-path="url(#_clipPath_rqomyP7dxn018gplCTdgbF282rsnSQVc)"><g><path d=" M 220.052 104.031 L 134.519 60.861 L 40.624 107.717 L 128.484 151.831 L 220.052 104.031 L 220.052 104.031 Z " fill="rgb(77,171,207)"/><path d=" M 259.283 123.819 L 348.962 169.108 L 255.919 215.825 L 167.922 171.642 L 259.283 123.819 L 259.283 123.819 Z " fill="rgb(77,171,207)"/><path d=" M 379.07 61.506 L 471.215 107.717 L 388.792 149.09 L 298.928 103.755 L 379.07 61.506 L 379.07 61.506 Z " fill="rgb(77,171,207)"/><path d=" M 339.402 41.603 L 256.449 0 L 174.395 40.958 L 259.882 84.059 L 339.402 41.603 L 339.402 41.603 Z " fill="rgb(77,171,207)"/><path d=" M 274.556 398.801 L 274.556 512 L 375.039 461.85 L 374.947 348.605 L 274.556 398.801 L 274.556 398.801 Z " fill="rgb(77,171,207)"/><path d=" M 374.901 309.075 L 374.786 197.028 L 274.556 246.855 L 274.556 358.948 L 374.901 309.075 L 374.901 309.075 Z " fill="rgb(77,171,207)"/><path d=" M 495.541 288.089 L 495.541 401.726 L 409.823 444.481 L 409.754 331.374 L 495.541 288.089 L 495.541 288.089 Z " fill="rgb(77,171,207)"/><path d=" M 495.541 248.352 L 495.541 136.996 L 409.662 179.681 L 409.731 291.959 L 495.541 248.352 L 495.541 248.352 Z " fill="rgb(77,171,207)"/><path d=" M 239.08 246.855 L 171.4 212.807 L 171.4 359.87 C 171.4 359.87 88.608 183.736 80.96 167.91 C 79.97 165.86 75.915 163.625 74.879 163.072 C 59.951 155.286 16.459 133.264 16.459 133.264 L 16.459 393.18 L 76.63 425.43 L 76.63 289.518 C 76.63 289.518 158.523 446.9 159.375 448.628 C 159.375 448.628 168.405 466.918 177.205 472.747 C 188.884 480.51 239.034 510.664 239.034 510.664 L 239.08 246.855 Z " fill="rgb(77,119,207)"/></g></g></svg>