<?xml version="1.0" encoding="UTF-8" standalone="no"?><!-- Generator: Gravit.io --><svg xmlns="http://www.w3.org/2000/svg" xmlns:xlink="http://www.w3.org/1999/xlink" style="isolation:isolate" viewBox="0 0 512 512" width="512pt" height="512pt"><defs><clipPath id="_clipPath_TPHCfOckXXlT6lunLb9bxtHydFAfkVtv"><rect width="512" height="512"/></clipPath></defs><g clip-path="url(#_clipPath_TPHCfOckXXlT6lunLb9bxtHydFAfkVtv)"><circle vector-effect="non-scaling-stroke" cx="256" cy="256" r="256" fill="rgb(27,27,29)" /><g opacity="0.98999999"><path d=" M 281.774 382.287 C 317.797 374.557 349.841 350.997 367.604 319.181 C 388.392 281.947 389.469 237.405 370.513 198.906 C 363.496 184.655 356.013 174.494 344.353 163.38 C 328.49 148.261 309.175 137.454 287.926 131.807 C 272.717 127.766 248.639 126.792 233.642 129.611 C 183.93 138.958 143.955 176.049 131.301 224.571 C 128.16 236.616 126.972 263.367 129.011 276.138 C 137.424 328.822 178.109 371.29 230.829 382.418 C 241.107 384.587 271.417 384.509 281.774 382.287 L 281.774 382.287 Z  M 241.796 206.921 C 191.631 181.302 153.742 224.206 155.885 256.461 C 156.103 297.157 199.918 327.33 241.796 305.284 L 241.796 356.39 L 268.658 356.291 L 269.083 305.079 C 321.882 329.979 356.821 287.976 356.193 256.473 C 355.545 215.839 314.865 184.213 269.083 206.921 L 269.083 155.61 L 242.569 155.61 L 241.796 206.921 Z  M 213.41 226.227 C 256.371 231.036 248.469 285.759 213.252 286.59 C 171.753 285.569 171.859 226.222 213.41 226.227 Z  M 301.475 225.371 C 341.44 229.868 336.809 285.485 299.578 286.593 C 253.884 280.605 263.198 224.277 301.475 225.371 L 301.475 225.371 Z " fill-rule="evenodd" fill="rgb(0,103,79)"/></g></g></svg>