<?xml version="1.0" encoding="UTF-8" standalone="no"?><!-- Generator: Gravit.io --><svg xmlns="http://www.w3.org/2000/svg" xmlns:xlink="http://www.w3.org/1999/xlink" style="isolation:isolate" viewBox="0 0 512 512" width="512pt" height="512pt"><defs><clipPath id="_clipPath_iUMM9lAVtpZHTwUqDXJSrclZ4y7kNqfd"><rect width="512" height="512"/></clipPath></defs><g clip-path="url(#_clipPath_iUMM9lAVtpZHTwUqDXJSrclZ4y7kNqfd)"><circle vector-effect="non-scaling-stroke" cx="256" cy="256" r="256" fill="rgb(237,29,36)" /><path d=" M 201.979 128 L 310.021 128 C 330.125 128 348.417 136.25 361.688 149.5 C 374.979 162.771 383.229 181.083 383.229 201.208 L 383.229 310.813 C 383.229 330.896 374.979 349.188 361.729 362.458 L 361.688 362.5 C 348.396 375.771 330.104 384 310.042 384 L 201.979 384 C 181.854 384 163.542 375.75 150.271 362.5 L 149.771 361.938 C 136.812 348.729 128.771 330.646 128.771 310.792 L 128.771 201.208 C 128.771 181.063 137 162.771 150.271 149.5 C 163.542 136.229 181.833 128 201.979 128 L 201.979 128 Z  M 319.417 192.625 L 319.563 192.854 L 364.563 192.854 C 362.75 181.021 357.104 170.396 348.979 162.25 C 338.979 152.25 325.188 146.042 310.021 146.042 L 291.542 146.042 L 319.417 192.625 L 319.417 192.625 Z  M 298.604 192.854 L 270.583 146.042 L 209.125 146.042 L 237.479 192.854 L 298.604 192.854 L 298.604 192.854 Z  M 216.5 192.854 L 189.083 147.563 C 179.063 149.979 170.083 155.167 163.021 162.25 C 154.896 170.375 149.271 181.021 147.437 192.854 L 216.5 192.854 L 216.5 192.854 Z  M 365.188 210.896 L 146.812 210.896 L 146.812 310.813 C 146.812 325.75 152.833 339.354 162.562 349.313 L 163.021 349.75 C 173.021 359.75 186.833 365.979 201.979 365.979 L 310.021 365.979 C 325.188 365.979 338.979 359.771 348.958 349.792 L 349 349.75 C 358.979 339.771 365.188 325.979 365.188 310.813 L 365.188 210.896 L 365.188 210.896 Z  M 234.917 242.479 L 290.813 278.833 C 291.708 279.417 292.521 280.167 293.167 281.083 C 295.708 284.771 294.771 289.833 291.083 292.375 L 235.417 325.229 C 234.021 326.375 232.229 327.063 230.25 327.063 C 225.75 327.063 222.104 323.417 222.104 318.917 L 222.104 249.146 L 222.146 249.146 C 222.146 247.542 222.625 245.917 223.604 244.5 C 226.188 240.813 231.25 239.917 234.917 242.479 L 234.917 242.479 L 234.917 242.479 Z " fill="rgb(255,255,255)"/></g></svg>